<?xml version="1.0" encoding="UTF-8" standalone="no"?>
<!-- Created with Inkscape (http://www.inkscape.org/) -->

<svg
   xmlns:dc="http://purl.org/dc/elements/1.1/"
   xmlns:cc="http://creativecommons.org/ns#"
   xmlns:rdf="http://www.w3.org/1999/02/22-rdf-syntax-ns#"
   xmlns:svg="http://www.w3.org/2000/svg"
   xmlns="http://www.w3.org/2000/svg"
   xmlns:sodipodi="http://sodipodi.sourceforge.net/DTD/sodipodi-0.dtd"
   xmlns:inkscape="http://www.inkscape.org/namespaces/inkscape"
   id="svg3833"
   height="22"
   width="22"
   version="1.1"
   inkscape:version="0.48.1 r9760"
   sodipodi:docname="dropboxstatus-logo.svg">
  <defs
     id="defs9" />
  <sodipodi:namedview
     pagecolor="#ffffff"
     bordercolor="#666666"
     borderopacity="1"
     objecttolerance="10"
     gridtolerance="10"
     guidetolerance="10"
     inkscape:pageopacity="0"
     inkscape:pageshadow="2"
     inkscape:window-width="640"
     inkscape:window-height="480"
     id="namedview7"
     showgrid="false"
     inkscape:zoom="88.861744"
     inkscape:cx="10.467603"
     inkscape:cy="4.3065616"
     inkscape:current-layer="g3791" />
  <metadata
     id="metadata13">
    <rdf:RDF>
      <cc:Work
         rdf:about="">
        <dc:format>image/svg+xml</dc:format>
        <dc:type
           rdf:resource="http://purl.org/dc/dcmitype/StillImage" />
        <dc:title />
      </cc:Work>
    </rdf:RDF>
  </metadata>
  <path
     id="path2835-0"
     d="m 6.499999,4.0000003 -4.4999989,3.5 L 6.499999,10.5 2.0000001,14.5 11,20.5 l 9,-6 -4.5,-4 4.5,-2.9999997 -4.5,-3.5 -4.5,3.5 z"
     style="color:#ffffff;fill:#eae3d0;fill-opacity:1;stroke:#eae3d0;stroke-width:2.5;stroke-linejoin:round;stroke-miterlimit:4;stroke-opacity:1;stroke-dasharray:none"
     inkscape:connector-curvature="0"
     sodipodi:nodetypes="ccccccccccc" />
  <g
     id="g3791"
     style="opacity:.4">
    <path
       id="path3973"
       style="opacity:.3;color:#ffffff;fill:#fff"
       d="m6.5 4.5-4.5 3.5 4.5 3-4.5 4 9 6 9-6-4.5-4 4.5-3-4.5-3.5-4.5 3.5-4.5-3.5z" />
    <path
       id="path3967"
       style="color:#ffffff;fill:#3a3935;fill-opacity:1"
       d="m6.5 3.5-4.5 3.5 4.5 3-4.5 4 9 6 9-6-4.5-4 4.5-3-4.5-3.5-4.5 3.5-4.5-3.5z" />
  </g>
</svg>
