<?xml version="1.0" encoding="UTF-8" standalone="no"?>
<!-- Created with Inkscape (http://www.inkscape.org/) -->

<svg
   xmlns:dc="http://purl.org/dc/elements/1.1/"
   xmlns:cc="http://creativecommons.org/ns#"
   xmlns:rdf="http://www.w3.org/1999/02/22-rdf-syntax-ns#"
   xmlns:svg="http://www.w3.org/2000/svg"
   xmlns="http://www.w3.org/2000/svg"
   xmlns:sodipodi="http://sodipodi.sourceforge.net/DTD/sodipodi-0.dtd"
   xmlns:inkscape="http://www.inkscape.org/namespaces/inkscape"
   id="svg3833"
   height="22"
   width="22"
   version="1.1"
   inkscape:version="0.48.1 r9760"
   sodipodi:docname="dropboxstatus-busy2.svg">
  <defs
     id="defs8" />
  <sodipodi:namedview
     pagecolor="#ffffff"
     bordercolor="#666666"
     borderopacity="1"
     objecttolerance="10"
     gridtolerance="10"
     guidetolerance="10"
     inkscape:pageopacity="0"
     inkscape:pageshadow="2"
     inkscape:window-width="640"
     inkscape:window-height="480"
     id="namedview6"
     showgrid="false"
     inkscape:zoom="44.430872"
     inkscape:cx="-1.0299676"
     inkscape:cy="11"
     inkscape:current-layer="svg3833" />
  <metadata
     id="metadata20">
    <rdf:RDF>
      <cc:Work
         rdf:about="">
        <dc:format>image/svg+xml</dc:format>
        <dc:type
           rdf:resource="http://purl.org/dc/dcmitype/StillImage" />
        <dc:title />
      </cc:Work>
    </rdf:RDF>
  </metadata>
  <path
     id="path3920"
     d="m6.5 4.5-4.5 3.5 4.5 3-4.5 4 9 6 9-6-4.5-4 4.5-3-4.5-3.5-4.5 3.5-4.5-3.5zm0.5 4.5h2 1v1 2h-1v-1.3125c-0.5567 0.435-1 1.142-1 2.312 0 3 3 3 3 3v1s-4 0-4-4c0-1.4826 0.55829-2.4128 1.25-3h-1.25v-1zm4 0s4 0 4 4c0 1.4826-0.55829 2.4128-1.25 3h1.25v1h-2-1v-1-2h1v1.3125c0.557-0.435 1-1.142 1-2.312 0-3-3-3-3-3v-1z"
     style="opacity:.3;color:#ffffff;fill:#fff" />
  <path
     id="path2835-0"
     d="m 6.4999989,3.5000003 -4.4999988,3.5 L 6.4999989,10 2,14 l 9,6 9,-6 -4.5,-4 4.5,-2.9999997 -4.5,-3.5 -4.5,3.5 z"
     style="color:#ffffff;fill:#eae3d0;fill-opacity:1;stroke:#eae3d0;stroke-width:2.5;stroke-linejoin:round;stroke-miterlimit:4;stroke-opacity:1;stroke-dasharray:none"
     inkscape:connector-curvature="0"
     sodipodi:nodetypes="ccccccccccc" />
  <path
     id="path3887"
     d="m6.5 3.5-4.5 3.5 4.5 3-4.5 4 9 6 9-6-4.5-4 4.5-3-4.5-3.5-4.5 3.5-4.5-3.5zm0.5 4.5h2 1v1 2h-1v-1.3125c-0.5567 0.4355-1 1.1425-1 2.3125 0 3 3 3 3 3v1s-4 0-4-4c0-1.483 0.5583-2.4128 1.25-3h-1.25v-1zm4 0s4 0 4 4c0 1.4826-0.55829 2.4128-1.25 3h1.25v1h-2-1v-1-2h1v1.3125c0.557-0.435 1-1.142 1-2.312 0-3-3-3-3-3v-1z"
     style="color:#ffffff;fill:#3a3935;fill-opacity:1" />
</svg>
