<?xml version="1.0" encoding="UTF-8" standalone="no"?>
<!-- Created with Inkscape (http://www.inkscape.org/) -->

<svg
   xmlns:dc="http://purl.org/dc/elements/1.1/"
   xmlns:cc="http://creativecommons.org/ns#"
   xmlns:rdf="http://www.w3.org/1999/02/22-rdf-syntax-ns#"
   xmlns:svg="http://www.w3.org/2000/svg"
   xmlns="http://www.w3.org/2000/svg"
   xmlns:sodipodi="http://sodipodi.sourceforge.net/DTD/sodipodi-0.dtd"
   xmlns:inkscape="http://www.inkscape.org/namespaces/inkscape"
   id="svg3833"
   height="22"
   width="22"
   version="1.1"
   inkscape:version="0.48.1 r9760"
   sodipodi:docname="dropboxstatus-busy.svg">
  <defs
     id="defs8" />
  <sodipodi:namedview
     pagecolor="#ffffff"
     bordercolor="#666666"
     borderopacity="1"
     objecttolerance="10"
     gridtolerance="10"
     guidetolerance="10"
     inkscape:pageopacity="0"
     inkscape:pageshadow="2"
     inkscape:window-width="640"
     inkscape:window-height="480"
     id="namedview6"
     showgrid="false"
     inkscape:zoom="10.915838"
     inkscape:cx="11.085332"
     inkscape:cy="11.260822"
     inkscape:current-layer="svg3833" />
  <metadata
     id="metadata13">
    <rdf:RDF>
      <cc:Work
         rdf:about="">
        <dc:format>image/svg+xml</dc:format>
        <dc:type
           rdf:resource="http://purl.org/dc/dcmitype/StillImage" />
        <dc:title />
      </cc:Work>
    </rdf:RDF>
  </metadata>
  <path
     id="path2835-6"
     d="m6.5 4.5-4.5 3.5 4.5 3-4.5 4 9 6 9-6-4.5-4 4.5-3-4.5-3.5-4.5 3.5-4.5-3.5zm4.5 4.5c1.4826 0 2.4128 0.55829 3 1.25v-1.25h1v2 1h-1-2v-1h1.3125c-0.435-0.557-1.142-1-2.312-1-3 0-3 3-3 3h-1s0-4 4-4zm3 4h1s0 4-4 4c-1.4826 0-2.4128-0.55829-3-1.25v1.25h-1v-2-1h1 2v1h-1.3125c0.43535 0.55672 1.1425 1 2.3125 1 3 0 3-3 3-3z"
     style="opacity:.3;color:#ffffff;fill:#fff" />
  <path
     id="path2835-0"
     d="M 6.4999993,3.5 2,7 6.4999993,10 2,14 11,20 20,14 15.5,10 20,7 15.5,3.5 11,7 z"
     style="color:#ffffff;fill:#eae3d0;fill-opacity:1;stroke:#eae3d0;stroke-opacity:1;stroke-width:2.50000000000000000;stroke-miterlimit:4;stroke-dasharray:none;stroke-linejoin:round"
     inkscape:connector-curvature="0"
     sodipodi:nodetypes="ccccccccccc" />
  <path
     id="path2835"
     d="m6.5 3.5-4.5 3.5 4.5 3-4.5 4 9 6 9-6-4.5-4 4.5-3-4.5-3.5-4.5 3.5-4.5-3.5zm4.5 4.5c1.4826 0 2.4128 0.55829 3 1.25v-1.25h1v2 1h-1-2v-1h1.3125c-0.435-0.5567-1.142-1-2.312-1-3 0-3 3-3 3h-1s0-4 4-4zm3 4h1s0 4-4 4c-1.4826 0-2.4128-0.55829-3-1.25v1.25h-1v-2-1h1 2v1h-1.3125c0.43535 0.55672 1.1425 1 2.3125 1 3 0 3-3 3-3z"
     style="color:#ffffff;fill:#3a3935;fill-opacity:1" />
</svg>
