<?xml version="1.0" encoding="UTF-8" standalone="no"?>
<!-- Created with Inkscape (http://www.inkscape.org/) -->

<svg
   xmlns:dc="http://purl.org/dc/elements/1.1/"
   xmlns:cc="http://creativecommons.org/ns#"
   xmlns:rdf="http://www.w3.org/1999/02/22-rdf-syntax-ns#"
   xmlns:svg="http://www.w3.org/2000/svg"
   xmlns="http://www.w3.org/2000/svg"
   xmlns:sodipodi="http://sodipodi.sourceforge.net/DTD/sodipodi-0.dtd"
   xmlns:inkscape="http://www.inkscape.org/namespaces/inkscape"
   id="svg4744"
   height="22"
   width="22"
   version="1.1"
   inkscape:version="0.48.1 r9760"
   sodipodi:docname="dropboxstatus-x.svg">
  <defs
     id="defs8" />
  <sodipodi:namedview
     pagecolor="#ffffff"
     bordercolor="#666666"
     borderopacity="1"
     objecttolerance="10"
     gridtolerance="10"
     guidetolerance="10"
     inkscape:pageopacity="0"
     inkscape:pageshadow="2"
     inkscape:window-width="640"
     inkscape:window-height="480"
     id="namedview6"
     showgrid="false"
     inkscape:zoom="21.831676"
     inkscape:cx="4.839227"
     inkscape:cy="11"
     inkscape:current-layer="svg4744" />
  <metadata
     id="metadata18">
    <rdf:RDF>
      <cc:Work
         rdf:about="">
        <dc:format>image/svg+xml</dc:format>
        <dc:type
           rdf:resource="http://purl.org/dc/dcmitype/StillImage" />
        <dc:title />
      </cc:Work>
    </rdf:RDF>
  </metadata>
  <path
     id="path2835-0"
     d="M 6.4999989,3.5 2.0000001,7 6.4999989,10 2.0000001,14 11,20 20,14 15.5,10 20,7 15.5,3.5 11,7 z"
     style="color:#ffffff;fill:#eae3d0;fill-opacity:1;stroke:#eae3d0;stroke-width:2.5;stroke-linejoin:round;stroke-miterlimit:4;stroke-opacity:1;stroke-dasharray:none"
     inkscape:connector-curvature="0"
     sodipodi:nodetypes="ccccccccccc" />
  <path
     id="path3973"
     d="m6.5 4.5-4.5 3.5l4.5 3-4.5 4 9 6 9-6-4.5-4 4.5-3-4.5-3.5-4.5 3.5-4.5-3.5zm4.5 4.5c0.554 0 1 0.446 1 1v5c0 0.554-0.446 1-1 1s-1-0.446-1-1v-5c0-0.554 0.446-1 1-1zm-0.25 8h0.5c0.4155 0 0.75 0.3345 0.75 0.75v0.5c0 0.416-0.334 0.75-0.75 0.75h-0.5c-0.416 0-0.75-0.334-0.75-0.75v-0.5c0-0.416 0.334-0.75 0.75-0.75z"
     style="opacity:.3;color:#ffffff;fill:#fff" />
  <path
     id="path3967"
     d="m6.5 3.5-4.5 3.5l4.5 3-4.5 4 9 6 9-6-4.5-4 4.5-3-4.5-3.5-4.5 3.5-4.5-3.5zm4.5 4.5c0.554 0 1 0.446 1 1v5c0 0.554-0.446 1-1 1s-1-0.446-1-1v-5c0-0.554 0.446-1 1-1zm-0.25 8h0.5c0.4155 0 0.75 0.3345 0.75 0.75v0.5c0 0.416-0.334 0.75-0.75 0.75h-0.5c-0.416 0-0.75-0.334-0.75-0.75v-0.5c0-0.416 0.334-0.75 0.75-0.75z"
     style="color:#ffffff;fill:#df382c" />
</svg>
