<?xml version="1.0" encoding="UTF-8" standalone="no"?>
<!-- Created with Inkscape (http://www.inkscape.org/) -->

<svg
   xmlns:dc="http://purl.org/dc/elements/1.1/"
   xmlns:cc="http://creativecommons.org/ns#"
   xmlns:rdf="http://www.w3.org/1999/02/22-rdf-syntax-ns#"
   xmlns:svg="http://www.w3.org/2000/svg"
   xmlns="http://www.w3.org/2000/svg"
   xmlns:xlink="http://www.w3.org/1999/xlink"
   xmlns:sodipodi="http://sodipodi.sourceforge.net/DTD/sodipodi-0.dtd"
   xmlns:inkscape="http://www.inkscape.org/namespaces/inkscape"
   id="svg3134"
   height="22"
   width="22"
   version="1.1"
   inkscape:version="0.48.1 r9760"
   sodipodi:docname="preferences-web-browser-identification.svg">
  <metadata
     id="metadata93">
    <rdf:RDF>
      <cc:Work
         rdf:about="">
        <dc:format>image/svg+xml</dc:format>
        <dc:type
           rdf:resource="http://purl.org/dc/dcmitype/StillImage" />
        <dc:title></dc:title>
      </cc:Work>
    </rdf:RDF>
  </metadata>
  <sodipodi:namedview
     pagecolor="#ffffff"
     bordercolor="#666666"
     borderopacity="1"
     objecttolerance="10"
     gridtolerance="10"
     guidetolerance="10"
     inkscape:pageopacity="0"
     inkscape:pageshadow="2"
     inkscape:window-width="640"
     inkscape:window-height="480"
     id="namedview91"
     showgrid="false"
     inkscape:zoom="10.006185"
     inkscape:cx="6.7353592"
     inkscape:cy="3.1340227"
     inkscape:current-layer="g3072" />
  <defs
     id="defs3136">
    <linearGradient
       id="linearGradient2098"
       y2="39.999001"
       gradientUnits="userSpaceOnUse"
       x2="25.058001"
       y1="47.028"
       x1="25.058001">
      <stop
         id="stop3704"
         style="stop-opacity:0"
         offset="0" />
      <stop
         id="stop3710"
         offset=".5" />
      <stop
         id="stop3706"
         style="stop-opacity:0"
         offset="1" />
    </linearGradient>
    <radialGradient
       id="radialGradient2096"
       xlink:href="#linearGradient3688"
       gradientUnits="userSpaceOnUse"
       cy="43.5"
       cx="4.993"
       gradientTransform="matrix(2.0038,0,0,1.4,-20.012,-104.4)"
       r="2.5" />
    <linearGradient
       id="linearGradient3688">
      <stop
         id="stop3690"
         offset="0" />
      <stop
         id="stop3692"
         style="stop-opacity:0"
         offset="1" />
    </linearGradient>
    <radialGradient
       id="radialGradient2094"
       xlink:href="#linearGradient3688"
       gradientUnits="userSpaceOnUse"
       cy="43.5"
       cx="4.993"
       gradientTransform="matrix(2.0038,0,0,1.4,27.988,-17.4)"
       r="2.5" />
    <linearGradient
       id="linearGradient1992"
       y2="34.609001"
       xlink:href="#linearGradient4585"
       gradientUnits="userSpaceOnUse"
       x2="8.4885998"
       y1="18.344999"
       x1="9.1177998" />
    <linearGradient
       id="linearGradient1990"
       y2="36.625"
       xlink:href="#linearGradient6732"
       gradientUnits="userSpaceOnUse"
       x2="31.5"
       gradientTransform="matrix(0.85804,0,0,0.8,-0.93222,9.3)"
       y1="0.75950998"
       x1="11.511" />
    <linearGradient
       id="linearGradient6732">
      <stop
         id="stop6734"
         style="stop-color:#fff"
         offset="0" />
      <stop
         id="stop6736"
         style="stop-color:#ddd"
         offset="1" />
    </linearGradient>
    <linearGradient
       id="linearGradient4585">
      <stop
         id="stop4587"
         style="stop-color:#9e9e9e"
         offset="0" />
      <stop
         id="stop4589"
         style="stop-color:#ddd;stop-opacity:0"
         offset="1" />
    </linearGradient>
    <linearGradient
       id="linearGradient3997"
       y2="99.274002"
       gradientUnits="userSpaceOnUse"
       x2="330.06"
       gradientTransform="matrix(0.68166,0,0,0.67984,-202.21,-33.645)"
       y1="70.281998"
       x1="324.5">
      <stop
         id="stop4011"
         style="stop-color:#555753"
         offset="0" />
      <stop
         id="stop4013"
         style="stop-color:#555753"
         offset="1" />
    </linearGradient>
    <linearGradient
       id="linearGradient3999"
       y2="60.768002"
       gradientUnits="userSpaceOnUse"
       x2="308.64999"
       gradientTransform="matrix(0.65225,0,0,0.64594,-193.17,-31.629)"
       y1="58.443001"
       x1="302.29001">
      <stop
         id="stop7383"
         style="stop-color:#babdb6"
         offset="0" />
      <stop
         id="stop7385"
         style="stop-color:#fff"
         offset="1" />
    </linearGradient>
    <linearGradient
       id="linearGradient4001"
       y2="88.005997"
       gradientUnits="userSpaceOnUse"
       x2="317.16"
       gradientTransform="matrix(0.68166,0,0,0.67984,-202.21,-33.645)"
       y1="75.574997"
       x1="326.60001">
      <stop
         id="stop7423"
         style="stop-color:#fff"
         offset="0" />
      <stop
         id="stop7425"
         style="stop-color:#fff;stop-opacity:0"
         offset="1" />
    </linearGradient>
    <linearGradient
       id="linearGradient4003"
       y2="35.078999"
       gradientUnits="userSpaceOnUse"
       x2="90.221001"
       gradientTransform="matrix(0.41146,-0.41048,0.35988,0.35903,-36.314,40.996)"
       y1="35.152"
       x1="97.442001">
      <stop
         id="stop4958"
         style="stop-color:#f8b17e"
         offset="0" />
      <stop
         id="stop4960"
         style="stop-color:#e35d4f"
         offset=".26238" />
      <stop
         id="stop4962"
         style="stop-color:#c6262e"
         offset=".66347" />
      <stop
         id="stop4964"
         style="stop-color:#690b54"
         offset="1" />
    </linearGradient>
    <linearGradient
       id="linearGradient4005"
       y2="27.273001"
       gradientUnits="userSpaceOnUse"
       x2="36.000999"
       gradientTransform="matrix(0.50011,0,0,0.49926,-0.25507,0.28339)"
       y1="34.022999"
       x1="29.278">
      <stop
         id="stop2492"
         style="stop-color:#791235"
         offset="0" />
      <stop
         id="stop2494"
         style="stop-color:#dd3b27"
         offset="1" />
    </linearGradient>
    <linearGradient
       id="linearGradient4007"
       y2="44.139999"
       xlink:href="#linearGradient3688"
       gradientUnits="userSpaceOnUse"
       x2="-9.7747002"
       gradientTransform="matrix(0.25028,-0.24945,0.42468,0.4233,-0.31069,-4.2147)"
       y1="44.229"
       x1="-6.3077998" />
    <radialGradient
       id="radialGradient2930"
       xlink:href="#linearGradient3688"
       gradientUnits="userSpaceOnUse"
       cy="34.498001"
       cx="21.959999"
       gradientTransform="matrix(0.30892,0,0,0.11992,35.257,40.428)"
       r="12.728" />
    <linearGradient
       id="linearGradient2944"
       y2="34.609001"
       xlink:href="#linearGradient4585"
       gradientUnits="userSpaceOnUse"
       x2="8.4885998"
       gradientTransform="matrix(1.1025,0,0,1.0306,1.4303,-9.3456)"
       y1="18.344999"
       x1="9.1177998" />
    <linearGradient
       id="linearGradient2963"
       y2="36.625"
       xlink:href="#linearGradient6732"
       gradientUnits="userSpaceOnUse"
       x2="31.5"
       gradientTransform="matrix(0.93233,0,0,0.832,0.82707,0.012004)"
       y1="0.75950998"
       x1="11.511" />
    <radialGradient
       inkscape:collect="always"
       xlink:href="#linearGradient3688"
       id="radialGradient3124"
       gradientUnits="userSpaceOnUse"
       gradientTransform="matrix(2.0038,0,0,1.4,27.988,-17.4)"
       cx="4.993"
       cy="43.5"
       r="2.5" />
    <radialGradient
       inkscape:collect="always"
       xlink:href="#linearGradient3688"
       id="radialGradient3126"
       gradientUnits="userSpaceOnUse"
       gradientTransform="matrix(2.0038,0,0,1.4,-20.012,-104.4)"
       cx="4.993"
       cy="43.5"
       r="2.5" />
    <linearGradient
       inkscape:collect="always"
       xlink:href="#linearGradient2098"
       id="linearGradient3128"
       gradientUnits="userSpaceOnUse"
       x1="25.058001"
       y1="47.028"
       x2="25.058001"
       y2="39.999001" />
    <linearGradient
       inkscape:collect="always"
       xlink:href="#linearGradient6732"
       id="linearGradient3130"
       gradientUnits="userSpaceOnUse"
       gradientTransform="matrix(0.85804,0,0,0.8,-0.93222,9.3)"
       x1="11.511"
       y1="0.75950998"
       x2="31.5"
       y2="36.625" />
    <linearGradient
       inkscape:collect="always"
       xlink:href="#linearGradient4585"
       id="linearGradient3132"
       gradientUnits="userSpaceOnUse"
       x1="9.1177998"
       y1="18.344999"
       x2="8.4885998"
       y2="34.609001" />
    <linearGradient
       inkscape:collect="always"
       xlink:href="#linearGradient6732"
       id="linearGradient3134"
       gradientUnits="userSpaceOnUse"
       gradientTransform="matrix(0.93233,0,0,0.832,0.82707,0.012004)"
       x1="11.511"
       y1="0.75950998"
       x2="31.5"
       y2="36.625" />
    <linearGradient
       inkscape:collect="always"
       xlink:href="#linearGradient4585"
       id="linearGradient3136"
       gradientUnits="userSpaceOnUse"
       gradientTransform="matrix(1.1025,0,0,1.0306,1.4303,-9.3456)"
       x1="9.1177998"
       y1="18.344999"
       x2="8.4885998"
       y2="34.609001" />
    <linearGradient
       inkscape:collect="always"
       xlink:href="#linearGradient3997"
       id="linearGradient3138"
       gradientUnits="userSpaceOnUse"
       gradientTransform="matrix(0.68166,0,0,0.67984,-202.21,-33.645)"
       x1="324.5"
       y1="70.281998"
       x2="330.06"
       y2="99.274002" />
    <linearGradient
       inkscape:collect="always"
       xlink:href="#linearGradient3999"
       id="linearGradient3140"
       gradientUnits="userSpaceOnUse"
       gradientTransform="matrix(0.65225,0,0,0.64594,-193.17,-31.629)"
       x1="302.29001"
       y1="58.443001"
       x2="308.64999"
       y2="60.768002" />
    <linearGradient
       inkscape:collect="always"
       xlink:href="#linearGradient4001"
       id="linearGradient3142"
       gradientUnits="userSpaceOnUse"
       gradientTransform="matrix(0.68166,0,0,0.67984,-202.21,-33.645)"
       x1="326.60001"
       y1="75.574997"
       x2="317.16"
       y2="88.005997" />
    <linearGradient
       inkscape:collect="always"
       xlink:href="#linearGradient4003"
       id="linearGradient3144"
       gradientUnits="userSpaceOnUse"
       gradientTransform="matrix(0.41146,-0.41048,0.35988,0.35903,-36.314,40.996)"
       x1="97.442001"
       y1="35.152"
       x2="90.221001"
       y2="35.078999" />
    <linearGradient
       inkscape:collect="always"
       xlink:href="#linearGradient4005"
       id="linearGradient3146"
       gradientUnits="userSpaceOnUse"
       gradientTransform="matrix(0.50011,0,0,0.49926,-0.25507,0.28339)"
       x1="29.278"
       y1="34.022999"
       x2="36.000999"
       y2="27.273001" />
    <linearGradient
       inkscape:collect="always"
       xlink:href="#linearGradient3688"
       id="linearGradient3148"
       gradientUnits="userSpaceOnUse"
       gradientTransform="matrix(0.25028,-0.24945,0.42468,0.4233,-0.31069,-4.2147)"
       x1="-6.3077998"
       y1="44.229"
       x2="-9.7747002"
       y2="44.139999" />
    <radialGradient
       inkscape:collect="always"
       xlink:href="#linearGradient3688"
       id="radialGradient3150"
       gradientUnits="userSpaceOnUse"
       gradientTransform="matrix(0.30892,0,0,0.11992,35.257,40.428)"
       cx="21.959999"
       cy="34.498001"
       r="12.728" />
    <linearGradient
       id="linearGradient2821">
      <stop
         id="stop2823"
         style="stop-color:#fff"
         offset="0" />
      <stop
         id="stop2825"
         style="stop-color:#fff;stop-opacity:0"
         offset="1" />
    </linearGradient>
    <radialGradient
       id="radialGradient5564"
       xlink:href="#linearGradient2821"
       gradientUnits="userSpaceOnUse"
       cy="24.271"
       cx="15.08"
       gradientTransform="matrix(5.0817,0,0,1.0842,-67.63,-7.7446)"
       r="4.5" />
    <linearGradient
       id="linearGradient5566"
       y2="4.1"
       xlink:href="#linearGradient2821"
       gradientUnits="userSpaceOnUse"
       x2="37.521"
       gradientTransform="matrix(0.85715,0,0,0.83335,-28.643,8.2498)"
       y1="11.524"
       x1="37.521" />
    <radialGradient
       id="radialGradient6358"
       xlink:href="#linearGradient2821"
       gradientUnits="userSpaceOnUse"
       cy="24.271"
       cx="13.893"
       gradientTransform="matrix(2.5616,0,0,1.1822,-27.639,-20.123)"
       r="4.5" />
    <linearGradient
       id="linearGradient6360"
       y2="4.1"
       xlink:href="#linearGradient2821"
       gradientUnits="userSpaceOnUse"
       x2="37.521"
       gradientTransform="matrix(1.1666,0,0,0.8333,-40.249,-1.7496)"
       y1="11.524"
       x1="37.521" />
    <radialGradient
       id="radialGradient6366"
       xlink:href="#linearGradient2821"
       gradientUnits="userSpaceOnUse"
       cy="24.271"
       cx="13.893"
       gradientTransform="matrix(2.1958,0,0,1.1823,-11.193,-20.126)"
       r="4.5" />
    <linearGradient
       id="linearGradient6368"
       y2="4.1"
       xlink:href="#linearGradient2821"
       gradientUnits="userSpaceOnUse"
       x2="37.521"
       gradientTransform="matrix(1,0,0,0.83338,-22.002,-1.7505)"
       y1="11.524"
       x1="37.521" />
    <radialGradient
       r="10.081"
       gradientTransform="matrix(1.1035 0 0 1.0265 -4.1555 -1.8158)"
       cx="62.225"
       cy="-3.442"
       gradientUnits="userSpaceOnUse"
       id="radialGradient5147">
      <stop
         offset="0"
         style="stop-color:#9e9e9e"
         id="stop14118" />
      <stop
         offset="1"
         style="stop-color:#9e9e9e;stop-opacity:0"
         id="stop14120" />
    </radialGradient>
    <radialGradient
       r="18.098"
       gradientTransform="matrix(-1.5425 0 0 -.84553 60.718 23.829)"
       cx="23.86"
       cy="13.067"
       gradientUnits="userSpaceOnUse"
       id="radialGradient5145">
      <stop
         offset="0"
         style="stop-color:#557695"
         id="stop14112" />
      <stop
         offset="1"
         style="stop-color:#15395c"
         id="stop14114" />
    </radialGradient>
    <radialGradient
       r="9.7553"
       gradientTransform="matrix(2.4129 0 0 2.413 -126.48 34.231)"
       cx="62.2"
       cy="-8.7256"
       gradientUnits="userSpaceOnUse"
       id="radialGradient15127">
      <stop
         offset="0"
         style="stop-color:#8fb1dc"
         id="stop8649" />
      <stop
         offset="1"
         style="stop-color:#3465a4"
         id="stop8651" />
    </radialGradient>
    <linearGradient
       x1="62.2"
       y1="-12.489"
       gradientTransform="matrix(2.1499 0 0 2.1499 -110.12 31.935)"
       x2="62.2"
       gradientUnits="userSpaceOnUse"
       y2=".24326"
       id="linearGradient15133">
      <stop
         offset="0"
         style="stop-color:#fff"
         id="stop4875" />
      <stop
         offset="1"
         style="stop-color:#fff;stop-opacity:0"
         id="stop4877" />
    </linearGradient>
    <radialGradient
       r="10.625"
       gradientTransform="matrix(1 0 0 .34118 0 3.0471)"
       cx="62.625"
       cy="4.625"
       gradientUnits="userSpaceOnUse"
       id="radialGradient2612">
      <stop
         offset="0"
         id="stop8840" />
      <stop
         offset="1"
         style="stop-opacity:0"
         id="stop8842" />
    </radialGradient>
  </defs>
  <g
     id="g3072"
     transform="scale(0.45833333,0.45833333)">
    <g
       transform="matrix(1,0,0,0.55556,-1,7.8889)"
       id="g2043">
      <g
         id="g2036">
        <g
           transform="matrix(1.0526,0,0,1.2857,-1.2632,-13.429)"
           style="opacity:0.4"
           id="g3712">
          <rect
             x="38"
             y="40"
             width="5"
             height="7"
             style="fill:url(#radialGradient3124)"
             id="rect2801" />
          <rect
             x="-10"
             y="-47"
             width="5"
             height="7"
             transform="scale(-1,-1)"
             style="fill:url(#radialGradient3126)"
             id="rect3696" />
          <rect
             x="10"
             y="40"
             width="28"
             height="7"
             style="fill:url(#linearGradient3128)"
             id="rect3700" />
        </g>
      </g>
    </g>
    <g
       transform="translate(3,-8)"
       id="g1962">
      <rect
         x="2.5"
         y="16.5"
         width="34"
         height="24"
         ry="2.75"
         rx="2.75"
         style="fill:url(#linearGradient3130);fill-rule:evenodd;stroke:#939393"
         id="rect5857" />
      <path
         d="m 18.395,22.589 c 0,0.29414 -0.06929,0.51971 -0.20785,0.67672 -0.13857,0.15597 -0.32753,0.23395 -0.56687,0.23395 -0.09763,0 -0.19106,-0.01832 -0.28029,-0.05495 v -0.41765 c 0.07874,0.05967 0.16587,0.0895 0.26139,0.0895 0.11758,0 0.20575,-0.04344 0.26454,-0.13032 0.05983,-0.08793 0.08975,-0.21929 0.08975,-0.3941 v -1.3927 H 18.395 v 1.3896 m 1.2266,-0.80391 c 0.24564,2e-6 0.44142,0.07537 0.58734,0.2261 0.14591,0.15073 0.21887,0.35328 0.21887,0.60764 0,0.27634 -0.07821,0.49197 -0.23462,0.64689 -0.15641,0.15387 -0.36636,0.23081 -0.62985,0.23081 -0.2425,0 -0.43985,-0.07589 -0.59207,-0.22767 -0.15116,-0.15178 -0.22675,-0.35066 -0.22675,-0.59665 0,-0.27634 0.07926,-0.49302 0.23778,-0.65003 0.15851,-0.15806 0.37161,-0.23709 0.6393,-0.23709 m -0.03622,1.3739 c 0.12807,0 0.23199,-0.04553 0.31178,-0.1366 0.08083,-0.09211 0.12125,-0.2172 0.12125,-0.37526 0,-0.16015 -0.03989,-0.28629 -0.11967,-0.3784 -0.07979,-0.09316 -0.18214,-0.13974 -0.30705,-0.13974 -0.12388,1e-6 -0.22885,0.04867 -0.31493,0.14602 -0.08608,0.0963 -0.12912,0.22348 -0.12912,0.38154 0,0.15597 0.04199,0.27896 0.12597,0.36898 0.08503,0.08898 0.18895,0.13346 0.31178,0.13346 m 2.6753,0.29204 h -0.42201 v -0.88084 c 0,-0.14759 -0.02257,-0.25436 -0.06771,-0.32031 -0.04515,-0.06699 -0.1223,-0.10049 -0.23148,-0.10049 -0.09553,1e-6 -0.17479,0.03611 -0.23777,0.10834 -0.06299,0.07223 -0.09448,0.16434 -0.09448,0.27634 v 0.91696 h -0.42673 v -2.3803 h 0.42673 v 0.99703 c 0.05774,-0.09421 0.12964,-0.16486 0.21573,-0.21197 0.08713,-0.0471 0.18843,-0.07065 0.3039,-0.07066 0.17741,2e-6 0.31073,0.05496 0.39996,0.16486 0.08923,0.10991 0.13384,0.27477 0.13385,0.49459 v 1.0065 m 1.9337,0 h -0.42201 v -0.88084 c 0,-0.14759 -0.02257,-0.25436 -0.06771,-0.32031 -0.04514,-0.06699 -0.12229,-0.10049 -0.23147,-0.10049 -0.09553,1e-6 -0.17478,0.03611 -0.23777,0.10834 -0.06299,0.07223 -0.09448,0.16434 -0.09448,0.27634 v 0.91696 h -0.42673 v -1.6078 h 0.42673 v 0.22453 c 0.05774,-0.09421 0.12965,-0.16486 0.21573,-0.21197 0.08712,-0.0471 0.18842,-0.07065 0.3039,-0.07066 0.17741,2e-6 0.31073,0.05496 0.39996,0.16486 0.08923,0.10991 0.13385,0.27477 0.13385,0.49459 v 1.0065 m 1.381,-2.2516 h 0.79047 c 0.38211,2e-6 0.6687,0.09159 0.85976,0.27477 0.1921,0.18318 0.28815,0.45743 0.28815,0.82275 0,0.35276 -0.10812,0.63328 -0.32437,0.84159 -0.21521,0.2083 -0.50704,0.31246 -0.87551,0.31246 h -0.7385 v -2.2516 m 0.43932,1.9046 h 0.28974 c 0.23724,0 0.42358,-0.07066 0.559,-0.21197 0.13647,-0.14131 0.20469,-0.33444 0.2047,-0.57938 -10e-6,-0.23761 -0.06614,-0.42236 -0.1984,-0.55426 -0.13228,-0.13189 -0.31651,-0.19784 -0.5527,-0.19784 H 26.0147 v 1.5434 m 2.6265,-1.3189 c 0.24564,2e-6 0.44142,0.07537 0.58734,0.2261 0.14591,0.15073 0.21888,0.35328 0.21888,0.60764 0,0.27634 -0.07821,0.49197 -0.23462,0.64689 -0.15642,0.15387 -0.36637,0.23081 -0.62986,0.23081 -0.2425,0 -0.43985,-0.07589 -0.59207,-0.22767 -0.15117,-0.15178 -0.22675,-0.35066 -0.22675,-0.59665 0,-0.27634 0.07926,-0.49302 0.23777,-0.65003 0.15851,-0.15806 0.37162,-0.23709 0.63931,-0.23709 m -0.03622,1.3739 c 0.12807,0 0.232,-0.04553 0.31178,-0.1366 0.08083,-0.09211 0.12125,-0.2172 0.12125,-0.37526 0,-0.16015 -0.0399,-0.28629 -0.11968,-0.3784 -0.07978,-0.09316 -0.18213,-0.13974 -0.30705,-0.13974 -0.12388,10e-7 -0.22885,0.04867 -0.31493,0.14602 -0.08608,0.0963 -0.12912,0.22348 -0.12912,0.38154 0,0.15597 0.04199,0.27896 0.12597,0.36898 0.08503,0.08898 0.18896,0.13346 0.31178,0.13346 m 2.5824,-0.41922 h -1.0739 c 0,0.13189 0.04041,0.23447 0.12125,0.30774 0.08188,0.07223 0.19525,0.10834 0.34012,0.10834 0.15956,1e-6 0.31336,-0.04763 0.46137,-0.14288 v 0.34857 c -0.16586,0.08583 -0.35167,0.12875 -0.55742,0.12875 -0.2488,0 -0.44352,-0.07275 -0.58419,-0.21825 -0.13962,-0.1455 -0.20944,-0.34438 -0.20944,-0.59665 0,-0.27216 0.07454,-0.48883 0.22361,-0.65003 0.15011,-0.16224 0.34747,-0.24337 0.59206,-0.24337 0.2152,2e-6 0.38316,0.06699 0.50389,0.20098 0.12177,0.13294 0.18266,0.31874 0.18266,0.5574 v 0.19941 m -0.39367,-0.28262 c 0,-0.112 -0.02834,-0.1994 -0.08503,-0.26221 -0.05563,-0.0628 -0.13489,-0.09421 -0.23777,-0.09421 -0.09342,2e-6 -0.17426,0.03245 -0.24249,0.09735 -0.06824,0.06385 -0.10655,0.15021 -0.11495,0.25907 h 0.68024"
         id="text6970"
         inkscape:connector-curvature="0" />
      <rect
         x="17"
         y="25"
         width="15"
         height="2"
         ry="1"
         rx="1"
         style="opacity:0.39765996;fill:#8d8d8d;fill-rule:evenodd"
         id="rect6978" />
      <rect
         x="17.089001"
         y="28"
         width="10.956"
         height="2"
         ry="1"
         rx="1"
         style="opacity:0.39765996;fill:#8d8d8d;fill-rule:evenodd"
         id="rect6980" />
      <g
         transform="matrix(0.78254,0,0,0.65025,0.39068,14.551)"
         style="opacity:0.48537999"
         id="g7033">
        <rect
           x="6"
           y="30"
           width="1"
           height="6"
           ry="0"
           rx="0"
           style="fill-rule:evenodd"
           id="rect7003" />
        <rect
           x="8.0846004"
           y="30"
           width="1.9375"
           height="2.9851999"
           ry="0"
           rx="0"
           style="fill-rule:evenodd"
           id="rect7005" />
        <rect
           x="11"
           y="30"
           width="1"
           height="2.9851999"
           style="fill-rule:evenodd"
           id="rect7007" />
        <rect
           x="13"
           y="30"
           width="2"
           height="2.9851999"
           style="fill-rule:evenodd"
           id="rect7009" />
        <rect
           x="16"
           y="30"
           width="1"
           height="2.9851999"
           style="fill-rule:evenodd"
           id="rect7011" />
        <rect
           x="18"
           y="30"
           width="1"
           height="2.9851999"
           style="fill-rule:evenodd"
           id="rect7013" />
        <rect
           x="21"
           y="30"
           width="1"
           height="2.9851999"
           style="fill-rule:evenodd"
           id="rect7015" />
        <rect
           x="23"
           y="30"
           width="2"
           height="2.9851999"
           style="fill-rule:evenodd"
           id="rect7017" />
        <rect
           x="26"
           y="30"
           width="2"
           height="2.9851999"
           style="fill-rule:evenodd"
           id="rect7019" />
        <rect
           x="29"
           y="30"
           width="1"
           height="2.9851999"
           style="fill-rule:evenodd"
           id="rect7021" />
        <rect
           x="31"
           y="30"
           width="1"
           height="2.9851999"
           style="fill-rule:evenodd"
           id="rect7023" />
        <rect
           x="33"
           y="30"
           width="1"
           height="2.9851999"
           style="fill-rule:evenodd"
           id="rect7025" />
        <rect
           x="35"
           y="30"
           width="2"
           height="2.9851999"
           style="fill-rule:evenodd"
           id="rect7027" />
        <rect
           x="39"
           y="30"
           width="2"
           height="2.9851999"
           style="fill-rule:evenodd"
           id="rect7029" />
        <rect
           x="42"
           y="30"
           width="1"
           height="6"
           style="fill-rule:evenodd"
           id="rect7031" />
      </g>
      <path
         d="m 7.473,37.137 c 0.058659,0.01251 0.10438,0.03852 0.13714,0.07805 0.033172,0.03953 0.049762,0.08834 0.049762,0.14643 0,0.08915 -0.030746,0.15813 -0.092238,0.20694 -0.061492,0.04881 -0.14887,0.07322 -0.26214,0.07322 -0.038031,0 -0.077276,-0.0038 -0.11772,-0.0115 -0.040051,-0.0073 -0.081517,-0.01835 -0.1244,-0.03328 v -0.11799 c 0.033986,0.01977 0.071204,0.03469 0.11165,0.04478 0.040458,0.01009 0.082731,0.01513 0.12683,0.01513 0.076869,0 0.13532,-0.01513 0.17538,-0.04538 0.04045,-0.03025 0.060678,-0.07422 0.060678,-0.13191 0,-0.05325 -0.018812,-0.0948 -0.056429,-0.12465 -0.037225,-0.03025 -0.089209,-0.04538 -0.15595,-0.04538 h -0.10559 v -0.10044 h 0.11044 c 0.06028,10e-7 0.1064,-0.0119 0.13835,-0.0357 0.031959,-0.0242 0.047938,-0.05889 0.047938,-0.10407 0,-0.04639 -0.016582,-0.08189 -0.049754,-0.10649 -0.032773,-0.02501 -0.079905,-0.03752 -0.14139,-0.03752 -0.033579,0 -0.069584,0.0036 -0.10802,0.01089 -0.038438,0.0073 -0.080711,0.01856 -0.12683,0.03388 V 36.7431 c 0.046522,-0.01291 0.090008,-0.02259 0.13046,-0.02904 0.040857,-0.0065 0.079287,-0.0097 0.11529,-0.0097 0.093052,2e-6 0.16667,0.02118 0.22089,0.06353 0.054207,0.04195 0.081314,0.09883 0.081314,0.17063 0,0.05002 -0.014368,0.09238 -0.043087,0.12707 -0.028719,0.03429 -0.069583,0.05809 -0.12258,0.0714 m 0.52551,0.38423 h 0.42781 v 0.10286 h -0.57527 v -0.10286 c 0.04653,-0.048 0.10984,-0.11234 0.18994,-0.19302 0.080508,-0.08108 0.13108,-0.13332 0.1517,-0.15672 0.039245,-0.04397 0.066548,-0.08108 0.081924,-0.11134 0.015776,-0.03066 0.023665,-0.06071 0.023665,-0.09016 0,-0.048 -0.016989,-0.08713 -0.050975,-0.11739 -0.033579,-0.03025 -0.077472,-0.04538 -0.13168,-0.04538 -0.038431,0 -0.079092,0.0067 -0.12197,0.01997 -0.042484,0.01331 -0.087989,0.03348 -0.13654,0.06051 v -0.12344 c 0.049355,-0.01976 0.09547,-0.03469 0.13835,-0.04478 0.042883,-0.01008 0.082128,-0.01513 0.11773,-0.01513 0.09385,2e-6 0.16869,0.0234 0.22453,0.07019 0.055827,0.04679 0.08374,0.10932 0.08374,0.18758 0,0.03711 -0.00708,0.07241 -0.021238,0.10589 -0.013757,0.03308 -0.039041,0.07221 -0.075852,0.11738 -0.010118,0.0117 -0.04228,0.04558 -0.096487,0.10165 -0.054207,0.05567 -0.13067,0.13372 -0.22938,0.23417 m 1.0225,-0.69403 -0.30948,0.48225 h 0.30948 V 36.82717 M 8.988839,36.72068 h 0.15414 v 0.58874 h 0.12925 v 0.10165 h -0.12925 v 0.21299 h -0.12198 v -0.21299 h -0.409 v -0.11799 l 0.37683,-0.57241 m 0.48789,0 h 0.48121 v 0.10286 h -0.36895 v 0.22146 c 0.017803,-0.0061 0.035606,-0.01049 0.053401,-0.01331 0.017803,-0.0032 0.035605,-0.0048 0.0534,-0.0048 0.10114,1e-6 0.18124,0.02763 0.2403,0.0829 0.059066,0.05527 0.088599,0.13009 0.088599,0.22449 0,0.09722 -0.030347,0.17285 -0.091025,0.2269 -0.060686,0.05365 -0.14624,0.08048 -0.25669,0.08048 -0.038024,0 -0.076861,-0.0032 -0.1165,-0.0097 C 9.52122,37.62545 9.480567,37.61581 9.438494,37.6029 v -0.12283 c 0.036411,0.01977 0.074036,0.03449 0.11287,0.04417 0.03883,0.0097 0.079898,0.01452 0.12318,0.01452 0.069991,0 0.12541,-0.01835 0.16627,-0.05506 0.040857,-0.03671 0.061289,-0.08653 0.061289,-0.14946 0,-0.06293 -0.020432,-0.11275 -0.061289,-0.14946 -0.040864,-0.03671 -0.096283,-0.05506 -0.16627,-0.05506 -0.032765,0 -0.065538,0.0036 -0.098303,0.01089 -0.032366,0.0073 -0.065537,0.01856 -0.099515,0.03388 v -0.45381 m 1.4479,0.08047 c -0.06311,10e-7 -0.11064,0.03106 -0.1426,0.09318 -0.03156,0.06172 -0.04734,0.1547 -0.04734,0.27894 0,0.12384 0.01578,0.21682 0.04734,0.27894 0.03196,0.06172 0.07949,0.09258 0.1426,0.09258 0.06351,0 0.11105,-0.03086 0.1426,-0.09258 0.03196,-0.06212 0.04794,-0.1551 0.04794,-0.27894 0,-0.12424 -0.01598,-0.21722 -0.04794,-0.27894 -0.03155,-0.06212 -0.07909,-0.09318 -0.1426,-0.09318 m 0,-0.09681 c 0.10154,2e-6 0.17901,0.04014 0.23241,0.12041 0.0538,0.07987 0.0807,0.19605 0.0807,0.34853 0,0.15208 -0.0269,0.26825 -0.0807,0.34853 -0.0534,0.07987 -0.13087,0.11981 -0.23241,0.11981 -0.10154,0 -0.17922,-0.03993 -0.23302,-0.11981 -0.0534,-0.08027 -0.0801,-0.19645 -0.0801,-0.34853 0,-0.15248 0.0267,-0.26866 0.0801,-0.34853 0.0538,-0.08027 0.13147,-0.12041 0.23302,-0.12041 m 0.53036,0.01634 h 0.48121 v 0.10286 h -0.36894 V 37.045 c 0.0178,-0.0061 0.0356,-0.01049 0.0534,-0.01331 0.0178,-0.0032 0.0356,-0.0048 0.0534,-0.0048 0.10114,10e-7 0.18124,0.02763 0.2403,0.0829 0.05906,0.05527 0.08859,0.13009 0.08859,0.22449 0,0.09722 -0.03034,0.17285 -0.09102,0.2269 -0.06069,0.05365 -0.14625,0.08048 -0.25669,0.08048 -0.03802,0 -0.07686,-0.0032 -0.11651,-0.0097 -0.03924,-0.0065 -0.0799,-0.01614 -0.12197,-0.02905 v -0.12283 c 0.03641,0.01977 0.07403,0.03449 0.11287,0.04417 0.03884,0.0097 0.0799,0.01452 0.12319,0.01452 0.06998,0 0.12541,-0.01835 0.16627,-0.05506 0.04086,-0.03671 0.06129,-0.08653 0.06129,-0.14946 0,-0.06293 -0.02043,-0.11275 -0.06129,-0.14946 -0.04086,-0.03671 -0.09628,-0.05506 -0.16627,-0.05506 -0.03277,0 -0.06554,0.0036 -0.0983,0.01089 -0.03237,0.0073 -0.06554,0.01856 -0.09952,0.03388 v -0.45381 m 0.7913,0 h 0.48121 v 0.10286 h -0.36894 v 0.22146 c 0.01779,-0.0061 0.0356,-0.01049 0.0534,-0.01331 0.01779,-0.0032 0.0356,-0.0048 0.0534,-0.0048 0.10114,1e-6 0.18124,0.02763 0.2403,0.0829 0.05907,0.05527 0.0886,0.13009 0.0886,0.22449 0,0.09722 -0.03034,0.17285 -0.09103,0.2269 -0.06068,0.05365 -0.14624,0.08048 -0.25668,0.08048 -0.03803,0 -0.07687,-0.0032 -0.11651,-0.0097 -0.03924,-0.0065 -0.0799,-0.01614 -0.12197,-0.02905 v -0.12283 c 0.0364,0.01977 0.07403,0.03449 0.11287,0.04417 0.03884,0.0097 0.0799,0.01452 0.12319,0.01452 0.06998,0 0.1254,-0.01835 0.16627,-0.05506 0.04086,-0.03671 0.06129,-0.08653 0.06129,-0.14946 0,-0.06293 -0.02043,-0.11275 -0.06129,-0.14946 -0.04087,-0.03671 -0.09628,-0.05506 -0.16627,-0.05506 -0.03277,0 -0.06554,0.0036 -0.09831,0.01089 -0.03237,0.0073 -0.06554,0.01856 -0.09952,0.03388 V 36.7207 m 0.75914,0 h 0.58255 v 0.05204 l -0.3289,0.85135 h -0.12804 l 0.30948,-0.80052 h -0.43508 v -0.10286 m 1.2191,0 h 0.48121 v 0.10286 h -0.36895 v 0.22146 c 0.0178,-0.0061 0.03561,-0.01049 0.0534,-0.01331 0.0178,-0.0032 0.03561,-0.0048 0.0534,-0.0048 0.10114,1e-6 0.18124,0.02763 0.2403,0.0829 0.05907,0.05527 0.0886,0.13009 0.0886,0.22449 0,0.09722 -0.03035,0.17285 -0.09103,0.2269 -0.06069,0.05365 -0.14625,0.08048 -0.25669,0.08048 -0.03802,0 -0.07686,-0.0032 -0.1165,-0.0097 -0.03924,-0.0065 -0.0799,-0.01614 -0.12198,-0.02905 v -0.12283 c 0.03641,0.01977 0.07404,0.03449 0.11287,0.04417 0.03883,0.0097 0.0799,0.01452 0.12318,0.01452 0.06999,0 0.12541,-0.01835 0.16627,-0.05506 0.04087,-0.03671 0.06129,-0.08653 0.0613,-0.14946 -8e-6,-0.06293 -0.02043,-0.11275 -0.0613,-0.14946 -0.04086,-0.03671 -0.09628,-0.05506 -0.16627,-0.05506 -0.03277,0 -0.06554,0.0036 -0.0983,0.01089 -0.03237,0.0073 -0.06554,0.01856 -0.09952,0.03388 v -0.45381 m 0.81132,0.80052 h 0.20025 v -0.68919 l -0.21785,0.04357 v -0.11134 l 0.21664,-0.04357 h 0.12258 v 0.80052 h 0.20025 v 0.10286 h -0.52187 v -0.10286 m 1.0322,-0.72005 c -0.06311,10e-7 -0.11064,0.03106 -0.1426,0.09318 -0.03155,0.06172 -0.04733,0.1547 -0.04733,0.27894 0,0.12384 0.01578,0.21682 0.04733,0.27894 0.03196,0.06172 0.07949,0.09258 0.1426,0.09258 0.06351,0 0.11105,-0.03086 0.1426,-0.09258 0.03196,-0.06212 0.04794,-0.1551 0.04794,-0.27894 0,-0.12424 -0.01598,-0.21722 -0.04794,-0.27894 -0.03155,-0.06212 -0.07909,-0.09318 -0.1426,-0.09318 m 0,-0.09681 c 0.10154,2e-6 0.17901,0.04014 0.23242,0.12041 0.0538,0.07987 0.0807,0.19605 0.0807,0.34853 0,0.15208 -0.0269,0.26825 -0.0807,0.34853 -0.0534,0.07987 -0.13087,0.11981 -0.23242,0.11981 -0.10154,0 -0.17921,-0.03993 -0.23302,-0.11981 -0.0534,-0.08027 -0.0801,-0.19645 -0.0801,-0.34853 0,-0.15248 0.0267,-0.26866 0.0801,-0.34853 0.05381,-0.08027 0.13148,-0.12041 0.23302,-0.12041 m 0.80646,0.41932 c -0.05501,10e-7 -0.09871,0.01876 -0.13107,0.05627 -0.03196,0.03751 -0.04794,0.08895 -0.04794,0.1543 0,0.06494 0.01598,0.11638 0.04794,0.1543 0.03236,0.03751 0.07606,0.05627 0.13107,0.05627 0.05502,0 0.09851,-0.01876 0.13047,-0.05627 0.03236,-0.03792 0.04854,-0.08935 0.04854,-0.1543 0,-0.06535 -0.01618,-0.11678 -0.04854,-0.1543 -0.03196,-0.03751 -0.07545,-0.05627 -0.13047,-0.05627 m 0.24334,-0.38302 v 0.11134 c -0.03075,-0.01452 -0.0619,-0.02561 -0.09345,-0.03328 -0.03115,-0.0077 -0.06209,-0.0115 -0.09284,-0.0115 -0.08091,0 -0.14281,0.02723 -0.18569,0.08169 -0.04248,0.05446 -0.06675,0.13675 -0.07282,0.24687 0.02387,-0.03509 0.0538,-0.06192 0.08981,-0.08048 0.036,-0.01896 0.07565,-0.02844 0.11894,-0.02844 0.09102,10e-7 0.16283,0.02763 0.21542,0.0829 0.053,0.05486 0.0795,0.12969 0.0795,0.22449 0,0.09278 -0.02751,0.1672 -0.08253,0.22328 -0.05502,0.05607 -0.12824,0.08411 -0.21968,0.08411 -0.10478,0 -0.18488,-0.03993 -0.2403,-0.11981 -0.05543,-0.08027 -0.08314,-0.19645 -0.08314,-0.34853 0,-0.1428 0.03398,-0.25655 0.10195,-0.34127 0.06796,-0.08511 0.15918,-0.12767 0.27367,-0.12767 0.03075,2e-6 0.0617,0.003 0.09285,0.0091 0.03155,0.0061 0.06432,0.01513 0.0983,0.02723 m 0.6675,-0.01997 h 0.48121 v 0.10286 h -0.36895 v 0.22146 c 0.0178,-0.0061 0.03561,-0.01049 0.0534,-0.01331 0.0178,-0.0032 0.03561,-0.0048 0.0534,-0.0048 0.10114,10e-7 0.18124,0.02763 0.2403,0.0829 0.05907,0.05527 0.0886,0.13009 0.0886,0.22449 0,0.09722 -0.03035,0.17285 -0.09103,0.2269 -0.06069,0.05365 -0.14625,0.08048 -0.25669,0.08048 -0.03802,0 -0.07686,-0.0032 -0.1165,-0.0097 -0.03925,-0.0065 -0.0799,-0.01614 -0.12197,-0.02905 v -0.12283 c 0.03641,0.01977 0.07403,0.03449 0.11287,0.04417 0.03883,0.0097 0.0799,0.01452 0.12318,0.01452 0.06999,0 0.12541,-0.01835 0.16627,-0.05506 0.04086,-0.03671 0.06129,-0.08653 0.0613,-0.14946 -7e-6,-0.06293 -0.02043,-0.11275 -0.0613,-0.14946 -0.04086,-0.03671 -0.09628,-0.05506 -0.16627,-0.05506 -0.03277,0 -0.06554,0.0036 -0.0983,0.01089 -0.03237,0.0073 -0.06554,0.01856 -0.09952,0.03388 v -0.45381 m 1.1269,0.10649 -0.30948,0.48225 h 0.30948 v -0.48225 m -0.03216,-0.10649 h 0.15413 v 0.58874 h 0.12925 v 0.10165 h -0.12925 v 0.21299 h -0.12197 v -0.21299 h -0.409 v -0.11799 l 0.37684,-0.57241 m 0.74881,0.08047 c -0.06311,10e-7 -0.11064,0.03106 -0.1426,0.09318 -0.03155,0.06172 -0.04733,0.1547 -0.04733,0.27894 0,0.12384 0.01578,0.21682 0.04733,0.27894 0.03196,0.06172 0.07949,0.09258 0.1426,0.09258 0.06351,0 0.11105,-0.03086 0.1426,-0.09258 0.03196,-0.06212 0.04794,-0.1551 0.04794,-0.27894 0,-0.12424 -0.01598,-0.21722 -0.04794,-0.27894 -0.03155,-0.06212 -0.07909,-0.09318 -0.1426,-0.09318 m 0,-0.09681 c 0.10154,2e-6 0.17901,0.04014 0.23242,0.12041 0.0538,0.07987 0.0807,0.19605 0.0807,0.34853 0,0.15208 -0.0269,0.26825 -0.0807,0.34853 -0.0534,0.07987 -0.13087,0.11981 -0.23242,0.11981 -0.10154,0 -0.17922,-0.03993 -0.23302,-0.11981 -0.0534,-0.08027 -0.0801,-0.19645 -0.0801,-0.34853 0,-0.15248 0.0267,-0.26866 0.0801,-0.34853 0.0538,-0.08027 0.13147,-0.12041 0.23302,-0.12041 m 0.80646,0.41932 c -0.05501,10e-7 -0.09871,0.01876 -0.13107,0.05627 -0.03196,0.03751 -0.04794,0.08895 -0.04794,0.1543 0,0.06494 0.01598,0.11638 0.04794,0.1543 0.03236,0.03751 0.07606,0.05627 0.13107,0.05627 0.05502,0 0.09851,-0.01876 0.13047,-0.05627 0.03237,-0.03792 0.04855,-0.08935 0.04855,-0.1543 0,-0.06535 -0.01618,-0.11678 -0.04855,-0.1543 -0.03196,-0.03751 -0.07545,-0.05627 -0.13047,-0.05627 m 0.24334,-0.38302 v 0.11134 c -0.03075,-0.01452 -0.0619,-0.02561 -0.09345,-0.03328 -0.03115,-0.0077 -0.0621,-0.0115 -0.09284,-0.0115 -0.08092,0 -0.14281,0.02723 -0.18569,0.08169 -0.04248,0.05446 -0.06675,0.13675 -0.07282,0.24687 0.02387,-0.03509 0.05381,-0.06192 0.08981,-0.08048 0.03601,-0.01896 0.07565,-0.02844 0.11894,-0.02844 0.09103,10e-7 0.16283,0.02763 0.21542,0.0829 0.053,0.05486 0.0795,0.12969 0.0795,0.22449 0,0.09278 -0.02751,0.1672 -0.08253,0.22328 -0.05502,0.05607 -0.12824,0.08411 -0.21968,0.08411 -0.10477,0 -0.18488,-0.03993 -0.2403,-0.11981 -0.05543,-0.08027 -0.08314,-0.19645 -0.08314,-0.34853 0,-0.1428 0.03398,-0.25655 0.10194,-0.34127 0.06796,-0.08511 0.15919,-0.12767 0.27368,-0.12767 0.03075,2e-6 0.0617,0.003 0.09285,0.0091 0.03155,0.0061 0.06432,0.01513 0.0983,0.02723 m 0.6675,-0.01997 h 0.48122 v 0.10286 h -0.36895 v 0.22146 c 0.0178,-0.0061 0.03561,-0.01049 0.0534,-0.01331 0.0178,-0.0032 0.0356,-0.0048 0.0534,-0.0048 0.10114,10e-7 0.18124,0.02763 0.2403,0.0829 0.05907,0.05527 0.08859,0.13009 0.0886,0.22449 -8e-6,0.09722 -0.03035,0.17285 -0.09103,0.2269 -0.06069,0.05365 -0.14625,0.08048 -0.25669,0.08048 -0.03802,0 -0.07686,-0.0032 -0.1165,-0.0097 -0.03925,-0.0065 -0.0799,-0.01614 -0.12198,-0.02905 v -0.12283 c 0.03641,0.01977 0.07404,0.03449 0.11287,0.04417 0.03884,0.0097 0.07991,0.01452 0.12319,0.01452 0.06999,0 0.12541,-0.01835 0.16627,-0.05506 0.04086,-0.03671 0.06129,-0.08653 0.06129,-0.14946 0,-0.06293 -0.02042,-0.11275 -0.06129,-0.14946 -0.04086,-0.03671 -0.09628,-0.05506 -0.16627,-0.05506 -0.03277,0 -0.06554,0.0036 -0.0983,0.01089 -0.03237,0.0073 -0.06554,0.01856 -0.09952,0.03388 v -0.45381 m 1.1269,0.10649 -0.30947,0.48225 h 0.30947 v -0.48225 m -0.03215,-0.10649 h 0.15412 v 0.58874 h 0.12926 v 0.10165 h -0.12926 v 0.21299 h -0.12197 v -0.21299 h -0.409 v -0.11799 l 0.37685,-0.57241 m 0.76398,0.40298 c -0.05502,10e-7 -0.09871,0.01876 -0.13107,0.05627 -0.03196,0.03751 -0.04794,0.08895 -0.04794,0.1543 0,0.06494 0.01598,0.11638 0.04794,0.1543 0.03236,0.03751 0.07605,0.05627 0.13107,0.05627 0.05502,0 0.09851,-0.01876 0.13047,-0.05627 0.03236,-0.03792 0.04854,-0.08935 0.04855,-0.1543 -10e-6,-0.06535 -0.01619,-0.11678 -0.04855,-0.1543 -0.03196,-0.03751 -0.07545,-0.05627 -0.13047,-0.05627 m 0.24333,-0.38302 v 0.11134 c -0.03074,-0.01452 -0.06189,-0.02561 -0.09345,-0.03328 -0.03114,-0.0077 -0.06209,-0.0115 -0.09284,-0.0115 -0.08091,0 -0.1428,0.02723 -0.18569,0.08169 -0.04247,0.05446 -0.06675,0.13675 -0.07281,0.24687 0.02386,-0.03509 0.0538,-0.06192 0.0898,-0.08048 0.03601,-0.01896 0.07566,-0.02844 0.11894,-0.02844 0.09103,10e-7 0.16283,0.02763 0.21543,0.0829 0.05299,0.05486 0.07949,0.12969 0.07949,0.22449 0,0.09278 -0.02751,0.1672 -0.08253,0.22328 -0.05502,0.05607 -0.12824,0.08411 -0.21967,0.08411 -0.10478,0 -0.18488,-0.03993 -0.2403,-0.11981 -0.05543,-0.08027 -0.08314,-0.19645 -0.08314,-0.34853 0,-0.1428 0.03399,-0.25655 0.10195,-0.34127 0.06797,-0.08511 0.15919,-0.12767 0.27368,-0.12767 0.03074,2e-6 0.06169,0.003 0.09284,0.0091 0.03155,0.0061 0.06433,0.01513 0.0983,0.02723 m 0.27186,-0.01997 h 0.48121 v 0.10286 h -0.36895 v 0.22146 c 0.0178,-0.0061 0.03561,-0.01049 0.0534,-0.01331 0.01781,-0.0032 0.0356,-0.0048 0.0534,-0.0048 0.10114,10e-7 0.18124,0.02763 0.24031,0.0829 0.05906,0.05527 0.08859,0.13009 0.08859,0.22449 0,0.09722 -0.03034,0.17285 -0.09102,0.2269 -0.06069,0.05365 -0.14625,0.08048 -0.25669,0.08048 -0.03802,0 -0.07686,-0.0032 -0.1165,-0.0097 -0.03925,-0.0065 -0.0799,-0.01614 -0.12198,-0.02905 v -0.12283 c 0.03641,0.01977 0.07404,0.03449 0.11287,0.04417 0.03883,0.0097 0.0799,0.01452 0.12318,0.01452 0.07,0 0.12541,-0.01835 0.16627,-0.05506 0.04087,-0.03671 0.06129,-0.08653 0.06129,-0.14946 0,-0.06293 -0.02042,-0.11275 -0.06129,-0.14946 -0.04086,-0.03671 -0.09627,-0.05506 -0.16627,-0.05506 -0.03276,0 -0.06553,0.0036 -0.0983,0.01089 -0.03236,0.0073 -0.06554,0.01856 -0.09952,0.03388 v -0.45381 m 1.1548,0 h 0.58255 v 0.05204 l -0.3289,0.85135 h -0.12804 l 0.30948,-0.80052 h -0.43509 v -0.10286 m 1.0844,0.08047 c -0.06311,10e-7 -0.11065,0.03106 -0.14261,0.09318 -0.03156,0.06172 -0.04733,0.1547 -0.04733,0.27894 0,0.12384 0.01577,0.21682 0.04733,0.27894 0.03196,0.06172 0.0795,0.09258 0.14261,0.09258 0.06351,0 0.11104,-0.03086 0.1426,-0.09258 0.03196,-0.06212 0.04794,-0.1551 0.04794,-0.27894 0,-0.12424 -0.01598,-0.21722 -0.04794,-0.27894 -0.03156,-0.06212 -0.07909,-0.09318 -0.1426,-0.09318 m 0,-0.09681 c 0.10153,2e-6 0.179,0.04014 0.2324,0.12041 0.05381,0.07987 0.08072,0.19605 0.08072,0.34853 0,0.15208 -0.02691,0.26825 -0.08072,0.34853 -0.0534,0.07987 -0.13087,0.11981 -0.2324,0.11981 -0.10155,0 -0.17922,-0.03993 -0.23303,-0.11981 -0.0534,-0.08027 -0.0801,-0.19645 -0.0801,-0.34853 0,-0.15248 0.0267,-0.26866 0.0801,-0.34853 0.05381,-0.08027 0.13148,-0.12041 0.23303,-0.12041 m 0.80646,0.41932 c -0.05502,10e-7 -0.09871,0.01876 -0.13108,0.05627 -0.03195,0.03751 -0.04793,0.08895 -0.04793,0.1543 0,0.06494 0.01598,0.11638 0.04793,0.1543 0.03237,0.03751 0.07606,0.05627 0.13108,0.05627 0.05501,0 0.09851,-0.01876 0.13047,-0.05627 0.03235,-0.03792 0.04854,-0.08935 0.04854,-0.1543 0,-0.06535 -0.01619,-0.11678 -0.04854,-0.1543 -0.03196,-0.03751 -0.07546,-0.05627 -0.13047,-0.05627 m 0.24333,-0.38302 v 0.11134 c -0.03074,-0.01452 -0.0619,-0.02561 -0.09345,-0.03328 -0.03114,-0.0077 -0.06209,-0.0115 -0.09284,-0.0115 -0.08091,0 -0.14281,0.02723 -0.18569,0.08169 -0.04248,0.05446 -0.06675,0.13675 -0.07281,0.24687 0.02386,-0.03509 0.05379,-0.06192 0.0898,-0.08048 0.036,-0.01896 0.07566,-0.02844 0.11894,-0.02844 0.09102,10e-7 0.16283,0.02763 0.21542,0.0829 0.053,0.05486 0.07949,0.12969 0.07949,0.22449 0,0.09278 -0.0275,0.1672 -0.08252,0.22328 -0.05502,0.05607 -0.12825,0.08411 -0.21967,0.08411 -0.10478,0 -0.18488,-0.03993 -0.2403,-0.11981 -0.05543,-0.08027 -0.08314,-0.19645 -0.08314,-0.34853 0,-0.1428 0.03399,-0.25655 0.10195,-0.34127 0.06796,-0.08511 0.15918,-0.12767 0.27367,-0.12767 0.03075,2e-6 0.0617,0.003 0.09285,0.0091 0.03155,0.0061 0.06432,0.01513 0.0983,0.02723 m 0.27186,-0.01997 h 0.48121 v 0.10286 h -0.36895 v 0.22146 c 0.0178,-0.0061 0.03561,-0.01049 0.0534,-0.01331 0.0178,-0.0032 0.03561,-0.0048 0.0534,-0.0048 0.10114,10e-7 0.18124,0.02763 0.2403,0.0829 0.05907,0.05527 0.0886,0.13009 0.0886,0.22449 0,0.09722 -0.03034,0.17285 -0.09102,0.2269 -0.06069,0.05365 -0.14625,0.08048 -0.25669,0.08048 -0.03803,0 -0.07686,-0.0032 -0.11651,-0.0097 -0.03924,-0.0065 -0.07989,-0.01614 -0.12197,-0.02905 v -0.12283 c 0.03641,0.01977 0.07404,0.03449 0.11287,0.04417 0.03883,0.0097 0.0799,0.01452 0.12318,0.01452 0.06999,0 0.12541,-0.01835 0.16627,-0.05506 0.04086,-0.03671 0.06129,-0.08653 0.0613,-0.14946 -10e-6,-0.06293 -0.02044,-0.11275 -0.0613,-0.14946 -0.04086,-0.03671 -0.09628,-0.05506 -0.16627,-0.05506 -0.03276,0 -0.06554,0.0036 -0.0983,0.01089 -0.03237,0.0073 -0.06554,0.01856 -0.09952,0.03388 v -0.45381 m 1.1548,0 h 0.58255 v 0.05204 l -0.3289,0.85135 h -0.12804 l 0.30948,-0.80052 h -0.43509 v -0.10286 m 1.0996,0.40298 c -0.05502,1e-6 -0.09871,0.01876 -0.13107,0.05627 -0.03196,0.03751 -0.04794,0.08895 -0.04794,0.1543 0,0.06494 0.01598,0.11638 0.04794,0.1543 0.03236,0.03751 0.07605,0.05627 0.13107,0.05627 0.05502,0 0.09851,-0.01876 0.13047,-0.05627 0.03236,-0.03792 0.04854,-0.08935 0.04854,-0.1543 0,-0.06535 -0.01618,-0.11678 -0.04854,-0.1543 -0.03196,-0.03751 -0.07545,-0.05627 -0.13047,-0.05627 m 0.24334,-0.38302 v 0.11134 c -0.03075,-0.01452 -0.0619,-0.02561 -0.09345,-0.03328 -0.03115,-0.0077 -0.0621,-0.0115 -0.09285,-0.0115 -0.08091,0 -0.14281,0.02723 -0.18569,0.08169 -0.04248,0.05446 -0.06675,0.13675 -0.07281,0.24687 0.02386,-0.03509 0.0538,-0.06192 0.08981,-0.08048 0.036,-0.01896 0.07565,-0.02844 0.11894,-0.02844 0.09101,1e-6 0.16282,0.02763 0.21541,0.0829 0.053,0.05486 0.07949,0.12969 0.07949,0.22449 0,0.09278 -0.0275,0.1672 -0.08252,0.22328 -0.05502,0.05607 -0.12824,0.08411 -0.21967,0.08411 -0.10477,0 -0.18487,-0.03993 -0.2403,-0.11981 -0.05542,-0.08027 -0.08313,-0.19645 -0.08313,-0.34853 0,-0.1428 0.03398,-0.25655 0.10194,-0.34127 0.06796,-0.08511 0.15919,-0.12767 0.27368,-0.12767 0.03074,2e-6 0.06169,0.003 0.09284,0.0091 0.03156,0.0061 0.06432,0.01513 0.09831,0.02723 m 0.23969,-0.01997 h 0.58255 v 0.05204 l -0.3289,0.85135 h -0.12803 l 0.30947,-0.80052 h -0.43509 v -0.10286 m 0.82589,0.88463 v -0.11134 c 0.03074,0.01452 0.06189,0.02562 0.09344,0.03328 0.03156,0.0077 0.06251,0.0115 0.09285,0.0115 0.08091,0 0.1426,-0.02703 0.18508,-0.08108 0.04288,-0.05446 0.06735,-0.13695 0.07342,-0.24748 -0.02346,0.03469 -0.05319,0.06132 -0.0892,0.07987 -0.036,0.01856 -0.07585,0.02783 -0.11954,0.02783 -0.09062,0 -0.16243,-0.02723 -0.21542,-0.08169 -0.0526,-0.05486 -0.07889,-0.12969 -0.07889,-0.22448 0,-0.09278 0.02751,-0.1672 0.08252,-0.22328 0.05503,-0.05607 0.12825,-0.08411 0.21968,-0.08411 0.10477,2e-6 0.18467,0.04014 0.23969,0.12041 0.05542,0.07987 0.08313,0.19605 0.08314,0.34853 -1e-5,0.1424 -0.03399,0.25615 -0.10195,0.34127 -0.06756,0.08471 -0.15858,0.12707 -0.27307,0.12707 -0.03074,0 -0.0619,-0.003 -0.09345,-0.0091 -0.03156,-0.0061 -0.06432,-0.01513 -0.0983,-0.02723 m 0.24394,-0.38302 c 0.05501,0 0.09851,-0.01876 0.13046,-0.05627 0.03236,-0.03751 0.04855,-0.08895 0.04855,-0.1543 0,-0.06495 -0.01619,-0.11617 -0.04855,-0.15369 -0.03195,-0.03792 -0.07545,-0.05688 -0.13046,-0.05688 -0.05502,1e-6 -0.09871,0.01896 -0.13108,0.05688 -0.03195,0.03752 -0.04793,0.08874 -0.04793,0.15369 0,0.06535 0.01598,0.11678 0.04793,0.1543 0.03237,0.03751 0.07606,0.05627 0.13108,0.05627 m 0.54735,0.38302 v -0.11134 c 0.03074,0.01452 0.0619,0.02562 0.09345,0.03328 0.03155,0.0077 0.0625,0.0115 0.09285,0.0115 0.0809,0 0.1426,-0.02703 0.18508,-0.08108 0.04288,-0.05446 0.06735,-0.13695 0.07342,-0.24748 -0.02347,0.03469 -0.0532,0.06132 -0.0892,0.07987 -0.036,0.01856 -0.07586,0.02783 -0.11955,0.02783 -0.09062,0 -0.16242,-0.02723 -0.21542,-0.08169 -0.05259,-0.05486 -0.07888,-0.12969 -0.07888,-0.22448 0,-0.09278 0.0275,-0.1672 0.08252,-0.22328 0.05502,-0.05607 0.12825,-0.08411 0.21967,-0.08411 0.10478,2e-6 0.18468,0.04014 0.2397,0.12041 0.05542,0.07987 0.08313,0.19605 0.08313,0.34853 0,0.1424 -0.03398,0.25615 -0.10194,0.34127 -0.06757,0.08471 -0.15858,0.12707 -0.27308,0.12707 -0.03074,0 -0.06189,-0.003 -0.09345,-0.0091 -0.03155,-0.0061 -0.06432,-0.01513 -0.0983,-0.02723 m 0.24394,-0.38302 c 0.05502,0 0.09851,-0.01876 0.13046,-0.05627 0.03237,-0.03751 0.04855,-0.08895 0.04855,-0.1543 0,-0.06495 -0.01618,-0.11617 -0.04855,-0.15369 -0.03195,-0.03792 -0.07544,-0.05688 -0.13046,-0.05688 -0.05501,10e-7 -0.09871,0.01896 -0.13107,0.05688 -0.03196,0.03752 -0.04794,0.08874 -0.04794,0.15369 0,0.06535 0.01598,0.11678 0.04794,0.1543 0.03236,0.03751 0.07606,0.05627 0.13107,0.05627"
         id="text7050"
         inkscape:connector-curvature="0" />
      <rect
         x="5.0518999"
         y="19.740999"
         width="9.9773998"
         height="11.704"
         ry="0.3125"
         rx="0.3125"
         style="fill:url(#linearGradient3132);fill-rule:evenodd"
         id="rect6553" />
      <g
         transform="matrix(0.30043,0,0,0.29957,-1.2393,19.268)"
         style="fill:#939393"
         id="g6935">
        <path
           d="m 50.301,40.747 c 1.0356,-2.9825 0.17678,-8.8923 -6.5407,-13.488 h -12.551 c -6.7175,4.2426 -7.557,10.045 -6.0104,13.435 l 25.102,0.05345 z"
           style="fill:#939393;fill-rule:evenodd"
           id="path2329"
           inkscape:connector-curvature="0" />
        <path
           transform="translate(6.4071,1.7424)"
           d="m 39.775,19.009 a 8.6621,8.6621 0 1 1 -17.324,0 8.6621,8.6621 0 1 1 17.324,0 z"
           style="fill:#939393;fill-rule:evenodd"
           id="path2327"
           inkscape:connector-curvature="0" />
      </g>
      <rect
         x="3.5"
         y="17.5"
         width="32"
         height="22"
         ry="1.7776999"
         rx="1.7776999"
         style="fill:none;stroke:#ffffff"
         id="rect6555" />
    </g>
    <rect
       x="4.5563998"
       y="7.5"
       width="36.944"
       height="24.959999"
       ry="2.8599999"
       rx="2.9881001"
       style="fill:url(#linearGradient3134);fill-rule:evenodd;stroke:#939393"
       id="rect2373" />
    <path
       d="m 22.146,13.875 c 0.05209,0.53864 -0.29805,1.2126 -0.9205,1.1205 -0.34816,0.0293 -0.19241,-0.34184 -0.22585,-0.55458 0.39738,0.30914 0.78492,-0.24688 0.66899,-0.68479 v -1.5974 c 0.1435,0.04631 0.48157,-0.10196 0.47736,0.09206 v 1.6242 z m 1.3328,-0.99289 c 0.65846,-0.03613 0.98311,0.70943 0.86008,1.2717 -0.02276,0.65377 -0.80612,1.0604 -1.3599,0.73227 -0.78359,-0.46925 -0.52846,-2.0661 0.49987,-2.0039 z m -0.03935,1.6968 c 0.6022,-0.04026 0.63605,-1.0867 0.10404,-1.2614 -0.71617,-0.12823 -0.79801,1.2428 -0.10404,1.2614 z m 2.9069,0.3607 c -0.1482,-0.04556 -0.4992,0.11167 -0.45855,-0.12274 -0.02464,-0.45302 0.06208,-0.92447 -0.07357,-1.3608 -0.36605,-0.38339 -0.71547,0.20124 -0.61253,0.5658 v 0.91772 c -0.137,-0.04824 -0.47547,0.10498 -0.46367,-0.09206 v -2.8478 c 0.137,0.04824 0.47547,-0.10498 0.46367,0.09206 v 1.1394 c 0.21918,-0.54132 1.12,-0.41999 1.1242,0.18862 0.04074,0.50426 0.0117,1.0138 0.02046,1.5198 z m 2.1011,-4e-6 c -0.1482,-0.04556 -0.4992,0.11167 -0.45854,-0.12274 -0.02464,-0.45302 0.06208,-0.92447 -0.07357,-1.3608 -0.36605,-0.38339 -0.71546,0.20124 -0.61252,0.5658 v 0.91772 c -0.137,-0.04824 -0.47547,0.10498 -0.46367,-0.09205 v -1.8937 c 0.137,0.04824 0.47547,-0.10498 0.46367,0.09206 -0.06772,0.43772 0.43475,-0.47139 0.76127,-0.13517 0.49865,0.21915 0.36202,0.83352 0.38337,1.2768 v 0.75209 z m 1.5005,-2.7809 c 0.60608,0.03583 1.318,-0.14479 1.7931,0.33937 0.40684,0.50839 0.4046,1.2817 0.11484,1.8459 -0.26305,0.50189 -0.85914,0.64014 -1.3817,0.59559 -0.16308,-0.02257 -0.41517,0.04387 -0.52627,-0.03069 v -2.7502 z m 0.47735,2.3523 c 0.37858,0.02086 0.83789,-0.0077 1.0195,-0.40469 0.25936,-0.50533 0.15248,-1.3745 -0.50912,-1.4863 -0.17463,0.02756 -0.60192,-0.14916 -0.51041,0.16884 v 1.7222 z m 2.8539,-1.629 c 0.65845,-0.03613 0.98312,0.70943 0.86008,1.2717 -0.02276,0.65377 -0.80613,1.0604 -1.36,0.73227 -0.78359,-0.46925 -0.52847,-2.0661 0.49987,-2.0039 z m -0.03936,1.6968 c 0.6022,-0.04026 0.63605,-1.0867 0.10405,-1.2614 -0.71617,-0.12823 -0.79801,1.2428 -0.10405,1.2614 z m 2.806,-0.51778 h -1.1669 c -0.09555,0.71243 0.86091,0.42589 1.0026,0.42948 0.10912,0.35624 -0.19712,0.50295 -0.52286,0.49499 -0.62808,0.0999 -1.0401,-0.56352 -0.94136,-1.1268 -0.03241,-0.61008 0.59628,-1.1917 1.1947,-0.91853 0.42744,0.19812 0.44609,0.71295 0.43374,1.1209 z m -0.42775,-0.34906 c 0.14124,-0.70675 -1.0073,-0.36517 -0.64708,0 h 0.64708 z"
       id="path2375"
       inkscape:connector-curvature="0" />
    <rect
       x="21"
       y="17"
       width="15"
       height="2"
       ry="1"
       rx="1"
       style="opacity:0.39765996;fill:#8d8d8d;fill-rule:evenodd"
       id="rect2377" />
    <rect
       x="21"
       y="20"
       width="12"
       height="2"
       ry="1"
       rx="1"
       style="opacity:0.39765996;fill:#8d8d8d;fill-rule:evenodd"
       id="rect2379" />
    <path
       d="M 9,25.969 V 28 h 2 V 25.9688 H 9 z m 3,0 v 2.0312 h 1 V 25.969 h -1 z m 2,0 v 2.0312 h 2 V 25.969 h -2 z m 4,0 v 2.0312 h 1 V 25.969 h -1 z m 2,0 v 2.0312 h 2 V 25.969 h -2 z m 3,0 v 2.0312 h 2 V 25.969 h -2 z m 6,0 v 2.0312 h 1 V 25.969 h -1 z m 2,0 v 2.0312 h 2 V 25.969 h -2 z m 3,0 v 2.0312 h 1 V 25.969 H 34 z M 7,26 v 4.0625 h 1 v -4.062 H 7 z m 19,0 v 2.0312 h 1 v -2.031 h -1 z m 10,0 v 2.0312 h 1 v -2.031 h -1 z m 2,0 v 4.0625 h 1 v -4.062 h -1 z"
       style="opacity:0.48537999;fill-rule:evenodd"
       id="rect2383"
       inkscape:connector-curvature="0" />
    <path
       d="m 9.4562,29.475 c 0.73484,0.35508 -0.95204,0.59612 0.013422,0.36358 -0.43196,-0.45417 0.26157,-0.5578 -0.36043,-0.69632 0.14694,-0.37381 0.84639,0.18502 0.34701,0.33273 z m 0.58532,0.39959 c 0.91407,-0.08883 -0.44189,0.37845 0.03413,-0.14936 0.60639,-0.28731 -0.19593,-0.78981 0.01376,-0.6557 0.76882,-0.10867 0.29581,0.63617 -0.04789,0.80506 z m 1.1389,-0.72178 c -0.66126,0.55121 0.16513,0.78536 0,0 z M 11.1446,29.04206 c 0.69916,0.4335 -0.20229,1.3129 -0.37108,0.51868 0.09087,-0.19516 0.26262,-0.33476 0.37108,-0.51868 z m 0.54342,0 c 0.26878,-0.15138 0.68676,0.22058 0.14374,0.10698 0.44013,0.28267 0.55241,1.0411 -0.08212,0.7588 1.0086,-0.35585 -0.35426,-0.28034 -0.06162,-0.86578 h -5e-6 z m 1.6127,0.08369 c -0.71353,0.24706 0.42274,1.1543 0.20631,0.26838 -0.0025,-0.10782 -0.06746,-0.27898 -0.20631,-0.26838 z m 0,-0.10068 c 1.089,0.23903 -0.58717,1.6584 -0.33842,0.32043 0.0262,-0.1598 0.15736,-0.34307 0.33842,-0.32043 z m 0.59072,0.017 c 0.26878,-0.15138 0.68676,0.22058 0.14374,0.10698 0.44014,0.28266 0.55241,1.0411 -0.08212,0.7588 1.0086,-0.35586 -0.35428,-0.28034 -0.06162,-0.86578 h -10e-7 z m 0.88136,-3e-6 c 0.26878,-0.15138 0.68676,0.22058 0.14374,0.10698 0.44013,0.28266 0.5524,1.0411 -0.08212,0.7588 1.0086,-0.35586 -0.35429,-0.28034 -0.06162,-0.86578 h -3e-6 z m 0.84554,0 c 0.88877,-0.53626 0.40428,1.2137 0.23359,0.70364 0.20073,-0.35233 0.35196,-0.7074 -0.23359,-0.70364 z m 1.3579,1e-6 c 0.26878,-0.15138 0.68676,0.22058 0.14374,0.10698 0.44013,0.28267 0.5524,1.0411 -0.08213,0.7588 1.0086,-0.35585 -0.35426,-0.28034 -0.06161,-0.86578 h 1e-6 z m 0.90366,0.83254 c 0.63491,0.0063 -0.29004,-1.1854 0.40589,-0.70308 -0.20628,0.32816 0.33501,1.2229 -0.40589,0.70308 z m 1.1497,-0.74885 c -0.71351,0.24707 0.42273,1.1543 0.20631,0.26838 -0.0025,-0.10782 -0.06745,-0.27898 -0.20631,-0.26838 z m 0,-0.10068 c 1.089,0.23903 -0.58717,1.6584 -0.33842,0.32042 0.02619,-0.1598 0.15736,-0.34307 0.33842,-0.32042 z m 0.89825,0.4361 c -0.82645,0.5716 0.80018,0.48491 0,0 z m 0.27104,-0.39834 c -0.72521,0.2133 -0.13175,0.31331 -0.01571,0.55709 -0.3843,1.3372 -1.1407,-1.0014 0.01571,-0.55713 m 0.74347,-0.02077 c 0.26878,-0.15138 0.68677,0.22057 0.14375,0.10698 0.44014,0.28267 0.5524,1.0411 -0.08213,0.75884 1.0411,-0.37322 -0.34133,-0.25353 -0.06163,-0.86578 m 1.2551,0.11075 c -0.66126,0.55121 0.16513,0.78536 0,0 z m -0.03582,-0.11075 c 0.69914,0.43352 -0.2023,1.3128 -0.37109,0.51868 0.09088,-0.19516 0.26263,-0.33475 0.37109,-0.51868 z m 0.83404,0.08369 c -0.71352,0.24706 0.42273,1.1543 0.20631,0.26838 -0.0025,-0.10782 -0.06745,-0.27898 -0.20631,-0.26838 z m 0,-0.10068 c 1.089,0.23903 -0.58717,1.6584 -0.33842,0.32042 0.02619,-0.1598 0.15736,-0.34307 0.33842,-0.32042 z m 0.89825,0.4361 c -0.82644,0.57158 0.80015,0.48493 0,0 z m 0.27104,-0.39834 c -0.72521,0.21329 -0.13175,0.31331 -0.01571,0.55709 -0.3843,1.3372 -1.1407,-1.0014 0.01571,-0.55713 m 0.74347,-0.02077 c 0.26878,-0.15138 0.68677,0.22057 0.14375,0.10698 0.44013,0.28266 0.55241,1.0411 -0.08211,0.75884 1.0411,-0.37322 -0.34133,-0.25352 -0.06163,-0.86578 m 1.2551,0.11075 c -0.66124,0.55121 0.16512,0.78536 0,0 z m -0.035,-0.111 c 0.69913,0.43353 -0.20231,1.3128 -0.3711,0.51868 0.09088,-0.19516 0.26263,-0.33476 0.3711,-0.51868 z m 0.85093,0.4191 c -0.82646,0.57159 0.80018,0.48492 0,0 z m 0.27103,-0.39834 c -0.7252,0.2133 -0.13175,0.3133 -0.01571,0.55709 -0.38428,1.3372 -1.1407,-1.0014 0.01571,-0.55712 m 0.3028,-0.02077 c 0.26878,-0.15138 0.68676,0.22058 0.14374,0.10698 0.44014,0.28266 0.55241,1.0411 -0.08212,0.75884 1.0411,-0.37322 -0.34132,-0.25352 -0.06163,-0.86578 m 1.2862,0 c 0.88877,-0.53626 0.40428,1.2137 0.23359,0.70364 0.20073,-0.35233 0.35196,-0.7074 -0.23359,-0.70364 z m 1.2078,0.08369 c -0.71354,0.24705 0.42274,1.1544 0.20631,0.26838 -0.0025,-0.10782 -0.06746,-0.27897 -0.20631,-0.26838 z m 0,-0.10068 c 1.089,0.23905 -0.58719,1.6584 -0.33843,0.32042 0.0262,-0.1598 0.15736,-0.34307 0.33843,-0.32042 z m 0.89825,0.4361 c -0.82645,0.57158 0.80016,0.48493 0,0 z m 0.27103,-0.39834 c -0.7252,0.21329 -0.13174,0.31331 -0.01571,0.55709 -0.3843,1.3372 -1.1407,-1.0014 0.01571,-0.55713 m 0.3028,-0.02077 c 0.26878,-0.15138 0.68676,0.22058 0.14374,0.10698 0.44015,0.28267 0.5524,1.0411 -0.08213,0.75884 1.0411,-0.37321 -0.34131,-0.25352 -0.06161,-0.86578 m 1.2862,0 c 0.88878,-0.53626 0.40429,1.2137 0.23359,0.70364 0.20073,-0.35233 0.35196,-0.7074 -0.23359,-0.70364 z m 1.2247,0.4191 c -0.82645,0.57157 0.80015,0.48494 0,0 z m 0.27104,-0.39834 c -0.72522,0.21329 -0.13175,0.31331 -0.01571,0.55709 -0.38435,1.3372 -1.1406,-1.0015 0.01581,-0.55713 m 0.26697,-0.02077 c 0.88877,-0.53626 0.40428,1.2137 0.2336,0.70364 0.20073,-0.35233 0.35194,-0.7074 -0.2336,-0.70364 z m 0.91989,0.92002 c 0.72449,-0.21247 0.13324,-0.31435 0.01635,-0.55733 0.38476,-1.3364 1.1392,1.003 -0.01635,0.5574 m 0.2717,-0.39834 c 0.82546,-0.57235 -0.80043,-0.48351 0,0 z m 0.60965,0.39834 c 0.7245,-0.21247 0.13326,-0.31435 0.01634,-0.55732 0.38473,-1.3364 1.1393,1.003 -0.01634,0.55732 z m 0.2717,-0.39834 c 0.82547,-0.57234 -0.80041,-0.48353 0,0 z"
       id="path2413"
       inkscape:connector-curvature="0" />
    <rect
       x="7"
       y="11"
       width="11"
       height="12.063"
       ry="0.32207"
       rx="0.34452999"
       style="fill:url(#linearGradient3136);fill-rule:evenodd"
       id="rect2415" />
    <path
       d="m 12.25,14.062 c -1.7151,0.02343 -3.2471,1.8324 -2.6136,3.5158 0.03623,0.46513 0.77106,1.0438 0.81873,1.2342 -0.30598,-0.0084 -0.53166,0.2764 -0.78682,0.41562 -0.94207,0.67304 -1.7586,1.7428 -1.6656,2.9562 0.0659,0.24542 0.033608,0.76397 0.34305,0.78491 2.8431,0.01026 5.6862,0.02053 8.5293,0.03079 0.37553,-1.0786 -0.14217,-2.2583 -0.8722,-3.0598 -0.40656,-0.44082 -0.88041,-0.84272 -1.4032,-1.1277 -0.43481,0.06252 0.16052,-0.22647 0.2219,-0.38632 1.2935,-1.3252 0.49283,-3.6859 -1.2256,-4.1782 -0.429,-0.156 -0.891,-0.218 -1.346,-0.186 z"
       style="fill:#939393;fill-rule:evenodd"
       id="path2419"
       inkscape:connector-curvature="0" />
    <rect
       x="5.5"
       y="8.5"
       width="35.028999"
       height="23"
       ry="1.8585"
       rx="1.946"
       style="fill:none;stroke:#ffffff"
       id="rect2423" />
    <g
       transform="translate(22.973,22.042)"
       id="g3786">
      <path
         d="M 5.8244,1.5003 C 5.3133,1.3644 5.5841,1.9758 5.7475,2.187 6.2166,3.0366 6.7094,3.8745 7.1634,4.7317 7.289,5.3463 6.7476,5.8394 6.303,6.1715 5.6496,6.6038 4.798,6.7692 4,6.5274 3.1859,5.6714 2.7048,4.737 2.1141,3.6967 1.6357,3 1.5731,4.1169 1.5445,4.4341 1.3807,5.8552 1.6535,7.4746 2.7771,8.4598 3.6408,9.2267 4.8685,9.5215 5.9963,9.3168 7.0093,9.635 7.9781,10.144 8.7314,10.902 9.4232,10.167 10.115,9.4313 10.807,8.6959 10.135,8.0348 9.7773,7.2479 9.431,6.3681 9.77,5.1274 9.3085,3.7619 8.371,2.902 7.7108,2.2695 6.7046,1.755 5.8244,1.5003 z"
         style="fill:#babdb6;fill-rule:evenodd;stroke:url(#linearGradient3138);stroke-width:1.10000002;stroke-linecap:round;stroke-linejoin:round;stroke-dashoffset:0.3612;enable-background:new"
         id="path6912"
         inkscape:connector-curvature="0" />
      <path
         d="M 5.808,1.7813 C 6.4804,3.3586 8.2668,4.8815 6.8286,6 6.1662,6.6304 5.2541,7.1578 4.33,7.0709 3.976,7.042 3.5813,6.8238 3.4429,6.5028 2.9827,5.6799 2.3506,4.7164 1.8904,3.8936 1.8343,5.4718 1.6425,7.0581 2.8284,8.1864 3.9635,9.273 5.9677,9.5364 7.3513,8.3894 8.3059,7.7519 9.0526,6.6732 8.999,5.488 8.9939,4.5402 8.4668,3.6742 7.7548,3.0796 7.2076,2.6068 6.4911,2.0185 5.808,1.7813 z"
         style="fill:url(#linearGradient3140);fill-rule:evenodd;enable-background:new"
         id="path7379"
         inkscape:connector-curvature="0" />
      <path
         d="M 8.585,6.3454 C 8.5984,5.9014 8.7478,5.615 8.6637,5.1629 8.588,4.2891 7.9668,3.4911 7.2651,3 7.0009,2.8022 6.3876,2.2616 6.1,2.1 6.768,2.6807 7.3195,3.8022 7.6704,4.4533 7.9719,5.1993 7.4364,5.9643 6.8911,6.4362 6.1118,7.074 5.0237,7.5051 4,7.3432 3.012,6.9562 2.5188,5.1514 2,4.27 1.9481,5.3325 2.2036,7.1349 3.0151,7.9118 3.7711,8.6747 4.9227,8.9469 5.9616,8.7471"
         style="opacity:0.7;fill:none;stroke:url(#linearGradient3142);stroke-linecap:round;stroke-linejoin:round;stroke-dashoffset:0.3612;enable-background:new"
         id="path4756"
         inkscape:connector-curvature="0" />
      <path
         d="m 8.5108,10.7 10.637,11.331 c 0.69781,0.69616 1.8925,0.60502 2.6903,-0.19091 0.79782,-0.79593 0.88918,-1.9878 0.19136,-2.6839 l -11.358,-10.612 -2.1612,2.156 z m 11.266,9.084 c 0.39662,-0.39568 1.0444,-0.39568 1.441,-3e-6 0.39662,0.39568 0.39662,1.0413 0,1.437 -0.39662,0.39567 -1.1214,0.47467 -1.518,0.079 -0.39662,-0.39568 -0.31962,-1.1203 0.077,-1.516 z"
         style="fill:url(#linearGradient3144);stroke:url(#linearGradient3146);stroke-width:0.99962997;stroke-linecap:round;stroke-linejoin:round;stroke-dashoffset:0.7;enable-background:new"
         id="path6899"
         inkscape:connector-curvature="0" />
      <path
         d="m 10.48,10.532 c 0.27731,-0.27639 0.78492,-0.21547 1.1381,0.1366 l 7.3474,6.6572 c 0.35322,0.35207 0.08028,1.1914 -0.19703,1.4678 -0.27731,0.2764 -1.1192,0.549 -1.4724,0.19693 l -6.6791,-7.3241 c -0.35322,-0.35207 -0.41433,-0.85802 -0.13702,-1.1344 z"
         style="opacity:0.23106001;fill:url(#linearGradient3148)"
         id="rect6533"
         inkscape:connector-curvature="0" />
    </g>
    <path
       d="m 45.973,44.542 a 4,1.4995 0 0 1 -8,0 4,1.4995 0 1 1 8,0 z"
       style="opacity:0.25;fill:url(#radialGradient3150)"
       id="path3828"
       inkscape:connector-curvature="0" />
    <rect
       ry="1.4850965"
       rx="1.2426695"
       y="0"
       x="0"
       height="48"
       width="48"
       id="rect3070"
       style="opacity:0.4;fill:none;stroke:none" />
  </g>
</svg>
