<?xml version="1.0" encoding="UTF-8" standalone="no"?>
<!-- Created with Inkscape (http://www.inkscape.org/) -->

<svg
   xmlns:dc="http://purl.org/dc/elements/1.1/"
   xmlns:cc="http://creativecommons.org/ns#"
   xmlns:rdf="http://www.w3.org/1999/02/22-rdf-syntax-ns#"
   xmlns:svg="http://www.w3.org/2000/svg"
   xmlns="http://www.w3.org/2000/svg"
   xmlns:xlink="http://www.w3.org/1999/xlink"
   xmlns:sodipodi="http://sodipodi.sourceforge.net/DTD/sodipodi-0.dtd"
   xmlns:inkscape="http://www.inkscape.org/namespaces/inkscape"
   id="svg3082"
   height="22"
   width="22"
   version="1.0"
   inkscape:version="0.48.1 r9760"
   sodipodi:docname="preferences-system-windows.svg">
  <metadata
     id="metadata35">
    <rdf:RDF>
      <cc:Work
         rdf:about="">
        <dc:format>image/svg+xml</dc:format>
        <dc:type
           rdf:resource="http://purl.org/dc/dcmitype/StillImage" />
        <dc:title></dc:title>
      </cc:Work>
    </rdf:RDF>
  </metadata>
  <sodipodi:namedview
     pagecolor="#ffffff"
     bordercolor="#666666"
     borderopacity="1"
     objecttolerance="10"
     gridtolerance="10"
     guidetolerance="10"
     inkscape:pageopacity="0"
     inkscape:pageshadow="2"
     inkscape:window-width="640"
     inkscape:window-height="480"
     id="namedview33"
     showgrid="false"
     inkscape:zoom="5.457919"
     inkscape:cx="18.766605"
     inkscape:cy="12.123644"
     inkscape:current-layer="g3146" />
  <defs
     id="defs3084">
    <linearGradient
       id="linearGradient6457">
      <stop
         id="stop6459"
         style="stop-color:#fff;stop-opacity:.94118"
         offset="0" />
      <stop
         id="stop6461"
         style="stop-color:#fff;stop-opacity:.70588"
         offset="1" />
    </linearGradient>
    <linearGradient
       id="linearGradient2781">
      <stop
         id="stop2783"
         style="stop-color:#505050"
         offset="0" />
      <stop
         id="stop6301"
         style="stop-color:#6e6e6e"
         offset=".13216" />
      <stop
         id="stop2785"
         style="stop-color:#8c8c8c"
         offset="1" />
    </linearGradient>
    <linearGradient
       id="linearGradient3690">
      <stop
         id="stop3692"
         style="stop-color:#fff"
         offset="0" />
      <stop
         id="stop3694"
         style="stop-color:#fff;stop-opacity:.46875"
         offset="1" />
    </linearGradient>
    <linearGradient
       id="linearGradient5625"
       y2="39.924"
       xlink:href="#linearGradient2781"
       gradientUnits="userSpaceOnUse"
       x2="21.78"
       gradientTransform="matrix(.42425 0 0 .42624 4.8937 -2.3362)"
       y1="8.5763"
       x1="21.866" />
    <linearGradient
       id="linearGradient5627"
       y2="15.044"
       xlink:href="#linearGradient3690"
       gradientUnits="userSpaceOnUse"
       x2="16.075"
       gradientTransform="matrix(.38711 0 0 .37933 5.8222 -1.1037)"
       y1="9.0735"
       x1="16.034" />
    <linearGradient
       id="linearGradient5629"
       y2="40"
       xlink:href="#linearGradient6457"
       gradientUnits="userSpaceOnUse"
       x2="24"
       gradientTransform="matrix(.34211 0 0 .29630 7.2895 2.1483)"
       y1="13"
       x1="24" />
    <linearGradient
       id="linearGradient5631"
       y2="39.924"
       xlink:href="#linearGradient2781"
       gradientUnits="userSpaceOnUse"
       x2="21.78"
       gradientTransform="matrix(.42425 0 0 .42624 -2.1063 4.6637)"
       y1="8.5763"
       x1="21.866" />
    <linearGradient
       id="linearGradient5633"
       y2="15.044"
       xlink:href="#linearGradient3690"
       gradientUnits="userSpaceOnUse"
       x2="16.075"
       gradientTransform="matrix(.38711 0 0 .37933 -1.1778 5.8962)"
       y1="9.0735"
       x1="16.034" />
    <linearGradient
       id="linearGradient5635"
       y2="40"
       xlink:href="#linearGradient6457"
       gradientUnits="userSpaceOnUse"
       x2="24"
       gradientTransform="matrix(.34211 0 0 .29630 .28947 9.1481)"
       y1="13"
       x1="24" />
    <linearGradient
       y2="38.268368"
       x2="15.415793"
       y1="36.942543"
       x1="14.017542"
       gradientTransform="matrix(2.7784359,-5.4814765e-2,5.4814765e-2,2.7784359,-6.88297,-3.8866433)"
       gradientUnits="userSpaceOnUse"
       id="linearGradient2476"
       xlink:href="#linearGradient2265-890-372-783-802"
       inkscape:collect="always" />
    <linearGradient
       y2="33.194965"
       x2="10.650805"
       y1="35.688461"
       x1="12.004697"
       gradientTransform="matrix(3.1871015,-8.3423606e-2,8.3423606e-2,3.1871015,-8.6874,-16.507509)"
       gradientUnits="userSpaceOnUse"
       id="linearGradient2474"
       xlink:href="#linearGradient2257-789-141-816-743"
       inkscape:collect="always" />
    <linearGradient
       y2="39.443218"
       x2="16.915297"
       y1="32.28376"
       x1="9.7503242"
       gradientTransform="matrix(2.778977,0,0,2.778977,-5.70179,-1.0395995)"
       gradientUnits="userSpaceOnUse"
       id="linearGradient2472"
       xlink:href="#linearGradient3087-462-170-890-278"
       inkscape:collect="always" />
    <linearGradient
       y2="9.6568537"
       x2="40.859177"
       y1="19.821514"
       x1="31.177404"
       gradientTransform="matrix(3.1641488,0,0,3.1641488,-13.72919,-16.758081)"
       gradientUnits="userSpaceOnUse"
       id="linearGradient2470"
       xlink:href="#linearGradient2250"
       inkscape:collect="always" />
    <linearGradient
       y2="14.369016"
       x2="39.980453"
       y1="3.4715931"
       x1="39.980453"
       gradientTransform="matrix(2.778977,0,0,2.778977,-4.71927,0.9254345)"
       gradientUnits="userSpaceOnUse"
       id="linearGradient2468"
       xlink:href="#linearGradient5546"
       inkscape:collect="always" />
    <linearGradient
       y2="102.04791"
       x2="49.373875"
       y1="22.274775"
       x1="49.273136"
       gradientTransform="matrix(0.9903199,0,0,0.9886746,0.6356256,-0.9531728)"
       gradientUnits="userSpaceOnUse"
       id="linearGradient2466"
       xlink:href="#XMLID_6_"
       inkscape:collect="always" />
    <linearGradient
       y2="103.06695"
       x2="64"
       y1="21.523018"
       x1="64"
       spreadMethod="pad"
       gradientTransform="matrix(0.9903199,0,0,0.9886746,0.6356256,-0.9531728)"
       gradientUnits="userSpaceOnUse"
       id="linearGradient2464"
       xlink:href="#XMLID_6_"
       inkscape:collect="always" />
    <linearGradient
       y2="20.895"
       x2="84.63858"
       y1="105.105"
       x1="86.132919"
       gradientTransform="matrix(0.8580776,0,0,0.8566522,9.0991275,8.114155)"
       gradientUnits="userSpaceOnUse"
       id="linearGradient2462"
       xlink:href="#linearGradient5128"
       inkscape:collect="always" />
    <linearGradient
       y2="104.0591"
       x2="63.9995"
       y1="21.941401"
       x1="63.9995"
       spreadMethod="pad"
       gradientTransform="matrix(0.8580776,0,0,0.8566522,9.0991275,8.114155)"
       gradientUnits="userSpaceOnUse"
       id="linearGradient2460"
       xlink:href="#XMLID_5_"
       inkscape:collect="always" />
    <linearGradient
       y2="117.22547"
       x2="64"
       y1="6.8743429"
       x1="64"
       gradientUnits="userSpaceOnUse"
       id="linearGradient2458"
       xlink:href="#XMLID_4_"
       inkscape:collect="always" />
    <radialGradient
       r="7.228416"
       fy="73.615715"
       fx="6.702713"
       cy="73.615715"
       cx="6.702713"
       gradientTransform="scale(1.902215,0.525703)"
       gradientUnits="userSpaceOnUse"
       id="radialGradient2456"
       xlink:href="#linearGradient10691"
       inkscape:collect="always" />
    <linearGradient
       id="linearGradient2265-890-372-783-802"
       inkscape:collect="always">
      <stop
         id="stop3205"
         offset="0"
         style="stop-color:#000000;stop-opacity:1;" />
      <stop
         id="stop3207"
         offset="1"
         style="stop-color:#000000;stop-opacity:0;" />
    </linearGradient>
    <linearGradient
       id="linearGradient2257-789-141-816-743"
       inkscape:collect="always">
      <stop
         id="stop3211"
         offset="0"
         style="stop-color:#bababa;stop-opacity:1;" />
      <stop
         id="stop3213"
         offset="1"
         style="stop-color:#bababa;stop-opacity:0;" />
    </linearGradient>
    <linearGradient
       id="linearGradient3087-462-170-890-278">
      <stop
         id="stop3193"
         offset="0"
         style="stop-color:#484848;stop-opacity:1;" />
      <stop
         style="stop-color:#878787;stop-opacity:1;"
         offset="0"
         id="stop3195" />
      <stop
         id="stop3197"
         offset="0"
         style="stop-color:#6b6b6b;stop-opacity:1;" />
      <stop
         style="stop-color:#4d4d4d;stop-opacity:1;"
         offset="0.75"
         id="stop3199" />
      <stop
         id="stop3201"
         offset="1"
         style="stop-color:#4e4e4e;stop-opacity:1;" />
    </linearGradient>
    <linearGradient
       id="linearGradient2250">
      <stop
         id="stop2252"
         offset="0"
         style="stop-color:#b9b9b9;stop-opacity:1;" />
      <stop
         id="stop2254"
         offset="1"
         style="stop-color:#ffffff;stop-opacity:0;" />
    </linearGradient>
    <linearGradient
       id="linearGradient5546"
       gradientUnits="userSpaceOnUse"
       x1="63.9995"
       y1="3.1001"
       x2="63.9995"
       y2="122.8994">
      <stop
         offset="0"
         style="stop-color:#d8d8d8;stop-opacity:1;"
         id="stop5548" />
      <stop
         offset="1"
         style="stop-color:#ffffff;stop-opacity:1;"
         id="stop5550" />
    </linearGradient>
    <linearGradient
       spreadMethod="pad"
       xlink:href="#XMLID_5_"
       y2="103.06695"
       x2="64"
       y1="21.523018"
       x1="64"
       gradientUnits="userSpaceOnUse"
       id="XMLID_6_">
      <stop
         id="stop31"
         style="stop-color:#d9d9d9;stop-opacity:1"
         offset="0" />
      <stop
         id="stop33"
         style="stop-color:#cccccc;stop-opacity:1"
         offset="1" />
    </linearGradient>
    <linearGradient
       spreadMethod="pad"
       xlink:href="#linearGradient2199"
       y2="104.0591"
       x2="63.9995"
       y1="21.941401"
       x1="63.9995"
       gradientUnits="userSpaceOnUse"
       id="XMLID_5_">
      <stop
         id="stop24"
         style="stop-color:#dadada;stop-opacity:1"
         offset="0" />
      <stop
         id="stop26"
         style="stop-color:#cccccc;stop-opacity:1"
         offset="1" />
    </linearGradient>
    <linearGradient
       spreadMethod="pad"
       id="linearGradient2199"
       gradientUnits="userSpaceOnUse"
       x1="63.9995"
       y1="21.941401"
       x2="63.9995"
       y2="104.0591"
       xlink:href="#linearGradient2193">
      <stop
         offset="0"
         style="stop-color:#FCFCFD"
         id="stop2201" />
      <stop
         offset="1"
         style="stop-color:#cccccc;stop-opacity:1"
         id="stop2203" />
    </linearGradient>
    <linearGradient
       id="linearGradient2193"
       gradientUnits="userSpaceOnUse"
       x1="63.9995"
       y1="21.941401"
       x2="63.9995"
       y2="104.0591">
      <stop
         offset="0"
         style="stop-color:#dddddd;stop-opacity:1"
         id="stop2195" />
      <stop
         offset="1"
         style="stop-color:#E8E9EF"
         id="stop2197" />
    </linearGradient>
    <linearGradient
       id="linearGradient5128"
       inkscape:collect="always">
      <stop
         id="stop5130"
         offset="0"
         style="stop-color:#ffffff;stop-opacity:1" />
      <stop
         id="stop5132"
         offset="1"
         style="stop-color:#959595;stop-opacity:1" />
    </linearGradient>
    <linearGradient
       y2="122.8994"
       x2="63.9995"
       y1="3.1001"
       x1="63.9995"
       gradientUnits="userSpaceOnUse"
       id="XMLID_4_">
      <stop
         id="stop11"
         style="stop-color:#f2f2f2;stop-opacity:1"
         offset="0" />
      <stop
         id="stop13"
         style="stop-color:#d8d8d8;stop-opacity:1"
         offset="1" />
    </linearGradient>
    <linearGradient
       id="linearGradient10691"
       inkscape:collect="always">
      <stop
         id="stop10693"
         offset="0"
         style="stop-color:#000000;stop-opacity:1;" />
      <stop
         id="stop10695"
         offset="1"
         style="stop-color:#000000;stop-opacity:0;" />
    </linearGradient>
    <inkscape:perspective
       id="perspective69"
       inkscape:persp3d-origin="24 : 16 : 1"
       inkscape:vp_z="48 : 24 : 1"
       inkscape:vp_y="0 : 1000 : 0"
       inkscape:vp_x="0 : 24 : 1"
       sodipodi:type="inkscape:persp3d" />
    <radialGradient
       inkscape:collect="always"
       xlink:href="#linearGradient10691"
       id="radialGradient3153"
       gradientUnits="userSpaceOnUse"
       gradientTransform="scale(1.902215,0.525703)"
       cx="6.702713"
       cy="73.615715"
       fx="6.702713"
       fy="73.615715"
       r="7.228416" />
    <linearGradient
       inkscape:collect="always"
       xlink:href="#XMLID_4_"
       id="linearGradient3155"
       gradientUnits="userSpaceOnUse"
       x1="64"
       y1="6.8743429"
       x2="64"
       y2="117.22547" />
    <linearGradient
       inkscape:collect="always"
       xlink:href="#XMLID_5_"
       id="linearGradient3157"
       gradientUnits="userSpaceOnUse"
       gradientTransform="matrix(0.8580776,0,0,0.8566522,9.0991275,8.114155)"
       spreadMethod="pad"
       x1="63.9995"
       y1="21.941401"
       x2="63.9995"
       y2="104.0591" />
    <linearGradient
       inkscape:collect="always"
       xlink:href="#linearGradient5128"
       id="linearGradient3159"
       gradientUnits="userSpaceOnUse"
       gradientTransform="matrix(0.8580776,0,0,0.8566522,9.0991275,8.114155)"
       x1="86.132919"
       y1="105.105"
       x2="84.63858"
       y2="20.895" />
    <linearGradient
       inkscape:collect="always"
       xlink:href="#XMLID_6_"
       id="linearGradient3161"
       gradientUnits="userSpaceOnUse"
       gradientTransform="matrix(0.9903199,0,0,0.9886746,0.6356256,-0.9531728)"
       spreadMethod="pad"
       x1="64"
       y1="21.523018"
       x2="64"
       y2="103.06695" />
    <linearGradient
       inkscape:collect="always"
       xlink:href="#XMLID_6_"
       id="linearGradient3163"
       gradientUnits="userSpaceOnUse"
       gradientTransform="matrix(0.9903199,0,0,0.9886746,0.6356256,-0.9531728)"
       x1="49.273136"
       y1="22.274775"
       x2="49.373875"
       y2="102.04791" />
    <linearGradient
       inkscape:collect="always"
       xlink:href="#XMLID_4_"
       id="linearGradient3171"
       gradientUnits="userSpaceOnUse"
       x1="64"
       y1="6.8743429"
       x2="64"
       y2="117.22547" />
    <linearGradient
       inkscape:collect="always"
       xlink:href="#XMLID_5_"
       id="linearGradient3173"
       gradientUnits="userSpaceOnUse"
       gradientTransform="matrix(0.8580776,0,0,0.8566522,9.0991275,8.114155)"
       spreadMethod="pad"
       x1="63.9995"
       y1="21.941401"
       x2="63.9995"
       y2="104.0591" />
    <linearGradient
       inkscape:collect="always"
       xlink:href="#linearGradient5128"
       id="linearGradient3175"
       gradientUnits="userSpaceOnUse"
       gradientTransform="matrix(0.8580776,0,0,0.8566522,9.0991275,8.114155)"
       x1="86.132919"
       y1="105.105"
       x2="84.63858"
       y2="20.895" />
    <linearGradient
       inkscape:collect="always"
       xlink:href="#XMLID_6_"
       id="linearGradient3177"
       gradientUnits="userSpaceOnUse"
       gradientTransform="matrix(0.9903199,0,0,0.9886746,0.6356256,-0.9531728)"
       spreadMethod="pad"
       x1="64"
       y1="21.523018"
       x2="64"
       y2="103.06695" />
    <linearGradient
       inkscape:collect="always"
       xlink:href="#XMLID_6_"
       id="linearGradient3179"
       gradientUnits="userSpaceOnUse"
       gradientTransform="matrix(0.9903199,0,0,0.9886746,0.6356256,-0.9531728)"
       x1="49.273136"
       y1="22.274775"
       x2="49.373875"
       y2="102.04791" />
  </defs>
  <g
     id="g5611"
     transform="translate(-1 -1)">
    <rect
       id="rect6448"
       style="stroke-linejoin:round;stroke:#565853;stroke-width:.99969;fill:url(#linearGradient5625)"
       height="13"
       width="14"
       y="1.4999"
       x="8.4998" />
    <rect
       id="rect6450"
       style="opacity:.2;stroke:url(#linearGradient5627);stroke-width:.99953;fill:none"
       height="11"
       width="12"
       y="2.4999"
       x="9.4998" />
    <rect
       id="rect6452"
       style="fill:url(#linearGradient5629)"
       height="8"
       width="13"
       y="6.0001"
       x="9" />
    <path
       id="path6454"
       style="fill:#ffc24c"
       d="m21 4.2501c0.000178 0.41416-0.33566 0.75-0.75 0.75s-0.75018-0.33584-0.75-0.75c-0.000181-0.41416 0.33566-0.75 0.75-0.75s0.75018 0.33584 0.75 0.75z" />
    <path
       id="path6456"
       style="fill:#ffc24c"
       d="m19 4.2501c0.000178 0.41416-0.33566 0.75-0.75 0.75s-0.75018-0.33584-0.75-0.75c-0.000181-0.41416 0.33566-0.75 0.75-0.75s0.75018 0.33584 0.75 0.75z" />
    <path
       id="path6458"
       style="fill:#ffc24c"
       d="m17 4.2501c0.000178 0.41416-0.33566 0.75-0.75 0.75s-0.75018-0.33584-0.75-0.75c-0.000181-0.41416 0.33566-0.75 0.75-0.75s0.75018 0.33584 0.75 0.75z" />
    <rect
       id="rect1887"
       style="stroke-linejoin:round;stroke:#565853;stroke-width:.99969;fill:url(#linearGradient5631)"
       height="13"
       width="14"
       y="8.4998"
       x="1.4998" />
    <rect
       id="rect2779"
       style="opacity:.2;stroke:url(#linearGradient5633);stroke-width:.99953;fill:none"
       height="11"
       width="12"
       y="9.4998"
       x="2.4998" />
    <rect
       id="rect6287"
       style="fill:url(#linearGradient5635)"
       height="8"
       width="13"
       y="13"
       x="2" />
    <path
       id="path6293"
       style="fill:#ffc24c"
       d="m14 11.25c0.000178 0.41416-0.33566 0.75-0.75 0.75s-0.75018-0.33584-0.75-0.75c-0.000181-0.41416 0.33566-0.75 0.75-0.75s0.75018 0.33584 0.75 0.75z" />
    <path
       id="path6302"
       style="fill:#ffc24c"
       d="m12 11.25c0.000178 0.41416-0.33566 0.75-0.75 0.75s-0.75018-0.33584-0.75-0.75c-0.000181-0.41416 0.33566-0.75 0.75-0.75s0.75018 0.33584 0.75 0.75z" />
    <path
       id="path6304"
       style="fill:#ffc24c"
       d="m10 11.25c0.0001781 0.41416-0.33566 0.75-0.75 0.75s-0.75018-0.33584-0.75-0.75c-0.000181-0.41416 0.33566-0.75 0.75-0.75s0.75018 0.33584 0.75 0.75z" />
  </g>
  <g
     inkscape:label="Layer 1"
     id="layer1"
     transform="translate(-15.288136,2.5169491)">
    <g
       transform="matrix(0.4521362,0,0,0.4521362,0.1487311,0.02596354)"
       id="g2442">
      <g
         id="g3146"
         transform="matrix(0.56469524,0,0,0.56469524,56.166092,15.928315)">
        <g
           id="g3165"
           transform="translate(-5.4251763e-7,2.9999977)">
          <path
             transform="scale(0.375,0.375)"
             d="m 117.44462,48.542524 -4.52385,0 c -1.22097,0 -2.63273,-1.014371 -3.02091,-2.169494 -0.0216,-0.06005 -2.80756,-6.7928 -2.80756,-6.7928 -0.57335,-1.151369 -0.29608,-2.862004 0.56678,-3.724358 l 3.19856,-3.193244 c 0.73502,-0.734739 1.14106,-1.714388 1.14106,-2.758785 0,-1.044397 -0.40604,-2.024047 -1.14106,-2.757845 L 98.263607,14.572887 c -0.735025,-0.733797 -1.716305,-1.138231 -2.76244,-1.13917 -1.046136,0 -2.027415,0.404435 -2.762434,1.13917 l -3.198558,3.193246 c -0.86285,0.860478 -2.577269,1.138233 -3.668521,0.593984 C 85.81056,18.331966 79.06661,15.5516 79.06661,15.5516 77.848469,15.141535 76.832414,13.732116 76.832414,12.513184 l 0,-4.5172743 C 76.829593,5.8442461 75.076638,4.0942014 72.922332,4.0942014 l -17.809664,0 c -2.155244,0 -3.9082,1.7500447 -3.9082,3.9017083 l 0,4.5172743 c 0,1.218932 -1.016058,2.628351 -2.173103,3.015894 -0.06016,0.02252 -6.804106,2.802888 -6.804106,2.802888 -1.153284,0.5724 -2.867703,0.294645 -3.730553,-0.566771 l -3.198559,-3.192308 c -0.735958,-0.734735 -1.71724,-1.13917 -2.763374,-1.13917 -1.046135,0 -2.027414,0.405373 -2.762434,1.13917 L 17.177368,27.145998 c -1.523615,1.521084 -1.523615,3.995544 0,5.51663 l 3.198558,3.193244 c 0.86191,0.861415 1.140127,2.572989 0.594971,3.662426 -0.0282,0.06099 -2.814128,6.793738 -2.814128,6.793738 -0.410746,1.216117 -1.821572,2.229549 -3.042531,2.229549 l -3.351767,0 c -2.1543037,9.39e-4 -5.0802844,1.750982 -5.0802844,3.902646 l 0,17.779142 c 0,2.151663 1.7529566,3.901707 3.9081994,3.901707 l 4.524791,0 c 1.220961,0 2.632725,1.013432 3.019973,2.169491 0.02256,0.06006 2.80849,6.792803 2.80849,6.792803 0.573354,1.151369 0.295138,2.862003 -0.566774,3.724357 l -3.198559,3.193245 c -1.523614,1.521084 -1.523614,3.995544 0,5.516628 l 12.594972,12.573106 c 0.73502,0.73381 1.716299,1.13919 2.762434,1.13919 1.047075,0 2.028355,-0.40538 2.763374,-1.13919 l 3.198559,-3.19323 c 0.862849,-0.86047 2.57727,-1.13825 3.66852,-0.59399 0.06109,0.0281 6.805043,2.80946 6.805043,2.80946 1.217201,0.41006 2.233259,1.81855 2.233259,3.03748 l 0,4.51634 c 0,2.15166 1.752956,3.9017 3.9082,3.9017 l 17.808725,0 c 2.154303,0 3.907261,-1.75004 3.907261,-3.9017 l 0,-4.51634 c 0,-1.21893 1.016056,-2.62836 2.174042,-3.0159 0.06015,-0.0216 6.804105,-2.80289 6.804105,-2.80289 1.153285,-0.57241 2.868643,-0.29557 3.730555,0.56584 l 3.198558,3.19323 c 0.735019,0.73381 1.716299,1.13919 2.762433,1.13919 1.046134,0 2.027415,-0.40538 2.762433,-1.13919 l 12.59403,-12.573106 c 0.73503,-0.733798 1.14107,-1.713447 1.14107,-2.757844 0,-1.044396 -0.40604,-2.024046 -1.14107,-2.757845 l -3.19855,-3.193246 c -0.86285,-0.861416 -1.14013,-2.572988 -0.59497,-3.662425 0.0282,-0.06099 2.81412,-6.79374 2.81412,-6.79374 0.41075,-1.215177 1.82157,-2.229548 3.04254,-2.229548 l 4.52385,0 c 2.15524,0 3.9082,-1.750044 3.9082,-3.901708 l 0,-17.781017 c 0.003,-2.151664 -1.75014,-3.901707 -3.90538,-3.901707 z M 64.0175,77.934829 c -9.168951,0 -16.629122,-7.446839 -16.629122,-16.600559 0,-9.15372 7.460171,-16.601497 16.629122,-16.601497 9.16989,0 16.628182,7.447777 16.628182,16.601497 0,9.154657 -7.458292,16.600559 -16.628182,16.600559 z"
             id="path6"
             style="opacity:0.1;fill:#030303;stroke-width:2.66666675;stroke-miterlimit:4;stroke-dasharray:none"
             inkscape:connector-curvature="0" />
          <path
             d="m 117.42853,48.52094 -4.52386,0 c -1.22096,0 -2.63273,-1.016245 -3.02091,-2.173246 -0.0216,-0.06006 -2.80755,-6.803123 -2.80755,-6.803123 -0.57335,-1.153246 -0.29607,-2.866695 0.56678,-3.729987 l 3.19855,-3.198875 c 0.73502,-0.735675 1.14108,-1.717202 1.14108,-2.763477 0,-1.045333 -0.40606,-2.02686 -1.14108,-2.762536 L 98.247504,14.495943 c -0.735019,-0.735676 -1.7163,-1.141048 -2.762433,-1.141048 -1.046137,0 -2.027417,0.405372 -2.762436,1.141048 l -3.198557,3.197937 c -0.862851,0.862353 -2.57727,1.140109 -3.668521,0.59492 -0.0611,-0.02815 -6.805044,-2.813207 -6.805044,-2.813207 -1.218141,-0.411003 -2.234197,-1.822299 -2.234197,-3.043107 l 0,-4.5247824 C 76.813495,5.7522868 75.06054,3.9994269 72.906234,3.9994269 l -17.809664,0 c -2.155244,0 -3.908201,1.7528599 -3.908201,3.9082767 l 0,4.5247824 c 0,1.220808 -1.016056,2.633042 -2.173101,3.020584 -0.06016,0.02252 -6.804106,2.807579 -6.804106,2.807579 -1.153286,0.57334 -2.867704,0.295584 -3.730555,-0.566769 L 35.28205,14.495943 c -0.735959,-0.735676 -1.717239,-1.141048 -2.763374,-1.141048 -1.046135,0 -2.027415,0.40631 -2.762435,1.141048 L 17.16127,27.089696 c -1.523615,1.523899 -1.523615,4.003051 0,5.526013 l 3.198559,3.198875 c 0.86191,0.862355 1.140127,2.576741 0.59497,3.668994 -0.0282,0.06099 -2.814128,6.804999 -2.814128,6.804999 -0.410745,1.217993 -1.821572,2.233301 -3.042531,2.233301 l -3.351767,0 C 9.5920699,48.52094 6.6660891,50.2738 6.6660891,52.429216 l 0,17.809169 c 0,2.15448 1.7529567,3.90734 3.9082009,3.90734 l 4.52479,0 c 1.22096,0 2.632724,1.015307 3.019972,2.173246 0.02256,0.06005 2.80849,6.803121 2.80849,6.803121 0.573355,1.153248 0.295138,2.867634 -0.566772,3.730927 l -3.198559,3.198876 c -1.523615,1.522961 -1.523615,4.003051 0,5.526013 l 12.594971,12.593772 c 0.735019,0.73567 1.716299,1.14103 2.762433,1.14103 1.047075,0 2.028355,-0.40536 2.763374,-1.14103 l 3.198559,-3.19795 c 0.86285,-0.86236 2.577269,-1.14106 3.66852,-0.59492 0.06109,0.0272 6.805044,2.81321 6.805044,2.81321 1.217201,0.411 2.233257,1.82136 2.233257,3.04311 l 0,4.52383 c 0,2.15542 1.752957,3.90829 3.908201,3.90829 l 17.808725,0 c 2.154304,0 3.907262,-1.75287 3.907262,-3.90829 l 0,-4.52383 c 0,-1.22175 1.016056,-2.63305 2.17404,-3.02154 0.06016,-0.0216 6.804106,-2.80757 6.804106,-2.80757 1.153285,-0.57335 2.868645,-0.29465 3.730555,0.56678 l 3.198559,3.19793 c 0.735019,0.73569 1.716299,1.14104 2.762433,1.14104 1.046135,0 2.027414,-0.40535 2.762433,-1.14104 L 110.83872,95.57697 c 0.73503,-0.734739 1.14107,-1.716264 1.14107,-2.762539 0,-1.046273 -0.40604,-2.0278 -1.14107,-2.762536 l -3.19856,-3.198876 c -0.86284,-0.862353 -1.14013,-2.577679 -0.59497,-3.668056 0.0282,-0.06193 2.81413,-6.804999 2.81413,-6.804999 0.41075,-1.218932 1.82158,-2.234239 3.04255,-2.234239 l 4.52384,0 c 2.15523,0 3.9082,-1.75286 3.9082,-3.90734 l 0,-17.809169 c 0.003,-2.155416 -1.75014,-3.908276 -3.90538,-3.908276 z M 64.001402,79.247597 c -9.947207,0 -18.039006,-8.078356 -18.039006,-18.008101 0,-9.930682 8.091799,-18.009039 18.039006,-18.009039 9.946268,0 18.038067,8.078357 18.038067,18.009039 0,9.929745 -8.091799,18.008101 -18.038067,18.008101 z"
             id="path8"
             style="fill:url(#linearGradient3171);fill-opacity:1;stroke:#888888;stroke-width:2.66551137;stroke-linecap:round;stroke-linejoin:round;stroke-miterlimit:4;stroke-opacity:1;stroke-dasharray:none"
             inkscape:connector-curvature="0"
             transform="scale(0.375,0.375)" />
          <path
             transform="scale(0.375,0.375)"
             d="m 64.016093,26.442228 c -19.685158,0 -35.700319,15.988556 -35.700319,35.641013 0,19.652456 16.015161,35.641012 35.700319,35.641012 19.685157,0 35.70032,-15.988556 35.70032,-35.641012 0,-19.652457 -16.015163,-35.641013 -35.70032,-35.641013 z m 0,61.854569 c -14.50237,0 -26.257175,-11.734421 -26.257175,-26.213556 0,-14.479135 11.754805,-26.213555 26.257175,-26.213555 14.502368,0 26.257172,11.735276 26.257172,26.213555 0,14.478278 -11.754804,26.213556 -26.257172,26.213556 z"
             id="path28"
             style="fill:url(#linearGradient3173);stroke:url(#linearGradient3175);stroke-width:2.66551137;stroke-miterlimit:4;stroke-dasharray:none"
             inkscape:connector-curvature="0" />
          <path
             transform="scale(0.375,0.375)"
             d="m 64.016093,30.684416 c -16.955265,0 -30.699914,13.721818 -30.699914,30.648916 0,16.927099 13.744649,30.648915 30.699914,30.648915 16.955264,0 30.699913,-13.721816 30.699913,-30.648915 0,-16.927098 -13.744649,-30.648916 -30.699913,-30.648916 z m 0,50.916748 c -11.213392,0 -20.301557,-9.074058 -20.301557,-20.267832 0,-11.194763 9.088165,-20.267832 20.301557,-20.267832 11.212401,0 20.301554,9.073069 20.301554,20.267832 0,11.193774 -9.089153,20.267832 -20.301554,20.267832 z"
             id="path35"
             style="fill:url(#linearGradient3177);stroke:url(#linearGradient3179);stroke-width:2.66551137;stroke-miterlimit:4;stroke-opacity:1;stroke-dasharray:none"
             inkscape:connector-curvature="0" />
        </g>
      </g>
    </g>
  </g>
</svg>
