<?xml version="1.0" encoding="UTF-8" standalone="no"?>
<!-- Created with Inkscape (http://www.inkscape.org/) -->

<svg
   xmlns:dc="http://purl.org/dc/elements/1.1/"
   xmlns:cc="http://creativecommons.org/ns#"
   xmlns:rdf="http://www.w3.org/1999/02/22-rdf-syntax-ns#"
   xmlns:svg="http://www.w3.org/2000/svg"
   xmlns="http://www.w3.org/2000/svg"
   xmlns:xlink="http://www.w3.org/1999/xlink"
   xmlns:sodipodi="http://sodipodi.sourceforge.net/DTD/sodipodi-0.dtd"
   xmlns:inkscape="http://www.inkscape.org/namespaces/inkscape"
   sodipodi:docname="preferences-web-browser-shortcuts.svg"
   inkscape:version="0.48.1 r9760"
   version="1.0"
   width="22"
   height="22"
   id="svg2">
  <metadata
     id="metadata28">
    <rdf:RDF>
      <cc:Work
         rdf:about="">
        <dc:format>image/svg+xml</dc:format>
        <dc:type
           rdf:resource="http://purl.org/dc/dcmitype/StillImage" />
        <dc:title />
      </cc:Work>
    </rdf:RDF>
  </metadata>
  <sodipodi:namedview
     pagecolor="#ffffff"
     bordercolor="#666666"
     borderopacity="1"
     objecttolerance="10"
     gridtolerance="10"
     guidetolerance="10"
     inkscape:pageopacity="0"
     inkscape:pageshadow="2"
     inkscape:window-width="640"
     inkscape:window-height="480"
     id="namedview26"
     showgrid="true"
     showguides="true"
     inkscape:guide-bbox="true"
     inkscape:zoom="10.182075"
     inkscape:cx="-20.480629"
     inkscape:cy="4.7401266"
     inkscape:current-layer="svg2">
    <inkscape:grid
       type="xygrid"
       id="grid3174"
       empspacing="5"
       visible="true"
       enabled="true"
       snapvisiblegridlinesonly="true" />
  </sodipodi:namedview>
  <defs
     id="defs4">
    <radialGradient
       id="radialGradient3868"
       gradientUnits="userSpaceOnUse"
       cy="4.625"
       cx="62.625"
       gradientTransform="matrix(1,0,0,0.34118,0,3.0471)"
       r="10.625">
      <stop
         id="stop8840"
         offset="0" />
      <stop
         id="stop8842"
         style="stop-opacity:0"
         offset="1" />
    </radialGradient>
    <radialGradient
       id="radialGradient6407"
       gradientUnits="userSpaceOnUse"
       cy="5.3052001"
       cx="12.466"
       gradientTransform="matrix(1.2145,0,0,1,-2.6744,-1.5333e-6)"
       r="10.5">
      <stop
         id="stop8649"
         style="stop-color:#8fb1dc"
         offset="0" />
      <stop
         id="stop8651"
         style="stop-color:#3465a4"
         offset="1" />
    </radialGradient>
    <linearGradient
       id="linearGradient5158"
       y2="-0.62970001"
       gradientUnits="userSpaceOnUse"
       x2="63.396999"
       gradientTransform="matrix(1.0299,0,0,1.0299,-51.596,15.116)"
       y1="-12.742"
       x1="63.396999">
      <stop
         id="stop4875"
         style="stop-color:#fff"
         offset="0" />
      <stop
         id="stop4877"
         style="stop-color:#fff;stop-opacity:0"
         offset="1" />
    </linearGradient>
    <radialGradient
       id="radialGradient2414"
       gradientUnits="userSpaceOnUse"
       cy="24.149"
       cx="17.813999"
       gradientTransform="matrix(-1.4145,0,1.571e-8,1.3559,39.434,-22.854)"
       r="9.125">
      <stop
         id="stop4847"
         style="stop-color:#fff"
         offset="0" />
      <stop
         id="stop4849"
         style="stop-color:#b6b6b6"
         offset="1" />
    </radialGradient>
    <radialGradient
       id="radialGradient5163"
       fx="24.652"
       gradientUnits="userSpaceOnUse"
       cy="18.944"
       cx="24.653"
       gradientTransform="matrix(0.03689,1.3299,-0.94885,0.026323,29.159,-26.64)"
       r="8.6174002">
      <stop
         id="stop14112"
         style="stop-color:#557695"
         offset="0" />
      <stop
         id="stop14114"
         style="stop-color:#15395c"
         offset="1" />
    </radialGradient>
    <linearGradient
       x1="37.521"
       y1="11.524"
       gradientTransform="matrix(1,0,0,0.83338,-22.002,-1.7505)"
       x2="37.521"
       gradientUnits="userSpaceOnUse"
       xlink:href="#linearGradient2821"
       y2="4.0999999"
       id="linearGradient6368" />
    <radialGradient
       r="4.5"
       gradientTransform="matrix(2.1958,0,0,1.1823,-11.193,-20.126)"
       cx="13.893"
       cy="24.271"
       gradientUnits="userSpaceOnUse"
       xlink:href="#linearGradient2821"
       id="radialGradient6366" />
    <linearGradient
       x1="37.521"
       y1="11.524"
       gradientTransform="matrix(1.1666,0,0,0.8333,-40.249,-1.7496)"
       x2="37.521"
       gradientUnits="userSpaceOnUse"
       xlink:href="#linearGradient2821"
       y2="4.0999999"
       id="linearGradient6360" />
    <radialGradient
       r="4.5"
       gradientTransform="matrix(2.5616,0,0,1.1822,-27.639,-20.123)"
       cx="13.893"
       cy="24.271"
       gradientUnits="userSpaceOnUse"
       xlink:href="#linearGradient2821"
       id="radialGradient6358" />
    <linearGradient
       x1="37.521"
       y1="11.524"
       gradientTransform="matrix(0.85715,0,0,0.83335,-28.643,8.2498)"
       x2="37.521"
       gradientUnits="userSpaceOnUse"
       xlink:href="#linearGradient2821"
       y2="4.0999999"
       id="linearGradient5566" />
    <radialGradient
       r="4.5"
       gradientTransform="matrix(5.0817,0,0,1.0842,-67.63,-7.7446)"
       cx="15.08"
       cy="24.271"
       gradientUnits="userSpaceOnUse"
       xlink:href="#linearGradient2821"
       id="radialGradient5564" />
    <linearGradient
       id="linearGradient2821">
      <stop
         offset="0"
         style="stop-color:#fff"
         id="stop2823" />
      <stop
         offset="1"
         style="stop-color:#fff;stop-opacity:0"
         id="stop2825" />
    </linearGradient>
    <radialGradient
       inkscape:collect="always"
       xlink:href="#linearGradient2821"
       id="radialGradient3176"
       gradientUnits="userSpaceOnUse"
       gradientTransform="matrix(5.0817,0,0,1.0842,-67.63,-7.7446)"
       cx="15.08"
       cy="24.271"
       r="4.5" />
    <linearGradient
       inkscape:collect="always"
       xlink:href="#linearGradient2821"
       id="linearGradient3178"
       gradientUnits="userSpaceOnUse"
       gradientTransform="matrix(0.85715,0,0,0.83335,-28.643,8.2498)"
       x1="37.521"
       y1="11.524"
       x2="37.521"
       y2="4.0999999" />
    <radialGradient
       inkscape:collect="always"
       xlink:href="#linearGradient2821"
       id="radialGradient3180"
       gradientUnits="userSpaceOnUse"
       gradientTransform="matrix(2.5616,0,0,1.1822,-27.639,-20.123)"
       cx="13.893"
       cy="24.271"
       r="4.5" />
    <linearGradient
       inkscape:collect="always"
       xlink:href="#linearGradient2821"
       id="linearGradient3182"
       gradientUnits="userSpaceOnUse"
       gradientTransform="matrix(1.1666,0,0,0.8333,-40.249,-1.7496)"
       x1="37.521"
       y1="11.524"
       x2="37.521"
       y2="4.0999999" />
    <radialGradient
       inkscape:collect="always"
       xlink:href="#linearGradient2821"
       id="radialGradient3184"
       gradientUnits="userSpaceOnUse"
       gradientTransform="matrix(2.1958,0,0,1.1823,-11.193,-20.126)"
       cx="13.893"
       cy="24.271"
       r="4.5" />
    <linearGradient
       inkscape:collect="always"
       xlink:href="#linearGradient2821"
       id="linearGradient3186"
       gradientUnits="userSpaceOnUse"
       gradientTransform="matrix(1,0,0,0.83338,-22.002,-1.7505)"
       x1="37.521"
       y1="11.524"
       x2="37.521"
       y2="4.0999999" />
    <radialGradient
       inkscape:collect="always"
       xlink:href="#radialGradient3868"
       id="radialGradient3047"
       gradientUnits="userSpaceOnUse"
       gradientTransform="matrix(1,0,0,0.34118,0,3.0471)"
       cx="62.625"
       cy="4.625"
       r="10.625" />
    <radialGradient
       inkscape:collect="always"
       xlink:href="#radialGradient6407"
       id="radialGradient3049"
       gradientUnits="userSpaceOnUse"
       gradientTransform="matrix(1.2145,0,0,1,-2.6744,-1.5333e-6)"
       cx="12.466"
       cy="5.3052001"
       r="10.5" />
    <radialGradient
       inkscape:collect="always"
       xlink:href="#radialGradient5163"
       id="radialGradient3051"
       gradientUnits="userSpaceOnUse"
       gradientTransform="matrix(0.03689,1.3299,-0.94885,0.026323,29.159,-26.64)"
       cx="24.653"
       cy="18.944"
       fx="24.652"
       r="8.6174002" />
    <linearGradient
       inkscape:collect="always"
       xlink:href="#linearGradient5158"
       id="linearGradient3053"
       gradientUnits="userSpaceOnUse"
       gradientTransform="matrix(1.0299,0,0,1.0299,-51.596,15.116)"
       x1="63.396999"
       y1="-12.742"
       x2="63.396999"
       y2="-0.62970001" />
    <radialGradient
       inkscape:collect="always"
       xlink:href="#linearGradient2821"
       id="radialGradient3055"
       gradientUnits="userSpaceOnUse"
       gradientTransform="matrix(5.0817,0,0,1.0842,-67.63,-7.7446)"
       cx="15.08"
       cy="24.271"
       r="4.5" />
    <linearGradient
       inkscape:collect="always"
       xlink:href="#linearGradient2821"
       id="linearGradient3057"
       gradientUnits="userSpaceOnUse"
       gradientTransform="matrix(0.85715,0,0,0.83335,-28.643,8.2498)"
       x1="37.521"
       y1="11.524"
       x2="37.521"
       y2="4.0999999" />
    <radialGradient
       inkscape:collect="always"
       xlink:href="#linearGradient2821"
       id="radialGradient3059"
       gradientUnits="userSpaceOnUse"
       gradientTransform="matrix(2.5616,0,0,1.1822,-27.639,-20.123)"
       cx="13.893"
       cy="24.271"
       r="4.5" />
    <linearGradient
       inkscape:collect="always"
       xlink:href="#linearGradient2821"
       id="linearGradient3061"
       gradientUnits="userSpaceOnUse"
       gradientTransform="matrix(1.1666,0,0,0.8333,-40.249,-1.7496)"
       x1="37.521"
       y1="11.524"
       x2="37.521"
       y2="4.0999999" />
    <radialGradient
       inkscape:collect="always"
       xlink:href="#linearGradient2821"
       id="radialGradient3063"
       gradientUnits="userSpaceOnUse"
       gradientTransform="matrix(2.1958,0,0,1.1823,-11.193,-20.126)"
       cx="13.893"
       cy="24.271"
       r="4.5" />
    <linearGradient
       inkscape:collect="always"
       xlink:href="#linearGradient2821"
       id="linearGradient3065"
       gradientUnits="userSpaceOnUse"
       gradientTransform="matrix(1,0,0,0.83338,-22.002,-1.7505)"
       x1="37.521"
       y1="11.524"
       x2="37.521"
       y2="4.0999999" />
  </defs>
  <g
     id="g3029"
     transform="matrix(0.91666667,0,0,0.91666667,0,2.29e-5)">
    <g
       id="layer1">
      <path
         transform="matrix(1.0824,0,0,1.2907,-55.817,13.352)"
         d="m 73.25,4.625 a 10.625,3.625 0 1 1 -21.25,0 10.625,3.625 0 1 1 21.25,0 z"
         style="opacity:0.56044;fill:url(#radialGradient3047);fill-rule:evenodd"
         id="path2774"
         inkscape:connector-curvature="0" />
      <path
         d="m 12.458,1.5 c -5.5191,0 -9.9922,4.4731 -9.9922,9.9922 0,5.5191 4.4731,10.008 9.9922,10.008 5.5191,0 10.008,-4.4888 10.008,-10.008 C 22.466,5.9731 17.9772,1.5 12.458,1.5 z"
         style="fill:url(#radialGradient3049);stroke:#204a87;stroke-width:0.99994999;stroke-linecap:round;stroke-linejoin:round"
         id="path2555"
         inkscape:connector-curvature="0" />
      <path
         d="M 9.0535,13.69 C 8.8269,13.111 7.9962,12.76 7.802,12.347 7.1322,12.347 6.5813,11.673 6.152,12.414 5.3234,12.753 5.3626,11.561 4.9231,11.475 4.9524,10.978 4.9277,10.454 4.4313,11.086 3.4236,11.213 3.9128,9.4891 4.7828,9.5832 5.3206,9.2279 6.0236,10.364 5.9047,9.5019 6.4014,8.7267 6.9803,7.9844 7.7803,7.5098 8.1839,7.462 8.9337,6.862 8.0743,6.8991 7.1748,6.7224 9.1725,6.7763 9.2098,6.2478 9.0474,5.7729 8.8047,5.3766 8.3074,5.3242 7.9464,4.4008 7.5193,5.7665 7.192,6.0656 6.8867,6.7287 6.5959,5.6206 6.1538,5.645 5.9577,4.9109 8.1266,4.6201 7.0152,3.9386 6.3193,4.4307 5.6095,4.934 5.0977,5.6613 3.9327,7.1434 3.1471,8.9407 2.9479,10.821 c 0.43387,1.0881 1.8949,1.0688 2.6089,1.8809 1.0964,0.34388 -0.55444,1.5213 0.03335,2.3338 0.31933,0.90777 1.5512,1.3854 1.4257,2.4603 0.15948,0.7432 -0.31848,2.0746 0.8533,2.1742 0.63269,-0.0983 0.89205,-0.97658 1.3461,-1.3048 -0.019237,-0.7502 0.52889,-1.1601 0.99558,-1.5056 0.076,-0.74435 0.29829,-1.4952 0.48748,-2.147 -0.277,-0.657 -1.1721,-0.583 -1.6446,-1.023 m 4.5716,-11.192 c -1.0697,-0.67251 -2.3649,-0.23549 -3.475,0.065324 -1.0612,0.54764 1.006,0.69958 0.2827,1.4785 -0.43808,0.6543 0.60808,1.4834 0.9043,0.53908 0.4165,-0.76128 1.5517,-0.32371 1.9383,-1.1726 0.1485,-0.28907 0.21055,-0.61423 0.34977,-0.9104 m 8.2048,7.538 c -0.42053,0.5417 -1.4735,-0.79659 -1.5848,-0.2529 0.06333,0.3651 0.59773,0.93049 0.85669,0.39083 0.65716,0.87425 -0.82484,1.6783 -1.2619,1.9175 -0.29852,-0.66601 -0.4622,-1.3932 -0.87973,-1.9982 -0.36291,-0.65491 -0.70415,-0.06728 -0.20194,0.3022 0.31039,0.84504 0.53744,1.9414 1.6609,1.8327 0.34213,1.0768 -1.2636,1.7075 -1.0301,2.8083 0.27898,0.82428 -0.11257,1.493 -0.78004,1.8992 0.26142,0.63957 -0.36715,1.7017 -1.099,1.9096 -0.4532,0.28555 -1.0205,0.25001 -0.94861,-0.47189 -0.31058,-1.0412 -0.54722,-2.0699 -0.37045,-3.1745 -0.17761,-0.65827 -0.32264,-1.4663 -0.53084,-1.9563 -0.79399,-0.69432 -1.7884,0.67564 -2.2817,-0.34049 -0.7147,-0.61326 -0.86359,-1.4896 -0.5133,-2.3298 0.24393,-0.97109 1.0411,-1.9032 2.0629,-2.0738 0.90089,-0.39887 1.4187,1.0408 2.2236,0.51194 0.41927,0.38423 1.9218,-0.026037 1.1677,-0.46992 -0.616,-0.0943 -1.017,-1.0212 -1.301,-0.2476 -0.231,-0.0773 -0.592,-1.2567 -0.665,-0.6937 0.521,0.3033 -0.395,0.9054 -0.144,0.2091 -0.695,-0.9479 -1.513,0.1388 -1.947,0.6599 -0.937,-0.0726 -0.606,-1.3432 0.213,-1.2144 -0.639,-0.7151 0.402,-0.5732 0.64,-1.1653 0.369,-0.5635 0.614,-0.3753 1.123,-0.1152 0.41392,-0.32957 1.1252,-0.96125 0.52822,-1.1925 0.31631,-0.99185 -0.65813,0.099168 -0.53481,0.57173 -0.24749,0.50815 -0.63136,-0.26679 -1.003,0.00201 -0.30032,-0.72894 0.63639,-1.1416 1.0847,-1.5387 0.512,-0.14572 1.6779,-0.043438 1.802,0.32333 -0.80285,0.00494 -0.25026,0.8275 0.18362,0.31671 0.61603,-0.42688 1.2474,0.93817 1.7301,1.3736 0.94575,1.2178 1.569,2.6833 1.8003,4.2071 z"
         style="fill:url(#radialGradient3051)"
         id="path6566"
         inkscape:connector-curvature="0" />
      <path
         d="m 21.473,11.5 c 0,4.9748 -4.033,9.0077 -9.0071,9.0077 -4.9746,0 -9.0073,-4.033 -9.0073,-9.0077 0,-4.9746 4.0327,-9.0071 9.0073,-9.0071 4.9741,0 9.0071,4.0325 9.0071,9.0071 z"
         style="opacity:0.4;fill:none;stroke:url(#linearGradient3053)"
         id="path8655"
         inkscape:connector-curvature="0" />
    </g>
    <g
       transform="matrix(0.72438095,0,0,0.72438095,5.9611429,7.3392381)"
       id="g6370">
      <rect
         id="rect1933"
         style="fill:#deaa39"
         rx="2"
         ry="2"
         height="11"
         width="18"
         y="12"
         x="2.6077e-08" />
      <rect
         id="rect6286"
         style="fill:#deaa39"
         rx="2"
         ry="2"
         height="11"
         width="12"
         y="2"
         x="12" />
      <path
         inkscape:connector-curvature="0"
         id="path6593"
         style="fill:none;stroke:#deaa39"
         d="m 16.5,17.5 h 3 c 0.36892,0 1,-0.63108 1,-1 v -4.4783" />
      <rect
         id="rect4555"
         style="fill:#3c3c3c;stroke:#323232;stroke-width:0.99970001;stroke-linecap:square;stroke-linejoin:round;stroke-dashoffset:1.2"
         rx="1"
         ry="1"
         height="8.0003004"
         width="15"
         y="13.5"
         x="1.4999" />
      <rect
         id="rect2930"
         style="opacity:0.3;fill:url(#radialGradient3055);stroke:url(#linearGradient3057);stroke-width:0.99989003;stroke-linecap:square;stroke-linejoin:round;stroke-dashoffset:1.2"
         rx="0.5"
         ry="0.5"
         height="5.0001001"
         width="12"
         y="14.5"
         x="3.4999001" />
      <rect
         id="rect6290"
         style="fill:#3c3c3c;stroke:#323232;stroke-width:1.00049996;stroke-linecap:square;stroke-linejoin:round;stroke-dashoffset:1.2"
         rx="0.99996001"
         ry="1"
         height="7.9994998"
         width="9.9995003"
         y="3.5002"
         x="1.5002" />
      <rect
         id="rect6294"
         style="opacity:0.3;fill:url(#radialGradient3059);stroke:url(#linearGradient3061);stroke-width:1.00020003;stroke-linecap:square;stroke-linejoin:round;stroke-dashoffset:1.2"
         rx="0.5"
         ry="0.5"
         height="4.9998002"
         width="6.9998002"
         y="4.5001001"
         x="3.5000999" />
      <rect
         id="rect6362"
         style="fill:#3c3c3c;stroke:#323232;stroke-width:0.99992001;stroke-linecap:square;stroke-linejoin:round;stroke-dashoffset:1.2"
         rx="1"
         ry="1"
         height="8.0001001"
         width="9.0001001"
         y="3.5"
         x="13.5" />
      <rect
         id="rect6364"
         style="opacity:0.3;fill:url(#radialGradient3063);stroke:url(#linearGradient3065);stroke-width:0.99971002;stroke-linecap:square;stroke-linejoin:round;stroke-dashoffset:1.2"
         rx="0.5"
         ry="0.5"
         height="5.0002999"
         width="6.0002999"
         y="4.4998999"
         x="15.5" />
    </g>
    <rect
       ry="0.97810858"
       rx="0.95192206"
       y="0"
       x="0"
       height="24"
       width="24"
       id="rect3027"
       style="opacity:0.4;fill:none;stroke:none" />
  </g>
</svg>
