<?xml version="1.0" encoding="UTF-8" standalone="no"?>
<!-- Created with Inkscape (http://www.inkscape.org/) -->

<svg
   xmlns:dc="http://purl.org/dc/elements/1.1/"
   xmlns:cc="http://creativecommons.org/ns#"
   xmlns:rdf="http://www.w3.org/1999/02/22-rdf-syntax-ns#"
   xmlns:svg="http://www.w3.org/2000/svg"
   xmlns="http://www.w3.org/2000/svg"
   xmlns:sodipodi="http://sodipodi.sourceforge.net/DTD/sodipodi-0.dtd"
   xmlns:inkscape="http://www.inkscape.org/namespaces/inkscape"
   version="1.0"
   width="22"
   height="22"
   id="svg2"
   sodipodi:version="0.32"
   inkscape:version="0.47pre4 r22446"
   sodipodi:docname="start-here.svg"
   inkscape:output_extension="org.inkscape.output.svg.inkscape"
   inkscape:export-filename="/home/svetli/Плот/LFU_menu_icons/Y-symbol_2.png"
   inkscape:export-xdpi="7.1999998"
   inkscape:export-ydpi="7.1999998">
  <metadata
     id="metadata6">
    <rdf:RDF>
      <cc:Work
         rdf:about="">
        <dc:format>image/svg+xml</dc:format>
        <dc:type
           rdf:resource="http://purl.org/dc/dcmitype/StillImage" />
        <dc:title />
      </cc:Work>
    </rdf:RDF>
  </metadata>
  <sodipodi:namedview
     inkscape:window-height="724"
     inkscape:window-width="1280"
     inkscape:pageshadow="2"
     inkscape:pageopacity="0.0"
     guidetolerance="10.0"
     gridtolerance="10.0"
     objecttolerance="10.0"
     borderopacity="1.0"
     bordercolor="#666666"
     pagecolor="#ffffff"
     id="base"
     showgrid="false"
     inkscape:zoom="17.347687"
     inkscape:cx="-1.3166661"
     inkscape:cy="11.447101"
     inkscape:window-x="0"
     inkscape:window-y="25"
     inkscape:current-layer="g2559"
     borderlayer="false"
     inkscape:showpageshadow="true"
     showborder="true"
     inkscape:window-maximized="1" />
  <defs
     id="defs7">
    <inkscape:perspective
       sodipodi:type="inkscape:persp3d"
       inkscape:vp_x="0 : 24 : 1"
       inkscape:vp_y="0 : 1000 : 0"
       inkscape:vp_z="48 : 24 : 1"
       inkscape:persp3d-origin="24 : 16 : 1"
       id="perspective11" />
    <inkscape:perspective
       id="perspective2821"
       inkscape:persp3d-origin="0.5 : 0.33333333 : 1"
       inkscape:vp_z="1 : 0.5 : 1"
       inkscape:vp_y="0 : 1000 : 0"
       inkscape:vp_x="0 : 0.5 : 1"
       sodipodi:type="inkscape:persp3d" />
  </defs>
  <g
     id="g2559"
     transform="matrix(1.0426669,0,0,1.0426669,11.330071,-21.040329)">
    <path
       id="path2537"
       d="M 0.85984255,40.108282 C 0.65746393,39.70819 0.54613963,39.06375 0.28872364,36.80218 0.15181906,35.599391 0.1017681,35.310921 0.00195754,35.149424 -0.21126585,34.804422 -0.29439487,34.787145 -1.7412232,34.787145 c -1.2891317,0 -1.3007325,-0.001 -1.3839712,-0.128111 -0.081609,-0.124553 -3.2496636,-12.430328 -3.2496636,-12.622776 0,-0.05299 0.039549,-0.152805 0.087888,-0.221817 0.086712,-0.1238 0.1061959,-0.125478 1.4571083,-0.125478 1.4000211,0 1.4364248,0.0052 1.6004186,0.225831 0.03461,0.04658 0.5372922,2.066351 1.1170694,4.488386 0.5797775,2.422035 1.0977132,4.479657 1.15096773,4.572494 0.053254,0.09284 0.1654203,0.207164 0.2492576,0.25406 0.1355946,0.07584 0.1689758,0.07591 0.3022049,5.91e-4 0.31146551,-0.176113 0.36520468,-0.322476 0.44848975,-1.221494 0.26164464,-2.824324 0.63605848,-4.881016 1.21159852,-6.655429 0.3095233,-0.954272 0.583337,-1.342821 1.0979593,-1.55803 0.093421,-0.03907 0.5367367,-0.08503 0.9903994,-0.102675 l 0.821276,-0.03195 0.5226089,-0.271633 c 0.6535562,-0.339696 0.777404,-0.336582 0.9564304,0.02404 0.1201939,0.242116 0.1248868,0.288 0.066399,0.649262 -0.034616,0.213805 -0.08342,0.732907 -0.1084565,1.15356 -0.053551,0.899709 -0.1544107,1.162026 -0.6110211,1.589131 -0.4590255,0.429365 -0.8326586,0.499816 -2.0026478,0.377614 -0.6051163,-0.0632 -0.6073524,-0.06298 -0.7918536,0.07775 -0.2738319,0.208862 -0.4629374,0.607295 -0.6612078,1.393127 -0.4311693,1.708899 -0.59699186,3.240516 -0.5474589,5.056607 0.0661101,2.423897 0.3662983,3.98919 1.0573771,5.513553 0.3308996,0.729889 0.5489398,1.387596 0.6476353,1.953556 0.1192022,0.68356 0.1107128,0.785617 -0.081328,0.977658 l -0.1650296,0.165029 -0.7371457,0 -0.73714524,0 -0.10709312,-0.211716 z"
       style="fill:#3a3935;fill-opacity:1;stroke:#eae3d0;stroke-opacity:1;stroke-width:1.4386186;stroke-miterlimit:4;stroke-dasharray:none;stroke-linejoin:round" />
    <path
       id="path2537-7"
       d="m 0.85984195,40.108282 c -0.2023787,-0.400092 -0.313703,-1.044532 -0.571119,-3.306102 -0.1369046,-1.202789 -0.1869554,-1.491259 -0.286766,-1.652756 -0.2132235,-0.345002 -0.2963525,-0.362279 -1.74318085,-0.362279 -1.2891317,0 -1.3007325,-9.59e-4 -1.3839712,-0.128111 -0.081609,-0.124553 -3.2496635,-12.430328 -3.2496635,-12.622776 0,-0.05299 0.03955,-0.152805 0.08789,-0.221817 0.08671,-0.1238 0.106196,-0.125478 1.4571082,-0.125478 1.4000211,0 1.4364248,0.0052 1.6004186,0.225831 0.03461,0.04658 0.5372922,2.066351 1.1170694,4.488386 0.5797775,2.422035 1.0977132,4.479657 1.15096775,4.572494 0.053254,0.09284 0.1654203,0.207164 0.2492576,0.25406 0.1355946,0.07584 0.1689759,0.07591 0.3022049,5.91e-4 0.3114655,-0.176113 0.3652047,-0.322476 0.4484898,-1.221494 0.2616447,-2.824324 0.6360585,-4.881016 1.21159845,-6.655429 0.3095233,-0.954272 0.583337,-1.342821 1.0979594,-1.55803 0.093421,-0.03907 0.5367367,-0.08503 0.9903999,-0.102675 l 0.8212757,-0.03195 0.5226088,-0.271633 c 0.6535558,-0.339696 0.7774036,-0.336582 0.9564301,0.02404 0.1201937,0.242116 0.1248865,0.288 0.066397,0.649262 -0.034613,0.213805 -0.083421,0.732907 -0.1084565,1.15356 -0.053549,0.899709 -0.1544088,1.162026 -0.6110187,1.589131 -0.4590258,0.429365 -0.832659,0.499816 -2.002648,0.377614 -0.6051163,-0.0632 -0.6073524,-0.06298 -0.7918537,0.07775 -0.2738319,0.208862 -0.4629374,0.607295 -0.6612078,1.393127 -0.4311692,1.708899 -0.59699175,3.240516 -0.54745885,5.056607 0.0661101,2.423897 0.36629825,3.98919 1.05737705,5.513553 0.3308997,0.729889 0.5489399,1.387596 0.6476354,1.953556 0.1192022,0.68356 0.1107128,0.785617 -0.081328,0.977658 l -0.1650296,0.165029 -0.7371458,0 -0.73714525,0 -0.107093,-0.211716 z"
       style="fill:#3a3935;fill-opacity:1;stroke:none" />
  </g>
</svg>
