<?xml version="1.0" encoding="UTF-8" standalone="no"?>
<!-- Created with Inkscape (http://www.inkscape.org/) -->
<svg id="svg3356" xmlns:rdf="http://www.w3.org/1999/02/22-rdf-syntax-ns#" xmlns="http://www.w3.org/2000/svg" height="24" width="24" version="1.0" xmlns:cc="http://creativecommons.org/ns#" xmlns:dc="http://purl.org/dc/elements/1.1/">
 <metadata id="metadata8">
  <rdf:RDF>
   <cc:Work rdf:about="">
    <dc:format>image/svg+xml</dc:format>
    <dc:type rdf:resource="http://purl.org/dc/dcmitype/StillImage"/>
    <dc:title/>
   </cc:Work>
  </rdf:RDF>
 </metadata>
 <path id="path3186-7" style="opacity:.3;fill-rule:evenodd;fill:#fff" d="m8.9072 3.9527c-0.37001 0.011021-0.66244 0.31738-0.65625 0.6875l0.03125 3.375-4.0938-0.875c-0.2877-0.0563-0.5763 0.0875-0.7187 0.3438s-0.1061 0.5667 0.0937 0.7812l3.3125 3.2812-3.0938 0.96875c-0.30108 0.07534-0.5 0.34589-0.5 0.65625s0.19892 0.58091 0.5 0.65625l2.6875 0.875-3.3438 4.5c-0.16201 0.23622-0.16847 0.5496 0 0.78125s0.47536 0.33134 0.75 0.25l4.75-1.7188 0.125 2.4062c0.00327 0.27249 0.18495 0.52262 0.4375 0.625s0.52665 0.03704 0.71875-0.15625l2.25-2.0938 1.125 1.75c0.15498 0.24996 0.46468 0.38383 0.75 0.3125s0.48088-0.33152 0.5-0.625l0.125-1.5 4.3438 2.6562c0.25558 0.13812 0.56887 0.10447 0.78125-0.09375s0.27643-0.51676 0.15625-0.78125l-2.1562-4.125 1.5312-0.03125c0.28131-0.0024 0.52775-0.17353 0.625-0.4375s0.02501-0.56567-0.1875-0.75l-1.375-1.2812 2.3438-1.5c0.22374-0.1401 0.34607-0.39441 0.3125-0.65625s-0.2169-0.48338-0.46875-0.5625l-2.2812-0.75 2.6562-5.875c0.121-0.265 0.057-0.5835-0.156-0.7818-0.212-0.1982-0.525-0.2318-0.781-0.0937l-5.0312 2.6875-0.40625-1.375c-0.07195-0.24482-0.2803-0.42252-0.53125-0.46875-0.25095-0.046227-0.50179 0.046892-0.65625 0.25l-1.094 1.4688-2.9061-2.5938c-0.1262-0.1206-0.2941-0.1878-0.4687-0.1875zm3.0938 4.0312c0.554-1e-7 1 0.446 1 1v5c0 0.554-0.446 1-1 1s-1-0.446-1-1v-5c0-0.554 0.446-1 1-1zm-0.5 8h0.5 0.5c0.277 0 0.5 0.223 0.5 0.5v0.5 0.5c0 0.277-0.223 0.5-0.5 0.5h-0.5-0.5c-0.277 0-0.5-0.223-0.5-0.5v-0.5-0.5c0-0.277 0.223-0.5 0.5-0.5z"/>
 <path id="path3186" style="fill-rule:evenodd;fill:#df382c" d="m8.9072 2.9527c-0.37001 0.011021-0.66244 0.31738-0.65625 0.6875l0.03125 3.375-4.0938-0.875c-0.2877-0.0563-0.5763 0.0875-0.7187 0.3438s-0.1061 0.5667 0.0937 0.7812l3.3125 3.2812-3.0938 0.96875c-0.30108 0.07534-0.5 0.34589-0.5 0.65625s0.19892 0.58091 0.5 0.65625l2.6875 0.875-3.3438 4.5c-0.16201 0.23622-0.16847 0.5496 0 0.78125s0.47536 0.33134 0.75 0.25l4.75-1.7188 0.125 2.4062c0.00327 0.27249 0.18495 0.52262 0.4375 0.625s0.52665 0.03704 0.71875-0.15625l2.25-2.0938 1.125 1.75c0.15498 0.24996 0.46468 0.38383 0.75 0.3125s0.48088-0.33152 0.5-0.625l0.125-1.5 4.3438 2.6562c0.25558 0.13812 0.56887 0.10447 0.78125-0.09375s0.27643-0.51676 0.15625-0.78125l-2.1562-4.125 1.5312-0.03125c0.28131-0.0024 0.52775-0.17353 0.625-0.4375s0.02501-0.56567-0.1875-0.75l-1.375-1.2812 2.3438-1.5c0.22374-0.1401 0.34607-0.39441 0.3125-0.65625s-0.2169-0.48338-0.46875-0.5625l-2.281-0.7505 2.656-5.875c0.121-0.2645 0.057-0.583-0.156-0.7813-0.212-0.1982-0.525-0.2318-0.781-0.0937l-5.0312 2.6875-0.40625-1.375c-0.07195-0.24482-0.2803-0.42252-0.53125-0.46875-0.25095-0.046227-0.50179 0.046892-0.65625 0.25l-1.094 1.4688-2.9061-2.5938c-0.1262-0.1206-0.2941-0.1878-0.4687-0.1875zm3.0938 4.0312c0.554-1e-7 1 0.446 1 1v5c0 0.554-0.446 1-1 1s-1-0.446-1-1v-5c0-0.554 0.446-1 1-1zm-0.5 8h0.5 0.5c0.277 0 0.5 0.223 0.5 0.5v0.5 0.5c0 0.277-0.223 0.5-0.5 0.5h-0.5-0.5c-0.277 0-0.5-0.223-0.5-0.5v-0.5-0.5c0-0.277 0.223-0.5 0.5-0.5z"/>
</svg>
