<?xml version="1.0" encoding="UTF-8" standalone="no"?>
<!-- Created with Inkscape (http://www.inkscape.org/) -->

<svg
   xmlns:dc="http://purl.org/dc/elements/1.1/"
   xmlns:cc="http://creativecommons.org/ns#"
   xmlns:rdf="http://www.w3.org/1999/02/22-rdf-syntax-ns#"
   xmlns:svg="http://www.w3.org/2000/svg"
   xmlns="http://www.w3.org/2000/svg"
   xmlns:sodipodi="http://sodipodi.sourceforge.net/DTD/sodipodi-0.dtd"
   xmlns:inkscape="http://www.inkscape.org/namespaces/inkscape"
   version="1.0"
   width="48"
   height="48"
   id="svg2"
   sodipodi:version="0.32"
   inkscape:version="0.47pre4 r22446"
   sodipodi:docname="start-here.svg"
   inkscape:output_extension="org.inkscape.output.svg.inkscape"
   inkscape:export-filename="/home/svetli/Плот/LFU_menu_icons/Y-symbol_2.png"
   inkscape:export-xdpi="7.1999998"
   inkscape:export-ydpi="7.1999998">
  <metadata
     id="metadata6">
    <rdf:RDF>
      <cc:Work
         rdf:about="">
        <dc:format>image/svg+xml</dc:format>
        <dc:type
           rdf:resource="http://purl.org/dc/dcmitype/StillImage" />
      </cc:Work>
    </rdf:RDF>
  </metadata>
  <sodipodi:namedview
     inkscape:window-height="724"
     inkscape:window-width="1280"
     inkscape:pageshadow="2"
     inkscape:pageopacity="0.0"
     guidetolerance="10.0"
     gridtolerance="10.0"
     objecttolerance="10.0"
     borderopacity="1.0"
     bordercolor="#666666"
     pagecolor="#ffffff"
     id="base"
     showgrid="false"
     inkscape:zoom="8.6738432"
     inkscape:cx="-7.9448578"
     inkscape:cy="25.555022"
     inkscape:window-x="0"
     inkscape:window-y="25"
     inkscape:current-layer="g2559"
     borderlayer="false"
     inkscape:showpageshadow="true"
     showborder="true"
     inkscape:window-maximized="1" />
  <defs
     id="defs7">
    <inkscape:perspective
       sodipodi:type="inkscape:persp3d"
       inkscape:vp_x="0 : 300 : 1"
       inkscape:vp_y="0 : 1000 : 0"
       inkscape:vp_z="600 : 300 : 1"
       inkscape:persp3d-origin="300 : 200 : 1"
       id="perspective8" />
    <inkscape:perspective
       id="perspective2527"
       inkscape:persp3d-origin="372.04724 : 350.78739 : 1"
       inkscape:vp_z="744.09448 : 526.18109 : 1"
       inkscape:vp_y="0 : 1000 : 0"
       inkscape:vp_x="0 : 526.18109 : 1"
       sodipodi:type="inkscape:persp3d" />
    <filter
       id="filter3372"
       inkscape:label="filter1">
      <feDiffuseLighting
         id="feDiffuseLighting3374" />
    </filter>
    <filter
       id="filter3376"
       inkscape:label="filter2">
      <feSpecularLighting
         id="feSpecularLighting3378"
         in="SourceAlpha" />
    </filter>
  </defs>
  <g
     id="g2559"
     transform="matrix(1.0426669,0,0,1.0426669,8.491366,36.959671)">
    <path
       id="path2537"
       d="M 17.57974,9.1424453 C 17.114269,8.2222354 16.858222,6.7400228 16.266167,1.5384177 c -0.31488,-2.766414 -0.429998,-3.429895 -0.659561,-3.8013365 -0.490414,-0.7935037 -0.681611,-0.8332405 -4.009313,-0.8332405 -2.9650011,0 -2.9916827,-0.00247 -3.1831315,-0.2946572 C 8.2264594,-3.6772869 0.93994044,-31.98055 0.93994044,-32.42318 c 0,-0.121871 0.0909632,-0.351451 0.20214206,-0.510179 0.1994382,-0.28474 0.2442502,-0.288599 3.3513468,-0.288599 3.2200461,0 3.3037747,0.01181 3.6809601,0.519411 0.079605,0.107129 1.2357712,4.752604 2.5692576,10.32328 1.333487,5.570676 2.524738,10.303203 2.647223,10.516729 0.122485,0.213526 0.380467,0.476477 0.573292,0.584336 0.311868,0.174447 0.388645,0.174593 0.695071,0.0014 0.716371,-0.405058 0.839971,-0.741693 1.031526,-2.809435 0.601783,-6.495939 1.462934,-11.226327 2.786674,-15.307474 0.711904,-2.194824 1.341675,-3.088486 2.525306,-3.583468 0.214868,-0.08985 1.234493,-0.195562 2.277916,-0.236151 l 1.888934,-0.07348 1.201999,-0.624755 c 1.503179,-0.7813 1.788028,-0.774139 2.199788,0.0553 0.276447,0.556868 0.287241,0.6624 0.152718,1.493305 -0.07961,0.491749 -0.191866,1.685682 -0.249449,2.653183 -0.123168,2.069364 -0.355145,2.672693 -1.405349,3.655033 -1.055757,0.987538 -1.915113,1.149577 -4.606085,0.86851 -1.391767,-0.145367 -1.39691,-0.144861 -1.821262,0.178808 -0.629813,0.480381 -1.064756,1.396777 -1.520778,3.204188 -0.991688,3.930467 -1.37308,7.453184 -1.259154,11.630191 0.152052,5.5749582 0.842485,9.17512979 2.431965,12.6811629 0.761069,1.6787435 1.262561,3.1914688 1.48956,4.4931742 0.274165,1.5721892 0.25464,1.8069189 -0.187054,2.2486116 l -0.379568,0.3795687 -1.695434,0 -1.695433,0 -0.246313,-0.4869476 z"
       style="fill:#3a3935;stroke:#eae3d0;stroke-opacity:1;stroke-width:0.57544744000000003;stroke-miterlimit:4;stroke-dasharray:none;fill-opacity:1" />
  </g>
</svg>
