<?xml version="1.0" encoding="UTF-8" standalone="no"?>
<!-- Created with Inkscape (http://www.inkscape.org/) -->

<svg
   xmlns:dc="http://purl.org/dc/elements/1.1/"
   xmlns:cc="http://creativecommons.org/ns#"
   xmlns:rdf="http://www.w3.org/1999/02/22-rdf-syntax-ns#"
   xmlns:svg="http://www.w3.org/2000/svg"
   xmlns="http://www.w3.org/2000/svg"
   xmlns:xlink="http://www.w3.org/1999/xlink"
   xmlns:sodipodi="http://sodipodi.sourceforge.net/DTD/sodipodi-0.dtd"
   xmlns:inkscape="http://www.inkscape.org/namespaces/inkscape"
   sodipodi:docname="dialog-text-and-font.svg"
   inkscape:version="0.48.1 r9760"
   version="1.1"
   id="svg2936"
   height="22"
   width="22">
  <defs
     id="defs2938">
    <linearGradient
       id="linearGradient2781">
      <stop
         id="stop2783"
         style="stop-color:#cdcdcd;stop-opacity:1"
         offset="0" />
      <stop
         id="stop2785"
         style="stop-color:#ffffff;stop-opacity:1"
         offset="1" />
    </linearGradient>
    <linearGradient
       y2="8.1973696"
       x2="25.000017"
       y1="17.828943"
       x1="25.000017"
       gradientTransform="matrix(0.5757569,0,0,0.62295116,-3.3939327,-10.106561)"
       gradientUnits="userSpaceOnUse"
       id="linearGradient2934"
       xlink:href="#linearGradient2781"
       inkscape:collect="always" />
  </defs>
  <sodipodi:namedview
     id="base"
     pagecolor="#ffffff"
     bordercolor="#666666"
     borderopacity="1.0"
     inkscape:pageopacity="0.0"
     inkscape:pageshadow="2"
     inkscape:zoom="34.310026"
     inkscape:cx="-6.5988889"
     inkscape:cy="11.391323"
     inkscape:current-layer="al_baselines_hor"
     showgrid="true"
     inkscape:grid-bbox="true"
     inkscape:document-units="px"
     inkscape:window-width="1366"
     inkscape:window-height="690"
     inkscape:window-x="0"
     inkscape:window-y="24"
     inkscape:window-maximized="1"
     inkscape:snap-bbox="false"
     inkscape:snap-nodes="false">
    <inkscape:grid
       type="xygrid"
       id="grid3161" />
  </sodipodi:namedview>
  <metadata
     id="metadata2941">
    <rdf:RDF>
      <cc:Work
         rdf:about="">
        <dc:format>image/svg+xml</dc:format>
        <dc:type
           rdf:resource="http://purl.org/dc/dcmitype/StillImage" />
        <dc:title />
      </cc:Work>
    </rdf:RDF>
  </metadata>
  <g
     id="layer1"
     inkscape:label="Layer 1"
     inkscape:groupmode="layer"
     transform="translate(0,6)">
    <path
       style="fill:url(#linearGradient2934);fill-opacity:1;stroke:#8c8c8c;stroke-width:1.00000024;stroke-miterlimit:4;stroke-opacity:1;stroke-dasharray:none"
       id="rect1887"
       d="m 3.5000001,-4.5 c -1.108,0 -2,0.892 -2,2 l 0,7.9999999 0,7.0000001 0,2 2,0 14.9999999,0 2,0 0,-2 0,-7.0000001 L 20.5,-2.5 c 0,-1.108 -0.892,-2 -2,-2 l -14.9999999,0 z" />
    <path
       style="opacity:0.8;fill:none;stroke:#ffffff;stroke-width:1.00000083;stroke-miterlimit:4;stroke-opacity:1;stroke-dasharray:none"
       id="rect2779"
       d="M 19.5,-0.50000002 19.5,-2.5 c 0,-0.554 -0.446,-1 -1,-1 l -14.9999999,0 c -0.554,0 -1,0.446 -1,1 l 0,1.99999998" />
    <rect
       style="color:#000000;fill:#ffffff;fill-opacity:1;fill-rule:nonzero;stroke:none;stroke-width:1;marker:none;visibility:visible;display:inline;overflow:visible;enable-background:accumulate"
       id="rect4122"
       y="1"
       x="2"
       height="13"
       width="18" />
    <path
       style="fill:none;stroke:#a0a0a0;stroke-width:1px;stroke-linecap:butt;stroke-linejoin:miter;stroke-opacity:1"
       id="path4146"
       d="m 2.0000001,0.49999998 17.9999999,0" />
    <path
       style="opacity:0.05;fill:none;stroke:#000000;stroke-width:1px;stroke-linecap:butt;stroke-linejoin:miter;stroke-opacity:1"
       id="path4146-0"
       d="M 2.0000001,1.5 20,1.5" />
    <g
       id="layer1-2"
       inkscape:label="Layer 1"
       transform="translate(-51.999954,-10.578979)">
      <use
         x="0"
         y="0"
         xlink:href="#node_b"
         id="use20461"
         transform="matrix(3.0000002,0,0,3.0000002,-4394.526,-560.64289)"
         width="2000"
         height="2000" />
      <use
         x="0"
         y="0"
         xlink:href="#node_b"
         id="use20463"
         transform="matrix(3.0000002,0,0,3.0000002,-4364.526,-590.64289)"
         width="2000"
         height="2000" />
      <g
         id="scripts"
         style="display:inline"
         transform="matrix(3,0,0,3,-792,-1536)" />
    </g>
    <g
       transform="translate(-28.26115,-28.177354)"
       id="layer1-4"
       inkscape:label="Layer 1">
      <use
         x="0"
         y="0"
         xlink:href="#node_b"
         id="use20461-8"
         transform="matrix(1.3750001,0,0,1.3750001,-2014.1577,-230.96132)"
         width="2000"
         height="2000" />
      <use
         x="0"
         y="0"
         xlink:href="#node_b"
         id="use20463-7"
         transform="matrix(1.3750001,0,0,1.3750001,-2000.4077,-244.71132)"
         width="2000"
         height="2000" />
      <g
         id="al_baselines_hor"
         style="display:inline"
         transform="matrix(0.91666667,0,0,0.91666667,-220,-1191.3333)">
        <g
           id="g3083"
           transform="matrix(0.96939538,0,0,0.96939538,37.588459,41.525706)">
          <path
             id="path13051"
             style="font-size:16px;font-style:normal;font-weight:bold;fill:#2e3436;fill-opacity:1;stroke:none;font-family:Arial"
             d="m 252,1342 c -0.58601,0 -1.17201,0 -1.75802,0 -0.23295,-0.6814 -0.46589,-1.3629 -0.69885,-2.0443 -1.06646,0 -2.13293,0 -3.1994,0 -0.22021,0.6814 -0.44041,1.3629 -0.66062,2.0443 -0.57147,0 -1.14291,0 -1.71436,0 1.03916,-3.0001 2.07834,-5.9999 3.1175,-9 0.56965,0 1.13927,0 1.7089,0 1.06829,3.0001 2.13658,5.9999 3.20485,9 z m -2.97556,-3.5607 c -0.3676,-1.1133 -0.73523,-2.2264 -1.10285,-3.3397 -0.36034,1.1133 -0.72069,2.2264 -1.08104,3.3397 0.72798,0 1.45594,0 2.18389,0 z"
             inkscape:connector-curvature="0" />
          <path
             id="path13053"
             style="font-size:16px;font-style:normal;font-weight:bold;fill:#2e3436;fill-opacity:1;stroke:none;font-family:Arial"
             d="m 255,1333.0004 c 1.23144,0 2.4629,0 3.69431,0 0.51325,0.019 1.04131,0.015 1.53172,0.2007 0.7754,0.2958 1.36553,1.1291 1.36279,2.0249 0.0261,0.8376 -0.45979,1.6571 -1.17393,1.9884 0.54156,0.161 1.04807,0.5216 1.32396,1.0592 0.38366,0.727 0.32218,1.6564 -0.0383,2.3793 -0.27689,0.5865 -0.78947,1.0377 -1.38427,1.1954 -0.50242,0.1419 -1.02734,0.1136 -1.5417,0.1358 -1.17659,0.021 -2.35339,0.01 -3.53009,0.012 -0.0815,0 -0.16297,0 -0.24446,0 0,-2.9997 0,-5.9994 0,-8.9989 z m 1.68716,1.4978 c 0,0.6936 0,1.3873 0,2.0808 0.74606,0 1.49268,0.014 2.23821,-0.022 0.36993,-0.016 0.77093,-0.1958 0.93472,-0.576 0.13189,-0.3253 0.12036,-0.7278 -0.0537,-1.0329 -0.186,-0.3225 -0.55979,-0.4299 -0.89235,-0.433 -0.74192,-0.026 -1.48464,-0.014 -2.22688,-0.017 z m 0,3.5787 c 0,0.802 0,1.604 0,2.4062 0.75044,0 1.50107,0.01 2.25133,-0.011 0.34321,-0.01 0.71967,-0.043 0.98664,-0.3033 0.31931,-0.2846 0.38289,-0.7806 0.29525,-1.1949 -0.0808,-0.4034 -0.40588,-0.7108 -0.77354,-0.798 -0.52889,-0.1113 -1.0715,-0.094 -1.60794,-0.099 -0.38392,0 -0.76783,0 -1.15174,0 z"
             inkscape:connector-curvature="0" />
        </g>
      </g>
    </g>
  </g>
</svg>
