<?xml version="1.0" encoding="UTF-8" standalone="no"?>
<!-- Created with Inkscape (http://www.inkscape.org/) -->

<svg
   xmlns:dc="http://purl.org/dc/elements/1.1/"
   xmlns:cc="http://creativecommons.org/ns#"
   xmlns:rdf="http://www.w3.org/1999/02/22-rdf-syntax-ns#"
   xmlns:svg="http://www.w3.org/2000/svg"
   xmlns="http://www.w3.org/2000/svg"
   xmlns:xlink="http://www.w3.org/1999/xlink"
   xmlns:sodipodi="http://sodipodi.sourceforge.net/DTD/sodipodi-0.dtd"
   xmlns:inkscape="http://www.inkscape.org/namespaces/inkscape"
   width="22"
   height="22"
   id="svg2936"
   version="1.1"
   inkscape:version="0.48.1 r9760"
   sodipodi:docname="dialog-xml-editor.svg">
  <defs
     id="defs2938">
    <linearGradient
       id="linearGradient2781">
      <stop
         id="stop2783"
         style="stop-color:#cdcdcd;stop-opacity:1"
         offset="0" />
      <stop
         id="stop2785"
         style="stop-color:#ffffff;stop-opacity:1"
         offset="1" />
    </linearGradient>
    <linearGradient
       y2="8.1973696"
       x2="25.000017"
       y1="17.828943"
       x1="25.000017"
       gradientTransform="matrix(0.5757569,0,0,0.62295116,-3.3939327,-10.106561)"
       gradientUnits="userSpaceOnUse"
       id="linearGradient2934"
       xlink:href="#linearGradient2781"
       inkscape:collect="always" />
  </defs>
  <sodipodi:namedview
     id="base"
     pagecolor="#ffffff"
     bordercolor="#666666"
     borderopacity="1.0"
     inkscape:pageopacity="0.0"
     inkscape:pageshadow="2"
     inkscape:zoom="16.858668"
     inkscape:cx="11.752534"
     inkscape:cy="7.7647684"
     inkscape:current-layer="layer1-1"
     showgrid="true"
     inkscape:grid-bbox="true"
     inkscape:document-units="px"
     inkscape:window-width="1366"
     inkscape:window-height="690"
     inkscape:window-x="0"
     inkscape:window-y="24"
     inkscape:window-maximized="1">
    <inkscape:grid
       type="xygrid"
       id="grid3831" />
  </sodipodi:namedview>
  <metadata
     id="metadata2941">
    <rdf:RDF>
      <cc:Work
         rdf:about="">
        <dc:format>image/svg+xml</dc:format>
        <dc:type
           rdf:resource="http://purl.org/dc/dcmitype/StillImage" />
        <dc:title />
      </cc:Work>
    </rdf:RDF>
  </metadata>
  <g
     id="layer1"
     inkscape:label="Layer 1"
     inkscape:groupmode="layer"
     transform="translate(0,6)">
    <path
       style="fill:url(#linearGradient2934);fill-opacity:1;stroke:#8c8c8c;stroke-width:1.00000024;stroke-miterlimit:4;stroke-opacity:1;stroke-dasharray:none"
       id="rect1887"
       d="m 3.5000001,-4.5 c -1.108,0 -2,0.892 -2,2 l 0,7.9999999 0,7.0000001 0,2 2,0 14.9999999,0 2,0 0,-2 0,-7.0000001 L 20.5,-2.5 c 0,-1.108 -0.892,-2 -2,-2 l -14.9999999,0 z" />
    <path
       style="opacity:0.8;fill:none;stroke:#ffffff;stroke-width:1.00000083;stroke-miterlimit:4;stroke-opacity:1;stroke-dasharray:none"
       id="rect2779"
       d="M 19.5,-0.50000002 19.5,-2.5 c 0,-0.554 -0.446,-1 -1,-1 l -14.9999999,0 c -0.554,0 -1,0.446 -1,1 l 0,1.99999998" />
    <rect
       style="color:#000000;fill:#ffffff;fill-opacity:1;fill-rule:nonzero;stroke:none;stroke-width:1;marker:none;visibility:visible;display:inline;overflow:visible;enable-background:accumulate"
       id="rect4122"
       y="0.99999988"
       x="2"
       height="13"
       width="18" />
    <path
       style="fill:none;stroke:#a0a0a0;stroke-width:1px;stroke-linecap:butt;stroke-linejoin:miter;stroke-opacity:1"
       id="path4146"
       d="m 2.0000001,0.49999998 17.9999999,0" />
    <path
       style="opacity:0.05;fill:none;stroke:#000000;stroke-width:1px;stroke-linecap:butt;stroke-linejoin:miter;stroke-opacity:1"
       id="path4146-0"
       d="M 2.0000001,1.5 20,1.5" />
    <g
       id="layer1-1"
       transform="translate(-24.300624,-3.5890136)">
      <g
         id="g3058"
         transform="matrix(1.6363636,0,0,1.6363636,23.027897,-3.2301313)">
        <path
           inkscape:connector-curvature="0"
           id="path2882"
           style="opacity:1;fill:#666666"
           d="M 3.1192,9 4.8784,6.736 4.2905,6 2,9 4.3514,12 5,11.328 3.1192,9 z" />
        <path
           inkscape:connector-curvature="0"
           id="rect2888"
           style="opacity:1;color:#000000;fill-rule:evenodd"
           d="M 8,7 H 9 L 7,11 H 6 L 8,7 z" />
        <path
           inkscape:connector-curvature="0"
           id="path2882-6"
           style="opacity:1;fill:#666666"
           d="M 11.885,8.944 10.122,6.736 10.709,6 13,8.944 10.649,12 10,11.328 11.885,8.944 z" />
      </g>
    </g>
  </g>
</svg>
