<?xml version="1.0" encoding="UTF-8" standalone="no"?>
<!-- Created with Inkscape (http://www.inkscape.org/) -->

<svg
   xmlns:dc="http://purl.org/dc/elements/1.1/"
   xmlns:cc="http://creativecommons.org/ns#"
   xmlns:rdf="http://www.w3.org/1999/02/22-rdf-syntax-ns#"
   xmlns:svg="http://www.w3.org/2000/svg"
   xmlns="http://www.w3.org/2000/svg"
   xmlns:xlink="http://www.w3.org/1999/xlink"
   xmlns:sodipodi="http://sodipodi.sourceforge.net/DTD/sodipodi-0.dtd"
   xmlns:inkscape="http://www.inkscape.org/namespaces/inkscape"
   width="22"
   height="22"
   id="svg2936"
   version="1.1"
   inkscape:version="0.48.1 r9760"
   sodipodi:docname="dialog-memory.svg">
  <sodipodi:namedview
     id="base"
     pagecolor="#ffffff"
     bordercolor="#666666"
     borderopacity="1.0"
     inkscape:pageopacity="0.0"
     inkscape:pageshadow="2"
     inkscape:zoom="16.28125"
     inkscape:cx="1.8705682"
     inkscape:cy="6.7328271"
     inkscape:current-layer="layer1"
     showgrid="true"
     inkscape:grid-bbox="true"
     inkscape:document-units="px"
     inkscape:window-width="1366"
     inkscape:window-height="690"
     inkscape:window-x="0"
     inkscape:window-y="24"
     inkscape:window-maximized="1"
     inkscape:snap-object-midpoints="false"
     inkscape:snap-midpoints="false"
     inkscape:object-nodes="false"
     inkscape:snap-smooth-nodes="false"
     inkscape:snap-nodes="false">
    <inkscape:grid
       type="xygrid"
       id="grid3060" />
  </sodipodi:namedview>
  <defs
     id="defs2938">
    <linearGradient
       id="linearGradient2781">
      <stop
         id="stop2783"
         style="stop-color:#cdcdcd;stop-opacity:1"
         offset="0" />
      <stop
         id="stop2785"
         style="stop-color:#ffffff;stop-opacity:1"
         offset="1" />
    </linearGradient>
    <linearGradient
       y2="8.1973696"
       x2="25.000017"
       y1="17.828943"
       x1="25.000017"
       gradientTransform="matrix(0.5757569,0,0,0.62295116,-3.3939327,-10.106561)"
       gradientUnits="userSpaceOnUse"
       id="linearGradient2934"
       xlink:href="#linearGradient2781"
       inkscape:collect="always" />
  </defs>
  <metadata
     id="metadata2941">
    <rdf:RDF>
      <cc:Work
         rdf:about="">
        <dc:format>image/svg+xml</dc:format>
        <dc:type
           rdf:resource="http://purl.org/dc/dcmitype/StillImage" />
        <dc:title></dc:title>
      </cc:Work>
    </rdf:RDF>
  </metadata>
  <g
     id="layer1"
     inkscape:label="Layer 1"
     inkscape:groupmode="layer"
     transform="translate(0,6)">
    <path
       style="fill:url(#linearGradient2934);fill-opacity:1;stroke:#8c8c8c;stroke-width:1.00000024;stroke-miterlimit:4;stroke-opacity:1;stroke-dasharray:none"
       id="rect1887"
       d="m 3.5000001,-4.5 c -1.108,0 -2,0.892 -2,2 l 0,7.9999999 0,7.0000001 0,2 2,0 14.9999999,0 2,0 0,-2 0,-7.0000001 L 20.5,-2.5 c 0,-1.108 -0.892,-2 -2,-2 l -14.9999999,0 z" />
    <path
       style="opacity:0.8;fill:none;stroke:#ffffff;stroke-width:1.00000083;stroke-miterlimit:4;stroke-opacity:1;stroke-dasharray:none"
       id="rect2779"
       d="M 19.5,-0.50000002 19.5,-2.5 c 0,-0.554 -0.446,-1 -1,-1 l -14.9999999,0 c -0.554,0 -1,0.446 -1,1 l 0,1.99999998" />
    <rect
       style="color:#000000;fill:#ffffff;fill-opacity:1;fill-rule:nonzero;stroke:none;stroke-width:1;marker:none;visibility:visible;display:inline;overflow:visible;enable-background:accumulate"
       id="rect4122"
       y="0.99999988"
       x="2"
       height="13"
       width="18" />
    <path
       style="fill:none;stroke:#a0a0a0;stroke-width:1px;stroke-linecap:butt;stroke-linejoin:miter;stroke-opacity:1"
       id="path4146"
       d="m 2.0000001,0.49999998 17.9999999,0" />
    <path
       style="opacity:0.05;fill:none;stroke:#000000;stroke-width:1px;stroke-linecap:butt;stroke-linejoin:miter;stroke-opacity:1"
       id="path4146-0"
       d="M 2.0000001,1.5 20,1.5" />
    <g
       style="display:inline"
       id="g3001"
       transform="matrix(0.64705882,0,0,0.64705882,3.1651016,0.13859797)">
      <path
         style="opacity:0.6;fill:#799c16;fill-opacity:1;fill-rule:evenodd;stroke:none;stroke-width:1.69999993;marker:none;visibility:visible;display:inline;overflow:visible;enable-background:accumulate"
         id="path3162"
         d="M 10.5,3 C 5.8201419,3 2.0000001,6.8201419 2,11.5 c 0,4.679858 3.820142,8.5 8.5,8.5 2.036607,0 3.879002,-0.801057 5.34375,-2 L 21,18 c 0.412848,0.01209 0.790476,-0.231412 0.949824,-0.61246 0.159347,-0.381048 0.06748,-0.820884 -0.231074,-1.10629 l -3,-3 C 18.853483,12.705488 19,12.139671 19,11.5 19,6.8201419 15.179858,3.0000001 10.5,3 z"
         inkscape:connector-curvature="0" />
      <path
         style="fill:#799c16;fill-opacity:1;fill-rule:evenodd;stroke:none;stroke-width:1;marker:none;visibility:visible;display:inline;overflow:visible;enable-background:accumulate"
         id="path2396"
         d="M 10.5,4 C 6.36,4 3.0000001,7.3599999 3,11.5 c 0,4.14 3.3600001,7.5 7.5,7.5 1.964788,0 3.756106,-0.76222 5.09375,-2 L 21,17 17.65625,13.65625 C 17.864192,12.968633 18,12.255184 18,11.5 18,7.36 14.64,4.0000001 10.5,4 z"
         inkscape:connector-curvature="0" />
    </g>
  </g>
</svg>
