<?xml version="1.0" encoding="UTF-8" standalone="no"?>
<!-- Created with Inkscape (http://www.inkscape.org/) -->

<svg
   xmlns:dc="http://purl.org/dc/elements/1.1/"
   xmlns:cc="http://creativecommons.org/ns#"
   xmlns:rdf="http://www.w3.org/1999/02/22-rdf-syntax-ns#"
   xmlns:svg="http://www.w3.org/2000/svg"
   xmlns="http://www.w3.org/2000/svg"
   xmlns:xlink="http://www.w3.org/1999/xlink"
   xmlns:sodipodi="http://sodipodi.sourceforge.net/DTD/sodipodi-0.dtd"
   xmlns:inkscape="http://www.inkscape.org/namespaces/inkscape"
   id="svg2"
   height="22"
   width="22"
   version="1.0"
   inkscape:version="0.48.1 r9760"
   sodipodi:docname="dialog-object-properties.svg">
  <metadata
     id="metadata18">
    <rdf:RDF>
      <cc:Work
         rdf:about="">
        <dc:format>image/svg+xml</dc:format>
        <dc:type
           rdf:resource="http://purl.org/dc/dcmitype/StillImage" />
        <dc:title />
      </cc:Work>
    </rdf:RDF>
  </metadata>
  <sodipodi:namedview
     pagecolor="#ffffff"
     bordercolor="#666666"
     borderopacity="1"
     objecttolerance="10"
     gridtolerance="10"
     guidetolerance="10"
     inkscape:pageopacity="0"
     inkscape:pageshadow="2"
     inkscape:window-width="1366"
     inkscape:window-height="688"
     id="namedview16"
     showgrid="true"
     inkscape:zoom="20.767414"
     inkscape:cx="5.0096781"
     inkscape:cy="11.80483"
     inkscape:window-x="0"
     inkscape:window-y="25"
     inkscape:window-maximized="1"
     inkscape:current-layer="layer1">
    <inkscape:grid
       type="xygrid"
       id="grid3177" />
  </sodipodi:namedview>
  <defs
     id="defs4">
    <linearGradient
       id="linearGradient3390">
      <stop
         id="stop3392"
         style="stop-color:#425e7b;stop-opacity:1"
         offset="0" />
      <stop
         id="stop3394"
         style="stop-color:#7a91a7;stop-opacity:1"
         offset="1" />
    </linearGradient>
    <linearGradient
       id="linearGradient7012-661-145-733-759-865-745">
      <stop
         id="stop2699"
         style="stop-color:#9cbbd9;stop-opacity:1"
         offset="0" />
      <stop
         id="stop2701"
         style="stop-color:#5c82ab;stop-opacity:1"
         offset="1" />
    </linearGradient>
    <linearGradient
       x1="44.995"
       y1="17.5"
       gradientTransform="matrix(0.51232,0,0,0.49974,-0.29581,0.75449)"
       x2="3.0052"
       gradientUnits="userSpaceOnUse"
       spreadMethod="reflect"
       y2="17.5"
       id="linearGradient5571-8">
      <stop
         offset="0"
         style="stop-color:#fff;stop-opacity:0"
         id="stop3277-7" />
      <stop
         offset=".245"
         style="stop-color:#fff"
         id="stop3283-0" />
      <stop
         offset=".77350"
         style="stop-color:#fff"
         id="stop3285-8" />
      <stop
         offset="1"
         style="stop-color:#fff;stop-opacity:0"
         id="stop3279-6" />
    </linearGradient>
    <linearGradient
       gradientTransform="translate(-17.058189,0)"
       gradientUnits="userSpaceOnUse"
       xlink:href="#linearGradient3309"
       id="linearGradient3262"
       y2="16.000105"
       x2="25"
       y1="0"
       x1="25" />
    <linearGradient
       gradientUnits="userSpaceOnUse"
       id="linearGradient3309"
       y2="122.8994"
       x2="63.9995"
       y1="3.1001"
       x1="63.9995">
      <stop
         offset="0"
         style="stop-color:#f6f6f6;stop-opacity:1"
         id="stop3311" />
      <stop
         offset="1"
         style="stop-color:#cccccc;stop-opacity:1"
         id="stop3313" />
    </linearGradient>
    <linearGradient
       gradientTransform="translate(-17.058189,0)"
       gradientUnits="userSpaceOnUse"
       xlink:href="#linearGradient3397"
       id="linearGradient3264"
       y2="16.004715"
       x2="21"
       y1="0"
       x1="21" />
    <linearGradient
       id="linearGradient3397">
      <stop
         offset="0"
         style="stop-color:#a0a0a0;stop-opacity:1"
         id="stop3399" />
      <stop
         offset="1"
         style="stop-color:#828282;stop-opacity:1"
         id="stop3401" />
    </linearGradient>
    <linearGradient
       gradientTransform="matrix(0.09614231,0,0,0.09614231,1.8468935,1.9430362)"
       gradientUnits="userSpaceOnUse"
       xlink:href="#linearGradient5128"
       id="linearGradient3260"
       y2="20.895"
       x2="84.63858"
       y1="105.105"
       x1="86.132919" />
    <linearGradient
       id="linearGradient5128">
      <stop
         offset="0"
         style="stop-color:#e5e5e5;stop-opacity:1"
         id="stop5130" />
      <stop
         offset="1"
         style="stop-color:#ababab;stop-opacity:1"
         id="stop5132" />
    </linearGradient>
    <linearGradient
       inkscape:collect="always"
       xlink:href="#linearGradient7012-661-145-733-759-865-745"
       id="linearGradient3273"
       gradientUnits="userSpaceOnUse"
       gradientTransform="matrix(0.53741009,0,0,0.63672836,-1.684172,-9.2984487)"
       x1="24.823"
       y1="15.378"
       x2="24.997"
       y2="37.277" />
    <linearGradient
       inkscape:collect="always"
       xlink:href="#linearGradient3390"
       id="linearGradient3275"
       gradientUnits="userSpaceOnUse"
       gradientTransform="matrix(0.41911835,0,0,0.40887479,0.86,-3.0463967)"
       x1="15.464"
       y1="7.9756999"
       x2="15.464"
       y2="45.042" />
    <linearGradient
       inkscape:collect="always"
       xlink:href="#linearGradient5571-8"
       id="linearGradient3277"
       gradientUnits="userSpaceOnUse"
       gradientTransform="matrix(0.39033905,0,0,0.49974,1.6317638,-3.74551)"
       spreadMethod="reflect"
       x1="44.995"
       y1="17.5"
       x2="3.0052"
       y2="17.5" />
  </defs>
  <g
     id="g3263"
     transform="matrix(1.1111112,0,0,1.0935541,-1.1324099,2.4877104)">
    <path
       d="M 4.636557,0.42907989 H 17 c 0.721721,0 1.046528,-0.1171627 1.253853,0.4088748 L 19.511961,4.5113152 V 14.606776 c 0,0.635109 0.04314,0.538073 -0.678586,0.538073 H 3.004961 c -0.721721,0 -0.678586,0.09704 -0.678586,-0.538073 V 4.5113152 L 3.584482,0.83795469 c 0.201525,-0.5154176 0.330576,-0.4088748 1.052337,-0.4088748 z"
       style="fill:url(#linearGradient3273);fill-opacity:1;stroke:url(#linearGradient3275);stroke-width:0.81342959;stroke-linecap:round;display:block"
       id="path2488"
       inkscape:connector-curvature="0" />
    <path
       d="M 3,5 H 19"
       style="opacity:0.4;fill:none;stroke:url(#linearGradient3277);stroke-width:0.87287158px;stroke-linecap:square"
       id="path3273-5"
       inkscape:connector-curvature="0" />
  </g>
  <g
     id="layer1"
     transform="translate(-34.5,-4.1875001)">
    <g
       id="g2479"
       transform="translate(40.5,10.1875)">
      <path
         style="fill:url(#linearGradient3262);fill-opacity:1;fill-rule:nonzero;stroke:url(#linearGradient3264);stroke-width:0.99999994;stroke-linecap:butt;stroke-linejoin:round;stroke-miterlimit:4;stroke-opacity:1;stroke-dasharray:none;stroke-dashoffset:0;marker:none;visibility:visible;display:block;overflow:visible;enable-background:accumulate"
         id="path2426"
         d="M 6.9375,0.5 C 6.6890831,0.5 6.5,0.68908218 6.5,0.9375 l 0,1.25 C 5.9460971,2.3297005 5.448836,2.5593783 4.96875,2.84375 L 4.0625,1.9375 c -0.1756569,-0.1756579 -0.449342,-0.1756579 -0.625,0 l -1.5,1.5 c -0.175657,0.1756579 -0.175657,0.4493421 0,0.625 L 2.84375,4.96875 C 2.5593789,5.4488356 2.329701,5.9460968 2.1875,6.5 l -1.25,0 C 0.68908301,6.5 0.5,6.6890821 0.5,6.9375 l 0,2.125 c 1e-8,0.2484178 0.189083,0.4375 0.4375,0.4375 l 1.25,0 c 0.1422009,0.553903 0.371879,1.051164 0.65625,1.53125 L 1.9375,11.9375 c -0.175657,0.175658 -0.175657,0.449342 0,0.625 l 1.5,1.5 c 0.1756579,0.175658 0.449342,0.175658 0.625,0 L 4.96875,13.15625 C 5.4488361,13.440622 5.946097,13.6703 6.5,13.8125 l 0,1.25 c 1e-7,0.248418 0.189083,0.4375 0.4375,0.4375 l 2.125,0 C 9.3109176,15.5 9.5,15.310918 9.5,15.0625 l 0,-1.25 c 0.553903,-0.1422 1.051164,-0.371878 1.53125,-0.65625 l 0.90625,0.90625 c 0.175658,0.175658 0.449342,0.175658 0.625,0 l 1.5,-1.5 c 0.175658,-0.175658 0.175658,-0.449342 0,-0.625 L 13.15625,11.03125 C 13.440622,10.551164 13.6703,10.053903 13.8125,9.5 l 1.25,0 C 15.310918,9.5 15.5,9.3109174 15.5,9.0625 l 0,-2.125 C 15.5,6.6890822 15.310917,6.5 15.0625,6.5 l -1.25,0 C 13.6703,5.9460968 13.440622,5.4488356 13.15625,4.96875 L 14.0625,4.0625 c 0.175658,-0.1756579 0.175658,-0.449342 0,-0.625 l -1.5,-1.5 c -0.175658,-0.1756579 -0.449342,-0.1756579 -0.625,0 L 11.03125,2.84375 C 10.551164,2.5593783 10.053903,2.3297005 9.5,2.1875 l 0,-1.25 C 9.4999996,0.68908218 9.310918,0.5 9.0625,0.5 l -2.125,0 z M 8,6 c 1.104,0 2,0.896 2,2 0,1.104 -0.896,2 -2,2 C 6.896,10 6,9.104 6,8 6,6.896 6.896,6 8,6 z"
         inkscape:connector-curvature="0" />
      <path
         style="opacity:0.05;fill:#000000;fill-opacity:1;stroke:none"
         id="path3315"
         d="M 8,3.465116 C 5.4994229,3.465116 3.4651163,5.499423 3.4651163,8 3.4651163,10.500577 5.4994229,12.534884 8,12.534884 10.500576,12.534883 12.534884,10.500577 12.534884,8 12.534884,5.499423 10.500576,3.465116 8,3.465116 z M 8,5.55814 c 1.347907,0 2.44186,1.093953 2.44186,2.44186 0,1.347907 -1.093953,2.44186 -2.44186,2.44186 C 6.652093,10.44186 5.5581395,9.347907 5.5581395,8 5.5581395,6.652093 6.652093,5.55814 8,5.55814 z"
         inkscape:connector-curvature="0" />
      <path
         style="fill:none;stroke:url(#linearGradient3260);stroke-width:1;stroke-miterlimit:4;stroke-dasharray:none"
         id="path28"
         d="M 8.0000001,4 C 5.7943997,4 3.9999999,5.7944001 3.9999999,8.0000008 3.9999999,10.2056 5.7943997,12 8.0000001,12 10.2056,12 12,10.2056 12,8.0000008 12,5.7944001 10.2056,4 8.0000001,4 z"
         inkscape:connector-curvature="0" />
    </g>
  </g>
</svg>
