<?xml version="1.0" encoding="UTF-8" standalone="no"?>
<!-- Created with Inkscape (http://www.inkscape.org/) -->

<svg
   xmlns:dc="http://purl.org/dc/elements/1.1/"
   xmlns:cc="http://creativecommons.org/ns#"
   xmlns:rdf="http://www.w3.org/1999/02/22-rdf-syntax-ns#"
   xmlns:svg="http://www.w3.org/2000/svg"
   xmlns="http://www.w3.org/2000/svg"
   xmlns:sodipodi="http://sodipodi.sourceforge.net/DTD/sodipodi-0.dtd"
   xmlns:inkscape="http://www.inkscape.org/namespaces/inkscape"
   version="1.0"
   width="22"
   height="22"
   id="svg2"
   sodipodi:version="0.32"
   inkscape:version="0.48.1 r9760"
   sodipodi:docname="start-here.svg"
   inkscape:output_extension="org.inkscape.output.svg.inkscape"
   inkscape:export-filename="/home/svetli/Плот/LFU_menu_icons/Y-symbol_2.png"
   inkscape:export-xdpi="7.1999998"
   inkscape:export-ydpi="7.1999998">
  <metadata
     id="metadata6">
    <rdf:RDF>
      <cc:Work
         rdf:about="">
        <dc:format>image/svg+xml</dc:format>
        <dc:type
           rdf:resource="http://purl.org/dc/dcmitype/StillImage" />
      </cc:Work>
    </rdf:RDF>
  </metadata>
  <sodipodi:namedview
     inkscape:window-height="793"
     inkscape:window-width="1272"
     inkscape:pageshadow="2"
     inkscape:pageopacity="0.0"
     guidetolerance="10.0"
     gridtolerance="10.0"
     objecttolerance="10.0"
     borderopacity="1.0"
     bordercolor="#666666"
     pagecolor="#ffffff"
     id="base"
     showgrid="true"
     inkscape:zoom="17.788155"
     inkscape:cx="3.2611377"
     inkscape:cy="11.491942"
     inkscape:window-x="-4"
     inkscape:window-y="29"
     inkscape:current-layer="g2559"
     borderlayer="false"
     inkscape:showpageshadow="true"
     showborder="true">
    <inkscape:grid
       type="xygrid"
       id="grid3765" />
  </sodipodi:namedview>
  <defs
     id="defs7" />
  <g
     id="g2559"
     transform="matrix(1.0426669,0,0,1.0426669,6.9877591,3.0902654)">
    <g
       id="g3770"
       transform="matrix(0.95044985,0,0,0.95044985,0.19067174,0.37589025)">
      <g
         id="g3767">
        <path
           style="fill:#333333;stroke:#eae3d0;stroke-opacity:1"
           d="M 5.024462,16.965137 C 4.8220835,16.565045 4.710759,15.920605 4.4533432,13.659038 4.316439,12.456248 4.2663878,12.167779 4.1665775,12.006283 3.9533542,11.661281 3.8702251,11.644004 2.4233979,11.644004 c -1.2891309,0 -1.3007316,-0.0011 -1.3839702,-0.128112 -0.0816096,-0.124552 -3.2496614,-12.43031928 -3.2496614,-12.6227672 0,-0.052987 0.039549,-0.1528043 0.087888,-0.2218167 0.086712,-0.1237998 0.1061957,-0.1254776 1.45710727,-0.1254776 1.40002003,0 1.43642378,0.00513 1.60041746,0.2258307 0.0346107,0.046578 0.53729187,2.06634968 1.11706857,4.4883828 0.5797771,2.4220328 1.0977125,4.4796531 1.1509667,4.5724908 0.053254,0.092837 0.1654203,0.2071641 0.2492576,0.2540593 0.1355944,0.075847 0.1689756,0.07591 0.3022046,5.769e-4 C 4.0661418,7.9110585 4.1198812,7.7646953 4.2031659,6.8656773 4.4648105,4.0413559 4.8392241,1.9846655 5.4147635,0.21025356 5.7242868,-0.7440178 5.9981005,-1.132566 6.5127224,-1.3477759 c 0.093421,-0.039068 0.5367363,-0.085026 0.9903984,-0.1026745 l 0.8212759,-0.031949 0.5226082,-0.2716329 c 0.6535556,-0.3396955 0.7774037,-0.3365818 0.9564293,0.024042 0.1201943,0.2421164 0.1248871,0.2880001 0.066404,0.6492627 C 9.8352195,-0.86692357 9.7864146,-0.34782243 9.761382,0.07283016 9.7078263,0.97255368 9.6069665,1.2348705 9.1503563,1.6619752 8.6913312,2.0913396 8.3176981,2.161791 7.1477102,2.0395884 6.5425944,1.9763848 6.5403581,1.9766051 6.3558571,2.117331 6.0820254,2.3261923 5.89292,2.7246254 5.6946494,3.5104563 5.2634807,5.2193548 5.0976584,6.7509708 5.147191,8.5670609 c 0.06611,2.4238951 0.366298,3.9891871 1.0573764,5.5135501 0.3308995,0.729888 0.5489394,1.387594 0.6476349,1.953554 0.1192021,0.68356 0.1107128,0.785616 -0.081328,0.977657 l -0.1650296,0.16503 -0.7371453,0 -0.7371445,0 -0.107093,-0.211717 z"
           id="path2995"
           inkscape:connector-curvature="0" />
      </g>
      <path
         style="fill:#333333"
         d="M 5.024462,16.965137 C 4.8220835,16.565045 4.710759,15.920605 4.4533432,13.659038 4.316439,12.456248 4.2663878,12.167779 4.1665775,12.006283 3.9533542,11.661281 3.8702251,11.644004 2.4233979,11.644004 c -1.2891309,0 -1.3007316,-0.0011 -1.3839702,-0.128112 -0.0816096,-0.124552 -3.2496614,-12.43031928 -3.2496614,-12.6227672 0,-0.052987 0.039549,-0.1528043 0.087888,-0.2218167 0.086712,-0.1237998 0.1061957,-0.1254776 1.45710727,-0.1254776 1.40002003,0 1.43642378,0.00513 1.60041746,0.2258307 0.0346107,0.046578 0.53729187,2.06634968 1.11706857,4.4883828 0.5797771,2.4220328 1.0977125,4.4796531 1.1509667,4.5724908 0.053254,0.092837 0.1654203,0.2071641 0.2492576,0.2540593 0.1355944,0.075847 0.1689756,0.07591 0.3022046,5.769e-4 C 4.0661418,7.9110585 4.1198812,7.7646953 4.2031659,6.8656773 4.4648105,4.0413559 4.8392241,1.9846655 5.4147635,0.21025356 5.7242868,-0.7440178 5.9981005,-1.132566 6.5127224,-1.3477759 c 0.093421,-0.039068 0.5367363,-0.085026 0.9903984,-0.1026745 l 0.8212759,-0.031949 0.5226082,-0.2716329 c 0.6535556,-0.3396955 0.7774037,-0.3365818 0.9564293,0.024042 0.1201943,0.2421164 0.1248871,0.2880001 0.066404,0.6492627 C 9.8352195,-0.86692357 9.7864146,-0.34782243 9.761382,0.07283016 9.7078263,0.97255368 9.6069665,1.2348705 9.1503563,1.6619752 8.6913312,2.0913396 8.3176981,2.161791 7.1477102,2.0395884 6.5425944,1.9763848 6.5403581,1.9766051 6.3558571,2.117331 6.0820254,2.3261923 5.89292,2.7246254 5.6946494,3.5104563 5.2634807,5.2193548 5.0976584,6.7509708 5.147191,8.5670609 c 0.06611,2.4238951 0.366298,3.9891871 1.0573764,5.5135501 0.3308995,0.729888 0.5489394,1.387594 0.6476349,1.953554 0.1192021,0.68356 0.1107128,0.785616 -0.081328,0.977657 l -0.1650296,0.16503 -0.7371453,0 -0.7371445,0 -0.107093,-0.211717 z"
         id="path2537"
         inkscape:connector-curvature="0" />
    </g>
  </g>
</svg>
