<?xml version="1.0" encoding="UTF-8" standalone="no"?>
<!-- Created with Inkscape (http://www.inkscape.org/) -->

<svg
   xmlns:dc="http://purl.org/dc/elements/1.1/"
   xmlns:cc="http://creativecommons.org/ns#"
   xmlns:rdf="http://www.w3.org/1999/02/22-rdf-syntax-ns#"
   xmlns:svg="http://www.w3.org/2000/svg"
   xmlns="http://www.w3.org/2000/svg"
   xmlns:xlink="http://www.w3.org/1999/xlink"
   xmlns:sodipodi="http://sodipodi.sourceforge.net/DTD/sodipodi-0.dtd"
   xmlns:inkscape="http://www.inkscape.org/namespaces/inkscape"
   width="48"
   height="48"
   id="svg2"
   sodipodi:version="0.32"
   inkscape:version="0.47 r22583"
   version="1.0"
   sodipodi:docname="novell.svg"
   inkscape:export-filename="/home/hbons/Desktop/Gaim Refresh/protocols/48/groupwise.png"
   inkscape:export-xdpi="90"
   inkscape:export-ydpi="90"
   inkscape:output_extension="org.inkscape.output.svg.inkscape">
  <defs
     id="defs4">
    <inkscape:perspective
       sodipodi:type="inkscape:persp3d"
       inkscape:vp_x="0 : 24 : 1"
       inkscape:vp_y="0 : 1000 : 0"
       inkscape:vp_z="48 : 24 : 1"
       inkscape:persp3d-origin="24 : 16 : 1"
       id="perspective24" />
    <linearGradient
       inkscape:collect="always"
       id="linearGradient2190">
      <stop
         style="stop-color:#d3d7cf;stop-opacity:1;"
         offset="0"
         id="stop2192" />
      <stop
         style="stop-color:#d3d7cf;stop-opacity:0;"
         offset="1"
         id="stop2194" />
    </linearGradient>
    <linearGradient
       inkscape:collect="always"
       id="linearGradient2238">
      <stop
         style="stop-color:#eeeeec;stop-opacity:1;"
         offset="0"
         id="stop2240" />
      <stop
         style="stop-color:#eeeeec;stop-opacity:0;"
         offset="1"
         id="stop2242" />
    </linearGradient>
    <linearGradient
       inkscape:collect="always"
       id="linearGradient3150">
      <stop
         style="stop-color:#2e3436;stop-opacity:1;"
         offset="0"
         id="stop3152" />
      <stop
         style="stop-color:#2e3436;stop-opacity:0;"
         offset="1"
         id="stop3154" />
    </linearGradient>
    <radialGradient
       inkscape:collect="always"
       xlink:href="#linearGradient3150"
       id="radialGradient3156"
       cx="10.748654"
       cy="10.457643"
       fx="10.748654"
       fy="10.457643"
       r="6.6449099"
       gradientTransform="matrix(-0.842757,5.698892e-16,-4.565819e-9,-0.35721,19.80716,14.19321)"
       gradientUnits="userSpaceOnUse" />
    <linearGradient
       inkscape:collect="always"
       xlink:href="#linearGradient2238"
       id="linearGradient2244"
       x1="11.76915"
       y1="3.4633243"
       x2="11.76915"
       y2="11.990735"
       gradientUnits="userSpaceOnUse"
       gradientTransform="matrix(1.888889,0,0,1.818182,2.77778,1.26862)" />
    <radialGradient
       inkscape:collect="always"
       xlink:href="#linearGradient2190"
       id="radialGradient2196"
       cx="4.3022962"
       cy="7.5011024"
       fx="4.3022962"
       fy="7.5011024"
       r="8.5"
       gradientTransform="matrix(-2.567716,2.567716,-2.581797,-2.581795,54.64024,19.71367)"
       gradientUnits="userSpaceOnUse" />
  </defs>
  <sodipodi:namedview
     id="base"
     pagecolor="#ffffff"
     bordercolor="#666666"
     borderopacity="1.0"
     inkscape:pageopacity="0.0"
     inkscape:pageshadow="2"
     inkscape:zoom="9.6458333"
     inkscape:cx="24"
     inkscape:cy="24"
     inkscape:document-units="px"
     inkscape:current-layer="layer1"
     showgrid="true"
     fill="#00ffff"
     inkscape:window-width="1268"
     inkscape:window-height="722"
     inkscape:window-x="4"
     inkscape:window-y="25"
     inkscape:window-maximized="0" />
  <metadata
     id="metadata7">
    <rdf:RDF>
      <cc:Work
         rdf:about="">
        <dc:format>image/svg+xml</dc:format>
        <dc:type
           rdf:resource="http://purl.org/dc/dcmitype/StillImage" />
      </cc:Work>
    </rdf:RDF>
  </metadata>
  <g
     inkscape:label="Layer 1"
     inkscape:groupmode="layer"
     id="layer1">
    <path
       transform="matrix(2.934577,0,0,2.111893,-7.042754,16.91046)"
       style="opacity:0.5;fill:url(#radialGradient3156);fill-opacity:1;stroke:none"
       d="m 17.393564,10.457643 c 0,1.307559 -2.975027,2.367545 -6.64491,2.367545 -3.669882,0 -6.6449095,-1.059986 -6.6449095,-2.367545 0,-1.3075595 2.9750275,-2.3675456 6.6449095,-2.3675456 3.669883,0 6.64491,1.0599861 6.64491,2.3675456 z"
       id="path3140" />
    <path
       style="fill:#eeeeec;fill-opacity:1;stroke:#888a85;stroke-width:0.9999997;stroke-miterlimit:4;stroke-opacity:1"
       d="m 11.592388,5.4919853 24.815208,0 c 2.270632,0 4.098614,1.8279817 4.098614,4.0986138 l 0,26.8107869 c 0,2.270632 -1.827982,4.098614 -4.098614,4.098614 l -24.815208,0 c -2.2706323,0 -4.0986141,-1.827982 -4.0986141,-4.098614 l 0,-26.8107869 c 0,-2.2706321 1.8279818,-4.0986138 4.0986141,-4.0986138 z"
       id="rect1326" />
    <path
       style="fill:url(#radialGradient2196);fill-opacity:1;stroke:#ffffff;stroke-width:1.00000048;stroke-miterlimit:4;stroke-opacity:1"
       d="M 11.59375,6.5 C 9.8561383,6.5 8.5,7.8561383 8.5,9.59375 l 0,26.8125 C 8.5,38.143862 9.8561383,39.5 11.59375,39.5 l 24.8125,0 C 38.143862,39.5 39.5,38.143862 39.5,36.40625 l 0,-26.8125 C 39.5,7.8561383 38.143862,6.5 36.40625,6.5 l -24.8125,0 z"
       id="path2201" />
    <path
       style="fill:#cc0000;fill-opacity:1;stroke:none;stroke-width:1;stroke-miterlimit:4;stroke-opacity:1"
       d="M 16,13.995893 L 16,32.182309 L 19.840233,32.182309 L 19.746482,21.644702 L 29.000001,30.275655 L 33,33.995893 L 33,15.840234 L 29.223673,15.840234 L 29.223673,26.287561 L 18.124999,15.900655 L 16,13.995893 z "
       id="rect1317"
       sodipodi:nodetypes="ccccccccccc" />
    <path
       style="fill:url(#linearGradient2244);fill-opacity:1;stroke:none;stroke-width:1;stroke-miterlimit:4;stroke-opacity:1"
       d="M 16,13.995893 L 16,32.182309 L 19.840234,32.182309 L 19.746482,21.644702 L 29.000001,30.275655 L 33,33.995893 L 33,15.840234 L 29.223673,15.840234 L 29.223673,26.287561 L 18.124999,15.900655 L 16,13.995893 z "
       id="path2228"
       sodipodi:nodetypes="ccccccccccc" />
  </g>
</svg>
