<?xml version="1.0" encoding="UTF-8" standalone="no"?>
<!-- Created with Inkscape (http://www.inkscape.org/) -->
<svg
   xmlns:dc="http://purl.org/dc/elements/1.1/"
   xmlns:cc="http://creativecommons.org/ns#"
   xmlns:rdf="http://www.w3.org/1999/02/22-rdf-syntax-ns#"
   xmlns:svg="http://www.w3.org/2000/svg"
   xmlns="http://www.w3.org/2000/svg"
   xmlns:xlink="http://www.w3.org/1999/xlink"
   xmlns:sodipodi="http://sodipodi.sourceforge.net/DTD/sodipodi-0.dtd"
   xmlns:inkscape="http://www.inkscape.org/namespaces/inkscape"
   width="48"
   height="48"
   id="svg2"
   sodipodi:version="0.32"
   inkscape:version="0.46"
   version="1.0"
   sodipodi:docbase="/home/hbons/Desktop/Gaim Refresh/protocols/48"
   sodipodi:docname="msn.svg"
   inkscape:export-filename="/home/hbons/Desktop/Gaim Refresh/protocols/48/msn.png"
   inkscape:export-xdpi="90"
   inkscape:export-ydpi="90"
   inkscape:output_extension="org.inkscape.output.svg.inkscape">
  <defs
     id="defs4">
    <linearGradient
       inkscape:collect="always"
       id="linearGradient3816">
      <stop
         style="stop-color:#000000;stop-opacity:1;"
         offset="0"
         id="stop3818" />
      <stop
         style="stop-color:#000000;stop-opacity:0;"
         offset="1"
         id="stop3820" />
    </linearGradient>
    <linearGradient
       inkscape:collect="always"
       id="linearGradient2228">
      <stop
         style="stop-color:#f56600;stop-opacity:1;"
         offset="0"
         id="stop2230" />
      <stop
         style="stop-color:#f56600;stop-opacity:0;"
         offset="1"
         id="stop2232" />
    </linearGradient>
    <linearGradient
       inkscape:collect="always"
       id="linearGradient2219">
      <stop
         style="stop-color:#3465a4;stop-opacity:1;"
         offset="0"
         id="stop2221" />
      <stop
         style="stop-color:#3465a4;stop-opacity:0;"
         offset="1"
         id="stop2223" />
    </linearGradient>
    <radialGradient
       inkscape:collect="always"
       xlink:href="#linearGradient3816"
       id="radialGradient1358"
       gradientUnits="userSpaceOnUse"
       cx="31.112698"
       cy="19.008621"
       fx="31.112698"
       fy="19.008621"
       r="8.6620579"
       gradientTransform="matrix(1.904859,0,0,0.57723,-32.76529,27.09015)" />
    <linearGradient
       inkscape:collect="always"
       xlink:href="#linearGradient2219"
       id="linearGradient1360"
       gradientUnits="userSpaceOnUse"
       gradientTransform="matrix(1.427299,0,0,1.408267,0.332861,3.39912)"
       x1="10.329217"
       y1="14.96656"
       x2="16.580788"
       y2="20.092552" />
    <linearGradient
       inkscape:collect="always"
       xlink:href="#linearGradient2228"
       id="linearGradient1362"
       gradientUnits="userSpaceOnUse"
       gradientTransform="matrix(1.489007,0,0,1.428565,1.731241,3.002037)"
       x1="20.998175"
       y1="11.741063"
       x2="18.544895"
       y2="23.366545" />
  </defs>
  <sodipodi:namedview
     id="base"
     pagecolor="#ffffff"
     bordercolor="#666666"
     borderopacity="1.0"
     inkscape:pageopacity="0.0"
     inkscape:pageshadow="2"
     inkscape:zoom="14.778489"
     inkscape:cx="32.469518"
     inkscape:cy="22.977647"
     inkscape:document-units="px"
     inkscape:current-layer="layer1"
     showgrid="true"
     fill="#edd400"
     showguides="true"
     inkscape:guide-bbox="true"
     inkscape:window-width="1268"
     inkscape:window-height="971"
     inkscape:window-x="6"
     inkscape:window-y="21" />
  <metadata
     id="metadata7">
    <rdf:RDF>
      <cc:Work
         rdf:about="">
        <dc:format>image/svg+xml</dc:format>
        <dc:type
           rdf:resource="http://purl.org/dc/dcmitype/StillImage" />
      </cc:Work>
    </rdf:RDF>
  </metadata>
  <g
     inkscape:label="Layer 1"
     inkscape:groupmode="layer"
     id="layer1">
    <path
       style="opacity:0.4;color:#000000;fill:url(#radialGradient1358);fill-opacity:1;fill-rule:evenodd;stroke:none;stroke-width:1px;stroke-linecap:round;stroke-linejoin:round;marker:none;marker-start:none;marker-mid:none;marker-end:none;stroke-miterlimit:4;stroke-dashoffset:0;stroke-opacity:1;visibility:visible;display:inline;overflow:visible"
       d="M 43.00001,38.062496 C 43.00001,40.822496 35.608012,43.062496 26.500013,43.062496 C 17.392013,43.062496 10.000014,40.822496 10.000014,38.062496 C 10.000014,35.302496 17.392013,33.062496 26.500013,33.062496 C 35.608012,33.062496 43.00001,35.302496 43.00001,38.062496 z "
       id="path4318" />
    <path
       style="fill:#edd400;fill-opacity:1;stroke:#c4a000;stroke-width:1.00000083;stroke-miterlimit:4;stroke-opacity:1"
       d="M 34.662639,20.335823 C 39.495137,21.781376 40.098879,38.560591 34.609432,38.560591 C 29.18649,38.560591 17.111515,15.085731 34.662639,20.335823 z "
       id="rect2194" />
    <path
       style="opacity:0.5;fill:none;fill-opacity:1;stroke:#ffffff;stroke-width:1.00000024;stroke-miterlimit:4;stroke-opacity:1"
       d="M 29.5,20.59375 C 28.488762,20.699063 27.850577,20.9863 27.40625,21.40625 C 26.961923,21.8262 26.695785,22.399576 26.5625,23.15625 C 26.295929,24.669599 26.724448,26.888006 27.625,29.09375 C 28.525552,31.299494 29.853318,33.518217 31.21875,35.125 C 32.584182,36.731783 34.047656,37.59375 34.625,37.59375 C 35.065414,37.59375 35.396266,37.452251 35.75,37.125 C 36.103734,36.797749 36.436723,36.267837 36.71875,35.5625 C 37.282805,34.151825 37.566795,32.092358 37.53125,30 C 37.495705,27.907642 37.16426,25.762788 36.5625,24.125 C 35.96074,22.487212 35.097603,21.497403 34.375,21.28125 C 32.261511,20.64904 30.658881,20.473061 29.5,20.59375 z "
       id="path2259" />
    <path
       style="fill:#73d216;fill-opacity:1;stroke:#4e9a06;stroke-width:1.0000006;stroke-miterlimit:4;stroke-opacity:1"
       d="M 24.98559,40.707419 C 20.31754,40.707419 7.959768,29.343494 17.418553,22.824249 C 26.869109,16.310672 29.725145,40.707419 24.98559,40.707419 z "
       id="rect2201" />
    <path
       style="opacity:0.25;fill:none;fill-opacity:1;stroke:#ffffff;stroke-width:0.99999911;stroke-miterlimit:4;stroke-opacity:1"
       d="M 20.429472,22.564494 C 19.813992,22.53919 18.946491,22.754031 17.792299,23.48193 C 15.396153,24.993077 14.598274,26.486625 14.509287,28.117394 C 14.420299,29.74816 15.197952,31.630592 16.500622,33.380577 C 17.803294,35.130559 19.637587,36.743254 21.398232,37.871181 C 23.158877,38.999109 24.734359,39.505165 25.355011,39.505165 C 25.714095,39.505165 25.973542,38.578409 26.134382,37.774606 C 26.456061,36.166999 26.487926,33.806821 26.080561,31.449134 C 25.673198,29.091442 24.821426,26.682961 23.766308,25.027083 C 22.711189,23.371206 21.583796,22.611947 20.429472,22.564494 z "
       id="path2254" />
    <path
       style="opacity:0.25;fill:none;fill-opacity:1;stroke:#ffffff;stroke-width:1;stroke-miterlimit:4;stroke-opacity:1"
       d="M 38.290982,9.1309894 C 35.842841,9.5672523 32.283411,12.929344 29.603482,16.28724 C 27.08796,19.439138 25.478582,22.11333 25.259732,22.47474 L 28.572232,30.03724 C 34.665525,29.832673 38.559865,27.128092 38.853482,26.91224 C 39.014293,26.551466 40.549044,23.055678 41.478482,19.03724 C 41.967713,16.922043 42.260097,14.730906 42.072232,12.97474 C 41.884367,11.218574 41.30548,10.015388 40.103482,9.3809894 C 39.532517,9.0796416 38.992058,9.0060564 38.290982,9.1309894 z "
       id="path2245" />
    <path
       style="fill:url(#linearGradient1360);fill-opacity:1;stroke:#204a87;stroke-width:1.0000006;stroke-miterlimit:4;stroke-opacity:1"
       d="M 2.9244668,13.205506 C 5.4909473,8.9616426 31.868508,26.916697 20.798169,29.292473 C 9.7422309,31.665159 0.38413836,17.406122 2.9244668,13.205506 z "
       id="rect2197" />
    <path
       style="opacity:0.2;fill:none;fill-opacity:1;stroke:#ffffff;stroke-width:0.99999905;stroke-miterlimit:4;stroke-opacity:1"
       d="M 4.0077208,17.150417 C 4.6613048,18.933996 5.9435775,21.021975 7.6235197,22.895457 C 10.983405,26.64242 15.833733,29.401717 20.89796,28.310863 C 21.928379,28.088904 22.232928,27.802155 22.334374,27.651594 C 22.435813,27.501039 22.52111,27.289844 22.334374,26.709786 C 21.960899,25.54967 20.384396,23.482994 18.173725,21.529832 C 15.963059,19.576669 13.153701,17.6285 10.545878,16.161517 C 7.9380537,14.694536 5.1976761,13.680027 3.975949,13.563989 C 3.3254548,13.502207 3.3541371,15.366838 4.0077208,17.150417 z "
       id="path2249" />
    <path
       style="fill:url(#linearGradient1362);fill-opacity:1;stroke:#ce5d00;stroke-width:1.00000048;stroke-miterlimit:4;stroke-opacity:1"
       d="M 23.497613,20.84222 C 23.497613,20.84222 33.747199,3.7130144 39.940221,6.9816102 C 46.183621,10.276795 39.032218,26.044415 39.032218,26.044415 C 39.032218,26.044415 34.34592,29.558038 27.298467,29.558038 L 23.497613,20.84222 z "
       id="rect1317" />
    <path
       style="opacity:0.25;fill:none;fill-opacity:1;stroke:#ffffff;stroke-width:1.0000006;stroke-miterlimit:4;stroke-opacity:1"
       d="M 37.65625,7.5937494 C 35.207156,8.0301823 31.648755,11.392008 28.96875,14.75 C 26.453156,17.901987 24.843855,20.576081 24.625,20.9375 L 27.9375,28.5 C 34.029365,28.295478 37.922857,25.592475 38.21875,25.375 C 38.379566,25.014217 39.91427,21.518622 40.84375,17.5 C 41.333003,15.384706 41.625396,13.193957 41.4375,11.4375 C 41.249604,9.6810425 40.671312,8.4784456 39.46875,7.8437494 C 38.897466,7.5422332 38.357596,7.4687683 37.65625,7.5937494 z "
       id="path1328" />
    <path
       style="fill:#75507b;fill-opacity:1;stroke:#5c3566;stroke-width:1;stroke-miterlimit:4;stroke-opacity:1"
       d="M 25.75715,25.780775 C 27.420525,29.605605 28.313593,33.06003 27.750608,33.491546 C 27.187623,33.923061 25.380722,31.169067 23.717348,27.344236 C 22.053974,23.519407 21.160905,20.064982 21.72389,19.633467 C 22.286875,19.201951 24.093776,21.955945 25.75715,25.780775 z "
       id="path2192" />
  </g>
</svg>
