<?xml version="1.0" encoding="UTF-8" standalone="no"?>
<!-- Created with Inkscape (http://www.inkscape.org/) -->
<svg
   xmlns:dc="http://purl.org/dc/elements/1.1/"
   xmlns:cc="http://creativecommons.org/ns#"
   xmlns:rdf="http://www.w3.org/1999/02/22-rdf-syntax-ns#"
   xmlns:svg="http://www.w3.org/2000/svg"
   xmlns="http://www.w3.org/2000/svg"
   xmlns:xlink="http://www.w3.org/1999/xlink"
   xmlns:sodipodi="http://sodipodi.sourceforge.net/DTD/sodipodi-0.dtd"
   xmlns:inkscape="http://www.inkscape.org/namespaces/inkscape"
   width="48"
   height="48"
   id="svg2"
   sodipodi:version="0.32"
   inkscape:version="0.46"
   version="1.0"
   sodipodi:docbase="/home/hbons/Desktop/Gaim Refresh/protocols/48"
   sodipodi:docname="silc.svg"
   inkscape:export-filename="/home/hbons/Desktop/Gaim Refresh/silc.png"
   inkscape:export-xdpi="90"
   inkscape:export-ydpi="90"
   inkscape:output_extension="org.inkscape.output.svg.inkscape">
  <defs
     id="defs4">
    <linearGradient
       inkscape:collect="always"
       id="linearGradient2193">
      <stop
         style="stop-color:#ffffff;stop-opacity:1;"
         offset="0"
         id="stop2195" />
      <stop
         style="stop-color:#ffffff;stop-opacity:0;"
         offset="1"
         id="stop2197" />
    </linearGradient>
    <linearGradient
       inkscape:collect="always"
       id="linearGradient2222">
      <stop
         style="stop-color:#8ae234;stop-opacity:1;"
         offset="0"
         id="stop2224" />
      <stop
         style="stop-color:#8ae234;stop-opacity:0;"
         offset="1"
         id="stop2226" />
    </linearGradient>
    <linearGradient
       inkscape:collect="always"
       id="linearGradient3150">
      <stop
         style="stop-color:#2e3436;stop-opacity:1;"
         offset="0"
         id="stop3152" />
      <stop
         style="stop-color:#2e3436;stop-opacity:0;"
         offset="1"
         id="stop3154" />
    </linearGradient>
    <radialGradient
       inkscape:collect="always"
       xlink:href="#linearGradient3150"
       id="radialGradient3156"
       cx="10.748654"
       cy="10.457643"
       fx="10.748654"
       fy="10.457643"
       r="6.6449099"
       gradientTransform="matrix(-0.842757,5.698892e-16,-4.565819e-9,-0.35721,19.80716,14.19321)"
       gradientUnits="userSpaceOnUse" />
    <linearGradient
       inkscape:collect="always"
       xlink:href="#linearGradient2222"
       id="linearGradient1318"
       gradientUnits="userSpaceOnUse"
       gradientTransform="matrix(2.08567,0,0,1.999113,-1.709138,-1.492105)"
       x1="14.315197"
       y1="11.002394"
       x2="13.638538"
       y2="-28.749279" />
    <linearGradient
       inkscape:collect="always"
       xlink:href="#linearGradient2193"
       id="linearGradient2203"
       x1="20.834801"
       y1="17.936523"
       x2="26.154163"
       y2="21.007658"
       gradientUnits="userSpaceOnUse" />
  </defs>
  <sodipodi:namedview
     id="base"
     pagecolor="#ffffff"
     bordercolor="#666666"
     borderopacity="1.0"
     inkscape:pageopacity="0.0"
     inkscape:pageshadow="2"
     inkscape:zoom="13.788817"
     inkscape:cx="35.001851"
     inkscape:cy="20.952874"
     inkscape:document-units="px"
     inkscape:current-layer="layer1"
     showgrid="true"
     fill="#9db029"
     showguides="true"
     inkscape:guide-bbox="true"
     inkscape:window-width="1268"
     inkscape:window-height="971"
     inkscape:window-x="6"
     inkscape:window-y="21" />
  <metadata
     id="metadata7">
    <rdf:RDF>
      <cc:Work
         rdf:about="">
        <dc:format>image/svg+xml</dc:format>
        <dc:type
           rdf:resource="http://purl.org/dc/dcmitype/StillImage" />
      </cc:Work>
    </rdf:RDF>
  </metadata>
  <g
     inkscape:label="Layer 1"
     inkscape:groupmode="layer"
     id="layer1">
    <path
       sodipodi:type="arc"
       style="opacity:0.35;fill:url(#radialGradient3156);fill-opacity:1;stroke:none;stroke-width:1;stroke-miterlimit:4;stroke-dasharray:none;stroke-opacity:1"
       id="path3140"
       sodipodi:cx="10.748654"
       sodipodi:cy="10.457643"
       sodipodi:rx="6.6449099"
       sodipodi:ry="2.3675451"
       d="M 17.393564 10.457643 A 6.6449099 2.3675451 0 1 1  4.1037445,10.457643 A 6.6449099 2.3675451 0 1 1  17.393564 10.457643 z"
       transform="matrix(3.461296,0,0,2.111892,-13.20427,14.91459)" />
    <path
       style="opacity:1;fill:url(#linearGradient1318);fill-opacity:1;stroke:#4e9a06;stroke-width:0.99999911;stroke-miterlimit:4;stroke-dasharray:none;stroke-opacity:1"
       d="M 20.489949,11.011929 C 20.489949,11.915899 20.607326,27.829773 20.511631,29.556634 C 20.511631,29.556634 7.9604471,29.494161 7.7415566,29.494161 C 5.406724,29.494161 3.5050383,31.205765 3.5050383,33.545004 C 3.5050383,35.87227 5.406724,37.500189 7.7415566,37.500189 L 21.797683,37.500189 C 26.78121,37.500189 28.663439,35.244533 28.663439,32.002624 C 28.663439,31.098653 28.395875,13.209261 28.505671,11.511706 C 28.505671,11.511706 40.472455,11.511706 41.202093,11.511706 C 43.536926,11.511706 45.50004,9.6968193 45.50004,7.3652154 C 45.50004,5.7067176 43.536923,3.5056793 41.202093,3.5056793 L 26.642947,3.5056793 C 23.379817,3.5056793 20.489949,5.5738454 20.489949,11.011929 z "
       id="rect3167"
       sodipodi:nodetypes="ccssscscssscs" />
    <path
       sodipodi:type="inkscape:offset"
       inkscape:radius="-1.0564219"
       inkscape:original="M 26.65625 3.5 C 23.393121 3.4999999 20.5 5.5619164 20.5 11 C 20.500001 11.90397 20.595695 27.835639 20.5 29.5625 C 20.5 29.562499 7.9688905 29.5 7.75 29.5 C 5.4151674 29.499999 3.5 31.192011 3.5 33.53125 C 3.5 35.858514 5.4151674 37.5 7.75 37.5 L 21.8125 37.5 C 26.796026 37.499998 28.65625 35.241909 28.65625 32 C 28.65625 31.096028 28.390204 13.197555 28.5 11.5 C 28.5 11.5 40.457862 11.5 41.1875 11.5 C 43.522335 11.5 45.5 9.7066039 45.5 7.375 C 45.500002 5.7165023 43.52233 3.5 41.1875 3.5 L 26.65625 3.5 z "
       xlink:href="#rect3167"
       style="opacity:0.5;fill:url(#linearGradient2203);fill-opacity:1.0;stroke:#ffffff;stroke-width:0.99999964;stroke-miterlimit:4;stroke-dasharray:none;stroke-opacity:1"
       id="path1316"
       inkscape:href="#rect3167"
       d="M 26.65625,4.53125 C 25.249537,4.53125 24.032886,4.9412683 23.125,5.90625 C 22.217114,6.8712317 21.5625,8.4647612 21.5625,11 C 21.5625,11.415298 21.581781,15.655374 21.59375,19.96875 C 21.605719,24.282126 21.621325,28.562355 21.5625,29.625 C 21.532315,30.188634 21.064428,30.628998 20.5,30.625 C 20.5,30.625 17.347604,30.609375 14.1875,30.59375 C 11.027396,30.578125 7.758935,30.5625 7.75,30.5625 C 5.9336242,30.562499 4.5625,31.79623 4.5625,33.5625 C 4.5625,35.313821 5.8995405,36.4375 7.75,36.4375 L 21.78125,36.4375 C 24.114194,36.4375 25.537737,35.928156 26.375,35.1875 C 27.212263,34.446844 27.59375,33.417796 27.59375,32 C 27.59375,31.65099 27.521563,26.864091 27.46875,22.0625 C 27.442343,19.661704 27.415771,17.24736 27.40625,15.3125 C 27.396729,13.37764 27.400585,12.008829 27.4375,11.4375 C 27.467685,10.873866 27.935572,10.433502 28.5,10.4375 C 28.5,10.4375 40.457735,10.4375 41.1875,10.4375 C 42.9733,10.4375 44.4375,9.0816356 44.4375,7.34375 C 44.4375,6.9328186 44.123387,6.1347887 43.5,5.53125 C 42.876613,4.9277113 42.021185,4.53125 41.1875,4.53125 L 26.65625,4.53125 z " />
  </g>
</svg>
