<?xml version="1.0" encoding="UTF-8" standalone="no"?>
<!-- Created with Inkscape (http://www.inkscape.org/) -->

<svg
   xmlns:dc="http://purl.org/dc/elements/1.1/"
   xmlns:cc="http://creativecommons.org/ns#"
   xmlns:rdf="http://www.w3.org/1999/02/22-rdf-syntax-ns#"
   xmlns:svg="http://www.w3.org/2000/svg"
   xmlns="http://www.w3.org/2000/svg"
   xmlns:xlink="http://www.w3.org/1999/xlink"
   xmlns:sodipodi="http://sodipodi.sourceforge.net/DTD/sodipodi-0.dtd"
   xmlns:inkscape="http://www.inkscape.org/namespaces/inkscape"
   width="48px"
   height="48px"
   id="svg3299"
   version="1.1"
   inkscape:version="0.48.1 r9760"
   sodipodi:docname="Нов документ 9">
  <defs
     id="defs3301">
    <radialGradient
       cx="6.8339977"
       cy="18.245768"
       fx="6.8339977"
       fy="18.245768"
       gradientTransform="matrix(0.8248568,-0.0025088,4.1186836e-4,0.4615378,1.1894136,9.8231788)"
       gradientUnits="userSpaceOnUse"
       id="radialGradient6963"
       inkscape:collect="always"
       r="6.3620529"
       xlink:href="#linearGradient6957" />
    <linearGradient
       id="linearGradient6957"
       inkscape:collect="always">
      <stop
         id="stop6959"
         offset="0"
         style="stop-color:#000000;stop-opacity:1;" />
      <stop
         id="stop6961"
         offset="1"
         style="stop-color:#000000;stop-opacity:0;" />
    </linearGradient>
    <linearGradient
       gradientTransform="matrix(2.2166179,0,0,2.0917609,0.130786,2.3623591)"
       gradientUnits="userSpaceOnUse"
       id="linearGradient6874"
       inkscape:collect="always"
       x1="10.227501"
       x2="10.0904"
       xlink:href="#linearGradient6868"
       y1="11.714401"
       y2="0.99801207" />
    <linearGradient
       id="linearGradient6868"
       inkscape:collect="always">
      <stop
         id="stop6870"
         offset="0"
         style="stop-color:#787a73;stop-opacity:1" />
      <stop
         id="stop6872"
         offset="1"
         style="stop-color:#a6a7a5;stop-opacity:1" />
    </linearGradient>
    <linearGradient
       gradientTransform="matrix(2.2252954,0,0,2.0735335,0.02155706,2.7276043)"
       gradientUnits="userSpaceOnUse"
       id="linearGradient7003"
       inkscape:collect="always"
       x1="11.013494"
       x2="11.013494"
       xlink:href="#linearGradient6997"
       y1="5.9594917"
       y2="15.916803" />
    <linearGradient
       id="linearGradient6997"
       inkscape:collect="always">
      <stop
         id="stop6999"
         offset="0"
         style="stop-color:#ebedea;stop-opacity:1" />
      <stop
         id="stop7001"
         offset="1"
         style="stop-color:#ccd2c8;stop-opacity:1" />
    </linearGradient>
  </defs>
  <sodipodi:namedview
     id="base"
     pagecolor="#ffffff"
     bordercolor="#666666"
     borderopacity="1.0"
     inkscape:pageopacity="0.0"
     inkscape:pageshadow="2"
     inkscape:zoom="7.1777344"
     inkscape:cx="9.7563225"
     inkscape:cy="21.965897"
     inkscape:current-layer="layer1"
     showgrid="true"
     inkscape:grid-bbox="true"
     inkscape:document-units="px" />
  <metadata
     id="metadata3304">
    <rdf:RDF>
      <cc:Work
         rdf:about="">
        <dc:format>image/svg+xml</dc:format>
        <dc:type
           rdf:resource="http://purl.org/dc/dcmitype/StillImage" />
        <dc:title></dc:title>
      </cc:Work>
    </rdf:RDF>
  </metadata>
  <g
     id="layer1"
     inkscape:label="Layer 1"
     inkscape:groupmode="layer">
    <g
       id="g48"
       style="display:inline;enable-background:new"
       transform="translate(-1.4999997,-1.4999998)">
      <path
         d="m 13.197708,18.211184 c 0,1.621691 -2.848388,2.936332 -6.3620533,2.936332 -3.5136648,0 -6.36205288,-1.314641 -6.36205288,-2.936332 0,-1.621692 2.84838808,-2.936332 6.36205288,-2.936332 3.5136653,0 6.3620533,1.31464 6.3620533,2.936332 z"
         id="path6955"
         sodipodi:cx="6.8356547"
         sodipodi:cy="18.211184"
         sodipodi:rx="6.3620529"
         sodipodi:ry="2.936332"
         sodipodi:type="arc"
         style="opacity:0.19565214;fill:url(#radialGradient6963);fill-opacity:1;stroke:none"
         transform="matrix(2.2791386,0,0,0.8514024,9.9205951,28.994954)" />
      <path
         d="m 14.551581,30.640241 0,-17.628206 c 0,0 -0.572143,-7.5120346 9.904239,-7.5120346 10.476379,0 10.055489,7.5120346 10.055489,7.5120346 l 0,22.908937 c 0,0 -4.964724,8.356754 -8.462714,8.356754 -3.399033,0 -7.479702,-8.294888 -7.479702,-8.294888 l 0,-15.808665 c 0,0 -0.213597,-4.620546 5.173771,-4.620546 5.288419,0 4.747392,3.458153 4.747392,3.458153 l 0,9.611832"
         id="path4915"
         sodipodi:nodetypes="cczczzcczcc"
         style="fill:none;stroke:url(#linearGradient6874);stroke-width:3.00000048;stroke-linecap:round;stroke-linejoin:miter;stroke-miterlimit:4;stroke-opacity:1;stroke-dasharray:none"
         inkscape:connector-curvature="0" />
      <path
         d="m 14.546033,30.674974 0,-17.340476 c 0,0 -0.411744,-8.0519682 10.013269,-7.7993805 10.361867,0.2525877 9.954333,7.7993805 9.954333,7.7993805 l 0,22.629786 c 0,0 -4.515857,8.322214 -8.152454,8.322214 -3.537579,0 -7.778067,-8.256745 -7.778067,-8.256745 l 0,-15.61603 c 0,0 0.336665,-4.915687 5.244919,-4.852175 4.971939,0.06351 4.678629,3.754323 4.678629,3.754323 l 0,9.143219"
         id="path5904"
         sodipodi:nodetypes="cczcczcczcc"
         style="fill:none;stroke:url(#linearGradient7003);stroke-width:0.99999988;stroke-linecap:round;stroke-linejoin:miter;stroke-miterlimit:4;stroke-opacity:1;stroke-dasharray:none"
         inkscape:connector-curvature="0" />
      <path
         d="m 34.475963,14.117229 0,14.563676"
         id="path5909"
         style="opacity:0.58695649;fill:none;stroke:#ffffff;stroke-width:0.99999982px;stroke-linecap:round;stroke-linejoin:miter;stroke-opacity:1"
         inkscape:connector-curvature="0" />
      <path
         d="m 18.499999,24.352423 0,10.743698"
         id="path5911"
         style="opacity:0.58695649;fill:none;stroke:#ffffff;stroke-width:1px;stroke-linecap:round;stroke-linejoin:miter;stroke-opacity:1"
         inkscape:connector-curvature="0" />
      <path
         d="m 18.485771,14.989696 c 0,0.789133 -0.769662,1.428851 -1.719087,1.428851 -0.949426,0 -1.719088,-0.639718 -1.719088,-1.428851 0,-0.789134 0.769662,-1.428852 1.719088,-1.428852 0.949425,0 1.719087,0.639718 1.719087,1.428852 z"
         id="path5913"
         sodipodi:cx="16.766684"
         sodipodi:cy="14.989696"
         sodipodi:rx="1.7190874"
         sodipodi:ry="1.4288518"
         sodipodi:type="arc"
         style="opacity:0.58695649;fill:#ffffff;fill-opacity:1;stroke:none"
         transform="matrix(0.2908521,0,0,0.3499312,29.623374,20.254638)" />
      <path
         d="m 18.485771,14.989696 c 0,0.789133 -0.769662,1.428851 -1.719087,1.428851 -0.949426,0 -1.719088,-0.639718 -1.719088,-1.428851 0,-0.789134 0.769662,-1.428852 1.719088,-1.428852 0.949425,0 1.719087,0.639718 1.719087,1.428852 z"
         id="path5915"
         sodipodi:cx="16.766684"
         sodipodi:cy="14.989696"
         sodipodi:rx="1.7190874"
         sodipodi:ry="1.4288518"
         sodipodi:type="arc"
         style="opacity:0.58695649;fill:#ffffff;fill-opacity:1;stroke:none"
         transform="matrix(0.290852,0,0,0.3499314,13.623376,22.254635)" />
    </g>
  </g>
</svg>
