<?xml version="1.0" encoding="UTF-8" standalone="no"?>
<!-- Created with Inkscape (http://www.inkscape.org/) -->

<svg
   xmlns:dc="http://purl.org/dc/elements/1.1/"
   xmlns:cc="http://creativecommons.org/ns#"
   xmlns:rdf="http://www.w3.org/1999/02/22-rdf-syntax-ns#"
   xmlns:svg="http://www.w3.org/2000/svg"
   xmlns="http://www.w3.org/2000/svg"
   xmlns:xlink="http://www.w3.org/1999/xlink"
   xmlns:sodipodi="http://sodipodi.sourceforge.net/DTD/sodipodi-0.dtd"
   xmlns:inkscape="http://www.inkscape.org/namespaces/inkscape"
   id="svg4252"
   height="22"
   width="22"
   version="1.0"
   inkscape:version="0.48.1 r9760"
   sodipodi:docname="grip.svg">
  <metadata
     id="metadata75">
    <rdf:RDF>
      <cc:Work
         rdf:about="">
        <dc:format>image/svg+xml</dc:format>
        <dc:type
           rdf:resource="http://purl.org/dc/dcmitype/StillImage" />
      </cc:Work>
    </rdf:RDF>
  </metadata>
  <sodipodi:namedview
     pagecolor="#ffffff"
     bordercolor="#666666"
     borderopacity="1"
     objecttolerance="10"
     gridtolerance="10"
     guidetolerance="10"
     inkscape:pageopacity="0"
     inkscape:pageshadow="2"
     inkscape:window-width="1366"
     inkscape:window-height="690"
     id="namedview73"
     showgrid="false"
     inkscape:zoom="6.5"
     inkscape:cx="3.3076923"
     inkscape:cy="25.461538"
     inkscape:window-x="0"
     inkscape:window-y="24"
     inkscape:window-maximized="1"
     inkscape:current-layer="svg4252" />
  <defs
     id="defs4254">
    <radialGradient
       id="radialGradient3234"
       gradientUnits="userSpaceOnUse"
       cy="19.031"
       cx="11.25"
       gradientTransform="matrix(1,0,0,0.28295,0,13.646)"
       r="8.0625">
      <stop
         id="stop2487"
         style="stop-color:#0d0d0d"
         offset="0" />
      <stop
         id="stop2489"
         style="stop-color:#0d0d0d;stop-opacity:0"
         offset="1" />
    </radialGradient>
    <radialGradient
       id="radialGradient4137"
       gradientUnits="userSpaceOnUse"
       cy="41.636002"
       cx="23.334999"
       gradientTransform="matrix(0.97227,0,0,0.28724,1.3125,27.541)"
       r="22.627001">
      <stop
         id="stop23421"
         offset="0" />
      <stop
         id="stop23423"
         style="stop-opacity:0"
         offset="1" />
    </radialGradient>
    <linearGradient
       id="linearGradient4134"
       y2="45.033001"
       gradientUnits="userSpaceOnUse"
       x2="-21.916"
       gradientTransform="translate(50.265,0)"
       y1="3"
       x1="-21.916">
      <stop
         id="stop3774"
         style="stop-color:#b4b4b4"
         offset="0" />
      <stop
         id="stop3776"
         style="stop-color:#969696"
         offset="1" />
    </linearGradient>
    <linearGradient
       id="linearGradient4132"
       y2="14.203"
       gradientUnits="userSpaceOnUse"
       x2="35.390999"
       gradientTransform="matrix(0,1.1714,-1.1714,0,51.06,-4.1145)"
       y1="32.416"
       x1="12.274">
      <stop
         id="stop3265"
         style="stop-color:#dedbde"
         offset="0" />
      <stop
         id="stop3267"
         style="stop-color:#e6e6e6"
         offset=".5" />
      <stop
         id="stop3269"
         style="stop-color:#d2d2d2"
         offset="1" />
    </linearGradient>
    <linearGradient
       id="linearGradient4128"
       y2="32.508999"
       gradientUnits="userSpaceOnUse"
       x2="21.448"
       gradientTransform="matrix(0.9375,0,0,0.9375,1.5,1.5)"
       y1="15.5"
       x1="21.448">
      <stop
         id="stop3430"
         style="stop-color:#aaa"
         offset="0" />
      <stop
         id="stop3432"
         style="stop-color:#d4d4d4"
         offset="1" />
    </linearGradient>
    <linearGradient
       id="linearGradient4125"
       y2="45.962002"
       xlink:href="#linearGradient6036"
       gradientUnits="userSpaceOnUse"
       x2="18.202999"
       gradientTransform="matrix(0.42934,0,0,0.42934,13.547,13.266)"
       y1="4.0377998"
       x1="18.775999" />
    <linearGradient
       id="linearGradient4095"
       y2="20.613001"
       xlink:href="#linearGradient3519"
       spreadMethod="reflect"
       gradientUnits="userSpaceOnUse"
       x2="9.7298002"
       y1="17.886"
       x1="10.609" />
    <linearGradient
       id="linearGradient4093"
       y2="13.462"
       xlink:href="#linearGradient3511"
       spreadMethod="reflect"
       gradientUnits="userSpaceOnUse"
       x2="14.609"
       y1="16.188"
       x1="12.372" />
    <linearGradient
       id="linearGradient4091"
       y2="10.732"
       xlink:href="#linearGradient3503"
       spreadMethod="reflect"
       gradientUnits="userSpaceOnUse"
       x2="16.993999"
       y1="13.046"
       x1="14.085" />
    <linearGradient
       id="linearGradient4089"
       y2="9.7955999"
       xlink:href="#linearGradient3495"
       spreadMethod="reflect"
       gradientUnits="userSpaceOnUse"
       x2="21.047001"
       y1="11.2"
       x1="17.495001" />
    <linearGradient
       id="linearGradient4087"
       y2="9.8621998"
       xlink:href="#linearGradient3487"
       spreadMethod="reflect"
       gradientUnits="userSpaceOnUse"
       x2="24.274"
       y1="10.775"
       x1="20.58" />
    <linearGradient
       id="linearGradient6036">
      <stop
         id="stop6038"
         style="stop-color:#fff"
         offset="0" />
      <stop
         id="stop6040"
         style="stop-color:#fff;stop-opacity:0"
         offset="1" />
    </linearGradient>
    <linearGradient
       id="linearGradient4116"
       y2="54.698002"
       xlink:href="#linearGradient6036"
       gradientUnits="userSpaceOnUse"
       x2="48.799"
       gradientTransform="matrix(0.98497,0,0,0.98497,0.019022,-0.62415)"
       y1="3.6099999"
       x1="10.502" />
    <linearGradient
       id="linearGradient3519">
      <stop
         id="stop3521"
         style="stop-color:#fcd9cd"
         offset="0" />
      <stop
         id="stop3523"
         style="stop-color:#fcd9cd;stop-opacity:0"
         offset="1" />
    </linearGradient>
    <linearGradient
       id="linearGradient3511">
      <stop
         id="stop3513"
         style="stop-color:#ebeec7"
         offset="0" />
      <stop
         id="stop3515"
         style="stop-color:#ebeec7;stop-opacity:0"
         offset="1" />
    </linearGradient>
    <linearGradient
       id="linearGradient3503">
      <stop
         id="stop3505"
         style="stop-color:#c4ebdd"
         offset="0" />
      <stop
         id="stop3507"
         style="stop-color:#c4ebdd;stop-opacity:0"
         offset="1" />
    </linearGradient>
    <linearGradient
       id="linearGradient3495">
      <stop
         id="stop3497"
         style="stop-color:#c1cbe4"
         offset="0" />
      <stop
         id="stop3499"
         style="stop-color:#c1cbe4;stop-opacity:0"
         offset="1" />
    </linearGradient>
    <linearGradient
       id="linearGradient3487">
      <stop
         id="stop3489"
         style="stop-color:#e6cde2"
         offset="0" />
      <stop
         id="stop3491"
         style="stop-color:#e6cde2;stop-opacity:0"
         offset="1" />
    </linearGradient>
    <linearGradient
       id="linearGradient3231"
       y2="20.709999"
       gradientUnits="userSpaceOnUse"
       x2="0.81572002"
       gradientTransform="matrix(0,-0.49175,-0.48237,0,47.524,46.408)"
       y1="20.709999"
       x1="28.315001">
      <stop
         id="stop2266"
         style="stop-color:#d7e866"
         offset="0" />
      <stop
         id="stop2268"
         style="stop-color:#8cab2a"
         offset="1" />
    </linearGradient>
    <linearGradient
       id="linearGradient3228"
       y2="25.410999"
       gradientUnits="userSpaceOnUse"
       x2="57.726002"
       gradientTransform="matrix(0,0.57034,-0.55687,0,50.661,21.134)"
       y1="25.410999"
       x1="13.472">
      <stop
         id="stop4224"
         style="stop-color:#fff"
         offset="0" />
      <stop
         id="stop4226"
         style="stop-color:#fff;stop-opacity:0"
         offset="1" />
    </linearGradient>
    <linearGradient
       inkscape:collect="always"
       xlink:href="#linearGradient3487"
       id="linearGradient3052"
       gradientUnits="userSpaceOnUse"
       spreadMethod="reflect"
       x1="20.58"
       y1="10.775"
       x2="24.274"
       y2="9.8621998" />
    <linearGradient
       inkscape:collect="always"
       xlink:href="#linearGradient3495"
       id="linearGradient3054"
       gradientUnits="userSpaceOnUse"
       spreadMethod="reflect"
       x1="17.495001"
       y1="11.2"
       x2="21.047001"
       y2="9.7955999" />
    <linearGradient
       inkscape:collect="always"
       xlink:href="#linearGradient3503"
       id="linearGradient3056"
       gradientUnits="userSpaceOnUse"
       spreadMethod="reflect"
       x1="14.085"
       y1="13.046"
       x2="16.993999"
       y2="10.732" />
    <linearGradient
       inkscape:collect="always"
       xlink:href="#linearGradient3511"
       id="linearGradient3058"
       gradientUnits="userSpaceOnUse"
       spreadMethod="reflect"
       x1="12.372"
       y1="16.188"
       x2="14.609"
       y2="13.462" />
    <linearGradient
       inkscape:collect="always"
       xlink:href="#linearGradient3519"
       id="linearGradient3060"
       gradientUnits="userSpaceOnUse"
       spreadMethod="reflect"
       x1="10.609"
       y1="17.886"
       x2="9.7298002"
       y2="20.613001" />
  </defs>
  <g
     id="layer1"
     transform="matrix(0.40909091,0,0,0.40909091,1.1818182,0.76383834)">
    <path
       id="path4346"
       style="opacity:0.16292001;fill:url(#radialGradient3234)"
       d="m 19.312,19.031 a 8.0625,2.2812 0 1 1 -16.124,0 8.0625,2.2812 0 1 1 16.124,0 z"
       transform="matrix(1.1163,0,0,1.7534,23.442,9.6301)"
       inkscape:connector-curvature="0" />
    <path
       id="path23417"
       style="opacity:0.3;fill:url(#radialGradient4137);fill-rule:evenodd"
       d="M 46,39.5 C 46.001,43.09 36.151,46 24,46 11.849,46 1.999,43.09 2,39.5 1.9989,35.91 11.849,33 24,33 c 12.151,0 22.001,2.91 22,6.5 z"
       inkscape:connector-curvature="0" />
    <path
       id="path2781"
       style="fill:url(#linearGradient4132);stroke:url(#linearGradient4134)"
       d="M 44.5,24 C 44.5,12.637 35.363,3.5 24,3.5 12.637,3.5 3.5,12.637 3.5,24 3.5,35.363 12.637,44.5 24,44.5 35.363,44.5 44.5,35.363 44.5,24 z m -13,0 c 0,4.128 -3.289,7.5 -7.5,7.5 -4.293,0 -7.5,-3.455 -7.5,-7.5 0,-4.127 3.041,-7.5 7.5,-7.5 4.459,0 7.5,3.454 7.5,7.5 z"
       inkscape:connector-curvature="0" />
    <path
       id="path2474"
       style="opacity:0.5;fill:#ffffff"
       d="m 24,16 c -4.416,0 -8,3.584 -8,8 0,4.416 3.584,8 8,8 4.416,0 8,-3.584 8,-8 0,-4.416 -3.584,-8 -8,-8 z m 0,4 c 2.208,0 4,1.792 4,4 0,2.208 -1.792,4 -4,4 -2.208,0 -4,-1.792 -4,-4 0,-2.208 1.792,-4 4,-4 z"
       inkscape:connector-curvature="0" />
    <path
       id="path3418"
       style="fill:none;stroke:url(#linearGradient4128);stroke-linejoin:round"
       d="m 24,16.5 c -4.14,0 -7.5,3.36 -7.5,7.5 0,4.14 3.36,7.5 7.5,7.5 4.14,0 7.5,-3.36 7.5,-7.5 0,-4.14 -3.36,-7.5 -7.5,-7.5 z m 0,3.75 c 2.07,0 3.75,1.68 3.75,3.75 0,2.07 -1.68,3.75 -3.75,3.75 -2.07,0 -3.75,-1.68 -3.75,-3.75 0,-2.07 1.68,-3.75 3.75,-3.75 z"
       inkscape:connector-curvature="0" />
    <path
       id="path3281"
       style="opacity:0.8;fill:none;stroke:url(#linearGradient4125)"
       d="m 24,15.5 c -4.711,0 -8.5,3.789 -8.5,8.5 0,4.711 3.789,8.5 8.5,8.5 4.711,0 8.5,-3.789 8.5,-8.5 0,-4.711 -3.789,-8.5 -8.5,-8.5 z"
       inkscape:connector-curvature="0" />
    <g
       id="g3527">
      <path
         id="path3296"
         style="opacity:0.8;fill:url(#linearGradient3052)"
         d="m 15.857,5.7308 4.768,10.613 c 1.035,-0.459 2.17,-0.719 3.375,-0.719 h 0.094 l 0.014,-11.62 c -2.942,-0.0709 -5.543,0.657 -8.251,1.7258 z"
         transform="matrix(0.9996,0.028243,-0.028243,0.9996,0.69241,-0.67083)"
         inkscape:connector-curvature="0" />
      <path
         id="path3308"
         style="opacity:0.8;fill:url(#linearGradient3054)"
         d="m 12.121,7.906 6.931,9.36 c 0.914,-0.67 1.966,-1.167 3.143,-1.425 0.031,-0.007 0.06,-0.014 0.092,-0.02 L 19.857,4.426 c -2.889,0.5616 -5.319,1.8559 -7.736,3.48 z"
         inkscape:connector-curvature="0" />
      <path
         id="path3310"
         style="opacity:0.8;fill:url(#linearGradient3056)"
         d="m 8.2524,11.647 9.2136,7.155 c 0.709,-0.883 1.597,-1.636 2.667,-2.19 0.028,-0.014 0.054,-0.028 0.083,-0.043 L 14.866,6.251 c -2.645,1.2895 -4.7,3.2014 -6.6136,5.396 z"
         inkscape:connector-curvature="0" />
      <path
         id="path3312"
         style="opacity:0.8;fill:url(#linearGradient3058)"
         d="m 5.6329,16.074 c 7.1751,2.242 7.8501,7.031 12.777,1.754 l -7.91,-8.6959 C 8.2786,11.063 6.9132,13.459 5.6328,16.074 z"
         inkscape:connector-curvature="0" />
      <path
         id="path3314"
         style="opacity:0.8;fill:url(#linearGradient3060)"
         d="M 7.1553,13.193 C 5.9722,14.945 5.2476,16.83 4.6302,18.837 l 11.339,2.975 c 0.215,-0.763 0.518,-1.514 0.969,-2.218 0.017,-0.027 0.044,-0.067 0.062,-0.094 L 7.1555,13.193 z"
         inkscape:connector-curvature="0" />
    </g>
    <path
       id="path3272"
       style="opacity:0.5;fill:none;stroke:url(#linearGradient4116)"
       d="M 24,4.5 C 13.191,4.5 4.5,13.191 4.5,24 4.5,34.809 13.191,43.5 24,43.5 34.809,43.5 43.5,34.809 43.5,24 43.5,13.191 34.809,4.5 24,4.5 z"
       inkscape:connector-curvature="0" />
    <g
       id="g3297"
       transform="matrix(-1,0,0,-1,48,47.991)">
      <path
         id="path3299"
         style="opacity:0.8;fill:url(#linearGradient4087)"
         d="m 15.857,5.7308 4.768,10.613 c 1.035,-0.459 2.17,-0.719 3.375,-0.719 h 0.094 l 0.014,-11.62 c -2.942,-0.0709 -5.543,0.657 -8.251,1.7258 z"
         transform="matrix(0.9996,0.028243,-0.028243,0.9996,0.69241,-0.67083)"
         inkscape:connector-curvature="0" />
      <path
         id="path3301"
         style="opacity:0.8;fill:url(#linearGradient4089)"
         d="m 12.121,7.906 6.931,9.36 c 0.914,-0.67 1.966,-1.167 3.143,-1.425 0.031,-0.007 0.06,-0.014 0.092,-0.02 L 19.857,4.426 c -2.889,0.5616 -5.319,1.8559 -7.736,3.48 z"
         inkscape:connector-curvature="0" />
      <path
         id="path3303"
         style="opacity:0.8;fill:url(#linearGradient4091)"
         d="m 8.2524,11.647 9.2136,7.155 c 0.709,-0.883 1.597,-1.636 2.667,-2.19 0.028,-0.014 0.054,-0.028 0.083,-0.043 L 14.866,6.251 c -2.645,1.2895 -4.7,3.2014 -6.6136,5.396 z"
         inkscape:connector-curvature="0" />
      <path
         id="path3305"
         style="opacity:0.8;fill:url(#linearGradient4093)"
         d="m 5.6329,16.074 c 7.1751,2.242 7.8501,7.031 12.777,1.754 l -7.91,-8.6959 C 8.2786,11.063 6.9132,13.459 5.6328,16.074 z"
         inkscape:connector-curvature="0" />
      <path
         id="path3307"
         style="opacity:0.8;fill:url(#linearGradient4095)"
         d="M 7.1553,13.193 C 5.9722,14.945 5.2476,16.83 4.6302,18.837 l 11.339,2.975 c 0.215,-0.763 0.518,-1.514 0.969,-2.218 0.017,-0.027 0.044,-0.067 0.062,-0.094 L 7.1555,13.193 z"
         inkscape:connector-curvature="0" />
    </g>
    <path
       id="path3288"
       style="fill:url(#linearGradient3231);stroke:#699536;stroke-width:0.98543;stroke-linecap:round;stroke-linejoin:round"
       d="M 45.507,34.5 35.976,45.507 26.493,34.5 H 30.5 v -9.007 h 11 V 34.5 h 4.007 z"
       inkscape:connector-curvature="0" />
    <path
       id="path3290"
       style="opacity:0.35400002;fill:none;stroke:url(#linearGradient3228);stroke-width:0.98543"
       d="M 43.387,35.5 36,44.032 28.662,35.5 H 31.5 v -9 h 9 v 9 h 2.887 z"
       inkscape:connector-curvature="0" />
  </g>
</svg>
