<?xml version="1.0" encoding="UTF-8" standalone="no"?>
<!-- Created with Inkscape (http://www.inkscape.org/) -->

<svg
   xmlns:dc="http://purl.org/dc/elements/1.1/"
   xmlns:cc="http://creativecommons.org/ns#"
   xmlns:rdf="http://www.w3.org/1999/02/22-rdf-syntax-ns#"
   xmlns:svg="http://www.w3.org/2000/svg"
   xmlns="http://www.w3.org/2000/svg"
   xmlns:sodipodi="http://sodipodi.sourceforge.net/DTD/sodipodi-0.dtd"
   xmlns:inkscape="http://www.inkscape.org/namespaces/inkscape"
   version="1.1"
   width="24"
   height="24"
   id="svg2"
   inkscape:version="0.48.1 r9760"
   sodipodi:docname="indicator-displex.svg">
  <metadata
     id="metadata87">
    <rdf:RDF>
      <cc:Work
         rdf:about="">
        <dc:format>image/svg+xml</dc:format>
        <dc:type
           rdf:resource="http://purl.org/dc/dcmitype/StillImage" />
        <dc:title />
      </cc:Work>
    </rdf:RDF>
  </metadata>
  <sodipodi:namedview
     pagecolor="#ffffff"
     bordercolor="#666666"
     borderopacity="1"
     objecttolerance="10"
     gridtolerance="10"
     guidetolerance="10"
     inkscape:pageopacity="0"
     inkscape:pageshadow="2"
     inkscape:window-width="1024"
     inkscape:window-height="569"
     id="namedview85"
     showgrid="false"
     inkscape:zoom="16.406249"
     inkscape:cx="5.8298519"
     inkscape:cy="9.077627"
     inkscape:window-x="0"
     inkscape:window-y="2"
     inkscape:window-maximized="1"
     inkscape:current-layer="svg2"
     showguides="true"
     inkscape:guide-bbox="true" />
  <defs
     id="defs4" />
  <g
     id="layer1"
     transform="translate(-288,-116)">
    <g
       id="g3846"
       transform="matrix(1.157901,0,0,1.157901,-46.527761,-20.564818)"
       style="fill:#000000;fill-opacity:1">
      <path
         sodipodi:nodetypes="csssss"
         id="path3673"
         d="m 292.38702,118.88143 c -5.98788,8.38715 4.70414,12.06599 4.60157,11.91016 -3.351,-5.09082 -0.44167,-10.08382 2.301,-11.94229 0.14008,-0.0949 -0.25204,-0.044 -0.76217,-0.0534 -0.52237,-0.01 -1.18154,0.009 -1.70164,0.007 -1.90458,-0.009 -4.34192,-0.0569 -4.43876,0.0787 z"
         style="fill:#000000;fill-opacity:1;stroke:none"
         inkscape:connector-curvature="0" />
      <path
         sodipodi:nodetypes="csssss"
         id="use3698"
         d="m 306.15767,137.72912 c 5.98788,-8.38714 -4.70413,-12.06598 -4.60156,-11.91015 3.35099,5.09081 0.44167,10.08381 -2.30101,11.94229 -0.14008,0.0949 0.25205,0.044 0.76218,0.0534 0.52237,0.01 1.18153,-0.009 1.70164,-0.007 1.90458,0.009 4.34192,0.0569 4.43875,-0.0787 z"
         style="fill:#000000;fill-opacity:1;stroke:none"
         inkscape:connector-curvature="0" />
      <path
         inkscape:transform-center-y="-0.71757281"
         inkscape:transform-center-x="-0.64119026"
         sodipodi:open="true"
         sodipodi:end="12.121867"
         sodipodi:start="5.8443874"
         transform="matrix(0.496784,-0.86469941,0.64268922,0.46780928,285.21648,132.31265)"
         d="m 13.562261,11.316221 c 0.451081,1.690302 0.03759,3.703644 -0.923565,4.496924 -0.961152,0.79328 -2.105993,0.0661 -2.557074,-1.624201 -0.4510815,-1.690302 -0.03759,-3.703643 0.923565,-4.4969239 0.957277,-0.7900818 2.097669,-0.072189 2.552386,1.6067619"
         sodipodi:ry="3.3808544"
         sodipodi:rx="1.9224466"
         sodipodi:cy="12.752583"
         sodipodi:cx="11.821941"
         id="path3704"
         style="fill:#000000;fill-opacity:1;stroke:none"
         sodipodi:type="arc" />
    </g>
    <path
       inkscape:connector-curvature="0"
       style="opacity:1;color:#000000;fill:none;stroke:#000000;stroke-width:0.99999994000000003;stroke-linecap:round;stroke-linejoin:miter;stroke-miterlimit:4;stroke-opacity:1;stroke-dasharray:none;stroke-dashoffset:0;marker:none;visibility:visible;display:inline;overflow:visible;enable-background:accumulate"
       id="rect2430"
       d="m 293,119.49723 14,0 c 0.831,0 1.5,0.669 1.5,1.5 l 0,10 c 0,0.831 -0.669,1.5 -1.5,1.5 l -14,0 c -0.831,0 -1.5,-0.669 -1.5,-1.5 l 0,-10 c 0,-0.831 0.669,-1.5 1.5,-1.5 z m 5,13 c -0.6003,-0.0154 -1.25929,0.50954 -1.39071,1 -0.5487,0.01 -1.04705,-0.0788 -1.50468,0.29942 -0.72394,0.50441 -0.80973,1.65679 -0.16345,2.25942 0.3633,0.39575 0.91465,0.46995 1.42284,0.44116 2.57091,-0.001 5.14189,0.003 7.71276,-0.002 0.91133,-0.0192 1.63384,-0.99418 1.37572,-1.87129 -0.17071,-0.71759 -0.86055,-1.12671 -1.96285,-1.12671 0.008,-0.5 -1.17114,-1.0584 -1.59363,-1 -1.29867,0 -2.59733,0 -3.896,0 z" />
  </g>
</svg>
