<?xml version="1.0" encoding="UTF-8" standalone="no"?>
<!-- Created with Inkscape (http://www.inkscape.org/) -->

<svg
   xmlns:dc="http://purl.org/dc/elements/1.1/"
   xmlns:cc="http://creativecommons.org/ns#"
   xmlns:rdf="http://www.w3.org/1999/02/22-rdf-syntax-ns#"
   xmlns:svg="http://www.w3.org/2000/svg"
   xmlns="http://www.w3.org/2000/svg"
   xmlns:xlink="http://www.w3.org/1999/xlink"
   xmlns:sodipodi="http://sodipodi.sourceforge.net/DTD/sodipodi-0.dtd"
   xmlns:inkscape="http://www.inkscape.org/namespaces/inkscape"
   id="svg2"
   height="24"
   width="24"
   version="1.0"
   inkscape:version="0.48.1 r9760"
   sodipodi:docname="locked.svg">
  <metadata
     id="metadata50">
    <rdf:RDF>
      <cc:Work
         rdf:about="">
        <dc:format>image/svg+xml</dc:format>
        <dc:type
           rdf:resource="http://purl.org/dc/dcmitype/StillImage" />
        <dc:title></dc:title>
      </cc:Work>
    </rdf:RDF>
  </metadata>
  <sodipodi:namedview
     pagecolor="#ffffff"
     bordercolor="#666666"
     borderopacity="1"
     objecttolerance="10"
     gridtolerance="10"
     guidetolerance="10"
     inkscape:pageopacity="0"
     inkscape:pageshadow="2"
     inkscape:window-width="640"
     inkscape:window-height="480"
     id="namedview48"
     showgrid="false"
     inkscape:zoom="15.555847"
     inkscape:cx="-1.863997"
     inkscape:cy="11.583536"
     inkscape:current-layer="svg2" />
  <defs
     id="defs4">
    <linearGradient
       id="linearGradient2576"
       y2="32.161999"
       gradientUnits="userSpaceOnUse"
       x2="40.938"
       gradientTransform="matrix(0.4858,0,0,0.56676,-0.65766,-4.7558)"
       y1="32.161999"
       x1="6.7268">
      <stop
         id="stop2413"
         style="stop-color:#fee7b1"
         offset="0" />
      <stop
         id="stop2419"
         style="stop-color:#ebd4b4"
         offset=".25797" />
      <stop
         id="stop2421"
         style="stop-color:#c8a775"
         offset=".50797" />
      <stop
         id="stop2423"
         style="stop-color:#b0935b"
         offset=".74010" />
      <stop
         id="stop2415"
         style="stop-color:#fcebbf"
         offset="1" />
    </linearGradient>
    <linearGradient
       id="linearGradient2573"
       y2="36.126999"
       gradientUnits="userSpaceOnUse"
       x2="30.875"
       gradientTransform="matrix(0.45413,0,0,0.50788,0.10759,-1.9931)"
       y1="25.002001"
       x1="10.907">
      <stop
         id="stop9847"
         style="stop-color:#fff"
         offset="0" />
      <stop
         id="stop9849"
         style="stop-color:#fff;stop-opacity:.49485"
         offset="1" />
    </linearGradient>
    <linearGradient
       id="linearGradient2570"
       y2="17"
       gradientUnits="userSpaceOnUse"
       x2="24.75"
       gradientTransform="matrix(0.47059,0,0,0.80748,-0.29408,-6.1887)"
       y1="21"
       x1="24.875">
      <stop
         id="stop5883"
         style="stop-color:#d6c8a7"
         offset="0" />
      <stop
         id="stop5885"
         style="stop-color:#d0bd99"
         offset="1" />
    </linearGradient>
    <linearGradient
       id="linearGradient2567"
       y2="18.038"
       gradientUnits="userSpaceOnUse"
       x2="21.941999"
       gradientTransform="matrix(0.45455,0,0,0.25159,0.090945,5.0971)"
       y1="21.551001"
       x1="21.941999">
      <stop
         id="stop12073"
         style="stop-color:#fff"
         offset="0" />
      <stop
         id="stop12075"
         style="stop-color:#fff;stop-opacity:0"
         offset="1" />
    </linearGradient>
    <filter
       id="filter5957"
       height="1.1647"
       width="1.9881999"
       color-interpolation-filters="sRGB"
       y="-0.082353003"
       x="-0.49412">
      <feGaussianBlur
         id="feGaussianBlur5959"
         stdDeviation="0.69878785" />
    </filter>
    <radialGradient
       id="radialGradient2563"
       xlink:href="#linearGradient6075"
       gradientUnits="userSpaceOnUse"
       cy="20.312"
       cx="15.938"
       gradientTransform="matrix(0.75472,0,0,0.35667,-5.5283,1.0326)"
       r="3.3125" />
    <linearGradient
       id="linearGradient6075">
      <stop
         id="stop6077"
         offset="0" />
      <stop
         id="stop6079"
         style="stop-opacity:0"
         offset="1" />
    </linearGradient>
    <radialGradient
       id="radialGradient2560"
       xlink:href="#linearGradient6075"
       gradientUnits="userSpaceOnUse"
       cy="20.312"
       cx="15.938"
       gradientTransform="matrix(0.75472,0,0,0.35667,3.4717,1.0326)"
       r="3.3125" />
    <linearGradient
       id="linearGradient2557"
       y2="17.469999"
       gradientUnits="userSpaceOnUse"
       x2="27.191999"
       gradientTransform="matrix(0.40937,0,0,0.44567,1.1465,-1.6796)"
       y1="2.9137001"
       x1="10.651">
      <stop
         id="stop10593"
         style="stop-color:#cad0c6"
         offset="0" />
      <stop
         id="stop10599"
         style="stop-color:#eaece9"
         offset=".5" />
      <stop
         id="stop10595"
         style="stop-color:#c5cbc0"
         offset="1" />
    </linearGradient>
    <linearGradient
       id="linearGradient2580"
       y2="14.85"
       xlink:href="#linearGradient6075"
       gradientUnits="userSpaceOnUse"
       x2="33.004002"
       gradientTransform="translate(1.6824,1.125)"
       y1="14.85"
       x1="35.005001" />
    <filter
       id="filter6251"
       height="1.0951999"
       width="1.4849"
       color-interpolation-filters="sRGB"
       y="-0.047579002"
       x="-0.24243">
      <feGaussianBlur
         id="feGaussianBlur6253"
         stdDeviation="0.24444548" />
    </filter>
    <linearGradient
       id="linearGradient2578"
       y2="13.789"
       xlink:href="#linearGradient6075"
       gradientUnits="userSpaceOnUse"
       x2="35.021"
       gradientTransform="translate(-19.533,1.7437)"
       y1="13.789"
       x1="32.127998" />
    <filter
       id="filter5745"
       color-interpolation-filters="sRGB">
      <feGaussianBlur
         id="feGaussianBlur5747"
         stdDeviation="0.8362597" />
    </filter>
  </defs>
  <g
     id="layer1"
     transform="matrix(1.0889796,0,0,1.0889796,0.02160554,0.04244076)">
    <path
       id="rect1314"
       style="fill:url(#linearGradient2576);fill-rule:evenodd;stroke:#a2824e;stroke-linecap:round;stroke-linejoin:round"
       d="m 3.5858,7.0018 c 4.8977,-0.72404 9.8475,-0.61163 14.828,0 0.60151,0 1.0857,0.52348 1.0857,1.1737 v 11.698 c 0,0.65024 -0.5155,1.0797 -1.0857,1.1737 -5.164,0.60626 -9.5919,0.60147 -14.828,0 -0.6955,-0.22 -1.086,-0.524 -1.086,-1.175 V 8.1742 c 0,-0.65024 0.48424,-1.1737 1.0857,-1.1737 z"
       inkscape:connector-curvature="0" />
    <path
       id="rect6903"
       style="opacity:0.37999998;fill:none;stroke:url(#linearGradient2573);stroke-linecap:round;stroke-linejoin:round;stroke-opacity:0.60109002"
       d="m 4.0857,8.5 h 13.829 c 0.32446,0 0.58567,0.26635 0.58567,0.5972 v 10.396 c 0,0.33085 -0.23192,0.48359 -0.58567,0.5972 -4.5217,0.54696 -8.9848,0.5457 -13.829,0 C 3.76124,19.97679 3.50003,19.82405 3.50003,19.4932 V 9.0972 C 3.50003,8.76635 3.76124,8.5 4.0857,8.5 z"
       inkscape:connector-curvature="0" />
    <path
       id="rect1460"
       style="fill:url(#linearGradient2570);fill-rule:evenodd"
       d="m 3.7795,7.5385 c 4.8137,-0.78635 9.6274,-0.64629 14.441,0 0.4318,0 0.77943,0.386 0.77943,0.86548 v 1.499 c 0,0.47947 -0.34763,0.86548 -0.77943,0.86548 -5.0234,0.3715 -9.6454,0.23891 -14.441,0 -0.4318,0 -0.77943,-0.386 -0.77943,-0.86548 v -1.499 c 0,-0.47947 0.34762,-0.86548 0.77943,-0.86548 z"
       inkscape:connector-curvature="0" />
    <path
       id="rect1593"
       style="opacity:0.6;fill:none;stroke:url(#linearGradient2567);stroke-linecap:round;stroke-linejoin:round"
       d="m 4.0456,9.5 h 13.909 c 0.30223,0 0.54554,0.1293 0.54554,0.2899 v 0.17499 c 0,0.1606 -0.24331,0.2899 -0.54554,0.2899 -4.593,0.31718 -9.238,0.33659 -13.909,0 -0.30223,0 -0.54554,-0.1293 -0.54554,-0.2899 V 9.7899 C 3.50006,9.6293 3.74337,9.5 4.0456,9.5 z"
       inkscape:connector-curvature="0" />
    <rect
       id="rect5887"
       style="opacity:0.2;fill:#ffffff;fill-rule:evenodd;filter:url(#filter5957)"
       transform="matrix(0.9234,0,0,0.57774,-8.227,-3.3565)"
       rx="1.6077"
       ry="1.6077"
       height="16.971001"
       width="2.8283999"
       y="23.226"
       x="14.594" />
    <path
       id="path6073"
       style="opacity:0.3;fill:url(#radialGradient2563);fill-rule:evenodd"
       d="M 9,8.2774 C 9,8.9299 7.8807,9.4589 6.5,9.4589 5.1193,9.4589 4,8.92994 4,8.2774 4,7.6249 5.1193,7.0959 6.5,7.0959 7.8807,7.0959 9,7.62486 9,8.2774 z"
       inkscape:connector-curvature="0" />
    <path
       id="path6083"
       style="opacity:0.3;fill:url(#radialGradient2560);fill-rule:evenodd"
       d="m 18,8.2774 c 0,0.6525 -1.1193,1.1815 -2.5,1.1815 -1.3807,0 -2.5,-0.52896 -2.5,-1.1815 0,-0.6525 1.1193,-1.1815 2.5,-1.1815 1.3807,0 2.5,0.52896 2.5,1.1815 z"
       inkscape:connector-curvature="0" />
    <path
       id="path2086"
       style="fill:url(#linearGradient2557);fill-rule:evenodd;stroke:#888a85"
       d="M 5.5023,8.1969 V 5.6411 c 0,-3.5075 2.1522,-5.1738 5.4773,-5.13 3.3431,0.043803 5.5183,1.5812 5.5183,5.13 v 2.6673 c 0,0.87094 -2.2477,0.98179 -2.2477,0 V 6.5325 c 0,-0.89134 0.2327,-3.7757 -3.2471,-3.7757 -3.4511,0 -3.1997,2.9021 -3.1863,3.7721 V 8.212 c 0,1.0494 -2.3144,1.0449 -2.3144,-0.015009 z"
       inkscape:connector-curvature="0" />
    <path
       id="rect1345"
       style="opacity:0.18235001;fill:url(#linearGradient2580);fill-rule:evenodd;filter:url(#filter6251)"
       d="m 34.687,10.837 1.2639,0.125 c 0.92724,2.8227 0.73605,9.5104 0.73605,9.5104 -0.0625,1.125 -2.0312,0.53125 -2,0 V 10.837 z"
       transform="matrix(0.40937,0,0,0.44567,1.1465,-0.82114)"
       inkscape:connector-curvature="0" />
    <path
       id="path6332"
       style="opacity:0.14118;fill:url(#linearGradient2578);fill-rule:evenodd;filter:url(#filter6251)"
       d="m 12.927,11.544 0.37172,0.1692 c 1.7203,1.055 2.1735,9.3778 2.1735,9.3778 -0.0625,1.125 -2.0312,0.53125 -2,0 0,0 0.37822,-6.8706 -0.54525,-9.547 z"
       transform="matrix(-0.40937,0,0,0.44567,13.042,-1.0969)"
       inkscape:connector-curvature="0" />
    <path
       id="path5675"
       style="opacity:0.62352995;fill:none;stroke:#ffffff;stroke-width:4.42129993;stroke-linecap:round;filter:url(#filter5745)"
       d="m 13.877,17.722 0.125,-7.5 c 0,-9.8764 18.688,-10.676 18.688,0.875 v 6.875"
       transform="matrix(0.45915,0,0,0.44567,-0.021657,0.24621)"
       inkscape:connector-curvature="0" />
  </g>
</svg>
