<?xml version="1.0" encoding="UTF-8" standalone="no"?>
<!-- Created with Inkscape (http://www.inkscape.org/) -->

<svg
   xmlns:dc="http://purl.org/dc/elements/1.1/"
   xmlns:cc="http://creativecommons.org/ns#"
   xmlns:rdf="http://www.w3.org/1999/02/22-rdf-syntax-ns#"
   xmlns:svg="http://www.w3.org/2000/svg"
   xmlns="http://www.w3.org/2000/svg"
   xmlns:xlink="http://www.w3.org/1999/xlink"
   xmlns:sodipodi="http://sodipodi.sourceforge.net/DTD/sodipodi-0.dtd"
   xmlns:inkscape="http://www.inkscape.org/namespaces/inkscape"
   width="32"
   height="32"
   id="svg7331"
   version="1.1"
   inkscape:version="0.48.1 r9760"
   sodipodi:docname="Nuevo documento 15">
  <defs
     id="defs7333">
    <linearGradient
       inkscape:collect="always"
       xlink:href="#linearGradient4631"
       id="linearGradient5072"
       gradientUnits="userSpaceOnUse"
       x1="141.95511"
       y1="38.533707"
       x2="145.81512"
       y2="47.01899" />
    <linearGradient
       inkscape:collect="always"
       id="linearGradient4631">
      <stop
         style="stop-color:#ffffff;stop-opacity:0.40000001"
         offset="0"
         id="stop4633" />
      <stop
         style="stop-color:#ffffff;stop-opacity:0"
         offset="1"
         id="stop4635" />
    </linearGradient>
    <linearGradient
       inkscape:collect="always"
       xlink:href="#linearGradient5817"
       id="linearGradient5070"
       gradientUnits="userSpaceOnUse"
       gradientTransform="matrix(0.66399006,0,0,0.66281658,235.2657,339.89314)"
       x1="38.449001"
       y1="8.6672001"
       x2="38.536999"
       y2="10.435" />
    <linearGradient
       id="linearGradient5817">
      <stop
         id="stop5819"
         style="stop-color:#fff"
         offset="0" />
      <stop
         id="stop5821"
         style="stop-color:#fff;stop-opacity:0"
         offset="1" />
    </linearGradient>
    <linearGradient
       inkscape:collect="always"
       xlink:href="#linearGradient5817"
       id="linearGradient5068"
       gradientUnits="userSpaceOnUse"
       gradientTransform="matrix(0.66399006,0,0,0.66281658,235.25532,339.90868)"
       x1="38.449001"
       y1="8.6672001"
       x2="38.536999"
       y2="10.435" />
    <linearGradient
       inkscape:collect="always"
       xlink:href="#linearGradient5817"
       id="linearGradient5066"
       gradientUnits="userSpaceOnUse"
       gradientTransform="matrix(0.81152864,0,0,0.66281658,229.10312,339.92332)"
       x1="40.546001"
       y1="9.4375"
       x2="42.912998"
       y2="9.8352003" />
    <linearGradient
       inkscape:collect="always"
       xlink:href="#linearGradient5817"
       id="linearGradient5064"
       gradientUnits="userSpaceOnUse"
       gradientTransform="matrix(0.66399006,0,0,0.66281658,235.25532,339.90868)"
       x1="38.449001"
       y1="8.6672001"
       x2="38.625999"
       y2="12.291" />
    <radialGradient
       inkscape:collect="always"
       xlink:href="#linearGradient7012-661-145-733-759-865-745"
       id="radialGradient5060"
       gradientUnits="userSpaceOnUse"
       gradientTransform="matrix(0.88891397,1.1306717e-7,-7.901855e-8,0.61903589,114.76045,340.40297)"
       cx="142.00789"
       cy="36.496956"
       fx="142.00789"
       fy="36.496956"
       r="16.187489" />
    <linearGradient
       id="linearGradient7012-661-145-733-759-865-745">
      <stop
         offset="0"
         style="stop-color:#9cbbd9;stop-opacity:1"
         id="stop2699" />
      <stop
         offset="1"
         style="stop-color:#5c82ab;stop-opacity:1"
         id="stop2701" />
    </linearGradient>
    <linearGradient
       inkscape:collect="always"
       xlink:href="#linearGradient3390"
       id="linearGradient5062"
       gradientUnits="userSpaceOnUse"
       x1="167.91298"
       y1="49.848286"
       x2="148.16809"
       y2="38.53458"
       gradientTransform="matrix(0.66399007,0,0,0.66281658,146.43412,336.57272)" />
    <linearGradient
       id="linearGradient3390">
      <stop
         offset="0"
         style="stop-color:#425e7b;stop-opacity:1"
         id="stop3392" />
      <stop
         offset="1"
         style="stop-color:#7a91a7;stop-opacity:1"
         id="stop3394" />
    </linearGradient>
    <linearGradient
       inkscape:collect="always"
       xlink:href="#linearGradient6404"
       id="linearGradient5056"
       gradientUnits="userSpaceOnUse"
       gradientTransform="matrix(0.66399007,0,0,0.67379879,146.43412,335.39974)"
       x1="145.94147"
       y1="36.346992"
       x2="145.94147"
       y2="37.773926" />
    <linearGradient
       id="linearGradient6404">
      <stop
         offset="0"
         style="stop-color:#f9f9f9;stop-opacity:1"
         id="stop6406" />
      <stop
         offset="1"
         style="stop-color:#c9c9c9;stop-opacity:1"
         id="stop6408" />
    </linearGradient>
    <radialGradient
       inkscape:collect="always"
       xlink:href="#linearGradient3484"
       id="radialGradient5058"
       gradientUnits="userSpaceOnUse"
       gradientTransform="matrix(0,0.7413903,-1.1934175,0,274.14149,256.62218)"
       cx="136.48074"
       cy="30.90633"
       fx="136.48074"
       fy="30.90633"
       r="11.171876" />
    <linearGradient
       id="linearGradient3484">
      <stop
         offset="0"
         style="stop-color:#bdbdbd;stop-opacity:1"
         id="stop3486" />
      <stop
         offset="1"
         style="stop-color:#d0d0d0;stop-opacity:1"
         id="stop3488" />
    </linearGradient>
    <linearGradient
       inkscape:collect="always"
       xlink:href="#linearGradient5689"
       id="linearGradient5054"
       gradientUnits="userSpaceOnUse"
       gradientTransform="matrix(0.62317356,0,0,0.63967979,235.52991,340.82908)"
       x1="16.207001"
       y1="25.374001"
       x2="17.688"
       y2="34.937" />
    <linearGradient
       id="linearGradient5689"
       y2="34.937"
       gradientUnits="userSpaceOnUse"
       x2="17.688"
       y1="25.374001"
       x1="16.207001">
      <stop
         id="stop5685"
         style="stop-color:#fff"
         offset="0" />
      <stop
         id="stop5687"
         style="stop-color:#fff;stop-opacity:0"
         offset="1" />
    </linearGradient>
    <linearGradient
       inkscape:collect="always"
       xlink:href="#linearGradient5679"
       id="linearGradient5050"
       gradientUnits="userSpaceOnUse"
       gradientTransform="matrix(0.66399007,0,0,0.66281658,236.98541,339.80991)"
       x1="12.164"
       y1="25.804001"
       x2="11.655"
       y2="31.648001" />
    <linearGradient
       id="linearGradient5679"
       y2="31.648001"
       gradientUnits="userSpaceOnUse"
       x2="11.655"
       gradientTransform="translate(2.6056,-0.14901)"
       y1="25.804001"
       x1="12.164">
      <stop
         id="stop5635"
         style="stop-color:#f8f8f8"
         offset="0" />
      <stop
         id="stop5637"
         style="stop-color:#c7c7c1"
         offset="1" />
    </linearGradient>
    <linearGradient
       inkscape:collect="always"
       xlink:href="#linearGradient5681"
       id="linearGradient5052"
       gradientUnits="userSpaceOnUse"
       gradientTransform="matrix(0.66399007,0,0,0.66281658,234.54983,339.90868)"
       x1="20.882"
       y1="39.453999"
       x2="18.973"
       y2="24.030001" />
    <linearGradient
       id="linearGradient5681"
       y2="24.030001"
       gradientUnits="userSpaceOnUse"
       x2="18.973"
       gradientTransform="translate(-1.0625,0)"
       y1="39.453999"
       x1="20.882">
      <stop
         id="stop5662"
         style="stop-color:#cbcbcb"
         offset="0" />
      <stop
         id="stop5664"
         style="stop-color:#9f9f9f"
         offset="1" />
    </linearGradient>
    <radialGradient
       inkscape:collect="always"
       xlink:href="#radialGradient6848"
       id="radialGradient5046"
       gradientUnits="userSpaceOnUse"
       gradientTransform="matrix(0.66399007,0,0,1.0305472,235.25533,328.15893)"
       cx="34.312"
       cy="31.952999"
       r="2.2811999" />
    <radialGradient
       id="radialGradient6848"
       gradientUnits="userSpaceOnUse"
       cy="31.952999"
       cx="34.312"
       gradientTransform="matrix(1,0,0,1.5548,0,-17.727)"
       r="2.2811999">
      <stop
         id="stop6844"
         style="stop-color:#d8d9d7"
         offset="0" />
      <stop
         id="stop6846"
         style="stop-color:#7c7f79"
         offset="1" />
    </radialGradient>
    <linearGradient
       inkscape:collect="always"
       xlink:href="#linearGradient5617"
       id="linearGradient5048"
       gradientUnits="userSpaceOnUse"
       gradientTransform="matrix(0.66399007,0,0,0.66281658,235.25533,339.90868)"
       x1="34.125"
       y1="35.5"
       x2="33.780998"
       y2="29.516001" />
    <linearGradient
       id="linearGradient5617"
       y2="29.516001"
       gradientUnits="userSpaceOnUse"
       x2="33.780998"
       y1="35.5"
       x1="34.125">
      <stop
         id="stop5613"
         style="stop-color:#5e5e5e"
         offset="0" />
      <stop
         id="stop5615"
         style="stop-color:#929292"
         offset="1" />
    </linearGradient>
    <linearGradient
       inkscape:collect="always"
       xlink:href="#linearGradient6838"
       id="linearGradient5044"
       gradientUnits="userSpaceOnUse"
       gradientTransform="matrix(0.69918154,0,0,0.75694508,233.76466,339.01446)"
       x1="30.25"
       y1="10.232"
       x2="30.25"
       y2="8.625" />
    <linearGradient
       id="linearGradient6838"
       y2="8.625"
       gradientUnits="userSpaceOnUse"
       x2="30.25"
       gradientTransform="matrix(1.053,0,0,1,-2.245,0)"
       y1="10.232"
       x1="30.25">
      <stop
         id="stop6834"
         style="stop-color:#555753"
         offset="0" />
      <stop
         id="stop6836"
         style="stop-color:#838680"
         offset="1" />
    </linearGradient>
    <linearGradient
       inkscape:collect="always"
       xlink:href="#linearGradient5743"
       id="linearGradient5042"
       gradientUnits="userSpaceOnUse"
       gradientTransform="matrix(0.66399007,0,0,0.66281658,235.25533,339.90868)"
       x1="27.445"
       y1="16.572001"
       x2="26.719"
       y2="26.118" />
    <linearGradient
       id="linearGradient5743"
       y2="26.118"
       gradientUnits="userSpaceOnUse"
       x2="26.719"
       y1="16.572001"
       x1="27.445">
      <stop
         id="stop5739"
         style="stop-color:#babdb6"
         offset="0" />
      <stop
         id="stop5741"
         style="stop-color:#dddedb"
         offset="1" />
    </linearGradient>
    <linearGradient
       inkscape:collect="always"
       xlink:href="#linearGradient5514"
       id="linearGradient5040"
       gradientUnits="userSpaceOnUse"
       gradientTransform="matrix(0.65090957,0,0,0.62052853,235.49235,342.63668)"
       x1="21.5"
       y1="21.858999"
       x2="23.892"
       y2="49.359001" />
    <linearGradient
       id="linearGradient5514"
       y2="49.359001"
       gradientUnits="userSpaceOnUse"
       x2="23.892"
       gradientTransform="matrix(1,0,0,0.99858,0,2.0574)"
       y1="21.858999"
       x1="21.5">
      <stop
         id="stop5510"
         style="stop-color:#fff"
         offset="0" />
      <stop
         id="stop5512"
         style="stop-color:#fff;stop-opacity:0"
         offset="1" />
    </linearGradient>
    <linearGradient
       inkscape:collect="always"
       xlink:href="#linearGradient5540"
       id="linearGradient5036"
       gradientUnits="userSpaceOnUse"
       gradientTransform="matrix(0.66399007,0,0,0.65615201,232.84836,341.50378)"
       x1="38.907001"
       y1="38.791"
       x2="35.314999"
       y2="23.059" />
    <linearGradient
       id="linearGradient5540"
       y2="23.059"
       gradientUnits="userSpaceOnUse"
       x2="35.314999"
       y1="38.791"
       x1="38.907001">
      <stop
         id="stop5536"
         style="stop-color:#888a85"
         offset="0" />
      <stop
         id="stop5538"
         style="stop-color:#6b6d68"
         offset="1" />
    </linearGradient>
    <radialGradient
       inkscape:collect="always"
       xlink:href="#radialGradient5791"
       id="radialGradient5038"
       gradientUnits="userSpaceOnUse"
       gradientTransform="matrix(1.160721,0,0,1.1682786,217.54804,326.03959)"
       cx="30.128"
       cy="29.84"
       r="6.9986" />
    <radialGradient
       id="radialGradient5791"
       gradientUnits="userSpaceOnUse"
       cy="29.84"
       cx="30.128"
       gradientTransform="matrix(1.7481,0,0,1.7805,-23.043,-23.568)"
       r="6.9986">
      <stop
         id="stop5787"
         style="stop-color:#f1f1f0"
         offset="0" />
      <stop
         id="stop5789"
         style="stop-color:#7d7d7d;stop-opacity:1;"
         offset="1" />
    </radialGradient>
    <linearGradient
       inkscape:collect="always"
       xlink:href="#linearGradient5497"
       id="linearGradient5034"
       gradientUnits="userSpaceOnUse"
       gradientTransform="matrix(0.66399007,0,0,0.66089358,235.25533,341.50996)"
       x1="15.876"
       y1="39.987"
       x2="15.876"
       y2="19.573" />
    <linearGradient
       id="linearGradient5497"
       y2="19.573"
       gradientUnits="userSpaceOnUse"
       x2="15.876"
       gradientTransform="matrix(1,0,0,1.0126,0,1.7922)"
       y1="39.987"
       x1="15.876">
      <stop
         id="stop5493"
         style="stop-color:#959792"
         offset="0" />
      <stop
         id="stop5501"
         style="stop-color:#838681"
         offset=".25" />
      <stop
         id="stop5499"
         style="stop-color:#abaca9"
         offset=".62437" />
      <stop
         id="stop5771"
         style="stop-color:#fff"
         offset=".79696" />
      <stop
         id="stop5495"
         style="stop-color:#90928d"
         offset="1" />
    </linearGradient>
    <linearGradient
       inkscape:collect="always"
       xlink:href="#linearGradient6715"
       id="linearGradient5028"
       gradientUnits="userSpaceOnUse"
       gradientTransform="matrix(2.7744,0,0,1.9697,-1892.2,-872.89)"
       x1="302.85999"
       y1="366.64999"
       x2="302.85999"
       y2="609.51001" />
    <linearGradient
       id="linearGradient6715"
       y2="609.51001"
       gradientUnits="userSpaceOnUse"
       x2="302.85999"
       gradientTransform="matrix(2.7744,0,0,1.9697,-1892.2,-872.89)"
       y1="366.64999"
       x1="302.85999">
      <stop
         id="stop5050"
         style="stop-opacity:0"
         offset="0" />
      <stop
         id="stop5056"
         offset=".5" />
      <stop
         id="stop5052"
         style="stop-opacity:0"
         offset="1" />
    </linearGradient>
    <radialGradient
       inkscape:collect="always"
       xlink:href="#linearGradient5060"
       id="radialGradient5030"
       gradientUnits="userSpaceOnUse"
       gradientTransform="matrix(2.7744,0,0,1.9697,-1891.6,-872.89)"
       cx="605.71002"
       cy="486.64999"
       r="117.14" />
    <linearGradient
       id="linearGradient5060">
      <stop
         id="stop5062"
         offset="0" />
      <stop
         id="stop5064"
         style="stop-opacity:0"
         offset="1" />
    </linearGradient>
    <radialGradient
       inkscape:collect="always"
       xlink:href="#linearGradient5060"
       id="radialGradient5032"
       gradientUnits="userSpaceOnUse"
       gradientTransform="matrix(-2.7744,0,0,1.9697,112.76,-872.89)"
       cx="605.71002"
       cy="486.64999"
       r="117.14" />
  </defs>
  <sodipodi:namedview
     id="base"
     pagecolor="#ffffff"
     bordercolor="#666666"
     borderopacity="1.0"
     inkscape:pageopacity="0.0"
     inkscape:pageshadow="2"
     inkscape:zoom="22.28125"
     inkscape:cx="16"
     inkscape:cy="16"
     inkscape:document-units="px"
     inkscape:current-layer="layer1"
     showgrid="false"
     fit-margin-top="0"
     fit-margin-left="0"
     fit-margin-right="0"
     fit-margin-bottom="0" />
  <metadata
     id="metadata7336">
    <rdf:RDF>
      <cc:Work
         rdf:about="">
        <dc:format>image/svg+xml</dc:format>
        <dc:type
           rdf:resource="http://purl.org/dc/dcmitype/StillImage" />
        <dc:title></dc:title>
      </cc:Work>
    </rdf:RDF>
  </metadata>
  <g
     inkscape:label="Capa 1"
     inkscape:groupmode="layer"
     id="layer1"
     transform="translate(-235.42857,-339.21933)">
    <g
       id="g4972"
       style="opacity:0.6;display:inline;enable-background:new"
       transform="matrix(0.01330038,0,0,0.00940537,261.7618,367.13756)">
      <rect
         id="rect4974"
         style="opacity:0.40206;color:#000000;fill:url(#linearGradient5028)"
         height="478.35999"
         width="1339.6"
         y="-150.7"
         x="-1559.3" />
      <path
         inkscape:connector-curvature="0"
         id="path4976"
         style="opacity:0.40206;color:#000000;fill:url(#radialGradient5030)"
         d="m -219.62,-150.68 v 478.33 c 142.88,0.9 345.4,-107.17 345.4,-239.2 0,-132.02 -159.44,-239.13 -345.4,-239.13 z" />
      <path
         inkscape:connector-curvature="0"
         id="path4978"
         style="opacity:0.40206;color:#000000;fill:url(#radialGradient5032)"
         d="m -1559.3,-150.68 v 478.33 c -142.8,0.9 -345.4,-107.17 -345.4,-239.2 0,-132.02 159.5,-239.13 345.4,-239.13 z" />
    </g>
    <path
       inkscape:connector-curvature="0"
       id="path4980"
       style="color:#000000;fill:#5c82ab;fill-opacity:1;fill-rule:evenodd;stroke:#425e7b;stroke-width:1;stroke-linejoin:round;stroke-opacity:1;display:inline;enable-background:new"
       d="m 248.98067,365.17657 12.32829,0.18559 c 0.23904,0 0.28087,0.44873 0.28087,0.44873 -0.496,1.84925 -2.57229,2.88723 -3.96136,2.88723 l -15.65025,0.0212 c 4.8033,-0.2996 5.13729,-0.5866 5.51577,-2.67712 0.32469,-0.65486 0.93026,-0.86564 1.48668,-0.86564 z" />
    <path
       inkscape:connector-curvature="0"
       id="path4982"
       style="color:#000000;fill:url(#linearGradient5034);stroke:#7d7d7d;stroke-width:1;stroke-linecap:square;stroke-miterlimit:4;stroke-opacity:1;stroke-dasharray:none;display:inline;enable-background:new"
       d="m 241.89522,353.73629 c -2.38239,0 -4.31593,3.25683 -4.31593,7.26944 0,4.01262 1.93354,7.09452 4.31593,7.09452 0.0571,0 0.10956,-0.017 0.16601,-0.0209 v 0.0209 h 14.75385 v -14.38092 c 0,0 -9.83568,0.1227 -14.91986,0.017 z" />
    <path
       inkscape:connector-curvature="0"
       id="path4984"
       style="color:#000000;fill:url(#linearGradient5036);stroke:url(#radialGradient5038);stroke-width:1;stroke-linecap:square;stroke-miterlimit:4;stroke-dasharray:none;display:inline;enable-background:new"
       d="m 261.48293,360.90095 a 4.3159359,7.1769917 0 0 1 -8.63187,0 4.3159359,7.1769917 0 1 1 8.63187,0 z" />
    <path
       inkscape:connector-curvature="0"
       id="path4986"
       style="opacity:0.41713999;color:#000000;fill:none;stroke:url(#linearGradient5040);stroke-width:0.99714994;stroke-linecap:square;display:inline;enable-background:new"
       d="m 256.62999,354.7179 c 0,0 -9.74672,0.10813 -14.28617,0.0174 -2.12671,0 -3.85299,2.78019 -3.85299,6.20603 0,3.42584 1.72628,6.20603 3.85299,6.20603 0.0508,0 0.0983,-0.0143 0.1484,-0.0174 v 0.0174 h 14.13777 c 2.12653,0 3.85274,-2.78019 3.85274,-6.20603 0,-3.42584 -1.72621,-6.20603 -3.85274,-6.20603 v -0.0174 z" />
    <path
       inkscape:connector-curvature="0"
       id="path4988"
       style="fill:url(#linearGradient5042);fill-rule:evenodd;stroke:#7d7d7d;stroke-width:1;stroke-opacity:1;display:inline;enable-background:new"
       d="m 249.98794,345.54487 c -0.69984,0 -1.25827,0.3049 -1.57764,0.82852 l -3.50654,6.60736 -0.24899,0.49711 h 0.53983 0.74698 0.20716 l 0.083,-0.18625 3.25821,-6.1516 c 0.0644,-0.10407 0.28153,-0.26977 0.49799,-0.26977 l 14.38933,0.005 c 0.13943,-0.01 0.18924,0.1319 0.14009,0.19686 l -7.24678,13.17878 -0.16599,0.28965 0.29082,0.1657 0.58099,0.31086 0.29016,0.14516 0.166,-0.29031 7.34572,-13.35973 c 0.24568,-0.41493 0.16003,-0.87558 -0.0418,-1.24272 -0.22311,-0.40717 -0.67993,-0.73765 -1.26557,-0.72492 h -14.48295 z" />
    <rect
       id="rect4990"
       style="color:#000000;fill:url(#linearGradient5044);stroke:#5a5a5a;stroke-width:1;stroke-linecap:square;stroke-opacity:1;display:inline;enable-background:new"
       rx="1.3279802"
       ry="1.5138901"
       height="3.0277803"
       width="13.196802"
       y="344.69156"
       x="250.19511" />
    <path
       inkscape:connector-curvature="0"
       id="path4992"
       style="opacity:0.38286001;color:#000000;fill:#2e3436;stroke:#2e3436;stroke-width:0.99997467;stroke-linecap:square;display:inline;enable-background:new"
       d="m 258.53111,361.68905 a 1.1826991,1.5645748 0 1 1 -2.36513,0 1.1826991,1.5645748 0 1 1 2.36513,0 z" />
    <path
       inkscape:connector-curvature="0"
       id="path4994"
       style="color:#000000;fill:url(#radialGradient5046);stroke:url(#linearGradient5048);stroke-width:1;stroke-linecap:square;display:inline;enable-background:new"
       d="m 258.86814,361.08765 a 1.1826991,2.0195358 0 1 1 -2.36514,0 1.1826991,2.0195358 0 1 1 2.36514,0 z" />
    <path
       inkscape:connector-curvature="0"
       id="path4996"
       style="color:#000000;fill:url(#linearGradient5050);stroke:url(#linearGradient5052);stroke-width:1;stroke-linecap:square;display:inline;enable-background:new"
       d="m 240.89572,355.48487 h 9.97911 c 0.31273,0 0.60688,0.33472 0.35723,0.66745 -1.72638,2.86138 -1.08563,6.63215 0.0418,9.37223 0,0.31285 -0.25232,0.56406 -0.56506,0.56406 l -10.10394,0.87027 c -0.31293,0 -0.46114,-0.35527 -0.46114,-0.66745 -0.15835,-3.14573 -2.45949,-7.65288 0.31985,-10.66804 0,0 0.11885,-0.13852 0.43191,-0.13852 z" />
    <path
       inkscape:connector-curvature="0"
       id="path4998"
       style="color:#000000;fill:none;stroke:url(#linearGradient5054);stroke-width:0.99999994;stroke-linecap:square;display:inline;enable-background:new"
       d="m 240.80744,356.50124 c -1.09441,1.26272 -1.21413,2.79284 -0.99322,4.51741 0.22422,1.75081 0.81463,3.57965 0.89583,5.2377 1.1e-4,0.006 1.1e-4,0.0134 0,0.0198 l 9.13322,-0.81943 c -0.98961,-2.6278 -1.50995,-6.09231 -0.0187,-8.95551 h -9.0167 z"
       xlink:href="#rect5631" />
    <path
       sodipodi:nodetypes="cccsccssscccc"
       inkscape:connector-curvature="0"
       id="path5000"
       d="m 239.20597,356.70286 c -0.23917,0 -0.29049,0.25267 -0.29049,0.25267 -0.0513,0.46115 -0.23148,1.25688 -0.20749,1.66529 0.0162,0.27632 -1.49565,-0.0967 -1.49399,0.1895 0.0279,4.78842 2.11395,7.87895 5.08367,7.87895 l 9.08837,0.0211 -0.66399,-7.54205 c -0.0393,-0.4464 -0.49686,-0.42112 -0.89224,-0.42112 l -5.97591,0 c -0.2211,0 -0.47608,-0.11539 -0.66399,-0.27373 -0.081,-0.068 -0.28087,-0.43927 -0.332,-0.48037 -0.16931,-0.13746 -0.36951,-1.24741 -0.53948,-1.24809 z"
       style="color:#000000;fill:url(#linearGradient5056);fill-opacity:1;fill-rule:evenodd;stroke:url(#radialGradient5058);stroke-width:1;stroke-linejoin:round;stroke-opacity:1;display:inline;enable-background:new" />
    <path
       sodipodi:nodetypes="ccccccsc"
       inkscape:connector-curvature="0"
       id="path5002"
       style="color:#000000;fill:url(#radialGradient5060);fill-opacity:1;fill-rule:evenodd;stroke:url(#linearGradient5062);stroke-width:1;stroke-linejoin:round;display:inline;enable-background:new"
       d="m 249.83256,360.72367 -5.97325,0 c -6.25988,0 -2.95783,0.0171 -6.84606,0.0171 0.0279,4.71038 2.11475,7.93749 5.08447,7.93749 l 15.65024,0.0219 c -4.8033,-0.30026 -6.05027,-5.02027 -6.42874,-7.11013 -0.3247,-0.65553 -1.14262,-0.95232 -1.48668,-0.8663 z" />
    <path
       inkscape:connector-curvature="0"
       id="path5004"
       style="color:#000000;fill:#ffffff;display:inline;enable-background:new"
       d="m 265.57164,346.31895 a 0.21836,0.2179741 0 0 1 -0.43672,0 0.21836,0.2179741 0 1 1 0.43672,0 z" />
    <path
       inkscape:connector-curvature="0"
       id="path5006"
       style="fill:#ffffff;fill-rule:evenodd;display:inline;enable-background:new"
       d="m 249.07627,346.85433 -3.28608,6.29809 h -0.26427 l 3.55035,-6.29809 z" />
    <path
       inkscape:connector-curvature="0"
       id="path5008"
       style="fill:#ffffff;fill-rule:evenodd;display:inline;enable-background:new"
       d="m 265.30419,347.32294 -6.57351,12.06857 -0.17595,-0.29297 6.74946,-11.7756 z" />
    <path
       inkscape:connector-curvature="0"
       id="path5010"
       style="color:#000000;fill:#ffffff;display:inline;enable-background:new"
       d="m 249.3751,346.36649 a 0.17799406,0.17767948 0 0 1 -0.35598,0 0.17799406,0.17767948 0 1 1 0.35598,0 z" />
    <path
       inkscape:connector-curvature="0"
       id="path5012"
       style="opacity:0.53142999;fill:#ffffff;fill-rule:evenodd;display:inline;enable-background:new"
       d="m 261.25452,365.71743 c -0.166,1.20102 -1.80472,2.3815 -3.36112,2.67181 1.00728,-0.40564 2.50523,-0.85702 3.36112,-2.67181 z" />
    <path
       inkscape:connector-curvature="0"
       id="path5014"
       style="opacity:0.53142999;color:#000000;fill:url(#linearGradient5064);display:inline;enable-background:new"
       d="m 260.61177,345.22347 c -0.34793,0.0902 -0.62282,0.48591 -0.62282,0.9528 0,0.52429 0.33598,0.95843 0.74699,0.97368 h 0.0206 1.49396 0.0212 c 0.41034,-0.0152 0.74699,-0.44939 0.74633,-0.97368 0,-0.52402 -0.33599,-0.93769 -0.74633,-0.9528 h -0.16599 -1.20382 -0.14541 c -0.007,0 -0.0133,-2.6e-4 -0.0206,0 -0.0445,0.002 -0.0817,-0.011 -0.12417,0 z" />
    <path
       inkscape:connector-curvature="0"
       id="path5016"
       style="opacity:0.48570999;color:#000000;fill:url(#linearGradient5066);display:inline;enable-background:new"
       d="m 262.95928,346.17865 a 0.5709104,0.76676272 0 0 1 -1.14181,0 0.5709104,0.76676272 0 1 1 1.14181,0 z" />
    <path
       inkscape:connector-curvature="0"
       id="path5018"
       style="fill:#babdb6;fill-rule:evenodd;display:inline;enable-background:new"
       d="m 264.38789,345.87403 h -1.6706 c -0.44089,0 -0.39508,0.66281 0,0.66281 h 1.49397 l 0.17663,-0.66281 z" />
    <path
       inkscape:connector-curvature="0"
       id="path5020"
       style="opacity:0.53142999;color:#000000;fill:url(#linearGradient5068);display:inline;enable-background:new"
       d="m 251.39825,345.23189 c -0.43691,0 -0.82933,0.41923 -0.82999,0.95286 0,0.5337 0.38246,1.0043 0.82002,1.0043 l 1.03584,0.0225 c -0.27821,-0.12527 -0.6215,-0.46728 -0.6215,-1.0208 0,-0.54338 0.37648,-0.87744 0.59626,-0.97527 -0.20584,-0.0296 -0.81007,0.0164 -1.00063,0.0164 z" />
    <rect
       id="rect5022"
       style="color:#000000;fill:url(#linearGradient5070);display:inline;enable-background:new"
       rx="0.062249068"
       ry="0.062139053"
       height="0.12427811"
       width="1.8466891"
       y="345.98279"
       x="262.63428" />
    <path
       inkscape:connector-curvature="0"
       id="path5024"
       style="color:#000000;fill:#ffffff;display:inline;enable-background:new"
       d="m 261.95039,345.59783 c -0.12086,0 -0.21846,0.0979 -0.21846,0.21846 0,0.0302 0.0159,0.0558 0.0273,0.0819 -0.093,0.18288 -0.0598,0.52522 0.31473,0.84675 -0.23305,-0.29363 -0.25165,-0.53807 -0.17795,-0.72386 0.0186,0.005 0.0339,0.0136 0.0544,0.0136 0.12083,0 0.2191,-0.0978 0.2191,-0.21846 0,-0.12057 -0.0983,-0.21847 -0.2191,-0.21847 z" />
    <path
       d="m 146.71875,38.84375 c -7.99662,0 -6.07122,0.02443 -8.75,0.03125 0.2092,2.56401 0.78155,4.619013 1.71875,5.90625 1.11791,1.535445 2.54052,2.25 4.375,2.25 l 16.5625,0.03125 c -0.55028,-0.499749 -1.02709,-1.063472 -1.4375,-1.625 -1.54731,-2.117044 -2.17383,-4.418264 -2.5,-6.09375 -0.2286,-0.425339 -0.50786,-0.5 -0.96875,-0.5 l -9,0 z"
       id="path5026"
       style="color:#000000;fill:none;stroke:url(#linearGradient5072);stroke-width:1.4306879;stroke-linejoin:round;stroke-opacity:1;display:inline;enable-background:new"
       inkscape:original="M 146.71875 37.4375 C 137.29109 37.4375 142.26211 37.46875 136.40625 37.46875 C 136.44825 44.575351 139.58996 48.4375 144.0625 48.4375 L 167.65625 48.46875 C 160.42225 48.01575 158.53875 41.903 157.96875 38.75 C 157.47975 37.761 156.55675 37.4375 155.71875 37.4375 L 146.71875 37.4375 z "
       inkscape:radius="-1.3958815"
       sodipodi:type="inkscape:offset"
       transform="matrix(0.66399006,0,0,0.73578103,146.43412,333.13883)" />
  </g>
</svg>
