<?xml version="1.0" encoding="UTF-8" standalone="no"?>
<!-- Created with Inkscape (http://www.inkscape.org/) -->

<svg
   xmlns:dc="http://purl.org/dc/elements/1.1/"
   xmlns:cc="http://creativecommons.org/ns#"
   xmlns:rdf="http://www.w3.org/1999/02/22-rdf-syntax-ns#"
   xmlns:svg="http://www.w3.org/2000/svg"
   xmlns="http://www.w3.org/2000/svg"
   xmlns:sodipodi="http://sodipodi.sourceforge.net/DTD/sodipodi-0.dtd"
   xmlns:inkscape="http://www.inkscape.org/namespaces/inkscape"
   version="1.0"
   width="24"
   height="24"
   id="svg2"
   sodipodi:version="0.32"
   inkscape:version="0.47pre4 r22446"
   sodipodi:docname="start-here.svg"
   inkscape:output_extension="org.inkscape.output.svg.inkscape"
   inkscape:export-filename="/home/svetli/Плот/LFU_menu_icons/Y-symbol_2.png"
   inkscape:export-xdpi="7.1999998"
   inkscape:export-ydpi="7.1999998">
  <metadata
     id="metadata6">
    <rdf:RDF>
      <cc:Work
         rdf:about="">
        <dc:format>image/svg+xml</dc:format>
        <dc:type
           rdf:resource="http://purl.org/dc/dcmitype/StillImage" />
        <dc:title />
      </cc:Work>
    </rdf:RDF>
  </metadata>
  <sodipodi:namedview
     inkscape:window-height="724"
     inkscape:window-width="1280"
     inkscape:pageshadow="2"
     inkscape:pageopacity="0.0"
     guidetolerance="10.0"
     gridtolerance="10.0"
     objecttolerance="10.0"
     borderopacity="1.0"
     bordercolor="#666666"
     pagecolor="#ffffff"
     id="base"
     showgrid="false"
     inkscape:zoom="12.266666"
     inkscape:cx="-10.500674"
     inkscape:cy="16.432316"
     inkscape:window-x="0"
     inkscape:window-y="25"
     inkscape:current-layer="g2559"
     borderlayer="false"
     inkscape:showpageshadow="true"
     showborder="true"
     inkscape:window-maximized="1" />
  <defs
     id="defs7">
    <inkscape:perspective
       sodipodi:type="inkscape:persp3d"
       inkscape:vp_x="0 : 24 : 1"
       inkscape:vp_y="0 : 1000 : 0"
       inkscape:vp_z="48 : 24 : 1"
       inkscape:persp3d-origin="24 : 16 : 1"
       id="perspective11" />
    <inkscape:perspective
       id="perspective2821"
       inkscape:persp3d-origin="0.5 : 0.33333333 : 1"
       inkscape:vp_z="1 : 0.5 : 1"
       inkscape:vp_y="0 : 1000 : 0"
       inkscape:vp_x="0 : 0.5 : 1"
       sodipodi:type="inkscape:persp3d" />
  </defs>
  <g
     id="g2559"
     transform="matrix(1.0426669,0,0,1.0426669,11.330071,-19.040329)">
    <path
       id="path2537"
       d="m 1.936562,40.087113 c -0.2226164,-0.4401 -0.3450731,-1.148985 -0.6282307,-3.63671 -0.150595,-1.323069 -0.205651,-1.640386 -0.31544265,-1.818032 -0.2345457,-0.379502 -0.32598763,-0.398507 -1.91749862,-0.398507 -1.41804483,0 -1.43080563,-0.0012 -1.52236813,-0.140923 -0.089771,-0.137008 -3.5746297,-13.67336 -3.5746297,-13.885052 0,-0.05828 0.043504,-0.168085 0.096677,-0.243999 0.095384,-0.136179 0.1168154,-0.138025 1.602819,-0.138025 1.540023,0 1.5800672,0.0057 1.7604604,0.248414 0.038071,0.05123 0.5910213,2.272986 1.2287761,4.937224 0.63775523,2.664238 1.20748439,4.927621 1.26606432,5.029743 0.0585795,0.102121 0.18196239,0.22788 0.27418345,0.279465 0.14915397,0.08343 0.18587336,0.0835 0.33242529,6.51e-4 0.34261208,-0.193724 0.40172517,-0.354724 0.49333874,-1.343644 0.2878091,-3.106755 0.6996642,-5.369116 1.3327581,-7.320971 0.3404757,-1.049699 0.6416708,-1.477102 1.2077553,-1.713833 0.1027631,-0.04298 0.5904103,-0.09353 1.0894392,-0.112942 l 0.9034035,-0.03515 0.5748697,-0.298796 c 0.7189118,-0.373665 0.8551443,-0.370241 1.0520734,0.02645 0.1322132,0.266328 0.1373754,0.3168 0.073039,0.714189 -0.038077,0.235185 -0.091762,0.806196 -0.119302,1.268914 -0.058906,0.989681 -0.1698518,1.27823 -0.6721233,1.748045 -0.5049279,0.472301 -0.9159244,0.549799 -2.2029123,0.415375 -0.6656278,-0.06953 -0.6680876,-0.06929 -0.8710389,0.08552 -0.3012152,0.229748 -0.509231,0.668025 -0.7273286,1.532439 -0.4742862,1.879789 -0.656691,3.564568 -0.6022047,5.562268 0.072721,2.666286 0.4029281,4.388108 1.1631148,6.064907 0.3639895,0.802878 0.6038336,1.526356 0.7123986,2.148912 0.1311225,0.751916 0.1217842,0.864178 -0.089461,1.075422 l -0.1815326,0.181534 -0.8108601,0 -0.8108598,0 -0.1178024,-0.232888 z"
       style="fill:#3a3935;fill-opacity:1;stroke:#eae3d0;stroke-opacity:1;stroke-width:1.4386186;stroke-miterlimit:4;stroke-dasharray:none" />
    <path
       id="path2537-9"
       d="M 1.9365617,40.087113 C 1.7139452,39.647013 1.5914885,38.938128 1.3083309,36.450403 1.157736,35.127334 1.1026799,34.810017 0.99288832,34.632371 c -0.2345458,-0.379502 -0.3259876,-0.398507 -1.9174987,-0.398507 -1.41804482,0 -1.43080552,-0.0012 -1.52236812,-0.140923 -0.089771,-0.137008 -3.5746296,-13.67336 -3.5746296,-13.885052 0,-0.05828 0.0435,-0.168085 0.09668,-0.243999 0.09538,-0.136179 0.116815,-0.138025 1.6028189,-0.138025 1.540023,0 1.5800672,0.0057 1.7604604,0.248414 0.038071,0.05123 0.5910213,2.272986 1.2287761,4.937224 0.63775522,2.664238 1.20748442,4.927621 1.26606432,5.029743 0.05858,0.102121 0.1819624,0.22788 0.2741834,0.279465 0.1491541,0.08343 0.1858734,0.0835 0.3324254,6.51e-4 0.3426121,-0.193724 0.4017251,-0.354724 0.49333868,-1.343644 0.2878091,-3.106755 0.6996642,-5.369116 1.3327582,-7.320971 0.3404757,-1.049699 0.6416708,-1.477102 1.2077557,-1.713833 0.1027624,-0.04298 0.59041,-0.09353 1.089439,-0.112942 l 0.9034005,-0.03515 0.5748691,-0.298796 c 0.7189122,-0.373665 0.8551446,-0.370241 1.0520733,0.02645 0.1322138,0.266328 0.1373756,0.3168 0.073043,0.714189 -0.038075,0.235185 -0.091765,0.806196 -0.1193018,1.268914 -0.058907,0.989681 -0.169852,1.27823 -0.6721236,1.748045 -0.5049283,0.472301 -0.9159243,0.549799 -2.2029125,0.415375 -0.6656277,-0.06953 -0.6680877,-0.06929 -0.8710387,0.08552 -0.3012153,0.229748 -0.5092311,0.668025 -0.7273287,1.532439 -0.4742861,1.879789 -0.656691,3.564568 -0.6022046,5.562268 0.072721,2.666286 0.4029281,4.388108 1.1631148,6.064907 0.3639891,0.802878 0.6038336,1.526356 0.7123985,2.148912 0.1311224,0.751916 0.1217838,0.864178 -0.089463,1.075422 l -0.1815325,0.181534 -0.8108602,0 -0.8108598,0 -0.1178023,-0.232888 z"
       style="fill:#3a3935;fill-opacity:1;stroke:none" />
  </g>
</svg>
