<?xml version="1.0" encoding="UTF-8" standalone="no"?>
<!-- Created with Inkscape (http://www.inkscape.org/) -->

<svg
   xmlns:dc="http://purl.org/dc/elements/1.1/"
   xmlns:cc="http://creativecommons.org/ns#"
   xmlns:rdf="http://www.w3.org/1999/02/22-rdf-syntax-ns#"
   xmlns:svg="http://www.w3.org/2000/svg"
   xmlns="http://www.w3.org/2000/svg"
   xmlns:xlink="http://www.w3.org/1999/xlink"
   xmlns:sodipodi="http://sodipodi.sourceforge.net/DTD/sodipodi-0.dtd"
   xmlns:inkscape="http://www.inkscape.org/namespaces/inkscape"
   version="1.0"
   width="24"
   height="24"
   id="svg2"
   inkscape:version="0.47 r22583"
   sodipodi:docname="gnote.svg"
   inkscape:export-filename="/home/sobhi/Desktop/evolution-memos.png"
   inkscape:export-xdpi="90"
   inkscape:export-ydpi="90">
  <metadata
     id="metadata143">
    <rdf:RDF>
      <cc:Work
         rdf:about="">
        <dc:format>image/svg+xml</dc:format>
        <dc:type
           rdf:resource="http://purl.org/dc/dcmitype/StillImage" />
        <dc:title />
      </cc:Work>
    </rdf:RDF>
  </metadata>
  <sodipodi:namedview
     pagecolor="#ffffff"
     bordercolor="#666666"
     borderopacity="1"
     objecttolerance="10"
     gridtolerance="10"
     guidetolerance="10"
     inkscape:pageopacity="0"
     inkscape:pageshadow="2"
     inkscape:window-width="1280"
     inkscape:window-height="749"
     id="namedview141"
     showgrid="false"
     inkscape:zoom="11.313709"
     inkscape:cx="-0.79415868"
     inkscape:cy="17.999724"
     inkscape:window-x="0"
     inkscape:window-y="28"
     inkscape:window-maximized="1"
     inkscape:current-layer="svg2"
     showguides="true"
     inkscape:guide-bbox="true" />
  <defs
     id="defs4">
    <linearGradient
       id="linearGradient3587-6-5-3-4">
      <stop
         id="stop3589-9-2-2-4"
         style="stop-color:#000000;stop-opacity:1"
         offset="0" />
      <stop
         id="stop3591-7-4-73-3"
         style="stop-color:#363636;stop-opacity:1"
         offset="1" />
    </linearGradient>
    <linearGradient
       gradientTransform="matrix(1.6380468,0,0,0.98753649,16.180781,2.5932286)"
       x1="12"
       y1="1.9895233"
       x2="12"
       y2="21"
       id="linearGradient3204-7"
       xlink:href="#linearGradient3587-6-5-3-4"
       gradientUnits="userSpaceOnUse" />
    <filter
       id="filter5252"
       inkscape:label="Drop shadow"
       width="1.5"
       height="1.5"
       x="-.25"
       y="-.25">
      <feGaussianBlur
         id="feGaussianBlur5254"
         in="SourceAlpha"
         stdDeviation="1.000000"
         result="blur" />
      <feColorMatrix
         id="feColorMatrix5256"
         result="bluralpha"
         type="matrix"
         values="-1 0 0 0 1 0 -1 0 0 1 0 0 -1 0 1 0 0 0 0.500000 0 " />
      <feOffset
         id="feOffset5258"
         in="bluralpha"
         dx="0.000000"
         dy="0.300000"
         result="offsetBlur" />
      <feMerge
         id="feMerge5260">
        <feMergeNode
           id="feMergeNode5262"
           in="offsetBlur" />
        <feMergeNode
           id="feMergeNode5264"
           in="SourceGraphic" />
      </feMerge>
    </filter>
    <linearGradient
       inkscape:collect="always"
       xlink:href="#linearGradient3587-6-5-3-4"
       id="linearGradient2835"
       gradientUnits="userSpaceOnUse"
       gradientTransform="matrix(1.6380468,0,0,0.98753649,16.180781,2.5932286)"
       x1="12"
       y1="1.9895233"
       x2="12"
       y2="21" />
    <linearGradient
       inkscape:collect="always"
       xlink:href="#linearGradient3587-6-5-3-4"
       id="linearGradient3609"
       gradientUnits="userSpaceOnUse"
       gradientTransform="matrix(1.6380468,0,0,0.98753649,16.180781,2.5932286)"
       x1="12"
       y1="1.9895233"
       x2="12"
       y2="21" />
  </defs>
  <g
     id="layer1-2"
     transform="matrix(0.93170368,0,0,0.93170368,0.49447938,-6.6181572)">
    <rect
       style="fill:#5b5b5b;fill-opacity:1;stroke:none"
       id="rect5142"
       width="11.984822"
       height="13.129443"
       x="6.0566592"
       y="13.418963"
       rx="1.0772876"
       ry="1.0772876" />
    <g
       id="layer1-7"
       transform="translate(-0.42772545,8.0633619)">
      <g
         id="g3600"
         transform="translate(0.524653,-1.8653028)">
        <g
           transform="translate(-23.874477,-1.1328366)"
           id="layer1-43">
          <path
             sodipodi:nodetypes="cccccsscc"
             d="m 28.466132,21.620065 0,-13.5493606 c 0,-0.5470952 0.224293,-1.0335616 1.131771,-1.0335616 l 12.524905,0 c 0.907478,0 1.085746,0.4404413 1.085746,0.9875365 0,0 0,9.2476897 0,13.7794847 0,0.547095 -0.270318,1.033563 -1.177796,1.033563 -4.144285,0 -12.432855,0 -12.432855,0 -0.907478,0 -1.131771,-0.670567 -1.131771,-1.217662 z"
             id="rect2442"
             style="opacity:0.9;fill:none;stroke:url(#linearGradient3609);stroke-width:0.89999998;stroke-linecap:round;stroke-linejoin:miter;stroke-miterlimit:4;stroke-opacity:1;stroke-dasharray:none;stroke-dashoffset:0;marker:none;visibility:visible;display:inline;overflow:visible;enable-background:accumulate" />
        </g>
      </g>
      <g
         id="layer1-14"
         transform="translate(-21.678839,-25.518806)">
        <path
           sodipodi:type="inkscape:offset"
           inkscape:radius="0"
           inkscape:original="M 43.8125 28.375 C 43.556881 28.375 43.320869 28.491632 43.125 28.6875 L 36.03125 35.75 C 35.772379 36.008872 35.729232 36.35783 35.8125 36.6875 L 35.6875 36.8125 C 35.295763 37.204237 35.147881 37.679131 35.34375 37.875 C 35.539619 38.070869 36.014513 37.922983 36.40625 37.53125 L 36.5 37.40625 C 36.82967 37.48952 37.209879 37.415118 37.46875 37.15625 L 44.53125 30.09375 C 44.922987 29.702013 44.922987 29.079237 44.53125 28.6875 C 44.335381 28.491632 44.068119 28.375 43.8125 28.375 z "
           xlink:href="#rect2408"
           style="fill:none;stroke:#f8f8f8;stroke-width:1.39999998;stroke-miterlimit:4;stroke-dasharray:none;marker:none;visibility:visible;display:inline;overflow:visible;enable-background:accumulate"
           id="path4927"
           inkscape:href="#rect2408"
           d="m 43.8125,28.375 c -0.255619,0 -0.491631,0.116632 -0.6875,0.3125 L 36.03125,35.75 c -0.258871,0.258872 -0.302018,0.60783 -0.21875,0.9375 l -0.125,0.125 c -0.391737,0.391737 -0.539619,0.866631 -0.34375,1.0625 0.195869,0.195869 0.670763,0.04798 1.0625,-0.34375 L 36.5,37.40625 c 0.32967,0.08327 0.709879,0.0089 0.96875,-0.25 l 7.0625,-7.0625 c 0.391737,-0.391737 0.391737,-1.014513 0,-1.40625 C 44.335381,28.491632 44.068119,28.375 43.8125,28.375 z" />
        <path
           style="fill:#3a3935;fill-opacity:1;fill-rule:nonzero;stroke:none;stroke-width:3;marker:none;visibility:visible;display:inline;overflow:visible;enable-background:accumulate"
           id="rect2408"
           d="m 36.040729,35.749566 c -0.258871,0.258872 -0.326336,0.620505 -0.243068,0.950175 l -0.110486,0.110486 c -0.391737,0.391737 -0.549422,0.864791 -0.353553,1.06066 0.195869,0.195869 0.668923,0.03818 1.06066,-0.353553 l 0.110486,-0.110486 c 0.32967,0.08327 0.691303,0.0158 0.950174,-0.243068 l 7.071068,-7.071068 c 0.391737,-0.391737 0.391737,-1.022477 0,-1.414214 -0.391737,-0.391737 -1.022476,-0.391737 -1.414213,0 l -7.071068,7.071068 z" />
      </g>
      <path
         style="fill:#626262;fill-opacity:0.70196078;fill-rule:nonzero;stroke:none;stroke-width:3;marker:none;visibility:visible;display:inline;overflow:visible;enable-background:accumulate"
         id="rect2408-2"
         d="m 14.36189,10.23076 c -0.258871,0.258872 -0.326336,0.620505 -0.243068,0.950175 l -0.110486,0.110486 c -0.391737,0.391737 -0.549422,0.864791 -0.353553,1.06066 0.195869,0.195869 0.668923,0.03818 1.06066,-0.353553 l 0.110486,-0.110486 c 0.32967,0.08327 0.691303,0.0158 0.950174,-0.243068 l 7.071068,-7.0710683 c 0.391737,-0.391737 0.391737,-1.0224769 0,-1.4142139 -0.391737,-0.391737 -1.022476,-0.391737 -1.414213,0 L 14.36189,10.23076 z" />
    </g>
    <path
       style="fill:#fcfcfc;fill-opacity:1;stroke:none"
       d="m 5.4395973,27.310346 c -0.094094,-0.05132 -0.192532,-0.169932 -0.21875,-0.263596 -0.026218,-0.09366 -0.047669,-3.326324 -0.047669,-7.183689 0,-6.649273 0.00579,-7.019192 0.1115963,-7.125002 0.1055124,-0.10552 0.4717951,-0.112503 6.7181298,-0.12808 l 6.606533,-0.01647 -0.491517,0.494418 -0.491518,0.494417 -0.208978,-0.08732 c -0.173185,-0.07236 -1.091824,-0.08732 -5.363169,-0.08732 -3.4825142,0 -5.2112537,0.02151 -5.330133,0.06633 -0.2616699,0.09865 -0.5751434,0.429597 -0.6449562,0.680897 -0.038338,0.138002 -0.061154,2.354073 -0.060516,5.877773 9.711e-4,5.355099 0.00714,5.669557 0.1158244,5.90625 0.1406915,0.306381 0.3012476,0.454622 0.6126921,0.565699 0.3520435,0.125554 10.249981,0.125554 10.602025,0 0.311444,-0.111077 0.472,-0.259318 0.612692,-0.565699 0.107397,-0.233882 0.114888,-0.497976 0.116173,-4.09543 l 0.0014,-3.845423 0.438607,-0.435248 0.438604,-0.435243 -0.01671,5.012831 c -0.01574,4.715993 -0.02334,5.019441 -0.128328,5.124419 -0.105527,0.105524 -0.467456,0.11233 -6.65625,0.125186 -5.7029376,0.01185 -6.5666558,0.0016 -6.7157337,-0.07971 l 0,0 z M 18.266928,26.720207 c 0,-0.04125 -2.125,-0.0625 -6.25,-0.0625 -4.1249999,0 -6.2499999,0.02125 -6.2499999,0.0625 0,0.04125 2.125,0.0625 6.2499999,0.0625 4.125,0 6.25,-0.02125 6.25,-0.0625 z"
       id="path5160" />
  </g>
</svg>
