<?xml version="1.0" encoding="UTF-8" standalone="no"?>
<!-- Created with Inkscape (http://www.inkscape.org/) -->

<svg
   xmlns:dc="http://purl.org/dc/elements/1.1/"
   xmlns:cc="http://creativecommons.org/ns#"
   xmlns:rdf="http://www.w3.org/1999/02/22-rdf-syntax-ns#"
   xmlns:svg="http://www.w3.org/2000/svg"
   xmlns="http://www.w3.org/2000/svg"
   xmlns:xlink="http://www.w3.org/1999/xlink"
   xmlns:sodipodi="http://sodipodi.sourceforge.net/DTD/sodipodi-0.dtd"
   xmlns:inkscape="http://www.inkscape.org/namespaces/inkscape"
   height="22"
   id="svg11300"
   inkscape:export-filename="/home/jimmac/Desktop/wi-fi.png"
   inkscape:export-xdpi="90.000000"
   inkscape:export-ydpi="90.000000"
   inkscape:output_extension="org.inkscape.output.svg.inkscape"
   inkscape:version="0.47 r22583"
   sodipodi:docname="gnome-dark.svg"
   sodipodi:version="0.32"
   style="display:inline;enable-background:new"
   version="1.0"
   width="22">
  <title
     id="title8836">Optical Drive</title>
  <metadata
     id="metadata154">
    <rdf:RDF>
      <cc:Work
         rdf:about="">
        <dc:format>image/svg+xml</dc:format>
        <dc:type
           rdf:resource="http://purl.org/dc/dcmitype/StillImage" />
        <dc:title>Optical Drive</dc:title>
        <dc:creator>
          <cc:Agent>
            <dc:title />
          </cc:Agent>
        </dc:creator>
        <dc:contributor>
          <cc:Agent>
            <dc:title />
          </cc:Agent>
        </dc:contributor>
        <dc:source />
        <cc:license
           rdf:resource="" />
        <dc:subject>
          <rdf:Bag />
        </dc:subject>
      </cc:Work>
    </rdf:RDF>
  </metadata>
  <sodipodi:namedview
     bordercolor="#666666"
     borderopacity="0.25490196"
     fill="#f57900"
     gridtolerance="12"
     guidetolerance="13"
     height="300px"
     id="base"
     inkscape:current-layer="layer2"
     inkscape:cx="6.5185185"
     inkscape:cy="11"
     inkscape:document-units="px"
     inkscape:grid-bbox="true"
     inkscape:guide-bbox="true"
     inkscape:pageopacity="0.0"
     inkscape:pageshadow="2"
     inkscape:showpageshadow="false"
     inkscape:snap-bbox="true"
     inkscape:snap-nodes="true"
     inkscape:window-height="998"
     inkscape:window-width="1680"
     inkscape:window-x="0"
     inkscape:window-y="24"
     inkscape:zoom="34.363636"
     objecttolerance="7"
     pagecolor="#ffffff"
     showgrid="false"
     showguides="true"
     stroke="#ef2929"
     width="400px"
     inkscape:window-maximized="1">
    <inkscape:grid
       empspacing="2"
       enabled="true"
       id="grid5883"
       spacingx="0.5px"
       spacingy="0.5px"
       type="xygrid"
       visible="true"
       snapvisiblegridlinesonly="true" />
  </sodipodi:namedview>
  <defs
     id="defs3">
    <linearGradient
       id="linearGradient3707">
      <stop
         style="stop-color:#ffffff;stop-opacity:1;"
         offset="0"
         id="stop3709" />
      <stop
         style="stop-color:#e6e6e6;stop-opacity:1;"
         offset="1"
         id="stop3711" />
    </linearGradient>
    <inkscape:perspective
       sodipodi:type="inkscape:persp3d"
       inkscape:vp_x="0 : 150 : 1"
       inkscape:vp_y="0 : 1000 : 0"
       inkscape:vp_z="400 : 150 : 1"
       inkscape:persp3d-origin="200 : 100 : 1"
       id="perspective149" />
    <linearGradient
       id="linearGradient2796">
      <stop
         id="stop2798"
         offset="0"
         style="stop-color:#2e3436;stop-opacity:1;" />
      <stop
         id="stop2800"
         offset="1"
         style="stop-color:#2e3436;stop-opacity:0;" />
    </linearGradient>
    <linearGradient
       id="linearGradient3052">
      <stop
         id="stop3054"
         offset="0"
         style="stop-color:#555753;stop-opacity:1" />
      <stop
         id="stop3056"
         offset="1"
         style="stop-color:#2e3436;stop-opacity:1" />
    </linearGradient>
    <linearGradient
       id="linearGradient3013">
      <stop
         id="stop3015"
         offset="0"
         style="stop-color:#2d2d2d;stop-opacity:1;" />
      <stop
         id="stop3017"
         offset="1"
         style="stop-color:white;stop-opacity:1" />
    </linearGradient>
    <linearGradient
       id="linearGradient7320">
      <stop
         id="stop7322"
         offset="0"
         style="stop-color:#555753;stop-opacity:1;" />
      <stop
         id="stop7324"
         offset="1"
         style="stop-color:#2e3436;stop-opacity:1;" />
    </linearGradient>
    <linearGradient
       id="linearGradient6425">
      <stop
         id="stop6427"
         offset="0"
         style="stop-color:#2e3436;stop-opacity:1" />
      <stop
         id="stop6429"
         offset="1"
         style="stop-color:white;stop-opacity:1;" />
    </linearGradient>
    <linearGradient
       id="linearGradient2890">
      <stop
         id="stop2892"
         offset="0"
         style="stop-color:#555753;stop-opacity:1;" />
      <stop
         id="stop2894"
         offset="1"
         style="stop-color:#2e3436;stop-opacity:1" />
    </linearGradient>
    <linearGradient
       id="linearGradient2876">
      <stop
         id="stop2878"
         offset="0"
         style="stop-color:#555753;stop-opacity:1;" />
      <stop
         id="stop2880"
         offset="1"
         style="stop-color:white;stop-opacity:1;" />
    </linearGradient>
    <linearGradient
       inkscape:collect="always"
       xlink:href="#linearGradient3707"
       id="linearGradient3713"
       x1="6.995698"
       y1="1.00001"
       x2="6.995698"
       y2="15.00001"
       gradientUnits="userSpaceOnUse" />
    <linearGradient
       inkscape:collect="always"
       xlink:href="#linearGradient3707"
       id="linearGradient3721"
       x1="6.995698"
       y1="1.00001"
       x2="6.995698"
       y2="15.00001"
       gradientUnits="userSpaceOnUse" />
    <linearGradient
       inkscape:collect="always"
       xlink:href="#linearGradient3707"
       id="linearGradient3723"
       gradientUnits="userSpaceOnUse"
       x1="6.995698"
       y1="1.00001"
       x2="6.995698"
       y2="15.00001" />
    <linearGradient
       inkscape:collect="always"
       xlink:href="#linearGradient3707"
       id="linearGradient3725"
       gradientUnits="userSpaceOnUse"
       x1="6.995698"
       y1="1.00001"
       x2="6.995698"
       y2="15.00001" />
    <linearGradient
       inkscape:collect="always"
       xlink:href="#linearGradient3707"
       id="linearGradient3727"
       gradientUnits="userSpaceOnUse"
       x1="6.995698"
       y1="1.00001"
       x2="6.995698"
       y2="15.00001" />
    <linearGradient
       inkscape:collect="always"
       xlink:href="#linearGradient3707"
       id="linearGradient3729"
       gradientUnits="userSpaceOnUse"
       x1="6.995698"
       y1="1.00001"
       x2="6.995698"
       y2="15.00001" />
    <linearGradient
       inkscape:collect="always"
       xlink:href="#linearGradient3707"
       id="linearGradient3731"
       gradientUnits="userSpaceOnUse"
       x1="6.995698"
       y1="1.00001"
       x2="6.995698"
       y2="15.00001" />
    <linearGradient
       inkscape:collect="always"
       xlink:href="#linearGradient3707"
       id="linearGradient3733"
       gradientUnits="userSpaceOnUse"
       x1="6.995698"
       y1="1.00001"
       x2="6.995698"
       y2="15.00001" />
    <linearGradient
       inkscape:collect="always"
       xlink:href="#linearGradient3707"
       id="linearGradient3735"
       gradientUnits="userSpaceOnUse"
       x1="6.995698"
       y1="1.00001"
       x2="6.995698"
       y2="15.00001" />
    <linearGradient
       inkscape:collect="always"
       xlink:href="#linearGradient3707"
       id="linearGradient3737"
       gradientUnits="userSpaceOnUse"
       x1="6.995698"
       y1="1.00001"
       x2="6.995698"
       y2="15.00001" />
    <linearGradient
       inkscape:collect="always"
       xlink:href="#linearGradient3707"
       id="linearGradient3739"
       gradientUnits="userSpaceOnUse"
       x1="6.995698"
       y1="1.00001"
       x2="6.995698"
       y2="15.00001" />
    <linearGradient
       inkscape:collect="always"
       xlink:href="#linearGradient3707"
       id="linearGradient3741"
       gradientUnits="userSpaceOnUse"
       x1="6.995698"
       y1="1.00001"
       x2="6.995698"
       y2="15.00001" />
    <linearGradient
       inkscape:collect="always"
       xlink:href="#linearGradient3707"
       id="linearGradient3743"
       gradientUnits="userSpaceOnUse"
       x1="6.995698"
       y1="1.00001"
       x2="6.995698"
       y2="15.00001" />
    <linearGradient
       inkscape:collect="always"
       xlink:href="#linearGradient3707"
       id="linearGradient3745"
       gradientUnits="userSpaceOnUse"
       x1="6.995698"
       y1="1.00001"
       x2="6.995698"
       y2="15.00001" />
  </defs>
  <g
     id="layer6"
     inkscape:groupmode="layer"
     inkscape:label="baseplate"
     style="display:none"
     sodipodi:insensitive="true"
     transform="translate(-303.99934,-213.00001)">
    <rect
       height="48"
       id="rect6284"
       inkscape:label="48x48"
       style="fill:#eeeeec;fill-opacity:1;fill-rule:nonzero;stroke:none;stroke-width:2;marker:none;visibility:visible;display:inline;overflow:visible;enable-background:accumulate"
       width="48"
       x="296"
       y="50" />
    <rect
       height="32"
       id="rect6592"
       inkscape:label="32x32"
       style="fill:#eeeeec;fill-opacity:1;fill-rule:nonzero;stroke:none;stroke-width:2;marker:none;visibility:visible;display:inline;overflow:visible;enable-background:accumulate"
       width="32"
       x="303"
       y="126" />
    <rect
       height="22"
       id="rect6749"
       inkscape:label="22x22"
       style="fill:#eeeeec;fill-opacity:1;fill-rule:nonzero;stroke:none;stroke-width:2;marker:none;visibility:visible;display:inline;overflow:visible;enable-background:accumulate"
       width="22"
       x="303"
       y="177" />
    <rect
       height="16"
       id="rect6833"
       inkscape:label="16x16"
       style="fill:#eeeeec;fill-opacity:1;fill-rule:nonzero;stroke:none;stroke-width:2;marker:none;visibility:visible;display:inline;overflow:visible;enable-background:accumulate"
       width="16"
       x="303"
       y="219" />
    <text
       id="context"
       inkscape:label="context"
       style="font-size:18.30070686px;font-style:normal;font-weight:normal;fill:#000000;fill-opacity:1;stroke:none;display:inline;enable-background:new;font-family:Bitstream Vera Sans"
       x="20.970737"
       xml:space="preserve"
       y="21.513618"><tspan
         id="tspan2716"
         sodipodi:role="line"
         x="20.970737"
         y="21.513618">places</tspan></text>
    <text
       id="icon-name"
       inkscape:label="icon-name"
       sodipodi:linespacing="125%"
       style="font-size:18.30070686px;font-style:normal;font-variant:normal;font-weight:bold;font-stretch:normal;text-align:start;line-height:125%;writing-mode:lr-tb;text-anchor:start;fill:#000000;fill-opacity:1;stroke:none;display:inline;enable-background:new;font-family:Droid Sans;-inkscape-font-specification:Droid Sans Bold"
       x="191.97073"
       xml:space="preserve"
       y="21.513618"><tspan
         id="tspan3023"
         sodipodi:role="line"
         x="191.97073"
         y="21.513618">start-here</tspan></text>
  </g>
  <g
     id="layer2"
     inkscape:groupmode="layer"
     inkscape:label="small sizes"
     style="display:inline"
     transform="translate(-303.99934,-213.00001)">
    <g
       transform="matrix(1.1191248,0,0,1.1410983,306.32611,215.8534)"
       style="opacity:0.50000000000000000;fill:#000000;fill-opacity:1;stroke:#000000;display:inline;enable-background:new;stroke-opacity:1"
       id="g3747">
      <g
         style="opacity:0.50000000000000000;fill:#000000;fill-opacity:1;stroke:#000000;stroke-opacity:1"
         id="g3749" />
      <path
         style="fill:#000000;fill-opacity:1;fill-rule:nonzero;stroke:#000000;stroke-width:0.99639422000000000;stroke-miterlimit:4;stroke-dasharray:none;stroke-opacity:1"
         id="path3751"
         d="m 12.584774,1.4981912 c -2.223946,0 -2.641128,3.0036128 -1.390034,3.0036128 1.250914,0 3.614071,-3.0036128 1.390034,-3.0036128 z" />
      <path
         style="fill:#000000;fill-opacity:1;fill-rule:nonzero;stroke:#000000;stroke-opacity:1"
         id="path3753"
         d="M 7.8980615,4.9993772 C 8.8171266,5.05265 9.8254911,1.6702087 8.0981127,1.8829428 6.3713584,2.0956769 6.9786221,4.946105 7.8980615,4.9993772 z" />
      <path
         style="fill:#000000;fill-opacity:1;fill-rule:nonzero;stroke:#000000;stroke-opacity:1"
         id="path3755"
         d="M 3.4277592,6.736009 C 4.0814192,6.4628997 3.5119459,3.791585 2.4004371,4.5201145 1.2894274,5.2487625 2.7740992,7.0090005 3.4277592,6.736009 z" />
      <path
         style="fill:#000000;fill-opacity:1;fill-rule:nonzero;stroke:#000000;stroke-opacity:1"
         id="path3757"
         d="M 5.4592103,5.3377869 C 6.2373407,5.1872032 6.2799953,2.1575436 4.8923554,2.7010405 3.5044662,3.2446552 4.6817024,5.4886065 5.4592103,5.3377869 l 0,0 z" />
      <path
         style="fill:#000000;fill-opacity:1;fill-rule:nonzero;stroke:#000000;stroke-width:1;stroke-linejoin:round;stroke-miterlimit:4;stroke-dasharray:none;stroke-opacity:1"
         sodipodi:type="inkscape:offset"
         inkscape:radius="-0.48384476"
         inkscape:original="M 7.5625 6.125 C 5.5631498 6.4590346 3.4824223 7.5101462 3.0625 9.28125 C 2.4940104 11.677242 5.4026231 15 8.4375 15 C 9.9305033 15 11.67782 13.733453 12 12.125 C 12.246065 10.898467 9.1058589 11.375909 9.21875 12.1875 C 9.3539997 13.160304 8.4370432 13.658382 7.5625 13.03125 C 4.7784526 11.034896 12.174864 10.04001 11.6875 7.3125 C 11.485236 6.180554 9.5618502 5.7909654 7.5625 6.125 z "
         id="path3759"
         d="M 9,6.5 C 8.5672528,6.4931254 8.1285732,6.5148382 7.65625,6.59375 6.7110269,6.7516699 5.7196119,7.0824394 4.96875,7.5625 4.2178881,8.0425606 3.7047821,8.6743445 3.53125,9.40625 c -0.2298563,0.968767 0.2592721,2.265236 1.21875,3.3125 0.9594779,1.047264 2.3466419,1.8125 3.6875,1.8125 0.609683,0 1.3488739,-0.290884 1.9375,-0.75 0.588626,-0.459116 1.02344,-1.086959 1.15625,-1.75 0.01183,-0.05899 -0.0026,-0.0356 0,-0.03125 0.0026,0.0044 0.0031,-0.03326 -0.0625,-0.0625 -0.131159,-0.05848 -0.434409,-0.09128 -0.75,-0.0625 -0.315591,0.02878 -0.64636,0.118339 -0.84375,0.21875 -0.098695,0.05021 -0.1741637,0.109205 -0.1875,0.125 C 9.7367214,12.826895 9.4817218,13.373801 9,13.625 8.4925193,13.889632 7.8328972,13.833084 7.28125,13.4375 6.884286,13.152849 6.6100793,12.846541 6.5,12.46875 c -0.1100793,-0.377791 0.016763,-0.776549 0.21875,-1.0625 0.4039744,-0.571901 1.0869299,-0.952203 1.8125,-1.375 0.7255701,-0.4227966 1.477728,-0.856128 2,-1.3125 0.522272,-0.456372 0.77117,-0.8442465 0.6875,-1.3125 C 11.162641,7.0922422 10.85007,6.7977622 10.1875,6.625 9.8562148,6.5386189 9.4327472,6.5068746 9,6.5 z" />
    </g>
    <g
       id="g16"
       style="opacity:1;fill:url(#linearGradient3713);fill-opacity:1;stroke:url(#linearGradient3721);display:inline;enable-background:new"
       transform="matrix(1.1191248,0,0,1.1410983,306.32611,214.8534)">
      <g
         id="g2886"
         style="opacity:0.50000000000000000;fill:url(#linearGradient3723);fill-opacity:1;stroke:url(#linearGradient3725)" />
      <path
         d="m 12.584774,1.4981912 c -2.223946,0 -2.641128,3.0036128 -1.390034,3.0036128 1.250914,0 3.614071,-3.0036128 1.390034,-3.0036128 z"
         id="path147"
         style="fill:url(#linearGradient3727);fill-opacity:1;fill-rule:nonzero;stroke:url(#linearGradient3729);stroke-width:0.99639422000000000;stroke-miterlimit:4;stroke-dasharray:none" />
      <path
         d="M 7.8980615,4.9993772 C 8.8171266,5.05265 9.8254911,1.6702087 8.0981127,1.8829428 6.3713584,2.0956769 6.9786221,4.946105 7.8980615,4.9993772 z"
         id="path149"
         style="fill:url(#linearGradient3731);fill-opacity:1;fill-rule:nonzero;stroke:url(#linearGradient3733)" />
      <path
         d="M 3.4277592,6.736009 C 4.0814192,6.4628997 3.5119459,3.791585 2.4004371,4.5201145 1.2894274,5.2487625 2.7740992,7.0090005 3.4277592,6.736009 z"
         id="path151"
         style="fill:url(#linearGradient3735);fill-opacity:1;fill-rule:nonzero;stroke:url(#linearGradient3737)" />
      <path
         d="M 5.4592103,5.3377869 C 6.2373407,5.1872032 6.2799953,2.1575436 4.8923554,2.7010405 3.5044662,3.2446552 4.6817024,5.4886065 5.4592103,5.3377869 l 0,0 z"
         id="path153"
         style="fill:url(#linearGradient3739);fill-opacity:1;fill-rule:nonzero;stroke:url(#linearGradient3741)" />
      <path
         d="M 9,6.5 C 8.5672528,6.4931254 8.1285732,6.5148382 7.65625,6.59375 6.7110269,6.7516699 5.7196119,7.0824394 4.96875,7.5625 4.2178881,8.0425606 3.7047821,8.6743445 3.53125,9.40625 c -0.2298563,0.968767 0.2592721,2.265236 1.21875,3.3125 0.9594779,1.047264 2.3466419,1.8125 3.6875,1.8125 0.609683,0 1.3488739,-0.290884 1.9375,-0.75 0.588626,-0.459116 1.02344,-1.086959 1.15625,-1.75 0.01183,-0.05899 -0.0026,-0.0356 0,-0.03125 0.0026,0.0044 0.0031,-0.03326 -0.0625,-0.0625 -0.131159,-0.05848 -0.434409,-0.09128 -0.75,-0.0625 -0.315591,0.02878 -0.64636,0.118339 -0.84375,0.21875 -0.098695,0.05021 -0.1741637,0.109205 -0.1875,0.125 C 9.7367214,12.826895 9.4817218,13.373801 9,13.625 8.4925193,13.889632 7.8328972,13.833084 7.28125,13.4375 6.884286,13.152849 6.6100793,12.846541 6.5,12.46875 c -0.1100793,-0.377791 0.016763,-0.776549 0.21875,-1.0625 0.4039744,-0.571901 1.0869299,-0.952203 1.8125,-1.375 0.7255701,-0.4227966 1.477728,-0.856128 2,-1.3125 0.522272,-0.456372 0.77117,-0.8442465 0.6875,-1.3125 C 11.162641,7.0922422 10.85007,6.7977622 10.1875,6.625 9.8562148,6.5386189 9.4327472,6.5068746 9,6.5 z"
         id="path1934"
         inkscape:original="M 7.5625 6.125 C 5.5631498 6.4590346 3.4824223 7.5101462 3.0625 9.28125 C 2.4940104 11.677242 5.4026231 15 8.4375 15 C 9.9305033 15 11.67782 13.733453 12 12.125 C 12.246065 10.898467 9.1058589 11.375909 9.21875 12.1875 C 9.3539997 13.160304 8.4370432 13.658382 7.5625 13.03125 C 4.7784526 11.034896 12.174864 10.04001 11.6875 7.3125 C 11.485236 6.180554 9.5618502 5.7909654 7.5625 6.125 z "
         inkscape:radius="-0.48384476"
         sodipodi:type="inkscape:offset"
         style="fill:url(#linearGradient3743);fill-opacity:1;fill-rule:nonzero;stroke:url(#linearGradient3745);stroke-width:1;stroke-linejoin:round;stroke-miterlimit:4;stroke-dasharray:none" />
    </g>
  </g>
  <g
     id="layer4"
     inkscape:groupmode="layer"
     inkscape:label="hires"
     style="display:inline"
     transform="translate(-303.99934,-213.00001)" />
</svg>
