<?xml version="1.0" encoding="UTF-8" standalone="no"?>
<!-- Created with Inkscape (http://www.inkscape.org/) -->

<svg
   xmlns:dc="http://purl.org/dc/elements/1.1/"
   xmlns:cc="http://creativecommons.org/ns#"
   xmlns:rdf="http://www.w3.org/1999/02/22-rdf-syntax-ns#"
   xmlns:svg="http://www.w3.org/2000/svg"
   xmlns="http://www.w3.org/2000/svg"
   xmlns:xlink="http://www.w3.org/1999/xlink"
   xmlns:sodipodi="http://sodipodi.sourceforge.net/DTD/sodipodi-0.dtd"
   xmlns:inkscape="http://www.inkscape.org/namespaces/inkscape"
   width="22"
   height="22"
   id="svg3128"
   sodipodi:version="0.32"
   inkscape:version="0.47 r22583"
   sodipodi:docname="start-here-branding-2.svg"
   inkscape:output_extension="org.inkscape.output.svg.inkscape"
   version="1.1">
  <defs
     id="defs3">
    <linearGradient
       id="linearGradient3743">
      <stop
         style="stop-color:#ffffff;stop-opacity:1;"
         offset="0"
         id="stop3745" />
      <stop
         style="stop-color:#e6e6e6;stop-opacity:1;"
         offset="1"
         id="stop3747" />
    </linearGradient>
    <inkscape:perspective
       sodipodi:type="inkscape:persp3d"
       inkscape:vp_x="0 : 24 : 1"
       inkscape:vp_y="0 : 1000 : 0"
       inkscape:vp_z="48 : 24 : 1"
       inkscape:persp3d-origin="24 : 16 : 1"
       id="perspective93" />
    <linearGradient
       inkscape:collect="always"
       id="linearGradient5966">
      <stop
         style="stop-color:#ffffff;stop-opacity:1;"
         offset="0"
         id="stop5968" />
      <stop
         style="stop-color:#ffffff;stop-opacity:0;"
         offset="1"
         id="stop5970" />
    </linearGradient>
    <linearGradient
       id="linearGradient5775">
      <stop
         style="stop-color:#aef16e;stop-opacity:1;"
         offset="0"
         id="stop5777" />
      <stop
         style="stop-color:#518417;stop-opacity:1"
         offset="1"
         id="stop5779" />
    </linearGradient>
    <linearGradient
       id="linearGradient5742">
      <stop
         style="stop-color:#73d216;stop-opacity:1;"
         offset="0"
         id="stop5744" />
      <stop
         id="stop5750"
         offset="0.81566811"
         style="stop-color:#4a890d;stop-opacity:1;" />
      <stop
         style="stop-color:#76d715;stop-opacity:1;"
         offset="1"
         id="stop5746" />
    </linearGradient>
    <linearGradient
       id="linearGradient3974">
      <stop
         style="stop-color:#ffffff;stop-opacity:0.91503268;"
         offset="0"
         id="stop3976" />
      <stop
         style="stop-color:#ffffff;stop-opacity:0.079207920;"
         offset="1.0000000"
         id="stop3978" />
    </linearGradient>
    <linearGradient
       inkscape:collect="always"
       id="linearGradient3950">
      <stop
         style="stop-color:#000000;stop-opacity:1;"
         offset="0"
         id="stop3952" />
      <stop
         style="stop-color:#000000;stop-opacity:0;"
         offset="1"
         id="stop3954" />
    </linearGradient>
    <linearGradient
       id="linearGradient3942">
      <stop
         style="stop-color:#b3b3b3;stop-opacity:1.0000000;"
         offset="0.0000000"
         id="stop3944" />
      <stop
         style="stop-color:#535353;stop-opacity:1.0000000;"
         offset="1.0000000"
         id="stop3946" />
    </linearGradient>
    <linearGradient
       id="linearGradient3924">
      <stop
         style="stop-color:#85d72a;stop-opacity:1.0000000;"
         offset="0.0000000"
         id="stop3926" />
      <stop
         style="stop-color:#3e6514;stop-opacity:1.0000000;"
         offset="1.0000000"
         id="stop3928" />
    </linearGradient>
    <linearGradient
       id="linearGradient3914">
      <stop
         style="stop-color:#ffffff;stop-opacity:1;"
         offset="0"
         id="stop3916" />
      <stop
         style="stop-color:#ffffff;stop-opacity:1.0000000;"
         offset="0.28787878"
         id="stop4076" />
      <stop
         style="stop-color:#cdcdcd;stop-opacity:1.0000000;"
         offset="0.61157024"
         id="stop4074" />
      <stop
         style="stop-color:#ffffff;stop-opacity:1.0000000;"
         offset="1.0000000"
         id="stop3918" />
    </linearGradient>
    <radialGradient
       inkscape:collect="always"
       xlink:href="#linearGradient3924"
       id="radialGradient3930"
       gradientTransform="scale(0.999987,1.000013)"
       cx="16.105524"
       cy="14.753099"
       fx="16.105524"
       fy="14.753099"
       r="48.359806"
       gradientUnits="userSpaceOnUse" />
    <radialGradient
       inkscape:collect="always"
       xlink:href="#linearGradient3950"
       id="radialGradient3956"
       gradientTransform="scale(0.999978,1.000022)"
       cx="25.076332"
       cy="24.440212"
       fx="25.076332"
       fy="24.440212"
       r="25.745426"
       gradientUnits="userSpaceOnUse" />
    <radialGradient
       inkscape:collect="always"
       xlink:href="#linearGradient5966"
       id="radialGradient5976"
       gradientUnits="userSpaceOnUse"
       gradientTransform="matrix(2.4299935,-6.5025315e-8,2.5507983e-8,0.9525564,-36.907269,0.2703136)"
       cx="25.809397"
       cy="5.6975412"
       fx="25.809397"
       fy="5.6975412"
       r="20.682873" />
    <linearGradient
       inkscape:collect="always"
       xlink:href="#linearGradient3743"
       id="linearGradient3749"
       x1="14.530404"
       y1="18.860891"
       x2="14.530404"
       y2="34.361237"
       gradientUnits="userSpaceOnUse" />
    <linearGradient
       inkscape:collect="always"
       xlink:href="#linearGradient3743"
       id="linearGradient3751"
       gradientUnits="userSpaceOnUse"
       x1="18.826626"
       y1="-16.605858"
       x2="18.826626"
       y2="74.969551" />
    <linearGradient
       inkscape:collect="always"
       xlink:href="#linearGradient3743"
       id="linearGradient3753"
       gradientUnits="userSpaceOnUse"
       x1="11.890625"
       y1="3.2500005"
       x2="11.890625"
       y2="18.750347" />
  </defs>
  <sodipodi:namedview
     id="base"
     pagecolor="#ffffff"
     bordercolor="#d8d8d8"
     borderopacity="1"
     inkscape:pageopacity="0.0"
     inkscape:pageshadow="2"
     inkscape:zoom="34.363636"
     inkscape:cx="11"
     inkscape:cy="11"
     inkscape:current-layer="layer1"
     showgrid="true"
     inkscape:grid-bbox="true"
     inkscape:document-units="px"
     inkscape:window-width="1680"
     inkscape:window-height="998"
     inkscape:window-x="0"
     inkscape:window-y="24"
     borderlayer="true"
     inkscape:showpageshadow="true"
     inkscape:window-maximized="1">
    <inkscape:grid
       type="xygrid"
       id="grid5055"
       empspacing="5"
       visible="true"
       enabled="true"
       snapvisiblegridlinesonly="true" />
  </sodipodi:namedview>
  <metadata
     id="metadata4">
    <rdf:RDF>
      <cc:Work
         rdf:about="">
        <dc:format>image/svg+xml</dc:format>
        <dc:type
           rdf:resource="http://purl.org/dc/dcmitype/StillImage" />
        <dc:title></dc:title>
        <dc:creator>
          <cc:Agent>
            <dc:title>Jakub Steiner</dc:title>
          </cc:Agent>
        </dc:creator>
        <dc:source>http://jimmac.musichall.cz</dc:source>
      </cc:Work>
    </rdf:RDF>
  </metadata>
  <g
     id="layer1"
     inkscape:label="Icon Base"
     inkscape:groupmode="layer"
     transform="translate(-2.6397789,-15.61089)">
    <g
       style="opacity:0.50000000000000000;fill:#000000;fill-opacity:1;stroke:none"
       transform="matrix(1.015873,0,0,1.032235,-2.1212662,0.14201869)"
       id="g3755">
      <path
         style="font-size:20.48839951000000070px;fill:#000000;fill-opacity:1;fill-rule:nonzero;stroke:none;font-family:TrebuchetMS-Bold"
         d="M 5.53125,3.25 5.46875,3.28125 5.4375,3.3125 c 0,0 -0.027887,1.63314 -0.03125,1.8125 C 5.3568479,5.109397 5.0884745,5.0257479 5,5 l 0,13.34375 c 0.6089019,0.0095 1.285246,0.106341 2.03125,0.1875 0.8436847,0.0916 1.78856,0.197609 2.78125,0.21875 2.773353,0.01538 5.752007,-0.481957 7.59375,-1.25 1.19069,-0.498366 1.960956,-0.804941 2.4375,-1.21875 0.171823,-0.134519 0.283047,-0.391833 0.375,-0.625 l 0.03125,-0.125 c 0.07719,-0.188326 0.200331,-0.591504 0.25,-0.8125 0.02215,-0.09673 0.04057,-0.19619 -0.03125,-0.25 L 20.21875,14.5 C 19.410638,14.962493 17.391411,15.839125 15.5,15.875 13.156205,15.92176 8.430153,13.617776 7.9375,13.375 L 7.875,13.3125 C 7.75687,13.043461 7.0559253,11.461938 6.90625,11.125 c 3.400245,2.136943 6.214441,3.316155 8.375,3.5 2.402187,0.203701 4.261101,-1.058873 5.0625,-1.59375 0.156388,-0.101852 0.294754,-0.170203 0.34375,-0.1875 L 20.75,12.75 C 20.617103,11.944162 19.355312,8.061515 18.40625,7.125 18.143144,6.868131 17.924863,6.613292 17.5,6.375 14.064853,4.464177 5.9131554,3.303167 5.53125,3.25 z M 14.375,7.03125 c 1.656798,0 3,1.267475 3,2.84375 0,1.576276 -1.343202,2.875 -3,2.875 -1.656798,0 -3,-1.298724 -3,-2.875 0,-1.576275 1.343202,-2.84375 3,-2.84375 z"
         transform="translate(2.6397789,15.61089)"
         id="path3757" />
      <path
         transform="matrix(0.29177552,0,0,0.1692632,9.0372553,21.671651)"
         d="m 34.75,19.75 c 0,2.968531 -2.406469,5.375 -5.375,5.375 -2.968531,0 -5.375,-2.406469 -5.375,-5.375 0,-2.968531 2.406469,-5.375 5.375,-5.375 2.968531,0 5.375,2.406469 5.375,5.375 z"
         sodipodi:ry="5.375"
         sodipodi:rx="5.375"
         sodipodi:cy="19.75"
         sodipodi:cx="29.375"
         id="path3759"
         style="fill:#000000;fill-opacity:1;fill-rule:nonzero;stroke:none;stroke-width:1.50437963000000008;marker:none;visibility:visible;display:inline;overflow:visible;enable-background:accumulate"
         sodipodi:type="arc" />
    </g>
    <g
       transform="matrix(0.5338474,0,0,0.5338474,33.37654,14.532414)"
       style="fill:#000000;fill-opacity:1;stroke:none;stroke-opacity:1"
       id="g3719">
      <path
         style="font-size:20.48839951000000070px;fill:#000000;fill-opacity:1;fill-rule:nonzero;stroke:none;stroke-width:0.97044224000000001;stroke-miterlimit:4;stroke-opacity:1;font-family:TrebuchetMS-Bold"
         d="M 12.71875,8.125 12.59375,8.15625 12.5625,8.25 c 0,0 -0.0562,3.007774 -0.0625,3.34375 C 12.026064,11.444063 10.542031,11.030938 8.5625,10.5 5.1865508,14.020658 3.125,18.6955 3.125,23.84375 c 0,5.05551 1.9822399,9.657695 5.25,13.15625 1.628301,-0.870534 4.133252,-0.610127 7.15625,-0.28125 1.580386,0.171588 3.359247,0.36665 5.21875,0.40625 5.195028,0.0288 10.800057,-0.873805 14.25,-2.3125 2.230395,-0.933535 3.63859,-1.537357 4.53125,-2.3125 0.321859,-0.251981 0.515255,-0.688233 0.6875,-1.125 l 0.09375,-0.28125 c 0.144586,-0.35277 0.37571,-1.117282 0.46875,-1.53125 0.04149,-0.181188 0.04078,-0.367953 -0.09375,-0.46875 l -0.46875,0.0625 C 38.704999,30.022588 34.91798,31.6828 31.375,31.75 26.984617,31.837593 18.141585,27.548516 17.21875,27.09375 l -0.09375,-0.125 c -0.22128,-0.503963 -1.532129,-3.493848 -1.8125,-4.125 6.369319,4.002911 11.640352,6.218123 15.6875,6.5625 4.499763,0.381571 7.998823,-1.966821 9.5,-2.96875 0.292945,-0.190787 0.53322,-0.3426 0.625,-0.375 l 0.09375,-0.15625 c -0.248942,-1.509493 -2.597222,-8.808226 -4.375,-10.5625 -0.492849,-0.481165 -0.89165,-0.928632 -1.6875,-1.375 C 28.721551,10.389408 13.434133,8.224592 12.71875,8.125 z m 16.59375,7.0625 c 3.103505,0 5.625,2.391079 5.625,5.34375 0,2.952671 -2.521495,5.34375 -5.625,5.34375 -3.103505,0 -5.625,-2.391079 -5.625,-5.34375 0,-2.952671 2.521495,-5.34375 5.625,-5.34375 z"
         id="path3721" />
      <path
         transform="matrix(0.5465523,0,0,0.3170629,14.35001,13.37318)"
         d="m 34.75,19.75 c 0,2.968531 -2.406469,5.375 -5.375,5.375 -2.968531,0 -5.375,-2.406469 -5.375,-5.375 0,-2.968531 2.406469,-5.375 5.375,-5.375 2.968531,0 5.375,2.406469 5.375,5.375 z"
         sodipodi:ry="5.375"
         sodipodi:rx="5.375"
         sodipodi:cy="19.75"
         sodipodi:cx="29.375"
         id="path3723"
         style="fill:#000000;fill-opacity:1;fill-rule:nonzero;stroke:none;stroke-width:1.50437963000000008;stroke-opacity:1;marker:none;visibility:visible;display:inline;overflow:visible;enable-background:accumulate"
         sodipodi:type="arc" />
    </g>
    <g
       id="g3731"
       transform="matrix(1.015873,0,0,1.032235,-2.1212662,-0.85798131)"
       style="fill:url(#linearGradient3749);fill-opacity:1;stroke:none;opacity:1">
      <path
         id="path2441"
         transform="translate(2.6397789,15.61089)"
         d="M 5.53125,3.25 5.46875,3.28125 5.4375,3.3125 c 0,0 -0.027887,1.63314 -0.03125,1.8125 C 5.3568479,5.109397 5.0884745,5.0257479 5,5 l 0,13.34375 c 0.6089019,0.0095 1.285246,0.106341 2.03125,0.1875 0.8436847,0.0916 1.78856,0.197609 2.78125,0.21875 2.773353,0.01538 5.752007,-0.481957 7.59375,-1.25 1.19069,-0.498366 1.960956,-0.804941 2.4375,-1.21875 0.171823,-0.134519 0.283047,-0.391833 0.375,-0.625 l 0.03125,-0.125 c 0.07719,-0.188326 0.200331,-0.591504 0.25,-0.8125 0.02215,-0.09673 0.04057,-0.19619 -0.03125,-0.25 L 20.21875,14.5 C 19.410638,14.962493 17.391411,15.839125 15.5,15.875 13.156205,15.92176 8.430153,13.617776 7.9375,13.375 L 7.875,13.3125 C 7.75687,13.043461 7.0559253,11.461938 6.90625,11.125 c 3.400245,2.136943 6.214441,3.316155 8.375,3.5 2.402187,0.203701 4.261101,-1.058873 5.0625,-1.59375 0.156388,-0.101852 0.294754,-0.170203 0.34375,-0.1875 L 20.75,12.75 C 20.617103,11.944162 19.355312,8.061515 18.40625,7.125 18.143144,6.868131 17.924863,6.613292 17.5,6.375 14.064853,4.464177 5.9131554,3.303167 5.53125,3.25 z M 14.375,7.03125 c 1.656798,0 3,1.267475 3,2.84375 0,1.576276 -1.343202,2.875 -3,2.875 -1.656798,0 -3,-1.298724 -3,-2.875 0,-1.576275 1.343202,-2.84375 3,-2.84375 z"
         style="font-size:20.48839951000000070px;fill:url(#linearGradient3753);fill-opacity:1;fill-rule:nonzero;stroke:none;font-family:TrebuchetMS-Bold" />
      <path
         sodipodi:type="arc"
         style="fill:url(#linearGradient3751);fill-opacity:1;fill-rule:nonzero;stroke:none;stroke-width:1.50437963000000008;marker:none;visibility:visible;display:inline;overflow:visible;enable-background:accumulate"
         id="path5816"
         sodipodi:cx="29.375"
         sodipodi:cy="19.75"
         sodipodi:rx="5.375"
         sodipodi:ry="5.375"
         d="m 34.75,19.75 c 0,2.968531 -2.406469,5.375 -5.375,5.375 -2.968531,0 -5.375,-2.406469 -5.375,-5.375 0,-2.968531 2.406469,-5.375 5.375,-5.375 2.968531,0 5.375,2.406469 5.375,5.375 z"
         transform="matrix(0.29177552,0,0,0.1692632,9.0372553,21.671651)" />
    </g>
  </g>
  <g
     inkscape:groupmode="layer"
     id="layer2"
     inkscape:label="Highlight"
     transform="translate(-2.6397789,-15.61089)" />
  <g
     inkscape:groupmode="layer"
     id="layer3"
     inkscape:label="dots"
     transform="translate(-2.6397789,-15.61089)" />
</svg>
