<?xml version="1.0" encoding="UTF-8" standalone="no"?>
<!-- Created with Inkscape (http://www.inkscape.org/) -->

<svg
   xmlns:dc="http://purl.org/dc/elements/1.1/"
   xmlns:cc="http://creativecommons.org/ns#"
   xmlns:rdf="http://www.w3.org/1999/02/22-rdf-syntax-ns#"
   xmlns:svg="http://www.w3.org/2000/svg"
   xmlns="http://www.w3.org/2000/svg"
   xmlns:xlink="http://www.w3.org/1999/xlink"
   xmlns:sodipodi="http://sodipodi.sourceforge.net/DTD/sodipodi-0.dtd"
   xmlns:inkscape="http://www.inkscape.org/namespaces/inkscape"
   width="22"
   height="22"
   id="svg2942"
   sodipodi:version="0.32"
   inkscape:version="0.47 r22583"
   version="1.0"
   sodipodi:docname="fedora2-xfce4_xicon1.svg"
   inkscape:output_extension="org.inkscape.output.svg.inkscape">
  <defs
     id="defs2944">
    <linearGradient
       id="linearGradient4208">
      <stop
         style="stop-color:#000000;stop-opacity:1;"
         offset="0"
         id="stop4210" />
      <stop
         style="stop-color:#363636;stop-opacity:1;"
         offset="1"
         id="stop4212" />
    </linearGradient>
    <inkscape:perspective
       sodipodi:type="inkscape:persp3d"
       inkscape:vp_x="0 : 24 : 1"
       inkscape:vp_y="0 : 1000 : 0"
       inkscape:vp_z="48 : 24 : 1"
       inkscape:persp3d-origin="24 : 16 : 1"
       id="perspective12" />
    <linearGradient
       inkscape:collect="always"
       xlink:href="#linearGradient4208"
       id="linearGradient4214"
       x1="110.82265"
       y1="11.36687"
       x2="110.82265"
       y2="239.93654"
       gradientUnits="userSpaceOnUse" />
    <linearGradient
       inkscape:collect="always"
       xlink:href="#linearGradient4208"
       id="linearGradient4220"
       gradientUnits="userSpaceOnUse"
       x1="110.82265"
       y1="11.36687"
       x2="110.82265"
       y2="239.93654"
       gradientTransform="matrix(0.07000059,0,0,0.07000054,6.7423462,23.704253)" />
    <linearGradient
       inkscape:collect="always"
       xlink:href="#linearGradient4208"
       id="linearGradient4242"
       gradientUnits="userSpaceOnUse"
       gradientTransform="matrix(0.07000059,0,0,0.07000054,6.7423462,23.704253)"
       x1="110.82265"
       y1="11.36687"
       x2="110.82265"
       y2="239.93654" />
    <linearGradient
       inkscape:collect="always"
       xlink:href="#linearGradient4208"
       id="linearGradient4248"
       gradientUnits="userSpaceOnUse"
       gradientTransform="matrix(0.07000059,0,0,0.07000054,6.7423462,23.704253)"
       x1="110.82265"
       y1="11.36687"
       x2="110.82265"
       y2="239.93654" />
    <linearGradient
       inkscape:collect="always"
       xlink:href="#linearGradient4208"
       id="linearGradient4268"
       gradientUnits="userSpaceOnUse"
       gradientTransform="matrix(0.07000059,0,0,0.07000054,2.2423493,2.204313)"
       x1="110.82265"
       y1="11.36687"
       x2="110.82265"
       y2="239.93654" />
  </defs>
  <sodipodi:namedview
     id="base"
     pagecolor="#ffffff"
     bordercolor="#666666"
     borderopacity="1.0"
     gridtolerance="10000"
     guidetolerance="10"
     objecttolerance="10"
     inkscape:pageopacity="0.0"
     inkscape:pageshadow="2"
     inkscape:zoom="30"
     inkscape:cx="11"
     inkscape:cy="11"
     inkscape:document-units="px"
     inkscape:current-layer="layer1"
     width="128px"
     height="128px"
     inkscape:window-width="1680"
     inkscape:window-height="998"
     inkscape:window-x="0"
     inkscape:window-y="24"
     showgrid="true"
     inkscape:window-maximized="1">
    <inkscape:grid
       type="xygrid"
       id="grid2818"
       empspacing="5"
       visible="true"
       enabled="true"
       snapvisiblegridlinesonly="true" />
  </sodipodi:namedview>
  <metadata
     id="metadata2947">
    <rdf:RDF>
      <cc:Work
         rdf:about="">
        <dc:format>image/svg+xml</dc:format>
        <dc:type
           rdf:resource="http://purl.org/dc/dcmitype/StillImage" />
        <dc:title />
        <dc:date />
        <dc:creator>
          <cc:Agent>
            <dc:title />
          </cc:Agent>
        </dc:creator>
        <dc:rights>
          <cc:Agent>
            <dc:title />
          </cc:Agent>
        </dc:rights>
        <dc:publisher>
          <cc:Agent>
            <dc:title />
          </cc:Agent>
        </dc:publisher>
        <dc:identifier />
        <dc:source />
        <dc:relation />
        <dc:language />
        <dc:subject>
          <rdf:Bag />
        </dc:subject>
        <dc:coverage />
        <dc:description />
        <dc:contributor>
          <cc:Agent>
            <dc:title />
          </cc:Agent>
        </dc:contributor>
        <cc:license
           rdf:resource="" />
      </cc:Work>
      <cc:Work
         rdf:about="">
        <dc:format>image/svg+xml</dc:format>
        <dc:type
           rdf:resource="http://purl.org/dc/dcmitype/StillImage" />
      </cc:Work>
    </rdf:RDF>
  </metadata>
  <g
     inkscape:label="Layer 1"
     inkscape:groupmode="layer"
     id="layer1"
     transform="translate(-4.4999969,-21.49994)">
    <path
       id="path4271"
       d="m 15.499997,25.49994 c -4.416222,0 -7.9969564,3.584166 -8.0000001,8 l 0,6.1875 c 0.00241,1.002575 0.8090637,1.8125 1.8125,1.8125 l 0.03125,0 6.1562501,0 c 4.416662,-0.0019 8,-3.582771 8,-8 0,-4.418561 -3.581747,-8 -8,-8 z m 2.34375,1.90625 c 0.314588,0 0.552562,0.01753 0.84375,0.09375 0.424672,0.111355 0.749812,0.470038 0.75,0.875 2.1e-4,0.489556 -0.343921,0.84375 -0.875,0.84375 -0.253015,0 -0.348294,-0.0625 -0.71875,-0.0625 -1.093354,0 -1.966911,0.90668 -1.96875,2 l 0,1.71875 c 0,0.15473 0.12665,0.28125 0.28125,0.28125 l 1.28125,0 c 0.484977,0 0.874619,0.357491 0.875,0.84375 0,0.486448 -0.390212,0.875 -0.875,0.875 l -1.5625,0 0,2 c 0,2.073574 -1.676479,3.78125 -3.75,3.78125 -0.314652,0 -0.552561,-0.04871 -0.84375,-0.125 -0.424672,-0.111291 -0.78106,-0.470165 -0.78125,-0.875 0,-0.489429 0.374918,-0.84375 0.90625,-0.84375 0.252762,0 0.348486,0.0625 0.71875,0.0625 1.093355,0 1.967039,-0.875809 1.96875,-1.96875 l 0,-1.75 c 0,-0.154413 -0.126652,-0.28125 -0.28125,-0.28125 l -1.3125,0 c -0.485103,0 -0.875,-0.357174 -0.875,-0.84375 -1.26e-4,-0.489302 0.41601,-0.875 0.90625,-0.875 l 1.5625,0 0,-2 c 0,-2.073765 1.676163,-3.75 3.75,-3.75 z"
       style="opacity:0.6;fill:#ffffff;fill-opacity:1" />
    <path
       style="opacity:0.69999999999999996;fill:url(#linearGradient4268);fill-opacity:1"
       d="M 11 3 C 6.583778 3 3.0030437 6.584166 3 11 L 3 17.1875 C 3.00241 18.190075 3.8090637 19 4.8125 19 L 4.84375 19 L 11 19 C 15.416662 18.9981 19 15.417229 19 11 C 19 6.581439 15.418253 3 11 3 z M 13.34375 4.90625 C 13.658338 4.90625 13.896312 4.923778 14.1875 5 C 14.612172 5.111355 14.937312 5.470038 14.9375 5.875 C 14.93771 6.364556 14.593579 6.71875 14.0625 6.71875 C 13.809485 6.71875 13.714206 6.65625 13.34375 6.65625 C 12.250396 6.65625 11.376839 7.56293 11.375 8.65625 L 11.375 10.375 C 11.375 10.52973 11.50165 10.65625 11.65625 10.65625 L 12.9375 10.65625 C 13.422477 10.65625 13.812119 11.013741 13.8125 11.5 C 13.8125 11.986448 13.422288 12.375 12.9375 12.375 L 11.375 12.375 L 11.375 14.375 C 11.375 16.448574 9.698521 18.15625 7.625 18.15625 C 7.310348 18.15625 7.072439 18.107536 6.78125 18.03125 C 6.356578 17.919959 6.00019 17.561085 6 17.15625 C 6 16.666821 6.374918 16.3125 6.90625 16.3125 C 7.159012 16.3125 7.254736 16.375 7.625 16.375 C 8.718355 16.375 9.592039 15.499191 9.59375 14.40625 L 9.59375 12.65625 C 9.59375 12.501837 9.467098 12.375 9.3125 12.375 L 8 12.375 C 7.514897 12.375 7.125 12.017826 7.125 11.53125 C 7.124874 11.041948 7.54101 10.65625 8.03125 10.65625 L 9.59375 10.65625 L 9.59375 8.65625 C 9.59375 6.582485 11.269913 4.90625 13.34375 4.90625 z "
       transform="translate(4.4999969,21.49994)"
       id="speech-bubble" />
  </g>
</svg>
