<?xml version="1.0" encoding="UTF-8" standalone="no"?>
<!-- Created with Inkscape (http://www.inkscape.org/) -->

<svg
   xmlns:dc="http://purl.org/dc/elements/1.1/"
   xmlns:cc="http://creativecommons.org/ns#"
   xmlns:rdf="http://www.w3.org/1999/02/22-rdf-syntax-ns#"
   xmlns:svg="http://www.w3.org/2000/svg"
   xmlns="http://www.w3.org/2000/svg"
   xmlns:xlink="http://www.w3.org/1999/xlink"
   xmlns:sodipodi="http://sodipodi.sourceforge.net/DTD/sodipodi-0.dtd"
   xmlns:inkscape="http://www.inkscape.org/namespaces/inkscape"
   id="svg2910"
   version="1.1"
   inkscape:version="0.47 r22583"
   width="22"
   height="22"
   sodipodi:docname="distributor-logo2.svg"
   inkscape:export-filename="/home/kwwii/bzr/u-art/distributor-logo2.png"
   inkscape:export-xdpi="90"
   inkscape:export-ydpi="90">
  <metadata
     id="metadata2916">
    <rdf:RDF>
      <cc:Work
         rdf:about="">
        <dc:format>image/svg+xml</dc:format>
        <dc:type
           rdf:resource="http://purl.org/dc/dcmitype/StillImage" />
        <dc:title />
      </cc:Work>
    </rdf:RDF>
  </metadata>
  <defs
     id="defs2914">
    <linearGradient
       id="linearGradient3593">
      <stop
         style="stop-color:#000000;stop-opacity:1;"
         offset="0"
         id="stop3595" />
      <stop
         style="stop-color:#363636;stop-opacity:1;"
         offset="1"
         id="stop3597" />
    </linearGradient>
    <inkscape:perspective
       sodipodi:type="inkscape:persp3d"
       inkscape:vp_x="0 : 24 : 1"
       inkscape:vp_y="0 : 1000 : 0"
       inkscape:vp_z="48 : 24 : 1"
       inkscape:persp3d-origin="24 : 16 : 1"
       id="perspective9" />
    <linearGradient
       inkscape:collect="always"
       xlink:href="#linearGradient3593"
       id="linearGradient3599"
       x1="10"
       y1="3"
       x2="10"
       y2="19"
       gradientUnits="userSpaceOnUse" />
    <linearGradient
       inkscape:collect="always"
       xlink:href="#linearGradient3593"
       id="linearGradient4222"
       x1="9.3671875"
       y1="5.2108426"
       x2="9.3671875"
       y2="16.77248"
       gradientUnits="userSpaceOnUse" />
    <linearGradient
       inkscape:collect="always"
       xlink:href="#linearGradient3593"
       id="linearGradient4164"
       gradientUnits="userSpaceOnUse"
       x1="9.3671875"
       y1="5.2108426"
       x2="9.3671875"
       y2="16.77248" />
    <linearGradient
       inkscape:collect="always"
       xlink:href="#linearGradient3593"
       id="linearGradient4166"
       gradientUnits="userSpaceOnUse"
       x1="9.3671875"
       y1="5.2108426"
       x2="9.3671875"
       y2="16.77248" />
    <linearGradient
       inkscape:collect="always"
       xlink:href="#linearGradient3593"
       id="linearGradient4168"
       gradientUnits="userSpaceOnUse"
       x1="9.3671875"
       y1="5.2108426"
       x2="9.3671875"
       y2="16.77248" />
    <linearGradient
       inkscape:collect="always"
       xlink:href="#linearGradient3593"
       id="linearGradient4170"
       gradientUnits="userSpaceOnUse"
       x1="9.3671875"
       y1="5.2108426"
       x2="9.3671875"
       y2="16.77248" />
    <linearGradient
       inkscape:collect="always"
       xlink:href="#linearGradient3593"
       id="linearGradient4172"
       gradientUnits="userSpaceOnUse"
       x1="9.3671875"
       y1="5.2108426"
       x2="9.3671875"
       y2="16.77248" />
    <linearGradient
       inkscape:collect="always"
       xlink:href="#linearGradient3593"
       id="linearGradient4174"
       gradientUnits="userSpaceOnUse"
       x1="9.3671875"
       y1="5.2108426"
       x2="9.3671875"
       y2="16.77248" />
  </defs>
  <sodipodi:namedview
     pagecolor="#ffffff"
     bordercolor="#666666"
     borderopacity="1"
     objecttolerance="10"
     gridtolerance="10"
     guidetolerance="10"
     inkscape:pageopacity="0"
     inkscape:pageshadow="2"
     inkscape:window-width="1680"
     inkscape:window-height="998"
     id="namedview2912"
     showgrid="true"
     inkscape:zoom="34.363636"
     inkscape:cx="6.5185185"
     inkscape:cy="11"
     inkscape:window-x="0"
     inkscape:window-y="24"
     inkscape:window-maximized="1"
     inkscape:current-layer="svg2910">
    <inkscape:grid
       type="xygrid"
       id="grid3586"
       empspacing="5"
       visible="true"
       enabled="true"
       snapvisiblegridlinesonly="true" />
  </sodipodi:namedview>
  <g
     style="opacity:0.6;fill:#ffffff;fill-opacity:1"
     transform="matrix(1.3796854,0,0,1.3838871,-2.8825843,-3.2112178)"
     id="g4176">
    <path
       style="opacity:1;fill:#ffffff;fill-opacity:1;fill-rule:nonzero;stroke:none"
       d="M 13.84375,5.21875 C 13.981412,5.2357973 14.122281,5.301315 14.25,5.375 14.760875,5.6700928 14.951338,6.3016165 14.65625,6.8125 14.361515,7.3234012 13.698392,7.5138428 13.1875,7.21875 12.676978,6.9240102 12.486515,6.2605482 12.78125,5.75 13.002566,5.3668374 13.430763,5.1676081 13.84375,5.21875 z"
       id="path4178" />
    <path
       style="opacity:1;fill:#ffffff;fill-opacity:1;fill-rule:nonzero;stroke:none"
       d="m 11,6.375 c 0.429527,0 0.855296,0.047313 1.25,0.15625 0.06963,0.429181 0.312662,0.8280884 0.71875,1.0625 0.405399,0.2337233 0.87518,0.2471475 1.28125,0.09375 0.789778,0.7766771 1.300199,1.8234432 1.375,3 l -1.53125,0.03125 C 13.953451,9.1250653 12.629841,7.875 11,7.875 c -0.469521,0 -0.913313,0.095447 -1.3125,0.28125 l -0.75,-1.3125 C 9.55731,6.5369552 10.261601,6.375 11,6.375 z"
       id="path4180" />
    <path
       style="opacity:1;fill:#ffffff;fill-opacity:1;fill-rule:nonzero;stroke:none"
       d="M 8.4375,7.125 9.21875,8.4375 C 8.4165817,9.0021635 7.875,9.9444329 7.875,11 c 0,1.05562 0.5415817,1.998189 1.34375,2.5625 L 8.4375,14.875 C 7.5026048,14.250362 6.7885399,13.274563 6.5,12.15625 6.8371299,11.881155 7.0625,11.469247 7.0625,11 7.0625,10.530471 6.8371299,10.118845 6.5,9.84375 6.7888752,8.7257896 7.5029578,7.7496564 8.4375,7.125 z"
       id="path4182" />
    <path
       style="opacity:1;fill:#ffffff;fill-opacity:1;fill-rule:nonzero;stroke:none"
       d="m 5.5625,9.9375 c 0.5898228,0 1.0625,0.472314 1.0625,1.0625 0,0.589903 -0.4726772,1.0625 -1.0625,1.0625 C 4.9723241,12.0625 4.5,11.589903 4.5,11 4.5,10.409814 4.9723241,9.9375 5.5625,9.9375 z"
       id="path4184" />
    <path
       style="opacity:1;fill:#ffffff;fill-opacity:1;fill-rule:nonzero;stroke:none"
       d="M 14.09375,11.28125 15.625,11.3125 c -0.0748,1.176576 -0.585222,2.223323 -1.375,3 -0.40607,-0.153397 -0.875516,-0.140326 -1.28125,0.09375 -0.406088,0.234765 -0.64912,0.633319 -0.71875,1.0625 -0.394704,0.109292 -0.820473,0.15625 -1.25,0.15625 -0.738399,0 -1.44269,-0.161602 -2.0625,-0.46875 l 0.75,-1.3125 C 10.086687,14.029571 10.530479,14.125 11,14.125 c 1.629841,0 2.953787,-1.24973 3.09375,-2.84375 z"
       id="path4186" />
    <path
       style="opacity:1;fill:#ffffff;fill-opacity:1;fill-rule:nonzero;stroke:none"
       d="m 13.59375,14.65625 c 0.412924,-0.05116 0.841435,0.148338 1.0625,0.53125 0.29507,0.510883 0.104625,1.142742 -0.40625,1.4375 -0.510875,0.295075 -1.173997,0.135901 -1.46875,-0.375 -0.29507,-0.510548 -0.104625,-1.173675 0.40625,-1.46875 0.127635,-0.07369 0.268609,-0.107945 0.40625,-0.125 z"
       id="path4188" />
  </g>
  <g
     id="g4196"
     transform="matrix(1.3796854,0,0,1.3838871,-2.8825843,-4.2112178)"
     style="opacity:0.7;fill:url(#linearGradient4222);fill-opacity:1">
    <path
       id="path3682"
       d="M 13.84375,5.21875 C 13.981412,5.2357973 14.122281,5.301315 14.25,5.375 14.760875,5.6700928 14.951338,6.3016165 14.65625,6.8125 14.361515,7.3234012 13.698392,7.5138428 13.1875,7.21875 12.676978,6.9240102 12.486515,6.2605482 12.78125,5.75 13.002566,5.3668374 13.430763,5.1676081 13.84375,5.21875 z"
       style="opacity:1;fill:url(#linearGradient4164);fill-opacity:1;fill-rule:nonzero;stroke:none" />
    <path
       id="path3680"
       d="m 11,6.375 c 0.429527,0 0.855296,0.047313 1.25,0.15625 0.06963,0.429181 0.312662,0.8280884 0.71875,1.0625 0.405399,0.2337233 0.87518,0.2471475 1.28125,0.09375 0.789778,0.7766771 1.300199,1.8234432 1.375,3 l -1.53125,0.03125 C 13.953451,9.1250653 12.629841,7.875 11,7.875 c -0.469521,0 -0.913313,0.095447 -1.3125,0.28125 l -0.75,-1.3125 C 9.55731,6.5369552 10.261601,6.375 11,6.375 z"
       style="opacity:1;fill:url(#linearGradient4166);fill-opacity:1;fill-rule:nonzero;stroke:none" />
    <path
       id="path3678"
       d="M 8.4375,7.125 9.21875,8.4375 C 8.4165817,9.0021635 7.875,9.9444329 7.875,11 c 0,1.05562 0.5415817,1.998189 1.34375,2.5625 L 8.4375,14.875 C 7.5026048,14.250362 6.7885399,13.274563 6.5,12.15625 6.8371299,11.881155 7.0625,11.469247 7.0625,11 7.0625,10.530471 6.8371299,10.118845 6.5,9.84375 6.7888752,8.7257896 7.5029578,7.7496564 8.4375,7.125 z"
       style="opacity:1;fill:url(#linearGradient4168);fill-opacity:1;fill-rule:nonzero;stroke:none" />
    <path
       id="path3676"
       d="m 5.5625,9.9375 c 0.5898228,0 1.0625,0.472314 1.0625,1.0625 0,0.589903 -0.4726772,1.0625 -1.0625,1.0625 C 4.9723241,12.0625 4.5,11.589903 4.5,11 4.5,10.409814 4.9723241,9.9375 5.5625,9.9375 z"
       style="opacity:1;fill:url(#linearGradient4170);fill-opacity:1;fill-rule:nonzero;stroke:none" />
    <path
       id="path3674"
       d="M 14.09375,11.28125 15.625,11.3125 c -0.0748,1.176576 -0.585222,2.223323 -1.375,3 -0.40607,-0.153397 -0.875516,-0.140326 -1.28125,0.09375 -0.406088,0.234765 -0.64912,0.633319 -0.71875,1.0625 -0.394704,0.109292 -0.820473,0.15625 -1.25,0.15625 -0.738399,0 -1.44269,-0.161602 -2.0625,-0.46875 l 0.75,-1.3125 C 10.086687,14.029571 10.530479,14.125 11,14.125 c 1.629841,0 2.953787,-1.24973 3.09375,-2.84375 z"
       style="opacity:1;fill:url(#linearGradient4172);fill-opacity:1;fill-rule:nonzero;stroke:none" />
    <path
       id="path24"
       d="m 13.59375,14.65625 c 0.412924,-0.05116 0.841435,0.148338 1.0625,0.53125 0.29507,0.510883 0.104625,1.142742 -0.40625,1.4375 -0.510875,0.295075 -1.173997,0.135901 -1.46875,-0.375 -0.29507,-0.510548 -0.104625,-1.173675 0.40625,-1.46875 0.127635,-0.07369 0.268609,-0.107945 0.40625,-0.125 z"
       style="opacity:1;fill:url(#linearGradient4174);fill-opacity:1;fill-rule:nonzero;stroke:none" />
  </g>
</svg>
