<?xml version="1.0" encoding="UTF-8" standalone="no"?>
<!-- Created with Inkscape (http://www.inkscape.org/) -->

<svg
   xmlns:dc="http://purl.org/dc/elements/1.1/"
   xmlns:cc="http://creativecommons.org/ns#"
   xmlns:rdf="http://www.w3.org/1999/02/22-rdf-syntax-ns#"
   xmlns:svg="http://www.w3.org/2000/svg"
   xmlns="http://www.w3.org/2000/svg"
   xmlns:xlink="http://www.w3.org/1999/xlink"
   xmlns:sodipodi="http://sodipodi.sourceforge.net/DTD/sodipodi-0.dtd"
   xmlns:inkscape="http://www.inkscape.org/namespaces/inkscape"
   width="64.000084"
   height="64"
   id="svg7025"
   version="1.1"
   inkscape:version="0.48.1 r9760"
   sodipodi:docname="liferea64.svg">
  <defs
     id="defs7027">
    <radialGradient
       inkscape:collect="always"
       xlink:href="#linearGradient8838-6"
       id="radialGradient6262"
       gradientUnits="userSpaceOnUse"
       gradientTransform="matrix(1,0,0,0.341176,0,3.047059)"
       cx="62.625"
       cy="4.625"
       fx="62.625"
       fy="4.625"
       r="10.625" />
    <linearGradient
       id="linearGradient8838-6">
      <stop
         id="stop8840-2"
         style="stop-color:#000000;stop-opacity:1"
         offset="0" />
      <stop
         id="stop8842-3"
         style="stop-color:#000000;stop-opacity:0"
         offset="1" />
    </linearGradient>
    <radialGradient
       inkscape:collect="always"
       xlink:href="#linearGradient2867-449-88-871-390-598-476-591-434-148-0"
       id="radialGradient6264"
       gradientUnits="userSpaceOnUse"
       gradientTransform="matrix(0,3.5234091,-3.5234073,0,-6.7439676,-205.79862)"
       cx="61.240059"
       cy="-8.7256308"
       fx="61.240059"
       fy="-8.7256308"
       r="9.7552834" />
    <linearGradient
       id="linearGradient2867-449-88-871-390-598-476-591-434-148-0">
      <stop
         id="stop4627-3"
         style="stop-color:#51cfee;stop-opacity:1"
         offset="0" />
      <stop
         id="stop4629-6"
         style="stop-color:#49a3d2;stop-opacity:1"
         offset="0.26238" />
      <stop
         id="stop4631-4"
         style="stop-color:#3470b4;stop-opacity:1"
         offset="0.704952" />
      <stop
         id="stop4633-7"
         style="stop-color:#273567;stop-opacity:1"
         offset="1" />
    </linearGradient>
    <linearGradient
       inkscape:collect="always"
       xlink:href="#linearGradient3707-319-631-6"
       id="linearGradient6266"
       gradientUnits="userSpaceOnUse"
       gradientTransform="matrix(0.98001402,0,0,0.97999168,0.08994011,0.8703621)"
       x1="20"
       y1="43"
       x2="20"
       y2="2.6887112" />
    <linearGradient
       id="linearGradient3707-319-631-6">
      <stop
         id="stop4637-5"
         style="stop-color:#254b6d;stop-opacity:1"
         offset="0" />
      <stop
         id="stop4639-8"
         style="stop-color:#415b73;stop-opacity:1"
         offset="0.5" />
      <stop
         id="stop4641-4"
         style="stop-color:#6195b5;stop-opacity:1"
         offset="1" />
    </linearGradient>
    <linearGradient
       inkscape:collect="always"
       xlink:href="#linearGradient4873-3"
       id="linearGradient6268"
       gradientUnits="userSpaceOnUse"
       gradientTransform="matrix(2.0648398,0,0,2.0647927,-104.43387,31.249146)"
       x1="62.200409"
       y1="-12.489107"
       x2="62.200409"
       y2="-1.4615115" />
    <linearGradient
       id="linearGradient4873-3">
      <stop
         id="stop4875-3"
         style="stop-color:#ffffff;stop-opacity:1"
         offset="0" />
      <stop
         id="stop4877-0"
         style="stop-color:#ffffff;stop-opacity:0"
         offset="1" />
    </linearGradient>
    <linearGradient
       inkscape:collect="always"
       xlink:href="#linearGradient4035"
       id="linearGradient4070"
       gradientUnits="userSpaceOnUse"
       x1="157.79547"
       y1="20.110691"
       x2="157.79547"
       y2="47.532818" />
    <linearGradient
       inkscape:collect="always"
       id="linearGradient4035">
      <stop
         style="stop-color:#ffffff;stop-opacity:1;"
         offset="0"
         id="stop4037" />
      <stop
         style="stop-color:#ffffff;stop-opacity:0;"
         offset="1"
         id="stop4039" />
    </linearGradient>
    <linearGradient
       inkscape:collect="always"
       xlink:href="#linearGradient4015"
       id="linearGradient4068"
       gradientUnits="userSpaceOnUse"
       gradientTransform="matrix(1.4700874,0,0,1.6380876,-66.559527,91.844)"
       x1="158.90813"
       y1="48.431599"
       x2="158.90813"
       y2="19.244049" />
    <linearGradient
       id="linearGradient4015">
      <stop
         style="stop-color:#8c8c8c;stop-opacity:1;"
         offset="0"
         id="stop4017" />
      <stop
         id="stop4029"
         offset="0.03117742"
         style="stop-color:#969696;stop-opacity:1;" />
      <stop
         id="stop4027"
         offset="0.0741232"
         style="stop-color:#a0a0a0;stop-opacity:1;" />
      <stop
         id="stop4025"
         offset="0.15525444"
         style="stop-color:#dcdcdc;stop-opacity:1;" />
      <stop
         id="stop4023"
         offset="0.5"
         style="stop-color:#e1e1e1;stop-opacity:1;" />
      <stop
         style="stop-color:#e6e6e6;stop-opacity:1;"
         offset="1"
         id="stop4019" />
    </linearGradient>
    <linearGradient
       gradientTransform="translate(130.71424,-25.926756)"
       inkscape:collect="always"
       xlink:href="#linearGradient5648"
       id="linearGradient5670"
       x1="29.416769"
       y1="196.90366"
       x2="29.416769"
       y2="148.93419"
       gradientUnits="userSpaceOnUse" />
    <linearGradient
       id="linearGradient5648">
      <stop
         style="stop-color:#646464;stop-opacity:1;"
         offset="0"
         id="stop5650" />
      <stop
         style="stop-color:#b4b4b4;stop-opacity:1;"
         offset="1"
         id="stop5652" />
    </linearGradient>
    <radialGradient
       inkscape:collect="always"
       xlink:href="#linearGradient3688"
       id="radialGradient4062"
       gradientUnits="userSpaceOnUse"
       gradientTransform="matrix(2.003784,0,0,1.4,27.98813,-17.4)"
       cx="4.9929786"
       cy="43.5"
       fx="4.9929786"
       fy="43.5"
       r="2.5" />
    <linearGradient
       id="linearGradient3688">
      <stop
         id="stop3690"
         style="stop-color:#000000;stop-opacity:1"
         offset="0" />
      <stop
         id="stop3692"
         style="stop-color:#000000;stop-opacity:0"
         offset="1" />
    </linearGradient>
    <radialGradient
       inkscape:collect="always"
       xlink:href="#linearGradient3688"
       id="radialGradient4064"
       gradientUnits="userSpaceOnUse"
       gradientTransform="matrix(2.003784,0,0,1.4,-20.01187,-104.4)"
       cx="4.9929786"
       cy="43.5"
       fx="4.9929786"
       fy="43.5"
       r="2.5" />
    <linearGradient
       inkscape:collect="always"
       xlink:href="#linearGradient3702"
       id="linearGradient4066"
       gradientUnits="userSpaceOnUse"
       x1="25.058096"
       y1="47.027729"
       x2="25.058096"
       y2="39.999443" />
    <linearGradient
       id="linearGradient3702">
      <stop
         id="stop3704"
         style="stop-color:#000000;stop-opacity:0"
         offset="0" />
      <stop
         id="stop3710"
         style="stop-color:#000000;stop-opacity:1"
         offset="0.5" />
      <stop
         id="stop3706"
         style="stop-color:#000000;stop-opacity:0"
         offset="1" />
    </linearGradient>
  </defs>
  <sodipodi:namedview
     id="base"
     pagecolor="#ffffff"
     bordercolor="#666666"
     borderopacity="1.0"
     inkscape:pageopacity="0.0"
     inkscape:pageshadow="2"
     inkscape:zoom="11.140625"
     inkscape:cx="32.000042"
     inkscape:cy="32"
     inkscape:document-units="px"
     inkscape:current-layer="layer1"
     showgrid="false"
     fit-margin-top="0"
     fit-margin-left="0"
     fit-margin-right="0"
     fit-margin-bottom="0" />
  <metadata
     id="metadata7030">
    <rdf:RDF>
      <cc:Work
         rdf:about="">
        <dc:format>image/svg+xml</dc:format>
        <dc:type
           rdf:resource="http://purl.org/dc/dcmitype/StillImage" />
        <dc:title />
      </cc:Work>
    </rdf:RDF>
  </metadata>
  <g
     inkscape:label="Capa 1"
     inkscape:groupmode="layer"
     id="layer1"
     transform="translate(-133.71424,-111.79076)">
    <g
       transform="matrix(1.6000015,0,0,0.59342812,127.31423,145.90014)"
       id="g3986"
       style="display:inline;enable-background:new">
      <g
         transform="matrix(1.052632,0,0,1.285713,-1.263158,-13.42854)"
         id="g3988"
         style="opacity:0.4">
        <rect
           width="5"
           height="7"
           x="38"
           y="40"
           id="rect3990"
           style="fill:url(#radialGradient4062);fill-opacity:1;stroke:none" />
        <rect
           width="5"
           height="7"
           x="-10"
           y="-47"
           transform="scale(-1,-1)"
           id="rect3992"
           style="fill:url(#radialGradient4064);fill-opacity:1;stroke:none" />
        <rect
           width="28"
           height="7.0000005"
           x="10"
           y="40"
           id="rect3994"
           style="fill:url(#linearGradient4066);fill-opacity:1;stroke:none" />
      </g>
    </g>
    <path
       sodipodi:nodetypes="ccssccc"
       inkscape:connector-curvature="0"
       id="path3996"
       d="m 137.04759,123.22361 c 0,13.88962 0,27.77923 0,41.66885 0,3.52935 2.52921,6.39878 5.6966,6.39878 l 45.94021,0 c 3.16737,0 5.6966,-2.86943 5.6966,-6.39878 0,-14.0344 0,-27.77923 0,-41.66885 -19.11113,0 -38.22228,0 -57.33341,0 z"
       style="color:#000000;fill:url(#linearGradient4068);fill-opacity:1;stroke:url(#linearGradient5670);stroke-width:0.99999994;stroke-linecap:round;stroke-linejoin:round;stroke-miterlimit:4;stroke-opacity:1;stroke-dasharray:none;stroke-dashoffset:0;marker:none;visibility:visible;display:inline;overflow:visible;enable-background:accumulate" />
    <path
       transform="matrix(1.4913646,0,0,1.6756807,-69.927187,90.52639)"
       d="m 139.46875,20.125 0,24.46875 c 0,1.63697 1.27869,2.9375 2.90625,2.9375 l 31.25,0 c 1.62756,0 2.90625,-1.30053 2.90625,-2.9375 l 0,-24.46875 -37.0625,0 z"
       id="path3998"
       style="color:#000000;fill:none;stroke:url(#linearGradient4070);stroke-width:0.63257551;stroke-linecap:round;stroke-linejoin:round;stroke-miterlimit:4;stroke-opacity:1;stroke-dasharray:none;stroke-dashoffset:0;marker:none;visibility:visible;display:inline;overflow:visible;enable-background:accumulate"
       inkscape:original="M 138.5 19.15625 L 138.5 44.59375 C 138.5 46.748304 140.22045 48.5 142.375 48.5 L 173.625 48.5 C 175.77955 48.5 177.5 46.748304 177.5 44.59375 L 177.5 19.15625 L 138.5 19.15625 z "
       inkscape:radius="-0.97227168"
       sodipodi:type="inkscape:offset" />
    <g
       transform="scale(1.0189534,0.98139914)"
       style="font-size:15.98260117px;font-style:normal;font-variant:normal;font-weight:500;font-stretch:normal;text-align:start;line-height:125%;letter-spacing:0px;word-spacing:0px;writing-mode:lr-tb;text-anchor:start;fill:#3c3c3c;fill-opacity:1;stroke:none;display:inline;enable-background:new;font-family:English Towne;-inkscape-font-specification:English Towne Medium"
       id="text4000">
      <path
         d="m 156.64111,130.64057 c -0.33032,0.1705 -0.62866,0.25574 -0.89503,0.25573 -0.42621,1e-5 -0.88438,-0.19179 -1.3745,-0.57538 l -1.75809,1.67818 0.38358,0.38358 0.30367,-0.25572 c 0.22375,0.21311 0.60201,0.31966 1.13477,0.31965 l 0.0799,0 0.032,-0.016 0.032,0 0.016,1.86996 -0.032,0 -0.12786,0.032 -0.0639,0 c -0.0639,0.032 -0.22377,0.0479 -0.47948,0.0479 -0.0107,0.0107 -0.0693,0.016 -0.17581,0.016 -0.4049,0 -0.68726,-0.0533 -0.84708,-0.15983 -0.27703,-0.50078 -0.50079,-0.90567 -0.67127,-1.21468 -0.15983,-0.31964 -0.29834,-0.58602 -0.41554,-0.79913 -0.43687,-0.63929 -0.78848,-1.08148 -1.05486,-1.32655 -0.40489,-0.37292 -0.89502,-0.55938 -1.47039,-0.55939 -0.58604,1e-5 -1.07617,0.22909 -1.4704,0.68725 -0.4049,0.43686 -0.60734,0.94298 -0.60734,1.51834 0,0.41556 0.11187,0.64464 0.33563,0.68726 l -0.032,-0.032 0.11187,0 c 0.032,-0.36226 0.27171,-0.65528 0.71922,-0.87904 0.0213,-0.0213 0.048,-0.032 0.0799,-0.032 0.0426,1e-5 0.0799,-0.005 0.11188,-0.016 0.0746,-0.0213 0.14917,-0.0373 0.22376,-0.048 0.0852,-0.0213 0.1545,-0.0533 0.20777,-0.0959 l 0.032,0 0,2.62114 c -0.19179,0.0213 -0.34629,0.0426 -0.4635,0.0639 -0.1172,0.0213 -0.19712,0.0373 -0.23974,0.048 -0.46882,0.1918 -0.70323,0.61267 -0.70323,1.26263 0,0.29834 0.0959,0.55939 0.28769,0.78314 0.19179,0.22376 0.4262,0.33564 0.70323,0.33564 l 0,-0.11188 0,-0.0639 -0.016,-0.016 c 0,-0.0852 0.0213,-0.17048 0.0639,-0.25572 0.0533,-0.0959 0.1172,-0.14384 0.19179,-0.14385 l 0.032,0 c 0.032,0.0213 0.0586,0.0373 0.0799,0.048 0.0213,0 0.0426,0.005 0.0639,0.016 l 0,2.14167 c -1.05485,0.31966 -1.73678,1.0442 -2.04577,2.17364 0.0639,-0.0213 0.13851,-0.0533 0.22375,-0.0959 0.0959,-0.032 0.14384,-0.0479 0.14385,-0.0479 0.0426,-0.0213 0.0959,-0.0533 0.15982,-0.0959 l 0,0.016 c 0.44751,-0.2131 0.91101,-0.31965 1.39049,-0.31965 0.64995,0 1.34786,0.23441 2.09372,0.70323 l 1.27861,-1.67817 -0.35162,-0.35162 -0.19179,0.25572 c -0.309,-0.2131 -0.62333,-0.37292 -0.94298,-0.47948 -0.31965,-0.1172 -0.65529,-0.1758 -1.0069,-0.1758 l -0.0959,0 -0.032,0.016 -0.016,0 0,-1.53433 c 0.25572,-0.17048 0.66594,-0.25572 1.23066,-0.25572 0.4262,0 0.91633,0.11721 1.4704,0.35161 0.0533,0.11721 0.10654,0.23442 0.15982,0.35162 0.0533,0.10656 0.10655,0.20778 0.15983,0.30367 0.21309,0.41555 0.37292,0.74586 0.47948,0.99092 0.1172,0.23442 0.22907,0.43153 0.33563,0.59136 l -0.016,0 c 0.59668,1.07616 1.15607,1.61424 1.67817,1.61424 l 0.0959,0 0,-8.85436 c 0.0319,-0.0106 0.0692,-0.0213 0.11188,-0.032 0.0533,-0.0213 0.11187,-0.0533 0.1758,-0.0959 l 0,0.016 c 0.28768,-0.14916 0.55406,-0.35161 0.79913,-0.60734 0.15982,-0.15981 0.27703,-0.31431 0.35162,-0.46349 0.0746,-0.14916 0.1172,-0.29833 0.12786,-0.44751 l -0.0959,-0.0639 m -5.75374,5.75374 c -0.33031,1e-5 -0.76717,0.0746 -1.31057,0.22376 l 0,-4.28334 c 0.24506,0.11721 0.5434,0.49547 0.89502,1.13477 0.17048,0.34096 0.41022,0.85241 0.71922,1.53432 0.18113,0.39425 0.3303,0.71923 0.44751,0.97494 0.1172,0.24507 0.20777,0.43154 0.27171,0.55939 -0.34097,-0.0959 -0.68193,-0.14383 -1.02289,-0.14384 m 2.63713,-0.62332 c -0.0959,-0.2131 -0.17582,-0.38891 -0.23974,-0.52743 -0.0639,-0.13851 -0.11188,-0.24506 -0.14384,-0.31965 0.12785,0.0426 0.26637,0.0639 0.41555,0.0639 l 0.43153,0 c 0.12785,1e-5 0.23973,-0.005 0.33563,-0.016 0.10654,-0.0106 0.19178,-0.032 0.25572,-0.0639 l 0.016,2.86088 c -0.15983,-0.2344 -0.33031,-0.51144 -0.51144,-0.83109 -0.17049,-0.3303 -0.35695,-0.71921 -0.55939,-1.16673"
         style=""
         id="path3069" />
      <path
         d="m 162.15136,136.29842 c -0.10656,-0.14917 -0.22376,-0.32498 -0.35162,-0.52743 -0.11721,-0.2131 -0.24507,-0.44218 -0.38358,-0.68725 -0.14918,-0.27703 -0.26638,-0.52742 -0.35162,-0.75118 -0.0852,-0.22375 -0.1545,-0.43153 -0.20777,-0.62333 -1.05486,0.70324 -2.00316,1.05486 -2.84491,1.05486 l -0.0639,0 -0.0479,-0.016 -0.048,0 -0.016,-0.016 -0.0959,0 -0.14384,-0.14384 0,0.22375 c 0.17048,0.37294 0.25572,0.63931 0.25572,0.79913 l 0,3.86779 c -0.2131,0.15983 -0.35695,0.28769 -0.43153,0.38359 -0.0107,0.0106 -0.0426,0.0533 -0.0959,0.12786 -0.0426,0.0746 -0.10122,0.17048 -0.17581,0.28768 l 0,-0.016 c -0.0213,0.0213 -0.0426,0.0533 -0.0639,0.0959 -0.0213,0.032 -0.0426,0.0746 -0.0639,0.12786 0.12786,-0.0213 0.25572,-0.0373 0.38359,-0.048 0.12786,-0.0213 0.25572,-0.032 0.38358,-0.032 0.34096,0 0.74585,0.048 1.21468,0.14385 0.27703,0.0533 0.52209,0.12786 0.7352,0.22375 0.21309,0.10655 0.43152,0.21843 0.65528,0.33564 l 0.15983,0.0799 1.45441,-1.59826 -0.39956,-0.3676 -0.38358,0.39957 c -0.24507,-0.11721 -0.51145,-0.21843 -0.79913,-0.30367 -0.27704,-0.0852 -0.58071,-0.1545 -0.91101,-0.20778 l 0,-1.19869 c 0.1172,-0.0852 0.22375,-0.1545 0.31965,-0.20778 0.64996,-0.38357 1.1614,-0.68192 1.53433,-0.89502 0.38358,-0.22375 0.6393,-0.3676 0.76717,-0.43153 l 0.016,-0.0799 m -2.12569,-0.30367 c 0.0746,0.15983 0.13851,0.29301 0.19179,0.39956 0.0639,0.0959 0.11721,0.17581 0.15983,0.23974 l -0.86306,0.55939 0,-2.04577 0.12786,-0.032 c 0.0533,0.14918 0.11188,0.29835 0.17581,0.44752 0.0639,0.14917 0.13318,0.29301 0.20777,0.43153"
         style=""
         id="path3071" />
      <path
         d="m 171.86703,134.65221 c -0.0533,0.0213 -0.0906,0.0426 -0.11188,0.0639 -0.0426,0.0107 -0.0746,0.016 -0.0959,0.016 -0.0213,1e-5 -0.0426,0.005 -0.0639,0.016 l 0,0.016 -0.016,0 c -0.0213,0.0107 -0.0426,0.016 -0.0639,0.016 -0.0959,0 -0.14918,-0.005 -0.15982,-0.016 -0.34097,-0.032 -0.64464,-0.32498 -0.91101,-0.87905 l -1.75809,1.29459 0.23974,0.38359 0.19179,-0.0799 c 0.17048,0.20245 0.3303,0.32499 0.47948,0.3676 l 0,3.86779 c -1e-5,0.20245 -0.0959,0.30367 -0.28768,0.30367 l -0.17581,0 c -0.0107,0 -0.0213,0 -0.032,0 -10e-6,-0.0106 -10e-6,-0.016 0,-0.016 -0.0426,-0.0213 -0.0906,-0.0373 -0.14384,-0.048 -0.0533,-0.0213 -0.0959,-0.0426 -0.12786,-0.0639 -0.35163,-0.17048 -0.52743,-0.44218 -0.52743,-0.81511 l 0,-4.17146 c -0.0213,-0.0852 -0.0373,-0.14384 -0.0479,-0.17581 -0.0213,-0.032 -0.0373,-0.0639 -0.0479,-0.0959 -1e-5,-0.032 -0.005,-0.0586 -0.016,-0.0799 -0.11721,-0.29833 -0.39424,-0.55938 -0.83109,-0.78315 l -1.63023,1.40647 0,0.12786 c 0.19179,1e-5 0.37825,0.0639 0.55939,0.1918 0.18114,0.11721 0.2717,0.25039 0.27171,0.39956 l 0,3.56412 c -0.0639,0.0426 -0.13319,0.0746 -0.20778,0.0959 -0.0107,0.0106 -0.0266,0.0213 -0.0479,0.032 -0.0107,0.0107 -0.0213,0.0213 -0.032,0.032 l -0.0639,0.0639 c -0.0639,-0.0533 -0.14385,-0.10655 -0.23974,-0.15983 -0.0959,-0.0533 -0.20245,-0.10655 -0.31965,-0.15983 -0.0533,-0.0213 -0.0852,-0.032 -0.0959,-0.032 -0.0106,-0.0106 -0.0426,-0.0266 -0.0959,-0.0479 -0.11721,0 -0.20245,-0.0213 -0.25572,-0.0639 l 0,-3.96368 c -1e-5,-0.33031 -0.10656,-0.62865 -0.31966,-0.89503 -0.2131,-0.26637 -0.47948,-0.45816 -0.79913,-0.57537 l -1.61424,1.61424 0.12786,0.0799 0.048,0 0.032,0.016 0.12786,0 0.0479,0.016 0.032,0 c 0.22375,0 0.41555,0.15983 0.57537,0.47948 l 0,3.45224 -0.016,0 -0.016,0.032 c -0.33031,0.24507 -0.54874,0.55407 -0.65529,0.92699 0.0533,-0.0213 0.10655,-0.0373 0.15983,-0.0479 0.0639,-0.0107 0.1172,-0.016 0.15982,-0.016 l 0.032,-0.016 0.032,0 c 0.33031,0 0.64463,0.0746 0.94298,0.22376 0.29834,0.14917 0.60201,0.36227 0.91101,0.6393 0.15982,-0.1172 0.29833,-0.21843 0.41554,-0.30367 0.11721,-0.0852 0.19712,-0.14384 0.23974,-0.17581 l 0,0.016 c 0.0639,-0.0426 0.10655,-0.0693 0.12786,-0.0799 l 0.032,-0.016 0.032,-0.032 c 0.0106,-0.0107 0.0586,-0.032 0.14385,-0.0639 0.19178,-0.10655 0.42087,-0.24506 0.68725,-0.41554 0.18113,0.28768 0.42087,0.53275 0.71922,0.7352 0.30899,0.2131 0.62331,0.3303 0.94297,0.35161 0.13851,-0.0639 0.25039,-0.12253 0.33563,-0.1758 0.0959,-0.0426 0.17581,-0.0746 0.23974,-0.0959 0.76716,-0.35162 1.53432,-0.52743 2.3015,-0.52743 l 0.032,0 c 0.032,0.0107 0.14384,0.016 0.33564,0.016 -0.11722,-0.17048 -0.17582,-0.26105 -0.17581,-0.27171 -0.10656,-0.14917 -0.15984,-0.30367 -0.15983,-0.46349 l 0,-3.88378 c 0.41554,-0.24506 0.64462,-0.60733 0.68725,-1.08681 l -0.0799,-0.0639"
         style=""
         id="path3073" />
      <path
         d="m 178.26457,133.94897 -0.43153,0.032 c -0.1918,0.309 -0.44219,0.4635 -0.75118,0.46349 -0.29835,10e-6 -0.618,-0.19711 -0.95896,-0.59135 -0.38359,0.38359 -0.59669,0.58603 -0.63931,0.60734 -0.45817,0.24507 -0.93232,0.3676 -1.42245,0.3676 -0.0959,0 -0.14917,-0.005 -0.15982,-0.016 -0.29835,1e-5 -0.48481,-0.0213 -0.55939,-0.0639 -0.11721,1e-5 -0.22909,-0.0479 -0.33564,-0.14384 0,0.0533 0,0.10123 0,0.14384 0,0.0426 0.0107,0.0746 0.032,0.0959 l 0,0.016 0.0479,0.11188 c 0,0.0426 0.005,0.0693 0.016,0.0799 l 0,-0.016 c 0,0.0107 0,0.0213 0,0.032 0.0106,0 0.016,0.005 0.016,0.016 l 0.016,2.78097 -0.016,0.032 c 0,0.13851 -0.0479,0.2717 -0.14384,0.39956 l 0.016,-0.048 -0.11188,0.11188 1.05485,0.0479 c -0.0639,0.0639 -0.12253,0.12253 -0.17581,0.17581 -0.0426,0.0533 -0.0799,0.0959 -0.11187,0.12786 l -0.0639,0.0639 c -0.36228,0.44751 -0.64996,0.86839 -0.86307,1.26262 -0.2131,0.38359 -0.36227,0.76184 -0.44751,1.13477 l 0.4635,0 c 0.19179,-0.46882 0.53275,-0.70324 1.02288,-0.70324 0.11721,0 0.20778,0.016 0.27171,0.048 0.0959,0 0.18113,0.016 0.25572,0.0479 0.0746,0.0426 0.1545,0.10122 0.23974,0.17581 l 0.46349,0.46349 c 0.5221,-0.55406 1.18804,-0.83109 1.99783,-0.83109 l 0.0959,0 c 0.032,0.0106 0.12785,0.016 0.28768,0.016 0.0533,0.032 0.12253,0.0533 0.20778,0.0639 0.0852,0 0.19178,0 0.31965,0 0.0213,0 0.0373,0.005 0.0479,0.016 l -0.016,0 c 0.0213,0.0107 0.0906,0.016 0.20778,0.016 l -0.0639,-0.12786 c -0.032,-0.0533 -0.0639,-0.10655 -0.0959,-0.15983 -0.032,-0.0533 -0.0373,-0.0693 -0.016,-0.048 l 0.016,0.032 c -0.0107,-0.0533 -0.016,-0.0799 -0.016,-0.0799 -1e-5,-0.0106 -0.005,-0.0213 -0.016,-0.032 l 0,0.016 -0.016,-0.032 0,-0.0479 c -0.0107,-0.0107 -0.016,-0.0266 -0.016,-0.048 l 0,-2.71704 c -1e-5,0.0107 0.005,-0.005 0.016,-0.0479 0.0106,-0.0533 0.0213,-0.0959 0.032,-0.12786 l 0,0.016 c -1e-5,-0.0106 -1e-5,-0.0213 0,-0.032 0.0106,-0.0106 0.016,-0.0266 0.016,-0.0479 l 0.016,-0.032 0,-0.032 0.032,-0.032 0,-0.032 0.016,-0.016 c 0,-0.032 0.005,-0.0586 0.016,-0.0799 0,-0.0107 0,-0.032 0,-0.0639 0.0106,-0.032 0.016,-0.0533 0.016,-0.0639 l -1.50237,0.032 c 0.89502,-0.91633 1.48105,-1.8007 1.75809,-2.65311 l -0.0639,-0.0799 m -2.01381,5.89758 -0.0639,0 c -0.0533,0.0213 -0.0959,0.0373 -0.12786,0.0479 -0.0213,0 -0.032,0 -0.032,0 l -0.0639,0.032 c -0.39424,-0.49014 -0.86839,-0.7352 -1.42245,-0.7352 -0.0533,0 -0.12786,0.0106 -0.22375,0.032 -0.0959,0.0107 -0.20778,0.0266 -0.33564,0.0479 0.13851,-0.13852 0.25572,-0.26105 0.35162,-0.3676 0.0959,-0.1172 0.18113,-0.2131 0.25572,-0.28769 l 0.83109,-0.83109 0.81512,0 0.032,0.032 0,2.01381 -0.016,0.016 m -0.25572,-3.40429 c -0.24507,0.24507 -0.44752,0.44219 -0.60734,0.59136 -0.14917,0.14917 -0.26638,0.25039 -0.35162,0.30366 l -0.17581,0 0,-2.0138 c 0.0533,0 0.11188,-0.016 0.17581,-0.0479 l 0.0639,0 c 0.0106,-0.0106 0.032,-0.0213 0.0639,-0.032 0.39424,0.30901 0.74585,0.4635 1.05485,0.4635 0.20245,0 0.39424,-0.0373 0.57538,-0.11188 -0.17049,0.18114 -0.43686,0.4635 -0.79913,0.84708"
         style=""
         id="path3075" />
    </g>
    <path
       inkscape:connector-curvature="0"
       id="path4004"
       d="m 141.13089,141.91658 0,1.33521 49.33341,0 0,-1.33521 z"
       style="fill:#646464;fill-opacity:1;stroke:#646464;stroke-width:0.99999994px;stroke-linecap:butt;stroke-linejoin:miter;stroke-opacity:1;display:inline;enable-background:new" />
    <path
       inkscape:connector-curvature="0"
       id="path4006"
       d="m 141.04749,145.92221 49.33358,0"
       style="fill:none;stroke:#646464;stroke-width:0.99999994px;stroke-linecap:square;stroke-linejoin:miter;stroke-opacity:1;display:inline;enable-background:new" />
    <g
       style="display:inline;enable-background:new"
       transform="matrix(1.2579314,0,0,1.3352119,-29.957807,106.53346)"
       id="g4008">
      <path
         style="fill:none;stroke:#787878;stroke-width:0.77160746px;stroke-linecap:square;stroke-linejoin:miter;stroke-opacity:1"
         d="m 163.49993,32.5 11.65975,0"
         id="path4010"
         inkscape:connector-curvature="0" />
      <path
         inkscape:connector-curvature="0"
         id="path4012"
         d="m 163.49993,34.5 11.65975,0"
         style="fill:none;stroke:#787878;stroke-width:0.77160746px;stroke-linecap:square;stroke-linejoin:miter;stroke-opacity:1" />
      <path
         style="fill:none;stroke:#787878;stroke-width:0.77160746px;stroke-linecap:square;stroke-linejoin:miter;stroke-opacity:1"
         d="m 163.49993,36.5 11.65975,0"
         id="path4014"
         inkscape:connector-curvature="0" />
      <path
         inkscape:connector-curvature="0"
         id="path4016"
         d="m 163.49993,38.5 11.65975,0"
         style="fill:none;stroke:#787878;stroke-width:0.77160746px;stroke-linecap:square;stroke-linejoin:miter;stroke-opacity:1" />
      <path
         style="fill:none;stroke:#787878;stroke-width:0.77160746px;stroke-linecap:square;stroke-linejoin:miter;stroke-opacity:1"
         d="m 163.49993,40.5 11.65975,0"
         id="path4018"
         inkscape:connector-curvature="0" />
      <path
         inkscape:connector-curvature="0"
         id="path4020"
         d="m 163.49993,42.5 11.65975,0"
         style="fill:none;stroke:#787878;stroke-width:0.77160746px;stroke-linecap:square;stroke-linejoin:miter;stroke-opacity:1" />
      <path
         style="fill:none;stroke:#787878;stroke-width:0.77160746px;stroke-linecap:square;stroke-linejoin:miter;stroke-opacity:1"
         d="m 163.49993,44.5 11.65975,0"
         id="path4022"
         inkscape:connector-curvature="0" />
      <path
         inkscape:connector-curvature="0"
         id="path4024"
         d="m 163.49993,46.5 11.65975,0"
         style="fill:none;stroke:#787878;stroke-width:0.77160746px;stroke-linecap:square;stroke-linejoin:miter;stroke-opacity:1" />
      <path
         style="fill:none;stroke:#787878;stroke-width:0.77160746px;stroke-linecap:square;stroke-linejoin:miter;stroke-opacity:1"
         d="m 163.49993,46.5 11.65975,0"
         id="path4026"
         inkscape:connector-curvature="0" />
    </g>
    <g
       style="display:inline;enable-background:new"
       id="g4028"
       transform="matrix(1.2579314,0,0,1.3352119,-64.624217,106.53346)">
      <path
         inkscape:connector-curvature="0"
         id="path4030"
         d="m 163.49993,32.5 11.65975,0"
         style="fill:none;stroke:#787878;stroke-width:0.77160746px;stroke-linecap:square;stroke-linejoin:miter;stroke-opacity:1" />
      <path
         style="fill:none;stroke:#787878;stroke-width:0.77160746px;stroke-linecap:square;stroke-linejoin:miter;stroke-opacity:1"
         d="m 163.49993,34.5 11.65975,0"
         id="path4032"
         inkscape:connector-curvature="0" />
      <path
         inkscape:connector-curvature="0"
         id="path4034"
         d="m 163.49993,36.5 11.65975,0"
         style="fill:none;stroke:#787878;stroke-width:0.77160746px;stroke-linecap:square;stroke-linejoin:miter;stroke-opacity:1" />
      <path
         style="fill:none;stroke:#787878;stroke-width:0.77160746px;stroke-linecap:square;stroke-linejoin:miter;stroke-opacity:1"
         d="m 163.49993,38.5 11.65975,0"
         id="path4036"
         inkscape:connector-curvature="0" />
      <path
         inkscape:connector-curvature="0"
         id="path4038"
         d="m 163.49993,40.5 11.65975,0"
         style="fill:none;stroke:#787878;stroke-width:0.77160746px;stroke-linecap:square;stroke-linejoin:miter;stroke-opacity:1" />
      <path
         style="fill:none;stroke:#787878;stroke-width:0.77160746px;stroke-linecap:square;stroke-linejoin:miter;stroke-opacity:1"
         d="m 163.49993,42.5 11.65975,0"
         id="path4040"
         inkscape:connector-curvature="0" />
      <path
         inkscape:connector-curvature="0"
         id="path4042"
         d="m 163.49993,44.5 11.65975,0"
         style="fill:none;stroke:#787878;stroke-width:0.77160746px;stroke-linecap:square;stroke-linejoin:miter;stroke-opacity:1" />
      <path
         style="fill:none;stroke:#787878;stroke-width:0.77160746px;stroke-linecap:square;stroke-linejoin:miter;stroke-opacity:1"
         d="m 163.49993,46.5 11.65975,0"
         id="path4044"
         inkscape:connector-curvature="0" />
      <path
         inkscape:connector-curvature="0"
         id="path4046"
         d="m 163.49993,46.5 11.65975,0"
         style="fill:none;stroke:#787878;stroke-width:0.77160746px;stroke-linecap:square;stroke-linejoin:miter;stroke-opacity:1" />
    </g>
    <g
       style="display:inline;enable-background:new"
       transform="matrix(1.2579314,0,0,1.3352119,-47.291017,106.53346)"
       id="g4048">
      <path
         inkscape:connector-curvature="0"
         id="path4054"
         d="m 163.49993,46.5 11.65975,0"
         style="fill:none;stroke:#787878;stroke-width:0.77160746px;stroke-linecap:square;stroke-linejoin:miter;stroke-opacity:1" />
      <path
         style="fill:none;stroke:#787878;stroke-width:0.77160746px;stroke-linecap:square;stroke-linejoin:miter;stroke-opacity:1"
         d="m 163.49993,46.5 11.65975,0"
         id="path4056"
         inkscape:connector-curvature="0" />
    </g>
    <path
       style="font-size:13.58991337px;font-style:normal;font-variant:normal;font-weight:bold;font-stretch:normal;text-align:start;line-height:125%;writing-mode:lr-tb;text-anchor:start;fill:#646464;fill-opacity:1;fill-rule:nonzero;stroke:#646464;stroke-width:0.5;stroke-miterlimit:4;stroke-opacity:1;stroke-dasharray:none;marker:none;visibility:visible;display:inline;overflow:visible;enable-background:accumulate;font-family:Bitstream Vera Serif"
       d="m 157.78435,149.42784 0,2.76394 c 7.10364,0.13236 12.84354,5.87625 12.97411,12.98674 l 2.78919,0 c -0.13181,-8.64913 -7.12229,-15.61903 -15.7633,-15.75068 z m 0,6.37347 0,2.49891 c 3.74948,0.13047 6.7603,3.12558 6.89092,6.8783 l 2.4989,0 c -0.13166,-5.13644 -4.25813,-9.2457 -9.38982,-9.37721 z m 1.64069,6.31036 c -0.4397,2e-5 -0.78084,0.16216 -1.08538,0.46697 -0.30495,0.29981 -0.45435,0.62004 -0.45435,1.06014 0,0.43323 0.15047,0.77405 0.45435,1.07277 0.30296,0.29786 0.64232,0.44173 1.08538,0.44173 0.42933,0 0.74918,-0.1431 1.04752,-0.44173 0.3055,-0.30579 0.46697,-0.64646 0.46697,-1.07277 0,-0.4401 -0.16202,-0.76033 -0.46697,-1.06014 -0.29991,-0.30564 -0.62165,-0.46695 -1.04752,-0.46697 z"
       id="path6248"
       inkscape:connector-curvature="0" />
    <g
       id="g6250"
       transform="matrix(0.516938,0,0,0.516938,133.19731,148.97823)"
       style="display:inline;enable-background:new">
      <path
         style="opacity:0.4;fill:url(#radialGradient6262);fill-opacity:1;fill-rule:evenodd;stroke:none;stroke-width:0.99999988;marker:none;visibility:visible;display:inline;overflow:visible"
         id="path6252"
         transform="matrix(2.1647059,0,0,2.5636643,-111.56471,26.849769)"
         d="m 73.25,4.625 a 10.625,3.625 0 1 1 -21.25,0 10.625,3.625 0 1 1 21.25,0 z"
         inkscape:connector-curvature="0" />
      <path
         style="fill:url(#radialGradient6264);fill-opacity:1;fill-rule:nonzero;stroke:url(#linearGradient6266);stroke-width:1.93446791;stroke-miterlimit:4;stroke-dasharray:none"
         id="path6254"
         d="M 43.500003,23.999309 C 43.500003,34.769208 34.768912,43.5 24.000248,43.5 13.230599,43.5 4.5000032,34.769109 4.5000032,23.999309 4.5000032,13.229904 13.230599,4.5 24.000248,4.5 c 10.768664,0 19.499755,8.729904 19.499755,19.499309 l 0,0 z"
         inkscape:connector-curvature="0" />
      <path
         style="opacity:0.4;fill:#000000;fill-opacity:1;fill-rule:nonzero;stroke:none"
         id="path6256"
         d="m 24.329633,5.218182 -2.362344,0.2704567 -2.59858,0.7099494 c 0.221353,-0.077615 0.445595,-0.1623374 0.674956,-0.2366499 L 19.739934,5.4210246 18.727501,5.5900601 18.221284,6.0633596 17.445085,6.1647809 16.736382,6.502852 16.398905,6.6718876 16.29766,6.807116 15.791444,6.9085373 15.487716,7.5508723 15.08274,6.7395017 l -0.134989,0.3380711 0.0675,0.9127919 -0.641208,0.5409137 -0.371225,0.9804061 0.7762,0 0.303728,-0.642335 0.101245,-0.2366498 c 0.341288,-0.241775 0.66483,-0.5110331 1.012433,-0.7437563 l 0.809946,0.2704568 c 0.527335,0.3588995 1.058376,0.7234732 1.586147,1.0818274 L 19.368709,8.5312784 18.491266,8.1594002 18.086294,7.3480297 16.601391,7.1789941 16.567641,7.0099586 17.208847,7.145187 17.580075,6.7733087 18.390021,6.6042734 C 18.581694,6.5108897 18.770243,6.44363 18.963732,6.3676236 l -0.506216,0.4732995 1.82238,1.250863 0,0.7437562 -0.708703,0.7099493 0.944937,1.8931994 0.641208,-0.371881 0.809948,-1.2508614 c 1.138725,-0.3526792 2.165016,-0.7630693 3.239789,-1.2508632 l -0.0675,0.4732995 0.539963,0.3718782 0.944939,-0.6423349 -0.47247,-0.5409137 -0.641209,0.3718781 -0.202486,-0.067613 c 0.04651,-0.02129 0.08828,-0.045973 0.13499,-0.067613 L 26.388247,6.0295525 24.329633,5.218182 z m -9.246893,3.6511675 0.776199,0.5409136 0.641209,0 0,-0.6423349 L 15.72395,8.429857 15.08274,8.8693495 z M 33.002811,8.429857 31.619153,8.7679282 30.741712,9.342649 l 0,0.5071058 -1.383659,0.8789842 0.269983,1.31848 0.809946,-0.574723 0.506216,0.574723 0.573714,0.338071 0.371224,-0.980408 -0.202486,-0.57472 0.202486,-0.405687 0.809948,-0.7437548 0.371225,0 -0.371225,0.8113728 0,0.743754 c 0.333836,-0.09103 0.6708,-0.126483 1.012433,-0.169037 l -0.944938,0.676145 -0.0675,0.405683 -1.079929,0.912794 -1.113678,-0.270459 0,-0.642335 -0.506216,0.338072 0.236235,0.574722 -0.809947,0 -0.438721,0.743756 -0.539965,0.608528 -0.978685,0.202842 0.573712,0.574721 0.134991,0.57472 -0.708703,0 -0.944938,0.507108 0,1.48751 0.438721,0 0.404973,0.439494 0.91119,-0.439494 0.337478,-0.912791 0.674956,-0.405685 0.134991,-0.338071 1.079928,-0.270457 0.60746,0.676142 0.641209,0.338071 -0.371227,0.743758 0.573715,-0.169037 0.303728,-0.743757 -0.74245,-0.845177 0.303729,0 0.742451,0.608528 0.134992,0.811371 0.641207,0.743757 0.168739,-1.081827 0.337478,-0.169037 c 0.359225,0.373574 0.642383,0.83043 0.944938,1.250864 l 1.113677,0.06762 0.641207,0.405686 -0.303729,0.439492 -0.641208,0.574721 -0.944939,0 -1.248667,-0.405684 -0.641208,0.06762 -0.472469,0.540915 -1.349912,-1.352286 -0.944937,-0.270456 -1.383659,0.169036 -1.21492,0.33807 c -0.693063,0.7871 -1.402636,1.582869 -2.058616,2.400307 l -0.776198,1.893195 0.371226,0.405687 -0.674956,0.980406 0.742451,1.724162 c 0.617799,0.700089 1.239228,1.395452 1.856128,2.09604 l 0.91119,-0.777564 0.371226,0.473301 0.978687,-0.642335 0.337477,0.371878 0.978685,0 0.573713,0.642335 -0.337478,1.149442 0.674955,0.777564 -0.03375,1.352283 0.506216,0.980406 -0.371225,0.845178 c -0.03619,0.60617 -0.0675,1.18551 -0.0675,1.791777 0.297757,0.821342 0.59628,1.640668 0.877443,2.467918 l 0.202487,1.318476 0,0.676143 0.539963,0 0.7762,-0.507106 0.944939,0 1.417406,-1.588934 -0.168739,-0.540915 0.944939,-0.845177 -0.708705,-0.777563 0.843694,-0.676141 0.809948,-0.507109 0.371225,-0.405685 -0.236234,-0.912791 c 0,-0.768475 2e-6,-1.530306 0,-2.298884 l 0.641209,-1.419897 0.809945,-0.878985 0.877443,-2.163655 0,-0.574721 c -0.436643,0.0551 -0.855168,0.10478 -1.282416,0.13523 l 0.877442,-0.878986 1.21492,-0.81137 0.641209,-0.743758 0,-0.811369 C 41.631793,22.01604 41.484928,21.720356 41.338501,21.44561 l -0.573712,0.676141 -0.438721,-0.507105 -0.641209,-0.507107 0,-1.048021 0.742452,0.845178 0.843696,-0.101421 c 0.380615,0.346139 0.746089,0.65392 1.079927,1.04802 l 0.539978,-0.608545 c 0,-0.655131 -0.736573,-3.889319 -2.328596,-6.626192 -1.592024,-2.735972 -4.387213,-5.240102 -4.387211,-5.240102 l -0.202488,0.3718783 -0.742451,0.8113707 -0.944937,-0.9804063 0.944937,0 L 35.668888,9.1059992 33.914003,8.7679282 33.002811,8.429857 z M 12.720395,8.8693495 12.382918,9.7483343 c 0,0 -0.590841,0.097717 -0.74245,0.1352286 -1.9362043,1.7873441 -5.8406714,5.6641681 -6.7495557,12.9481221 0.035987,0.168879 0.6412078,1.14944 0.6412078,1.14944 l 1.4849023,0.878986 1.4849024,0.405684 0.6412079,0.777564 0.9786853,0.743756 0.573712,-0.101421 0.404974,0.202844 0,0.135226 -0.539965,1.521321 -0.438721,0.642336 0.134991,0.304263 -0.3374777,1.217057 1.2486677,2.298882 1.282416,1.115635 0.573711,0.81137 -0.0675,1.690355 0.404974,0.946598 -0.404974,1.825586 c 0,0 -0.05404,-0.01501 0,0.169036 0.05452,0.184134 2.25593,1.422835 2.396091,1.318476 0.139681,-0.106305 0.269983,-0.202843 0.269983,-0.202843 l -0.13499,-0.405685 0.573712,-0.540913 0.202486,-0.574722 0.911191,-0.304265 0.708702,-1.757968 -0.202486,-0.4733 0.472468,-0.743756 1.07993,-0.236649 0.539965,-1.28467 -0.134992,-1.588935 0.843695,-1.183247 0.13499,-1.217056 c -1.15759,-0.575052 -2.293316,-1.165913 -3.442272,-1.75797 l -0.573713,-1.115634 -1.046181,-0.23665 -0.573712,-1.521321 -1.383659,0.169035 -1.214921,-0.878983 -1.282415,1.115634 0,0.169036 C 10.716387,26.202752 10.261353,26.186409 9.9193333,25.975746 l -0.2699819,-0.811371 0,-0.878985 -0.8774423,0.101421 c 0.070612,-0.559892 0.1651315,-1.13056 0.2362324,-1.690355 l -0.5062167,0 -0.5062167,0.642335 -0.4724689,0.23665 -0.7087034,-0.405685 -0.067496,-0.878985 0.1349912,-0.946599 1.0461812,-0.811371 0.8436945,0 0.1687389,-0.473299 1.0461817,0.236648 0.7761987,0.980407 0.134991,-1.622742 1.349911,-1.115633 0.472468,-1.183248 1.012435,-0.405685 0.539964,-0.811372 1.282416,-0.23665 0.641208,-0.946599 c -0.634667,0 -1.288957,0 -1.923624,0 l 1.214921,-0.574721 0.843693,0 1.07993,-0.371877 0.202487,1.04802 0.472469,-0.743757 -0.539966,-0.371878 0.134992,-0.439491 -0.438721,-0.405687 -0.47247,-0.135228 0.134992,-0.507106 -0.371226,-0.709948 -0.843695,0.33807 0.134992,-0.642334 -0.978686,-0.574722 -0.776198,1.352284 0.0675,0.4733 -0.776198,0.338071 -0.472469,1.04802 -0.236234,-0.980407 -1.316164,-0.540913 -0.236234,-0.743756 1.788632,-1.014213 0.776198,-0.743757 0.0675,-0.8789846 -0.438721,-0.2366498 -0.573713,-0.067613 z m 14.477799,1.6227435 0,0.54091 0.30373,0.338072 0,0.811371 -0.168739,1.081827 0.877442,-0.169036 0.641209,-0.642334 -0.573713,-0.540915 c -0.186049,-0.496308 -0.3746,-0.943871 -0.607459,-1.419895 l -0.47247,0 z m -0.742452,1.081824 -0.539963,0.169038 0.13499,0.980405 0.708703,-0.371881 -0.30373,-0.777562 z m 9.888101,8.89127 0.809946,0.946598 0.978686,2.096042 0.607459,0.67614 -0.303728,0.709952 0.539964,0.642335 c -0.247792,0.01643 -0.487764,0.03381 -0.742451,0.03381 -0.462673,-0.973935 -0.828843,-1.956133 -1.181173,-2.975025 l -0.60746,-0.676142 -0.337478,-1.217056 0.236235,-0.23665 z"
         inkscape:connector-curvature="0" />
      <path
         style="opacity:0.4;fill:none;stroke:url(#linearGradient6268);stroke-width:1.9344691;stroke-miterlimit:4;stroke-opacity:1;stroke-dasharray:none"
         id="path6258"
         d="m 42.058059,23.999359 c 0,9.973511 -8.085463,18.058697 -18.057829,18.058697 -9.97328,0 -18.0582849,-8.085277 -18.0582849,-18.058697 0,-9.973051 8.0850049,-18.0574169 18.0582849,-18.0574169 9.972366,0 18.057829,8.0843659 18.057829,18.0574169 l 0,0 z"
         inkscape:connector-curvature="0" />
      <g
         id="g6260"
         transform="matrix(0.9999061,-0.01370139,0.01370139,0.9999061,-0.2886966,0.5358538)" />
    </g>
  </g>
</svg>
