<?xml version="1.0" encoding="UTF-8" standalone="no"?>
<!-- Created with Inkscape (http://www.inkscape.org/) -->

<svg
   xmlns:dc="http://purl.org/dc/elements/1.1/"
   xmlns:cc="http://creativecommons.org/ns#"
   xmlns:rdf="http://www.w3.org/1999/02/22-rdf-syntax-ns#"
   xmlns:svg="http://www.w3.org/2000/svg"
   xmlns="http://www.w3.org/2000/svg"
   xmlns:xlink="http://www.w3.org/1999/xlink"
   xmlns:sodipodi="http://sodipodi.sourceforge.net/DTD/sodipodi-0.dtd"
   xmlns:inkscape="http://www.inkscape.org/namespaces/inkscape"
   width="24"
   height="24"
   id="svg2"
   sodipodi:version="0.32"
   inkscape:version="0.48.1 r9760"
   version="1.0"
   sodipodi:docname="bookmark-toolbar.svg"
   inkscape:output_extension="org.inkscape.output.svg.inkscape">
  <defs
     id="defs4">
    <linearGradient
       gradientTransform="matrix(1.0058652,0,0,0.994169,100,0)"
       gradientUnits="userSpaceOnUse"
       id="ButtonShadow-0"
       y2="7.0165396"
       x2="45.447727"
       y1="92.539597"
       x1="45.447727">
      <stop
         offset="0"
         style="stop-color:#000000;stop-opacity:1"
         id="stop3750-8" />
      <stop
         offset="1"
         style="stop-color:#000000;stop-opacity:0.58823532"
         id="stop3752-5" />
    </linearGradient>
    <clipPath
       id="clipPath3613">
      <rect
         style="fill:#ffffff;fill-opacity:1;fill-rule:nonzero;stroke:none"
         id="rect3615"
         y="6"
         x="6"
         ry="6"
         rx="6"
         height="84"
         width="84" />
    </clipPath>
    <filter
       id="filter3794"
       color-interpolation-filters="sRGB"
       height="1.3839999"
       width="1.3839999"
       y="-0.192"
       x="-0.192">
      <feGaussianBlur
         stdDeviation="5.28"
         id="feGaussianBlur3796" />
    </filter>
    <filter
       id="filter3174"
       color-interpolation-filters="sRGB">
      <feGaussianBlur
         stdDeviation="1.71"
         id="feGaussianBlur3176" />
    </filter>
    <linearGradient
       id="linearGradient3737">
      <stop
         offset="0"
         style="stop-color:#ffffff;stop-opacity:1"
         id="stop3739" />
      <stop
         offset="1"
         style="stop-color:#ffffff;stop-opacity:0"
         id="stop3741" />
    </linearGradient>
    <linearGradient
       gradientTransform="scale(1.0058652,0.994169)"
       gradientUnits="userSpaceOnUse"
       id="ButtonShadow"
       y2="7.0165396"
       x2="45.447727"
       y1="92.539597"
       x1="45.447727">
      <stop
         offset="0"
         style="stop-color:#000000;stop-opacity:1"
         id="stop3750" />
      <stop
         offset="1"
         style="stop-color:#000000;stop-opacity:0.58823532"
         id="stop3752" />
    </linearGradient>
    <linearGradient
       id="linearGradient3614">
      <stop
         offset="0"
         style="stop-color:#b9b9b9;stop-opacity:1"
         id="stop3616" />
      <stop
         offset="1"
         style="stop-color:#dedede;stop-opacity:1"
         id="stop3618" />
    </linearGradient>
    <linearGradient
       inkscape:collect="always"
       xlink:href="#ButtonShadow"
       id="linearGradient3190"
       gradientUnits="userSpaceOnUse"
       gradientTransform="scale(1.0058652,0.994169)"
       x1="45.447727"
       y1="92.539597"
       x2="45.447727"
       y2="7.0165396" />
    <linearGradient
       inkscape:collect="always"
       xlink:href="#ButtonShadow-0"
       id="linearGradient3232"
       gradientUnits="userSpaceOnUse"
       gradientTransform="matrix(1.0238095,0,0,1.0119048,-1.1428571,-98.071429)"
       x1="32.251034"
       y1="6.1317081"
       x2="32.251034"
       y2="90.238609" />
    <linearGradient
       inkscape:collect="always"
       xlink:href="#ButtonShadow-0"
       id="linearGradient3234"
       gradientUnits="userSpaceOnUse"
       gradientTransform="matrix(1.0238095,0,0,1.0119048,-1.1428571,-98.071429)"
       x1="32.251034"
       y1="6.1317081"
       x2="32.251034"
       y2="90.238609" />
    <linearGradient
       inkscape:collect="always"
       xlink:href="#ButtonShadow-0"
       id="linearGradient3236"
       gradientUnits="userSpaceOnUse"
       gradientTransform="matrix(1.0238095,0,0,1.0119048,-1.1428571,-98.071429)"
       x1="32.251034"
       y1="6.1317081"
       x2="32.251034"
       y2="90.238609" />
    <linearGradient
       inkscape:collect="always"
       xlink:href="#ButtonShadow-0"
       id="linearGradient3238"
       gradientUnits="userSpaceOnUse"
       gradientTransform="matrix(1.0238095,0,0,1.0119048,-1.1428571,-98.071429)"
       x1="32.251034"
       y1="6.1317081"
       x2="32.251034"
       y2="90.238609" />
    <linearGradient
       inkscape:collect="always"
       xlink:href="#ButtonShadow-0"
       id="linearGradient3240"
       gradientUnits="userSpaceOnUse"
       gradientTransform="translate(0,-97)"
       x1="32.251034"
       y1="6.1317081"
       x2="32.251034"
       y2="90.238609" />
    <linearGradient
       inkscape:collect="always"
       xlink:href="#linearGradient3614"
       id="linearGradient3242"
       gradientUnits="userSpaceOnUse"
       x1="48"
       y1="90"
       x2="48"
       y2="5.9877172" />
    <linearGradient
       inkscape:collect="always"
       xlink:href="#linearGradient3737"
       id="linearGradient3244"
       gradientUnits="userSpaceOnUse"
       x1="36.357143"
       y1="6"
       x2="36.357143"
       y2="63.893143" />
    <radialGradient
       inkscape:collect="always"
       xlink:href="#linearGradient3737"
       id="radialGradient3246"
       gradientUnits="userSpaceOnUse"
       gradientTransform="matrix(1.1573129,0,0,0.99590774,-7.5510206,0.19713193)"
       cx="48"
       cy="90.171875"
       fx="48"
       fy="90.171875"
       r="42" />
    <linearGradient
       inkscape:collect="always"
       xlink:href="#linearGradient3737"
       id="linearGradient3248"
       gradientUnits="userSpaceOnUse"
       x1="48"
       y1="20.220806"
       x2="48"
       y2="138.66119" />
    <linearGradient
       inkscape:collect="always"
       id="linearGradient3230">
      <stop
         style="stop-color:#ffefa7;stop-opacity:1"
         offset="0"
         id="stop3232" />
      <stop
         style="stop-color:#ffc64c;stop-opacity:1"
         offset="1"
         id="stop3234" />
    </linearGradient>
    <linearGradient
       id="linearGradient5178">
      <stop
         style="stop-color:#ffffff;stop-opacity:1;"
         offset="0"
         id="stop5180" />
      <stop
         id="stop6155"
         offset="0.8918919"
         style="stop-color:#ffdea1;stop-opacity:1;" />
      <stop
         style="stop-color:#ffbd43;stop-opacity:0;"
         offset="1"
         id="stop5182" />
    </linearGradient>
    <linearGradient
       id="linearGradient2250">
      <stop
         style="stop-color:#ffc349;stop-opacity:1;"
         offset="0"
         id="stop2252" />
      <stop
         style="stop-color:#ff921a;stop-opacity:1"
         offset="1"
         id="stop2256" />
    </linearGradient>
    <linearGradient
       id="linearGradient3903">
      <stop
         id="stop3905"
         offset="0"
         style="stop-color:#a05400;stop-opacity:1;" />
      <stop
         id="stop3907"
         offset="1"
         style="stop-color:#c8a000;stop-opacity:1;" />
    </linearGradient>
    <linearGradient
       id="linearGradient8838">
      <stop
         style="stop-color:#7e7e7e;stop-opacity:1;"
         offset="0"
         id="stop8840" />
      <stop
         style="stop-color:#868686;stop-opacity:0;"
         offset="1"
         id="stop8842" />
    </linearGradient>
    <radialGradient
       inkscape:collect="always"
       xlink:href="#linearGradient8838"
       id="radialGradient3247"
       gradientUnits="userSpaceOnUse"
       gradientTransform="matrix(1,0,0,0.341176,0,3.047059)"
       cx="62.625"
       cy="4.625"
       fx="62.625"
       fy="4.625"
       r="10.625" />
    <linearGradient
       inkscape:collect="always"
       xlink:href="#linearGradient2250"
       id="linearGradient3249"
       gradientUnits="userSpaceOnUse"
       gradientTransform="matrix(0.7732717,0,0,0.8121481,-36.302657,-23.913203)"
       x1="21.483376"
       y1="21.671062"
       x2="21.483376"
       y2="33.409534" />
    <linearGradient
       inkscape:collect="always"
       xlink:href="#linearGradient3903"
       id="linearGradient3251"
       gradientUnits="userSpaceOnUse"
       gradientTransform="matrix(0.7732717,0,0,0.8121481,-36.302657,-23.913203)"
       x1="21.483376"
       y1="36.345936"
       x2="21.483376"
       y2="13.090934" />
    <linearGradient
       inkscape:collect="always"
       xlink:href="#linearGradient5178"
       id="linearGradient3253"
       gradientUnits="userSpaceOnUse"
       gradientTransform="matrix(0.7295433,0,0,0.755896,-35.378576,-22.661485)"
       x1="21.483376"
       y1="9.463129"
       x2="21.483376"
       y2="26.294357" />
    <linearGradient
       inkscape:collect="always"
       xlink:href="#linearGradient3230"
       id="linearGradient3255"
       gradientUnits="userSpaceOnUse"
       gradientTransform="matrix(0.630891,0,0,0.6602294,-34.831552,-19.789264)"
       x1="24.097157"
       y1="9.5958176"
       x2="23.673159"
       y2="22.839001" />
  </defs>
  <sodipodi:namedview
     id="base"
     pagecolor="#ffffff"
     bordercolor="#666666"
     borderopacity="1.0"
     gridtolerance="10000"
     guidetolerance="10"
     objecttolerance="10"
     inkscape:pageopacity="0.0"
     inkscape:pageshadow="2"
     inkscape:zoom="5.6568542"
     inkscape:cx="22.728642"
     inkscape:cy="29.981347"
     inkscape:document-units="px"
     inkscape:current-layer="layer1"
     showgrid="false"
     inkscape:window-width="1366"
     inkscape:window-height="688"
     inkscape:window-x="0"
     inkscape:window-y="25"
     inkscape:window-maximized="1" />
  <metadata
     id="metadata7">
    <rdf:RDF>
      <cc:Work
         rdf:about="">
        <dc:format>image/svg+xml</dc:format>
        <dc:type
           rdf:resource="http://purl.org/dc/dcmitype/StillImage" />
        <dc:title />
      </cc:Work>
    </rdf:RDF>
  </metadata>
  <g
     inkscape:label="Layer 1"
     inkscape:groupmode="layer"
     id="layer1">
    <g
       id="g3218"
       transform="matrix(0.28241684,0,0,0.17379272,33.014374,12.501547)">
      <g
         transform="translate(-122.40907,-52.385892)"
         style="display:inline"
         id="layer3">
        <path
           style="opacity:0.07999998;fill:url(#linearGradient3232);fill-opacity:1;fill-rule:nonzero;stroke:none;display:inline"
           id="path3786"
           transform="scale(1,-1)"
           d="m 12,-95.03125 c -5.5110903,0 -10.03125,4.52016 -10.03125,10.03125 l 0,71 c 0,5.5110902 4.5201598,10.03125 10.03125,10.03125 l 72,0 c 5.51109,0 10.03125,-4.5201597 10.03125,-10.03125 l 0,-71 c 0,-5.51109 -4.52016,-10.03125 -10.03125,-10.03125 l -72,0 z"
           inkscape:connector-curvature="0" />
        <path
           style="opacity:0.1;fill:url(#linearGradient3234);fill-opacity:1;fill-rule:nonzero;stroke:none;display:inline"
           id="path3778"
           transform="scale(1,-1)"
           d="m 12,-94.03125 c -4.971633,0 -9.03125,4.059617 -9.03125,9.03125 l 0,71 c 0,4.9716329 4.0596171,9.03125 9.03125,9.03125 l 72,0 c 4.971633,0 9.03125,-4.059617 9.03125,-9.03125 l 0,-71 c 0,-4.971633 -4.059617,-9.03125 -9.03125,-9.03125 l -72,0 z"
           inkscape:connector-curvature="0" />
        <path
           style="opacity:0.2;fill:url(#linearGradient3236);fill-opacity:1;fill-rule:nonzero;stroke:none;display:inline"
           id="path3770"
           transform="scale(1,-1)"
           d="m 12,-93 c -4.4091333,0 -8,3.590867 -8,8 l 0,71 c 0,4.4091333 3.5908667,8 8,8 l 72,0 c 4.409133,0 8,-3.5908667 8,-8 l 0,-71 c 0,-4.409133 -3.590867,-8 -8,-8 l -72,0 z"
           inkscape:connector-curvature="0" />
        <rect
           style="opacity:0.3;fill:url(#linearGradient3238);fill-opacity:1;fill-rule:nonzero;stroke:none;display:inline"
           id="rect3723"
           transform="scale(1,-1)"
           y="-92"
           x="5"
           ry="7"
           rx="7"
           height="85"
           width="86" />
        <rect
           style="opacity:0.45;fill:url(#linearGradient3240);fill-opacity:1;fill-rule:nonzero;stroke:none;display:inline"
           id="rect3716"
           transform="scale(1,-1)"
           y="-91"
           x="6"
           ry="6"
           rx="6"
           height="84"
           width="84" />
      </g>
      <g
         transform="translate(-122.40907,-52.385892)"
         style="display:inline"
         id="layer1-1">
        <rect
           style="fill:url(#linearGradient3242);fill-opacity:1;fill-rule:nonzero;stroke:none"
           id="rect2419"
           y="6"
           x="6"
           ry="6"
           rx="6"
           height="84"
           width="84" />
        <path
           style="opacity:0.5;fill:url(#linearGradient3244);fill-opacity:1;fill-rule:nonzero;stroke:none"
           id="rect3728"
           d="M 12,6 C 8.676,6 6,8.676 6,12 l 0,2 0,68 0,2 c 0,0.334721 0.04135,0.6507 0.09375,0.96875 0.0487,0.295596 0.09704,0.596915 0.1875,0.875 0.00988,0.03038 0.020892,0.0636 0.03125,0.09375 0.098865,0.287771 0.2348802,0.547452 0.375,0.8125 0.1445918,0.273507 0.3156161,0.535615 0.5,0.78125 0.1843839,0.245635 0.3737765,0.473472 0.59375,0.6875 0.439947,0.428056 0.94291,0.814526 1.5,1.09375 0.278545,0.139612 0.5734731,0.246947 0.875,0.34375 -0.2562018,-0.100222 -0.4867109,-0.236272 -0.71875,-0.375 -0.00741,-0.0044 -0.023866,0.0045 -0.03125,0 -0.031933,-0.0193 -0.062293,-0.04251 -0.09375,-0.0625 -0.120395,-0.0767 -0.2310226,-0.163513 -0.34375,-0.25 -0.1061728,-0.0808 -0.2132809,-0.161112 -0.3125,-0.25 C 8.4783201,88.557317 8.3087904,88.373362 8.15625,88.1875 8.0486711,88.057245 7.9378561,87.922215 7.84375,87.78125 7.818661,87.74287 7.805304,87.69538 7.78125,87.65625 7.716487,87.553218 7.6510225,87.451733 7.59375,87.34375 7.4927417,87.149044 7.3880752,86.928049 7.3125,86.71875 7.30454,86.69694 7.288911,86.6782 7.28125,86.65625 7.2494249,86.5643 7.2454455,86.469419 7.21875,86.375 7.1884177,86.268382 7.1483606,86.171969 7.125,86.0625 7.0521214,85.720988 7,85.364295 7,85 L 7,83 7,15 7,13 C 7,10.218152 9.2181517,8 12,8 l 2,0 68,0 2,0 c 2.781848,0 5,2.218152 5,5 l 0,2 0,68 0,2 c 0,0.364295 -0.05212,0.720988 -0.125,1.0625 -0.04415,0.206893 -0.08838,0.397658 -0.15625,0.59375 -0.0077,0.02195 -0.0233,0.04069 -0.03125,0.0625 -0.06274,0.173739 -0.138383,0.367449 -0.21875,0.53125 -0.04158,0.0828 -0.07904,0.169954 -0.125,0.25 -0.0546,0.09721 -0.126774,0.18835 -0.1875,0.28125 -0.09411,0.140965 -0.204921,0.275995 -0.3125,0.40625 -0.143174,0.17445 -0.303141,0.346998 -0.46875,0.5 -0.01117,0.0102 -0.01998,0.02115 -0.03125,0.03125 -0.138386,0.125556 -0.285091,0.234436 -0.4375,0.34375 -0.102571,0.07315 -0.204318,0.153364 -0.3125,0.21875 -0.0074,0.0045 -0.02384,-0.0044 -0.03125,0 -0.232039,0.138728 -0.462548,0.274778 -0.71875,0.375 0.301527,-0.0968 0.596455,-0.204138 0.875,-0.34375 0.55709,-0.279224 1.060053,-0.665694 1.5,-1.09375 0.219973,-0.214028 0.409366,-0.441865 0.59375,-0.6875 0.184384,-0.245635 0.355408,-0.507743 0.5,-0.78125 0.14012,-0.265048 0.276135,-0.524729 0.375,-0.8125 0.01041,-0.03078 0.02133,-0.06274 0.03125,-0.09375 0.09046,-0.278085 0.1388,-0.579404 0.1875,-0.875 C 89.95865,84.6507 90,84.334721 90,84 l 0,-2 0,-68 0,-2 C 90,8.676 87.324,6 84,6 L 12,6 z"
           inkscape:connector-curvature="0" />
        <path
           style="opacity:0.25;fill:url(#radialGradient3246);fill-opacity:1;fill-rule:nonzero;stroke:none"
           id="path3615"
           d="M 12,90 C 8.676,90 6,87.324 6,84 L 6,82 6,14 6,12 c 0,-0.334721 0.04135,-0.6507 0.09375,-0.96875 0.0487,-0.295596 0.09704,-0.596915 0.1875,-0.875 C 6.29113,10.12587 6.302142,10.09265 6.3125,10.0625 6.411365,9.774729 6.5473802,9.515048 6.6875,9.25 6.8320918,8.976493 7.0031161,8.714385 7.1875,8.46875 7.3718839,8.223115 7.5612765,7.995278 7.78125,7.78125 8.221197,7.353194 8.72416,6.966724 9.28125,6.6875 9.559795,6.547888 9.8547231,6.440553 10.15625,6.34375 9.9000482,6.443972 9.6695391,6.580022 9.4375,6.71875 c -0.00741,0.0044 -0.023866,-0.0045 -0.03125,0 -0.031933,0.0193 -0.062293,0.04251 -0.09375,0.0625 -0.120395,0.0767 -0.2310226,0.163513 -0.34375,0.25 -0.1061728,0.0808 -0.2132809,0.161112 -0.3125,0.25 C 8.4783201,7.442683 8.3087904,7.626638 8.15625,7.8125 8.0486711,7.942755 7.9378561,8.077785 7.84375,8.21875 7.818661,8.25713 7.805304,8.30462 7.78125,8.34375 7.716487,8.446782 7.6510225,8.548267 7.59375,8.65625 7.4927417,8.850956 7.3880752,9.071951 7.3125,9.28125 7.30454,9.30306 7.288911,9.3218 7.28125,9.34375 7.2494249,9.4357 7.2454455,9.530581 7.21875,9.625 7.1884177,9.731618 7.1483606,9.828031 7.125,9.9375 7.0521214,10.279012 7,10.635705 7,11 l 0,2 0,68 0,2 c 0,2.781848 2.2181517,5 5,5 l 2,0 68,0 2,0 c 2.781848,0 5,-2.218152 5,-5 l 0,-2 0,-68 0,-2 C 89,10.635705 88.94788,10.279012 88.875,9.9375 88.83085,9.730607 88.78662,9.539842 88.71875,9.34375 88.71105,9.3218 88.69545,9.30306 88.6875,9.28125 88.62476,9.107511 88.549117,8.913801 88.46875,8.75 88.42717,8.6672 88.38971,8.580046 88.34375,8.5 88.28915,8.40279 88.216976,8.31165 88.15625,8.21875 88.06214,8.077785 87.951329,7.942755 87.84375,7.8125 87.700576,7.63805 87.540609,7.465502 87.375,7.3125 87.36383,7.3023 87.35502,7.29135 87.34375,7.28125 87.205364,7.155694 87.058659,7.046814 86.90625,6.9375 86.803679,6.86435 86.701932,6.784136 86.59375,6.71875 c -0.0074,-0.0045 -0.02384,0.0044 -0.03125,0 -0.232039,-0.138728 -0.462548,-0.274778 -0.71875,-0.375 0.301527,0.0968 0.596455,0.204138 0.875,0.34375 0.55709,0.279224 1.060053,0.665694 1.5,1.09375 0.219973,0.214028 0.409366,0.441865 0.59375,0.6875 0.184384,0.245635 0.355408,0.507743 0.5,0.78125 0.14012,0.265048 0.276135,0.524729 0.375,0.8125 0.01041,0.03078 0.02133,0.06274 0.03125,0.09375 0.09046,0.278085 0.1388,0.579404 0.1875,0.875 C 89.95865,11.3493 90,11.665279 90,12 l 0,2 0,68 0,2 c 0,3.324 -2.676,6 -6,6 l -72,0 z"
           inkscape:connector-curvature="0" />
      </g>
      <g
         transform="translate(-122.40907,-52.385892)"
         style="display:inline"
         id="layer5">
        <rect
           style="opacity:0.1;fill:url(#linearGradient3248);fill-opacity:1;fill-rule:nonzero;stroke:#ffffff;stroke-width:0.5;stroke-linecap:round;stroke-linejoin:miter;stroke-miterlimit:4;stroke-opacity:1;stroke-dasharray:none;stroke-dashoffset:0;filter:url(#filter3794)"
           id="rect3171"
           clip-path="url(#clipPath3613)"
           y="15"
           x="15"
           ry="12"
           rx="12"
           height="66"
           width="66" />
      </g>
    </g>
    <g
       id="layer2"
       style="display:none"
       transform="translate(-122.40907,-52.385892)">
      <rect
         width="86"
         height="85"
         rx="6"
         ry="6"
         x="5"
         y="7"
         id="rect3745"
         style="opacity:0.9;fill:url(#linearGradient3190);fill-opacity:1;fill-rule:nonzero;stroke:none;filter:url(#filter3174)" />
    </g>
    <g
       id="g3240"
       transform="translate(31.69017,16.284272)">
      <path
         sodipodi:type="arc"
         style="opacity:0.56043958;fill:url(#radialGradient3247);fill-opacity:1;fill-rule:evenodd;stroke:none;stroke-width:0.99999988;marker:none;visibility:visible;display:inline;overflow:visible"
         id="path8836"
         sodipodi:cx="62.625"
         sodipodi:cy="4.625"
         sodipodi:rx="10.625"
         sodipodi:ry="3.625"
         d="M 73.25,4.625 C 73.25,6.6270322 68.493025,8.25 62.625,8.25 56.756975,8.25 52,6.6270322 52,4.625 52,2.6229678 56.756975,1 62.625,1 68.493025,1 73.25,2.6229678 73.25,4.625 z"
         transform="matrix(1.0823528,0,0,0.9655173,-87.472514,-0.22939)" />
      <path
         sodipodi:nodetypes="cccccccccccccccccccccc"
         id="path1307"
         d="m -19.690171,-15.804672 c 0.68671,0.442333 0.949573,1.36426 1.361221,2.06333 0.715987,1.40533 1.281673,2.898033 2.092032,4.2481741 0.701503,0.5432304 1.689552,0.4480418 2.522136,0.650853 1.452792,0.2578627 2.959398,0.338829 4.349098,0.8826134 0.592412,0.5915995 -0.634159,1.3492955 -0.937561,1.8654785 -1.137364,1.27267 -2.432641,2.388473 -3.50169,3.726973 -0.275136,0.868577 0.116385,1.826097 0.190016,2.720413 0.215434,1.530836 0.607684,3.06076 0.544711,4.61693 -0.352646,0.774559 -1.417794,-0.216487 -1.978969,-0.360037 -1.503907,-0.742804 -2.914564,-1.691817 -4.456971,-2.346039 -0.871546,-0.0064 -1.617623,0.680549 -2.4047,1.030456 -1.319646,0.688246 -2.583828,1.552824 -4.012447,1.970805 -0.810361,-0.112896 -0.36469,-1.360487 -0.285511,-2.087991 0.207899,-1.731749 0.631342,-3.434075 0.747131,-5.176907 -0.263509,-0.872545 -1.11613,-1.405495 -1.676202,-2.083557 -1.031021,-1.105476 -2.204577,-2.101062 -3.02454,-3.3989051 -0.148184,-0.8443319 1.268176,-0.7001139 1.802513,-0.9304131 1.632396,-0.3274752 3.304756,-0.4305579 4.918725,-0.8534645 0.708688,-0.5328431 0.927816,-1.5491933 1.36875,-2.3181643 0.68244,-1.371468 1.221324,-2.851353 2.143178,-4.071445 0.06688,-0.06467 0.141327,-0.143884 0.23908,-0.149103 z"
         style="fill:url(#linearGradient3249);fill-opacity:1;fill-rule:nonzero;stroke:url(#linearGradient3251);stroke-width:0.99999994;stroke-linecap:butt;stroke-linejoin:round;stroke-miterlimit:4;stroke-opacity:1;stroke-dasharray:none;stroke-dashoffset:0;marker:none;visibility:visible;display:inline;overflow:visible"
         inkscape:connector-curvature="0" />
      <path
         sodipodi:nodetypes="cccccccc"
         id="path1309"
         d="m -19.690171,-14.359349 c 1.056523,2.116169 2.017141,3.840941 3.073664,5.9571083 2.268915,0.3871768 3.855603,0.7089645 6.124517,1.0961413 -1.615948,1.6950404 -3.236625,3.3471864 -4.852573,5.0422264 6.077013,10.180728 -10.587199,8.920175 -8.764792,-0.131389 -1.615947,-1.695039 -3.23485,-3.258811 -4.850797,-4.9538522 2.268914,-0.3871759 4.017534,-0.6086532 6.286447,-0.99583 1.056523,-2.1161678 1.927012,-3.8982358 2.983534,-6.0144048 z"
         style="fill:none;stroke:url(#linearGradient3253);stroke-width:1;stroke-linecap:butt;stroke-linejoin:miter;stroke-miterlimit:4;stroke-opacity:1;stroke-dasharray:none;stroke-dashoffset:0;marker:none;visibility:visible;display:inline;overflow:visible"
         inkscape:connector-curvature="0" />
      <path
         style="fill:url(#linearGradient3255);fill-opacity:1;fill-rule:nonzero;stroke:none;stroke-width:1;marker:none;visibility:visible;display:inline;overflow:visible"
         d="m -19.69017,-13.263873 -2.649925,5.3317509 -5.592511,0.9357395 3.220435,3.3519636 c 1.948277,-1.995558 2.660872,-1.661238 5.022001,-1.619454 2.361131,0.04178 3.196996,-0.179217 5.071406,1.561008 l 3.17103,-3.3263772 -5.472047,-0.9471318 -2.770389,-5.287499 z"
         id="path1322"
         sodipodi:nodetypes="cccczcccc"
         inkscape:connector-curvature="0" />
    </g>
  </g>
</svg>
