<?xml version="1.0" encoding="UTF-8" standalone="no"?>
<!-- Created with Inkscape (http://www.inkscape.org/) -->

<svg
   xmlns:dc="http://purl.org/dc/elements/1.1/"
   xmlns:cc="http://creativecommons.org/ns#"
   xmlns:rdf="http://www.w3.org/1999/02/22-rdf-syntax-ns#"
   xmlns:svg="http://www.w3.org/2000/svg"
   xmlns="http://www.w3.org/2000/svg"
   xmlns:xlink="http://www.w3.org/1999/xlink"
   xmlns:sodipodi="http://sodipodi.sourceforge.net/DTD/sodipodi-0.dtd"
   xmlns:inkscape="http://www.inkscape.org/namespaces/inkscape"
   id="svg2"
   height="24"
   width="24"
   version="1.0"
   inkscape:version="0.48.1 r9760"
   sodipodi:docname="edit-find-replace.svg">
  <metadata
     id="metadata3233">
    <rdf:RDF>
      <cc:Work
         rdf:about="">
        <dc:format>image/svg+xml</dc:format>
        <dc:type
           rdf:resource="http://purl.org/dc/dcmitype/StillImage" />
        <dc:title></dc:title>
      </cc:Work>
    </rdf:RDF>
  </metadata>
  <sodipodi:namedview
     pagecolor="#ffffff"
     bordercolor="#666666"
     borderopacity="1"
     objecttolerance="10"
     gridtolerance="10"
     guidetolerance="10"
     inkscape:pageopacity="0"
     inkscape:pageshadow="2"
     inkscape:window-width="1366"
     inkscape:window-height="688"
     id="namedview3231"
     showgrid="false"
     inkscape:zoom="14.181818"
     inkscape:cx="11"
     inkscape:cy="11.669872"
     inkscape:window-x="0"
     inkscape:window-y="25"
     inkscape:window-maximized="1"
     inkscape:current-layer="svg2" />
  <defs
     id="defs4">
    <radialGradient
       id="radialGradient2506"
       gradientUnits="userSpaceOnUse"
       cy="4.625"
       cx="62.625"
       gradientTransform="matrix(1,0,0,0.34118,0,3.0471)"
       r="10.625">
      <stop
         id="stop8840"
         offset="0" />
      <stop
         id="stop8842"
         style="stop-opacity:0"
         offset="1" />
    </radialGradient>
    <linearGradient
       id="linearGradient2543"
       y2="29.483999"
       gradientUnits="userSpaceOnUse"
       x2="31.364"
       gradientTransform="matrix(0.50188,0,0,0.46221,-0.38034,1.903)"
       y1="27.988001"
       x1="32.893002">
      <stop
         id="stop3378"
         style="stop-color:#575757"
         offset="0" />
      <stop
         id="stop3380"
         style="stop-color:#333"
         offset="1" />
    </linearGradient>
    <linearGradient
       id="linearGradient2541"
       y2="91.973"
       gradientUnits="userSpaceOnUse"
       x2="-164.72"
       gradientTransform="matrix(0.19535,0,0,0.17991,50.002,-0.89127)"
       y1="99.667"
       x1="-172.64999">
      <stop
         id="stop3372"
         style="stop-color:#242424;stop-opacity:.99216"
         offset="0" />
      <stop
         id="stop3374"
         style="stop-color:#656565"
         offset="1" />
    </linearGradient>
    <linearGradient
       id="linearGradient2538"
       y2="74.262001"
       gradientUnits="userSpaceOnUse"
       x2="210.58"
       gradientTransform="matrix(0.19535,0,0,0.17991,-25.223,0.84739)"
       y1="123.74"
       x1="212.03999">
      <stop
         id="stop3296"
         style="stop-color:#fff;stop-opacity:.19521"
         offset="0" />
      <stop
         id="stop3298"
         style="stop-color:#fff;stop-opacity:0"
         offset="1" />
    </linearGradient>
    <radialGradient
       id="radialGradient2514"
       gradientUnits="userSpaceOnUse"
       cy="21.818001"
       cx="18.240999"
       r="8.3085003">
      <stop
         id="stop3408"
         style="stop-color:#fff;stop-opacity:.64726"
         offset="0" />
      <stop
         id="stop3410"
         style="stop-color:#fff;stop-opacity:.19521"
         offset="1" />
    </radialGradient>
    <radialGradient
       id="radialGradient2533"
       gradientUnits="userSpaceOnUse"
       cy="13.078"
       cx="15.414"
       gradientTransform="matrix(1.4501,0,0,1.128,-15.28,-9.9063)"
       r="6.6561999">
      <stop
         id="stop3390"
         style="stop-color:#fff"
         offset="0" />
      <stop
         id="stop3392"
         style="stop-color:#fff;stop-opacity:.24762"
         offset="1" />
    </radialGradient>
    <linearGradient
       id="linearGradient2530"
       y2="4.5363002"
       gradientUnits="userSpaceOnUse"
       x2="41.485001"
       gradientTransform="matrix(0.19065,0,0,0.19085,0.56161,1.5616)"
       y1="68.292"
       x1="41.542">
      <stop
         id="stop3402"
         style="stop-color:#333"
         offset="0" />
      <stop
         id="stop3404"
         style="stop-color:#333;stop-opacity:.61224"
         offset="1" />
    </linearGradient>
    <linearGradient
       id="linearGradient2528"
       y2="11.949"
       gradientUnits="userSpaceOnUse"
       x2="173.10001"
       gradientTransform="matrix(0.19065,0,0,0.19085,-24.168,0.12527)"
       y1="75.319"
       x1="173.10001">
      <stop
         id="stop3396"
         style="stop-color:#343434;stop-opacity:.97647"
         offset="0" />
      <stop
         id="stop3398"
         style="stop-color:#929292"
         offset="1" />
    </linearGradient>
    <linearGradient
       id="linearGradient2525"
       y2="11.949"
       gradientUnits="userSpaceOnUse"
       x2="173.10001"
       gradientTransform="matrix(0.18157,0,0,0.18176,-22.545,0.40752)"
       y1="75.319"
       x1="173.10001">
      <stop
         id="stop3366"
         style="stop-color:#979797"
         offset="0" />
      <stop
         id="stop3368"
         style="stop-opacity:.34118"
         offset="1" />
    </linearGradient>
    <linearGradient
       id="linearGradient8655"
       y2="41.391998"
       gradientUnits="userSpaceOnUse"
       x2="9.5221004"
       gradientTransform="matrix(0.37638,0.036153,0.0367,0.37487,-2.2183,-1.1331)"
       y1="37.372002"
       x1="5.5179">
      <stop
         id="stop2613"
         style="stop-color:#dbce48"
         offset="0" />
      <stop
         id="stop2615"
         style="stop-color:#c5b625"
         offset="1" />
    </linearGradient>
    <linearGradient
       id="linearGradient8653"
       y2="26.030001"
       gradientUnits="userSpaceOnUse"
       x2="9"
       gradientTransform="matrix(0.40402,-0.40569,0.60738,0.60227,-17.637,0.46249)"
       y1="29.056999"
       x1="9">
      <stop
         id="stop2607"
         style="stop-color:#ece5a5"
         offset="0" />
      <stop
         id="stop2609"
         style="stop-color:#fcfbf2"
         offset="1" />
    </linearGradient>
    <linearGradient
       id="linearGradient8651"
       y2="30"
       gradientUnits="userSpaceOnUse"
       x2="30.038"
       gradientTransform="matrix(0.40402,-0.40569,0.60738,0.60227,-17.177,-2.197e-4)"
       y1="24.99"
       x1="30.038">
      <stop
         id="stop2599"
         style="stop-color:#b1b1b1"
         offset="0" />
      <stop
         id="stop2601"
         style="stop-color:#fff"
         offset=".5" />
      <stop
         id="stop2603"
         style="stop-color:#8f8f8f"
         offset="1" />
    </linearGradient>
    <linearGradient
       id="linearGradient8649"
       y2="30"
       gradientUnits="userSpaceOnUse"
       x2="30.038"
       gradientTransform="matrix(0.40402,-0.40569,0.60738,0.60227,-17.062,-0.11641)"
       y1="24.99"
       x1="30.038">
      <stop
         id="stop2591"
         style="stop-color:#565656"
         offset="0" />
      <stop
         id="stop2593"
         style="stop-color:#9a9a9a"
         offset=".5" />
      <stop
         id="stop2595"
         style="stop-color:#545454"
         offset="1" />
    </linearGradient>
    <linearGradient
       id="linearGradient8647"
       y2="30"
       gradientUnits="userSpaceOnUse"
       x2="30.038"
       gradientTransform="matrix(0.40402,-0.40569,0.60738,0.60227,-17.581,0.40547)"
       y1="24.99"
       x1="30.038">
      <stop
         id="stop2583"
         style="stop-color:#b1b1b1"
         offset="0" />
      <stop
         id="stop2585"
         style="stop-color:#fff"
         offset=".5" />
      <stop
         id="stop2587"
         style="stop-color:#8f8f8f"
         offset="1" />
    </linearGradient>
    <linearGradient
       id="linearGradient8645"
       y2="30"
       gradientUnits="userSpaceOnUse"
       x2="30.038"
       gradientTransform="matrix(0.40402,-0.40569,0.60738,0.60227,-17.466,0.28929)"
       y1="24.99"
       x1="30.038">
      <stop
         id="stop2575"
         style="stop-color:#565656"
         offset="0" />
      <stop
         id="stop2577"
         style="stop-color:#9a9a9a"
         offset=".5" />
      <stop
         id="stop2579"
         style="stop-color:#545454"
         offset="1" />
    </linearGradient>
    <linearGradient
       id="linearGradient8643"
       y2="30"
       gradientUnits="userSpaceOnUse"
       x2="30.038"
       gradientTransform="matrix(0.40402,-0.40569,0.60738,0.60227,-17.983,0.80921)"
       y1="24.99"
       x1="30.038">
      <stop
         id="stop2567"
         style="stop-color:#b1b1b1"
         offset="0" />
      <stop
         id="stop2569"
         style="stop-color:#fff"
         offset=".5" />
      <stop
         id="stop2571"
         style="stop-color:#8f8f8f"
         offset="1" />
    </linearGradient>
    <linearGradient
       id="linearGradient8641"
       y2="30"
       gradientUnits="userSpaceOnUse"
       x2="30.038"
       gradientTransform="matrix(0.40402,-0.40569,0.60738,0.60227,-17.868,0.69303)"
       y1="24.99"
       x1="30.038">
      <stop
         id="stop2559"
         style="stop-color:#565656"
         offset="0" />
      <stop
         id="stop2561"
         style="stop-color:#9a9a9a"
         offset=".5" />
      <stop
         id="stop2563"
         style="stop-color:#545454"
         offset="1" />
    </linearGradient>
    <linearGradient
       id="linearGradient8639"
       y2="31.211"
       gradientUnits="userSpaceOnUse"
       x2="23.576"
       gradientTransform="matrix(0.41578,-0.41749,0.51898,0.51462,-15.747,2.6504)"
       y1="25.357"
       x1="23.576">
      <stop
         id="stop2541"
         style="stop-color:#181818"
         offset="0" />
      <stop
         id="stop2543"
         style="stop-color:#dbdbdb"
         offset=".13483" />
      <stop
         id="stop2545"
         style="stop-color:#a4a4a4"
         offset=".20224" />
      <stop
         id="stop2547"
         style="stop-color:#fff"
         offset=".26966" />
      <stop
         id="stop2549"
         style="stop-color:#8d8d8d"
         offset=".44650" />
      <stop
         id="stop2551"
         style="stop-color:#959595"
         offset=".57114" />
      <stop
         id="stop2553"
         style="stop-color:#cecece"
         offset=".72038" />
      <stop
         id="stop2555"
         style="stop-color:#181818"
         offset="1" />
    </linearGradient>
    <linearGradient
       inkscape:collect="always"
       xlink:href="#linearGradient8639"
       id="linearGradient3453"
       gradientUnits="userSpaceOnUse"
       gradientTransform="matrix(0.41578,-0.41749,0.51898,0.51462,-15.747,2.6504)"
       x1="23.576"
       y1="25.357"
       x2="23.576"
       y2="31.211" />
    <linearGradient
       inkscape:collect="always"
       xlink:href="#linearGradient8641"
       id="linearGradient3455"
       gradientUnits="userSpaceOnUse"
       gradientTransform="matrix(0.40402,-0.40569,0.60738,0.60227,-17.868,0.69303)"
       x1="30.038"
       y1="24.99"
       x2="30.038"
       y2="30" />
    <linearGradient
       inkscape:collect="always"
       xlink:href="#linearGradient8643"
       id="linearGradient3457"
       gradientUnits="userSpaceOnUse"
       gradientTransform="matrix(0.40402,-0.40569,0.60738,0.60227,-17.983,0.80921)"
       x1="30.038"
       y1="24.99"
       x2="30.038"
       y2="30" />
    <linearGradient
       inkscape:collect="always"
       xlink:href="#linearGradient8645"
       id="linearGradient3459"
       gradientUnits="userSpaceOnUse"
       gradientTransform="matrix(0.40402,-0.40569,0.60738,0.60227,-17.466,0.28929)"
       x1="30.038"
       y1="24.99"
       x2="30.038"
       y2="30" />
    <linearGradient
       inkscape:collect="always"
       xlink:href="#linearGradient8647"
       id="linearGradient3461"
       gradientUnits="userSpaceOnUse"
       gradientTransform="matrix(0.40402,-0.40569,0.60738,0.60227,-17.581,0.40547)"
       x1="30.038"
       y1="24.99"
       x2="30.038"
       y2="30" />
    <linearGradient
       inkscape:collect="always"
       xlink:href="#linearGradient8649"
       id="linearGradient3463"
       gradientUnits="userSpaceOnUse"
       gradientTransform="matrix(0.40402,-0.40569,0.60738,0.60227,-17.062,-0.11641)"
       x1="30.038"
       y1="24.99"
       x2="30.038"
       y2="30" />
    <linearGradient
       inkscape:collect="always"
       xlink:href="#linearGradient8651"
       id="linearGradient3465"
       gradientUnits="userSpaceOnUse"
       gradientTransform="matrix(0.40402,-0.40569,0.60738,0.60227,-17.177,-2.197e-4)"
       x1="30.038"
       y1="24.99"
       x2="30.038"
       y2="30" />
    <linearGradient
       inkscape:collect="always"
       xlink:href="#linearGradient8653"
       id="linearGradient3467"
       gradientUnits="userSpaceOnUse"
       gradientTransform="matrix(0.40402,-0.40569,0.60738,0.60227,-17.637,0.46249)"
       x1="9"
       y1="29.056999"
       x2="9"
       y2="26.030001" />
    <linearGradient
       inkscape:collect="always"
       xlink:href="#linearGradient8655"
       id="linearGradient3469"
       gradientUnits="userSpaceOnUse"
       gradientTransform="matrix(0.37638,0.036153,0.0367,0.37487,-2.2183,-1.1331)"
       x1="5.5179"
       y1="37.372002"
       x2="9.5221004"
       y2="41.391998" />
    <radialGradient
       inkscape:collect="always"
       xlink:href="#radialGradient2506"
       id="radialGradient3509"
       gradientUnits="userSpaceOnUse"
       gradientTransform="matrix(1.0295,0,0,0.27926265,-54.536,18.741112)"
       cx="62.625"
       cy="4.625"
       r="10.625" />
    <linearGradient
       inkscape:collect="always"
       xlink:href="#linearGradient2541"
       id="linearGradient3520"
       gradientUnits="userSpaceOnUse"
       gradientTransform="matrix(0.19535,0,0,0.17991,48.002,-2.89127)"
       x1="-172.64999"
       y1="99.667"
       x2="-164.72"
       y2="91.973" />
    <linearGradient
       inkscape:collect="always"
       xlink:href="#linearGradient2543"
       id="linearGradient3522"
       gradientUnits="userSpaceOnUse"
       gradientTransform="matrix(0.50188,0,0,0.46221,-2.38034,-0.097)"
       x1="32.893002"
       y1="27.988001"
       x2="31.364"
       y2="29.483999" />
    <linearGradient
       inkscape:collect="always"
       xlink:href="#linearGradient2538"
       id="linearGradient3524"
       gradientUnits="userSpaceOnUse"
       gradientTransform="matrix(0.19535,0,0,0.17991,-27.223,-1.15261)"
       x1="212.03999"
       y1="123.74"
       x2="210.58"
       y2="74.262001" />
    <radialGradient
       inkscape:collect="always"
       xlink:href="#radialGradient2514"
       id="radialGradient3526"
       gradientUnits="userSpaceOnUse"
       gradientTransform="matrix(0.70305,0,0,0.68669,-5.2377,-6.4915)"
       cx="18.240999"
       cy="21.818001"
       r="8.3085003" />
    <radialGradient
       inkscape:collect="always"
       xlink:href="#radialGradient2533"
       id="radialGradient3528"
       gradientUnits="userSpaceOnUse"
       gradientTransform="matrix(1.4501,0,0,1.128,-17.28,-11.9063)"
       cx="15.414"
       cy="13.078"
       r="6.6561999" />
    <linearGradient
       inkscape:collect="always"
       xlink:href="#linearGradient2528"
       id="linearGradient3530"
       gradientUnits="userSpaceOnUse"
       gradientTransform="matrix(0.19065,0,0,0.19085,-26.168,-1.87473)"
       x1="173.10001"
       y1="75.319"
       x2="173.10001"
       y2="11.949" />
    <linearGradient
       inkscape:collect="always"
       xlink:href="#linearGradient2530"
       id="linearGradient3532"
       gradientUnits="userSpaceOnUse"
       gradientTransform="matrix(0.19065,0,0,0.19085,-1.43839,-0.4384)"
       x1="41.542"
       y1="68.292"
       x2="41.485001"
       y2="4.5363002" />
    <linearGradient
       inkscape:collect="always"
       xlink:href="#linearGradient2525"
       id="linearGradient3534"
       gradientUnits="userSpaceOnUse"
       gradientTransform="matrix(0.18157,0,0,0.18176,-24.545,-1.59248)"
       x1="173.10001"
       y1="75.319"
       x2="173.10001"
       y2="11.949" />
  </defs>
  <path
     inkscape:connector-curvature="0"
     d="m 20.874875,20.032655 a 10.938438,2.967135 0 0 1 -21.876875,0 10.938438,2.967135 0 1 1 21.876875,0 z"
     style="opacity:0.2;fill:url(#radialGradient3509);fill-rule:evenodd"
     id="path8836" />
  <g
     id="g3511"
     transform="translate(0.782,3.991)">
    <path
       id="path11112"
       style="fill:url(#linearGradient3520);fill-rule:evenodd;stroke:url(#linearGradient3522);stroke-linecap:round;stroke-linejoin:round"
       d="M 11.679,10.5 20.414,17.987 19.203,19.5 10.5,11.401 11.679,10.5 z"
       inkscape:connector-curvature="0" />
    <path
       id="path11122"
       style="fill:url(#linearGradient3524);fill-rule:evenodd"
       d="m 19.218,19.009 -7.0051,-8.0442 8.4752,6.8496 -1.4702,1.1947 z"
       inkscape:connector-curvature="0" />
    <path
       id="path13082"
       style="fill:#3e3e3e"
       d="m 20.820532,17.896506 a 0.7063104,1.305715 49.230035 1 1 -1.788178,1.864782 0.7063104,1.305715 49.230035 1 1 1.788178,-1.864782 z"
       inkscape:connector-curvature="0" />
    <path
       id="path4452"
       style="opacity:0.4;fill:url(#radialGradient3526);fill-rule:evenodd"
       d="m 12.969889,6.1971578 a 5.841291,5.705364 0 0 1 -11.682582,0 5.841291,5.705364 0 1 1 11.682582,0 z"
       inkscape:connector-curvature="0" />
    <path
       id="path4462"
       style="opacity:0.6;fill:url(#radialGradient3528);fill-rule:evenodd"
       d="m 6.8878,1.2858 c -2.9122,0 -5.2705,2.1122 -5.2705,4.7206 0,0.75332 0.065298,1.5314 0.41586,2.1636 0.70036,0.23122 1.6141,0.30356 2.4037,0.30356 3.451,0 6.4192,-2.5626 6.6322,-5.6057 -0.968,-1.0246 -2.566,-1.5821 -4.1812,-1.5821 z"
       inkscape:connector-curvature="0" />
    <path
       id="path2298"
       style="fill:url(#linearGradient3530);stroke:url(#linearGradient3532);stroke-linecap:round;stroke-linejoin:round"
       d="m 7,0.5 c -3.5874,0 -6.5,2.6886 -6.5,6 0,3.311 2.9126,6 6.5,6 3.587,0 6.5,-2.689 6.5,-6 0,-3.3114 -2.913,-6 -6.5,-6 z m 0.077451,0.39364 c 3.2107,0 5.8208,2.4041 5.8208,5.3678 0,2.9637 -2.6101,5.3678 -5.8208,5.3678 -3.2107,0 -5.8148,-2.4041 -5.8148,-5.3678 0,-2.9637 2.6041,-5.3678 5.8148,-5.3678 z"
       inkscape:connector-curvature="0" />
    <path
       id="path4267"
       style="fill:url(#linearGradient3534)"
       d="m 7.0417,0.673 c -3.4164,0 -6.1842,2.5601 -6.1842,5.7137 0,3.1536 2.7678,5.7137 6.1842,5.7137 3.4164,0 6.1902,-2.5601 6.1902,-5.7137 0,-3.1536 -2.7737,-5.7137 -6.1902,-5.7137 z m 0.035747,0.22068 c 3.2107,0 5.5662,2.4041 5.5662,5.3678 0,2.9637 -2.3554,5.1129 -5.5662,5.1129 -3.2107,0 -5.6027,-2.1492 -5.6027,-5.1129 0,-2.9637 2.3919,-5.3678 5.6027,-5.3678 z"
       inkscape:connector-curvature="0" />
  </g>
  <g
     transform="translate(5.9999,7.9639)"
     id="g2712">
    <path
       inkscape:connector-curvature="0"
       d="m 13.22,12.085 c -0.1356,-0.02111 -0.23946,-0.01225 -0.30769,0.003 l -9.0875,2.0172 -1.6725,0.37219 -0.051633,0.008 -1.9387,1.4327 4.9498,-0.07402 0.040722,-0.0095 1.6834,-0.3707 9.0846,-2.0326 c 0.27291,-0.06092 -0.1773,-0.40993 -1.01,-0.78431 -0.62452,-0.28079 -1.2837,-0.49854 -1.6905,-0.56188 z"
       style="opacity:0.15;fill:#0c0c0c;fill-rule:evenodd"
       id="path2422" />
    <g
       transform="matrix(1.03,0,0,1.0325,-0.016773,-0.52153)"
       id="g8626">
      <path
         inkscape:connector-curvature="0"
         d="m 2.0488,11.037 c 0.28654,-0.20771 1.148,0.25639 1.9603,1.0619 0.81045,0.80363 1.2602,1.6413 1.0576,1.9306 -7.708e-4,0.0011 0.01977,0.01774 0.01898,0.01882 l 10.138,-10.18 c 0.258,-0.2581 -0.213,-1.1432 -1.051,-1.9744 -0.838,-0.8311 -1.728,-1.295 -1.986,-1.0366 l -10.138,10.18 z"
         style="fill:url(#linearGradient3453);stroke:#0c0c0c;stroke-width:0.48484001;stroke-linejoin:round"
         id="rect2383" />
      <path
         inkscape:connector-curvature="0"
         d="m 10.565,2.4841 c 0.28654,-0.20771 1.148,0.25639 1.9603,1.0619 0.81044,0.80363 1.2602,1.6413 1.0576,1.9306 -7.69e-4,0.0011 0.01977,0.017738 0.01898,0.018821 l 1.552,-1.5571 c 0.409,-0.4086 -0.029,-1.0928 -0.981,-2.0447 -0.813,-0.8055 -1.674,-1.2696 -1.96,-1.0619 l -0.02525,0.025356 -1.6218,1.6271 z"
         style="opacity:0.8;fill:#ffb6ed;stroke:#e28ccd;stroke-width:0.48484001;stroke-linejoin:round"
         id="rect3175" />
      <path
         inkscape:connector-curvature="0"
         d="m 2.0488,11.037 c 0.28654,-0.20771 1.148,0.25639 1.9603,1.0619 0.81044,0.80363 1.2602,1.6413 1.0576,1.9306 -7.714e-4,0.0011 0.01977,0.01774 0.01898,0.01882 l 6.982,-7.0109 0.02525,-0.025356 c 7.9e-4,-0.00108 -0.01975,-0.01772 -0.01898,-0.01882 0.203,-0.2885 -0.247,-1.1262 -1.058,-1.9298 -0.812,-0.8056 -1.6734,-1.2697 -1.9599,-1.062 l -0.025251,0.025355 -6.982,7.0109 z"
         style="opacity:0.6;fill:#0c0c0c"
         id="path3208" />
      <path
         inkscape:connector-curvature="0"
         d="m 9.1785,3.8767 c 0.28654,-0.20771 1.148,0.25639 1.9603,1.0619 0.81044,0.80363 1.2602,1.6413 1.0576,1.9306 -7.71e-4,0.0011 0.01977,0.017736 0.01898,0.01882 l 0.12626,-0.12678 c 7.9e-4,-0.00108 -0.01975,-0.01772 -0.01898,-0.01882 0.203,-0.2892 -0.246,-1.1269 -1.057,-1.9305 -0.812,-0.8056 -1.6737,-1.2697 -1.9602,-1.062 L 9.1792,3.8767 z"
         style="fill:url(#linearGradient3455)"
         id="path3233" />
      <path
         inkscape:connector-curvature="0"
         d="m 9.0628,3.9929 c 0.28654,-0.20771 1.148,0.25639 1.9603,1.0619 0.81044,0.80363 1.2602,1.6413 1.0576,1.9306 -7.71e-4,0.0011 0.01977,0.017738 0.01898,0.018822 l 0.126,-0.1268 c 7.9e-4,-0.00108 -0.01975,-0.017721 -0.01898,-0.018821 0.203,-0.2892 -0.247,-1.1269 -1.058,-1.9305 -0.812,-0.8056 -1.6734,-1.2697 -1.9599,-1.062 l -0.1263,0.1268 z"
         style="fill:url(#linearGradient3457)"
         id="path3216" />
      <path
         inkscape:connector-curvature="0"
         d="m 9.5806,3.473 c 0.28654,-0.20771 1.148,0.25639 1.9603,1.0619 0.81045,0.80363 1.2602,1.6413 1.0576,1.9306 -7.73e-4,0.0011 0.01977,0.017737 0.01898,0.01882 l 0.12626,-0.12678 c 7.91e-4,-0.00108 -0.01975,-0.017721 -0.01898,-0.01882 0.202,-0.2892 -0.247,-1.1269 -1.058,-1.9306 -0.812,-0.8055 -1.6736,-1.2696 -1.9601,-1.0619 l -0.1263,0.1268 z"
         style="fill:url(#linearGradient3459)"
         id="path3248" />
      <path
         inkscape:connector-curvature="0"
         d="m 9.4649,3.5891 c 0.28654,-0.20771 1.148,0.25639 1.9603,1.0619 0.81045,0.80363 1.2602,1.6413 1.0576,1.9306 -7.69e-4,0.0011 0.01977,0.017737 0.01898,0.018821 l 0.12626,-0.12678 c 7.9e-4,-0.00108 -0.01975,-0.01772 -0.01898,-0.01882 0.203,-0.2892 -0.247,-1.1269 -1.057,-1.9305 -0.813,-0.8055 -1.6743,-1.2696 -1.9608,-1.0619 l -0.1263,0.1267 z"
         style="fill:url(#linearGradient3461)"
         id="path3250" />
      <path
         inkscape:connector-curvature="0"
         d="m 9.9846,3.0673 c 0.2864,-0.2077 1.1484,0.2564 1.9604,1.0619 0.81045,0.80363 1.2602,1.6413 1.0576,1.9306 -7.7e-4,0.0011 0.01977,0.017738 0.01898,0.018821 l 0.126,-0.1268 C 13.148372,5.950741 13.12783,5.9341 13.1286,5.933 13.3306,5.6438 12.8816,4.8061 12.0706,4.0024 11.2586,3.1969 10.3966,2.7328 10.1106,2.9405 L 9.9842,3.0673 z"
         style="fill:url(#linearGradient3463)"
         id="path3256" />
      <path
         inkscape:connector-curvature="0"
         d="m 9.8689,3.1835 c 0.28654,-0.20771 1.148,0.25639 1.9603,1.0619 0.81044,0.80363 1.2602,1.6413 1.0576,1.9306 -7.71e-4,0.0011 0.01977,0.017737 0.01898,0.018821 l 0.12626,-0.12678 c 7.89e-4,-0.00108 -0.01975,-0.017722 -0.01898,-0.018821 0.203,-0.2892 -0.247,-1.1269 -1.057,-1.9306 -0.813,-0.8055 -1.674,-1.2696 -1.9608,-1.0619 l -0.1263,0.1268 z"
         style="fill:url(#linearGradient3465)"
         id="path3258" />
      <path
         inkscape:connector-curvature="0"
         d="m 0.25981,15.794 4.7719,-1.7255 0.039308,-0.03926 c 0.2026,-0.289 -0.2524,-1.127 -1.0629,-1.93 -0.8124,-0.806 -1.6727,-1.268 -1.9592,-1.06 l -1.7891,4.755 z"
         style="fill:url(#linearGradient3467);fill-rule:evenodd;stroke:url(#linearGradient3469);stroke-width:0.48484001"
         id="path3270" />
      <path
         inkscape:connector-curvature="0"
         d="m 0.74443,14.506 -0.48521,1.283 1.3014,-0.473 C 1.44692,15.182 1.34132,15.048 1.20622,14.914 1.05072,14.76 0.89917,14.633 0.74445,14.506 z"
         style="fill:#0c0c0c;fill-rule:evenodd;stroke:#0c0c0c;stroke-width:0.48484001"
         id="path3281" />
    </g>
  </g>
</svg>
