<?xml version="1.0" encoding="UTF-8" standalone="no"?>
<!-- Created with Inkscape (http://www.inkscape.org/) -->

<svg
   xmlns:dc="http://purl.org/dc/elements/1.1/"
   xmlns:cc="http://creativecommons.org/ns#"
   xmlns:rdf="http://www.w3.org/1999/02/22-rdf-syntax-ns#"
   xmlns:svg="http://www.w3.org/2000/svg"
   xmlns="http://www.w3.org/2000/svg"
   xmlns:xlink="http://www.w3.org/1999/xlink"
   xmlns:sodipodi="http://sodipodi.sourceforge.net/DTD/sodipodi-0.dtd"
   xmlns:inkscape="http://www.inkscape.org/namespaces/inkscape"
   version="1.0"
   width="16"
   height="16"
   id="svg2484"
   inkscape:version="0.48.1 r9760"
   sodipodi:docname="folder-copy.svg">
  <sodipodi:namedview
     pagecolor="#ffffff"
     bordercolor="#666666"
     borderopacity="1"
     objecttolerance="10"
     gridtolerance="10"
     guidetolerance="10"
     inkscape:pageopacity="0"
     inkscape:pageshadow="2"
     inkscape:window-width="640"
     inkscape:window-height="480"
     id="namedview42"
     showgrid="false"
     inkscape:zoom="21.226324"
     inkscape:cx="-1.3395153"
     inkscape:cy="5.1684352"
     inkscape:current-layer="layer1" />
  <metadata
     id="metadata44">
    <rdf:RDF>
      <cc:Work
         rdf:about="">
        <dc:format>image/svg+xml</dc:format>
        <dc:type
           rdf:resource="http://purl.org/dc/dcmitype/StillImage" />
        <dc:title />
      </cc:Work>
    </rdf:RDF>
  </metadata>
  <defs
     id="defs2486">
    <linearGradient
       id="linearGradient3390">
      <stop
         offset="0"
         style="stop-color:#425e7b;stop-opacity:1"
         id="stop3392" />
      <stop
         offset="1"
         style="stop-color:#7a91a7;stop-opacity:1"
         id="stop3394" />
    </linearGradient>
    <linearGradient
       id="linearGradient7012-661-145-733-759-865-745">
      <stop
         offset="0"
         style="stop-color:#9cbbd9;stop-opacity:1"
         id="stop2699" />
      <stop
         offset="1"
         style="stop-color:#5c82ab;stop-opacity:1"
         id="stop2701" />
    </linearGradient>
    <linearGradient
       id="linearGradient8265-821-176-38-919-66-249">
      <stop
         offset="0"
         style="stop-color:#ffffff;stop-opacity:1"
         id="stop2687" />
      <stop
         offset="1"
         style="stop-color:#ffffff;stop-opacity:0"
         id="stop2689" />
    </linearGradient>
    <linearGradient
       y2="238.3999"
       x2="169.22964"
       y1="58.583481"
       x1="126.69791"
       gradientTransform="matrix(0.05489342,0.01385132,0.00257263,0.05248166,-11.212261,-26.738461)"
       gradientUnits="userSpaceOnUse"
       id="linearGradient3093-412"
       xlink:href="#linearGradient7012-661-145-733-759-865-745-802"
       inkscape:collect="always" />
    <linearGradient
       id="linearGradient7012-661-145-733-759-865-745-802">
      <stop
         offset="0"
         style="stop-color:#b5b5b5;stop-opacity:1"
         id="stop3163" />
      <stop
         offset="1"
         style="stop-color:#7b7b7b;stop-opacity:1"
         id="stop3165" />
    </linearGradient>
    <linearGradient
       y2="4.0514131"
       x2="4.1760364"
       y1="14.992862"
       x1="10.318256"
       gradientTransform="matrix(1.0083043,0,0,1.0006232,-10.500284,-26.477671)"
       gradientUnits="userSpaceOnUse"
       id="linearGradient3095-830"
       xlink:href="#linearGradient3390-486"
       inkscape:collect="always" />
    <linearGradient
       id="linearGradient3390-486">
      <stop
         offset="0"
         style="stop-color:#595959;stop-opacity:1"
         id="stop3169" />
      <stop
         offset="1"
         style="stop-color:#8d8d8d;stop-opacity:1"
         id="stop3171" />
    </linearGradient>
    <linearGradient
       y2="24.627615"
       x2="20.054544"
       y1="16.407909"
       x1="18.03083"
       gradientUnits="userSpaceOnUse"
       id="linearGradient3097-328"
       xlink:href="#linearGradient8265-821-176-38-919-66-249-154"
       inkscape:collect="always" />
    <linearGradient
       id="linearGradient8265-821-176-38-919-66-249-154">
      <stop
         offset="0"
         style="stop-color:#ffffff;stop-opacity:1"
         id="stop3175" />
      <stop
         offset="1"
         style="stop-color:#ffffff;stop-opacity:0"
         id="stop3177" />
    </linearGradient>
    <linearGradient
       inkscape:collect="always"
       xlink:href="#linearGradient7012-661-145-733-759-865-745"
       id="linearGradient3333"
       gradientUnits="userSpaceOnUse"
       gradientTransform="matrix(0.05489342,0.01385132,0.00257263,0.05248166,-11.212261,-26.738461)"
       x1="126.69791"
       y1="58.583481"
       x2="169.22964"
       y2="238.3999" />
    <linearGradient
       inkscape:collect="always"
       xlink:href="#linearGradient3390"
       id="linearGradient3335"
       gradientUnits="userSpaceOnUse"
       gradientTransform="matrix(1.0083043,0,0,1.0006232,-10.500284,-26.477671)"
       x1="10.318256"
       y1="14.992862"
       x2="4.1760364"
       y2="4.0514131" />
    <linearGradient
       inkscape:collect="always"
       xlink:href="#linearGradient8265-821-176-38-919-66-249"
       id="linearGradient3337"
       gradientUnits="userSpaceOnUse"
       x1="18.03083"
       y1="16.407909"
       x2="20.054544"
       y2="24.627615" />
  </defs>
  <g
     id="layer1">
    <g
       id="g3061"
       transform="matrix(0.75,0,0,0.75,-0.00436629,-0.75331126)">
      <g
         id="g3063">
        <g
           transform="translate(10.498428,26.471051)"
           id="g3075">
          <path
             d="m -8.8386583,-24.977136 c -0.056258,0 -0.104488,0.06035 -0.104488,0.122673 l 0,1.063161 -0.516622,0 -0.397055,0 c -0.070206,0 -0.125385,0.06172 -0.125385,0.122673 l 0,0.245345 0,2.841912 c -0.00709,2.57297 -0.020898,6.24225 -0.020898,8.611702 4.7063236,-0.02397 9.41510658,-0.04826 14.1225136,-0.06552 -0.417129,0 -1.112329,-0.07009 -1.102384,-0.940487 0.00354,-3.59703 0.022961,-7.243121 0.010777,-10.815624 l -6.030797,0 0,-1.063161 c 0,-0.06233 -0.048228,-0.122673 -0.104487,-0.122673 l -5.731177,0 z"
             id="path3077"
             style="fill:#ffffff;fill-opacity:1;stroke:#a8a8a8;stroke-width:0.97899997;stroke-linecap:round;stroke-linejoin:round;stroke-miterlimit:4;stroke-opacity:1;stroke-dasharray:none;display:inline"
             inkscape:connector-curvature="0" />
          <path
             d="m -7.9740723,-21.947037 c 0.656364,0 12.480042,0.03139 12.989001,0.03139 0,0.615413 -0.024684,9.958075 -0.054067,9.958075 -4.55884302,0.01775 -11.6594,-0.01389 -12.986814,-0.01389 0,-1.161471 0.05188,-7.585329 0.05188,-9.975573 z"
             id="path3079"
             style="fill:url(#linearGradient3093-412);fill-opacity:1;stroke:url(#linearGradient3095-830);stroke-width:0.95339239;stroke-linecap:round;stroke-linejoin:round;stroke-miterlimit:4;stroke-opacity:1;stroke-dasharray:none;display:inline"
             inkscape:connector-curvature="0" />
        </g>
        <path
           d="m 3.21875,5.34375 c -1.5389481,0 -2.8125,1.273552 -2.8125,2.8125 l 0,16 c 0.005894,0.286233 0.14841957,0.612577 0.375,0.8125 0.2265775,0.199921 0.5161946,0.284272 0.84375,0.25 0.010415,2.66e-4 0.020835,2.66e-4 0.03125,0 l 45,-7.125 c 0.521773,-0.08229 0.930206,-0.53433 0.9375,-1.0625 l 0,-8.875 c 0,-1.538948 -1.273552,-2.8125 -2.8125,-2.8125 l -41.5625,0 z"
           transform="matrix(0.2966887,0,0,0.3520695,1.8794702,2.1186294)"
           id="path3081"
           style="opacity:0.2;fill:url(#linearGradient3097-328);fill-opacity:1;fill-rule:evenodd;stroke:none"
           inkscape:connector-curvature="0" />
        <path
           d="m 3.497937,14 0,-8.5 11.5,0"
           id="path3083"
           style="opacity:0.35;fill:none;stroke:#ffffff;stroke-width:1px;stroke-linecap:butt;stroke-linejoin:miter;stroke-opacity:1"
           inkscape:connector-curvature="0" />
      </g>
    </g>
    <g
       transform="matrix(0.75,0,0,0.75,4.0000015,4.7533138)"
       id="g3035">
      <g
         id="g3021">
        <g
           id="g4745"
           transform="translate(10.498428,26.471051)">
          <path
             inkscape:connector-curvature="0"
             style="fill:#ffffff;fill-opacity:1;stroke:#a8a8a8;stroke-width:0.97899997;stroke-linecap:round;stroke-linejoin:round;stroke-miterlimit:4;stroke-opacity:1;stroke-dasharray:none;display:inline"
             id="rect2196"
             d="m -8.8386583,-24.977136 c -0.056258,0 -0.104488,0.06035 -0.104488,0.122673 l 0,1.063161 -0.516622,0 -0.397055,0 c -0.070206,0 -0.125385,0.06172 -0.125385,0.122673 l 0,0.245345 0,2.841912 c -0.00709,2.57297 -0.020898,6.24225 -0.020898,8.611702 4.7063245,-0.02397 9.41510748,-0.04826 14.1225145,-0.06552 -0.417129,0 -1.112329,-0.07009 -1.102384,-0.940487 0.00354,-3.59703 0.022961,-7.243121 0.010777,-10.815624 l -6.030797,0 0,-1.063161 c 0,-0.06233 -0.048228,-0.122673 -0.104487,-0.122673 l -5.731177,0 z" />
          <path
             inkscape:connector-curvature="0"
             style="fill:url(#linearGradient3333);fill-opacity:1;stroke:url(#linearGradient3335);stroke-width:0.95339239;stroke-linecap:round;stroke-linejoin:round;stroke-miterlimit:4;stroke-opacity:1;stroke-dasharray:none;display:inline"
             id="rect3086"
             d="m -7.9740723,-21.947037 c 0.656364,0 12.480042,0.03139 12.989001,0.03139 0,0.615413 -0.024684,9.958075 -0.054067,9.958075 -4.55884302,0.01775 -11.6594,-0.01389 -12.986814,-0.01389 0,-1.161471 0.05188,-7.585329 0.05188,-9.975573 z" />
        </g>
        <path
           inkscape:connector-curvature="0"
           style="opacity:0.2;fill:url(#linearGradient3337);fill-opacity:1;fill-rule:evenodd;stroke:none"
           id="path2608"
           transform="matrix(0.2966887,0,0,0.3520695,1.8794702,2.1186294)"
           d="m 3.21875,5.34375 c -1.5389481,0 -2.8125,1.273552 -2.8125,2.8125 l 0,16 c 0.005894,0.286233 0.14841957,0.612577 0.375,0.8125 0.2265775,0.199921 0.5161946,0.284272 0.84375,0.25 0.010415,2.66e-4 0.020835,2.66e-4 0.03125,0 l 45,-7.125 c 0.521773,-0.08229 0.930206,-0.53433 0.9375,-1.0625 l 0,-8.875 c 0,-1.538948 -1.273552,-2.8125 -2.8125,-2.8125 l -41.5625,0 z" />
        <path
           inkscape:connector-curvature="0"
           style="opacity:0.35;fill:none;stroke:#ffffff;stroke-width:1px;stroke-linecap:butt;stroke-linejoin:miter;stroke-opacity:1"
           id="path2406"
           d="m 3.497937,14 0,-8.5 11.5,0" />
      </g>
    </g>
  </g>
</svg>
