<?xml version="1.0" encoding="UTF-8" standalone="no"?>
<!-- Created with Inkscape (http://www.inkscape.org/) -->

<svg
   xmlns:dc="http://purl.org/dc/elements/1.1/"
   xmlns:cc="http://creativecommons.org/ns#"
   xmlns:rdf="http://www.w3.org/1999/02/22-rdf-syntax-ns#"
   xmlns:svg="http://www.w3.org/2000/svg"
   xmlns="http://www.w3.org/2000/svg"
   xmlns:xlink="http://www.w3.org/1999/xlink"
   xmlns:sodipodi="http://sodipodi.sourceforge.net/DTD/sodipodi-0.dtd"
   xmlns:inkscape="http://www.inkscape.org/namespaces/inkscape"
   id="svg3222"
   height="16"
   width="16"
   version="1.0"
   inkscape:version="0.48.1 r9760"
   sodipodi:docname="gtk-find.svg">
  <defs
     id="defs8">
    <linearGradient
       y2="41.391998"
       x2="9.5221004"
       y1="37.372002"
       x1="5.5179"
       gradientTransform="matrix(0.37638,0.036153,0.0367,0.37487,-2.2183,-1.1331)"
       gradientUnits="userSpaceOnUse"
       id="linearGradient3087"
       xlink:href="#linearGradient3857"
       inkscape:collect="always" />
    <linearGradient
       y2="26.030001"
       x2="9"
       y1="29.056999"
       x1="9"
       gradientTransform="matrix(0.40402,-0.40569,0.60738,0.60227,-17.637,0.46249)"
       gradientUnits="userSpaceOnUse"
       id="linearGradient3085"
       xlink:href="#linearGradient3855"
       inkscape:collect="always" />
    <linearGradient
       y2="30"
       x2="30.038"
       y1="24.99"
       x1="30.038"
       gradientTransform="matrix(0.40402,-0.40569,0.60738,0.60227,-17.177,-2.197e-4)"
       gradientUnits="userSpaceOnUse"
       id="linearGradient3083"
       xlink:href="#linearGradient3853"
       inkscape:collect="always" />
    <linearGradient
       y2="30"
       x2="30.038"
       y1="24.99"
       x1="30.038"
       gradientTransform="matrix(0.40402,-0.40569,0.60738,0.60227,-17.062,-0.11641)"
       gradientUnits="userSpaceOnUse"
       id="linearGradient3081"
       xlink:href="#linearGradient3851"
       inkscape:collect="always" />
    <linearGradient
       y2="30"
       x2="30.038"
       y1="24.99"
       x1="30.038"
       gradientTransform="matrix(0.40402,-0.40569,0.60738,0.60227,-17.581,0.40547)"
       gradientUnits="userSpaceOnUse"
       id="linearGradient3079"
       xlink:href="#linearGradient3849"
       inkscape:collect="always" />
    <linearGradient
       y2="30"
       x2="30.038"
       y1="24.99"
       x1="30.038"
       gradientTransform="matrix(0.40402,-0.40569,0.60738,0.60227,-17.466,0.28929)"
       gradientUnits="userSpaceOnUse"
       id="linearGradient3077"
       xlink:href="#linearGradient3847"
       inkscape:collect="always" />
    <linearGradient
       y2="30"
       x2="30.038"
       y1="24.99"
       x1="30.038"
       gradientTransform="matrix(0.40402,-0.40569,0.60738,0.60227,-17.983,0.80921)"
       gradientUnits="userSpaceOnUse"
       id="linearGradient3075"
       xlink:href="#linearGradient3845"
       inkscape:collect="always" />
    <linearGradient
       y2="30"
       x2="30.038"
       y1="24.99"
       x1="30.038"
       gradientTransform="matrix(0.40402,-0.40569,0.60738,0.60227,-17.868,0.69303)"
       gradientUnits="userSpaceOnUse"
       id="linearGradient3073"
       xlink:href="#linearGradient3843"
       inkscape:collect="always" />
    <linearGradient
       y2="31.211"
       x2="23.576"
       y1="25.357"
       x1="23.576"
       gradientTransform="matrix(0.41578,-0.41749,0.51898,0.51462,-15.747,2.6504)"
       gradientUnits="userSpaceOnUse"
       id="linearGradient3071"
       xlink:href="#linearGradient3841"
       inkscape:collect="always" />
    <linearGradient
       id="linearGradient3857"
       y2="41.391998"
       gradientUnits="userSpaceOnUse"
       x2="9.5221004"
       gradientTransform="matrix(0.37638,0.036153,0.0367,0.37487,-2.2183,-1.1331)"
       y1="37.372002"
       x1="5.5179">
      <stop
         id="stop2613-3"
         style="stop-color:#dbce48"
         offset="0" />
      <stop
         id="stop2615-5"
         style="stop-color:#c5b625"
         offset="1" />
    </linearGradient>
    <linearGradient
       id="linearGradient3855"
       y2="26.030001"
       gradientUnits="userSpaceOnUse"
       x2="9"
       gradientTransform="matrix(0.40402,-0.40569,0.60738,0.60227,-17.637,0.46249)"
       y1="29.056999"
       x1="9">
      <stop
         id="stop2607-3"
         style="stop-color:#ece5a5"
         offset="0" />
      <stop
         id="stop2609-5"
         style="stop-color:#fcfbf2"
         offset="1" />
    </linearGradient>
    <linearGradient
       id="linearGradient3853"
       y2="30"
       gradientUnits="userSpaceOnUse"
       x2="30.038"
       gradientTransform="matrix(0.40402,-0.40569,0.60738,0.60227,-17.177,-2.197e-4)"
       y1="24.99"
       x1="30.038">
      <stop
         id="stop2599-9"
         style="stop-color:#b1b1b1"
         offset="0" />
      <stop
         id="stop2601-5"
         style="stop-color:#fff"
         offset=".5" />
      <stop
         id="stop2603-9"
         style="stop-color:#8f8f8f"
         offset="1" />
    </linearGradient>
    <linearGradient
       id="linearGradient3851"
       y2="30"
       gradientUnits="userSpaceOnUse"
       x2="30.038"
       gradientTransform="matrix(0.40402,-0.40569,0.60738,0.60227,-17.062,-0.11641)"
       y1="24.99"
       x1="30.038">
      <stop
         id="stop2591-7"
         style="stop-color:#565656"
         offset="0" />
      <stop
         id="stop2593-9"
         style="stop-color:#9a9a9a"
         offset=".5" />
      <stop
         id="stop2595-9"
         style="stop-color:#545454"
         offset="1" />
    </linearGradient>
    <linearGradient
       id="linearGradient3849"
       y2="30"
       gradientUnits="userSpaceOnUse"
       x2="30.038"
       gradientTransform="matrix(0.40402,-0.40569,0.60738,0.60227,-17.581,0.40547)"
       y1="24.99"
       x1="30.038">
      <stop
         id="stop2583-0"
         style="stop-color:#b1b1b1"
         offset="0" />
      <stop
         id="stop2585-5"
         style="stop-color:#fff"
         offset=".5" />
      <stop
         id="stop2587-2"
         style="stop-color:#8f8f8f"
         offset="1" />
    </linearGradient>
    <linearGradient
       id="linearGradient3847"
       y2="30"
       gradientUnits="userSpaceOnUse"
       x2="30.038"
       gradientTransform="matrix(0.40402,-0.40569,0.60738,0.60227,-17.466,0.28929)"
       y1="24.99"
       x1="30.038">
      <stop
         id="stop2575-1"
         style="stop-color:#565656"
         offset="0" />
      <stop
         id="stop2577-0"
         style="stop-color:#9a9a9a"
         offset=".5" />
      <stop
         id="stop2579-2"
         style="stop-color:#545454"
         offset="1" />
    </linearGradient>
    <linearGradient
       id="linearGradient3845"
       y2="30"
       gradientUnits="userSpaceOnUse"
       x2="30.038"
       gradientTransform="matrix(0.40402,-0.40569,0.60738,0.60227,-17.983,0.80921)"
       y1="24.99"
       x1="30.038">
      <stop
         id="stop2567-0"
         style="stop-color:#b1b1b1"
         offset="0" />
      <stop
         id="stop2569-6"
         style="stop-color:#fff"
         offset=".5" />
      <stop
         id="stop2571-3"
         style="stop-color:#8f8f8f"
         offset="1" />
    </linearGradient>
    <linearGradient
       id="linearGradient3843"
       y2="30"
       gradientUnits="userSpaceOnUse"
       x2="30.038"
       gradientTransform="matrix(0.40402,-0.40569,0.60738,0.60227,-17.868,0.69303)"
       y1="24.99"
       x1="30.038">
      <stop
         id="stop2559-6"
         style="stop-color:#565656"
         offset="0" />
      <stop
         id="stop2561-9"
         style="stop-color:#9a9a9a"
         offset=".5" />
      <stop
         id="stop2563-4"
         style="stop-color:#545454"
         offset="1" />
    </linearGradient>
    <linearGradient
       id="linearGradient3841"
       y2="31.211"
       gradientUnits="userSpaceOnUse"
       x2="23.576"
       gradientTransform="matrix(0.41578,-0.41749,0.51898,0.51462,-15.747,2.6504)"
       y1="25.357"
       x1="23.576">
      <stop
         id="stop2541-8"
         style="stop-color:#181818"
         offset="0" />
      <stop
         id="stop2543-4"
         style="stop-color:#dbdbdb"
         offset=".13483" />
      <stop
         id="stop2545-0"
         style="stop-color:#a4a4a4"
         offset=".20224" />
      <stop
         id="stop2547-8"
         style="stop-color:#fff"
         offset=".26966" />
      <stop
         id="stop2549-4"
         style="stop-color:#8d8d8d"
         offset=".44650" />
      <stop
         id="stop2551-4"
         style="stop-color:#959595"
         offset=".57114" />
      <stop
         id="stop2553-8"
         style="stop-color:#cecece"
         offset=".72038" />
      <stop
         id="stop2555-2"
         style="stop-color:#181818"
         offset="1" />
    </linearGradient>
    <linearGradient
       inkscape:collect="always"
       xlink:href="#linearGradient3841"
       id="linearGradient3122"
       gradientUnits="userSpaceOnUse"
       gradientTransform="matrix(0.41578,-0.41749,0.51898,0.51462,-15.747,2.6504)"
       x1="23.576"
       y1="25.357"
       x2="23.576"
       y2="31.211" />
    <linearGradient
       inkscape:collect="always"
       xlink:href="#linearGradient3843"
       id="linearGradient3124"
       gradientUnits="userSpaceOnUse"
       gradientTransform="matrix(0.40402,-0.40569,0.60738,0.60227,-17.868,0.69303)"
       x1="30.038"
       y1="24.99"
       x2="30.038"
       y2="30" />
    <linearGradient
       inkscape:collect="always"
       xlink:href="#linearGradient3845"
       id="linearGradient3126"
       gradientUnits="userSpaceOnUse"
       gradientTransform="matrix(0.40402,-0.40569,0.60738,0.60227,-17.983,0.80921)"
       x1="30.038"
       y1="24.99"
       x2="30.038"
       y2="30" />
    <linearGradient
       inkscape:collect="always"
       xlink:href="#linearGradient3847"
       id="linearGradient3128"
       gradientUnits="userSpaceOnUse"
       gradientTransform="matrix(0.40402,-0.40569,0.60738,0.60227,-17.466,0.28929)"
       x1="30.038"
       y1="24.99"
       x2="30.038"
       y2="30" />
    <linearGradient
       inkscape:collect="always"
       xlink:href="#linearGradient3849"
       id="linearGradient3130"
       gradientUnits="userSpaceOnUse"
       gradientTransform="matrix(0.40402,-0.40569,0.60738,0.60227,-17.581,0.40547)"
       x1="30.038"
       y1="24.99"
       x2="30.038"
       y2="30" />
    <linearGradient
       inkscape:collect="always"
       xlink:href="#linearGradient3851"
       id="linearGradient3132"
       gradientUnits="userSpaceOnUse"
       gradientTransform="matrix(0.40402,-0.40569,0.60738,0.60227,-17.062,-0.11641)"
       x1="30.038"
       y1="24.99"
       x2="30.038"
       y2="30" />
    <linearGradient
       inkscape:collect="always"
       xlink:href="#linearGradient3853"
       id="linearGradient3134"
       gradientUnits="userSpaceOnUse"
       gradientTransform="matrix(0.40402,-0.40569,0.60738,0.60227,-17.177,-2.197e-4)"
       x1="30.038"
       y1="24.99"
       x2="30.038"
       y2="30" />
    <linearGradient
       inkscape:collect="always"
       xlink:href="#linearGradient3855"
       id="linearGradient3136"
       gradientUnits="userSpaceOnUse"
       gradientTransform="matrix(0.40402,-0.40569,0.60738,0.60227,-17.637,0.46249)"
       x1="9"
       y1="29.056999"
       x2="9"
       y2="26.030001" />
    <linearGradient
       inkscape:collect="always"
       xlink:href="#linearGradient3857"
       id="linearGradient3138"
       gradientUnits="userSpaceOnUse"
       gradientTransform="matrix(0.37638,0.036153,0.0367,0.37487,-2.2183,-1.1331)"
       x1="5.5179"
       y1="37.372002"
       x2="9.5221004"
       y2="41.391998" />
    <linearGradient
       inkscape:collect="always"
       xlink:href="#linearGradient3841"
       id="linearGradient3154"
       gradientUnits="userSpaceOnUse"
       gradientTransform="matrix(0.41578,-0.41749,0.51898,0.51462,-15.747,2.6504)"
       x1="23.576"
       y1="25.357"
       x2="23.576"
       y2="31.211" />
    <linearGradient
       inkscape:collect="always"
       xlink:href="#linearGradient3843"
       id="linearGradient3156"
       gradientUnits="userSpaceOnUse"
       gradientTransform="matrix(0.40402,-0.40569,0.60738,0.60227,-17.868,0.69303)"
       x1="30.038"
       y1="24.99"
       x2="30.038"
       y2="30" />
    <linearGradient
       inkscape:collect="always"
       xlink:href="#linearGradient3845"
       id="linearGradient3158"
       gradientUnits="userSpaceOnUse"
       gradientTransform="matrix(0.40402,-0.40569,0.60738,0.60227,-17.983,0.80921)"
       x1="30.038"
       y1="24.99"
       x2="30.038"
       y2="30" />
    <linearGradient
       inkscape:collect="always"
       xlink:href="#linearGradient3847"
       id="linearGradient3160"
       gradientUnits="userSpaceOnUse"
       gradientTransform="matrix(0.40402,-0.40569,0.60738,0.60227,-17.466,0.28929)"
       x1="30.038"
       y1="24.99"
       x2="30.038"
       y2="30" />
    <linearGradient
       inkscape:collect="always"
       xlink:href="#linearGradient3849"
       id="linearGradient3162"
       gradientUnits="userSpaceOnUse"
       gradientTransform="matrix(0.40402,-0.40569,0.60738,0.60227,-17.581,0.40547)"
       x1="30.038"
       y1="24.99"
       x2="30.038"
       y2="30" />
    <linearGradient
       inkscape:collect="always"
       xlink:href="#linearGradient3851"
       id="linearGradient3164"
       gradientUnits="userSpaceOnUse"
       gradientTransform="matrix(0.40402,-0.40569,0.60738,0.60227,-17.062,-0.11641)"
       x1="30.038"
       y1="24.99"
       x2="30.038"
       y2="30" />
    <linearGradient
       inkscape:collect="always"
       xlink:href="#linearGradient3853"
       id="linearGradient3166"
       gradientUnits="userSpaceOnUse"
       gradientTransform="matrix(0.40402,-0.40569,0.60738,0.60227,-17.177,-2.197e-4)"
       x1="30.038"
       y1="24.99"
       x2="30.038"
       y2="30" />
    <linearGradient
       inkscape:collect="always"
       xlink:href="#linearGradient3855"
       id="linearGradient3168"
       gradientUnits="userSpaceOnUse"
       gradientTransform="matrix(0.40402,-0.40569,0.60738,0.60227,-17.637,0.46249)"
       x1="9"
       y1="29.056999"
       x2="9"
       y2="26.030001" />
    <linearGradient
       inkscape:collect="always"
       xlink:href="#linearGradient3857"
       id="linearGradient3170"
       gradientUnits="userSpaceOnUse"
       gradientTransform="matrix(0.37638,0.036153,0.0367,0.37487,-2.2183,-1.1331)"
       x1="5.5179"
       y1="37.372002"
       x2="9.5221004"
       y2="41.391998" />
  </defs>
  <sodipodi:namedview
     pagecolor="#ffffff"
     bordercolor="#666666"
     borderopacity="1"
     objecttolerance="10"
     gridtolerance="10"
     guidetolerance="10"
     inkscape:pageopacity="0"
     inkscape:pageshadow="2"
     inkscape:window-width="640"
     inkscape:window-height="480"
     id="namedview6"
     showgrid="false"
     inkscape:zoom="7.5046387"
     inkscape:cx="-2.3965856"
     inkscape:cy="-1.9555114"
     inkscape:current-layer="svg3222" />
  <metadata
     id="metadata8">
    <rdf:RDF>
      <cc:Work
         rdf:about="">
        <dc:format>image/svg+xml</dc:format>
        <dc:type
           rdf:resource="http://purl.org/dc/dcmitype/StillImage" />
        <dc:title></dc:title>
      </cc:Work>
    </rdf:RDF>
  </metadata>
  <g
     id="g3118"
     transform="translate(-1,-1)">
    <path
       d="M 9.3353,8.538 C 9.2813,8.5596 9.2304,8.5895 9.1846,8.6266 L 8.2735,9.2444 C 8.13489,9.332049 8.03768,9.47417 8.00884,9.63133 7.979999,9.78849 8.022598,9.94396 8.12481,10.05461 l 5.5131,5.7901 c 0.09497,0.10582 0.23427,0.16205 0.38313,0.15465 0.14886,-0.0074 0.29323,-0.07774 0.39706,-0.19345 l 0.94443,-1.0513 c 0.19322,-0.21977 0.19232,-0.53772 -0.0021,-0.72168 l -5.546,-5.3567 c -0.1171,-0.1287 -0.2984,-0.181 -0.4787,-0.1383 z"
       style="fill:#4d4d4d;fill-rule:evenodd"
       id="path3220"
       inkscape:connector-curvature="0" />
    <path
       d="M 10,6 C 10,8.2403 8.2403,10 6,10 3.7597,10 2,8.2403 2,6 2,3.7597 3.7597,2 6,2 c 2.2403,0 4,1.7597 4,4 z"
       style="fill:none;stroke:#4d4d4d;stroke-width:2"
       id="path2447"
       inkscape:connector-curvature="0" />
  </g>
  <g
     transform="matrix(0.89079026,0,0,0.89639869,2.0929778,1.5704215)"
     id="g8626">
    <path
       d="m 2.0488,11.037 c 0.28654,-0.20771 1.148,0.25639 1.9603,1.0619 0.81045,0.80363 1.2602,1.6413 1.0576,1.9306 -7.708e-4,0.0011 0.01977,0.01774 0.01898,0.01882 l 10.138,-10.18 c 0.258,-0.2581 -0.213,-1.1432 -1.051,-1.9744 -0.838,-0.8311 -1.728,-1.295 -1.986,-1.0366 l -10.138,10.18 z"
       style="fill:url(#linearGradient3154);stroke:#0c0c0c;stroke-width:0.60798001;stroke-linejoin:round"
       id="path3041"
       inkscape:connector-curvature="0" />
    <path
       d="m 10.565,2.4841 c 0.28654,-0.20771 1.148,0.25639 1.9603,1.0619 0.81044,0.80363 1.2602,1.6413 1.0576,1.9306 -7.69e-4,0.0011 0.01977,0.017738 0.01898,0.018821 l 1.552,-1.5571 c 0.409,-0.4086 -0.029,-1.0928 -0.981,-2.0447 -0.813,-0.8055 -1.674,-1.2696 -1.96,-1.0619 l -0.02525,0.025356 -1.6218,1.6271 z"
       style="opacity:0.8;fill:#ffb6ed;stroke:#e28ccd;stroke-width:0.60798001;stroke-linejoin:round"
       id="path3043"
       inkscape:connector-curvature="0" />
    <path
       d="m 2.0488,11.037 c 0.28654,-0.20771 1.148,0.25639 1.9603,1.0619 0.81044,0.80363 1.2602,1.6413 1.0576,1.9306 -7.714e-4,0.0011 0.01977,0.01774 0.01898,0.01882 l 6.982,-7.0109 0.02525,-0.025356 c 7.9e-4,-0.00108 -0.01975,-0.01772 -0.01898,-0.01882 0.203,-0.2885 -0.247,-1.1262 -1.058,-1.9298 -0.812,-0.8056 -1.6734,-1.2697 -1.9599,-1.062 l -0.025251,0.025355 -6.982,7.0109 z"
       style="opacity:0.6;fill:#0c0c0c"
       id="path3045"
       inkscape:connector-curvature="0" />
    <path
       d="m 9.1785,3.8767 c 0.28654,-0.20771 1.148,0.25639 1.9603,1.0619 0.81044,0.80363 1.2602,1.6413 1.0576,1.9306 -7.71e-4,0.0011 0.01977,0.017736 0.01898,0.01882 l 0.12626,-0.12678 c 7.9e-4,-0.00108 -0.01975,-0.01772 -0.01898,-0.01882 0.203,-0.2892 -0.246,-1.1269 -1.057,-1.9305 -0.812,-0.8056 -1.6737,-1.2697 -1.9602,-1.062 L 9.1792,3.8767 z"
       style="fill:url(#linearGradient3156)"
       id="path3047"
       inkscape:connector-curvature="0" />
    <path
       d="m 9.0628,3.9929 c 0.28654,-0.20771 1.148,0.25639 1.9603,1.0619 0.81044,0.80363 1.2602,1.6413 1.0576,1.9306 -7.71e-4,0.0011 0.01977,0.017738 0.01898,0.018822 l 0.126,-0.1268 c 7.9e-4,-0.00108 -0.01975,-0.017721 -0.01898,-0.018821 0.203,-0.2892 -0.247,-1.1269 -1.058,-1.9305 -0.812,-0.8056 -1.6734,-1.2697 -1.9599,-1.062 l -0.1263,0.1268 z"
       style="fill:url(#linearGradient3158)"
       id="path3049"
       inkscape:connector-curvature="0" />
    <path
       d="m 9.5806,3.473 c 0.28654,-0.20771 1.148,0.25639 1.9603,1.0619 0.81045,0.80363 1.2602,1.6413 1.0576,1.9306 -7.73e-4,0.0011 0.01977,0.017737 0.01898,0.01882 l 0.12626,-0.12678 c 7.91e-4,-0.00108 -0.01975,-0.017721 -0.01898,-0.01882 0.202,-0.2892 -0.247,-1.1269 -1.058,-1.9306 -0.812,-0.8055 -1.6736,-1.2696 -1.9601,-1.0619 l -0.1263,0.1268 z"
       style="fill:url(#linearGradient3160)"
       id="path3051"
       inkscape:connector-curvature="0" />
    <path
       d="m 9.4649,3.5891 c 0.28654,-0.20771 1.148,0.25639 1.9603,1.0619 0.81045,0.80363 1.2602,1.6413 1.0576,1.9306 -7.69e-4,0.0011 0.01977,0.017737 0.01898,0.018821 l 0.12626,-0.12678 c 7.9e-4,-0.00108 -0.01975,-0.01772 -0.01898,-0.01882 0.203,-0.2892 -0.247,-1.1269 -1.057,-1.9305 -0.813,-0.8055 -1.6743,-1.2696 -1.9608,-1.0619 l -0.1263,0.1267 z"
       style="fill:url(#linearGradient3162)"
       id="path3053"
       inkscape:connector-curvature="0" />
    <path
       d="m 9.9846,3.0673 c 0.2864,-0.2077 1.1484,0.2564 1.9604,1.0619 0.81045,0.80363 1.2602,1.6413 1.0576,1.9306 -7.7e-4,0.0011 0.01977,0.017738 0.01898,0.018821 l 0.126,-0.1268 C 13.148372,5.950741 13.12783,5.9341 13.1286,5.933 13.3306,5.6438 12.8816,4.8061 12.0706,4.0024 11.2586,3.1969 10.3966,2.7328 10.1106,2.9405 L 9.9842,3.0673 z"
       style="fill:url(#linearGradient3164)"
       id="path3055"
       inkscape:connector-curvature="0" />
    <path
       d="m 9.8689,3.1835 c 0.28654,-0.20771 1.148,0.25639 1.9603,1.0619 0.81044,0.80363 1.2602,1.6413 1.0576,1.9306 -7.71e-4,0.0011 0.01977,0.017737 0.01898,0.018821 l 0.12626,-0.12678 c 7.89e-4,-0.00108 -0.01975,-0.017722 -0.01898,-0.018821 0.203,-0.2892 -0.247,-1.1269 -1.057,-1.9306 -0.813,-0.8055 -1.674,-1.2696 -1.9608,-1.0619 l -0.1263,0.1268 z"
       style="fill:url(#linearGradient3166)"
       id="path3057"
       inkscape:connector-curvature="0" />
    <path
       d="m 0.25981,15.794 4.7719,-1.7255 0.039308,-0.03926 c 0.2026,-0.289 -0.2524,-1.127 -1.0629,-1.93 -0.8124,-0.806 -1.6727,-1.268 -1.9592,-1.06 l -1.7891,4.755 z"
       style="fill:url(#linearGradient3168);fill-rule:evenodd;stroke:url(#linearGradient3170);stroke-width:0.60798001"
       id="path3059"
       inkscape:connector-curvature="0" />
    <path
       d="m 0.74443,14.506 -0.48521,1.283 1.3014,-0.473 C 1.44692,15.182 1.34132,15.048 1.20622,14.914 1.05072,14.76 0.89917,14.633 0.74445,14.506 z"
       style="fill:#0c0c0c;fill-rule:evenodd;stroke:#0c0c0c;stroke-width:0.60798001"
       id="path3061"
       inkscape:connector-curvature="0" />
  </g>
  <g
     transform="matrix(0.72727276,0,0,0.72727273,-28.806426,-3.1939079)"
     id="g2995" />
</svg>
