<?xml version="1.0" encoding="UTF-8" standalone="no"?>
<!-- Created with Inkscape (http://www.inkscape.org/) -->

<svg
   xmlns:dc="http://purl.org/dc/elements/1.1/"
   xmlns:cc="http://creativecommons.org/ns#"
   xmlns:rdf="http://www.w3.org/1999/02/22-rdf-syntax-ns#"
   xmlns:svg="http://www.w3.org/2000/svg"
   xmlns="http://www.w3.org/2000/svg"
   xmlns:xlink="http://www.w3.org/1999/xlink"
   xmlns:sodipodi="http://sodipodi.sourceforge.net/DTD/sodipodi-0.dtd"
   xmlns:inkscape="http://www.inkscape.org/namespaces/inkscape"
   id="svg2890"
   height="16"
   width="16"
   version="1.0"
   inkscape:version="0.48.1 r9760"
   sodipodi:docname="media-optical-copy.svg">
  <metadata
     id="metadata69">
    <rdf:RDF>
      <cc:Work
         rdf:about="">
        <dc:format>image/svg+xml</dc:format>
        <dc:type
           rdf:resource="http://purl.org/dc/dcmitype/StillImage" />
        <dc:title />
      </cc:Work>
    </rdf:RDF>
  </metadata>
  <sodipodi:namedview
     pagecolor="#ffffff"
     bordercolor="#666666"
     borderopacity="1"
     objecttolerance="10"
     gridtolerance="10"
     guidetolerance="10"
     inkscape:pageopacity="0"
     inkscape:pageshadow="2"
     inkscape:window-width="640"
     inkscape:window-height="480"
     id="namedview67"
     showgrid="false"
     inkscape:zoom="48.372558"
     inkscape:cx="2.7404273"
     inkscape:cy="14.968149"
     inkscape:current-layer="layer1" />
  <defs
     id="defs2892">
    <linearGradient
       id="linearGradient6036">
      <stop
         id="stop6038"
         style="stop-color:#fff"
         offset="0" />
      <stop
         id="stop6040"
         style="stop-color:#fff;stop-opacity:0"
         offset="1" />
    </linearGradient>
    <linearGradient
       id="linearGradient3519">
      <stop
         id="stop3521"
         style="stop-color:#fcd9cd"
         offset="0" />
      <stop
         id="stop3523"
         style="stop-color:#fcd9cd;stop-opacity:0"
         offset="1" />
    </linearGradient>
    <linearGradient
       id="linearGradient3511">
      <stop
         id="stop3513"
         style="stop-color:#ebeec7"
         offset="0" />
      <stop
         id="stop3515"
         style="stop-color:#ebeec7;stop-opacity:0"
         offset="1" />
    </linearGradient>
    <linearGradient
       id="linearGradient3503">
      <stop
         id="stop3505"
         style="stop-color:#c4ebdd"
         offset="0" />
      <stop
         id="stop3507"
         style="stop-color:#c4ebdd;stop-opacity:0"
         offset="1" />
    </linearGradient>
    <linearGradient
       id="linearGradient3495">
      <stop
         id="stop3497"
         style="stop-color:#c1cbe4"
         offset="0" />
      <stop
         id="stop3499"
         style="stop-color:#c1cbe4;stop-opacity:0"
         offset="1" />
    </linearGradient>
    <linearGradient
       id="linearGradient3487">
      <stop
         id="stop3489"
         style="stop-color:#e6cde2"
         offset="0" />
      <stop
         id="stop3491"
         style="stop-color:#e6cde2;stop-opacity:0"
         offset="1" />
    </linearGradient>
    <linearGradient
       id="linearGradient3456"
       y2="14.203"
       gradientUnits="userSpaceOnUse"
       x2="35.390999"
       gradientTransform="matrix(0,0.60001,-0.60001,0,25.86,-2.4001)"
       y1="32.416"
       x1="12.274">
      <stop
         id="stop3265"
         style="stop-color:#dedbde"
         offset="0" />
      <stop
         id="stop3267"
         style="stop-color:#e6e6e6"
         offset=".5" />
      <stop
         id="stop3269"
         style="stop-color:#d2d2d2"
         offset="1" />
    </linearGradient>
    <linearGradient
       id="linearGradient3458"
       y2="45.033001"
       gradientUnits="userSpaceOnUse"
       x2="-21.916"
       gradientTransform="matrix(0.5122,0,0,0.5122,25.453,-0.29268)"
       y1="3"
       x1="-21.916">
      <stop
         id="stop3774"
         style="stop-color:#b4b4b4"
         offset="0" />
      <stop
         id="stop3776"
         style="stop-color:#969696"
         offset="1" />
    </linearGradient>
    <linearGradient
       id="linearGradient3460"
       y2="32.508999"
       gradientUnits="userSpaceOnUse"
       x2="21.448"
       gradientTransform="matrix(0.4375,0,0,0.4375,1.5,1.5)"
       y1="15.5"
       x1="21.448">
      <stop
         id="stop3430"
         style="stop-color:#aaa"
         offset="0" />
      <stop
         id="stop3432"
         style="stop-color:#d4d4d4"
         offset="1" />
    </linearGradient>
    <linearGradient
       inkscape:collect="always"
       xlink:href="#linearGradient3456"
       id="linearGradient3150"
       gradientUnits="userSpaceOnUse"
       gradientTransform="matrix(0,0.60001,-0.60001,0,25.86,-2.4001)"
       x1="12.274"
       y1="32.416"
       x2="35.390999"
       y2="14.203" />
    <linearGradient
       inkscape:collect="always"
       xlink:href="#linearGradient3458"
       id="linearGradient3152"
       gradientUnits="userSpaceOnUse"
       gradientTransform="matrix(0.5122,0,0,0.5122,25.453,-0.29268)"
       x1="-21.916"
       y1="3"
       x2="-21.916"
       y2="45.033001" />
    <linearGradient
       inkscape:collect="always"
       xlink:href="#linearGradient3460"
       id="linearGradient3154"
       gradientUnits="userSpaceOnUse"
       gradientTransform="matrix(0.4375,0,0,0.4375,1.5,1.5)"
       x1="21.448"
       y1="15.5"
       x2="21.448"
       y2="32.508999" />
    <linearGradient
       inkscape:collect="always"
       xlink:href="#linearGradient6036"
       id="linearGradient3156"
       gradientUnits="userSpaceOnUse"
       gradientTransform="matrix(0.2273,0,0,0.2273,6.4659,6.3175)"
       x1="18.775999"
       y1="4.0377998"
       x2="18.202999"
       y2="45.962002" />
    <linearGradient
       inkscape:collect="always"
       xlink:href="#linearGradient3487"
       id="linearGradient3158"
       gradientUnits="userSpaceOnUse"
       spreadMethod="reflect"
       x1="20.58"
       y1="10.775"
       x2="24.274"
       y2="9.8621998" />
    <linearGradient
       inkscape:collect="always"
       xlink:href="#linearGradient3495"
       id="linearGradient3160"
       gradientUnits="userSpaceOnUse"
       spreadMethod="reflect"
       x1="17.495001"
       y1="11.2"
       x2="21.047001"
       y2="9.7955999" />
    <linearGradient
       inkscape:collect="always"
       xlink:href="#linearGradient3503"
       id="linearGradient3162"
       gradientUnits="userSpaceOnUse"
       spreadMethod="reflect"
       x1="14.085"
       y1="13.046"
       x2="16.993999"
       y2="10.732" />
    <linearGradient
       inkscape:collect="always"
       xlink:href="#linearGradient3511"
       id="linearGradient3164"
       gradientUnits="userSpaceOnUse"
       spreadMethod="reflect"
       x1="12.372"
       y1="16.188"
       x2="14.609"
       y2="13.462" />
    <linearGradient
       inkscape:collect="always"
       xlink:href="#linearGradient3519"
       id="linearGradient3166"
       gradientUnits="userSpaceOnUse"
       spreadMethod="reflect"
       x1="10.609"
       y1="17.886"
       x2="9.7298002"
       y2="20.613001" />
    <linearGradient
       inkscape:collect="always"
       xlink:href="#linearGradient6036"
       id="linearGradient3168"
       gradientUnits="userSpaceOnUse"
       gradientTransform="matrix(0.48201,0,0,0.48201,0.26461,-0.050137)"
       x1="10.502"
       y1="3.6099999"
       x2="48.799"
       y2="54.698002" />
    <linearGradient
       inkscape:collect="always"
       xlink:href="#linearGradient3487"
       id="linearGradient3170"
       gradientUnits="userSpaceOnUse"
       spreadMethod="reflect"
       x1="20.58"
       y1="10.775"
       x2="24.274"
       y2="9.8621998" />
    <linearGradient
       inkscape:collect="always"
       xlink:href="#linearGradient3495"
       id="linearGradient3172"
       gradientUnits="userSpaceOnUse"
       spreadMethod="reflect"
       x1="17.495001"
       y1="11.2"
       x2="21.047001"
       y2="9.7955999" />
    <linearGradient
       inkscape:collect="always"
       xlink:href="#linearGradient3503"
       id="linearGradient3174"
       gradientUnits="userSpaceOnUse"
       spreadMethod="reflect"
       x1="14.085"
       y1="13.046"
       x2="16.993999"
       y2="10.732" />
    <linearGradient
       inkscape:collect="always"
       xlink:href="#linearGradient3511"
       id="linearGradient3176"
       gradientUnits="userSpaceOnUse"
       spreadMethod="reflect"
       x1="12.372"
       y1="16.188"
       x2="14.609"
       y2="13.462" />
    <linearGradient
       inkscape:collect="always"
       xlink:href="#linearGradient3519"
       id="linearGradient3178"
       gradientUnits="userSpaceOnUse"
       spreadMethod="reflect"
       x1="10.609"
       y1="17.886"
       x2="9.7298002"
       y2="20.613001" />
    <linearGradient
       inkscape:collect="always"
       xlink:href="#linearGradient3487"
       id="linearGradient3139"
       gradientUnits="userSpaceOnUse"
       spreadMethod="reflect"
       x1="20.58"
       y1="10.775"
       x2="24.274"
       y2="9.8621998" />
    <linearGradient
       inkscape:collect="always"
       xlink:href="#linearGradient3495"
       id="linearGradient3141"
       gradientUnits="userSpaceOnUse"
       spreadMethod="reflect"
       x1="17.495001"
       y1="11.2"
       x2="21.047001"
       y2="9.7955999" />
    <linearGradient
       inkscape:collect="always"
       xlink:href="#linearGradient3503"
       id="linearGradient3143"
       gradientUnits="userSpaceOnUse"
       spreadMethod="reflect"
       x1="14.085"
       y1="13.046"
       x2="16.993999"
       y2="10.732" />
    <linearGradient
       inkscape:collect="always"
       xlink:href="#linearGradient3511"
       id="linearGradient3145"
       gradientUnits="userSpaceOnUse"
       spreadMethod="reflect"
       x1="12.372"
       y1="16.188"
       x2="14.609"
       y2="13.462" />
    <linearGradient
       inkscape:collect="always"
       xlink:href="#linearGradient3519"
       id="linearGradient3147"
       gradientUnits="userSpaceOnUse"
       spreadMethod="reflect"
       x1="10.609"
       y1="17.886"
       x2="9.7298002"
       y2="20.613001" />
  </defs>
  <g
     id="layer1"
     transform="scale(0.52892562,0.52892562)">
    <path
       inkscape:connector-curvature="0"
       d="M 21.5,11 C 21.5,5.1799 16.82,0.5 11,0.5 5.1799,0.5 0.5,5.1799 0.5,11 c 0,5.82 4.6799,10.5 10.5,10.5 5.82,0 10.5,-4.68 10.5,-10.5 z m -7,0 c 0,1.971 -1.57,3.5 -3.5,3.5 -1.971,0 -3.5,-1.655 -3.5,-3.5 0,-1.886 1.4638,-3.5 3.5,-3.5 2.078,0 3.5,1.4877 3.5,3.5 z"
       style="fill:none;stroke:#969696;stroke-width:1.00014070000000022;stroke-miterlimit:4;stroke-dasharray:4.00056283999999973, 1.00014070000000022;stroke-dashoffset:0;stroke-opacity:1"
       id="path2781" />
    <g
       transform="matrix(-0.48936,0,0,-0.48936,22.745,22.74)"
       id="g3297">
      <path
         inkscape:connector-curvature="0"
         transform="matrix(0.9996,0.028243,-0.028243,0.9996,0.69241,-0.67083)"
         d="m 15.857,5.7308 4.768,10.613 c 1.035,-0.459 2.17,-0.719 3.375,-0.719 h 0.094 l 0.014,-11.62 c -2.942,-0.0709 -5.543,0.657 -8.251,1.7258 z"
         style="opacity:0.8;fill:url(#linearGradient3139)"
         id="path3299" />
      <path
         inkscape:connector-curvature="0"
         d="m 12.121,7.906 6.931,9.36 c 0.914,-0.67 1.966,-1.167 3.143,-1.425 0.031,-0.007 0.06,-0.014 0.092,-0.02 L 19.857,4.426 c -2.889,0.5616 -5.319,1.8559 -7.736,3.48 z"
         style="opacity:0.8;fill:url(#linearGradient3141)"
         id="path3301" />
      <path
         inkscape:connector-curvature="0"
         d="m 8.2524,11.647 9.2136,7.155 c 0.709,-0.883 1.597,-1.636 2.667,-2.19 0.028,-0.014 0.054,-0.028 0.083,-0.043 L 14.866,6.251 c -2.645,1.2895 -4.7,3.2014 -6.6136,5.396 z"
         style="opacity:0.8;fill:url(#linearGradient3143)"
         id="path3303" />
      <path
         inkscape:connector-curvature="0"
         d="m 5.6329,16.074 c 7.1751,2.242 7.8501,7.031 12.777,1.754 l -7.91,-8.6959 C 8.2786,11.063 6.9132,13.459 5.6328,16.074 z"
         style="opacity:0.8;fill:url(#linearGradient3145)"
         id="path3305" />
      <path
         inkscape:connector-curvature="0"
         d="M 7.1553,13.193 C 5.9722,14.945 5.2476,16.83 4.6302,18.837 l 11.339,2.975 c 0.215,-0.763 0.518,-1.514 0.969,-2.218 0.017,-0.027 0.044,-0.067 0.062,-0.094 L 7.1555,13.193 z"
         style="opacity:0.8;fill:url(#linearGradient3147)"
         id="path3307" />
    </g>
  </g>
  <g
     id="g3136"
     transform="matrix(0.72727273,0,0,0.72727273,-17.06996,-1.6552143)" />
  <g
     id="g3053"
     transform="matrix(0.52892562,0,0,0.52892562,4.3636363,4.3636363)">
    <g
       transform="translate(-1,-1)"
       id="g3055">
      <path
         d="M 22.5,12 C 22.5,6.1799 17.82,1.5 12,1.5 6.1799,1.5 1.5,6.1799 1.5,12 c 0,5.82 4.6799,10.5 10.5,10.5 5.82,0 10.5,-4.68 10.5,-10.5 z m -7,0 c 0,1.971 -1.57,3.5 -3.5,3.5 -1.971,0 -3.5,-1.655 -3.5,-3.5 0,-1.886 1.4638,-3.5 3.5,-3.5 2.078,0 3.5,1.4877 3.5,3.5 z"
         style="fill:url(#linearGradient3150);stroke:url(#linearGradient3152)"
         id="path3057"
         inkscape:connector-curvature="0" />
      <path
         d="M 12,8.0851 C 9.839,8.0851 8.0851,9.839 8.0851,12 c 0,2.161 1.7539,3.915 3.9149,3.915 2.161,0 3.915,-1.754 3.915,-3.915 0,-2.161 -1.754,-3.9149 -3.915,-3.9149 z m 0,1.9579 c 1.081,0 1.957,0.876 1.957,1.957 0,1.081 -0.876,1.957 -1.957,1.957 -1.081,0 -1.957,-0.876 -1.957,-1.957 0,-1.081 0.876,-1.957 1.957,-1.957 z"
         style="opacity:0.5;fill:#ffffff"
         id="path3059"
         inkscape:connector-curvature="0" />
      <path
         d="m 12,8.5 c -1.932,0 -3.5,1.568 -3.5,3.5 0,1.932 1.568,3.5 3.5,3.5 1.932,0 3.5,-1.568 3.5,-3.5 0,-1.932 -1.568,-3.5 -3.5,-3.5 z m 0,1.75 c 0.966,0 1.75,0.784 1.75,1.75 0,0.966 -0.784,1.75 -1.75,1.75 -0.966,0 -1.75,-0.784 -1.75,-1.75 0,-0.966 0.784,-1.75 1.75,-1.75 z"
         style="fill:none;stroke:url(#linearGradient3154);stroke-linejoin:round"
         id="path3061"
         inkscape:connector-curvature="0" />
      <path
         d="m 12,7.5 c -2.4943,0 -4.5,2.0057 -4.5,4.5 0,2.494 2.0057,4.5 4.5,4.5 2.494,0 4.5,-2.006 4.5,-4.5 0,-2.4943 -2.006,-4.5 -4.5,-4.5 z"
         style="opacity:0.8;fill:none;stroke:url(#linearGradient3156)"
         id="path3063"
         inkscape:connector-curvature="0" />
      <g
         transform="matrix(0.48936,0,0,0.48936,0.2553,0.2553)"
         id="g3065">
        <path
           transform="matrix(0.9996,0.028243,-0.028243,0.9996,0.69241,-0.67083)"
           d="m 15.857,5.7308 4.768,10.613 c 1.035,-0.459 2.17,-0.719 3.375,-0.719 h 0.094 l 0.014,-11.62 c -2.942,-0.0709 -5.543,0.657 -8.251,1.7258 z"
           style="opacity:0.8;fill:url(#linearGradient3158)"
           id="path3067"
           inkscape:connector-curvature="0" />
        <path
           d="m 12.121,7.906 6.931,9.36 c 0.914,-0.67 1.966,-1.167 3.143,-1.425 0.031,-0.007 0.06,-0.014 0.092,-0.02 L 19.857,4.426 c -2.889,0.5616 -5.319,1.8559 -7.736,3.48 z"
           style="opacity:0.8;fill:url(#linearGradient3160)"
           id="path3069"
           inkscape:connector-curvature="0" />
        <path
           d="m 8.2524,11.647 9.2136,7.155 c 0.709,-0.883 1.597,-1.636 2.667,-2.19 0.028,-0.014 0.054,-0.028 0.083,-0.043 L 14.866,6.251 c -2.645,1.2895 -4.7,3.2014 -6.6136,5.396 z"
           style="opacity:0.8;fill:url(#linearGradient3162)"
           id="path3071"
           inkscape:connector-curvature="0" />
        <path
           d="m 5.6329,16.074 c 7.1751,2.242 7.8501,7.031 12.777,1.754 l -7.91,-8.6959 C 8.2786,11.063 6.9132,13.459 5.6328,16.074 z"
           style="opacity:0.8;fill:url(#linearGradient3164)"
           id="path3073"
           inkscape:connector-curvature="0" />
        <path
           d="M 7.1553,13.193 C 5.9722,14.945 5.2476,16.83 4.6302,18.837 l 11.339,2.975 c 0.215,-0.763 0.518,-1.514 0.969,-2.218 0.017,-0.027 0.044,-0.067 0.062,-0.094 L 7.1555,13.193 z"
           style="opacity:0.8;fill:url(#linearGradient3166)"
           id="path3075"
           inkscape:connector-curvature="0" />
      </g>
      <path
         d="m 12,2.4574 c -5.2893,0 -9.5426,4.2533 -9.5426,9.5426 0,5.289 4.2533,9.543 9.5426,9.543 5.289,0 9.543,-4.254 9.543,-9.543 0,-5.2893 -4.254,-9.5426 -9.543,-9.5426 z"
         style="opacity:0.5;fill:none;stroke:url(#linearGradient3168)"
         id="path3077"
         inkscape:connector-curvature="0" />
      <g
         transform="matrix(-0.48936,0,0,-0.48936,23.745,23.74)"
         id="g3079">
        <path
           transform="matrix(0.9996,0.028243,-0.028243,0.9996,0.69241,-0.67083)"
           d="m 15.857,5.7308 4.768,10.613 c 1.035,-0.459 2.17,-0.719 3.375,-0.719 h 0.094 l 0.014,-11.62 c -2.942,-0.0709 -5.543,0.657 -8.251,1.7258 z"
           style="opacity:0.8;fill:url(#linearGradient3170)"
           id="path3081"
           inkscape:connector-curvature="0" />
        <path
           d="m 12.121,7.906 6.931,9.36 c 0.914,-0.67 1.966,-1.167 3.143,-1.425 0.031,-0.007 0.06,-0.014 0.092,-0.02 L 19.857,4.426 c -2.889,0.5616 -5.319,1.8559 -7.736,3.48 z"
           style="opacity:0.8;fill:url(#linearGradient3172)"
           id="path3083"
           inkscape:connector-curvature="0" />
        <path
           d="m 8.2524,11.647 9.2136,7.155 c 0.709,-0.883 1.597,-1.636 2.667,-2.19 0.028,-0.014 0.054,-0.028 0.083,-0.043 L 14.866,6.251 c -2.645,1.2895 -4.7,3.2014 -6.6136,5.396 z"
           style="opacity:0.8;fill:url(#linearGradient3174)"
           id="path3085"
           inkscape:connector-curvature="0" />
        <path
           d="m 5.6329,16.074 c 7.1751,2.242 7.8501,7.031 12.777,1.754 l -7.91,-8.6959 C 8.2786,11.063 6.9132,13.459 5.6328,16.074 z"
           style="opacity:0.8;fill:url(#linearGradient3176)"
           id="path3087"
           inkscape:connector-curvature="0" />
        <path
           d="M 7.1553,13.193 C 5.9722,14.945 5.2476,16.83 4.6302,18.837 l 11.339,2.975 c 0.215,-0.763 0.518,-1.514 0.969,-2.218 0.017,-0.027 0.044,-0.067 0.062,-0.094 L 7.1555,13.193 z"
           style="opacity:0.8;fill:url(#linearGradient3178)"
           id="path3089"
           inkscape:connector-curvature="0" />
      </g>
    </g>
  </g>
</svg>
