<?xml version="1.0" encoding="UTF-8" standalone="no"?>
<!-- Created with Inkscape (http://www.inkscape.org/) -->

<svg
   xmlns:dc="http://purl.org/dc/elements/1.1/"
   xmlns:cc="http://creativecommons.org/ns#"
   xmlns:rdf="http://www.w3.org/1999/02/22-rdf-syntax-ns#"
   xmlns:svg="http://www.w3.org/2000/svg"
   xmlns="http://www.w3.org/2000/svg"
   xmlns:sodipodi="http://sodipodi.sourceforge.net/DTD/sodipodi-0.dtd"
   xmlns:inkscape="http://www.inkscape.org/namespaces/inkscape"
   id="svg7384"
   version="1.1"
   height="16"
   width="16.000299"
   inkscape:version="0.48.1 r9760"
   sodipodi:docname="network-cellular-edge-symbolic.svg">
  <sodipodi:namedview
     pagecolor="#ffffff"
     bordercolor="#666666"
     borderopacity="1"
     objecttolerance="10"
     gridtolerance="10"
     guidetolerance="10"
     inkscape:pageopacity="0"
     inkscape:pageshadow="2"
     inkscape:window-width="640"
     inkscape:window-height="480"
     id="namedview14"
     showgrid="false"
     inkscape:zoom="30.249023"
     inkscape:cx="0.85942333"
     inkscape:cy="8"
     inkscape:current-layer="svg7384" />
  <title
     id="title9167">Gnome Symbolic Icon Theme</title>
  <metadata
     id="metadata90">
    <rdf:RDF>
      <cc:Work
         rdf:about="">
        <dc:format>image/svg+xml</dc:format>
        <dc:type
           rdf:resource="http://purl.org/dc/dcmitype/StillImage" />
        <dc:title>Gnome Symbolic Icon Theme</dc:title>
      </cc:Work>
    </rdf:RDF>
  </metadata>
  <defs
     id="defs7386" />
  <path
     style="color:#bebebe;fill:#3a3935;fill-opacity:1;stroke:none;stroke-width:2;marker:none;visibility:visible;display:inline;overflow:visible"
     id="rect7047"
     d="M 2.0625,0 C 0.91177,0 0,0.91177 0,2.0625 l 0,11.875 C 0,15.08823 0.91177,16 2.0625,16 l 11.875,0 C 15.08823,16 16,15.08823 16,13.9375 L 16,2.0625 C 16,0.91177 15.08823,0 13.9375,0 L 2.0625,0 z M 6,3 l 0.0937,0 5.90625,0 0,2 -6,0 0,2 6,0 0,2 -6,0 0,2 c -3.6e-4,-4.5e-4 0.0315,10e-5 0.0313,0 L 12,11 12,13 6,13 C 5.3752,13 5.00587,12.75882 4.65625,12.4375 4.32517,12.13326 4.01226,11.64774 4.03125,11 l -0.0313,0 0,-0.0937 0,-5.84375 0,-0.0625 0.0313,0 C 4.01825,4.52495 4.14138,4.00041 4.5,3.5938 4.85357,3.19291 5.43419,3.0108 6,3.0313 L 6,3 z"
     inkscape:connector-curvature="0" />
  <g
     transform="translate(-100.9999,-237)"
     id="layer10" />
  <g
     transform="translate(-100.9999,-237)"
     id="layer11" />
  <g
     transform="translate(-100.9999,-237)"
     id="layer12" />
  <g
     transform="translate(-100.9999,-237)"
     id="layer13" />
  <g
     transform="translate(-100.9999,-237)"
     id="layer14" />
  <g
     transform="translate(-100.9999,-237)"
     id="layer15" />
</svg>
