<?xml version="1.0" encoding="UTF-8" standalone="no"?>
<!-- Created with Inkscape (http://www.inkscape.org/) -->

<svg
   xmlns:dc="http://purl.org/dc/elements/1.1/"
   xmlns:cc="http://creativecommons.org/ns#"
   xmlns:rdf="http://www.w3.org/1999/02/22-rdf-syntax-ns#"
   xmlns:svg="http://www.w3.org/2000/svg"
   xmlns="http://www.w3.org/2000/svg"
   xmlns:sodipodi="http://sodipodi.sourceforge.net/DTD/sodipodi-0.dtd"
   xmlns:inkscape="http://www.inkscape.org/namespaces/inkscape"
   id="svg7384"
   version="1.1"
   height="16"
   width="16.0002"
   inkscape:version="0.48.1 r9760"
   sodipodi:docname="network-cellular-umts-symbolic.svg">
  <sodipodi:namedview
     pagecolor="#ffffff"
     bordercolor="#666666"
     borderopacity="1"
     objecttolerance="10"
     gridtolerance="10"
     guidetolerance="10"
     inkscape:pageopacity="0"
     inkscape:pageshadow="2"
     inkscape:window-width="640"
     inkscape:window-height="480"
     id="namedview14"
     showgrid="false"
     inkscape:zoom="30.249023"
     inkscape:cx="0.85937374"
     inkscape:cy="8"
     inkscape:current-layer="svg7384" />
  <title
     id="title9167">Gnome Symbolic Icon Theme</title>
  <metadata
     id="metadata90">
    <rdf:RDF>
      <cc:Work
         rdf:about="">
        <dc:format>image/svg+xml</dc:format>
        <dc:type
           rdf:resource="http://purl.org/dc/dcmitype/StillImage" />
        <dc:title>Gnome Symbolic Icon Theme</dc:title>
      </cc:Work>
    </rdf:RDF>
  </metadata>
  <defs
     id="defs7386" />
  <path
     style="color:#bebebe;fill:#3a3935;fill-opacity:1;stroke:none;stroke-width:2;marker:none;visibility:visible;display:inline;overflow:visible"
     id="rect7039"
     d="M 2.0625,0 C 0.911772,0 0,0.91177 0,2.0625 l 0,11.875 C 0,15.08823 0.911772,16 2.0625,16 l 11.875,0 C 15.088228,16 16,15.08823 16,13.9375 L 16,2.0625 C 16,0.91177 15.088228,0 13.9375,0 L 2.0625,0 z M 4,3 6,3 6,11 c -3.6e-4,-4.5e-4 0.0315,10e-5 0.03125,0 l 3.9375,0 C 9.97555,10.9807 9.9982,10.984 10,11 c 8.77e-4,0.008 0,-0.0554 0,-0.0312 L 10,3 l 2,0 0,7.96875 c 0,0.56264 -0.227078,0.99957 -0.5625,1.375 -0.31592,0.35364 -0.851921,0.632 -1.46875,0.625 l 0,0.0312 -0.09375,0 -3.875,0 c -0.624797,0 -0.994128,-0.24118 -1.34375,-0.5625 -0.331084,-0.30424 -0.64399,-0.78976 -0.625,-1.4375 L 4,11 4,10.90625 4,3 z"
     inkscape:connector-curvature="0" />
  <g
     transform="translate(-81,-237)"
     id="layer10" />
  <g
     transform="translate(-81,-237)"
     id="layer11" />
  <g
     transform="translate(-81,-237)"
     id="layer12" />
  <g
     transform="translate(-81,-237)"
     id="layer13" />
  <g
     transform="translate(-81,-237)"
     id="layer14" />
  <g
     transform="translate(-81,-237)"
     id="layer15" />
</svg>
