<?xml version="1.0" encoding="UTF-8" standalone="no"?>
<!-- Created with Inkscape (http://www.inkscape.org/) -->

<svg
   xmlns:dc="http://purl.org/dc/elements/1.1/"
   xmlns:cc="http://creativecommons.org/ns#"
   xmlns:rdf="http://www.w3.org/1999/02/22-rdf-syntax-ns#"
   xmlns:svg="http://www.w3.org/2000/svg"
   xmlns="http://www.w3.org/2000/svg"
   xmlns:sodipodi="http://sodipodi.sourceforge.net/DTD/sodipodi-0.dtd"
   xmlns:inkscape="http://www.inkscape.org/namespaces/inkscape"
   id="svg3222"
   height="16"
   width="16"
   version="1.0"
   inkscape:version="0.48.1 r9760"
   sodipodi:docname="zoom-half-size.svg">
  <metadata
     id="metadata10">
    <rdf:RDF>
      <cc:Work
         rdf:about="">
        <dc:format>image/svg+xml</dc:format>
        <dc:type
           rdf:resource="http://purl.org/dc/dcmitype/StillImage" />
        <dc:title></dc:title>
      </cc:Work>
    </rdf:RDF>
  </metadata>
  <defs
     id="defs8" />
  <sodipodi:namedview
     pagecolor="#ffffff"
     bordercolor="#666666"
     borderopacity="1"
     objecttolerance="10"
     gridtolerance="10"
     guidetolerance="10"
     inkscape:pageopacity="0"
     inkscape:pageshadow="2"
     inkscape:window-width="640"
     inkscape:window-height="480"
     id="namedview6"
     showgrid="false"
     inkscape:zoom="10.799721"
     inkscape:cx="-4.7787539"
     inkscape:cy="4.5536171"
     inkscape:current-layer="svg3222" />
  <path
     id="path3220"
     style="fill:#4d4d4d;fill-rule:evenodd"
     d="m 12.043976,13.480616 5.513101,5.7901 c 0.09497,0.10582 0.23427,0.16205 0.38313,0.15465 0.14886,-0.0074 0.29323,-0.07774 0.39706,-0.19345 l 0.94443,-1.0513 c 0.19322,-0.21977 0.19232,-0.53772 -0.0021,-0.72168 l -5.5455,-5.3566 -1.689301,1.3786 z"
     inkscape:connector-curvature="0" />
  <g
     id="g3076"
     transform="matrix(-1.5,0,0,1.5,86.714239,-1.4579691)"
     style="fill:#4d4d4d;fill-opacity:1">
    <g
       id="g3979"
       transform="matrix(0.72727277,0,0,0.72727277,25.340557,2.4533263)"
       style="fill:#4d4d4d;fill-opacity:1">
      <g
         id="g3974"
         transform="matrix(-0.91666661,0,0,0.91666661,44.644784,1.6298148)">
        <g
           id="g3980"
           transform="matrix(1.3333333,0,0,1.3333333,0,-4)">
          <path
             inkscape:connector-curvature="0"
             id="path2447-8"
             style="fill:#ffffff;fill-opacity:0.58824002;fill-rule:evenodd;stroke:#4d4d4d;stroke-width:2"
             d="M 6,11 C 3,11 1,9.0589 1,6 1,3 2.9064,1 6,1 c 3,0 5,2 5,5 0,2.7758 -1.8917,5 -5,5 z" />
          <path
             inkscape:connector-curvature="0"
             id="rect2866"
             style="fill:#4d4d4d"
             d="m -8.7,7 h 0.4 C -8.1338,7 -8,7.1338 -8,7.3 V 8.7 C -8,8.8662 -8.1338,9 -8.3,9 H -8.7 C -8.8662,9 -9,8.8662 -9,8.7 V 7.3 C -9,7.1338 -8.8662,7 -8.7,7 z m 0,1 h 1.4 C -7.1338,8 -7,8.1338 -7,8.3 V 8.7 C -7,8.8662 -7.1338,9 -7.3,9 H -8.7 C -8.8662,9 -9,8.8662 -9,8.7 V 8.3 C -9,8.1338 -8.8662,8 -8.7,8 z m 0,-3 h 0.4 C -8.1338,5 -8,4.8662 -8,4.7 V 3.3 C -8,3.1338 -8.1338,3 -8.3,3 H -8.7 C -8.8662,3 -9,3.1338 -9,3.3 V 4.7 C -9,4.8662 -8.8662,5 -8.7,5 z m 0,-1 h 1.4 C -7.1338,4 -7,3.8662 -7,3.7 V 3.3 C -7,3.1338 -7.1338,3 -7.3,3 H -8.7 C -8.8662,3 -9,3.1338 -9,3.3 V 3.7 C -9,3.8662 -8.8662,4 -8.7,4 z m 5.4,1 H -3.7 C -3.8662,5 -4,4.8662 -4,4.7 V 3.3 C -4,3.1338 -3.8662,3 -3.7,3 h 0.4 C -3.1338,3 -3,3.1338 -3,3.3 V 4.7 C -3,4.8662 -3.1338,5 -3.3,5 z m 0,-1 H -4.7 C -4.8662,4 -5,3.8662 -5,3.7 V 3.3 C -5,3.1338 -4.8662,3 -4.7,3 h 1.4 C -3.1338,3 -3,3.1338 -3,3.3 V 3.7 C -3,3.8662 -3.1338,4 -3.3,4 z m 0,3 H -3.7 C -3.8662,7 -4,7.1338 -4,7.3 V 8.7 C -4,8.8662 -3.8662,9 -3.7,9 h 0.4 C -3.1338,9 -3,8.8662 -3,8.7 V 7.3 C -3,7.1338 -3.1338,7 -3.3,7 z m 0,1 H -4.7 C -4.8662,8 -5,8.1338 -5,8.3 V 8.7 C -5,8.8662 -4.8662,9 -4.7,9 h 1.4 C -3.1338,9 -3,8.8662 -3,8.7 V 8.3 C -3,8.1338 -3.1338,8 -3.3,8 z"
             transform="scale(-1,1)" />
        </g>
      </g>
    </g>
  </g>
</svg>
