<?xml version="1.0" encoding="UTF-8" standalone="no"?>
<!-- Created with Inkscape (http://www.inkscape.org/) -->

<svg
   xmlns:dc="http://purl.org/dc/elements/1.1/"
   xmlns:cc="http://creativecommons.org/ns#"
   xmlns:rdf="http://www.w3.org/1999/02/22-rdf-syntax-ns#"
   xmlns:svg="http://www.w3.org/2000/svg"
   xmlns="http://www.w3.org/2000/svg"
   xmlns:sodipodi="http://sodipodi.sourceforge.net/DTD/sodipodi-0.dtd"
   xmlns:inkscape="http://www.inkscape.org/namespaces/inkscape"
   sodipodi:docname="zoom-fit-selection.svg"
   inkscape:version="0.48.1 r9760"
   version="1.0"
   width="16"
   height="16"
   id="svg3222">
  <sodipodi:namedview
     pagecolor="#ffffff"
     bordercolor="#666666"
     borderopacity="1"
     objecttolerance="10"
     gridtolerance="10"
     guidetolerance="10"
     inkscape:pageopacity="0"
     inkscape:pageshadow="2"
     inkscape:window-width="640"
     inkscape:window-height="480"
     id="namedview6"
     showgrid="false"
     inkscape:zoom="32.185542"
     inkscape:cx="6.6618434"
     inkscape:cy="8.9380032"
     inkscape:current-layer="svg3222" />
  <metadata
     id="metadata10">
    <rdf:RDF>
      <cc:Work
         rdf:about="">
        <dc:format>image/svg+xml</dc:format>
        <dc:type
           rdf:resource="http://purl.org/dc/dcmitype/StillImage" />
        <dc:title />
      </cc:Work>
    </rdf:RDF>
  </metadata>
  <defs
     id="defs8" />
  <path
     id="path3220"
     style="fill:#4d4d4d;fill-rule:evenodd"
     d="m 12.043976,13.480616 5.513101,5.7901 c 0.09497,0.10582 0.23427,0.16205 0.38313,0.15465 0.14886,-0.0074 0.29323,-0.07774 0.39706,-0.19345 l 0.94443,-1.0513 c 0.19322,-0.21977 0.19232,-0.53772 -0.0021,-0.72168 l -5.5455,-5.3566 -1.689301,1.3786 z"
     inkscape:connector-curvature="0" />
  <path
     id="path2447"
     style="fill:#ffffff;fill-opacity:0.58824002;fill-rule:evenodd;stroke:#4d4d4d;stroke-width:2.66666675"
     d="m 7.9999998,14.666667 c -3.9999999,0 -6.6666667,-2.588134 -6.6666667,-6.6666672 0,-3.9999999 2.5418667,-6.6666667 6.6666667,-6.6666667 4.0000002,0 6.6666672,2.6666668 6.6666672,6.6666667 0,3.7010672 -2.522267,6.6666672 -6.6666672,6.6666672 z"
     inkscape:connector-curvature="0" />
  <g
     id="g5532"
     transform="matrix(0.76677694,0,0,0.76677694,7.1017164,4.88741)">
    <g
       id="g5421"
       transform="translate(-29.843701,-4.7377973)">
      <g
         style="fill:#000000;fill-opacity:1;stroke:#000000;stroke-width:1.63218343;stroke-miterlimit:4;stroke-opacity:1;stroke-dasharray:none"
         transform="matrix(-0.21743932,0,0,0.21992636,20.096061,10.866348)"
         id="g3335" />
      <g
         id="g3073" />
    </g>
  </g>
  <rect
     style="fill:none;stroke:#4d4d4d;stroke-width:1;stroke-miterlimit:4;stroke-opacity:1;stroke-dasharray:2,1;stroke-dashoffset:0"
     id="rect6156"
     width="6.2222223"
     height="6.2222223"
     x="4.8888888"
     y="4.8888888" />
</svg>
