<?xml version="1.0" encoding="UTF-8" standalone="no"?>
<!-- Created with Inkscape (http://www.inkscape.org/) -->

<svg
   xmlns:dc="http://purl.org/dc/elements/1.1/"
   xmlns:cc="http://creativecommons.org/ns#"
   xmlns:rdf="http://www.w3.org/1999/02/22-rdf-syntax-ns#"
   xmlns:svg="http://www.w3.org/2000/svg"
   xmlns="http://www.w3.org/2000/svg"
   xmlns:sodipodi="http://sodipodi.sourceforge.net/DTD/sodipodi-0.dtd"
   xmlns:inkscape="http://www.inkscape.org/namespaces/inkscape"
   id="svg3222"
   height="16"
   width="16"
   version="1.0"
   inkscape:version="0.48.1 r9760"
   sodipodi:docname="zoom-in.svg">
  <metadata
     id="metadata10">
    <rdf:RDF>
      <cc:Work
         rdf:about="">
        <dc:format>image/svg+xml</dc:format>
        <dc:type
           rdf:resource="http://purl.org/dc/dcmitype/StillImage" />
        <dc:title></dc:title>
      </cc:Work>
    </rdf:RDF>
  </metadata>
  <defs
     id="defs8" />
  <sodipodi:namedview
     pagecolor="#ffffff"
     bordercolor="#666666"
     borderopacity="1"
     objecttolerance="10"
     gridtolerance="10"
     guidetolerance="10"
     inkscape:pageopacity="0"
     inkscape:pageshadow="2"
     inkscape:window-width="640"
     inkscape:window-height="480"
     id="namedview6"
     showgrid="false"
     inkscape:zoom="15.814777"
     inkscape:cx="-5.490414"
     inkscape:cy="5.4780053"
     inkscape:current-layer="svg3222" />
  <path
     id="path3220"
     style="fill:#4d4d4d;fill-rule:evenodd"
     d="m 12.043976,13.480616 5.513101,5.7901 c 0.09497,0.10582 0.23427,0.16205 0.38313,0.15465 0.14886,-0.0074 0.29323,-0.07774 0.39706,-0.19345 l 0.94443,-1.0513 c 0.19322,-0.21977 0.19232,-0.53772 -0.0021,-0.72168 l -5.5455,-5.3566 -1.689301,1.3786 z"
     inkscape:connector-curvature="0" />
  <g
     id="g2994"
     transform="translate(2e-7,4.0000002)">
    <g
       id="g3000"
       transform="matrix(1.3333333,0,0,1.3333333,0,-4)">
      <path
         inkscape:connector-curvature="0"
         id="path2447-3"
         style="fill:#ffffff;fill-opacity:0.58824002;fill-rule:evenodd;stroke:#4d4d4d;stroke-width:2"
         d="M 6,11 C 3,11 1,9.0589 1,6 1,3 2.9064,1 6,1 c 3,0 5,2 5,5 0,2.7758 -1.8917,5 -5,5 z" />
      <rect
         id="rect3590"
         style="fill:#4d4d4d"
         rx="0.30000001"
         ry="0.30000001"
         height="2"
         width="6"
         y="5"
         x="3" />
      <rect
         id="rect2819"
         style="fill:#4d4d4d"
         transform="matrix(0.0062709,0.99998,-0.99998,0.0064692,0,0)"
         rx="0.29956001"
         ry="0.29493001"
         height="1.9662"
         width="5.9912"
         y="-6.9454002"
         x="3.0431001" />
    </g>
  </g>
</svg>
