<?xml version="1.0" encoding="UTF-8" standalone="no"?>
<!-- Created with Inkscape (http://www.inkscape.org/) -->

<svg
   xmlns:dc="http://purl.org/dc/elements/1.1/"
   xmlns:cc="http://creativecommons.org/ns#"
   xmlns:rdf="http://www.w3.org/1999/02/22-rdf-syntax-ns#"
   xmlns:svg="http://www.w3.org/2000/svg"
   xmlns="http://www.w3.org/2000/svg"
   xmlns:sodipodi="http://sodipodi.sourceforge.net/DTD/sodipodi-0.dtd"
   xmlns:inkscape="http://www.inkscape.org/namespaces/inkscape"
   id="svg3222"
   height="16"
   width="16"
   version="1.0"
   inkscape:version="0.48.1 r9760"
   sodipodi:docname="zoom-fit-drawing.svg">
  <sodipodi:namedview
     pagecolor="#ffffff"
     bordercolor="#666666"
     borderopacity="1"
     objecttolerance="10"
     gridtolerance="10"
     guidetolerance="10"
     inkscape:pageopacity="0"
     inkscape:pageshadow="2"
     inkscape:window-width="640"
     inkscape:window-height="480"
     id="namedview6"
     showgrid="false"
     inkscape:zoom="15.814777"
     inkscape:cx="-1.6615868"
     inkscape:cy="8.0512621"
     inkscape:current-layer="g3069" />
  <metadata
     id="metadata10">
    <rdf:RDF>
      <cc:Work
         rdf:about="">
        <dc:format>image/svg+xml</dc:format>
        <dc:type
           rdf:resource="http://purl.org/dc/dcmitype/StillImage" />
        <dc:title />
      </cc:Work>
    </rdf:RDF>
  </metadata>
  <defs
     id="defs8" />
  <path
     id="path3220"
     style="fill:#4d4d4d;fill-rule:evenodd"
     d="m 12.043976,13.480616 5.513101,5.7901 c 0.09497,0.10582 0.23427,0.16205 0.38313,0.15465 0.14886,-0.0074 0.29323,-0.07774 0.39706,-0.19345 l 0.94443,-1.0513 c 0.19322,-0.21977 0.19232,-0.53772 -0.0021,-0.72168 l -5.5455,-5.3566 -1.689301,1.3786 z"
     inkscape:connector-curvature="0" />
  <path
     id="path2447"
     style="fill:#ffffff;fill-opacity:0.58824002;fill-rule:evenodd;stroke:#4d4d4d;stroke-width:2.66666675"
     d="m 7.9999998,14.666667 c -3.9999999,0 -6.6666667,-2.588134 -6.6666667,-6.6666672 0,-3.9999999 2.5418667,-6.6666667 6.6666667,-6.6666667 4.0000002,0 6.6666672,2.6666668 6.6666672,6.6666667 0,3.7010672 -2.522267,6.6666672 -6.6666672,6.6666672 z"
     inkscape:connector-curvature="0" />
  <g
     id="g3069"
     transform="translate(-31.210288,-0.36548228)"
     style="stroke:#4d4d4d;stroke-opacity:1">
    <rect
       style="stroke-linejoin:miter;enable-background:accumulate;stroke-opacity:1;fill-rule:nonzero;fill-opacity:1;stroke-dashoffset:0;visibility:visible;stroke:#4d4d4d;stroke-linecap:round;stroke-miterlimit:4;marker:none;stroke-dasharray:none;overflow:visible;stroke-width:1.0;display:inline;fill:#ffffff"
       id="rect16249"
       width="5.0"
       height="5.0"
       x="35.5"
       y="5.5"
       transform="matrix(1.000000,0.000000,0.000000,1.000000,0.000000,0.000000)" />
    <path
       transform="matrix(0.952653,0.000000,0.000000,1.052635,35.000000,2.000000)"
       d="m 9.370297,6.6972771 c 0,1.1818074 -1.0588909,2.1398515 -2.365099,2.1398515 -1.3062081,0 -2.365099,-0.9580441 -2.365099,-2.1398515 0,-1.1818074 1.0588909,-2.1398516 2.365099,-2.1398516 1.3062081,0 2.365099,0.9580442 2.365099,2.1398516 z"
       sodipodi:ry="2.1398516"
       sodipodi:rx="2.365099"
       sodipodi:cy="6.6972771"
       sodipodi:cx="7.005198"
       id="path16251"
       style="fill:#ffffff;fill-opacity:1;stroke:#4d4d4d;stroke-width:0.8934741;stroke-linecap:round;stroke-linejoin:miter;stroke-miterlimit:4;stroke-opacity:1;stroke-dasharray:none;stroke-dashoffset:0"
       sodipodi:type="arc" />
  </g>
</svg>
