<?xml version="1.0" encoding="UTF-8" standalone="no"?>
<!-- Created with Inkscape (http://www.inkscape.org/) -->

<svg
   xmlns:dc="http://purl.org/dc/elements/1.1/"
   xmlns:cc="http://creativecommons.org/ns#"
   xmlns:rdf="http://www.w3.org/1999/02/22-rdf-syntax-ns#"
   xmlns:svg="http://www.w3.org/2000/svg"
   xmlns="http://www.w3.org/2000/svg"
   xmlns:sodipodi="http://sodipodi.sourceforge.net/DTD/sodipodi-0.dtd"
   xmlns:inkscape="http://www.inkscape.org/namespaces/inkscape"
   inkscape:export-ydpi="7.1999998"
   inkscape:export-xdpi="7.1999998"
   inkscape:export-filename="/home/svetli/Плот/LFU_menu_icons/Y-symbol_2.png"
   inkscape:output_extension="org.inkscape.output.svg.inkscape"
   sodipodi:docname="start-here.svg"
   inkscape:version="0.48.1 r9760"
   sodipodi:version="0.32"
   id="svg2"
   height="16"
   width="16"
   version="1.0">
  <metadata
     id="metadata6">
    <rdf:RDF>
      <cc:Work
         rdf:about="">
        <dc:format>image/svg+xml</dc:format>
        <dc:type
           rdf:resource="http://purl.org/dc/dcmitype/StillImage" />
      </cc:Work>
    </rdf:RDF>
  </metadata>
  <sodipodi:namedview
     inkscape:window-height="793"
     inkscape:window-width="1272"
     inkscape:pageshadow="2"
     inkscape:pageopacity="0.0"
     guidetolerance="10.0"
     gridtolerance="10.0"
     objecttolerance="10.0"
     borderopacity="1.0"
     bordercolor="#666666"
     pagecolor="#ffffff"
     id="base"
     showgrid="true"
     inkscape:zoom="12.578125"
     inkscape:cx="-5.3091221"
     inkscape:cy="4.0482555"
     inkscape:window-x="-4"
     inkscape:window-y="29"
     inkscape:current-layer="svg2"
     borderlayer="false"
     inkscape:showpageshadow="true"
     showborder="true">
    <inkscape:grid
       type="xygrid"
       id="grid3483" />
  </sodipodi:namedview>
  <defs
     id="defs7" />
  <g
     id="g4278">
    <path
       style="fill:#333333;stroke:#eae3d0;stroke-width:1;stroke-miterlimit:4;stroke-opacity:1;stroke-dasharray:none"
       d="M 8.8586206,14.845476 C 8.7109113,14.553463 8.6296592,14.083108 8.44178,12.432464 8.3418582,11.554589 8.3053275,11.344044 8.2324792,11.226174 8.0768546,10.974368 8.0161814,10.961758 6.9601902,10.961758 c -0.9408938,0 -0.9493608,-7.84e-4 -1.0101138,-0.09351 -0.059564,-0.09091 -2.3718201,-9.072477 -2.3718201,-9.2129384 0,-0.038673 0.028866,-0.1115268 0.064147,-0.1618966 0.063289,-0.090357 0.077509,-0.091582 1.0634944,-0.091582 1.0218281,0 1.048398,0.00375 1.1680915,0.1648263 0.025261,0.033996 0.3921515,1.5081601 0.8153114,3.2759218 0.4231601,1.7677613 0.8011838,3.2695502 0.8400524,3.3373093 0.038868,0.067759 0.1207347,0.1512023 0.1819248,0.1854295 0.098966,0.055357 0.1233298,0.055404 0.2205691,4.21e-4 C 8.1591746,8.2372053 8.1983972,8.1303797 8.2591839,7.4742163 8.4501497,5.4128378 8.7234216,3.9117276 9.1434888,2.6166433 9.3693996,1.9201523 9.5692471,1.6365638 9.9448529,1.4794892 10.013035,1.450975 10.336598,1.4174311 10.667712,1.4045505 l 0.599421,-0.023319 0.381435,-0.1982559 c 0.477009,-0.24793239 0.567401,-0.2456598 0.698067,0.017548 0.08772,0.1767128 0.09115,0.2102018 0.04846,0.4738754 -0.02526,0.1560485 -0.06089,0.5349233 -0.07916,0.8419437 -0.03909,0.6566783 -0.112699,0.8481346 -0.445963,1.1598642 -0.335027,0.3133788 -0.60773,0.364799 -1.461666,0.2756073 -0.4416535,-0.04613 -0.4432854,-0.04597 -0.5779469,0.056741 -0.199858,0.1524412 -0.3378797,0.4432444 -0.4825909,1.0167962 -0.3146957,1.2472684 -0.435724,2.3651441 -0.3995717,3.6906481 0.048252,1.7691205 0.2673487,2.9115755 0.771744,4.0241575 0.2415125,0.532721 0.4006525,1.012759 0.4726875,1.425834 0.087,0.498908 0.08081,0.573395 -0.05936,0.71356 L 10.012815,15 9.4747972,15 8.9367799,15 8.858616,14.845476 z"
       id="path4256"
       inkscape:connector-curvature="0" />
    <path
       inkscape:connector-curvature="0"
       id="path2537"
       d="M 8.8586206,14.845476 C 8.7109113,14.553463 8.6296592,14.083108 8.44178,12.432464 8.3418582,11.554589 8.3053275,11.344044 8.2324792,11.226174 8.0768546,10.974368 8.0161814,10.961758 6.9601902,10.961758 c -0.9408938,0 -0.9493608,-7.84e-4 -1.0101138,-0.09351 -0.059564,-0.09091 -2.3718201,-9.072477 -2.3718201,-9.2129384 0,-0.038673 0.028866,-0.1115268 0.064147,-0.1618966 0.063289,-0.090357 0.077509,-0.091582 1.0634944,-0.091582 1.0218281,0 1.048398,0.00375 1.1680915,0.1648263 0.025261,0.033996 0.3921515,1.5081601 0.8153114,3.2759218 0.4231601,1.7677613 0.8011838,3.2695502 0.8400524,3.3373093 0.038868,0.067759 0.1207347,0.1512023 0.1819248,0.1854295 0.098966,0.055357 0.1233298,0.055404 0.2205691,4.21e-4 C 8.1591746,8.2372053 8.1983972,8.1303797 8.2591839,7.4742163 8.4501497,5.4128378 8.7234216,3.9117276 9.1434888,2.6166433 9.3693996,1.9201523 9.5692471,1.6365638 9.9448529,1.4794892 10.013035,1.450975 10.336598,1.4174311 10.667712,1.4045505 l 0.599421,-0.023319 0.381435,-0.1982559 c 0.477009,-0.24793239 0.567401,-0.2456598 0.698067,0.017548 0.08772,0.1767128 0.09115,0.2102018 0.04846,0.4738754 -0.02526,0.1560485 -0.06089,0.5349233 -0.07916,0.8419437 -0.03909,0.6566783 -0.112699,0.8481346 -0.445963,1.1598642 -0.335027,0.3133788 -0.60773,0.364799 -1.461666,0.2756073 -0.4416535,-0.04613 -0.4432854,-0.04597 -0.5779469,0.056741 -0.199858,0.1524412 -0.3378797,0.4432444 -0.4825909,1.0167962 -0.3146957,1.2472684 -0.435724,2.3651441 -0.3995717,3.6906481 0.048252,1.7691205 0.2673487,2.9115755 0.771744,4.0241575 0.2415125,0.532721 0.4006525,1.012759 0.4726875,1.425834 0.087,0.498908 0.08081,0.573395 -0.05936,0.71356 L 10.012815,15 9.4747972,15 8.9367799,15 8.858616,14.845476 z"
       style="fill:#333333;stroke:#f2f2f2;stroke-width:0;stroke-miterlimit:4;stroke-opacity:1;stroke-dasharray:none" />
  </g>
</svg>
