<?xml version="1.0" encoding="UTF-8" standalone="no"?>
<!-- Created with Inkscape (http://www.inkscape.org/) -->

<svg
   xmlns:dc="http://purl.org/dc/elements/1.1/"
   xmlns:cc="http://creativecommons.org/ns#"
   xmlns:rdf="http://www.w3.org/1999/02/22-rdf-syntax-ns#"
   xmlns:svg="http://www.w3.org/2000/svg"
   xmlns="http://www.w3.org/2000/svg"
   xmlns:xlink="http://www.w3.org/1999/xlink"
   xmlns:sodipodi="http://sodipodi.sourceforge.net/DTD/sodipodi-0.dtd"
   xmlns:inkscape="http://www.inkscape.org/namespaces/inkscape"
   id="svg3892"
   height="48"
   width="48"
   version="1.0"
   inkscape:version="0.48.1 r9760"
   sodipodi:docname="authors.svg">
  <metadata
     id="metadata91">
    <rdf:RDF>
      <cc:Work
         rdf:about="">
        <dc:format>image/svg+xml</dc:format>
        <dc:type
           rdf:resource="http://purl.org/dc/dcmitype/StillImage" />
      </cc:Work>
    </rdf:RDF>
  </metadata>
  <sodipodi:namedview
     pagecolor="#ffffff"
     bordercolor="#666666"
     borderopacity="1"
     objecttolerance="10"
     gridtolerance="10"
     guidetolerance="10"
     inkscape:pageopacity="0"
     inkscape:pageshadow="2"
     inkscape:window-width="1366"
     inkscape:window-height="688"
     id="namedview89"
     showgrid="false"
     inkscape:zoom="4"
     inkscape:cx="-46.63582"
     inkscape:cy="30.497175"
     inkscape:window-x="0"
     inkscape:window-y="25"
     inkscape:window-maximized="1"
     inkscape:current-layer="svg3892" />
  <defs
     id="defs3894">
    <linearGradient
       id="linearGradient3333"
       y2="609.51001"
       gradientUnits="userSpaceOnUse"
       x2="302.85999"
       gradientTransform="matrix(0.067325,0,0,0.0147,-0.34114,37.04)"
       y1="366.64999"
       x1="302.85999">
      <stop
         id="stop5050"
         style="stop-opacity:0"
         offset="0" />
      <stop
         id="stop5056"
         offset=".5" />
      <stop
         id="stop5052"
         style="stop-opacity:0"
         offset="1" />
    </linearGradient>
    <radialGradient
       id="radialGradient3330"
       xlink:href="#linearGradient5060"
       gradientUnits="userSpaceOnUse"
       cy="486.64999"
       cx="605.71002"
       gradientTransform="matrix(-0.02304,0,0,0.0147,21.623,37.04)"
       r="117.14" />
    <radialGradient
       id="radialGradient3327"
       xlink:href="#linearGradient5060"
       gradientUnits="userSpaceOnUse"
       cy="486.64999"
       cx="605.71002"
       gradientTransform="matrix(0.02304,0,0,0.0147,26.361,37.04)"
       r="117.14" />
    <linearGradient
       id="linearGradient3324"
       y2="2.9061999"
       gradientUnits="userSpaceOnUse"
       x2="-51.785999"
       gradientTransform="matrix(0.8075,0,0,0.89483,59.41,-2.9806)"
       y1="50.785999"
       x1="-51.785999">
      <stop
         id="stop3106"
         style="stop-color:#aaa"
         offset="0" />
      <stop
         id="stop3108"
         style="stop-color:#c8c8c8"
         offset="1" />
    </linearGradient>
    <linearGradient
       id="linearGradient3322"
       y2="47.013"
       gradientUnits="userSpaceOnUse"
       x2="25.132"
       gradientTransform="matrix(1,0,0,0.95617,-1.0065e-7,-1.9149)"
       y1="0.98521"
       x1="25.132">
      <stop
         id="stop3602"
         style="stop-color:#f4f4f4"
         offset="0" />
      <stop
         id="stop3604"
         style="stop-color:#dbdbdb"
         offset="1" />
    </linearGradient>
    <radialGradient
       id="radialGradient3319"
       gradientUnits="userSpaceOnUse"
       cy="112.3"
       cx="102"
       gradientTransform="matrix(0.3617,0,0,-0.39078,0.85106,47.517)"
       r="139.56">
      <stop
         id="stop41"
         style="stop-color:#b7b8b9"
         offset="0" />
      <stop
         id="stop47"
         style="stop-color:#ececec"
         offset=".18851" />
      <stop
         id="stop49"
         style="stop-color:#fafafa;stop-opacity:0"
         offset=".25718" />
      <stop
         id="stop51"
         style="stop-color:#fff;stop-opacity:0"
         offset=".30111" />
      <stop
         id="stop53"
         style="stop-color:#fafafa;stop-opacity:0"
         offset=".53130" />
      <stop
         id="stop55"
         style="stop-color:#ebecec;stop-opacity:0"
         offset=".84490" />
      <stop
         id="stop57"
         style="stop-color:#e1e2e3;stop-opacity:0"
         offset="1" />
    </radialGradient>
    <linearGradient
       id="linearGradient3316"
       y2="46.016998"
       gradientUnits="userSpaceOnUse"
       x2="24"
       gradientTransform="matrix(1,0,0,0.97778,0,-0.96667)"
       y1="2"
       x1="24">
      <stop
         id="stop3213"
         style="stop-color:#fff"
         offset="0" />
      <stop
         id="stop3215"
         style="stop-color:#fff;stop-opacity:0"
         offset="1" />
    </linearGradient>
    <filter
       id="filter3212"
       height="1.3286999"
       width="1.2969"
       color-interpolation-filters="sRGB"
       y="-0.16434"
       x="-0.14846">
      <feGaussianBlur
         id="feGaussianBlur3214"
         stdDeviation="0.77391625" />
    </filter>
    <linearGradient
       id="linearGradient3312"
       y2="5.4565001"
       gradientUnits="userSpaceOnUse"
       x2="36.358002"
       gradientTransform="matrix(0.9977,0,0,1.0407,0.1638,-1.1058)"
       y1="8.059"
       x1="32.891998">
      <stop
         id="stop8591"
         style="stop-color:#fefefe"
         offset="0" />
      <stop
         id="stop8593"
         style="stop-color:#cbcbcb"
         offset="1" />
    </linearGradient>
    <radialGradient
       id="radialGradient3059"
       gradientUnits="userSpaceOnUse"
       cy="41.5"
       cx="32"
       gradientTransform="matrix(0.35714,0,0,0.14286,8.0714,25.072)"
       r="21">
      <stop
         id="stop5062-9"
         offset="0" />
      <stop
         id="stop5064-1"
         style="stop-opacity:0"
         offset="1" />
    </radialGradient>
    <linearGradient
       id="linearGradient3056"
       y2="22.329"
       xlink:href="#linearGradient3886"
       gradientUnits="userSpaceOnUse"
       x2="32.763"
       gradientTransform="matrix(0.41936,0,0,0.4198,7.4193,13.819)"
       y1="25.084999"
       x1="30" />
    <radialGradient
       id="radialGradient3054"
       xlink:href="#linearGradient6954"
       gradientUnits="userSpaceOnUse"
       cy="28.66"
       cx="25"
       gradientTransform="matrix(0.55041,0,0,0.1567,4.143,22.342)"
       r="16" />
    <linearGradient
       id="linearGradient3051"
       y2="43.308998"
       xlink:href="#linearGradient3341"
       gradientUnits="userSpaceOnUse"
       x2="30"
       gradientTransform="matrix(0.41936,0,0,0.4198,7.4193,13.819)"
       y1="21.687"
       x1="29.968" />
    <linearGradient
       id="linearGradient3048"
       y2="4.1195998"
       xlink:href="#linearGradient3886"
       gradientUnits="userSpaceOnUse"
       x2="34.221001"
       gradientTransform="matrix(0.33335,0,0,0.36215,9.9996,14.481)"
       y1="27.266001"
       x1="34.221001" />
    <radialGradient
       id="radialGradient3046"
       xlink:href="#linearGradient6954"
       gradientUnits="userSpaceOnUse"
       cy="12.313"
       cx="26.375999"
       gradientTransform="matrix(0.54674,-0.048015,0.042706,0.57397,3.8673,12.588)"
       r="8" />
    <linearGradient
       id="linearGradient3043"
       y2="37.438"
       xlink:href="#linearGradient5060"
       gradientUnits="userSpaceOnUse"
       x2="17"
       gradientTransform="matrix(0.61957,0,0,0.35917,3.8334,16.284)"
       y1="39"
       x1="22" />
    <linearGradient
       id="linearGradient3040"
       y2="26.283001"
       xlink:href="#linearGradient3341"
       gradientUnits="userSpaceOnUse"
       x2="30"
       gradientTransform="matrix(0.33335,0,0,0.36215,9.9996,14.481)"
       y1="6.7807999"
       x1="29.997999" />
    <radialGradient
       id="radialGradient3108"
       xlink:href="#linearGradient5060"
       gradientUnits="userSpaceOnUse"
       cy="41.5"
       cx="32"
       gradientTransform="matrix(0.45238,0,0,0.14286,12.024,27.071)"
       r="21" />
    <linearGradient
       id="linearGradient3105"
       y2="24.818001"
       xlink:href="#linearGradient3886"
       gradientUnits="userSpaceOnUse"
       x2="35.612"
       gradientTransform="matrix(0.51613,0,0,0.51667,11.016,11.508)"
       y1="45.473"
       x1="35.612" />
    <linearGradient
       id="linearGradient6954">
      <stop
         id="stop6960"
         style="stop-color:#f5f5f5"
         offset="0" />
      <stop
         id="stop6962"
         style="stop-color:#d2d2d2"
         offset="1" />
    </linearGradient>
    <radialGradient
       id="radialGradient3102"
       xlink:href="#linearGradient6954"
       gradientUnits="userSpaceOnUse"
       cy="28.66"
       cx="25"
       gradientTransform="matrix(0.67742,0,0,0.19286,6.9837,21.998)"
       r="16" />
    <linearGradient
       id="linearGradient3099"
       y2="43.530998"
       xlink:href="#linearGradient3341"
       gradientUnits="userSpaceOnUse"
       x2="29.996"
       gradientTransform="matrix(0.51613,0,0,0.51667,11.016,11.508)"
       y1="21.440001"
       x1="29.996" />
    <linearGradient
       id="linearGradient3886">
      <stop
         id="stop3888"
         style="stop-color:#a0a0a0"
         offset="0" />
      <stop
         id="stop3890"
         style="stop-color:#bebebe"
         offset="1" />
    </linearGradient>
    <linearGradient
       id="linearGradient3096"
       y2="4.4878998"
       xlink:href="#linearGradient3886"
       gradientUnits="userSpaceOnUse"
       x2="32.823002"
       gradientTransform="matrix(0.5277,0,0,0.53573,10.669,10.596)"
       y1="26.940001"
       x1="32.823002" />
    <radialGradient
       id="radialGradient3094"
       gradientUnits="userSpaceOnUse"
       cy="12.313"
       cx="26.375999"
       gradientTransform="matrix(0.86552,-0.071029,0.067606,0.84907,0.96109,7.7952)"
       r="8">
      <stop
         id="stop3882"
         style="stop-color:#f5f5f5"
         offset="0" />
      <stop
         id="stop3884"
         style="stop-color:#d2d2d2"
         offset="1" />
    </radialGradient>
    <linearGradient
       id="linearGradient3091"
       y2="37.438"
       xlink:href="#linearGradient5060"
       gradientUnits="userSpaceOnUse"
       x2="17"
       gradientTransform="matrix(0.75,0,0,0.43478,6.8724,14.917)"
       y1="39"
       x1="22" />
    <radialGradient
       id="radialGradient3088"
       xlink:href="#linearGradient5060"
       gradientUnits="userSpaceOnUse"
       cy="33.188"
       cx="30"
       gradientTransform="matrix(0.81492,-3.8845e-7,1.1365e-7,0.2534,2.0524,18.59)"
       r="4.6875" />
    <linearGradient
       id="linearGradient5060">
      <stop
         id="stop5062"
         offset="0" />
      <stop
         id="stop5064"
         style="stop-opacity:0"
         offset="1" />
    </linearGradient>
    <linearGradient
       id="linearGradient3085"
       y2="37.438"
       xlink:href="#linearGradient5060"
       gradientUnits="userSpaceOnUse"
       x2="17"
       gradientTransform="matrix(-0.75,0,0,0.43478,46.15,14.917)"
       y1="39"
       x1="22" />
    <linearGradient
       id="linearGradient3341">
      <stop
         id="stop3343"
         style="stop-color:#fff"
         offset="0" />
      <stop
         id="stop3345"
         style="stop-color:#fff;stop-opacity:0"
         offset="1" />
    </linearGradient>
    <linearGradient
       id="linearGradient3082"
       y2="24.913"
       xlink:href="#linearGradient3341"
       gradientUnits="userSpaceOnUse"
       x2="30"
       gradientTransform="matrix(0.5277,0,0,0.53573,10.669,10.596)"
       y1="6.3340001"
       x1="30" />
  </defs>
  <g
     id="layer1"
     transform="matrix(0.99999277,0,0,0.99999277,0.00827346,0.01759561)">
    <rect
       id="rect2879"
       style="opacity:0.3;fill:url(#linearGradient3333)"
       height="3.5701001"
       width="32.507999"
       y="42.43"
       x="7.7378001" />
    <path
       id="path2881"
       style="opacity:0.3;fill:url(#radialGradient3330)"
       d="m 7.7378,42.43 v 3.5699 c -1.1865,0.0067 -2.8684,-0.79982 -2.8684,-1.7852 0,-0.98533 1.324,-1.7847 2.8684,-1.7847 z"
       inkscape:connector-curvature="0" />
    <path
       id="path2883"
       style="opacity:0.3;fill:url(#radialGradient3327)"
       d="m 40.246,42.43 v 3.5699 c 1.1865,0.0067 2.8684,-0.79982 2.8684,-1.7852 0,-0.98533 -1.324,-1.7847 -2.8684,-1.7847 z"
       inkscape:connector-curvature="0" />
    <path
       id="path4160"
       style="fill:url(#linearGradient3322);stroke:url(#linearGradient3324);stroke-width:0.99992001;stroke-linejoin:round"
       d="m 6.5,0.4972 h 24.061 c 1.4069,0.47465 8.9655,5.8822 10.939,9.6264 v 34.379 H 6.5 V 0.4966 z"
       inkscape:connector-curvature="0" />
    <path
       id="path4191"
       style="fill:url(#radialGradient3319)"
       d="M 7.3617,44 C 7.1624,44 7,43.82454 7,43.60922 V 1.40522 C 7,1.18951 7.1624,1.01444 7.3617,1.01444 c 7.4833,0.1082 15.775,-0.16138 23.249,0.0271 l 10.283,8.866 0.106,33.702 c 0,0.216 -0.162,0.391 -0.362,0.391 H 7.3617 z"
       inkscape:connector-curvature="0" />
    <path
       id="path2435"
       style="opacity:0.6;fill:none;stroke:url(#linearGradient3316);stroke-width:0.99992001;stroke-linejoin:round"
       d="M 40.5,10.259 V 43.522 H 7.5 V 1.477 h 22.866"
       inkscape:connector-curvature="0" />
    <path
       id="path12038"
       style="opacity:0.4;fill-rule:evenodd;filter:url(#filter3212)"
       d="m 28.617,0.92126 c 4.2825,0 2.1532,8.4832 2.1532,8.4832 0,0 10.358,-1.8023 10.358,2.8187 0,-2.6097 -11.302,-10.729 -12.511,-11.302 z"
       inkscape:connector-curvature="0" />
    <path
       id="path4474"
       style="fill:url(#linearGradient3312);fill-rule:evenodd"
       d="m 28.617,0.92126 c 3.1865,0 2.3358,7.6619 2.3358,7.6619 0,0 10.175,-0.98105 10.175,3.64 0,-1.1259 0.08591,-1.9322 -0.13378,-2.2836 -1.578,-2.5243 -8.395,-8.1885 -10.857,-8.9309 -0.184,-0.05556 -0.593,-0.08754 -1.52,-0.08754 z"
       inkscape:connector-curvature="0" />
    <path
       id="path3823-1"
       style="opacity:0.3;fill:url(#radialGradient3059)"
       d="m 27,31.001 c -3.03e-4,1.6568 -3.3581,2.9998 -7.5,2.9998 -4.1419,0 -7.4997,-1.343 -7.5,-2.9998 -3.03e-4,-1.6569 3.3576,-3.0002 7.5,-3.0002 4.1424,0 7.5003,1.3433 7.5,3.0002 z"
       inkscape:connector-curvature="0" />
    <path
       id="path3766-9"
       style="fill:url(#radialGradient3054);stroke:url(#linearGradient3056);stroke-width:0.99992001"
       d="m 18.513,22.425 -0.056,2.5188 c -1.2206,1.0138 -4.5424,1.4693 -4.5377,2.5188 l -0.41936,3.1485 c 0,1.0433 2.9102,1.8891 6.5,1.8891 3.5899,0 6.5,-0.84577 6.5,-1.8891 l -0.419,-3.15 c -0.005,-0.898 -3.345,-1.469 -4.551,-2.518 l -0.043,-2.5188 h -2.974 z"
       inkscape:connector-curvature="0" />
    <path
       id="path4094"
       style="opacity:0.6;fill:none;stroke:url(#linearGradient3051);stroke-width:0.99992001"
       d="m 19.5,23.438 c -0.08094,0.69165 0.13187,1.4507 -0.22352,2.0875 -0.52882,0.66704 -1.389,0.90478 -2.139,1.2298 -0.77365,0.27763 -1.5745,0.5103 -2.2798,0.94414 0.06985,0.1373 -0.06553,0.62172 -0.07816,0.908 -0.08278,0.66226 -0.16556,1.3245 -0.24835,1.9868 0.64003,0.19142 1.2405,0.51082 1.9149,0.57882 2.3665,0.46975 4.8219,0.41537 7.1912,-0.0036 0.60184,-0.11487 1.1796,-0.33181 1.732,-0.58773 0.18406,-0.31394 -0.04004,-0.70452 -0.03164,-1.0593 -0.071,-0.58 -0.142,-1.161 -0.213,-1.741 -1.3884,-0.8647 -3.1599,-1.0333 -4.3605,-2.2108 -0.42353,-0.60971 -0.16244,-1.3771 -0.27294,-2.0576 -0.26215,-0.1719 -0.63612,-0.03619 -0.95093,-0.07532 h -0.02997 -0.01062 -10e-7 z"
       inkscape:connector-curvature="0" />
    <path
       id="path3764-3"
       style="fill:url(#radialGradient3046);stroke:url(#linearGradient3048);stroke-width:0.99980998"
       d="m 20,16.473 c -1.3808,0 -2.5001,1.135 -2.5001,2.5351 0.01082,0.51814 0.05151,1.1337 0.33334,2.5351 0.16667,0.54323 1.6533,1.9918 1.6667,2.1729 0.32324,0.18108 0.83336,0.18108 1.1667,0 0,-0.18108 1.3334,-1.6297 1.5001,-2.1729 0.31714,-1.4565 0.31633,-1.9918 0.33334,-2.5351 0,-1.4001 -1.1193,-2.5351 -2.5001,-2.5351 z"
       inkscape:connector-curvature="0" />
    <path
       id="path3848-9"
       style="opacity:0.5;fill:url(#linearGradient3043)"
       d="m 16.844,31.8 c -1.4636,-0.71194 -0.7657,-2.2925 -0.61957,-3.3043 -0.61956,0.71834 -0.30761,2.7261 -1.5467,2.7261 0.82609,0.29377 1.3916,0.49414 2.1663,0.57826 z"
       inkscape:connector-curvature="0" />
    <path
       id="path4066"
       style="opacity:0.6;fill:none;stroke:url(#linearGradient3040);stroke-width:0.99980998"
       d="m 20,17.438 c -0.79885,-0.02253 -1.5285,0.69012 -1.5254,1.4898 -0.01231,0.64991 0.12349,1.2912 0.23067,1.9294 0.02773,0.25036 0.09922,0.48186 0.2817,0.66408 0.33444,0.44968 0.70651,0.87028 1.0755,1.2917 0.37865,-0.49722 0.76606,-0.98814 1.125,-1.5 0.15256,-0.84642 0.39186,-1.6962 0.32668,-2.5637 -0.099,-0.727 -0.773,-1.332 -1.514,-1.311 z"
       inkscape:connector-curvature="0" />
    <path
       id="path3823"
       style="opacity:0.3;fill:url(#radialGradient3108)"
       d="m 36,33 c 0,1.6569 -4.2533,3 -9.5,3 -5.2467,0 -9.5,-1.3431 -9.5,-3 0,-1.6569 4.2533,-3 9.5,-3 5.2467,0 9.5,1.3431 9.5,3 z"
       inkscape:connector-curvature="0" />
    <path
       id="path3766"
       style="fill:url(#radialGradient3102);stroke:url(#linearGradient3105);stroke-width:0.99989003"
       d="m 24.177,22.1 c 0.23753,1.1247 0.37012,1.9754 0.17742,3.1 -1.5023,1.2477 -5.3445,1.8084 -5.3387,3.1 l -0.51613,3.875 c 0,1.2841 3.5817,2.325 8.0001,2.325 4.4183,0 8.0001,-1.0409 8.0001,-2.325 L 33.98366,28.3 c -0.0061,-1.1055 -3.871,-1.8083 -5.3549,-3.1 -0.12675,-1.0438 -0.02586,-2.0562 0.19355,-3.1 h -4.6452 z"
       inkscape:connector-curvature="0" />
    <path
       id="path3742"
       style="opacity:0.6;fill:none;stroke:url(#linearGradient3099);stroke-width:0.99989003"
       d="m 25.219,23.094 c 0.08722,0.85671 0.3354,1.801 -0.04818,2.6159 -0.64255,0.72846 -1.5946,1.0938 -2.4674,1.4727 -1.38,0.327 -2.989,0.817 -2.778,1.815 -0.142,1.063 -0.283,2.126 -0.425,3.19 0.3064,0.16061 1.0809,0.5849 1.625,0.6875 2.5208,0.66695 5.1678,0.72537 7.7549,0.51952 1.5117,-0.16621 3.0886,-0.35266 4.4326,-1.1133 0.33544,-0.07362 0.10712,-0.31641 0.11494,-0.65492 -0.13206,-1.0213 -0.26412,-2.0426 -0.39619,-3.0638 -0.58765,-0.5027 -1.3913,-0.75352 -2.1064,-1.0646 -1.0828,-0.4473 -2.2515,-0.853 -3.0869,-1.708 -0.39162,-0.68956 -0.16147,-1.5387 -0.10732,-2.2865 0.25968,-0.52835 -0.2234,-0.4019 -0.55293,-0.40969 h -1.9589 z"
       inkscape:connector-curvature="0" />
    <path
       id="path3764"
       style="fill:url(#radialGradient3094);stroke:url(#linearGradient3096);stroke-width:1.08449996"
       d="m 26.5,13.542 c -2.1858,0 -3.9578,1.679 -3.9578,3.7501 0.01713,0.76649 0.08155,1.677 0.5277,3.7501 0.26385,0.8036 2.6173,2.9465 2.6385,3.2144 0.5117,0.26786 1.3193,0.26786 1.847,0 0,-0.26786 2.1108,-2.4108 2.3747,-3.2144 0.50205,-2.1545 0.50077,-2.9465 0.5277,-3.7501 0,-2.0711 -1.772,-3.7501 -3.9578,-3.7501 z"
       inkscape:connector-curvature="0" />
    <path
       id="path3848"
       style="opacity:0.5;fill:url(#linearGradient3091)"
       d="m 22.622,33.7 c -1.7718,-0.86182 -0.9269,-2.7752 -0.75,-4 C 21.122,30.57 21.5,33 20,33 c 1,0.35562 1.6845,0.59817 2.6224,0.7 z"
       inkscape:connector-curvature="0" />
    <path
       id="path3833"
       style="opacity:0.3;fill:url(#radialGradient3088)"
       d="m 24,25.35 c 0.366,0.96 1.343,1.65 2.5,1.65 1.1566,0 2.134,-0.69018 2.5,-1.6495 h -5 z"
       inkscape:connector-curvature="0" />
    <path
       id="path3720"
       style="opacity:0.5;fill:url(#linearGradient3085)"
       d="m 30.4,33.7 c 1.7718,-0.86182 0.9269,-2.7752 0.75,-4 0.75,0.87 0.372,3.3 1.872,3.3 -1,0.35562 -1.6845,0.59817 -2.6224,0.7 z"
       inkscape:connector-curvature="0" />
    <path
       id="path3730"
       style="opacity:0.6;fill:none;stroke:url(#linearGradient3082);stroke-width:1.08449996"
       d="m 26.5,14.531 c -1.6666,0 -2.9513,1.2303 -2.9688,2.7188 1.39e-4,0.0062 -1.45e-4,0.025 0,0.03125 0.01647,0.7081 0.08609,1.5273 0.5,3.4688 -0.0051,-0.03667 0.09671,0.20414 0.3125,0.46875 0.23243,0.28502 0.5666,0.60833 0.875,0.9375 0.3084,0.32917 0.59885,0.66898 0.84375,0.9375 0.09435,0.10345 0.17196,0.1869 0.25,0.28125 0.16681,0.03524 0.41525,0.03212 0.625,0 0.06182,-0.08397 0.11475,-0.15943 0.1875,-0.25 0.21825,-0.27171 0.4739,-0.57599 0.75,-0.90625 0.2761,-0.33026 0.56921,-0.68139 0.78125,-0.96875 0.19756,-0.26773 0.30731,-0.50314 0.3125,-0.5 0.4607,-1.9998 0.47374,-2.6696 0.5,-3.4688 0,-0.01018 1.19e-4,-0.02109 0,-0.03125 -0.018,-1.488 -1.302,-2.719 -2.969,-2.719 z"
       inkscape:connector-curvature="0" />
  </g>
</svg>
