<?xml version="1.0" encoding="UTF-8" standalone="no"?>
<!-- Created with Inkscape (http://www.inkscape.org/) -->

<svg
   xmlns:dc="http://purl.org/dc/elements/1.1/"
   xmlns:cc="http://creativecommons.org/ns#"
   xmlns:rdf="http://www.w3.org/1999/02/22-rdf-syntax-ns#"
   xmlns:svg="http://www.w3.org/2000/svg"
   xmlns="http://www.w3.org/2000/svg"
   xmlns:sodipodi="http://sodipodi.sourceforge.net/DTD/sodipodi-0.dtd"
   xmlns:inkscape="http://www.inkscape.org/namespaces/inkscape"
   version="1.0"
   width="48"
   height="48"
   id="svg2475"
   inkscape:version="0.47pre4 r22446"
   sodipodi:docname="gnome-mime-application-x-littlewizard.svg">
  <metadata
     id="metadata24">
    <rdf:RDF>
      <cc:Work
         rdf:about="">
        <dc:format>image/svg+xml</dc:format>
        <dc:type
           rdf:resource="http://purl.org/dc/dcmitype/StillImage" />
      </cc:Work>
    </rdf:RDF>
  </metadata>
  <sodipodi:namedview
     pagecolor="#ffffff"
     bordercolor="#666666"
     borderopacity="1"
     objecttolerance="10"
     gridtolerance="10"
     guidetolerance="10"
     inkscape:pageopacity="0"
     inkscape:pageshadow="2"
     inkscape:window-width="1440"
     inkscape:window-height="829"
     id="namedview22"
     showgrid="false"
     inkscape:zoom="6.9532167"
     inkscape:cx="30.426397"
     inkscape:cy="30.177619"
     inkscape:window-x="0"
     inkscape:window-y="24"
     inkscape:window-maximized="1"
     inkscape:current-layer="svg2475" />
  <defs
     id="defs2477">
    <inkscape:perspective
       sodipodi:type="inkscape:persp3d"
       inkscape:vp_x="0 : 24 : 1"
       inkscape:vp_y="0 : 1000 : 0"
       inkscape:vp_z="48 : 24 : 1"
       inkscape:persp3d-origin="24 : 16 : 1"
       id="perspective26" />
  </defs>
  <g
     style="display:inline"
     id="layer5">
    <path
       d="M 19.968524,0.55193856 C 19.815604,1.6160636 19.596264,2.8640015 19.384297,3.9186237 C 18.483872,9.2814802 16.389583,14.306968 14.088728,19.233599 C 17.233409,21.286354 21.704721,20.785943 25.190718,20.268255 C 27.004851,19.872154 28.192157,18.755082 29.786396,17.889944 C 30.702459,17.217925 28.397796,14.656372 27.844858,13.802985 L 19.968524,0.55193856 z "
       style="fill:#2f46c0"
       id="path2461" />
    <path
       d="M 33.516231,20.9061 C 32.194246,22.176267 36.942096,24.496257 33.72649,23.545858 C 32.196317,23.73746 33.574464,24.757758 34.348773,25.019229 C 34.406158,25.019229 34.332993,25.122107 34.138555,25.31486 C 33.399875,26.107453 32.586875,26.857115 31.807766,27.623674 L 31.060313,28.414166 C 31.52429,28.946827 31.947064,29.514521 32.458454,30.006397 C 34.085438,28.33134 36.710874,27.328403 37.191652,25.265282 C 37.857967,22.405992 36.312581,20.163252 33.516231,20.9061 z "
       style="fill:#f5c4b2"
       id="path5399" />
    <path
       d="M 27.201711,12.701839 L 29.337292,16.302436 C 29.568427,16.695756 29.997301,17.249579 29.979628,17.692222 L 28.573151,18.638563 L 28.334567,18.808872 L 26.037146,20.058878 L 24.934319,20.393069 L 24.932657,20.393069 C 23.278923,20.391945 21.596955,20.680286 19.927391,20.707981 C 19.292501,20.738909 19.204905,20.631147 20.012475,21.083947 C 20.73515,21.427569 20.9088,21.533459 20.848359,21.59166 C 20.826554,21.612661 20.442098,21.454138 19.994131,21.239796 C 18.191109,20.386493 16.275039,20.26864 14.459973,19.411381 C 13.899713,19.04519 13.259804,18.885698 12.614697,18.894027 C 11.195461,18.912349 9.7520805,19.744864 9.0909909,20.987545 C 9.099898,20.997398 9.3072162,20.921429 9.5514752,20.817235 C 10.297845,20.513795 11.428568,20.042452 12.159218,20.582659 C 12.159218,20.631857 12.043243,20.819446 11.902276,21.000398 C 11.678936,21.287095 11.41496,21.653777 11.286633,21.855158 C 11.264019,21.890656 11.400709,21.862231 11.601962,21.789283 C 13.925059,21.157563 16.367895,21.247632 18.646041,22.022254 C 19.3698,22.237206 19.523147,22.302284 19.458562,22.364479 C 19.437341,22.384916 19.100139,22.306322 18.711108,22.18935 C 16.79484,21.647799 14.838963,21.371292 12.839936,21.671995 C 12.478006,21.737318 12.462011,21.693654 12.389454,21.895326 C 12.088463,22.955322 12.113019,24.042828 12.377781,25.108706 C 12.49799,25.631188 12.708681,26.110428 12.891658,26.612569 L 13.243686,26.426193 C 14.552112,25.468689 15.943505,26.311381 16.794089,27.443229 C 17.441528,28.577911 17.812668,29.702593 17.508177,30.995622 C 21.759738,31.581273 26.194144,32.168793 29.756064,29.474086 C 33.380847,26.439148 33.431041,22.612915 31.407798,18.707651 C 31.103821,18.135521 31.073069,18.046242 30.985688,17.475319 C 30.731116,15.811901 30.222511,14.576616 29.425714,13.685136 C 28.906618,13.104352 28.317067,12.802106 27.573766,12.735579 L 27.201711,12.701839 z M 14.453298,26.281592 C 14.07838,26.280405 13.677865,26.385914 13.258707,26.628637 C 11.710953,27.524915 13.029433,30.186958 14.126286,31.263939 C 14.891817,31.892543 14.8974,31.618826 15.694602,31.762014 C 18.655024,32.372778 17.277701,26.290531 14.453298,26.281592 z M 30.830524,39.016221 L 30.783807,39.210631 C 30.662218,39.731377 30.396007,39.994768 29.766074,40.21642 C 29.201457,40.401615 28.610731,40.34756 28.022573,40.349775 L 28.062617,40.716101 C 28.885673,40.859151 30.23462,40.600804 30.733755,40.100738 C 30.890564,39.943644 30.920634,39.875174 30.938972,39.621945 C 30.951025,39.45563 30.932411,39.257069 30.895591,39.170465 L 30.830524,39.016221 z M 23.344317,39.99309 L 23.217518,40.163399 C 23.074677,40.356253 23.020525,40.645478 23.07403,40.920151 C 23.14643,41.291778 23.845044,41.783384 24.525562,41.942005 C 24.934314,42.037284 25.865824,42.041875 26.315775,41.95004 C 26.966527,41.817217 27.50307,41.506708 27.75062,41.120987 C 27.895394,40.895401 27.902069,40.459064 27.765631,40.21642 L 27.668868,40.044504 L 27.652179,40.198747 C 27.593276,40.723496 27.337655,41.069919 26.849667,41.284868 C 25.92426,41.692501 24.890274,41.680257 23.988327,41.251129 C 23.552539,41.043787 23.407097,40.831401 23.371015,40.352989 L 23.344317,39.99309 z M 31.015718,40.095919 L 30.863896,40.232487 C 30.064481,40.867693 29.099753,40.976896 28.06428,40.905691 L 28.095982,41.638342 L 28.443015,41.668868 C 29.229116,41.733437 29.99046,41.627475 30.636989,41.141875 C 30.93846,40.8512 30.98944,40.490656 31.015718,40.095919 z M 27.909119,41.241489 L 27.735605,41.406978 C 27.538839,41.596086 27.106653,41.873323 26.868026,41.962892 C 26.549282,42.08253 25.916333,42.178188 25.446533,42.17819 C 24.562743,42.17819 23.728687,41.908872 23.282586,41.479279 L 23.050675,41.255949 L 23.050675,41.5564 C 23.050675,41.721869 23.085987,41.939065 23.129088,42.038407 C 23.297915,42.427496 23.780704,42.751568 24.462157,42.931727 C 25.571903,43.225111 26.964597,42.972611 27.578766,42.367779 C 27.827148,42.123183 27.905295,41.915162 27.907453,41.490525 L 27.909119,41.241489 z "
       style="fill:#d9241b;fill-opacity:1;display:inline"
       id="path4259" />
    <path
       d="M 28.274752,18.814686 C 28.248843,18.849436 27.650413,19.166402 27.630737,19.205113 C 27.348756,19.759973 26.911651,20.885711 26.911651,20.885711 L 26.646375,20.663987 L 25.977336,20.064693 L 24.872839,20.40049 C 25.212996,20.52102 25.499495,20.781495 25.71539,21.057627 L 25.813834,21.244004 L 25.32331,21.139568 C 24.691059,21.004839 22.989527,20.983268 22.643831,21.105828 C 22.278366,21.235395 22.280163,21.237246 23.738309,21.67781 L 24.298903,21.846513 C 23.67228,21.933509 23.071844,22.101289 22.563744,22.476336 C 22.152436,22.832449 22.182478,22.861078 23.020885,22.934242 C 23.373873,22.965045 23.420519,22.979837 23.309528,23.022609 C 22.222002,23.43289 21.243927,24.092388 20.38145,24.846204 C 19.988658,25.223009 19.782144,25.53691 19.512198,26.16851 C 19.020646,28.163995 19.913155,30.456844 22.056542,31.080164 C 22.379547,31.16936 22.65356,31.253765 22.66718,31.266541 C 22.670937,31.270061 22.64264,31.272499 22.597114,31.274574 C 23.032411,31.376617 23.493184,31.446731 23.970221,31.481836 C 26.366096,31.658149 28.276584,30.687712 29.694578,29.481507 C 29.411891,29.671161 29.111459,29.84041 28.788622,29.987614 C 29.238841,29.635157 29.877467,29.31706 30.318569,28.904706 C 30.35425,28.869222 30.390456,28.834273 30.425349,28.798664 C 30.427991,28.795857 30.431064,28.793445 30.433689,28.790631 C 30.460114,28.762315 30.486141,28.733141 30.510436,28.703868 C 31.322997,27.819199 31.890502,26.932836 32.307698,25.921259 C 33.192461,23.182402 32.513926,20.348182 28.95714,20.885711 L 28.703535,20.994966 C 28.837445,20.662501 29.005461,20.344874 29.257455,20.080759 C 29.420214,19.934343 29.434085,19.870282 29.30083,19.870282 C 28.647568,19.981804 28.389565,20.724965 27.876,20.99336 C 27.803018,20.925253 27.818114,20.143715 27.901023,19.690334 C 27.990433,19.201431 28.059765,18.994216 28.35984,18.756845 C 28.35984,18.756845 28.330301,18.740178 28.274752,18.814686 z M 29.652866,27.539018 C 29.71402,27.536256 29.717939,27.576567 29.717939,27.72218 C 29.717939,28.243978 29.422938,28.790532 28.938782,29.168202 C 28.500541,29.51006 28.026219,29.654 27.575686,29.584336 C 27.29424,29.540819 26.995074,29.405751 26.995074,29.322444 C 26.995074,29.214273 27.877732,28.418109 28.263076,28.178481 C 28.676733,27.921249 29.329873,27.60888 29.571114,27.553477 C 29.606411,27.545372 29.63249,27.539939 29.652866,27.539018 z "
       style="fill:#ffffff;fill-opacity:1;display:inline"
       id="path4286" />
  </g>
  <path
     id="path2471"
     style="fill:#ee9ea1"
     d="m 28.251223,41.744642 c -0.150923,-10e-7 -0.21696,0.193919 -0.23859,0.530209 -0.035,0.544293 -0.209453,2.63456 -0.240326,2.914465 -0.05094,0.470407 0.992171,0.108579 1.224696,0.03381 0.693006,-0.305531 1.364777,-1.208604 1.364772,-1.834842 l 0,-0.159062 -0.16017,0.109254 c -0.323338,0.221719 -0.806141,0.371345 -1.286357,0.39846 l -0.460486,0.02731 c -0.07601,-0.38928 -0.0684,-0.789515 -0.07674,-1.18413 -0.01271,-0.814959 -0.0156,-0.835481 -0.126799,-0.83548 z m -4.429664,5.247453 c 1.666202,0.650615 2.983492,-0.244692 3.733926,-1.865369 0.131284,-0.37661 0.180943,-0.734934 0.09677,-0.69891 -0.630193,0.31625 -1.282631,0.593952 -1.997107,0.658744 -0.367505,-2e-6 -0.395129,-0.069 -0.437121,-1.055596 -0.02029,-0.476698 -0.04426,-0.873276 -0.05339,-0.882074 -0.59444,0.0168 -1.153166,-0.17457 -1.66169,-0.443605 -0.524779,1.510632 -1.441764,3.599423 0.318611,4.28681 z" />
  <path
     id="path2469"
     style="fill:#ea9869"
     d="m 18.816511,31.222057 c 0.03671,-0.01426 0.09677,-0.01426 0.133479,0 0.0367,0.01426 0.0067,0.02593 -0.06674,0.02593 -0.07341,0 -0.103438,-0.01167 -0.06674,-0.02593 z m 2.34069,-11.724576 c -0.09044,-0.776342 -0.02193,-0.711649 -0.668125,-0.630882 -0.217951,0.02724 -0.404306,0.0418 -0.414118,0.03235 -0.0098,-0.0094 0.162516,-0.140164 0.382936,-0.290481 0.220425,-0.150318 0.400766,-0.284227 0.400766,-0.297578 0,-0.01335 -0.123138,-0.18423 -0.273635,-0.379732 -0.150505,-0.195504 -0.264302,-0.36445 -0.252891,-0.375437 0.0114,-0.01099 0.210251,0.06051 0.441875,0.158877 0.231626,0.09837 0.437404,0.160372 0.457289,0.137784 0.01989,-0.02259 0.118358,-0.226159 0.218832,-0.452382 l 0.182681,-0.411313 0.03536,0.257069 c 0.01945,0.141392 0.03747,0.354037 0.04004,0.472549 0.0026,0.11851 0.02589,0.228099 0.05182,0.243529 0.02592,0.01543 0.245045,0.0042 0.48693,-0.02505 0.241892,-0.02921 0.450028,-0.04326 0.462527,-0.03122 0.0125,0.01204 -0.133356,0.129136 -0.324113,0.260222 -0.190758,0.131087 -0.360892,0.260244 -0.378076,0.287016 -0.01718,0.02677 0.102697,0.223083 0.266397,0.436246 0.163698,0.213165 0.287068,0.38757 0.274153,0.38757 -0.01291,0 -0.228101,-0.09061 -0.478194,-0.201348 l -0.454711,-0.201349 -0.197635,0.445566 c -0.108698,0.24506 -0.203882,0.452408 -0.211516,0.46077 -0.0076,0.0084 -0.0295,-0.118887 -0.04859,-0.282778 z m -4.801434,-0.176548 c -0.01856,-0.06679 -0.03408,-0.210467 -0.03448,-0.319285 l -7.31e-4,-0.197851 -0.333684,0.03309 -0.33368,0.03309 0.12426,-0.103775 c 0.06835,-0.05707 0.183864,-0.145582 0.256703,-0.19668 l 0.132444,-0.09291 -0.192414,-0.242671 c -0.216635,-0.273218 -0.191338,-0.292525 0.166399,-0.12699 0.142286,0.06584 0.25823,0.09353 0.269103,0.06427 0.01051,-0.02828 0.07694,-0.167096 0.147639,-0.308485 l 0.128536,-0.257071 0.005,0.257071 c 0.0073,0.37588 0.04219,0.407012 0.411891,0.368038 l 0.312261,-0.03292 -0.142683,0.10375 c -0.07848,0.05706 -0.197192,0.146257 -0.263818,0.19821 l -0.121134,0.09446 0.195651,0.262259 c 0.185084,0.248089 0.188502,0.259638 0.06324,0.213778 -0.07282,-0.02666 -0.206548,-0.0854 -0.29717,-0.13053 -0.09062,-0.04513 -0.179658,-0.06772 -0.197851,-0.05019 -0.0182,0.01752 -0.08454,0.149068 -0.14742,0.292321 -0.101903,0.232139 -0.118008,0.247257 -0.14809,0.139028 z m 8.650836,-0.422728 c -0.02032,-0.051 -0.03695,-0.185647 -0.03695,-0.299222 l 0,-0.206498 -0.33368,0.03309 -0.333685,0.03309 0.124261,-0.103774 c 0.06835,-0.05707 0.183865,-0.145583 0.256706,-0.196681 l 0.132441,-0.09291 -0.192415,-0.24267 c -0.215584,-0.2719 -0.190514,-0.292694 0.156907,-0.130147 0.132285,0.06189 0.247404,0.102377 0.255829,0.08997 0.0084,-0.0124 0.07956,-0.149801 0.158087,-0.305329 l 0.142781,-0.282778 0.0041,0.257072 c 0.0059,0.373712 0.04233,0.407333 0.397583,0.367124 0.164405,-0.01861 0.298914,-0.02598 0.298914,-0.01639 0,0.0096 -0.108116,0.09221 -0.24025,0.183592 -0.132143,0.09138 -0.240259,0.184525 -0.240259,0.206979 0,0.02246 0.085,0.148028 0.188892,0.279052 0.181735,0.229205 0.18374,0.236343 0.05303,0.188482 -0.07473,-0.02736 -0.206584,-0.08496 -0.293019,-0.128003 -0.08643,-0.04304 -0.170826,-0.07826 -0.187543,-0.07826 -0.01671,0 -0.08537,0.12081 -0.152564,0.268466 -0.09557,0.210004 -0.130229,0.248275 -0.159126,0.175745 z m -3.096594,-2.673536 c -0.02032,-0.05099 -0.03695,-0.186361 -0.03695,-0.300811 l 0,-0.208092 -0.333685,0.03311 -0.333685,0.03311 0.124267,-0.102205 c 0.06835,-0.05622 0.183858,-0.144015 0.2567,-0.195112 l 0.132439,-0.09291 -0.189964,-0.239584 c -0.104482,-0.131774 -0.189966,-0.252294 -0.189966,-0.267819 0,-0.01553 0.131466,0.03386 0.292149,0.109749 0.160682,0.07589 0.299183,0.127697 0.307781,0.115123 0.0086,-0.01257 0.07988,-0.15011 0.158415,-0.305639 l 0.142781,-0.282776 0.0041,0.25707 c 0.0059,0.375193 0.04114,0.406816 0.410928,0.369144 0.306964,-0.03128 0.310026,-0.03032 0.180533,0.05659 -0.07245,0.04862 -0.19118,0.137305 -0.263846,0.197067 l -0.132119,0.10866 0.195682,0.262295 c 0.185099,0.248118 0.188523,0.259677 0.06327,0.213818 -0.07283,-0.02666 -0.203124,-0.0837 -0.289558,-0.12674 -0.08644,-0.04304 -0.170833,-0.07826 -0.187546,-0.07826 -0.01671,0 -0.08537,0.12081 -0.152569,0.268467 -0.09558,0.210003 -0.130224,0.248274 -0.159126,0.175742 z m 3.625525,-0.220329 c -0.07609,-0.652396 -0.08662,-0.686724 -0.210194,-0.684921 -0.06349,9.22e-4 -0.283236,0.02249 -0.488331,0.04792 -0.205098,0.02544 -0.379528,0.03986 -0.387632,0.03206 -0.0081,-0.0078 0.165712,-0.138452 0.386248,-0.290338 0.220536,-0.151882 0.400975,-0.285303 0.400975,-0.296485 0,-0.01118 -0.12197,-0.181813 -0.271038,-0.379187 -0.149069,-0.197369 -0.260871,-0.368641 -0.248452,-0.380607 0.01242,-0.01196 0.210181,0.06058 0.439466,0.161201 0.229288,0.100621 0.43307,0.164547 0.45285,0.14206 0.01978,-0.02249 0.118168,-0.22598 0.218639,-0.4522 l 0.18268,-0.411312 0.03537,0.257069 c 0.01945,0.14139 0.03747,0.354034 0.04004,0.472548 0.0026,0.118509 0.02365,0.226772 0.04685,0.240573 0.0232,0.01381 0.230312,0.0026 0.460262,-0.02488 0.229953,-0.02749 0.442941,-0.04201 0.473301,-0.03226 0.03037,0.0097 -0.103483,0.12677 -0.29744,0.260057 -0.193958,0.133282 -0.367272,0.265112 -0.385139,0.292952 -0.02732,0.04257 0.08196,0.200671 0.524732,0.759243 0.0614,0.07747 -0.01291,0.05286 -0.558611,-0.184914 l -0.354694,-0.154557 -0.212393,0.463491 -0.212389,0.463495 -0.0351,-0.301005 z m -6.837696,-2.520618 c -0.05667,-0.574351 -0.07613,-0.634065 -0.205906,-0.632183 -0.06373,9.26e-4 -0.283685,0.02249 -0.488781,0.04793 -0.205096,0.02543 -0.379527,0.03986 -0.387629,0.03206 -0.0081,-0.0078 0.165711,-0.138452 0.386246,-0.290338 0.220538,-0.151885 0.400975,-0.286646 0.400975,-0.299473 0,-0.01282 -0.1216,-0.183812 -0.270219,-0.379974 -0.148623,-0.196157 -0.26043,-0.366087 -0.248455,-0.37762 0.01197,-0.01153 0.209367,0.06136 0.438651,0.161984 0.229286,0.100627 0.43307,0.164551 0.452851,0.142064 0.01978,-0.02249 0.118135,-0.225979 0.218569,-0.452199 l 0.182603,-0.411312 0.03616,0.231363 c 0.01988,0.127246 0.0383,0.323907 0.04094,0.437019 0.0075,0.322459 0.02844,0.33397 0.504355,0.277067 0.230621,-0.02757 0.444157,-0.04215 0.47452,-0.03241 0.03036,0.0097 -0.103486,0.126774 -0.297439,0.260061 -0.193962,0.133282 -0.365746,0.262728 -0.381738,0.287656 -0.0236,0.03677 0.237283,0.42072 0.519472,0.764539 0.06373,0.07764 -0.01178,0.05255 -0.557924,-0.185426 l -0.355869,-0.15506 -0.197735,0.445775 c -0.108753,0.245177 -0.204764,0.453379 -0.213368,0.462673 -0.0086,0.0093 -0.03123,-0.141093 -0.05028,-0.334194 z m 5.027411,-3.12026 c -0.02032,-0.051 -0.03695,-0.186069 -0.03695,-0.30016 l 0,-0.2074409 -0.360378,0.035013 -0.360378,0.035013 0.266945,-0.1872969 C 23.381314,9.6355763 23.49397,9.5257307 23.484835,9.4944877 23.4757,9.4632494 23.397618,9.3518384 23.31132,9.2469044 23.10624,8.9975535 23.113322,8.971747 23.354618,9.0889878 c 0.393205,0.1910452 0.406249,0.1885426 0.522191,-0.1000666 0.139014,-0.34605 0.18505,-0.361496 0.186041,-0.062425 0.0012,0.364714 0.0372,0.3958303 0.407015,0.3518571 l 0.312924,-0.037204 -0.253598,0.1871655 c -0.139478,0.1029398 -0.253602,0.2006928 -0.253602,0.2172288 0,0.016535 0.08371,0.1422726 0.186025,0.2794176 l 0.186024,0.2493498 -0.299446,-0.127528 c -0.164696,-0.070143 -0.308937,-0.1275298 -0.32054,-0.1275298 -0.0116,0 -0.07607,0.1208088 -0.143271,0.2684658 -0.09557,0.210004 -0.130229,0.248275 -0.159132,0.175743 z M 20.62018,6.082981 C 20.55889,5.4625394 20.55197,5.4456586 20.360569,5.4505655 c -0.0931,0.00239 -0.313429,0.022264 -0.489616,0.044179 -0.176182,0.02191 -0.327444,0.034317 -0.33614,0.027569 -0.01243,-0.00965 0.472395,-0.3606083 0.755367,-0.54679 0.02828,-0.018604 -0.06606,-0.1899254 -0.210712,-0.3826847 -0.144048,-0.191951 -0.2807,-0.3785215 -0.303673,-0.4146013 -0.02298,-0.036085 0.16561,0.026227 0.419085,0.1384641 0.253471,0.1122372 0.467367,0.204069 0.47533,0.204069 0.008,0 0.107679,-0.2015633 0.221593,-0.4479221 L 21.098918,3.6249322 21.135,3.8543394 c 0.01984,0.1261794 0.03823,0.3219567 0.04086,0.4350691 0.0073,0.3132754 0.02985,0.3261457 0.479967,0.2736661 0.218213,-0.02544 0.432101,-0.039579 0.475312,-0.031423 0.06383,0.012044 -0.200494,0.2196031 -0.653902,0.513478 -0.03557,0.023056 -0.01691,0.087506 0.05211,0.1799497 0.05914,0.079215 0.198784,0.2655232 0.310311,0.4140244 l 0.202779,0.269993 -0.258205,-0.1084109 C 21.642219,5.7410643 21.425894,5.6501211 21.303511,5.5985985 L 21.080992,5.5049174 20.868068,5.9709359 20.655144,6.4369591 20.62018,6.082981 z" />
  <path
     id="path2465"
     style="fill:#e4595f"
     d="m 29.720564,26.679851 c -1.177314,0.79163 -2.50812,1.231644 -3.897432,1.542423 0.36197,0.668515 1.049762,1.237817 1.76853,1.505469 1.189832,0.216564 2.406357,-0.791105 2.40753,-1.993903 3.62e-4,-0.368824 -0.180657,-1.05399 -0.278628,-1.053989 z m 0.04338,0.779245 c 0.260761,0.235122 -0.120512,0.932518 -0.265278,1.174491 -0.515273,0.662367 -1.645561,1.286015 -2.394188,0.608936 0,-0.108172 0.884326,-0.904335 1.269668,-1.143963 0.442982,-0.223883 0.883219,-0.559787 1.389798,-0.639464 z" />
  <path
     id="path2463"
     style="fill:#1194d7"
     d="m 25.432853,44.893698 c -0.01298,-0.02121 -0.04085,-0.423168 -0.06192,-0.893244 l -0.03832,-0.854683 0.525938,-0.03528 c 0.80762,-0.05417 1.381308,-0.252512 1.767235,-0.610997 0.265847,-0.246941 0.249829,-0.327845 0.165525,0.835903 -0.07012,0.968058 -0.03017,0.894855 -0.657217,1.204415 -0.572288,0.282534 -1.612454,0.498902 -1.701235,0.353881 z m 3.215384,-1.279728 c -0.07239,-0.01953 -0.09009,-0.157171 -0.116374,-0.905545 -0.01705,-0.485386 -0.01926,-0.900816 -0.0049,-0.923178 0.01435,-0.02237 0.234899,0.03925 0.490101,0.03894 0.478823,-5.74e-4 0.788505,-0.146436 1.187614,-0.332133 0.126922,-0.05905 0.253011,-0.107367 0.280193,-0.107367 0.0041,0.554106 -0.01691,1.163757 -0.104501,1.621187 -0.09806,0.353191 -1.286311,0.641556 -1.732126,0.608098 z m 6.558852,-19.508542 c -0.08723,-0.04893 -0.09344,-0.244372 -0.09344,-2.944661 l 0,-2.892258 0.187575,-0.175072 0.187566,-0.175074 0.107791,0.103799 c 0.105678,0.101768 0.107735,0.16148 0.105227,3.052741 -0.0018,2.076499 -0.02004,2.969226 -0.06164,3.0175 -0.06948,0.08062 -0.300192,0.08756 -0.43308,0.01302 z" />
  <path
     id="path2459"
     style="fill:#1533de"
     d="m 29.868869,23.962625 c -0.0403,0.670454 0.204198,1.279062 0.574124,1.615036 0.113487,0.103076 0.220355,0.158255 0.278628,0.142996 0.05203,-0.01363 0.369722,-0.155894 0.707411,-0.316517 0.725204,-0.344951 0.773164,-0.406447 0.772477,-0.986509 -3.34e-4,-0.283477 -0.02994,-0.447722 -0.113455,-0.623396 -0.183572,-0.386134 -0.601613,-0.970291 -0.737438,-1.029889 -0.819852,-0.241436 -1.333057,0.557088 -1.481747,1.198279 z m 1.289875,-1.050463 0.130142,0.03053 -0.138484,0.107648 c -0.520482,0.532266 -0.348839,1.406159 0.111785,1.915176 l 0.231911,0.216903 -0.377061,0.183163 c -0.208011,0.100875 -0.401703,0.183161 -0.430456,0.183163 -0.922707,-0.751442 -0.998012,-2.344307 0.472163,-2.636579 z m 0.350368,0.266711 c 0.166353,0.03709 0.30795,0.160414 0.106365,0.267736 -0.614836,0.290804 -0.432933,0.859073 -0.160564,1.190022 0.272372,0.33095 0.603445,0.503322 0.07946,0.270076 -0.524399,-0.233426 -0.737233,-1.065738 -0.36729,-1.530212 0.107257,-0.125302 0.231415,-0.194556 0.342026,-0.197622 z m 0.238584,0.724616 c 0.124961,0 0.189685,0.106254 0.233578,0.380786 0.03333,0.208423 -0.02853,0.393049 -0.126799,0.363112 -0.15195,-0.04302 -0.229139,-0.139359 -0.281963,-0.279564 -0.06776,-0.244463 0.01493,-0.464334 0.175184,-0.464334 z m -8.794246,2.697635 c -0.24261,0.0011 -0.516226,0.07627 -0.722432,0.220117 -0.616337,0.499345 -0.556671,1.477575 -0.236913,2.133685 0.110653,0.215552 0.276154,0.45173 0.36705,0.525388 0.356644,0.223601 1.060321,-0.274287 1.464879,-0.430594 0.167963,-0.07346 0.239044,-0.144951 0.306988,-0.308484 0.101297,-0.243801 0.114264,-0.65628 0.03003,-0.955982 -0.221096,-0.572388 -0.539833,-1.105854 -1.209607,-1.18413 z m 0.226906,0.176735 -0.140151,0.118896 c -0.500559,0.421374 -0.433816,1.474682 0.123461,1.950521 l 0.220233,0.187984 c -0.269732,0.126162 -0.531107,0.272936 -0.814188,0.369538 -0.09615,0 -0.273577,-0.22728 -0.443803,-0.565555 -0.272981,-0.571472 -0.328447,-1.449732 0.206886,-1.883042 0.150692,-0.110683 0.262943,-0.1463 0.520547,-0.160668 l 0.327015,-0.01767 z m 0.413946,0.289169 c 0.120794,0.116323 0.178651,0.194409 -0.01525,0.19441 -0.567381,0.247208 -0.379102,1.176896 0.108502,1.433204 0.102777,0.04818 0.210892,0.100273 0.240258,0.114074 0.01608,0.09725 -0.11889,0.158367 -0.210226,0.183163 -0.652887,-0.158556 -0.842554,-0.977255 -0.727434,-1.526356 0.08351,-0.273688 0.32749,-0.416803 0.604152,-0.398495 z m 0.288458,0.692519 c 0.156314,0 0.231911,0.162033 0.231911,0.491647 0,0.218474 -0.0052,0.228149 -0.156833,0.228151 -0.186168,0 -0.270286,-0.115781 -0.270286,-0.377573 0,-0.258023 0.04883,-0.342226 0.195208,-0.342225 z m 3.902437,3.880159 c -0.02055,0.01026 -0.107312,0.177187 -0.200207,0.388818 -0.0991,0.225741 -0.185655,0.409705 -0.193543,0.409707 -0.0079,0 -0.202073,-0.07975 -0.43045,-0.176737 -0.228376,-0.09699 -0.42419,-0.166701 -0.435461,-0.155848 -0.01127,0.01085 0.05054,0.107951 0.136816,0.215297 0.08627,0.107345 0.209667,0.270239 0.275285,0.361505 l 0.12013,0.165489 -0.377066,0.263497 c -0.207079,0.1455 -0.377058,0.275764 -0.377058,0.289205 0,0.02504 0.555825,-0.02101 0.809178,-0.06748 0.137917,-0.0253 0.142582,-0.0194 0.176858,0.297238 0.0193,0.178332 0.04746,0.390975 0.0634,0.47076 0.01593,0.07979 0.03618,0.137629 0.04504,0.128535 0.0089,-0.0091 0.09502,-0.19698 0.190204,-0.416132 0.09518,-0.219153 0.190263,-0.39846 0.211887,-0.398459 0.02163,0 0.223282,0.08098 0.448807,0.179949 0.225523,0.09897 0.420522,0.179949 0.433793,0.179949 0.01326,0 -0.109941,-0.175109 -0.275292,-0.390426 -0.165356,-0.215318 -0.279422,-0.406193 -0.251937,-0.424166 0.413111,-0.270139 0.712222,-0.495458 0.674045,-0.507713 -0.02639,-0.0085 -0.238636,0.0041 -0.472161,0.02892 -0.233527,0.02486 -0.430603,0.04173 -0.437131,0.03695 -0.0065,-0.0048 -0.03293,-0.200314 -0.06006,-0.433806 -0.02712,-0.233493 -0.0594,-0.43317 -0.07174,-0.445053 -7.69e-4,-7.43e-4 -0.002,-6.85e-4 -0.0033,0 z" />
  <path
     id="path2455"
     style="fill:#00913e"
     d="m 24.702707,36.42818 c -0.694671,-0.17164 -0.664495,-0.151857 -0.852787,-0.559149 -0.519847,-1.399369 -1.049081,-1.586057 -2.360416,-1.993857 -0.423066,-0.577741 -0.648635,-1.155952 -0.947797,-1.803756 -0.0059,-0.0574 0.757254,-0.216227 1.091104,-0.227086 0.176182,-0.0057 0.336953,-0.01317 0.357256,-0.01654 l 0.524159,-0.615901 c 3.411831,0.226533 5.490802,-0.547097 8.223431,-2.456545 l 0.348962,-0.328149 1.408379,1.577285 -2.052919,1.33241 0.243994,2.875531 -0.724581,0.581248 c -0.880825,0.706591 -0.970229,0.758003 -1.436267,0.825955 -0.434482,0.06335 -0.87651,0.258602 -1.115373,0.492684 -0.201935,0.197893 -0.533789,0.308447 -1.153994,0.384442 -0.635057,0.07782 -1.031541,0.06031 -1.553151,-0.06857 z m 2.752857,-2.251481 c 0.02046,-0.06206 0.10492,-0.258212 0.187703,-0.435888 l 0.15051,-0.323049 0.464339,0.205613 c 0.25539,0.113085 0.47059,0.199337 0.478225,0.19167 0.0076,-0.0077 -0.11599,-0.184404 -0.274721,-0.392748 -0.158727,-0.208344 -0.288597,-0.39562 -0.288597,-0.416168 0,-0.02055 0.180343,-0.160346 0.400767,-0.310664 0.220421,-0.150318 0.394234,-0.279596 0.386249,-0.287288 -0.008,-0.0077 -0.182324,0.0068 -0.387421,0.03226 -0.705075,0.08744 -0.65294,0.118375 -0.696116,-0.41312 -0.02067,-0.254499 -0.05393,-0.462726 -0.0739,-0.462726 -0.01997,0 -0.117556,0.185091 -0.216865,0.411312 -0.0993,0.226223 -0.205993,0.410617 -0.237098,0.409767 -0.0311,-8.51e-4 -0.236734,-0.0792 -0.45696,-0.174117 -0.220234,-0.09491 -0.409439,-0.164581 -0.420464,-0.15482 -0.01102,0.0098 0.103098,0.177703 0.253603,0.373206 0.1505,0.195503 0.273244,0.375767 0.272766,0.400585 -4.78e-4,0.02482 -0.18163,0.169523 -0.402558,0.321562 -0.220925,0.152038 -0.393818,0.284011 -0.384204,0.293271 0.0096,0.0093 0.172745,-0.0048 0.362517,-0.03119 0.189768,-0.02641 0.420564,-0.04848 0.512878,-0.04905 l 0.167852,-10e-4 0.03803,0.462727 c 0.03752,0.456475 0.09077,0.57046 0.16347,0.349887 z" />
  <path
     id="path2453"
     style="fill:#29186e"
     d="m 27.247604,26.286076 c -0.0798,-0.07685 -0.02685,-0.26869 0.11123,-0.403015 0.172298,-0.167616 0.837406,-0.488161 1.012894,-0.488161 0.190559,0.02094 0.192246,0.270118 0.03305,0.339254 -0.236594,0.05471 -0.450451,0.16916 -0.721845,0.386307 -0.24087,0.192723 -0.360085,0.238077 -0.435334,0.165615 z m 8.915919,-7.708236 c -0.347543,-0.350893 -0.650268,-0.637987 -0.672727,-0.637987 -0.02245,0 -0.349288,0.283421 -0.726307,0.629824 -0.377019,0.346402 -0.671128,0.592975 -0.653571,0.547939 0.06903,-0.17705 0.468844,-1.588138 0.468844,-1.654719 0,-0.04765 -0.274866,-0.143852 -0.840882,-0.294308 -0.462492,-0.122939 -0.870596,-0.23759 -0.906907,-0.254782 -0.03632,-0.01719 0.354095,-0.131331 0.867578,-0.253645 0.513479,-0.122313 0.933004,-0.225681 0.932276,-0.229705 -7.29e-4,-0.004 -0.107445,-0.411566 -0.237148,-0.905649 l -0.23582,-0.898323 0.673357,0.654107 c 0.370347,0.35976 0.687659,0.654112 0.705142,0.654112 0.01748,0 0.318517,-0.276854 0.668979,-0.615229 0.350456,-0.338373 0.643837,-0.60883 0.65195,-0.601019 0.0081,0.0078 -0.102272,0.400497 -0.245304,0.872631 -0.143027,0.472132 -0.244579,0.866104 -0.22567,0.87549 0.01891,0.0094 0.40678,0.116959 0.861921,0.23905 0.45515,0.12209 0.845438,0.236769 0.867319,0.254843 0.02188,0.01807 -0.347435,0.124037 -0.820701,0.235475 -0.473258,0.111436 -0.870547,0.22789 -0.88286,0.258786 -0.01231,0.0309 0.07258,0.436106 0.188648,0.90047 0.116063,0.464365 0.207147,0.847971 0.20241,0.852462 -0.0047,0.0045 -0.292981,-0.278931 -0.640527,-0.629823 z" />
  <path
     id="path5376"
     style="fill:#f5c4b2"
     d="m 12.560232,30.912185 c -0.2692,0.01518 -0.395848,0.174612 -0.563925,0.350258 -0.03411,0.149625 -0.08968,0.279933 -0.105113,0.437019 -0.05995,0.221819 -0.09418,1.516718 -0.04004,1.516718 0.04882,0.139171 0.138325,0.309318 0.308661,0.385605 l 1.748134,1.068717 c 0.508599,0.501785 0.627098,0.62673 0.97473,0.909119 0.392524,0.195154 0.74522,0.251269 1.106164,-0.01446 l 5.489103,-1.648465 c 0.175993,-0.10109 -0.591537,-1.31387 -0.739107,-1.584197 -0.138366,-0.25406 -0.179396,-0.251149 -0.311998,-0.247519 -1.402238,0.502457 -2.897377,0.768401 -4.282839,1.336856 -0.05295,0 -0.07484,-0.08504 -0.08008,-0.308485 0.08142,-0.394605 0.09766,-0.775453 -0.0067,-1.169671 -0.04114,-0.248294 -0.372325,-0.327349 -0.607307,-0.300451 -0.1965,0.007 -0.242848,0.06234 -0.352039,0.197623 -0.265654,0.489471 -0.373688,1.273929 -0.207433,1.808064 0.004,0.06788 -0.08572,0.131781 -0.05803,0.189857 -0.617201,-0.409789 -0.135793,-1.402281 -0.271365,-1.782007 -0.626867,-0.566472 -1.148483,-0.832265 -2.00084,-1.144581 z" />
  <path
     id="path4360"
     style="fill:#fce800"
     d="m 23.494378,40.67793 c 0.0053,-1.243085 0.145027,-2.496459 0.32504,-3.729086 0.07335,-0.174864 -0.01934,-0.531889 0.227631,-0.544332 0.08699,0.201467 0.998706,0.286867 2.130687,0.299683 0.763679,-0.300405 2.988979,-0.37668 4.398053,-2.372899 0.107036,-0.03955 0.152085,0.250058 0.113226,0.727976 -0.01763,0.216748 -0.04149,1.226988 -0.05304,2.244987 -0.01377,1.214109 -0.04266,1.921664 -0.08399,2.056564 -0.138722,0.452758 -0.757639,0.773927 -1.601126,0.830873 -0.630677,0.04258 -1.026361,-0.04219 -1.195859,-0.256192 l -0.12946,-0.163449 c -0.0068,-0.601037 0.130129,-1.211132 0.07728,-1.811911 -0.298476,0.747531 -0.157994,1.717514 -0.304591,2.546109 -0.686713,1.203075 -3.506464,1.131634 -3.903847,0.171677 z m 4.118791,-4.472942 c 0.471,-0.434605 1.355175,-0.34637 1.503288,0.02878 0.135788,0.34394 -0.452358,0.783401 -1.096543,0.819335 -0.514773,0.0595 -0.805091,-0.400445 -0.406745,-0.848113 z m 0.431814,-18.283894 -0.343999,-0.334243 -0.340795,0.321389 c -0.210485,0.198503 -0.329813,0.282071 -0.31208,0.218561 0.01579,-0.05655 0.06971,-0.248061 0.119841,-0.425567 0.05012,-0.177507 0.07879,-0.334625 0.0637,-0.349153 -0.01508,-0.01453 -0.227006,-0.07869 -0.470933,-0.142592 l -0.443498,-0.116178 0.463483,-0.11791 c 0.254921,-0.06485 0.463489,-0.144732 0.463489,-0.177509 0,-0.03278 -0.04762,-0.219966 -0.105829,-0.415966 -0.0582,-0.196 -0.09887,-0.363062 -0.09038,-0.371244 0.0085,-0.0082 0.157527,0.123385 0.331176,0.292374 l 0.315733,0.307254 0.335237,-0.319966 c 0.184384,-0.17598 0.335238,-0.30299 0.335238,-0.282238 0,0.02075 -0.04805,0.204708 -0.106781,0.408794 -0.05873,0.204086 -0.106774,0.385596 -0.106774,0.403353 0,0.01776 0.208947,0.08636 0.464322,0.15245 l 0.464328,0.120167 -0.444343,0.1164 c -0.244388,0.06402 -0.452779,0.124524 -0.463093,0.134455 -0.01031,0.0099 0.037,0.219107 0.105141,0.464834 0.06814,0.245727 0.120948,0.446777 0.11735,0.446777 -0.0036,0 -0.161336,-0.15041 -0.350538,-0.334242 z m -9.61011,-0.925453 -0.343997,-0.334246 -0.342647,0.321393 c -0.188454,0.176762 -0.330968,0.286682 -0.316694,0.244264 0.09838,-0.29238 0.21401,-0.777308 0.190694,-0.799762 -0.01546,-0.01489 -0.227693,-0.07936 -0.471613,-0.143256 L 16.707111,16.167855 17.1706,16.049946 c 0.254916,-0.06485 0.463197,-0.144657 0.462852,-0.177344 -6.13e-4,-0.05698 -0.09881,-0.432094 -0.183801,-0.702113 -0.03213,-0.102056 0.02426,-0.06764 0.273748,0.167096 0.172808,0.162596 0.336834,0.295634 0.364495,0.295634 0.02766,0 0.189135,-0.13231 0.358831,-0.294024 0.169697,-0.161713 0.30854,-0.271537 0.30854,-0.244054 0,0.02748 -0.04805,0.211775 -0.106778,0.409541 -0.05873,0.197763 -0.106782,0.37371 -0.106782,0.39099 0,0.01728 0.208946,0.08549 0.464323,0.15158 l 0.464329,0.120162 -0.444344,0.1164 c -0.244388,0.06402 -0.452937,0.12468 -0.463443,0.1348 -0.01051,0.01012 0.03829,0.219293 0.108437,0.464833 0.07015,0.245537 0.123117,0.446435 0.117706,0.446435 -0.0054,0 -0.16464,-0.150408 -0.35384,-0.334241 z m 5.338949,-3.804644 -0.343999,-0.334242 -0.34079,0.321388 c -0.210492,0.198502 -0.32982,0.282073 -0.312086,0.218558 0.01579,-0.05655 0.06972,-0.24806 0.11984,-0.425565 0.05012,-0.177505 0.07796,-0.335426 0.06186,-0.350929 -0.01611,-0.01551 -0.226953,-0.08015 -0.468553,-0.143648 l -0.439276,-0.115452 0.461104,-0.11933 c 0.253608,-0.06564 0.460821,-0.144967 0.460478,-0.176294 -6.12e-4,-0.05493 -0.100248,-0.434198 -0.1838,-0.699639 -0.03213,-0.102056 0.02426,-0.06764 0.273745,0.167098 0.17281,0.162596 0.338353,0.295633 0.367868,0.295633 0.02951,0 0.183579,-0.126678 0.342354,-0.281508 0.158782,-0.154829 0.297042,-0.273465 0.307246,-0.263638 0.01021,0.0098 -0.03043,0.188097 -0.0903,0.396155 -0.05987,0.208056 -0.108858,0.392599 -0.108858,0.410092 0,0.01749 0.209683,0.08515 0.465957,0.150346 l 0.465948,0.118536 -0.44412,0.116729 c -0.244266,0.0642 -0.453551,0.125803 -0.465076,0.136903 -0.01152,0.0111 0.03645,0.221071 0.106593,0.466614 0.07015,0.245541 0.123118,0.446435 0.117706,0.446435 -0.0054,0 -0.16464,-0.150409 -0.35384,-0.334242 z M 20.997567,9.7976651 20.65357,9.4634241 20.312781,9.7848121 c -0.210495,0.198501 -0.32982,0.2820719 -0.312088,0.2185619 0.0158,-0.056556 0.06972,-0.2480597 0.119839,-0.4255689 0.05012,-0.1775053 0.0759,-0.3374082 0.05728,-0.3553435 -0.01862,-0.01793 -0.231917,-0.083076 -0.474001,-0.1447661 L 19.263663,8.9655369 19.730221,8.8468442 c 0.256606,-0.065281 0.466556,-0.1445735 0.466556,-0.176206 0,-0.031633 -0.04899,-0.227742 -0.108857,-0.4357993 C 20.02805,8.0267776 19.98939,7.8466131 20.002,7.8344684 c 0.01261,-0.012149 0.151031,0.1180586 0.307593,0.2893451 0.156566,0.1712859 0.310173,0.3114293 0.341353,0.3114293 0.03117,0 0.186592,-0.1266775 0.345373,-0.2815076 0.158777,-0.1548245 0.297037,-0.2734646 0.307239,-0.2636376 0.01021,0.00983 -0.03043,0.1880972 -0.0903,0.3961545 -0.05987,0.2080573 -0.108855,0.3936142 -0.108855,0.4123404 0,0.018731 0.17418,0.074351 0.387075,0.1235948 0.21289,0.049248 0.417933,0.1051616 0.455649,0.124256 0.03772,0.019094 -0.106435,0.074552 -0.320339,0.123236 -0.2139,0.048689 -0.418079,0.1060146 -0.45373,0.1273952 -0.04928,0.029551 -0.03413,0.1462921 0.06317,0.486853 0.07039,0.2463906 0.122896,0.4479795 0.116665,0.4479795 -0.0062,0 -0.166118,-0.1504079 -0.35532,-0.3342419 z" />
  <g
     id="layer2">
    <path
       d="M 30.554411,34.417691 C 30.553268,34.416851 30.5516,34.418605 30.551075,34.422511 C 30.552854,34.422905 30.554306,34.423728 30.556078,34.424119 C 30.555093,34.421658 30.555157,34.418237 30.554411,34.417691 z M 30.556078,34.424119 L 30.581103,34.428938 C 30.572592,34.427112 30.564712,34.426015 30.556078,34.424119 z M 30.551075,34.422511 C 30.367963,34.590594 29.732761,35.161106 29.23135,35.455614 C 28.644529,35.800291 28.59829,35.65267 28.265332,35.760885 C 27.932382,35.869097 27.649689,36.06455 27.649689,36.06455 C 27.649689,36.064547 27.521273,36.221529 27.167517,36.369821 C 26.190677,36.803349 25.118424,36.749364 24.10763,36.403561 C 24.152219,36.659878 24.055967,37.224419 24.070924,37.49611 C 24.088632,37.513164 24.31258,37.548518 24.599813,37.574839 C 25.270653,37.636312 26.351583,37.545487 26.948953,37.378823 C 27.317123,37.276101 27.429992,37.265181 27.656363,37.306521 C 27.928225,37.35617 28.282068,37.318226 28.585673,37.206906 C 29.004101,37.053481 29.473272,36.569682 29.473272,36.292699 C 29.473272,36.222586 29.640984,36.056439 29.975468,35.791412 C 30.534259,35.348657 30.539974,35.336294 30.54106,34.652268 C 30.541227,34.556129 30.545072,34.480688 30.551075,34.422511 z M 28.622381,35.92316 C 28.879886,35.919722 29.093143,35.995218 29.157943,36.159344 C 29.29373,36.503284 28.704305,36.942824 28.060121,36.978757 C 27.545354,37.038258 27.222984,36.754826 27.621323,36.30716 C 27.886267,36.062694 28.291302,35.92758 28.622381,35.92316 z "
       style="fill:#ffffff"
       id="path2467" />
  </g>
</svg>
