<?xml version="1.0" encoding="UTF-8" standalone="no"?>
<!-- Created with Inkscape (http://www.inkscape.org/) -->

<svg
   xmlns:dc="http://purl.org/dc/elements/1.1/"
   xmlns:cc="http://creativecommons.org/ns#"
   xmlns:rdf="http://www.w3.org/1999/02/22-rdf-syntax-ns#"
   xmlns:svg="http://www.w3.org/2000/svg"
   xmlns="http://www.w3.org/2000/svg"
   xmlns:xlink="http://www.w3.org/1999/xlink"
   xmlns:sodipodi="http://sodipodi.sourceforge.net/DTD/sodipodi-0.dtd"
   xmlns:inkscape="http://www.inkscape.org/namespaces/inkscape"
   width="48"
   height="48"
   id="svg7980"
   version="1.1"
   inkscape:version="0.48.1 r9760"
   sodipodi:docname="Nuevo documento 35">
  <defs
     id="defs7982">
    <radialGradient
       r="7.4246206"
       fy="50.677525"
       fx="170.58949"
       cy="50.677525"
       cx="170.58949"
       gradientTransform="matrix(1,0,0,0.33333333,0,33.785016)"
       gradientUnits="userSpaceOnUse"
       id="radialGradient7042"
       xlink:href="#linearGradient6945-7"
       inkscape:collect="always" />
    <linearGradient
       inkscape:collect="always"
       id="linearGradient6945-7">
      <stop
         style="stop-color:#000000;stop-opacity:1;"
         offset="0"
         id="stop6947-5" />
      <stop
         style="stop-color:#000000;stop-opacity:0;"
         offset="1"
         id="stop6949-9" />
    </linearGradient>
    <linearGradient
       inkscape:collect="always"
       xlink:href="#linearGradient6977"
       id="linearGradient6983"
       x1="156.71875"
       y1="-10.294855"
       x2="156.71875"
       y2="51.989662"
       gradientUnits="userSpaceOnUse" />
    <linearGradient
       inkscape:collect="always"
       id="linearGradient6977">
      <stop
         style="stop-color:#ffffff;stop-opacity:1;"
         offset="0"
         id="stop6979" />
      <stop
         style="stop-color:#ffffff;stop-opacity:0;"
         offset="1"
         id="stop6981" />
    </linearGradient>
    <linearGradient
       inkscape:collect="always"
       xlink:href="#linearGradient7343"
       id="linearGradient6991"
       x1="157.5466"
       y1="42.738346"
       x2="157.5466"
       y2="8.2586107"
       gradientUnits="userSpaceOnUse"
       gradientTransform="matrix(1.0343082,0,0,1.0342129,79.140373,294.08359)" />
    <linearGradient
       id="linearGradient7343">
      <stop
         id="stop7345"
         offset="0"
         style="stop-color:#388ccc;stop-opacity:1;" />
      <stop
         id="stop7347"
         offset="1"
         style="stop-color:#78b1dc;stop-opacity:1;" />
    </linearGradient>
    <radialGradient
       inkscape:collect="always"
       xlink:href="#linearGradient6945"
       id="radialGradient6951"
       cx="170.58949"
       cy="50.677525"
       fx="170.58949"
       fy="50.677525"
       r="7.4246206"
       gradientTransform="matrix(1,0,0,0.33333333,0,33.785016)"
       gradientUnits="userSpaceOnUse" />
    <linearGradient
       inkscape:collect="always"
       id="linearGradient6945">
      <stop
         style="stop-color:#000000;stop-opacity:1;"
         offset="0"
         id="stop6947" />
      <stop
         style="stop-color:#000000;stop-opacity:0;"
         offset="1"
         id="stop6949" />
    </linearGradient>
  </defs>
  <sodipodi:namedview
     id="base"
     pagecolor="#ffffff"
     bordercolor="#666666"
     borderopacity="1.0"
     inkscape:pageopacity="0.0"
     inkscape:pageshadow="2"
     inkscape:zoom="2.8"
     inkscape:cx="131.14285"
     inkscape:cy="-41.714299"
     inkscape:document-units="px"
     inkscape:current-layer="layer1"
     showgrid="false"
     fit-margin-top="0"
     fit-margin-left="0"
     fit-margin-right="0"
     fit-margin-bottom="0" />
  <metadata
     id="metadata7985">
    <rdf:RDF>
      <cc:Work
         rdf:about="">
        <dc:format>image/svg+xml</dc:format>
        <dc:type
           rdf:resource="http://purl.org/dc/dcmitype/StillImage" />
        <dc:title></dc:title>
      </cc:Work>
    </rdf:RDF>
  </metadata>
  <g
     inkscape:label="Capa 1"
     inkscape:groupmode="layer"
     id="layer1"
     transform="translate(-218.85715,-299.79074)">
    <path
       sodipodi:type="arc"
       style="opacity:0.3;color:#000000;fill:url(#radialGradient6951);fill-opacity:1;fill-rule:nonzero;stroke:none;stroke-width:1;marker:none;visibility:visible;display:inline;overflow:visible;enable-background:accumulate"
       id="path6943"
       sodipodi:cx="170.58949"
       sodipodi:cy="50.677525"
       sodipodi:rx="7.4246206"
       sodipodi:ry="2.4748735"
       d="m 178.01411,50.677525 c 0,1.366834 -3.32411,2.474873 -7.42462,2.474873 -4.1005,0 -7.42462,-1.108039 -7.42462,-2.474873 0,-1.366835 3.32412,-2.474874 7.42462,-2.474874 4.10051,0 7.42462,1.108039 7.42462,2.474874 z"
       transform="matrix(1.0694919,0,0,1.2135605,73.472493,282.29393)" />
    <path
       style="opacity:0.98999999;color:#000000;fill:url(#linearGradient6991);fill-opacity:1;fill-rule:nonzero;stroke:#255f8f;stroke-width:1;stroke-linecap:round;stroke-linejoin:round;stroke-miterlimit:4;stroke-opacity:1;stroke-dasharray:none;stroke-dashoffset:0;marker:none;visibility:visible;display:inline;overflow:visible;enable-background:accumulate"
       d="m 251.57894,301.29076 c -3.35598,0 -6.07656,2.72031 -6.07656,6.076 0,1.08412 0.27812,2.09217 0.77573,2.97336 l -6.65836,6.65775 c -1.20149,-0.48833 -2.50178,-0.77566 -3.87865,-0.77566 -1.7851,0 -3.47975,0.46438 -4.94529,1.26044 l -1.74539,-6.49615 c 0.53513,-0.60259 0.87269,-1.39307 0.87269,-2.26234 0,-1.88489 -1.54108,-3.39351 -3.42614,-3.39351 -1.88507,0 -3.39383,1.50862 -3.39383,3.39351 0,1.68264 1.20964,3.0805 2.81203,3.36119 l 2.06861,7.65964 c -1.60692,1.82259 -2.58576,4.19862 -2.58576,6.81934 0,5.7118 4.63075,10.34213 10.34308,10.34213 3.1646,0 5.98935,-1.41327 7.88659,-3.65206 l 5.23619,3.038 c -0.13791,0.5581 -0.19393,1.14453 -0.19393,1.74523 0,3.99826 3.24153,7.23949 7.24015,7.23949 3.99863,0 7.24016,-3.24123 7.24016,-7.23949 0,-3.99826 -3.24153,-7.23949 -7.24016,-7.23949 -2.2072,0 -4.19909,0.99586 -5.52708,2.55322 l -5.04225,-2.90873 c 0.48115,-1.19373 0.74341,-2.51232 0.74341,-3.8783 0,-3.12143 -1.40108,-5.89264 -3.58776,-7.78891 l 6.10888,-6.10832 c 0.87582,0.48935 1.89908,0.77566 2.97364,0.77566 3.35599,0 6.07656,-2.72032 6.07656,-6.076 0,-3.35569 -2.72057,-6.076 -6.07656,-6.076 z"
       id="path6667"
       inkscape:connector-curvature="0" />
    <text
       xml:space="preserve"
       style="font-size:18.44223595px;font-style:normal;font-variant:normal;font-weight:bold;font-stretch:normal;line-height:125%;letter-spacing:0px;word-spacing:0px;fill:#ffffff;fill-opacity:1;stroke:none;display:inline;enable-background:new;font-family:Droid Sans;-inkscape-font-specification:Droid Sans Bold"
       x="230.73248"
       y="331.72812"
       id="text6939"
       sodipodi:linespacing="125%"
       transform="scale(1.0000461,0.9999539)"><tspan
         sodipodi:role="line"
         id="tspan6941"
         x="230.73248"
         y="331.72812">a</tspan></text>
    <path
       sodipodi:type="inkscape:offset"
       inkscape:radius="-1.0543718"
       inkscape:original="M 166.71875 6.96875 C 163.47408 6.96875 160.84375 9.599077 160.84375 12.84375 C 160.84375 13.89201 161.11265 14.866714 161.59375 15.71875 L 155.15625 22.15625 C 153.99461 21.684079 152.73745 21.40625 151.40625 21.40625 C 149.68036 21.40625 148.04193 21.855276 146.625 22.625 L 144.9375 16.34375 C 145.45489 15.761092 145.78125 14.996762 145.78125 14.15625 C 145.78125 12.33371 144.29129 10.875 142.46875 10.875 C 140.64621 10.875 139.1875 12.33371 139.1875 14.15625 C 139.1875 15.783225 140.35702 17.134839 141.90625 17.40625 L 143.90625 24.8125 C 142.35262 26.574792 141.40625 28.872217 141.40625 31.40625 C 141.40625 36.929097 145.8834 41.40625 151.40625 41.40625 C 154.46588 41.40625 157.19693 40.039729 159.03125 37.875 L 164.09375 40.8125 C 163.96041 41.352137 163.90625 41.919172 163.90625 42.5 C 163.90625 46.365993 167.04026 49.5 170.90625 49.5 C 174.77224 49.5 177.90625 46.365993 177.90625 42.5 C 177.90625 38.634007 174.77224 35.5 170.90625 35.5 C 168.77226 35.5 166.84644 36.462915 165.5625 37.96875 L 160.6875 35.15625 C 161.15269 34.002007 161.40625 32.72704 161.40625 31.40625 C 161.40625 28.388079 160.05165 25.708536 157.9375 23.875 L 163.84375 17.96875 C 164.69052 18.44191 165.67983 18.71875 166.71875 18.71875 C 169.96342 18.71875 172.59375 16.088423 172.59375 12.84375 C 172.59375 9.599077 169.96342 6.96875 166.71875 6.96875 z "
       style="opacity:0.98999999;color:#000000;fill:none;stroke:url(#linearGradient6983);stroke-width:0.9668743;stroke-linecap:round;stroke-linejoin:round;stroke-miterlimit:4;stroke-opacity:1;stroke-dasharray:none;stroke-dashoffset:0;marker:none;visibility:visible;display:inline;overflow:visible;enable-background:accumulate"
       id="path6975"
       d="m 166.71875,8.03125 c -2.67484,0 -4.8125,2.137652 -4.8125,4.8125 0,0.867948 0.19922,1.64503 0.59375,2.34375 a 1.0544773,1.0544773 0 0 1 -0.15625,1.28125 l -6.4375,6.4375 A 1.0544773,1.0544773 0 0 1 154.75,23.125 c -1.04947,-0.426576 -2.15925,-0.65625 -3.34375,-0.65625 -1.54301,0 -3.01276,0.404665 -4.28125,1.09375 a 1.0544773,1.0544773 0 0 1 -1.53125,-0.65625 l -1.6875,-6.28125 a 1.0544773,1.0544773 0 0 1 0.25,-0.96875 c 0.35958,-0.404942 0.5625,-0.932421 0.5625,-1.5 0,-1.247894 -0.99005,-2.21875 -2.25,-2.21875 -1.25995,0 -2.21875,0.958803 -2.21875,2.21875 0,1.121698 0.79174,2.034448 1.84375,2.21875 a 1.0544773,1.0544773 0 0 1 0.84375,0.75 l 2,7.40625 a 1.0544773,1.0544773 0 0 1 -0.25,0.96875 c -1.39348,1.580636 -2.21875,3.63473 -2.21875,5.90625 0,4.953022 3.98447,8.9375 8.9375,8.9375 2.74569,0 5.17039,-1.218356 6.8125,-3.15625 a 1.0544773,1.0544773 0 0 1 1.34375,-0.21875 l 5.0625,2.9375 a 1.0544773,1.0544773 0 0 1 0.5,1.15625 c -0.10803,0.437204 -0.15625,0.922216 -0.15625,1.4375 0,3.296168 2.64134,5.9375 5.9375,5.9375 3.29616,0 5.9375,-2.641332 5.9375,-5.9375 0,-3.296168 -2.64134,-5.9375 -5.9375,-5.9375 -1.81682,0 -3.44106,0.815147 -4.53125,2.09375 a 1.0544773,1.0544773 0 0 1 -1.34375,0.21875 l -4.875,-2.8125 a 1.0544773,1.0544773 0 0 1 -0.4375,-1.3125 c 0.41422,-1.027768 0.625,-2.157903 0.625,-3.34375 0,-2.702693 -1.19531,-5.103542 -3.09375,-6.75 A 1.0544773,1.0544773 0 0 1 157.1875,23.125 l 5.90625,-5.90625 a 1.0544773,1.0544773 0 0 1 1.25,-0.15625 c 0.69437,0.388003 1.52338,0.59375 2.375,0.59375 2.67484,0 4.8125,-2.137652 4.8125,-4.8125 0,-2.674848 -2.13766,-4.8125 -4.8125,-4.8125 z"
       transform="matrix(1.0343082,0,0,1.0342129,79.140373,294.08359)" />
    <path
       sodipodi:type="arc"
       style="opacity:0.15;color:#000000;fill:url(#radialGradient7042);fill-opacity:1;fill-rule:nonzero;stroke:none;stroke-width:1;marker:none;visibility:visible;display:inline;overflow:visible;enable-background:accumulate"
       id="path6943-0"
       sodipodi:cx="170.58949"
       sodipodi:cy="50.677525"
       sodipodi:rx="7.4246206"
       sodipodi:ry="2.4748735"
       d="m 178.01411,50.677525 c 0,1.366834 -3.32411,2.474873 -7.42462,2.474873 -4.1005,0 -7.42462,-1.108039 -7.42462,-2.474873 0,-1.366835 3.32412,-2.474874 7.42462,-2.474874 4.10051,0 7.42462,1.108039 7.42462,2.474874 z"
       transform="matrix(2.0123007,0,0,1.2135605,-107.36079,282.29393)" />
  </g>
</svg>
