<?xml version="1.0" encoding="UTF-8" standalone="no"?>
<!-- Created with Inkscape (http://www.inkscape.org/) -->

<svg
   xmlns:dc="http://purl.org/dc/elements/1.1/"
   xmlns:cc="http://creativecommons.org/ns#"
   xmlns:rdf="http://www.w3.org/1999/02/22-rdf-syntax-ns#"
   xmlns:svg="http://www.w3.org/2000/svg"
   xmlns="http://www.w3.org/2000/svg"
   xmlns:xlink="http://www.w3.org/1999/xlink"
   xmlns:sodipodi="http://sodipodi.sourceforge.net/DTD/sodipodi-0.dtd"
   xmlns:inkscape="http://www.inkscape.org/namespaces/inkscape"
   width="48"
   height="48.000008"
   id="svg8649"
   version="1.1"
   inkscape:version="0.48.0 r9654"
   sodipodi:docname="Nuevo documento 50">
  <defs
     id="defs8651">
    <radialGradient
       inkscape:collect="always"
       xlink:href="#linearGradient8838-2-1"
       id="radialGradient4835-7-3"
       gradientUnits="userSpaceOnUse"
       gradientTransform="matrix(4.6104139,0,0,2.0085789,-215.76673,101.36913)"
       cx="62.625"
       cy="4.625"
       fx="62.625"
       fy="4.625"
       r="10.625" />
    <linearGradient
       id="linearGradient8838-2-1">
      <stop
         id="stop8840-4-19"
         style="stop-color:#000000;stop-opacity:1"
         offset="0" />
      <stop
         id="stop8842-5-1"
         style="stop-color:#000000;stop-opacity:0"
         offset="1" />
    </linearGradient>
    <radialGradient
       inkscape:collect="always"
       xlink:href="#linearGradient4933-1-6"
       id="radialGradient4837-4-3"
       gradientUnits="userSpaceOnUse"
       gradientTransform="matrix(1.659483,0.01339134,-0.01029058,1.5925239,114.38349,-41.729075)"
       cx="-171.8835"
       cy="72.793999"
       fx="-171.8835"
       fy="72.793999"
       r="22.289658" />
    <linearGradient
       id="linearGradient4933-1-6">
      <stop
         style="stop-color:#ffffff;stop-opacity:1"
         offset="0"
         id="stop4935-6-9" />
      <stop
         id="stop4943-8-1"
         offset="0.39820078"
         style="stop-color:#ebebeb;stop-opacity:1" />
      <stop
         id="stop4941-04-34"
         offset="0.61794829"
         style="stop-color:#b5b5b5;stop-opacity:1" />
      <stop
         style="stop-color:#efefef;stop-opacity:1"
         offset="1"
         id="stop4937-8-9" />
    </linearGradient>
    <linearGradient
       inkscape:collect="always"
       xlink:href="#linearGradient5035-3-1"
       id="linearGradient4839-8-8"
       gradientUnits="userSpaceOnUse"
       x1="-171.10748"
       y1="27.172562"
       x2="-171.10748"
       y2="105.51175" />
    <linearGradient
       inkscape:collect="always"
       id="linearGradient5035-3-1">
      <stop
         style="stop-color:#ffffff;stop-opacity:1;"
         offset="0"
         id="stop5037-5-79" />
      <stop
         style="stop-color:#ffffff;stop-opacity:0;"
         offset="1"
         id="stop5039-2-3" />
    </linearGradient>
    <linearGradient
       inkscape:collect="always"
       xlink:href="#linearGradient8005-7-3"
       id="linearGradient4841-4-0"
       gradientUnits="userSpaceOnUse"
       gradientTransform="matrix(1.3816791,0,0,1.3771154,-15.020939,-18.392009)"
       x1="46.80846"
       y1="16.687328"
       x2="65.76947"
       y2="87.928337" />
    <linearGradient
       id="linearGradient8005-7-3">
      <stop
         id="stop8007-4-2"
         style="stop-color:#357cc7;stop-opacity:1"
         offset="0" />
      <stop
         id="stop8009-7-65"
         style="stop-color:#6593c6;stop-opacity:1"
         offset="1" />
    </linearGradient>
    <radialGradient
       inkscape:collect="always"
       xlink:href="#linearGradient8033-6-2"
       id="radialGradient5254-9"
       gradientUnits="userSpaceOnUse"
       gradientTransform="matrix(2.257496,2.4062858e-7,-4.1936558e-7,3.9083992,-56.487549,-206.13804)"
       cx="48.17165"
       cy="77.798073"
       fx="48.17165"
       fy="77.798073"
       r="15.495689" />
    <linearGradient
       id="linearGradient8033-6-2">
      <stop
         id="stop8035-5-3"
         style="stop-color:#ffffff;stop-opacity:1"
         offset="0" />
      <stop
         id="stop8037-7-7"
         style="stop-color:#ffffff;stop-opacity:0"
         offset="1" />
    </linearGradient>
    <radialGradient
       inkscape:collect="always"
       xlink:href="#linearGradient8053-9-4"
       id="radialGradient4845-6-8"
       gradientUnits="userSpaceOnUse"
       gradientTransform="matrix(2.0339719,-1.3444647,0.98312504,1.4775107,-140.2699,75.992251)"
       cx="76.367531"
       cy="78"
       fx="76.367531"
       fy="78"
       r="2.767844" />
    <linearGradient
       id="linearGradient8053-9-4">
      <stop
         id="stop8055-7-7"
         style="stop-color:#ffffff;stop-opacity:1"
         offset="0" />
      <stop
         id="stop8057-0-3"
         style="stop-color:#ffffff;stop-opacity:0"
         offset="1" />
    </linearGradient>
    <linearGradient
       inkscape:collect="always"
       xlink:href="#linearGradient5577-2-3"
       id="linearGradient4847-3-6"
       gradientUnits="userSpaceOnUse"
       gradientTransform="matrix(1.8063795,0,0,1.8004131,-18.223966,-21.812941)"
       x1="32.429935"
       y1="21.016321"
       x2="41.986534"
       y2="20.332947" />
    <linearGradient
       inkscape:collect="always"
       id="linearGradient5577-2-3">
      <stop
         style="stop-color:#ffffff;stop-opacity:1;"
         offset="0"
         id="stop5579-3-6" />
      <stop
         style="stop-color:#ffffff;stop-opacity:0;"
         offset="1"
         id="stop5581-8-9" />
    </linearGradient>
    <radialGradient
       r="2.767844"
       fy="78"
       fx="76.367531"
       cy="78"
       cx="76.367531"
       gradientTransform="matrix(1.4722437,-0.97315983,0.71161238,1.0694621,-132.99592,5.6147823)"
       gradientUnits="userSpaceOnUse"
       id="radialGradient5316"
       xlink:href="#linearGradient8053-9-4"
       inkscape:collect="always" />
  </defs>
  <sodipodi:namedview
     id="base"
     pagecolor="#ffffff"
     bordercolor="#666666"
     borderopacity="1.0"
     inkscape:pageopacity="0.0"
     inkscape:pageshadow="2"
     inkscape:zoom="7"
     inkscape:cx="57.285713"
     inkscape:cy="8.5714316"
     inkscape:current-layer="layer1"
     showgrid="true"
     inkscape:grid-bbox="true"
     inkscape:document-units="px"
     fit-margin-top="0"
     fit-margin-left="0"
     fit-margin-right="0"
     fit-margin-bottom="0" />
  <metadata
     id="metadata8654">
    <rdf:RDF>
      <cc:Work
         rdf:about="">
        <dc:format>image/svg+xml</dc:format>
        <dc:type
           rdf:resource="http://purl.org/dc/dcmitype/StillImage" />
        <dc:title></dc:title>
      </cc:Work>
    </rdf:RDF>
  </metadata>
  <g
     id="layer1"
     inkscape:label="Layer 1"
     inkscape:groupmode="layer"
     transform="translate(33.285713,15.428575)">
    <g
       style="display:inline;enable-background:new"
       id="g4790-5-7"
       transform="matrix(0.37540144,0,0,0.37265352,-36.675164,-16.618833)">
      <path
         style="opacity:0.5;fill:url(#radialGradient4835-7-3);fill-opacity:1;fill-rule:evenodd;stroke:none;stroke-width:1;marker:none;visibility:visible;display:inline;overflow:visible;enable-background:new"
         id="path8836-2-2"
         d="m 121.94606,110.65882 c 0,11.7864 -21.93161,21.34118 -48.98564,21.34118 -27.054023,0 -48.985647,-9.55478 -48.985647,-21.34118 0,-11.78642 21.931624,-21.341183 48.985647,-21.341183 27.05403,0 48.98564,9.554763 48.98564,21.341183 l 0,0 0,0 z"
         inkscape:connector-curvature="0" />
      <path
         transform="matrix(2.0332337,0,0,1.9716205,417.60086,-64.099269)"
         d="m -147.88634,74.465996 c 0,11.938885 -9.67838,21.617264 -21.61726,21.617264 -11.93889,0 -21.61726,-9.678379 -21.61726,-21.617264 0,-11.938885 9.67837,-21.617264 21.61726,-21.617264 11.93888,0 21.61726,9.678379 21.61726,21.617264 z"
         sodipodi:ry="21.617264"
         sodipodi:rx="21.617264"
         sodipodi:cy="74.465996"
         sodipodi:cx="-169.5036"
         id="path4163-5-0"
         style="color:#000000;fill:url(#radialGradient4837-4-3);fill-opacity:1;fill-rule:nonzero;stroke:#969696;stroke-width:1.33534706;stroke-miterlimit:4;stroke-opacity:1;stroke-dasharray:none;marker:none;visibility:visible;display:inline;overflow:visible;enable-background:accumulate"
         sodipodi:type="arc" />
      <path
         id="path4525-0-6-1-8"
         d="m 59.744272,65.420856 -11.875,4.0625 0,34.281244 c 9.006001,0.79312 23.878027,1.22806 36,-1.90625 6.217842,-1.60773 11.651353,-4.165568 15.187502,-7.968744 3.536156,-3.803176 5.270226,-8.827031 4.062506,-15.84375 -0.90721,-5.270749 -3.817094,-8.1326 -7.843758,-9.6875 -4.026657,-1.5549 -9.207742,-1.669029 -14.3125,-1.09375 -10.209516,1.150558 -20.03125,5.03125 -20.03125,5.03125 a 0.88397186,0.88397186 0 0 1 -1.1875,-0.8125 l 0,-6.0625 z m 19.21875,9.03125 c 2.538949,0.01362 4.959786,0.256843 6.9375,1.25 1.977714,0.993157 3.456179,2.834227 3.875,5.53125 0.626467,4.034169 -1.048016,7.220475 -3.78125,9.46875 -2.733234,2.248275 -6.49936,3.663478 -10.28125,4.625 -7.563781,1.923044 -15.34375,1.9375 -15.34375,1.9375 a 0.88397186,0.88397186 0 0 1 -0.875,-0.875 l 0,-17.375 a 0.88397186,0.88397186 0 0 1 0.5625,-0.84375 c 0,0 10.382082,-3.764465 18.90625,-3.71875 z"
         style="fill:none;stroke:#ffffff;stroke-width:2.67361832;stroke-opacity:1;display:inline;enable-background:new"
         inkscape:connector-curvature="0" />
      <path
         id="path4525-0-5-4"
         d="m 86.681772,61.41936 c -1.870848,-0.01779 -3.804466,0.09677 -5.71875,0.3125 -10.209516,1.150558 -20.03125,5.03125 -20.03125,5.03125 a 0.88397186,0.88397186 0 0 1 -1.1875,-0.8125 l 0,-4.0625 -11.875,4.0625 0,32.281253 c 9.006001,0.793114 23.878027,1.228054 36,-1.906253 6.217842,-1.60771 11.651353,-4.165574 15.187502,-7.96875 3.536156,-3.803176 5.270226,-8.827031 4.062506,-15.84375 -0.90721,-5.270749 -3.817094,-8.1326 -7.843758,-9.6875 -2.516661,-0.971813 -5.47567,-1.376602 -8.59375,-1.40625 z m -7.71875,7.5 c 2.538949,0.01362 4.959786,0.256843 6.9375,1.25 1.977714,0.993157 3.456179,2.834227 3.875,5.53125 0.626467,4.034169 -1.048016,7.220475 -3.78125,9.46875 -2.733234,2.248275 -6.49936,3.663478 -10.28125,4.625 -7.563781,1.923044 -15.34375,1.9375 -15.34375,1.9375 a 0.88397186,0.88397186 0 0 1 -0.875,-0.875 l 0,-17.375 a 0.88397186,0.88397186 0 0 1 0.5625,-0.84375 c 0,0 10.382082,-3.764465 18.90625,-3.71875 z"
         style="fill:none;stroke:#969696;stroke-width:2.67361832;stroke-opacity:1;display:inline;enable-background:new"
         inkscape:connector-curvature="0" />
      <path
         transform="matrix(2.0332337,0,0,1.9716205,417.59354,-64.104699)"
         d="m -169.5,54.28125 c -11.1634,0 -20.1875,9.024102 -20.1875,20.1875 0,11.163398 9.0241,20.1875 20.1875,20.1875 11.1634,0 20.1875,-9.024102 20.1875,-20.1875 0,-11.163398 -9.0241,-20.1875 -20.1875,-20.1875 z"
         id="path5033-1-5"
         style="color:#000000;fill:none;stroke:url(#linearGradient4839-8-8);stroke-width:1.33534706;stroke-miterlimit:4;stroke-opacity:1;stroke-dasharray:none;marker:none;visibility:visible;display:inline;overflow:visible;enable-background:accumulate"
         inkscape:original="M -169.5 52.84375 C -181.43889 52.84375 -191.125 62.529865 -191.125 74.46875 C -191.125 86.407635 -181.43889 96.09375 -169.5 96.09375 C -157.56111 96.09375 -147.875 86.407635 -147.875 74.46875 C -147.875 62.529865 -157.56111 52.84375 -169.5 52.84375 z "
         inkscape:radius="-1.4337718"
         sodipodi:type="inkscape:offset" />
      <path
         d="m 61.34375,5.46875 c -15.268391,0.6900172 -21.891084,3.9318201 -26.875,8.40625 -4.58,4.111805 -8.164088,9.413866 -15.5,14.65625 7.029154,-0.33053 11.430057,-2.457213 15.25,-4.78125 4.336538,-2.638331 8.197577,-5.466295 14.40625,-5.21875 a 0.88397186,0.88397186 0 0 1 0.84375,0.875 l 0,82.15625 c 9.006001,0.79312 23.878027,1.22806 36,-1.90625 6.217842,-1.60771 11.651353,-4.165574 15.1875,-7.96875 3.53615,-3.803176 5.27022,-8.827031 4.0625,-15.84375 -0.90721,-5.270749 -3.81709,-8.1326 -7.84375,-9.6875 -4.026657,-1.5549 -9.207742,-1.669029 -14.3125,-1.09375 -10.209516,1.150558 -20.03125,5.03125 -20.03125,5.03125 a 0.88397186,0.88397186 0 0 1 -1.1875,-0.8125 l 0,-63.8125 z M 80.5625,72.25 c 2.538949,0.01362 4.959786,0.256843 6.9375,1.25 1.977714,0.993157 3.456179,2.834227 3.875,5.53125 0.626467,4.034169 -1.048016,7.220475 -3.78125,9.46875 -2.733234,2.248275 -6.49936,3.663478 -10.28125,4.625 -7.563781,1.923044 -15.34375,1.9375 -15.34375,1.9375 a 0.88397186,0.88397186 0 0 1 -0.875,-0.875 l 0,-17.375 a 0.88397186,0.88397186 0 0 1 0.5625,-0.84375 c 0,0 10.382082,-3.764465 18.90625,-3.71875 z"
         id="path4525-1-3"
         style="fill:url(#linearGradient4841-4-0);fill-opacity:1;fill-rule:evenodd;stroke:#2e629a;stroke-width:2.67361832;stroke-opacity:1"
         inkscape:original="M 62.21875 4.5 C 29.959993 5.6821585 34.260717 18.168404 16.09375 29.5625 C 34.217886 30.080737 36.733914 18.933388 48.59375 19.40625 L 48.59375 102.375 C 66.540157 104.04682 110.5721 104.6111 105.59375 75.6875 C 101.77973 53.528553 62.218746 69.28125 62.21875 69.28125 L 62.21875 4.5 z M 80.5625 73.125 C 85.514782 73.15156 89.734995 74.229949 90.5 79.15625 C 92.82375 94.120168 61.968751 94.1875 61.96875 94.1875 L 61.96875 76.8125 C 61.96875 76.8125 72.308697 73.080735 80.5625 73.125 z "
         inkscape:radius="-0.88388348"
         sodipodi:type="inkscape:offset"
         transform="translate(-1.5994773,-0.79914261)" />
      <path
         sodipodi:nodetypes="cccc"
         style="opacity:0.4;fill:#ffffff;fill-opacity:1;fill-rule:evenodd;stroke:none"
         id="path8013-5-5"
         d="m 59.517338,71.004932 c 29.805234,-10.136376 35.944297,-3.473828 35.944297,-3.473828 0,0 -14.171659,-2.34988 -35.91394,5.903543 z"
         inkscape:connector-curvature="0" />
      <path
         style="opacity:0.3;fill:none;stroke:url(#radialGradient5254-9);stroke-width:2.67361832;stroke-linecap:butt;stroke-linejoin:miter;stroke-miterlimit:4;stroke-opacity:1;stroke-dasharray:none"
         id="path8023-8-5"
         d="m 52.992471,34.239114 0,62.929746 c 0,0 19.051395,2.434413 40.056781,-4.381965"
         inkscape:connector-curvature="0" />
      <path
         style="opacity:0.4;fill:#ffffff;fill-opacity:1;fill-rule:evenodd;stroke:none"
         id="path8045-9-4"
         d="m 92.41735,90.192365 c -7.7217,5.92015 -15.444852,4.332388 -15.444852,4.332388 0,0 8.963999,-0.807621 14.246402,-7.526719 0,0 4.373684,0.759911 1.19845,3.194331 z"
         inkscape:connector-curvature="0" />
      <path
         style="fill:url(#radialGradient4845-6-8);fill-opacity:1;fill-rule:nonzero;stroke:none"
         id="path8051-3-2"
         d="M 97.372993,84.843368 A 4.9120542,6.7484836 56.73188 1 1 86.11356,92.285907 4.9120542,6.7484836 56.73188 0 1 97.372993,84.843368 z"
         inkscape:connector-curvature="0" />
      <path
         sodipodi:nodetypes="cccc"
         style="opacity:0.4;fill:url(#linearGradient4847-3-6);fill-opacity:1;fill-rule:evenodd;stroke:none"
         id="path8061-3-5"
         d="M 57.431262,5.647863 C 30.377001,8.8462537 34.869912,15.317304 20.828137,26.52738 30.84531,21.363197 34.637945,7.0126842 59.128399,8.6091591 z"
         inkscape:connector-curvature="0" />
      <path
         sodipodi:nodetypes="sssss"
         style="opacity:0.8;fill:url(#radialGradient5316);fill-opacity:1;fill-rule:nonzero;stroke:none"
         id="path8063-6-9"
         d="m 39.016397,12.021457 c 1.030923,1.549964 0.02788,4.243039 -2.105574,5.653261 -2.133452,1.410221 -5.012813,1.283434 -6.044308,-0.266152 -1.031671,-1.54985 -0.02877,-4.243592 2.105046,-5.654055 2.133816,-1.410462 5.013737,-1.283283 6.044836,0.266946 z"
         inkscape:connector-curvature="0" />
    </g>
  </g>
</svg>
