<?xml version="1.0" encoding="UTF-8" standalone="no"?>
<!-- Created with Inkscape (http://www.inkscape.org/) -->

<svg
   xmlns:dc="http://purl.org/dc/elements/1.1/"
   xmlns:cc="http://creativecommons.org/ns#"
   xmlns:rdf="http://www.w3.org/1999/02/22-rdf-syntax-ns#"
   xmlns:svg="http://www.w3.org/2000/svg"
   xmlns="http://www.w3.org/2000/svg"
   xmlns:xlink="http://www.w3.org/1999/xlink"
   xmlns:sodipodi="http://sodipodi.sourceforge.net/DTD/sodipodi-0.dtd"
   xmlns:inkscape="http://www.inkscape.org/namespaces/inkscape"
   version="1.0"
   width="48"
   height="48"
   id="svg4715"
   inkscape:version="0.47 r22583"
   sodipodi:docname="pitivi48c.svg">
  <metadata
     id="metadata3243">
    <rdf:RDF>
      <cc:Work
         rdf:about="">
        <dc:format>image/svg+xml</dc:format>
        <dc:type
           rdf:resource="http://purl.org/dc/dcmitype/StillImage" />
        <dc:title />
      </cc:Work>
    </rdf:RDF>
  </metadata>
  <sodipodi:namedview
     pagecolor="#ffffff"
     bordercolor="#666666"
     borderopacity="1"
     objecttolerance="10"
     gridtolerance="10"
     guidetolerance="10"
     inkscape:pageopacity="0"
     inkscape:pageshadow="2"
     inkscape:window-width="640"
     inkscape:window-height="480"
     id="namedview3241"
     showgrid="false"
     inkscape:zoom="5.40625"
     inkscape:cx="-0.38005987"
     inkscape:cy="34.974084"
     inkscape:current-layer="svg4715" />
  <defs
     id="defs4717">
    <linearGradient
       id="linearGradient5060">
      <stop
         id="stop5062"
         style="stop-color:#000000;stop-opacity:1"
         offset="0" />
      <stop
         id="stop5064"
         style="stop-color:#000000;stop-opacity:0"
         offset="1" />
    </linearGradient>
    <linearGradient
       id="linearGradient5048">
      <stop
         id="stop5050"
         style="stop-color:#000000;stop-opacity:0"
         offset="0" />
      <stop
         id="stop5056"
         style="stop-color:#000000;stop-opacity:1"
         offset="0.5" />
      <stop
         id="stop5052"
         style="stop-color:#000000;stop-opacity:0"
         offset="1" />
    </linearGradient>
    <linearGradient
       id="linearGradient3582">
      <stop
         id="stop3584"
         style="stop-color:#333333;stop-opacity:1"
         offset="0" />
      <stop
         id="stop3586"
         style="stop-color:#5a5a5a;stop-opacity:1"
         offset="1" />
    </linearGradient>
    <linearGradient
       id="linearGradient3932">
      <stop
         id="stop3934"
         style="stop-color:#828282;stop-opacity:1"
         offset="0" />
      <stop
         id="stop3936"
         style="stop-color:#434343;stop-opacity:1"
         offset="1" />
    </linearGradient>
    <linearGradient
       id="linearGradient3211">
      <stop
         id="stop3213"
         style="stop-color:#ffffff;stop-opacity:1"
         offset="0" />
      <stop
         id="stop3215"
         style="stop-color:#ffffff;stop-opacity:0"
         offset="1" />
    </linearGradient>
    <linearGradient
       id="linearGradient8823">
      <stop
         offset="0"
         style="stop-color:#e35d4f;stop-opacity:1"
         id="stop8825" />
      <stop
         id="stop8827"
         style="stop-color:#8daa32;stop-opacity:1"
         offset="0.29466397" />
      <stop
         id="stop8829"
         style="stop-color:#729eb8;stop-opacity:1;"
         offset="0.57540715" />
      <stop
         offset="1"
         style="stop-color:#727272;stop-opacity:1"
         id="stop8831" />
    </linearGradient>
    <linearGradient
       id="linearGradient2490-1">
      <stop
         id="stop2492-2"
         style="stop-color:#333333;stop-opacity:1"
         offset="0" />
      <stop
         id="stop2494-9"
         style="stop-color:#e35d4f;stop-opacity:1"
         offset="1" />
    </linearGradient>
    <linearGradient
       inkscape:collect="always"
       xlink:href="#linearGradient5048"
       id="linearGradient3903"
       gradientUnits="userSpaceOnUse"
       gradientTransform="matrix(0.1021006,0,0,0.02212893,52.097928,111.51231)"
       x1="302.85715"
       y1="366.64789"
       x2="302.85715"
       y2="609.50507" />
    <radialGradient
       inkscape:collect="always"
       xlink:href="#linearGradient5060"
       id="radialGradient3905"
       gradientUnits="userSpaceOnUse"
       gradientTransform="matrix(-0.0349409,0,0,0.02212893,85.407496,111.51235)"
       cx="605.71429"
       cy="486.64789"
       fx="605.71429"
       fy="486.64789"
       r="117.14286" />
    <radialGradient
       inkscape:collect="always"
       xlink:href="#linearGradient5060"
       id="radialGradient3907"
       gradientUnits="userSpaceOnUse"
       gradientTransform="matrix(0.0349409,0,0,0.02212893,92.592497,111.51235)"
       cx="605.71429"
       cy="486.64789"
       fx="605.71429"
       fy="486.64789"
       r="117.14286" />
    <linearGradient
       inkscape:collect="always"
       xlink:href="#linearGradient8823"
       id="linearGradient3909"
       gradientUnits="userSpaceOnUse"
       gradientTransform="matrix(0.72278403,0,0,0.73718348,2.1304674,0.55744017)"
       x1="30.472441"
       y1="5.2622981"
       x2="30.472441"
       y2="57.34943" />
    <linearGradient
       inkscape:collect="always"
       xlink:href="#linearGradient2490-1"
       id="linearGradient3911"
       gradientUnits="userSpaceOnUse"
       gradientTransform="matrix(0.79406022,0,0,0.88898873,60.078753,-1.8292448)"
       x1="-51.786404"
       y1="53.623615"
       x2="-51.786404"
       y2="2.9062471" />
    <linearGradient
       inkscape:collect="always"
       xlink:href="#linearGradient3932"
       id="linearGradient3913"
       gradientUnits="userSpaceOnUse"
       gradientTransform="matrix(0.86955155,0,0,0.99784426,45.085474,-0.43661083)"
       x1="-22.539846"
       y1="11.109024"
       x2="-22.539846"
       y2="46.263954" />
    <linearGradient
       inkscape:collect="always"
       xlink:href="#linearGradient3582"
       id="linearGradient3915"
       gradientUnits="userSpaceOnUse"
       gradientTransform="matrix(0.92991777,0,0,0.96154483,1.8301221,0.47825217)"
       x1="16.745687"
       y1="46.132927"
       x2="16.745687"
       y2="1.4097958" />
    <linearGradient
       inkscape:collect="always"
       xlink:href="#linearGradient3932"
       id="linearGradient3917"
       gradientUnits="userSpaceOnUse"
       gradientTransform="matrix(0.86955155,0,0,0.99784426,74.19909,-0.43661083)"
       x1="-22.539846"
       y1="11.109024"
       x2="-22.539846"
       y2="46.263954" />
    <linearGradient
       inkscape:collect="always"
       xlink:href="#linearGradient3582"
       id="linearGradient3919"
       gradientUnits="userSpaceOnUse"
       gradientTransform="matrix(0.92991777,0,0,0.96154483,30.943734,0.47825217)"
       x1="16.745687"
       y1="46.132927"
       x2="16.745687"
       y2="1.4097958" />
    <linearGradient
       inkscape:collect="always"
       xlink:href="#linearGradient3211"
       id="linearGradient3925"
       gradientUnits="userSpaceOnUse"
       gradientTransform="matrix(1.0225849,0,0,0.98589223,0.71752548,-0.17649883)"
       x1="24"
       y1="1.9999999"
       x2="24"
       y2="46.01725" />
  </defs>
  <g
     id="g3890"
     transform="translate(-1.2595591,-0.06291756)">
    <g
       transform="matrix(0.66167308,0,0,0.61627805,-33.629345,-30.034758)"
       id="g3141">
      <rect
         width="49.299999"
         height="5.3741703"
         x="64.349998"
         y="119.62583"
         id="rect2944"
         style="opacity:0.3;fill:url(#linearGradient3903);fill-opacity:1;fill-rule:nonzero;stroke:none;stroke-width:1;marker:none;visibility:visible;display:inline;overflow:visible" />
      <path
         d="m 64.35,119.62606 c 0,0 0,5.37388 0,5.37388 -1.79937,0.0101 -4.35,-1.20401 -4.35,-2.68729 0,-1.48326 2.007961,-2.68659 4.35,-2.68659 z"
         id="path2946"
         style="opacity:0.3;fill:url(#radialGradient3905);fill-opacity:1;fill-rule:nonzero;stroke:none;stroke-width:1;marker:none;visibility:visible;display:inline;overflow:visible" />
      <path
         d="m 113.65,119.62606 c 0,0 0,5.37388 0,5.37388 1.79937,0.0101 4.35,-1.20401 4.35,-2.68729 0,-1.48326 -2.00796,-2.68659 -4.35,-2.68659 z"
         id="path2948"
         style="opacity:0.3;fill:url(#radialGradient3907);fill-opacity:1;fill-rule:nonzero;stroke:none;stroke-width:1;marker:none;visibility:visible;display:inline;overflow:visible" />
    </g>
    <path
       d="m 8.0488893,1.6257962 c 0,0 34.4213327,0 34.4213327,0 0,0 -0.0039,43.7182388 -0.0039,43.7182388 -11.472564,0 -34.4176891,0 -34.4176891,0 0,0 0,-43.7182388 0,-43.7182388 z"
       id="path2950"
       style="fill:url(#linearGradient3909);fill-opacity:1;stroke:url(#linearGradient3911);stroke-width:0.99992186;stroke-linecap:butt;stroke-linejoin:round;stroke-miterlimit:4;stroke-opacity:1;stroke-dasharray:none;stroke-dashoffset:0;display:inline" />
    <path
       d="M 8.2311005,23.497169 42.14402,23.460254"
       id="path2954"
       style="fill:none;stroke:#464646;stroke-width:0.96299994;stroke-linecap:square;stroke-linejoin:round;stroke-miterlimit:4;stroke-opacity:1;stroke-dasharray:none" />
    <path
       d="M 8.0195623,24.459418 42.575312,24.422503"
       id="path2956"
       style="opacity:0.3;fill:#ffffff;fill-rule:evenodd;stroke:#ffffff;stroke-width:0.96299994;stroke-linecap:square;stroke-linejoin:round;stroke-miterlimit:4;stroke-opacity:1;stroke-dasharray:none" />
    <path
       d="m 13.611239,1.6170082 c 0,2.593296 0.07786,41.6402978 0.07786,43.7358098 -1.908504,0 -3.8170093,0 -5.7255136,0 C 7.499701,44.83497 7.8524442,43.806811 7.742226,43.07369 c 0,-13.735126 0,-27.470252 0,-41.2053748 l 0.064692,-0.177863 0.1566671,-0.07344 0,0 c 1.9863653,0 3.6612909,0 5.6476549,0 z"
       id="path2958"
       style="fill:url(#linearGradient3913);fill-opacity:1;fill-rule:nonzero;stroke:url(#linearGradient3915);stroke-width:0.97335815;stroke-linecap:butt;stroke-linejoin:round;stroke-miterlimit:4;stroke-opacity:1;stroke-dasharray:none;stroke-dashoffset:0;marker:none;visibility:visible;display:block;overflow:visible" />
    <path
       d="m 42.72485,1.6170082 c 0,2.593296 0.07786,41.6402978 0.07786,43.7358098 -1.908504,0 -3.817006,0 -5.72551,0 -0.463886,-0.517848 -0.111141,-1.546007 -0.221363,-2.279128 0,-13.735126 0,-27.470252 0,-41.2053748 l 0.06471,-0.177863 0.156665,-0.07344 0,0 c 1.986362,0 3.661288,0 5.647651,0 z"
       id="path3960"
       style="fill:url(#linearGradient3917);fill-opacity:1;fill-rule:nonzero;stroke:url(#linearGradient3919);stroke-width:0.97335815;stroke-linecap:butt;stroke-linejoin:round;stroke-miterlimit:4;stroke-opacity:1;stroke-dasharray:none;stroke-dashoffset:0;marker:none;visibility:visible;display:block;overflow:visible" />
    <path
       d="m 9.379405,41.03843 2.646692,0 0,1.98719 -2.646692,0 0,-1.98719 z m 0,-3.974381 2.646692,0 0,1.987191 -2.646692,0 0,-1.987191 z m 0,-3.97438 2.646692,0 0,1.98719 -2.646692,0 0,-1.98719 z m 0,-3.97438 2.646692,0 0,1.98719 -2.646692,0 0,-1.98719 z m 0,-3.974381 2.646692,0 0,1.98719 -2.646692,0 0,-1.98719 z m 0,-3.974381 2.646692,0 0,1.98719 -2.646692,0 0,-1.98719 z m 0,-3.974381 2.646692,0 0,1.98719 -2.646692,0 0,-1.98719 z m 0,-3.97438 2.646692,0 0,1.98719 -2.646692,0 0,-1.98719 z m 0,-3.9743808 2.646692,0 0,1.9871908 -2.646692,0 0,-1.9871908 z m 0,-3.97438 2.646692,0 0,1.98719 -2.646692,0 0,-1.98719 z m 29.113616,35.7694248 2.646692,0 0,1.98719 -2.646692,0 0,-1.98719 z m 0,-3.974381 2.646692,0 0,1.987191 -2.646692,0 0,-1.987191 z m 0,-3.97438 2.646692,0 0,1.98719 -2.646692,0 0,-1.98719 z m 0,-3.97438 2.646692,0 0,1.98719 -2.646692,0 0,-1.98719 z m 0,-3.974381 2.646692,0 0,1.98719 -2.646692,0 0,-1.98719 z m 0,-3.974381 2.646692,0 0,1.98719 -2.646692,0 0,-1.98719 z m 0,-3.974381 2.646692,0 0,1.98719 -2.646692,0 0,-1.98719 z m 0,-3.97438 2.646692,0 0,1.98719 -2.646692,0 0,-1.98719 z m 0,-3.9743808 2.646692,0 0,1.9871908 -2.646692,0 0,-1.9871908 z m 0,-3.97438 2.646692,0 0,1.98719 -2.646692,0 0,-1.98719 z"
       id="rect2980"
       style="fill:#ffffff;fill-opacity:1;stroke:none" />
    <path
       sodipodi:type="inkscape:offset"
       inkscape:radius="-0.32369941"
       inkscape:original="M 8.375 2.28125 L 8.375 44.6875 L 42.125 44.6875 L 42.125 2.28125 L 8.375 2.28125 z "
       style="opacity:0.4;fill:none;stroke:url(#linearGradient3925);stroke-width:0.99992186;stroke-linecap:butt;stroke-linejoin:round;stroke-miterlimit:4;stroke-opacity:1;stroke-dasharray:none;stroke-dashoffset:0;display:inline"
       id="path3923"
       d="m 8.6875,2.59375 0,41.78125 33.125,0 0,-41.78125 -33.125,0 z" />
  </g>
</svg>
