<?xml version="1.0" encoding="UTF-8" standalone="no"?>
<!-- Created with Inkscape (http://www.inkscape.org/) -->

<svg
   xmlns:dc="http://purl.org/dc/elements/1.1/"
   xmlns:cc="http://creativecommons.org/ns#"
   xmlns:rdf="http://www.w3.org/1999/02/22-rdf-syntax-ns#"
   xmlns:svg="http://www.w3.org/2000/svg"
   xmlns="http://www.w3.org/2000/svg"
   xmlns:xlink="http://www.w3.org/1999/xlink"
   xmlns:sodipodi="http://sodipodi.sourceforge.net/DTD/sodipodi-0.dtd"
   xmlns:inkscape="http://www.inkscape.org/namespaces/inkscape"
   width="22"
   height="22"
   id="svg8214"
   version="1.1"
   inkscape:version="0.48.1 r9760"
   sodipodi:docname="liferea22.svg">
  <defs
     id="defs8216">
    <radialGradient
       inkscape:collect="always"
       xlink:href="#linearGradient2867-449-88-871-390-598-476-591-434-148-0"
       id="radialGradient6360"
       gradientUnits="userSpaceOnUse"
       gradientTransform="matrix(0,3.5234091,-3.5234073,0,-6.7439676,-205.79862)"
       cx="61.240059"
       cy="-8.7256308"
       fx="61.240059"
       fy="-8.7256308"
       r="9.7552834" />
    <linearGradient
       id="linearGradient2867-449-88-871-390-598-476-591-434-148-0">
      <stop
         id="stop4627-3"
         style="stop-color:#51cfee;stop-opacity:1"
         offset="0" />
      <stop
         id="stop4629-6"
         style="stop-color:#49a3d2;stop-opacity:1"
         offset="0.26238" />
      <stop
         id="stop4631-4"
         style="stop-color:#3470b4;stop-opacity:1"
         offset="0.704952" />
      <stop
         id="stop4633-7"
         style="stop-color:#273567;stop-opacity:1"
         offset="1" />
    </linearGradient>
    <linearGradient
       inkscape:collect="always"
       xlink:href="#linearGradient3707-319-631-6"
       id="linearGradient6362"
       gradientUnits="userSpaceOnUse"
       gradientTransform="matrix(0.98001402,0,0,0.97999168,0.08994011,0.8703621)"
       x1="20"
       y1="43"
       x2="20"
       y2="2.6887112" />
    <linearGradient
       id="linearGradient3707-319-631-6">
      <stop
         id="stop4637-5"
         style="stop-color:#254b6d;stop-opacity:1"
         offset="0" />
      <stop
         id="stop4639-8"
         style="stop-color:#415b73;stop-opacity:1"
         offset="0.5" />
      <stop
         id="stop4641-4"
         style="stop-color:#6195b5;stop-opacity:1"
         offset="1" />
    </linearGradient>
    <linearGradient
       inkscape:collect="always"
       xlink:href="#linearGradient4873-3"
       id="linearGradient6364"
       gradientUnits="userSpaceOnUse"
       gradientTransform="matrix(1.9069802,0,0,1.9069367,-94.614935,30.69494)"
       x1="62.200409"
       y1="-12.489107"
       x2="62.200409"
       y2="-1.4615115" />
    <linearGradient
       id="linearGradient4873-3">
      <stop
         id="stop4875-3"
         style="stop-color:#ffffff;stop-opacity:1"
         offset="0" />
      <stop
         id="stop4877-0"
         style="stop-color:#ffffff;stop-opacity:0"
         offset="1" />
    </linearGradient>
    <linearGradient
       inkscape:collect="always"
       xlink:href="#linearGradient4035"
       id="linearGradient5870"
       gradientUnits="userSpaceOnUse"
       x1="157.79547"
       y1="20.110691"
       x2="157.79547"
       y2="47.532818" />
    <linearGradient
       inkscape:collect="always"
       id="linearGradient4035">
      <stop
         style="stop-color:#ffffff;stop-opacity:1;"
         offset="0"
         id="stop4037" />
      <stop
         style="stop-color:#ffffff;stop-opacity:0;"
         offset="1"
         id="stop4039" />
    </linearGradient>
    <linearGradient
       inkscape:collect="always"
       xlink:href="#linearGradient4015"
       id="linearGradient5866"
       gradientUnits="userSpaceOnUse"
       gradientTransform="matrix(0.53846152,0,0,0.61341881,277.78021,281.6828)"
       x1="158.90813"
       y1="48.431599"
       x2="158.90813"
       y2="19.244049" />
    <linearGradient
       id="linearGradient4015">
      <stop
         style="stop-color:#8c8c8c;stop-opacity:1;"
         offset="0"
         id="stop4017" />
      <stop
         id="stop4029"
         offset="0.03117742"
         style="stop-color:#969696;stop-opacity:1;" />
      <stop
         id="stop4027"
         offset="0.0741232"
         style="stop-color:#a0a0a0;stop-opacity:1;" />
      <stop
         id="stop4025"
         offset="0.15525444"
         style="stop-color:#dcdcdc;stop-opacity:1;" />
      <stop
         id="stop4023"
         offset="0.5"
         style="stop-color:#e1e1e1;stop-opacity:1;" />
      <stop
         style="stop-color:#e6e6e6;stop-opacity:1;"
         offset="1"
         id="stop4019" />
    </linearGradient>
    <linearGradient
       inkscape:collect="always"
       xlink:href="#linearGradient5648"
       id="linearGradient5868"
       gradientUnits="userSpaceOnUse"
       gradientTransform="matrix(0.48837208,0,0,0.5000002,285.69434,287.18361)"
       x1="153.67767"
       y1="48.531219"
       x2="153.67767"
       y2="12.64398" />
    <linearGradient
       id="linearGradient5648">
      <stop
         style="stop-color:#646464;stop-opacity:1;"
         offset="0"
         id="stop5650" />
      <stop
         style="stop-color:#b4b4b4;stop-opacity:1;"
         offset="1"
         id="stop5652" />
    </linearGradient>
  </defs>
  <sodipodi:namedview
     id="base"
     pagecolor="#ffffff"
     bordercolor="#666666"
     borderopacity="1.0"
     inkscape:pageopacity="0.0"
     inkscape:pageshadow="2"
     inkscape:zoom="16"
     inkscape:cx="6.7083001"
     inkscape:cy="9.6535807"
     inkscape:document-units="px"
     inkscape:current-layer="layer1"
     showgrid="false"
     fit-margin-top="0"
     fit-margin-left="0"
     fit-margin-right="0"
     fit-margin-bottom="0" />
  <metadata
     id="metadata8219">
    <rdf:RDF>
      <cc:Work
         rdf:about="">
        <dc:format>image/svg+xml</dc:format>
        <dc:type
           rdf:resource="http://purl.org/dc/dcmitype/StillImage" />
        <dc:title />
      </cc:Work>
    </rdf:RDF>
  </metadata>
  <g
     inkscape:label="Capa 1"
     inkscape:groupmode="layer"
     id="layer1"
     transform="translate(-351.85712,-289.93362)">
    <path
       style="color:#000000;fill:url(#linearGradient5866);fill-opacity:1;stroke:url(#linearGradient5868);stroke-width:1.00000012;stroke-linecap:round;stroke-linejoin:round;stroke-miterlimit:4;stroke-opacity:1;stroke-dasharray:none;stroke-dashoffset:0;marker:none;visibility:visible;display:inline;overflow:visible;enable-background:accumulate"
       d="m 352.35713,293.43361 c 0,5.20128 0,10.40255 0,15.60383 0,1.32164 0.92641,2.39616 2.08654,2.39616 l 16.82691,0 c 1.16016,0 2.08655,-1.07452 2.08655,-2.39616 0,-5.2555 0,-10.40255 0,-15.60383 -6.99999,0 -13.99999,0 -21,0 z"
       id="path5820"
       inkscape:connector-curvature="0"
       sodipodi:nodetypes="ccssccc" />
    <path
       sodipodi:type="inkscape:offset"
       inkscape:radius="-0.97227168"
       inkscape:original="M 138.5 19.15625 L 138.5 44.59375 C 138.5 46.748304 140.22045 48.5 142.375 48.5 L 173.625 48.5 C 175.77955 48.5 177.5 46.748304 177.5 44.59375 L 177.5 19.15625 L 138.5 19.15625 z "
       style="color:#000000;fill:none;stroke:url(#linearGradient5870);stroke-width:1.80172014;stroke-linecap:round;stroke-linejoin:round;stroke-miterlimit:4;stroke-opacity:1;stroke-dasharray:none;stroke-dashoffset:0;marker:none;visibility:visible;display:inline;overflow:visible;enable-background:accumulate"
       id="path5822"
       d="m 139.46875,20.125 0,24.46875 c 0,1.63697 1.27869,2.9375 2.90625,2.9375 l 31.25,0 c 1.62756,0 2.90625,-1.30053 2.90625,-2.9375 l 0,-24.46875 -37.0625,0 z"
       transform="matrix(0.51264756,0,0,0.60090576,281.85882,282.34038)" />
    <g
       transform="scale(1.0224816,0.97801271)"
       style="font-size:5.9727931px;font-style:normal;font-variant:normal;font-weight:500;font-stretch:normal;text-align:start;line-height:125%;letter-spacing:0px;word-spacing:0px;writing-mode:lr-tb;text-anchor:start;fill:#3c3c3c;fill-opacity:1;stroke:none;display:inline;enable-background:new;font-family:English Towne;-inkscape-font-specification:English Towne Medium"
       id="text5824">
      <path
         d="m 352.6401,301.72349 c -0.12344,0.0637 -0.23493,0.0956 -0.33447,0.0956 -0.15928,0 -0.3305,-0.0717 -0.51366,-0.21502 l -0.65701,0.62714 0.14335,0.14335 0.11348,-0.0956 c 0.0836,0.0796 0.22497,0.11946 0.42407,0.11945 l 0.0299,0 0.012,-0.006 0.0119,0 0.006,0.69882 -0.012,0 -0.0478,0.0119 -0.0239,0 c -0.0239,0.012 -0.0836,0.0179 -0.17919,0.0179 -0.004,0.004 -0.0259,0.006 -0.0657,0.006 -0.15131,10e-6 -0.25683,-0.0199 -0.31655,-0.0597 -0.10354,-0.18715 -0.18715,-0.33846 -0.25086,-0.45394 -0.0597,-0.11945 -0.1115,-0.219 -0.15529,-0.29864 -0.16326,-0.23891 -0.29466,-0.40415 -0.39421,-0.49574 -0.15131,-0.13936 -0.33448,-0.20904 -0.5495,-0.20905 -0.219,10e-6 -0.40216,0.0856 -0.54949,0.25683 -0.15131,0.16326 -0.22697,0.3524 -0.22697,0.56742 0,0.15529 0.0418,0.2409 0.12543,0.25683 l -0.012,-0.012 0.0418,0 c 0.012,-0.13538 0.10154,-0.24488 0.26878,-0.3285 0.008,-0.008 0.0179,-0.0119 0.0299,-0.012 0.0159,10e-6 0.0299,-0.002 0.0418,-0.006 0.0279,-0.008 0.0558,-0.0139 0.0836,-0.0179 0.0319,-0.008 0.0577,-0.0199 0.0777,-0.0358 l 0.0119,0 0,0.97953 c -0.0717,0.008 -0.12941,0.0159 -0.17321,0.0239 -0.0438,0.008 -0.0737,0.0139 -0.0896,0.0179 -0.1752,0.0717 -0.2628,0.22896 -0.2628,0.47185 0,0.1115 0.0358,0.20905 0.10751,0.29267 0.0717,0.0836 0.15927,0.12543 0.2628,0.12543 l 0,-0.0418 0,-0.0239 -0.006,-0.006 c 0,-0.0319 0.008,-0.0637 0.0239,-0.0956 0.0199,-0.0358 0.0438,-0.0537 0.0717,-0.0537 l 0.0119,0 c 0.0119,0.008 0.0219,0.0139 0.0299,0.0179 0.008,0 0.0159,0.002 0.0239,0.006 l 0,0.80035 c -0.3942,0.11946 -0.64904,0.39023 -0.76451,0.8123 0.0239,-0.008 0.0518,-0.0199 0.0836,-0.0358 0.0358,-0.012 0.0538,-0.0179 0.0538,-0.0179 0.0159,-0.008 0.0358,-0.0199 0.0597,-0.0358 l 0,0.006 c 0.16724,-0.0796 0.34045,-0.11945 0.51963,-0.11945 0.24289,0 0.50371,0.0876 0.78244,0.2628 l 0.47782,-0.62714 -0.1314,-0.1314 -0.0717,0.0956 c -0.11548,-0.0796 -0.23294,-0.13936 -0.3524,-0.17918 -0.11946,-0.0438 -0.24488,-0.0657 -0.37629,-0.0657 l -0.0358,0 -0.012,0.006 -0.006,0 0,-0.57339 c 0.0956,-0.0637 0.24886,-0.0956 0.4599,-0.0956 0.15928,0 0.34244,0.0438 0.5495,0.1314 0.0199,0.0438 0.0398,0.0876 0.0597,0.1314 0.0199,0.0398 0.0398,0.0777 0.0597,0.11348 0.0796,0.15529 0.13936,0.27873 0.17918,0.37031 0.0438,0.0876 0.0856,0.16127 0.12543,0.221 l -0.006,0 c 0.22298,0.40217 0.43203,0.60325 0.62714,0.60325 l 0.0358,0 0,-3.30893 c 0.0119,-0.004 0.0259,-0.008 0.0418,-0.0119 0.0199,-0.008 0.0418,-0.0199 0.0657,-0.0358 l 0,0.006 c 0.1075,-0.0557 0.20705,-0.13139 0.29864,-0.22696 0.0597,-0.0597 0.10352,-0.11746 0.1314,-0.17321 0.0279,-0.0557 0.0438,-0.11149 0.0478,-0.16724 l -0.0358,-0.0239 m -2.1502,2.1502 c -0.12344,0 -0.2867,0.0279 -0.48977,0.0836 l 0,-1.60071 c 0.0916,0.0438 0.20307,0.18516 0.33448,0.42407 0.0637,0.12742 0.1533,0.31855 0.26877,0.57339 0.0677,0.14733 0.12344,0.26878 0.16724,0.36434 0.0438,0.0916 0.0776,0.16127 0.10154,0.20905 -0.12742,-0.0358 -0.25484,-0.0538 -0.38226,-0.0538 m 0.98551,-0.23294 c -0.0358,-0.0796 -0.0657,-0.14533 -0.0896,-0.1971 -0.0239,-0.0518 -0.0418,-0.0916 -0.0538,-0.11945 0.0478,0.0159 0.0995,0.0239 0.1553,0.0239 l 0.16126,0 c 0.0478,0 0.0896,-0.002 0.12543,-0.006 0.0398,-0.004 0.0717,-0.0119 0.0956,-0.0239 l 0.006,1.06913 c -0.0597,-0.0876 -0.12344,-0.19113 -0.19113,-0.31058 -0.0637,-0.12344 -0.1334,-0.26878 -0.20905,-0.43602"
         style=""
         id="path3048" />
      <path
         d="m 354.69932,303.83786 c -0.0398,-0.0557 -0.0836,-0.12145 -0.1314,-0.19711 -0.0438,-0.0796 -0.0916,-0.16524 -0.14335,-0.25683 -0.0557,-0.10352 -0.0996,-0.1971 -0.1314,-0.28072 -0.0319,-0.0836 -0.0577,-0.16126 -0.0776,-0.23294 -0.3942,0.26281 -0.74859,0.39421 -1.06316,0.39421 l -0.0239,0 -0.0179,-0.006 -0.0179,0 -0.006,-0.006 -0.0358,0 -0.0538,-0.0537 0,0.0836 c 0.0637,0.13936 0.0956,0.23891 0.0956,0.29864 l 0,1.44541 c -0.0796,0.0597 -0.1334,0.10751 -0.16127,0.14335 -0.004,0.004 -0.0159,0.0199 -0.0358,0.0478 -0.0159,0.0279 -0.0378,0.0637 -0.0657,0.10751 l 0,-0.006 c -0.008,0.008 -0.0159,0.0199 -0.0239,0.0358 -0.008,0.012 -0.0159,0.0279 -0.0239,0.0478 0.0478,-0.008 0.0956,-0.0139 0.14335,-0.0179 0.0478,-0.008 0.0956,-0.012 0.14335,-0.012 0.12741,0 0.27873,0.0179 0.45393,0.0538 0.10353,0.0199 0.19511,0.0478 0.27475,0.0836 0.0796,0.0398 0.16126,0.0816 0.24488,0.12543 l 0.0597,0.0299 0.54352,-0.59728 -0.14932,-0.13737 -0.14334,0.14932 c -0.0916,-0.0438 -0.19113,-0.0816 -0.29864,-0.11349 -0.10353,-0.0318 -0.21702,-0.0577 -0.34045,-0.0776 l 0,-0.44796 c 0.0438,-0.0319 0.0836,-0.0577 0.11945,-0.0777 0.2429,-0.14334 0.43402,-0.25484 0.57339,-0.33448 0.14335,-0.0836 0.23891,-0.13737 0.2867,-0.16126 l 0.006,-0.0299 m -0.79438,-0.11349 c 0.0279,0.0597 0.0518,0.10951 0.0717,0.14932 0.0239,0.0358 0.0438,0.0657 0.0597,0.0896 l -0.32253,0.20905 0,-0.76452 0.0478,-0.0119 c 0.0199,0.0557 0.0418,0.11149 0.0657,0.16724 0.0239,0.0557 0.0498,0.1095 0.0777,0.16126"
         style=""
         id="path3050" />
      <path
         d="m 358.33012,303.22266 c -0.0199,0.008 -0.0339,0.0159 -0.0418,0.0239 -0.0159,0.004 -0.0279,0.006 -0.0358,0.006 -0.008,0 -0.0159,0.002 -0.0239,0.006 l 0,0.006 -0.006,0 c -0.008,0.004 -0.0159,0.006 -0.0239,0.006 -0.0358,0 -0.0557,-0.002 -0.0597,-0.006 -0.12742,-0.012 -0.2409,-0.12145 -0.34045,-0.32851 l -0.657,0.4838 0.0896,0.14335 0.0717,-0.0299 c 0.0637,0.0757 0.12344,0.12145 0.17919,0.13738 l 0,1.44541 c -10e-6,0.0757 -0.0358,0.11349 -0.10751,0.11349 l -0.0657,0 c -0.004,0 -0.008,0 -0.012,0 0,-0.004 0,-0.006 0,-0.006 -0.0159,-0.008 -0.0338,-0.0139 -0.0538,-0.0179 -0.0199,-0.008 -0.0358,-0.0159 -0.0478,-0.0239 -0.1314,-0.0637 -0.1971,-0.16524 -0.1971,-0.30461 l 0,-1.5589 c -0.008,-0.0319 -0.0139,-0.0537 -0.0179,-0.0657 -0.008,-0.0119 -0.0139,-0.0239 -0.0179,-0.0358 0,-0.0119 -0.002,-0.0219 -0.006,-0.0299 -0.0438,-0.11149 -0.14733,-0.20904 -0.31058,-0.29267 l -0.60923,0.52561 0,0.0478 c 0.0717,0 0.14135,0.0239 0.20905,0.0717 0.0677,0.0438 0.10153,0.0936 0.10154,0.14932 l 0,1.33193 c -0.0239,0.0159 -0.0498,0.0279 -0.0776,0.0358 -0.004,0.004 -0.01,0.008 -0.0179,0.0119 -0.004,0.004 -0.008,0.008 -0.0119,0.012 l -0.0239,0.0239 c -0.0239,-0.0199 -0.0538,-0.0398 -0.0896,-0.0597 -0.0358,-0.0199 -0.0757,-0.0398 -0.11945,-0.0597 -0.0199,-0.008 -0.0319,-0.0119 -0.0358,-0.0119 -0.004,-0.004 -0.0159,-0.01 -0.0358,-0.0179 -0.0438,0 -0.0756,-0.008 -0.0956,-0.0239 l 0,-1.48126 c 0,-0.12343 -0.0398,-0.23492 -0.11946,-0.33447 -0.0796,-0.0996 -0.17918,-0.17122 -0.29864,-0.21502 l -0.60325,0.60325 0.0478,0.0299 0.0179,0 0.012,0.006 0.0478,0 0.0179,0.006 0.0119,0 c 0.0836,0 0.1553,0.0597 0.21502,0.17918 l 0,1.29013 -0.006,0 -0.006,0.0119 c -0.12344,0.0916 -0.20507,0.20706 -0.24489,0.34642 0.0199,-0.008 0.0398,-0.0139 0.0597,-0.0179 0.0239,-0.004 0.0438,-0.006 0.0597,-0.006 l 0.012,-0.006 0.0119,0 c 0.12344,0 0.2409,0.0279 0.3524,0.0836 0.11149,0.0557 0.22497,0.13538 0.34044,0.23891 0.0597,-0.0438 0.1115,-0.0816 0.1553,-0.11348 0.0438,-0.0319 0.0737,-0.0538 0.0896,-0.0657 l 0,0.006 c 0.0239,-0.0159 0.0398,-0.0259 0.0478,-0.0299 l 0.012,-0.006 0.0119,-0.0119 c 0.004,-0.004 0.0219,-0.012 0.0538,-0.0239 0.0717,-0.0398 0.15728,-0.0916 0.25683,-0.1553 0.0677,0.10751 0.15728,0.1991 0.26877,0.27475 0.11548,0.0796 0.23294,0.12344 0.3524,0.1314 0.0518,-0.0239 0.0936,-0.0458 0.12543,-0.0657 0.0358,-0.0159 0.0657,-0.0279 0.0896,-0.0358 0.28669,-0.13141 0.57338,-0.19711 0.86008,-0.19711 l 0.012,0 c 0.0119,0.004 0.0537,0.006 0.12543,0.006 -0.0438,-0.0637 -0.0657,-0.0976 -0.0657,-0.10154 -0.0398,-0.0558 -0.0597,-0.11348 -0.0597,-0.17321 l 0,-1.45139 c 0.15529,-0.0916 0.2409,-0.22697 0.25683,-0.40615 l -0.0299,-0.0239"
         style=""
         id="path3052" />
      <path
         d="m 360.72092,302.95985 -0.16126,0.0119 c -0.0717,0.11548 -0.16525,0.17321 -0.28073,0.17321 -0.11149,0 -0.23095,-0.0737 -0.35836,-0.22099 -0.14335,0.14335 -0.22299,0.219 -0.23892,0.22696 -0.17122,0.0916 -0.34841,0.13738 -0.53157,0.13738 -0.0358,0 -0.0557,-0.002 -0.0597,-0.006 -0.11149,0 -0.18118,-0.008 -0.20905,-0.0239 -0.0438,1e-5 -0.0856,-0.0179 -0.12543,-0.0537 0,0.0199 0,0.0378 0,0.0537 0,0.0159 0.004,0.0279 0.0119,0.0358 l 0,0.006 0.0179,0.0418 c 0,0.0159 0.002,0.0259 0.006,0.0299 l 0,-0.006 c 0,0.004 0,0.008 0,0.012 0.004,0 0.006,0.002 0.006,0.006 l 0.006,1.03927 -0.006,0.0119 c 0,0.0518 -0.0179,0.10154 -0.0538,0.14932 l 0.006,-0.0179 -0.0418,0.0418 0.3942,0.0179 c -0.0239,0.0239 -0.0458,0.0458 -0.0657,0.0657 -0.0159,0.0199 -0.0299,0.0358 -0.0418,0.0478 l -0.0239,0.0239 c -0.13538,0.16724 -0.24289,0.32452 -0.32253,0.47185 -0.0796,0.14335 -0.13538,0.2847 -0.16724,0.42407 l 0.17321,0 c 0.0717,-0.1752 0.1991,-0.26281 0.38226,-0.26281 0.0438,0 0.0777,0.006 0.10154,0.0179 0.0358,0 0.0677,0.006 0.0956,0.0179 0.0279,0.0159 0.0577,0.0378 0.0896,0.0657 l 0.17321,0.17321 c 0.19511,-0.20705 0.44397,-0.31058 0.7466,-0.31058 l 0.0358,0 c 0.012,0.004 0.0478,0.006 0.10751,0.006 0.0199,0.012 0.0458,0.0199 0.0777,0.0239 0.0319,0 0.0717,0 0.11946,0 0.008,0 0.0139,0.002 0.0179,0.006 l -0.006,0 c 0.008,0.004 0.0339,0.006 0.0777,0.006 l -0.0239,-0.0478 c -0.012,-0.0199 -0.0239,-0.0398 -0.0358,-0.0597 -0.012,-0.0199 -0.0139,-0.0259 -0.006,-0.0179 l 0.006,0.0119 c -0.004,-0.0199 -0.006,-0.0299 -0.006,-0.0299 0,-0.004 -0.002,-0.008 -0.006,-0.012 l 0,0.006 -0.006,-0.0119 0,-0.0179 c -0.004,-0.004 -0.006,-0.01 -0.006,-0.0179 l 0,-1.01538 c 0,0.004 0.002,-0.002 0.006,-0.0179 0.004,-0.0199 0.008,-0.0358 0.012,-0.0478 l 0,0.006 c 0,-0.004 0,-0.008 0,-0.0119 0.004,-0.004 0.006,-0.01 0.006,-0.0179 l 0.006,-0.012 0,-0.0119 0.012,-0.012 0,-0.0119 0.006,-0.006 c 0,-0.0119 0.002,-0.0219 0.006,-0.0299 0,-0.004 0,-0.0119 0,-0.0239 0.004,-0.012 0.006,-0.0199 0.006,-0.0239 l -0.56145,0.0119 c 0.33448,-0.34244 0.55348,-0.67293 0.65701,-0.99148 l -0.0239,-0.0299 m -0.75257,2.20397 -0.0239,0 c -0.0199,0.008 -0.0358,0.0139 -0.0478,0.0179 -0.008,0 -0.0119,0 -0.0119,0 l -0.0239,0.0119 c -0.14733,-0.18317 -0.32452,-0.27475 -0.53158,-0.27475 -0.0199,0 -0.0478,0.004 -0.0836,0.012 -0.0358,0.004 -0.0777,0.01 -0.12543,0.0179 0.0518,-0.0518 0.0956,-0.0975 0.1314,-0.13737 0.0358,-0.0438 0.0677,-0.0796 0.0956,-0.10751 l 0.31058,-0.31058 0.30462,0 0.0119,0.0119 0,0.75257 -0.006,0.006 m -0.0956,-1.27221 c -0.0916,0.0916 -0.16724,0.16525 -0.22696,0.22099 -0.0557,0.0557 -0.0996,0.0936 -0.1314,0.11349 l -0.0657,0 0,-0.75257 c 0.0199,0 0.0418,-0.006 0.0657,-0.0179 l 0.0239,0 c 0.004,-0.004 0.0119,-0.008 0.0239,-0.012 0.14733,0.11548 0.27873,0.17321 0.3942,0.17321 0.0757,0 0.14733,-0.0139 0.21502,-0.0418 -0.0637,0.0677 -0.16325,0.17322 -0.29864,0.31656"
         style=""
         id="path3054" />
    </g>
    <path
       inkscape:connector-curvature="0"
       id="path5832"
       d="m 354.35713,303.44964 4,0"
       style="fill:none;stroke:#787878;stroke-width:1;stroke-linecap:square;stroke-linejoin:miter;stroke-miterlimit:4;stroke-opacity:1;stroke-dasharray:none;display:inline;enable-background:new" />
    <path
       inkscape:connector-curvature="0"
       id="path5838"
       d="m 354.857,300.88761 16.00027,0"
       style="fill:none;stroke:#646464;stroke-width:1.99999964;stroke-linecap:square;stroke-linejoin:miter;stroke-miterlimit:4;stroke-opacity:1;stroke-dasharray:none;display:inline;enable-background:new" />
    <path
       inkscape:connector-curvature="0"
       id="path5854"
       d="m 354.35713,305.43361 3.99982,0"
       style="fill:none;stroke:#787878;stroke-width:1;stroke-linecap:square;stroke-linejoin:miter;stroke-miterlimit:4;stroke-opacity:1;stroke-dasharray:none;display:inline;enable-background:new" />
    <path
       style="fill:none;stroke:#787878;stroke-width:1;stroke-linecap:square;stroke-linejoin:miter;stroke-miterlimit:4;stroke-opacity:1;stroke-dasharray:none;display:inline;enable-background:new"
       d="m 354.35713,307.43361 3.99982,0"
       id="path5856"
       inkscape:connector-curvature="0" />
    <path
       inkscape:connector-curvature="0"
       id="path5858"
       d="m 354.35713,309.43361 3.99982,0"
       style="fill:none;stroke:#787878;stroke-width:1;stroke-linecap:square;stroke-linejoin:miter;stroke-miterlimit:4;stroke-opacity:1;stroke-dasharray:none;display:inline;enable-background:new" />
    <path
       style="fill:none;stroke:#787878;stroke-width:1;stroke-linecap:square;stroke-linejoin:miter;stroke-miterlimit:4;stroke-opacity:1;stroke-dasharray:none;display:inline;enable-background:new"
       d="m 367.35713,303.44964 4,0"
       id="path5872"
       inkscape:connector-curvature="0" />
    <path
       style="fill:none;stroke:#787878;stroke-width:1;stroke-linecap:square;stroke-linejoin:miter;stroke-miterlimit:4;stroke-opacity:1;stroke-dasharray:none;display:inline;enable-background:new"
       d="m 367.35713,305.43361 3.99982,0"
       id="path5874"
       inkscape:connector-curvature="0" />
    <path
       inkscape:connector-curvature="0"
       id="path5876"
       d="m 367.35713,307.43361 3.99982,0"
       style="fill:none;stroke:#787878;stroke-width:1;stroke-linecap:square;stroke-linejoin:miter;stroke-miterlimit:4;stroke-opacity:1;stroke-dasharray:none;display:inline;enable-background:new" />
    <path
       style="fill:none;stroke:#787878;stroke-width:1;stroke-linecap:square;stroke-linejoin:miter;stroke-miterlimit:4;stroke-opacity:1;stroke-dasharray:none;display:inline;enable-background:new"
       d="m 367.35713,309.43361 3.99982,0"
       id="path5878"
       inkscape:connector-curvature="0" />
    <path
       inkscape:connector-curvature="0"
       id="path6368"
       d="m 360.14333,303.07464 0,0.95164 c 2.44592,0.0456 4.42228,2.02323 4.46723,4.47142 l 0.96037,0 c -0.0454,-2.97795 -2.45234,-5.37774 -5.4276,-5.42306 z m 0,2.19443 0,0.86039 c 1.29101,0.0449 2.3277,1.07616 2.37267,2.36824 l 0.86042,0 c -0.0453,-1.76851 -1.46614,-3.18336 -3.23309,-3.22863 z m 0.56493,2.17269 c -0.1514,0 -0.26887,0.0558 -0.37373,0.16078 -0.10499,0.10323 -0.15643,0.21349 -0.15643,0.36501 0,0.14917 0.0517,0.26651 0.15643,0.36937 0.10434,0.10255 0.22117,0.15209 0.37373,0.15209 0.14782,0 0.25796,-0.0493 0.36068,-0.15209 0.10518,-0.10528 0.16078,-0.22258 0.16078,-0.36937 0,-0.15152 -0.0558,-0.26178 -0.16078,-0.36501 -0.10328,-0.10523 -0.21404,-0.16078 -0.36068,-0.16078 z"
       style="font-size:13.58991337px;font-style:normal;font-variant:normal;font-weight:bold;font-stretch:normal;text-align:start;line-height:125%;writing-mode:lr-tb;text-anchor:start;fill:#646464;fill-opacity:1;fill-rule:nonzero;stroke:#646464;stroke-width:0.25;stroke-miterlimit:4;stroke-opacity:1;stroke-dasharray:none;marker:none;visibility:visible;display:inline;overflow:visible;enable-background:accumulate;font-family:Bitstream Vera Serif" />
    <g
       style="display:inline;enable-background:new"
       transform="matrix(0.20017792,0,0,0.20017792,351.45632,302.72507)"
       id="g6346">
      <path
         inkscape:connector-curvature="0"
         d="M 43.500003,23.999309 C 43.500003,34.769208 34.768912,43.5 24.000248,43.5 13.230599,43.5 4.5000032,34.769109 4.5000032,23.999309 4.5000032,13.229904 13.230599,4.5 24.000248,4.5 c 10.768664,0 19.499755,8.729904 19.499755,19.499309 l 0,0 z"
         id="path6350"
         style="fill:url(#radialGradient6360);fill-opacity:1;fill-rule:nonzero;stroke:url(#linearGradient6362);stroke-width:4.99555588;stroke-miterlimit:4;stroke-dasharray:none" />
      <path
         inkscape:connector-curvature="0"
         d="m 24.329633,5.218182 -2.362344,0.2704567 -2.59858,0.7099494 c 0.221353,-0.077615 0.445595,-0.1623374 0.674956,-0.2366499 L 19.739934,5.4210246 18.727501,5.5900601 18.221284,6.0633596 17.445085,6.1647809 16.736382,6.502852 16.398905,6.6718876 16.29766,6.807116 15.791444,6.9085373 15.487716,7.5508723 15.08274,6.7395017 l -0.134989,0.3380711 0.0675,0.9127919 -0.641208,0.5409137 -0.371225,0.9804061 0.7762,0 0.303728,-0.642335 0.101245,-0.2366498 c 0.341288,-0.241775 0.66483,-0.5110331 1.012433,-0.7437563 l 0.809946,0.2704568 c 0.527335,0.3588995 1.058376,0.7234732 1.586147,1.0818274 L 19.368709,8.5312784 18.491266,8.1594002 18.086294,7.3480297 16.601391,7.1789941 16.567641,7.0099586 17.208847,7.145187 17.580075,6.7733087 18.390021,6.6042734 C 18.581694,6.5108897 18.770243,6.44363 18.963732,6.3676236 l -0.506216,0.4732995 1.82238,1.250863 0,0.7437562 -0.708703,0.7099493 0.944937,1.8931994 0.641208,-0.371881 0.809948,-1.2508614 c 1.138725,-0.3526792 2.165016,-0.7630693 3.239789,-1.2508632 l -0.0675,0.4732995 0.539963,0.3718782 0.944939,-0.6423349 -0.47247,-0.5409137 -0.641209,0.3718781 -0.202486,-0.067613 c 0.04651,-0.02129 0.08828,-0.045973 0.13499,-0.067613 L 26.388247,6.0295525 24.329633,5.218182 z m -9.246893,3.6511675 0.776199,0.5409136 0.641209,0 0,-0.6423349 L 15.72395,8.429857 15.08274,8.8693495 z M 33.002811,8.429857 31.619153,8.7679282 30.741712,9.342649 l 0,0.5071058 -1.383659,0.8789842 0.269983,1.31848 0.809946,-0.574723 0.506216,0.574723 0.573714,0.338071 0.371224,-0.980408 -0.202486,-0.57472 0.202486,-0.405687 0.809948,-0.7437548 0.371225,0 -0.371225,0.8113728 0,0.743754 c 0.333836,-0.09103 0.6708,-0.126483 1.012433,-0.169037 l -0.944938,0.676145 -0.0675,0.405683 -1.079929,0.912794 -1.113678,-0.270459 0,-0.642335 -0.506216,0.338072 0.236235,0.574722 -0.809947,0 -0.438721,0.743756 -0.539965,0.608528 -0.978685,0.202842 0.573712,0.574721 0.134991,0.57472 -0.708703,0 -0.944938,0.507108 0,1.48751 0.438721,0 0.404973,0.439494 0.91119,-0.439494 0.337478,-0.912791 0.674956,-0.405685 0.134991,-0.338071 1.079928,-0.270457 0.60746,0.676142 0.641209,0.338071 -0.371227,0.743758 0.573715,-0.169037 0.303728,-0.743757 -0.74245,-0.845177 0.303729,0 0.742451,0.608528 0.134992,0.811371 0.641207,0.743757 0.168739,-1.081827 0.337478,-0.169037 c 0.359225,0.373574 0.642383,0.83043 0.944938,1.250864 l 1.113677,0.06762 0.641207,0.405686 -0.303729,0.439492 -0.641208,0.574721 -0.944939,0 -1.248667,-0.405684 -0.641208,0.06762 -0.472469,0.540915 -1.349912,-1.352286 -0.944937,-0.270456 -1.383659,0.169036 -1.21492,0.33807 c -0.693063,0.7871 -1.402636,1.582869 -2.058616,2.400307 l -0.776198,1.893195 0.371226,0.405687 -0.674956,0.980406 0.742451,1.724162 c 0.617799,0.700089 1.239228,1.395452 1.856128,2.09604 l 0.91119,-0.777564 0.371226,0.473301 0.978687,-0.642335 0.337477,0.371878 0.978685,0 0.573713,0.642335 -0.337478,1.149442 0.674955,0.777564 -0.03375,1.352283 0.506216,0.980406 -0.371225,0.845178 c -0.03619,0.60617 -0.0675,1.18551 -0.0675,1.791777 0.297757,0.821342 0.59628,1.640668 0.877443,2.467918 l 0.202487,1.318476 0,0.676143 0.539963,0 0.7762,-0.507106 0.944939,0 1.417406,-1.588934 -0.168739,-0.540915 0.944939,-0.845177 -0.708705,-0.777563 0.843694,-0.676141 0.809948,-0.507109 0.371225,-0.405685 -0.236234,-0.912791 c 0,-0.768475 2e-6,-1.530306 0,-2.298884 l 0.641209,-1.419897 0.809945,-0.878985 0.877443,-2.163655 0,-0.574721 c -0.436643,0.0551 -0.855168,0.10478 -1.282416,0.13523 l 0.877442,-0.878986 1.21492,-0.81137 0.641209,-0.743758 0,-0.811369 C 41.631793,22.01604 41.484928,21.720356 41.338501,21.44561 l -0.573712,0.676141 -0.438721,-0.507105 -0.641209,-0.507107 0,-1.048021 0.742452,0.845178 0.843696,-0.101421 c 0.380615,0.346139 0.746089,0.65392 1.079927,1.04802 l 0.539978,-0.608545 c 0,-0.655131 -0.736573,-3.889319 -2.328596,-6.626192 -1.592024,-2.735972 -4.387213,-5.240102 -4.387211,-5.240102 l -0.202488,0.3718783 -0.742451,0.8113707 -0.944937,-0.9804063 0.944937,0 L 35.668888,9.1059992 33.914003,8.7679282 33.002811,8.429857 z M 12.720395,8.8693495 12.382918,9.7483343 c 0,0 -0.590841,0.097717 -0.74245,0.1352286 -1.9362043,1.7873441 -5.8406714,5.6641681 -6.7495557,12.9481221 0.035987,0.168879 0.6412078,1.14944 0.6412078,1.14944 l 1.4849023,0.878986 1.4849024,0.405684 0.6412079,0.777564 0.9786853,0.743756 0.573712,-0.101421 0.404974,0.202844 0,0.135226 -0.539965,1.521321 -0.438721,0.642336 0.134991,0.304263 -0.3374777,1.217057 1.2486677,2.298882 1.282416,1.115635 0.573711,0.81137 -0.0675,1.690355 0.404974,0.946598 -0.404974,1.825586 c 0,0 -0.05404,-0.01501 0,0.169036 0.05452,0.184134 2.25593,1.422835 2.396091,1.318476 0.139681,-0.106305 0.269983,-0.202843 0.269983,-0.202843 l -0.13499,-0.405685 0.573712,-0.540913 0.202486,-0.574722 0.911191,-0.304265 0.708702,-1.757968 -0.202486,-0.4733 0.472468,-0.743756 1.07993,-0.236649 0.539965,-1.28467 -0.134992,-1.588935 0.843695,-1.183247 0.13499,-1.217056 c -1.15759,-0.575052 -2.293316,-1.165913 -3.442272,-1.75797 l -0.573713,-1.115634 -1.046181,-0.23665 -0.573712,-1.521321 -1.383659,0.169035 -1.214921,-0.878983 -1.282415,1.115634 0,0.169036 C 10.716387,26.202752 10.261353,26.186409 9.9193333,25.975746 l -0.2699819,-0.811371 0,-0.878985 -0.8774423,0.101421 c 0.070612,-0.559892 0.1651315,-1.13056 0.2362324,-1.690355 l -0.5062167,0 -0.5062167,0.642335 -0.4724689,0.23665 -0.7087034,-0.405685 -0.067496,-0.878985 0.1349912,-0.946599 1.0461812,-0.811371 0.8436945,0 0.1687389,-0.473299 1.0461817,0.236648 0.7761987,0.980407 0.134991,-1.622742 1.349911,-1.115633 0.472468,-1.183248 1.012435,-0.405685 0.539964,-0.811372 1.282416,-0.23665 0.641208,-0.946599 c -0.634667,0 -1.288957,0 -1.923624,0 l 1.214921,-0.574721 0.843693,0 1.07993,-0.371877 0.202487,1.04802 0.472469,-0.743757 -0.539966,-0.371878 0.134992,-0.439491 -0.438721,-0.405687 -0.47247,-0.135228 0.134992,-0.507106 -0.371226,-0.709948 -0.843695,0.33807 0.134992,-0.642334 -0.978686,-0.574722 -0.776198,1.352284 0.0675,0.4733 -0.776198,0.338071 -0.472469,1.04802 -0.236234,-0.980407 -1.316164,-0.540913 -0.236234,-0.743756 1.788632,-1.014213 0.776198,-0.743757 0.0675,-0.8789846 -0.438721,-0.2366498 -0.573713,-0.067613 z m 14.477799,1.6227435 0,0.54091 0.30373,0.338072 0,0.811371 -0.168739,1.081827 0.877442,-0.169036 0.641209,-0.642334 -0.573713,-0.540915 c -0.186049,-0.496308 -0.3746,-0.943871 -0.607459,-1.419895 l -0.47247,0 z m -0.742452,1.081824 -0.539963,0.169038 0.13499,0.980405 0.708703,-0.371881 -0.30373,-0.777562 z m 9.888101,8.89127 0.809946,0.946598 0.978686,2.096042 0.607459,0.67614 -0.303728,0.709952 0.539964,0.642335 c -0.247792,0.01643 -0.487764,0.03381 -0.742451,0.03381 -0.462673,-0.973935 -0.828843,-1.956133 -1.181173,-2.975025 l -0.60746,-0.676142 -0.337478,-1.217056 0.236235,-0.23665 z"
         id="path6352"
         style="opacity:0.4;fill:#000000;fill-opacity:1;fill-rule:nonzero;stroke:none" />
      <path
         inkscape:connector-curvature="0"
         d="m 40.677498,23.999408 c 0,9.211023 -7.46732,16.678087 -16.677285,16.678087 -9.21081,0 -16.6777066,-7.467148 -16.6777066,-16.678087 0,-9.210599 7.4668966,-16.6769046 16.6777066,-16.6769046 9.209965,0 16.677285,7.4663056 16.677285,16.6769046 l 0,0 z"
         id="path6354"
         style="opacity:0.4;fill:none;stroke:url(#linearGradient6364);stroke-width:4.99555922;stroke-miterlimit:4;stroke-opacity:1;stroke-dasharray:none" />
      <g
         transform="matrix(0.9999061,-0.01370139,0.01370139,0.9999061,-0.2886966,0.5358538)"
         id="g6356" />
    </g>
  </g>
</svg>
