<?xml version="1.0" encoding="UTF-8" standalone="no"?>
<!-- Created with Inkscape (http://www.inkscape.org/) -->

<svg
   xmlns:dc="http://purl.org/dc/elements/1.1/"
   xmlns:cc="http://creativecommons.org/ns#"
   xmlns:rdf="http://www.w3.org/1999/02/22-rdf-syntax-ns#"
   xmlns:svg="http://www.w3.org/2000/svg"
   xmlns="http://www.w3.org/2000/svg"
   xmlns:xlink="http://www.w3.org/1999/xlink"
   xmlns:sodipodi="http://sodipodi.sourceforge.net/DTD/sodipodi-0.dtd"
   xmlns:inkscape="http://www.inkscape.org/namespaces/inkscape"
   version="1.0"
   width="22"
   height="22"
   id="svg3200"
   inkscape:version="0.47 r22583"
   sodipodi:docname="pitivi22c.svg">
  <metadata
     id="metadata4893">
    <rdf:RDF>
      <cc:Work
         rdf:about="">
        <dc:format>image/svg+xml</dc:format>
        <dc:type
           rdf:resource="http://purl.org/dc/dcmitype/StillImage" />
        <dc:title />
      </cc:Work>
    </rdf:RDF>
  </metadata>
  <sodipodi:namedview
     pagecolor="#ffffff"
     bordercolor="#666666"
     borderopacity="1"
     objecttolerance="1"
     gridtolerance="1"
     guidetolerance="1"
     inkscape:pageopacity="0"
     inkscape:pageshadow="2"
     inkscape:window-width="640"
     inkscape:window-height="480"
     id="namedview4891"
     showgrid="true"
     inkscape:zoom="13.906434"
     inkscape:cx="9.0428943"
     inkscape:cy="12.746216"
     inkscape:current-layer="svg3200">
    <inkscape:grid
       type="xygrid"
       id="grid3674"
       empspacing="5"
       visible="true"
       enabled="true"
       snapvisiblegridlinesonly="true" />
  </sodipodi:namedview>
  <defs
     id="defs3202">
    <linearGradient
       id="linearGradient5060">
      <stop
         id="stop5062"
         style="stop-color:#000000;stop-opacity:1"
         offset="0" />
      <stop
         id="stop5064"
         style="stop-color:#000000;stop-opacity:0"
         offset="1" />
    </linearGradient>
    <linearGradient
       id="linearGradient5048">
      <stop
         id="stop5050"
         style="stop-color:#000000;stop-opacity:0"
         offset="0" />
      <stop
         id="stop5056"
         style="stop-color:#000000;stop-opacity:1"
         offset="0.5" />
      <stop
         id="stop5052"
         style="stop-color:#000000;stop-opacity:0"
         offset="1" />
    </linearGradient>
    <linearGradient
       inkscape:collect="always"
       xlink:href="#linearGradient5048"
       id="linearGradient4913"
       gradientUnits="userSpaceOnUse"
       gradientTransform="matrix(0.03816858,0,0,0.01509651,20.237967,38.732952)"
       x1="302.85715"
       y1="366.64789"
       x2="302.85715"
       y2="609.50507" />
    <radialGradient
       inkscape:collect="always"
       xlink:href="#linearGradient5060"
       id="radialGradient4915"
       gradientUnits="userSpaceOnUse"
       gradientTransform="matrix(0.03816858,0,0,0.01509651,20.245478,38.732952)"
       cx="605.71429"
       cy="486.64789"
       fx="605.71429"
       fy="486.64789"
       r="117.14286" />
    <radialGradient
       inkscape:collect="always"
       xlink:href="#linearGradient5060"
       id="radialGradient4917"
       gradientUnits="userSpaceOnUse"
       gradientTransform="matrix(-0.03816858,0,0,0.01509651,47.820891,38.732952)"
       cx="605.71429"
       cy="486.64789"
       fx="605.71429"
       fy="486.64789"
       r="117.14286" />
    <linearGradient
       inkscape:collect="always"
       xlink:href="#linearGradient8823"
       id="linearGradient4919"
       gradientUnits="userSpaceOnUse"
       gradientTransform="matrix(1.2108499,0,0,1.1790292,18.082975,19.376465)"
       x1="12.872127"
       y1="3.1318474"
       x2="12.872127"
       y2="21.467987" />
    <linearGradient
       id="linearGradient8823">
      <stop
         offset="0"
         style="stop-color:#e35d4f;stop-opacity:1"
         id="stop8825" />
      <stop
         id="stop8827"
         style="stop-color:#8daa32;stop-opacity:1"
         offset="0.29466397" />
      <stop
         id="stop8829"
         style="stop-color:#729eb8;stop-opacity:1;"
         offset="0.57540715" />
      <stop
         offset="1"
         style="stop-color:#727272;stop-opacity:1"
         id="stop8831" />
    </linearGradient>
  </defs>
  <g
     id="g4897"
     transform="matrix(0.80000007,0,0,0.79238085,-15.400001,-15.634279)">
    <g
       style="opacity:0.4"
       id="g2872"
       transform="matrix(0.9307775,0,0,0.979386,1.3226808,1.0537664)">
      <rect
         style="opacity:0.40206185;fill:url(#linearGradient4913);fill-opacity:1;fill-rule:nonzero;stroke:none;stroke-width:1;marker:none;visibility:visible;display:inline;overflow:visible"
         id="rect2768"
         y="44.268055"
         x="24.818197"
         height="3.6662951"
         width="18.429968" />
      <path
         style="opacity:0.40206185;fill:url(#radialGradient4915);fill-opacity:1;fill-rule:nonzero;stroke:none;stroke-width:1;marker:none;visibility:visible;display:inline;overflow:visible"
         id="path2770"
         d="m 43.248167,44.268181 c 0,0 0,3.666092 0,3.666092 1.965587,0.0069 4.751834,-0.821384 4.751833,-1.833282 0,-1.011896 -2.193448,-1.83281 -4.751833,-1.83281 z" />
      <path
         style="opacity:0.40206185;fill:url(#radialGradient4917);fill-opacity:1;fill-rule:nonzero;stroke:none;stroke-width:1;marker:none;visibility:visible;display:inline;overflow:visible"
         id="path2772"
         d="m 24.818197,44.268181 c 0,0 0,3.666092 0,3.666092 -1.965588,0.0069 -4.751834,-0.821384 -4.751834,-1.833282 0,-1.011896 2.193447,-1.83281 4.751834,-1.83281 z" />
      <rect
         style="fill:#ffffff;fill-opacity:1;stroke:none"
         id="rect3482"
         y="43.850159"
         x="24.272263"
         height="1.1327641"
         width="1.1348009" />
      <rect
         style="fill:#ffffff;fill-opacity:1;stroke:none"
         id="rect2579"
         y="43.850159"
         x="42.65604"
         height="1.1327641"
         width="1.1348009" />
    </g>
    <path
       style="fill:#4d4d4d;fill-opacity:1;fill-rule:nonzero;stroke:#333333;stroke-width:1.25599527;stroke-linecap:butt;stroke-linejoin:round;stroke-miterlimit:4;stroke-opacity:1;stroke-dasharray:none;stroke-dashoffset:0;marker:none;visibility:visible;display:block;overflow:visible"
       id="path3570"
       d="m 25.375001,45.499661 c -0.958616,0 -1.917233,0 -2.875849,0 -0.233002,-0.296005 -0.05582,-0.883697 -0.111186,-1.30275 0,-7.850971 0,-15.701949 0,-23.552922 l 0.03249,-0.101665 0.07869,-0.04198 0,0 c 0.997725,0 1.839016,0 2.836742,0" />
    <path
       style="fill:#4d4d4d;fill-opacity:1;fill-rule:nonzero;stroke:#333333;stroke-width:1.25599515;stroke-linecap:butt;stroke-linejoin:round;stroke-miterlimit:4;stroke-opacity:1;stroke-dasharray:none;stroke-dashoffset:0;marker:none;visibility:visible;display:block;overflow:visible"
       id="path2702"
       d="m 40.625,20.5 c 0.967227,0 1.930316,0 2.886179,0 0.135691,0 0.11228,0.785325 0.11228,1.302781 0,7.851187 2e-6,15.702373 2e-6,23.553562 0,0.134055 -0.443979,0.143657 -1.018269,0.143657 -0.651966,0 -1.30393,0 -1.955895,0" />
    <rect
       style="fill:url(#linearGradient4919);fill-opacity:1;stroke:#333333;stroke-width:1.25599527;stroke-linecap:butt;stroke-linejoin:miter;stroke-miterlimit:4;stroke-opacity:1;stroke-dasharray:none;stroke-dashoffset:0;display:inline"
       id="rect2704"
       y="20.499998"
       x="25.500002"
       ry="0"
       rx="0"
       height="25"
       width="15" />
    <path
       style="opacity:0.3;fill:none;stroke:#ffffff;stroke-width:1.25599527;stroke-linecap:square;stroke-linejoin:round;stroke-miterlimit:4;stroke-opacity:1;stroke-dasharray:none;stroke-dashoffset:0;marker:none;visibility:visible;display:block;overflow:visible"
       id="rect15660"
       d="m 26.779017,21.776309 c 4.157184,0 8.314368,0 12.471553,0" />
    <path
       style="fill:#ffffff;fill-opacity:1;stroke:none"
       id="rect3464"
       d="m 23,22 1.86517,0 0,2 L 23,24 23,22 z m 0,4 1.86517,0 0,2 L 23,28 23,26 z m 0,4 1.86517,0 0,2 L 23,32 23,30 z m 0,4 1.86517,0 0,2 L 23,36 23,34 z m 0,4 1.86517,0 0,2 L 23,40 23,38 z m 0,4 1.86517,0 0,2 L 23,44 23,42 z" />
    <path
       style="opacity:0.3;fill:none;stroke:#ffffff;stroke-width:1.25599527;stroke-linecap:square;stroke-linejoin:round;stroke-miterlimit:4;stroke-opacity:1;stroke-dasharray:none;stroke-dashoffset:0;marker:none;visibility:visible;display:block;overflow:visible"
       id="path4318"
       d="m 26.750001,34.383508 c 4.176385,0 8.352771,0 12.529158,0" />
    <path
       style="fill:#333333;stroke:#333333;stroke-width:1.25599527;stroke-linecap:square;stroke-linejoin:round;stroke-miterlimit:4;stroke-opacity:1;stroke-dasharray:none;stroke-dashoffset:0;marker:none;visibility:visible;display:block;overflow:visible"
       id="path4320"
       d="m 26.500002,33.131009 c 4.333206,0 8.666413,0 12.999621,0" />
    <path
       style="fill:#ffffff;fill-opacity:1;stroke:none"
       id="path3656"
       d="M 41.179773,22 43,22 l 0,2 -1.820227,0 0,-2 z m 0,4 L 43,26 l 0,2 -1.820227,0 0,-2 z m 0,4 L 43,30 l 0,2 -1.820227,0 0,-2 z m 0,4 L 43,34 l 0,2 -1.820227,0 0,-2 z m 0,4 L 43,38 l 0,2 -1.820227,0 0,-2 z m 0,4 L 43,42 l 0,2 -1.820227,0 0,-2 z" />
  </g>
</svg>
