<?xml version="1.0" encoding="UTF-8" standalone="no"?>
<!-- Created with Inkscape (http://www.inkscape.org/) -->

<svg
   xmlns:dc="http://purl.org/dc/elements/1.1/"
   xmlns:cc="http://creativecommons.org/ns#"
   xmlns:rdf="http://www.w3.org/1999/02/22-rdf-syntax-ns#"
   xmlns:svg="http://www.w3.org/2000/svg"
   xmlns="http://www.w3.org/2000/svg"
   xmlns:xlink="http://www.w3.org/1999/xlink"
   xmlns:sodipodi="http://sodipodi.sourceforge.net/DTD/sodipodi-0.dtd"
   xmlns:inkscape="http://www.inkscape.org/namespaces/inkscape"
   version="1.0"
   width="22"
   height="22"
   id="svg2"
   inkscape:version="0.47 r22583"
   sodipodi:docname="shotwell22b.svg">
  <metadata
     id="metadata6229">
    <rdf:RDF>
      <cc:Work
         rdf:about="">
        <dc:format>image/svg+xml</dc:format>
        <dc:type
           rdf:resource="http://purl.org/dc/dcmitype/StillImage" />
        <dc:title />
      </cc:Work>
    </rdf:RDF>
  </metadata>
  <sodipodi:namedview
     pagecolor="#ffffff"
     bordercolor="#666666"
     borderopacity="1"
     objecttolerance="10"
     gridtolerance="10"
     guidetolerance="10"
     inkscape:pageopacity="0"
     inkscape:pageshadow="2"
     inkscape:window-width="640"
     inkscape:window-height="480"
     id="namedview6227"
     showgrid="false"
     inkscape:zoom="1"
     inkscape:cx="9.1135877"
     inkscape:cy="10.23893"
     inkscape:current-layer="svg2" />
  <defs
     id="defs4">
    <inkscape:perspective
       sodipodi:type="inkscape:persp3d"
       inkscape:vp_x="0 : 11 : 1"
       inkscape:vp_y="0 : 1000 : 0"
       inkscape:vp_z="22 : 11 : 1"
       inkscape:persp3d-origin="11 : 7.3333333 : 1"
       id="perspective11806" />
    <linearGradient
       id="linearGradient259-942">
      <stop
         id="stop3802"
         style="stop-color:#ffffff;stop-opacity:1"
         offset="0" />
      <stop
         id="stop3804"
         style="stop-color:#e0e0e0;stop-opacity:1"
         offset="1" />
    </linearGradient>
    <linearGradient
       x1="108.26451"
       y1="110.28094"
       x2="25.817675"
       y2="14.029031"
       id="linearGradient2415"
       xlink:href="#linearGradient259-942"
       gradientUnits="userSpaceOnUse"
       gradientTransform="matrix(0.2364302,0,0,0.1658673,-27.025877,-21.665256)" />
    <linearGradient
       id="linearGradient3610-302">
      <stop
         id="stop3796"
         style="stop-color:#333333;stop-opacity:1"
         offset="0" />
      <stop
         id="stop3798"
         style="stop-color:#292929;stop-opacity:1"
         offset="1" />
    </linearGradient>
    <linearGradient
       x1="-24.032034"
       y1="-13.090545"
       x2="-24.097931"
       y2="-40.163883"
       id="linearGradient2412"
       xlink:href="#linearGradient3610-302"
       gradientUnits="userSpaceOnUse"
       gradientTransform="matrix(0.4857142,0,0,0.4814814,0.6620573,2.0024712)" />
    <linearGradient
       id="linearGradient4157-401-351">
      <stop
         id="stop3790"
         style="stop-color:#262626;stop-opacity:1"
         offset="0" />
      <stop
         id="stop3792"
         style="stop-color:#828282;stop-opacity:1"
         offset="1" />
    </linearGradient>
    <linearGradient
       x1="28.938274"
       y1="17.33289"
       x2="105.36545"
       y2="92.823723"
       id="linearGradient2410"
       xlink:href="#linearGradient4157-401-351"
       gradientUnits="userSpaceOnUse"
       gradientTransform="matrix(0.2139556,0,0,0.1648118,-25.539123,-20.465313)" />
    <radialGradient
       cx="76.16552"
       cy="14.781876"
       r="20.999798"
       fx="76.16552"
       fy="14.781876"
       id="radialGradient2647"
       xlink:href="#linearGradient5428"
       gradientUnits="userSpaceOnUse"
       gradientTransform="matrix(2.154094,0,0,0.07786419,-151.98292,4.8440247)" />
    <linearGradient
       id="linearGradient5428">
      <stop
         id="stop5430"
         style="stop-color:#7a7c7c;stop-opacity:1"
         offset="0" />
      <stop
         id="stop5432"
         style="stop-color:#33393a;stop-opacity:1"
         offset="1" />
    </linearGradient>
    <linearGradient
       x1="8.5625"
       y1="4.646832"
       x2="8.5625"
       y2="45.818478"
       id="linearGradient2649"
       xlink:href="#linearGradient18344"
       gradientUnits="userSpaceOnUse"
       gradientTransform="matrix(0.5120698,0,0,0.5553992,-26.917304,-0.7741826)" />
    <linearGradient
       id="linearGradient18344">
      <stop
         id="stop18346"
         style="stop-color:#2f3537;stop-opacity:1"
         offset="0" />
      <stop
         id="stop18354"
         style="stop-color:#8a8e8e;stop-opacity:1"
         offset="0.30000001" />
      <stop
         id="stop18348"
         style="stop-color:#2f3537;stop-opacity:1"
         offset="1" />
    </linearGradient>
    <linearGradient
       x1="697.91443"
       y1="327.78354"
       x2="700.41443"
       y2="496.33771"
       id="linearGradient2651"
       xlink:href="#linearGradient25793"
       gradientUnits="userSpaceOnUse"
       gradientTransform="matrix(0.0769585,0,0,0.08303838,-43.376795,-21.218605)" />
    <linearGradient
       id="linearGradient25793">
      <stop
         id="stop25795"
         style="stop-color:#f0f0f4;stop-opacity:1"
         offset="0" />
      <stop
         id="stop25819"
         style="stop-color:#eeeeec;stop-opacity:1"
         offset="0.03744119" />
      <stop
         id="stop25817"
         style="stop-color:#eeeeec;stop-opacity:0.69594592"
         offset="0.39254159" />
      <stop
         id="stop25803"
         style="stop-color:#a1a29f;stop-opacity:1"
         offset="0.90799886" />
      <stop
         id="stop25799"
         style="stop-color:#555753;stop-opacity:1"
         offset="1" />
    </linearGradient>
    <radialGradient
       cx="400.29608"
       cy="127.65469"
       r="2.0221689"
       fx="400.29608"
       fy="127.65469"
       id="radialGradient2653"
       xlink:href="#linearGradient26816"
       gradientUnits="userSpaceOnUse"
       gradientTransform="matrix(0.5294073,1.6054926e-5,-7.0512917e-6,0.25712,-197.22792,-24.232658)" />
    <linearGradient
       id="linearGradient26816">
      <stop
         id="stop26818"
         style="stop-color:#ffffff;stop-opacity:1"
         offset="0" />
      <stop
         id="stop26820"
         style="stop-color:#eeeeec;stop-opacity:0"
         offset="1" />
    </linearGradient>
    <radialGradient
       cx="399.8783"
       cy="127.24747"
       r="2.0221689"
       fx="399.8783"
       fy="127.24747"
       id="radialGradient2655"
       xlink:href="#linearGradient26830"
       gradientUnits="userSpaceOnUse"
       gradientTransform="matrix(0.4708328,-0.04895889,0.06094931,0.2300824,-181.17516,-1.0708632)" />
    <linearGradient
       id="linearGradient26830">
      <stop
         id="stop26832"
         style="stop-color:#ffffff;stop-opacity:1"
         offset="0" />
      <stop
         id="stop26834"
         style="stop-color:#ffffff;stop-opacity:0"
         offset="1" />
    </linearGradient>
    <radialGradient
       cx="427.79684"
       cy="33.604549"
       r="74.907745"
       fx="427.79684"
       fy="33.604549"
       id="radialGradient2657"
       xlink:href="#linearGradient18403"
       gradientUnits="userSpaceOnUse"
       gradientTransform="matrix(-0.2240538,0.05376216,-0.04083939,-0.1883273,115.73153,-7.7998216)" />
    <linearGradient
       id="linearGradient18403">
      <stop
         id="stop18405"
         style="stop-color:#eeeeec;stop-opacity:1"
         offset="0" />
      <stop
         id="stop18407"
         style="stop-color:#eeeeec;stop-opacity:0"
         offset="1" />
    </linearGradient>
    <radialGradient
       cx="502.53064"
       cy="217.46133"
       r="74.907745"
       fx="502.53064"
       fy="217.46133"
       id="radialGradient2659"
       xlink:href="#linearGradient26168"
       gradientUnits="userSpaceOnUse"
       gradientTransform="matrix(0.05243909,-0.03829218,0.01792908,0.02997364,-12.077491,28.739844)" />
    <linearGradient
       id="linearGradient26168">
      <stop
         id="stop26170"
         style="stop-color:#eeeeec;stop-opacity:1"
         offset="0" />
      <stop
         id="stop26172"
         style="stop-color:#eeeeec;stop-opacity:0"
         offset="1" />
    </linearGradient>
    <radialGradient
       cx="459.45273"
       cy="170.414"
       r="74.907745"
       fx="459.45273"
       fy="170.414"
       id="radialGradient2661"
       xlink:href="#linearGradient26128"
       gradientUnits="userSpaceOnUse"
       gradientTransform="matrix(0.07544327,-1.2226476e-8,0,0.06555618,-19.694917,1.7403194)" />
    <linearGradient
       id="linearGradient26128">
      <stop
         id="stop26130"
         style="stop-color:#eeeeec;stop-opacity:0.9527027"
         offset="0" />
      <stop
         id="stop26146"
         style="stop-color:#eeeeec;stop-opacity:0"
         offset="0.47988781" />
      <stop
         id="stop26148"
         style="stop-color:#eeeeec;stop-opacity:0.99324322"
         offset="0.5229584" />
      <stop
         id="stop26132"
         style="stop-color:#eeeeec;stop-opacity:0"
         offset="0.63153976" />
      <stop
         id="stop26134"
         style="stop-color:#eeeeec;stop-opacity:0.23529412"
         offset="0.7383545" />
      <stop
         id="stop26136"
         style="stop-color:#ffffff;stop-opacity:0.71621621"
         offset="0.83400774" />
      <stop
         id="stop26142"
         style="stop-color:#f6f6f5;stop-opacity:0.27027026"
         offset="0.90514386" />
      <stop
         id="stop26144"
         style="stop-color:#f2f2f0;stop-opacity:0.27702704"
         offset="0.90514386" />
      <stop
         id="stop26138"
         style="stop-color:#eeeeec;stop-opacity:0"
         offset="1" />
    </linearGradient>
    <radialGradient
       cx="449.88171"
       cy="165.51567"
       r="74.907745"
       fx="449.88171"
       fy="165.51567"
       id="radialGradient2663"
       xlink:href="#linearGradient26021"
       gradientUnits="userSpaceOnUse"
       gradientTransform="matrix(0,-0.05073858,0.05278397,0,6.2623617,35.020661)" />
    <linearGradient
       id="linearGradient26021">
      <stop
         id="stop26023"
         style="stop-color:#eeeeec;stop-opacity:0"
         offset="0" />
      <stop
         id="stop26029"
         style="stop-color:#eeeeec;stop-opacity:0.49803922"
         offset="0.86670214" />
      <stop
         id="stop26025"
         style="stop-color:#eeeeec;stop-opacity:0"
         offset="1" />
    </linearGradient>
    <radialGradient
       cx="529.39941"
       cy="95.381569"
       r="74.907745"
       fx="529.39941"
       fy="95.381569"
       id="radialGradient2665"
       xlink:href="#linearGradient26120"
       gradientUnits="userSpaceOnUse"
       gradientTransform="matrix(0,0.05277248,-0.05046163,0,19.812043,-14.98788)" />
    <linearGradient
       id="linearGradient26120">
      <stop
         id="stop26122"
         style="stop-color:#2e3436;stop-opacity:0"
         offset="0" />
      <stop
         id="stop26124"
         style="stop-color:#2e3436;stop-opacity:0"
         offset="0.47336468" />
      <stop
         id="stop26126"
         style="stop-color:#0f1112;stop-opacity:1"
         offset="1" />
    </linearGradient>
    <linearGradient
       x1="469.35895"
       y1="126.83501"
       x2="280.0184"
       y2="225.83026"
       id="linearGradient2667"
       xlink:href="#linearGradient26075"
       gradientUnits="userSpaceOnUse"
       gradientTransform="matrix(0.04670754,0,0,0.06854897,-6.3555464,0.8819419)" />
    <linearGradient
       id="linearGradient26075">
      <stop
         id="stop26077"
         style="stop-color:#555753;stop-opacity:0"
         offset="0" />
      <stop
         id="stop26079"
         style="stop-color:#eeeeec;stop-opacity:1"
         offset="1" />
    </linearGradient>
    <radialGradient
       cx="344.26065"
       cy="218.66101"
       r="74.907745"
       fx="344.26065"
       fy="218.66101"
       id="radialGradient2669"
       xlink:href="#linearGradient26075"
       gradientUnits="userSpaceOnUse"
       gradientTransform="matrix(-0.00685942,-0.1301125,0.04680436,-0.00291791,7.1260749,59.158019)" />
    <radialGradient
       cx="469.91165"
       cy="131.83463"
       r="74.907745"
       fx="469.91165"
       fy="131.83463"
       id="radialGradient2671"
       xlink:href="#linearGradient8660"
       gradientUnits="userSpaceOnUse"
       gradientTransform="matrix(-0.07022907,-0.0722737,0.06150812,-0.0685738,41.698099,51.838202)" />
    <linearGradient
       id="linearGradient8660">
      <stop
         id="stop8662"
         style="stop-color:#2e3436;stop-opacity:1"
         offset="0" />
      <stop
         id="stop8664"
         style="stop-color:#555753;stop-opacity:0"
         offset="1" />
    </linearGradient>
    <radialGradient
       cx="434.12521"
       cy="98.974625"
       r="74.907745"
       fx="434.12521"
       fy="98.974625"
       id="radialGradient2673"
       xlink:href="#linearGradient8660"
       gradientUnits="userSpaceOnUse"
       gradientTransform="matrix(-0.07508467,0.08105827,-0.09931679,-0.1072186,57.424925,-13.737543)" />
    <radialGradient
       cx="441.3573"
       cy="130.89047"
       r="75.756241"
       fx="441.3573"
       fy="130.89047"
       id="radialGradient2675"
       xlink:href="#linearGradient8690"
       gradientUnits="userSpaceOnUse"
       gradientTransform="matrix(-0.00643105,-0.0467684,0.1457874,-0.02336381,-1.2448522,34.278058)" />
    <linearGradient
       id="linearGradient8690">
      <stop
         id="stop8692"
         style="stop-color:#3a3a3a;stop-opacity:1"
         offset="0" />
      <stop
         id="stop8694"
         style="stop-color:#3a3a3a;stop-opacity:0"
         offset="1" />
    </linearGradient>
    <radialGradient
       cx="439.04871"
       cy="111.3"
       r="75.752426"
       fx="439.04871"
       fy="111.3"
       id="radialGradient2677"
       xlink:href="#linearGradient26099"
       gradientUnits="userSpaceOnUse"
       gradientTransform="matrix(0.03550462,-0.02981257,0.05772509,0.08077235,-8.2777048,16.975376)" />
    <linearGradient
       id="linearGradient26099">
      <stop
         id="stop26101"
         style="stop-color:#eeeeec;stop-opacity:1"
         offset="0" />
      <stop
         id="stop26103"
         style="stop-color:#babdb6;stop-opacity:1"
         offset="1" />
    </linearGradient>
    <linearGradient
       x1="457.19556"
       y1="289.77823"
       x2="457.19556"
       y2="114.22821"
       id="linearGradient2679"
       xlink:href="#linearGradient26091"
       gradientUnits="userSpaceOnUse"
       gradientTransform="matrix(0.0362164,0,0,0.05315197,-1.5590443,5.1097004)" />
    <linearGradient
       id="linearGradient26091">
      <stop
         id="stop26093"
         style="stop-color:#2e3436;stop-opacity:1"
         offset="0" />
      <stop
         id="stop26095"
         style="stop-color:#ffffff;stop-opacity:1"
         offset="1" />
    </linearGradient>
    <linearGradient
       x1="236.75015"
       y1="171.61981"
       x2="222.73204"
       y2="179.03932"
       id="linearGradient2681"
       xlink:href="#linearGradient9688"
       gradientUnits="userSpaceOnUse"
       gradientTransform="matrix(0.0693886,0,0,0.07028112,-1.7394133,1.7748324)" />
    <linearGradient
       id="linearGradient9688">
      <stop
         id="stop9690"
         style="stop-color:#eeeeec;stop-opacity:1"
         offset="0" />
      <stop
         id="stop9692"
         style="stop-color:#ffffff;stop-opacity:0"
         offset="1" />
    </linearGradient>
    <radialGradient
       cx="251.69016"
       cy="171.7894"
       r="21.53125"
       fx="251.69016"
       fy="171.7894"
       id="radialGradient2683"
       xlink:href="#linearGradient9785"
       gradientUnits="userSpaceOnUse"
       gradientTransform="matrix(0.02031434,-0.08642755,0.1262225,0.03362891,-10.048302,31.348037)" />
    <linearGradient
       id="linearGradient9785">
      <stop
         id="stop9787"
         style="stop-color:#eeeeec;stop-opacity:1"
         offset="0" />
      <stop
         id="stop9789"
         style="stop-color:#090908;stop-opacity:0.96621621"
         offset="1" />
    </linearGradient>
    <radialGradient
       cx="258.76035"
       cy="183.6442"
       r="18.578125"
       fx="258.76035"
       fy="183.6442"
       id="radialGradient2685"
       xlink:href="#linearGradient9688"
       gradientUnits="userSpaceOnUse"
       gradientTransform="matrix(0.08681611,-0.00123428,8.9193262e-4,0.06944268,-6.3501255,2.2040319)" />
    <radialGradient
       cx="442.29459"
       cy="62.526134"
       r="77.922958"
       fx="442.29459"
       fy="62.526134"
       id="radialGradient2687"
       xlink:href="#linearGradient26371"
       gradientUnits="userSpaceOnUse"
       gradientTransform="matrix(-6.8078266e-6,-0.7928091,0.1352587,0,6.5457989,363.15509)" />
    <linearGradient
       id="linearGradient26371">
      <stop
         id="stop26373"
         style="stop-color:#777777;stop-opacity:0"
         offset="0" />
      <stop
         id="stop26375"
         style="stop-color:#2b2b2b;stop-opacity:1"
         offset="1" />
    </linearGradient>
    <radialGradient
       cx="9.1189642"
       cy="20.823402"
       r="3.1769876"
       fx="9.1189642"
       fy="20.823402"
       id="radialGradient2689"
       xlink:href="#linearGradient17963"
       gradientUnits="userSpaceOnUse"
       gradientTransform="matrix(0,-0.4109864,1.6624229,0,-28.206988,10.328793)" />
    <linearGradient
       id="linearGradient17963">
      <stop
         id="stop17965"
         style="stop-color:#dee3e0;stop-opacity:1"
         offset="0" />
      <stop
         id="stop17967"
         style="stop-color:#dee3e0;stop-opacity:0"
         offset="1" />
    </linearGradient>
    <radialGradient
       cx="9.2365828"
       cy="17.108955"
       r="2.9610097"
       fx="9.2365828"
       fy="17.108955"
       id="radialGradient2691"
       xlink:href="#linearGradient17941"
       gradientUnits="userSpaceOnUse"
       gradientTransform="matrix(0.7650995,-3.1729114e-7,1.1408038e-7,0.3024635,-0.565594,-0.2352367)" />
    <linearGradient
       id="linearGradient17941">
      <stop
         id="stop17943"
         style="stop-color:#e9e9e9;stop-opacity:1"
         offset="0" />
      <stop
         id="stop17945"
         style="stop-color:#a7a7a7;stop-opacity:1"
         offset="0" />
      <stop
         id="stop17947"
         style="stop-color:#bebebe;stop-opacity:1"
         offset="0.52899867" />
      <stop
         id="stop17949"
         style="stop-color:#e7e7e7;stop-opacity:1"
         offset="1" />
    </linearGradient>
    <radialGradient
       cx="14.738829"
       cy="12.007012"
       r="0.546875"
       fx="14.738829"
       fy="12.007012"
       id="radialGradient2693"
       xlink:href="#linearGradient17963"
       gradientUnits="userSpaceOnUse"
       gradientTransform="matrix(-2.0487495e-6,-1.4869501,2.0400821,-3.5617813e-6,-18.108074,27.848316)" />
    <linearGradient
       x1="15.578756"
       y1="19.011086"
       x2="15.578756"
       y2="50.618919"
       id="linearGradient2695"
       xlink:href="#linearGradient5404"
       gradientUnits="userSpaceOnUse"
       gradientTransform="matrix(0.4749893,0,0,0.4999652,0.6002573,-3.5048813)" />
    <linearGradient
       id="linearGradient5404">
      <stop
         id="stop5406"
         style="stop-color:#ffffff;stop-opacity:1"
         offset="0" />
      <stop
         id="stop5408"
         style="stop-color:#ffffff;stop-opacity:0"
         offset="1" />
    </linearGradient>
    <radialGradient
       cx="171.25"
       cy="188.5"
       r="19"
       fx="171.25"
       fy="188.5"
       id="radialGradient2697"
       xlink:href="#linearGradient10695"
       gradientUnits="userSpaceOnUse"
       gradientTransform="matrix(0.1163274,0,0,0.1223665,-5.8198402,-9.8608238)" />
    <linearGradient
       id="linearGradient10695">
      <stop
         id="stop10697"
         style="stop-color:#b100cb;stop-opacity:1"
         offset="0" />
      <stop
         id="stop10699"
         style="stop-color:#204a87;stop-opacity:0"
         offset="1" />
    </linearGradient>
    <linearGradient
       inkscape:collect="always"
       xlink:href="#linearGradient6883-0"
       id="linearGradient6944"
       gradientUnits="userSpaceOnUse"
       gradientTransform="matrix(0.86653813,0,0,0.66744311,12.300204,12.513156)"
       x1="-68.237289"
       y1="-4.5762725"
       x2="-68.237289"
       y2="23.694914" />
    <linearGradient
       id="linearGradient6924">
      <stop
         style="stop-color:#ffffff;stop-opacity:1;"
         offset="0"
         id="stop6926" />
      <stop
         id="stop6932"
         offset="0.5"
         style="stop-color:#fee3ba;stop-opacity:1;" />
      <stop
         style="stop-color:#fedaa1;stop-opacity:1;"
         offset="1"
         id="stop6928" />
    </linearGradient>
    <radialGradient
       r="5.2881355"
       fy="5.0847459"
       fx="-77.898308"
       cy="5.0847459"
       cx="-77.898308"
       gradientUnits="userSpaceOnUse"
       id="radialGradient6737"
       xlink:href="#linearGradient6924"
       inkscape:collect="always" />
    <linearGradient
       inkscape:collect="always"
       id="linearGradient6883-0">
      <stop
         style="stop-color:#50819e;stop-opacity:1"
         offset="0"
         id="stop6885-8" />
      <stop
         style="stop-color:#8db0c5;stop-opacity:1"
         offset="1"
         id="stop6887-3" />
    </linearGradient>
    <linearGradient
       y2="23.694914"
       x2="-68.237289"
       y1="-4.5762725"
       x1="-68.237289"
       gradientTransform="matrix(0.86653813,0,0,0.66744311,34.986152,-3.0753231)"
       gradientUnits="userSpaceOnUse"
       id="linearGradient6794"
       xlink:href="#linearGradient6883-0"
       inkscape:collect="always" />
  </defs>
  <g
     id="layer1"
     transform="translate(0,-1.9999985)">
    <rect
       width="20.983931"
       height="16.963207"
       x="-21.481524"
       y="-19.500881"
       transform="matrix(-0.9999985,0.0017538,-9.492257e-4,-0.9999995,0,0)"
       id="rect3580"
       style="fill:url(#linearGradient2415);fill-opacity:1;stroke:#787878;stroke-width:0.99999987999999995;stroke-linecap:round;stroke-linejoin:miter;stroke-miterlimit:4;stroke-opacity:0.96862745;stroke-dasharray:none" />
    <rect
       width="16.968353"
       height="12.936693"
       rx="0"
       ry="0"
       x="-19.511364"
       y="-17.509548"
       transform="matrix(-0.999993,0.00373314,0.00245538,-0.999997,0,0)"
       id="rect3582"
       style="fill:url(#linearGradient2410);fill-opacity:1;stroke:url(#linearGradient2412);stroke-width:1.0000093;stroke-linecap:round;stroke-linejoin:miter;stroke-miterlimit:4;stroke-opacity:1;stroke-dasharray:none" />
  </g>
  <g
     id="g6938"
     transform="matrix(0.40677637,0,0,0.39496784,30.001703,0.06321873)">
    <rect
       ry="0"
       rx="0"
       y="7.6261153"
       x="-66.305092"
       height="30.000999"
       width="38.950153"
       id="rect6064-8"
       style="color:#000000;fill:url(#linearGradient6944);fill-opacity:1.0;stroke:none;stroke-width:0.99900012999999999;marker:none;visibility:visible;display:inline;overflow:visible;enable-background:accumulate" />
    <path
       id="path6062"
       d="m -38.094404,13.158283 -0.893616,5.507817 -0.352033,0 -0.704062,5.693177 -1.408123,0 -0.352033,1.721193 -0.541586,0 -0.162476,-4.475102 -1.760154,0 0.162474,-1.906552 -0.352031,0 -0.514507,1.906552 -1.408124,0 -0.189555,1.880074 0,0.185358 0,1.880072 -1.922632,-0.688477 -0.35203,-2.224311 -0.893618,0 -0.352031,0.847358 -1.245648,-0.158881 -0.704063,-1.032715 -3.52031,-0.344239 -2.978726,-0.344239 0.162476,3.601265 -1.218568,0.344239 -0.189556,-1.376955 -1.056094,-0.158879 -0.893618,-0.873835 -0.352031,0.688478 -2.112185,-0.688478 -1.570601,0.344239 -0.541586,1.641752 0,12.49851 38.967136,0 0,-20.442477 -1.408125,1.482873 -0.352031,4.660461 -0.541586,1.721193 -1.408125,0 -0.893617,-2.753908 -2.464218,0 0.352031,2.40967 -1.5706,0.158879 -0.352032,-2.912788 -1.245648,0 -0.352031,-3.442387 -0.514507,0 0,-5.348937 z"
       style="fill:#1d1d1d;fill-opacity:1;stroke:none" />
    <path
       transform="matrix(1.1237145,0,0,1.1237145,29.375445,9.2428741)"
       d="m -72.610172,5.0847459 c 0,2.9205566 -2.367579,5.2881351 -5.288136,5.2881351 -2.920556,0 -5.288135,-2.3675785 -5.288135,-5.2881351 0,-2.9205566 2.367579,-5.28813554 5.288135,-5.28813554 2.920557,0 5.288136,2.36757894 5.288136,5.28813554 z"
       sodipodi:ry="5.2881355"
       sodipodi:rx="5.2881355"
       sodipodi:cy="5.0847459"
       sodipodi:cx="-77.898308"
       id="path6891"
       style="opacity:0.1;color:#000000;fill:#feda9f;fill-opacity:1;fill-rule:nonzero;stroke:none;stroke-width:0.99900001;marker:none;visibility:visible;display:inline;overflow:visible;enable-background:accumulate"
       sodipodi:type="arc" />
    <path
       transform="matrix(0.56185729,0,0,0.56185729,-14.392287,12.099776)"
       d="m -72.610172,5.0847459 c 0,2.9205566 -2.367579,5.2881351 -5.288136,5.2881351 -2.920556,0 -5.288135,-2.3675785 -5.288135,-5.2881351 0,-2.9205566 2.367579,-5.28813554 5.288135,-5.28813554 2.920557,0 5.288136,2.36757894 5.288136,5.28813554 z"
       sodipodi:ry="5.2881355"
       sodipodi:rx="5.2881355"
       sodipodi:cy="5.0847459"
       sodipodi:cx="-77.898308"
       id="path6891-1"
       style="color:#000000;fill:url(#radialGradient6737);fill-opacity:1;fill-rule:nonzero;stroke:none;stroke-width:0.99900001;marker:none;visibility:visible;display:inline;overflow:visible;enable-background:accumulate"
       sodipodi:type="arc" />
  </g>
  <g
     transform="matrix(0.80402888,0,0,0.80402888,3.4085583,5.8204571)"
     id="g2616">
    <rect
       width="20.989532"
       height="14.99"
       rx="1.2673081"
       ry="1.1665796"
       x="1.5052338"
       y="4.5050001"
       id="rect5438"
       style="fill:url(#radialGradient2647);fill-opacity:1;fill-rule:nonzero;stroke:url(#linearGradient2649);stroke-width:1.25617373;stroke-linecap:round;stroke-linejoin:round;stroke-miterlimit:4;stroke-opacity:1;stroke-dasharray:none" />
    <rect
       width="20"
       height="13"
       rx="0.82865161"
       ry="0.89770615"
       x="2"
       y="6"
       id="rect5445"
       style="fill:url(#linearGradient2651);fill-opacity:1;fill-rule:nonzero;stroke:none" />
    <path
       d="m 16.014259,7.8677702 c 0,0.732909 -0.592521,1.3270536 -1.323426,1.3270536 -0.730906,0 -1.323426,-0.5941446 -1.323426,-1.3270536 0,-0.732909 0.59252,-1.3270536 1.323426,-1.3270536 0.730905,0 1.323426,0.5941446 1.323426,1.3270536 l 0,0 0,0 z"
       id="path5451"
       style="opacity:0.27227723;fill:url(#radialGradient2653);fill-opacity:1;fill-rule:nonzero;stroke:none" />
    <path
       d="m 16.112238,8.2973414 c 0,0.5254007 -0.605125,0.9513253 -1.351582,0.9513253 -0.746457,0 -1.351584,-0.4259246 -1.351584,-0.9513253 0,-0.5254006 0.605127,-0.9513251 1.351584,-0.9513251 0.746457,0 1.351582,0.4259245 1.351582,0.9513251 l 0,0 z"
       id="path5453"
       style="fill:url(#radialGradient2655);fill-opacity:1;fill-rule:nonzero;stroke:none" />
    <path
       d="m 19.997158,12.681979 c 0,2.903754 -2.237782,5.25771 -4.998223,5.25771 -2.760442,0 -4.998222,-2.353956 -4.998222,-5.25771 0,-2.9037537 2.23778,-5.2577105 4.998222,-5.2577105 2.760441,0 4.998223,2.3539568 4.998223,5.2577105 l 0,0 z"
       id="path5463"
       style="fill:url(#radialGradient2657);fill-opacity:1;fill-rule:nonzero;stroke:none" />
    <path
       d="m 19.497337,12.681979 c 0,2.61338 -2.014002,4.73194 -4.498402,4.73194 -2.484398,0 -4.498401,-2.11856 -4.498401,-4.73194 0,-2.613379 2.014003,-4.7319402 4.498401,-4.7319402 2.4844,0 4.498402,2.1185612 4.498402,4.7319402 l 0,0 z"
       id="path5465"
       style="fill:#888a85;fill-opacity:1;fill-rule:nonzero;stroke:none" />
    <path
       d="m 20.496983,12.681979 c 0,3.194128 -2.46156,5.783481 -5.498047,5.783481 -3.036487,0 -5.4980465,-2.589353 -5.4980465,-5.783481 0,-3.194128 2.4615595,-5.7834805 5.4980465,-5.7834805 3.036487,0 5.498047,2.5893525 5.498047,5.7834805 l 0,0 z"
       id="path5467"
       style="fill:url(#radialGradient2659);fill-opacity:1;fill-rule:nonzero;stroke:none" />
    <path
       d="m 19.96592,12.912004 c 0,2.903752 -2.237782,5.257711 -4.998223,5.257711 -2.760443,0 -4.998223,-2.353959 -4.998223,-5.257711 0,-2.903754 2.23778,-5.2577107 4.998223,-5.2577107 2.760441,0 4.998223,2.3539567 4.998223,5.2577107 l 0,0 z"
       id="path5469"
       style="fill:url(#radialGradient2661);fill-opacity:1;fill-rule:nonzero;stroke:none" />
    <path
       d="m 19.03207,12.504541 c 0,2.270413 -1.805695,4.110946 -4.033135,4.110946 -2.22744,0 -4.033136,-1.840533 -4.033136,-4.110946 0,-2.270416 1.805696,-4.1109506 4.033136,-4.1109506 2.22744,0 4.033135,1.8405346 4.033135,4.1109506 l 0,0 z"
       id="path5471"
       style="fill:url(#radialGradient2663);fill-opacity:1;fill-rule:nonzero;stroke:none" />
    <path
       d="m 18.497692,12.681979 c 0,2.032626 -1.566448,3.680397 -3.498757,3.680397 -1.93231,0 -3.498757,-1.647771 -3.498757,-3.680397 0,-2.032626 1.566447,-3.6803975 3.498757,-3.6803975 1.932309,0 3.498757,1.6477715 3.498757,3.6803975 z"
       id="path5473"
       style="opacity:0.85148513;fill:url(#radialGradient2665);fill-opacity:1;fill-rule:nonzero;stroke:none" />
    <path
       d="m 18.497692,12.681978 c 0,2.032627 -1.566448,3.680398 -3.498757,3.680398 -1.93231,0 -3.498757,-1.647771 -3.498757,-3.680398 0,-2.032626 1.566447,-3.6803973 3.498757,-3.6803973 1.932309,0 3.498757,1.6477713 3.498757,3.6803973 z"
       id="path5475"
       style="fill:url(#linearGradient2667);fill-opacity:1;fill-rule:nonzero;stroke:none" />
    <path
       d="m 18.497692,13.20775 c 0,2.032628 -1.566448,3.680397 -3.498757,3.680397 -1.93231,0 -3.498757,-1.647769 -3.498757,-3.680397 0,-2.032626 1.566447,-3.6803968 3.498757,-3.6803968 1.932309,0 3.498757,1.6477708 3.498757,3.6803968 z"
       id="path5477"
       style="fill:url(#radialGradient2669);fill-opacity:1;fill-rule:nonzero;stroke:none" />
    <path
       d="m 17.864821,13.180206 c 0,1.742251 -1.290363,3.154629 -2.882105,3.154629 -1.591745,0 -2.882106,-1.412378 -2.882106,-3.154629 0,-1.742251 1.290361,-3.154626 2.882106,-3.154626 1.591742,0 2.882105,1.412375 2.882105,3.154626 l 0,0 z"
       id="path5479"
       style="opacity:0.53960422;fill:url(#radialGradient2671);fill-opacity:1;fill-rule:nonzero;stroke:none" />
    <path
       d="m 17.835802,13.470636 c 0,1.575503 -1.270107,2.8527 -2.836868,2.8527 -1.566759,0 -2.836867,-1.277197 -2.836867,-2.8527 0,-1.575507 1.270108,-2.852707 2.836867,-2.852707 1.566761,0 2.836868,1.2772 2.836868,2.852707 z"
       id="path5481"
       style="fill:url(#radialGradient2673);fill-opacity:1;fill-rule:nonzero;stroke:url(#radialGradient2675);stroke-width:0.18468893;stroke-linecap:round;stroke-linejoin:round;stroke-miterlimit:4;stroke-opacity:1;stroke-dasharray:none" />
    <path
       d="m 17.711824,14.259291 c 0,1.575257 -1.215374,2.853729 -2.71289,2.853729 -1.497515,0 -2.712888,-1.278472 -2.712888,-2.853729 0,-1.575259 1.215373,-2.853731 2.712888,-2.853731 1.497516,0 2.71289,1.278472 2.71289,2.853731 z"
       id="path5483"
       style="fill:url(#radialGradient2677);fill-opacity:1;fill-rule:nonzero;stroke:url(#linearGradient2679);stroke-width:0.17982827;stroke-linecap:round;stroke-linejoin:round;stroke-miterlimit:4;stroke-opacity:1" />
    <path
       d="m 17.248136,14.25929 c 0,1.306692 -1.007001,2.365971 -2.249201,2.365971 -1.242199,0 -2.2492,-1.059279 -2.2492,-2.365971 0,-1.306689 1.007001,-2.365967 2.2492,-2.365967 1.2422,0 2.249201,1.059278 2.249201,2.365967 l 0,0 z"
       id="path5485"
       style="fill:#2e3436;fill-opacity:1;fill-rule:nonzero;stroke:none" />
    <path
       d="m 14.611188,12.926866 c -0.04247,0.01395 -0.08317,0.03024 -0.123599,0.04832 0.04038,-0.0182 0.08117,-0.03427 0.123599,-0.04832 z m 0.884703,0.02635 c 0.01749,0.0069 0.03493,0.01429 0.05204,0.02196 -0.01718,-0.0077 -0.03448,-0.01501 -0.05204,-0.02196 z m -1.153585,0.09884 c -0.0283,0.01718 -0.05555,0.03568 -0.0824,0.05491 0.02665,-0.01923 0.05433,-0.03768 0.0824,-0.05491 z m -0.0824,0.05491 c -0.03229,0.02312 -0.06322,0.04658 -0.09324,0.07248 0.02964,-0.02565 0.06141,-0.04951 0.09324,-0.07248 z m 1.637137,0.09883 c 0.01856,0.01703 0.03666,0.03464 0.05421,0.05271 -0.01755,-0.01799 -0.03567,-0.03575 -0.05421,-0.05271 z m -1.762903,0.0044 c -0.0238,0.02198 -0.04726,0.04441 -0.06939,0.06808 0.02218,-0.02373 0.04556,-0.04602 0.06939,-0.06808 z m -0.06939,0.06808 c -0.168625,0.180434 -0.288014,0.407551 -0.333932,0.661082 -1.29e-4,7.1e-4 1.29e-4,0.0015 0,0.0022 l 0,0.467809 c 0.06956,0.387756 0.308624,0.715411 0.637507,0.904871 l 1.298866,0 c 0.315112,-0.181526 0.546535,-0.489901 0.626668,-0.856549 l 0,-0.0044 0,-0.555659 c -0.03566,-0.165746 -0.101445,-0.320807 -0.192987,-0.456826 -0.07121,-0.09648 -0.153595,-0.166426 -0.242861,-0.204256 l -1.743388,0 c -0.01755,0.01375 -0.03372,0.02754 -0.04987,0.04173 l -3e-6,-2e-6 z m -0.333932,1.131086 c -0.0068,-0.03764 -0.01156,-0.0753 -0.01518,-0.114205 0.0035,0.03878 0.0084,0.07647 0.01518,0.114205 z m 0,-0.467809 c -0.0068,0.03782 -0.0117,0.07535 -0.01518,0.114209 0.0036,-0.03837 0.0084,-0.07659 0.01518,-0.114209 z m 2.27898,-0.621547 c 0.01271,0.01488 0.02482,0.03068 0.03686,0.04612 -0.01221,-0.01564 -0.02397,-0.03106 -0.03686,-0.04612 z m -1.41379,2.097448 c 0.02641,0.0091 0.0531,0.01679 0.08023,0.02416 -0.02715,-0.0074 -0.05381,-0.01507 -0.08023,-0.02416 z m 0.843502,0 c -0.02655,0.0091 -0.05294,0.01676 -0.08023,0.02416 0.02713,-0.0074 0.05382,-0.01511 0.08023,-0.02416 z"
       id="path5487"
       style="opacity:0.23267326;fill:url(#linearGradient2681);fill-opacity:1;fill-rule:nonzero;stroke:none" />
    <path
       d="m 13.866536,12.681979 c -0.267574,0.202277 -0.482391,0.475041 -0.61698,0.789333 l 0,1.548928 c 0.140925,0.329311 0.3695,0.611334 0.655066,0.816365 l 2.214018,0 c 0.26953,-0.193767 0.487705,-0.456293 0.629673,-0.762301 l 0,-1.654351 C 16.612657,13.127365 16.40745,12.873017 16.154186,12.681979 l -2.28765,0 z"
       id="path5489"
       style="opacity:0.37556559;fill:url(#radialGradient2683);fill-opacity:1;fill-rule:nonzero;stroke:none" />
    <path
       d="m 14.615956,12.894005 c -0.04195,0.01413 -0.08216,0.03064 -0.1221,0.04895 0.03989,-0.01843 0.08019,-0.03471 0.1221,-0.04895 z m 0.873985,0.0267 c 0.01728,0.007 0.0345,0.01448 0.05141,0.02225 -0.01697,-0.0078 -0.03406,-0.01521 -0.05141,-0.02225 z m -1.139608,0.100125 c -0.02795,0.01741 -0.05488,0.03615 -0.0814,0.05562 0.02632,-0.01948 0.05367,-0.03817 0.0814,-0.05562 z m -0.0814,0.05562 c -0.0319,0.02342 -0.06245,0.04718 -0.09211,0.07343 0.02928,-0.02599 0.06067,-0.05016 0.09211,-0.07343 z m 1.6173,0.100123 c 0.01833,0.01726 0.03622,0.0351 0.05356,0.0534 -0.01734,-0.01823 -0.03524,-0.03621 -0.05356,-0.0534 z m -1.741542,0.0045 c -0.02352,0.02227 -0.04669,0.04499 -0.06855,0.06897 0.02191,-0.02404 0.045,-0.04662 0.06855,-0.06897 z m -0.06855,0.06897 c -0.166583,0.182789 -0.284526,0.412875 -0.329886,0.66972 -1.28e-4,7.2e-4 1.26e-4,0.0015 0,0.0022 l 0,0.47392 c 0.06872,0.392826 0.304885,0.724762 0.629782,0.916694 l 1.283129,0 c 0.311292,-0.183897 0.539912,-0.496301 0.619073,-0.867742 l 0,-0.0045 0,-0.562921 c -0.03523,-0.16791 -0.100215,-0.324998 -0.190649,-0.462797 -0.07035,-0.09774 -0.151731,-0.168602 -0.239916,-0.206923 l -1.722265,0 c -0.01734,0.01393 -0.03331,0.0279 -0.04927,0.04228 l 2e-6,6.9e-5 z m -0.329886,1.145865 c -0.0067,-0.03813 -0.01142,-0.07629 -0.015,-0.115699 0.0034,0.03928 0.0083,0.07747 0.015,0.115699 z m 0,-0.47392 c -0.0067,0.03831 -0.01155,0.07633 -0.015,0.1157 0.0036,-0.03887 0.0083,-0.07759 0.015,-0.1157 z m 2.251365,-0.62967 c 0.01255,0.01507 0.02452,0.03108 0.03642,0.04673 -0.01207,-0.01585 -0.02368,-0.03147 -0.03642,-0.04673 z m -1.39666,2.124856 c 0.02608,0.0092 0.05245,0.01701 0.07926,0.02448 -0.02682,-0.0075 -0.05315,-0.01527 -0.07926,-0.02448 z m 0.833284,0 c -0.02623,0.0092 -0.0523,0.01698 -0.07926,0.02448 0.02681,-0.0075 0.05317,-0.01531 0.07926,-0.02448 z"
       id="path5491"
       style="fill:#2e3436;fill-opacity:1;fill-rule:nonzero;stroke:none" />
    <path
       d="m 14.615956,12.861143 c -0.04195,0.01432 -0.08216,0.03104 -0.1221,0.04958 0.03989,-0.01867 0.08019,-0.03517 0.1221,-0.04958 z m 0.873985,0.02705 c 0.01728,0.0071 0.0345,0.01466 0.05141,0.02254 -0.01697,-0.0079 -0.03406,-0.01541 -0.05141,-0.02254 z m -1.139608,0.101416 c -0.02795,0.01763 -0.05488,0.03662 -0.0814,0.05634 0.02632,-0.01973 0.05367,-0.03867 0.0814,-0.05634 z m -0.0814,0.05634 c -0.0319,0.02373 -0.06245,0.04779 -0.09211,0.07437 0.02928,-0.02632 0.06067,-0.0508 0.09211,-0.07437 z m 1.6173,0.101414 c 0.01833,0.01748 0.03622,0.03555 0.05356,0.05409 -0.01734,-0.01846 -0.03524,-0.03668 -0.05356,-0.05409 z m -1.741542,0.0045 c -0.02352,0.02255 -0.04669,0.04557 -0.06855,0.06986 0.02191,-0.02436 0.045,-0.04722 0.06855,-0.06986 z m -0.06855,0.06986 c -0.166583,0.185148 -0.284526,0.4182 -0.329886,0.678358 -1.28e-4,7.29e-4 1.26e-4,0.0015 0,0.0023 l 0,0.480032 c 0.06872,0.397891 0.304885,0.734108 0.629782,0.928516 l 1.283129,0 c 0.311292,-0.186265 0.539912,-0.5027 0.619073,-0.878934 l 0,-0.0045 0,-0.570182 c -0.03523,-0.170077 -0.100215,-0.329192 -0.190649,-0.468766 -0.07035,-0.099 -0.151731,-0.170775 -0.239916,-0.209593 l -1.722265,0 c -0.01734,0.01411 -0.03331,0.02826 -0.04927,0.04282 l 2e-6,-5.1e-5 z m -0.329886,1.160645 c -0.0067,-0.03862 -0.01142,-0.07727 -0.015,-0.117191 0.0034,0.03979 0.0083,0.07847 0.015,0.117191 z m 0,-0.480032 c -0.0067,0.0388 -0.01155,0.07731 -0.015,0.117191 0.0036,-0.03937 0.0083,-0.07859 0.015,-0.117191 z m 2.251365,-0.637792 c 0.01255,0.01526 0.02452,0.03148 0.03642,0.04733 -0.01207,-0.01605 -0.02368,-0.03188 -0.03642,-0.04733 z m -1.39666,2.152264 c 0.02608,0.0093 0.05245,0.01723 0.07926,0.02479 -0.02682,-0.0076 -0.05315,-0.01546 -0.07926,-0.02479 z m 0.833284,0 c -0.02623,0.0093 -0.0523,0.0172 -0.07926,0.02479 0.02681,-0.0076 0.05317,-0.0155 0.07926,-0.02479 z"
       id="path5493"
       style="opacity:0.23267326;fill:url(#radialGradient2685);fill-opacity:1;fill-rule:nonzero;stroke:none" />
    <path
       d="m 15.004758,13.204398 c -0.514739,-10e-7 -0.93728,0.406392 -0.992195,0.927052 -0.0023,0.02194 -0.004,0.04389 -0.005,0.06622 -7.01e-4,0.01599 -0.0025,0.03151 -0.0025,0.04768 0,0.0035 -3.5e-5,0.0071 0,0.01059 -3.5e-5,0.0035 0,0.0071 0,0.01059 3.03e-4,0.01578 0.0015,0.03208 0.0025,0.04768 9.83e-4,0.02233 0.0026,0.04427 0.005,0.06622 0.05491,0.52066 0.477456,0.927053 0.992195,0.927053 0.514739,0 0.937279,-0.406393 0.992195,-0.927053 0.0023,-0.02194 0.004,-0.04389 0.005,-0.06622 0.0012,-0.01906 0.0023,-0.03895 0.0025,-0.05827 -1.84e-4,-0.01932 -0.0013,-0.03922 -0.0025,-0.05827 -9.81e-4,-0.02233 -0.0026,-0.04428 -0.005,-0.06622 -0.05491,-0.520663 -0.477456,-0.927052 -0.992195,-0.927052 z"
       id="path5495"
       style="fill:#000000;fill-opacity:0.50543482;fill-rule:nonzero;stroke:none" />
    <path
       d="m 20.5,12.500001 c 0,3.313709 -2.462435,6 -5.5,6 -3.037567,0 -5.5,-2.686291 -5.5,-6 0,-3.3137098 2.462433,-6.0000008 5.5,-6.0000008 3.037565,0 5.5,2.686291 5.5,6.0000008 l 0,0 z"
       id="path5497"
       style="fill:none;stroke:url(#radialGradient2687);stroke-width:1.24373627;stroke-linecap:round;stroke-linejoin:round;stroke-miterlimit:4;stroke-opacity:1;stroke-dasharray:none" />
    <path
       d="m 8.7516746,5.3613523 c 4.573e-4,0.6066132 -1.0078915,1.0984885 -2.2519114,1.0984885 -1.2440196,0 -2.252369,-0.4918753 -2.2519117,-1.0984885 -4.573e-4,-0.606613 1.0078921,-1.0984885 2.2519117,-1.0984885 1.2440199,0 2.2523687,0.4918755 2.2519114,1.0984885 l 0,0 z"
       id="path5511"
       style="fill:#2e3436;fill-opacity:1;fill-rule:evenodd;stroke:url(#radialGradient2689);stroke-width:0.6165235;stroke-linecap:butt;stroke-linejoin:miter;stroke-miterlimit:10;stroke-opacity:0.99607843;stroke-dasharray:none;stroke-dashoffset:0;marker:none;visibility:visible;display:inline;overflow:visible;enable-background:accumulate" />
    <path
       d="M 8.312162,4.9395948 C 8.3125295,5.4085967 7.5016766,5.7888896 6.5013115,5.7888896 5.5009463,5.7888896 4.6900932,5.4085967 4.6904609,4.9395948 4.6900932,4.4705925 5.5009463,4.0903 6.5013115,4.0903 c 1.0003651,0 1.811218,0.3802925 1.8108505,0.8492948 z"
       id="path5513"
       style="fill:url(#radialGradient2691);fill-opacity:1;fill-rule:evenodd;stroke:none;stroke-width:0.37656182;marker:none;visibility:visible;display:inline;overflow:visible;enable-background:accumulate" />
    <rect
       width="0.87010008"
       height="0.96313173"
       rx="0.30874524"
       ry="0.36692539"
       x="6.0012574"
       y="5.9007931"
       id="rect5515"
       style="fill:#2e3436;fill-opacity:1;fill-rule:nonzero;stroke:url(#radialGradient2693);stroke-width:0.37582615;stroke-linecap:butt;stroke-linejoin:round;stroke-miterlimit:0;stroke-opacity:1;stroke-dasharray:none" />
    <rect
       width="18.999571"
       height="11.999166"
       rx="0.37241617"
       ry="0.38612038"
       x="2.5002143"
       y="6.4944215"
       id="rect5519"
       style="opacity:0.4;fill:none;stroke:url(#linearGradient2695);stroke-width:1.24477255;stroke-linecap:round;stroke-linejoin:round;stroke-miterlimit:4;stroke-opacity:1;stroke-dasharray:none" />
    <path
       d="m 16.748313,14.415939 c 0,1.016313 -0.783223,1.840199 -1.749378,1.840199 -0.966155,0 -1.749379,-0.823886 -1.749379,-1.840199 0,-1.016313 0.783224,-1.840197 1.749379,-1.840197 0.966155,0 1.749378,0.823884 1.749378,1.840197 l 0,0 z"
       id="path10013"
       style="opacity:0.8;fill:url(#radialGradient2697);fill-opacity:1;fill-rule:evenodd;stroke:none;stroke-width:0.94462639;marker:none;visibility:visible;display:inline;overflow:visible;enable-background:accumulate" />
    <rect
       width="0.99964482"
       height="6"
       rx="0.49982241"
       ry="0.60000002"
       x="5"
       y="9.999999"
       id="rect5950"
       style="opacity:0.5;fill:#eeeeec;fill-opacity:1;fill-rule:nonzero;stroke:none;stroke-width:1;marker:none;visibility:visible;display:inline;overflow:visible;enable-background:accumulate" />
    <rect
       width="0.99964482"
       height="4"
       rx="0.49982241"
       ry="0.5"
       x="7"
       y="11.000001"
       id="rect5952"
       style="opacity:0.2;fill:#555753;fill-opacity:1;fill-rule:nonzero;stroke:none;stroke-width:1;marker:none;visibility:visible;display:inline;overflow:visible;enable-background:accumulate" />
  </g>
</svg>
