<?xml version="1.0" encoding="UTF-8" standalone="no"?>
<!-- Created with Inkscape (http://www.inkscape.org/) -->

<svg
   xmlns:dc="http://purl.org/dc/elements/1.1/"
   xmlns:cc="http://creativecommons.org/ns#"
   xmlns:rdf="http://www.w3.org/1999/02/22-rdf-syntax-ns#"
   xmlns:svg="http://www.w3.org/2000/svg"
   xmlns="http://www.w3.org/2000/svg"
   xmlns:xlink="http://www.w3.org/1999/xlink"
   xmlns:sodipodi="http://sodipodi.sourceforge.net/DTD/sodipodi-0.dtd"
   xmlns:inkscape="http://www.inkscape.org/namespaces/inkscape"
   width="22"
   height="22"
   id="svg3167"
   version="1.1"
   inkscape:version="0.47 r22583"
   sodipodi:docname="vlc22.svg"
   inkscape:export-filename="/home/seba/Dropbox/elementary/vlc48.png"
   inkscape:export-xdpi="90"
   inkscape:export-ydpi="90">
  <defs
     id="defs3169">
    <linearGradient
       id="linearGradient4801">
      <stop
         id="stop4803"
         offset="0"
         style="stop-color:#c0c0c0;stop-opacity:1;" />
      <stop
         style="stop-color:#ffffff;stop-opacity:1;"
         offset="0.25"
         id="stop4805" />
      <stop
         style="stop-color:#d2d2d2;stop-opacity:1;"
         offset="0.49916923"
         id="stop4807" />
      <stop
         id="stop4809"
         offset="1"
         style="stop-color:#c8c8c8;stop-opacity:1;" />
    </linearGradient>
    <linearGradient
       inkscape:collect="always"
       id="linearGradient4526">
      <stop
         style="stop-color:#ffffff;stop-opacity:1;"
         offset="0"
         id="stop4528" />
      <stop
         style="stop-color:#ffffff;stop-opacity:0;"
         offset="1"
         id="stop4530" />
    </linearGradient>
    <linearGradient
       id="linearGradient4426">
      <stop
         style="stop-color:#cc4f00;stop-opacity:1"
         offset="0"
         id="stop4428" />
      <stop
         id="stop4436"
         offset="0.25"
         style="stop-color:#ff8636;stop-opacity:1;" />
      <stop
         id="stop4434"
         offset="0.49916923"
         style="stop-color:#ef6000;stop-opacity:1;" />
      <stop
         style="stop-color:#da5700;stop-opacity:1;"
         offset="1"
         id="stop4430" />
    </linearGradient>
    <linearGradient
       id="linearGradient4019">
      <stop
         style="stop-color:#cc5506;stop-opacity:1;"
         offset="0"
         id="stop4021" />
      <stop
         style="stop-color:#f98b41;stop-opacity:1;"
         offset="1"
         id="stop4023" />
    </linearGradient>
    <linearGradient
       inkscape:collect="always"
       id="linearGradient4005">
      <stop
         style="stop-color:#ffffff;stop-opacity:1;"
         offset="0"
         id="stop4007" />
      <stop
         style="stop-color:#ffffff;stop-opacity:0;"
         offset="1"
         id="stop4009" />
    </linearGradient>
    <linearGradient
       id="linearGradient5048">
      <stop
         id="stop5050"
         style="stop-color:#000000;stop-opacity:0"
         offset="0" />
      <stop
         id="stop5056"
         style="stop-color:#000000;stop-opacity:1"
         offset="0.5" />
      <stop
         id="stop5052"
         style="stop-color:#000000;stop-opacity:0"
         offset="1" />
    </linearGradient>
    <linearGradient
       id="linearGradient5060">
      <stop
         id="stop5062"
         style="stop-color:#000000;stop-opacity:1"
         offset="0" />
      <stop
         id="stop5064"
         style="stop-color:#000000;stop-opacity:0"
         offset="1" />
    </linearGradient>
    <linearGradient
       inkscape:collect="always"
       xlink:href="#linearGradient5048"
       id="linearGradient4847"
       gradientUnits="userSpaceOnUse"
       gradientTransform="matrix(2.8616876,0,0,1.4402304,-1923.7312,-587.94232)"
       x1="302.85715"
       y1="366.64789"
       x2="302.85715"
       y2="609.50507" />
    <radialGradient
       inkscape:collect="always"
       xlink:href="#linearGradient5060"
       id="radialGradient4849"
       gradientUnits="userSpaceOnUse"
       gradientTransform="matrix(2.8616876,0,0,1.4402304,-1923.168,-587.94232)"
       cx="605.71429"
       cy="486.64789"
       fx="605.71429"
       fy="486.64789"
       r="117.14286" />
    <radialGradient
       inkscape:collect="always"
       xlink:href="#linearGradient5060"
       id="radialGradient4851"
       gradientUnits="userSpaceOnUse"
       gradientTransform="matrix(-2.8616876,0,0,1.4402304,144.29733,-587.94232)"
       cx="605.71429"
       cy="486.64789"
       fx="605.71429"
       fy="486.64789"
       r="117.14286" />
    <linearGradient
       inkscape:collect="always"
       xlink:href="#linearGradient4019"
       id="linearGradient4853"
       gradientUnits="userSpaceOnUse"
       x1="24.285713"
       y1="27.642859"
       x2="24.285713"
       y2="44.642857"
       gradientTransform="matrix(1.0314659,0,0,0.86775226,-0.76417107,4.0632662)" />
    <linearGradient
       inkscape:collect="always"
       xlink:href="#linearGradient4005"
       id="linearGradient4855"
       gradientUnits="userSpaceOnUse"
       x1="24.285713"
       y1="55.619141"
       x2="24.285713"
       y2="36.142857" />
    <linearGradient
       inkscape:collect="always"
       xlink:href="#linearGradient4426"
       id="linearGradient4857"
       gradientUnits="userSpaceOnUse"
       x1="13.914721"
       y1="20.5625"
       x2="33.147778"
       y2="23.0625"
       gradientTransform="matrix(0.98976974,0,0,0.90052166,0.24968218,0.31844845)" />
    <linearGradient
       inkscape:collect="always"
       xlink:href="#linearGradient4801"
       id="linearGradient4861"
       gradientUnits="userSpaceOnUse"
       x1="13.914721"
       y1="20.5625"
       x2="33.147778"
       y2="23.0625"
       gradientTransform="matrix(0.90555603,0,0,0.9336409,2.1826139,0.30121064)" />
    <linearGradient
       inkscape:collect="always"
       xlink:href="#linearGradient4801"
       id="linearGradient4863"
       gradientUnits="userSpaceOnUse"
       x1="13.914721"
       y1="20.5625"
       x2="33.147778"
       y2="23.0625"
       gradientTransform="matrix(0.90555603,0,0,0.91347522,2.1826139,0.31170641)" />
    <linearGradient
       inkscape:collect="always"
       xlink:href="#linearGradient4526"
       id="linearGradient3034"
       gradientUnits="userSpaceOnUse"
       gradientTransform="translate(0,0.40019516)"
       x1="24.40625"
       y1="44.4375"
       x2="24.40625"
       y2="34.6875" />
  </defs>
  <sodipodi:namedview
     id="base"
     pagecolor="#ffffff"
     bordercolor="#666666"
     borderopacity="1.0"
     inkscape:pageopacity="0.0"
     inkscape:pageshadow="2"
     inkscape:zoom="32"
     inkscape:cx="7.8895657"
     inkscape:cy="14.366813"
     inkscape:current-layer="layer1"
     showgrid="false"
     inkscape:grid-bbox="true"
     inkscape:document-units="px"
     showguides="true"
     inkscape:guide-bbox="true"
     objecttolerance="1"
     gridtolerance="1"
     guidetolerance="1">
    <inkscape:grid
       type="xygrid"
       id="grid4865"
       empspacing="5"
       visible="true"
       enabled="true"
       snapvisiblegridlinesonly="true" />
  </sodipodi:namedview>
  <metadata
     id="metadata3172">
    <rdf:RDF>
      <cc:Work
         rdf:about="">
        <dc:format>image/svg+xml</dc:format>
        <dc:type
           rdf:resource="http://purl.org/dc/dcmitype/StillImage" />
        <dc:title />
      </cc:Work>
    </rdf:RDF>
  </metadata>
  <g
     id="layer1"
     inkscape:label="Layer 1"
     inkscape:groupmode="layer"
     transform="translate(0,-26)">
    <g
       id="g4833"
       transform="matrix(0.46132682,0,0,0.46132682,-0.20353512,26.135742)">
      <g
         transform="matrix(0.02232353,0,0,0.01202587,44.141055,44.0596)"
         id="g8875">
        <rect
           width="1381.7863"
           height="349.77026"
           x="-1580.3287"
           y="-59.884857"
           id="rect8877"
           style="opacity:0.40206185;fill:url(#linearGradient4847);fill-opacity:1;fill-rule:nonzero;stroke:none;stroke-width:1;marker:none;visibility:visible;display:inline;overflow:visible" />
        <path
           d="m -198.54239,-59.872812 c 0,0 0,349.750962 0,349.750962 147.369823,0.6584 356.26854,-78.36144 356.26845,-174.89799 0,-96.536558 -164.453631,-174.852957 -356.26845,-174.852972 z"
           id="path8879"
           style="opacity:0.40206185;fill:url(#radialGradient4849);fill-opacity:1;fill-rule:nonzero;stroke:none;stroke-width:1;marker:none;visibility:visible;display:inline;overflow:visible" />
        <path
           d="m -1580.3287,-59.872812 c 0,0 0,349.750962 0,349.750962 -147.3698,0.6584 -356.2685,-78.36144 -356.2685,-174.89799 0,-96.536558 164.4536,-174.852957 356.2685,-174.852972 z"
           id="path8881"
           style="opacity:0.40206185;fill:url(#radialGradient4851);fill-opacity:1;fill-rule:nonzero;stroke:none;stroke-width:1;marker:none;visibility:visible;display:inline;overflow:visible" />
      </g>
      <path
         sodipodi:nodetypes="ccccccccc"
         id="rect3186-2"
         d="m 9.1086131,29.143 30.6489059,0 c 0.653166,0 1.179001,0.530241 1.179001,1.18888 l 4.125864,13.059641 c 0,0.658638 -0.525835,1.18888 -1.179002,1.18888 l -39.1953368,0 c -0.6531665,0 -1.1790005,-0.530242 -1.1790005,-1.18888 L 7.9296125,30.33188 c 0,-0.658639 0.5258341,-1.18888 1.1790006,-1.18888 z"
         style="color:#000000;fill:#c85100;fill-opacity:1;stroke:#c85100;stroke-width:2.16766095;stroke-linecap:square;stroke-linejoin:round;stroke-miterlimit:4;stroke-opacity:1;stroke-dashoffset:0.44999996;marker:none;visibility:visible;display:inline;overflow:visible;enable-background:accumulate" />
      <path
         sodipodi:nodetypes="ccccccccc"
         id="rect3186"
         d="m 9.1086131,28.484295 30.6489059,0 c 0.653166,0 1.179001,0.476886 1.179001,1.069251 l 4.125864,11.745534 c 0,0.592365 -0.525835,1.069251 -1.179002,1.069251 l -39.1953368,0 c -0.6531665,0 -1.1790005,-0.476886 -1.1790005,-1.069251 L 7.9296125,29.553546 c 0,-0.592365 0.5258341,-1.069251 1.1790006,-1.069251 z"
         style="color:#000000;fill:url(#linearGradient4853);fill-opacity:1;stroke:#c85100;stroke-width:2.16766047;stroke-linecap:square;stroke-linejoin:round;stroke-miterlimit:4;stroke-opacity:1;stroke-dashoffset:0.44999996;marker:none;visibility:visible;display:inline;overflow:visible;enable-background:accumulate" />
      <path
         d="m 10.28125,30.15625 -3.78125,12 35.65625,0 -3.5625,-12 -28.3125,0 z"
         id="path4015"
         style="color:#000000;fill:none;stroke:url(#linearGradient4855);stroke-width:2.33694005;stroke-linecap:square;stroke-linejoin:round;stroke-miterlimit:4;stroke-opacity:1;stroke-dasharray:none;stroke-dashoffset:0.44999996;marker:none;visibility:visible;display:inline;overflow:visible;enable-background:accumulate"
         inkscape:original="M 9.5625 28.15625 C 8.929259 28.15625 8.4375 28.692357 8.4375 29.375 L 4.15625 42.90625 C 4.15625 43.588893 4.648009 44.15625 5.28125 44.15625 L 43.28125 44.15625 C 43.914491 44.15625 44.4375 43.588893 44.4375 42.90625 L 40.4375 29.375 C 40.4375 28.692357 39.914491 28.15625 39.28125 28.15625 L 9.5625 28.15625 z "
         inkscape:radius="-1.9959279"
         sodipodi:type="inkscape:offset"
         transform="matrix(1.0314659,0,0,0.83412771,-0.76417107,5.2408982)" />
      <g
         transform="translate(-0.1205365,0)"
         id="g4819">
        <path
           style="color:#000000;fill:url(#linearGradient4857);fill-opacity:1;stroke:#c85100;stroke-width:2.16766066;stroke-opacity:1;marker:none;visibility:visible;display:inline;overflow:visible;enable-background:accumulate;stroke-miterlimit:4;stroke-dasharray:none"
           d="M 26.416719,1.1626875 C 25.04249,0.62985141 23.92028,0.67868153 22.643223,1.2162413 22.313001,1.355243 22.056928,1.6730095 21.962756,1.9927706 19.114569,11.663875 12.374361,29.867497 12.374361,29.867497 c -0.415667,0.502029 -0.649536,1.022036 -0.649536,1.579836 0,2.802481 5.675585,5.060827 12.681425,5.060827 7.00584,0 12.681425,-2.258346 12.681425,-5.060827 0,-0.506966 -0.210807,-0.984021 -0.556746,-1.445951 -0.01262,-0.01685 -0.01789,-0.03678 -0.03093,-0.05355 0,0 -6.572989,-18.822041 -9.310022,-28.1157187 C 27.097897,1.519431 26.744028,1.2895961 26.416719,1.1626875 z"
           id="path4421"
           sodipodi:nodetypes="csscsssscss" />
        <path
           sodipodi:type="inkscape:offset"
           inkscape:radius="-0.24171171"
           inkscape:original="M 26.4375 1.34375 L 22.625 1.40625 L 21.9375 2.25 L 12.25 33.21875 C 11.830037 33.776238 11.59375 34.34933 11.59375 34.96875 C 11.59375 38.080814 17.327997 40.59375 24.40625 40.59375 C 31.484503 40.59375 37.21875 38.080814 37.21875 34.96875 C 37.21875 34.405781 37.005765 33.887958 36.65625 33.375 C 36.6435 33.35628 36.63818 33.33113 36.625 33.3125 L 27.21875 2.09375 L 26.4375 1.34375 z "
           style="color:#000000;fill:none;stroke:url(#linearGradient3034);stroke-width:2.21920207;stroke-opacity:1;marker:none;visibility:visible;display:inline;overflow:visible;enable-background:accumulate;stroke-miterlimit:4;stroke-dasharray:none"
           id="path3026"
           d="m 26.34375,1.59375 -3.59375,0.0625 -0.625,0.75 -9.65625,30.875 A 0.24173588,0.24173588 0 0 1 12.4375,33.375 c -0.398279,0.528703 -0.59375,1.0358 -0.59375,1.59375 0,0.703787 0.319869,1.389761 0.9375,2.03125 0.617631,0.641489 1.51782,1.21923 2.65625,1.71875 2.27686,0.99904 5.458228,1.625 8.96875,1.625 3.510522,0 6.69189,-0.62596 8.96875,-1.625 1.13843,-0.49952 2.038619,-1.077261 2.65625,-1.71875 0.617631,-0.641489 0.9375,-1.327463 0.9375,-2.03125 0,-0.502005 -0.167379,-0.980586 -0.5,-1.46875 -0.05184,-0.07611 -0.05959,-0.102565 -0.03125,-0.0625 A 0.24173588,0.24173588 0 0 1 36.40625,33.375 L 27.03125,2.25 26.34375,1.59375 z"
           transform="matrix(1,0,0,0.95408901,0,0.02291412)" />
        <path
           style="color:#000000;fill:url(#linearGradient4861);fill-opacity:1;stroke:none;stroke-width:0.85805809;marker:none;visibility:visible;display:inline;overflow:visible;enable-background:accumulate"
           d="m 16.417576,21.86248 c -1.169246,3.936327 -2.381194,6.680859 -2.649329,7.556656 1.529764,2.011972 5.898155,3.442801 10.608765,3.442801 4.522186,0 9.020077,-1.323749 10.676535,-3.20939 -0.124024,-0.428367 -1.47759,-3.959074 -2.548292,-7.731714 -1.985791,0.986867 -5.039162,1.604696 -8.128243,1.604696 -3.147916,0 -5.969528,-0.638378 -7.959436,-1.663049 z"
           id="path4421-2-8"
           sodipodi:nodetypes="ccsccsc" />
        <path
           style="color:#000000;fill:url(#linearGradient4863);fill-opacity:1;stroke:none;stroke-width:0.85805809;marker:none;visibility:visible;display:inline;overflow:visible;enable-background:accumulate"
           d="m 21.565236,6.3063874 c -0.700306,2.7094029 -1.903913,5.6184076 -2.714539,8.5352846 1.553615,0.558384 3.500763,0.884928 5.522722,0.884928 2.045549,0 4.265088,-0.341823 5.831191,-0.913474 -0.783173,-2.930294 -1.984225,-5.826534 -2.664188,-8.5067386 -1.017598,0.1920912 -2.022506,0.2854611 -3.167003,0.2854611 -1.107016,0 -1.819654,-0.1055102 -2.808183,-0.2854611 z"
           id="path4421-2-8-4"
           sodipodi:nodetypes="ccsccsc" />
      </g>
    </g>
  </g>
</svg>
