<?xml version="1.0" encoding="UTF-8" standalone="no"?>
<!-- Created with Inkscape (http://www.inkscape.org/) -->

<svg
   xmlns:dc="http://purl.org/dc/elements/1.1/"
   xmlns:cc="http://creativecommons.org/ns#"
   xmlns:rdf="http://www.w3.org/1999/02/22-rdf-syntax-ns#"
   xmlns:svg="http://www.w3.org/2000/svg"
   xmlns="http://www.w3.org/2000/svg"
   xmlns:xlink="http://www.w3.org/1999/xlink"
   xmlns:sodipodi="http://sodipodi.sourceforge.net/DTD/sodipodi-0.dtd"
   xmlns:inkscape="http://www.inkscape.org/namespaces/inkscape"
   width="22"
   height="22"
   id="svg5141"
   version="1.1"
   inkscape:version="0.48.1 r9760"
   sodipodi:docname="xchat24.svg">
  <defs
     id="defs5143">
    <linearGradient
       inkscape:collect="always"
       xlink:href="#linearGradient3922"
       id="linearGradient4324"
       gradientUnits="userSpaceOnUse"
       x1="68.323135"
       y1="38.827156"
       x2="68.323135"
       y2="81.978249" />
    <linearGradient
       inkscape:collect="always"
       id="linearGradient3922">
      <stop
         style="stop-color:#000000;stop-opacity:1;"
         offset="0"
         id="stop3924" />
      <stop
         style="stop-color:#000000;stop-opacity:0;"
         offset="1"
         id="stop3926" />
    </linearGradient>
    <linearGradient
       inkscape:collect="always"
       xlink:href="#linearGradient3882-6"
       id="linearGradient3792"
       gradientUnits="userSpaceOnUse"
       gradientTransform="matrix(0.46671968,0,0,0.47309918,1.0426046,24.599019)"
       x1="23.184526"
       y1="4.0244036"
       x2="23.184526"
       y2="42.351448" />
    <linearGradient
       id="linearGradient3882-6">
      <stop
         offset="0"
         style="stop-color:#ffffff;stop-opacity:1;"
         id="stop3884-6" />
      <stop
         id="stop3886-6"
         style="stop-color:#ffffff;stop-opacity:0.23529412;"
         offset="0.4393521" />
      <stop
         offset="0.83473867"
         style="stop-color:#ffffff;stop-opacity:0.15686275;"
         id="stop3888-9" />
      <stop
         offset="1"
         style="stop-color:#ffffff;stop-opacity:0.39215687;"
         id="stop3890-06" />
    </linearGradient>
    <radialGradient
       inkscape:collect="always"
       xlink:href="#linearGradient4183"
       id="radialGradient3798"
       gradientUnits="userSpaceOnUse"
       gradientTransform="matrix(0.1527556,-0.1075382,0.05629658,0.08216909,-10.683103,50.211965)"
       cx="92.339943"
       cy="25.526768"
       fx="92.339943"
       fy="25.526768"
       r="23" />
    <linearGradient
       id="linearGradient4183">
      <stop
         offset="0"
         style="stop-color:#fa9654;stop-opacity:1;"
         id="stop4185" />
      <stop
         offset="1"
         style="stop-color:#4e2002;stop-opacity:0;"
         id="stop4187" />
    </linearGradient>
    <radialGradient
       inkscape:collect="always"
       xlink:href="#linearGradient4189"
       id="radialGradient2897-2"
       gradientUnits="userSpaceOnUse"
       gradientTransform="matrix(0,0.83755753,-0.69456998,0,182.87803,205.65948)"
       cx="20.248743"
       cy="4.9115634"
       fx="20.248743"
       fy="4.9115634"
       r="23" />
    <linearGradient
       id="linearGradient4189">
      <stop
         offset="0"
         style="stop-color:#f0d000;stop-opacity:1"
         id="stop4191" />
      <stop
         offset="0.26238"
         style="stop-color:#f09c18;stop-opacity:1"
         id="stop4193" />
      <stop
         offset="0.704952"
         style="stop-color:#f07018;stop-opacity:1"
         id="stop4195" />
      <stop
         offset="1"
         style="stop-color:#e82818;stop-opacity:1"
         id="stop4197" />
    </linearGradient>
    <linearGradient
       inkscape:collect="always"
       xlink:href="#linearGradient4199"
       id="linearGradient2899-5"
       gradientUnits="userSpaceOnUse"
       x1="18.138792"
       y1="45.21809"
       x2="18.138792"
       y2="2.9999995"
       gradientTransform="matrix(0.46671968,0,0,0.47309918,168.79873,221.20507)" />
    <linearGradient
       id="linearGradient4199">
      <stop
         offset="0"
         style="stop-color:#505050;stop-opacity:1;"
         id="stop4201" />
      <stop
         offset="1"
         style="stop-color:#878787;stop-opacity:1;"
         id="stop4203" />
    </linearGradient>
    <radialGradient
       r="10.625"
       fy="4.625"
       fx="62.625"
       cy="4.625"
       cx="62.625"
       gradientTransform="matrix(1.0823548,0,0,0.37647075,112.21754,238.12099)"
       gradientUnits="userSpaceOnUse"
       id="radialGradient3080-6"
       xlink:href="#linearGradient8838-561-565-4"
       inkscape:collect="always" />
    <linearGradient
       id="linearGradient8838-561-565-4">
      <stop
         id="stop4621-31"
         style="stop-color:#0a0a0a;stop-opacity:1"
         offset="0" />
      <stop
         id="stop4623-9"
         style="stop-color:#0a0a0a;stop-opacity:0"
         offset="1" />
    </linearGradient>
  </defs>
  <sodipodi:namedview
     id="base"
     pagecolor="#ffffff"
     bordercolor="#666666"
     borderopacity="1.0"
     inkscape:pageopacity="0.0"
     inkscape:pageshadow="2"
     inkscape:zoom="29.708333"
     inkscape:cx="11"
     inkscape:cy="11.000003"
     inkscape:document-units="px"
     inkscape:current-layer="layer1"
     showgrid="false"
     fit-margin-top="0"
     fit-margin-left="0"
     fit-margin-right="0"
     fit-margin-bottom="0" />
  <metadata
     id="metadata5146">
    <rdf:RDF>
      <cc:Work
         rdf:about="">
        <dc:format>image/svg+xml</dc:format>
        <dc:type
           rdf:resource="http://purl.org/dc/dcmitype/StillImage" />
        <dc:title></dc:title>
      </cc:Work>
    </rdf:RDF>
  </metadata>
  <g
     inkscape:label="Capa 1"
     inkscape:groupmode="layer"
     id="layer1"
     transform="translate(-169,-221.36218)">
    <path
       inkscape:connector-curvature="0"
       style="fill:url(#radialGradient2897-2);fill-opacity:1;fill-rule:evenodd;stroke:url(#linearGradient2899-5);stroke-width:0.9952504;stroke-linecap:butt;stroke-linejoin:round;stroke-miterlimit:4;stroke-opacity:1;stroke-dasharray:none;stroke-dashoffset:0;marker:none;visibility:visible;display:inline;overflow:visible;enable-background:new"
       id="path6145-0"
       d="m 178.51242,222.99497 c -5.37567,0.80338 -9.35334,4.55781 -8.99193,8.62288 0.23404,2.6323 2.22716,4.7989 5.0774,5.94203 l -0.95972,3.79075 c 0,0 -0.10241,0.35489 0.0446,0.48026 0.147,0.12537 0.50103,-0.1404 0.50103,-0.1404 l 4.48766,-3.28994 0.0364,-0.003 c 0.64953,0.0315 1.30207,0.0419 1.97922,-0.0207 5.77836,-0.53439 10.17163,-4.43194 9.79244,-8.69692 -0.37919,-4.26499 -5.3882,-7.293 -11.16655,-6.75861 -0.27086,0.025 -0.53614,0.0345 -0.80052,0.074 z"
       sodipodi:nodetypes="sscczcccssss" />
    <path
       transform="translate(167.75612,196.60605)"
       sodipodi:type="inkscape:offset"
       inkscape:radius="-0.31978282"
       inkscape:original="M 13.65625 26.46875 C 12.977113 26.42944 12.275848 26.46529 11.5625 26.53125 C 11.283922 26.55701 11.030184 26.55655 10.78125 26.59375 C 8.1326654 26.989572 5.8370334 28.11296 4.25 29.625 C 2.6629671 31.137041 1.794754 33.042951 1.96875 35 C 2.1940777 37.534399 4.1091251 39.628172 6.90625 40.75 A 0.2100306 0.21290146 0 0 1 6.96875 40.78125 A 0.2100306 0.21290146 0 0 1 7 40.8125 A 0.2100306 0.21290146 0 0 1 7.03125 40.84375 A 0.2100306 0.21290146 0 0 1 7.0625 40.90625 A 0.2100306 0.21290146 0 0 1 7.0625 40.96875 A 0.2100306 0.21290146 0 0 1 7.0625 41 L 6 45.125 L 10.8125 41.625 A 0.2100306 0.21290146 0 0 1 10.84375 41.59375 A 0.2100306 0.21290146 0 0 1 10.90625 41.59375 L 10.9375 41.59375 A 0.2100306 0.21290146 0 0 1 10.96875 41.59375 C 11.611868 41.62491 12.241656 41.62397 12.90625 41.5625 C 15.754271 41.29911 18.26274 40.195843 20 38.65625 C 21.737259 37.11666 22.713812 35.147131 22.53125 33.09375 C 22.371526 31.297187 21.361611 29.701751 19.78125 28.53125 C 18.20089 27.360747 16.037301 26.606586 13.65625 26.46875 z "
       style="fill:url(#radialGradient3798);fill-opacity:1;fill-rule:evenodd;stroke:none;stroke-width:0.99525028;marker:none;visibility:visible;display:inline;overflow:visible;enable-background:new"
       id="path3794"
       d="m 13.625,26.78125 c -0.655261,-0.03793 -1.326457,-0.0027 -2.03125,0.0625 -0.296653,0.02743 -0.532862,0.03005 -0.75,0.0625 -2.5878229,0.386741 -4.8421979,1.477129 -6.375,2.9375 -1.5320392,1.459646 -2.3515642,3.27966 -2.1875,5.125 0.2125496,2.390675 2.0336612,4.410572 4.75,5.5 A 0.3198148,0.3198148 0 0 1 7.15625,40.5625 0.3198148,0.3198148 0 0 1 7.09375,41 L 7.375,41.09375 6.53125,44.34375 10.625,41.375 a 0.3198148,0.3198148 0 0 1 0.0625,-0.03125 0.3198148,0.3198148 0 0 1 0.03125,-0.03125 0.3198148,0.3198148 0 0 1 0.0625,0 0.3198148,0.3198148 0 0 1 0.03125,0 0.3198148,0.3198148 0 0 1 0.03125,-0.03125 0.3198148,0.3198148 0 0 1 0.0625,0 l 0.03125,0 a 0.3198148,0.3198148 0 0 1 0.03125,0 c 0.02074,0.001 0.0418,-9.36e-4 0.0625,0 0.610817,0.02761 1.218496,0.02658 1.84375,-0.03125 2.783629,-0.257435 5.226592,-1.355205 6.90625,-2.84375 1.680464,-1.489258 2.609556,-3.346034 2.4375,-5.28125 -0.150673,-1.694763 -1.103962,-3.217187 -2.625,-4.34375 -1.520976,-1.12652 -3.643727,-1.865407 -5.96875,-2 z" />
    <path
       sodipodi:type="inkscape:offset"
       inkscape:radius="-0.56859761"
       inkscape:original="M 11.59375 26.78125 C 11.353244 26.8035 11.109788 26.80909 10.875 26.84375 C 6.1009819 27.548551 1.9179748 30.690016 2.25 34.9375 C 2.4730111 37.790401 4.6522087 39.725021 7.375 40.625 L 6.46875 44.4375 L 10.75 41.3125 C 11.326514 41.33789 12.211232 41.39936 12.8125 41.34375 C 17.358756 40.923307 22.661956 37.505521 22.28125 33.25 C 21.875611 28.743233 16.559901 26.321974 11.59375 26.78125 z "
       style="opacity:0.4;fill:none;stroke:url(#linearGradient3792);stroke-width:0.99355257;stroke-linecap:butt;stroke-linejoin:miter;stroke-miterlimit:4;stroke-opacity:1;stroke-dasharray:none;stroke-dashoffset:0;marker:none;visibility:visible;display:inline;overflow:visible;enable-background:new"
       id="path3790"
       d="m 11.65625,27.34375 c -0.266855,0.02469 -0.500152,0.03484 -0.6875,0.0625 C 8.6787537,27.744328 6.5313884,28.684075 5.03125,30 3.5311116,31.315925 2.6617943,32.978324 2.8125,34.90625 c 0.2021393,2.585896 2.1719144,4.335351 4.75,5.1875 A 0.56865447,0.56865447 0 0 1 7.9375,40.75 l -0.53125,2.28125 3,-2.1875 a 0.56865447,0.56865447 0 0 1 0.375,-0.09375 c 0.591269,0.02604 1.456675,0.07861 1.96875,0.03125 2.152637,-0.199078 4.531404,-1.136374 6.28125,-2.5 1.749846,-1.363626 2.85577,-3.087832 2.6875,-4.96875 -0.183755,-2.041575 -1.462015,-3.61092 -3.34375,-4.65625 -1.881735,-1.04533 -4.345432,-1.531987 -6.71875,-1.3125 z"
       transform="matrix(1.0034207,0,0,1,167.69242,196.60605)" />
    <g
       style="display:inline;enable-background:new"
       id="g4316"
       transform="matrix(0.18357572,0,0,0.18357572,167.60307,220.19473)">
      <path
         style="color:#000000;fill:#505050;fill-opacity:1;fill-rule:nonzero;stroke:none;stroke-width:0.99999994;marker:none;visibility:visible;display:inline;overflow:visible;enable-background:accumulate"
         d="m 80.777658,31.545724 -13.25825,13.25825 -13.23616,-13.23616 -9.50174,9.50175 13.23615,13.23615 -13.23615,13.23616 9.50174,9.50175 13.23616,-13.23616 13.25825,13.25825 9.50175,-9.50174 -13.25825,-13.25826 13.25825,-13.25825 -9.50175,-9.50174 z"
         id="path4318"
         inkscape:connector-curvature="0" />
      <path
         inkscape:connector-curvature="0"
         id="path4320"
         d="m 80.777658,37.28036 -13.25825,13.25825 -13.23616,-13.23616 -9.50174,9.50175 13.23615,13.23615 -13.23615,13.23616 9.50174,9.50175 13.23616,-13.23616 13.25825,13.25825 9.50175,-9.50174 -13.25825,-13.25826 13.25825,-13.25825 -9.50175,-9.50174 z"
         style="color:#000000;fill:#ffffff;fill-opacity:1;fill-rule:nonzero;stroke:none;stroke-width:0.99999994;marker:none;visibility:visible;display:inline;overflow:visible;enable-background:accumulate" />
      <path
         d="M 80.78125,41.21875 69.5,52.5 a 2.8025323,2.8025323 0 0 1 -3.9375,0 L 54.28125,41.25 48.71875,46.8125 60,58.0625 A 2.8025323,2.8025323 0 0 1 60,62 l -11.28125,11.28125 5.5625,5.5625 L 65.5625,67.5625 a 2.8025323,2.8025323 0 0 1 3.9375,0 L 80.78125,78.875 86.34375,73.3125 75.0625,62 a 2.8025323,2.8025323 0 0 1 0,-3.9375 l 11.28125,-11.28125 -5.5625,-5.5625 z"
         id="path4322"
         style="opacity:0.07000002;color:#000000;fill:none;stroke:url(#linearGradient4324);stroke-width:5.44734335;stroke-linecap:square;stroke-linejoin:miter;stroke-miterlimit:4;stroke-opacity:1;stroke-dasharray:none;stroke-dashoffset:0;marker:none;visibility:visible;display:inline;overflow:visible;enable-background:accumulate"
         inkscape:original="M 80.78125 37.28125 L 67.53125 50.53125 L 54.28125 37.3125 L 44.78125 46.8125 L 58.03125 60.03125 L 44.78125 73.28125 L 54.28125 82.78125 L 67.53125 69.53125 L 80.78125 82.8125 L 90.28125 73.3125 L 77.03125 60.03125 L 90.28125 46.78125 L 80.78125 37.28125 z "
         inkscape:radius="-2.8022521"
         sodipodi:type="inkscape:offset" />
    </g>
  </g>
</svg>
