<?xml version="1.0" encoding="UTF-8" standalone="no"?>
<!-- Created with Inkscape (http://www.inkscape.org/) -->
<svg id="svg4008" xmlns:rdf="http://www.w3.org/1999/02/22-rdf-syntax-ns#" xmlns="http://www.w3.org/2000/svg" height="16" width="16" version="1.1" xmlns:cc="http://creativecommons.org/ns#" xmlns:dc="http://purl.org/dc/elements/1.1/">
 <metadata id="metadata4013">
  <rdf:RDF>
   <cc:Work rdf:about="">
    <dc:format>image/svg+xml</dc:format>
    <dc:type rdf:resource="http://purl.org/dc/dcmitype/StillImage"/>
    <dc:title/>
   </cc:Work>
  </rdf:RDF>
 </metadata>
 <g id="layer1" transform="translate(0,-16)">
  <path id="rect3557-4" style="opacity:.3;color:#ffffff;fill:#fff" d="m7.4167 18c-0.32317 0-0.58333 0.26017-0.58333 0.58333v1.3125c-0.58649 0.13355-1.1287 0.36261-1.6224 0.67448l-0.9298-0.929c-0.22851-0.22851-0.5918-0.22851-0.82031 0l-0.82031 0.82031c-0.22851 0.22851-0.22851 0.5918 0 0.82031l0.92969 0.92969c-0.31187 0.49372-0.54093 1.0359-0.67448 1.6224h-1.3125c-0.3231 0-0.5833 0.261-0.5833 0.584v1.1667c0 0.32316 0.26017 0.58333 0.58333 0.58333h1.3125c0.13355 0.58649 0.36261 1.1287 0.67448 1.6224l-0.9297 0.93c-0.22851 0.22851-0.22851 0.5918 0 0.82031l0.82031 0.82031c0.22851 0.22851 0.5918 0.22852 0.82031 0l0.92969-0.92969c0.49372 0.31187 1.0359 0.54093 1.6224 0.67448v1.3125c0 0.324 0.2602 0.584 0.5834 0.584h1.1667c0.32317 0 0.58333-0.26017 0.58333-0.58333v-1.3125c0.58649-0.13355 1.1287-0.36261 1.6224-0.67448l0.92969 0.92969c0.22852 0.22851 0.5918 0.22851 0.82031 0l0.82031-0.82031c0.22851-0.22851 0.22852-0.5918 0-0.82031l-0.92969-0.92969c0.31187-0.49372 0.54093-1.0359 0.67448-1.6224h1.3125c0.324-0.001 0.584-0.262 0.584-0.585v-1.1667c0-0.32316-0.26016-0.58333-0.58333-0.58333h-1.3125c-0.13355-0.58649-0.36261-1.1287-0.67448-1.6224l0.92969-0.92969c0.22851-0.22851 0.22851-0.5918 0-0.82031l-0.82031-0.82031c-0.22851-0.22851-0.5918-0.22851-0.82031 0l-0.92969 0.92969c-0.495-0.313-1.0368-0.542-1.6233-0.675v-1.3125c0-0.32317-0.26017-0.58333-0.58333-0.58333h-1.1667zm0.58333 4.6667c1.288-0.000002 2.3333 1.0453 2.3333 2.3333s-1.0453 2.3333-2.3333 2.3333-2.3333-1.0453-2.3333-2.3333c0.000001-1.288 1.0453-2.3333 2.3333-2.3333z"/>
  <path id="rect3557" style="color:#ffffff;fill:#3c3c3c" d="m7.4167 17c-0.32317 0-0.58333 0.26017-0.58333 0.58333v1.3125c-0.58649 0.13355-1.1287 0.36261-1.6224 0.67448l-0.9298-0.929c-0.22851-0.22851-0.5918-0.22851-0.82031 0l-0.82031 0.82031c-0.22851 0.22851-0.22851 0.5918 0 0.82031l0.92969 0.92969c-0.31187 0.49372-0.54093 1.0359-0.67448 1.6224h-1.3125c-0.3231 0-0.5833 0.261-0.5833 0.584v1.1667c0 0.32316 0.26017 0.58333 0.58333 0.58333h1.3125c0.13355 0.58649 0.36261 1.1287 0.67448 1.6224l-0.9297 0.93c-0.22851 0.22851-0.22851 0.5918 0 0.82031l0.82031 0.82031c0.22851 0.22851 0.5918 0.22852 0.82031 0l0.92969-0.92969c0.49372 0.31187 1.0359 0.54093 1.6224 0.67448v1.3125c0 0.324 0.2602 0.584 0.5834 0.584h1.1667c0.32317 0 0.58333-0.26017 0.58333-0.58333v-1.3125c0.58649-0.13355 1.1287-0.36261 1.6224-0.67448l0.92969 0.92969c0.22852 0.22851 0.5918 0.22851 0.82031 0l0.82031-0.82031c0.22851-0.22851 0.22852-0.5918 0-0.82031l-0.92969-0.92969c0.31187-0.49372 0.54093-1.0359 0.67448-1.6224h1.3125c0.324-0.001 0.584-0.262 0.584-0.585v-1.1667c0-0.32316-0.26016-0.58333-0.58333-0.58333h-1.3125c-0.13355-0.58649-0.36261-1.1287-0.67448-1.6224l0.92969-0.92969c0.22851-0.22851 0.22851-0.5918 0-0.82031l-0.82031-0.82031c-0.22851-0.22851-0.5918-0.22851-0.82031 0l-0.92969 0.92969c-0.495-0.313-1.0368-0.542-1.6233-0.675v-1.3125c0-0.32317-0.26017-0.58333-0.58333-0.58333h-1.1667zm0.58333 4.6667c1.288-0.000002 2.3333 1.0453 2.3333 2.3333s-1.0453 2.3333-2.3333 2.3333-2.3333-1.0453-2.3333-2.3333c0.000001-1.288 1.0453-2.3333 2.3333-2.3333z"/>
 </g>
</svg>
