<?xml version="1.0" encoding="UTF-8" standalone="no"?>
<!-- Created with Inkscape (http://www.inkscape.org/) -->

<svg
   xmlns:dc="http://purl.org/dc/elements/1.1/"
   xmlns:cc="http://creativecommons.org/ns#"
   xmlns:rdf="http://www.w3.org/1999/02/22-rdf-syntax-ns#"
   xmlns:svg="http://www.w3.org/2000/svg"
   xmlns="http://www.w3.org/2000/svg"
   xmlns:xlink="http://www.w3.org/1999/xlink"
   xmlns:sodipodi="http://sodipodi.sourceforge.net/DTD/sodipodi-0.dtd"
   xmlns:inkscape="http://www.inkscape.org/namespaces/inkscape"
   width="128.00006"
   height="128"
   id="svg6570"
   version="1.1"
   inkscape:version="0.48.1 r9760"
   sodipodi:docname="liferea128.svg">
  <defs
     id="defs6572">
    <radialGradient
       cx="62.625"
       cy="4.625"
       r="10.625"
       fx="62.625"
       fy="4.625"
       id="radialGradient3757-9"
       xlink:href="#linearGradient8838-6"
       gradientUnits="userSpaceOnUse"
       gradientTransform="matrix(1,0,0,0.341176,0,3.047059)" />
    <linearGradient
       id="linearGradient8838-6">
      <stop
         id="stop8840-2"
         style="stop-color:#000000;stop-opacity:1"
         offset="0" />
      <stop
         id="stop8842-3"
         style="stop-color:#000000;stop-opacity:0"
         offset="1" />
    </linearGradient>
    <radialGradient
       cx="61.240059"
       cy="-8.7256308"
       r="9.7552834"
       fx="61.240059"
       fy="-8.7256308"
       id="radialGradient3705-3"
       xlink:href="#linearGradient2867-449-88-871-390-598-476-591-434-148-0"
       gradientUnits="userSpaceOnUse"
       gradientTransform="matrix(0,3.5234091,-3.5234073,0,-6.7439676,-205.79862)" />
    <linearGradient
       id="linearGradient2867-449-88-871-390-598-476-591-434-148-0">
      <stop
         id="stop4627-3"
         style="stop-color:#51cfee;stop-opacity:1"
         offset="0" />
      <stop
         id="stop4629-6"
         style="stop-color:#49a3d2;stop-opacity:1"
         offset="0.26238" />
      <stop
         id="stop4631-4"
         style="stop-color:#3470b4;stop-opacity:1"
         offset="0.704952" />
      <stop
         id="stop4633-7"
         style="stop-color:#273567;stop-opacity:1"
         offset="1" />
    </linearGradient>
    <linearGradient
       x1="20"
       y1="43"
       x2="20"
       y2="2.6887112"
       id="linearGradient3713-4"
       xlink:href="#linearGradient3707-319-631-6"
       gradientUnits="userSpaceOnUse"
       gradientTransform="matrix(0.98001402,0,0,0.97999168,0.08994011,0.8703621)" />
    <linearGradient
       id="linearGradient3707-319-631-6">
      <stop
         id="stop4637-5"
         style="stop-color:#254b6d;stop-opacity:1"
         offset="0" />
      <stop
         id="stop4639-8"
         style="stop-color:#415b73;stop-opacity:1"
         offset="0.5" />
      <stop
         id="stop4641-4"
         style="stop-color:#6195b5;stop-opacity:1"
         offset="1" />
    </linearGradient>
    <linearGradient
       x1="62.200409"
       y1="-12.489107"
       x2="62.200409"
       y2="-1.4615115"
       id="linearGradient3697-8"
       xlink:href="#linearGradient4873-3"
       gradientUnits="userSpaceOnUse"
       gradientTransform="matrix(2.1153734,0,0,2.1153252,-107.57708,31.426557)" />
    <linearGradient
       id="linearGradient4873-3">
      <stop
         id="stop4875-3"
         style="stop-color:#ffffff;stop-opacity:1"
         offset="0" />
      <stop
         id="stop4877-0"
         style="stop-color:#ffffff;stop-opacity:0"
         offset="1" />
    </linearGradient>
    <linearGradient
       inkscape:collect="always"
       xlink:href="#linearGradient4035"
       id="linearGradient4156"
       gradientUnits="userSpaceOnUse"
       x1="157.79547"
       y1="20.110691"
       x2="157.79547"
       y2="47.532818" />
    <linearGradient
       inkscape:collect="always"
       id="linearGradient4035">
      <stop
         style="stop-color:#ffffff;stop-opacity:1;"
         offset="0"
         id="stop4037" />
      <stop
         style="stop-color:#ffffff;stop-opacity:0;"
         offset="1"
         id="stop4039" />
    </linearGradient>
    <linearGradient
       inkscape:collect="always"
       xlink:href="#linearGradient4015"
       id="linearGradient4154"
       gradientUnits="userSpaceOnUse"
       gradientTransform="matrix(2.9401723,0,0,3.2831062,-213.11866,230.48869)"
       x1="158.90813"
       y1="48.431599"
       x2="158.90813"
       y2="19.244049" />
    <linearGradient
       id="linearGradient4015">
      <stop
         style="stop-color:#8c8c8c;stop-opacity:1;"
         offset="0"
         id="stop4017" />
      <stop
         id="stop4029"
         offset="0.03117742"
         style="stop-color:#969696;stop-opacity:1;" />
      <stop
         id="stop4027"
         offset="0.0741232"
         style="stop-color:#a0a0a0;stop-opacity:1;" />
      <stop
         id="stop4025"
         offset="0.15525444"
         style="stop-color:#dcdcdc;stop-opacity:1;" />
      <stop
         id="stop4023"
         offset="0.5"
         style="stop-color:#e1e1e1;stop-opacity:1;" />
      <stop
         style="stop-color:#e6e6e6;stop-opacity:1;"
         offset="1"
         id="stop4019" />
    </linearGradient>
    <linearGradient
       inkscape:collect="always"
       xlink:href="#linearGradient5648"
       id="linearGradient5662"
       x1="57.583424"
       y1="123.50664"
       x2="57.583424"
       y2="27.176994"
       gradientUnits="userSpaceOnUse"
       gradientTransform="translate(184.42854,266.12302)" />
    <linearGradient
       id="linearGradient5648">
      <stop
         style="stop-color:#646464;stop-opacity:1;"
         offset="0"
         id="stop5650" />
      <stop
         style="stop-color:#b4b4b4;stop-opacity:1;"
         offset="1"
         id="stop5652" />
    </linearGradient>
    <radialGradient
       inkscape:collect="always"
       xlink:href="#linearGradient3688"
       id="radialGradient4148"
       gradientUnits="userSpaceOnUse"
       gradientTransform="matrix(2.003784,0,0,1.4,27.98813,-17.4)"
       cx="4.9929786"
       cy="43.5"
       fx="4.9929786"
       fy="43.5"
       r="2.5" />
    <linearGradient
       id="linearGradient3688">
      <stop
         id="stop3690"
         style="stop-color:#000000;stop-opacity:1"
         offset="0" />
      <stop
         id="stop3692"
         style="stop-color:#000000;stop-opacity:0"
         offset="1" />
    </linearGradient>
    <radialGradient
       inkscape:collect="always"
       xlink:href="#linearGradient3688"
       id="radialGradient4150"
       gradientUnits="userSpaceOnUse"
       gradientTransform="matrix(2.003784,0,0,1.4,-20.01187,-104.4)"
       cx="4.9929786"
       cy="43.5"
       fx="4.9929786"
       fy="43.5"
       r="2.5" />
    <linearGradient
       inkscape:collect="always"
       xlink:href="#linearGradient3702"
       id="linearGradient4152"
       gradientUnits="userSpaceOnUse"
       x1="25.058096"
       y1="47.027729"
       x2="25.058096"
       y2="39.999443" />
    <linearGradient
       id="linearGradient3702">
      <stop
         id="stop3704"
         style="stop-color:#000000;stop-opacity:0"
         offset="0" />
      <stop
         id="stop3710"
         style="stop-color:#000000;stop-opacity:1"
         offset="0.5" />
      <stop
         id="stop3706"
         style="stop-color:#000000;stop-opacity:0"
         offset="1" />
    </linearGradient>
  </defs>
  <sodipodi:namedview
     id="base"
     pagecolor="#ffffff"
     bordercolor="#666666"
     borderopacity="1.0"
     inkscape:pageopacity="0.0"
     inkscape:pageshadow="2"
     inkscape:zoom="5.5703125"
     inkscape:cx="64.000031"
     inkscape:cy="64"
     inkscape:document-units="px"
     inkscape:current-layer="layer1"
     showgrid="false"
     fit-margin-top="0"
     fit-margin-left="0"
     fit-margin-right="0"
     fit-margin-bottom="0" />
  <metadata
     id="metadata6575">
    <rdf:RDF>
      <cc:Work
         rdf:about="">
        <dc:format>image/svg+xml</dc:format>
        <dc:type
           rdf:resource="http://purl.org/dc/dcmitype/StillImage" />
        <dc:title />
      </cc:Work>
    </rdf:RDF>
  </metadata>
  <g
     inkscape:label="Capa 1"
     inkscape:groupmode="layer"
     id="layer1"
     transform="translate(-187.42854,-271.21933)">
    <g
       style="display:inline;enable-background:new"
       id="g4072"
       transform="matrix(3.2000003,0,0,1.1893672,174.62853,338.3191)">
      <g
         style="opacity:0.4"
         id="g4074"
         transform="matrix(1.052632,0,0,1.285713,-1.263158,-13.42854)">
        <rect
           style="fill:url(#radialGradient4148);fill-opacity:1;stroke:none"
           id="rect4076"
           y="40"
           x="38"
           height="7"
           width="5" />
        <rect
           style="fill:url(#radialGradient4150);fill-opacity:1;stroke:none"
           id="rect4078"
           transform="scale(-1,-1)"
           y="-47"
           x="-10"
           height="7"
           width="5" />
        <rect
           style="fill:url(#linearGradient4152);fill-opacity:1;stroke:none"
           id="rect4080"
           y="40"
           x="10"
           height="7.0000005"
           width="28" />
      </g>
    </g>
    <path
       style="color:#000000;fill:url(#linearGradient4154);fill-opacity:1;stroke:url(#linearGradient5662);stroke-width:0.99999988;stroke-linecap:round;stroke-linejoin:round;stroke-miterlimit:4;stroke-opacity:1;stroke-dasharray:none;stroke-dashoffset:0;marker:none;visibility:visible;display:inline;overflow:visible;enable-background:accumulate"
       d="m 194.09524,293.38068 c 0,27.83801 0,55.676 0,83.51401 0,7.07364 5.05841,12.82464 11.39319,12.82464 l 91.88034,0 c 6.33473,0 11.39318,-5.751 11.39318,-12.82464 0,-28.12818 0,-55.676 0,-83.51401 -38.22222,0 -76.44448,0 -114.66671,0 z"
       id="path4082"
       inkscape:connector-curvature="0"
       sodipodi:nodetypes="ccssccc" />
    <path
       sodipodi:type="inkscape:offset"
       inkscape:radius="-0.97227168"
       inkscape:original="M 138.5 19.15625 L 138.5 44.59375 C 138.5 46.748304 140.22045 48.5 142.375 48.5 L 173.625 48.5 C 175.77955 48.5 177.5 46.748304 177.5 44.59375 L 177.5 19.15625 L 138.5 19.15625 z "
       style="color:#000000;fill:none;stroke:url(#linearGradient4156);stroke-width:0.30937532;stroke-linecap:round;stroke-linejoin:round;stroke-miterlimit:4;stroke-opacity:1;stroke-dasharray:none;stroke-dashoffset:0;marker:none;visibility:visible;display:inline;overflow:visible;enable-background:accumulate"
       id="path4084"
       d="m 139.46875,20.125 0,24.46875 c 0,1.63697 1.27869,2.9375 2.90625,2.9375 l 31.25,0 c 1.62756,0 2.90625,-1.30053 2.90625,-2.9375 l 0,-24.46875 -37.0625,0 z"
       transform="matrix(3.0404012,0,0,3.4363516,-228.96655,225.21269)" />
    <g
       transform="scale(1.0178768,0.98243716)"
       style="font-size:31.99898338px;font-style:normal;font-variant:normal;font-weight:500;font-stretch:normal;text-align:start;line-height:125%;letter-spacing:0px;word-spacing:0px;writing-mode:lr-tb;text-anchor:start;fill:#3c3c3c;fill-opacity:1;stroke:none;display:inline;enable-background:new;font-family:English Towne;-inkscape-font-specification:English Towne Medium"
       id="text4086">
      <path
         d="m 235.01859,308.79906 c -0.66134,0.34134 -1.25865,0.512 -1.79195,0.51198 -0.85332,2e-5 -1.77062,-0.38396 -2.75191,-1.15196 l -3.51989,3.35989 0.76798,0.76798 0.60798,-0.51198 c 0.44797,0.42667 1.20528,0.63999 2.27193,0.63998 l 0.15999,0 0.064,-0.032 0.064,0 0.032,3.74388 -0.064,0 -0.25599,0.064 -0.128,0 c -0.12801,0.064 -0.448,0.096 -0.95997,0.096 -0.0213,0.0214 -0.13868,0.032 -0.35199,0.032 -0.81065,10e-6 -1.37597,-0.10665 -1.69594,-0.31999 -0.55467,-1.00262 -1.00265,-1.81326 -1.34396,-2.43192 -0.32,-0.63996 -0.59733,-1.17328 -0.83198,-1.59995 -0.87464,-1.27994 -1.57862,-2.16525 -2.11193,-2.65592 -0.81065,-0.74662 -1.79195,-1.11994 -2.9439,-1.11996 -1.1733,2e-5 -2.15461,0.45867 -2.94391,1.37596 -0.81064,0.87465 -1.21596,1.88795 -1.21596,3.0399 0,0.83199 0.22399,1.29064 0.67198,1.37596 l -0.064,-0.064 0.22399,0 c 0.064,-0.7253 0.54398,-1.31194 1.43996,-1.75995 0.0427,-0.0426 0.096,-0.064 0.15999,-0.064 0.0853,10e-6 0.15999,-0.0106 0.22399,-0.032 0.14933,-0.0426 0.29866,-0.0746 0.44799,-0.096 0.17066,-0.0426 0.30932,-0.10665 0.41599,-0.19199 l 0.064,0 0,5.24783 c -0.38399,0.0427 -0.69331,0.0853 -0.92797,0.128 -0.23466,0.0427 -0.39465,0.0747 -0.47998,0.096 -0.93864,0.384 -1.40796,1.22664 -1.40796,2.52792 0,0.59732 0.19199,1.11997 0.57598,1.56795 0.38399,0.44799 0.85331,0.67199 1.40796,0.67198 l 0,-0.22399 0,-0.128 -0.032,-0.032 c 0,-0.17065 0.0427,-0.34131 0.128,-0.51198 0.10666,-0.19199 0.23465,-0.28798 0.38398,-0.28799 l 0.064,0 c 0.064,0.0427 0.11733,0.0747 0.16,0.096 0.0427,0 0.0853,0.0107 0.12799,0.032 l 0,4.28787 c -2.11193,0.63998 -3.47722,2.0906 -4.09587,4.35186 0.128,-0.0427 0.27733,-0.10666 0.44799,-0.19199 0.19199,-0.064 0.28799,-0.096 0.28799,-0.096 0.0853,-0.0427 0.19199,-0.10666 0.31999,-0.19199 l 0,0.032 c 0.89597,-0.42665 1.82394,-0.63998 2.78391,-0.63998 1.30129,0 2.69858,0.46932 4.19187,1.40796 l 2.55992,-3.35989 -0.70398,-0.70398 -0.38399,0.51198 c -0.61865,-0.42665 -1.24797,-0.74664 -1.88794,-0.95997 -0.63999,-0.23465 -1.31196,-0.35198 -2.01593,-0.35199 l -0.192,0 -0.064,0.032 -0.032,0 0,-3.0719 c 0.51198,-0.34131 1.33329,-0.51198 2.46393,-0.51198 0.85329,0 1.83459,0.23466 2.9439,0.70397 0.10666,0.23467 0.21332,0.46933 0.31999,0.70398 0.10665,0.21333 0.21332,0.41599 0.31999,0.60798 0.42664,0.83198 0.74663,1.49329 0.95997,1.98394 0.23465,0.46932 0.45864,0.86397 0.67198,1.18396 l -0.032,0 c 1.19462,2.1546 2.31458,3.2319 3.3599,3.2319 l 0.19199,0 0,-17.72744 c 0.064,-0.0213 0.13864,-0.0426 0.22399,-0.064 0.10665,-0.0426 0.22398,-0.10664 0.35199,-0.19199 l 0,0.032 c 0.57596,-0.29864 1.10928,-0.70396 1.59995,-1.21596 0.31997,-0.31997 0.55463,-0.6293 0.70398,-0.92797 0.14931,-0.29864 0.23464,-0.5973 0.25599,-0.89597 l -0.19199,-0.128 m -11.51964,11.51963 c -0.66132,10e-6 -1.53596,0.14934 -2.62392,0.44799 l 0,-8.57573 c 0.49065,0.23468 1.08796,0.99199 1.79195,2.27193 0.34131,0.68266 0.8213,1.70663 1.43995,3.0719 0.36265,0.78932 0.6613,1.43997 0.89597,1.95194 0.23465,0.49066 0.41598,0.86398 0.54399,1.11997 -0.68266,-0.19199 -1.3653,-0.28799 -2.04794,-0.288 m 5.27983,-1.24796 c -0.192,-0.42664 -0.352,-0.77863 -0.47998,-1.05596 -0.12801,-0.27732 -0.22401,-0.49064 -0.28799,-0.63998 0.25598,0.0853 0.5333,0.12801 0.83197,0.12799 l 0.86397,0 c 0.25598,2e-5 0.47997,-0.0106 0.67198,-0.032 0.21331,-0.0213 0.38398,-0.064 0.51199,-0.128 l 0.032,5.72782 c -0.32001,-0.46932 -0.66133,-1.02396 -1.02397,-1.66395 -0.34134,-0.6613 -0.71466,-1.43995 -1.11997,-2.33593"
         style=""
         id="path3094" />
      <path
         d="m 246.05074,320.1267 c -0.21334,-0.29865 -0.448,-0.65064 -0.70398,-1.05597 -0.23467,-0.42664 -0.49066,-0.88529 -0.76798,-1.37595 -0.29866,-0.55464 -0.53332,-1.05596 -0.70398,-1.50395 -0.17066,-0.44798 -0.30933,-0.86396 -0.41598,-1.24796 -2.11194,1.40796 -4.01055,2.11194 -5.69582,2.11193 l -0.128,0 -0.096,-0.032 -0.096,0 -0.032,-0.032 -0.19199,0 -0.28799,-0.28799 0,0.44799 c 0.34132,0.74665 0.51198,1.27996 0.51198,1.59994 l 0,7.74376 c -0.42666,0.31999 -0.71465,0.57598 -0.86397,0.76797 -0.0213,0.0213 -0.0853,0.10667 -0.192,0.256 -0.0853,0.14933 -0.20266,0.34132 -0.35199,0.57598 l 0,-0.032 c -0.0427,0.0427 -0.0853,0.10666 -0.12799,0.19199 -0.0427,0.064 -0.0853,0.14933 -0.128,0.25599 0.25599,-0.0427 0.51198,-0.0747 0.76798,-0.096 0.25599,-0.0427 0.51198,-0.064 0.76797,-0.064 0.68265,0 1.49329,0.096 2.43193,0.28799 0.55464,0.10666 1.04529,0.25599 1.47195,0.44799 0.42665,0.21332 0.86397,0.43731 1.31196,0.67197 l 0.31999,0.16 2.9119,-3.1999 -0.79997,-0.73598 -0.76798,0.79998 c -0.49065,-0.23466 -1.02397,-0.43732 -1.59994,-0.60798 -0.55466,-0.17066 -1.16264,-0.30932 -1.82395,-0.41599 l 0,-2.39992 c 0.23466,-0.17066 0.44798,-0.30932 0.63998,-0.41599 1.30129,-0.76797 2.32525,-1.36528 3.07191,-1.79194 0.76796,-0.44798 1.27994,-0.73597 1.53595,-0.86397 l 0.032,-0.16 m -4.25587,-0.60798 c 0.14932,0.32 0.27732,0.58666 0.38399,0.79997 0.12799,0.19201 0.23465,0.352 0.31999,0.47999 l -1.72795,1.11996 0,-4.09587 0.256,-0.064 c 0.10665,0.29866 0.22398,0.59732 0.35198,0.89597 0.12799,0.29866 0.26666,0.58665 0.41599,0.86397"
         style=""
         id="path3096" />
      <path
         d="m 265.50262,316.83081 c -0.10668,0.0427 -0.18135,0.0853 -0.224,0.12799 -0.0853,0.0213 -0.14934,0.032 -0.19199,0.032 -0.0427,1e-5 -0.0854,0.0107 -0.12799,0.032 l 0,0.032 -0.032,0 c -0.0427,0.0213 -0.0854,0.032 -0.128,0.032 -0.19201,1e-5 -0.29868,-0.0107 -0.31999,-0.032 -0.68266,-0.064 -1.29064,-0.65064 -1.82394,-1.75995 l -3.51989,2.59192 0.47998,0.76798 0.38399,-0.16 c 0.34131,0.40533 0.6613,0.65066 0.95997,0.73598 l 0,7.74375 c -10e-6,0.40532 -0.19201,0.60798 -0.57598,0.60798 l -0.35199,0 c -0.0213,0 -0.0427,0 -0.064,0 -10e-6,-0.0213 -10e-6,-0.032 0,-0.032 -0.0853,-0.0427 -0.18134,-0.0747 -0.28799,-0.096 -0.10667,-0.0427 -0.192,-0.0853 -0.25599,-0.128 -0.70399,-0.34132 -1.05598,-0.8853 -1.05597,-1.63195 l 0,-8.35173 c -0.0427,-0.17065 -0.0747,-0.28798 -0.096,-0.35199 -0.0427,-0.064 -0.0747,-0.12798 -0.096,-0.19199 -10e-6,-0.064 -0.0107,-0.11732 -0.032,-0.16 -0.23467,-0.5973 -0.78932,-1.11995 -1.66395,-1.56795 l -3.26389,2.81591 0,0.25599 c 0.38398,10e-6 0.7573,0.12801 1.11996,0.38399 0.36265,0.23467 0.54398,0.50133 0.54399,0.79998 l 0,7.13577 c -0.12801,0.0853 -0.26667,0.14933 -0.41599,0.19199 -0.0213,0.0213 -0.0533,0.0427 -0.096,0.064 -0.0213,0.0213 -0.0427,0.0427 -0.064,0.064 l -0.12799,0.128 c -0.12801,-0.10667 -0.288,-0.21333 -0.47999,-0.31999 -0.192,-0.10667 -0.40532,-0.21333 -0.63998,-0.31999 -0.10667,-0.0427 -0.17066,-0.064 -0.19199,-0.064 -0.0213,-0.0213 -0.0853,-0.0533 -0.19199,-0.096 -0.23467,0 -0.40533,-0.0427 -0.51199,-0.128 l 0,-7.93574 c 0,-0.6613 -0.21333,-1.25862 -0.63998,-1.79195 -0.42666,-0.5333 -0.95997,-0.91729 -1.59995,-1.15196 l -3.23189,3.2319 0.25599,0.15999 0.096,0 0.064,0.032 0.25599,0 0.096,0.032 0.064,0 c 0.44798,1e-5 0.83197,0.32 1.15196,0.95997 l 0,6.91178 -0.032,0 -0.032,0.064 c -0.66131,0.49065 -1.09863,1.1093 -1.31195,1.85594 0.10666,-0.0427 0.21332,-0.0747 0.31999,-0.096 0.12799,-0.0213 0.23465,-0.032 0.31999,-0.032 l 0.064,-0.032 0.064,0 c 0.66131,0 1.29062,0.14933 1.88794,0.44799 0.59731,0.29866 1.20529,0.72531 1.82394,1.27996 0.31999,-0.23466 0.59731,-0.43732 0.83198,-0.60798 0.23465,-0.17066 0.39464,-0.28799 0.47998,-0.35199 l 0,0.032 c 0.12799,-0.0853 0.21332,-0.13866 0.25599,-0.16 l 0.064,-0.032 0.064,-0.064 c 0.0213,-0.0213 0.11732,-0.064 0.28799,-0.128 0.38398,-0.21333 0.84263,-0.49065 1.37596,-0.83197 0.36264,0.57598 0.84263,1.06663 1.43995,1.47195 0.61864,0.42665 1.24795,0.66131 1.88794,0.70398 0.27731,-0.128 0.50131,-0.24533 0.67198,-0.35199 0.19198,-0.0853 0.35198,-0.14933 0.47998,-0.19199 1.53594,-0.70398 3.07189,-1.05597 4.60786,-1.05597 l 0.064,0 c 0.064,0.0213 0.28797,0.032 0.67198,0.032 -0.23468,-0.34132 -0.35201,-0.52265 -0.35199,-0.54398 -0.21335,-0.29866 -0.32001,-0.60798 -0.31999,-0.92797 l 0,-7.77576 c 0.83195,-0.49064 1.2906,-1.21595 1.37595,-2.17593 l -0.15999,-0.12799"
         style=""
         id="path3098" />
      <path
         d="m 278.31121,315.42285 -0.86397,0.064 c -0.384,0.61866 -0.88532,0.92798 -1.50395,0.92797 -0.59733,10e-6 -1.23731,-0.39464 -1.91994,-1.18396 -0.76798,0.76798 -1.19464,1.1733 -1.27996,1.21596 -0.91731,0.49066 -1.86661,0.73599 -2.84791,0.73597 -0.192,2e-5 -0.29866,-0.0106 -0.31999,-0.032 -0.59732,10e-6 -0.97064,-0.0427 -1.11996,-0.128 -0.23467,10e-6 -0.45866,-0.096 -0.67198,-0.28799 0,0.10667 0,0.20267 0,0.28799 0,0.0853 0.0213,0.14934 0.064,0.19199 l 0,0.032 0.096,0.224 c 0,0.0853 0.0107,0.13867 0.032,0.15999 l 0,-0.032 c 0,0.0213 0,0.0427 0,0.064 0.0213,10e-6 0.032,0.0107 0.032,0.032 l 0.032,5.56782 -0.032,0.064 c 0,0.27733 -0.096,0.54399 -0.28799,0.79997 l 0.032,-0.096 -0.22399,0.22399 2.11193,0.096 c -0.128,0.128 -0.24533,0.24533 -0.35199,0.35199 -0.0853,0.10666 -0.16,0.19199 -0.22399,0.25599 l -0.128,0.12799 c -0.72531,0.89598 -1.30129,1.73862 -1.72794,2.52792 -0.42666,0.76798 -0.72532,1.52529 -0.89598,2.27193 l 0.92797,0 c 0.38399,-0.93864 1.06663,-1.40795 2.04794,-1.40795 0.23465,0 0.41598,0.032 0.54398,0.096 0.19199,0 0.36265,0.032 0.51199,0.096 0.14932,0.0853 0.30931,0.20266 0.47998,0.35199 l 0.92797,0.92797 c 1.04529,-1.1093 2.37858,-1.66395 3.99987,-1.66395 l 0.192,0 c 0.064,0.0213 0.25598,0.032 0.57598,0.032 0.10665,0.064 0.24531,0.10666 0.41599,0.128 0.17065,0 0.38397,0 0.63998,0 0.0426,0 0.0747,0.0107 0.096,0.032 l -0.032,0 c 0.0427,0.0213 0.18132,0.032 0.41599,0.032 l -0.128,-0.25599 c -0.064,-0.10666 -0.128,-0.21332 -0.19199,-0.31999 -0.064,-0.10666 -0.0747,-0.13866 -0.032,-0.096 l 0.032,0.064 c -0.0213,-0.10666 -0.032,-0.15999 -0.032,-0.15999 -1e-5,-0.0213 -0.0107,-0.0427 -0.032,-0.064 l 0,0.032 -0.032,-0.064 0,-0.096 c -0.0213,-0.0213 -0.032,-0.0533 -0.032,-0.096 l 0,-5.43983 c -1e-5,0.0213 0.0107,-0.0107 0.032,-0.096 0.0213,-0.10665 0.0427,-0.19198 0.064,-0.25599 l 0,0.032 c -1e-5,-0.0213 -1e-5,-0.0427 0,-0.064 0.0213,-0.0213 0.032,-0.0533 0.032,-0.096 l 0.032,-0.064 0,-0.064 0.064,-0.064 0,-0.064 0.032,-0.032 c -2e-5,-0.064 0.0106,-0.11733 0.032,-0.16 -2e-5,-0.0213 -2e-5,-0.064 0,-0.128 0.0213,-0.064 0.032,-0.10665 0.032,-0.12799 l -3.0079,0.064 c 1.79193,-1.8346 2.96523,-3.60521 3.51989,-5.31183 l -0.128,-0.16 m -4.03187,11.80763 -0.128,0 c -0.10667,0.0427 -0.192,0.0747 -0.25599,0.096 -0.0427,0 -0.064,0 -0.064,0 l -0.12799,0.064 c -0.78932,-0.9813 -1.73862,-1.47195 -2.84791,-1.47195 -0.10667,0 -0.256,0.0213 -0.44799,0.064 -0.19199,0.0213 -0.41599,0.0533 -0.67197,0.096 0.27732,-0.27732 0.51197,-0.52265 0.70397,-0.73597 0.19199,-0.23466 0.36265,-0.42665 0.51199,-0.57599 l 1.66394,-1.66394 1.63195,0 0.064,0.064 0,4.03188 -0.032,0.032 m -0.51198,-6.81579 c -0.49066,0.49066 -0.89598,0.88531 -1.21596,1.18396 -0.29867,0.29867 -0.53333,0.50133 -0.70398,0.60798 l -0.35199,0 0,-4.03187 c 0.10666,1e-5 0.22399,-0.032 0.35199,-0.096 l 0.12799,0 c 0.0213,-0.0213 0.064,-0.0427 0.128,-0.064 0.7893,0.61865 1.49328,0.92798 2.11193,0.92797 0.40531,10e-6 0.7893,-0.0747 1.15197,-0.22399 -0.34134,0.36266 -0.87465,0.92797 -1.59995,1.69594"
         style=""
         id="path3100" />
    </g>
    <path
       style="fill:#646464;fill-opacity:1;stroke:#646464;stroke-width:0.99999988px;stroke-linecap:butt;stroke-linejoin:miter;stroke-opacity:1;display:inline;enable-background:new"
       d="m 202.26183,330.84572 0,2.67607 98.66673,0 0,-2.67607 z"
       id="path4090"
       inkscape:connector-curvature="0" />
    <path
       style="fill:none;stroke:#646464;stroke-width:0.99999988px;stroke-linecap:square;stroke-linejoin:miter;stroke-opacity:1;display:inline;enable-background:new"
       d="m 202.09503,336.87393 98.66707,0"
       id="path4092"
       inkscape:connector-curvature="0" />
    <g
       style="display:inline;enable-background:new"
       id="g4094"
       transform="matrix(2.5158606,0,0,2.6760734,-139.91528,259.92977)">
      <path
         inkscape:connector-curvature="0"
         id="path4096"
         d="m 163.49993,32.5 11.65975,0"
         style="fill:none;stroke:#787878;stroke-width:0.38539645px;stroke-linecap:square;stroke-linejoin:miter;stroke-opacity:1" />
      <path
         style="fill:none;stroke:#787878;stroke-width:0.38539645px;stroke-linecap:square;stroke-linejoin:miter;stroke-opacity:1"
         d="m 163.49993,34.5 11.65975,0"
         id="path4098"
         inkscape:connector-curvature="0" />
      <path
         inkscape:connector-curvature="0"
         id="path4100"
         d="m 163.49993,36.5 11.65975,0"
         style="fill:none;stroke:#787878;stroke-width:0.38539645px;stroke-linecap:square;stroke-linejoin:miter;stroke-opacity:1" />
      <path
         style="fill:none;stroke:#787878;stroke-width:0.38539645px;stroke-linecap:square;stroke-linejoin:miter;stroke-opacity:1"
         d="m 163.49993,38.5 11.65975,0"
         id="path4102"
         inkscape:connector-curvature="0" />
      <path
         inkscape:connector-curvature="0"
         id="path4104"
         d="m 163.49993,40.5 11.65975,0"
         style="fill:none;stroke:#787878;stroke-width:0.38539645px;stroke-linecap:square;stroke-linejoin:miter;stroke-opacity:1" />
      <path
         style="fill:none;stroke:#787878;stroke-width:0.38539645px;stroke-linecap:square;stroke-linejoin:miter;stroke-opacity:1"
         d="m 163.49993,42.5 11.65975,0"
         id="path4106"
         inkscape:connector-curvature="0" />
      <path
         inkscape:connector-curvature="0"
         id="path4108"
         d="m 163.49993,44.5 11.65975,0"
         style="fill:none;stroke:#787878;stroke-width:0.38539645px;stroke-linecap:square;stroke-linejoin:miter;stroke-opacity:1" />
      <path
         style="fill:none;stroke:#787878;stroke-width:0.38539645px;stroke-linecap:square;stroke-linejoin:miter;stroke-opacity:1"
         d="m 163.49993,46.5 11.65975,0"
         id="path4110"
         inkscape:connector-curvature="0" />
      <path
         inkscape:connector-curvature="0"
         id="path4112"
         d="m 163.49993,46.5 11.65975,0"
         style="fill:none;stroke:#787878;stroke-width:0.38539645px;stroke-linecap:square;stroke-linejoin:miter;stroke-opacity:1" />
    </g>
    <g
       style="display:inline;enable-background:new"
       transform="matrix(2.5158606,0,0,2.6760734,-209.24804,259.92977)"
       id="g4114">
      <path
         style="fill:none;stroke:#787878;stroke-width:0.38539645px;stroke-linecap:square;stroke-linejoin:miter;stroke-opacity:1"
         d="m 163.49993,32.5 11.65975,0"
         id="path4116"
         inkscape:connector-curvature="0" />
      <path
         inkscape:connector-curvature="0"
         id="path4118"
         d="m 163.49993,34.5 11.65975,0"
         style="fill:none;stroke:#787878;stroke-width:0.38539645px;stroke-linecap:square;stroke-linejoin:miter;stroke-opacity:1" />
      <path
         style="fill:none;stroke:#787878;stroke-width:0.38539645px;stroke-linecap:square;stroke-linejoin:miter;stroke-opacity:1"
         d="m 163.49993,36.5 11.65975,0"
         id="path4120"
         inkscape:connector-curvature="0" />
      <path
         inkscape:connector-curvature="0"
         id="path4122"
         d="m 163.49993,38.5 11.65975,0"
         style="fill:none;stroke:#787878;stroke-width:0.38539645px;stroke-linecap:square;stroke-linejoin:miter;stroke-opacity:1" />
      <path
         style="fill:none;stroke:#787878;stroke-width:0.38539645px;stroke-linecap:square;stroke-linejoin:miter;stroke-opacity:1"
         d="m 163.49993,40.5 11.65975,0"
         id="path4124"
         inkscape:connector-curvature="0" />
      <path
         inkscape:connector-curvature="0"
         id="path4126"
         d="m 163.49993,42.5 11.65975,0"
         style="fill:none;stroke:#787878;stroke-width:0.38539645px;stroke-linecap:square;stroke-linejoin:miter;stroke-opacity:1" />
      <path
         style="fill:none;stroke:#787878;stroke-width:0.38539645px;stroke-linecap:square;stroke-linejoin:miter;stroke-opacity:1"
         d="m 163.49993,44.5 11.65975,0"
         id="path4128"
         inkscape:connector-curvature="0" />
      <path
         inkscape:connector-curvature="0"
         id="path4130"
         d="m 163.49993,46.5 11.65975,0"
         style="fill:none;stroke:#787878;stroke-width:0.38539645px;stroke-linecap:square;stroke-linejoin:miter;stroke-opacity:1" />
      <path
         style="fill:none;stroke:#787878;stroke-width:0.38539645px;stroke-linecap:square;stroke-linejoin:miter;stroke-opacity:1"
         d="m 163.49993,46.5 11.65975,0"
         id="path4132"
         inkscape:connector-curvature="0" />
    </g>
    <g
       style="display:inline;enable-background:new"
       id="g4134"
       transform="matrix(2.5158606,0,0,2.6760734,-174.58166,259.92977)">
      <path
         inkscape:connector-curvature="0"
         id="path4138"
         d="m 163.49993,44.5 11.65975,0"
         style="fill:none;stroke:#787878;stroke-width:0.38539645px;stroke-linecap:square;stroke-linejoin:miter;stroke-opacity:1" />
      <path
         style="fill:none;stroke:#787878;stroke-width:0.38539645px;stroke-linecap:square;stroke-linejoin:miter;stroke-opacity:1"
         d="m 163.49993,46.5 11.65975,0"
         id="path4140"
         inkscape:connector-curvature="0" />
      <path
         inkscape:connector-curvature="0"
         id="path4142"
         d="m 163.49993,46.5 11.65975,0"
         style="fill:none;stroke:#787878;stroke-width:0.38539645px;stroke-linecap:square;stroke-linejoin:miter;stroke-opacity:1" />
    </g>
    <g
       style="display:inline;enable-background:new"
       id="g4158"
       transform="matrix(2.5158606,0,0,2.6760734,-209.24804,257.22961)">
      <path
         inkscape:connector-curvature="0"
         id="path4160"
         d="m 163.49993,32.5 11.65975,0"
         style="fill:none;stroke:#787878;stroke-width:0.38539645px;stroke-linecap:square;stroke-linejoin:miter;stroke-opacity:1" />
      <path
         style="fill:none;stroke:#787878;stroke-width:0.38539645px;stroke-linecap:square;stroke-linejoin:miter;stroke-opacity:1"
         d="m 163.49993,34.5 11.65975,0"
         id="path4162"
         inkscape:connector-curvature="0" />
      <path
         inkscape:connector-curvature="0"
         id="path4164"
         d="m 163.49993,36.5 11.65975,0"
         style="fill:none;stroke:#787878;stroke-width:0.38539645px;stroke-linecap:square;stroke-linejoin:miter;stroke-opacity:1" />
      <path
         style="fill:none;stroke:#787878;stroke-width:0.38539645px;stroke-linecap:square;stroke-linejoin:miter;stroke-opacity:1"
         d="m 163.49993,38.5 11.65975,0"
         id="path4166"
         inkscape:connector-curvature="0" />
      <path
         inkscape:connector-curvature="0"
         id="path4168"
         d="m 163.49993,40.5 11.65975,0"
         style="fill:none;stroke:#787878;stroke-width:0.38539645px;stroke-linecap:square;stroke-linejoin:miter;stroke-opacity:1" />
      <path
         style="fill:none;stroke:#787878;stroke-width:0.38539645px;stroke-linecap:square;stroke-linejoin:miter;stroke-opacity:1"
         d="m 163.49993,42.5 11.65975,0"
         id="path4170"
         inkscape:connector-curvature="0" />
      <path
         inkscape:connector-curvature="0"
         id="path4172"
         d="m 163.49993,44.5 11.65975,0"
         style="fill:none;stroke:#787878;stroke-width:0.38539645px;stroke-linecap:square;stroke-linejoin:miter;stroke-opacity:1" />
      <path
         style="fill:none;stroke:#787878;stroke-width:0.38539645px;stroke-linecap:square;stroke-linejoin:miter;stroke-opacity:1"
         d="m 163.49993,46.5 11.65975,0"
         id="path4174"
         inkscape:connector-curvature="0" />
      <path
         inkscape:connector-curvature="0"
         id="path4176"
         d="m 163.49993,46.5 11.65975,0"
         style="fill:none;stroke:#787878;stroke-width:0.38539645px;stroke-linecap:square;stroke-linejoin:miter;stroke-opacity:1" />
    </g>
    <g
       style="display:inline;enable-background:new"
       transform="matrix(2.5158606,0,0,2.6760734,-139.91528,257.22961)"
       id="g4178">
      <path
         style="fill:none;stroke:#787878;stroke-width:0.38539645px;stroke-linecap:square;stroke-linejoin:miter;stroke-opacity:1"
         d="m 163.49993,32.5 11.65975,0"
         id="path4180"
         inkscape:connector-curvature="0" />
      <path
         inkscape:connector-curvature="0"
         id="path4182"
         d="m 163.49993,34.5 11.65975,0"
         style="fill:none;stroke:#787878;stroke-width:0.38539645px;stroke-linecap:square;stroke-linejoin:miter;stroke-opacity:1" />
      <path
         style="fill:none;stroke:#787878;stroke-width:0.38539645px;stroke-linecap:square;stroke-linejoin:miter;stroke-opacity:1"
         d="m 163.49993,36.5 11.65975,0"
         id="path4184"
         inkscape:connector-curvature="0" />
      <path
         inkscape:connector-curvature="0"
         id="path4186"
         d="m 163.49993,38.5 11.65975,0"
         style="fill:none;stroke:#787878;stroke-width:0.38539645px;stroke-linecap:square;stroke-linejoin:miter;stroke-opacity:1" />
      <path
         style="fill:none;stroke:#787878;stroke-width:0.38539645px;stroke-linecap:square;stroke-linejoin:miter;stroke-opacity:1"
         d="m 163.49993,40.5 11.65975,0"
         id="path4188"
         inkscape:connector-curvature="0" />
      <path
         inkscape:connector-curvature="0"
         id="path4190"
         d="m 163.49993,42.5 11.65975,0"
         style="fill:none;stroke:#787878;stroke-width:0.38539645px;stroke-linecap:square;stroke-linejoin:miter;stroke-opacity:1" />
      <path
         style="fill:none;stroke:#787878;stroke-width:0.38539645px;stroke-linecap:square;stroke-linejoin:miter;stroke-opacity:1"
         d="m 163.49993,44.5 11.65975,0"
         id="path4192"
         inkscape:connector-curvature="0" />
      <path
         inkscape:connector-curvature="0"
         id="path4194"
         d="m 163.49993,46.5 11.65975,0"
         style="fill:none;stroke:#787878;stroke-width:0.38539645px;stroke-linecap:square;stroke-linejoin:miter;stroke-opacity:1" />
      <path
         style="fill:none;stroke:#787878;stroke-width:0.38539645px;stroke-linecap:square;stroke-linejoin:miter;stroke-opacity:1"
         d="m 163.49993,46.5 11.65975,0"
         id="path4196"
         inkscape:connector-curvature="0" />
    </g>
    <g
       style="display:inline;enable-background:new"
       transform="matrix(2.5158606,0,0,2.6760734,-174.58166,257.22961)"
       id="g4198">
      <path
         style="fill:none;stroke:#787878;stroke-width:0.38539645px;stroke-linecap:square;stroke-linejoin:miter;stroke-opacity:1"
         d="m 163.49993,44.5 11.65975,0"
         id="path4202"
         inkscape:connector-curvature="0" />
      <path
         inkscape:connector-curvature="0"
         id="path4204"
         d="m 163.49993,46.5 11.65975,0"
         style="fill:none;stroke:#787878;stroke-width:0.38539645px;stroke-linecap:square;stroke-linejoin:miter;stroke-opacity:1" />
      <path
         style="fill:none;stroke:#787878;stroke-width:0.38539645px;stroke-linecap:square;stroke-linejoin:miter;stroke-opacity:1"
         d="m 163.49993,46.5 11.65975,0"
         id="path4206"
         inkscape:connector-curvature="0" />
    </g>
    <g
       style="display:inline;enable-background:new"
       transform="matrix(1.0625,0,0,1.0625,186.36604,343.21933)"
       id="layer1-6">
      <path
         inkscape:connector-curvature="0"
         d="m 73.25,4.625 a 10.625,3.625 0 1 1 -21.25,0 10.625,3.625 0 1 1 21.25,0 z"
         transform="matrix(2.1647059,0,0,2.5636643,-111.56471,26.849769)"
         id="path8836"
         style="opacity:0.4;fill:url(#radialGradient3757-9);fill-opacity:1;fill-rule:evenodd;stroke:none;stroke-width:0.99999988;marker:none;visibility:visible;display:inline;overflow:visible" />
      <path
         inkscape:connector-curvature="0"
         d="M 43.500003,23.999309 C 43.500003,34.769208 34.768912,43.5 24.000248,43.5 13.230599,43.5 4.5000032,34.769109 4.5000032,23.999309 4.5000032,13.229904 13.230599,4.5 24.000248,4.5 c 10.768664,0 19.499755,8.729904 19.499755,19.499309 l 0,0 z"
         id="path6495"
         style="fill:url(#radialGradient3705-3);fill-opacity:1;fill-rule:nonzero;stroke:url(#linearGradient3713-4);stroke-width:0.94117647;stroke-miterlimit:4;stroke-dasharray:none" />
      <path
         inkscape:connector-curvature="0"
         d="m 24.329633,5.218182 -2.362344,0.2704567 -2.59858,0.7099494 c 0.221353,-0.077615 0.445595,-0.1623374 0.674956,-0.2366499 L 19.739934,5.4210246 18.727501,5.5900601 18.221284,6.0633596 17.445085,6.1647809 16.736382,6.502852 16.398905,6.6718876 16.29766,6.807116 15.791444,6.9085373 15.487716,7.5508723 15.08274,6.7395017 l -0.134989,0.3380711 0.0675,0.9127919 -0.641208,0.5409137 -0.371225,0.9804061 0.7762,0 0.303728,-0.642335 0.101245,-0.2366498 c 0.341288,-0.241775 0.66483,-0.5110331 1.012433,-0.7437563 l 0.809946,0.2704568 c 0.527335,0.3588995 1.058376,0.7234732 1.586147,1.0818274 L 19.368709,8.5312784 18.491266,8.1594002 18.086294,7.3480297 16.601391,7.1789941 16.567641,7.0099586 17.208847,7.145187 17.580075,6.7733087 18.390021,6.6042734 C 18.581694,6.5108897 18.770243,6.44363 18.963732,6.3676236 l -0.506216,0.4732995 1.82238,1.250863 0,0.7437562 -0.708703,0.7099493 0.944937,1.8931994 0.641208,-0.371881 0.809948,-1.2508614 c 1.138725,-0.3526792 2.165016,-0.7630693 3.239789,-1.2508632 l -0.0675,0.4732995 0.539963,0.3718782 0.944939,-0.6423349 -0.47247,-0.5409137 -0.641209,0.3718781 -0.202486,-0.067613 c 0.04651,-0.02129 0.08828,-0.045973 0.13499,-0.067613 L 26.388247,6.0295525 24.329633,5.218182 z m -9.246893,3.6511675 0.776199,0.5409136 0.641209,0 0,-0.6423349 L 15.72395,8.429857 15.08274,8.8693495 z M 33.002811,8.429857 31.619153,8.7679282 30.741712,9.342649 l 0,0.5071058 -1.383659,0.8789842 0.269983,1.31848 0.809946,-0.574723 0.506216,0.574723 0.573714,0.338071 0.371224,-0.980408 -0.202486,-0.57472 0.202486,-0.405687 0.809948,-0.7437548 0.371225,0 -0.371225,0.8113728 0,0.743754 c 0.333836,-0.09103 0.6708,-0.126483 1.012433,-0.169037 l -0.944938,0.676145 -0.0675,0.405683 -1.079929,0.912794 -1.113678,-0.270459 0,-0.642335 -0.506216,0.338072 0.236235,0.574722 -0.809947,0 -0.438721,0.743756 -0.539965,0.608528 -0.978685,0.202842 0.573712,0.574721 0.134991,0.57472 -0.708703,0 -0.944938,0.507108 0,1.48751 0.438721,0 0.404973,0.439494 0.91119,-0.439494 0.337478,-0.912791 0.674956,-0.405685 0.134991,-0.338071 1.079928,-0.270457 0.60746,0.676142 0.641209,0.338071 -0.371227,0.743758 0.573715,-0.169037 0.303728,-0.743757 -0.74245,-0.845177 0.303729,0 0.742451,0.608528 0.134992,0.811371 0.641207,0.743757 0.168739,-1.081827 0.337478,-0.169037 c 0.359225,0.373574 0.642383,0.83043 0.944938,1.250864 l 1.113677,0.06762 0.641207,0.405686 -0.303729,0.439492 -0.641208,0.574721 -0.944939,0 -1.248667,-0.405684 -0.641208,0.06762 -0.472469,0.540915 -1.349912,-1.352286 -0.944937,-0.270456 -1.383659,0.169036 -1.21492,0.33807 c -0.693063,0.7871 -1.402636,1.582869 -2.058616,2.400307 l -0.776198,1.893195 0.371226,0.405687 -0.674956,0.980406 0.742451,1.724162 c 0.617799,0.700089 1.239228,1.395452 1.856128,2.09604 l 0.91119,-0.777564 0.371226,0.473301 0.978687,-0.642335 0.337477,0.371878 0.978685,0 0.573713,0.642335 -0.337478,1.149442 0.674955,0.777564 -0.03375,1.352283 0.506216,0.980406 -0.371225,0.845178 c -0.03619,0.60617 -0.0675,1.18551 -0.0675,1.791777 0.297757,0.821342 0.59628,1.640668 0.877443,2.467918 l 0.202487,1.318476 0,0.676143 0.539963,0 0.7762,-0.507106 0.944939,0 1.417406,-1.588934 -0.168739,-0.540915 0.944939,-0.845177 -0.708705,-0.777563 0.843694,-0.676141 0.809948,-0.507109 0.371225,-0.405685 -0.236234,-0.912791 c 0,-0.768475 2e-6,-1.530306 0,-2.298884 l 0.641209,-1.419897 0.809945,-0.878985 0.877443,-2.163655 0,-0.574721 c -0.436643,0.0551 -0.855168,0.10478 -1.282416,0.13523 l 0.877442,-0.878986 1.21492,-0.81137 0.641209,-0.743758 0,-0.811369 C 41.631793,22.01604 41.484928,21.720356 41.338501,21.44561 l -0.573712,0.676141 -0.438721,-0.507105 -0.641209,-0.507107 0,-1.048021 0.742452,0.845178 0.843696,-0.101421 c 0.380615,0.346139 0.746089,0.65392 1.079927,1.04802 l 0.539978,-0.608545 c 0,-0.655131 -0.736573,-3.889319 -2.328596,-6.626192 -1.592024,-2.735972 -4.387213,-5.240102 -4.387211,-5.240102 l -0.202488,0.3718783 -0.742451,0.8113707 -0.944937,-0.9804063 0.944937,0 L 35.668888,9.1059992 33.914003,8.7679282 33.002811,8.429857 z M 12.720395,8.8693495 12.382918,9.7483343 c 0,0 -0.590841,0.097717 -0.74245,0.1352286 -1.9362043,1.7873441 -5.8406714,5.6641681 -6.7495557,12.9481221 0.035987,0.168879 0.6412078,1.14944 0.6412078,1.14944 l 1.4849023,0.878986 1.4849024,0.405684 0.6412079,0.777564 0.9786853,0.743756 0.573712,-0.101421 0.404974,0.202844 0,0.135226 -0.539965,1.521321 -0.438721,0.642336 0.134991,0.304263 -0.3374777,1.217057 1.2486677,2.298882 1.282416,1.115635 0.573711,0.81137 -0.0675,1.690355 0.404974,0.946598 -0.404974,1.825586 c 0,0 -0.05404,-0.01501 0,0.169036 0.05452,0.184134 2.25593,1.422835 2.396091,1.318476 0.139681,-0.106305 0.269983,-0.202843 0.269983,-0.202843 l -0.13499,-0.405685 0.573712,-0.540913 0.202486,-0.574722 0.911191,-0.304265 0.708702,-1.757968 -0.202486,-0.4733 0.472468,-0.743756 1.07993,-0.236649 0.539965,-1.28467 -0.134992,-1.588935 0.843695,-1.183247 0.13499,-1.217056 c -1.15759,-0.575052 -2.293316,-1.165913 -3.442272,-1.75797 l -0.573713,-1.115634 -1.046181,-0.23665 -0.573712,-1.521321 -1.383659,0.169035 -1.214921,-0.878983 -1.282415,1.115634 0,0.169036 C 10.716387,26.202752 10.261353,26.186409 9.9193333,25.975746 l -0.2699819,-0.811371 0,-0.878985 -0.8774423,0.101421 c 0.070612,-0.559892 0.1651315,-1.13056 0.2362324,-1.690355 l -0.5062167,0 -0.5062167,0.642335 -0.4724689,0.23665 -0.7087034,-0.405685 -0.067496,-0.878985 0.1349912,-0.946599 1.0461812,-0.811371 0.8436945,0 0.1687389,-0.473299 1.0461817,0.236648 0.7761987,0.980407 0.134991,-1.622742 1.349911,-1.115633 0.472468,-1.183248 1.012435,-0.405685 0.539964,-0.811372 1.282416,-0.23665 0.641208,-0.946599 c -0.634667,0 -1.288957,0 -1.923624,0 l 1.214921,-0.574721 0.843693,0 1.07993,-0.371877 0.202487,1.04802 0.472469,-0.743757 -0.539966,-0.371878 0.134992,-0.439491 -0.438721,-0.405687 -0.47247,-0.135228 0.134992,-0.507106 -0.371226,-0.709948 -0.843695,0.33807 0.134992,-0.642334 -0.978686,-0.574722 -0.776198,1.352284 0.0675,0.4733 -0.776198,0.338071 -0.472469,1.04802 -0.236234,-0.980407 -1.316164,-0.540913 -0.236234,-0.743756 1.788632,-1.014213 0.776198,-0.743757 0.0675,-0.8789846 -0.438721,-0.2366498 -0.573713,-0.067613 z m 14.477799,1.6227435 0,0.54091 0.30373,0.338072 0,0.811371 -0.168739,1.081827 0.877442,-0.169036 0.641209,-0.642334 -0.573713,-0.540915 c -0.186049,-0.496308 -0.3746,-0.943871 -0.607459,-1.419895 l -0.47247,0 z m -0.742452,1.081824 -0.539963,0.169038 0.13499,0.980405 0.708703,-0.371881 -0.30373,-0.777562 z m 9.888101,8.89127 0.809946,0.946598 0.978686,2.096042 0.607459,0.67614 -0.303728,0.709952 0.539964,0.642335 c -0.247792,0.01643 -0.487764,0.03381 -0.742451,0.03381 -0.462673,-0.973935 -0.828843,-1.956133 -1.181173,-2.975025 l -0.60746,-0.676142 -0.337478,-1.217056 0.236235,-0.23665 z"
         id="path6534"
         style="opacity:0.4;fill:#000000;fill-opacity:1;fill-rule:nonzero;stroke:none" />
      <path
         inkscape:connector-curvature="0"
         d="m 42.500001,23.999343 c 0,10.217597 -8.283342,18.500655 -18.499766,18.500655 -10.217359,0 -18.5002317,-8.283152 -18.5002317,-18.500655 0,-10.217125 8.2828727,-18.4993427 18.5002317,-18.4993427 10.216424,0 18.499766,8.2822177 18.499766,18.4993427 l 0,0 z"
         id="path8655"
         style="opacity:0.4;fill:none;stroke:url(#linearGradient3697-8);stroke-width:0.94117701;stroke-miterlimit:4;stroke-opacity:1;stroke-dasharray:none" />
      <g
         transform="matrix(0.9999061,-0.01370139,0.01370139,0.9999061,-0.2886966,0.5358538)"
         id="g2414" />
    </g>
    <path
       inkscape:connector-curvature="0"
       id="path6246"
       d="m 236.32077,343.91484 0,5.30842 c 13.64321,0.25422 24.66725,11.2859 24.91802,24.94227 l 5.35689,0 c -0.25315,-16.61148 -13.67903,-29.99784 -30.27491,-30.25069 z m 0,12.24086 0,4.79938 c 7.20124,0.25058 12.98381,6.00297 13.23466,13.21045 l 4.79939,0 c -0.25288,-9.86502 -8.17814,-17.75725 -18.03405,-18.00983 z m 3.15111,12.11966 c -0.84449,3e-5 -1.49969,0.31143 -2.08458,0.89686 -0.58569,0.5758 -0.87262,1.19084 -0.87262,2.0361 0,0.83205 0.289,1.48662 0.87262,2.06036 0.58186,0.57205 1.23363,0.84838 2.08458,0.84837 0.82456,10e-6 1.43886,-0.27482 2.01186,-0.84837 0.58675,-0.58731 0.89685,-1.24159 0.89686,-2.06036 -10e-6,-0.84526 -0.31118,-1.4603 -0.89686,-2.0361 -0.57601,-0.58702 -1.19394,-0.89683 -2.01186,-0.89686 z"
       style="font-size:13.58991337px;font-style:normal;font-variant:normal;font-weight:bold;font-stretch:normal;text-align:start;line-height:125%;writing-mode:lr-tb;text-anchor:start;fill:#646464;fill-opacity:1;fill-rule:nonzero;stroke:none;stroke-width:0.97560978;marker:none;visibility:visible;display:inline;overflow:visible;enable-background:accumulate;font-family:Bitstream Vera Serif" />
  </g>
</svg>
