<?xml version="1.0" encoding="UTF-8" standalone="no"?>
<svg
   viewBox="0 0 108 108"
   version="1.1"
   id="svg1273"
   sodipodi:docname="logo.svg"
   inkscape:version="1.2.2 (b0a8486541, 2022-12-01)"
   xmlns:inkscape="http://www.inkscape.org/namespaces/inkscape"
   xmlns:sodipodi="http://sodipodi.sourceforge.net/DTD/sodipodi-0.dtd"
   xmlns="http://www.w3.org/2000/svg"
   xmlns:svg="http://www.w3.org/2000/svg">
  <sodipodi:namedview
     id="namedview1275"
     pagecolor="#ffffff"
     bordercolor="#000000"
     borderopacity="0.25"
     inkscape:showpageshadow="2"
     inkscape:pageopacity="0.0"
     inkscape:pagecheckerboard="0"
     inkscape:deskcolor="#d1d1d1"
     showgrid="false"
     inkscape:zoom="3.7771014"
     inkscape:cx="104.31279"
     inkscape:cy="80.484998"
     inkscape:window-width="1920"
     inkscape:window-height="996"
     inkscape:window-x="0"
     inkscape:window-y="0"
     inkscape:window-maximized="1"
     inkscape:current-layer="g1271" />
  <defs
     id="defs1256">
    <style
       id="style1239">.cls-1{fill:none;}.cls-2{isolation:isolate;}.cls-3{clip-path:url(#clip-path);}.cls-4{fill:url(#linear-gradient);}.cls-5,.cls-6{mix-blend-mode:multiply;opacity:0.08;}.cls-6{fill:url(#linear-gradient-2);}.cls-7{fill:#fff;}</style>
    <clipPath
       id="clip-path">
      <circle
         class="cls-1"
         cx="54"
         cy="54"
         r="54"
         id="circle1241" />
    </clipPath>
    <linearGradient
       id="linear-gradient"
       x1="54"
       x2="54"
       y2="108"
       gradientUnits="userSpaceOnUse">
      <stop
         offset="0"
         stop-color="#f7d114"
         id="stop1244"
         style="stop-color:#1c1c1c;stop-opacity:1;" />
      <stop
         offset="1"
         stop-color="#f5c200"
         id="stop1246"
         style="stop-color:#1c1c1c;stop-opacity:1;" />
    </linearGradient>
    <linearGradient
       id="linear-gradient-2"
       x1="160.26"
       y1="162.68"
       x2="70.63"
       y2="66.7"
       gradientUnits="userSpaceOnUse">
      <stop
         offset="0.32"
         stop-color="#fff"
         id="stop1249" />
      <stop
         offset="0.79"
         stop-color="#fff"
         id="stop1251" />
      <stop
         offset="1"
         id="stop1253" />
    </linearGradient>
  </defs>
  <g
     class="cls-2"
     id="g1271"
     style="display:inline;fill:#aad400;fill-opacity:1">
    <rect
       style="fill:#1c1c00;fill-opacity:1;stroke:#1c1c12;stroke-width:0"
       id="rect2069"
       width="108.30254"
       height="107.92983"
       x="-0.35796797"
       y="0.092511751"
       ry="12.690367" />
    <g
       id="mask"
       style="display:inline;fill:#1c1c1c;fill-opacity:1">
      <g
         class="cls-3"
         clip-path="url(#clip-path)"
         id="g1268"
         style="display:inline;fill:#1c1c1c;fill-opacity:1">
        <rect
           class="cls-4"
           width="108"
           height="108"
           id="rect1258"
           x="0"
           y="0"
           style="display:inline;fill:#1c1c1c;fill-opacity:1" />
        <rect
           class="cls-1"
           width="108.01"
           height="108.01"
           id="rect1266"
           x="0"
           y="0"
           style="display:inline;fill:#1c1c1c;fill-opacity:1" />
        <path
           class="cls-7"
           d="m 40.768266,86.742344 c 1.483474,-1.232492 2.835975,-2.614594 4.036066,-4.1244 1.52606,-1.989482 3.111184,-3.964421 3.570102,-6.556986 0.135092,-0.990429 0.04414,-1.998592 -0.266036,-2.948851 -0.117555,-0.430211 -0.425129,-0.473778 -0.781034,-0.541098 -3.703973,-0.614072 -7.430936,-1.189785 -11.121127,-1.85295 -2.896329,-0.55234 -5.869313,-1.020278 -8.450128,-2.551419 -4.663592,-2.617394 -7.793794,-6.354555 -8.165153,-12.709244 -0.669396,-5.39524 0.09511,-10.871609 2.21648,-15.877255 1.378965,-3.086365 3.508637,-5.778415 6.194805,-7.830657 3.030568,-2.396204 6.406849,-4.319186 10.013791,-5.703419 4.302334,-1.599707 8.802683,-2.605378 13.376718,-2.98923 4.000128,-0.443641 8.035477,-0.471306 12.041312,-0.08255 5.698974,0.490947 11.16441,2.490673 15.83451,5.793625 4.317525,3.261492 7.1293,8.133213 7.793561,13.503233 1.041519,6.096311 0.04051,12.365935 -2.847508,17.834857 -4.27118,7.987717 -11.003585,12.748474 -20.202107,13.690177 -0.542289,0.0279 -1.049922,0.275105 -1.406281,0.684817 -2.918127,3.277666 -6.250328,6.161705 -9.912687,8.579489 -2.342152,1.46774 -4.842659,2.666114 -7.453931,3.572312 -1.434533,0.544403 -3.011881,0.583049 -4.471353,0.109549 z"
           id="path1264"
           style="display:inline;fill:#c0f800;fill-opacity:1"
           sodipodi:nodetypes="ccccccccccccccccccccc" />
      </g>
    </g>
    <path
       style="display:none;fill:#1c1c1c;fill-opacity:1;stroke:#1c1c12;stroke-width:0"
       id="path1769"
       sodipodi:type="arc"
       sodipodi:cx="53.698696"
       sodipodi:cy="-36.920124"
       sodipodi:rx="12.873896"
       sodipodi:ry="13.553746"
       sodipodi:start="2.4152797"
       sodipodi:end="2.2984494"
       sodipodi:arc-type="arc"
       d="m 44.07381,-27.918842 a 12.873896,13.553746 0 0 1 0.797672,-18.867254 12.873896,13.553746 0 0 1 17.936531,0.28845 12.873896,13.553746 0 0 1 0.249944,18.884101 12.873896,13.553746 0 0 1 -17.921933,0.814511"
       transform="rotate(90)"
       sodipodi:open="true" />
    <path
       style="display:inline;fill:#c0f800;stroke:#1c1c12;stroke-width:0"
       id="path581"
       sodipodi:type="arc"
       sodipodi:cx="53.570496"
       sodipodi:cy="49.601887"
       sodipodi:rx="39.441113"
       sodipodi:ry="27.883265"
       sodipodi:start="2.4152797"
       sodipodi:end="2.2984494"
       sodipodi:open="true"
       sodipodi:arc-type="arc"
       d="M 24.083211,68.119654 A 39.441113,27.883265 0 0 1 26.527,29.305248 a 39.441113,27.883265 0 0 1 54.951255,0.593409 39.441113,27.883265 0 0 1 0.76574,38.849065 39.441113,27.883265 0 0 1 -54.90653,1.675642" />
    <path
       style="fill:#1c1c00;fill-opacity:1;stroke:#1c1c12;stroke-width:0"
       id="path604"
       sodipodi:type="arc"
       sodipodi:cx="39.216904"
       sodipodi:cy="49.05257"
       sodipodi:rx="20.944775"
       sodipodi:ry="20.676077"
       sodipodi:start="2.4152797"
       sodipodi:end="2.2984494"
       sodipodi:open="true"
       sodipodi:arc-type="arc"
       d="m 23.558001,62.783917 a 20.944775,20.676077 0 0 1 1.297748,-28.781768 20.944775,20.676077 0 0 1 29.181267,0.440027 20.944775,20.676077 0 0 1 0.406638,28.807468 20.944775,20.676077 0 0 1 -29.157516,1.242527" />
  </g>
</svg>
