<?xml version="1.0" encoding="UTF-8" standalone="no"?>
<!-- Created with Inkscape (http://www.inkscape.org/) -->

<svg
   xmlns:dc="http://purl.org/dc/elements/1.1/"
   xmlns:cc="http://creativecommons.org/ns#"
   xmlns:rdf="http://www.w3.org/1999/02/22-rdf-syntax-ns#"
   xmlns:svg="http://www.w3.org/2000/svg"
   xmlns="http://www.w3.org/2000/svg"
   xmlns:xlink="http://www.w3.org/1999/xlink"
   xmlns:sodipodi="http://sodipodi.sourceforge.net/DTD/sodipodi-0.dtd"
   xmlns:inkscape="http://www.inkscape.org/namespaces/inkscape"
   version="1.0"
   width="24"
   height="24"
   id="svg3182"
   inkscape:version="0.47 r22583"
   sodipodi:docname="gtk-paste.svg"
   inkscape:export-filename="/usr/share/icons/elementary-monochrome/actions/24/gtk-paste.png"
   inkscape:export-xdpi="90"
   inkscape:export-ydpi="90">
  <metadata
     id="metadata9">
    <rdf:RDF>
      <cc:Work
         rdf:about="">
        <dc:format>image/svg+xml</dc:format>
        <dc:type
           rdf:resource="http://purl.org/dc/dcmitype/StillImage" />
        <dc:title />
      </cc:Work>
    </rdf:RDF>
  </metadata>
  <sodipodi:namedview
     pagecolor="#ffffff"
     bordercolor="#666666"
     borderopacity="1"
     objecttolerance="10"
     gridtolerance="10"
     guidetolerance="10"
     inkscape:pageopacity="0"
     inkscape:pageshadow="2"
     inkscape:window-width="1280"
     inkscape:window-height="749"
     id="namedview7"
     showgrid="false"
     inkscape:zoom="16.000001"
     inkscape:cx="33.174347"
     inkscape:cy="10.869098"
     inkscape:window-x="0"
     inkscape:window-y="28"
     inkscape:window-maximized="1"
     inkscape:current-layer="g3600"
     showguides="true"
     inkscape:guide-bbox="true" />
  <defs
     id="defs3184">
    <inkscape:perspective
       sodipodi:type="inkscape:persp3d"
       inkscape:vp_x="0 : 12 : 1"
       inkscape:vp_y="0 : 1000 : 0"
       inkscape:vp_z="24 : 12 : 1"
       inkscape:persp3d-origin="12 : 8 : 1"
       id="perspective50" />
    <linearGradient
       gradientUnits="userSpaceOnUse"
       xlink:href="#linearGradient3587-6-5-3"
       id="linearGradient3204"
       y2="21"
       x2="12"
       y1="1.9895233"
       x1="12"
       gradientTransform="matrix(1.5352203,0,0,0.92554512,17.591476,2.4976935)" />
    <linearGradient
       id="linearGradient3587-6-5-3">
      <stop
         offset="0"
         style="stop-color:#000000;stop-opacity:1"
         id="stop3589-9-2-2" />
      <stop
         offset="1"
         style="stop-color:#363636;stop-opacity:1"
         id="stop3591-7-4-73" />
    </linearGradient>
    <linearGradient
       gradientTransform="matrix(0.73546622,0,0,0.48621711,-1.3757325,4.7720339)"
       gradientUnits="userSpaceOnUse"
       xlink:href="#linearGradient3587-6-5-3"
       id="linearGradient3235"
       y2="31.112288"
       x2="51.780437"
       y1="7.2575765"
       x1="51.780437" />
    <linearGradient
       gradientUnits="userSpaceOnUse"
       xlink:href="#linearGradient3587-6-5-3-6"
       id="linearGradient3204-3"
       y2="21"
       x2="12"
       y1="1.9895233"
       x1="12" />
    <linearGradient
       id="linearGradient3587-6-5-3-6">
      <stop
         offset="0"
         style="stop-color:#000000;stop-opacity:1"
         id="stop3589-9-2-2-9" />
      <stop
         offset="1"
         style="stop-color:#363636;stop-opacity:1"
         id="stop3591-7-4-73-6" />
    </linearGradient>
    <linearGradient
       gradientTransform="matrix(0.4101105,0,0,0.5452071,-8.7987346,2.0431177)"
       gradientUnits="userSpaceOnUse"
       xlink:href="#linearGradient3587-6-5-3-6"
       id="linearGradient3235-47"
       y2="31.112288"
       x2="51.780437"
       y1="7.2575765"
       x1="51.780437" />
    <linearGradient
       y2="10.982666"
       x2="5.4959755"
       y1="37.668934"
       x1="37.926636"
       gradientTransform="matrix(0.9716096,0,0,1.283333,-40.47809,-6.1310478)"
       gradientUnits="userSpaceOnUse"
       id="linearGradient5968"
       xlink:href="#linearGradient6732"
       inkscape:collect="always" />
    <linearGradient
       id="linearGradient6732">
      <stop
         id="stop6734"
         offset="0"
         style="stop-color:#ffffff;stop-opacity:1;" />
      <stop
         id="stop6736"
         offset="1"
         style="stop-color:#dddddd;stop-opacity:1;" />
    </linearGradient>
    <linearGradient
       gradientUnits="userSpaceOnUse"
       y2="-1.6250113"
       x2="24.499998"
       y1="-38.500011"
       x1="24.499998"
       id="linearGradient5794"
       xlink:href="#linearGradient5788"
       inkscape:collect="always" />
    <linearGradient
       y2="-39.125"
       x2="26"
       y1="-13.625"
       x1="25.5"
       gradientUnits="userSpaceOnUse"
       id="linearGradient5784"
       xlink:href="#linearGradient5772"
       inkscape:collect="always" />
    <linearGradient
       gradientUnits="userSpaceOnUse"
       y2="12.380689"
       x2="24.635435"
       y1="7.202693"
       x1="24.635435"
       id="linearGradient5592"
       xlink:href="#linearGradient5586"
       inkscape:collect="always" />
    <linearGradient
       id="linearGradient5586">
      <stop
         id="stop5588"
         offset="0"
         style="stop-color:#bfbcb3;stop-opacity:1;" />
      <stop
         id="stop5590"
         offset="1"
         style="stop-color:#9c988a;stop-opacity:1;" />
    </linearGradient>
    <linearGradient
       id="linearGradient5772">
      <stop
         style="stop-color:#e2b369;stop-opacity:1"
         offset="0"
         id="stop5774" />
      <stop
         style="stop-color:#c79b55;stop-opacity:1"
         offset="1"
         id="stop5776" />
    </linearGradient>
    <linearGradient
       id="linearGradient5788"
       inkscape:collect="always">
      <stop
         id="stop5790"
         offset="0"
         style="stop-color:#ffffff;stop-opacity:1;" />
      <stop
         id="stop5792"
         offset="1"
         style="stop-color:#ffffff;stop-opacity:0;" />
    </linearGradient>
    <linearGradient
       y2="12.380689"
       x2="24.635435"
       y1="7.202693"
       x1="24.635435"
       gradientUnits="userSpaceOnUse"
       id="linearGradient4047"
       xlink:href="#linearGradient6732"
       inkscape:collect="always"
       gradientTransform="matrix(0.50884103,0,0,0.53453534,46.011517,6.5386558)" />
  </defs>
  <g
     id="g3600">
    <g
       id="layer1"
       transform="translate(-23.874477,-0.8828366)">
      <rect
         style="opacity:0.22000002;fill:none;stroke:#000000;stroke-width:0.6151256;stroke-linecap:round;stroke-linejoin:miter;stroke-miterlimit:4;stroke-opacity:1;stroke-dasharray:none;stroke-dashoffset:0;marker:none;visibility:visible;display:inline;overflow:visible;enable-background:accumulate"
         id="rect3236"
         transform="matrix(0,-1,1,0,0,0)"
         y="29.835232"
         x="-20.738594"
         ry="0.41169637"
         rx="0.23013756"
         height="12.350887"
         width="13.347978" />
      <path
         style="opacity:0.7;fill:url(#linearGradient3235);fill-opacity:1;fill-rule:nonzero;stroke:none;stroke-width:1;marker:none;visibility:visible;display:inline;overflow:visible;enable-background:accumulate"
         id="rect3728"
         d="m 30.63306,8.300792 c 3.586673,0 7.173342,0 10.760016,0 0,3.86448 0,7.728954 0,11.593433 -3.586674,0 -7.173343,0 -10.760016,0 0,-3.864479 0,-7.728953 0,-11.593433 z" />
      <path
         style="opacity:0.79000005;fill:none;stroke:url(#linearGradient3204);stroke-width:0.84350359;stroke-linecap:round;stroke-linejoin:miter;stroke-miterlimit:4;stroke-opacity:1;stroke-dasharray:none;stroke-dashoffset:0;marker:none;visibility:visible;display:inline;overflow:visible;enable-background:accumulate"
         id="rect2442"
         d="m 29.105629,20.330146 0,-12.6988182 c 0,-0.5127518 0.210209,-0.9686814 1.060721,-0.9686814 l 11.738672,0 c 0.850512,0 1.017587,0.4127934 1.017587,0.9255452 0,0 0,8.6671724 0,12.9144964 0,0.512753 -0.25335,0.96868 -1.103862,0.96868 -3.88413,0 -11.652397,0 -11.652397,0 -0.850512,0 -1.060721,-0.628466 -1.060721,-1.141222 z"
         sodipodi:nodetypes="cccccsscc" />
      <g
         id="layer1-96"
         inkscape:label="Layer 1"
         transform="matrix(0.93722624,0,0,0.93722624,-18.796067,-3.542243)">
        <path
           sodipodi:nodetypes="ccccccccccc"
           id="path5584-4"
           d="m 54.520365,13.223987 7.954436,0 c 0.494734,0.02363 0.522483,-1.009778 0.522483,-1.009778 l -1.467601,-1.235028 0.0045,-2.0069202 c 0,-0.4397167 -0.352017,-1.0334052 -0.864422,-1.0334052 l -4.335334,-0.047243 c -0.616933,0 -0.914023,0.6351092 -0.914023,1.0696678 l 0,2.0794446 -1.323428,1.198765 c 0,0 -0.02645,0.960877 0.423281,0.9845 z"
           style="color:#000000;fill:url(#linearGradient4047);fill-opacity:1;fill-rule:nonzero;stroke:#3f3f3f;stroke-width:0.93054473;stroke-linecap:butt;stroke-linejoin:miter;stroke-miterlimit:4;stroke-opacity:1;stroke-dasharray:none;stroke-dashoffset:0;marker:none;visibility:visible;display:block;overflow:visible;enable-background:accumulate" />
        <path
           sodipodi:nodetypes="ccccccccccc"
           id="path5584-4-5"
           d="m 55.916955,12.418611 6.038318,0.03885 c 0.368799,0.01831 -0.02557,-0.08219 -0.02557,-0.08219 L 60.70232,11.314848 60.72729,9.3580082 C 60.703498,9.0103534 60.933897,8.6893167 60.249298,8.736451 L 56.91799,8.7054039 c -0.55971,0.032508 -0.713621,-0.2246018 -0.691316,0.4355177 l 0.01084,2.2793724 c -0.546418,0.530106 -0.949668,0.882216 -1.303881,1.130953 -0.171123,0.131461 0.983322,-0.132636 0.983322,-0.132636 z"
           style="color:#000000;fill:none;stroke:#000000;stroke-width:0.70571661;stroke-linecap:butt;stroke-linejoin:miter;stroke-miterlimit:4;stroke-opacity:0.21960784;stroke-dasharray:none;stroke-dashoffset:0;marker:none;visibility:visible;display:block;overflow:visible;enable-background:accumulate" />
      </g>
      <path
         style="fill:#ffffff;stroke:#ffffff;stroke-width:0.03535534;stroke-linecap:round;stroke-linejoin:round;stroke-miterlimit:4;stroke-dasharray:none"
         d="m 6.2824024,12.926537 0,-6.3418636 0.6408155,0 0.6408155,0 0,0.2173563 c 0,0.119546 0.012071,0.248814 0.026825,0.2872622 0.023371,0.060903 -0.030697,0.069906 -0.4198446,0.069906 l -0.4466701,0 0,5.8115331 0,5.811534 5.4137863,0 5.413786,0 0,-5.811534 0,-5.8115331 -0.381657,0 -0.381658,0 0.02811,-0.205042 c 0.01546,-0.1127731 0.0281,-0.242041 0.0281,-0.2872621 0,-0.075948 0.04383,-0.08222 0.574524,-0.08222 l 0.574524,0 0,6.3418632 0,6.341864 -5.855728,0 -5.855728,0 0,-6.341864 z"
         id="path2858"
         transform="translate(23.874477,1.1328366)" />
    </g>
    <path
       style="fill:#4a4a4a;fill-opacity:1;stroke:#bcbcbc;stroke-width:0.89099652;stroke-linecap:round;stroke-linejoin:round;stroke-miterlimit:4;stroke-opacity:1;stroke-dasharray:none"
       d="m 7.9473157,10.547937 5.7901023,0 1.888969,0"
       id="path3777" />
    <path
       style="fill:#4a4a4a;fill-opacity:1;stroke:#bcbcbc;stroke-width:0.84176332;stroke-linecap:round;stroke-linejoin:round;stroke-miterlimit:4;stroke-opacity:1;stroke-dasharray:none"
       d="m 8.0571084,13.688835 5.0732356,0 1.655099,0"
       id="path3777-1" />
    <path
       style="fill:#4a4a4a;fill-opacity:1;stroke:#bcbcbc;stroke-width:0.79527605;stroke-linecap:round;stroke-linejoin:round;stroke-miterlimit:4;stroke-opacity:1;stroke-dasharray:none"
       d="m 8.0907591,16.767233 4.4553009,0 1.453503,0"
       id="path3777-1-7" />
  </g>
</svg>
