<?xml version="1.0" encoding="UTF-8" standalone="no"?>
<!-- Created with Inkscape (http://www.inkscape.org/) -->
<svg xmlns:svg="http://www.w3.org/2000/svg" xmlns="http://www.w3.org/2000/svg" xmlns:xlink="http://www.w3.org/1999/xlink" version="1.0" width="48" height="48">
  <defs id="defs3">
    <linearGradient id="linearGradient5349">
      <stop id="stop5351" style="stop-color: rgb(206, 92, 0); stop-opacity: 1;" offset="0"/>
      <stop id="stop5353" style="stop-color: rgb(206, 92, 0); stop-opacity: 0.371134;" offset="1"/>
    </linearGradient>
    <linearGradient id="linearGradient3359">
      <stop id="stop3361" style="stop-color: rgb(245, 121, 0); stop-opacity: 1;" offset="0"/>
      <stop id="stop3363" style="stop-color: rgb(252, 175, 62); stop-opacity: 1;" offset="1"/>
    </linearGradient>
    <linearGradient id="linearGradient3343">
      <stop id="stop3345" style="stop-color: rgb(245, 121, 0); stop-opacity: 1;" offset="0"/>
      <stop id="stop3347" style="stop-color: rgb(245, 121, 0); stop-opacity: 0;" offset="1"/>
    </linearGradient>
    <linearGradient id="linearGradient3337">
      <stop id="stop3339" style="stop-color: rgb(0, 0, 0); stop-opacity: 1;" offset="0"/>
      <stop id="stop3341" style="stop-color: rgb(0, 0, 0); stop-opacity: 0;" offset="1"/>
    </linearGradient>
    <linearGradient id="linearGradient23419">
      <stop id="stop23421" style="stop-color: rgb(0, 0, 0); stop-opacity: 1;" offset="0"/>
      <stop id="stop23423" style="stop-color: rgb(0, 0, 0); stop-opacity: 0;" offset="1"/>
    </linearGradient>
    <linearGradient x1="12.2744" y1="32.4165" x2="35.391201" y2="14.2033" id="linearGradient3435" gradientUnits="userSpaceOnUse">
      <stop id="stop3437" style="stop-color: rgb(255, 255, 200); stop-opacity: 1;" offset="0"/>
      <stop id="stop3439" style="stop-color: rgb(154, 145, 239); stop-opacity: 0;" offset="1"/>
    </linearGradient>
    <linearGradient x1="12.2744" y1="32.4165" x2="35.391201" y2="14.2033" id="linearGradient3421" gradientUnits="userSpaceOnUse">
      <stop id="stop3423" style="stop-color: rgb(255, 255, 255); stop-opacity: 1;" offset="0"/>
      <stop id="stop3427" style="stop-color: rgb(184, 192, 76); stop-opacity: 0;" offset="1"/>
    </linearGradient>
    <linearGradient x1="12.2744" y1="32.4165" x2="35.391201" y2="14.2033" id="linearGradient3406" gradientUnits="userSpaceOnUse">
      <stop id="stop3408" style="stop-color: rgb(179, 7, 255); stop-opacity: 0.821782;" offset="0"/>
      <stop id="stop3410" style="stop-color: rgb(240, 255, 139); stop-opacity: 0.643564;" offset="1"/>
      <stop id="stop3412" style="stop-color: rgb(255, 255, 255); stop-opacity: 0;" offset="1"/>
    </linearGradient>
    <linearGradient x1="12.2744" y1="32.4165" x2="35.391201" y2="14.2033" id="linearGradient3394" gradientUnits="userSpaceOnUse">
      <stop id="stop3396" style="stop-color: rgb(255, 243, 7); stop-opacity: 1;" offset="0"/>
      <stop id="stop3398" style="stop-color: rgb(22, 110, 255); stop-opacity: 1;" offset="0.5"/>
      <stop id="stop3400" style="stop-color: rgb(255, 255, 255); stop-opacity: 0;" offset="1"/>
    </linearGradient>
    <linearGradient id="linearGradient6036">
      <stop id="stop6038" style="stop-color: rgb(255, 255, 255); stop-opacity: 1;" offset="0"/>
      <stop id="stop6040" style="stop-color: rgb(255, 255, 255); stop-opacity: 0;" offset="1"/>
    </linearGradient>
    <linearGradient id="linearGradient6028">
      <stop id="stop6030" style="stop-color: rgb(255, 255, 255); stop-opacity: 1;" offset="0"/>
      <stop id="stop6032" style="stop-color: rgb(255, 255, 255); stop-opacity: 0;" offset="1"/>
    </linearGradient>
    <linearGradient id="linearGradient4236">
      <stop id="stop4238" style="stop-color: rgb(255, 255, 255); stop-opacity: 0.326733;" offset="0"/>
      <stop id="stop4240" style="stop-color: rgb(255, 255, 255); stop-opacity: 0.60396;" offset="1"/>
    </linearGradient>
    <linearGradient x1="12.2744" y1="32.4165" x2="35.391201" y2="14.2033" id="aigrd2" gradientUnits="userSpaceOnUse">
      <stop id="stop3043" style="stop-color: rgb(251, 251, 251); stop-opacity: 1;" offset="0"/>
      <stop id="stop3045" style="stop-color: rgb(152, 132, 132); stop-opacity: 1;" offset="0.5"/>
      <stop id="stop3047" style="stop-color: rgb(228, 228, 228); stop-opacity: 1;" offset="1"/>
    </linearGradient>
    <linearGradient x1="14.9966" y1="11.1885" x2="32.511002" y2="34.307499" id="aigrd1" gradientUnits="userSpaceOnUse">
      <stop id="stop3034" style="stop-color: rgb(235, 235, 235); stop-opacity: 1;" offset="0"/>
      <stop id="stop3036" style="stop-color: rgb(255, 255, 255); stop-opacity: 1;" offset="0.5"/>
      <stop id="stop3038" style="stop-color: rgb(235, 235, 235); stop-opacity: 1;" offset="1"/>
    </linearGradient>
    <linearGradient x1="14.9966" y1="11.1885" x2="32.511002" y2="34.307499" id="linearGradient3912" xlink:href="#aigrd1" gradientUnits="userSpaceOnUse" gradientTransform="matrix(1.19048, 0, 0, 1.19048, -4.22442, -2.5)"/>
    <linearGradient x1="21.125" y1="14.625" x2="29" y2="28" id="linearGradient4222" xlink:href="#linearGradient4236" gradientUnits="userSpaceOnUse" gradientTransform="matrix(1.25, 0, 0, 1.25, -5.653, -2.60417)"/>
    <linearGradient x1="21.125" y1="14.625" x2="29" y2="28" id="linearGradient4224" xlink:href="#linearGradient4236" gradientUnits="userSpaceOnUse" gradientTransform="matrix(1.25, 0, 0, 1.25, -5.653, -2.60417)"/>
    <linearGradient x1="12.2744" y1="32.4165" x2="35.391201" y2="14.2033" id="linearGradient4242" xlink:href="#aigrd2" gradientUnits="userSpaceOnUse" gradientTransform="matrix(1.19048, 0, 0, 1.19048, -4.22442, -2.5)"/>
    <linearGradient x1="28.702885" y1="31.494707" x2="17.742729" y2="18.366575" id="linearGradient6034" xlink:href="#linearGradient6028" gradientUnits="userSpaceOnUse"/>
    <linearGradient x1="10.50172" y1="3.6100161" x2="48.798885" y2="54.698483" id="linearGradient6042" xlink:href="#linearGradient6036" gradientUnits="userSpaceOnUse"/>
    <radialGradient cx="37.751469" cy="27.569166" r="21.333334" fx="37.751469" fy="27.569166" id="radialGradient3392" xlink:href="#linearGradient3394" gradientUnits="userSpaceOnUse" gradientTransform="matrix(0.848684, 0.95802, -0.782119, 0.692834, 18.6915, -20.5258)"/>
    <radialGradient cx="53.556889" cy="48.23827" r="21.333334" fx="53.556889" fy="48.23827" id="radialGradient3429" xlink:href="#linearGradient3421" gradientUnits="userSpaceOnUse" gradientTransform="matrix(0.15845, -0.158988, 0.432907, 0.431441, -2.72364, 15.0011)"/>
    <radialGradient cx="16.885271" cy="33.377594" r="21.333334" fx="16.885271" fy="33.377594" id="radialGradient3433" xlink:href="#linearGradient3435" gradientUnits="userSpaceOnUse" gradientTransform="matrix(0.00518427, -0.12286, 0.544548, 0.0229782, 0.957234, 26.3076)"/>
    <radialGradient cx="35.511295" cy="21.618015" r="21.333334" fx="35.511295" fy="21.618015" id="radialGradient3443" xlink:href="#linearGradient3435" gradientUnits="userSpaceOnUse" gradientTransform="matrix(0.105916, -0.0191424, 0.104789, 0.579807, 17.1369, 7.11516)"/>
    <radialGradient cx="133.84108" cy="23.914305" r="21.333334" fx="133.84108" fy="23.914305" id="radialGradient3447" xlink:href="#linearGradient3435" gradientUnits="userSpaceOnUse" gradientTransform="matrix(-0.0504822, 0.0138785, -0.12844, -0.467196, 35.4126, 39.4417)"/>
    <radialGradient cx="26.137741" cy="38.807304" r="21.333334" fx="26.137741" fy="38.807304" id="radialGradient3449" xlink:href="#linearGradient3406" gradientUnits="userSpaceOnUse" gradientTransform="matrix(0.769501, -1.2425, 0.6703, 0.415141, -21.7786, 41.3656)"/>
    <linearGradient x1="14.9966" y1="11.1885" x2="32.511002" y2="34.307499" id="linearGradient23343" xlink:href="#aigrd1" gradientUnits="userSpaceOnUse" gradientTransform="matrix(1.19048, 0, 0, 1.19048, -4.22442, -2.5)"/>
    <linearGradient x1="12.2744" y1="32.4165" x2="35.391201" y2="14.2033" id="linearGradient23345" xlink:href="#aigrd2" gradientUnits="userSpaceOnUse" gradientTransform="matrix(1.19048, 0, 0, 1.19048, -4.22442, -2.5)"/>
    <linearGradient x1="21.125" y1="14.625" x2="29" y2="28" id="linearGradient23347" xlink:href="#linearGradient4236" gradientUnits="userSpaceOnUse" gradientTransform="matrix(1.25, 0, 0, 1.25, -5.653, -2.60417)"/>
    <linearGradient x1="21.125" y1="14.625" x2="29" y2="28" id="linearGradient23349" xlink:href="#linearGradient4236" gradientUnits="userSpaceOnUse" gradientTransform="matrix(1.25, 0, 0, 1.25, -5.653, -2.60417)"/>
    <linearGradient x1="10.50172" y1="3.6100161" x2="48.798885" y2="54.698483" id="linearGradient23351" xlink:href="#linearGradient6036" gradientUnits="userSpaceOnUse"/>
    <linearGradient x1="28.702885" y1="31.494707" x2="17.742729" y2="18.366575" id="linearGradient23353" xlink:href="#linearGradient6028" gradientUnits="userSpaceOnUse"/>
    <radialGradient cx="37.751469" cy="27.569166" r="21.333334" fx="37.751469" fy="27.569166" id="radialGradient23355" xlink:href="#linearGradient3394" gradientUnits="userSpaceOnUse" gradientTransform="matrix(0.848684, 0.95802, -0.782119, 0.692834, 18.6915, -20.5258)"/>
    <radialGradient cx="26.137741" cy="38.807304" r="21.333334" fx="26.137741" fy="38.807304" id="radialGradient23357" xlink:href="#linearGradient3406" gradientUnits="userSpaceOnUse" gradientTransform="matrix(0.769501, -1.2425, 0.6703, 0.415141, -21.7786, 41.3656)"/>
    <radialGradient cx="53.556889" cy="48.23827" r="21.333334" fx="53.556889" fy="48.23827" id="radialGradient23359" xlink:href="#linearGradient3421" gradientUnits="userSpaceOnUse" gradientTransform="matrix(0.15845, -0.158988, 0.432907, 0.431441, -2.72364, 15.0011)"/>
    <radialGradient cx="16.885271" cy="33.377594" r="21.333334" fx="16.885271" fy="33.377594" id="radialGradient23361" xlink:href="#linearGradient3435" gradientUnits="userSpaceOnUse" gradientTransform="matrix(0.00518427, -0.12286, 0.544548, 0.0229782, 0.957234, 26.3076)"/>
    <radialGradient cx="35.511295" cy="21.618015" r="21.333334" fx="35.511295" fy="21.618015" id="radialGradient23363" xlink:href="#linearGradient3435" gradientUnits="userSpaceOnUse" gradientTransform="matrix(0.105916, -0.0191424, 0.104789, 0.579807, 17.1369, 7.11516)"/>
    <radialGradient cx="133.84108" cy="23.914305" r="21.333334" fx="133.84108" fy="23.914305" id="radialGradient23365" xlink:href="#linearGradient3435" gradientUnits="userSpaceOnUse" gradientTransform="matrix(-0.0504822, 0.0138785, -0.12844, -0.467196, 35.4126, 39.4417)"/>
    <radialGradient cx="133.84108" cy="23.914305" r="21.333334" fx="133.84108" fy="23.914305" id="radialGradient23368" xlink:href="#linearGradient3435" gradientUnits="userSpaceOnUse" gradientTransform="matrix(-0.0504822, 0.0138785, -0.12844, -0.467196, 35.4126, 39.4417)"/>
    <radialGradient cx="35.511295" cy="21.618015" r="21.333334" fx="35.511295" fy="21.618015" id="radialGradient23371" xlink:href="#linearGradient3435" gradientUnits="userSpaceOnUse" gradientTransform="matrix(0.105916, -0.0191424, 0.104789, 0.579807, 17.1369, 7.11516)"/>
    <radialGradient cx="16.885271" cy="33.377594" r="21.333334" fx="16.885271" fy="33.377594" id="radialGradient23374" xlink:href="#linearGradient3435" gradientUnits="userSpaceOnUse" gradientTransform="matrix(0.00518427, -0.12286, 0.544548, 0.0229782, 0.957234, 26.3076)"/>
    <radialGradient cx="53.556889" cy="48.23827" r="21.333334" fx="53.556889" fy="48.23827" id="radialGradient23377" xlink:href="#linearGradient3421" gradientUnits="userSpaceOnUse" gradientTransform="matrix(0.15845, -0.158988, 0.432907, 0.431441, -2.72364, 15.0011)"/>
    <radialGradient cx="26.137741" cy="38.807304" r="21.333334" fx="26.137741" fy="38.807304" id="radialGradient23380" xlink:href="#linearGradient3406" gradientUnits="userSpaceOnUse" gradientTransform="matrix(0.769501, -1.2425, 0.6703, 0.415141, -21.7786, 41.3656)"/>
    <radialGradient cx="37.751469" cy="27.569166" r="21.333334" fx="37.751469" fy="27.569166" id="radialGradient23383" xlink:href="#linearGradient3394" gradientUnits="userSpaceOnUse" gradientTransform="matrix(0.848684, 0.95802, -0.782119, 0.692834, 18.6915, -20.5258)"/>
    <linearGradient x1="10.50172" y1="3.6100161" x2="48.798885" y2="54.698483" id="linearGradient23387" xlink:href="#linearGradient6036" gradientUnits="userSpaceOnUse"/>
    <linearGradient x1="21.125" y1="14.625" x2="29" y2="28" id="linearGradient23390" xlink:href="#linearGradient4236" gradientUnits="userSpaceOnUse" gradientTransform="matrix(1.25, 0, 0, 1.25, -5.653, -2.60417)"/>
    <linearGradient x1="21.125" y1="14.625" x2="29" y2="28" id="linearGradient23393" xlink:href="#linearGradient4236" gradientUnits="userSpaceOnUse" gradientTransform="matrix(1.25, 0, 0, 1.25, -5.653, -2.60417)"/>
    <linearGradient x1="12.2744" y1="32.4165" x2="35.391201" y2="14.2033" id="linearGradient23397" xlink:href="#aigrd2" gradientUnits="userSpaceOnUse" gradientTransform="matrix(1.19048, 0, 0, 1.19048, -4.22442, -2.5)"/>
    <linearGradient x1="14.9966" y1="11.1885" x2="32.511002" y2="34.307499" id="linearGradient23400" xlink:href="#aigrd1" gradientUnits="userSpaceOnUse" gradientTransform="matrix(1.19048, 0, 0, 1.19048, -4.22442, -2.5)"/>
    <radialGradient cx="23.334524" cy="41.63604" r="22.627417" fx="23.334524" fy="41.63604" id="radialGradient23425" xlink:href="#linearGradient23419" gradientUnits="userSpaceOnUse" gradientTransform="matrix(1, 0, 0, 0.25, 0, 31.227)"/>
    <linearGradient x1="-27.792974" y1="137.33456" x2="-27.792974" y2="204.28542" id="linearGradient3381" xlink:href="#linearGradient3359" gradientUnits="userSpaceOnUse" gradientTransform="matrix(0.546577, 0, 0, 0.546577, 37.7539, -67.4311)"/>
    <linearGradient x1="-36.257408" y1="204.39502" x2="-36.257408" y2="129.62741" id="linearGradient4360" xlink:href="#linearGradient3359" gradientUnits="userSpaceOnUse" gradientTransform="matrix(-0.546577, 0, 0, 0.546577, 12.9294, -70.3007)"/>
    <linearGradient x1="13.709558" y1="0.86935252" x2="22.562946" y2="44.226536" id="linearGradient5355" xlink:href="#linearGradient5349" gradientUnits="userSpaceOnUse"/>
  </defs>
  <g id="layer1">
    <path d="M 45.961941,41.63604 A 22.627417,5.6568542 0 1 1 0.70710754,41.63604 A 22.627417,5.6568542 0 1 1 45.961941,41.63604 z" transform="matrix(1, 0, 0, 1.06629, 1, -2.88511)" id="path23417" style="overflow: visible; marker: none; opacity: 0.55; fill: url(#radialGradient23425) rgb(0, 0, 0); fill-opacity: 1; fill-rule: evenodd; stroke: none; stroke-width: 2; stroke-linecap: butt; stroke-linejoin: miter; stroke-miterlimit: 4; stroke-dasharray: none; stroke-dashoffset: 0pt; stroke-opacity: 1; visibility: visible; display: inline;"/>
    <path d="M 24.347006,4.1666669 C 12.799386,4.1666669 3.5136719,13.452381 3.5136719,25 C 3.5136719,36.54762 12.799386,45.833335 24.347006,45.833335 C 35.894626,45.833335 45.180341,36.54762 45.180341,25 C 45.180341,13.452381 35.894626,4.1666669 24.347006,4.1666669 L 24.347006,4.1666669 z M 24.347006,30.000001 C 21.608911,30.000001 19.347006,27.738096 19.347006,25 C 19.347006,22.261905 21.608911,20 24.347006,20 C 27.085101,20 29.347006,22.261905 29.347006,25 C 29.347006,27.738096 27.085101,30.000001 24.347006,30.000001 z" id="path3040" style="fill: url(#linearGradient23400) rgb(0, 0, 0); fill-rule: nonzero; stroke: none; stroke-miterlimit: 4;"/>
    <path d="M 24.347006,4.1666665 C 12.799386,4.1666665 3.513672,13.452381 3.513672,25 C 3.513672,36.54762 12.799386,45.833335 24.347006,45.833335 C 35.894626,45.833335 45.180341,36.54762 45.180341,25 C 45.180341,13.452381 35.894626,4.1666665 24.347006,4.1666665 L 24.347006,4.1666665 z M 24.347006,30.000001 C 21.608911,30.000001 19.347006,27.738096 19.347006,25 C 19.347006,22.261905 21.608911,20 24.347006,20 C 27.085101,20 29.347006,22.261905 29.347006,25 C 29.347006,27.738096 27.085101,30.000001 24.347006,30.000001 z" id="path3049" style="fill: url(#linearGradient23397) rgb(0, 0, 0); fill-rule: nonzero; stroke: rgb(128, 128, 128); stroke-miterlimit: 4; stroke-opacity: 1;"/>
    <path d="M 24.347006,14.895835 C 18.70442,14.895835 14.24284,19.488638 14.24284,25 C 14.24284,30.642588 18.835644,35.104166 24.347006,35.104166 C 29.989592,35.104166 34.451172,30.511364 34.451172,25 C 34.451172,19.357414 29.858368,14.895835 24.347006,14.895835 L 24.347006,14.895835 z M 24.347006,30.511364 C 21.328879,30.511364 18.835644,28.018129 18.835644,25 C 18.835644,21.981873 21.328879,19.488638 24.347006,19.488638 C 27.365133,19.488638 29.858368,21.981873 29.858368,25 C 29.858368,28.018129 27.365133,30.511364 24.347006,30.511364 z" id="path3051" style="opacity: 0.11; fill-rule: nonzero; stroke: none; stroke-miterlimit: 4;"/>
    <path d="M 29.922111,5.6692337 L 26.325518,19.663896 C 27.450222,19.963413 28.349661,20.659366 28.960646,21.622438 L 41.352866,14.073153 C 38.817618,9.9434382 34.748656,6.9050853 29.922111,5.6692337 z" id="path3916" style="fill: url(#linearGradient23393) rgb(0, 0, 0); fill-opacity: 1; fill-rule: nonzero; stroke: none; stroke-miterlimit: 4; stroke-opacity: 1;"/>
    <path d="M 17.307824,43.766057 L 22.043079,30.114558 C 20.946815,29.723566 20.107654,28.956005 19.577936,27.945951 L 6.6068752,34.450599 C 8.7939325,38.774811 12.599255,42.137482 17.307824,43.766057 z" id="path4214" style="fill: url(#linearGradient23390) rgb(0, 0, 0); fill-opacity: 1; fill-rule: nonzero; stroke: none; stroke-miterlimit: 4; stroke-opacity: 1;"/>
    <path d="M 24.347002,5.2023655 C 13.373458,5.2023655 4.5493711,14.026454 4.5493711,24.999997 C 4.5493711,35.973541 13.373458,44.797628 24.347002,44.797628 C 35.320546,44.797628 44.144633,35.973541 44.144633,24.999997 C 44.144633,14.026454 35.320546,5.2023655 24.347002,5.2023655 L 24.347002,5.2023655 z" id="path5264" style="opacity: 0.546448; fill: none; fill-rule: nonzero; stroke: url(#linearGradient23387) rgb(0, 0, 0); stroke-miterlimit: 4; stroke-opacity: 1;"/>
    <path d="M 30.405591,24.930641 A 6.0987959,6.0987959 0 1 1 18.207999,24.930641 A 6.0987959,6.0987959 0 1 1 30.405591,24.930641 z" transform="translate(0.0883884, 0.0883887)" id="path6026" style="overflow: visible; marker: none; opacity: 0.672131; fill: none; fill-opacity: 0.316384; fill-rule: nonzero; stroke: url(#linearGradient23353) rgb(0, 0, 0); stroke-width: 0.930539; stroke-linecap: butt; stroke-linejoin: miter; stroke-miterlimit: 4; stroke-dashoffset: 0pt; stroke-opacity: 1; visibility: visible; display: inline;"/>
    <path d="M 24.347006,4.1666665 C 12.799386,4.1666665 3.513672,13.452381 3.513672,25 C 3.513672,36.54762 12.799386,45.833335 24.347006,45.833335 C 35.894626,45.833335 45.180341,36.54762 45.180341,25 C 45.180341,13.452381 35.894626,4.1666665 24.347006,4.1666665 L 24.347006,4.1666665 z M 24.347006,30.000001 C 21.608911,30.000001 19.347006,27.738096 19.347006,25 C 19.347006,22.261905 21.608911,20 24.347006,20 C 27.085101,20 29.347006,22.261905 29.347006,25 C 29.347006,27.738096 27.085101,30.000001 24.347006,30.000001 z" id="path3390" style="opacity: 0.114286; fill: url(#radialGradient23383) rgb(0, 0, 0); fill-opacity: 1; fill-rule: nonzero; stroke: none; stroke-miterlimit: 4; stroke-opacity: 1;"/>
    <path d="M 24.347006,4.1666665 C 12.799386,4.1666665 3.513672,13.452381 3.513672,25 C 3.513672,36.54762 12.799386,45.833335 24.347006,45.833335 C 35.894626,45.833335 45.180341,36.54762 45.180341,25 C 45.180341,13.452381 35.894626,4.1666665 24.347006,4.1666665 L 24.347006,4.1666665 z M 24.347006,30.000001 C 21.608911,30.000001 19.347006,27.738096 19.347006,25 C 19.347006,22.261905 21.608911,20 24.347006,20 C 27.085101,20 29.347006,22.261905 29.347006,25 C 29.347006,27.738096 27.085101,30.000001 24.347006,30.000001 z" id="path3404" style="opacity: 0.0971428; fill: url(#radialGradient23380) rgb(0, 0, 0); fill-opacity: 1; fill-rule: nonzero; stroke: none; stroke-miterlimit: 4; stroke-opacity: 1;"/>
    <path d="M 24.347006,4.1666665 C 12.799386,4.1666665 3.513672,13.452381 3.513672,25 C 3.513672,36.54762 12.799386,45.833335 24.347006,45.833335 C 35.894626,45.833335 45.180341,36.54762 45.180341,25 C 45.180341,13.452381 35.894626,4.1666665 24.347006,4.1666665 L 24.347006,4.1666665 z M 24.347006,30.000001 C 21.608911,30.000001 19.347006,27.738096 19.347006,25 C 19.347006,22.261905 21.608911,20 24.347006,20 C 27.085101,20 29.347006,22.261905 29.347006,25 C 29.347006,27.738096 27.085101,30.000001 24.347006,30.000001 z" id="path3419" style="opacity: 0.714286; fill: url(#radialGradient23377) rgb(0, 0, 0); fill-opacity: 1; fill-rule: nonzero; stroke: none; stroke-miterlimit: 4; stroke-opacity: 1;"/>
    <path d="M 24.347006,4.1666665 C 12.799386,4.1666665 3.513672,13.452381 3.513672,25 C 3.513672,36.54762 12.799386,45.833335 24.347006,45.833335 C 35.894626,45.833335 45.180341,36.54762 45.180341,25 C 45.180341,13.452381 35.894626,4.1666665 24.347006,4.1666665 L 24.347006,4.1666665 z M 24.347006,30.000001 C 21.608911,30.000001 19.347006,27.738096 19.347006,25 C 19.347006,22.261905 21.608911,20 24.347006,20 C 27.085101,20 29.347006,22.261905 29.347006,25 C 29.347006,27.738096 27.085101,30.000001 24.347006,30.000001 z" id="path3431" style="opacity: 0.622857; fill: url(#radialGradient23374) rgb(0, 0, 0); fill-opacity: 1; fill-rule: nonzero; stroke: none; stroke-miterlimit: 4; stroke-opacity: 1;"/>
    <path d="M 24.347006,4.1666665 C 12.799386,4.1666665 3.513672,13.452381 3.513672,25 C 3.513672,36.54762 12.799386,45.833335 24.347006,45.833335 C 35.894626,45.833335 45.180341,36.54762 45.180341,25 C 45.180341,13.452381 35.894626,4.1666665 24.347006,4.1666665 L 24.347006,4.1666665 z M 24.347006,30.000001 C 21.608911,30.000001 19.347006,27.738096 19.347006,25 C 19.347006,22.261905 21.608911,20 24.347006,20 C 27.085101,20 29.347006,22.261905 29.347006,25 C 29.347006,27.738096 27.085101,30.000001 24.347006,30.000001 z" id="path3441" style="opacity: 0.371429; fill: url(#radialGradient23371) rgb(0, 0, 0); fill-opacity: 1; fill-rule: nonzero; stroke: none; stroke-miterlimit: 4; stroke-opacity: 1;"/>
    <path d="M 24.347006,4.1666665 C 12.799386,4.1666665 3.513672,13.452381 3.513672,25 C 3.513672,36.54762 12.799386,45.833335 24.347006,45.833335 C 35.894626,45.833335 45.180341,36.54762 45.180341,25 C 45.180341,13.452381 35.894626,4.1666665 24.347006,4.1666665 L 24.347006,4.1666665 z M 24.347006,30.000001 C 21.608911,30.000001 19.347006,27.738096 19.347006,25 C 19.347006,22.261905 21.608911,20 24.347006,20 C 27.085101,20 29.347006,22.261905 29.347006,25 C 29.347006,27.738096 27.085101,30.000001 24.347006,30.000001 z" id="path3445" style="opacity: 0.234286; fill: url(#radialGradient23368) rgb(0, 0, 0); fill-opacity: 1; fill-rule: nonzero; stroke: none; stroke-miterlimit: 4; stroke-opacity: 1;"/>
    <path d="M 25.08908,45.764743 C 33.838635,45.790891 48.273155,32.637548 42.815005,21.470864 C 43.18169,25.135578 45.068095,31.625885 37.011095,32.685785 C 36.104236,32.685785 31.751303,30.131895 33.020908,25.135146 C 34.290513,20.138397 35.642804,21.893572 39.632991,17.118906 C 43.623178,12.344231 35.736159,5.4643051 35.736159,5.4643051 C 40.131626,12.674755 42.065412,15.364346 28.050496,19.766097 C 17.696652,17.257589 24.023758,9.184414 27.035624,5.9254237 C 20.079857,11.011024 16.18744,11.312729 20.506225,19.25009 C 21.957203,20.80463 28.050883,29.539701 25.584647,32.907864 C 23.226807,36.127993 20.868969,37.127343 17.241525,36.572147 C 13.61408,36.016956 10.387102,32.059395 10.568476,29.505505 C 10.749848,26.951609 13.8709,21.781582 13.8709,21.781582 C 1.3401327,29.560855 8.4998348,45.715165 25.08908,45.764743 z" id="path4358" style="opacity: 0.421384; fill: url(#linearGradient4360) rgb(0, 0, 0); fill-opacity: 1; fill-rule: evenodd; stroke: rgb(206, 92, 0); stroke-width: 0.75; stroke-linecap: butt; stroke-linejoin: round; stroke-miterlimit: 4; stroke-dasharray: none; stroke-opacity: 1;"/>
    <path d="M 24.768215,45.880907 C 13.47884,45.922758 -0.067902267,35.231776 7.8683109,24.340432 C 7.5016257,28.005146 7.9591996,35.432797 13.672221,35.26331 C 19.582418,35.087974 15.661014,29.566223 12.957026,26.475813 C 8.9668388,21.701138 21.053218,13.607488 21.053218,13.607488 C 11.693027,25.003881 16.684983,31.175676 23.119558,31.591637 C 33.372756,32.254451 31.137544,21.204649 28.125678,17.945659 C 35.081445,23.031259 34.114245,27.341007 32.124041,30.394197 C 30.972865,32.160227 25.066121,33.480092 25.098669,35.777432 C 25.155207,39.768102 29.814347,39.996911 33.441791,39.441715 C 37.069236,38.886524 39.78982,36.110549 39.608446,33.556659 C 39.427074,31.002763 35.799627,26.339131 35.799627,26.339131 C 48.330395,34.118404 36.398867,45.83779 24.768215,45.880907 z" id="path2356" style="fill: url(#linearGradient3381) rgb(0, 0, 0); fill-opacity: 1; fill-rule: evenodd; stroke: url(#linearGradient5355) rgb(0, 0, 0); stroke-width: 0.75; stroke-linecap: butt; stroke-linejoin: round; stroke-miterlimit: 4; stroke-dasharray: none; stroke-opacity: 1;"/>
  </g>
</svg>