<?xml version="1.0" encoding="UTF-8" standalone="no"?>
<!-- Created with Inkscape (http://www.inkscape.org/) -->
<svg xmlns:dc="http://purl.org/dc/elements/1.1/" xmlns:cc="http://web.resource.org/cc/" xmlns:rdf="http://www.w3.org/1999/02/22-rdf-syntax-ns#" xmlns:svg="http://www.w3.org/2000/svg" xmlns="http://www.w3.org/2000/svg" xmlns:sodipodi="http://sodipodi.sourceforge.net/DTD/sodipodi-0.dtd" xmlns:inkscape="http://www.inkscape.org/namespaces/inkscape" id="svg2" sodipodi:version="0.32" inkscape:version="0.45" width="48" height="48" version="1.0" sodipodi:docname="geogebra.svg" inkscape:output_extension="org.inkscape.output.svg.inkscape" sodipodi:modified="TRUE">
  <metadata id="metadata7">
    <rdf:RDF>
      <cc:Work rdf:about="">
        <dc:format>image/svg+xml</dc:format>
        <dc:type rdf:resource="http://purl.org/dc/dcmitype/StillImage"/>
      </cc:Work>
    </rdf:RDF>
  </metadata>
  <defs id="defs5"/>
  <sodipodi:namedview inkscape:window-height="945" inkscape:window-width="1270" inkscape:pageshadow="2" inkscape:pageopacity="0.0" guidetolerance="10.0" gridtolerance="10.0" objecttolerance="10.0" borderopacity="1.0" bordercolor="#666666" pagecolor="#ffffff" id="base" inkscape:zoom="5.6568542" inkscape:cx="40.488701" inkscape:cy="25.422314" inkscape:window-x="1280" inkscape:window-y="56" inkscape:current-layer="svg2"/>
  <g id="g2183" transform="matrix(0.714832, 0, 0, 0.714832, 0.622363, 1.50204)">
    <path transform="matrix(0.879764, -0.516513, 0.503653, 0.878277, -23.6896, 10.7366)" d="M 64.169939 45.88039 A 27.842329 20.240932 0 1 1  8.485281,45.88039 A 27.842329 20.240932 0 1 1  64.169939 45.88039 z" sodipodi:ry="20.240932" sodipodi:rx="27.842329" sodipodi:cy="45.88039" sodipodi:cx="36.32761" id="path2196" style="fill: none; fill-opacity: 1; fill-rule: evenodd; stroke: rgb(102, 102, 102); stroke-width: 3.8; stroke-linecap: butt; stroke-linejoin: miter; stroke-miterlimit: 4; stroke-dasharray: none; stroke-opacity: 1;" sodipodi:type="arc"/>
    <g id="g2176">
      <path sodipodi:type="arc" style="fill: rgb(153, 153, 255); fill-opacity: 1; stroke: rgb(1, 1, 0); stroke-width: 1; stroke-miterlimit: 4; stroke-dasharray: none; stroke-opacity: 1;" id="path4138" sodipodi:cx="52.591068" sodipodi:cy="49.681087" sodipodi:rx="5.2149124" sodipodi:ry="5.3033009" d="M 57.805981 49.681087 A 5.2149124 5.3033009 0 1 1  47.376156,49.681087 A 5.2149124 5.3033009 0 1 1  57.805981 49.681087 z" transform="translate(-35.8857, 3.35876)"/>
      <path d="M 57.805981 49.681087 A 5.2149124 5.3033009 0 1 1  47.376156,49.681087 A 5.2149124 5.3033009 0 1 1  57.805981 49.681087 z" sodipodi:ry="5.3033009" sodipodi:rx="5.2149124" sodipodi:cy="49.681087" sodipodi:cx="52.591068" id="path5109" style="fill: rgb(153, 153, 255); fill-opacity: 1; stroke: rgb(1, 1, 0); stroke-width: 1; stroke-miterlimit: 4; stroke-dasharray: none; stroke-opacity: 1;" sodipodi:type="arc" transform="translate(-44.5477, -22.2739)"/>
      <path sodipodi:type="arc" style="fill: rgb(153, 153, 255); fill-opacity: 1; stroke: rgb(1, 1, 0); stroke-width: 1; stroke-miterlimit: 4; stroke-dasharray: none; stroke-opacity: 1;" id="path5111" sodipodi:cx="52.591068" sodipodi:cy="49.681087" sodipodi:rx="5.2149124" sodipodi:ry="5.3033009" d="M 57.805981 49.681087 A 5.2149124 5.3033009 0 1 1  47.376156,49.681087 A 5.2149124 5.3033009 0 1 1  57.805981 49.681087 z" transform="translate(-7.24784, -3.0052)"/>
      <path d="M 57.805981 49.681087 A 5.2149124 5.3033009 0 1 1  47.376156,49.681087 A 5.2149124 5.3033009 0 1 1  57.805981 49.681087 z" sodipodi:ry="5.3033009" sodipodi:rx="5.2149124" sodipodi:cy="49.681087" sodipodi:cx="52.591068" id="path5113" style="fill: rgb(153, 153, 255); fill-opacity: 1; stroke: rgb(1, 1, 0); stroke-width: 1; stroke-miterlimit: 4; stroke-dasharray: none; stroke-opacity: 1;" sodipodi:type="arc" transform="translate(4.77297, -26.5165)"/>
      <path sodipodi:type="arc" style="fill: rgb(153, 153, 255); fill-opacity: 1; stroke: rgb(1, 1, 0); stroke-width: 1; stroke-miterlimit: 4; stroke-dasharray: none; stroke-opacity: 1;" id="path5115" sodipodi:cx="52.591068" sodipodi:cy="49.681087" sodipodi:rx="5.2149124" sodipodi:ry="5.3033009" d="M 57.805981 49.681087 A 5.2149124 5.3033009 0 1 1  47.376156,49.681087 A 5.2149124 5.3033009 0 1 1  57.805981 49.681087 z" transform="translate(-21.5668, -39.7748)"/>
    </g>
  </g>
</svg>