<?xml version="1.0" encoding="UTF-8" standalone="no"?>
<!-- Created with Inkscape (http://www.inkscape.org/) -->
<svg
   xmlns:dc="http://purl.org/dc/elements/1.1/"
   xmlns:cc="http://creativecommons.org/ns#"
   xmlns:rdf="http://www.w3.org/1999/02/22-rdf-syntax-ns#"
   xmlns:svg="http://www.w3.org/2000/svg"
   xmlns="http://www.w3.org/2000/svg"
   xmlns:xlink="http://www.w3.org/1999/xlink"
   xmlns:sodipodi="http://sodipodi.sourceforge.net/DTD/sodipodi-0.dtd"
   xmlns:inkscape="http://www.inkscape.org/namespaces/inkscape"
   version="1.1"
   width="48"
   height="48"
   id="GnomeSubtitles"
   sodipodi:version="0.32"
   inkscape:version="0.46"
   sodipodi:docname="gnome-subtitles.svg"
   inkscape:output_extension="org.inkscape.output.svg.inkscape">
  <metadata
     id="metadata20">
    <rdf:RDF>
      <cc:Work
         rdf:about="">
        <dc:format>image/svg+xml</dc:format>
        <dc:type
           rdf:resource="http://purl.org/dc/dcmitype/StillImage" />
      </cc:Work>
    </rdf:RDF>
  </metadata>
  <sodipodi:namedview
     inkscape:window-height="788"
     inkscape:window-width="1272"
     inkscape:pageshadow="2"
     inkscape:pageopacity="0.0"
     guidetolerance="10.0"
     gridtolerance="10.0"
     objecttolerance="10.0"
     borderopacity="1.0"
     bordercolor="#666666"
     pagecolor="#ffffff"
     id="base"
     showgrid="false"
     inkscape:zoom="8"
     inkscape:cx="25.8339"
     inkscape:cy="27.278345"
     inkscape:window-x="-4"
     inkscape:window-y="29"
     inkscape:current-layer="GnomeSubtitles" />
  <defs
     id="Defs">
    <inkscape:perspective
       sodipodi:type="inkscape:persp3d"
       inkscape:vp_x="0 : 24 : 1"
       inkscape:vp_y="0 : 1000 : 0"
       inkscape:vp_z="48 : 24 : 1"
       inkscape:persp3d-origin="24 : 16 : 1"
       id="perspective22" />
    <linearGradient
       id="linearGradient7958">
      <stop
         id="Black"
         style="stop-color: rgb(0, 0, 0); stop-opacity: 1;"
         offset="0" />
      <stop
         id="TransparentBlack"
         style="stop-color: rgb(0, 0, 0); stop-opacity: 0;"
         offset="1" />
    </linearGradient>
    <linearGradient
       id="linearGradient8099">
      <stop
         id="White"
         style="stop-color: rgb(255, 255, 255); stop-opacity: 1;"
         offset="0" />
      <stop
         id="TransparentWhite"
         style="stop-color: rgb(255, 255, 255); stop-opacity: 0;"
         offset="1" />
    </linearGradient>
    <linearGradient
       x1="2.5179987"
       y1="10.959259"
       x2="2.5179987"
       y2="8.0052471"
       id="linearGradient7956"
       xlink:href="#linearGradient8099"
       gradientUnits="userSpaceOnUse" />
    <radialGradient
       cx="12.666883"
       cy="19.983101"
       r="8.0493984"
       fx="12.666883"
       fy="19.983101"
       id="radialGradient7964"
       xlink:href="#linearGradient7958"
       gradientUnits="userSpaceOnUse" />
    <radialGradient
       inkscape:collect="always"
       xlink:href="#linearGradient7958"
       id="radialGradient2411"
       gradientUnits="userSpaceOnUse"
       cx="12.666883"
       cy="19.983101"
       fx="12.666883"
       fy="19.983101"
       r="8.0493984" />
    <linearGradient
       inkscape:collect="always"
       xlink:href="#linearGradient8099"
       id="linearGradient2413"
       gradientUnits="userSpaceOnUse"
       x1="2.5179987"
       y1="10.959259"
       x2="2.5179987"
       y2="8.0052471" />
    <linearGradient
       inkscape:collect="always"
       xlink:href="#linearGradient8099"
       id="linearGradient2418"
       gradientUnits="userSpaceOnUse"
       x1="2.5179987"
       y1="10.959259"
       x2="2.5179987"
       y2="8.0052471" />
    <radialGradient
       inkscape:collect="always"
       xlink:href="#linearGradient7958"
       id="radialGradient2423"
       gradientUnits="userSpaceOnUse"
       cx="12.666883"
       cy="19.983101"
       fx="12.666883"
       fy="19.983101"
       r="8.0493984"
       gradientTransform="matrix(0.993863,0,0,0.372699,18.4109,33.05)" />
  </defs>
  <path
     style="opacity:0.3;fill:url(#radialGradient2423);fill-opacity:1;stroke:none"
     id="Shadow"
     d="M 39.000046,40.497682 C 39.000046,42.154538 35.418325,43.497684 31.000047,43.497684 C 26.581769,43.497684 23.000047,42.154538 23.000047,40.497682 C 23.000047,38.840826 26.581769,37.497679 31.000047,37.497679 C 35.418325,37.497679 39.000046,38.840826 39.000046,40.497682 L 39.000046,40.497682 z" />
  <path
     style="fill:#ffb200;fill-opacity:1;stroke:none"
     id="Bubble"
     d="M 8.5,2.5022 C 5.176,2.5022 2.5,5.1782 2.5,8.5022 L 2.5,25.5022 C 2.5,28.8262 5.176,31.5022 8.5,31.5022 L 33.375,31.5022 L 33.4375,31.7522 C 33.4375,31.7522 33.656998,36.3277 30.5,40.0022 C 33.55349,39.2776 38.449353,36.4003 40.3125,31.846 L 40.5,31.4085 C 43.332064,30.9246 45.5,28.4764 45.5,25.5022 L 45.5,8.5022 C 45.5,5.1782 42.824,2.5022 39.5,2.5022 L 8.5,2.5022 z" />
  <path
     style="opacity:0.25;fill:#ffffff;fill-opacity:1;stroke:none"
     id="Reflection"
     d="M 44,8 C 44,8 36.397345,12 24,12 C 11.877977,12 4,16 4,16 L 4,25.5 C 4,28.0189 5.9810542,30 8.5,30 L 33.375,30 C 34.039491,29.9928 34.677607,30.481575 34.84375,31.125 L 34.90625,31.375 C 34.92755,31.477692 34.93805,31.582623 34.9375,31.6875 C 34.9375,31.6875 34.9454,33.9696 34,36.6875 C 35.993489,35.3902 37.99883,33.57575 38.9375,31.28125 C 38.937392,31.27083 38.937392,31.26042 38.9375,31.25 L 39.125,30.8125 C 39.324487,30.359431 39.761767,30.019325 40.25,29.9375 C 42.379382,29.5737 44,27.7453 44,25.5 C 44.000002,19.75004 44,8 44,8 z M 44.28125,29.0625 C 44.087913,29.308081 43.887786,29.536856 43.65625,29.75 C 43.877629,29.531581 44.094035,29.31183 44.28125,29.0625 z M 43.65625,29.75 C 42.961642,30.389432 42.094012,30.876012 41.15625,31.15625 L 40.5,31.34375 L 40.21875,32 C 40.108918,32.256305 39.99936,32.505315 39.875,32.75 C 40.032581,32.455303 40.185094,32.155184 40.3125,31.84375 L 40.5,31.40625 C 41.72972,31.196134 42.806773,30.588119 43.65625,29.75 L 43.65625,29.75 z M 33.375,31.5 L 33.40625,31.59375 L 33.40625,31.5 L 33.375,31.5 z M 38.875,34.34375 C 38.600281,34.718764 38.30786,35.065496 38,35.40625 C 38.308997,35.068457 38.599622,34.71447 38.875,34.34375 z M 32.8125,35.78125 C 32.691214,36.165409 32.54743,36.564813 32.375,36.96875 C 32.552779,36.558504 32.695606,36.160865 32.8125,35.78125 z" />
  <path
     style="font-size:medium;font-style:normal;font-variant:normal;font-weight:normal;font-stretch:normal;text-indent:0pt;text-align:start;text-decoration:none;line-height:normal;letter-spacing:normal;word-spacing:normal;text-transform:none;direction:ltr;text-anchor:start;opacity:0.6;fill:url(#linearGradient2418);fill-opacity:1;stroke:none;stroke-width:3;marker:none;visibility:visible;display:inline;overflow:visible;font-family:Bitstream Vera Sans"
     id="Highlight"
     d="M 8.5,2.5 C 5.1873313,2.5 2.5,5.1873 2.5,8.5 L 2.5,25.5 C 2.5,28.8127 5.1873313,31.5 8.5,31.5 L 31.8125,31.5 L 33.40625,31.5 L 33.3125,33.09375 C 33.22388,34.47515 32.813931,37.26305 30.5,39.96875 L 30.5,40 L 30.53125,40 C 33.596992,39.2635 38.295076,36.4891 40.21875,32 L 40.5,31.34375 L 41.15625,31.15625 C 43.656947,30.40895 45.5,28.2066 45.5,25.5 L 45.5,8.5 C 45.5,5.1873 42.812668,2.5 39.5,2.5 L 8.5,2.5 z M 8.5,4 L 39.5,4 C 42.018946,4 44,5.9811 44,8.5 L 44,25.5 C 44,27.7453 42.379382,29.5737 40.25,29.9375 C 39.751547,30.021037 39.328663,30.349947 39.125,30.8125 L 38.9375,31.25 C 38.937392,31.260416 38.937392,31.270834 38.9375,31.28125 C 37.99883,33.57575 35.993489,35.3902 34,36.6875 C 34.945393,33.9696 34.9375,31.6875 34.9375,31.6875 C 34.938046,31.582527 34.927572,31.477786 34.90625,31.375 L 34.84375,31.125 C 34.671211,30.456807 34.065069,29.992528 33.375,30 L 8.5,30 C 5.9810542,30 4,28.0189 4,25.5 L 4,8.5 C 4,5.9811 5.9810542,4 8.5,4 z" />
  <path
     style="font-size:medium;font-style:normal;font-variant:normal;font-weight:normal;font-stretch:normal;text-indent:0pt;text-align:start;text-decoration:none;line-height:normal;letter-spacing:normal;word-spacing:normal;text-transform:none;direction:ltr;text-anchor:start;fill:#604400;fill-opacity:1;stroke:none;stroke-width:1;marker:none;visibility:visible;display:inline;overflow:visible;font-family:Bitstream Vera Sans"
     id="Border"
     d="M 8.5,2.0022 C 4.9076486,2.0022 2,4.9098 2,8.5022 L 2,25.5022 C 2,29.0946 4.9076486,32.0022 8.5,32.0022 L 32.90625,32.0022 C 32.91644,32.3452 33.0147,36.3263 30.125,39.6897 C 29.98193,39.8547 29.96246,40.0934 30.076908,40.2794 C 30.191356,40.4654 30.413251,40.5556 30.625,40.5022 C 33.851,39.7367 38.829822,36.8036 40.78125,32.0335 L 40.875,31.8147 C 43.793897,31.1745 46,28.6141 46,25.5022 L 46,8.5022 C 46,4.9098 43.092351,2.0022 39.5,2.0022 L 8.5,2.0022 z M 8.5,3.0022 L 39.5,3.0022 C 42.555649,3.0022 45,5.4466 45,8.5022 L 45,25.5022 C 45,28.2334 43.004087,30.4646 40.40625,30.9085 C 40.235444,30.9404 40.093463,31.0588 40.03125,31.221 L 39.84375,31.6585 C 38.310791,35.4057 34.581443,37.9152 31.71875,39.0022 C 33.986275,35.473 33.9375,31.721 33.9375,31.721 C 33.940452,31.6897 33.940452,31.6583 33.9375,31.627 L 33.875,31.377 C 33.8166,31.1504 33.608877,30.9946 33.375,31.002 L 8.5,31.002 C 5.4443514,31.002 3,28.5576 3,25.502 L 3,8.502 C 3,5.4464 5.4443514,3.002 8.5,3.002 L 8.5,3.0022 z" />
</svg>
