<?xml version="1.0" encoding="UTF-8" standalone="no"?>
<!-- Created with Inkscape (http://www.inkscape.org/) -->

<svg
   xmlns:dc="http://purl.org/dc/elements/1.1/"
   xmlns:cc="http://creativecommons.org/ns#"
   xmlns:rdf="http://www.w3.org/1999/02/22-rdf-syntax-ns#"
   xmlns:svg="http://www.w3.org/2000/svg"
   xmlns="http://www.w3.org/2000/svg"
   xmlns:xlink="http://www.w3.org/1999/xlink"
   xmlns:sodipodi="http://sodipodi.sourceforge.net/DTD/sodipodi-0.dtd"
   xmlns:inkscape="http://www.inkscape.org/namespaces/inkscape"
   version="1.0"
   width="48"
   height="48"
   id="svg3221"
   inkscape:version="0.47pre1 r21720"
   sodipodi:docname="gtk-floppy.svg"
   inkscape:output_extension="org.inkscape.output.svg.inkscape">
  <metadata
     id="metadata71">
    <rdf:RDF>
      <cc:Work
         rdf:about="">
        <dc:format>image/svg+xml</dc:format>
        <dc:type
           rdf:resource="http://purl.org/dc/dcmitype/StillImage" />
        <dc:title></dc:title>
      </cc:Work>
    </rdf:RDF>
  </metadata>
  <sodipodi:namedview
     pagecolor="#ffffff"
     bordercolor="#666666"
     borderopacity="1"
     objecttolerance="10"
     gridtolerance="10"
     guidetolerance="10"
     inkscape:pageopacity="0"
     inkscape:pageshadow="2"
     inkscape:window-width="1360"
     inkscape:window-height="697"
     id="namedview69"
     showgrid="false"
     inkscape:zoom="3.4766083"
     inkscape:cx="-14.343803"
     inkscape:cy="1.561259"
     inkscape:window-x="0"
     inkscape:window-y="24"
     inkscape:window-maximized="1"
     inkscape:current-layer="svg3221" />
  <defs
     id="defs3223">
    <inkscape:perspective
       sodipodi:type="inkscape:persp3d"
       inkscape:vp_x="0 : 24 : 1"
       inkscape:vp_y="0 : 1000 : 0"
       inkscape:vp_z="48 : 24 : 1"
       inkscape:persp3d-origin="24 : 16 : 1"
       id="perspective73" />
    <linearGradient
       id="linearGradient2804">
      <stop
         id="stop2806"
         style="stop-color:black;stop-opacity:0"
         offset="0" />
      <stop
         id="stop2812"
         style="stop-color:black;stop-opacity:1"
         offset="0.5" />
      <stop
         id="stop2808"
         style="stop-color:black;stop-opacity:0"
         offset="1" />
    </linearGradient>
    <linearGradient
       x1="21.875"
       y1="48.000977"
       x2="21.875"
       y2="40"
       id="linearGradient3936"
       xlink:href="#linearGradient2804"
       gradientUnits="userSpaceOnUse" />
    <radialGradient
       cx="1"
       cy="44"
       r="5"
       fx="1"
       fy="44"
       id="radialGradient3934"
       xlink:href="#linearGradient2781"
       gradientUnits="userSpaceOnUse"
       gradientTransform="matrix(2,0,0,0.8,36,8.8)" />
    <linearGradient
       id="linearGradient2781">
      <stop
         id="stop2783"
         style="stop-color:black;stop-opacity:1"
         offset="0" />
      <stop
         id="stop2785"
         style="stop-color:black;stop-opacity:0"
         offset="1" />
    </linearGradient>
    <radialGradient
       cx="1"
       cy="44"
       r="5"
       fx="1"
       fy="44"
       id="radialGradient3932"
       xlink:href="#linearGradient2781"
       gradientUnits="userSpaceOnUse"
       gradientTransform="matrix(2,0,0,0.8,-13,-79.2)" />
    <linearGradient
       id="linearGradient6375">
      <stop
         id="stop6377"
         style="stop-color:#040404;stop-opacity:1;"
         offset="0" />
      <stop
         id="stop6379"
         style="stop-color:#606060;stop-opacity:1"
         offset="1" />
    </linearGradient>
    <linearGradient
       x1="3.6261616"
       y1="2.5845432"
       x2="41.968018"
       y2="40.926399"
       id="linearGradient2475"
       xlink:href="#linearGradient6375"
       gradientUnits="userSpaceOnUse"
       gradientTransform="matrix(-1.03302,0,0,-1.0330201,47.242952,48.242957)" />
    <linearGradient
       id="linearGradient2388">
      <stop
         id="stop2390"
         style="stop-color:#010306;stop-opacity:1"
         offset="0" />
      <stop
         id="stop2392"
         style="stop-color:#010306;stop-opacity:0.39607844"
         offset="1" />
    </linearGradient>
    <linearGradient
       x1="33.349056"
       y1="28.69302"
       x2="35.974056"
       y2="33.049397"
       id="linearGradient2472"
       xlink:href="#linearGradient2388"
       gradientUnits="userSpaceOnUse"
       gradientTransform="matrix(-1.0465566,0,0,-1.0194947,48.617356,47.680519)" />
    <linearGradient
       id="linearGradient2294">
      <stop
         id="stop2296"
         style="stop-color:#262626;stop-opacity:1"
         offset="0" />
      <stop
         id="stop2298"
         style="stop-color:#122339;stop-opacity:0"
         offset="1" />
    </linearGradient>
    <linearGradient
       x1="18.75"
       y1="27.654568"
       x2="18.826717"
       y2="36.774681"
       id="linearGradient4733"
       xlink:href="#linearGradient2294"
       gradientUnits="userSpaceOnUse"
       gradientTransform="matrix(1.0625761,0,0,1.019071,-48.78281,-47.665691)" />
    <linearGradient
       id="linearGradient4235">
      <stop
         id="stop4237"
         style="stop-color:#d4d4dc;stop-opacity:1"
         offset="0" />
      <stop
         id="stop4239"
         style="stop-color:#848489;stop-opacity:1"
         offset="1" />
    </linearGradient>
    <linearGradient
       x1="10"
       y1="27.996471"
       x2="31"
       y2="42"
       id="linearGradient4731"
       xlink:href="#linearGradient4235"
       gradientUnits="userSpaceOnUse"
       gradientTransform="matrix(-1.062576,0,0,-1.019071,48.782807,47.66569)" />
    <linearGradient
       id="linearGradient2249">
      <stop
         id="stop2251"
         style="stop-color:#010306;stop-opacity:1"
         offset="0" />
      <stop
         id="stop2253"
         style="stop-color:#010306;stop-opacity:0"
         offset="1" />
    </linearGradient>
    <linearGradient
       x1="37.625"
       y1="7.625"
       x2="37.625"
       y2="3.4829895"
       id="linearGradient4727"
       xlink:href="#linearGradient2249"
       gradientUnits="userSpaceOnUse"
       gradientTransform="matrix(1.041515,0,0,-1.0566113,0.5659129,48.320867)" />
    <linearGradient
       id="linearGradient2268">
      <stop
         id="stop2270"
         style="stop-color:#eeeeec;stop-opacity:1"
         offset="0" />
      <stop
         id="stop2272"
         style="stop-color:white;stop-opacity:1"
         offset="1" />
    </linearGradient>
    <linearGradient
       x1="21.875"
       y1="7.6059465"
       x2="21.875"
       y2="18.51421"
       id="linearGradient4725"
       xlink:href="#linearGradient2268"
       gradientUnits="userSpaceOnUse"
       gradientTransform="matrix(1.0444099,0,0,1.0592128,0.5007808,-48.328987)" />
    <linearGradient
       id="linearGradient2555">
      <stop
         id="stop2557"
         style="stop-color:white;stop-opacity:1"
         offset="0" />
      <stop
         id="stop2561"
         style="stop-color:#e6e6e6;stop-opacity:1"
         offset="0.5" />
      <stop
         id="stop2563"
         style="stop-color:white;stop-opacity:1"
         offset="0.75" />
      <stop
         id="stop2565"
         style="stop-color:#e1e1e1;stop-opacity:1"
         offset="0.84166664" />
      <stop
         id="stop2559"
         style="stop-color:white;stop-opacity:1"
         offset="1" />
    </linearGradient>
    <linearGradient
       x1="10"
       y1="27.996471"
       x2="31"
       y2="42"
       id="linearGradient4723"
       xlink:href="#linearGradient2555"
       gradientUnits="userSpaceOnUse"
       gradientTransform="matrix(-1.062576,0,0,-1.019071,48.782807,47.66569)" />
    <linearGradient
       id="linearGradient2319">
      <stop
         id="stop2321"
         style="stop-color:white;stop-opacity:1"
         offset="0" />
      <stop
         id="stop2323"
         style="stop-color:white;stop-opacity:0"
         offset="1" />
    </linearGradient>
    <linearGradient
       x1="20.484835"
       y1="40.865391"
       x2="20.484835"
       y2="29.134611"
       id="linearGradient3219"
       xlink:href="#linearGradient2319"
       gradientUnits="userSpaceOnUse"
       gradientTransform="matrix(-1.093999,0,0,-1.0598351,49.384174,49.092432)" />
    <linearGradient
       inkscape:collect="always"
       xlink:href="#linearGradient2319"
       id="linearGradient2880"
       gradientUnits="userSpaceOnUse"
       gradientTransform="matrix(1.093999,0,0,1.0598351,-1.384174,1.407568)"
       x1="20.484835"
       y1="40.865391"
       x2="20.484835"
       y2="29.134611" />
    <linearGradient
       inkscape:collect="always"
       xlink:href="#linearGradient2555"
       id="linearGradient2883"
       gradientUnits="userSpaceOnUse"
       gradientTransform="matrix(1.062576,0,0,1.019071,-0.782807,2.83431)"
       x1="10"
       y1="27.996471"
       x2="31"
       y2="42" />
    <linearGradient
       inkscape:collect="always"
       xlink:href="#linearGradient2268"
       id="linearGradient2889"
       gradientUnits="userSpaceOnUse"
       gradientTransform="matrix(1.0444099,0,0,1.0592128,-47.499219,2.171013)"
       x1="21.875"
       y1="7.6059465"
       x2="21.875"
       y2="18.51421" />
    <linearGradient
       inkscape:collect="always"
       xlink:href="#linearGradient2249"
       id="linearGradient2892"
       gradientUnits="userSpaceOnUse"
       gradientTransform="matrix(-1.041515,0,0,1.0566113,47.434087,2.179133)"
       x1="37.625"
       y1="7.625"
       x2="37.625"
       y2="3.4829895" />
    <linearGradient
       inkscape:collect="always"
       xlink:href="#linearGradient4235"
       id="linearGradient2899"
       gradientUnits="userSpaceOnUse"
       gradientTransform="matrix(1.062576,0,0,1.019071,-0.782807,2.83431)"
       x1="10"
       y1="27.996471"
       x2="31"
       y2="42" />
    <linearGradient
       inkscape:collect="always"
       xlink:href="#linearGradient2294"
       id="linearGradient2902"
       gradientUnits="userSpaceOnUse"
       gradientTransform="matrix(1.0625761,0,0,1.019071,-0.78281,2.834309)"
       x1="18.75"
       y1="27.654568"
       x2="18.826717"
       y2="36.774681" />
    <linearGradient
       inkscape:collect="always"
       xlink:href="#linearGradient2388"
       id="linearGradient2905"
       gradientUnits="userSpaceOnUse"
       gradientTransform="matrix(1.0465566,0,0,1.0194947,-0.617356,2.819481)"
       x1="33.349056"
       y1="28.69302"
       x2="35.974056"
       y2="33.049397" />
    <linearGradient
       inkscape:collect="always"
       xlink:href="#linearGradient6375"
       id="linearGradient2908"
       gradientUnits="userSpaceOnUse"
       gradientTransform="matrix(1.03302,0,0,1.0330201,0.757048,2.257043)"
       x1="3.6261616"
       y1="2.5845432"
       x2="41.968018"
       y2="40.926399" />
    <inkscape:perspective
       id="perspective3015"
       inkscape:persp3d-origin="59.994373 : 49.274999 : 1"
       inkscape:vp_z="119.98875 : 73.912498 : 1"
       inkscape:vp_y="0 : 1000 : 0"
       inkscape:vp_x="0 : 73.912498 : 1"
       sodipodi:type="inkscape:persp3d" />
  </defs>
  <path
     style="fill:url(#linearGradient2908);fill-opacity:1;fill-rule:nonzero;stroke:#121212;stroke-width:0.74303091;stroke-linecap:round;stroke-linejoin:round;stroke-miterlimit:4;stroke-opacity:1;stroke-dasharray:none;stroke-dashoffset:0;marker:none;visibility:visible;display:inline;overflow:visible"
     id="rect1314"
     d="m 5.167911,5.872619 37.664174,0 c 0.859929,0 0.795296,-0.06464 0.795296,0.795291 l 0,37.664178 c 0,0.85993 0.06463,0.795293 -0.795296,0.795293 l -34.843898,0 -3.615568,-3.615572 0,-34.843899 c 0,-0.859928 -0.06464,-0.795291 0.795292,-0.795291 z" />
  <path
     style="opacity:0.26190473;fill:none;stroke:url(#linearGradient2905);stroke-width:0.74297124;stroke-linecap:round;stroke-linejoin:round;stroke-miterlimit:4;stroke-opacity:1;stroke-dasharray:none;stroke-dashoffset:0;marker:none;visibility:visible;display:inline;overflow:visible"
     id="rect2194"
     d="m 13.056012,31.875081 23.934537,0 c 0.907433,0 1.637965,0.711646 1.637965,1.595615 l 0,11.657818 -27.210472,0 0,-11.657818 c 0,-0.883969 0.730533,-1.595615 1.63797,-1.595615 z" />
  <rect
     style="fill:url(#linearGradient2902);fill-opacity:1;fill-rule:nonzero;stroke:none;stroke-width:0.75;marker:none;visibility:visible;display:inline;overflow:visible"
     id="rect2284"
     y="32.896904"
     x="13.56197"
     height="10.190712"
     width="7.4380317" />
  <path
     style="fill:url(#linearGradient2899);fill-opacity:1;fill-rule:nonzero;stroke:#555753;stroke-width:0.74848032;stroke-linecap:round;stroke-linejoin:round;stroke-miterlimit:4;stroke-opacity:1;stroke-dasharray:none;stroke-dashoffset:0;marker:none;visibility:visible;display:inline;overflow:visible"
     id="rect2192"
     d="m 11.76887,31.877834 c -0.320361,0.03883 -0.631795,0.189914 -0.863342,0.382154 -0.321031,0.279721 -0.531288,0.695788 -0.531288,1.146455 l 0,11.719317 21.251519,0 0,-11.719317 c 0,-0.848319 -0.709329,-1.528609 -1.593864,-1.528609 l -18.063792,0 c -0.0691,0 -0.132489,-0.0081 -0.199233,0 z m 3.320552,2.038145 c 0.03916,-0.0076 0.09124,0 0.132821,0 l 4.117482,0 c 0.135142,0 0.265133,0.05566 0.365261,0.127386 0.02963,0.02343 0.07518,0.06712 0.09962,0.09553 0.07479,0.09603 0.132822,0.220697 0.132822,0.350305 l 0,7.006114 c 0,0.129609 -0.05803,0.254275 -0.132822,0.350305 -0.02444,0.02842 -0.06998,0.07211 -0.09962,0.09554 -0.100128,0.07172 -0.230119,0.127384 -0.365261,0.127384 l -4.117482,0 c -0.135142,0 -0.265133,-0.05566 -0.365259,-0.127384 -0.02963,-0.02343 -0.07518,-0.06712 -0.09962,-0.09554 -0.07479,-0.09603 -0.132824,-0.220696 -0.132824,-0.350305 l 0,-7.006114 c 0,-0.129608 0.05803,-0.254275 0.132824,-0.350305 0.02443,-0.02842 0.06998,-0.0721 0.09962,-0.09553 0.06932,-0.04966 0.144332,-0.110182 0.232438,-0.127386 z" />
  <rect
     style="opacity:0.2;fill:#ffffff;fill-opacity:1;fill-rule:nonzero;stroke:none;stroke-width:0.75;marker:none;visibility:visible;display:inline;overflow:visible"
     id="rect2278"
     transform="scale(-1,1)"
     y="8.455162"
     x="-42.07785"
     height="2.0660403"
     width="2.06604" />
  <rect
     style="fill:#010306;fill-opacity:1;fill-rule:nonzero;stroke:none;stroke-width:0.75;marker:none;visibility:visible;display:inline;overflow:visible"
     id="rect2276"
     transform="scale(-1,1)"
     y="8.455162"
     x="-42.07785"
     height="1.0330201"
     width="1.03302" />
  <rect
     style="opacity:0.2;fill:#ffffff;fill-opacity:1;fill-rule:nonzero;stroke:none;stroke-width:0.75;marker:none;visibility:visible;display:inline;overflow:visible"
     id="rect2280"
     transform="scale(-1,1)"
     y="8.455162"
     x="-7.9881897"
     height="2.0660403"
     width="2.06604" />
  <rect
     style="fill:#010306;fill-opacity:1;fill-rule:nonzero;stroke:none;stroke-width:0.75;marker:none;visibility:visible;display:inline;overflow:visible"
     id="rect2282"
     transform="scale(-1,1)"
     y="8.455162"
     x="-7.9881897"
     height="1.0330201"
     width="1.03302" />
  <path
     style="opacity:0.6;fill:none;stroke:url(#linearGradient2892);stroke-width:0.75455093;stroke-linecap:round;stroke-linejoin:round;stroke-miterlimit:4;stroke-opacity:1;stroke-dasharray:none;stroke-dashoffset:0;marker:none;visibility:visible;display:inline;overflow:visible"
     id="rect2247"
     d="m 8.377275,5.877275 0,21.644391 c 0,0.886986 0.703871,1.601058 1.578181,1.601058 l 28.089087,0 c 0.874312,0 1.578181,-0.714072 1.578181,-1.601058 l 0,-21.644391 -31.245449,0 z" />
  <rect
     style="fill:url(#linearGradient2889);fill-opacity:1;fill-rule:nonzero;stroke:#e2e2df;stroke-width:0.75652844;stroke-linecap:round;stroke-linejoin:round;stroke-miterlimit:4;stroke-opacity:1;stroke-dasharray:none;stroke-dashoffset:0;marker:none;visibility:visible;display:inline;overflow:visible"
     id="rect2257"
     transform="scale(-1,1)"
     y="5.8782692"
     x="-38.621735"
     ry="0.19995712"
     rx="0.1971626"
     height="22.243471"
     width="29.243473" />
  <path
     style="fill:#3f6cff;fill-opacity:0.75;fill-rule:evenodd;stroke:#575757;stroke-width:0.746171;stroke-linecap:round;stroke-linejoin:round;stroke-miterlimit:4;stroke-opacity:1;stroke-dasharray:none;display:inline"
     id="path2264"
     d="m 38.585121,5.873085 -29.170242,0" />
  <path
     style="fill:none;stroke:#d3d7cf;stroke-width:0.86457807;stroke-linecap:round;stroke-linejoin:round;stroke-miterlimit:4;stroke-opacity:1;stroke-dasharray:none;display:inline"
     id="path2329"
     d="m 38.625589,13.999337 -29.251178,0" />
  <path
     style="fill:none;stroke:#d3d7cf;stroke-width:0.86457807;stroke-linecap:round;stroke-linejoin:round;stroke-miterlimit:4;stroke-opacity:1;stroke-dasharray:none;display:inline"
     id="path2331"
     d="m 38.625589,21.999337 -29.251178,0" />
  <path
     style="opacity:0.5;fill:url(#linearGradient2883);fill-opacity:1;fill-rule:nonzero;stroke:#555753;stroke-width:0.74848032;stroke-linecap:round;stroke-linejoin:round;stroke-miterlimit:4;stroke-opacity:1;stroke-dasharray:none;stroke-dashoffset:0;marker:none;visibility:visible;display:inline;overflow:visible"
     id="path7255"
     d="m 11.76887,31.877834 c -0.320361,0.03883 -0.631795,0.189914 -0.863342,0.382154 -0.321031,0.279721 -0.531288,0.695788 -0.531288,1.146455 l 0,11.719317 21.251519,0 0,-11.719317 c 0,-0.848319 -0.709329,-1.528609 -1.593864,-1.528609 l -18.063792,0 c -0.0691,0 -0.132489,-0.0081 -0.199233,0 z m 3.320552,2.038145 c 0.03916,-0.0076 0.09124,0 0.132821,0 l 4.117482,0 c 0.135142,0 0.265133,0.05566 0.365261,0.127386 0.02963,0.02343 0.07518,0.06712 0.09962,0.09553 0.07479,0.09603 0.132822,0.220697 0.132822,0.350305 l 0,7.006114 c 0,0.129609 -0.05803,0.254275 -0.132822,0.350305 -0.02444,0.02842 -0.06998,0.07211 -0.09962,0.09554 -0.100128,0.07172 -0.230119,0.127384 -0.365261,0.127384 l -4.117482,0 c -0.135142,0 -0.265133,-0.05566 -0.365259,-0.127384 -0.02963,-0.02343 -0.07518,-0.06712 -0.09962,-0.09554 -0.07479,-0.09603 -0.132824,-0.220696 -0.132824,-0.350305 l 0,-7.006114 c 0,-0.129608 0.05803,-0.254275 0.132824,-0.350305 0.02443,-0.02842 0.06998,-0.0721 0.09962,-0.09553 0.06932,-0.04966 0.144332,-0.110182 0.232438,-0.127386 z" />
  <path
     style="opacity:0.4;fill:none;stroke:url(#linearGradient2880);stroke-width:0.7745077;stroke-linecap:round;stroke-linejoin:round;stroke-miterlimit:4;stroke-opacity:1;stroke-dasharray:none;stroke-dashoffset:0;marker:none;visibility:visible;display:inline;overflow:visible"
     id="rect2316"
     d="m 11.743813,32.672705 18.564803,0 c 0.321418,0 0.58018,0.250681 0.58018,0.562063 l 0,11.096123 -19.725161,0 0,-11.096123 c 0,-0.311382 0.258759,-0.562063 0.580178,-0.562063 z" />
  <g
     style="fill-rule:nonzero;stroke:#000000;stroke-miterlimit:4"
     id="Layer_x0020_1"
     transform="matrix(0.16911889,0,0,0.16911889,15.864544,6.7599577)">
		<g
   id="g2996"
   style="stroke:none">
			<g
   id="g2998">
				<path
   id="path3000"
   d="M 86.068,0 C 61.466,0 56.851,35.041 70.691,35.041 84.529,35.041 110.671,0 86.068,0 z" />

				<path
   id="path3002"
   d="M 45.217,30.699 C 52.586,31.149 60.671,2.577 46.821,4.374 32.976,6.171 37.845,30.249 45.217,30.699 z" />

				<path
   id="path3004"
   d="M 11.445,48.453 C 16.686,46.146 12.12,23.581 3.208,29.735 -5.7,35.89 6.204,50.759 11.445,48.453 z" />

				<path
   id="path3006"
   d="M 26.212,36.642 C 32.451,35.37 32.793,9.778 21.667,14.369 10.539,18.961 19.978,37.916 26.212,36.642 z" />

				<path
   d="m 58.791,93.913 c 1.107,8.454 -6.202,12.629 -13.36,7.179 C 22.644,83.743 83.16,75.089 79.171,51.386 75.86,31.712 15.495,37.769 8.621,68.552 3.968,89.374 27.774,118.26 52.614,118.26 c 12.22,0 26.315,-11.034 28.952,-25.012 C 83.58,82.589 57.867,86.86 58.791,93.913 z"
   id="newshape" />

			</g>

		</g>

	</g>
</svg>
