<?xml version="1.0" encoding="UTF-8" standalone="no"?>
<!-- Created with Inkscape (http://www.inkscape.org/) -->

<svg
   xmlns:dc="http://purl.org/dc/elements/1.1/"
   xmlns:cc="http://creativecommons.org/ns#"
   xmlns:rdf="http://www.w3.org/1999/02/22-rdf-syntax-ns#"
   xmlns:svg="http://www.w3.org/2000/svg"
   xmlns="http://www.w3.org/2000/svg"
   xmlns:xlink="http://www.w3.org/1999/xlink"
   xmlns:sodipodi="http://sodipodi.sourceforge.net/DTD/sodipodi-0.dtd"
   xmlns:inkscape="http://www.inkscape.org/namespaces/inkscape"
   version="1.0"
   width="48"
   height="48"
   id="svg11300"
   inkscape:version="0.47pre1 r21720"
   sodipodi:docname="config-users.svg"
   inkscape:output_extension="org.inkscape.output.svg.inkscape">
  <metadata
     id="metadata55">
    <rdf:RDF>
      <cc:Work
         rdf:about="">
        <dc:format>image/svg+xml</dc:format>
        <dc:type
           rdf:resource="http://purl.org/dc/dcmitype/StillImage" />
        <dc:title></dc:title>
      </cc:Work>
    </rdf:RDF>
  </metadata>
  <sodipodi:namedview
     pagecolor="#ffffff"
     bordercolor="#666666"
     borderopacity="1"
     objecttolerance="10"
     gridtolerance="10"
     guidetolerance="10"
     inkscape:pageopacity="0"
     inkscape:pageshadow="2"
     inkscape:window-width="1360"
     inkscape:window-height="697"
     id="namedview53"
     showgrid="false"
     inkscape:zoom="3.4766083"
     inkscape:cx="-15.602993"
     inkscape:cy="25.521435"
     inkscape:window-x="0"
     inkscape:window-y="24"
     inkscape:window-maximized="1"
     inkscape:current-layer="svg11300" />
  <defs
     id="defs3">
    <inkscape:perspective
       sodipodi:type="inkscape:persp3d"
       inkscape:vp_x="0 : 24 : 1"
       inkscape:vp_y="0 : 1000 : 0"
       inkscape:vp_z="48 : 24 : 1"
       inkscape:persp3d-origin="24 : 16 : 1"
       id="perspective57" />
    <linearGradient
       id="linearGradient3785">
      <stop
         id="stop3787"
         style="stop-color:#bdbdbd;stop-opacity:1"
         offset="0" />
      <stop
         id="stop3789"
         style="stop-color:#8c8c8c;stop-opacity:1"
         offset="1" />
    </linearGradient>
    <linearGradient
       id="linearGradient6954">
      <stop
         id="stop6960"
         style="stop-color:#f5f5f5;stop-opacity:1"
         offset="0" />
      <stop
         id="stop6962"
         style="stop-color:#d2d2d2;stop-opacity:1"
         offset="1" />
    </linearGradient>
    <linearGradient
       id="linearGradient3341">
      <stop
         id="stop3343"
         style="stop-color:#ffffff;stop-opacity:1"
         offset="0" />
      <stop
         id="stop3345"
         style="stop-color:#ffffff;stop-opacity:0"
         offset="1" />
    </linearGradient>
    <linearGradient
       id="linearGradient5060">
      <stop
         id="stop5062"
         style="stop-color:#000000;stop-opacity:1"
         offset="0" />
      <stop
         id="stop5064"
         style="stop-color:#000000;stop-opacity:0"
         offset="1" />
    </linearGradient>
    <linearGradient
       x1="30"
       y1="25.084745"
       x2="30"
       y2="45"
       id="linearGradient3783"
       xlink:href="#linearGradient3785"
       gradientUnits="userSpaceOnUse" />
    <radialGradient
       cx="26.375898"
       cy="12.31301"
       r="8"
       fx="26.375898"
       fy="12.31301"
       id="radialGradient3805"
       xlink:href="#linearGradient6954"
       gradientUnits="userSpaceOnUse"
       gradientTransform="matrix(1.640165,-0.1325824,0.12811381,1.5848844,-18.396351,-5.2274259)" />
    <radialGradient
       cx="24.999998"
       cy="28.659998"
       r="16"
       fx="24.999998"
       fy="28.659998"
       id="radialGradient3813"
       xlink:href="#linearGradient6954"
       gradientUnits="userSpaceOnUse"
       gradientTransform="matrix(1.3125,0,0,0.37326701,-7.812498,20.302168)" />
    <linearGradient
       x1="30"
       y1="5"
       x2="30"
       y2="44.678879"
       id="linearGradient3821"
       xlink:href="#linearGradient3785"
       gradientUnits="userSpaceOnUse" />
    <radialGradient
       cx="32"
       cy="41.5"
       r="21"
       fx="32"
       fy="41.5"
       id="radialGradient3831"
       xlink:href="#linearGradient5060"
       gradientUnits="userSpaceOnUse"
       gradientTransform="matrix(1,0,0,0.35714286,0,26.678571)" />
    <radialGradient
       cx="30"
       cy="33.1875"
       r="4.6875"
       fx="30"
       fy="33.1875"
       id="radialGradient3844"
       xlink:href="#linearGradient5060"
       gradientUnits="userSpaceOnUse"
       gradientTransform="matrix(1.5279732,-7.0647448e-7,2.1308638e-7,0.46086628,-15.839202,14.705021)" />
    <linearGradient
       x1="38"
       y1="39"
       x2="43"
       y2="38.599998"
       id="linearGradient3858"
       xlink:href="#linearGradient5060"
       gradientUnits="userSpaceOnUse" />
    <linearGradient
       x1="22"
       y1="39"
       x2="17"
       y2="37.4375"
       id="linearGradient3866"
       xlink:href="#linearGradient5060"
       gradientUnits="userSpaceOnUse" />
    <linearGradient
       x1="24.786562"
       y1="53.869164"
       x2="24.87495"
       y2="83.5"
       id="linearGradient3892"
       xlink:href="#linearGradient3341"
       gradientUnits="userSpaceOnUse" />
    <linearGradient
       x1="29.999992"
       y1="3.0410755"
       x2="29.999992"
       y2="27.956825"
       id="linearGradient3910"
       xlink:href="#linearGradient3341"
       gradientUnits="userSpaceOnUse" />
    <radialGradient
       cx="32"
       cy="41.5"
       r="21"
       fx="32"
       fy="41.5"
       id="radialGradient4174"
       xlink:href="#linearGradient5060"
       gradientUnits="userSpaceOnUse"
       gradientTransform="matrix(1,0,0,0.35714286,0,26.678571)" />
    <radialGradient
       cx="30"
       cy="33.1875"
       r="4.6875"
       fx="30"
       fy="33.1875"
       id="radialGradient4191"
       xlink:href="#linearGradient5060"
       gradientUnits="userSpaceOnUse"
       gradientTransform="matrix(1.1408868,-4.7098295e-7,1.5910451e-7,0.30724416,-19.726607,16.803349)" />
    <linearGradient
       x1="22"
       y1="39"
       x2="17"
       y2="37.4375"
       id="linearGradient4197"
       xlink:href="#linearGradient5060"
       gradientUnits="userSpaceOnUse"
       gradientTransform="matrix(0.77777778,0,0,0.76190476,-8.3222223,4.5857142)" />
    <radialGradient
       cx="26.375898"
       cy="12.31301"
       r="8"
       fx="26.375898"
       fy="12.31301"
       id="radialGradient4200"
       xlink:href="#linearGradient6954"
       gradientUnits="userSpaceOnUse"
       gradientTransform="matrix(1.0934492,-0.09109992,0.08540967,1.0890047,-17.764411,2.1289516)" />
    <linearGradient
       x1="30"
       y1="5"
       x2="30"
       y2="44.678879"
       id="linearGradient4202"
       xlink:href="#linearGradient3785"
       gradientUnits="userSpaceOnUse"
       gradientTransform="matrix(0.66667035,0,0,0.68711932,-5.50011,5.720817)" />
    <radialGradient
       cx="24.999998"
       cy="28.659998"
       r="16"
       fx="24.999998"
       fy="28.659998"
       id="radialGradient4205"
       xlink:href="#linearGradient6954"
       gradientUnits="userSpaceOnUse"
       gradientTransform="matrix(1.0208333,0,0,0.28439391,-14.854165,20.063557)" />
    <linearGradient
       x1="30"
       y1="26.40678"
       x2="30"
       y2="45"
       id="linearGradient4207"
       xlink:href="#linearGradient3785"
       gradientUnits="userSpaceOnUse"
       gradientTransform="matrix(0.77777778,0,0,0.76190476,-8.7777778,4.5952382)" />
    <linearGradient
       x1="29.250004"
       y1="-1.049042"
       x2="29.250004"
       y2="29.513336"
       id="linearGradient4236"
       xlink:href="#linearGradient3341"
       gradientUnits="userSpaceOnUse"
       gradientTransform="matrix(0.66667035,0,0,0.68711932,-5.50011,5.720817)" />
    <linearGradient
       x1="29.285715"
       y1="14.96875"
       x2="29.285715"
       y2="45.15625"
       id="linearGradient4248"
       xlink:href="#linearGradient3341"
       gradientUnits="userSpaceOnUse"
       gradientTransform="matrix(0.77777778,0,0,0.76190476,-8.7777778,4.5952382)" />
    <filter
       inkscape:collect="always"
       id="filter3835">
      <feGaussianBlur
         inkscape:collect="always"
         stdDeviation="0.31080365"
         id="feGaussianBlur3837" />
    </filter>
  </defs>
  <g
     id="g3857"
     transform="matrix(0.94509559,0,0,0.94509559,0.82339788,0.33959624)">
    <path
       d="m 11.197336,21.600081 c 0.416385,1.969422 0.648798,3.459149 0.311012,5.428571 -2.6334838,2.184888 -9.3687259,3.166667 -9.3586305,5.428572 l -0.9047619,6.785714 c 0,2.248587 6.278673,4.071428 14.0238094,4.071428 7.745136,0 14.023809,-1.822841 14.023809,-4.071428 l -0.904761,-6.785714 c -0.01074,-1.935886 -6.785715,-3.166667 -9.386905,-5.428572 -0.222186,-1.827924 -0.04532,-3.600647 0.339286,-5.428571 l -8.142858,0 z"
       id="path2902"
       style="fill:#802580;fill-opacity:1;stroke:none" />
    <path
       d="m 15.268765,8.0286523 c -3.747647,0 -6.7857142,2.8355297 -6.7857142,6.3333337 0.029369,1.294467 0.1398499,2.832247 0.9047619,6.333333 0.4523809,1.357143 4.4874023,4.97619 4.5238093,5.428571 0.877321,0.452381 2.261905,0.452381 3.166667,0 0,-0.452381 3.619047,-4.071428 4.071428,-5.428571 0.860768,-3.638673 0.858594,-4.976191 0.904762,-6.333333 0,-3.497804 -3.038067,-6.3333337 -6.785714,-6.3333337 z"
       id="path2906"
       style="fill:#802580;fill-opacity:1;stroke:none" />
    <path
       d="M 7.1259079,42.138176 C 4.9885445,40.344761 6.0077407,36.363207 6.221146,33.814366 5.3163841,35.62389 5.3163841,41.052462 3.5068603,41.052462 c 1.2328376,0.414882 2.487698,0.873809 3.6190476,1.085714 z"
       id="path2908"
       style="opacity:0.3;fill:#802580;fill-opacity:1;stroke:none" />
    <path
       d="m 23.411622,42.138176 c 2.126233,-1.577675 1.046559,-5.868211 0.904762,-8.32381 0.904762,1.809524 0.904762,7.238096 2.714286,7.238096 -1.232838,0.414882 -2.487698,0.873809 -3.619048,1.085714 z"
       id="path2910"
       style="opacity:0.3;fill:#802580;fill-opacity:1;stroke:none" />
    <path
       d="m 11.027694,27.481033 c 0.62094,1.57859 2.279012,2.714286 4.241071,2.714286 1.962059,0 3.620131,-1.135696 4.241071,-2.714286 l -8.482142,0 z"
       id="path2912"
       style="opacity:0.2;fill:#802580;fill-opacity:1;stroke:none" />
    <g
       transform="translate(-24.449116,-0.57527331)"
       id="g3853">
      <path
         d="m 52.250209,20.5 c 0.460215,2.17673 0.717092,3.82327 0.34375,6 -2.910693,2.414876 -10.354908,3.5 -10.34375,6 l -1,7.5 c 0,2.485281 6.939586,4.5 15.5,4.5 8.560414,0 15.5,-2.014719 15.5,-4.5 l -1,-7.5 c -0.01187,-2.139663 -7.5,-3.5 -10.375,-6 -0.245574,-2.020337 -0.05009,-3.979663 0.375,-6 l -9,0 z"
         id="path3766"
         style="fill:#253680;fill-opacity:1;stroke:none" />
      <path
         d="m 56.750209,5.5 c -4.142136,0 -7.5,3.134007 -7.5,7 0.03246,1.430727 0.154571,3.130379 1,7 0.5,1.5 4.95976,5.5 5,6 0.96967,0.5 2.5,0.5 3.5,0 0,-0.5 4,-4.5 4.5,-6 0.951375,-4.021691 0.948972,-5.5 1,-7 0,-3.865993 -3.357864,-7 -7.5,-7 z"
         id="path3764"
         style="fill:#253680;fill-opacity:1;stroke:none" />
    </g>
    <path
       style="opacity:0.3;fill:#253680;fill-opacity:1;stroke:none"
       id="path3848"
       d="m 21.575273,43.487637 c -2.362349,-1.982195 -1.235869,-6.38286 -1,-9.2 -1,2 -1,8 -3,8 1.36261,0.458554 2.749561,0.965789 4,1.2 z" />
    <g
       transform="matrix(1.2725767,0,0,1.2725767,-18.686957,-12.488533)"
       id="g3849">
      <path
         d="m 26.602316,32.901858 c 0.242479,1.123474 0.377823,1.973301 0.181116,3.096775 -1.533592,1.246388 -5.455813,1.806451 -5.449934,3.096774 l -0.526882,3.870968 c 0,1.282726 3.656342,2.322581 8.166668,2.322581 4.510326,0 8.166667,-1.039855 8.166667,-2.322581 l -0.526882,-3.870968 c -0.0062,-1.104342 -3.951613,-1.806452 -5.466399,-3.096774 -0.129388,-1.042755 -0.02639,-2.05402 0.197581,-3.096775 l -4.741935,0 z"
         id="path3766-9"
         style="fill:#a7e198;fill-opacity:1;stroke:none" />
      <path
         d="m 28.935649,25.643775 c -1.870652,0 -3.387115,1.45878 -3.387115,3.258276 0.01466,0.665956 0.06981,1.457089 0.451615,3.258275 0.225808,0.6982 2.239905,2.695315 2.258077,2.928049 0.437918,0.232733 1.129039,0.232733 1.580654,0 0,-0.232734 1.806461,-2.229849 2.032269,-2.928049 0.429656,-1.871969 0.42857,-2.560075 0.451616,-3.258275 0,-1.799496 -1.516463,-3.258276 -3.387116,-3.258276 z"
         id="path3764-4"
         style="fill:#a7e198;fill-opacity:1;stroke:none" />
    </g>
  </g>
</svg>
