<?xml version="1.0" encoding="UTF-8" standalone="no"?>
<!-- Created with Inkscape (http://www.inkscape.org/) -->

<svg
   xmlns:dc="http://purl.org/dc/elements/1.1/"
   xmlns:cc="http://creativecommons.org/ns#"
   xmlns:rdf="http://www.w3.org/1999/02/22-rdf-syntax-ns#"
   xmlns:svg="http://www.w3.org/2000/svg"
   xmlns="http://www.w3.org/2000/svg"
   xmlns:xlink="http://www.w3.org/1999/xlink"
   xmlns:sodipodi="http://sodipodi.sourceforge.net/DTD/sodipodi-0.dtd"
   xmlns:inkscape="http://www.inkscape.org/namespaces/inkscape"
   version="1.0"
   width="48"
   height="48"
   id="svg2"
   inkscape:version="0.47pre4 r22446"
   sodipodi:docname="isomaster.svg">
  <metadata
     id="metadata109">
    <rdf:RDF>
      <cc:Work
         rdf:about="">
        <dc:format>image/svg+xml</dc:format>
        <dc:type
           rdf:resource="http://purl.org/dc/dcmitype/StillImage" />
        <dc:title />
      </cc:Work>
    </rdf:RDF>
  </metadata>
  <sodipodi:namedview
     pagecolor="#ffffff"
     bordercolor="#666666"
     borderopacity="1"
     objecttolerance="10"
     gridtolerance="10"
     guidetolerance="10"
     inkscape:pageopacity="0"
     inkscape:pageshadow="2"
     inkscape:window-width="1440"
     inkscape:window-height="829"
     id="namedview107"
     showgrid="false"
     inkscape:zoom="1"
     inkscape:cx="-4.6779661"
     inkscape:cy="22"
     inkscape:window-x="0"
     inkscape:window-y="24"
     inkscape:window-maximized="1"
     inkscape:current-layer="svg2" />
  <defs
     id="defs3">
    <linearGradient
       id="linearGradient23419">
      <stop
         id="stop23421"
         style="stop-color: rgb(0, 0, 0); stop-opacity: 1;"
         offset="0" />
      <stop
         id="stop23423"
         style="stop-color: rgb(0, 0, 0); stop-opacity: 0;"
         offset="1" />
    </linearGradient>
    <linearGradient
       id="linearGradient6036">
      <stop
         id="stop6038"
         style="stop-color: rgb(255, 255, 255); stop-opacity: 1;"
         offset="0" />
      <stop
         id="stop6040"
         style="stop-color: rgb(255, 255, 255); stop-opacity: 0;"
         offset="1" />
    </linearGradient>
    <linearGradient
       id="linearGradient6028">
      <stop
         id="stop6030"
         style="stop-color: rgb(255, 255, 255); stop-opacity: 1;"
         offset="0" />
      <stop
         id="stop6032"
         style="stop-color: rgb(255, 255, 255); stop-opacity: 0;"
         offset="1" />
    </linearGradient>
    <linearGradient
       id="linearGradient4236">
      <stop
         id="stop4238"
         style="stop-color: rgb(255, 255, 255); stop-opacity: 0.326733;"
         offset="0" />
      <stop
         id="stop4240"
         style="stop-color: rgb(255, 255, 255); stop-opacity: 0.60396;"
         offset="1" />
    </linearGradient>
    <linearGradient
       x1="12.2744"
       y1="32.4165"
       x2="35.391201"
       y2="14.2033"
       id="aigrd2"
       gradientUnits="userSpaceOnUse">
      <stop
         id="stop3043"
         style="stop-color: rgb(251, 251, 251); stop-opacity: 1;"
         offset="0" />
      <stop
         id="stop3045"
         style="stop-color: rgb(152, 132, 132); stop-opacity: 1;"
         offset="0.5" />
      <stop
         id="stop3047"
         style="stop-color: rgb(228, 228, 228); stop-opacity: 1;"
         offset="1" />
    </linearGradient>
    <linearGradient
       x1="14.9966"
       y1="11.1885"
       x2="32.511002"
       y2="34.307499"
       id="aigrd1"
       gradientUnits="userSpaceOnUse">
      <stop
         id="stop3034"
         style="stop-color: rgb(235, 235, 235); stop-opacity: 1;"
         offset="0" />
      <stop
         id="stop3036"
         style="stop-color: rgb(255, 255, 255); stop-opacity: 1;"
         offset="0.5" />
      <stop
         id="stop3038"
         style="stop-color: rgb(235, 235, 235); stop-opacity: 1;"
         offset="1" />
    </linearGradient>
    <linearGradient
       inkscape:collect="always"
       xlink:href="#linearGradient6028"
       id="linearGradient3024"
       gradientUnits="userSpaceOnUse"
       x1="28.702885"
       y1="31.494707"
       x2="17.742729"
       y2="18.366575"
       gradientTransform="translate(0.0883884,0.0883887)" />
    <linearGradient
       inkscape:collect="always"
       xlink:href="#linearGradient6036"
       id="linearGradient3027"
       gradientUnits="userSpaceOnUse"
       x1="10.50172"
       y1="3.6100161"
       x2="48.798885"
       y2="54.698483" />
    <linearGradient
       inkscape:collect="always"
       xlink:href="#linearGradient4236"
       id="linearGradient3030"
       gradientUnits="userSpaceOnUse"
       gradientTransform="matrix(1.25,0,0,1.25,-5.653,-2.60417)"
       x1="21.125"
       y1="14.625"
       x2="29"
       y2="28" />
    <linearGradient
       inkscape:collect="always"
       xlink:href="#linearGradient4236"
       id="linearGradient3033"
       gradientUnits="userSpaceOnUse"
       gradientTransform="matrix(1.25,0,0,1.25,-5.653,-2.60417)"
       x1="21.125"
       y1="14.625"
       x2="29"
       y2="28" />
    <linearGradient
       inkscape:collect="always"
       xlink:href="#aigrd2"
       id="linearGradient3037"
       gradientUnits="userSpaceOnUse"
       gradientTransform="matrix(1.19048,0,0,1.19048,-4.22442,-2.5)"
       x1="12.2744"
       y1="32.4165"
       x2="35.391201"
       y2="14.2033" />
    <linearGradient
       inkscape:collect="always"
       xlink:href="#aigrd1"
       id="linearGradient3040"
       gradientUnits="userSpaceOnUse"
       gradientTransform="matrix(1.19048,0,0,1.19048,-4.22442,-2.5)"
       x1="14.9966"
       y1="11.1885"
       x2="32.511002"
       y2="34.307499" />
    <radialGradient
       inkscape:collect="always"
       xlink:href="#linearGradient23419"
       id="radialGradient3043"
       gradientUnits="userSpaceOnUse"
       gradientTransform="matrix(1,0,0,0.2665725,1,30.411928)"
       cx="23.334524"
       cy="41.63604"
       fx="23.334524"
       fy="41.63604"
       r="22.627417" />
    <linearGradient
       id="linearGradient3290-678">
      <stop
         offset="0"
         style="stop-color:#ece5a5;stop-opacity:1"
         id="stop2607" />
      <stop
         offset="1"
         style="stop-color:#fcfbf2;stop-opacity:1"
         id="stop2609" />
    </linearGradient>
    <linearGradient
       id="linearGradient3191-577">
      <stop
         offset="0"
         style="stop-color:#dbce48;stop-opacity:1"
         id="stop2613" />
      <stop
         offset="1"
         style="stop-color:#c5b625;stop-opacity:1"
         id="stop2615" />
    </linearGradient>
    <linearGradient
       id="linearGradient3223-699">
      <stop
         offset="0"
         style="stop-color:#b1b1b1;stop-opacity:1"
         id="stop2599" />
      <stop
         offset="0.5"
         style="stop-color:#ffffff;stop-opacity:1"
         id="stop2601" />
      <stop
         offset="1"
         style="stop-color:#8f8f8f;stop-opacity:1"
         id="stop2603" />
    </linearGradient>
    <linearGradient
       id="linearGradient3240-907">
      <stop
         offset="0"
         style="stop-color:#565656;stop-opacity:1"
         id="stop2591" />
      <stop
         offset="0.5"
         style="stop-color:#9a9a9a;stop-opacity:1"
         id="stop2593" />
      <stop
         offset="1"
         style="stop-color:#545454;stop-opacity:1"
         id="stop2595" />
    </linearGradient>
    <linearGradient
       id="linearGradient3223-768">
      <stop
         offset="0"
         style="stop-color:#b1b1b1;stop-opacity:1"
         id="stop2583" />
      <stop
         offset="0.5"
         style="stop-color:#ffffff;stop-opacity:1"
         id="stop2585" />
      <stop
         offset="1"
         style="stop-color:#8f8f8f;stop-opacity:1"
         id="stop2587" />
    </linearGradient>
    <linearGradient
       id="linearGradient3240-686">
      <stop
         offset="0"
         style="stop-color:#565656;stop-opacity:1"
         id="stop2575" />
      <stop
         offset="0.5"
         style="stop-color:#9a9a9a;stop-opacity:1"
         id="stop2577" />
      <stop
         offset="1"
         style="stop-color:#545454;stop-opacity:1"
         id="stop2579" />
    </linearGradient>
    <linearGradient
       id="linearGradient3223-789">
      <stop
         offset="0"
         style="stop-color:#b1b1b1;stop-opacity:1"
         id="stop2567" />
      <stop
         offset="0.5"
         style="stop-color:#ffffff;stop-opacity:1"
         id="stop2569" />
      <stop
         offset="1"
         style="stop-color:#8f8f8f;stop-opacity:1"
         id="stop2571" />
    </linearGradient>
    <linearGradient
       id="linearGradient3240-279">
      <stop
         offset="0"
         style="stop-color:#565656;stop-opacity:1"
         id="stop2559" />
      <stop
         offset="0.5"
         style="stop-color:#9a9a9a;stop-opacity:1"
         id="stop2561" />
      <stop
         offset="1"
         style="stop-color:#545454;stop-opacity:1"
         id="stop2563" />
    </linearGradient>
    <linearGradient
       id="linearGradient3155-40">
      <stop
         offset="0"
         style="stop-color:#181818;stop-opacity:1"
         id="stop2541" />
      <stop
         offset="0.13482948"
         style="stop-color:#dbdbdb;stop-opacity:1"
         id="stop2543" />
      <stop
         offset="0.20224422"
         style="stop-color:#a4a4a4;stop-opacity:1"
         id="stop2545" />
      <stop
         offset="0.26965895"
         style="stop-color:#ffffff;stop-opacity:1"
         id="stop2547" />
      <stop
         offset="0.44650277"
         style="stop-color:#8d8d8d;stop-opacity:1"
         id="stop2549" />
      <stop
         offset="0.57114136"
         style="stop-color:#959595;stop-opacity:1"
         id="stop2551" />
      <stop
         offset="0.72038066"
         style="stop-color:#cecece;stop-opacity:1"
         id="stop2553" />
      <stop
         offset="1"
         style="stop-color:#181818;stop-opacity:1"
         id="stop2555" />
    </linearGradient>
    <linearGradient
       inkscape:collect="always"
       xlink:href="#linearGradient3155-40"
       id="linearGradient4146"
       gradientUnits="userSpaceOnUse"
       gradientTransform="matrix(0.6565695,-0.659788,0.7345237,0.7308691,61.136895,9.194436)"
       spreadMethod="pad"
       x1="23.575972"
       y1="25.356892"
       x2="23.575972"
       y2="31.210939" />
    <linearGradient
       inkscape:collect="always"
       xlink:href="#linearGradient3240-279"
       id="linearGradient4148"
       gradientUnits="userSpaceOnUse"
       gradientTransform="matrix(0.6380091,-0.6411367,0.8596262,0.8553492,58.730838,5.81835)"
       x1="30.037716"
       y1="24.989594"
       x2="30.037716"
       y2="30.000141" />
    <linearGradient
       inkscape:collect="always"
       xlink:href="#linearGradient3223-789"
       id="linearGradient4150"
       gradientUnits="userSpaceOnUse"
       gradientTransform="matrix(0.6380091,-0.6411367,0.8596262,0.8553492,58.548121,6.001963)"
       x1="30.037716"
       y1="24.989594"
       x2="30.037716"
       y2="30.000141" />
    <linearGradient
       inkscape:collect="always"
       xlink:href="#linearGradient3240-686"
       id="linearGradient4152"
       gradientUnits="userSpaceOnUse"
       gradientTransform="matrix(0.6380091,-0.6411367,0.8596262,0.8553492,59.365778,5.180297)"
       x1="30.037716"
       y1="24.989594"
       x2="30.037716"
       y2="30.000141" />
    <linearGradient
       inkscape:collect="always"
       xlink:href="#linearGradient3223-768"
       id="linearGradient4154"
       gradientUnits="userSpaceOnUse"
       gradientTransform="matrix(0.6380091,-0.6411367,0.8596262,0.8553492,59.18306,5.363909)"
       x1="30.037716"
       y1="24.989594"
       x2="30.037716"
       y2="30.000141" />
    <linearGradient
       inkscape:collect="always"
       xlink:href="#linearGradient3240-907"
       id="linearGradient4156"
       gradientUnits="userSpaceOnUse"
       gradientTransform="matrix(0.6380091,-0.6411367,0.8596262,0.8553492,60.003787,4.53916)"
       x1="30.037716"
       y1="24.989594"
       x2="30.037716"
       y2="30.000141" />
    <linearGradient
       inkscape:collect="always"
       xlink:href="#linearGradient3223-699"
       id="linearGradient4158"
       gradientUnits="userSpaceOnUse"
       gradientTransform="matrix(0.6380091,-0.6411367,0.8596262,0.8553492,59.82107,4.722774)"
       x1="30.037716"
       y1="24.989594"
       x2="30.037716"
       y2="30.000141" />
    <linearGradient
       inkscape:collect="always"
       xlink:href="#linearGradient3290-678"
       id="linearGradient4160"
       gradientUnits="userSpaceOnUse"
       gradientTransform="matrix(0.6380091,-0.6411367,0.8596263,0.8553493,58.488512,6.061861)"
       x1="9"
       y1="29.056757"
       x2="9"
       y2="26.02973" />
    <linearGradient
       inkscape:collect="always"
       xlink:href="#linearGradient3191-577"
       id="linearGradient4162"
       gradientUnits="userSpaceOnUse"
       gradientTransform="matrix(0.5603647,0.02418622,0.02415646,0.5596736,81.696403,2.435355)"
       x1="5.5178981"
       y1="37.371799"
       x2="9.5220556"
       y2="41.391716" />
  </defs>
  <path
     style="opacity:0.55;fill:url(#radialGradient3043);fill-opacity:1;fill-rule:evenodd;stroke:none;stroke-width:2;marker:none;visibility:visible;display:inline;overflow:visible"
     id="path23417"
     d="m 46.961941,41.510983 a 22.627417,6.0318471 0 1 1 -45.2548335,0 22.627417,6.0318471 0 1 1 45.2548335,0 z" />
  <path
     style="fill:url(#linearGradient3040);fill-rule:nonzero;stroke:none"
     id="path3040"
     d="M 24.347006,4.1666669 C 12.799386,4.1666669 3.5136719,13.452381 3.5136719,25 c 0,11.54762 9.2857141,20.833335 20.8333341,20.833335 11.54762,0 20.833335,-9.285715 20.833335,-20.833335 0,-11.547619 -9.285715,-20.8333331 -20.833335,-20.8333331 l 0,0 z m 0,25.8333341 c -2.738095,0 -5,-2.261905 -5,-5.000001 0,-2.738095 2.261905,-5 5,-5 2.738095,0 5,2.261905 5,5 0,2.738096 -2.261905,5.000001 -5,5.000001 z" />
  <path
     style="fill:url(#linearGradient3037);fill-rule:nonzero;stroke:#808080;stroke-miterlimit:4;stroke-opacity:1"
     id="path3049"
     d="M 24.347006,4.1666665 C 12.799386,4.1666665 3.513672,13.452381 3.513672,25 c 0,11.54762 9.285714,20.833335 20.833334,20.833335 11.54762,0 20.833335,-9.285715 20.833335,-20.833335 0,-11.547619 -9.285715,-20.8333335 -20.833335,-20.8333335 l 0,0 z m 0,25.8333345 c -2.738095,0 -5,-2.261905 -5,-5.000001 0,-2.738095 2.261905,-5 5,-5 2.738095,0 5,2.261905 5,5 0,2.738096 -2.261905,5.000001 -5,5.000001 z" />
  <path
     style="opacity:0.11000001;fill-rule:nonzero;stroke:none"
     id="path3051"
     d="M 24.347006,14.895835 C 18.70442,14.895835 14.24284,19.488638 14.24284,25 c 0,5.642588 4.592804,10.104166 10.104166,10.104166 5.642586,0 10.104166,-4.592802 10.104166,-10.104166 0,-5.642586 -4.592804,-10.104165 -10.104166,-10.104165 l 0,0 z m 0,15.615529 c -3.018127,0 -5.511362,-2.493235 -5.511362,-5.511364 0,-3.018127 2.493235,-5.511362 5.511362,-5.511362 3.018127,0 5.511362,2.493235 5.511362,5.511362 0,3.018129 -2.493235,5.511364 -5.511362,5.511364 z" />
  <path
     style="fill:url(#linearGradient3033);fill-opacity:1;fill-rule:nonzero;stroke:none"
     id="path3916"
     d="M 29.922111,5.6692337 26.325518,19.663896 c 1.124704,0.299517 2.024143,0.99547 2.635128,1.958542 l 12.39222,-7.549285 C 38.817618,9.9434382 34.748656,6.9050853 29.922111,5.6692337 z" />
  <path
     style="fill:url(#linearGradient3030);fill-opacity:1;fill-rule:nonzero;stroke:none"
     id="path4214"
     d="M 17.307824,43.766057 22.043079,30.114558 C 20.946815,29.723566 20.107654,28.956005 19.577936,27.945951 L 6.6068752,34.450599 c 2.1870573,4.324212 5.9923798,7.686883 10.7009488,9.315458 z" />
  <path
     style="opacity:0.54644799;fill:none;stroke:url(#linearGradient3027);stroke-miterlimit:4;stroke-opacity:1"
     id="path5264"
     d="m 24.347002,5.2023655 c -10.973544,0 -19.7976309,8.8240885 -19.7976309,19.7976315 0,10.973544 8.8240869,19.797631 19.7976309,19.797631 10.973544,0 19.797631,-8.824087 19.797631,-19.797631 0,-10.973543 -8.824087,-19.7976315 -19.797631,-19.7976315 l 0,0 z" />
  <path
     style="opacity:0.67213099;fill:none;stroke:url(#linearGradient3024);stroke-width:0.93053901;stroke-linecap:butt;stroke-linejoin:miter;stroke-miterlimit:4;stroke-opacity:1;stroke-dashoffset:0;marker:none;visibility:visible;display:inline;overflow:visible"
     id="path6026"
     d="m 30.493979,25.01903 a 6.098796,6.098796 0 0 1 -12.197592,0 6.098796,6.098796 0 1 1 12.197592,0 z" />
  <g
     id="g4132"
     transform="matrix(1.2358172,0,0,1.2358172,-85.178334,13.191)">
    <path
       style="opacity:0.15;fill:#0c0c0c;fill-opacity:1;fill-rule:evenodd;stroke:none"
       id="path2422"
       d="m 100.61891,13.27575 c -0.17326,-0.101989 -0.30732,-0.07546 -0.39588,-0.01871 l -11.796112,7.511424 -2.17105,1.386355 -0.06684,0.02805 -2.570398,5.792049 6.370142,0.191869 0.05288,-0.03539 2.18501,-1.379007 11.793168,-7.576206 c 0.35427,-0.226993 -0.20602,-1.731414 -1.25685,-3.380625 -0.78814,-1.236902 -1.6243,-2.213844 -2.14407,-2.519809 l 0,0 z" />
    <path
       style="fill:url(#linearGradient4146);fill-opacity:1;stroke:#0c0c0c;stroke-width:0.5;stroke-linecap:butt;stroke-linejoin:round;stroke-miterlimit:4;stroke-opacity:1;stroke-dasharray:none;stroke-dashoffset:0"
       id="rect2383"
       d="m 87.083949,20.359712 c 0.445921,-0.334616 1.697104,0.293067 2.846888,1.43713 1.147034,1.141326 1.75142,2.362602 1.42438,2.812888 -0.0012,0.0017 0.02814,0.02504 0.02686,0.02673 L 107.39212,8.547934 C 107.7986,8.139459 107.16704,6.848628 105.98075,5.668246 104.79447,4.487864 103.50047,3.86271 103.09399,4.271187 L 87.083949,20.359712 z" />
    <path
       style="opacity:0.8;fill:#ffb6ed;fill-opacity:1;stroke:#e28ccd;stroke-width:0.5;stroke-linecap:butt;stroke-linejoin:round;stroke-miterlimit:4;stroke-opacity:1;stroke-dasharray:none;stroke-dashoffset:0"
       id="rect3175"
       d="m 101.14009,6.234668 c 0.44592,-0.334616 1.6971,0.293068 2.84689,1.43713 1.14703,1.141325 1.75142,2.362602 1.42438,2.812887 -0.001,0.0017 0.0281,0.02504 0.0269,0.02673 l 1.9539,-1.963482 0.0399,-0.04007 c 10e-4,-0.0017 -0.0281,-0.02502 -0.0269,-0.02673 0.32703,-0.450285 -0.27735,-1.671561 -1.42439,-2.812886 -1.14978,-1.144062 -2.40096,-1.771747 -2.84688,-1.43713 l -0.0399,0.04007 -1.9539,1.963481 0,0 z" />
    <path
       style="opacity:0.6;fill:#0c0c0c;fill-opacity:1;stroke:none"
       id="path3208"
       d="m 87.083949,20.35971 c 0.445921,-0.334616 1.697105,0.293068 2.846887,1.43713 1.147034,1.141326 1.751421,2.362602 1.42438,2.812888 -0.0012,0.0017 0.02814,0.02504 0.02687,0.02673 l 11.025594,-11.079643 0.0399,-0.04007 c 0.001,-0.0017 -0.0281,-0.02502 -0.0269,-0.02673 0.32703,-0.450289 -0.27736,-1.671564 -1.42439,-2.81289 C 99.846529,9.533063 98.595344,8.905379 98.149423,9.239996 l -0.03988,0.04007 -11.025589,11.079644 -5e-6,0 z" />
    <path
       style="fill:url(#linearGradient4148);fill-opacity:1;stroke:none"
       id="path3233"
       d="m 98.949999,8.435491 c 0.44592,-0.334617 1.697101,0.293068 2.846891,1.43713 1.14703,1.141325 1.75142,2.362601 1.42438,2.812888 -0.001,0.0017 0.0281,0.02504 0.0269,0.02673 l 0.19937,-0.200358 c 10e-4,-0.0017 -0.0281,-0.02502 -0.0269,-0.02673 0.32705,-0.450286 -0.27734,-1.671563 -1.42438,-2.812886 -1.14978,-1.144063 -2.400963,-1.771747 -2.846883,-1.437131 l -0.199378,0.200356 0,1e-6 z" />
    <path
       style="fill:url(#linearGradient4150);fill-opacity:1;stroke:none"
       id="path3216"
       d="m 98.767281,8.619104 c 0.445922,-0.334617 1.697109,0.293067 2.846889,1.437129 1.14703,1.141326 1.75142,2.362601 1.42438,2.812887 -0.001,0.0017 0.0281,0.02504 0.0269,0.02673 l 0.19938,-0.200357 c 10e-4,-0.0017 -0.0281,-0.02502 -0.0269,-0.02673 0.32704,-0.450285 -0.27735,-1.671561 -1.42438,-2.812886 -1.14979,-1.144062 -2.400969,-1.771747 -2.846892,-1.43713 l -0.199377,0.200356 0,10e-7 z" />
    <path
       style="fill:url(#linearGradient4152);fill-opacity:1;stroke:none"
       id="path3248"
       d="m 99.584939,7.797438 c 0.445921,-0.334617 1.697101,0.293067 2.846891,1.43713 1.14703,1.141325 1.75142,2.3626 1.42438,2.812887 -0.001,0.0017 0.0281,0.02504 0.0269,0.02673 l 0.19938,-0.200355 c 10e-4,-0.0017 -0.0281,-0.02502 -0.0269,-0.02673 0.32704,-0.450286 -0.27735,-1.671563 -1.42439,-2.812887 -1.14978,-1.144063 -2.40096,-1.771747 -2.846884,-1.43713 l -0.199377,0.200355 0,0 z" />
    <path
       style="fill:url(#linearGradient4154);fill-opacity:1;stroke:none"
       id="path3250"
       d="m 99.402221,7.981051 c 0.445923,-0.334617 1.697109,0.293067 2.846889,1.437129 1.14703,1.141326 1.75142,2.362601 1.42438,2.812887 -0.001,0.0017 0.0281,0.02504 0.0269,0.02673 l 0.19938,-0.200356 c 10e-4,-0.0017 -0.0281,-0.02502 -0.0269,-0.02673 0.32704,-0.450286 -0.27735,-1.671563 -1.42438,-2.812886 -1.14978,-1.144063 -2.40097,-1.771748 -2.846891,-1.43713 l -0.199378,0.200356 z" />
    <path
       style="fill:url(#linearGradient4156);fill-opacity:1;stroke:none"
       id="path3256"
       d="m 100.22295,7.156301 c 0.44592,-0.334616 1.6971,0.293068 2.84689,1.43713 1.14703,1.141325 1.75142,2.362601 1.42438,2.812887 -0.001,0.0017 0.0281,0.02504 0.0269,0.02673 l 0.19937,-0.200356 c 0.001,-0.0017 -0.0281,-0.02502 -0.0269,-0.02673 0.32704,-0.450285 -0.27734,-1.671562 -1.42438,-2.812887 -1.14978,-1.144062 -2.40096,-1.771747 -2.84688,-1.437129 l -0.19938,0.200355 0,0 z" />
    <path
       style="fill:url(#linearGradient4158);fill-opacity:1;stroke:none"
       id="path3258"
       d="m 100.04023,7.339914 c 0.44592,-0.334617 1.69711,0.293067 2.84689,1.437131 1.14703,1.141324 1.75142,2.3626 1.42438,2.812885 -10e-4,0.0017 0.0281,0.02504 0.0269,0.02673 l 0.19938,-0.200354 c 0.001,-0.0017 -0.0281,-0.02502 -0.0269,-0.02673 0.32704,-0.450287 -0.27735,-1.671563 -1.42438,-2.812887 -1.14979,-1.144063 -2.40097,-1.771748 -2.84689,-1.43713 l -0.19938,0.200355 0,0 z" />
    <path
       style="fill:url(#linearGradient4160);fill-opacity:1;fill-rule:evenodd;stroke:url(#linearGradient4162);stroke-width:0.5;stroke-linecap:butt;stroke-linejoin:miter;stroke-miterlimit:4;stroke-opacity:1;stroke-dasharray:none"
       id="path3270"
       d="m 84.015848,27.641618 7.283734,-2.970838 0.06206,-0.06205 c 0.327041,-0.450289 -0.285228,-1.67166 -1.432262,-2.812988 -1.149783,-1.144062 -2.399488,-1.768277 -2.845409,-1.43366 l -3.068118,7.279536 -5e-6,0 z" />
    <path
       style="fill:#0c0c0c;fill-opacity:1;fill-rule:evenodd;stroke:#0c0c0c;stroke-width:0.5;stroke-linecap:butt;stroke-linejoin:miter;stroke-miterlimit:4;stroke-opacity:1;stroke-dasharray:none"
       id="path3281"
       d="m 84.846917,25.670017 -0.831516,1.96381 1.986639,-0.814434 C 85.842814,26.628669 85.695822,26.43495 85.504649,26.244729 85.284558,26.025732 85.068078,25.848042 84.846917,25.670017 z" />
  </g>
</svg>
