<?xml version="1.0" encoding="UTF-8" standalone="no"?>
<!-- Generator: Adobe Illustrator 10.0, SVG Export Plug-In . SVG Version: 3.0.0 Build 43)  -->
<svg
   xmlns:a="http://ns.adobe.com/AdobeSVGViewerExtensions/3.0/"
   xmlns:dc="http://purl.org/dc/elements/1.1/"
   xmlns:cc="http://creativecommons.org/ns#"
   xmlns:rdf="http://www.w3.org/1999/02/22-rdf-syntax-ns#"
   xmlns:svg="http://www.w3.org/2000/svg"
   xmlns="http://www.w3.org/2000/svg"
   xmlns:sodipodi="http://sodipodi.sourceforge.net/DTD/sodipodi-0.dtd"
   xmlns:inkscape="http://www.inkscape.org/namespaces/inkscape"
   width="48"
   height="48"
   viewBox="0 0 128 128"
   style="overflow:visible"
   xml:space="preserve"
   id="svg2"
   sodipodi:version="0.32"
   inkscape:version="0.46"
   sodipodi:docname="kig.svg"
   inkscape:output_extension="org.inkscape.output.svg.inkscape"
   version="1.0"><metadata
   id="metadata127"><rdf:RDF><cc:Work
       rdf:about=""><dc:format>image/svg+xml</dc:format><dc:type
         rdf:resource="http://purl.org/dc/dcmitype/StillImage" /></cc:Work></rdf:RDF></metadata><defs
   id="defs125"><inkscape:perspective
     sodipodi:type="inkscape:persp3d"
     inkscape:vp_x="0 : 64 : 1"
     inkscape:vp_y="0 : 1000 : 0"
     inkscape:vp_z="128 : 64 : 1"
     inkscape:persp3d-origin="64 : 42.666667 : 1"
     id="perspective129" /></defs><sodipodi:namedview
   inkscape:window-height="788"
   inkscape:window-width="1272"
   inkscape:pageshadow="2"
   inkscape:pageopacity="0.0"
   guidetolerance="10.0"
   gridtolerance="10.0"
   objecttolerance="10.0"
   borderopacity="1.0"
   bordercolor="#666666"
   pagecolor="#ffffff"
   id="base"
   showgrid="false"
   inkscape:zoom="4.296875"
   inkscape:cx="32.930909"
   inkscape:cy="3.7901326"
   inkscape:window-x="0"
   inkscape:window-y="24"
   inkscape:current-layer="svg2" />
	<g
   id="Layer_2"
   style="stroke:#000000">
	</g>
	<g
   id="Layer_1"
   style="stroke:#000000"
   transform="matrix(0.8333333,0,0,0.8333333,10.666669,10.666669)">
		<linearGradient
   id="XMLID_1_"
   gradientUnits="userSpaceOnUse"
   x1="17.8501"
   y1="64.952103"
   x2="111.7305"
   y2="64.952103">
			<stop
   offset="0"
   style="stop-color:#474747"
   id="stop7" />
			<stop
   offset="1"
   style="stop-color:#616161"
   id="stop9" />
			<a:midPointStop
   offset="0"
   style="stop-color:#474747" />
			<a:midPointStop
   offset="0.5"
   style="stop-color:#474747" />
			<a:midPointStop
   offset="1"
   style="stop-color:#616161" />
		</linearGradient>
		<path
   style="fill:url(#XMLID_1_);stroke:none"
   d="M 111.73,3.967 L 14.85,3.967 L 14.85,125.937 L 114.73,125.937 L 114.73,3.967 L 111.73,3.967 z"
   id="path11" />
		<linearGradient
   id="XMLID_2_"
   gradientUnits="userSpaceOnUse"
   x1="17.8501"
   y1="64.952103"
   x2="111.7305"
   y2="64.952103">
			<stop
   offset="0"
   style="stop-color:#828282"
   id="stop14" />
			<stop
   offset="1"
   style="stop-color:#616161"
   id="stop16" />
			<a:midPointStop
   offset="0"
   style="stop-color:#828282" />
			<a:midPointStop
   offset="0.5"
   style="stop-color:#828282" />
			<a:midPointStop
   offset="1"
   style="stop-color:#616161" />
		</linearGradient>
		<path
   style="fill:url(#XMLID_2_);stroke:none"
   d="M 111.73,122.938 L 17.85,122.938 L 17.85,6.967 L 111.73,6.967 L 111.73,122.938 L 111.73,122.938 z"
   id="path18" />
		<path
   style="fill:#ffffff;stroke:none"
   d="M 19.85,8.967 C 19.85,12.762 19.85,117.142 19.85,120.937 C 23.598,120.937 105.982,120.937 109.73,120.937 C 109.73,117.142 109.73,12.762 109.73,8.967 C 105.982,8.967 23.598,8.967 19.85,8.967 z"
   id="path20" />
		<linearGradient
   id="XMLID_3_"
   gradientUnits="userSpaceOnUse"
   x1="64.790001"
   y1="37.305199"
   x2="64.790001"
   y2="138.7906">
			<stop
   offset="0"
   style="stop-color:#FFFFFF"
   id="stop23" />
			<stop
   offset="1"
   style="stop-color:#CECEDB"
   id="stop25" />
			<a:midPointStop
   offset="0"
   style="stop-color:#FFFFFF" />
			<a:midPointStop
   offset="0.5"
   style="stop-color:#FFFFFF" />
			<a:midPointStop
   offset="1"
   style="stop-color:#CECEDB" />
		</linearGradient>
		<path
   style="fill:url(#XMLID_3_);stroke:none"
   d="M 22.85,42.467 C 22.85,46.403 22.85,114.002 22.85,117.937 C 28.263,117.937 101.318,117.937 106.73,117.937 C 106.73,114.001 106.73,46.402 106.73,42.467 C 101.318,42.467 28.263,42.467 22.85,42.467 z"
   id="path27" />
		<linearGradient
   id="XMLID_4_"
   gradientUnits="userSpaceOnUse"
   x1="76.171898"
   y1="76.330101"
   x2="76.171898"
   y2="113.3281">
			<stop
   offset="0"
   style="stop-color:#FF0000"
   id="stop30" />
			<stop
   offset="1"
   style="stop-color:#7C0000"
   id="stop32" />
			<a:midPointStop
   offset="0"
   style="stop-color:#FF0000" />
			<a:midPointStop
   offset="0.5"
   style="stop-color:#FF0000" />
			<a:midPointStop
   offset="1"
   style="stop-color:#7C0000" />
		</linearGradient>
		<path
   style="opacity:0.6;fill:url(#XMLID_4_);stroke:none"
   d="M 57.672,76.33 L 57.672,113.328 L 94.67,113.328 L 94.67,76.33 L 57.672,76.33 z M 91.381,110.041 C 86.453,110.041 65.889,110.041 60.962,110.041 C 60.962,105.113 60.962,84.547 60.962,79.619 C 65.889,79.619 86.454,79.619 91.381,79.619 C 91.381,84.547 91.381,105.113 91.381,110.041 z"
   id="path34" />
		<linearGradient
   id="XMLID_5_"
   gradientUnits="userSpaceOnUse"
   x1="66.381798"
   y1="34.545399"
   x2="66.381798"
   y2="97.043503">
			<stop
   offset="0"
   style="stop-color:#57ADFF"
   id="stop37" />
			<stop
   offset="1"
   style="stop-color:#428AFF"
   id="stop39" />
			<a:midPointStop
   offset="0"
   style="stop-color:#57ADFF" />
			<a:midPointStop
   offset="0.5"
   style="stop-color:#57ADFF" />
			<a:midPointStop
   offset="1"
   style="stop-color:#428AFF" />
		</linearGradient>
		<path
   style="fill:url(#XMLID_5_);stroke:none"
   d="M 66.381,34.545 C 49.123,34.545 35.133,48.535 35.133,65.793 C 35.133,83.053 49.123,97.043 66.381,97.043 C 83.641,97.043 97.631,83.053 97.631,65.793 C 97.631,48.536 83.641,34.545 66.381,34.545 z M 66.381,93.838 C 50.919,93.838 38.338,81.258 38.338,65.793 C 38.338,50.331 50.919,37.751 66.381,37.751 C 81.844,37.751 94.426,50.331 94.426,65.793 C 94.426,81.258 81.844,93.838 66.381,93.838 z"
   id="path41" />
		<path
   style="opacity:0.2;stroke:none"
   d="M 38.744,5.645 C 37.637,5.643 36.652,6.346 36.294,7.397 C 35.939,8.454 36.292,9.613 37.171,10.285 L 122.365,75.485 C 123.15,76.087 124.191,76.188 125.082,75.749 C 125.969,75.315 126.523,74.427 126.523,73.431 L 126.523,8.23 C 126.523,7.538 126.253,6.888 125.765,6.399 C 125.275,5.912 124.626,5.643 123.935,5.644 L 38.744,5.644 L 38.744,5.645 z M 109.824,22.345 C 109.824,24.115 109.822,41.43 109.822,44.856 C 109.822,44.856 84.918,25.796 80.408,22.345 C 85.688,22.345 107.904,22.345 109.824,22.345 z"
   id="path43" />
		<path
   style="opacity:0.2;stroke:none"
   d="M 37.598,3.354 C 36.491,3.352 35.506,4.055 35.148,5.106 C 34.794,6.164 35.146,7.322 36.025,7.994 L 121.219,73.194 C 122.004,73.796 123.047,73.897 123.938,73.458 C 124.825,73.024 125.379,72.136 125.379,71.14 L 125.379,5.94 C 125.379,5.248 125.109,4.598 124.619,4.109 C 124.131,3.622 123.48,3.353 122.789,3.354 L 122.791,3.354 L 37.598,3.354 L 37.598,3.354 z M 108.678,20.053 C 108.678,21.823 108.678,39.138 108.678,42.564 C 108.678,42.564 83.772,23.504 79.264,20.053 C 84.541,20.053 106.76,20.053 108.678,20.053 z"
   id="path45" />
		<path
   style="opacity:0.2;stroke:none"
   d="M 36.453,2.208 C 35.346,2.206 34.361,2.91 34.003,3.96 C 33.647,5.018 34,6.175 34.879,6.848 L 120.072,72.047 C 120.859,72.649 121.9,72.75 122.791,72.311 C 123.678,71.877 124.232,70.989 124.232,69.995 L 124.232,4.793 C 124.232,4.101 123.962,3.45 123.474,2.962 C 122.984,2.474 122.333,2.206 121.644,2.207 L 36.453,2.207 L 36.453,2.208 z M 107.533,18.907 C 107.533,20.677 107.531,37.992 107.531,41.419 C 107.531,41.419 82.627,22.359 78.117,18.907 C 83.395,18.907 105.613,18.907 107.533,18.907 z"
   id="path47" />
		<linearGradient
   id="XMLID_6_"
   gradientUnits="userSpaceOnUse"
   x1="79.105499"
   y1="-41.799801"
   x2="79.105499"
   y2="110.1236">
			<stop
   offset="0"
   style="stop-color:#A20000"
   id="stop50" />
			<stop
   offset="1"
   style="stop-color:#FF6D00"
   id="stop52" />
			<a:midPointStop
   offset="0"
   style="stop-color:#A20000" />
			<a:midPointStop
   offset="0.5"
   style="stop-color:#A20000" />
			<a:midPointStop
   offset="1"
   style="stop-color:#FF6D00" />
		</linearGradient>
		<path
   style="fill:url(#XMLID_6_);stroke:none"
   d="M 36.453,1.062 C 35.346,1.06 34.361,1.763 34.003,2.814 C 33.647,3.872 34,5.03 34.879,5.702 L 120.072,70.9 C 120.859,71.504 121.9,71.603 122.791,71.166 C 123.678,70.73 124.232,69.844 124.232,68.848 L 124.232,3.648 C 124.232,2.956 123.962,2.306 123.474,1.817 C 122.984,1.33 122.333,1.061 121.644,1.062 L 36.453,1.062 L 36.453,1.062 z M 107.533,17.762 C 107.533,19.532 107.531,36.847 107.531,40.273 C 107.531,40.273 82.627,21.213 78.117,17.762 C 83.395,17.762 105.613,17.762 107.533,17.762 z"
   id="path54" />
		
			<linearGradient
   id="XMLID_7_"
   gradientUnits="userSpaceOnUse"
   x1="-185.0137"
   y1="88.722702"
   x2="-99.8218"
   y2="88.722702"
   gradientTransform="matrix(-1,0,0,-1,-63.3691,124.9707)">
			<stop
   offset="0"
   style="stop-color:#FFC957"
   id="stop57" />
			<stop
   offset="1"
   style="stop-color:#FFE6B0"
   id="stop59" />
			<a:midPointStop
   offset="0"
   style="stop-color:#FFC957" />
			<a:midPointStop
   offset="0.5"
   style="stop-color:#FFC957" />
			<a:midPointStop
   offset="1"
   style="stop-color:#FFE6B0" />
		</linearGradient>
		<path
   style="fill:url(#XMLID_7_);stroke:none"
   d="M 121.645,68.848 L 121.645,3.648 L 36.453,3.648 L 121.645,68.848 M 110.119,45.509 C 96.623,35.184 87.65,28.315 70.48,15.176 C 89.5,15.176 100.841,15.174 110.119,15.176 C 110.121,24.005 110.119,31.567 110.119,45.509 z"
   id="path61" />
		<g
   style="opacity:0.5"
   id="g63">
			<path
   style="fill:#ffffff;stroke:none"
   d="M 121.645,68.848 L 121.645,3.648 L 36.453,3.648 L 121.645,68.848 M 120.205,65.932 C 115.998,62.713 46.761,9.723 40.707,5.087 C 48.248,5.088 117.561,5.088 120.205,5.088 C 120.205,7.718 120.205,60.728 120.205,65.932 M 111.559,48.428 L 111.559,15.173 L 111.559,13.733 L 66.227,13.733 L 111.559,48.428 M 110.119,45.509 C 96.623,35.184 87.65,28.315 70.48,15.176 C 89.5,15.176 100.841,15.174 110.119,15.176 C 110.121,24.005 110.119,31.567 110.119,45.509 z"
   id="path65" />
		</g>
		<path
   style="fill:#ffff66;stroke:none"
   d="M 36.453,4.647 L 121.645,69.847 L 121.645,66.964 L 40.217,4.647 L 36.453,4.647 z"
   id="path67" />
		<path
   style="opacity:0.5;fill:#ffffff;stroke:none"
   d="M 121.645,69.848 L 121.645,66.965 L 120.206,65.863 C 120.206,66.308 120.206,66.687 120.206,66.931 C 115.999,63.712 46.762,10.722 40.708,6.086 C 41.048,6.086 41.519,6.087 42.103,6.087 L 40.218,4.647 L 36.454,4.647 L 121.645,69.848 z"
   id="path69" />
		<g
   id="g71">
			<path
   style="opacity:0.2;stroke:none"
   d="M 65.725,34.202 C 49.119,39.54 46.111,40.507 45.47,41.033 C 45.505,40.978 45.552,40.9 45.552,40.9 L 5.351,77.008 C 3.213,78.936 5.515,83.446 8.558,86.824 C 11.565,90.172 15.808,92.947 18.011,91.131 L 58.252,54.843 L 58.296,54.597 L 66.386,37.236 L 67.474,33.703 L 65.725,34.202 z"
   id="path73" />
			<path
   style="opacity:0.2;stroke:none"
   d="M 64.59,33.451 C 47.984,38.788 44.976,39.755 44.334,40.282 C 44.369,40.227 44.417,40.149 44.417,40.149 L 4.216,76.254 C 2.078,78.184 4.38,82.695 7.423,86.072 C 10.431,89.42 14.673,92.195 16.876,90.379 L 57.116,54.091 L 57.16,53.846 L 65.249,36.485 L 66.338,32.952 L 64.59,33.451 z"
   id="path75" />
			<path
   style="opacity:0.2;stroke:none"
   d="M 63.455,32.699 C 46.849,38.037 43.841,39.003 43.199,39.531 C 43.233,39.476 43.282,39.397 43.282,39.397 L 3.081,75.504 C 0.943,77.432 3.246,81.943 6.288,85.32 C 9.295,88.668 13.538,91.443 15.741,89.627 L 55.981,53.34 L 56.025,53.094 L 64.114,35.733 L 65.202,32.2 L 63.455,32.699 z"
   id="path77" />
			<path
   style="fill:#ffffff;stroke:none"
   d="M 62.678,32.857 C 46.072,38.195 43.065,39.161 42.424,39.689 C 42.457,39.634 42.507,39.555 42.507,39.555 L 2.304,75.66 C 0.166,77.59 2.469,82.101 5.512,85.478 C 8.519,88.826 12.762,91.601 14.966,89.785 L 55.206,53.497 L 55.25,53.251 L 63.339,35.89 L 64.426,32.357 L 62.678,32.857 z"
   id="path79" />
			
				<linearGradient
   id="XMLID_8_"
   gradientUnits="userSpaceOnUse"
   x1="9.0522003"
   y1="73.323196"
   x2="64.881798"
   y2="41.237499"
   gradientTransform="matrix(0.98,-0.1991,0.1991,0.98,-9.8206,7.9037)">
				<stop
   offset="0"
   style="stop-color:#CF0000"
   id="stop82" />
				<stop
   offset="1"
   style="stop-color:#7C0000"
   id="stop84" />
				<a:midPointStop
   offset="0"
   style="stop-color:#CF0000" />
				<a:midPointStop
   offset="0.5"
   style="stop-color:#CF0000" />
				<a:midPointStop
   offset="1"
   style="stop-color:#7C0000" />
			</linearGradient>
			<path
   style="fill:url(#XMLID_8_);stroke:none"
   d="M 62.678,32.857 C 46.072,38.195 43.065,39.161 42.424,39.689 C 42.457,39.634 42.507,39.555 42.507,39.555 L 2.304,75.66 C 0.166,77.59 2.469,82.101 5.512,85.478 C 8.519,88.826 12.762,91.601 14.966,89.785 L 55.206,53.497 L 55.25,53.251 L 63.339,35.89 L 64.426,32.357 L 62.678,32.857 z"
   id="path86" />
			
				<linearGradient
   id="XMLID_9_"
   gradientUnits="userSpaceOnUse"
   x1="306.6748"
   y1="-174.3911"
   x2="316.29559"
   y2="-164.76939"
   gradientTransform="matrix(4.35e-2,0.999,0.999,-4.35e-2,195.5273,-254.0172)">
				<stop
   offset="0"
   style="stop-color:#F8F1DC"
   id="stop89" />
				<stop
   offset="1"
   style="stop-color:#D6A84A"
   id="stop91" />
				<a:midPointStop
   offset="0"
   style="stop-color:#F8F1DC" />
				<a:midPointStop
   offset="0.5"
   style="stop-color:#F8F1DC" />
				<a:midPointStop
   offset="1"
   style="stop-color:#D6A84A" />
			</linearGradient>
			<path
   style="fill:url(#XMLID_9_);stroke:none"
   d="M 43.559,41.803 L 61.085,35.495 L 52.856,52.213 L 52.787,52.137 C 52.75,52.252 52.704,52.364 52.641,52.459 L 52.696,52.515 L 14.281,87.131 L 14.234,87.074 C 13.089,88.107 10.054,86.599 7.453,83.715 C 4.855,80.828 3.675,77.656 4.818,76.625 L 43.23,42.016 L 43.559,41.803 z"
   id="path93" />
			
				<linearGradient
   id="XMLID_10_"
   gradientUnits="userSpaceOnUse"
   x1="324.88089"
   y1="-197.2144"
   x2="329.99561"
   y2="-203.30991"
   gradientTransform="matrix(4.35e-2,0.999,0.999,-4.35e-2,195.5273,-254.0172)">
				<stop
   offset="0"
   style="stop-color:#FFC957"
   id="stop96" />
				<stop
   offset="1"
   style="stop-color:#FFAE00"
   id="stop98" />
				<a:midPointStop
   offset="0"
   style="stop-color:#FFC957" />
				<a:midPointStop
   offset="0.5"
   style="stop-color:#FFC957" />
				<a:midPointStop
   offset="1"
   style="stop-color:#FFAE00" />
			</linearGradient>
			<path
   style="fill:url(#XMLID_10_);stroke:none"
   d="M 7.452,83.715 C 4.854,80.828 3.674,77.656 4.817,76.625 L 13.472,68.828 L 25.649,68.299 L 26.009,76.561 L 14.281,87.131 L 14.234,87.074 C 13.089,88.107 10.054,86.6 7.452,83.715 z"
   id="path100" />
			
				<linearGradient
   id="XMLID_11_"
   gradientUnits="userSpaceOnUse"
   x1="295.02441"
   y1="-215.6172"
   x2="316.4541"
   y2="-168.03999"
   gradientTransform="matrix(4.35e-2,0.999,0.999,-4.35e-2,195.5273,-254.0172)">
				<stop
   offset="0"
   style="stop-color:#FF9200"
   id="stop103" />
				<stop
   offset="0.7753"
   style="stop-color:#FFAE00"
   id="stop105" />
				<stop
   offset="1"
   style="stop-color:#FF6D00"
   id="stop107" />
				<a:midPointStop
   offset="0"
   style="stop-color:#FF9200" />
				<a:midPointStop
   offset="0.5"
   style="stop-color:#FF9200" />
				<a:midPointStop
   offset="0.7753"
   style="stop-color:#FFAE00" />
				<a:midPointStop
   offset="0.5"
   style="stop-color:#FFAE00" />
				<a:midPointStop
   offset="1"
   style="stop-color:#FF6D00" />
			</linearGradient>
			<path
   style="fill:url(#XMLID_11_);stroke:none"
   d="M 13.977,87.258 C 14.792,86.461 14.334,84.502 12.969,82.365 C 12.517,81.656 11.961,80.926 11.32,80.215 C 10.711,79.537 10.079,78.947 9.453,78.436 C 7.436,76.791 5.48,76.096 4.587,76.838 L 4.576,76.826 L 43.243,41.976 C 44.283,41.683 46.23,42.246 48.004,43.701 C 48.609,44.2 49.225,44.777 49.812,45.434 C 50.472,46.163 51.042,46.913 51.502,47.643 C 52.883,49.823 53.432,51.919 52.56,52.706 C 52.358,52.887 51.486,53.671 51.454,53.691 L 14.077,87.367 L 13.977,87.258 z"
   id="path109" />
			
				<linearGradient
   id="XMLID_12_"
   gradientUnits="userSpaceOnUse"
   x1="63.630901"
   y1="44.088402"
   x2="55.8433"
   y2="44.088402"
   gradientTransform="matrix(0.98,-0.1991,0.1991,0.98,-9.8206,7.9037)">
				<stop
   offset="0"
   style="stop-color:#7C0000"
   id="stop112" />
				<stop
   offset="1"
   style="stop-color:#663333"
   id="stop114" />
				<a:midPointStop
   offset="0"
   style="stop-color:#7C0000" />
				<a:midPointStop
   offset="0.5"
   style="stop-color:#7C0000" />
				<a:midPointStop
   offset="1"
   style="stop-color:#663333" />
			</linearGradient>
			<path
   style="opacity:0.8;fill:url(#XMLID_12_);stroke:none"
   d="M 53.348,38.334 L 60.759,35.697 L 57.644,42.037 C 57.644,42.037 57.589,41.101 56.249,39.749 C 54.483,37.958 53.348,38.334 53.348,38.334 z"
   id="path116" />
			<path
   style="opacity:0.5;fill:#ffffff;stroke:none"
   d="M 47.829,43.571 L 9.62,78.576 C 9.565,78.531 9.509,78.478 9.453,78.435 C 8.647,77.779 7.849,77.277 7.128,76.953 L 45.145,42.125 C 45.984,42.379 46.923,42.86 47.829,43.571 z"
   id="path118" />
			<path
   style="opacity:0.5;fill:#ffffff;stroke:none"
   d="M 9.453,78.436 C 9.097,78.145 8.741,77.889 8.395,77.657 L 46.536,42.716 C 47.025,42.981 47.522,43.305 48.004,43.702 C 48.416,44.043 48.834,44.423 49.244,44.834 L 11,79.871 C 10.49,79.336 9.97,78.855 9.453,78.436 z"
   id="path120" />
		</g>
		<path
   style="fill:none;stroke:none"
   d="M 128,128 L 0,128 L 0,0 L 128,0 L 128,128 z"
   id="path122" />
	</g>
</svg>