<?xml version="1.0" encoding="UTF-8" standalone="no"?>
<!-- Created with Sodipodi ("http://www.sodipodi.com/") -->
<svg
   xmlns:dc="http://purl.org/dc/elements/1.1/"
   xmlns:cc="http://creativecommons.org/ns#"
   xmlns:rdf="http://www.w3.org/1999/02/22-rdf-syntax-ns#"
   xmlns:svg="http://www.w3.org/2000/svg"
   xmlns="http://www.w3.org/2000/svg"
   xmlns:xlink="http://www.w3.org/1999/xlink"
   xmlns:sodipodi="http://sodipodi.sourceforge.net/DTD/sodipodi-0.dtd"
   xmlns:inkscape="http://www.inkscape.org/namespaces/inkscape"
   id="svg559"
   sodipodi:version="0.32"
   width="48"
   height="48"
   sodipodi:docbase="/Users/chris"
   sodipodi:docname="kompare.svg"
   inkscape:version="0.46"
   inkscape:output_extension="org.inkscape.output.svg.inkscape"
   version="1.0">
  <metadata
     id="metadata50">
    <rdf:RDF>
      <cc:Work
         rdf:about="">
        <dc:format>image/svg+xml</dc:format>
        <dc:type
           rdf:resource="http://purl.org/dc/dcmitype/StillImage" />
      </cc:Work>
    </rdf:RDF>
  </metadata>
  <defs
     id="defs561">
    <inkscape:perspective
       sodipodi:type="inkscape:persp3d"
       inkscape:vp_x="0 : 80 : 1"
       inkscape:vp_y="0 : 1000 : 0"
       inkscape:vp_z="160 : 80 : 1"
       inkscape:persp3d-origin="80 : 53.333333 : 1"
       id="perspective52" />
    <linearGradient
       id="linearGradient670">
      <stop
         style="stop-color:#26a500;stop-opacity:1.0000;"
         offset="0"
         id="stop671" />
      <stop
         style="stop-color:#ffffff;stop-opacity:1.0000;"
         offset="1.000000"
         id="stop672" />
    </linearGradient>
    <linearGradient
       id="linearGradient666">
      <stop
         style="stop-color:#3f9f00;stop-opacity:1.0000;"
         offset="0"
         id="stop667" />
      <stop
         style="stop-color:#ffffff;stop-opacity:1.0000;"
         offset="1.000000"
         id="stop668" />
    </linearGradient>
    <linearGradient
       id="linearGradient619">
      <stop
         style="stop-color:#c70000;stop-opacity:1.0000;"
         offset="0"
         id="stop620" />
      <stop
         style="stop-color:#ffffff;stop-opacity:1.0000;"
         offset="1.000000"
         id="stop621" />
    </linearGradient>
    <linearGradient
       id="linearGradient616">
      <stop
         style="stop-color:#ca2a00;stop-opacity:1.0000;"
         offset="0"
         id="stop617" />
      <stop
         style="stop-color:#ffffff;stop-opacity:1.0000;"
         offset="1.000000"
         id="stop618" />
    </linearGradient>
    <linearGradient
       id="linearGradient569">
      <stop
         style="stop-color:#005f95;stop-opacity:1.0000;"
         offset="0"
         id="stop570" />
      <stop
         style="stop-color:#ffffff;stop-opacity:1.0000;"
         offset="1.000000"
         id="stop571" />
    </linearGradient>
    <linearGradient
       id="linearGradient565">
      <stop
         style="stop-color:#000;stop-opacity:1;"
         offset="0"
         id="stop566" />
      <stop
         style="stop-color:#fff;stop-opacity:1;"
         offset="1"
         id="stop567" />
    </linearGradient>
    <linearGradient
       xlink:href="#linearGradient569"
       id="linearGradient568"
       x1="0.930233"
       y1="0.94531202"
       x2="0.162791"
       y2="-0.046875" />
    <linearGradient
       xlink:href="#linearGradient569"
       id="linearGradient572"
       x1="-0.28846201"
       y1="0.019354841"
       x2="1.076923"
       y2="1.096774" />
    <linearGradient
       xlink:href="#linearGradient616"
       id="linearGradient574"
       x1="0.930233"
       y1="0.94531202"
       x2="0.162791"
       y2="-0.046875" />
    <linearGradient
       xlink:href="#linearGradient619"
       id="linearGradient622"
       x1="-0.28846201"
       y1="0.019354841"
       x2="1.076923"
       y2="1.096774" />
    <linearGradient
       xlink:href="#linearGradient666"
       id="linearGradient669"
       x1="-0.28846201"
       y1="0.019354841"
       x2="1.076923"
       y2="1.096774" />
    <linearGradient
       xlink:href="#linearGradient670"
       id="linearGradient673"
       x1="0.930233"
       y1="0.94531202"
       x2="0.162791"
       y2="-0.046875" />
    <linearGradient
       inkscape:collect="always"
       xlink:href="#linearGradient569"
       id="linearGradient2448"
       x1="498.9872"
       y1="498.83906"
       x2="345.76058"
       y2="300.74011"
       gradientTransform="scale(0.8170185,1.2239625)"
       gradientUnits="userSpaceOnUse" />
    <linearGradient
       inkscape:collect="always"
       xlink:href="#linearGradient569"
       id="linearGradient2450"
       x1="255.66391"
       y1="313.96348"
       x2="528.27516"
       y2="529.07979"
       gradientTransform="scale(0.8170185,1.2239625)"
       gradientUnits="userSpaceOnUse" />
    <linearGradient
       inkscape:collect="always"
       xlink:href="#linearGradient670"
       id="linearGradient2452"
       x1="498.9872"
       y1="498.83906"
       x2="345.76058"
       y2="300.74011"
       gradientTransform="scale(0.8170185,1.2239625)"
       gradientUnits="userSpaceOnUse" />
    <linearGradient
       inkscape:collect="always"
       xlink:href="#linearGradient666"
       id="linearGradient2454"
       x1="255.66391"
       y1="313.96348"
       x2="528.27516"
       y2="529.07979"
       gradientTransform="scale(0.8170185,1.2239625)"
       gradientUnits="userSpaceOnUse" />
  </defs>
  <sodipodi:namedview
     id="base"
     showgrid="false"
     inkscape:zoom="3.4375"
     inkscape:cx="41.163636"
     inkscape:cy="-13.090909"
     inkscape:window-width="1272"
     inkscape:window-height="788"
     inkscape:window-x="0"
     inkscape:window-y="24"
     inkscape:current-layer="svg559" />
  <g
     id="g2425"
     transform="matrix(0.2545805,0,0,0.2545805,3.5409539,3.3421026)">
    <g
       transform="matrix(0.630699,0,0,0.630699,-18.69587,-336.2026)"
       id="g924">
      <path
         transform="matrix(0.978462,0,0,0.978461,-154.677,165.7863)"
         id="path973"
         d="M 421.2496,426.9757 L 261.2796,384.8618 L 260,582.6693 L 418.6902,628.6117 L 421.2496,426.9757 z"
         style="font-size:12px;fill-rule:evenodd;stroke-width:5.625" />
      <path
         transform="matrix(0.978462,0,0,0.978461,-154.677,165.7863)"
         id="path974"
         d="M 416.25,423.6122 L 260,382.3622 L 258.75,576.1122 L 413.75,621.1122 L 416.25,423.6122 z"
         style="font-size:12px;fill:url(#linearGradient2448);fill-rule:evenodd;stroke:url(#linearGradient2450);stroke-width:5.625" />
      <path
         transform="matrix(0.978462,0,0,0.978461,-154.677,165.7863)"
         sodipodi:nodetypes="ccccc"
         id="path975"
         d="M 416.25,423.6121 L 260,381.1121 L 258.75,489.8621 L 413.75,534.8621 L 416.25,423.6121 z"
         style="font-size:12px;fill:#ffffff;fill-opacity:0.4173;fill-rule:evenodd;stroke-width:5.625" />
      <path
         transform="matrix(0.978462,0,0,0.978461,-154.677,165.7863)"
         sodipodi:nodetypes="ccccc"
         id="path976"
         d="M 402.5,577.362 L 267.5,538.612 L 266.25,546.112 L 402.5,588.612 L 402.5,577.362 z"
         style="font-size:12px;fill-opacity:0.11809998;fill-rule:evenodd;stroke-width:5.625" />
      <path
         transform="matrix(0.978462,0,0,0.978461,-154.677,165.7863)"
         sodipodi:nodetypes="ccccc"
         id="path977"
         d="M 402.5,552.362 L 267.5,513.612 L 266.25,521.112 L 402.5,563.612 L 402.5,552.362 z"
         style="font-size:12px;fill-opacity:0.29129998;fill-rule:evenodd;stroke-width:5.625" />
      <path
         transform="matrix(0.978462,0,0,0.978461,-154.677,165.7863)"
         sodipodi:nodetypes="ccccc"
         id="path978"
         d="M 402.5,527.362 L 267.5,488.612 L 266.25,496.112 L 402.5,538.612 L 402.5,527.362 z"
         style="font-size:12px;fill-opacity:0.51969999;fill-rule:evenodd;stroke-width:5.625" />
      <path
         transform="matrix(0.978462,0,0,0.978461,-154.677,165.7863)"
         sodipodi:nodetypes="ccccc"
         id="path979"
         d="M 402.5,502.362 L 267.5,463.612 L 266.25,471.112 L 402.5,513.612 L 402.5,502.362 z"
         style="font-size:12px;fill:#00b100;fill-opacity:0.68500001;fill-rule:evenodd;stroke:#7eff00;stroke-width:5.625;stroke-opacity:0.65489999" />
      <path
         transform="matrix(0.978462,0,0,0.978461,-154.677,165.7863)"
         sodipodi:nodetypes="ccccc"
         id="path980"
         d="M 402.5,477.362 L 267.5,438.612 L 267.6591,446.112 L 402.5,488.612 L 402.5,477.362 z"
         style="font-size:12px;fill:#00b700;fill-rule:evenodd;stroke:#7eff00;stroke-width:5.625;stroke-opacity:0.65489999" />
      <path
         transform="matrix(0.978462,0,0,0.978461,-154.677,165.7863)"
         sodipodi:nodetypes="ccccc"
         id="path981"
         d="M 402.5,452.362 L 267.5,413.612 L 267.6591,420.7597 L 402.5,463.612 L 402.5,452.362 z"
         style="font-size:12px;fill-rule:evenodd;stroke-width:5.625" />
      <path
         transform="matrix(0.978462,0,0,0.978461,-154.677,165.7863)"
         sodipodi:nodetypes="ccccc"
         id="path982"
         d="M 416.25,426.1121 L 262.5,386.1121 L 260,573.6121 L 336.25,499.8621 L 416.25,426.1121 z"
         style="font-size:12px;fill:#ffffff;fill-opacity:0.18109999;fill-rule:evenodd;stroke-width:5.625" />
      <path
         transform="matrix(0.755117,0,0,0.755117,-136.636,311.6079)"
         id="path995"
         d="M 421.2496,426.9757 L 261.2796,384.8618 L 260,582.6693 L 418.6902,628.6117 L 421.2496,426.9757 z"
         style="font-size:12px;fill-rule:evenodd;stroke-width:5.625" />
      <path
         transform="matrix(0.755117,0,0,0.755117,-136.636,311.6079)"
         id="path996"
         d="M 416.25,423.6122 L 260,382.3622 L 258.75,576.1122 L 413.75,621.1122 L 416.25,423.6122 z"
         style="font-size:12px;fill:url(#linearGradient2452);fill-rule:evenodd;stroke:url(#linearGradient2454);stroke-width:5.625" />
      <path
         transform="matrix(0.755117,0,0,0.755117,-136.636,311.6079)"
         sodipodi:nodetypes="ccccc"
         id="path997"
         d="M 416.25,423.6121 L 260,381.1121 L 258.75,489.8621 L 413.75,534.8621 L 416.25,423.6121 z"
         style="font-size:12px;fill:#ffffff;fill-opacity:0.4173;fill-rule:evenodd;stroke-width:5.625" />
      <path
         transform="matrix(0.755117,0,0,0.755117,-136.636,311.6079)"
         sodipodi:nodetypes="ccccc"
         id="path998"
         d="M 402.5,577.362 L 267.5,538.612 L 267.6194,546.112 L 402.5,588.612 L 402.5,577.362 z"
         style="font-size:12px;fill-opacity:0.11809998;fill-rule:evenodd;stroke-width:5.625" />
      <path
         transform="matrix(0.755117,0,0,0.755117,-136.636,311.6079)"
         sodipodi:nodetypes="ccccc"
         id="path999"
         d="M 402.5,552.362 L 267.5,513.612 L 267.6194,521.112 L 402.5,563.612 L 402.5,552.362 z"
         style="font-size:12px;fill-opacity:0.29129998;fill-rule:evenodd;stroke-width:5.625" />
      <path
         transform="matrix(0.755117,0,0,0.755117,-136.636,311.6079)"
         sodipodi:nodetypes="ccccc"
         id="path1000"
         d="M 402.5,527.362 L 267.5,488.612 L 267.6194,496.112 L 402.5,538.612 L 402.5,527.362 z"
         style="font-size:12px;fill-opacity:0.51969999;fill-rule:evenodd;stroke-width:5.625" />
      <path
         transform="matrix(0.755117,0,0,0.755117,-136.636,311.6079)"
         sodipodi:nodetypes="ccccc"
         id="path1001"
         d="M 402.5,502.362 L 267.5,463.612 L 267.6194,471.112 L 402.5,513.612 L 402.5,502.362 z"
         style="font-size:12px;fill:#003adb;fill-opacity:0.68500001;fill-rule:evenodd;stroke:#0000ff;stroke-width:5.62830019;stroke-opacity:0.65350001" />
      <path
         transform="matrix(0.755117,0,0,0.755117,-136.636,311.6079)"
         sodipodi:nodetypes="ccccc"
         id="path1002"
         d="M 402.5,477.362 L 267.5,438.612 L 267.6194,446.112 L 402.5,488.612 L 402.5,477.362 z"
         style="font-size:12px;fill:#0044db;fill-rule:evenodd;stroke:#0000ff;stroke-width:3.31069994" />
      <path
         transform="matrix(0.755117,0,0,0.755117,-136.636,311.6079)"
         sodipodi:nodetypes="ccccc"
         id="path1003"
         d="M 402.5,452.362 L 267.5,413.612 L 267.6194,421.5685 L 402.5,463.612 L 402.5,452.362 z"
         style="font-size:12px;fill-rule:evenodd;stroke-width:5.625" />
      <path
         transform="matrix(0.755117,0,0,0.755117,-136.636,311.6079)"
         sodipodi:nodetypes="ccccc"
         id="path1004"
         d="M 416.25,426.1121 L 262.5,386.1121 L 260,573.6121 L 336.25,499.8621 L 416.25,426.1121 z"
         style="font-size:12px;fill:#ffffff;fill-opacity:0.18109999;fill-rule:evenodd;stroke-width:5.625" />
    </g>
  </g>
</svg>
