<?xml version="1.0" encoding="UTF-8" standalone="no"?>
<!-- Created with Inkscape (http://www.inkscape.org/) -->

<svg
   xmlns:dc="http://purl.org/dc/elements/1.1/"
   xmlns:cc="http://creativecommons.org/ns#"
   xmlns:rdf="http://www.w3.org/1999/02/22-rdf-syntax-ns#"
   xmlns:svg="http://www.w3.org/2000/svg"
   xmlns="http://www.w3.org/2000/svg"
   xmlns:xlink="http://www.w3.org/1999/xlink"
   xmlns:sodipodi="http://sodipodi.sourceforge.net/DTD/sodipodi-0.dtd"
   xmlns:inkscape="http://www.inkscape.org/namespaces/inkscape"
   id="svg3082"
   height="48"
   width="48"
   version="1.1"
   inkscape:version="0.48.1 r9760"
   sodipodi:docname="preferences-system-windows-actions.svg">
  <metadata
     id="metadata58">
    <rdf:RDF>
      <cc:Work
         rdf:about="">
        <dc:format>image/svg+xml</dc:format>
        <dc:type
           rdf:resource="http://purl.org/dc/dcmitype/StillImage" />
        <dc:title></dc:title>
      </cc:Work>
    </rdf:RDF>
  </metadata>
  <sodipodi:namedview
     pagecolor="#ffffff"
     bordercolor="#666666"
     borderopacity="1"
     objecttolerance="10"
     gridtolerance="10"
     guidetolerance="10"
     inkscape:pageopacity="0"
     inkscape:pageshadow="2"
     inkscape:window-width="640"
     inkscape:window-height="480"
     id="namedview56"
     showgrid="false"
     inkscape:zoom="5.0030925"
     inkscape:cx="23.881908"
     inkscape:cy="21.766095"
     inkscape:current-layer="layer1" />
  <defs
     id="defs3084">
    <linearGradient
       id="linearGradient3315">
      <stop
         id="stop3317"
         style="stop-color:#fff"
         offset="0" />
      <stop
         id="stop3319"
         style="stop-color:#fff;stop-opacity:0"
         offset="1" />
    </linearGradient>
    <linearGradient
       id="linearGradient6457">
      <stop
         id="stop6459"
         style="stop-color:#fff;stop-opacity:.94118"
         offset="0" />
      <stop
         id="stop6461"
         style="stop-color:#fff;stop-opacity:.70588"
         offset="1" />
    </linearGradient>
    <linearGradient
       id="linearGradient5060">
      <stop
         id="stop5062"
         offset="0" />
      <stop
         id="stop5064"
         style="stop-opacity:0"
         offset="1" />
    </linearGradient>
    <linearGradient
       id="linearGradient5048">
      <stop
         id="stop5050"
         style="stop-opacity:0"
         offset="0" />
      <stop
         id="stop5056"
         offset=".5" />
      <stop
         id="stop5052"
         style="stop-opacity:0"
         offset="1" />
    </linearGradient>
    <linearGradient
       id="linearGradient2781">
      <stop
         id="stop2783"
         style="stop-color:#505050"
         offset="0" />
      <stop
         id="stop6301"
         style="stop-color:#6e6e6e"
         offset=".13216" />
      <stop
         id="stop2785"
         style="stop-color:#8c8c8c"
         offset="1" />
    </linearGradient>
    <linearGradient
       id="linearGradient4168">
      <stop
         id="stop4170"
         style="stop-color:#f8cd70"
         offset="0" />
      <stop
         id="stop4172"
         style="stop-color:#cc9110"
         offset="1" />
    </linearGradient>
    <radialGradient
       id="radialGradient5578"
       xlink:href="#linearGradient4168"
       gradientUnits="userSpaceOnUse"
       cy="9.9662"
       cx="40.128"
       gradientTransform="matrix(1.2428 .0000014730 -.0000014998 1.2756 -25.876 7.2872)"
       r="1.0607" />
    <radialGradient
       id="radialGradient5581"
       xlink:href="#linearGradient4168"
       gradientUnits="userSpaceOnUse"
       cy="9.9662"
       cx="40.128"
       gradientTransform="matrix(1.2428 .0000015058 -.0000014998 1.2478 -22.876 7.5639)"
       r="1.0607" />
    <radialGradient
       id="radialGradient5584"
       xlink:href="#linearGradient4168"
       gradientUnits="userSpaceOnUse"
       cy="9.9662"
       cx="40.128"
       gradientTransform="matrix(1.2428 -1.0647e-7 1.0132e-7 1.1923 -19.876 8.1174)"
       r="1.0607" />
    <linearGradient
       id="linearGradient5587"
       y2="40"
       xlink:href="#linearGradient6457"
       gradientUnits="userSpaceOnUse"
       x2="24"
       gradientTransform="matrix(.76316 0 0 .74074 -.81579 13.37)"
       y1="13"
       x1="24" />
    <linearGradient
       id="linearGradient5590"
       y2="38.927"
       xlink:href="#linearGradient3315"
       gradientUnits="userSpaceOnUse"
       x2="15.935"
       gradientTransform="matrix(.96774 0 0 .89655 -6.6935 8.9828)"
       y1="9.0735"
       x1="16.034" />
    <linearGradient
       id="linearGradient5593"
       y2="39.924"
       xlink:href="#linearGradient2781"
       gradientUnits="userSpaceOnUse"
       x2="21.78"
       gradientTransform="matrix(.96970 0 0 .91803 -6.7424 8.2377)"
       y1="8.5763"
       x1="21.866" />
    <linearGradient
       id="linearGradient5599"
       y2="609.51"
       xlink:href="#linearGradient5048"
       gradientUnits="userSpaceOnUse"
       x2="302.86"
       gradientTransform="matrix(2.7744 0 0 1.9697 -1892.2 -872.89)"
       y1="366.65"
       x1="302.86" />
    <radialGradient
       id="radialGradient5601"
       xlink:href="#linearGradient5060"
       gradientUnits="userSpaceOnUse"
       cy="486.65"
       cx="605.71"
       gradientTransform="matrix(2.7744 0 0 1.9697 -1891.6 -872.89)"
       r="117.14" />
    <radialGradient
       id="radialGradient5603"
       xlink:href="#linearGradient5060"
       gradientUnits="userSpaceOnUse"
       cy="486.65"
       cx="605.71"
       gradientTransform="matrix(-2.7744 0 0 1.9697 112.76 -872.89)"
       r="117.14" />
    <linearGradient
       gradientTransform="translate(-67.048193,-9.9036144)"
       gradientUnits="userSpaceOnUse"
       xlink:href="#linearGradient3309"
       id="linearGradient2517"
       y2="47.012184"
       x2="32.036148"
       y1="19"
       x1="32.036148" />
    <linearGradient
       gradientUnits="userSpaceOnUse"
       id="linearGradient3309"
       y2="122.8994"
       x2="63.9995"
       y1="3.1001"
       x1="63.9995">
      <stop
         offset="0"
         style="stop-color:#f6f6f6;stop-opacity:1"
         id="stop3311" />
      <stop
         offset="1"
         style="stop-color:#d2d2d2;stop-opacity:1"
         id="stop3313" />
    </linearGradient>
    <linearGradient
       gradientTransform="translate(-67.048193,-9.9036144)"
       gradientUnits="userSpaceOnUse"
       xlink:href="#linearGradient3397"
       id="linearGradient2519"
       y2="47.044857"
       x2="25.922546"
       y1="19"
       x1="25.922546" />
    <linearGradient
       id="linearGradient3397">
      <stop
         offset="0"
         style="stop-color:#aaaaaa;stop-opacity:1"
         id="stop3399" />
      <stop
         offset="1"
         style="stop-color:#8c8c8c;stop-opacity:1"
         id="stop3401" />
    </linearGradient>
    <linearGradient
       gradientTransform="matrix(0.2014014,0,0,0.2014015,-48.937888,10.408091)"
       gradientUnits="userSpaceOnUse"
       xlink:href="#linearGradient5128"
       id="linearGradient2521"
       y2="20.895"
       x2="84.63858"
       y1="105.105"
       x1="86.132919" />
    <linearGradient
       id="linearGradient5128">
      <stop
         offset="0"
         style="stop-color:#ffffff;stop-opacity:1"
         id="stop5130" />
      <stop
         offset="1"
         style="stop-color:#959595;stop-opacity:1"
         id="stop5132" />
    </linearGradient>
  </defs>
  <g
     id="g6429">
    <g
       id="g6389"
       transform="translate(13,-15)">
      <g
         id="g6391"
         style="opacity:.58730"
         transform="matrix(.017238 0 0 .012543 32.832 43.39)">
        <rect
           id="rect6393"
           style="opacity:.40206;fill:url(#linearGradient5599)"
           height="478.36"
           width="1339.6"
           y="-150.7"
           x="-1559.3" />
        <path
           id="path6395"
           style="opacity:.40206;fill:url(#radialGradient5601)"
           d="m-219.62-150.68v478.33c142.87 0.90045 345.4-107.17 345.4-239.2s-159.44-239.13-345.4-239.13z" />
        <path
           id="path6397"
           style="opacity:.40206;fill:url(#radialGradient5603)"
           d="m-1559.3-150.68v478.33c-142.87 0.90045-345.4-107.17-345.4-239.2s159.44-239.13 345.4-239.13z" />
      </g>
      <rect
         id="rect6399"
         style="stroke:#565853;fill:url(#linearGradient5593)"
         rx="2"
         ry="2"
         height="28"
         width="32"
         y="16.5"
         x="1.5" />
      <rect
         id="rect6401"
         style="opacity:.2;stroke:url(#linearGradient5590);fill:none"
         rx="1"
         ry="1"
         height="26"
         width="30"
         y="17.5"
         x="2.5" />
      <rect
         id="rect6403"
         style="fill:url(#linearGradient5587)"
         rx=".5"
         ry=".5"
         height="20"
         width="29"
         y="23"
         x="3" />
      <path
         id="path6405"
         style="fill:url(#radialGradient5584)"
         d="m30.991 20c0 0.552-0.445 1-0.995 1s-0.996-0.448-0.996-1c-0.000238-0.55221 0.44555-1 0.99554-1s0.99578 0.44779 0.99554 1z" />
      <path
         id="path6407"
         style="fill:url(#radialGradient5581)"
         d="m27.991 20c0 0.552-0.445 1-0.995 1s-0.996-0.448-0.996-1 0.446-1 0.996-1c0.54999 0 0.99578 0.44779 0.99554 1z" />
      <path
         id="path6409"
         style="fill:url(#radialGradient5578)"
         d="m24.991 20c0 0.552-0.445 1-0.995 1s-0.996-0.448-0.996-1 0.446-1 0.996-1c0.54999 0 0.99578 0.44779 0.99554 1z" />
    </g>
    <g
       id="g6377">
      <g
         id="g5022"
         style="opacity:.58730"
         transform="matrix(.017238 0 0 .012543 32.832 43.39)">
        <rect
           id="rect4173"
           style="opacity:.40206;fill:url(#linearGradient5599)"
           height="478.36"
           width="1339.6"
           y="-150.7"
           x="-1559.3" />
        <path
           id="path5058"
           style="opacity:.40206;fill:url(#radialGradient5601)"
           d="m-219.62-150.68v478.33c142.87 0.90045 345.4-107.17 345.4-239.2s-159.44-239.13-345.4-239.13z" />
        <path
           id="path5018"
           style="opacity:.40206;fill:url(#radialGradient5603)"
           d="m-1559.3-150.68v478.33c-142.87 0.90045-345.4-107.17-345.4-239.2s159.44-239.13 345.4-239.13z" />
      </g>
      <rect
         id="rect1887"
         style="stroke:#565853;fill:url(#linearGradient5593)"
         rx="2"
         ry="2"
         height="28"
         width="32"
         y="16.5"
         x="1.5" />
      <rect
         id="rect2779"
         style="opacity:.2;stroke:url(#linearGradient5590);fill:none"
         rx="1"
         ry="1"
         height="26"
         width="30"
         y="17.5"
         x="2.5" />
      <rect
         id="rect6287"
         style="fill:url(#linearGradient5587)"
         rx=".5"
         ry=".5"
         height="20"
         width="29"
         y="23"
         x="3" />
      <path
         id="path6289"
         style="fill:url(#radialGradient5584)"
         d="m30.991 20c0 0.552-0.445 1-0.995 1s-0.996-0.448-0.996-1c-0.000238-0.55221 0.44555-1 0.99554-1s0.99578 0.44779 0.99554 1z" />
      <path
         id="path6291"
         style="fill:url(#radialGradient5581)"
         d="m27.991 20c0 0.552-0.445 1-0.995 1s-0.996-0.448-0.996-1 0.446-1 0.996-1c0.54999 0 0.99578 0.44779 0.99554 1z" />
      <path
         id="path6293"
         style="fill:url(#radialGradient5578)"
         d="m24.991 20c0 0.552-0.445 1-0.995 1s-0.996-0.448-0.996-1 0.446-1 0.996-1c0.54999 0 0.99578 0.44779 0.99554 1z" />
    </g>
  </g>
  <g
     id="layer1"
     transform="translate(-52.882446,-1.9739357)">
    <g
       id="g2512"
       transform="translate(122.93064,12.87755)">
      <path
         style="fill:url(#linearGradient2517);fill-opacity:1;fill-rule:nonzero;stroke:url(#linearGradient2519);stroke-width:1;stroke-linecap:butt;stroke-linejoin:round;stroke-miterlimit:4;stroke-opacity:1;stroke-dasharray:none;stroke-dashoffset:0;marker:none;visibility:visible;display:block;overflow:visible;enable-background:accumulate"
         id="rect2576"
         d="m -38.173192,9.5963856 c -0.748739,0 -1.375,0.5950124 -1.375,1.3437504 l 0,1.749999 c -0.473402,0.158876 -0.932751,0.343406 -1.375,0.5625 l -1.21875,-1.21875 c -0.529439,-0.529438 -1.376813,-0.529438 -1.90625,0 l -3.0625,3.03125 c -0.529439,0.529438 -0.529436,1.376813 0,1.90625 l 1.21875,1.218751 c -0.224327,0.449932 -0.400633,0.923932 -0.5625,1.40625 l -1.71875,0 c -0.748739,0 -1.375003,0.595012 -1.375,1.34375 l 0,4.3125 c -10e-7,0.748738 0.626264,1.343752 1.375,1.34375 l 1.71875,0 c 0.161867,0.482318 0.338173,0.956318 0.5625,1.40625 l -1.21875,1.21875 c -0.529439,0.529438 -0.52944,1.376812 0,1.90625 l 3.0625,3.03125 c 0.529437,0.529438 1.376813,0.529436 1.90625,0 l 1.21875,-1.21875 c 0.442249,0.219094 0.901598,0.403624 1.375,0.5625 l 0,1.75 c -10e-7,0.748738 0.626266,1.343752 1.375,1.34375 l 4.28125,0 c 0.748739,0 1.34375,-0.595014 1.34375,-1.34375 l 0,-1.75 c 0.482318,-0.161868 0.956318,-0.338173 1.40625,-0.5625 l 1.218749,1.21875 c 0.529439,0.529438 1.376811,0.529438 1.90625,0 l 3.0625,-3.03125 c 0.529439,-0.529438 0.529434,-1.376814 0,-1.90625 l -1.25,-1.25 c 0.219094,-0.442249 0.403624,-0.901598 0.5625,-1.375 l 1.75,0 c 0.748739,0 1.34375,-0.595014 1.34375,-1.34375 l 0,-4.3125 c 1e-6,-0.748738 -0.595016,-1.34375 -1.34375,-1.34375 l -1.75,0 c -0.158876,-0.473402 -0.343406,-0.932751 -0.5625,-1.375 l 1.25,-1.250001 c 0.529439,-0.529438 0.529438,-1.376812 0,-1.90625 l -3.0625,-3.03125 c -0.529437,-0.529438 -1.376814,-0.529438 -1.90625,0 l -1.218749,1.21875 c -0.449932,-0.224327 -0.923932,-0.400632 -1.40625,-0.5625 l 0,-1.749999 c 10e-7,-0.748738 -0.595016,-1.3437504 -1.34375,-1.3437504 l -4.28125,0 z m 2.125,10.0000004 c 1.932,0 3.5,1.568 3.5,3.5 0,1.932 -1.568,3.5 -3.5,3.5 -1.932001,0 -3.5,-1.568 -3.5,-3.5 -10e-7,-1.932 1.568,-3.5 3.5,-3.5 z"
         inkscape:connector-curvature="0" />
      <path
         style="opacity:0.05;fill:#000000;fill-opacity:1;stroke:none"
         id="path3315"
         d="m -36.048192,15.096385 c -4.411273,0 -7.999998,3.588728 -7.999998,8.000001 0,4.411274 3.588725,8 7.999998,8 4.411273,0 7.999999,-3.588726 7.999999,-8 0,-4.411273 -3.588726,-8.000001 -7.999999,-8.000001 z m 0,3.69231 c 2.377844,0 4.307693,1.929846 4.307693,4.307691 0,2.377847 -1.929849,4.307693 -4.307693,4.307693 -2.377846,0 -4.307691,-1.929846 -4.307691,-4.307693 0,-2.377845 1.929845,-4.307691 4.307691,-4.307691 z"
         inkscape:connector-curvature="0" />
      <path
         style="fill:none;stroke:url(#linearGradient2521);stroke-width:1;stroke-miterlimit:4;stroke-dasharray:none"
         id="path28"
         d="m -36.048192,14.717076 c -4.620353,0 -8.379309,3.758958 -8.379309,8.379309 0,4.620352 3.758956,8.37931 8.379309,8.37931 4.620353,0 8.379309,-3.758958 8.379309,-8.37931 0,-4.620351 -3.758956,-8.379309 -8.379309,-8.379309 z"
         inkscape:connector-curvature="0" />
    </g>
  </g>
</svg>
