<?xml version="1.0" encoding="UTF-8" standalone="no"?>
<!-- Created with Inkscape (http://www.inkscape.org/) -->
<svg
   xmlns:dc="http://purl.org/dc/elements/1.1/"
   xmlns:cc="http://web.resource.org/cc/"
   xmlns:rdf="http://www.w3.org/1999/02/22-rdf-syntax-ns#"
   xmlns:svg="http://www.w3.org/2000/svg"
   xmlns="http://www.w3.org/2000/svg"
   xmlns:xlink="http://www.w3.org/1999/xlink"
   xmlns:sodipodi="http://sodipodi.sourceforge.net/DTD/sodipodi-0.dtd"
   xmlns:inkscape="http://www.inkscape.org/namespaces/inkscape"
   inkscape:export-ydpi="240"
   inkscape:export-xdpi="240"
   inkscape:export-filename="/home/jesusda/Desktop/pasodoble/pasodoble/feed.png"
   width="48px"
   height="48px"
   id="svg11300"
   sodipodi:version="0.32"
   inkscape:version="0.44"
   sodipodi:docbase="/home/jesusda/Desktop/pasodoble/pasodoble"
   sodipodi:docname="quanta.svg">
  <defs
     id="defs3">
    <linearGradient
       id="linearGradient6742">
      <stop
         style="stop-color:#ffcf48;stop-opacity:1;"
         offset="0"
         id="stop6744" />
      <stop
         style="stop-color:#ffb600;stop-opacity:1;"
         offset="1"
         id="stop6746" />
    </linearGradient>
    <linearGradient
       id="linearGradient3684">
      <stop
         id="stop3686"
         offset="0"
         style="stop-color:#7099cc;stop-opacity:1;" />
      <stop
         id="stop3688"
         offset="1"
         style="stop-color:#3465a4;stop-opacity:1;" />
    </linearGradient>
    <radialGradient
       inkscape:collect="always"
       xlink:href="#linearGradient3684"
       id="radialGradient3696"
       cx="19.885843"
       cy="33.766445"
       fx="19.885843"
       fy="33.766445"
       r="17.731073"
       gradientTransform="matrix(0.978641,-0.19838,0.251178,1.153857,-7.739005,-0.923036)"
       gradientUnits="userSpaceOnUse" />
    <radialGradient
       r="17.6875"
       fy="39.125"
       fx="24.8125"
       cy="39.125"
       cx="24.8125"
       gradientTransform="matrix(1,0,0,0.374558,0,24.47041)"
       gradientUnits="userSpaceOnUse"
       id="radialGradient2260"
       xlink:href="#linearGradient3041"
       inkscape:collect="always" />
    <linearGradient
       id="linearGradient3041"
       inkscape:collect="always">
      <stop
         id="stop3043"
         offset="0"
         style="stop-color:#000000;stop-opacity:1;" />
      <stop
         id="stop3045"
         offset="1"
         style="stop-color:#000000;stop-opacity:0;" />
    </linearGradient>
    <linearGradient
       id="linearGradient3049">
      <stop
         id="stop3051"
         offset="0"
         style="stop-color:#b6b6b6;stop-opacity:1;" />
      <stop
         style="stop-color:#f2f2f2;stop-opacity:1;"
         offset="0.5"
         id="stop2262" />
      <stop
         id="stop2264"
         offset="0.67612958"
         style="stop-color:#fafafa;stop-opacity:1;" />
      <stop
         style="stop-color:#d8d8d8;stop-opacity:1;"
         offset="0.84051722"
         id="stop2268" />
      <stop
         style="stop-color:#f2f2f2;stop-opacity:1;"
         offset="0.875"
         id="stop2266" />
      <stop
         id="stop3053"
         offset="1"
         style="stop-color:#dbdbdb;stop-opacity:1;" />
    </linearGradient>
    <linearGradient
       id="linearGradient3061">
      <stop
         id="stop3063"
         offset="0"
         style="stop-color:#ffffff;stop-opacity:1;" />
      <stop
         id="stop3065"
         offset="1"
         style="stop-color:#000000;stop-opacity:1;" />
    </linearGradient>
    <linearGradient
       id="linearGradient2257"
       inkscape:collect="always">
      <stop
         id="stop2259"
         offset="0"
         style="stop-color:#ffffff;stop-opacity:1;" />
      <stop
         id="stop2261"
         offset="1"
         style="stop-color:#ffffff;stop-opacity:0;" />
    </linearGradient>
    <radialGradient
       inkscape:collect="always"
       xlink:href="#linearGradient3041"
       id="radialGradient3982"
       gradientUnits="userSpaceOnUse"
       gradientTransform="matrix(1,0,0,0.374558,0,24.47041)"
       cx="24.8125"
       cy="39.125"
       fx="24.8125"
       fy="39.125"
       r="17.6875" />
    <linearGradient
       inkscape:collect="always"
       xlink:href="#linearGradient3049"
       id="linearGradient3990"
       gradientUnits="userSpaceOnUse"
       gradientTransform="matrix(0.87827,0,0,0.87827,-50.1934,-40.52991)"
       x1="19.648342"
       y1="42.253601"
       x2="20.631224"
       y2="6.7758031" />
    <linearGradient
       inkscape:collect="always"
       xlink:href="#linearGradient3061"
       id="linearGradient3992"
       gradientUnits="userSpaceOnUse"
       gradientTransform="matrix(0.87827,0,0,0.87827,-64.05772,7.659037)"
       x1="50.152931"
       y1="-3.6324477"
       x2="25.291086"
       y2="-4.3002653" />
    <linearGradient
       inkscape:collect="always"
       xlink:href="#linearGradient2257"
       id="linearGradient4890"
       x1="10.864617"
       y1="2.7207279"
       x2="17.875"
       y2="25.512959"
       gradientUnits="userSpaceOnUse"
       gradientTransform="translate(8.838835e-2,-8.838835e-2)" />
    <radialGradient
       inkscape:collect="always"
       xlink:href="#linearGradient3684"
       id="radialGradient5813"
       gradientUnits="userSpaceOnUse"
       gradientTransform="matrix(0.867836,-0.496852,0.56428,0.98561,-2.123312,18.52066)"
       cx="39.583527"
       cy="14.033572"
       fx="39.583527"
       fy="14.033572"
       r="8.1962891" />
    <linearGradient
       inkscape:collect="always"
       xlink:href="#linearGradient2257"
       id="linearGradient5815"
       gradientUnits="userSpaceOnUse"
       gradientTransform="matrix(1.014563,0,0,1.057821,-1.299123,-0.31976)"
       x1="36.466805"
       y1="4.9432521"
       x2="40.218781"
       y2="8.9583149" />
    <radialGradient
       inkscape:collect="always"
       xlink:href="#linearGradient6742"
       id="radialGradient6753"
       gradientUnits="userSpaceOnUse"
       gradientTransform="matrix(0.867836,-0.496852,0.56428,0.98561,16.37041,35.07872)"
       cx="39.583527"
       cy="14.033572"
       fx="39.583527"
       fy="14.033572"
       r="8.1962891" />
    <linearGradient
       inkscape:collect="always"
       xlink:href="#linearGradient2257"
       id="linearGradient6755"
       gradientUnits="userSpaceOnUse"
       gradientTransform="matrix(1.014563,0,0,1.057821,17.1946,16.2383)"
       x1="36.466805"
       y1="4.9432521"
       x2="40.218781"
       y2="8.9583149" />
  </defs>
  <sodipodi:namedview
     stroke="#3465a4"
     fill="#729fcf"
     id="base"
     pagecolor="#ffffff"
     bordercolor="#666"
     borderopacity="1"
     inkscape:pageopacity="0.0"
     inkscape:pageshadow="2"
     inkscape:zoom="1.4142136"
     inkscape:cx="27.095827"
     inkscape:cy="17.493397"
     inkscape:current-layer="layer1"
     showgrid="false"
     inkscape:grid-bbox="true"
     inkscape:document-units="px"
     inkscape:showpageshadow="false"
     inkscape:window-width="1272"
     inkscape:window-height="745"
     inkscape:window-x="0"
     inkscape:window-y="30"
     showguides="true"
     inkscape:guide-bbox="true" />
  <metadata
     id="metadata4">
    <rdf:RDF>
      <cc:Work
         rdf:about="">
        <dc:format>image/svg+xml</dc:format>
        <dc:type
           rdf:resource="http://purl.org/dc/dcmitype/StillImage" />
        <dc:creator>
          <cc:Agent>
            <dc:title>jEsuSdA 8)</dc:title>
          </cc:Agent>
        </dc:creator>
        <dc:source>http://www.jesusda.com</dc:source>
        <cc:license
           rdf:resource="http://creativecommons.org/licenses/by-sa/2.0/" />
        <dc:title>Quanta +</dc:title>
        <dc:subject>
          <rdf:Bag>
            <rdf:li>development</rdf:li>
            <rdf:li>quanta</rdf:li>
            <rdf:li>plus</rdf:li>
            <rdf:li>web</rdf:li>
            <rdf:li>html</rdf:li>
            <rdf:li>xhtml</rdf:li>
            <rdf:li>php</rdf:li>
            <rdf:li>editor</rdf:li>
          </rdf:Bag>
        </dc:subject>
      </cc:Work>
      <cc:License
         rdf:about="http://creativecommons.org/licenses/by-sa/2.0/">
        <cc:permits
           rdf:resource="http://web.resource.org/cc/Reproduction" />
        <cc:permits
           rdf:resource="http://web.resource.org/cc/Distribution" />
        <cc:requires
           rdf:resource="http://web.resource.org/cc/Notice" />
        <cc:requires
           rdf:resource="http://web.resource.org/cc/Attribution" />
        <cc:permits
           rdf:resource="http://web.resource.org/cc/DerivativeWorks" />
        <cc:requires
           rdf:resource="http://web.resource.org/cc/ShareAlike" />
      </cc:License>
    </rdf:RDF>
  </metadata>
  <g
     id="layer1"
     inkscape:label="Layer 1"
     inkscape:groupmode="layer">
    <path
       transform="matrix(1.373026,0,0,1.057855,-12.74562,-0.631022)"
       d="M 42.5 39.125 A 17.6875 6.625 0 1 1  7.125,39.125 A 17.6875 6.625 0 1 1  42.5 39.125 z"
       sodipodi:ry="6.625"
       sodipodi:rx="17.6875"
       sodipodi:cy="39.125"
       sodipodi:cx="24.8125"
       id="path2258"
       style="opacity:0.59000005;color:black;fill:url(#radialGradient2260);fill-opacity:1;fill-rule:nonzero;stroke:none;stroke-width:1;stroke-linecap:butt;stroke-linejoin:miter;marker:none;marker-start:none;marker-mid:none;marker-end:none;stroke-miterlimit:4;stroke-dasharray:none;stroke-dashoffset:0;stroke-opacity:1;visibility:visible;display:inline;overflow:visible"
       sodipodi:type="arc" />
    <path
       transform="scale(0.982338,1.017979)"
       style="font-size:44.81173325px;font-style:normal;font-variant:normal;font-weight:normal;font-stretch:normal;text-align:start;line-height:100%;writing-mode:lr-tb;text-anchor:start;fill:url(#radialGradient3696);fill-opacity:1;stroke:#204a87;stroke-width:1.00000024;stroke-linecap:butt;stroke-linejoin:miter;stroke-miterlimit:4;stroke-opacity:1;font-family:Arial Black"
       d="M 31.308608,35.568237 C 32.548483,36.428883 33.358069,36.968607 33.737369,37.187411 C 34.306233,37.508331 35.072058,37.880303 36.034845,38.303328 L 33.277873,43.861034 C 31.892061,43.190022 30.52087,42.387729 29.164296,41.454153 C 27.807663,40.535163 26.859499,39.842273 26.319801,39.375484 C 24.131704,40.323649 21.389322,40.797731 18.092647,40.797732 C 13.220525,40.797731 9.3768137,39.52865 6.561503,36.990485 C 3.2356285,33.985538 1.5726948,29.762561 1.5726968,24.321543 C 1.5726948,19.041014 3.024115,14.942029 5.9269619,12.024573 C 8.8443831,9.0925862 12.914195,7.6265788 18.136409,7.6265462 C 23.460696,7.6265788 27.566975,9.0561184 30.455259,11.915169 C 33.358069,14.774277 34.809489,18.865969 34.809524,24.190258 C 34.809489,28.931094 33.642518,32.72375 31.308608,35.568237 M 23.715995,30.491908 C 24.503676,29.076966 24.897529,26.96183 24.897554,24.146497 C 24.897529,20.908168 24.292162,18.596107 23.081454,17.210306 C 21.885285,15.82455 20.229644,15.131661 18.114528,15.131636 C 16.145246,15.131661 14.547954,15.839138 13.322648,17.254067 C 12.097315,18.669042 11.484655,20.878994 11.484667,23.883928 C 11.484655,27.384857 12.082728,29.84279 13.278887,31.257734 C 14.475018,32.672695 16.116072,33.380171 18.202051,33.380164 C 18.873041,33.380171 19.507581,33.314529 20.105674,33.183238 C 19.274187,32.380952 17.961344,31.622421 16.167143,30.907642 L 17.720675,27.341083 C 18.595885,27.501555 19.274187,27.698481 19.755583,27.931863 C 20.251525,28.165269 21.206983,28.777929 22.621958,29.769844 C 22.957439,30.003249 23.322118,30.243937 23.715995,30.491908"
       id="text1896" />
    <path
       id="path3700"
       d="M 29.420572,36.398162 C 30.57744,37.228 31.051576,37.717154 31.405483,37.928125 C 31.936262,38.237558 33.150818,39.096215 34.049148,39.504098 L 32.351749,43.362862 C 31.058714,42.715869 29.654322,41.692295 28.388567,40.792136 C 27.122759,39.906043 26.488072,39.425454 25.984505,38.975375 C 23.942898,39.889598 20.759113,40.596712 17.683143,40.596713 C 13.1372,40.596712 9.6133171,39.310559 6.9864859,36.863249 C 3.8832718,33.965866 2.4566682,30.081554 2.45667,24.835301 C 2.4566682,19.743793 3.6234188,15.791534 6.3319261,12.978511 C 9.0540318,10.151476 12.851378,8.7379455 17.723976,8.737914 C 22.691813,8.7379455 26.523184,10.116313 29.218104,12.873022 C 31.926576,15.629786 33.280826,19.575013 33.280859,24.708715 C 33.280826,29.27985 32.035731,33.342995 29.420572,36.398162 z M 23.742519,32.472293 C 25.414966,29.670501 25.357655,26.63062 25.407475,23.916522 C 25.462435,20.922401 24.924137,19.1092 23.40046,16.853616 C 21.846871,14.767465 19.677072,14.411879 17.70356,14.411855 C 15.866117,14.411879 13.938261,15.094031 12.794985,16.458311 C 11.651686,17.822635 10.142544,19.953481 10.267554,25.350851 C 10.346632,28.725534 11.200575,31.658911 13.129154,33.148206 C 14.524248,34.225531 15.963895,34.944669 17.910223,34.944662 C 18.536291,34.944669 21.44085,34.506377 21.998902,34.379784 C 21.223081,33.606218 18.81063,31.624838 17.136547,30.935646 L 17.961073,28.996753 C 18.77769,29.151483 19.473081,29.716358 19.922249,29.941387 C 20.384988,30.166437 21.276482,30.819668 22.596727,31.776076 C 22.909747,32.001126 23.375012,32.233198 23.742519,32.472293 z "
       style="font-size:44.81173325px;font-style:normal;font-variant:normal;font-weight:normal;font-stretch:normal;text-align:start;line-height:100%;writing-mode:lr-tb;text-anchor:start;fill:none;fill-opacity:1;stroke:white;stroke-width:0.94850051;stroke-linecap:butt;stroke-linejoin:miter;stroke-miterlimit:4;stroke-opacity:0.41525424;font-family:Arial Black"
       sodipodi:nodetypes="csccccscssscsccscssssscccssc" />
    <flowRoot
       xml:space="preserve"
       id="flowRoot12974"
       transform="translate(-65.10861,-36.50787)"><flowRegion
         id="flowRegion12976"><rect
           id="rect12978"
           width="40.055775"
           height="16.02231"
           x="86.787514"
           y="412.80496" /></flowRegion><flowPara
         id="flowPara12980" /></flowRoot>    <path
       style="fill:url(#linearGradient4890);fill-opacity:1;fill-rule:evenodd;stroke:none;stroke-width:1px;stroke-linecap:butt;stroke-linejoin:miter;stroke-opacity:1"
       d="M 18.557138,9.8491117 C 16.308426,9.7841529 13.958058,10.070083 12.088388,10.724112 C 9.5152281,11.811887 5.8192368,14.017149 4.5991116,18.536612 C 4.1367919,20.394602 3.7116829,23.316848 3.7866116,25.411612 C 5.4543432,25.442143 6.8487326,25.436473 9.1044733,25.192862 C 9.0997174,25.04482 9.2607233,22.842417 9.2607233,22.692862 C 9.2607234,16.885884 12.908418,13.334517 17.932138,13.286612 C 23.815158,13.231203 25.579029,17.03249 26.541053,21.442862 C 28.800771,20.674776 29.985792,20.130645 31.213388,19.224112 C 29.744032,14.801716 28.831364,13.585386 24.666053,11.125 C 23.218072,10.418306 20.80585,9.9140707 18.557138,9.8491117 z "
       id="path3994"
       sodipodi:nodetypes="cccccsscccc" />
    <g
       id="g5808"
       transform="translate(-0.131282,0.308058)">
      <path
         id="text1900"
         d="M 31.45125,6.4136537 L 36.854877,6.4136537 L 36.854877,0.98180898 L 41.411983,0.98180898 L 41.411983,6.4136537 L 46.843828,6.4136537 L 46.843828,10.984868 L 41.411983,10.984868 L 41.411983,16.388495 L 36.854877,16.388495 L 36.854877,10.984868 L 31.45125,10.984868 L 31.45125,6.4136537"
         style="font-size:28.89459229px;font-style:normal;font-variant:normal;font-weight:normal;font-stretch:normal;text-align:start;line-height:125%;writing-mode:lr-tb;text-anchor:start;fill:url(#radialGradient5813);fill-opacity:1;stroke:#204a87;stroke-width:1px;stroke-linecap:butt;stroke-linejoin:miter;stroke-opacity:1;font-family:Arial Black" />
      <path
         sodipodi:nodetypes="ccccccccccccc"
         style="font-size:28.89459229px;font-style:normal;font-variant:normal;font-weight:normal;font-stretch:normal;text-align:start;line-height:125%;writing-mode:lr-tb;text-anchor:start;fill:none;fill-opacity:1;stroke:white;stroke-width:1;stroke-linecap:butt;stroke-linejoin:miter;stroke-miterlimit:4;stroke-dasharray:none;stroke-opacity:0.41568627;font-family:Arial Black"
         d="M 32.407065,7.4598291 L 37.820383,7.4598291 L 37.820383,1.9818178 L 40.405463,1.9818178 L 40.405463,7.4598291 L 45.932208,7.4598291 L 45.932208,9.9792232 L 40.405463,9.9792232 L 40.405463,15.388486 L 37.864577,15.388486 L 37.864577,9.9792232 L 32.407065,9.9792232 L 32.407065,7.4598291"
         id="path3706" />
      <path
         sodipodi:nodetypes="ccccccc"
         id="rect4892"
         d="M 38.681029,2.6884199 L 38.681029,8.2089262 L 33.48139,8.2089262 C 33.008271,9.7716713 33.930532,8.864536 34.115492,9.13452 L 39.505362,9.13452 L 39.505362,2.6884199 L 38.681029,2.6884199 z "
         style="opacity:1;fill:url(#linearGradient5815);fill-opacity:1;stroke:none;stroke-width:1;stroke-linecap:round;stroke-linejoin:miter;stroke-miterlimit:4;stroke-dasharray:none;stroke-dashoffset:0;stroke-opacity:0.41568627" />
    </g>
  </g>
</svg>
