<?xml version="1.0" encoding="UTF-8" standalone="no"?>
<!-- Created with Inkscape (http://www.inkscape.org/) -->

<svg
   xmlns:dc="http://purl.org/dc/elements/1.1/"
   xmlns:cc="http://creativecommons.org/ns#"
   xmlns:rdf="http://www.w3.org/1999/02/22-rdf-syntax-ns#"
   xmlns:svg="http://www.w3.org/2000/svg"
   xmlns="http://www.w3.org/2000/svg"
   xmlns:sodipodi="http://sodipodi.sourceforge.net/DTD/sodipodi-0.dtd"
   xmlns:inkscape="http://www.inkscape.org/namespaces/inkscape"
   version="1.0"
   width="48"
   height="48"
   id="svg2"
   sodipodi:version="0.32"
   inkscape:version="0.47pre4 r22446"
   sodipodi:docname="start-here.svg"
   inkscape:output_extension="org.inkscape.output.svg.inkscape"
   inkscape:export-filename="/home/svetli/Плот/LFU_menu_icons/Y-symbol_2.png"
   inkscape:export-xdpi="7.1999998"
   inkscape:export-ydpi="7.1999998">
  <metadata
     id="metadata6">
    <rdf:RDF>
      <cc:Work
         rdf:about="">
        <dc:format>image/svg+xml</dc:format>
        <dc:type
           rdf:resource="http://purl.org/dc/dcmitype/StillImage" />
        <dc:title />
      </cc:Work>
    </rdf:RDF>
  </metadata>
  <sodipodi:namedview
     inkscape:window-height="724"
     inkscape:window-width="1280"
     inkscape:pageshadow="2"
     inkscape:pageopacity="0.0"
     guidetolerance="10.0"
     gridtolerance="10.0"
     objecttolerance="10.0"
     borderopacity="1.0"
     bordercolor="#666666"
     pagecolor="#ffffff"
     id="base"
     showgrid="false"
     inkscape:zoom="8.6738432"
     inkscape:cx="0.8660987"
     inkscape:cy="21.980805"
     inkscape:window-x="0"
     inkscape:window-y="25"
     inkscape:current-layer="g2559"
     borderlayer="false"
     inkscape:showpageshadow="true"
     showborder="true"
     inkscape:window-maximized="1" />
  <defs
     id="defs7">
    <inkscape:perspective
       sodipodi:type="inkscape:persp3d"
       inkscape:vp_x="0 : 24 : 1"
       inkscape:vp_y="0 : 1000 : 0"
       inkscape:vp_z="48 : 24 : 1"
       inkscape:persp3d-origin="24 : 16 : 1"
       id="perspective11" />
    <inkscape:perspective
       id="perspective3595"
       inkscape:persp3d-origin="0.5 : 0.33333333 : 1"
       inkscape:vp_z="1 : 0.5 : 1"
       inkscape:vp_y="0 : 1000 : 0"
       inkscape:vp_x="0 : 0.5 : 1"
       sodipodi:type="inkscape:persp3d" />
  </defs>
  <g
     id="g2559"
     transform="matrix(1.0426669,0,0,1.0426669,11.330071,4.9596712)">
    <path
       id="path2537"
       d="m 14.8572,39.833017 c -0.465471,-0.92021 -0.721517,-2.402424 -1.313574,-7.604033 -0.31488,-2.766416 -0.429998,-3.429898 -0.659562,-3.801339 -0.490414,-0.793505 -0.681611,-0.833242 -4.0093162,-0.833242 -2.9650033,0 -2.991685,-0.0024 -3.1831338,-0.294657 -0.1877024,-0.286471 -7.4742271,-28.5897564 -7.4742271,-29.032387 0,-0.1218698 0.090963,-0.3514502 0.2021422,-0.5101789 0.1994383,-0.2847396 0.2442504,-0.2885985 3.3513495,-0.2885985 3.2200486,0 3.3037773,0.011816 3.6809631,0.5194109 0.079604,0.1071289 1.2357721,4.752608 2.5692596,10.3232886 1.3334884,5.5706799 2.5247407,10.3032109 2.6472257,10.5167369 0.122485,0.213525 0.380467,0.476478 0.573293,0.584336 0.311868,0.174448 0.388645,0.174594 0.695071,0.0014 0.716371,-0.40506 0.839971,-0.741695 1.031527,-2.809438 0.601783,-6.495944 1.462935,-11.2263359 2.786677,-15.3074864 0.711903,-2.19482583 1.341675,-3.0884875 2.525307,-3.5834705 0.214868,-0.089856 1.234494,-0.1955614 2.277918,-0.2361515 l 1.888936,-0.073484 1.202,-0.6247564 c 1.503179,-0.7813002 1.788029,-0.7741386 2.19979,0.055296 0.276446,0.5568683 0.28724,0.6624009 0.152717,1.4933056 -0.07962,0.4917499 -0.191865,1.68568359 -0.249449,2.65318529 C 25.628946,3.0500867 25.396969,3.6534156 24.346765,4.6357571 23.291006,5.6232962 22.43165,5.7853345 19.740675,5.5042683 18.348907,5.3588998 18.343764,5.3594065 17.919411,5.6830764 c -0.629814,0.4803814 -1.064756,1.3967782 -1.520778,3.2041905 -0.99169,3.9304691 -1.373081,7.4531891 -1.259156,11.6301991 0.152053,5.574963 0.842486,9.175137 2.431968,12.681173 0.761069,1.678745 1.262562,3.191472 1.489561,4.493178 0.274165,1.57219 0.25464,1.80692 -0.187054,2.248613 l -0.379569,0.379569 -1.695435,0 -1.695434,0 -0.246314,-0.486948 z"
       style="fill:#3a3935;fill-opacity:1;stroke:#eae3d0;stroke-opacity:1;stroke-width:1.72634232;stroke-miterlimit:4;stroke-dasharray:none;stroke-linejoin:round" />
    <path
       id="path2537-1"
       d="m 14.8572,39.832976 c -0.465471,-0.92021 -0.721517,-2.402424 -1.313574,-7.604033 -0.31488,-2.766416 -0.429997,-3.429898 -0.659562,-3.801339 -0.490414,-0.793505 -0.68161,-0.833243 -4.0093163,-0.833243 -2.965003,0 -2.9916847,-0.0024 -3.1831335,-0.294656 -0.1877024,-0.286471 -7.4742274,-28.5897559 -7.4742274,-29.0323866 0,-0.12187 0.09096,-0.35145 0.2021426,-0.510179 0.1994383,-0.284739 0.2442504,-0.288598 3.3513495,-0.288598 3.2200485,0 3.3037772,0.01182 3.680963,0.519411 0.079604,0.107129 1.2357721,4.7526077 2.5692602,10.3232887 1.3334882,5.5706799 2.5247399,10.3032099 2.6472249,10.5167359 0.122485,0.213525 0.380467,0.476478 0.573293,0.584336 0.311868,0.174448 0.388645,0.174594 0.695071,0.0014 0.716372,-0.405061 0.839971,-0.741695 1.031527,-2.809437 0.601784,-6.495906 1.462935,-11.2262977 2.786677,-15.3074484 0.711903,-2.19482586 1.341675,-3.0884872 2.525307,-3.5834702 0.214868,-0.08986 1.234493,-0.195562 2.277918,-0.236152 l 1.888936,-0.07348 1.202,-0.624756 c 1.503179,-0.7813 1.788028,-0.774139 2.19979,0.0553 0.276446,0.556868 0.287239,0.662401 0.152717,1.493305 -0.07962,0.4917503 -0.191866,1.68568394 -0.249449,2.65318564 C 25.628945,3.0500926 25.396969,3.6534215 24.346765,4.635763 23.291006,5.6233024 22.43165,5.7853408 19.740674,5.504274 18.348907,5.3589054 18.343764,5.3594128 17.91941,5.6830828 c -0.629813,0.4803806 -1.064755,1.3967778 -1.520777,3.2041901 -0.99169,3.9304611 -1.373081,7.4531811 -1.259156,11.6301911 0.152053,5.574962 0.842486,9.175136 2.431968,12.681172 0.761069,1.678746 1.262561,3.191472 1.489561,4.493178 0.274165,1.57219 0.254639,1.806921 -0.187054,2.248613 l -0.379569,0.379569 -1.695435,0 -1.695434,0 -0.246314,-0.486947 z"
       style="fill:#3a3935;fill-opacity:1;stroke:none" />
  </g>
</svg>
