<?xml version="1.0" encoding="UTF-8" standalone="no"?>
<!-- Created with Inkscape (http://www.inkscape.org/) -->
<svg
   xmlns:dc="http://purl.org/dc/elements/1.1/"
   xmlns:cc="http://creativecommons.org/ns#"
   xmlns:rdf="http://www.w3.org/1999/02/22-rdf-syntax-ns#"
   xmlns:svg="http://www.w3.org/2000/svg"
   xmlns="http://www.w3.org/2000/svg"
   xmlns:xlink="http://www.w3.org/1999/xlink"
   xmlns:sodipodi="http://sodipodi.sourceforge.net/DTD/sodipodi-0.dtd"
   xmlns:inkscape="http://www.inkscape.org/namespaces/inkscape"
   version="1.0"
   x="0"
   y="0"
   width="48"
   height="48"
   id="svg827"
   sodipodi:version="0.32"
   inkscape:version="0.46"
   sodipodi:docname="tuxpaint.svg"
   inkscape:output_extension="org.inkscape.output.svg.inkscape">
  <metadata
     id="metadata42">
    <rdf:RDF>
      <cc:Work
         rdf:about="">
        <dc:format>image/svg+xml</dc:format>
        <dc:type
           rdf:resource="http://purl.org/dc/dcmitype/StillImage" />
      </cc:Work>
    </rdf:RDF>
  </metadata>
  <sodipodi:namedview
     inkscape:window-height="788"
     inkscape:window-width="1272"
     inkscape:pageshadow="2"
     inkscape:pageopacity="0.0"
     guidetolerance="10.0"
     gridtolerance="10.0"
     objecttolerance="10.0"
     borderopacity="1.0"
     bordercolor="#666666"
     pagecolor="#ffffff"
     id="base"
     showgrid="false"
     inkscape:zoom="8.4837712"
     inkscape:cx="16.170629"
     inkscape:cy="20.33373"
     inkscape:window-x="0"
     inkscape:window-y="24"
     inkscape:current-layer="svg827" />
  <defs
     id="defs829">
    <inkscape:perspective
       sodipodi:type="inkscape:persp3d"
       inkscape:vp_x="0 : 526.18109 : 1"
       inkscape:vp_y="0 : 1000 : 0"
       inkscape:vp_z="744.09448 : 526.18109 : 1"
       inkscape:persp3d-origin="372.04724 : 350.78739 : 1"
       id="perspective44" />
    <linearGradient
       id="linearGradient888">
      <stop
         style="stop-color:#ffe06c;stop-opacity:1;"
         offset="0"
         id="stop889" />
      <stop
         style="stop-color:#dea400;stop-opacity:1;"
         offset="1"
         id="stop890" />
    </linearGradient>
    <linearGradient
       id="linearGradient882">
      <stop
         style="stop-color:#f54182;stop-opacity:1;"
         offset="0"
         id="stop883" />
      <stop
         style="stop-color:#350714;stop-opacity:1;"
         offset="1"
         id="stop884" />
    </linearGradient>
    <linearGradient
       id="linearGradient869">
      <stop
         style="stop-color:#ffcb7e;stop-opacity:1;"
         offset="0"
         id="stop870" />
      <stop
         style="stop-color:#6a5318;stop-opacity:1;"
         offset="1"
         id="stop871" />
    </linearGradient>
    <linearGradient
       id="linearGradient842">
      <stop
         style="stop-color:#e9ba73;stop-opacity:1;"
         offset="0"
         id="stop843" />
      <stop
         style="stop-color:#493910;stop-opacity:1;"
         offset="1"
         id="stop844" />
    </linearGradient>
    <linearGradient
       id="linearGradient837">
      <stop
         style="stop-color:#7d5d21;stop-opacity:1;"
         offset="0"
         id="stop838" />
      <stop
         style="stop-color:#ffcb32;stop-opacity:1;"
         offset="1"
         id="stop839" />
    </linearGradient>
    <radialGradient
       cx="381.29867"
       cy="593.75594"
       r="113.25515"
       fx="386.17806"
       fy="596.01457"
       id="radialGradient840"
       xlink:href="#linearGradient882"
       gradientTransform="scale(1.1165774,0.895594)"
       gradientUnits="userSpaceOnUse" />
    <radialGradient
       cx="0.3493976"
       cy="0.4453125"
       r="0.56970376"
       fx="0.3493976"
       fy="0.4453125"
       id="radialGradient841"
       xlink:href="#linearGradient888"
       spreadMethod="pad" />
    <linearGradient
       x1="585.47313"
       y1="489.43571"
       x2="578.42898"
       y2="521.89751"
       id="linearGradient845"
       xlink:href="#linearGradient842"
       gradientTransform="scale(0.9285629,1.0769329)"
       gradientUnits="userSpaceOnUse" />
    <linearGradient
       x1="513.00278"
       y1="645.42102"
       x2="521.72137"
       y2="615.19617"
       id="linearGradient864"
       xlink:href="#linearGradient837"
       gradientTransform="scale(1.128704,0.8859719)"
       gradientUnits="userSpaceOnUse" />
    <linearGradient
       x1="540.40474"
       y1="790.11204"
       x2="551.2872"
       y2="768.24637"
       id="linearGradient874"
       xlink:href="#linearGradient837"
       gradientTransform="scale(1.3177775,0.7588535)"
       gradientUnits="userSpaceOnUse" />
    <linearGradient
       x1="0.27848101"
       y1="0.6953125"
       x2="0.42405063"
       y2="0.9609375"
       id="linearGradient880"
       xlink:href="#linearGradient882" />
    <linearGradient
       x1="0.52531648"
       y1="0.578125"
       x2="0.50632912"
       y2="0.7890625"
       id="linearGradient886"
       xlink:href="#linearGradient882" />
  </defs>
  <g
     style="font-size:12px"
     id="g626"
     transform="matrix(6.3957933e-2,0,0,6.3957933e-2,-0.3536141,3.0726278)">
    <path
       d="M 732.25626,582.45117 C 762.44087,590.2768 767.65796,594.37595 768.77591,596.2392 C 772.50241,599.59304 771.75711,605.92808 771.01181,608.90928 C 770.26651,611.89048 769.89386,618.97082 753.12464,615.98962 C 736.35541,613.00842 712.13319,605.55543 712.13319,605.55543 L 730.39302,583.56911"
       transform="translate(-40.24615,-59.62392)"
       style="fill:url(#linearGradient874);fill-opacity:0.75;fill-rule:evenodd;stroke-width:1pt"
       id="path875" />
    <path
       d="M 303.3424,698.12341 C 303.3424,698.12341 280.61645,671.03049 272.80457,645.19118 C 267.3834,627.25961 261.10052,608.61629 268.73287,554.59562 C 273.24306,522.67314 291.66551,496.49092 304.32326,478.14448 L 317.59338,458.91045 C 317.59338,458.91045 259.85479,396.31355 195.56558,352.3262 L 116.04374,300.11375 C 107.90032,304.18546 88.559693,304.18546 80.416273,300.11375 C 72.272853,296.04204 57.512904,273.64764 93.649331,217.66162 C 97.721041,215.62577 102.81068,194.24929 135.38436,176.94452 C 149.63534,168.8011 177.11939,172.87281 197.47794,179.99831 C 217.83649,187.1238 222.92612,203.41064 222.92612,203.41064 C 222.92612,203.41064 216.81856,171.85488 231.06954,172.87281 C 254.48188,169.31007 261.60737,229.87675 261.60737,229.87675 C 264.10104,241.58821 280.94799,263.97732 302.32447,282.80898 C 318.10234,295.29669 349.14914,320.4723 349.14914,320.4723 C 349.14914,320.4723 349.6581,287.89862 358.31049,274.1566 C 368.29255,257.3119 375.10629,251.25323 389.86623,241.07395 C 400.55448,235.47535 411.24271,231.91261 423.45784,228.85883 C 425.4937,223.76919 429.5654,111.79717 515.07132,81.259338 C 600.57723,50.721512 633.15091,128.084 633.15091,128.084 C 675.90387,210.53613 662.16184,332.68743 658.09014,351.51909 C 656.05428,368.82386 668.77838,378.49417 668.77838,378.49417 C 668.77838,378.49417 778.71454,481.30484 769.5532,518.96817 C 773.6249,561.72112 726.80024,605.49201 718.65682,612.6175 C 717.63889,620.76092 710.5134,697.10548 710.5134,697.10548 L 303.3424,698.12341 z"
       transform="translate(-40.24615,-59.62392)"
       style="fill-rule:evenodd;stroke-width:1pt"
       id="path846" />
    <path
       d="M 473.33629,142.84397 C 485.55142,140.80811 496.83978,145.75257 501.42045,153.38703 C 506.00113,161.02149 504.62853,157.83133 507.40076,172.25561 C 507.17336,179.82502 507.2816,186.26113 507.47294,188.06957 C 510.45456,190.87412 522.1968,139.28122 558.33323,143.35293 C 573.99821,144.54551 589.53969,151.24936 587.85313,181.52521 C 579.20075,319.45439 505.48119,257.40562 500.30134,254.2977 C 492.2645,250.94433 496.39528,244.58008 491.39112,242.31758 C 486.55413,242.13723 486.41237,247.24354 480.02871,246.47107 C 476.69408,246.42518 461.63012,243.61879 459.0853,242.60086 C 456.54048,241.58293 436.18193,240.05604 436.6909,219.69749 C 433.63711,200.35687 446.58863,153.75962 473.33629,142.84397 z"
       transform="translate(-40.24615,-59.62392)"
       style="fill:#ffffff;fill-rule:evenodd;stroke-width:1pt"
       id="path853" />
    <path
       d="M 482.95376,202.72133 C 482.95376,194.28317 477.19775,187.4427 470.09735,187.4427 C 462.99695,187.4427 457.24094,194.28317 457.24094,202.72133 C 457.24094,211.15949 462.99695,217.99996 470.09735,217.99996 C 477.19775,217.99996 482.95376,211.15949 482.95376,202.72133 L 482.95376,202.72133 z"
       transform="matrix(-0.993474,-0.209364,0.204835,-1.015442,851.0699,446.8114)"
       style="fill-rule:evenodd;stroke-width:1pt"
       id="path876" />
    <path
       d="M 439.23572,242.60086 C 450.43292,242.0919 499.29344,253.2891 521.68784,269.06698 C 544.08225,284.84485 554.26152,309.27511 552.22567,328.61573 C 550.39983,345.50483 543.48483,383.13426 517.61613,389.69138 C 477.6275,399.1896 443.96556,386.68208 397.50069,368.82388 C 341.97702,347.67965 347.62223,239.54707 439.23572,242.60086 z"
       transform="translate(-40.24615,-59.62392)"
       style="fill:#ffbc00;fill-rule:evenodd;stroke-width:1pt"
       id="path844" />
    <path
       d="M 420.40407,312.83786 C 420.40817,299.05905 414.25445,287.88518 406.66205,287.88518 C 399.06965,287.88518 392.91593,299.05905 392.92003,312.83786 C 392.91593,326.61667 399.06965,337.79054 406.66205,337.79054 C 414.25445,337.79054 420.40817,326.61667 420.40407,312.83786 z"
       transform="matrix(0.968234,0.25004,-0.25004,0.968234,46.31459,-152.8958)"
       style="fill-rule:evenodd;stroke-width:1pt"
       id="path847" />
    <path
       d="M 367.2158,699.53472 C 364.44902,698.21721 354.01634,687.43198 351.14656,680.95393 C 348.27676,674.47588 307.38233,615.45364 321.73126,552.1127 C 336.08017,488.77175 379.8444,513.96417 382.71419,485.89262 C 385.58397,457.82107 392.04099,436.94735 430.06564,432.62865 C 468.0903,428.30994 498.22304,444.86496 508.98474,472.93652 C 519.74643,501.00807 538.40004,554.27205 538.40004,578.74468 C 538.40004,603.21732 536.96515,662.23956 536.96515,662.23956 C 536.96515,662.23956 534.44008,688.2194 521.65475,698.69452 L 367.2158,699.53472 z"
       transform="translate(-40.24615,-59.62392)"
       style="fill:#ffffff;fill-rule:evenodd;stroke-width:0.99837503pt"
       id="path850" />
    <path
       d="M 572.95816,608.3077 C 607.85962,606.84728 636.43216,589.62916 647.81268,577.37209"
       style="fill:none;fill-rule:evenodd;stroke:#ffffff;stroke-width:11;stroke-linecap:round;stroke-linejoin:round"
       id="path851" />
    <path
       d="M 558.60159,528.04436 L 617.10757,545.93154 L 614.87166,564.19136 L 598.84774,582.45119 L 547.79475,571.2717 L 551.14861,548.16743 L 558.60159,528.04436 z"
       transform="translate(-40.24615,-59.62392)"
       style="fill:url(#linearGradient864);fill-rule:evenodd;stroke-width:1pt"
       id="path861" />
    <path
       d="M 579.70657,471.07459 C 579.70657,493.20884 588.13867,502.69495 589.71969,504.80297 C 594.98975,515.34308 619.75903,530.62627 619.75902,553.81453 C 616.06999,575.94878 602.36783,581.21884 596.04376,586.4889 C 589.71969,591.75896 583.92262,608.09615 586.03065,607.56914"
       transform="translate(-40.24615,-59.62392)"
       style="fill:none;fill-opacity:0.75;fill-rule:evenodd;stroke:#ffffff;stroke-width:9.5;stroke-linecap:round;stroke-linejoin:round"
       id="path854" />
    <path
       d="M 510.90246,566.42724 L 510.90246,566.42724 C 508.29392,541.45972 519.4734,514.25631 519.4734,514.25631 L 559.3469,528.04434 C 559.3469,528.04434 552.63921,549.28536 551.89391,553.3845 C 551.14861,557.48365 547.79476,570.89903 547.79476,570.89903 L 510.90246,566.42724 z"
       transform="translate(-40.24615,-59.62392)"
       style="fill:url(#linearGradient845);fill-rule:evenodd;stroke-width:1pt"
       id="path862" />
    <path
       d="M 507.1906,168.90109 C 509.88657,158.21158 506.05932,148.06398 498.64221,146.23579 C 491.22509,144.4076 483.02681,151.59111 480.33084,162.28062 C 477.63487,172.97013 481.46212,183.11773 488.87923,184.94592 C 496.29635,186.77411 504.49463,179.5906 507.1906,168.90109 L 507.1906,168.90109 z"
       style="fill-rule:evenodd;stroke-width:1pt"
       id="path877" />
    <path
       d="M 419.02175,585.03169 C 430.57389,583.91374 449.02552,570.43442 457.22381,568.94382 C 465.4221,567.45323 471.75714,573.78827 482.93662,572.29767 C 501.22293,572.88861 511.63063,566.33528 511.63063,566.33528 C 510.14003,567.08058 512.00328,546.58485 514.23918,539.87716 C 514.23918,529.44298 520.57422,514.537 520.57422,514.537 C 520.57422,514.537 505.29559,498.51306 486.66311,498.88572 C 485.17252,498.14043 460.57765,499.75889 448.65287,508.57461 C 424.058,527.95238 417.50467,545.10523 413.99646,559.62758 C 412.50586,563.35408 412.87852,577.88741 413.62381,580.86861 C 414.36911,583.8498 419.02175,585.03169 419.02175,585.03169 z"
       transform="translate(-40.24615,-59.62392)"
       style="fill:url(#radialGradient840);fill-rule:evenodd;stroke-width:1pt"
       id="path885" />
  </g>
</svg>
