<?xml version="1.0" encoding="UTF-8" standalone="no"?>
<!-- Created with Inkscape (http://www.inkscape.org/) -->
<svg
   xmlns:dc="http://purl.org/dc/elements/1.1/"
   xmlns:cc="http://creativecommons.org/ns#"
   xmlns:rdf="http://www.w3.org/1999/02/22-rdf-syntax-ns#"
   xmlns:svg="http://www.w3.org/2000/svg"
   xmlns="http://www.w3.org/2000/svg"
   xmlns:xlink="http://www.w3.org/1999/xlink"
   xmlns:sodipodi="http://sodipodi.sourceforge.net/DTD/sodipodi-0.dtd"
   xmlns:inkscape="http://www.inkscape.org/namespaces/inkscape"
   version="1.0"
   width="48"
   height="48"
   id="svg2188"
   sodipodi:version="0.32"
   inkscape:version="0.46"
   sodipodi:docname="Own_windows_logo.svg"
   inkscape:output_extension="org.inkscape.output.svg.inkscape">
  <metadata
     id="metadata10">
    <rdf:RDF>
      <cc:Work
         rdf:about="">
        <dc:format>image/svg+xml</dc:format>
        <dc:type
           rdf:resource="http://purl.org/dc/dcmitype/StillImage" />
      </cc:Work>
    </rdf:RDF>
  </metadata>
  <sodipodi:namedview
     inkscape:window-height="480"
     inkscape:window-width="640"
     inkscape:pageshadow="2"
     inkscape:pageopacity="0.0"
     guidetolerance="10.0"
     gridtolerance="10.0"
     objecttolerance="10.0"
     borderopacity="1.0"
     bordercolor="#666666"
     pagecolor="#ffffff"
     id="base"
     showgrid="false"
     inkscape:zoom="6.2219733"
     inkscape:cx="67.737443"
     inkscape:cy="4.2149304"
     inkscape:current-layer="svg2188" />
  <defs
     id="defs2190">
    <linearGradient
       id="linearGradient3267">
      <stop
         style="stop-color:#ffffff;stop-opacity:1;"
         offset="0"
         id="stop3269" />
      <stop
         style="stop-color:#ffffff;stop-opacity:0;"
         offset="1"
         id="stop3271" />
    </linearGradient>
    <inkscape:perspective
       sodipodi:type="inkscape:persp3d"
       inkscape:vp_x="0 : 44.709999 : 1"
       inkscape:vp_y="0 : 1000 : 0"
       inkscape:vp_z="89.199997 : 44.709999 : 1"
       inkscape:persp3d-origin="44.599998 : 29.806666 : 1"
       id="perspective12" />
    <radialGradient
       inkscape:collect="always"
       xlink:href="#linearGradient3267"
       id="radialGradient3273"
       cx="24"
       cy="24"
       fx="24"
       fy="24"
       r="16"
       gradientUnits="userSpaceOnUse" />
  </defs>
  <g
     transform="matrix(0.4587328,0,0,0.4575467,-131.12188,-256.64648)"
     id="layer1"
     style="stroke:none;stroke-opacity:1">
    <path
       d="M 296.77506,609.88093 C 294.93192,608.03779 294.77506,606.54759 294.77506,590.88093 C 294.77506,568.40233 293.29646,569.88093 315.77506,569.88093 C 338.25366,569.88093 336.77506,568.40233 336.77506,590.88093 C 336.77506,613.35952 338.25366,611.88093 315.77506,611.88093 C 300.10839,611.88093 298.6182,611.72406 296.77506,609.88093 z"
       style="fill:#ff591f;fill-opacity:1;stroke:none;stroke-width:0.40000001000000002;stroke-miterlimit:4;stroke-dasharray:none;stroke-opacity:1"
       id="path2925" />
    <path
       d="M 296.77463,654.86372 C 294.93149,653.02062 294.77463,651.53042 294.77463,635.86372 C 294.77463,613.38512 293.29603,614.86372 315.77463,614.86372 C 338.25323,614.86372 336.77463,613.38512 336.77463,635.86372 C 336.77463,658.34232 338.25323,656.86372 315.77463,656.86372 C 300.10796,656.86372 298.61777,656.70682 296.77463,654.86372 z"
       style="fill:#87cefa;fill-opacity:1;stroke:none;stroke-width:0.40000001000000002;stroke-miterlimit:4;stroke-dasharray:none;stroke-opacity:1"
       id="path3840" />
    <path
       d="M 341.53139,654.86322 C 339.68825,653.02012 339.53139,651.52992 339.53139,635.86322 C 339.53139,613.38462 338.05279,614.86322 360.53139,614.86322 C 383.00999,614.86322 381.53139,613.38462 381.53139,635.86322 C 381.53139,658.34182 383.00999,656.86322 360.53139,656.86322 C 344.86472,656.86322 343.37452,656.70642 341.53139,654.86322 z"
       style="fill:#fffd3e;fill-opacity:1;stroke:none;stroke-width:0.40000001000000002;stroke-miterlimit:4;stroke-dasharray:none;stroke-opacity:1"
       id="path3848" />
    <path
       d="M 341.53139,609.88126 C 339.68825,608.03812 339.53139,606.54792 339.53139,590.88125 C 339.53139,568.40265 338.05279,569.88125 360.53139,569.88125 C 383.00999,569.88125 381.53139,568.40265 381.53139,590.88125 C 381.53139,613.35982 383.00999,611.88126 360.53139,611.88126 C 344.86472,611.88126 343.37452,611.72439 341.53139,609.88126 z"
       style="fill:#42da42;fill-opacity:1;stroke:none;stroke-width:0.40000001000000002;stroke-miterlimit:4;stroke-dasharray:none;stroke-opacity:1"
       id="path4747" />
  </g>
  <rect
     style="opacity:0.75;fill:url(#radialGradient3273);fill-opacity:1;stroke:none;stroke-width:0.30000001;stroke-miterlimit:4;stroke-dasharray:none;stroke-opacity:1"
     id="rect3265"
     width="32"
     height="32"
     x="8"
     y="8" />
</svg>
