<?xml version="1.0" encoding="UTF-8" standalone="no"?>
<!-- Created with Inkscape (http://www.inkscape.org/) -->

<svg
   xmlns:dc="http://purl.org/dc/elements/1.1/"
   xmlns:cc="http://creativecommons.org/ns#"
   xmlns:rdf="http://www.w3.org/1999/02/22-rdf-syntax-ns#"
   xmlns:svg="http://www.w3.org/2000/svg"
   xmlns="http://www.w3.org/2000/svg"
   xmlns:xlink="http://www.w3.org/1999/xlink"
   xmlns:sodipodi="http://sodipodi.sourceforge.net/DTD/sodipodi-0.dtd"
   xmlns:inkscape="http://www.inkscape.org/namespaces/inkscape"
   version="1.0"
   width="48"
   height="48"
   id="svg2188"
   sodipodi:version="0.32"
   inkscape:version="0.47pre4 r22446"
   sodipodi:docname="wine-winefile.svg"
   inkscape:output_extension="org.inkscape.output.svg.inkscape">
  <metadata
     id="metadata10">
    <rdf:RDF>
      <cc:Work
         rdf:about="">
        <dc:format>image/svg+xml</dc:format>
        <dc:type
           rdf:resource="http://purl.org/dc/dcmitype/StillImage" />
      </cc:Work>
    </rdf:RDF>
  </metadata>
  <sodipodi:namedview
     inkscape:window-height="519"
     inkscape:window-width="640"
     inkscape:pageshadow="2"
     inkscape:pageopacity="0.0"
     guidetolerance="10.0"
     gridtolerance="10.0"
     objecttolerance="10.0"
     borderopacity="1.0"
     bordercolor="#666666"
     pagecolor="#ffffff"
     id="base"
     showgrid="false"
     inkscape:zoom="6.2219733"
     inkscape:cx="30.679846"
     inkscape:cy="17.176335"
     inkscape:current-layer="svg2188"
     inkscape:window-x="0"
     inkscape:window-y="24"
     inkscape:window-maximized="0" />
  <defs
     id="defs2190">
    <linearGradient
       id="linearGradient3267">
      <stop
         style="stop-color:#ffffff;stop-opacity:1;"
         offset="0"
         id="stop3269" />
      <stop
         style="stop-color:#ffffff;stop-opacity:0;"
         offset="1"
         id="stop3271" />
    </linearGradient>
    <linearGradient
       id="linearGradient4845">
      <stop
         style="stop-color:#ffffff;stop-opacity:1;"
         offset="0"
         id="stop4847" />
      <stop
         style="stop-color:#b6b6b6;stop-opacity:1;"
         offset="1"
         id="stop4849" />
    </linearGradient>
    <linearGradient
       inkscape:collect="always"
       id="linearGradient8265-821-176-38-919-66-249">
      <stop
         style="stop-color:#ffffff;stop-opacity:1;"
         offset="0"
         id="stop2687" />
      <stop
         style="stop-color:#ffffff;stop-opacity:0;"
         offset="1"
         id="stop2689" />
    </linearGradient>
    <linearGradient
       id="linearGradient6087-437-184-795-110-662-495">
      <stop
         style="stop-color:#ffffff;stop-opacity:1;"
         offset="0"
         id="stop2693" />
      <stop
         style="stop-color:#ffffff;stop-opacity:0;"
         offset="1"
         id="stop2695" />
    </linearGradient>
    <linearGradient
       inkscape:collect="always"
       id="linearGradient6129-963-697-142-998-580-273">
      <stop
         style="stop-color:#0a0a0a;stop-opacity:0.498"
         offset="0"
         id="stop2661" />
      <stop
         style="stop-color:#0a0a0a;stop-opacity:0;"
         offset="1"
         id="stop2663" />
    </linearGradient>
    <linearGradient
       id="linearGradient7012-661-145-733-759-865-745">
      <stop
         style="stop-color:#9cbbd9;stop-opacity:1;"
         offset="0"
         id="stop2699" />
      <stop
         style="stop-color:#5c82ab;stop-opacity:1;"
         offset="1"
         id="stop2701" />
    </linearGradient>
    <linearGradient
       id="linearGradient3390"
       inkscape:collect="always">
      <stop
         id="stop3392"
         offset="0"
         style="stop-color:#425e7b;stop-opacity:1" />
      <stop
         id="stop3394"
         offset="1"
         style="stop-color:#7a91a7;stop-opacity:1" />
    </linearGradient>
    <linearGradient
       id="linearGradient5048-585">
      <stop
         style="stop-color:#000000;stop-opacity:0;"
         offset="0"
         id="stop2667" />
      <stop
         id="stop2669"
         offset="0.5"
         style="stop-color:#000000;stop-opacity:1;" />
      <stop
         style="stop-color:#000000;stop-opacity:0;"
         offset="1"
         id="stop2671" />
    </linearGradient>
    <linearGradient
       inkscape:collect="always"
       id="linearGradient5060-179">
      <stop
         style="stop-color:#000000;stop-opacity:1;"
         offset="0"
         id="stop2675" />
      <stop
         style="stop-color:#000000;stop-opacity:0;"
         offset="1"
         id="stop2677" />
    </linearGradient>
    <linearGradient
       inkscape:collect="always"
       id="linearGradient5060-820">
      <stop
         style="stop-color:#000000;stop-opacity:1;"
         offset="0"
         id="stop2681" />
      <stop
         style="stop-color:#000000;stop-opacity:0;"
         offset="1"
         id="stop2683" />
    </linearGradient>
    <linearGradient
       id="linearGradient6404">
      <stop
         id="stop6406"
         offset="0"
         style="stop-color:#f9f9f9;stop-opacity:1;" />
      <stop
         id="stop6408"
         offset="1"
         style="stop-color:#c9c9c9;stop-opacity:1;" />
    </linearGradient>
    <linearGradient
       id="linearGradient3484">
      <stop
         style="stop-color:#bdbdbd;stop-opacity:1"
         offset="0"
         id="stop3486" />
      <stop
         style="stop-color:#d0d0d0;stop-opacity:1"
         offset="1"
         id="stop3488" />
    </linearGradient>
    <radialGradient
       inkscape:collect="always"
       xlink:href="#linearGradient3267"
       id="radialGradient3505"
       gradientUnits="userSpaceOnUse"
       cx="24"
       cy="24"
       fx="24"
       fy="24"
       r="16" />
    <linearGradient
       inkscape:collect="always"
       xlink:href="#linearGradient5048-585"
       id="linearGradient3537"
       gradientUnits="userSpaceOnUse"
       gradientTransform="matrix(8.2840237e-2,0,0,3.7058823e-2,-5.9408285,25.412461)"
       x1="302.85715"
       y1="366.64789"
       x2="302.85715"
       y2="609.50507" />
    <radialGradient
       inkscape:collect="always"
       xlink:href="#linearGradient5060-179"
       id="radialGradient3539"
       gradientUnits="userSpaceOnUse"
       gradientTransform="matrix(3.2129565e-2,0,0,3.7058823e-2,24.636785,25.412461)"
       cx="605.71429"
       cy="486.64789"
       fx="605.71429"
       fy="486.64789"
       r="117.14286" />
    <radialGradient
       inkscape:collect="always"
       xlink:href="#linearGradient5060-820"
       id="radialGradient3541"
       gradientUnits="userSpaceOnUse"
       gradientTransform="matrix(-3.2129558e-2,0,0,3.7058823e-2,23.363215,25.412461)"
       cx="605.71429"
       cy="486.64789"
       fx="605.71429"
       fy="486.64789"
       r="117.14286" />
    <radialGradient
       inkscape:collect="always"
       xlink:href="#linearGradient4845"
       id="radialGradient3553"
       gradientUnits="userSpaceOnUse"
       gradientTransform="matrix(-2.643979,0,2.93653e-8,2.534421,17.296545,-33.914711)"
       cx="17.81411"
       cy="24.149399"
       fx="17.81411"
       fy="24.149399"
       r="9.125" />
    <linearGradient
       inkscape:collect="always"
       xlink:href="#linearGradient8265-821-176-38-919-66-249"
       id="linearGradient3559"
       gradientUnits="userSpaceOnUse"
       x1="11.566265"
       y1="22.292103"
       x2="15.214532"
       y2="33.95525"
       gradientTransform="translate(-0.1158796,-3.9999379)" />
    <radialGradient
       inkscape:collect="always"
       xlink:href="#linearGradient6087-437-184-795-110-662-495"
       id="radialGradient3562"
       gradientUnits="userSpaceOnUse"
       gradientTransform="matrix(0,1.2079744,-1.6271642,0,26.255868,4.2665306)"
       cx="7.2646537"
       cy="8.3021259"
       fx="7.2646537"
       fy="8.3021259"
       r="20.979567" />
    <linearGradient
       inkscape:collect="always"
       xlink:href="#linearGradient6129-963-697-142-998-580-273"
       id="linearGradient3565"
       gradientUnits="userSpaceOnUse"
       gradientTransform="matrix(1.1446925,0,0,0.9977536,-3.5820209,-2.9010954)"
       x1="22.934725"
       y1="49.629246"
       x2="22.809399"
       y2="36.657963" />
    <radialGradient
       inkscape:collect="always"
       xlink:href="#linearGradient7012-661-145-733-759-865-745"
       id="radialGradient3568"
       gradientUnits="userSpaceOnUse"
       gradientTransform="matrix(1.5646925,-9.5143002e-8,6.1772287e-8,1.015888,-86.328453,4.1461794)"
       cx="63.969177"
       cy="14.113381"
       fx="63.969177"
       fy="14.113381"
       r="23.097054" />
    <linearGradient
       inkscape:collect="always"
       xlink:href="#linearGradient3390"
       id="linearGradient3570"
       gradientUnits="userSpaceOnUse"
       gradientTransform="translate(-53.881273,-4.1141308)"
       x1="82.453476"
       y1="45.114193"
       x2="65.340263"
       y2="15.943953" />
    <linearGradient
       inkscape:collect="always"
       xlink:href="#linearGradient6404"
       id="linearGradient3577"
       gradientUnits="userSpaceOnUse"
       gradientTransform="translate(-51.056778,-3.9999379)"
       x1="62.988873"
       y1="13.182598"
       x2="62.988873"
       y2="16.19013" />
    <radialGradient
       inkscape:collect="always"
       xlink:href="#linearGradient3484"
       id="radialGradient3579"
       gradientUnits="userSpaceOnUse"
       gradientTransform="matrix(-1.274898e-8,1.7142916,-2.159331,-1.4599595e-8,12.693481,-1.1429368)"
       cx="3"
       cy="5.01718"
       fx="3"
       fy="5.01718"
       r="21" />
  </defs>
  <path
     style="fill:url(#linearGradient3577);fill-opacity:1;stroke:url(#radialGradient3579);stroke-width:1.00000012;stroke-linecap:round;stroke-linejoin:round;stroke-miterlimit:4;stroke-dasharray:none;stroke-opacity:1;display:inline"
     d="M 5.3841195,4.5000616 C 4.6938485,4.5077332 4.3841195,4.8422077 4.3841195,5.5000616 L 4.3841195,7.5067091 L 3.3841195,7.5067091 C 2.6938475,7.5143811 2.3841205,7.8488561 2.3841205,8.5067091 C 2.4185315,18.796754 2.3969755,29.221092 2.3841205,39.500062 C 41.293715,39.500062 45.384118,34.717724 45.384118,14.958228 L 45.384118,8.5067091 C 45.384118,7.8488561 44.829914,7.4990381 44.139639,7.5067091 L 21.384119,7.5067091 L 21.384119,5.5000616 C 21.384119,4.8422077 21.07439,4.4923901 20.384119,4.5000616 L 5.3841195,4.5000616 z"
     id="path3468"
     sodipodi:nodetypes="ccccccccccccc"
     inkscape:transform-center-x="-22.793602"
     inkscape:transform-center-y="-23.577396" />
  <g
     id="g7591"
     style="opacity:0.4"
     transform="matrix(0.9583333,0,0,0.6666667,0.8841212,11.000062)">
    <rect
       id="rect4173"
       x="4"
       y="39"
       width="40"
       height="9"
       style="opacity:1;fill:url(#linearGradient3537);fill-opacity:1;fill-rule:nonzero;stroke:none;stroke-width:1;stroke-linecap:round;stroke-linejoin:miter;marker:none;marker-start:none;marker-mid:none;marker-end:none;stroke-miterlimit:4;stroke-dasharray:none;stroke-dashoffset:0;stroke-opacity:1;visibility:visible;display:inline;overflow:visible" />
    <path
       d="M 44,39.00031 C 44,39.00031 44,47.999814 44,47.999814 C 45.654593,48.016755 48.000001,45.983481 48,43.499483 C 48,41.015484 46.153598,39.00031 44,39.00031 z"
       id="path5058"
       style="opacity:1;fill:url(#radialGradient3539);fill-opacity:1;fill-rule:nonzero;stroke:none;stroke-width:1;stroke-linecap:round;stroke-linejoin:miter;marker:none;marker-start:none;marker-mid:none;marker-end:none;stroke-miterlimit:4;stroke-dasharray:none;stroke-dashoffset:0;stroke-opacity:1;visibility:visible;display:inline;overflow:visible"
       sodipodi:nodetypes="cccc" />
    <path
       id="path5018"
       d="M 4,39.00031 C 4,39.00031 4,47.999814 4,47.999814 C 2.3454068,48.016755 0,45.983481 0,43.499483 C 0,41.015484 1.8464008,39.00031 4,39.00031 z"
       style="opacity:1;fill:url(#radialGradient3541);fill-opacity:1;fill-rule:nonzero;stroke:none;stroke-width:1;stroke-linecap:round;stroke-linejoin:miter;marker:none;marker-start:none;marker-mid:none;marker-end:none;stroke-miterlimit:4;stroke-dasharray:none;stroke-dashoffset:0;stroke-opacity:1;visibility:visible;display:inline;overflow:visible"
       sodipodi:nodetypes="cccc" />
  </g>
  <path
     style="fill:url(#radialGradient3568);fill-opacity:1;stroke:url(#linearGradient3570);stroke-width:1;stroke-linecap:round;stroke-linejoin:round;stroke-miterlimit:4;stroke-dashoffset:0;stroke-opacity:1"
     d="M 2.046976,12.525255 C 0.974269,12.648949 1.547206,13.927373 1.461679,14.646267 C 1.854211,23.116357 2.250611,31.415722 2.640726,39.885869 C 2.982562,40.851562 4.235161,40.357029 5.028843,40.479619 C 18.222387,40.479619 31.415932,40.479619 44.609478,40.479619 C 45.698858,40.372968 45.245938,39.071938 45.399178,38.327357 C 45.791718,29.857267 46.188118,21.557902 46.578228,13.087755 C 46.327058,12.133466 45.058718,12.663741 44.315105,12.525255 C 30.225731,12.525255 16.136354,12.525255 2.046976,12.525255 z"
     id="path3388"
     sodipodi:nodetypes="ccccccccc" />
  <g
     id="g3497"
     transform="matrix(0.5525281,0,0,0.5525281,2.7373967,14.129257)">
    <g
       style="stroke:none;stroke-opacity:1"
       id="layer1"
       transform="matrix(0.4587328,0,0,0.4575467,-131.12188,-256.64648)">
      <path
         id="path2925"
         style="fill:#ff591f;fill-opacity:1;stroke:none;stroke-width:0.40000001;stroke-miterlimit:4;stroke-dasharray:none;stroke-opacity:1"
         d="M 296.77506,609.88093 C 294.93192,608.03779 294.77506,606.54759 294.77506,590.88093 C 294.77506,568.40233 293.29646,569.88093 315.77506,569.88093 C 338.25366,569.88093 336.77506,568.40233 336.77506,590.88093 C 336.77506,613.35952 338.25366,611.88093 315.77506,611.88093 C 300.10839,611.88093 298.6182,611.72406 296.77506,609.88093 z" />
      <path
         id="path3840"
         style="fill:#87cefa;fill-opacity:1;stroke:none;stroke-width:0.40000001;stroke-miterlimit:4;stroke-dasharray:none;stroke-opacity:1"
         d="M 296.77463,654.86372 C 294.93149,653.02062 294.77463,651.53042 294.77463,635.86372 C 294.77463,613.38512 293.29603,614.86372 315.77463,614.86372 C 338.25323,614.86372 336.77463,613.38512 336.77463,635.86372 C 336.77463,658.34232 338.25323,656.86372 315.77463,656.86372 C 300.10796,656.86372 298.61777,656.70682 296.77463,654.86372 z" />
      <path
         id="path3848"
         style="fill:#fffd3e;fill-opacity:1;stroke:none;stroke-width:0.40000001;stroke-miterlimit:4;stroke-dasharray:none;stroke-opacity:1"
         d="M 341.53139,654.86322 C 339.68825,653.02012 339.53139,651.52992 339.53139,635.86322 C 339.53139,613.38462 338.05279,614.86322 360.53139,614.86322 C 383.00999,614.86322 381.53139,613.38462 381.53139,635.86322 C 381.53139,658.34182 383.00999,656.86322 360.53139,656.86322 C 344.86472,656.86322 343.37452,656.70642 341.53139,654.86322 z" />
      <path
         id="path4747"
         style="fill:#42da42;fill-opacity:1;stroke:none;stroke-width:0.40000001;stroke-miterlimit:4;stroke-dasharray:none;stroke-opacity:1"
         d="M 341.53139,609.88126 C 339.68825,608.03812 339.53139,606.54792 339.53139,590.88125 C 339.53139,568.40265 338.05279,569.88125 360.53139,569.88125 C 383.00999,569.88125 381.53139,568.40265 381.53139,590.88125 C 381.53139,613.35982 383.00999,611.88126 360.53139,611.88126 C 344.86472,611.88126 343.37452,611.72439 341.53139,609.88126 z" />
    </g>
    <rect
       y="8"
       x="8"
       height="32"
       width="32"
       id="rect3265"
       style="opacity:0.75;fill:url(#radialGradient3505);fill-opacity:1;stroke:none;stroke-width:0.30000001;stroke-miterlimit:4;stroke-dasharray:none;stroke-opacity:1" />
  </g>
  <path
     sodipodi:nodetypes="ccccccccc"
     id="path6127"
     d="M 1.9423632,12.065208 L 45.838838,12.065611 C 46.472998,12.065611 46.883993,12.510222 46.883993,13.062978 L 45.639757,40.002309 C 45.639757,40.555064 45.129225,41.000062 44.495067,41.000062 L 3.2861326,41.000062 C 2.6519727,41.000062 2.1414399,40.555064 2.1414399,40.002309 L 0.897209,13.062962 C 0.897209,12.510205 1.3082033,12.065208 1.9423632,12.065208 z"
     style="opacity:0.4;fill:url(#linearGradient3565);fill-opacity:1;stroke:none;stroke-width:1;stroke-linecap:round;stroke-linejoin:round;stroke-miterlimit:4;stroke-dashoffset:0;stroke-opacity:1" />
  <path
     style="opacity:0.4;fill:none;fill-rule:evenodd;stroke:url(#radialGradient3562);stroke-width:0.99999976;stroke-linecap:round;stroke-linejoin:round;stroke-miterlimit:4;stroke-dasharray:none;stroke-opacity:1"
     d="M 46.38412,13.500062 C 32.85287,13.500062 15.91537,13.500062 2.3841204,13.500062 C 2.7695371,21.677145 3.1549537,29.854229 3.5403704,38.031312"
     id="path2435"
     sodipodi:nodetypes="ccc" />
  <path
     style="opacity:0.2;fill:url(#linearGradient3559);fill-opacity:1;stroke:none;stroke-width:1;stroke-linecap:round;stroke-linejoin:round;stroke-miterlimit:4;stroke-dashoffset:0;stroke-opacity:1"
     d="M 45.63412,12.000062 C 31.08453,12.07341 16.529536,11.978913 1.9778704,12.000062 C 0.17111024,12.411179 1.1434637,14.466672 1.005444,15.771587 C 1.2274735,19.934934 1.3285107,24.116526 1.6259055,28.268469 C 2.1716238,28.81886 3.0286995,28.275843 3.7161747,28.274309 C 17.907573,25.922477 32.098971,23.570644 46.29037,21.218812 C 47.209541,20.239208 46.568827,18.398059 46.872461,17.089247 C 46.855037,15.577125 47.20804,14.269631 46.947727,12.789588 C 46.718591,12.285026 46.160719,11.988744 45.63412,12.000062 z"
     id="path3455"
     sodipodi:nodetypes="ccccccccc" />
  <g
     id="g2551"
     transform="translate(60.562715,-8.0713658)">
    <path
       style="fill:url(#radialGradient3553);fill-opacity:1;fill-rule:evenodd;stroke:#666666;stroke-width:1;stroke-linecap:butt;stroke-linejoin:round;marker:none;marker-start:none;marker-mid:none;marker-end:none;stroke-miterlimit:4;stroke-dasharray:none;stroke-dashoffset:0;stroke-opacity:1;visibility:visible;display:inline;overflow:visible"
       d="M -30.928595,25.008588 L -13.928595,41.508589 L -21.678595,41.758589 C -21.678595,41.758589 -18.428595,48.508589 -18.428595,48.508589 C -17.428595,51.508589 -21.928595,52.633589 -22.678595,50.383589 C -22.678595,50.383589 -25.678595,43.633589 -25.678595,43.633589 L -31.178595,49.508589 L -30.928595,25.008588 z"
       id="path3970"
       sodipodi:nodetypes="cccssccc" />
    <path
       sodipodi:nodetypes="cccssccc"
       id="path4853"
       d="M -29.77136,27.449999 L -16.295814,40.635792 L -23.217675,40.913251 C -23.217675,40.913251 -19.345539,48.669818 -19.345539,48.669818 C -18.942808,50.319952 -21.373814,51.082383 -21.852639,49.822685 C -21.852639,49.822685 -25.535704,41.97773 -25.535704,41.97773 L -29.960431,46.686064 L -29.77136,27.449999 z"
       style="opacity:0.4;fill:none;fill-opacity:1;fill-rule:evenodd;stroke:#ffffff;stroke-width:1;stroke-linecap:butt;stroke-linejoin:miter;marker:none;marker-start:none;marker-mid:none;marker-end:none;stroke-miterlimit:4;stroke-dasharray:none;stroke-dashoffset:0;stroke-opacity:1;visibility:visible;display:inline;overflow:visible" />
  </g>
</svg>
