<?xml version="1.0" encoding="UTF-8" standalone="no"?>
<!-- Created with Inkscape (http://www.inkscape.org/) -->

<svg
   xmlns:dc="http://purl.org/dc/elements/1.1/"
   xmlns:cc="http://creativecommons.org/ns#"
   xmlns:rdf="http://www.w3.org/1999/02/22-rdf-syntax-ns#"
   xmlns:svg="http://www.w3.org/2000/svg"
   xmlns="http://www.w3.org/2000/svg"
   xmlns:xlink="http://www.w3.org/1999/xlink"
   xmlns:sodipodi="http://sodipodi.sourceforge.net/DTD/sodipodi-0.dtd"
   xmlns:inkscape="http://www.inkscape.org/namespaces/inkscape"
   version="1.0"
   width="22"
   height="22"
   id="svg2509"
   inkscape:version="0.48.1 r9760"
   sodipodi:docname="applications-internet.svg">
  <metadata
     id="metadata24">
    <rdf:RDF>
      <cc:Work
         rdf:about="">
        <dc:format>image/svg+xml</dc:format>
        <dc:type
           rdf:resource="http://purl.org/dc/dcmitype/StillImage" />
        <dc:title></dc:title>
      </cc:Work>
    </rdf:RDF>
  </metadata>
  <sodipodi:namedview
     pagecolor="#ffffff"
     bordercolor="#666666"
     borderopacity="1"
     objecttolerance="10"
     gridtolerance="10"
     guidetolerance="10"
     inkscape:pageopacity="0"
     inkscape:pageshadow="2"
     inkscape:window-width="640"
     inkscape:window-height="480"
     id="namedview22"
     showgrid="false"
     inkscape:zoom="10.915838"
     inkscape:cx="1.8941647"
     inkscape:cy="2.3053489"
     inkscape:current-layer="svg2509" />
  <defs
     id="defs2511">
    <linearGradient
       id="linearGradient3707-319-631">
      <stop
         id="stop4637"
         style="stop-color:#254b6d;stop-opacity:1"
         offset="0" />
      <stop
         id="stop4639"
         style="stop-color:#415b73;stop-opacity:1"
         offset="0.5" />
      <stop
         id="stop4641"
         style="stop-color:#6195b5;stop-opacity:1"
         offset="1" />
    </linearGradient>
    <linearGradient
       id="linearGradient2867-449-88-871-390-598-476-591-434-148">
      <stop
         id="stop4627"
         style="stop-color:#51cfee;stop-opacity:1"
         offset="0" />
      <stop
         id="stop4629"
         style="stop-color:#49a3d2;stop-opacity:1"
         offset="0.26238" />
      <stop
         id="stop4631"
         style="stop-color:#3470b4;stop-opacity:1"
         offset="0.704952" />
      <stop
         id="stop4633"
         style="stop-color:#273567;stop-opacity:1"
         offset="1" />
    </linearGradient>
    <linearGradient
       id="linearGradient4873">
      <stop
         id="stop4875"
         style="stop-color:#ffffff;stop-opacity:1"
         offset="0" />
      <stop
         id="stop4877"
         style="stop-color:#ffffff;stop-opacity:0"
         offset="1" />
    </linearGradient>
    <linearGradient
       x1="63.397362"
       y1="-12.489107"
       x2="63.397362"
       y2="5.4675598"
       id="linearGradient2405"
       xlink:href="#linearGradient4873"
       gradientUnits="userSpaceOnUse"
       gradientTransform="matrix(1.0862728,0,0,1.0862481,-56.56661,14.813638)" />
    <radialGradient
       cx="61.240059"
       cy="-8.7256308"
       r="9.7552834"
       fx="61.240059"
       fy="-8.7256308"
       id="radialGradient2409"
       xlink:href="#linearGradient2867-449-88-871-390-598-476-591-434-148"
       gradientUnits="userSpaceOnUse"
       gradientTransform="matrix(0,1.8972225,-1.8972215,0,-5.554453,-112.73788)" />
    <linearGradient
       x1="20"
       y1="43"
       x2="20"
       y2="2.6887112"
       id="linearGradient2411"
       xlink:href="#linearGradient3707-319-631"
       gradientUnits="userSpaceOnUse"
       gradientTransform="matrix(0.5277005,0,0,0.5276885,-1.8746522,-1.4544475)" />
    <radialGradient
       gradientTransform="matrix(0.6543553,0,0,0.7872284,2.4316513,3.284161)"
       gradientUnits="userSpaceOnUse"
       xlink:href="#linearGradient4222"
       id="radialGradient6352"
       fy="10.831757"
       fx="7.0351195"
       r="6.9044476"
       cy="10.831757"
       cx="7.0351195" />
    <radialGradient
       gradientTransform="matrix(1,0,0,0.8500189,0,0.5458021)"
       gradientUnits="userSpaceOnUse"
       xlink:href="#linearGradient6344"
       id="radialGradient6350"
       fy="4.7309699"
       fx="15.392599"
       r="3.1047995"
       cy="4.7309699"
       cx="15.392599" />
    <linearGradient
       gradientTransform="matrix(0.5734971,0,0,0.5610748,-6.9092097,-4.2376525)"
       gradientUnits="userSpaceOnUse"
       xlink:href="#linearGradient2264"
       id="linearGradient5566"
       y2="16.181141"
       x2="43.348965"
       y1="12.287908"
       x1="39.787907" />
    <linearGradient
       gradientTransform="matrix(0.546942,0,0,0.5547211,-4.3173069,-5.7938375)"
       gradientUnits="userSpaceOnUse"
       xlink:href="#linearGradient6369"
       id="linearGradient5562"
       y2="20.627432"
       x2="22.516865"
       y1="48.039482"
       x1="13.340408" />
    <linearGradient
       gradientTransform="matrix(0.546942,0,0,0.5547211,-4.3173069,-5.7938375)"
       gradientUnits="userSpaceOnUse"
       xlink:href="#linearGradient6761"
       id="linearGradient5560"
       y2="23.251602"
       x2="21.079702"
       y1="47.685928"
       x1="10.865535" />
    <linearGradient
       id="linearGradient4222">
      <stop
         offset="0"
         style="stop-color:white;stop-opacity:1"
         id="stop4224" />
      <stop
         offset="1"
         style="stop-color:white;stop-opacity:0"
         id="stop4226" />
    </linearGradient>
    <linearGradient
       id="linearGradient2264">
      <stop
         offset="0"
         style="stop-color:#d7e866;stop-opacity:1"
         id="stop2266" />
      <stop
         offset="1"
         style="stop-color:#8cab2a;stop-opacity:1"
         id="stop2268" />
    </linearGradient>
    <linearGradient
       id="linearGradient6369">
      <stop
         offset="0"
         style="stop-color:#8e8e8e;stop-opacity:1"
         id="stop6371" />
      <stop
         offset="0.51944989"
         style="stop-color:#737373;stop-opacity:1"
         id="stop6373" />
      <stop
         offset="0.68466324"
         style="stop-color:#5a5a5a;stop-opacity:1"
         id="stop6375" />
      <stop
         offset="0.7648505"
         style="stop-color:#5a5a5a;stop-opacity:1"
         id="stop6377" />
      <stop
         offset="0.91404903"
         style="stop-color:#595959;stop-opacity:1"
         id="stop6379" />
      <stop
         offset="1"
         style="stop-color:#555;stop-opacity:1"
         id="stop6381" />
    </linearGradient>
    <linearGradient
       id="linearGradient6761">
      <stop
         offset="0"
         style="stop-color:#f0f0f0;stop-opacity:1"
         id="stop6763" />
      <stop
         offset="0.62007451"
         style="stop-color:#c8c8c8;stop-opacity:1"
         id="stop6765" />
      <stop
         offset="0.8129741"
         style="stop-color:#a0a0a0;stop-opacity:1"
         id="stop6767" />
      <stop
         offset="0.91870362"
         style="stop-color:#a0a0a0;stop-opacity:1"
         id="stop6769" />
      <stop
         offset="0.98263478"
         style="stop-color:#c8c8c8;stop-opacity:1"
         id="stop6771" />
      <stop
         offset="1"
         style="stop-color:#dcdcdc;stop-opacity:1"
         id="stop6773" />
    </linearGradient>
    <linearGradient
       id="linearGradient6344">
      <stop
         offset="0"
         style="stop-color:white;stop-opacity:1"
         id="stop6346" />
      <stop
         offset="1"
         style="stop-color:white;stop-opacity:0"
         id="stop6348" />
    </linearGradient>
  </defs>
  <path
     d="M 21.500024,10.999616 C 21.500024,16.798799 16.798662,21.5 11.000144,21.5 C 5.2010955,21.5 0.49999997,16.798745 0.49999997,10.999616 C 0.49999997,5.2006982 5.2010955,0.49997523 11.000144,0.49997523 C 16.798662,0.49997523 21.500024,5.2006982 21.500024,10.999616 L 21.500024,10.999616 z"
     id="path6495"
     style="fill:url(#radialGradient2409);fill-opacity:1;fill-rule:nonzero;stroke:url(#linearGradient2411);stroke-width:0.99999994;stroke-miterlimit:4;stroke-dasharray:none" />
  <path
     d="M 11.187974,0.90412523 L 9.949801,1.047707 L 8.587808,1.42461 C 8.703826,1.3834051 8.821358,1.3384272 8.941573,1.2989756 L 8.782379,1.0118117 L 8.251734,1.1015504 L 7.9864097,1.352819 L 7.5795813,1.4066622 L 7.2081296,1.5861398 L 7.0312482,1.6758785 L 6.9781831,1.7476695 L 6.7128608,1.8015128 L 6.5536685,2.1425201 L 6.3414085,1.7117739 L 6.2706564,1.8912516 L 6.3060352,2.3758408 L 5.9699595,2.6630049 L 5.7753898,3.1834897 L 6.182219,3.1834897 L 6.3414112,2.8424825 L 6.394477,2.7168481 C 6.5733556,2.5884928 6.742934,2.4455474 6.9251224,2.3219976 L 7.3496385,2.4655796 C 7.6260303,2.6561145 7.9043641,2.8496622 8.180984,3.0399077 L 8.587808,2.6630049 L 8.127916,2.4655796 L 7.9156577,2.0348336 L 7.1373776,1.9450948 L 7.1196886,1.8553561 L 7.4557635,1.9271471 L 7.6503347,1.7297217 L 8.07485,1.6399829 C 8.175311,1.5904068 8.274136,1.5546995 8.37555,1.5143488 L 8.110226,1.7656172 L 9.065389,2.4296842 L 9.065389,2.8245348 L 8.693936,3.2014375 L 9.189207,4.2065124 L 9.525282,4.0090857 L 9.9498,3.3450196 C 10.546638,3.1577869 11.084548,2.939916 11.647868,2.6809526 L 11.612489,2.9322212 L 11.895498,3.1296464 L 12.390768,2.7886391 L 12.143134,2.5014751 L 11.807057,2.6989004 L 11.700928,2.6630055 C 11.725306,2.6517029 11.747198,2.6385991 11.771681,2.6271108 L 12.266953,1.3348712 L 11.187974,0.90412523 z M 6.3414085,2.8424825 L 6.7482369,3.1296464 L 7.0843125,3.1296464 L 7.0843125,2.7886391 L 6.6774849,2.6091617 L 6.3414085,2.8424825 L 6.3414085,2.8424825 z M 15.73384,2.6091617 L 15.008623,2.7886391 L 14.548733,3.0937511 L 14.548733,3.3629669 L 13.823514,3.8296082 L 13.965021,4.529572 L 14.389538,4.224459 L 14.654861,4.529572 L 14.955561,4.7090494 L 15.150129,4.1885636 L 15.044002,3.8834524 L 15.150129,3.6680784 L 15.574646,3.2732286 L 15.769217,3.2732286 L 15.574646,3.7039759 L 15.574646,4.0988252 C 15.74962,4.0504985 15.926233,4.0316771 16.105292,4.0090857 L 15.610023,4.3680422 L 15.574644,4.5834141 L 15.008622,5.0680045 L 14.424911,4.9244213 L 14.424911,4.5834141 L 14.159589,4.762892 L 14.283407,5.0680045 L 13.858889,5.0680045 L 13.628943,5.4628549 L 13.345933,5.7859145 L 12.832975,5.8936006 L 13.133674,6.1987125 L 13.204426,6.5038244 L 12.832975,6.5038244 L 12.337705,6.7730402 L 12.337705,7.5627404 L 12.56765,7.5627404 L 12.77991,7.7960617 L 13.257492,7.5627404 L 13.434372,7.0781508 L 13.788136,6.8627779 L 13.858889,6.683301 L 14.424911,6.5397189 L 14.743299,6.8986739 L 15.079374,7.0781508 L 14.884803,7.473002 L 15.185505,7.3832635 L 15.344697,6.9884124 L 14.955558,6.5397189 L 15.114751,6.5397189 L 15.503892,6.8627779 L 15.574644,7.2935251 L 15.910718,7.6883756 L 15.999161,7.1140477 L 16.176043,7.0243078 C 16.364323,7.2226342 16.512734,7.465173 16.671312,7.6883756 L 17.255022,7.7242738 L 17.591098,7.9396474 L 17.431905,8.1729674 L 17.09583,8.4780802 L 16.600558,8.4780802 L 15.946096,8.2627087 L 15.610021,8.2986068 L 15.362386,8.5857712 L 14.654858,7.8678604 L 14.159589,7.7242781 L 13.434372,7.8140172 L 12.797597,7.9934948 C 12.434342,8.4113555 12.062434,8.83382 11.718617,9.267786 L 11.311788,10.27286 L 11.50636,10.488232 L 11.152596,11.008718 L 11.541736,11.924053 C 11.865542,12.295722 12.191252,12.664881 12.514586,13.036813 L 12.992168,12.624015 L 13.186738,12.875285 L 13.699697,12.534277 L 13.876576,12.731702 L 14.389535,12.731702 L 14.690235,13.072709 L 14.513353,13.682933 L 14.867116,14.095732 L 14.849427,14.81364 L 15.114749,15.334128 L 14.92018,15.78282 C 14.901211,16.104628 14.884801,16.412192 14.884801,16.73405 C 15.040864,17.17009 15.197328,17.60506 15.344695,18.044237 L 15.450824,18.744197 L 15.450824,19.103155 L 15.733834,19.103155 L 16.140663,18.833937 L 16.635932,18.833937 L 17.378837,17.990394 L 17.290395,17.703228 L 17.785667,17.254537 L 17.414213,16.841738 L 17.856418,16.482782 L 18.280934,16.213565 L 18.475505,15.998192 L 18.351688,15.513603 C 18.351688,15.10563 18.351689,14.701184 18.351688,14.293156 L 18.687763,13.539352 L 19.112279,13.072709 L 19.572172,11.924053 L 19.572172,11.618941 C 19.343316,11.648193 19.123954,11.674569 18.900021,11.690733 L 19.359914,11.224092 L 19.996688,10.793345 L 20.332766,10.398495 L 20.332766,9.967749 C 20.25654,9.821889 20.179564,9.664913 20.102817,9.519055 L 19.802118,9.878008 L 19.572171,9.608794 L 19.236094,9.339579 L 19.236094,8.7831978 L 19.625236,9.23189 L 20.067441,9.178047 C 20.266933,9.361809 20.458488,9.525206 20.633462,9.734429 L 20.916481,9.41136 C 20.916481,9.063559 20.530421,7.3465706 19.695996,5.8936006 C 18.861569,4.4411087 17.396531,3.1116987 17.396532,3.1116987 L 17.290402,3.309124 L 16.901261,3.7398701 L 16.405991,3.2193852 L 16.901261,3.2193852 L 17.131207,2.9681167 L 16.211422,2.7886391 L 15.73384,2.6091617 z M 5.1032348,2.8424825 L 4.9263527,3.309124 C 4.9263527,3.309124 4.6166762,3.3610007 4.5372133,3.3809152 C 3.5223922,4.3297928 1.4759479,6.3879482 0.99957467,10.254906 C 1.0184367,10.34456 1.3356504,10.865128 1.3356504,10.865128 L 2.1139305,11.331769 L 2.8922113,11.547142 L 3.2282871,11.959941 L 3.7412449,12.354791 L 4.0419439,12.300949 L 4.2542027,12.408636 L 4.2542027,12.480425 L 3.9711913,13.288073 L 3.7412449,13.629082 L 3.8119975,13.790612 L 3.6351155,14.436732 L 4.2895787,15.657179 L 4.9617301,16.249454 L 5.2624284,16.6802 L 5.2270503,17.577588 L 5.4393084,18.080124 L 5.2270503,19.049304 C 5.2270503,19.049304 5.1987264,19.041335 5.2270503,19.139041 C 5.2556254,19.236798 6.4094489,19.894408 6.4829108,19.839004 C 6.5561219,19.782568 6.6244176,19.731317 6.6244176,19.731317 L 6.553665,19.515945 L 6.8543641,19.228781 L 6.9604927,18.923669 L 7.4380745,18.762138 L 7.8095262,17.828857 L 7.7033968,17.577588 L 7.9510316,17.182737 L 8.517054,17.057102 L 8.800066,16.375088 L 8.729312,15.531542 L 9.171518,14.903372 L 9.242269,14.257253 C 8.635543,13.951965 8.040276,13.638286 7.4380745,13.32397 L 7.1373754,12.731695 L 6.5890409,12.606061 L 6.2883419,11.798411 L 5.5631262,11.88815 L 4.9263506,11.421508 L 4.2541991,12.013784 L 4.2541991,12.103524 C 4.0528755,12.044561 3.814379,12.035884 3.6351162,11.924046 L 3.4936109,11.4933 L 3.4936109,11.026657 L 3.0337181,11.0805 C 3.0707279,10.783261 3.1202685,10.480302 3.1575345,10.183113 L 2.8922113,10.183113 L 2.6268883,10.524121 L 2.3792535,10.649756 L 2.0078018,10.434382 L 1.9724251,9.967739 L 2.0431779,9.465203 L 2.5915123,9.034456 L 3.0337167,9.034456 L 3.1221585,8.7831885 L 3.6704922,8.9088214 L 4.0773206,9.429307 L 4.1480733,8.567815 L 4.8556007,7.9755408 L 5.1032348,7.3473682 L 5.6338817,7.131996 L 5.9168924,6.7012494 L 6.5890445,6.5756148 L 6.9251195,6.0730776 C 6.5924724,6.0730776 6.2495403,6.0730776 5.9168924,6.0730776 L 6.5536685,5.7679658 L 6.9958708,5.7679658 L 7.5618944,5.5705411 L 7.6680238,6.1269212 L 7.9156584,5.7320703 L 7.632647,5.5346452 L 7.7034005,5.3013252 L 7.473454,5.0859511 L 7.2258179,5.0141603 L 7.2965721,4.7449443 L 7.1020009,4.3680422 L 6.6597965,4.5475192 L 6.7305492,4.2065124 L 6.2175914,3.9014 L 5.8107637,4.61931 L 5.8461425,4.8705787 L 5.4393148,5.0500564 L 5.1916801,5.6064365 L 5.0678623,5.0859511 L 4.3780226,4.7987874 L 4.2542055,4.4039371 L 5.1916801,3.8655046 L 5.5985078,3.4706538 L 5.6338866,3.0040123 L 5.4039402,2.8783778 L 5.1032404,2.8424831 L 5.1032348,2.8424825 z M 12.69147,3.7039759 L 12.69147,3.991138 L 12.850665,4.170616 L 12.850665,4.6013622 L 12.762224,5.17569 L 13.222117,5.0859511 L 13.558192,4.7449443 L 13.257494,4.4577797 C 13.159978,4.1942962 13.061153,3.9566909 12.939105,3.7039759 L 12.69147,3.7039759 z M 12.302329,4.2783022 L 12.019319,4.3680422 L 12.090073,4.8885265 L 12.461525,4.6910996 L 12.302329,4.2783022 L 12.302329,4.2783022 z M 17.48497,8.9985623 L 17.909489,9.501097 L 18.422446,10.61386 L 18.740831,10.972814 L 18.58164,11.349719 L 18.864651,11.690725 C 18.734775,11.699447 18.608999,11.708676 18.47551,11.708676 C 18.233009,11.191627 18.041089,10.670189 17.856424,10.129272 L 17.538035,9.770317 L 17.361154,9.124198 L 17.48497,8.9985643 L 17.48497,8.9985623 z"
     id="path6534"
     style="opacity:0.4;fill:#000000;fill-opacity:1;fill-rule:nonzero;stroke:none" />
  <path
     d="M 20.499999,10.999663 C 20.499999,16.246537 16.24639,20.499999 11.00012,20.499999 C 5.7533673,20.499999 1.4999998,16.24649 1.4999998,10.999663 C 1.4999998,5.7530318 5.7533673,1.5000007 11.00012,1.5000007 C 16.24639,1.5000007 20.499999,5.7530318 20.499999,10.999663 L 20.499999,10.999663 z"
     id="path2463"
     style="opacity:0.4;fill:none;fill-opacity:1;fill-rule:nonzero;stroke:url(#linearGradient2405);stroke-width:0.99999994;stroke-miterlimit:4;stroke-dasharray:none;stroke-opacity:1" />
  <g
     id="g6354"
     transform="translate(0.00188681,-4.4785251e-5)">
    <path
       style="fill:url(#XMLID_8_);stroke-width:1;stroke-miterlimit:4;stroke-dasharray:none"
       id="path5540"
       d="m 14.963319,13.38616 c -0.08347,-0.482389 -0.255215,-0.978984 -0.456029,-1.398475 -0.01006,-0.02547 -0.02329,-0.05267 -0.04063,-0.08178 -0.07207,-0.143818 -0.14681,-0.27793 -0.222826,-0.396967 -0.117383,-0.251417 -0.201552,-0.545632 -0.201552,-0.922151 0,-1.7467495 0.153674,-2.1645052 0.422152,-2.4140136 C 14.948071,7.7229616 15.180206,7.028143 14.687988,6.5703625 14.494621,6.3905051 14.27402,6.2993642 14.032587,6.2993642 c -0.310199,0 -0.642377,0.1564631 -0.960212,0.4522372 -0.694157,0.5492716 -0.453617,1.7335802 -0.453617,2.7948657 0,0.4856809 -1.031557,0.8294509 -1.445336,0.9250949 -1.2066805,0.0047 -4.6375743,0.178299 -5.7531457,1.697194 -1.0052713,1.368151 -5.14785836,8.131273 -5.14785836,9.2085 0,0.09565 0.0834632,0.173274 0.18630167,0.173274 1.74395819,0 13.61577639,-5.968677 14.09290239,-6.401507 0.405362,-0.368031 0.547908,-0.977599 0.411697,-1.762863 z"
       inkscape:connector-curvature="0" />
    <path
       style="fill:url(#linearGradient5566);fill-opacity:1;stroke:#3d7406;stroke-width:1.00325549;stroke-miterlimit:4;stroke-opacity:1;stroke-dasharray:none;display:inline;enable-background:new"
       id="path5542"
       d="M 18.039459,0.85874351 C 16.462619,1.7733751 13.228171,4.7926441 12.878854,5.6416199 12.6156,5.8813872 12.754439,7.3764544 13.12027,7.6160285 l 0.638748,0.6059232 c 0.545322,0.4965755 1.960845,0.2272895 2.324805,-0.056056 1.302899,-0.9467726 4.594375,-3.8766265 4.935555,-4.4396172 0.5453,-0.7098128 0.674102,-1.9821196 0.128606,-2.4786948 L 20.698541,0.83817408 c -0.54508,-0.49618975 -1.751143,-0.40473789 -2.659082,0.0205694 z"
       inkscape:connector-curvature="0" />
    <path
       style="opacity:0.6;fill:none;stroke:url(#radialGradient6350);stroke-width:1;stroke-linecap:round;stroke-linejoin:miter;stroke-miterlimit:4;stroke-opacity:1;stroke-dasharray:none"
       id="path6730"
       d="M 14.290401,5.7782763 C 16.051281,4.0751957 17.763467,2.4622868 19.5,1.5"
       inkscape:connector-curvature="0" />
    <path
       style="fill:url(#linearGradient5560);fill-opacity:1;stroke:url(#linearGradient5562);stroke-width:0.70513111;stroke-linejoin:round;stroke-miterlimit:4;stroke-opacity:1;stroke-dasharray:none"
       id="path5548"
       d="m 14.894024,5.3525859 c -0.300092,-0.00222 -0.603132,0.178232 -0.854587,0.4333771 -0.536923,0.54431 -0.393114,1.1805562 -0.393114,3.0856349 0,0.5582076 -1.43667,1.1614491 -1.794649,1.1614491 -0.01776,-2.13e-4 -0.0334,0 -0.05129,0 -1.145062,0 -4.8710703,0.162935 -6.0163734,1.750837 -1.1452576,1.587898 -5.43521876,8.804849 -5.43521876,9.86364 1.71781296,0 14.19572616,-6.290398 14.83583616,-6.882014 0.774209,-0.71578 0.397788,-2.159003 -0.102593,-3.120306 0.0034,-0.0045 -0.0021,-0.01199 0,-0.01734 0.0139,-0.03475 0.01027,-0.08088 -0.03417,-0.156012 -0.26818,-0.453401 -0.410183,-0.907599 -0.410183,-1.5428185 0,-1.603396 0.166413,-2.4225923 0.56402,-2.8256111 C 15.559698,6.7403579 15.876105,6.0540791 15.423893,5.5952783 15.254324,5.4232264 15.074088,5.353923 14.894024,5.3525859 z"
       inkscape:connector-curvature="0" />
    <path
       style="fill:url(#XMLID_12_);stroke-width:1;stroke-miterlimit:4;stroke-dasharray:none"
       id="path5550"
       d="m 14.206223,7.9220505 c -0.38918,0.3617905 -0.681863,1.1803254 -0.681863,2.6196885 0,0.570235 0.50674,1.022299 0.769248,1.429486 0.535406,0.830143 -3.744486,-1.341812 -3.231191,-1.341812 0.350421,0 1.742624,-0.495208 1.742624,-0.9963097 0,-1.7101881 -0.126473,-2.2703734 0.399083,-2.7589989 0.393796,-0.3664691 0.909503,-0.5929343 1.352169,-0.1810686 0.442643,0.4118659 1.87e-4,0.9030898 -0.35007,1.2290147 z"
       inkscape:connector-curvature="0" />
    <path
       style="fill:url(#XMLID_13_);stroke-width:1;stroke-miterlimit:4;stroke-dasharray:none"
       id="path5552"
       d="m 11.104677,10.644659 c -1.076815,0 -4.4536928,0.155948 -5.5307055,1.621823 -1.0304225,1.40263 -4.77208872,7.552373 -5.09326901,8.952059 0.0322286,0.305303 3.97732301,-1.460158 7.11163351,-2.943531 3.264012,-1.544715 6.45551,-3.078338 6.762736,-3.357134 1.076979,-0.977246 -0.09577,-3.367351 -0.633995,-3.611664 -0.538391,-0.244141 -1.53529,-0.839847 -2.6164,-0.661553 z"
       inkscape:connector-curvature="0" />
    <path
       style="fill:url(#XMLID_14_);stroke-width:1;stroke-miterlimit:4;stroke-dasharray:none"
       id="path5554"
       d="m 11.277552,10.607233 c 0.567663,-0.101709 1.527489,-0.535581 1.527489,-0.9741297 l 0.800161,0.3810237 c 0,0.882989 0.196936,1.324487 0.514187,1.703084 0.04828,0.07901 -2.922854,-1.095595 -2.841837,-1.109978 z"
       inkscape:connector-curvature="0" />
    <path
       style="opacity:0.6;fill:none;stroke:url(#radialGradient6352);stroke-width:0.82099998;stroke-linejoin:miter;stroke-miterlimit:4;stroke-opacity:1;stroke-dasharray:none;display:inline;enable-background:new"
       id="path6385"
       d="m 12.376095,10.410273 c 0.02783,0.751103 -4.7745138,0.151784 -5.8310404,1.647492 -1.8269298,2.81219 -3.4238569,5.091926 -4.9432227,8.402263 4.3734678,-1.631812 8.5861421,-3.862956 12.9878951,-6.343034"
       inkscape:connector-curvature="0" />
    <path
       style="opacity:0.6;fill:none;stroke:#ffffff;stroke-width:0.699;stroke-linecap:square;stroke-linejoin:miter;stroke-miterlimit:4;stroke-opacity:1;stroke-dasharray:none;stroke-dashoffset:0"
       id="path6361"
       transform="matrix(0.7399493,0,0,0.6448492,-65.744077,-17.756025)"
       d="m 109.1875,37.25 c 0,0.224366 -0.1539,0.40625 -0.34375,0.40625 -0.18985,0 -0.34375,-0.181884 -0.34375,-0.40625 0,-0.224366 0.1539,-0.40625 0.34375,-0.40625 0.18985,0 0.34375,0.181884 0.34375,0.40625 z"
       inkscape:connector-curvature="0" />
    <path
       style="opacity:0.6;fill:#ffffff;fill-opacity:1;fill-rule:evenodd;stroke:none"
       id="rect6775"
       d="M 14.095203,6.6310308 C 14.266085,6.0923619 15.056794,6.7902904 14.714909,7.0951236 14.160743,7.6203286 14.115795,8.7586016 14.198485,10 L 13.596,9.75936 c 0.669149,-0.3973404 0.340352,-1.9874579 0.499203,-3.1283292 z"
       inkscape:connector-curvature="0" />
  </g>
</svg>
