<?xml version="1.0" encoding="UTF-8" standalone="no"?>
<!-- Created with Inkscape (http://www.inkscape.org/) -->

<svg
   xmlns:dc="http://purl.org/dc/elements/1.1/"
   xmlns:cc="http://creativecommons.org/ns#"
   xmlns:rdf="http://www.w3.org/1999/02/22-rdf-syntax-ns#"
   xmlns:svg="http://www.w3.org/2000/svg"
   xmlns="http://www.w3.org/2000/svg"
   xmlns:xlink="http://www.w3.org/1999/xlink"
   xmlns:sodipodi="http://sodipodi.sourceforge.net/DTD/sodipodi-0.dtd"
   xmlns:inkscape="http://www.inkscape.org/namespaces/inkscape"
   width="22"
   height="22"
   id="svg6485"
   version="1.1"
   inkscape:version="0.48.1 r9760"
   sodipodi:docname="Nuevo documento 35">
  <defs
     id="defs6487">
    <linearGradient
       inkscape:collect="always"
       xlink:href="#linearGradient4144"
       id="linearGradient4932"
       gradientUnits="userSpaceOnUse"
       gradientTransform="matrix(0.44245154,0,0,0.52513514,-58.457836,-1.742896)"
       x1="156"
       y1="20"
       x2="156"
       y2="22" />
    <linearGradient
       inkscape:collect="always"
       id="linearGradient4144">
      <stop
         style="stop-color:#ffffff;stop-opacity:1;"
         offset="0"
         id="stop4146" />
      <stop
         style="stop-color:#ffffff;stop-opacity:0;"
         offset="1"
         id="stop4148" />
    </linearGradient>
    <linearGradient
       inkscape:collect="always"
       xlink:href="#linearGradient4114"
       id="linearGradient4935"
       gradientUnits="userSpaceOnUse"
       gradientTransform="matrix(0.43498676,0,0,0.36517878,-57.181796,-0.51007)"
       x1="157"
       y1="17"
       x2="157"
       y2="4" />
    <linearGradient
       inkscape:collect="always"
       id="linearGradient4114">
      <stop
         style="stop-color:#5b371f;stop-opacity:1;"
         offset="0"
         id="stop4116" />
      <stop
         style="stop-color:#5b371f;stop-opacity:0;"
         offset="1"
         id="stop4118" />
    </linearGradient>
    <inkscape:path-effect
       is_visible="true"
       id="path-effect4840"
       effect="spiro" />
    <linearGradient
       inkscape:collect="always"
       xlink:href="#linearGradient4114"
       id="linearGradient4938"
       gradientUnits="userSpaceOnUse"
       gradientTransform="matrix(0.44713303,0,0,0.3652616,-58.776726,-0.511827)"
       x1="157"
       y1="17"
       x2="157"
       y2="4" />
    <inkscape:path-effect
       is_visible="true"
       id="path-effect4836"
       effect="spiro" />
    <linearGradient
       inkscape:collect="always"
       xlink:href="#linearGradient4114"
       id="linearGradient4941"
       gradientUnits="userSpaceOnUse"
       gradientTransform="matrix(0.44184943,0,0,0.36525897,-58.060536,-0.511497)"
       x1="157"
       y1="17"
       x2="157"
       y2="4" />
    <inkscape:path-effect
       effect="spiro"
       id="path-effect4832"
       is_visible="true" />
    <linearGradient
       inkscape:collect="always"
       xlink:href="#linearGradient4492"
       id="linearGradient4944"
       gradientUnits="userSpaceOnUse"
       gradientTransform="matrix(0.48279832,0,0,0.47354535,-64.751927,-0.357169)"
       x1="141.53125"
       y1="26.628139"
       x2="149.75"
       y2="41.628139" />
    <linearGradient
       inkscape:collect="always"
       id="linearGradient4492">
      <stop
         style="stop-color:#ffffff;stop-opacity:1;"
         offset="0"
         id="stop4494" />
      <stop
         style="stop-color:#ffffff;stop-opacity:0;"
         offset="1"
         id="stop4496" />
    </linearGradient>
    <radialGradient
       inkscape:collect="always"
       xlink:href="#linearGradient3898"
       id="radialGradient4947"
       gradientUnits="userSpaceOnUse"
       gradientTransform="matrix(0.43174574,0,0,0.39257339,-56.852341,2.897312)"
       cx="156"
       cy="27.696297"
       fx="156"
       fy="27.696297"
       r="18" />
    <linearGradient
       id="linearGradient3898">
      <stop
         style="stop-color:#ffffff;stop-opacity:1;"
         offset="0"
         id="stop3900" />
      <stop
         id="stop4490"
         offset="0.5"
         style="stop-color:#ededed;stop-opacity:1;" />
      <stop
         style="stop-color:#c8c8c8;stop-opacity:1;"
         offset="1"
         id="stop3902" />
    </linearGradient>
    <radialGradient
       inkscape:collect="always"
       xlink:href="#linearGradient3890"
       id="radialGradient4916"
       gradientUnits="userSpaceOnUse"
       gradientTransform="matrix(1,0,0,0.33333332,0,27.229172)"
       cx="156.84373"
       cy="40.843758"
       fx="156.84373"
       fy="40.843758"
       r="10.968749" />
    <linearGradient
       inkscape:collect="always"
       id="linearGradient3890">
      <stop
         style="stop-color:#000000;stop-opacity:1;"
         offset="0"
         id="stop3892" />
      <stop
         style="stop-color:#000000;stop-opacity:0;"
         offset="1"
         id="stop3894" />
    </linearGradient>
    <radialGradient
       inkscape:collect="always"
       xlink:href="#linearGradient3906"
       id="radialGradient4951"
       gradientUnits="userSpaceOnUse"
       gradientTransform="matrix(0.3496737,-0.00198789,7.8678459e-4,0.17358604,-44.000076,7.724466)"
       cx="156.00658"
       cy="16.88216"
       fx="156.00658"
       fy="16.88216"
       r="16.99999" />
    <linearGradient
       id="linearGradient3906">
      <stop
         style="stop-color:#b37851;stop-opacity:1;"
         offset="0"
         id="stop3908" />
      <stop
         style="stop-color:#462e1e;stop-opacity:1;"
         offset="1"
         id="stop3910" />
    </linearGradient>
    <radialGradient
       inkscape:collect="always"
       xlink:href="#linearGradient3906"
       id="radialGradient6824"
       gradientUnits="userSpaceOnUse"
       gradientTransform="matrix(0.3496737,-0.00198789,7.8678459e-4,0.17358604,107.72503,246.69535)"
       cx="156.00658"
       cy="16.88216"
       fx="156.00658"
       fy="16.88216"
       r="16.99999" />
    <radialGradient
       inkscape:collect="always"
       xlink:href="#linearGradient3898"
       id="radialGradient6826"
       gradientUnits="userSpaceOnUse"
       gradientTransform="matrix(0.43174574,0,0,0.39257339,94.872764,241.86819)"
       cx="156"
       cy="27.696297"
       fx="156"
       fy="27.696297"
       r="18" />
    <linearGradient
       inkscape:collect="always"
       xlink:href="#linearGradient4492"
       id="linearGradient6828"
       gradientUnits="userSpaceOnUse"
       gradientTransform="matrix(0.48279832,0,0,0.47354535,86.973178,238.61371)"
       x1="141.53125"
       y1="26.628139"
       x2="149.75"
       y2="41.628139" />
    <linearGradient
       inkscape:collect="always"
       xlink:href="#linearGradient4114"
       id="linearGradient6830"
       gradientUnits="userSpaceOnUse"
       gradientTransform="matrix(0.44184943,0,0,0.36525897,93.664569,238.45938)"
       x1="157"
       y1="17"
       x2="157"
       y2="4" />
    <linearGradient
       inkscape:collect="always"
       xlink:href="#linearGradient4114"
       id="linearGradient6832"
       gradientUnits="userSpaceOnUse"
       gradientTransform="matrix(0.44713303,0,0,0.3652616,92.948379,238.45905)"
       x1="157"
       y1="17"
       x2="157"
       y2="4" />
    <linearGradient
       inkscape:collect="always"
       xlink:href="#linearGradient4114"
       id="linearGradient6834"
       gradientUnits="userSpaceOnUse"
       gradientTransform="matrix(0.43498676,0,0,0.36517878,94.543309,238.46081)"
       x1="157"
       y1="17"
       x2="157"
       y2="4" />
    <linearGradient
       inkscape:collect="always"
       xlink:href="#linearGradient4144"
       id="linearGradient6836"
       gradientUnits="userSpaceOnUse"
       gradientTransform="matrix(0.44245154,0,0,0.52513514,93.267269,237.22798)"
       x1="156"
       y1="20"
       x2="156"
       y2="22" />
    <radialGradient
       inkscape:collect="always"
       xlink:href="#linearGradient3890"
       id="radialGradient6838"
       gradientUnits="userSpaceOnUse"
       gradientTransform="matrix(1,0,0,0.33333332,0,27.229172)"
       cx="156.84373"
       cy="40.843758"
       fx="156.84373"
       fy="40.843758"
       r="10.968749" />
  </defs>
  <sodipodi:namedview
     id="base"
     pagecolor="#ffffff"
     bordercolor="#666666"
     borderopacity="1.0"
     inkscape:pageopacity="0.0"
     inkscape:pageshadow="2"
     inkscape:zoom="29.708333"
     inkscape:cx="11"
     inkscape:cy="11"
     inkscape:document-units="px"
     inkscape:current-layer="layer1"
     showgrid="false"
     fit-margin-top="0"
     fit-margin-left="0"
     fit-margin-right="0"
     fit-margin-bottom="0" />
  <metadata
     id="metadata6490">
    <rdf:RDF>
      <cc:Work
         rdf:about="">
        <dc:format>image/svg+xml</dc:format>
        <dc:type
           rdf:resource="http://purl.org/dc/dcmitype/StillImage" />
        <dc:title></dc:title>
      </cc:Work>
    </rdf:RDF>
  </metadata>
  <g
     inkscape:label="Capa 1"
     inkscape:groupmode="layer"
     id="layer1"
     transform="translate(-152.7251,-239.97089)">
    <path
       sodipodi:nodetypes="ccsccsccsccsc"
       style="opacity:0.98999999;color:#000000;fill:#dcdcdc;fill-opacity:1;fill-rule:nonzero;stroke:#969696;stroke-width:0.99999982;stroke-linecap:round;stroke-linejoin:round;stroke-miterlimit:4;stroke-opacity:1;stroke-dasharray:none;stroke-dashoffset:0;marker:none;visibility:visible;display:inline;overflow:visible;enable-background:accumulate"
       d="m 170.02565,251.47088 -0.44872,2.0446 1.23094,0 c 0.28544,0 0.48133,-0.1831 0.39291,0.24851 l -0.27909,1.4138 c -0.0884,0.43157 -0.37043,0.3007 -0.65586,0.3007 l -1.3705,0 -0.40468,1.99239 2.31528,0 c 1.96518,0 1.72649,-1.02334 1.98664,-2.29309 l 0.27909,-1.4138 c 0.26016,-1.26975 0.3962,-2.29311 -1.03774,-2.29311 z"
       id="path4798"
       inkscape:connector-curvature="0" />
    <path
       sodipodi:type="arc"
       style="opacity:0.98999999;color:#000000;fill:#52250c;fill-opacity:1;fill-rule:nonzero;stroke:#141414;stroke-width:1.82943439;stroke-linecap:round;stroke-linejoin:round;stroke-miterlimit:4;stroke-opacity:1;stroke-dasharray:none;stroke-dashoffset:0;marker:none;visibility:visible;display:inline;overflow:visible;enable-background:accumulate"
       id="path4800"
       sodipodi:cx="215.24998"
       sodipodi:cy="19.937511"
       sodipodi:rx="12.124999"
       sodipodi:ry="1.9999998"
       d="m 227.37498,19.937511 c 0,1.10457 -5.42854,2 -12.125,2 -6.69645,0 -12.12499,-0.89543 -12.12499,-2 0,-1.104569 5.42854,-1.999999 12.12499,-1.999999 6.69646,0 12.125,0.89543 12.125,1.999999 z"
       transform="matrix(0.54555906,0,0,0.54767707,45.174915,238.75146)" />
    <path
       style="opacity:0.98999999;color:#000000;fill:#dcdcdc;fill-opacity:1;stroke:#969696;stroke-width:1.00000012;stroke-linecap:round;stroke-linejoin:round;stroke-miterlimit:4;stroke-opacity:1;stroke-dasharray:none;stroke-dashoffset:0;marker:none;visibility:visible;display:inline;overflow:visible;enable-background:accumulate"
       d="m 162.22509,246.47088 c -4.42118,0 -7.99999,1.21855 -7.99999,2.71241 0,1.49386 3.57881,2.71243 7.99999,2.71243 4.4212,0 8.00001,-1.21857 8.00001,-2.71243 0,-1.49386 -3.57881,-2.71241 -8.00001,-2.71241 z"
       id="path4802"
       inkscape:connector-curvature="0"
       sodipodi:nodetypes="sssss" />
    <path
       style="opacity:0.98999999;color:#000000;fill:url(#radialGradient6824);fill-opacity:1;stroke:#bf8d6d;stroke-width:1.00000012;stroke-linecap:round;stroke-linejoin:round;stroke-miterlimit:4;stroke-opacity:1;stroke-dasharray:none;stroke-dashoffset:0;marker:none;visibility:visible;display:inline;overflow:visible;enable-background:accumulate"
       d="m 162.2897,248.47088 c -4.40248,0 -7.96616,1.20426 -7.96616,2.68063 0,1.47637 3.56368,2.68066 7.96616,2.68066 4.40251,0 7.96618,-1.20429 7.96618,-2.68066 0,-1.47637 -3.56367,-2.68063 -7.96618,-2.68063 z"
       id="path4804"
       inkscape:connector-curvature="0"
       sodipodi:nodetypes="sssss" />
    <path
       style="opacity:0.98999999;color:#000000;fill:url(#radialGradient6826);fill-opacity:1;stroke:#969696;stroke-width:0.99999994;stroke-linecap:round;stroke-linejoin:round;stroke-miterlimit:4;stroke-opacity:1;stroke-dashoffset:0;marker:none;visibility:visible;display:inline;overflow:visible;enable-background:accumulate"
       d="m 170.02675,249.67894 c -0.12382,1.2717 -3.55925,1.83294 -7.80166,1.83294 -4.16677,0 -7.56427,-0.52625 -7.80164,-1.76622 -0.0844,0.0833 -0.15348,0.17452 -0.19835,0.26686 0,5.11423 2.6954,11.45836 7.91736,11.45836 5.59443,0 7.99763,-6.22339 8.08264,-11.45836 0,-0.11543 -0.0727,-0.22823 -0.19835,-0.33358 z"
       id="path4808"
       inkscape:connector-curvature="0"
       sodipodi:nodetypes="csccscc" />
    <path
       style="color:#000000;fill:url(#linearGradient6828);fill-opacity:1;stroke:none;stroke-width:0.99999994;marker:none;visibility:visible;display:inline;overflow:visible;enable-background:accumulate"
       d="m 155.06283,251.10645 c 0.64235,3.60158 2.50016,7.45339 5.53709,8.75762 -2.17388,-1.87054 -3.41821,-5.18455 -3.75053,-8.18273 -0.66565,-0.12279 -1.27314,-0.40428 -1.78656,-0.57489 z"
       id="path4810"
       inkscape:connector-curvature="0"
       sodipodi:nodetypes="cccc" />
    <path
       style="opacity:0.7;fill:none;stroke:url(#linearGradient6830);stroke-width:0.99999994px;stroke-linecap:round;stroke-linejoin:miter;stroke-opacity:1;display:inline;enable-background:new"
       d="m 163.03282,244.46992 c 0.18133,0.0382 0.37433,0.0189 0.54448,-0.0545 0.17014,-0.0734 0.31663,-0.20057 0.41324,-0.3587 0.0966,-0.15813 0.14289,-0.3465 0.13055,-0.5314 -0.0123,-0.1849 -0.0832,-0.36545 -0.19998,-0.50935 -0.10421,-0.12843 -0.24224,-0.22623 -0.38948,-0.30157 -0.14723,-0.0754 -0.30426,-0.12941 -0.46114,-0.18181 -0.15687,-0.0524 -0.31466,-0.10357 -0.46449,-0.17361 -0.14983,-0.07 -0.29243,-0.15997 -0.40554,-0.28064 -0.14542,-0.15515 -0.23743,-0.35948 -0.2572,-0.57121 -0.0198,-0.21173 0.0328,-0.42956 0.14696,-0.60896 0.11418,-0.1794 0.28924,-0.31927 0.48943,-0.39102 0.20018,-0.0717 0.42424,-0.0749 0.62638,-0.009"
       id="path4812"
       inkscape:connector-curvature="0"
       sodipodi:nodetypes="cssc"
       inkscape:path-effect="#path-effect4832"
       inkscape:original-d="m 163.03282,244.46992 c 0,0 1.0418,-0.91353 0.88829,-1.45398 -0.17155,-0.60402 -1.5548,-0.33218 -1.72065,-0.93763 -0.16294,-0.59493 1.00557,-1.58008 1.00557,-1.58008" />
    <path
       inkscape:original-d="m 166.73957,244.46964 c 0,0 1.06955,-0.91355 0.91197,-1.45399 -0.17613,-0.60404 -1.59623,-0.33219 -1.76649,-0.93765 -0.16729,-0.59492 1.03237,-1.58008 1.03237,-1.58008"
       inkscape:path-effect="#path-effect4836"
       sodipodi:nodetypes="cssc"
       inkscape:connector-curvature="0"
       id="path4814"
       d="m 166.73957,244.46964 c 0.18282,0.0437 0.37919,0.0285 0.55316,-0.0426 0.17398,-0.0711 0.3247,-0.19791 0.42457,-0.35714 0.0999,-0.15922 0.14839,-0.35011 0.13669,-0.5377 -0.0117,-0.18759 -0.0836,-0.37096 -0.20245,-0.51654 -0.10682,-0.13081 -0.2487,-0.22959 -0.39989,-0.30485 -0.15118,-0.0753 -0.3123,-0.12825 -0.47323,-0.17948 -0.16092,-0.0512 -0.3228,-0.10115 -0.47667,-0.17076 -0.15387,-0.0696 -0.3005,-0.16001 -0.4167,-0.28256 -0.14878,-0.15691 -0.24273,-0.36483 -0.26217,-0.58019 -0.0194,-0.21536 0.0358,-0.43674 0.15403,-0.61776 0.11827,-0.18102 0.29885,-0.32049 0.50388,-0.38919 0.20502,-0.0687 0.43317,-0.0662 0.63663,0.007"
       style="opacity:0.7;fill:none;stroke:url(#linearGradient6832);stroke-width:0.99999994px;stroke-linecap:round;stroke-linejoin:miter;stroke-opacity:1;display:inline;enable-background:new" />
    <path
       inkscape:original-d="m 159.35533,244.47002 c 0,0 1.02877,-0.91333 0.8772,-1.45365 -0.16941,-0.6039 -1.53541,-0.33211 -1.69915,-0.93743 -0.16092,-0.59479 0.99301,-1.57973 0.99301,-1.57973"
       inkscape:path-effect="#path-effect4840"
       sodipodi:nodetypes="cssc"
       inkscape:connector-curvature="0"
       id="path4816"
       d="m 159.35533,244.47002 c 0.18056,0.0357 0.37196,0.0144 0.54029,-0.06 0.16834,-0.0744 0.31285,-0.20172 0.40795,-0.35931 0.0951,-0.15759 0.14034,-0.34476 0.12773,-0.52839 -0.0126,-0.18363 -0.083,-0.36286 -0.19877,-0.50597 -0.10298,-0.12732 -0.23921,-0.22465 -0.38459,-0.30002 -0.14539,-0.0754 -0.3005,-0.12991 -0.45547,-0.18283 -0.15497,-0.0529 -0.31084,-0.10467 -0.45878,-0.17489 -0.14794,-0.0702 -0.28865,-0.1599 -0.40031,-0.27969 -0.14386,-0.15433 -0.23494,-0.35698 -0.25486,-0.56701 -0.0199,-0.21004 0.0315,-0.42619 0.14373,-0.60481 0.11228,-0.17862 0.28479,-0.31863 0.4827,-0.39174 0.1979,-0.0731 0.42,-0.0789 0.62144,-0.0162"
       style="opacity:0.7;fill:none;stroke:url(#linearGradient6834);stroke-width:0.99999994px;stroke-linecap:round;stroke-linejoin:miter;stroke-opacity:1;display:inline;enable-background:new" />
    <path
       style="opacity:0.98999999;color:#000000;fill:none;stroke:url(#linearGradient6836);stroke-width:1.00000012;stroke-linecap:round;stroke-linejoin:round;stroke-miterlimit:4;stroke-opacity:1;stroke-dasharray:none;stroke-dashoffset:0;marker:none;visibility:visible;display:inline;overflow:visible;enable-background:accumulate"
       d="m 162.2897,247.46795 c -4.27909,0 -7.74289,1.1696 -7.74289,2.60345 0,1.43384 3.4638,2.60344 7.74289,2.60344 4.27912,0 7.74291,-1.1696 7.74291,-2.60344 0,-1.43385 -3.46379,-2.60345 -7.74291,-2.60345 z"
       id="path4818"
       inkscape:connector-curvature="0"
       sodipodi:nodetypes="sssss" />
    <path
       sodipodi:type="arc"
       style="color:#000000;fill:none;stroke:#ffffff;stroke-width:5.65485668;stroke-linecap:round;stroke-linejoin:round;stroke-miterlimit:4;stroke-opacity:1;stroke-dasharray:none;stroke-dashoffset:0;marker:none;visibility:visible;display:inline;overflow:visible;enable-background:accumulate"
       id="path4820"
       sodipodi:cx="68.589348"
       sodipodi:cy="53.594341"
       sodipodi:rx="44.901276"
       sodipodi:ry="14.053746"
       d="M 105.60259,61.550404 C 91.563862,67.948542 63.611829,69.573208 43.169979,65.179196 38.721372,64.22296 34.859959,63.023548 31.770987,61.6385"
       transform="matrix(0.19128757,4.6861336e-4,-4.6946251e-4,0.16348095,149.16425,241.37927)"
       sodipodi:start="0.6017875"
       sodipodi:end="2.5321807"
       sodipodi:open="true" />
  </g>
</svg>
