<?xml version="1.0" encoding="UTF-8" standalone="no"?>
<!-- Created with Inkscape (http://www.inkscape.org/) -->

<svg
   xmlns:dc="http://purl.org/dc/elements/1.1/"
   xmlns:cc="http://creativecommons.org/ns#"
   xmlns:rdf="http://www.w3.org/1999/02/22-rdf-syntax-ns#"
   xmlns:svg="http://www.w3.org/2000/svg"
   xmlns="http://www.w3.org/2000/svg"
   xmlns:xlink="http://www.w3.org/1999/xlink"
   xmlns:sodipodi="http://sodipodi.sourceforge.net/DTD/sodipodi-0.dtd"
   xmlns:inkscape="http://www.inkscape.org/namespaces/inkscape"
   width="22"
   height="22"
   id="svg3658"
   version="1.1"
   inkscape:version="0.48.0 r9654"
   sodipodi:docname="xbmc24.svg">
  <defs
     id="defs3660">
    <linearGradient
       inkscape:collect="always"
       id="linearGradient4111">
      <stop
         style="stop-color:#1b212f;stop-opacity:1;"
         offset="0"
         id="stop4113" />
      <stop
         style="stop-color:#313c55;stop-opacity:1"
         offset="1"
         id="stop4115" />
    </linearGradient>
    <filter
       id="filter3174"
       color-interpolation-filters="sRGB">
      <feGaussianBlur
         stdDeviation="1.71"
         id="feGaussianBlur3176" />
    </filter>
    <linearGradient
       id="linearGradient3700">
      <stop
         offset="0"
         style="stop-color:#344262;stop-opacity:1"
         id="stop3702" />
      <stop
         offset="1"
         style="stop-color:#4a5e8c;stop-opacity:1"
         id="stop3704" />
    </linearGradient>
    <linearGradient
       gradientTransform="scale(1.0058652,0.994169)"
       gradientUnits="userSpaceOnUse"
       id="ButtonShadow"
       y2="7.0165396"
       x2="45.447727"
       y1="92.539597"
       x1="45.447727">
      <stop
         offset="0"
         style="stop-color:#000000;stop-opacity:1"
         id="stop3750-3" />
      <stop
         offset="1"
         style="stop-color:#000000;stop-opacity:0.58823532"
         id="stop3752-7" />
    </linearGradient>
    <linearGradient
       id="linearGradient3700-4">
      <stop
         offset="0"
         style="stop-color:#344262;stop-opacity:1"
         id="stop3702-2" />
      <stop
         offset="1"
         style="stop-color:#4a5e8c;stop-opacity:1"
         id="stop3704-4" />
    </linearGradient>
    <clipPath
       clipPathUnits="userSpaceOnUse"
       id="clipPath4072">
      <path
         sodipodi:type="inkscape:offset"
         inkscape:radius="0.50811875"
         inkscape:original="M -41.09375 36.40625 C -46.649798 36.254468 -52.200633 36.37957 -57.71875 36.75 C -59.17426 36.825186 -60.626219 37.940549 -60.46875 39.625 C -59.635371 48.53965 -58.832664 51.081784 -55.8125 56.40625 C -54.926538 57.965207 -53.365953 60.468574 -51.125 60.09375 C -41.968494 59.472387 -31.468777 59.257644 -21.5 55.5625 C -17.925785 53.967279 -17.238621 46.638056 -16.53125 43.125 C -16.098202 38.390855 -20.530502 38.370812 -24.5 37.71875 C -29.98098 36.980041 -35.537702 36.558032 -41.09375 36.40625 z "
         style="fill:url(#linearGradient4076);fill-opacity:1;stroke:none"
         id="path4074"
         d="m -49.4375,35.875 c -2.779963,0.05877 -5.545895,0.189278 -8.3125,0.375 -0.848335,0.04382 -1.690708,0.37827 -2.3125,0.96875 -0.621792,0.59048 -0.999423,1.472074 -0.90625,2.46875 0.83536,8.935843 1.683405,11.61752 4.71875,16.96875 0.448577,0.789325 1.061569,1.850554 1.90625,2.6875 0.831057,0.823447 1.956521,1.440137 3.25,1.25 0.02005,-0.0014 0.04243,0.0014 0.0625,0 9.12437,-0.616977 19.669063,-0.837365 29.71875,-4.5625 a 0.50816956,0.50816956 0 0 0 0.03125,0 c 2.040516,-0.91071 3.121877,-3.320893 3.84375,-5.84375 0.721873,-2.522857 1.059777,-5.248042 1.40625,-6.96875 a 0.50816956,0.50816956 0 0 0 0,-0.0625 c 0.115428,-1.261871 -0.07925,-2.27636 -0.5625,-3.0625 -0.483248,-0.78614 -1.224334,-1.289496 -2.0625,-1.65625 -1.676331,-0.733508 -3.794279,-0.897487 -5.75,-1.21875 a 0.50816956,0.50816956 0 0 0 -0.03125,0 c -5.500646,-0.74136 -11.083746,-1.160268 -16.65625,-1.3125 -2.786451,-0.07612 -5.563787,-0.09002 -8.34375,-0.03125 z" />
    </clipPath>
    <linearGradient
       inkscape:collect="always"
       xlink:href="#linearGradient3700-4"
       id="linearGradient4076"
       gradientUnits="userSpaceOnUse"
       x1="-46.404202"
       y1="59.45277"
       x2="-46.404202"
       y2="36.109875" />
    <linearGradient
       id="linearGradient3924-9">
      <stop
         offset="0"
         style="stop-color:#ffffff;stop-opacity:1;"
         id="stop3926-9" />
      <stop
         id="stop3928-0"
         style="stop-color:#ffffff;stop-opacity:0.23529412;"
         offset="0.06316455" />
      <stop
         offset="0.95056331"
         style="stop-color:#ffffff;stop-opacity:0.15686275;"
         id="stop3930-6" />
      <stop
         offset="1"
         style="stop-color:#ffffff;stop-opacity:0.39215687;"
         id="stop3932-4" />
    </linearGradient>
    <linearGradient
       id="linearGradient7612">
      <stop
         id="stop7614"
         style="stop-color:#000000;stop-opacity:1"
         offset="0" />
      <stop
         id="stop7616"
         style="stop-color:#000000;stop-opacity:0"
         offset="1" />
    </linearGradient>
    <radialGradient
       inkscape:collect="always"
       xlink:href="#linearGradient7612"
       id="radialGradient4967"
       gradientUnits="userSpaceOnUse"
       gradientTransform="matrix(1.254902,0,0,0.26592327,-6.117648,23.278668)"
       cx="24"
       cy="41.875"
       fx="24"
       fy="41.875"
       r="19.125" />
    <linearGradient
       inkscape:collect="always"
       xlink:href="#linearGradient3700"
       id="linearGradient4969"
       gradientUnits="userSpaceOnUse"
       gradientTransform="matrix(1.0683308,0,0,1.0849772,65.125499,-29.828784)"
       x1="-46.404202"
       y1="59.45277"
       x2="-46.404202"
       y2="36.109875" />
    <linearGradient
       inkscape:collect="always"
       xlink:href="#linearGradient4111"
       id="linearGradient4971"
       gradientUnits="userSpaceOnUse"
       gradientTransform="matrix(1,0,0,1.0143589,-0.17270471,-4.0644008)"
       x1="23.41884"
       y1="38.210312"
       x2="23.41884"
       y2="13.095257" />
    <linearGradient
       inkscape:collect="always"
       xlink:href="#linearGradient3924-9"
       id="linearGradient4973"
       gradientUnits="userSpaceOnUse"
       x1="-37.981304"
       y1="35.85318"
       x2="-37.981304"
       y2="59.606937" />
  </defs>
  <sodipodi:namedview
     id="base"
     pagecolor="#ffffff"
     bordercolor="#666666"
     borderopacity="1.0"
     inkscape:pageopacity="0.0"
     inkscape:pageshadow="2"
     inkscape:zoom="22.627416"
     inkscape:cx="16.38788"
     inkscape:cy="7.8911286"
     inkscape:current-layer="layer1"
     showgrid="true"
     inkscape:grid-bbox="true"
     inkscape:document-units="px"
     inkscape:window-width="1280"
     inkscape:window-height="665"
     inkscape:window-x="0"
     inkscape:window-y="24"
     inkscape:window-maximized="1">
    <inkscape:grid
       type="xygrid"
       id="grid4684"
       empspacing="5"
       visible="true"
       enabled="true"
       snapvisiblegridlinesonly="true" />
  </sodipodi:namedview>
  <metadata
     id="metadata3663">
    <rdf:RDF>
      <cc:Work
         rdf:about="">
        <dc:format>image/svg+xml</dc:format>
        <dc:type
           rdf:resource="http://purl.org/dc/dcmitype/StillImage" />
        <dc:title></dc:title>
      </cc:Work>
    </rdf:RDF>
  </metadata>
  <g
     id="layer1"
     inkscape:label="Layer 1"
     inkscape:groupmode="layer"
     transform="translate(0,-26)">
    <g
       id="layer2"
       style="display:none"
       transform="translate(-160.2052,-8.2218009)">
      <rect
         width="86"
         height="85"
         rx="6"
         ry="6"
         x="5"
         y="7"
         id="rect3745"
         style="opacity:0.9;fill:url(#ButtonShadow);fill-opacity:1;fill-rule:nonzero;stroke:none;filter:url(#filter3174)" />
    </g>
    <g
       id="g4958"
       transform="matrix(0.44681214,0,0,0.45856833,0.27650822,30.186551)">
      <path
         style="opacity:0.5;fill:url(#radialGradient4967);fill-opacity:1;fill-rule:nonzero;stroke:none;stroke-width:4;marker:none;visibility:visible;display:inline;overflow:visible"
         id="path3087"
         d="M 48.000001,34.414213 C 48.000001,37.223015 37.254834,39.5 24,39.5 10.745165,39.5 -1.02e-6,37.223015 -1.02e-6,34.414213 -1.02e-6,31.60541 10.745165,29.328425 24,29.328425 c 13.254834,0 24.000001,2.276985 24.000001,5.085788 l 0,0 z"
         inkscape:connector-curvature="0" />
      <path
         sodipodi:nodetypes="cscccccc"
         inkscape:connector-curvature="0"
         id="path9703"
         d="M 5.4828119,31.373141 C 2.2562779,25.596218 1.4028909,22.826925 0.51256689,13.154733 0.34433789,11.327143 1.8936709,10.110059 3.448637,10.028484 15.238985,9.2246701 27.231102,9.4838146 38.942101,11.086781 c 4.240738,0.707471 8.989215,0.747225 8.526577,5.883664 -0.755707,3.811586 -1.480147,11.768053 -5.298591,13.498832 -10.649953,4.009146 -21.893146,4.231174 -31.675324,4.905339 -2.3940789,0.406675 -4.06545,-2.310042 -5.0119511,-4.001475 z"
         style="fill:url(#linearGradient4969);fill-opacity:1;stroke:url(#linearGradient4971);stroke-width:2.20920229px;stroke-linecap:butt;stroke-linejoin:miter;stroke-opacity:1" />
      <path
         d="m 34.19595,16.391281 c -0.336359,-0.0017 -0.681049,0.04024 -1.012231,0.124607 -0.792482,0.201884 -1.528723,0.613827 -2.141025,1.202455 -0.111107,0.106811 -0.207394,0.193138 -0.214717,0.193138 -0.0073,0 -0.06918,-0.078 -0.141099,-0.174447 -0.174412,-0.233898 -0.483709,-0.540992 -0.717764,-0.710258 -0.37592,-0.271866 -0.906485,-0.497689 -1.374182,-0.585652 -0.280547,-0.05277 -1.036646,-0.05404 -1.3067,-0.0062 -0.978585,0.173243 -1.816721,0.620809 -2.564322,1.376904 -0.426128,0.43097 -0.706968,0.84267 -0.963154,1.408054 -0.106964,0.249561 -0.10876,0.252784 -0.134964,0.647954 -0.03689,0.5564 -0.09871,0.88105 -0.263793,1.345751 -0.04114,0.115801 -0.08766,0.334476 -0.141099,0.685337 -0.04638,0.324399 -0.121212,0.851997 -0.239255,1.669727 -0.06047,0.418862 -0.08355,0.63787 -0.06748,0.647956 0.04155,0.02608 0.235185,0.006 0.417162,-0.04362 0.140114,-0.03819 0.271118,-0.09707 0.398757,-0.168218 0.0445,-0.0248 0.08632,-0.05266 0.128831,-0.081 0.01843,-0.01229 0.03719,-0.02447 0.05521,-0.03738 0.04181,-0.02995 0.08324,-0.06027 0.122695,-0.09345 0.273733,-0.23023 0.487918,-0.533854 0.601205,-0.872247 0.01582,-0.05382 0.03288,-0.116839 0.04908,-0.19314 0.0079,-0.03853 0.01943,-0.09909 0.03067,-0.161988 0.01967,-0.110175 0.0348,-0.202252 0.06135,-0.36759 0.037,-0.230389 0.0764,-0.480608 0.116559,-0.7601 0.09873,-0.687033 0.200497,-1.334682 0.226987,-1.439206 0.02649,-0.104522 0.107019,-0.306767 0.177906,-0.454814 0.360376,-0.752647 1.042376,-1.334816 1.803615,-1.538892 0.164261,-0.04403 0.263154,-0.0553 0.601204,-0.05607 0.469344,-0.001 0.643047,0.03713 0.975425,0.21183 0.383811,0.201747 0.760519,0.66324 0.901805,1.102769 0.153251,0.476755 0.151024,0.618742 -0.06748,2.137004 -0.189063,1.313685 -0.207218,1.561456 -0.141099,1.819256 0.104222,0.406368 0.439482,0.778288 0.834325,0.92832 0.135241,0.05139 0.445585,0.09928 0.484644,0.07476 0.01266,-0.0079 0.148756,-0.909025 0.306737,-2.006166 0.279436,-1.94059 0.330535,-2.237313 0.429432,-2.492132 0.280499,-0.722723 0.94035,-1.380071 1.650245,-1.644808 0.305476,-0.11392 0.42227,-0.129954 0.84046,-0.130836 0.473566,-9.98e-4 0.596669,0.02258 0.938614,0.19314 0.36097,0.180045 0.681211,0.526175 0.871134,0.934549 0.141131,0.303453 0.166437,0.442185 0.165638,0.878476 -6.21e-4,0.355238 -0.01232,0.480775 -0.171773,1.557582 -0.197549,1.334057 -0.205015,1.509979 -0.09202,1.819257 0.149966,0.41048 0.50694,0.749325 0.907942,0.853556 0.151422,0.03936 0.363189,0.05482 0.386489,0.03115 0.0077,-0.0078 0.06429,-0.3783 0.12883,-0.828634 0.130461,-0.910367 0.135123,-0.928319 0.165636,-0.928319 0.01188,0 0.05089,0.05783 0.09202,0.130837 0.192827,0.342281 0.603931,0.798753 0.938616,1.040464 0.365509,0.263979 0.832603,0.456878 1.312834,0.54827 0.238534,0.04539 0.381956,0.05185 1.570493,0.0623 0.717974,0.0064 1.329946,0.0019 1.361913,-0.0063 0.05614,-0.0143 0.05577,-0.02036 0.05521,-0.224291 -3.93e-4,-0.116153 -0.01103,-0.258251 -0.02454,-0.317747 -0.0735,-0.323962 -0.339919,-0.67578 -0.638012,-0.834864 -0.25138,-0.134154 -0.409487,-0.155275 -1.030637,-0.155759 -0.569109,-4.38e-4 -0.816849,-0.02964 -1.098119,-0.124607 -0.44169,-0.149129 -0.885199,-0.56792 -1.098117,-1.040465 -0.313772,-0.696364 -0.203009,-1.597246 0.288332,-2.348835 0.146856,-0.224643 0.537529,-0.621203 0.772977,-0.785021 0.233181,-0.162238 0.524836,-0.304471 0.797517,-0.38628 0.202846,-0.06086 0.251188,-0.06292 0.938615,-0.081 0.785645,-0.02067 0.878797,-0.03886 1.165601,-0.174449 0.315439,-0.149121 0.663303,-0.461321 0.834324,-0.753871 0.09341,-0.159785 0.184625,-0.403263 0.196312,-0.523348 l 0.0061,-0.08722 -1.239216,-0.0063 c -1.288547,-0.0074 -1.518817,0.0081 -1.938579,0.09969 -1.101134,0.24013 -2.201802,1.020411 -2.883328,2.049777 -0.166604,0.251637 -0.175569,0.254704 -0.263794,0 -0.252302,-0.728419 -0.877327,-1.436782 -1.58276,-1.794337 -0.455131,-0.230687 -0.997624,-0.352302 -1.558224,-0.355129 z"
         inkscape:connector-curvature="0"
         id="path3672"
         style="fill:#bdd1e3;fill-opacity:1;stroke:#bdd1e3;stroke-width:0.66276073;stroke-miterlimit:4;stroke-opacity:1;stroke-dasharray:none" />
      <path
         d="m 16.693534,14.428727 c -0.106301,0 -0.124729,0.0083 -0.134963,0.05607 -0.0064,0.02993 -0.0685,0.473145 -0.141099,0.984392 -0.0726,0.511249 -0.139787,0.933194 -0.147235,0.940781 -0.0074,0.0076 -0.52849,0.02319 -1.159465,0.03115 -1.122279,0.01414 -1.154321,0.01269 -1.435529,0.07476 -0.909326,0.200718 -1.694671,0.649963 -2.453897,1.401824 l -0.269929,0.261674 -0.04294,-0.06853 c -0.281639,-0.461855 -0.493135,-0.720494 -0.785247,-0.9657 -0.4360029,-0.36599 -0.9180049,-0.580667 -1.5214159,-0.672876 -0.18951,-0.02896 -0.501492,-0.03727 -1.5275498,-0.03738 -1.1539915,-1.2e-4 -1.2876284,0.0031 -1.3005654,0.03738 -0.026994,0.07143 -0.015295,0.457073 0.018394,0.585652 0.098688,0.376505 0.376506,0.681839 0.7484381,0.828635 0.1250094,0.04933 0.1886108,0.05846 0.8097862,0.07476 0.7419483,0.01947 0.9038391,0.04374 1.1962741,0.168219 0.479782,0.20425 0.886505,0.69681 1.024501,1.246066 0.09129,0.363336 0.05555,0.892267 -0.08589,1.3146 -0.29552,0.882403 -1.096901,1.641077 -1.9876561,1.881559 -0.2074246,0.056 -0.2897223,0.064 -0.9447501,0.081 -0.755635,0.01961 -0.8392951,0.03124 -1.1165223,0.155758 C 5.1419433,22.940717 4.8110719,23.22176 4.6142175,23.506318 4.4878598,23.688975 4.3541737,23.979069 4.344289,24.10443 l -0.00612,0.081 1.1717353,0.01247 c 1.2171071,0.0074 1.5304759,-0.008 1.944713,-0.09346 0.868385,-0.17919 1.716492,-0.664607 2.460031,-1.408054 0.1302037,-0.130187 0.2360797,-0.236753 0.2392547,-0.236753 0.0032,0 0.05958,0.08514 0.122695,0.193141 0.381178,0.652277 0.958598,1.130091 1.65638,1.364442 0.473483,0.159021 0.551544,0.1639 2.036733,0.174449 l 1.337373,0.01246 0.02454,-0.0623 c 0.03531,-0.09432 0.02838,-0.396043 -0.01227,-0.554499 -0.106067,-0.413566 -0.400822,-0.737977 -0.79138,-0.866016 -0.140556,-0.04608 -0.24148,-0.05254 -0.864999,-0.06853 -0.792758,-0.02033 -0.896654,-0.03707 -1.239218,-0.218061 -0.563167,-0.297558 -0.950026,-0.961866 -0.950885,-1.632348 -3.92e-4,-0.350725 0.119261,-0.859424 0.276063,-1.177532 0.280738,-0.569541 0.845195,-1.129464 1.423261,-1.408055 0.407394,-0.196337 0.769571,-0.255409 1.564358,-0.255443 0.380352,-1.7e-5 0.500279,-0.01241 0.644148,-0.04984 0.217079,-0.05648 0.397152,-0.133781 0.564397,-0.249213 0.07009,-0.04837 0.135865,-0.08722 0.141099,-0.08722 0.02496,0 -0.0068,0.231727 -0.171773,1.376902 -0.229794,1.594685 -0.227846,1.595355 -0.226985,1.993705 0.002,0.908489 0.310544,1.659393 0.963154,2.323914 0.369058,0.375795 0.732651,0.614519 1.208543,0.785022 0.188227,0.06744 0.595132,0.151494 0.809786,0.174448 0.185321,0.01982 0.687724,0.01704 0.877269,-0.0063 0.864527,-0.106133 1.611774,-0.428656 2.337335,-1.015543 0.543848,-0.439905 0.973069,-0.960563 1.288297,-1.563813 0.05706,-0.109204 0.106937,-0.196683 0.110425,-0.193141 -0.120451,0.693409 -0.0059,0.179032 0.07975,-0.236753 0.165083,-0.464701 0.226903,-0.789352 0.263793,-1.345751 l 0.01227,-0.373819 -0.04294,-0.292825 c -0.09157,-0.625144 -0.327347,-1.146965 -0.742304,-1.644809 -0.36927,-0.44303 -0.848438,-0.781371 -1.380317,-0.971932 -0.524434,-0.187894 -0.893694,-0.216933 -2.48457,-0.21806 l -1.067444,-0.0063 0.01839,-0.124606 c 0.08532,-0.677576 -0.0091,-1.029307 -0.368084,-1.395594 -0.260821,-0.266156 -0.568054,-0.411203 -0.877267,-0.411203 l 1.5e-5,-9e-6 z m 1.018368,3.501444 1.31897,0.01247 c 1.48564,0.01025 1.476544,0.0092 1.86496,0.199371 0.727565,0.356164 1.158069,1.181941 1.061311,2.031088 -0.07297,0.640395 -0.322761,1.178382 -0.742303,1.619886 -0.439923,0.462951 -0.87643,0.723509 -1.392587,0.834863 -0.254482,0.05491 -0.74846,0.06209 -0.993828,0.01246 -0.730447,-0.147763 -1.333881,-0.794601 -1.472339,-1.570042 -0.05568,-0.31183 -0.03627,-0.585784 0.1411,-1.831718 0.09346,-0.656579 0.183847,-1.221642 0.196312,-1.252297 l 0.0184,-0.05607 z"
         inkscape:connector-curvature="0"
         id="path3670"
         style="fill:#85c226;fill-opacity:1;stroke:#85c226;stroke-width:0.66276073;stroke-miterlimit:4;stroke-opacity:1;stroke-dasharray:none" />
      <path
         transform="matrix(1.0683307,0,0,1.0849771,65.125497,-29.333372)"
         clip-path="url(#clipPath4072)"
         sodipodi:nodetypes="cccscc"
         inkscape:connector-curvature="0"
         id="path4006"
         d="m -59.272456,53.31627 43.0856,0 -3.967366,4.007706 c 0,0 -7.272832,-2.543811 -11.950339,-2.808726 -8.370953,-0.474097 -26.660703,-0.396737 -26.660703,-0.396737 z"
         style="fill:#d9822e;fill-opacity:1;stroke:none" />
      <path
         sodipodi:type="inkscape:offset"
         inkscape:radius="-1.8777611"
         inkscape:original="M -41.09375 36.40625 C -46.649798 36.254468 -52.200633 36.37957 -57.71875 36.75 C -59.17426 36.825186 -60.626219 37.940549 -60.46875 39.625 C -59.635371 48.53965 -58.832664 51.081784 -55.8125 56.40625 C -54.926538 57.965207 -53.365953 60.468574 -51.125 60.09375 C -41.968494 59.472387 -31.468777 59.257644 -21.5 55.5625 C -17.925785 53.967279 -17.238621 46.638056 -16.53125 43.125 C -16.098202 38.390855 -20.530502 38.370812 -24.5 37.71875 C -29.98098 36.980041 -35.537702 36.558032 -41.09375 36.40625 z "
         style="opacity:0.5;fill:none;stroke:url(#linearGradient4973);stroke-width:2.0519762px;stroke-linecap:butt;stroke-linejoin:miter;stroke-opacity:1"
         id="path10523-5"
         d="m -41.15625,38.28125 c -5.493765,-0.150081 -10.975159,-0.02294 -16.4375,0.34375 a 1.8779489,1.8779489 0 0 1 -0.03125,0 c -0.282148,0.01458 -0.612795,0.152528 -0.78125,0.3125 -0.168455,0.159972 -0.212876,0.22855 -0.1875,0.5 0.826057,8.836331 1.442188,10.80569 4.40625,16.03125 0.422302,0.743091 0.985536,1.646783 1.53125,2.1875 0.545714,0.540717 0.839091,0.657252 1.21875,0.59375 a 1.8779489,1.8779489 0 0 1 0.1875,-0.03125 c 9.19404,-0.62391 19.438616,-0.854036 29,-4.375 0.850631,-0.379648 1.848014,-2.033888 2.5,-4.3125 0.6312,-2.205966 0.977591,-4.689473 1.34375,-6.5625 0.0015,-0.01689 -0.0014,-0.0147 0,-0.03125 0.0719,-0.859867 -0.05142,-1.321533 -0.21875,-1.59375 -0.170556,-0.277457 -0.458121,-0.481642 -1,-0.71875 -1.069942,-0.468172 -3.061814,-0.694984 -5.125,-1.03125 -5.408304,-0.728914 -10.911015,-1.162379 -16.40625,-1.3125 z"
         transform="matrix(1.0683307,0,0,1.0849771,65.125494,-29.828783)" />
    </g>
  </g>
</svg>
