<?xml version="1.0" encoding="UTF-8" standalone="no"?>
<!-- Created with Inkscape (http://www.inkscape.org/) -->

<svg
   xmlns:dc="http://purl.org/dc/elements/1.1/"
   xmlns:cc="http://creativecommons.org/ns#"
   xmlns:rdf="http://www.w3.org/1999/02/22-rdf-syntax-ns#"
   xmlns:svg="http://www.w3.org/2000/svg"
   xmlns="http://www.w3.org/2000/svg"
   xmlns:xlink="http://www.w3.org/1999/xlink"
   xmlns:sodipodi="http://sodipodi.sourceforge.net/DTD/sodipodi-0.dtd"
   xmlns:inkscape="http://www.inkscape.org/namespaces/inkscape"
   id="svg3624"
   height="32"
   width="32"
   version="1.0"
   inkscape:version="0.48.1 r9760"
   sodipodi:docname="application-x-sln.svg">
  <metadata
     id="metadata51">
    <rdf:RDF>
      <cc:Work
         rdf:about="">
        <dc:format>image/svg+xml</dc:format>
        <dc:type
           rdf:resource="http://purl.org/dc/dcmitype/StillImage" />
      </cc:Work>
    </rdf:RDF>
  </metadata>
  <sodipodi:namedview
     pagecolor="#ffffff"
     bordercolor="#666666"
     borderopacity="1"
     objecttolerance="10"
     gridtolerance="10"
     guidetolerance="10"
     inkscape:pageopacity="0"
     inkscape:pageshadow="2"
     inkscape:window-width="1366"
     inkscape:window-height="688"
     id="namedview49"
     showgrid="false"
     inkscape:zoom="256"
     inkscape:cx="11.407667"
     inkscape:cy="31.341649"
     inkscape:window-x="0"
     inkscape:window-y="25"
     inkscape:window-maximized="1"
     inkscape:current-layer="svg3624" />
  <defs
     id="defs3626">
    <linearGradient
       id="linearGradient2643"
       y2="609.51001"
       gradientUnits="userSpaceOnUse"
       x2="302.85999"
       gradientTransform="matrix(0.067325,0,0,0.0147,-0.34114,37.04)"
       y1="366.64999"
       x1="302.85999">
      <stop
         id="stop5050"
         style="stop-opacity:0"
         offset="0" />
      <stop
         id="stop5056"
         offset=".5" />
      <stop
         id="stop5052"
         style="stop-opacity:0"
         offset="1" />
    </linearGradient>
    <radialGradient
       id="radialGradient2640"
       xlink:href="#linearGradient5060"
       gradientUnits="userSpaceOnUse"
       cy="486.64999"
       cx="605.71002"
       gradientTransform="matrix(-0.02304,0,0,0.0147,21.623,37.04)"
       r="117.14" />
    <linearGradient
       id="linearGradient5060">
      <stop
         id="stop5062"
         offset="0" />
      <stop
         id="stop5064"
         style="stop-opacity:0"
         offset="1" />
    </linearGradient>
    <radialGradient
       id="radialGradient2637"
       xlink:href="#linearGradient5060"
       gradientUnits="userSpaceOnUse"
       cy="486.64999"
       cx="605.71002"
       gradientTransform="matrix(0.02304,0,0,0.0147,26.361,37.04)"
       r="117.14" />
    <linearGradient
       id="linearGradient2634"
       y2="2.9061999"
       gradientUnits="userSpaceOnUse"
       x2="-51.785999"
       gradientTransform="matrix(0.8075,0,0,0.89483,59.41,-2.9806)"
       y1="53.624001"
       x1="-51.785999">
      <stop
         id="stop2492"
         style="stop-color:#2e4a5a"
         offset="0" />
      <stop
         id="stop2494"
         style="stop-color:#6e8796"
         offset="1" />
    </linearGradient>
    <radialGradient
       id="radialGradient2632"
       gradientUnits="userSpaceOnUse"
       cy="10.898"
       cx="14.766"
       gradientTransform="matrix(-2.2703e-8,2.1357,-3.5601,-3.7845e-8,54.621,-24.438)"
       r="18">
      <stop
         id="stop3995"
         style="stop-color:#a3c0d0"
         offset="0" />
      <stop
         id="stop4001"
         style="stop-color:#427da1"
         offset="1" />
    </radialGradient>
    <radialGradient
       id="radialGradient2629"
       gradientUnits="userSpaceOnUse"
       cy="112.3"
       cx="102"
       gradientTransform="matrix(0.3617,0,0,-0.39078,0.85106,47.517)"
       r="139.56">
      <stop
         id="stop41"
         offset="0" />
      <stop
         id="stop47"
         offset=".18851" />
      <stop
         id="stop49"
         style="stop-opacity:0"
         offset=".25718" />
      <stop
         id="stop51"
         style="stop-opacity:0"
         offset="1" />
    </radialGradient>
    <linearGradient
       id="linearGradient2623"
       y2="6.5436001"
       gradientUnits="userSpaceOnUse"
       x2="34.103001"
       y1="4.8576999"
       x1="35.516998">
      <stop
         id="stop4269"
         style="stop-color:#c4c4c4"
         offset="0" />
      <stop
         id="stop4271"
         style="stop-color:#c4c4c4;stop-opacity:0"
         offset="1" />
    </linearGradient>
    <linearGradient
       id="linearGradient2626"
       y2="46.016998"
       gradientUnits="userSpaceOnUse"
       x2="24"
       gradientTransform="matrix(1,0,0,0.97778,0,-0.96667)"
       y1="2"
       x1="24">
      <stop
         id="stop3213"
         style="stop-color:#fff"
         offset="0" />
      <stop
         id="stop3215"
         style="stop-color:#fff;stop-opacity:0"
         offset="1" />
    </linearGradient>
    <filter
       id="filter3212"
       y="-0.16434"
       x="-0.14846"
       height="1.3286999"
       width="1.2969"
       color-interpolation-filters="sRGB">
      <feGaussianBlur
         id="feGaussianBlur3214"
         stdDeviation="0.77391625" />
    </filter>
    <linearGradient
       id="linearGradient2601"
       y2="5.4565001"
       gradientUnits="userSpaceOnUse"
       x2="36.358002"
       gradientTransform="matrix(0.9977,0,0,1.0407,0.1638,-1.1058)"
       y1="8.059"
       x1="32.891998">
      <stop
         id="stop8591"
         style="stop-color:#fefefe"
         offset="0" />
      <stop
         id="stop8593"
         style="stop-color:#cbcbcb"
         offset="1" />
    </linearGradient>
  </defs>
  <g
     id="layer1"
     transform="matrix(0.65912401,0,0,0.65912401,0.18613197,0.00274566)">
    <rect
       id="rect2879"
       style="opacity:0.3;fill:url(#linearGradient2643)"
       height="3.5701001"
       width="32.507999"
       y="42.43"
       x="7.7378001" />
    <path
       id="path2881"
       style="opacity:0.3;fill:url(#radialGradient2640)"
       d="M 7.7378,42.43 V 46 c -1.1865,0.007 -2.8683,-0.8 -2.8683,-1.785 0,-0.986 1.324,-1.785 2.8683,-1.785 z"
       inkscape:connector-curvature="0" />
    <path
       id="path2883"
       style="opacity:0.3;fill:url(#radialGradient2637)"
       d="M 40.246,42.43 V 46 c 1.187,0.007 2.869,-0.8 2.869,-1.785 0,-0.986 -1.325,-1.785 -2.869,-1.785 z"
       inkscape:connector-curvature="0" />
    <path
       id="path4160"
       style="fill:url(#radialGradient2632);stroke:url(#linearGradient2634);stroke-width:0.99992001;stroke-linejoin:round"
       d="M 6.5,0.4972 H 30.561 C 31.086,2.4574 36.694,7.3488 41.5,10.124 V 44.503 H 6.5 V 0.497 z"
       inkscape:connector-curvature="0" />
    <path
       id="path4191"
       style="opacity:0.05;fill:url(#radialGradient2629)"
       d="M 7.3617,44 C 7.1624,44 7,43.825 7,43.609 V 1.405 C 7,1.1895 7.1624,1.0144 7.3617,1.0144 c 7.4833,0.108 15.775,-0.16158 23.249,0.0269 l 10.283,8.866 0.106,33.702 c 0,0.216 -0.162,0.391 -0.362,0.391 H 7.3617 z"
       inkscape:connector-curvature="0" />
    <path
       id="path4238"
       style="fill:none;stroke:url(#linearGradient2623);stroke-width:0.99992001;stroke-linejoin:round"
       d="m 30.561,0.5 c 1.407,0.47465 8.965,5.8794 10.939,9.624 V 22.409 C 1.054,38.138 6.264,0.5 30.561,0.5 z"
       inkscape:connector-curvature="0" />
    <path
       id="path3605"
       style="fill:#4a6574;fill-rule:evenodd"
       d="m 17.25,11.688 c -3.812,0 -8.4108,2.815 -10.25,7.468 v 10.906 c 0.8473,3.331 2.2041,5.898 3.344,8.657 l 5.25,-2.188 c -1.206,-2.469 -2.755,-4.934 -3.313,-6.156 -1.56,-3.422 -2.13,-4.954 -2,-7.563 0.126,-2.522 0.967,-4.075 2.5,-5.562 1.534,-1.487 3.655,-2.226 6.188,-1.875 5.364,0.743 7.09,4.803 7.219,6.781 0.105,1.627 -1.067,5.634 -5.188,5.438 -2.857,-0.136 -4.463,-1.72 -4.656,-4.406 -0.143,-1.98 1.773,-3.979 4.875,-2.969 0.499,0.162 0.533,-0.733 -0.031,-1.188 -1.453,-1.17 -7.207,-0.723 -7.188,3.875 0.018,4.261 3.426,7.106 6.719,7.125 6.895,0.041 8.249,-5.402 8,-9.156 -0.276,-4.16 -5.522,-9.188 -11.469,-9.187 z"
       inkscape:connector-curvature="0" />
    <path
       id="path3607"
       style="fill:#eeeeec;fill-rule:evenodd"
       d="m 17.25,10.688 c -3.816,0 -8.4121,2.838 -10.25,7.5 v 10.874 c 0.8536,3.33 2.2041,5.898 3.344,8.657 l 5.25,-2.188 c -1.206,-2.469 -2.787,-4.934 -3.344,-6.156 -1.56,-3.422 -2.13,-4.954 -2,-7.563 0.126,-2.522 0.998,-4.075 2.531,-5.562 1.534,-1.487 3.624,-2.226 6.157,-1.875 5.364,0.743 7.09,4.803 7.218,6.781 0.106,1.627 -1.035,5.634 -5.156,5.438 -2.857,-0.136 -4.463,-1.751 -4.656,-4.438 -0.143,-1.98 1.773,-3.947 4.875,-2.937 0.499,0.162 0.533,-0.733 -0.031,-1.188 -1.453,-1.17 -7.207,-0.723 -7.188,3.875 0.018,4.261 3.427,7.106 6.719,7.125 6.895,0.041 8.217,-5.402 7.969,-9.156 -0.276,-4.16 -5.491,-9.188 -11.438,-9.187 z"
       inkscape:connector-curvature="0" />
    <path
       id="path3609"
       style="opacity:0.77381005;fill:#466170;fill-rule:evenodd"
       d="m 37.656,11.969 -5.25,2.187 c 1.206,2.47 2.787,4.934 3.344,6.156 1.56,3.423 2.13,4.954 2,7.563 -0.126,2.522 -0.998,4.044 -2.531,5.531 -1.534,1.487 -3.624,2.257 -6.157,1.906 -5.364,-0.742 -7.09,-4.803 -7.218,-6.781 -0.106,-1.626 1.035,-5.633 5.156,-5.437 2.857,0.136 4.463,1.719 4.656,4.406 0.143,1.98 -1.773,3.979 -4.875,2.969 -0.499,-0.163 -0.533,0.733 0.031,1.187 1.453,1.171 7.207,0.723 7.188,-3.875 -0.018,-4.261 -3.427,-7.137 -6.719,-7.156 -6.895,-0.041 -8.217,5.433 -7.969,9.187 0.276,4.16 5.491,9.189 11.438,9.188 3.812,0 8.408,-2.848 10.25,-7.5 V 20.625 c -0.854,-3.33 -2.204,-5.897 -3.344,-8.656 z"
       inkscape:connector-curvature="0" />
    <path
       id="path3611"
       style="fill:#a9c5d3;fill-rule:evenodd"
       d="m 37.5,10.688 -5.25,2.187 c 1.205,2.47 2.786,4.934 3.344,6.156 1.56,3.423 2.13,4.954 2,7.563 -0.126,2.521 -0.998,4.044 -2.532,5.531 -1.533,1.487 -3.623,2.257 -6.156,1.906 -5.364,-0.742 -7.09,-4.803 -7.218,-6.781 -0.106,-1.627 1.034,-5.633 5.156,-5.438 2.857,0.136 4.463,1.72 4.656,4.407 0.142,1.98 -1.774,3.978 -4.875,2.969 -0.499,-0.163 -0.533,0.732 0.031,1.187 1.453,1.171 7.238,0.723 7.219,-3.875 -0.018,-4.261 -3.458,-7.137 -6.75,-7.156 -6.895,-0.041 -8.218,5.433 -7.969,9.187 0.276,4.16 5.491,9.189 11.438,9.188 3.923,0 8.678,-3.011 10.406,-7.907 v -9.906 c -0.837,-3.605 -2.298,-6.308 -3.5,-9.218 z"
       inkscape:connector-curvature="0" />
    <path
       id="path2435"
       style="opacity:0.4;fill:none;stroke:url(#linearGradient2626)"
       d="M 40.5,10.259 V 43.522 H 7.5 V 1.478 c 7.562,-3e-4 15.304,-3e-4 22.866,-3e-4"
       inkscape:connector-curvature="0" />
    <path
       id="path12038"
       style="opacity:0.4;fill-rule:evenodd;filter:url(#filter3212)"
       d="m 28.617,0.92126 c 4.283,0 2.154,8.4831 2.154,8.4831 0,0 10.357,-1.8023 10.357,2.8186 0,-2.6095 -11.302,-10.728 -12.511,-11.302 z"
       inkscape:connector-curvature="0" />
    <path
       id="path4474"
       style="fill:url(#linearGradient2601);fill-rule:evenodd"
       d="m 28.617,0.92126 c 3.187,0 2.336,7.6618 2.336,7.6618 0,0 10.175,-0.981 10.175,3.6399 0,-1.126 0.086,-1.932 -0.134,-2.2834 C 39.416,7.41536 32.881,1.75116 30.419,1.00876 30.235,0.9532 29.544,0.92122 28.617,0.92122 z"
       inkscape:connector-curvature="0" />
  </g>
</svg>
