<?xml version="1.0" encoding="UTF-8" standalone="no"?>
<!-- Created with Inkscape (http://www.inkscape.org/) -->

<svg
   xmlns:dc="http://purl.org/dc/elements/1.1/"
   xmlns:cc="http://creativecommons.org/ns#"
   xmlns:rdf="http://www.w3.org/1999/02/22-rdf-syntax-ns#"
   xmlns:svg="http://www.w3.org/2000/svg"
   xmlns="http://www.w3.org/2000/svg"
   xmlns:xlink="http://www.w3.org/1999/xlink"
   xmlns:sodipodi="http://sodipodi.sourceforge.net/DTD/sodipodi-0.dtd"
   xmlns:inkscape="http://www.inkscape.org/namespaces/inkscape"
   id="svg3685"
   height="32"
   width="32"
   version="1.0"
   inkscape:version="0.48.1 r9760"
   sodipodi:docname="application-x-cd-image.svg">
  <metadata
     id="metadata76">
    <rdf:RDF>
      <cc:Work
         rdf:about="">
        <dc:format>image/svg+xml</dc:format>
        <dc:type
           rdf:resource="http://purl.org/dc/dcmitype/StillImage" />
      </cc:Work>
    </rdf:RDF>
  </metadata>
  <sodipodi:namedview
     pagecolor="#ffffff"
     bordercolor="#666666"
     borderopacity="1"
     objecttolerance="10"
     gridtolerance="10"
     guidetolerance="10"
     inkscape:pageopacity="0"
     inkscape:pageshadow="2"
     inkscape:window-width="1366"
     inkscape:window-height="688"
     id="namedview74"
     showgrid="false"
     inkscape:zoom="16"
     inkscape:cx="4.6869504"
     inkscape:cy="22.962883"
     inkscape:window-x="0"
     inkscape:window-y="25"
     inkscape:window-maximized="1"
     inkscape:current-layer="svg3685" />
  <defs
     id="defs3687">
    <linearGradient
       id="linearGradient3333"
       y2="609.51001"
       gradientUnits="userSpaceOnUse"
       x2="302.85999"
       gradientTransform="matrix(0.067325,0,0,0.0147,-0.34114,37.04)"
       y1="366.64999"
       x1="302.85999">
      <stop
         id="stop5050"
         style="stop-opacity:0"
         offset="0" />
      <stop
         id="stop5056"
         offset=".5" />
      <stop
         id="stop5052"
         style="stop-opacity:0"
         offset="1" />
    </linearGradient>
    <radialGradient
       id="radialGradient3330"
       xlink:href="#linearGradient5060"
       gradientUnits="userSpaceOnUse"
       cy="486.64999"
       cx="605.71002"
       gradientTransform="matrix(-0.02304,0,0,0.0147,21.623,37.04)"
       r="117.14" />
    <linearGradient
       id="linearGradient5060">
      <stop
         id="stop5062"
         offset="0" />
      <stop
         id="stop5064"
         style="stop-opacity:0"
         offset="1" />
    </linearGradient>
    <radialGradient
       id="radialGradient3327"
       xlink:href="#linearGradient5060"
       gradientUnits="userSpaceOnUse"
       cy="486.64999"
       cx="605.71002"
       gradientTransform="matrix(0.02304,0,0,0.0147,26.361,37.04)"
       r="117.14" />
    <linearGradient
       id="linearGradient3324"
       y2="2.9061999"
       gradientUnits="userSpaceOnUse"
       x2="-51.785999"
       gradientTransform="matrix(0.8075,0,0,0.89483,59.41,-2.9806)"
       y1="50.785999"
       x1="-51.785999">
      <stop
         id="stop3106"
         style="stop-color:#aaa"
         offset="0" />
      <stop
         id="stop3108"
         style="stop-color:#c8c8c8"
         offset="1" />
    </linearGradient>
    <linearGradient
       id="linearGradient3322"
       y2="47.013"
       gradientUnits="userSpaceOnUse"
       x2="25.132"
       gradientTransform="matrix(1,0,0,0.95617,-1.0065003e-7,-1.9149)"
       y1="0.98521"
       x1="25.132">
      <stop
         id="stop3602"
         style="stop-color:#f4f4f4"
         offset="0" />
      <stop
         id="stop3604"
         style="stop-color:#dbdbdb"
         offset="1" />
    </linearGradient>
    <radialGradient
       id="radialGradient3319"
       gradientUnits="userSpaceOnUse"
       cy="112.3"
       cx="102"
       gradientTransform="matrix(0.3617,0,0,-0.39078,0.85106,47.517)"
       r="139.56">
      <stop
         id="stop41"
         style="stop-color:#b7b8b9"
         offset="0" />
      <stop
         id="stop47"
         style="stop-color:#ececec"
         offset=".18851" />
      <stop
         id="stop49"
         style="stop-color:#fafafa;stop-opacity:0"
         offset=".25718" />
      <stop
         id="stop51"
         style="stop-color:#fff;stop-opacity:0"
         offset=".30111" />
      <stop
         id="stop53"
         style="stop-color:#fafafa;stop-opacity:0"
         offset=".53130" />
      <stop
         id="stop55"
         style="stop-color:#ebecec;stop-opacity:0"
         offset=".84490" />
      <stop
         id="stop57"
         style="stop-color:#e1e2e3;stop-opacity:0"
         offset="1" />
    </radialGradient>
    <linearGradient
       id="linearGradient3316"
       y2="46.016998"
       gradientUnits="userSpaceOnUse"
       x2="24"
       gradientTransform="matrix(1,0,0,0.97778,0,-0.96667)"
       y1="2"
       x1="24">
      <stop
         id="stop3213"
         style="stop-color:#fff"
         offset="0" />
      <stop
         id="stop3215"
         style="stop-color:#fff;stop-opacity:0"
         offset="1" />
    </linearGradient>
    <filter
       id="filter3212"
       height="1.3286999"
       width="1.2969"
       color-interpolation-filters="sRGB"
       y="-0.16434"
       x="-0.14846">
      <feGaussianBlur
         id="feGaussianBlur3214"
         stdDeviation="0.77391625" />
    </filter>
    <linearGradient
       id="linearGradient3312"
       y2="5.4565001"
       gradientUnits="userSpaceOnUse"
       x2="36.358002"
       gradientTransform="matrix(0.9977,0,0,1.0407,0.1638,-1.1058)"
       y1="8.059"
       x1="32.891998">
      <stop
         id="stop8591"
         style="stop-color:#fefefe"
         offset="0" />
      <stop
         id="stop8593"
         style="stop-color:#cbcbcb"
         offset="1" />
    </linearGradient>
    <radialGradient
       id="radialGradient4557"
       gradientUnits="userSpaceOnUse"
       cy="41.636002"
       cx="23.334999"
       gradientTransform="matrix(1,0,0,0.25,0,31.227)"
       r="22.627001">
      <stop
         id="stop23421"
         offset="0" />
      <stop
         id="stop23423"
         style="stop-opacity:0"
         offset="1" />
    </radialGradient>
    <linearGradient
       id="linearGradient2904"
       y2="34.306999"
       gradientUnits="userSpaceOnUse"
       x2="32.511002"
       gradientTransform="matrix(1.0086,0,0,0.98169,6.6786,8.009)"
       y1="11.188"
       x1="14.997">
      <stop
         id="stop3034"
         style="stop-color:#ebebeb"
         offset="0" />
      <stop
         id="stop3036"
         style="stop-color:#fff"
         offset=".5" />
      <stop
         id="stop3038"
         style="stop-color:#ebebeb"
         offset="1" />
    </linearGradient>
    <linearGradient
       id="linearGradient2901"
       y2="14.203"
       gradientUnits="userSpaceOnUse"
       x2="35.390999"
       gradientTransform="matrix(1.0021,0,0,0.9754,6.7897,8.1115)"
       y1="32.416"
       x1="12.274">
      <stop
         id="stop3043"
         style="stop-color:#fbfbfb"
         offset="0" />
      <stop
         id="stop3045"
         style="stop-color:#b6b6b6"
         offset=".5" />
      <stop
         id="stop3047"
         style="stop-color:#e4e4e4"
         offset="1" />
    </linearGradient>
    <linearGradient
       id="linearGradient4409">
      <stop
         id="stop4411"
         style="stop-color:#b100cb"
         offset="0" />
      <stop
         id="stop4413"
         style="stop-color:#fff;stop-opacity:0"
         offset="1" />
    </linearGradient>
    <linearGradient
       id="linearGradient3683"
       y2="7.7321"
       xlink:href="#linearGradient4409"
       gradientUnits="userSpaceOnUse"
       x2="11.389"
       gradientTransform="matrix(0.84724,0,0,0.82462,10.753,10.878)"
       y1="20.763"
       x1="22.716999" />
    <linearGradient
       id="linearGradient2894"
       y2="32.958"
       gradientUnits="userSpaceOnUse"
       x2="15.645"
       gradientTransform="matrix(0.8295,0,0,0.80713,10.545,10.366)"
       y1="3.3037"
       x1="15.645">
      <stop
         id="stop6038"
         style="stop-color:#fff"
         offset="0" />
      <stop
         id="stop6040"
         style="stop-color:#fff;stop-opacity:0"
         offset="1" />
    </linearGradient>
    <linearGradient
       id="linearGradient2733"
       y2="18.367001"
       gradientUnits="userSpaceOnUse"
       x2="17.743"
       y1="31.495001"
       x1="28.702999">
      <stop
         id="stop6030"
         style="stop-color:#fff"
         offset="0" />
      <stop
         id="stop6032"
         style="stop-color:#fff;stop-opacity:0"
         offset="1" />
    </linearGradient>
    <linearGradient
       id="linearGradient3673"
       y2="7.7321"
       xlink:href="#linearGradient4409"
       gradientUnits="userSpaceOnUse"
       x2="11.389"
       gradientTransform="matrix(-0.84724,0,0,-0.82462,36.726,36.814)"
       y1="20.389999"
       x1="22.101999" />
  </defs>
  <g
     id="layer1"
     transform="matrix(0.65910551,0,0,0.65910551,0.18680651,0.0027773)">
    <rect
       id="rect2879"
       style="opacity:0.3;fill:url(#linearGradient3333)"
       height="3.5701001"
       width="32.507999"
       y="42.43"
       x="7.7378001" />
    <path
       id="path2881"
       style="opacity:0.3;fill:url(#radialGradient3330)"
       d="m 7.7378,42.43 v 3.5699 c -1.1865,0.0067 -2.8684,-0.79982 -2.8684,-1.7852 0,-0.98533 1.324,-1.7847 2.8684,-1.7847 z"
       inkscape:connector-curvature="0" />
    <path
       id="path2883"
       style="opacity:0.3;fill:url(#radialGradient3327)"
       d="m 40.246,42.43 v 3.5699 c 1.1865,0.0067 2.8684,-0.79982 2.8684,-1.7852 0,-0.98533 -1.324,-1.7847 -2.8684,-1.7847 z"
       inkscape:connector-curvature="0" />
    <path
       id="path4160"
       style="fill:url(#linearGradient3322);stroke:url(#linearGradient3324);stroke-width:0.99992001;stroke-linejoin:round"
       d="m 6.5,0.4972 h 24.061 c 1.4069,0.47465 8.9655,5.8822 10.939,9.6264 v 34.379 H 6.5 V 0.4966 z"
       inkscape:connector-curvature="0" />
    <path
       id="path4191"
       style="fill:url(#radialGradient3319)"
       d="M 7.3617,44 C 7.1624,44 7,43.82454 7,43.60922 V 1.40522 C 7,1.18951 7.1624,1.01444 7.3617,1.01444 c 7.4833,0.1082 15.775,-0.16138 23.249,0.0271 l 10.283,8.866 0.106,33.702 c 0,0.216 -0.162,0.391 -0.362,0.391 H 7.3617 z"
       inkscape:connector-curvature="0" />
    <path
       id="path2435"
       style="opacity:0.6;fill:none;stroke:url(#linearGradient3316);stroke-width:0.99992001;stroke-linejoin:round"
       d="M 40.5,10.259 V 43.522 H 7.5 V 1.477 h 22.866"
       inkscape:connector-curvature="0" />
    <path
       id="path12038"
       style="opacity:0.4;fill-rule:evenodd;filter:url(#filter3212)"
       d="m 28.617,0.92126 c 4.2825,0 2.1532,8.4832 2.1532,8.4832 0,0 10.358,-1.8023 10.358,2.8187 0,-2.6097 -11.302,-10.729 -12.511,-11.302 z"
       inkscape:connector-curvature="0" />
    <path
       id="path4474"
       style="fill:url(#linearGradient3312);fill-rule:evenodd"
       d="m 28.617,0.92126 c 3.1865,0 2.3358,7.6619 2.3358,7.6619 0,0 10.175,-0.98105 10.175,3.64 0,-1.1259 0.08591,-1.9322 -0.13378,-2.2836 -1.578,-2.5243 -8.395,-8.1885 -10.857,-8.9309 -0.184,-0.05556 -0.593,-0.08754 -1.52,-0.08754 z"
       inkscape:connector-curvature="0" />
    <path
       id="path23417"
       style="opacity:0.3;fill:url(#radialGradient4557);fill-rule:evenodd"
       d="m 45.962,41.636 a 22.6275,5.657025 0 1 1 -45.255,0 22.6275,5.657025 0 1 1 45.255,0 z"
       transform="matrix(0.55846,0,0,0.61181,11.005,8.0657)"
       inkscape:connector-curvature="0" />
    <path
       id="path3040"
       style="fill:url(#linearGradient2904)"
       d="m 24,12.426 c -6.4154,0 -11.574,5.1588 -11.574,11.574 0,6.4154 5.1588,11.574 11.574,11.574 6.4154,0 11.574,-5.1588 11.574,-11.574 0,-6.4154 -5.1588,-11.574 -11.574,-11.574 z m 0,14.352 c -1.5212,0 -2.7778,-1.2566 -2.7778,-2.7778 0,-1.5212 1.2566,-2.7778 2.7778,-2.7778 1.5212,0 2.7778,1.2566 2.7778,2.7778 0,1.5212 -1.2566,2.7778 -2.7778,2.7778 z"
       inkscape:connector-curvature="0" />
    <path
       id="path3049"
       style="fill:url(#linearGradient2901);stroke:#8c8c8c"
       d="m 24,12.5 c -6.374,0 -11.5,5.126 -11.5,11.5 0,6.3743 5.1257,11.5 11.5,11.5 6.3743,0 11.5,-5.1257 11.5,-11.5 0,-6.3743 -5.1257,-11.5 -11.5,-11.5 z m 0,14.001 c -1.5114,0 -2.5012,-0.98975 -2.5012,-2.5012 0,-1.51145 1.0506,-2.5012 2.5012,-2.5012 1.3136,0 2.5316,0.98974 2.5316,2.5012 0,1.5114 -1.0202,2.5012 -2.5316,2.5012 z"
       inkscape:connector-curvature="0" />
    <path
       id="path3051"
       style="opacity:0.51099004;fill:#eeeeec"
       d="m 24,18 c -3.3506,0 -6,2.7273 -6,6 0,3.351 2.727,6 6,6 3.351,0 6,-2.727 6,-6 0,-3.351 -2.727,-6 -6,-6 z m 0,9 c -1.7922,0 -3,-1.2078 -3,-3 0,-1.7922 1.2078,-3 3,-3 1.7922,0 3,1.2078 3,3 0,1.7922 -1.2078,3 -3,3 z"
       inkscape:connector-curvature="0" />
    <path
       id="path5264"
       style="opacity:0.4;fill:none;stroke:url(#linearGradient2894)"
       d="m 24,13.5 c -5.82,0 -10.5,4.68 -10.5,10.5 0,5.82 4.68,10.5 10.5,10.5 5.82,0 10.5,-4.68 10.5,-10.5 0,-5.82 -4.68,-10.5 -10.5,-10.5 z"
       inkscape:connector-curvature="0" />
    <path
       id="path6026"
       style="opacity:0.67212997;fill:none;stroke:url(#linearGradient2733);stroke-width:1.74249995"
       d="m 30.406,24.931 a 6.099,6.099 0 1 1 -12.198,0 6.099,6.099 0 1 1 12.198,0 z"
       transform="matrix(0.57388,0,0,0.57388,10.051,9.6927)"
       inkscape:connector-curvature="0" />
    <path
       id="path3676"
       style="fill:url(#linearGradient3683)"
       d="m 23.531,12.969 c -4.0651,0.10132 -7.9248,2.6977 -9.5587,6.4198 -1.699,3.693 -1.144,8.321 1.466,11.455 1.968,-1.667 4.137,-3.533 6.106,-5.2 -1.145,-1.638 -0.519,-4.059 1.456,-4.644 1.1215,-0.40255 2.3087,-0.08049 3.119,0.819 2.0208,-1.6562 4.1414,-3.4128 6.1622,-5.069 -2.1424,-2.518 -5.458,-3.9042 -8.75,-3.7812 z"
       inkscape:connector-curvature="0" />
    <path
       id="path3671"
       style="fill:url(#linearGradient3673)"
       d="m 23.948,34.724 c 4.0651,-0.10132 7.9248,-2.6977 9.5587,-6.4198 1.6995,-3.693 1.1448,-8.3211 -1.465,-11.455 -1.9688,1.6667 -3.9375,3.3333 -5.9062,5 1.1446,1.6385 0.3184,4.2591 -1.6562,4.8438 -1.1215,0.40255 -2.2088,-0.0188 -3.0191,-0.91829 -2.0208,1.6562 -4.2413,3.512 -6.2622,5.1683 2.1424,2.518 5.458,3.9042 8.75,3.7812 z"
       inkscape:connector-curvature="0" />
  </g>
</svg>
