<?xml version="1.0" encoding="UTF-8" standalone="no"?>
<!-- Created with Inkscape (http://www.inkscape.org/) -->

<svg
   xmlns:dc="http://purl.org/dc/elements/1.1/"
   xmlns:cc="http://creativecommons.org/ns#"
   xmlns:rdf="http://www.w3.org/1999/02/22-rdf-syntax-ns#"
   xmlns:svg="http://www.w3.org/2000/svg"
   xmlns="http://www.w3.org/2000/svg"
   xmlns:xlink="http://www.w3.org/1999/xlink"
   xmlns:sodipodi="http://sodipodi.sourceforge.net/DTD/sodipodi-0.dtd"
   xmlns:inkscape="http://www.inkscape.org/namespaces/inkscape"
   id="svg4322"
   height="32"
   width="32"
   version="1.0"
   inkscape:version="0.48.1 r9760"
   sodipodi:docname="application-rss+xml.svg">
  <metadata
     id="metadata50">
    <rdf:RDF>
      <cc:Work
         rdf:about="">
        <dc:format>image/svg+xml</dc:format>
        <dc:type
           rdf:resource="http://purl.org/dc/dcmitype/StillImage" />
      </cc:Work>
    </rdf:RDF>
  </metadata>
  <sodipodi:namedview
     pagecolor="#ffffff"
     bordercolor="#666666"
     borderopacity="1"
     objecttolerance="10"
     gridtolerance="10"
     guidetolerance="10"
     inkscape:pageopacity="0"
     inkscape:pageshadow="2"
     inkscape:window-width="1366"
     inkscape:window-height="688"
     id="namedview48"
     showgrid="false"
     inkscape:zoom="256"
     inkscape:cx="6.0461985"
     inkscape:cy="31.80381"
     inkscape:window-x="0"
     inkscape:window-y="25"
     inkscape:window-maximized="1"
     inkscape:current-layer="svg4322" />
  <defs
     id="defs4324">
    <linearGradient
       id="linearGradient3172"
       y2="609.51001"
       gradientUnits="userSpaceOnUse"
       x2="302.85999"
       gradientTransform="matrix(0.067325,0,0,0.0147,-0.34114,37.04)"
       y1="366.64999"
       x1="302.85999">
      <stop
         id="stop5050"
         style="stop-opacity:0"
         offset="0" />
      <stop
         id="stop5056"
         offset=".5" />
      <stop
         id="stop5052"
         style="stop-opacity:0"
         offset="1" />
    </linearGradient>
    <radialGradient
       id="radialGradient3169"
       xlink:href="#linearGradient5060"
       gradientUnits="userSpaceOnUse"
       cy="486.64999"
       cx="605.71002"
       gradientTransform="matrix(-0.02304,0,0,0.0147,21.623,37.04)"
       r="117.14" />
    <linearGradient
       id="linearGradient5060">
      <stop
         id="stop5062"
         offset="0" />
      <stop
         id="stop5064"
         style="stop-opacity:0"
         offset="1" />
    </linearGradient>
    <radialGradient
       id="radialGradient3166"
       xlink:href="#linearGradient5060"
       gradientUnits="userSpaceOnUse"
       cy="486.64999"
       cx="605.71002"
       gradientTransform="matrix(0.02304,0,0,0.0147,26.361,37.04)"
       r="117.14" />
    <linearGradient
       id="linearGradient3163"
       y2="2.9061999"
       gradientUnits="userSpaceOnUse"
       x2="-51.785999"
       gradientTransform="matrix(0.8075,0,0,0.89483,59.41,-2.9806)"
       y1="53.624001"
       x1="-51.785999">
      <stop
         id="stop3468"
         style="stop-color:#791116"
         offset="0" />
      <stop
         id="stop3470"
         style="stop-color:#dd7126"
         offset="1" />
    </linearGradient>
    <radialGradient
       id="radialGradient3161"
       gradientUnits="userSpaceOnUse"
       cy="10.898"
       cx="14.766"
       gradientTransform="matrix(0,3.0854,-5.1432,0,71.873,-38.461)"
       r="11.897">
      <stop
         id="stop3176"
         style="stop-color:#ffed8c"
         offset="0" />
      <stop
         id="stop3178"
         style="stop-color:#fb9858"
         offset=".39698" />
      <stop
         id="stop3180"
         style="stop-color:#dc572a"
         offset="1" />
    </radialGradient>
    <radialGradient
       id="radialGradient3158"
       gradientUnits="userSpaceOnUse"
       cy="112.3"
       cx="102"
       gradientTransform="matrix(0.3617,0,0,-0.39078,0.85106,47.517)"
       r="139.56">
      <stop
         id="stop41"
         offset="0" />
      <stop
         id="stop47"
         offset=".18851" />
      <stop
         id="stop49"
         style="stop-opacity:0"
         offset=".25718" />
      <stop
         id="stop51"
         style="stop-opacity:0"
         offset="1" />
    </radialGradient>
    <linearGradient
       id="linearGradient3155"
       y2="46.016998"
       gradientUnits="userSpaceOnUse"
       x2="24"
       gradientTransform="matrix(1,0,0,0.97778,0,-0.96667)"
       y1="2"
       x1="24">
      <stop
         id="stop3213"
         style="stop-color:#fff"
         offset="0" />
      <stop
         id="stop3215"
         style="stop-color:#fff;stop-opacity:0"
         offset="1" />
    </linearGradient>
    <linearGradient
       id="linearGradient3152"
       y2="6.5436001"
       gradientUnits="userSpaceOnUse"
       x2="34.103001"
       y1="4.8576999"
       x1="35.516998">
      <stop
         id="stop4269"
         style="stop-color:#c4c4c4"
         offset="0" />
      <stop
         id="stop4271"
         style="stop-color:#c4c4c4;stop-opacity:0"
         offset="1" />
    </linearGradient>
    <filter
       id="filter3212"
       height="1.3286999"
       width="1.2969"
       color-interpolation-filters="sRGB"
       y="-0.16434"
       x="-0.14846">
      <feGaussianBlur
         id="feGaussianBlur3214"
         stdDeviation="0.77391625" />
    </filter>
    <linearGradient
       id="linearGradient3130"
       y2="5.4565001"
       gradientUnits="userSpaceOnUse"
       x2="36.358002"
       gradientTransform="matrix(0.9977,0,0,1.0407,0.1638,-1.1058)"
       y1="8.059"
       x1="32.891998">
      <stop
         id="stop8591"
         style="stop-color:#fefefe"
         offset="0" />
      <stop
         id="stop8593"
         style="stop-color:#cbcbcb"
         offset="1" />
    </linearGradient>
  </defs>
  <g
     id="layer1"
     transform="matrix(0.65910551,0,0,0.65910551,0.18680651,0.00449796)">
    <rect
       id="rect2879"
       style="opacity:0.3;fill:url(#linearGradient3172)"
       height="3.5701001"
       width="32.507999"
       y="42.43"
       x="7.7378001" />
    <path
       id="path2881"
       style="opacity:0.3;fill:url(#radialGradient3169)"
       d="m 7.7378,42.43 v 3.5699 c -1.1865,0.0067 -2.8684,-0.79982 -2.8684,-1.7852 0,-0.98533 1.324,-1.7847 2.8684,-1.7847 z"
       inkscape:connector-curvature="0" />
    <path
       id="path2883"
       style="opacity:0.3;fill:url(#radialGradient3166)"
       d="m 40.246,42.43 v 3.5699 c 1.1865,0.0067 2.8684,-0.79982 2.8684,-1.7852 0,-0.98533 -1.324,-1.7847 -2.8684,-1.7847 z"
       inkscape:connector-curvature="0" />
    <path
       id="path4160"
       style="fill:url(#radialGradient3161);stroke:url(#linearGradient3163);stroke-width:0.99992001;stroke-linejoin:round"
       d="m 6.5,0.4972 h 24.061 c 0.52523,1.9602 6.1331,6.8516 10.939,9.6264 v 34.379 H 6.5 V 0.4966 z"
       inkscape:connector-curvature="0" />
    <path
       id="path4191"
       style="opacity:0.05;fill:url(#radialGradient3158)"
       d="M 7.3617,44 C 7.1624,44 7,43.82454 7,43.60922 V 1.40522 C 7,1.18951 7.1624,1.01444 7.3617,1.01444 c 7.4833,0.1082 15.775,-0.16138 23.249,0.0271 l 10.283,8.866 0.106,33.702 c 0,0.216 -0.162,0.391 -0.362,0.391 H 7.3617 z"
       inkscape:connector-curvature="0" />
    <path
       id="path2435"
       style="opacity:0.4;fill:none;stroke:url(#linearGradient3155)"
       d="M 40.5,10.259 V 43.522 H 7.5 V 1.477 h 22.866"
       inkscape:connector-curvature="0" />
    <path
       id="path4238"
       style="fill:none;stroke:url(#linearGradient3152);stroke-width:0.99992001;stroke-linejoin:round"
       d="m 30.561,0.5 c 1.4069,0.47465 8.9655,5.8794 10.939,9.6236 v 12.285 C 1.054,38.1376 6.264,0.4996 30.561,0.4996 z"
       inkscape:connector-curvature="0" />
    <path
       id="path12038"
       style="opacity:0.4;fill-rule:evenodd;filter:url(#filter3212)"
       d="m 28.617,0.92126 c 4.2825,0 2.1532,8.4832 2.1532,8.4832 0,0 10.358,-1.8023 10.358,2.8187 0,-2.6097 -11.302,-10.729 -12.511,-11.302 z"
       inkscape:connector-curvature="0" />
    <path
       id="path4474"
       style="fill:url(#linearGradient3130);fill-rule:evenodd"
       d="m 28.617,0.92126 c 3.1865,0 2.3358,7.6619 2.3358,7.6619 0,0 10.175,-0.98105 10.175,3.64 0,-1.1259 0.08591,-1.9322 -0.13378,-2.2836 -1.578,-2.5243 -8.113,-8.1885 -10.575,-8.9309 -0.184,-0.05556 -0.875,-0.08754 -1.802,-0.08754 z"
       inkscape:connector-curvature="0" />
    <path
       id="path3349"
       style="opacity:0.4;fill:#ffffff"
       d="m 11.095,39.352 c 0,-0.46061 0.15903,-0.84731 0.47705,-1.1601 0.31804,-0.31844 0.70707,-0.47768 1.1671,-0.47769 0.44865,1.2e-5 0.82916,0.15924 1.1415,0.47769 0.31803,0.31278 0.47705,0.69948 0.47705,1.1601 0,0.44927 -0.15902,0.83312 -0.47705,1.1516 -0.31236,0.31278 -0.69286,0.46917 -1.1415,0.46916 -0.46001,10e-6 -0.84904,-0.15638 -1.1671,-0.46916 -0.318,-0.313 -0.477,-0.697 -0.477,-1.152 m -0.095,-7.396 v 2.7246 c 3.4803,0 6.307,2.8322 6.307,6.3193 h 2.7335 c 0,-4.995 -4.0553,-9.0439 -9.0405,-9.0439 z m 0.0047,-5.9617 v 3.0117 c 6.6079,0 11.973,5.3724 11.973,11.989 h 3.0221 c 0,-8.283 -6.724,-15.001 -14.995,-15.001 z"
       inkscape:connector-curvature="0" />
    <path
       id="path4311"
       style="fill:#793311"
       d="m 11.095,38.358 c 0,-0.46061 0.15903,-0.84731 0.47705,-1.1601 0.31804,-0.31844 0.70707,-0.47768 1.1671,-0.47769 0.44865,1.2e-5 0.82916,0.15924 1.1415,0.47769 0.31803,0.31278 0.47705,0.69948 0.47705,1.1601 0,0.44927 -0.15902,0.83312 -0.47705,1.1516 -0.31236,0.31278 -0.69286,0.46917 -1.1415,0.46916 -0.46001,10e-6 -0.84904,-0.15638 -1.1671,-0.46916 C 11.25403,39.19684 11.095,38.81298 11.095,38.358 M 11,30.962 v 2.7246 c 3.4803,0 6.307,2.8322 6.307,6.3193 h 2.7335 c 0,-4.995 -4.0553,-9.0439 -9.0405,-9.0439 z m 0.0047,-5.9617 v 3.0117 c 6.6079,0 11.973,5.3724 11.973,11.989 h 3.0221 C 25.9998,31.718 19.2758,25 11.0048,25 z"
       inkscape:connector-curvature="0" />
  </g>
</svg>
