<?xml version="1.0" encoding="UTF-8" standalone="no"?>
<!-- Created with Inkscape (http://www.inkscape.org/) -->

<svg
   xmlns:dc="http://purl.org/dc/elements/1.1/"
   xmlns:cc="http://creativecommons.org/ns#"
   xmlns:rdf="http://www.w3.org/1999/02/22-rdf-syntax-ns#"
   xmlns:svg="http://www.w3.org/2000/svg"
   xmlns="http://www.w3.org/2000/svg"
   xmlns:xlink="http://www.w3.org/1999/xlink"
   xmlns:sodipodi="http://sodipodi.sourceforge.net/DTD/sodipodi-0.dtd"
   xmlns:inkscape="http://www.inkscape.org/namespaces/inkscape"
   id="svg2476"
   height="32"
   width="32"
   version="1.0"
   inkscape:version="0.48.1 r9760"
   sodipodi:docname="text-x-sql.svg">
  <metadata
     id="metadata74">
    <rdf:RDF>
      <cc:Work
         rdf:about="">
        <dc:format>image/svg+xml</dc:format>
        <dc:type
           rdf:resource="http://purl.org/dc/dcmitype/StillImage" />
      </cc:Work>
    </rdf:RDF>
  </metadata>
  <sodipodi:namedview
     pagecolor="#ffffff"
     bordercolor="#666666"
     borderopacity="1"
     objecttolerance="10"
     gridtolerance="10"
     guidetolerance="10"
     inkscape:pageopacity="0"
     inkscape:pageshadow="2"
     inkscape:window-width="1366"
     inkscape:window-height="688"
     id="namedview72"
     showgrid="false"
     inkscape:zoom="147.07821"
     inkscape:cx="9.8229221"
     inkscape:cy="32.163484"
     inkscape:window-x="0"
     inkscape:window-y="25"
     inkscape:window-maximized="1"
     inkscape:current-layer="svg2476" />
  <defs
     id="defs2478">
    <linearGradient
       id="linearGradient2507"
       y2="609.51001"
       gradientUnits="userSpaceOnUse"
       x2="302.85999"
       gradientTransform="matrix(0.067325,0,0,0.0147,-0.34114,37.04)"
       y1="366.64999"
       x1="302.85999">
      <stop
         id="stop5050"
         style="stop-opacity:0"
         offset="0" />
      <stop
         id="stop5056"
         offset=".5" />
      <stop
         id="stop5052"
         style="stop-opacity:0"
         offset="1" />
    </linearGradient>
    <radialGradient
       id="radialGradient2504"
       xlink:href="#linearGradient5060"
       gradientUnits="userSpaceOnUse"
       cy="486.64999"
       cx="605.71002"
       gradientTransform="matrix(-0.02304,0,0,0.0147,21.623,37.04)"
       r="117.14" />
    <linearGradient
       id="linearGradient5060">
      <stop
         id="stop5062"
         offset="0" />
      <stop
         id="stop5064"
         style="stop-opacity:0"
         offset="1" />
    </linearGradient>
    <radialGradient
       id="radialGradient2501"
       xlink:href="#linearGradient5060"
       gradientUnits="userSpaceOnUse"
       cy="486.64999"
       cx="605.71002"
       gradientTransform="matrix(0.02304,0,0,0.0147,26.361,37.04)"
       r="117.14" />
    <linearGradient
       id="linearGradient2498"
       y2="2.9061999"
       gradientUnits="userSpaceOnUse"
       x2="-51.785999"
       gradientTransform="matrix(0.8075,0,0,0.89483,59.41,-2.9806)"
       y1="50.785999"
       x1="-51.785999">
      <stop
         id="stop3106"
         style="stop-color:#aaa"
         offset="0" />
      <stop
         id="stop3108"
         style="stop-color:#c8c8c8"
         offset="1" />
    </linearGradient>
    <linearGradient
       id="linearGradient2496"
       y2="47.013"
       gradientUnits="userSpaceOnUse"
       x2="25.132"
       gradientTransform="matrix(1,0,0,0.95617,-1.0065e-7,-1.9149)"
       y1="0.98521"
       x1="25.132">
      <stop
         id="stop3602"
         style="stop-color:#f4f4f4"
         offset="0" />
      <stop
         id="stop3604"
         style="stop-color:#dbdbdb"
         offset="1" />
    </linearGradient>
    <radialGradient
       id="radialGradient2493"
       gradientUnits="userSpaceOnUse"
       cy="112.3"
       cx="102"
       gradientTransform="matrix(0.3617,0,0,-0.39078,0.85106,47.517)"
       r="139.56">
      <stop
         id="stop41"
         style="stop-color:#b7b8b9"
         offset="0" />
      <stop
         id="stop47"
         style="stop-color:#ececec"
         offset=".18851" />
      <stop
         id="stop49"
         style="stop-color:#fafafa;stop-opacity:0"
         offset=".25718" />
      <stop
         id="stop51"
         style="stop-color:#fff;stop-opacity:0"
         offset=".30111" />
      <stop
         id="stop53"
         style="stop-color:#fafafa;stop-opacity:0"
         offset=".53130" />
      <stop
         id="stop55"
         style="stop-color:#ebecec;stop-opacity:0"
         offset=".84490" />
      <stop
         id="stop57"
         style="stop-color:#e1e2e3;stop-opacity:0"
         offset="1" />
    </radialGradient>
    <radialGradient
       id="radialGradient2490"
       gradientUnits="userSpaceOnUse"
       cy="41.636002"
       cx="23.334999"
       gradientTransform="matrix(0.57452,0,0,0.22094,10.594,23.801)"
       r="22.627001">
      <stop
         id="stop23421"
         offset="0" />
      <stop
         id="stop23423"
         style="stop-opacity:0"
         offset="1" />
    </radialGradient>
    <linearGradient
       id="linearGradient2487"
       y2="46.016998"
       gradientUnits="userSpaceOnUse"
       x2="24"
       gradientTransform="matrix(1,0,0,0.97778,0,-0.96667)"
       y1="2"
       x1="24">
      <stop
         id="stop3213"
         style="stop-color:#fff"
         offset="0" />
      <stop
         id="stop3215"
         style="stop-color:#fff;stop-opacity:0"
         offset="1" />
    </linearGradient>
    <filter
       id="filter3212"
       height="1.3286999"
       width="1.2969"
       color-interpolation-filters="sRGB"
       y="-0.16434"
       x="-0.14846">
      <feGaussianBlur
         id="feGaussianBlur3214"
         stdDeviation="0.77391625" />
    </filter>
    <linearGradient
       id="linearGradient2483"
       y2="5.4565001"
       gradientUnits="userSpaceOnUse"
       x2="36.358002"
       gradientTransform="matrix(0.9977,0,0,1.0407,0.1638,-1.1058)"
       y1="8.059"
       x1="32.891998">
      <stop
         id="stop8591"
         style="stop-color:#fefefe"
         offset="0" />
      <stop
         id="stop8593"
         style="stop-color:#cbcbcb"
         offset="1" />
    </linearGradient>
    <linearGradient
       id="linearGradient2479"
       y2="27.546"
       xlink:href="#linearGradient3858"
       gradientUnits="userSpaceOnUse"
       x2="89.017998"
       gradientTransform="translate(-70.157,8.4539)"
       y1="22.537001"
       x1="89.017998" />
    <linearGradient
       id="linearGradient2477"
       y2="-7.6657"
       xlink:href="#linearGradient2793"
       spreadMethod="reflect"
       gradientUnits="userSpaceOnUse"
       x2="89.424004"
       gradientTransform="matrix(0.45783,0,0,0.43229,-23.592,36.912)"
       y1="-7.6657"
       x1="103.95" />
    <linearGradient
       id="linearGradient2473"
       y2="27.546"
       xlink:href="#linearGradient3858"
       gradientUnits="userSpaceOnUse"
       x2="89.017998"
       gradientTransform="translate(-70.157,2.4539)"
       y1="22.537001"
       x1="89.017998" />
    <linearGradient
       id="linearGradient2471"
       y2="-7.6657"
       xlink:href="#linearGradient2793"
       spreadMethod="reflect"
       gradientUnits="userSpaceOnUse"
       x2="89.424004"
       gradientTransform="matrix(0.45783,0,0,0.43229,-23.592,30.912)"
       y1="-7.6657"
       x1="103.95" />
    <linearGradient
       id="linearGradient3858">
      <stop
         id="stop3860"
         style="stop-color:#a0a0a0"
         offset="0" />
      <stop
         id="stop3862"
         style="stop-color:#4a4a4a"
         offset="1" />
    </linearGradient>
    <linearGradient
       id="linearGradient2466"
       y2="27.546"
       xlink:href="#linearGradient3858"
       gradientUnits="userSpaceOnUse"
       x2="89.017998"
       gradientTransform="translate(-70.157,-3.5461)"
       y1="22.537001"
       x1="89.017998" />
    <linearGradient
       id="linearGradient2793">
      <stop
         id="stop2795"
         style="stop-color:#868688"
         offset="0" />
      <stop
         id="stop2797"
         style="stop-color:#d9d9da"
         offset="1" />
    </linearGradient>
    <linearGradient
       id="linearGradient2463"
       y2="-7.6657"
       xlink:href="#linearGradient2793"
       spreadMethod="reflect"
       gradientUnits="userSpaceOnUse"
       x2="89.424004"
       gradientTransform="matrix(0.45783,0,0,0.43229,-23.592,24.912)"
       y1="-7.6657"
       x1="103.95" />
    <linearGradient
       id="linearGradient2460"
       y2="-2.3757999"
       gradientUnits="userSpaceOnUse"
       x2="109.96"
       gradientTransform="matrix(0.45813,0,0,0.43889,-23.62,20.933)"
       y1="-24.910999"
       x1="109.96">
      <stop
         id="stop2511"
         style="stop-color:#b3b3b3"
         offset="0" />
      <stop
         id="stop2513"
         style="stop-color:#dadada"
         offset="1" />
    </linearGradient>
    <linearGradient
       id="linearGradient2458"
       y2="-24.582001"
       spreadMethod="reflect"
       gradientUnits="userSpaceOnUse"
       x2="102.31"
       gradientTransform="matrix(0.45813,0,0,0.43889,-23.62,20.933)"
       y1="-2.3924999"
       x1="102.31">
      <stop
         id="stop3846"
         style="stop-color:#a5a6a8"
         offset="0" />
      <stop
         id="stop3848"
         style="stop-color:#e8e8e8"
         offset="1" />
    </linearGradient>
  </defs>
  <g
     id="layer1"
     transform="matrix(0.65910551,0,0,0.65910551,0.18680651,7.3887303e-4)">
    <rect
       id="rect2879"
       style="opacity:0.3;fill:url(#linearGradient2507)"
       height="3.5701001"
       width="32.507999"
       y="42.43"
       x="7.7378001" />
    <path
       id="path2881"
       style="opacity:0.3;fill:url(#radialGradient2504)"
       d="m 7.7378,42.43 v 3.5699 c -1.1865,0.0067 -2.8684,-0.79982 -2.8684,-1.7852 0,-0.98533 1.324,-1.7847 2.8684,-1.7847 z"
       inkscape:connector-curvature="0" />
    <path
       id="path2883"
       style="opacity:0.3;fill:url(#radialGradient2501)"
       d="m 40.246,42.43 v 3.5699 c 1.1865,0.0067 2.8684,-0.79982 2.8684,-1.7852 0,-0.98533 -1.324,-1.7847 -2.8684,-1.7847 z"
       inkscape:connector-curvature="0" />
    <path
       id="path4160"
       style="fill:url(#linearGradient2496);stroke:url(#linearGradient2498);stroke-width:0.99992001;stroke-linejoin:round"
       d="m 6.5,0.4972 h 24.061 c 1.4069,0.47465 8.9655,5.8822 10.939,9.6264 v 34.379 H 6.5 V 0.4966 z"
       inkscape:connector-curvature="0" />
    <path
       id="path4191"
       style="fill:url(#radialGradient2493)"
       d="M 7.3617,44 C 7.1624,44 7,43.82454 7,43.60922 V 1.40522 C 7,1.18951 7.1624,1.01444 7.3617,1.01444 c 7.4833,0.1082 15.775,-0.16138 23.249,0.0271 l 10.283,8.866 0.106,33.702 c 0,0.216 -0.162,0.391 -0.362,0.391 H 7.3617 z"
       inkscape:connector-curvature="0" />
    <path
       id="path23417"
       style="opacity:0.3;fill:url(#radialGradient2490);fill-rule:evenodd"
       d="m 37,33 c 0.0011,2.7613 -5.8195,5 -13,5 -7.1805,0 -13.001,-2.2387 -13,-5 -0.0011,-2.7613 5.8195,-5 13,-5 7.1805,0 13.001,2.2387 13,5 z"
       inkscape:connector-curvature="0" />
    <path
       id="path2435"
       style="opacity:0.6;fill:none;stroke:url(#linearGradient2487);stroke-width:0.99992001;stroke-linejoin:round"
       d="M 40.5,10.259 V 43.522 H 7.5 V 1.477 h 22.866"
       inkscape:connector-curvature="0" />
    <path
       id="path12038"
       style="opacity:0.4;fill-rule:evenodd;filter:url(#filter3212)"
       d="m 28.617,0.92126 c 4.2825,0 2.1532,8.4832 2.1532,8.4832 0,0 10.358,-1.8023 10.358,2.8187 0,-2.6097 -11.302,-10.729 -12.511,-11.302 z"
       inkscape:connector-curvature="0" />
    <path
       id="path4474"
       style="fill:url(#linearGradient2483);fill-rule:evenodd"
       d="m 28.617,0.92126 c 3.1865,0 2.3358,7.6619 2.3358,7.6619 0,0 10.175,-0.98105 10.175,3.64 0,-1.1259 0.08591,-1.9322 -0.13378,-2.2836 -1.578,-2.5243 -8.395,-8.1885 -10.857,-8.9309 -0.184,-0.05556 -0.593,-0.08754 -1.52,-0.08754 z"
       inkscape:connector-curvature="0" />
    <path
       id="path4834"
       style="fill:url(#linearGradient2477);stroke:url(#linearGradient2479)"
       d="m 35.49,31.068 c 0,2.4466 -5.1487,4.4322 -11.493,4.4322 -6.344,0 -11.493,-1.9856 -11.493,-4.4322 0.11446,-5.4694 -1.4047,-4.34 11.493,-4.4322 13.193,-0.0952 11.331,-1.1267 11.493,4.4322 z"
       inkscape:connector-curvature="0" />
    <path
       id="path4838"
       style="fill:#868688;stroke:#d8d8d8"
       d="m 35.5,27 c 0,2.4853 -5.1487,4.5 -11.5,4.5 -6.3513,0 -11.5,-2.0147 -11.5,-4.5 0,-2.4853 5.1487,-4.5 11.5,-4.5 6.3513,0 11.5,2.0147 11.5,4.5 z"
       inkscape:connector-curvature="0" />
    <path
       id="path3866"
       style="fill:url(#linearGradient2471);stroke:url(#linearGradient2473)"
       d="m 35.49,25.068 c 0,2.4466 -5.1487,4.4322 -11.493,4.4322 -6.344,0 -11.493,-1.9856 -11.493,-4.4322 0.11446,-5.4694 -1.4047,-4.34 11.493,-4.4322 13.193,-0.0952 11.331,-1.1267 11.493,4.4322 z"
       inkscape:connector-curvature="0" />
    <path
       id="path3868"
       style="fill:#868688;stroke:#d8d8d8"
       d="m 35.5,21 c 0,2.4853 -5.1487,4.5 -11.5,4.5 -6.3513,0 -11.5,-2.0147 -11.5,-4.5 0,-2.4853 5.1487,-4.5 11.5,-4.5 6.3513,0 11.5,2.0147 11.5,4.5 z"
       inkscape:connector-curvature="0" />
    <path
       id="path3878"
       style="fill:url(#linearGradient2463);stroke:url(#linearGradient2466)"
       d="m 35.49,19.068 c 0,2.4466 -5.1487,4.4322 -11.493,4.4322 -6.344,0 -11.493,-1.9856 -11.493,-4.4322 0.11446,-5.4694 -1.4047,-4.34 11.493,-4.4322 13.193,-0.0952 11.331,-1.1267 11.493,4.4322 z"
       inkscape:connector-curvature="0" />
    <path
       id="path3880"
       style="fill:url(#linearGradient2458);stroke:url(#linearGradient2460)"
       d="m 35.5,15 c 0,2.4853 -5.1487,4.5 -11.5,4.5 -6.3513,0 -11.5,-2.0147 -11.5,-4.5 0,-2.4853 5.1487,-4.5 11.5,-4.5 6.3513,0 11.5,2.0147 11.5,4.5 z"
       inkscape:connector-curvature="0" />
  </g>
</svg>
