<?xml version="1.0" encoding="UTF-8" standalone="no"?>
<!-- Created with Inkscape (http://www.inkscape.org/) -->

<svg
   xmlns:dc="http://purl.org/dc/elements/1.1/"
   xmlns:cc="http://creativecommons.org/ns#"
   xmlns:rdf="http://www.w3.org/1999/02/22-rdf-syntax-ns#"
   xmlns:svg="http://www.w3.org/2000/svg"
   xmlns="http://www.w3.org/2000/svg"
   xmlns:xlink="http://www.w3.org/1999/xlink"
   xmlns:sodipodi="http://sodipodi.sourceforge.net/DTD/sodipodi-0.dtd"
   xmlns:inkscape="http://www.inkscape.org/namespaces/inkscape"
   id="svg4831"
   height="32"
   width="32"
   version="1.0"
   inkscape:version="0.48.1 r9760"
   sodipodi:docname="text-x-java-source.svg">
  <metadata
     id="metadata81">
    <rdf:RDF>
      <cc:Work
         rdf:about="">
        <dc:format>image/svg+xml</dc:format>
        <dc:type
           rdf:resource="http://purl.org/dc/dcmitype/StillImage" />
      </cc:Work>
    </rdf:RDF>
  </metadata>
  <sodipodi:namedview
     pagecolor="#ffffff"
     bordercolor="#666666"
     borderopacity="1"
     objecttolerance="10"
     gridtolerance="10"
     guidetolerance="10"
     inkscape:pageopacity="0"
     inkscape:pageshadow="2"
     inkscape:window-width="1366"
     inkscape:window-height="688"
     id="namedview79"
     showgrid="false"
     inkscape:zoom="256"
     inkscape:cx="13.264634"
     inkscape:cy="31.387758"
     inkscape:window-x="0"
     inkscape:window-y="25"
     inkscape:window-maximized="1"
     inkscape:current-layer="svg4831" />
  <defs
     id="defs4833">
    <linearGradient
       id="linearGradient3333"
       y2="609.51001"
       gradientUnits="userSpaceOnUse"
       x2="302.85999"
       gradientTransform="matrix(0.067325,0,0,0.0147,-0.34114,37.04)"
       y1="366.64999"
       x1="302.85999">
      <stop
         id="stop5050"
         style="stop-opacity:0"
         offset="0" />
      <stop
         id="stop5056"
         offset=".5" />
      <stop
         id="stop5052"
         style="stop-opacity:0"
         offset="1" />
    </linearGradient>
    <radialGradient
       id="radialGradient3330"
       xlink:href="#linearGradient5060"
       gradientUnits="userSpaceOnUse"
       cy="486.64999"
       cx="605.71002"
       gradientTransform="matrix(-0.02304,0,0,0.0147,21.623,37.04)"
       r="117.14" />
    <linearGradient
       id="linearGradient5060">
      <stop
         id="stop5062"
         offset="0" />
      <stop
         id="stop5064"
         style="stop-opacity:0"
         offset="1" />
    </linearGradient>
    <radialGradient
       id="radialGradient3327"
       xlink:href="#linearGradient5060"
       gradientUnits="userSpaceOnUse"
       cy="486.64999"
       cx="605.71002"
       gradientTransform="matrix(0.02304,0,0,0.0147,26.361,37.04)"
       r="117.14" />
    <linearGradient
       id="linearGradient3324"
       y2="2.9061999"
       gradientUnits="userSpaceOnUse"
       x2="-51.785999"
       gradientTransform="matrix(0.8075,0,0,0.89483,59.41,-2.9806)"
       y1="50.785999"
       x1="-51.785999">
      <stop
         id="stop3106"
         style="stop-color:#aaa"
         offset="0" />
      <stop
         id="stop3108"
         style="stop-color:#c8c8c8"
         offset="1" />
    </linearGradient>
    <linearGradient
       id="linearGradient3322"
       y2="47.013"
       gradientUnits="userSpaceOnUse"
       x2="25.132"
       gradientTransform="matrix(1,0,0,0.95617,-1.0065e-7,-1.9149)"
       y1="0.98521"
       x1="25.132">
      <stop
         id="stop3602"
         style="stop-color:#f4f4f4"
         offset="0" />
      <stop
         id="stop3604"
         style="stop-color:#dbdbdb"
         offset="1" />
    </linearGradient>
    <radialGradient
       id="radialGradient3319"
       gradientUnits="userSpaceOnUse"
       cy="112.3"
       cx="102"
       gradientTransform="matrix(0.3617,0,0,-0.39078,0.85106,47.517)"
       r="139.56">
      <stop
         id="stop41"
         style="stop-color:#b7b8b9"
         offset="0" />
      <stop
         id="stop47"
         style="stop-color:#ececec"
         offset=".18851" />
      <stop
         id="stop49"
         style="stop-color:#fafafa;stop-opacity:0"
         offset=".25718" />
      <stop
         id="stop51"
         style="stop-color:#fff;stop-opacity:0"
         offset=".30111" />
      <stop
         id="stop53"
         style="stop-color:#fafafa;stop-opacity:0"
         offset=".53130" />
      <stop
         id="stop55"
         style="stop-color:#ebecec;stop-opacity:0"
         offset=".84490" />
      <stop
         id="stop57"
         style="stop-color:#e1e2e3;stop-opacity:0"
         offset="1" />
    </radialGradient>
    <radialGradient
       id="radialGradient4086"
       gradientUnits="userSpaceOnUse"
       cy="4.625"
       cx="62.625"
       gradientTransform="matrix(1,0,0,0.34118,0,3.0471)"
       r="10.625">
      <stop
         id="stop8840"
         offset="0" />
      <stop
         id="stop8842"
         style="stop-opacity:0"
         offset="1" />
    </radialGradient>
    <linearGradient
       id="linearGradient3316"
       y2="46.016998"
       gradientUnits="userSpaceOnUse"
       x2="24"
       gradientTransform="matrix(1,0,0,0.97778,0,-0.96667)"
       y1="2"
       x1="24">
      <stop
         id="stop3213"
         style="stop-color:#fff"
         offset="0" />
      <stop
         id="stop3215"
         style="stop-color:#fff;stop-opacity:0"
         offset="1" />
    </linearGradient>
    <filter
       id="filter3212"
       height="1.3286999"
       width="1.2969"
       color-interpolation-filters="sRGB"
       y="-0.16434"
       x="-0.14846">
      <feGaussianBlur
         id="feGaussianBlur3214"
         stdDeviation="0.77391625" />
    </filter>
    <linearGradient
       id="linearGradient3312"
       y2="5.4565001"
       gradientUnits="userSpaceOnUse"
       x2="36.358002"
       gradientTransform="matrix(0.9977,0,0,1.0407,0.1638,-1.1058)"
       y1="8.059"
       x1="32.891998">
      <stop
         id="stop8591"
         style="stop-color:#fefefe"
         offset="0" />
      <stop
         id="stop8593"
         style="stop-color:#cbcbcb"
         offset="1" />
    </linearGradient>
    <linearGradient
       id="linearGradient4102"
       y2="27.549"
       xlink:href="#linearGradient3584"
       gradientUnits="userSpaceOnUse"
       x2="39.780998"
       gradientTransform="translate(-1,-1)"
       y1="24.868"
       x1="34.463001" />
    <linearGradient
       id="linearGradient4094"
       y2="23.945"
       gradientUnits="userSpaceOnUse"
       x2="38.154999"
       gradientTransform="translate(-1,-1)"
       y1="22.978001"
       x1="34.875999">
      <stop
         id="stop4090"
         style="stop-color:#7f7f7f"
         offset="0" />
      <stop
         id="stop4092"
         style="stop-color:#eaeae8;stop-opacity:0"
         offset="1" />
    </linearGradient>
    <linearGradient
       id="linearGradient3584">
      <stop
         id="stop3586"
         style="stop-color:#5f5f5f"
         offset="0" />
      <stop
         id="stop3588"
         style="stop-color:#c6c6c6"
         offset="1" />
    </linearGradient>
    <linearGradient
       id="linearGradient4113"
       y2="2.3599"
       xlink:href="#linearGradient3584"
       gradientUnits="userSpaceOnUse"
       x2="53.303001"
       gradientTransform="matrix(0.33333,0,0,0.33786,-5.4339,15.066)"
       y1="55.030998"
       x1="117.3" />
    <radialGradient
       id="radialGradient4111"
       gradientUnits="userSpaceOnUse"
       cy="29.205999"
       cx="-6.4537001"
       gradientTransform="matrix(0,0.47619,-0.494,0,32.286,26.955)"
       r="32">
      <stop
         id="stop3491"
         style="stop-color:#eeeeec"
         offset="0" />
      <stop
         id="stop3497"
         style="stop-color:#cacac9"
         offset=".5" />
      <stop
         id="stop3493"
         style="stop-color:#6b6b6b"
         offset="1" />
    </radialGradient>
    <linearGradient
       id="linearGradient4067"
       y2="16.365999"
       spreadMethod="reflect"
       gradientUnits="userSpaceOnUse"
       x2="35.033001"
       y1="16.365999"
       x1="5.6835999">
      <stop
         id="stop3528"
         style="stop-color:#d1d1d1"
         offset="0" />
      <stop
         id="stop3530"
         style="stop-color:#959594"
         offset="1" />
    </linearGradient>
    <radialGradient
       id="radialGradient4107"
       gradientUnits="userSpaceOnUse"
       cy="32.535"
       cx="8.4375"
       gradientTransform="matrix(0.37791,0,0,0.11821,19.791,17.658)"
       r="26.406">
      <stop
         id="stop3740"
         style="stop-color:#8b6a35"
         offset="0" />
      <stop
         id="stop3742"
         style="stop-color:#754d0d"
         offset=".60331" />
      <stop
         id="stop3744"
         style="stop-color:#483816"
         offset="1" />
    </radialGradient>
    <linearGradient
       id="linearGradient4071"
       y2="41.73"
       gradientUnits="userSpaceOnUse"
       x2="87.050003"
       gradientTransform="matrix(0.33333,0,0,0.33786,-5.4339,14.704)"
       y1="53.75"
       x1="87.050003">
      <stop
         id="stop3597"
         style="stop-color:#fff"
         offset="0" />
      <stop
         id="stop3599"
         style="stop-color:#fff;stop-opacity:0"
         offset="1" />
    </linearGradient>
    <linearGradient
       id="linearGradient4073"
       y2="31.827"
       gradientUnits="userSpaceOnUse"
       x2="-1.9371001"
       y1="-0.72359997"
       x1="-1.9371001">
      <stop
         id="stop3668"
         style="stop-color:#fff"
         offset="0" />
      <stop
         id="stop3670"
         style="stop-color:#fff;stop-opacity:0"
         offset="1" />
    </linearGradient>
  </defs>
  <g
     id="layer1"
     transform="matrix(0.65910551,0,0,0.65910551,0.18680651,-0.00112895)">
    <rect
       id="rect2879"
       style="opacity:0.3;fill:url(#linearGradient3333)"
       height="3.5701001"
       width="32.507999"
       y="42.43"
       x="7.7378001" />
    <path
       id="path2881"
       style="opacity:0.3;fill:url(#radialGradient3330)"
       d="m 7.7378,42.43 v 3.5699 c -1.1865,0.0067 -2.8684,-0.79982 -2.8684,-1.7852 0,-0.98533 1.324,-1.7847 2.8684,-1.7847 z"
       inkscape:connector-curvature="0" />
    <path
       id="path2883"
       style="opacity:0.3;fill:url(#radialGradient3327)"
       d="m 40.246,42.43 v 3.5699 c 1.1865,0.0067 2.8684,-0.79982 2.8684,-1.7852 0,-0.98533 -1.324,-1.7847 -2.8684,-1.7847 z"
       inkscape:connector-curvature="0" />
    <path
       id="path4160"
       style="fill:url(#linearGradient3322);stroke:url(#linearGradient3324);stroke-width:0.99992001;stroke-linejoin:round"
       d="m 6.5,0.4972 h 24.061 c 1.4069,0.47465 8.9655,5.8822 10.939,9.6264 v 34.379 H 6.5 V 0.4966 z"
       inkscape:connector-curvature="0" />
    <path
       id="path4191"
       style="fill:url(#radialGradient3319)"
       d="M 7.3617,44 C 7.1624,44 7,43.82454 7,43.60922 V 1.40522 C 7,1.18951 7.1624,1.01444 7.3617,1.01444 c 7.4833,0.1082 15.775,-0.16138 23.249,0.0271 l 10.283,8.866 0.106,33.702 c 0,0.216 -0.162,0.391 -0.362,0.391 H 7.3617 z"
       inkscape:connector-curvature="0" />
    <path
       id="path2845"
       style="opacity:0.3;fill:url(#radialGradient4086);fill-rule:evenodd"
       d="m 73.25,4.625 a 10.625,3.625 0 1 1 -21.25,0 10.625,3.625 0 1 1 21.25,0 z"
       transform="matrix(1.1294,0,0,1.1034,-47.729,26.897)"
       inkscape:connector-curvature="0" />
    <path
       id="path2435"
       style="opacity:0.6;fill:none;stroke:url(#linearGradient3316);stroke-width:0.99992001;stroke-linejoin:round"
       d="M 40.5,10.259 V 43.522 H 7.5 V 1.477 h 22.866"
       inkscape:connector-curvature="0" />
    <path
       id="path12038"
       style="opacity:0.4;fill-rule:evenodd;filter:url(#filter3212)"
       d="m 28.617,0.92126 c 4.2825,0 2.1532,8.4832 2.1532,8.4832 0,0 10.358,-1.8023 10.358,2.8187 0,-2.6097 -11.302,-10.729 -12.511,-11.302 z"
       inkscape:connector-curvature="0" />
    <path
       id="path4474"
       style="fill:url(#linearGradient3312);fill-rule:evenodd"
       d="m 28.617,0.92126 c 3.1865,0 2.3358,7.6619 2.3358,7.6619 0,0 10.175,-0.98105 10.175,3.64 0,-1.1259 0.08591,-1.9322 -0.13378,-2.2836 -1.578,-2.5243 -8.395,-8.1885 -10.857,-8.9309 -0.184,-0.05556 -0.593,-0.08754 -1.52,-0.08754 z"
       inkscape:connector-curvature="0" />
    <path
       id="path4023"
       style="fill:url(#linearGradient4094);stroke:url(#linearGradient4102);stroke-width:0.99111998"
       d="m 32.049,29.476 c 2.0478,-0.18142 6.2362,-4.0598 6.2362,-5.8758 0,-0.27604 -0.08887,-0.5585 -0.21211,-0.77769 -0.15458,-0.26099 -0.32161,-0.43403 -0.5515,-0.60486 -1.0525,-0.75396 -2.9597,-0.63657 -4.3271,-0.63657 -4.4833,0.93494 -5.4321,8.4794 -1.1454,7.895 z m 0.71879,-5.849 c 0,0 1.7866,0.0059 2.5801,0.0059 0,1.6917 -2.5693,2.4962 -2.5693,2.4962 L 32.76773,23.627 z"
       inkscape:connector-curvature="0" />
    <path
       id="path3674"
       style="fill:url(#radialGradient4111);stroke:url(#linearGradient4113);stroke-linecap:square;stroke-linejoin:round"
       d="m 23,15.51 c -5.5764,0 -10.141,1.6257 -10.479,3.6742 h -0.02083 v 0.24284 2.0694 0.15837 c 0.07516,6.5473 4.7505,11.836 10.5,11.836 5.7493,0 10.425,-5.2884 10.5,-11.836 6.1e-4,-0.05333 0,-0.10488 0,-0.15837 v -2.0694 -0.24284 h -0.02083 c -0.338,-2.05 -4.903,-3.675 -10.479,-3.675 z"
       inkscape:connector-curvature="0" />
    <path
       id="path3678"
       style="fill:url(#linearGradient4067)"
       d="m 35.033,16.366 a 29.2815,14.64125 0 1 1 -58.563,0 29.2815,14.64125 0 1 1 58.563,0 z"
       transform="matrix(0.30629,0,0,0.16999,21.218,16.868)"
       inkscape:connector-curvature="0" />
    <path
       id="path3680"
       style="fill:url(#radialGradient4107)"
       d="m 22.979,18.441 c -4.1545,0 -7.6472,0.78624 -8.6647,1.8506 1.0225,1.0624 4.5154,1.843 8.6647,1.843 4.1484,0 7.6414,-0.78098 8.6647,-1.843 C 30.6256,19.2275 27.1329,18.441 22.979,18.441 z"
       inkscape:connector-curvature="0" />
    <path
       id="path3682"
       style="opacity:0.3;fill:url(#linearGradient4071)"
       d="m 31.357,27.448 c -1.7392,2.4068 -4.7827,4.0015 -8.2499,4.0015 -3.4603,0 -6.4986,-1.5921 -8.2395,-3.991 1.3394,3.1705 4.524,5.4058 8.2395,5.4058 3.7204,0 6.9136,-2.2392 8.2499,-5.4163 z"
       inkscape:connector-curvature="0" />
    <path
       id="path3684"
       style="opacity:0.6;fill:none;stroke:url(#linearGradient4073);stroke-width:3.93149996;stroke-linecap:square;stroke-linejoin:round"
       d="m 35.033,16.366 a 29.2815,14.64125 0 1 1 -58.563,0 29.2815,14.64125 0 1 1 58.563,0 z"
       transform="matrix(0.32448,0,0,0.2091,21.134,16.248)"
       inkscape:connector-curvature="0" />
  </g>
</svg>
