<?xml version="1.0" encoding="UTF-8" standalone="no"?>
<!-- Created with Inkscape (http://www.inkscape.org/) -->

<svg
   xmlns:dc="http://purl.org/dc/elements/1.1/"
   xmlns:cc="http://creativecommons.org/ns#"
   xmlns:rdf="http://www.w3.org/1999/02/22-rdf-syntax-ns#"
   xmlns:svg="http://www.w3.org/2000/svg"
   xmlns="http://www.w3.org/2000/svg"
   xmlns:xlink="http://www.w3.org/1999/xlink"
   xmlns:sodipodi="http://sodipodi.sourceforge.net/DTD/sodipodi-0.dtd"
   xmlns:inkscape="http://www.inkscape.org/namespaces/inkscape"
   id="svg2521"
   height="32"
   width="32"
   version="1.0"
   inkscape:version="0.48.1 r9760"
   sodipodi:docname="text-x-ruby.svg">
  <metadata
     id="metadata93">
    <rdf:RDF>
      <cc:Work
         rdf:about="">
        <dc:format>image/svg+xml</dc:format>
        <dc:type
           rdf:resource="http://purl.org/dc/dcmitype/StillImage" />
      </cc:Work>
    </rdf:RDF>
  </metadata>
  <sodipodi:namedview
     pagecolor="#ffffff"
     bordercolor="#666666"
     borderopacity="1"
     objecttolerance="10"
     gridtolerance="10"
     guidetolerance="10"
     inkscape:pageopacity="0"
     inkscape:pageshadow="2"
     inkscape:window-width="1366"
     inkscape:window-height="688"
     id="namedview91"
     showgrid="false"
     inkscape:zoom="104"
     inkscape:cx="10.084131"
     inkscape:cy="31.975048"
     inkscape:window-x="0"
     inkscape:window-y="25"
     inkscape:window-maximized="1"
     inkscape:current-layer="svg2521" />
  <defs
     id="defs2523">
    <linearGradient
       id="linearGradient2647"
       y2="609.51001"
       gradientUnits="userSpaceOnUse"
       x2="302.85999"
       gradientTransform="matrix(0.067325,0,0,0.0147,-0.34114,37.04)"
       y1="366.64999"
       x1="302.85999">
      <stop
         id="stop5050"
         style="stop-opacity:0"
         offset="0" />
      <stop
         id="stop5056"
         offset=".5" />
      <stop
         id="stop5052"
         style="stop-opacity:0"
         offset="1" />
    </linearGradient>
    <radialGradient
       id="radialGradient2644"
       xlink:href="#linearGradient5060"
       gradientUnits="userSpaceOnUse"
       cy="486.64999"
       cx="605.71002"
       gradientTransform="matrix(-0.02304,0,0,0.0147,21.623,37.04)"
       r="117.14" />
    <linearGradient
       id="linearGradient5060">
      <stop
         id="stop5062"
         offset="0" />
      <stop
         id="stop5064"
         style="stop-opacity:0"
         offset="1" />
    </linearGradient>
    <radialGradient
       id="radialGradient2641"
       xlink:href="#linearGradient5060"
       gradientUnits="userSpaceOnUse"
       cy="486.64999"
       cx="605.71002"
       gradientTransform="matrix(0.02304,0,0,0.0147,26.361,37.04)"
       r="117.14" />
    <linearGradient
       id="linearGradient2638"
       y2="2.9061999"
       xlink:href="#linearGradient3104"
       gradientUnits="userSpaceOnUse"
       x2="-51.785999"
       gradientTransform="matrix(0.8075,0,0,0.89483,59.41,-2.9806)"
       y1="50.785999"
       x1="-51.785999" />
    <linearGradient
       id="linearGradient2636"
       y2="47.013"
       gradientUnits="userSpaceOnUse"
       x2="25.132"
       gradientTransform="matrix(1,0,0,0.95617,-1.0065e-7,-1.9149)"
       y1="0.98521"
       x1="25.132">
      <stop
         id="stop3602"
         style="stop-color:#f4f4f4"
         offset="0" />
      <stop
         id="stop3604"
         style="stop-color:#dbdbdb"
         offset="1" />
    </linearGradient>
    <radialGradient
       id="radialGradient2633"
       gradientUnits="userSpaceOnUse"
       cy="112.3"
       cx="102"
       gradientTransform="matrix(0.3617,0,0,-0.39078,0.85106,47.517)"
       r="139.56">
      <stop
         id="stop41"
         style="stop-color:#b7b8b9"
         offset="0" />
      <stop
         id="stop47"
         style="stop-color:#ececec"
         offset=".18851" />
      <stop
         id="stop49"
         style="stop-color:#fafafa;stop-opacity:0"
         offset=".25718" />
      <stop
         id="stop51"
         style="stop-color:#fff;stop-opacity:0"
         offset=".30111" />
      <stop
         id="stop53"
         style="stop-color:#fafafa;stop-opacity:0"
         offset=".53130" />
      <stop
         id="stop55"
         style="stop-color:#ebecec;stop-opacity:0"
         offset=".84490" />
      <stop
         id="stop57"
         style="stop-color:#e1e2e3;stop-opacity:0"
         offset="1" />
    </radialGradient>
    <linearGradient
       id="linearGradient2630"
       y2="46.016998"
       gradientUnits="userSpaceOnUse"
       x2="24"
       gradientTransform="matrix(1,0,0,0.97778,0,-0.96667)"
       y1="2"
       x1="24">
      <stop
         id="stop3213"
         style="stop-color:#fff"
         offset="0" />
      <stop
         id="stop3215"
         style="stop-color:#fff;stop-opacity:0"
         offset="1" />
    </linearGradient>
    <linearGradient
       id="linearGradient3104">
      <stop
         id="stop3106"
         style="stop-color:#aaa"
         offset="0" />
      <stop
         id="stop3108"
         style="stop-color:#c8c8c8"
         offset="1" />
    </linearGradient>
    <linearGradient
       id="linearGradient2627"
       y2="-0.027396999"
       xlink:href="#linearGradient3104"
       gradientUnits="userSpaceOnUse"
       x2="17.424999"
       y1="44.873001"
       x1="17.424999" />
    <radialGradient
       id="radialGradient2624"
       gradientUnits="userSpaceOnUse"
       cy="63.965"
       cx="15.116"
       gradientTransform="matrix(1.1583,0,0,0.53281,7.0469,-3.6289)"
       r="12.289">
      <stop
         id="stop4116"
         offset="0" />
      <stop
         id="stop4118"
         style="stop-opacity:0"
         offset="1" />
    </radialGradient>
    <linearGradient
       id="linearGradient2621"
       y2="33"
       gradientUnits="userSpaceOnUse"
       x2="35"
       gradientTransform="matrix(0.99963,0.02703,-0.02703,0.99963,0.44178,0.5259)"
       y1="26.33"
       x1="27.041">
      <stop
         id="stop5857"
         style="stop-color:#d63233"
         offset="0" />
      <stop
         id="stop5859"
         style="stop-color:#fd9283"
         offset="1" />
    </linearGradient>
    <linearGradient
       id="linearGradient2617"
       y2="34.206001"
       gradientUnits="userSpaceOnUse"
       x2="99.669998"
       gradientTransform="matrix(0.89539,0.82894,-0.85997,0.93268,-33.467,-84.904)"
       y1="34.202"
       x1="96.714996">
      <stop
         id="stop5377"
         style="stop-color:#9c3f2f"
         offset="0" />
      <stop
         id="stop5379"
         style="stop-color:#9a3422;stop-opacity:0"
         offset="1" />
    </linearGradient>
    <radialGradient
       id="radialGradient2615"
       gradientUnits="userSpaceOnUse"
       cy="31.684999"
       cx="93.541"
       gradientTransform="matrix(0.79944,0.72899,-1.3799,1.5182,-8.0188,-94.108)"
       r="6.8495998">
      <stop
         id="stop5371"
         style="stop-color:#d44228"
         offset="0" />
      <stop
         id="stop5373"
         style="stop-color:#bc3c31"
         offset="1" />
    </radialGradient>
    <linearGradient
       id="linearGradient2612"
       y2="35.208"
       gradientUnits="userSpaceOnUse"
       x2="83.625"
       gradientTransform="matrix(1.087,-0.012479,0.012479,1.087,-76.925,-10.137)"
       y1="38.323002"
       x1="83.625">
      <stop
         id="stop4805"
         style="stop-color:#f33838"
         offset="0" />
      <stop
         id="stop4807"
         style="stop-color:#fff"
         offset="1" />
    </linearGradient>
    <linearGradient
       id="linearGradient2609"
       y2="30.257999"
       gradientUnits="userSpaceOnUse"
       x2="92.030998"
       gradientTransform="matrix(1.087,-0.012479,0.012479,1.087,-76.925,-10.137)"
       y1="33.755001"
       x1="92.25">
      <stop
         id="stop4811"
         style="stop-color:#f33838"
         offset="0" />
      <stop
         id="stop4813"
         style="stop-color:#fff"
         offset="1" />
    </linearGradient>
    <linearGradient
       id="linearGradient2606"
       y2="24.438"
       gradientUnits="userSpaceOnUse"
       x2="94.155998"
       gradientTransform="matrix(1.087,-0.012479,0.012479,1.087,-76.925,-10.137)"
       y1="27.188"
       x1="97.280998">
      <stop
         id="stop4817"
         style="stop-color:#f33838"
         offset="0" />
      <stop
         id="stop4819"
         style="stop-color:#fff"
         offset="1" />
    </linearGradient>
    <linearGradient
       id="linearGradient2603"
       y2="-18.141001"
       gradientUnits="userSpaceOnUse"
       x2="90.218002"
       gradientTransform="matrix(1.087,-0.012479,0.012479,1.087,-72.078,33.291)"
       y1="-19.534"
       x1="95.630997">
      <stop
         id="stop4781"
         style="stop-color:#f33838"
         offset="0" />
      <stop
         id="stop4783"
         style="stop-color:#fff"
         offset="1" />
    </linearGradient>
    <linearGradient
       id="linearGradient2600"
       y2="-20.792999"
       gradientUnits="userSpaceOnUse"
       x2="92.603996"
       gradientTransform="matrix(1.087,-0.012479,0.012479,1.087,-87.39,48.89)"
       y1="-15.592"
       x1="91.251999">
      <stop
         id="stop4829"
         style="stop-color:#f33838"
         offset="0" />
      <stop
         id="stop4831"
         style="stop-color:#fff"
         offset="1" />
    </linearGradient>
    <linearGradient
       id="linearGradient2597"
       y2="26.961"
       gradientUnits="userSpaceOnUse"
       x2="88.839996"
       gradientTransform="matrix(0.55151,0.49662,-0.5368,0.56645,-14.55,-44.694)"
       y1="41.634998"
       x1="93.695999">
      <stop
         id="stop4823"
         style="stop-color:#ab3227"
         offset="0" />
      <stop
         id="stop4825"
         style="stop-color:#d54329"
         offset="1" />
    </linearGradient>
    <linearGradient
       id="linearGradient2594"
       y2="35.662998"
       gradientUnits="userSpaceOnUse"
       x2="105.1"
       gradientTransform="matrix(0.829,0.75236,-0.8039,0.85483,-28.918,-75.233)"
       y1="20.597"
       x1="91.248001">
      <stop
         id="stop5144"
         style="stop-color:#fbb6b6"
         offset="0" />
      <stop
         id="stop5146"
         style="stop-color:#fbb6b6;stop-opacity:0"
         offset="1" />
    </linearGradient>
    <filter
       id="filter3212"
       y="-0.16434"
       x="-0.14846"
       height="1.3286999"
       width="1.2969"
       color-interpolation-filters="sRGB">
      <feGaussianBlur
         id="feGaussianBlur3214"
         stdDeviation="0.77391625" />
    </filter>
    <linearGradient
       id="linearGradient2590"
       y2="5.4565001"
       gradientUnits="userSpaceOnUse"
       x2="36.358002"
       gradientTransform="matrix(0.9977,0,0,1.0407,0.1638,-1.1058)"
       y1="8.059"
       x1="32.891998">
      <stop
         id="stop8591"
         style="stop-color:#fefefe"
         offset="0" />
      <stop
         id="stop8593"
         style="stop-color:#cbcbcb"
         offset="1" />
    </linearGradient>
  </defs>
  <g
     id="layer1"
     transform="matrix(0.65912401,0,0,0.65912401,0.18613197,-0.00511676)">
    <rect
       id="rect2879"
       style="opacity:0.3;fill:url(#linearGradient2647)"
       height="3.5701001"
       width="32.507999"
       y="42.43"
       x="7.7378001" />
    <path
       id="path2881"
       style="opacity:0.3;fill:url(#radialGradient2644)"
       d="M 7.7378,42.43 V 46 c -1.1865,0.007 -2.8683,-0.8 -2.8683,-1.785 0,-0.986 1.324,-1.785 2.8683,-1.785 z"
       inkscape:connector-curvature="0" />
    <path
       id="path2883"
       style="opacity:0.3;fill:url(#radialGradient2641)"
       d="M 40.246,42.43 V 46 c 1.187,0.007 2.869,-0.8 2.869,-1.785 0,-0.986 -1.325,-1.785 -2.869,-1.785 z"
       inkscape:connector-curvature="0" />
    <path
       id="path4160"
       style="fill:url(#linearGradient2636);stroke:url(#linearGradient2638);stroke-width:0.99992001;stroke-linejoin:round"
       d="M 6.5,0.4972 H 30.561 C 31.968,0.97185 39.526,6.3794 41.5,10.124 V 44.503 H 6.5 V 0.497 z"
       inkscape:connector-curvature="0" />
    <path
       id="path4191"
       style="fill:url(#radialGradient2633)"
       d="M 7.3617,44 C 7.1624,44 7,43.825 7,43.609 V 1.405 C 7,1.1895 7.1624,1.0144 7.3617,1.0144 c 7.4833,0.108 15.775,-0.16158 23.249,0.0269 l 10.283,8.866 0.106,33.702 c 0,0.216 -0.162,0.391 -0.362,0.391 H 7.3617 z"
       inkscape:connector-curvature="0" />
    <path
       id="path2435"
       style="opacity:0.6;fill:none;stroke:url(#linearGradient2630);stroke-width:0.99992001;stroke-linejoin:round"
       d="M 40.5,10.259 V 43.522 H 7.5 V 1.478 c 7.562,-3e-4 15.304,-3e-4 22.866,-3e-4"
       inkscape:connector-curvature="0" />
    <path
       id="path4149"
       style="fill:url(#linearGradient2627)"
       d="m 11,6 v 1 h 2.375 V 6 H 11 z m 2.688,0 v 1 h 2.25 V 6 h -2.25 z m 2.562,0 v 1 h 1.969 V 6 H 16.25 z m 2.281,0 v 1 h 0.875 V 6 h -0.875 z m 1.188,0 v 1 h 1.937 V 6 H 19.719 z M 22,6 v 1 h 5 V 6 H 22 z M 11,8 v 1 h 3.781 V 8 H 11 z m 4.156,0 v 1 h 1.813 V 8 h -1.813 z m 2.156,0 v 1 h 0.844 V 8 h -0.844 z m 1.219,0 v 1 h 1.625 V 8 h -1.625 z m 2,0 v 1 h 1.625 V 8 H 20.531 z M 22.5,8 v 1 h 2.656 V 8 H 22.5 z m 3.031,0 V 9 H 29 V 8 H 25.531 z M 11,10 v 1 h 4.188 V 10 H 11 z m 4.5,0 v 1 H 20 V 10 H 15.5 z M 11,12 v 1 h 2.312 V 12 H 11 z m 2.625,0 v 1 h 2.156 v -1 h -2.156 z m 2.469,0 v 1 H 18 v -1 h -1.906 z m 3.844,25 v 1 h 2.437 v -1 h -2.437 z m 2.75,0 v 1 h 2.25 v -1 h -2.25 z m 2.593,0 v 1 h 1.938 v -1 h -1.938 z m 2.25,0 v 1 h 3.094 v -1 h -3.094 z m 3.438,0 v 1 H 36 V 37 H 30.969 z M 11,15 v 1 h 3.062 V 15 H 11 z m 0,2 v 1 h 3.094 V 17 H 11 z m 4.625,16 v 1 h 4.594 v -1 h -4.594 z m 4.937,0 v 1 h 1.813 v -1 h -1.813 z m 2.157,0 v 1 h 4.312 v -1 h -4.312 z m 4.656,0 v 1 h 2.969 v -1 h -2.969 z m 3.281,0 v 1 h 1.156 v -1 h -1.156 z m 1.5,0 v 1 h 0.688 v -1 h -0.688 z m 1,0 v 1 H 35 v -1 h -1.844 z m -16.031,2 v 1 h 0.813 v -1 h -0.813 z m 1.031,0 v 1 h 1.625 v -1 h -1.625 z m 1.875,0 v 1 h 1.625 v -1 h -1.625 z m 2.125,0 v 1 h 2.594 v -1 h -2.594 z m 2.906,0 v 1 h 3.376 v -1 h -3.376 z m 3.844,0 v 1 h 2.282 v -1 h -2.282 z m 2.563,0 v 1 H 32 V 35 H 31.469 z M 11,37 h 3.037 v 1 H 11 v -1 z m 0,-15 v 1 h 1 v -1 h -1 z m 0,11 v 1 h 4.281 V 33 H 11 z m 0,2 v 1 h 3.688 V 35 H 11 z m 3.969,0 v 1 h 1.781 v -1 h -1.781 z m -0.625,2 v 1 h 3.344 V 37 H 14.344 z M 11,20 v 1 h 2.344 V 20 H 11 z m 0,4 v 1 h 2.75 V 24 H 11 z m 0,2 v 1 h 2.938 V 26 H 11 z m 0,2 v 1 h 2.531 V 28 H 11 z m 0,2.156 v 0.969 h 2.219 V 30.156 H 11 z"
       inkscape:connector-curvature="0" />
    <path
       id="path4112"
       style="opacity:0.42918001;fill:url(#radialGradient2624)"
       d="m 38.789,30.452 c 10e-4,3.617 -6.372,6.549 -14.234,6.549 -7.863,0 -14.236,-2.932 -14.234,-6.549 -0.002,-3.616 6.371,-6.549 14.234,-6.549 7.862,0 14.235,2.933 14.234,6.549 z"
       inkscape:connector-curvature="0" />
    <path
       id="path16493"
       style="fill:url(#linearGradient2621);fill-rule:evenodd;stroke:#9c3f2f;stroke-width:1px;stroke-linejoin:round"
       d="M 34.653,16.071 34.537,34.46 16.194,34.5 34.653,16.071 z"
       inkscape:connector-curvature="0" />
    <path
       id="path16495"
       style="fill:#af3a28;fill-rule:evenodd"
       d="m 34.537,34.46 -2.531,-11.332 -4.673,6.258 7.204,5.074 z m 0,0 -11.527,-2.552 -3.468,2.146 14.995,0.406 z"
       inkscape:connector-curvature="0" />
    <path
       id="path16499"
       style="fill:url(#radialGradient2615);stroke:url(#linearGradient2617);stroke-width:0.96153003;stroke-linecap:round;stroke-linejoin:round"
       d="m 28.828,27.545 c -5.524,5.99 -12.591,8.45 -15.789,5.497 -3.1975,-2.953 -1.317,-10.203 4.202,-16.198 5.518,-5.995 12.588,-8.4666 15.795,-5.523 3.207,2.944 1.337,10.19 -4.176,16.189"
       inkscape:connector-curvature="0" />
    <path
       id="path16503"
       style="opacity:0.80257999;fill:url(#linearGradient2612);fill-rule:evenodd"
       d="m 16.052,33.842 3.087,-9.208 -5.975,0.341 2.888,8.867 z"
       inkscape:connector-curvature="0" />
    <path
       id="path16505"
       style="opacity:0.80257999;fill:url(#linearGradient2609);fill-rule:evenodd"
       d="m 27.938,27.591 -2.899,-9.887 -5.9,6.93 8.799,2.957 z"
       inkscape:connector-curvature="0" />
    <path
       id="path16507"
       style="opacity:0.80257999;fill:url(#linearGradient2606);fill-rule:evenodd"
       d="m 25.187,12.811 8.14,4.798 -8.356,0.096 0.216,-4.894 z"
       inkscape:connector-curvature="0" />
    <path
       id="path16509"
       style="opacity:0.80257999;fill:url(#linearGradient2603);fill-rule:evenodd"
       d="m 30.257,10.93 -3.616,3.02 -2.998,-1.671 6.614,-1.349 z"
       inkscape:connector-curvature="0" />
    <path
       id="path16511"
       style="opacity:0.80257999;fill:url(#linearGradient2600);fill-rule:evenodd"
       d="m 13.848,26.754 -2.52,2.899 1.429,-5.945 1.091,3.046 z"
       inkscape:connector-curvature="0" />
    <path
       id="path16513"
       style="fill:url(#linearGradient2597);stroke:#e3b9be;stroke-linecap:round;stroke-linejoin:round"
       d="m 22.887,22.28 c -3.448,3.639 -7.521,5.439 -9.101,4.022 -1.58,-1.417 -0.068,-5.514 3.377,-9.155 3.445,-3.64 7.521,-5.447 9.106,-4.036 1.585,1.411 0.08,5.506 -3.363,9.148"
       inkscape:connector-curvature="0" />
    <path
       id="path3614"
       style="opacity:0.4;fill:none;stroke:url(#linearGradient2594);stroke-width:0.96153003;stroke-linecap:round;stroke-linejoin:round"
       d="m 28.514,27.092 c -5.164,5.49 -11.747,7.766 -14.707,5.086 -2.961,-2.681 -1.18,-9.304 3.979,-14.798 5.159,-5.494 11.744,-7.7815 14.713,-5.11 2.969,2.672 1.199,9.292 -3.955,14.79"
       inkscape:connector-curvature="0" />
    <path
       id="path12038"
       style="opacity:0.4;fill-rule:evenodd;filter:url(#filter3212)"
       d="m 28.617,0.92126 c 4.283,0 2.154,8.4831 2.154,8.4831 0,0 10.357,-1.8023 10.357,2.8186 0,-2.6095 -11.302,-10.728 -12.511,-11.302 z"
       inkscape:connector-curvature="0" />
    <path
       id="path4474"
       style="fill:url(#linearGradient2590);fill-rule:evenodd"
       d="m 28.617,0.92126 c 3.187,0 2.336,7.6618 2.336,7.6618 0,0 10.175,-0.981 10.175,3.6399 0,-1.126 0.086,-1.932 -0.134,-2.2834 C 39.416,7.41536 32.599,1.75116 30.137,1.00876 29.953,0.9532 29.544,0.92122 28.617,0.92122 z"
       inkscape:connector-curvature="0" />
  </g>
</svg>
