<?xml version="1.0" encoding="UTF-8" standalone="no"?>
<!-- Created with Inkscape (http://www.inkscape.org/) -->

<svg
   xmlns:dc="http://purl.org/dc/elements/1.1/"
   xmlns:cc="http://creativecommons.org/ns#"
   xmlns:rdf="http://www.w3.org/1999/02/22-rdf-syntax-ns#"
   xmlns:svg="http://www.w3.org/2000/svg"
   xmlns="http://www.w3.org/2000/svg"
   xmlns:xlink="http://www.w3.org/1999/xlink"
   xmlns:sodipodi="http://sodipodi.sourceforge.net/DTD/sodipodi-0.dtd"
   xmlns:inkscape="http://www.inkscape.org/namespaces/inkscape"
   id="svg36265"
   height="32"
   width="32"
   version="1.0"
   inkscape:version="0.48.1 r9760"
   sodipodi:docname="text-x-generic-template.svg">
  <metadata
     id="metadata142">
    <rdf:RDF>
      <cc:Work
         rdf:about="">
        <dc:format>image/svg+xml</dc:format>
        <dc:type
           rdf:resource="http://purl.org/dc/dcmitype/StillImage" />
      </cc:Work>
    </rdf:RDF>
  </metadata>
  <sodipodi:namedview
     pagecolor="#ffffff"
     bordercolor="#666666"
     borderopacity="1"
     objecttolerance="10"
     gridtolerance="10"
     guidetolerance="10"
     inkscape:pageopacity="0"
     inkscape:pageshadow="2"
     inkscape:window-width="1366"
     inkscape:window-height="688"
     id="namedview140"
     showgrid="false"
     inkscape:zoom="11.313709"
     inkscape:cx="-5.1607585"
     inkscape:cy="21.433464"
     inkscape:window-x="0"
     inkscape:window-y="25"
     inkscape:window-maximized="1"
     inkscape:current-layer="svg36265" />
  <defs
     id="defs36267">
    <linearGradient
       id="linearGradient2611"
       y2="609.51001"
       gradientUnits="userSpaceOnUse"
       x2="302.85999"
       gradientTransform="matrix(0.067325,0,0,0.0147,-0.34114,37.04)"
       y1="366.64999"
       x1="302.85999">
      <stop
         id="stop5050"
         style="stop-opacity:0"
         offset="0" />
      <stop
         id="stop5056"
         offset=".5" />
      <stop
         id="stop5052"
         style="stop-opacity:0"
         offset="1" />
    </linearGradient>
    <radialGradient
       id="radialGradient2608"
       xlink:href="#linearGradient5060"
       gradientUnits="userSpaceOnUse"
       cy="486.64999"
       cx="605.71002"
       gradientTransform="matrix(-0.02304,0,0,0.0147,21.623,37.04)"
       r="117.14" />
    <linearGradient
       id="linearGradient5060">
      <stop
         id="stop5062"
         offset="0" />
      <stop
         id="stop5064"
         style="stop-opacity:0"
         offset="1" />
    </linearGradient>
    <radialGradient
       id="radialGradient2605"
       xlink:href="#linearGradient5060"
       gradientUnits="userSpaceOnUse"
       cy="486.64999"
       cx="605.71002"
       gradientTransform="matrix(0.02304,0,0,0.0147,26.361,37.04)"
       r="117.14" />
    <linearGradient
       id="linearGradient2602"
       y2="2.9061999"
       gradientUnits="userSpaceOnUse"
       x2="-51.785999"
       gradientTransform="matrix(0.8075,0,0,0.89483,59.41,-2.9806)"
       y1="53.624001"
       x1="-51.785999">
      <stop
         id="stop2492"
         style="stop-color:#2e4a5a"
         offset="0" />
      <stop
         id="stop2494"
         style="stop-color:#6e8796"
         offset="1" />
    </linearGradient>
    <radialGradient
       id="radialGradient2600"
       gradientUnits="userSpaceOnUse"
       cy="10.898"
       cx="14.766"
       gradientTransform="matrix(-2.2703e-8,2.1357,-3.5601,-3.7845e-8,54.621,-24.438)"
       r="18">
      <stop
         id="stop3995"
         style="stop-color:#a3c0d0"
         offset="0" />
      <stop
         id="stop4001"
         style="stop-color:#427da1"
         offset="1" />
    </radialGradient>
    <radialGradient
       id="radialGradient2597"
       gradientUnits="userSpaceOnUse"
       cy="112.3"
       cx="102"
       gradientTransform="matrix(0.3617,0,0,-0.39078,0.85106,47.517)"
       r="139.56">
      <stop
         id="stop41"
         offset="0" />
      <stop
         id="stop47"
         offset=".18851" />
      <stop
         id="stop49"
         style="stop-opacity:0"
         offset=".25718" />
      <stop
         id="stop51"
         style="stop-opacity:0"
         offset="1" />
    </radialGradient>
    <linearGradient
       id="linearGradient2594"
       y2="46.016998"
       gradientUnits="userSpaceOnUse"
       x2="24"
       gradientTransform="matrix(1,0,0,0.97778,0,-0.96667)"
       y1="2"
       x1="24">
      <stop
         id="stop3213"
         style="stop-color:#fff"
         offset="0" />
      <stop
         id="stop3215"
         style="stop-color:#fff;stop-opacity:0"
         offset="1" />
    </linearGradient>
    <linearGradient
       id="linearGradient2591"
       y2="6.5436001"
       gradientUnits="userSpaceOnUse"
       x2="34.103001"
       y1="4.8576999"
       x1="35.516998">
      <stop
         id="stop4269"
         style="stop-color:#c4c4c4"
         offset="0" />
      <stop
         id="stop4271"
         style="stop-color:#c4c4c4;stop-opacity:0"
         offset="1" />
    </linearGradient>
    <filter
       id="filter3212"
       height="1.3286999"
       width="1.2969"
       color-interpolation-filters="sRGB"
       y="-0.16434"
       x="-0.14846">
      <feGaussianBlur
         id="feGaussianBlur3214"
         stdDeviation="0.77391625" />
    </filter>
    <linearGradient
       id="linearGradient2581"
       y2="5.4565001"
       gradientUnits="userSpaceOnUse"
       x2="36.358002"
       gradientTransform="matrix(0.9977,0,0,1.0407,0.1638,-1.1058)"
       y1="8.059"
       x1="32.891998">
      <stop
         id="stop8591"
         style="stop-color:#fefefe"
         offset="0" />
      <stop
         id="stop8593"
         style="stop-color:#cbcbcb"
         offset="1" />
    </linearGradient>
  </defs>
  <g
     id="layer1"
     transform="matrix(0.65910551,0,0,0.65910551,0.18680651,0.00269507)">
    <rect
       id="rect2879"
       style="opacity:0.3;fill:url(#linearGradient2611)"
       height="3.5701001"
       width="32.507999"
       y="42.43"
       x="7.7378001" />
    <path
       id="path2881"
       style="opacity:0.3;fill:url(#radialGradient2608)"
       d="m 7.7378,42.43 v 3.5699 c -1.1865,0.0067 -2.8684,-0.79982 -2.8684,-1.7852 0,-0.98533 1.324,-1.7847 2.8684,-1.7847 z"
       inkscape:connector-curvature="0" />
    <path
       id="path2883"
       style="opacity:0.3;fill:url(#radialGradient2605)"
       d="m 40.246,42.43 v 3.5699 c 1.1865,0.0067 2.8684,-0.79982 2.8684,-1.7852 0,-0.98533 -1.324,-1.7847 -2.8684,-1.7847 z"
       inkscape:connector-curvature="0" />
    <path
       id="path4160"
       style="fill:url(#radialGradient2600);stroke:url(#linearGradient2602);stroke-width:0.99992001;stroke-linejoin:round"
       d="m 6.5,0.4972 h 24.061 c 0.52523,1.9602 6.1331,6.8516 10.939,9.6264 v 34.379 H 6.5 V 0.4966 z"
       inkscape:connector-curvature="0" />
    <path
       id="path4191"
       style="opacity:0.05;fill:url(#radialGradient2597)"
       d="M 7.3617,44 C 7.1624,44 7,43.82454 7,43.60922 V 1.40522 C 7,1.18951 7.1624,1.01444 7.3617,1.01444 c 7.4833,0.1082 15.775,-0.16138 23.249,0.0271 l 10.283,8.866 0.106,33.702 c 0,0.216 -0.162,0.391 -0.362,0.391 H 7.3617 z"
       inkscape:connector-curvature="0" />
    <path
       id="path2435"
       style="opacity:0.4;fill:none;stroke:url(#linearGradient2594)"
       d="M 40.5,10.259 V 43.522 H 7.5 V 1.477 h 22.866"
       inkscape:connector-curvature="0" />
    <path
       id="path4238"
       style="fill:none;stroke:url(#linearGradient2591);stroke-width:0.99992001;stroke-linejoin:round"
       d="m 30.561,0.5 c 1.4069,0.47465 8.9655,5.8794 10.939,9.6236 v 12.285 C 1.054,38.1376 6.264,0.4996 30.561,0.4996 z"
       inkscape:connector-curvature="0" />
    <path
       id="path3318"
       style="opacity:0.15;fill:none;stroke:#ffffff;stroke-width:0.963;stroke-linecap:square;stroke-linejoin:round"
       d="M 33.518,6.5185 8.481,6.4815"
       inkscape:connector-curvature="0" />
    <path
       id="path3332"
       style="opacity:0.15;fill:none;stroke:#ffffff;stroke-width:0.963;stroke-linecap:square;stroke-linejoin:round"
       d="m 11.518,2.4815 -0.036,41.036"
       inkscape:connector-curvature="0" />
    <path
       id="path3344"
       style="opacity:0.15;fill:#ffffff;fill-rule:evenodd;stroke:#ffffff;stroke-width:0.963;stroke-linecap:square;stroke-linejoin:round"
       d="M 36.482,43.518 36.518,6.914"
       inkscape:connector-curvature="0" />
    <path
       id="path2512"
       style="opacity:0.15;fill:none;stroke:#ffffff;stroke-width:0.963;stroke-linecap:square;stroke-linejoin:round"
       d="m 16.518,2.4815 -0.036,41.036"
       inkscape:connector-curvature="0" />
    <path
       id="path2514"
       style="opacity:0.15;fill:none;stroke:#ffffff;stroke-width:0.963;stroke-linecap:square;stroke-linejoin:round"
       d="m 21.518,2.4815 -0.036,41.036"
       inkscape:connector-curvature="0" />
    <path
       id="path2516"
       style="opacity:0.15;fill:none;stroke:#ffffff;stroke-width:0.963;stroke-linecap:square;stroke-linejoin:round"
       d="m 26.518,2.4815 -0.036,41.036"
       inkscape:connector-curvature="0" />
    <path
       id="path2518"
       style="opacity:0.15;fill:#ffffff;fill-rule:evenodd;stroke:#ffffff;stroke-width:0.963;stroke-linecap:square;stroke-linejoin:round"
       d="m 31.518,2.4815 -0.036,41.036"
       inkscape:connector-curvature="0" />
    <path
       id="path3290"
       style="opacity:0.15;fill:none;stroke:#ffffff;stroke-width:0.963;stroke-linecap:square;stroke-linejoin:round"
       d="M 39.519,11.518 8.481,11.482"
       inkscape:connector-curvature="0" />
    <path
       id="path3292"
       style="opacity:0.15;fill:none;stroke:#ffffff;stroke-width:0.963;stroke-linecap:square;stroke-linejoin:round"
       d="M 39.519,16.518 8.481,16.482"
       inkscape:connector-curvature="0" />
    <path
       id="path3294"
       style="opacity:0.15;fill:none;stroke:#ffffff;stroke-width:0.963;stroke-linecap:square;stroke-linejoin:round"
       d="M 39.519,21.518 8.481,21.482"
       inkscape:connector-curvature="0" />
    <path
       id="path3296"
       style="opacity:0.15;fill:none;stroke:#ffffff;stroke-width:0.963;stroke-linecap:square;stroke-linejoin:round"
       d="M 39.519,26.518 8.481,26.482"
       inkscape:connector-curvature="0" />
    <path
       id="path3298"
       style="opacity:0.15;fill:none;stroke:#ffffff;stroke-width:0.963;stroke-linecap:square;stroke-linejoin:round"
       d="M 39.519,31.518 8.481,31.482"
       inkscape:connector-curvature="0" />
    <path
       id="path3300"
       style="opacity:0.15;fill:none;stroke:#ffffff;stroke-width:0.963;stroke-linecap:square;stroke-linejoin:round"
       d="M 39.519,36.518 8.481,36.482"
       inkscape:connector-curvature="0" />
    <path
       id="path3302"
       style="opacity:0.15;fill:none;stroke:#ffffff;stroke-width:0.963;stroke-linecap:square;stroke-linejoin:round"
       d="M 39.519,41.518 8.481,41.482"
       inkscape:connector-curvature="0" />
    <path
       id="path3554"
       style="opacity:0.5;fill:none;stroke:#ffffff;stroke-width:0.963;stroke-linecap:square;stroke-linejoin:round"
       d="M 23.518,6.5185 10.481,6.4815"
       inkscape:connector-curvature="0" />
    <path
       id="path3556"
       style="opacity:0.5;fill:none;stroke:#ffffff;stroke-width:0.963;stroke-linecap:square;stroke-linejoin:round"
       d="m 11.518,4.4815 -0.036,19.038"
       inkscape:connector-curvature="0" />
    <path
       id="path3342"
       style="opacity:0.5;fill:none;stroke:#ffffff;stroke-width:0.963;stroke-linecap:square;stroke-linejoin:round"
       d="m 20.482,41.482 17.037,0.037"
       inkscape:connector-curvature="0" />
    <path
       id="path3559"
       style="opacity:0.5;fill:none;stroke:#ffffff;stroke-width:0.963;stroke-linecap:square;stroke-linejoin:round"
       d="M 36.482,43.518 36.519,28.481"
       inkscape:connector-curvature="0" />
    <path
       id="path12038"
       style="opacity:0.4;fill-rule:evenodd;filter:url(#filter3212)"
       d="m 28.617,0.92126 c 4.2825,0 2.1532,8.4832 2.1532,8.4832 0,0 10.358,-1.8023 10.358,2.8187 0,-2.6097 -11.302,-10.729 -12.511,-11.302 z"
       inkscape:connector-curvature="0" />
    <path
       id="path4474"
       style="fill:url(#linearGradient2581);fill-rule:evenodd"
       d="m 28.617,0.92126 c 3.1865,0 2.3358,7.6619 2.3358,7.6619 0,0 10.175,-0.98105 10.175,3.64 0,-1.1259 0.08591,-1.9322 -0.13378,-2.2836 -1.578,-2.5243 -8.113,-8.1885 -10.575,-8.9309 -0.184,-0.05556 -0.875,-0.08754 -1.802,-0.08754 z"
       inkscape:connector-curvature="0" />
    <path
       id="text34519"
       style="opacity:0.6;fill:#ffffff"
       d="m 15.418,14.488 c -0.98418,0.65581 -0.86785,2.3784 0.20559,2.8882 2.4466,0.88963 4.0334,-0.37309 4.6118,-2.7161 0.01594,-0.34528 0.14576,-0.85277 -0.36691,-0.69437 -1.5357,-0.0742 -2.999,0.03158 -4.4505,0.52223 z m 6.5819,-1.1685 c 1e-6,1.8112 1e-6,3.6224 1e-6,5.4337 h -1.7505 c -0.03443,-0.40118 0.06962,-1.2546 -0.05338,-1.3666 -0.68535,0.99951 -1.8807,1.5414 -3.071,1.5935 -3.1915,0.15398 -4.5893,-1.7768 -3.657,-4.7062 1.7897,-1.8567 4.3521,-1.5332 6.7354,-1.534 -0.10248,-3.099 -4.0193,-2.3947 -6.1055,-1.7808 -0.5531,0.37067 -0.23548,-0.53408 -0.31795,-0.85232 -0.19142,-0.69874 0.74359,-0.58761 1.1847,-0.79233 1.6068,-0.38784 3.3637,-0.50069 4.927,0.12082 1.6373,0.80201 1.98,2.241 2.1081,3.8842 z"
       inkscape:connector-curvature="0" />
    <path
       id="path3406"
       style="opacity:0.6;fill:#ffffff"
       d="m 13,22 h 2.3458 v 1 H 13 v -1 z"
       inkscape:connector-curvature="0" />
    <path
       id="path3404"
       style="opacity:0.6;fill:#ffffff"
       d="m 15.665,22 h 2.2134 v 1 H 15.665 v -1 z"
       inkscape:connector-curvature="0" />
    <path
       id="path3402"
       style="opacity:0.6;fill:#ffffff"
       d="m 18.198,22 h 1.9485 v 1 H 18.198 v -1 z"
       inkscape:connector-curvature="0" />
    <path
       id="path3399"
       style="opacity:0.6;fill:#ffffff"
       d="m 20.466,22 h 0.85587 v 1 H 20.466 v -1 z"
       inkscape:connector-curvature="0" />
    <path
       id="path3397"
       style="opacity:0.6;fill:#ffffff"
       d="m 21.642,22 h 1.9154 v 1 H 21.642 v -1 z"
       inkscape:connector-curvature="0" />
    <path
       id="path3395"
       style="opacity:0.6;fill:#ffffff"
       d="m 23.877,22 h 4.9616 v 1 H 23.877 v -1 z"
       inkscape:connector-curvature="0" />
    <path
       id="path3392"
       style="opacity:0.6;fill:#ffffff"
       d="m 29.158,22 h 3.7696 v 1 H 29.158 v -1 z"
       inkscape:connector-curvature="0" />
    <path
       id="path3389"
       style="opacity:0.6;fill:#ffffff"
       d="m 33.247,22 h 1.1539 v 1 H 33.247 v -1 z"
       inkscape:connector-curvature="0" />
    <path
       id="path3385"
       style="opacity:0.6;fill:#ffffff"
       d="m 13,28 h 3.6918 v 1 H 13 v -1 z"
       inkscape:connector-curvature="0" />
    <path
       id="path3383"
       style="opacity:0.6;fill:#ffffff"
       d="m 16.966,28 h 1.7762 v 1 H 16.966 v -1 z"
       inkscape:connector-curvature="0" />
    <path
       id="path3381"
       style="opacity:0.6;fill:#ffffff"
       d="m 19.117,28 h 0.83512 v 1 H 19.117 v -1 z"
       inkscape:connector-curvature="0" />
    <path
       id="path3379"
       style="opacity:0.6;fill:#ffffff"
       d="m 20.159,28 h 1.6081 v 1 H 20.159 v -1 z"
       inkscape:connector-curvature="0" />
    <path
       id="path3373"
       style="opacity:0.6;fill:#ffffff"
       d="m 22.041,28 h 1.6081 v 1 H 22.041 v -1 z"
       inkscape:connector-curvature="0" />
    <path
       id="path3371"
       style="opacity:0.6;fill:#ffffff"
       d="m 24.158,28 h 2.5827 v 1 H 24.158 v -1 z"
       inkscape:connector-curvature="0" />
    <path
       id="path3369"
       style="opacity:0.6;fill:#ffffff"
       d="m 27.048,28 h 3.3893 v 1 H 27.048 v -1 z"
       inkscape:connector-curvature="0" />
    <path
       id="path3367"
       style="opacity:0.6;fill:#ffffff"
       d="m 30.913,28 h 2.2803 v 1 H 30.913 v -1 z"
       inkscape:connector-curvature="0" />
    <path
       id="path3365"
       style="opacity:0.6;fill:#ffffff"
       d="m 33.467,28 h 0.53266 v 1 H 33.467 v -1 z"
       inkscape:connector-curvature="0" />
    <path
       id="path3363"
       style="opacity:0.6;fill:#ffffff"
       d="m 13,24 h 3.928 v 1 H 13 v -1 z"
       inkscape:connector-curvature="0" />
    <path
       id="path3361"
       style="opacity:0.6;fill:#ffffff"
       d="m 17.236,24 h 4.2089 v 1 H 17.236 v -1 z"
       inkscape:connector-curvature="0" />
    <path
       id="path3359"
       style="opacity:0.6;fill:#ffffff"
       d="m 21.753,24 h 1.6808 v 1 H 21.753 v -1 z"
       inkscape:connector-curvature="0" />
    <path
       id="path3357"
       style="opacity:0.6;fill:#ffffff"
       d="m 23.742,24 h 3.9593 v 1 H 23.742 v -1 z"
       inkscape:connector-curvature="0" />
    <path
       id="path3355"
       style="opacity:0.6;fill:#ffffff"
       d="m 31.027,24 h 1.0565 v 1 H 31.027 v -1 z"
       inkscape:connector-curvature="0" />
    <path
       id="path3353"
       style="opacity:0.6;fill:#ffffff"
       d="m 28.009,24 h 2.7108 v 1 H 28.009 v -1 z"
       inkscape:connector-curvature="0" />
    <path
       id="path3351"
       style="opacity:0.6;fill:#ffffff"
       d="m 32.392,24 h 1 v 1 h -1 v -1 z"
       inkscape:connector-curvature="0" />
    <path
       id="path3347"
       style="opacity:0.6;fill:#ffffff"
       d="m 13,26 h 4.2851 v 1 H 13 v -1 z"
       inkscape:connector-curvature="0" />
    <path
       id="path3345"
       style="opacity:0.6;fill:#ffffff"
       d="m 17.621,26 h 4.5916 v 1 H 17.621 v -1 z"
       inkscape:connector-curvature="0" />
    <path
       id="path3343"
       style="opacity:0.6;fill:#ffffff"
       d="m 22.549,26 h 1.8336 v 1 H 22.549 v -1 z"
       inkscape:connector-curvature="0" />
    <path
       id="path3341"
       style="opacity:0.6;fill:#ffffff"
       d="m 24.718,26 h 4.3192 v 1 H 24.718 v -1 z"
       inkscape:connector-curvature="0" />
    <path
       id="path3339"
       style="opacity:0.6;fill:#ffffff"
       d="m 32.666,26 h 1.1526 v 1 H 32.666 v -1 z"
       inkscape:connector-curvature="0" />
    <path
       id="path3337"
       style="opacity:0.6;fill:#ffffff"
       d="m 29.373,26 h 2.9572 v 1 H 29.373 v -1 z"
       inkscape:connector-curvature="0" />
    <path
       id="path3176"
       style="opacity:0.6;fill:#ffffff"
       d="m 13,34 h 3.6918 v 1 H 13 v -1 z"
       inkscape:connector-curvature="0" />
    <path
       id="path3174"
       style="opacity:0.6;fill:#ffffff"
       d="m 16.966,34 h 1.7762 v 1 H 16.966 v -1 z"
       inkscape:connector-curvature="0" />
    <path
       id="path3172"
       style="opacity:0.6;fill:#ffffff"
       d="m 19.117,34 h 0.83512 v 1 H 19.117 v -1 z"
       inkscape:connector-curvature="0" />
    <path
       id="path3170"
       style="opacity:0.6;fill:#ffffff"
       d="m 20.159,34 h 1.6081 v 1 H 20.159 v -1 z"
       inkscape:connector-curvature="0" />
    <path
       id="path3168"
       style="opacity:0.6;fill:#ffffff"
       d="m 22.041,34 h 1.6081 v 1 H 22.041 v -1 z"
       inkscape:connector-curvature="0" />
    <path
       id="path3166"
       style="opacity:0.6;fill:#ffffff"
       d="m 24.158,34 h 2.5827 v 1 H 24.158 v -1 z"
       inkscape:connector-curvature="0" />
    <path
       id="path3164"
       style="opacity:0.6;fill:#ffffff"
       d="m 27.048,34 h 3.3893 v 1 H 27.048 v -1 z"
       inkscape:connector-curvature="0" />
    <path
       id="path3162"
       style="opacity:0.6;fill:#ffffff"
       d="m 30.913,34 h 2.2803 v 1 H 30.913 v -1 z"
       inkscape:connector-curvature="0" />
    <path
       id="path3160"
       style="opacity:0.6;fill:#ffffff"
       d="m 33.467,34 h 0.53266 v 1 H 33.467 v -1 z"
       inkscape:connector-curvature="0" />
    <path
       id="path3158"
       style="opacity:0.6;fill:#ffffff"
       d="m 13,32 h 3.0616 v 1 H 13 v -1 z"
       inkscape:connector-curvature="0" />
    <path
       id="path3156"
       style="opacity:0.6;fill:#ffffff"
       d="m 16.387,32 h 5.0835 v 1 H 16.387 v -1 z"
       inkscape:connector-curvature="0" />
    <path
       id="path3154"
       style="opacity:0.6;fill:#ffffff"
       d="m 21.796,32 h 2.455 v 1 h -2.455 v -1 z"
       inkscape:connector-curvature="0" />
    <path
       id="path3152"
       style="opacity:0.6;fill:#ffffff"
       d="m 27.188,32 h 1.9495 v 1 H 27.188 v -1 z"
       inkscape:connector-curvature="0" />
    <path
       id="path3150"
       style="opacity:0.6;fill:#ffffff"
       d="m 29.462,32 h 3.129 v 1 h -3.129 v -1 z"
       inkscape:connector-curvature="0" />
    <path
       id="path3146"
       style="opacity:0.6;fill:#ffffff"
       d="m 24.576,32 h 2.2865 v 1 H 24.576 v -1 z"
       inkscape:connector-curvature="0" />
    <path
       id="path35069"
       style="opacity:0.6;fill:#ffffff"
       d="m 13,35.998 h 3.8687 v 1 H 13 v -1 z"
       inkscape:connector-curvature="0" />
    <path
       id="path35067"
       style="opacity:0.6;fill:#ffffff"
       d="m 17.188,35.998 h 1.2182 v 1 H 17.188 v -1 z"
       inkscape:connector-curvature="0" />
    <path
       id="path35065"
       style="opacity:0.6;fill:#ffffff"
       d="m 18.726,35.998 h 2.7813 v 1 H 18.726 v -1 z"
       inkscape:connector-curvature="0" />
    <path
       id="path35063"
       style="opacity:0.6;fill:#ffffff"
       d="m 21.827,35.998 h 1.8978 v 1 H 21.827 v -1 z"
       inkscape:connector-curvature="0" />
    <path
       id="path35061"
       style="opacity:0.6;fill:#ffffff"
       d="m 24.044,35.998 h 1.8978 v 1 H 24.044 v -1 z"
       inkscape:connector-curvature="0" />
    <path
       id="path35059"
       style="opacity:0.6;fill:#ffffff"
       d="m 26.261,35.998 h 2.7473 v 1 H 26.261 v -1 z"
       inkscape:connector-curvature="0" />
    <path
       id="path35057"
       style="opacity:0.6;fill:#ffffff"
       d="m 29.328,35.998 h 0.57256 v 1 H 29.328 v -1 z"
       inkscape:connector-curvature="0" />
    <path
       id="path35055"
       style="opacity:0.6;fill:#ffffff"
       d="m 30.22,35.998 h 3.5629 v 1 H 30.22 v -1 z"
       inkscape:connector-curvature="0" />
    <path
       id="path35051"
       style="opacity:0.6;fill:#ffffff"
       d="m 13,37.998 h 3.7964 v 1 H 13 v -1 z"
       inkscape:connector-curvature="0" />
    <path
       id="path35049"
       style="opacity:0.6;fill:#ffffff"
       d="m 19.257,37.998 h 2.4387 v 1 H 19.257 v -1 z"
       inkscape:connector-curvature="0" />
    <path
       id="path35047"
       style="opacity:0.6;fill:#ffffff"
       d="m 22.046,37.998 h 2.2351 v 1 H 22.046 v -1 z"
       inkscape:connector-curvature="0" />
    <path
       id="path35045"
       style="opacity:0.6;fill:#ffffff"
       d="m 28.036,37.998 h 1.9635 v 1 H 28.036 v -1 z"
       inkscape:connector-curvature="0" />
    <path
       id="path35043"
       style="opacity:0.6;fill:#ffffff"
       d="m 26.911,37.998 h 0.77554 v 1 H 26.911 v -1 z"
       inkscape:connector-curvature="0" />
    <path
       id="path35041"
       style="opacity:0.6;fill:#ffffff"
       d="m 24.631,37.998 h 1.9296 v 1 H 24.631 v -1 z"
       inkscape:connector-curvature="0" />
    <path
       id="path35006"
       style="opacity:0.6;fill:#ffffff"
       d="m 17.147,37.998 h 1.7599 v 1 H 17.147 v -1 z"
       inkscape:connector-curvature="0" />
    <path
       id="path35629"
       style="opacity:0.6;fill:none;stroke:#ffffff;stroke-width:1px;stroke-linecap:square"
       d="m 24.5,10.5 h 2.0007"
       inkscape:connector-curvature="0" />
    <path
       id="path36140"
       style="opacity:0.6;fill:none;stroke:#ffffff;stroke-width:1px;stroke-linecap:square"
       d="m 28,10.5 h 1.9997"
       inkscape:connector-curvature="0" />
    <path
       id="path36142"
       style="opacity:0.6;fill:none;stroke:#ffffff;stroke-width:1px;stroke-linecap:square"
       d="m 31.5,10.5 h 2.0009"
       inkscape:connector-curvature="0" />
    <path
       id="path36150"
       style="opacity:0.6;fill:none;stroke:#ffffff;stroke-width:1px;stroke-linecap:square"
       d="m 24.5,12.5 h 2.0007"
       inkscape:connector-curvature="0" />
    <path
       id="path36152"
       style="opacity:0.6;fill:none;stroke:#ffffff;stroke-width:1px;stroke-linecap:square"
       d="m 28,12.5 h 1.9997"
       inkscape:connector-curvature="0" />
    <path
       id="path36154"
       style="opacity:0.6;fill:none;stroke:#ffffff;stroke-width:1px;stroke-linecap:square"
       d="m 31.5,12.5 h 0.001"
       inkscape:connector-curvature="0" />
    <path
       id="path36156"
       style="opacity:0.6;fill:none;stroke:#ffffff;stroke-width:1px;stroke-linecap:square"
       d="m 24.5,14.5 h 3"
       inkscape:connector-curvature="0" />
    <path
       id="path36158"
       style="opacity:0.6;fill:none;stroke:#ffffff;stroke-width:1px;stroke-linecap:square"
       d="m 29,14.5 h 1.5"
       inkscape:connector-curvature="0" />
    <path
       id="path36160"
       style="opacity:0.6;fill:none;stroke:#ffffff;stroke-width:1px;stroke-linecap:square"
       d="m 32,14.5 h 1"
       inkscape:connector-curvature="0" />
    <path
       id="path36162"
       style="opacity:0.6;fill:none;stroke:#ffffff;stroke-width:1px;stroke-linecap:square"
       d="m 24.5,16.5 h 2.0007"
       inkscape:connector-curvature="0" />
    <path
       id="path36164"
       style="opacity:0.6;fill:none;stroke:#ffffff;stroke-width:1px;stroke-linecap:square"
       d="m 28,16.5 h 1.9997"
       inkscape:connector-curvature="0" />
    <path
       id="path36166"
       style="opacity:0.6;fill:none;stroke:#ffffff;stroke-width:1px;stroke-linecap:square"
       d="m 31.5,16.5 h 2.0009"
       inkscape:connector-curvature="0" />
    <path
       id="path36168"
       style="opacity:0.6;fill:none;stroke:#ffffff;stroke-width:1px;stroke-linecap:square"
       d="m 24.5,18.5 h 3"
       inkscape:connector-curvature="0" />
    <path
       id="path36170"
       style="opacity:0.6;fill:none;stroke:#ffffff;stroke-width:1px;stroke-linecap:square"
       d="m 29,18.5 h 1.5"
       inkscape:connector-curvature="0" />
    <path
       id="path36172"
       style="opacity:0.6;fill:none;stroke:#ffffff;stroke-width:1px;stroke-linecap:square"
       d="m 32,18.5 h 10e-4"
       inkscape:connector-curvature="0" />
    <path
       id="path36174"
       style="opacity:0.6;fill:none;stroke:#ffffff;stroke-width:1px;stroke-linecap:square"
       d="m 33.5,18.5 h 10e-4"
       inkscape:connector-curvature="0" />
  </g>
</svg>
