<?xml version="1.0" encoding="UTF-8" standalone="no"?>
<!-- Created with Inkscape (http://www.inkscape.org/) -->

<svg
   xmlns:dc="http://purl.org/dc/elements/1.1/"
   xmlns:cc="http://creativecommons.org/ns#"
   xmlns:rdf="http://www.w3.org/1999/02/22-rdf-syntax-ns#"
   xmlns:svg="http://www.w3.org/2000/svg"
   xmlns="http://www.w3.org/2000/svg"
   xmlns:xlink="http://www.w3.org/1999/xlink"
   xmlns:sodipodi="http://sodipodi.sourceforge.net/DTD/sodipodi-0.dtd"
   xmlns:inkscape="http://www.inkscape.org/namespaces/inkscape"
   id="svg4250"
   height="32"
   width="32"
   version="1.0"
   inkscape:version="0.48.1 r9760"
   sodipodi:docname="text-x-python.svg">
  <metadata
     id="metadata86">
    <rdf:RDF>
      <cc:Work
         rdf:about="">
        <dc:format>image/svg+xml</dc:format>
        <dc:type
           rdf:resource="http://purl.org/dc/dcmitype/StillImage" />
      </cc:Work>
    </rdf:RDF>
  </metadata>
  <sodipodi:namedview
     pagecolor="#ffffff"
     bordercolor="#666666"
     borderopacity="1"
     objecttolerance="10"
     gridtolerance="10"
     guidetolerance="10"
     inkscape:pageopacity="0"
     inkscape:pageshadow="2"
     inkscape:window-width="1366"
     inkscape:window-height="688"
     id="namedview84"
     showgrid="false"
     inkscape:zoom="256"
     inkscape:cx="7.9764871"
     inkscape:cy="31.64396"
     inkscape:window-x="0"
     inkscape:window-y="25"
     inkscape:window-maximized="1"
     inkscape:current-layer="svg4250" />
  <defs
     id="defs4252">
    <linearGradient
       id="linearGradient2631"
       y2="609.51001"
       gradientUnits="userSpaceOnUse"
       x2="302.85999"
       gradientTransform="matrix(0.067325,0,0,0.0147,-0.34114,37.04)"
       y1="366.64999"
       x1="302.85999">
      <stop
         id="stop5050"
         style="stop-opacity:0"
         offset="0" />
      <stop
         id="stop5056"
         offset=".5" />
      <stop
         id="stop5052"
         style="stop-opacity:0"
         offset="1" />
    </linearGradient>
    <radialGradient
       id="radialGradient2628"
       xlink:href="#linearGradient5060"
       gradientUnits="userSpaceOnUse"
       cy="486.64999"
       cx="605.71002"
       gradientTransform="matrix(-0.02304,0,0,0.0147,21.623,37.04)"
       r="117.14" />
    <linearGradient
       id="linearGradient5060">
      <stop
         id="stop5062"
         offset="0" />
      <stop
         id="stop5064"
         style="stop-opacity:0"
         offset="1" />
    </linearGradient>
    <radialGradient
       id="radialGradient2625"
       xlink:href="#linearGradient5060"
       gradientUnits="userSpaceOnUse"
       cy="486.64999"
       cx="605.71002"
       gradientTransform="matrix(0.02304,0,0,0.0147,26.361,37.04)"
       r="117.14" />
    <linearGradient
       id="linearGradient2622"
       y2="2.9061999"
       xlink:href="#linearGradient3104"
       gradientUnits="userSpaceOnUse"
       x2="-51.785999"
       gradientTransform="matrix(0.8075,0,0,0.89483,59.41,-2.9806)"
       y1="50.785999"
       x1="-51.785999" />
    <linearGradient
       id="linearGradient2620"
       y2="47.013"
       gradientUnits="userSpaceOnUse"
       x2="25.132"
       gradientTransform="matrix(1,0,0,0.95617,-1.0065e-7,-1.9149)"
       y1="0.98521"
       x1="25.132">
      <stop
         id="stop3602"
         style="stop-color:#f4f4f4"
         offset="0" />
      <stop
         id="stop3604"
         style="stop-color:#dbdbdb"
         offset="1" />
    </linearGradient>
    <radialGradient
       id="radialGradient2617"
       gradientUnits="userSpaceOnUse"
       cy="112.3"
       cx="102"
       gradientTransform="matrix(0.3617,0,0,-0.39078,0.85106,47.517)"
       r="139.56">
      <stop
         id="stop41"
         style="stop-color:#b7b8b9"
         offset="0" />
      <stop
         id="stop47"
         style="stop-color:#ececec"
         offset=".18851" />
      <stop
         id="stop49"
         style="stop-color:#fafafa;stop-opacity:0"
         offset=".25718" />
      <stop
         id="stop51"
         style="stop-color:#fff;stop-opacity:0"
         offset=".30111" />
      <stop
         id="stop53"
         style="stop-color:#fafafa;stop-opacity:0"
         offset=".53130" />
      <stop
         id="stop55"
         style="stop-color:#ebecec;stop-opacity:0"
         offset=".84490" />
      <stop
         id="stop57"
         style="stop-color:#e1e2e3;stop-opacity:0"
         offset="1" />
    </radialGradient>
    <linearGradient
       id="linearGradient2614"
       y2="46.016998"
       gradientUnits="userSpaceOnUse"
       x2="24"
       gradientTransform="matrix(1,0,0,0.97778,0,-0.96667)"
       y1="2"
       x1="24">
      <stop
         id="stop3213"
         style="stop-color:#fff"
         offset="0" />
      <stop
         id="stop3215"
         style="stop-color:#fff;stop-opacity:0"
         offset="1" />
    </linearGradient>
    <filter
       id="filter3212"
       y="-0.16434"
       x="-0.14846"
       height="1.3286999"
       width="1.2969"
       color-interpolation-filters="sRGB">
      <feGaussianBlur
         id="feGaussianBlur3214"
         stdDeviation="0.77391625" />
    </filter>
    <linearGradient
       id="linearGradient2610"
       y2="5.4565001"
       gradientUnits="userSpaceOnUse"
       x2="36.358002"
       gradientTransform="matrix(0.9977,0,0,1.0407,0.1638,-1.1058)"
       y1="8.059"
       x1="32.891998">
      <stop
         id="stop8591"
         style="stop-color:#fefefe"
         offset="0" />
      <stop
         id="stop8593"
         style="stop-color:#cbcbcb"
         offset="1" />
    </linearGradient>
    <linearGradient
       id="linearGradient3104">
      <stop
         id="stop3106"
         style="stop-color:#aaa"
         offset="0" />
      <stop
         id="stop3108"
         style="stop-color:#c8c8c8"
         offset="1" />
    </linearGradient>
    <linearGradient
       id="linearGradient3055"
       y2="-0.027396999"
       xlink:href="#linearGradient3104"
       gradientUnits="userSpaceOnUse"
       x2="17.424999"
       gradientTransform="translate(0.03013,2.4578e-7)"
       y1="44.873001"
       x1="17.424999" />
    <radialGradient
       id="radialGradient3121"
       gradientUnits="userSpaceOnUse"
       cy="63.965"
       cx="15.116"
       gradientTransform="scale(1.644,0.60828)"
       r="12.289">
      <stop
         id="stop4116"
         offset="0" />
      <stop
         id="stop4118"
         style="stop-opacity:0"
         offset="1" />
    </radialGradient>
    <radialGradient
       id="radialGradient4234"
       gradientUnits="userSpaceOnUse"
       cy="23.143"
       cx="23.514999"
       gradientTransform="matrix(1.3814e-7,1.3722,-1.4915,1.5015e-7,58.033,-9.1428)"
       r="9.0193005">
      <stop
         id="stop3232"
         style="stop-color:#ffefa7"
         offset="0" />
      <stop
         id="stop3234"
         style="stop-color:#ffc64c"
         offset="1" />
    </radialGradient>
    <linearGradient
       id="linearGradient3132"
       y2="64.053001"
       xlink:href="#linearGradient4126"
       gradientUnits="userSpaceOnUse"
       x2="94.693001"
       gradientTransform="matrix(0.21718,0,0,0.21718,5.4071,4.1691)"
       y1="112.51"
       x1="94.693001" />
    <linearGradient
       id="linearGradient4242"
       y2="16.857"
       gradientUnits="userSpaceOnUse"
       x2="29.812"
       y1="36"
       x1="29.812">
      <stop
         id="stop4246"
         style="stop-color:#b27700"
         offset="0" />
      <stop
         id="stop4248"
         style="stop-color:#c79f00"
         offset="1" />
    </linearGradient>
    <linearGradient
       id="linearGradient3927"
       y2="35.007999"
       gradientUnits="userSpaceOnUse"
       x2="31.121"
       y1="17.857"
       x1="31.121">
      <stop
         id="stop3923"
         style="stop-color:#fff"
         offset="0" />
      <stop
         id="stop3925"
         style="stop-color:#fff;stop-opacity:0"
         offset="1" />
    </linearGradient>
    <radialGradient
       id="radialGradient4129"
       gradientUnits="userSpaceOnUse"
       cy="23.333"
       cx="22.504"
       gradientTransform="matrix(0,-1.4011,1.3226,0,-7.3801,54.416)"
       r="9.0010004">
      <stop
         id="stop3995"
         style="stop-color:#a3c0d0"
         offset="0" />
      <stop
         id="stop4001"
         style="stop-color:#427da1"
         offset="1" />
    </radialGradient>
    <linearGradient
       id="linearGradient4126">
      <stop
         id="stop4128"
         style="stop-color:#fff"
         offset="0" />
      <stop
         id="stop4130"
         style="stop-color:#fff;stop-opacity:.16495"
         offset="1" />
    </linearGradient>
    <linearGradient
       id="linearGradient3144"
       y2="64.053001"
       xlink:href="#linearGradient4126"
       gradientUnits="userSpaceOnUse"
       x2="94.693001"
       gradientTransform="matrix(0.21718,0,0,0.21718,-1.3943,-2.8679)"
       y1="112.51"
       x1="94.693001" />
    <linearGradient
       id="linearGradient4137"
       y2="10"
       gradientUnits="userSpaceOnUse"
       x2="17.849001"
       y1="29.073999"
       x1="17.849001">
      <stop
         id="stop2492"
         style="stop-color:#2e4a5a"
         offset="0" />
      <stop
         id="stop2494"
         style="stop-color:#6e8796"
         offset="1" />
    </linearGradient>
    <linearGradient
       id="linearGradient4153"
       y2="35.925999"
       gradientUnits="userSpaceOnUse"
       x2="25.315001"
       y1="10.905"
       x1="25.315001">
      <stop
         id="stop4149"
         style="stop-color:#fff"
         offset="0" />
      <stop
         id="stop4151"
         style="stop-color:#fff;stop-opacity:0"
         offset="1" />
    </linearGradient>
  </defs>
  <g
     id="layer1"
     transform="matrix(0.65912401,0,0,0.65912401,0.18613197,-0.00116059)">
    <rect
       id="rect2879"
       style="opacity:0.3;fill:url(#linearGradient2631)"
       height="3.5701001"
       width="32.507999"
       y="42.43"
       x="7.7378001" />
    <path
       id="path2881"
       style="opacity:0.3;fill:url(#radialGradient2628)"
       d="M 7.7378,42.43 V 46 c -1.1865,0.007 -2.8683,-0.8 -2.8683,-1.785 0,-0.986 1.324,-1.785 2.8683,-1.785 z"
       inkscape:connector-curvature="0" />
    <path
       id="path2883"
       style="opacity:0.3;fill:url(#radialGradient2625)"
       d="M 40.246,42.43 V 46 c 1.187,0.007 2.869,-0.8 2.869,-1.785 0,-0.986 -1.325,-1.785 -2.869,-1.785 z"
       inkscape:connector-curvature="0" />
    <path
       id="path4160"
       style="fill:url(#linearGradient2620);stroke:url(#linearGradient2622);stroke-width:0.99992001;stroke-linejoin:round"
       d="M 6.5,0.4972 H 30.561 C 31.968,0.97185 39.526,6.3794 41.5,10.124 V 44.503 H 6.5 V 0.497 z"
       inkscape:connector-curvature="0" />
    <path
       id="path4191"
       style="fill:url(#radialGradient2617)"
       d="M 7.3617,44 C 7.1624,44 7,43.825 7,43.609 V 1.405 C 7,1.1895 7.1624,1.0144 7.3617,1.0144 c 7.4833,0.108 15.775,-0.16158 23.249,0.0269 l 10.283,8.866 0.106,33.702 c 0,0.216 -0.162,0.391 -0.362,0.391 H 7.3617 z"
       inkscape:connector-curvature="0" />
    <path
       id="path2435"
       style="opacity:0.6;fill:none;stroke:url(#linearGradient2614);stroke-width:0.99992001;stroke-linejoin:round"
       d="M 40.5,10.259 V 43.522 H 7.5 V 1.478 c 7.562,-3e-4 15.304,-3e-4 22.866,-3e-4"
       inkscape:connector-curvature="0" />
    <path
       id="path12038"
       style="opacity:0.4;fill-rule:evenodd;filter:url(#filter3212)"
       d="m 28.617,0.92126 c 4.283,0 2.154,8.4831 2.154,8.4831 0,0 10.357,-1.8023 10.357,2.8186 0,-2.6095 -11.302,-10.728 -12.511,-11.302 z"
       inkscape:connector-curvature="0" />
    <path
       id="path4474"
       style="fill:url(#linearGradient2610);fill-rule:evenodd"
       d="m 28.617,0.92126 c 3.187,0 2.336,7.6618 2.336,7.6618 0,0 10.175,-0.981 10.175,3.6399 0,-1.126 0.086,-1.932 -0.134,-2.2834 C 39.416,7.41536 32.599,1.75116 30.137,1.00876 29.953,0.9532 29.544,0.92122 28.617,0.92122 z"
       inkscape:connector-curvature="0" />
    <path
       id="path4009"
       style="fill:url(#linearGradient3055)"
       d="m 11,37 h 3.037 v 1 H 11 v -1 z m 0,-22 v 1 h 3.062 V 15 H 11 z m 0,2 v 1 h 3.094 V 17 H 11 z M 11,6 v 1 h 2.375 V 6 H 11 z m 2.688,0 v 1 h 2.25 V 6 h -2.25 z m 2.562,0 v 1 h 1.969 V 6 H 16.25 z m 2.281,0 v 1 h 0.875 V 6 h -0.875 z m 1.188,0 v 1 h 1.937 V 6 H 19.719 z M 22,6 v 1 h 5 V 6 H 22 z M 11,8 v 1 h 3.781 V 8 H 11 z m 4.156,0 v 1 h 1.813 V 8 h -1.813 z m 2.156,0 v 1 h 0.844 V 8 h -0.844 z m 1.219,0 v 1 h 1.625 V 8 h -1.625 z m 2,0 v 1 h 1.625 V 8 H 20.531 z M 22.5,8 v 1 h 2.656 V 8 H 22.5 z m 3.031,0 V 9 H 29 V 8 H 25.531 z M 11,10 v 1 h 4.188 V 10 H 11 z m 4.5,0 v 1 H 20 V 10 H 15.5 z M 11,12 v 1 h 2.312 V 12 H 11 z m 2.625,0 v 1 h 2.156 v -1 h -2.156 z m 2.469,0 v 1 H 18 v -1 h -1.906 z m 12.218,18.125 v 0.969 h 3.532 V 30.125 H 28.312 z M 19.938,37 v 1 h 2.437 v -1 h -2.437 z m 2.75,0 v 1 h 2.25 v -1 h -2.25 z m 2.593,0 v 1 h 1.938 v -1 h -1.938 z m 2.25,0 v 1 h 3.094 v -1 h -3.094 z m 3.438,0 v 1 H 36 V 37 H 30.969 z M 14.406,15 v 1 H 20 v -1 h -5.594 z m 1.219,18 v 1 h 4.594 v -1 h -4.594 z m 15.031,0 v 1 h 1.156 v -1 h -1.156 z m 1.5,0 v 1 h 0.688 v -1 h -0.688 z m 1,0 v 1 H 35 v -1 h -1.844 z m -16.031,2 v 1 h 0.813 v -1 h -0.813 z m 1.031,0 v 1 h 1.625 v -1 h -1.625 z m 1.875,0 v 1 h 1.625 v -1 h -1.625 z m 5.031,0 v 1 h 3.376 v -1 h -3.376 z m 3.844,0 v 1 h 2.282 v -1 h -2.282 z m 2.563,0 v 1 H 32 V 35 H 31.469 z M 11,22 v 1 h 1 v -1 h -1 z m 2.562,8.156 v 0.969 h 2.126 V 30.156 H 13.562 z M 11,33 v 1 h 4.281 V 33 H 11 z m 0,2 v 1 h 3.688 V 35 H 11 z m 3.969,0 v 1 h 1.781 v -1 h -1.781 z m -0.625,2 v 1 h 3.344 V 37 H 14.344 z M 11,20 v 1 h 2.344 V 20 H 11 z m 0,4 v 1 h 2.75 V 24 H 11 z m 0,2 v 1 h 2.938 V 26 H 11 z m 0,2 v 1 h 2.531 V 28 H 11 z m 0,2.156 v 0.969 h 2.219 V 30.156 H 11 z"
       inkscape:connector-curvature="0" />
    <path
       id="path2917"
       style="opacity:0.3;fill:url(#radialGradient3121)"
       d="m 45.053,38.909 a 20.203,7.4751 0 1 1 -40.406,0 20.203,7.4751 0 1 1 40.406,0 z"
       transform="matrix(0.69296,0,0,0.66888,6.78,5.9746)"
       inkscape:connector-curvature="0" />
    <path
       id="path2732"
       style="fill:url(#radialGradient4234)"
       d="m 30.187,32.108 c 0,1.676 -1.455,2.526 -2.932,2.949 -2.222,0.639 -4.005,0.541 -5.862,0 -1.55,-0.452 -2.932,-1.375 -2.932,-2.949 v -5.532 c 0,-1.592 1.327,-2.951 2.932,-2.951 l 5.768,-0.375 c 1.952,0 3.228,-1.219 3.228,-3.219 l 0.532,-2.674 h 2.198 c 1.707,0 2.51,1.269 2.931,2.949 0.587,2.335 0.613,4.081 0,5.901 -0.592,1.768 -1.227,2.949 -2.931,2.949 h -2.932 -5.862 v -0.011 h 5.862 v 2.963 z"
       inkscape:connector-curvature="0" />
    <path
       id="path2736"
       style="fill:#ffffff"
       d="m 26.523,32.475 c 0,-0.61 0.493,-1.106 1.099,-1.106 0.608,0 1.099,0.496 1.099,1.106 0,0.612 -0.491,1.107 -1.099,1.107 -0.606,0 -1.099,-0.495 -1.099,-1.107 z"
       inkscape:connector-curvature="0" />
    <path
       id="path2742"
       style="opacity:0.6;fill:url(#linearGradient3132)"
       d="m 30.914,17.357 v 2.594 c 0,1.641 -3.381,3.687 -3.656,3.687 h -5.75 l -1.238,0.126 c -1.261,0.323 -1.109,1.148 -1.481,2.687 -0.138,0.57 -0.242,1.103 -0.312,1.593 -0.005,0.036 0.005,0.059 0,0.094 v 1.625 c 3.836,-4.28 7.927,-4.603 9.969,-4.594 4.073,0.018 5.992,-0.983 7.937,-3.187 -0.006,-0.043 0.007,-0.081 0,-0.125 -0.075,-0.491 -0.206,-1.015 -0.344,-1.563 -0.197,-0.787 -0.455,-1.481 -0.875,-2 -0.008,-0.01 -0.022,-0.021 -0.031,-0.031 -0.005,-0.003 -0.026,0.004 -0.031,0 -0.014,-0.017 -0.017,-0.046 -0.031,-0.062 -0.03,-0.021 -0.033,-0.043 -0.063,-0.063 -0.007,-0.008 -0.024,0.008 -0.031,0 -0.444,-0.288 -0.984,-0.503 -1.531,-0.594 -0.496,-0.081 -0.994,-0.144 -1.5,-0.187 h -0.313 -0.719 z"
       inkscape:connector-curvature="0" />
    <path
       id="path2744"
       style="fill:none;stroke:url(#linearGradient4242)"
       d="m 30.481,32.108 c 0,1.676 -1.749,2.526 -3.226,2.949 -2.222,0.639 -4.005,0.541 -5.862,0 -1.55,-0.452 -2.932,-1.375 -2.932,-2.949 v -5.826 c 0,-1.886 1.369,-2.909 2.932,-2.909 l 5.213,-0.031 c 1.953,0 3.929,-1.998 3.929,-3.998 v -1.987 h 2.584 c 1.707,0 2.51,1.269 2.931,2.949 0.587,2.335 0.613,4.081 0,5.901 -0.592,1.768 -1.227,3.159 -2.931,3.159 h -2.638 -6.156 v -0.011 l 6.156,0.021 v 2.732 z"
       inkscape:connector-curvature="0" />
    <path
       id="path2746"
       style="opacity:0.6;fill:url(#linearGradient3927)"
       d="m 31.037,17.857 v 1.469 c 0,2.285 -2.351,4.56 -4.591,4.56 h -5.063 c -1.322,0 -2.406,1.376 -2.406,2.69 v 5.531 c 0,0.641 0.228,1.119 0.687,1.531 0.459,0.412 1.15,0.726 1.875,0.938 1.79,0.521 3.422,0.615 5.563,0 0.695,-0.2 1.62,-0.577 2.085,-0.98 0.465,-0.403 0.802,-0.795 0.802,-1.489 v -2.228 h -5.668 -0.5 v -0.5 -0.031 -0.5 h 0.5 5.875 0.5 v 0.031 h 2.437 c 0.737,0 1.097,-0.29 1.463,-0.714 0.366,-0.424 0.685,-1.256 0.975,-2.121 0.58,-1.724 0.572,-3.344 0,-5.625 -0.2,-0.796 -0.49,-1.439 -0.875,-1.875 -0.386,-0.435 -0.833,-0.687 -1.563,-0.687 h -2.096 z m 1,1 h 1.096 c 0.319,0 0.736,0.257 0.813,0.344 0.222,0.251 0.478,0.76 0.656,1.468 0.546,2.174 0.547,3.53 0.031,5.063 -0.277,0.827 -0.565,1.604 -0.781,1.835 -0.195,0.208 -0.608,0.312 -0.719,0.312 h -1.437 v -0.031 h -1.5 -5.875 -1.5 v 1.5 0.031 1.5 h 1.5 4.668 v 1.228 c 0,0.446 -0.597,0.723 -0.7,0.812 -0.299,0.259 -0.829,0.513 -1.437,0.688 -1.978,0.568 -3.375,0.482 -5.031,0 -0.627,-0.183 -1.17,-0.45 -1.469,-0.719 -0.007,-0.006 -0.024,-0.024 -0.031,-0.031 -0.043,-0.041 -0.094,-0.091 -0.125,-0.125 -0.03,-0.035 -0.073,-0.093 -0.094,-0.125 -0.012,-0.019 -0.048,-0.069 -0.063,-0.094 -0.015,-0.035 -0.022,-0.086 -0.031,-0.125 -0.006,-0.032 -0.028,-0.09 -0.031,-0.125 -0.003,-0.045 0,-0.105 0,-0.156 v -5.531 c 0,-0.759 0.648,-1.69 1.406,-1.69 h 5.063 c 2.816,0 5.591,-2.703 5.591,-5.56 v -0.469 z"
       inkscape:connector-curvature="0" />
    <path
       id="path2730"
       style="fill:url(#radialGradient4129)"
       d="m 17.854,13.538 c 0,-1.677 0.449,-2.589 2.932,-3.024 1.685,-0.295 3.846,-0.332 5.861,0 1.592,0.263 2.932,1.449 2.932,3.024 v 5.531 c 0,1.622 -1.301,2.951 -2.932,2.951 l -5.316,0.294 c -1.989,0 -4.043,1.738 -4.043,3.656 l -0.168,2.318 h -2.016 c -1.704,0 -2.697,-1.229 -3.114,-2.949 -0.562,-2.311 -0.538,-3.688 0,-5.901 0.467,-1.931 1.959,-2.949 3.664,-2.949 h 2.2 5.864 v -0.02 h -5.864 v -2.931 z"
       inkscape:connector-curvature="0" />
    <path
       id="path2734"
       style="fill:#ffffff"
       d="m 19.32,13.17 c 0,-0.612 0.491,-1.107 1.099,-1.107 0.606,0 1.099,0.495 1.099,1.107 0,0.611 -0.493,1.106 -1.099,1.106 -0.608,0 -1.099,-0.495 -1.099,-1.106 z"
       inkscape:connector-curvature="0" />
    <path
       id="path2738"
       style="opacity:0.4;fill:url(#linearGradient3144)"
       d="m 23.213,10.27 c -0.867,0.021 -1.7,0.121 -2.437,0.25 -2.483,0.434 -2.907,1.355 -2.907,3.031 v 2.906 h 5.844 v 0.032 h -5.844 -2.218 c -1.705,0 -3.19,1.006 -3.657,2.937 -0.317,1.303 -0.46,2.322 -0.406,3.406 3.862,-4.377 8.005,-4.696 10.063,-4.687 4.073,0.018 5.992,-0.984 7.937,-3.188 v -1.406 c 0,-1.574 -1.345,-2.768 -2.937,-3.031 -1.134,-0.187 -2.323,-0.277 -3.438,-0.25 z"
       inkscape:connector-curvature="0" />
    <path
       id="path3530"
       style="fill:none;stroke:url(#linearGradient4137)"
       d="m 17.507,13.866 c 0,-1.664 1.745,-2.506 3.218,-2.927 2.217,-0.633 3.997,-0.536 5.849,0 1.548,0.449 2.926,1.364 2.926,2.927 v 5.487 c 0,1.58 -1.324,3.179 -2.926,3.179 h -5.449 c -1.53,0 -3.673,1.674 -3.673,3.658 v 2.31 h -2.578 c -1.703,0 -2.505,-1.258 -2.925,-2.926 -0.585,-2.316 -0.611,-4.049 0,-5.854 0.591,-1.754 1.224,-3.135 2.925,-3.135 h 2.633 6.142 v 0.012 l -6.142,-0.021 v -2.71 z"
       inkscape:connector-curvature="0" />
    <path
       id="path4143"
       style="opacity:0.4;fill:none;stroke:url(#linearGradient4153)"
       d="m 23.781,11.406 c -0.862,-0.011 -1.777,0.079 -2.812,0.375 -0.673,0.192 -1.397,0.51 -1.875,0.875 -0.478,0.365 -0.688,0.699 -0.688,1.219 v 1.781 l 5.25,0.032 c 0.501,0 0.906,0.405 0.906,0.906 0,0.5 -0.405,0.906 -0.906,0.906 H 17.5 14.875 c -0.611,0 -0.866,0.159 -1.187,0.562 -0.322,0.404 -0.62,1.087 -0.907,1.938 -0.553,1.635 -0.529,3.123 0.031,5.344 0.19,0.753 0.458,1.355 0.782,1.718 0.323,0.364 0.651,0.532 1.281,0.532 h 1.656 v -1.406 c 0,-1.316 0.693,-2.427 1.563,-3.219 0.869,-0.793 1.941,-1.344 3.031,-1.344 h 5.437 c 1.005,0 2.032,-1.205 2.032,-2.281 v -5.469 c 0,-0.516 -0.164,-0.863 -0.563,-1.219 C 27.633,12.3 26.997,11.979 26.312,11.781 25.445,11.53 24.644,11.417 23.781,11.406 z"
       inkscape:connector-curvature="0" />
  </g>
</svg>
