<?xml version="1.0" encoding="UTF-8" standalone="no"?>
<!-- Created with Inkscape (http://www.inkscape.org/) -->

<svg
   xmlns:dc="http://purl.org/dc/elements/1.1/"
   xmlns:cc="http://creativecommons.org/ns#"
   xmlns:rdf="http://www.w3.org/1999/02/22-rdf-syntax-ns#"
   xmlns:svg="http://www.w3.org/2000/svg"
   xmlns="http://www.w3.org/2000/svg"
   xmlns:xlink="http://www.w3.org/1999/xlink"
   xmlns:sodipodi="http://sodipodi.sourceforge.net/DTD/sodipodi-0.dtd"
   xmlns:inkscape="http://www.inkscape.org/namespaces/inkscape"
   id="svg4074"
   height="32"
   width="32"
   version="1.0"
   inkscape:version="0.48.1 r9760"
   sodipodi:docname="text-css.svg">
  <metadata
     id="metadata101">
    <rdf:RDF>
      <cc:Work
         rdf:about="">
        <dc:format>image/svg+xml</dc:format>
        <dc:type
           rdf:resource="http://purl.org/dc/dcmitype/StillImage" />
      </cc:Work>
    </rdf:RDF>
  </metadata>
  <sodipodi:namedview
     pagecolor="#ffffff"
     bordercolor="#666666"
     borderopacity="1"
     objecttolerance="10"
     gridtolerance="10"
     guidetolerance="10"
     inkscape:pageopacity="0"
     inkscape:pageshadow="2"
     inkscape:window-width="1366"
     inkscape:window-height="688"
     id="namedview99"
     showgrid="false"
     inkscape:zoom="256"
     inkscape:cx="15.139752"
     inkscape:cy="31.917671"
     inkscape:window-x="0"
     inkscape:window-y="25"
     inkscape:window-maximized="1"
     inkscape:current-layer="svg4074" />
  <defs
     id="defs4076">
    <linearGradient
       id="linearGradient2499"
       y2="609.51001"
       gradientUnits="userSpaceOnUse"
       x2="302.85999"
       gradientTransform="matrix(0.067325,0,0,0.0147,-0.34114,37.04)"
       y1="366.64999"
       x1="302.85999">
      <stop
         id="stop5050"
         style="stop-opacity:0"
         offset="0" />
      <stop
         id="stop5056"
         offset=".5" />
      <stop
         id="stop5052"
         style="stop-opacity:0"
         offset="1" />
    </linearGradient>
    <radialGradient
       id="radialGradient2496"
       xlink:href="#linearGradient5060"
       gradientUnits="userSpaceOnUse"
       cy="486.64999"
       cx="605.71002"
       gradientTransform="matrix(-0.02304,0,0,0.0147,21.623,37.04)"
       r="117.14" />
    <linearGradient
       id="linearGradient5060">
      <stop
         id="stop5062"
         offset="0" />
      <stop
         id="stop5064"
         style="stop-opacity:0"
         offset="1" />
    </linearGradient>
    <radialGradient
       id="radialGradient2493"
       xlink:href="#linearGradient5060"
       gradientUnits="userSpaceOnUse"
       cy="486.64999"
       cx="605.71002"
       gradientTransform="matrix(0.02304,0,0,0.0147,26.361,37.04)"
       r="117.14" />
    <linearGradient
       id="linearGradient2490"
       y2="2.9061999"
       gradientUnits="userSpaceOnUse"
       x2="-51.785999"
       gradientTransform="matrix(0.8075,0,0,0.89483,59.41,-2.9806)"
       y1="50.785999"
       x1="-51.785999">
      <stop
         id="stop3106"
         style="stop-color:#aaa"
         offset="0" />
      <stop
         id="stop3108"
         style="stop-color:#c8c8c8"
         offset="1" />
    </linearGradient>
    <linearGradient
       id="linearGradient2488"
       y2="47.013"
       gradientUnits="userSpaceOnUse"
       x2="25.132"
       gradientTransform="matrix(1,0,0,0.95617,-1.0065e-7,-1.9149)"
       y1="0.98521"
       x1="25.132">
      <stop
         id="stop3602"
         style="stop-color:#f4f4f4"
         offset="0" />
      <stop
         id="stop3604"
         style="stop-color:#dbdbdb"
         offset="1" />
    </linearGradient>
    <radialGradient
       id="radialGradient2485"
       gradientUnits="userSpaceOnUse"
       cy="112.3"
       cx="102"
       gradientTransform="matrix(0.3617,0,0,-0.39078,0.85106,47.517)"
       r="139.56">
      <stop
         id="stop41"
         style="stop-color:#b7b8b9"
         offset="0" />
      <stop
         id="stop47"
         style="stop-color:#ececec"
         offset=".18851" />
      <stop
         id="stop49"
         style="stop-color:#fafafa;stop-opacity:0"
         offset=".25718" />
      <stop
         id="stop51"
         style="stop-color:#fff;stop-opacity:0"
         offset=".30111" />
      <stop
         id="stop53"
         style="stop-color:#fafafa;stop-opacity:0"
         offset=".53130" />
      <stop
         id="stop55"
         style="stop-color:#ebecec;stop-opacity:0"
         offset=".84490" />
      <stop
         id="stop57"
         style="stop-color:#e1e2e3;stop-opacity:0"
         offset="1" />
    </radialGradient>
    <linearGradient
       id="linearGradient2482"
       y2="46.016998"
       gradientUnits="userSpaceOnUse"
       x2="24"
       gradientTransform="matrix(1,0,0,0.97778,0,-0.96667)"
       y1="2"
       x1="24">
      <stop
         id="stop3213"
         style="stop-color:#fff"
         offset="0" />
      <stop
         id="stop3215"
         style="stop-color:#fff;stop-opacity:0"
         offset="1" />
    </linearGradient>
    <filter
       id="filter3212"
       height="1.3286999"
       width="1.2969"
       color-interpolation-filters="sRGB"
       y="-0.16434"
       x="-0.14846">
      <feGaussianBlur
         id="feGaussianBlur3214"
         stdDeviation="0.77391625" />
    </filter>
    <linearGradient
       id="linearGradient2460"
       y2="5.4565001"
       gradientUnits="userSpaceOnUse"
       x2="36.358002"
       gradientTransform="matrix(0.9977,0,0,1.0407,0.1638,-1.1058)"
       y1="8.059"
       x1="32.891998">
      <stop
         id="stop8591"
         style="stop-color:#fefefe"
         offset="0" />
      <stop
         id="stop8593"
         style="stop-color:#cbcbcb"
         offset="1" />
    </linearGradient>
    <linearGradient
       id="linearGradient3741"
       y2="17.5"
       gradientUnits="userSpaceOnUse"
       x2="24.950001"
       gradientTransform="matrix(1.0526,0,0,1,-1.2632,-4.5)"
       y1="13.5"
       x1="24.950001">
      <stop
         id="stop3737"
         style="stop-color:#c1c1c1"
         offset="0" />
      <stop
         id="stop3739"
         style="stop-color:#cecece"
         offset="1" />
    </linearGradient>
  </defs>
  <g
     id="layer1"
     transform="matrix(0.65910551,0,0,0.65910551,0.18680651,6.428e-4)">
    <rect
       id="rect2879"
       style="opacity:0.3;fill:url(#linearGradient2499)"
       height="3.5701001"
       width="32.507999"
       y="42.43"
       x="7.7378001" />
    <path
       id="path2881"
       style="opacity:0.3;fill:url(#radialGradient2496)"
       d="m 7.7378,42.43 v 3.5699 c -1.1865,0.0067 -2.8684,-0.79982 -2.8684,-1.7852 0,-0.98533 1.324,-1.7847 2.8684,-1.7847 z"
       inkscape:connector-curvature="0" />
    <path
       id="path2883"
       style="opacity:0.3;fill:url(#radialGradient2493)"
       d="m 40.246,42.43 v 3.5699 c 1.1865,0.0067 2.8684,-0.79982 2.8684,-1.7852 0,-0.98533 -1.324,-1.7847 -2.8684,-1.7847 z"
       inkscape:connector-curvature="0" />
    <path
       id="path4160"
       style="fill:url(#linearGradient2488);stroke:url(#linearGradient2490);stroke-width:0.99992001;stroke-linejoin:round"
       d="m 6.5,0.4972 h 24.061 c 1.4069,0.47465 8.9655,5.8822 10.939,9.6264 v 34.379 H 6.5 V 0.4966 z"
       inkscape:connector-curvature="0" />
    <path
       id="path4191"
       style="fill:url(#radialGradient2485)"
       d="M 7.3617,44 C 7.1624,44 7,43.82454 7,43.60922 V 1.40522 C 7,1.18951 7.1624,1.01444 7.3617,1.01444 c 7.4833,0.1082 15.775,-0.16138 23.249,0.0271 l 10.283,8.866 0.106,33.702 c 0,0.216 -0.162,0.391 -0.362,0.391 H 7.3617 z"
       inkscape:connector-curvature="0" />
    <path
       id="path2435"
       style="opacity:0.6;fill:none;stroke:url(#linearGradient2482);stroke-width:0.99992001;stroke-linejoin:round"
       d="M 40.5,10.259 V 43.522 H 7.5 V 1.477 h 22.866"
       inkscape:connector-curvature="0" />
    <path
       id="path2503"
       style="fill:none;stroke:#b3b3b3;stroke-width:1px"
       d="M 11.5,4 V 35"
       inkscape:connector-curvature="0" />
    <path
       id="path2505"
       style="fill:none;stroke:#b3b3b3;stroke-width:1px"
       d="m 36.5,5.9744 v 29.026"
       inkscape:connector-curvature="0" />
    <path
       id="path2509"
       style="fill:none;stroke:#b3b3b3;stroke-width:1px"
       d="m 9.9655,6.5 h 26.069"
       inkscape:connector-curvature="0" />
    <path
       id="path12038"
       style="opacity:0.4;fill-rule:evenodd;filter:url(#filter3212)"
       d="m 28.617,0.92126 c 4.2825,0 2.1532,8.4832 2.1532,8.4832 0,0 10.358,-1.8023 10.358,2.8187 0,-2.6097 -11.302,-10.729 -12.511,-11.302 z"
       inkscape:connector-curvature="0" />
    <path
       id="path4474"
       style="fill:url(#linearGradient2460);fill-rule:evenodd"
       d="m 28.617,0.92126 c 3.1865,0 2.3358,7.6619 2.3358,7.6619 0,0 10.175,-0.98105 10.175,3.64 0,-1.1259 0.08591,-1.9322 -0.13378,-2.2836 -1.578,-2.5243 -8.395,-8.1885 -10.857,-8.9309 -0.184,-0.05556 -0.593,-0.08754 -1.52,-0.08754 z"
       inkscape:connector-curvature="0" />
    <path
       id="path2513"
       style="fill:none;stroke:#b3b3b3;stroke-width:1px"
       d="M 9,32.5 H 38"
       inkscape:connector-curvature="0" />
    <path
       id="path3406"
       style="opacity:0.6;fill:#b3b3b3"
       d="m 14,15.002 h 2.3458 v 1 H 14 v -1 z"
       inkscape:connector-curvature="0" />
    <path
       id="path3404"
       style="opacity:0.6;fill:#b3b3b3"
       d="m 16.665,15.002 h 2.2134 v 1 H 16.665 v -1 z"
       inkscape:connector-curvature="0" />
    <path
       id="path3402"
       style="opacity:0.6;fill:#b3b3b3"
       d="m 19.198,15.002 h 1.9485 v 1 H 19.198 v -1 z"
       inkscape:connector-curvature="0" />
    <path
       id="path3397"
       style="opacity:0.6;fill:#b3b3b3"
       d="m 22.642,15.002 h 1.9154 v 1 H 22.642 v -1 z"
       inkscape:connector-curvature="0" />
    <path
       id="path3395"
       style="opacity:0.6;fill:#b3b3b3"
       d="m 24.877,15.002 h 4.9616 v 1 H 24.877 v -1 z"
       inkscape:connector-curvature="0" />
    <path
       id="path3392"
       style="opacity:0.6;fill:#b3b3b3"
       d="m 30.158,15.002 h 3.7696 v 1 H 30.158 v -1 z"
       inkscape:connector-curvature="0" />
    <path
       id="path3385"
       style="opacity:0.6;fill:#b3b3b3"
       d="m 14,21.002 h 3.6918 v 1 H 14 v -1 z"
       inkscape:connector-curvature="0" />
    <path
       id="path3383"
       style="opacity:0.6;fill:#b3b3b3"
       d="m 17.966,21.002 h 1.7762 v 1 H 17.966 v -1 z"
       inkscape:connector-curvature="0" />
    <path
       id="path3381"
       style="opacity:0.6;fill:#b3b3b3"
       d="m 20.117,21.002 h 0.83512 v 1 H 20.117 v -1 z"
       inkscape:connector-curvature="0" />
    <path
       id="path3379"
       style="opacity:0.6;fill:#b3b3b3"
       d="m 21.159,21.002 h 1.6081 v 1 H 21.159 v -1 z"
       inkscape:connector-curvature="0" />
    <path
       id="path3373"
       style="opacity:0.6;fill:#b3b3b3"
       d="m 23.041,21.002 h 1.6081 v 1 H 23.041 v -1 z"
       inkscape:connector-curvature="0" />
    <path
       id="path3363"
       style="opacity:0.6;fill:#b3b3b3"
       d="m 14,17.002 h 3.928 v 1 H 14 v -1 z"
       inkscape:connector-curvature="0" />
    <path
       id="path3361"
       style="opacity:0.6;fill:#b3b3b3"
       d="m 18.236,17.002 h 4.2089 v 1 H 18.236 v -1 z"
       inkscape:connector-curvature="0" />
    <path
       id="path3359"
       style="opacity:0.6;fill:#b3b3b3"
       d="m 22.753,17.002 h 1.6808 v 1 H 22.753 v -1 z"
       inkscape:connector-curvature="0" />
    <path
       id="path3347"
       style="opacity:0.6;fill:#b3b3b3"
       d="m 14,19.002 h 4.2851 v 1 H 14 v -1 z"
       inkscape:connector-curvature="0" />
    <path
       id="path3345"
       style="opacity:0.6;fill:#b3b3b3"
       d="m 18.621,19.002 h 4.5916 v 1 H 18.621 v -1 z"
       inkscape:connector-curvature="0" />
    <path
       id="path3343"
       style="opacity:0.6;fill:#b3b3b3"
       d="m 23.549,19.002 h 1.8336 v 1 H 23.549 v -1 z"
       inkscape:connector-curvature="0" />
    <path
       id="path3176"
       style="opacity:0.6;fill:#b3b3b3"
       d="m 14,27.002 h 3.6918 v 1 H 14 v -1 z"
       inkscape:connector-curvature="0" />
    <path
       id="path3174"
       style="opacity:0.6;fill:#b3b3b3"
       d="m 17.966,27.002 h 1.7762 v 1 H 17.966 v -1 z"
       inkscape:connector-curvature="0" />
    <path
       id="path3172"
       style="opacity:0.6;fill:#b3b3b3"
       d="m 20.117,27.002 h 0.83512 v 1 H 20.117 v -1 z"
       inkscape:connector-curvature="0" />
    <path
       id="path3170"
       style="opacity:0.6;fill:#b3b3b3"
       d="m 21.159,27.002 h 1.6081 v 1 H 21.159 v -1 z"
       inkscape:connector-curvature="0" />
    <path
       id="path3168"
       style="opacity:0.6;fill:#b3b3b3"
       d="m 23.041,27.002 h 1.6081 v 1 H 23.041 v -1 z"
       inkscape:connector-curvature="0" />
    <path
       id="path3166"
       style="opacity:0.6;fill:#b3b3b3"
       d="m 25.158,27.002 h 2.5827 v 1 H 25.158 v -1 z"
       inkscape:connector-curvature="0" />
    <path
       id="path3164"
       style="opacity:0.6;fill:#b3b3b3"
       d="m 28.048,27.002 h 3.3893 v 1 H 28.048 v -1 z"
       inkscape:connector-curvature="0" />
    <path
       id="path3162"
       style="opacity:0.6;fill:#b3b3b3"
       d="m 31.913,27.002 h 2.2803 v 1 H 31.913 v -1 z"
       inkscape:connector-curvature="0" />
    <path
       id="path3158"
       style="opacity:0.6;fill:#b3b3b3"
       d="m 14,25.002 h 3.0616 v 1 H 14 v -1 z"
       inkscape:connector-curvature="0" />
    <path
       id="path3156"
       style="opacity:0.6;fill:#b3b3b3"
       d="m 17.387,25.002 h 5.0835 v 1 H 17.387 v -1 z"
       inkscape:connector-curvature="0" />
    <path
       id="path3154"
       style="opacity:0.6;fill:#b3b3b3"
       d="m 22.796,25.002 h 2.455 v 1 h -2.455 v -1 z"
       inkscape:connector-curvature="0" />
    <path
       id="path3152"
       style="opacity:0.6;fill:#b3b3b3"
       d="m 28.188,25.002 h 1.9495 v 1 H 28.188 v -1 z"
       inkscape:connector-curvature="0" />
    <path
       id="path3150"
       style="opacity:0.6;fill:#b3b3b3"
       d="m 30.462,25.002 h 3.129 v 1 h -3.129 v -1 z"
       inkscape:connector-curvature="0" />
    <path
       id="path3146"
       style="opacity:0.6;fill:#b3b3b3"
       d="m 25.576,25.002 h 2.2865 v 1 H 25.576 v -1 z"
       inkscape:connector-curvature="0" />
    <path
       id="path35069"
       style="opacity:0.6;fill:#b3b3b3"
       d="m 14,29 h 3.8687 v 1 h -3.869 v -1 z"
       inkscape:connector-curvature="0" />
    <path
       id="path35067"
       style="opacity:0.6;fill:#b3b3b3"
       d="m 18.188,29 h 1.2182 v 1 H 18.188 v -1 z"
       inkscape:connector-curvature="0" />
    <path
       id="path35065"
       style="opacity:0.6;fill:#b3b3b3"
       d="m 19.726,29 h 2.7813 v 1 H 19.726 v -1 z"
       inkscape:connector-curvature="0" />
    <path
       id="path35063"
       style="opacity:0.6;fill:#b3b3b3"
       d="m 22.827,29 h 1.8978 v 1 H 22.827 v -1 z"
       inkscape:connector-curvature="0" />
    <path
       id="path35061"
       style="opacity:0.6;fill:#b3b3b3"
       d="m 25.044,29 h 1.8978 v 1 H 25.044 v -1 z"
       inkscape:connector-curvature="0" />
    <path
       id="path35059"
       style="opacity:0.6;fill:#b3b3b3"
       d="m 27.261,29 h 2.7473 v 1 H 27.261 v -1 z"
       inkscape:connector-curvature="0" />
    <path
       id="path35057"
       style="opacity:0.6;fill:#b3b3b3"
       d="m 30.328,29 h 0.57256 v 1 H 30.328 v -1 z"
       inkscape:connector-curvature="0" />
    <path
       id="path35055"
       style="opacity:0.6;fill:#b3b3b3"
       d="m 31.22,29 h 3 v 1 h -3 v -1 z"
       inkscape:connector-curvature="0" />
    <rect
       id="rect2963"
       style="fill:url(#linearGradient3741)"
       rx="0.91034001"
       ry="0.91034001"
       height="4"
       width="20"
       y="9"
       x="14" />
    <path
       id="path3743"
       style="opacity:0.6;fill:#797979"
       d="m 15,11 h 2.3458 v 1 h -2.346 v -1 z"
       inkscape:connector-curvature="0" />
    <path
       id="path3747"
       style="opacity:0.6;fill:#797979"
       d="m 19,11 h 1.9485 v 1 h -1.948 v -1 z"
       inkscape:connector-curvature="0" />
    <path
       id="path3751"
       style="opacity:0.6;fill:#797979"
       d="m 23,11 h 1.9154 v 1 h -1.915 v -1 z"
       inkscape:connector-curvature="0" />
    <rect
       id="rect3757"
       style="fill:none;stroke:#c1c1c1"
       rx="0"
       ry="0"
       height="5"
       width="7"
       y="17.5"
       x="26.5" />
    <path
       id="path3759"
       style="opacity:0.6;fill:#b3b3b3"
       d="m 14,23 h 4.2851 v 1 h -4.285 v -1 z"
       inkscape:connector-curvature="0" />
    <path
       id="path3761"
       style="opacity:0.6;fill:#b3b3b3"
       d="m 18.621,23 h 4.5916 v 1 H 18.621 v -1 z"
       inkscape:connector-curvature="0" />
    <path
       id="path3763"
       style="opacity:0.6;fill:#b3b3b3"
       d="m 23.549,23 h 1.8336 v 1 H 23.549 v -1 z"
       inkscape:connector-curvature="0" />
    <path
       id="text2019"
       style="fill:#808080"
       d="m 20.449,35.809 v 1.3896 c -0.71457,-0.51102 -1.8535,-0.71517 -2.5364,-0.04759 -0.51973,0.59582 -0.52464,1.5721 -0.09257,2.2172 0.58925,0.73706 1.7466,0.62057 2.4731,0.16217 0.27775,-0.27192 0.11059,0.30836 0.15586,0.48335 v 0.80151 c -1.2174,0.42697 -2.722,0.46783 -3.7885,-0.35324 -0.99853,-0.8109 -1.1351,-2.3188 -0.66044,-3.4491 0.49188,-1.1109 1.779,-1.5538 2.9164,-1.4977 0.52209,0.01309 1.0419,0.11572 1.5325,0.29385 v -10e-7 z m 5.6439,0 v 1.2944 c -0.83726,-0.33287 -1.7834,-0.60926 -2.6777,-0.36211 -0.74172,0.3898 0.09789,0.99631 0.62553,0.89085 0.72857,0.12072 1.5799,0.15537 2.1106,0.73328 0.52682,0.74292 0.3831,2.0004 -0.49641,2.4169 -1.1257,0.51057 -2.4188,0.34673 -3.5906,0.09053 -0.41497,0.03375 -0.39154,-0.27777 -0.36852,-0.58392 v -0.80619 c 0.86282,0.39738 1.8813,0.65254 2.8169,0.38925 0.78661,-0.41785 -0.07035,-1.0915 -0.65074,-0.96872 -0.73627,-0.1055 -1.657,-0.18438 -2.0686,-0.89842 -0.39039,-0.78069 -0.1705,-1.95 0.73106,-2.2607 1.1456,-0.41073 2.4144,-0.21095 3.5685,0.06484 v -1e-6 z m 5.8057,0 v 1.2944 c -0.83727,-0.33287 -1.7834,-0.60926 -2.6777,-0.36211 -0.74171,0.3898 0.0979,0.99631 0.62554,0.89085 0.72857,0.12072 1.5799,0.15537 2.1106,0.73328 0.52681,0.74292 0.3831,2.0004 -0.49642,2.4169 -1.1257,0.51057 -2.4188,0.34673 -3.5906,0.09053 -0.41497,0.03375 -0.39154,-0.27777 -0.36853,-0.58392 v -0.80619 c 0.86283,0.39738 1.8813,0.65254 2.8169,0.38925 0.7866,-0.41785 -0.07035,-1.0915 -0.65074,-0.96872 -0.73628,-0.1055 -1.657,-0.18438 -2.0686,-0.89842 -0.39039,-0.78069 -0.1705,-1.95 0.73106,-2.2607 1.1456,-0.41073 2.4144,-0.21095 3.5685,0.06484 v -1e-6 z"
       inkscape:connector-curvature="0" />
  </g>
</svg>
