<?xml version="1.0" encoding="UTF-8" standalone="no"?>
<!-- Created with Inkscape (http://www.inkscape.org/) -->

<svg
   xmlns:dc="http://purl.org/dc/elements/1.1/"
   xmlns:cc="http://creativecommons.org/ns#"
   xmlns:rdf="http://www.w3.org/1999/02/22-rdf-syntax-ns#"
   xmlns:svg="http://www.w3.org/2000/svg"
   xmlns="http://www.w3.org/2000/svg"
   xmlns:xlink="http://www.w3.org/1999/xlink"
   xmlns:sodipodi="http://sodipodi.sourceforge.net/DTD/sodipodi-0.dtd"
   xmlns:inkscape="http://www.inkscape.org/namespaces/inkscape"
   id="svg3323"
   height="32"
   width="32"
   version="1.0"
   inkscape:version="0.48.1 r9760"
   sodipodi:docname="text-x-readme.svg">
  <metadata
     id="metadata47">
    <rdf:RDF>
      <cc:Work
         rdf:about="">
        <dc:format>image/svg+xml</dc:format>
        <dc:type
           rdf:resource="http://purl.org/dc/dcmitype/StillImage" />
      </cc:Work>
    </rdf:RDF>
  </metadata>
  <sodipodi:namedview
     pagecolor="#ffffff"
     bordercolor="#666666"
     borderopacity="1"
     objecttolerance="10"
     gridtolerance="10"
     guidetolerance="10"
     inkscape:pageopacity="0"
     inkscape:pageshadow="2"
     inkscape:window-width="1366"
     inkscape:window-height="688"
     id="namedview45"
     showgrid="false"
     inkscape:zoom="256"
     inkscape:cx="11.854979"
     inkscape:cy="31.93603"
     inkscape:window-x="0"
     inkscape:window-y="25"
     inkscape:window-maximized="1"
     inkscape:current-layer="svg3323" />
  <defs
     id="defs3325">
    <linearGradient
       id="linearGradient5060">
      <stop
         id="stop5062"
         offset="0" />
      <stop
         id="stop5064"
         style="stop-opacity:0"
         offset="1" />
    </linearGradient>
    <filter
       id="filter3212"
       height="1.3286999"
       width="1.2969"
       color-interpolation-filters="sRGB"
       y="-0.16434"
       x="-0.14846">
      <feGaussianBlur
         id="feGaussianBlur3214"
         stdDeviation="0.77391625" />
    </filter>
    <linearGradient
       id="linearGradient2431"
       y2="5.4565001"
       gradientUnits="userSpaceOnUse"
       x2="36.358002"
       gradientTransform="matrix(0.9977,0,0,1.0407,0.1638,-17.1058)"
       y1="8.059"
       x1="32.891998">
      <stop
         id="stop8591"
         style="stop-color:#fefefe"
         offset="0" />
      <stop
         id="stop8593"
         style="stop-color:#cbcbcb"
         offset="1" />
    </linearGradient>
    <linearGradient
       id="linearGradient2435"
       y2="46.016998"
       gradientUnits="userSpaceOnUse"
       x2="24"
       gradientTransform="matrix(1,0,0,0.97778,0,-16.96667)"
       y1="2"
       x1="24">
      <stop
         id="stop3213"
         style="stop-color:#fff"
         offset="0" />
      <stop
         id="stop3215"
         style="stop-color:#fff;stop-opacity:0"
         offset="1" />
    </linearGradient>
    <radialGradient
       id="radialGradient2438"
       gradientUnits="userSpaceOnUse"
       cy="112.3"
       cx="102"
       gradientTransform="matrix(0.3617,0,0,-0.39078,0.85106,31.517)"
       r="139.56">
      <stop
         id="stop41"
         style="stop-color:#b7b8b9"
         offset="0" />
      <stop
         id="stop47"
         style="stop-color:#ececec"
         offset=".18851" />
      <stop
         id="stop49"
         style="stop-color:#fafafa;stop-opacity:0"
         offset=".25718" />
      <stop
         id="stop51"
         style="stop-color:#fff;stop-opacity:0"
         offset=".30111" />
      <stop
         id="stop53"
         style="stop-color:#fafafa;stop-opacity:0"
         offset=".53130" />
      <stop
         id="stop55"
         style="stop-color:#ebecec;stop-opacity:0"
         offset=".84490" />
      <stop
         id="stop57"
         style="stop-color:#e1e2e3;stop-opacity:0"
         offset="1" />
    </radialGradient>
    <linearGradient
       id="linearGradient2441"
       y2="47.013"
       gradientUnits="userSpaceOnUse"
       x2="25.132"
       gradientTransform="matrix(1,0,0,0.95617,-1.0065e-7,-17.9149)"
       y1="0.98521"
       x1="25.132">
      <stop
         id="stop3602"
         style="stop-color:#f4f4f4"
         offset="0" />
      <stop
         id="stop3604"
         style="stop-color:#dbdbdb"
         offset="1" />
    </linearGradient>
    <linearGradient
       id="linearGradient2443"
       y2="2.9061999"
       gradientUnits="userSpaceOnUse"
       x2="-51.785999"
       gradientTransform="matrix(0.8075,0,0,0.89483,59.41,-18.9806)"
       y1="50.785999"
       x1="-51.785999">
      <stop
         id="stop3106"
         style="stop-color:#aaa"
         offset="0" />
      <stop
         id="stop3108"
         style="stop-color:#c8c8c8"
         offset="1" />
    </linearGradient>
    <radialGradient
       id="radialGradient2446"
       xlink:href="#linearGradient5060"
       gradientUnits="userSpaceOnUse"
       cy="486.64999"
       cx="605.71002"
       gradientTransform="matrix(0.02304,0,0,0.0147,26.361,21.04)"
       r="117.14" />
    <radialGradient
       id="radialGradient2449"
       xlink:href="#linearGradient5060"
       gradientUnits="userSpaceOnUse"
       cy="486.64999"
       cx="605.71002"
       gradientTransform="matrix(-0.02304,0,0,0.0147,21.623,21.04)"
       r="117.14" />
    <linearGradient
       id="linearGradient2452"
       y2="609.51001"
       gradientUnits="userSpaceOnUse"
       x2="302.85999"
       gradientTransform="matrix(0.067325,0,0,0.0147,-0.34114,21.04)"
       y1="366.64999"
       x1="302.85999">
      <stop
         id="stop5050"
         style="stop-opacity:0"
         offset="0" />
      <stop
         id="stop5056"
         offset=".5" />
      <stop
         id="stop5052"
         style="stop-opacity:0"
         offset="1" />
    </linearGradient>
    <linearGradient
       inkscape:collect="always"
       xlink:href="#linearGradient2452"
       id="linearGradient3036"
       gradientUnits="userSpaceOnUse"
       gradientTransform="matrix(0.067325,0,0,0.0147,-0.34114,21.04)"
       x1="302.85999"
       y1="366.64999"
       x2="302.85999"
       y2="609.51001" />
    <radialGradient
       inkscape:collect="always"
       xlink:href="#linearGradient5060"
       id="radialGradient3038"
       gradientUnits="userSpaceOnUse"
       gradientTransform="matrix(-0.02304,0,0,0.0147,21.623,21.04)"
       cx="605.71002"
       cy="486.64999"
       r="117.14" />
    <radialGradient
       inkscape:collect="always"
       xlink:href="#linearGradient5060"
       id="radialGradient3040"
       gradientUnits="userSpaceOnUse"
       gradientTransform="matrix(0.02304,0,0,0.0147,26.361,21.04)"
       cx="605.71002"
       cy="486.64999"
       r="117.14" />
    <linearGradient
       inkscape:collect="always"
       xlink:href="#linearGradient2441"
       id="linearGradient3042"
       gradientUnits="userSpaceOnUse"
       gradientTransform="matrix(1,0,0,0.95617,-1.0065e-7,-17.9149)"
       x1="25.132"
       y1="0.98521"
       x2="25.132"
       y2="47.013" />
    <linearGradient
       inkscape:collect="always"
       xlink:href="#linearGradient2443"
       id="linearGradient3044"
       gradientUnits="userSpaceOnUse"
       gradientTransform="matrix(0.8075,0,0,0.89483,59.41,-18.9806)"
       x1="-51.785999"
       y1="50.785999"
       x2="-51.785999"
       y2="2.9061999" />
    <radialGradient
       inkscape:collect="always"
       xlink:href="#radialGradient2438"
       id="radialGradient3046"
       gradientUnits="userSpaceOnUse"
       gradientTransform="matrix(0.3617,0,0,-0.39078,0.85106,31.517)"
       cx="102"
       cy="112.3"
       r="139.56" />
    <linearGradient
       inkscape:collect="always"
       xlink:href="#linearGradient2435"
       id="linearGradient3048"
       gradientUnits="userSpaceOnUse"
       gradientTransform="matrix(1,0,0,0.97778,0,-16.96667)"
       x1="24"
       y1="2"
       x2="24"
       y2="46.016998" />
    <linearGradient
       inkscape:collect="always"
       xlink:href="#linearGradient2431"
       id="linearGradient3050"
       gradientUnits="userSpaceOnUse"
       gradientTransform="matrix(0.9977,0,0,1.0407,0.1638,-17.1058)"
       x1="32.891998"
       y1="8.059"
       x2="36.358002"
       y2="5.4565001" />
  </defs>
  <g
     id="g3024"
     transform="matrix(0.65910551,0,0,0.65910551,0.18680651,10.547182)">
    <rect
       x="7.7378001"
       y="26.43"
       width="32.507999"
       height="3.5701001"
       style="opacity:0.3;fill:url(#linearGradient3036)"
       id="rect2879" />
    <path
       inkscape:connector-curvature="0"
       d="m 7.7378,26.43 v 3.5699 c -1.1865,0.0067 -2.8684,-0.79982 -2.8684,-1.7852 0,-0.98533 1.324,-1.7847 2.8684,-1.7847 z"
       style="opacity:0.3;fill:url(#radialGradient3038)"
       id="path2881" />
    <path
       inkscape:connector-curvature="0"
       d="m 40.246,26.43 v 3.5699 c 1.1865,0.0067 2.8684,-0.79982 2.8684,-1.7852 0,-0.98533 -1.324,-1.7847 -2.8684,-1.7847 z"
       style="opacity:0.3;fill:url(#radialGradient3040)"
       id="path2883" />
    <path
       inkscape:connector-curvature="0"
       d="m 6.5,-15.5028 h 24.061 c 1.4069,0.47465 8.9655,5.8822 10.939,9.6264 v 34.379 h -35 v -44.006 z"
       style="fill:url(#linearGradient3042);stroke:url(#linearGradient3044);stroke-width:0.99992001;stroke-linejoin:round"
       id="path4160" />
    <path
       inkscape:connector-curvature="0"
       d="M 7.3617,28 C 7.1624,28 7,27.82454 7,27.60922 v -42.204 c 0,-0.21571 0.1624,-0.39078 0.3617,-0.39078 7.4833,0.1082 15.775,-0.16138 23.249,0.0271 l 10.283,8.866 0.106,33.702 c 0,0.216 -0.162,0.391 -0.362,0.391 H 7.3617 z"
       style="fill:url(#radialGradient3046)"
       id="path4191" />
    <path
       inkscape:connector-curvature="0"
       d="M 40.5,-5.741 V 27.522 H 7.5 V -14.523 H 30.366"
       style="opacity:0.6;fill:none;stroke:url(#linearGradient3048);stroke-width:0.99992001;stroke-linejoin:round"
       id="path2435" />
    <path
       inkscape:connector-curvature="0"
       d="m 28.617,-15.07874 c 4.2825,0 2.1532,8.4832 2.1532,8.4832 0,0 10.358,-1.8023 10.358,2.8187 0,-2.6097 -11.302,-10.729 -12.511,-11.302 z"
       style="opacity:0.4;fill-rule:evenodd;filter:url(#filter3212)"
       id="path12038" />
    <path
       inkscape:connector-curvature="0"
       d="m 28.617,-15.07874 c 3.1865,0 2.3358,7.6619 2.3358,7.6619 0,0 10.175,-0.98105 10.175,3.64 0,-1.1259 0.08591,-1.9322 -0.13378,-2.2836 -1.578,-2.5243 -8.395,-8.1885 -10.857,-8.9309 -0.184,-0.05556 -0.593,-0.08754 -1.52,-0.08754 z"
       style="fill:url(#linearGradient3050);fill-rule:evenodd"
       id="path4474" />
    <path
       inkscape:connector-curvature="0"
       d="m 18,7.213 c 0.25815,0.70177 0.54872,1.2706 1.1677,0.4928 0.76735,-0.45655 3.3384,-2.4578 3.0812,-0.49753 -0.82326,3.6273 -1.8254,7.2164 -2.5916,10.855 -0.80118,1.9922 1.0182,3.7943 2.9177,2.4987 2.0191,-0.83234 3.7565,-2.1881 5.5314,-3.4318 -0.24218,-0.59393 -0.4036,-1.4471 -1.0728,-0.67038 -0.87865,0.39881 -2.7977,2.279 -3.1543,0.72827 0.73806,-3.9277 2.1055,-7.71 2.9796,-11.606 0.8044,-1.7915 -0.50934,-4.0552 -2.4759,-2.5732 -2.356,1.026 -4.326,2.702 -6.383,4.204 z m 8.7437,-13.21 c -2.4038,-0.12757 -3.6605,3.7474 -1.3763,4.8077 1.8532,0.76002 3.871,-1.1407 3.4183,-3.0399 -0.1405,-0.98896 -1.0284,-1.8011 -2.0421,-1.7678 h -1e-6 z"
       style="opacity:0.4"
       id="text3482" />
    <path
       inkscape:connector-curvature="0"
       d="m 18,8.213 c 0.25815,0.70177 0.54872,1.2706 1.1677,0.4928 0.76735,-0.45655 3.3384,-2.4578 3.0812,-0.49753 -0.82326,3.6273 -1.8254,7.2164 -2.5916,10.855 -0.80118,1.9922 1.0182,3.7943 2.9177,2.4987 2.0191,-0.83234 3.7565,-2.1881 5.5314,-3.4318 -0.24218,-0.59393 -0.4036,-1.4471 -1.0728,-0.67038 -0.87865,0.39881 -2.7977,2.279 -3.1543,0.72827 0.73806,-3.9277 2.1055,-7.71 2.9796,-11.606 0.8044,-1.7915 -0.50934,-4.0552 -2.4759,-2.5732 -2.356,1.026 -4.326,2.702 -6.383,4.204 z m 8.7437,-13.21 c -2.4038,-0.12757 -3.6605,3.7474 -1.3763,4.8077 1.8532,0.76002 3.871,-1.1407 3.4183,-3.0399 -0.1405,-0.98896 -1.0284,-1.8011 -2.0421,-1.7678 h -1e-6 z"
       style="opacity:0.4;fill:#ffffff"
       id="path3536" />
  </g>
</svg>
