<?xml version="1.0" encoding="UTF-8" standalone="no"?>
<!-- Created with Inkscape (http://www.inkscape.org/) -->

<svg
   xmlns:dc="http://purl.org/dc/elements/1.1/"
   xmlns:cc="http://creativecommons.org/ns#"
   xmlns:rdf="http://www.w3.org/1999/02/22-rdf-syntax-ns#"
   xmlns:svg="http://www.w3.org/2000/svg"
   xmlns="http://www.w3.org/2000/svg"
   xmlns:xlink="http://www.w3.org/1999/xlink"
   xmlns:sodipodi="http://sodipodi.sourceforge.net/DTD/sodipodi-0.dtd"
   xmlns:inkscape="http://www.inkscape.org/namespaces/inkscape"
   width="22"
   height="22"
   id="svg2980"
   version="1.1"
   inkscape:version="0.47 r22583"
   sodipodi:docname="scalable2.svg">
  <defs
     id="defs2982">
    <linearGradient
       id="linearGradient3635">
      <stop
         style="stop-color:#000000;stop-opacity:1;"
         offset="0"
         id="stop3637" />
      <stop
         style="stop-color:#363636;stop-opacity:1;"
         offset="1"
         id="stop3639" />
    </linearGradient>
    <inkscape:perspective
       sodipodi:type="inkscape:persp3d"
       inkscape:vp_x="0 : 526.18109 : 1"
       inkscape:vp_y="0 : 1000 : 0"
       inkscape:vp_z="744.09448 : 526.18109 : 1"
       inkscape:persp3d-origin="372.04724 : 350.78739 : 1"
       id="perspective2988" />
    <inkscape:perspective
       id="perspective2955"
       inkscape:persp3d-origin="0.5 : 0.33333333 : 1"
       inkscape:vp_z="1 : 0.5 : 1"
       inkscape:vp_y="0 : 1000 : 0"
       inkscape:vp_x="0 : 0.5 : 1"
       sodipodi:type="inkscape:persp3d" />
    <linearGradient
       id="linearGradient3431">
      <stop
         id="stop3433"
         offset="0"
         style="stop-color:#3d3d3d;stop-opacity:1;" />
      <stop
         id="stop3435"
         offset="1"
         style="stop-color:#000000;stop-opacity:0.11400651;" />
    </linearGradient>
    <linearGradient
       id="linearGradient3312">
      <stop
         style="stop-color:#c7f994;stop-opacity:1;"
         offset="0"
         id="stop3314" />
      <stop
         style="stop-color:#87cf3e;stop-opacity:1;"
         offset="1"
         id="stop3316" />
    </linearGradient>
    <linearGradient
       inkscape:collect="always"
       xlink:href="#linearGradient3312"
       id="linearGradient3048"
       gradientUnits="userSpaceOnUse"
       gradientTransform="matrix(2.7085493,0,0,2.7085493,543.08426,-420.26637)"
       x1="61.42857"
       y1="362.14285"
       x2="116.42857"
       y2="408.57144" />
    <linearGradient
       inkscape:collect="always"
       xlink:href="#linearGradient3431"
       id="linearGradient3050"
       gradientUnits="userSpaceOnUse"
       gradientTransform="translate(0,80)"
       spreadMethod="pad"
       x1="70.491508"
       y1="416.38858"
       x2="113.64215"
       y2="375.87961" />
    <linearGradient
       inkscape:collect="always"
       xlink:href="#linearGradient3312"
       id="linearGradient3613"
       gradientUnits="userSpaceOnUse"
       gradientTransform="matrix(6.3016252,0,0,6.3016252,-247.67412,-1975.5116)"
       x1="61.42857"
       y1="362.14285"
       x2="116.42857"
       y2="408.57144" />
    <linearGradient
       inkscape:collect="always"
       xlink:href="#linearGradient3312"
       id="linearGradient3621"
       gradientUnits="userSpaceOnUse"
       gradientTransform="matrix(6.3016252,0,0,6.3016252,-247.67412,-1975.5116)"
       x1="61.42857"
       y1="362.14285"
       x2="116.42857"
       y2="408.57144" />
    <linearGradient
       inkscape:collect="always"
       xlink:href="#linearGradient3312"
       id="linearGradient3628"
       gradientUnits="userSpaceOnUse"
       gradientTransform="matrix(0.19431357,0,0,0.19686006,-8.218473,-66.2499)"
       x1="61.42857"
       y1="362.14285"
       x2="116.42857"
       y2="408.57144" />
    <linearGradient
       inkscape:collect="always"
       xlink:href="#linearGradient3635"
       id="linearGradient3641"
       x1="93.712837"
       y1="734.39612"
       x2="93.712837"
       y2="750.39612"
       gradientUnits="userSpaceOnUse" />
    <linearGradient
       inkscape:collect="always"
       xlink:href="#linearGradient3635"
       id="linearGradient3643"
       gradientUnits="userSpaceOnUse"
       x1="10"
       y1="3"
       x2="10"
       y2="19" />
    <linearGradient
       inkscape:collect="always"
       xlink:href="#linearGradient3635"
       id="linearGradient3616"
       gradientUnits="userSpaceOnUse"
       x1="93.712837"
       y1="734.39612"
       x2="93.712837"
       y2="750.39612" />
    <linearGradient
       inkscape:collect="always"
       xlink:href="#linearGradient3635"
       id="linearGradient3619"
       gradientUnits="userSpaceOnUse"
       x1="93.712837"
       y1="734.39612"
       x2="93.712837"
       y2="750.39612" />
    <linearGradient
       inkscape:collect="always"
       xlink:href="#linearGradient3635"
       id="linearGradient3622"
       gradientUnits="userSpaceOnUse"
       x1="10"
       y1="3"
       x2="10"
       y2="19"
       gradientTransform="translate(83.712835,731.39614)" />
    <linearGradient
       inkscape:collect="always"
       xlink:href="#linearGradient3635"
       id="linearGradient3629"
       gradientUnits="userSpaceOnUse"
       x1="10"
       y1="3"
       x2="10"
       y2="19" />
    <linearGradient
       inkscape:collect="always"
       xlink:href="#linearGradient3635"
       id="linearGradient3632"
       gradientUnits="userSpaceOnUse"
       x1="10"
       y1="3"
       x2="10"
       y2="19" />
  </defs>
  <sodipodi:namedview
     id="base"
     pagecolor="#ffffff"
     bordercolor="#666666"
     borderopacity="1.0"
     inkscape:pageopacity="0.0"
     inkscape:pageshadow="2"
     inkscape:zoom="34.363636"
     inkscape:cx="11"
     inkscape:cy="11"
     inkscape:document-units="px"
     inkscape:current-layer="layer1"
     showgrid="true"
     showborder="true"
     inkscape:showpageshadow="true"
     inkscape:window-width="1680"
     inkscape:window-height="998"
     inkscape:window-x="0"
     inkscape:window-y="24"
     inkscape:window-maximized="1"
     borderlayer="true">
    <inkscape:grid
       type="xygrid"
       id="grid3623"
       empspacing="5"
       visible="true"
       enabled="true"
       snapvisiblegridlinesonly="true" />
  </sodipodi:namedview>
  <metadata
     id="metadata2985">
    <rdf:RDF>
      <cc:Work
         rdf:about="">
        <dc:format>image/svg+xml</dc:format>
        <dc:type
           rdf:resource="http://purl.org/dc/dcmitype/StillImage" />
        <dc:title />
      </cc:Work>
    </rdf:RDF>
  </metadata>
  <g
     inkscape:label="Layer 1"
     inkscape:groupmode="layer"
     id="layer1"
     transform="translate(-83.712835,-731.39614)">
    <path
       id="path3635"
       d="m 85.712835,735.39614 0,3.25 1.375,0 c 0.957323,0 1.125,0.66706 1.125,1.59375 l 0,5.75 c 0,2.97999 2.570818,5.40625 5.75,5.40625 l 7.874995,0 c 1.0063,0 1.875,-0.63276 1.875,-1.625 l 0,-8.9375 c 0,-2.97999 -2.56726,-5.40625 -5.749995,-5.40625 l -3.3125,0 -8.9375,-0.0312 z m 4.15625,2.03125 1.59375,0 0,8.1875 c 0,1.09655 0.728453,1.96875 1.59375,1.96875 l 1.78125,0 0,1.65625 -2.0625,0 c -0.732907,-0.0794 -1.395103,-0.42635 -1.9375,-0.96875 -0.634588,-0.64041 -0.96875,-1.40938 -0.96875,-2.3125 l 0,-8.53125 z m 5.9375,1.40625 c 0.702827,0 1.316475,0.26576 1.8125,0.75 0.497481,-0.48504 1.109382,-0.75 1.8125,-0.75 0.716315,0 1.363615,0.25789 1.874995,0.78125 0.51114,0.52308 0.78125,1.16929 0.78125,1.90625 l 0,3.71875 -1.65625,0 0,-3.71875 c 0,-0.28247 -0.11342,-0.48377 -0.3125,-0.6875 -0.199709,-0.20441 -0.412873,-0.3125 -0.687495,-0.3125 -0.28038,0 -0.48734,0.10765 -0.6875,0.3125 -0.199071,0.20373 -0.28125,0.40503 -0.28125,0.6875 l 0,3.75 -1.65625,0 0,-3.75 c 0,-0.28247 -0.113427,-0.48377 -0.3125,-0.6875 -0.200163,-0.20481 -0.407125,-0.3125 -0.6875,-0.3125 -0.27462,0 -0.487774,0.10812 -0.6875,0.3125 -0.199075,0.20373 -0.28125,0.40503 -0.28125,0.6875 l 0,3.75 -1.65625,0 0,-3.75 c -10e-7,-0.73696 0.270117,-1.38317 0.78125,-1.90625 0.511387,-0.52336 1.127438,-0.78125 1.84375,-0.78125 z"
       style="opacity:0.6;fill:#ffffff;fill-opacity:1;fill-rule:evenodd;display:inline" />
    <path
       style="opacity:0.69999999999999996;fill:url(#linearGradient3632);fill-opacity:1;fill-rule:evenodd;display:inline"
       d="M 2 3 L 2 6.25 L 3.375 6.25 C 4.332323 6.25 4.5 6.91706 4.5 7.84375 L 4.5 13.59375 C 4.5 16.57374 7.070818 19 10.25 19 L 18.125 19 C 19.1313 19 20 18.36724 20 17.375 L 20 8.4375 C 20 5.45751 17.432735 3.03125 14.25 3.03125 L 10.9375 3.03125 L 2 3 z M 6.15625 5.03125 L 7.75 5.03125 L 7.75 13.21875 C 7.75 14.3153 8.478453 15.1875 9.34375 15.1875 L 11.125 15.1875 L 11.125 16.84375 L 9.0625 16.84375 C 8.329593 16.76435 7.667397 16.4174 7.125 15.875 C 6.490412 15.23459 6.15625 14.46562 6.15625 13.5625 L 6.15625 5.03125 z M 12.09375 6.4375 C 12.796577 6.4375 13.410225 6.70326 13.90625 7.1875 C 14.403731 6.70246 15.015632 6.4375 15.71875 6.4375 C 16.435065 6.4375 17.08237 6.69539 17.59375 7.21875 C 18.10489 7.74183 18.375 8.38804 18.375 9.125 L 18.375 12.84375 L 16.71875 12.84375 L 16.71875 9.125 C 16.71875 8.84253 16.60533 8.64123 16.40625 8.4375 C 16.206536 8.23309 15.993372 8.125 15.71875 8.125 C 15.43837 8.125 15.23141 8.23265 15.03125 8.4375 C 14.832179 8.64123 14.75 8.84253 14.75 9.125 L 14.75 12.875 L 13.09375 12.875 L 13.09375 9.125 C 13.09375 8.84253 12.980323 8.64123 12.78125 8.4375 C 12.581087 8.23269 12.374125 8.125 12.09375 8.125 C 11.81913 8.125 11.605976 8.23312 11.40625 8.4375 C 11.207175 8.64123 11.125 8.84253 11.125 9.125 L 11.125 12.875 L 9.46875 12.875 L 9.46875 9.125 C 9.468749 8.38804 9.738867 7.74183 10.25 7.21875 C 10.761387 6.69539 11.377438 6.4375 12.09375 6.4375 z "
       transform="translate(83.712835,731.39614)"
       id="path3626" />
  </g>
</svg>
