<?xml version="1.0" encoding="UTF-8" standalone="no"?>
<!-- Created with Inkscape (http://www.inkscape.org/) -->

<svg
   xmlns:dc="http://purl.org/dc/elements/1.1/"
   xmlns:cc="http://creativecommons.org/ns#"
   xmlns:rdf="http://www.w3.org/1999/02/22-rdf-syntax-ns#"
   xmlns:svg="http://www.w3.org/2000/svg"
   xmlns="http://www.w3.org/2000/svg"
   xmlns:sodipodi="http://sodipodi.sourceforge.net/DTD/sodipodi-0.dtd"
   xmlns:inkscape="http://www.inkscape.org/namespaces/inkscape"
   version="1.0"
   width="24"
   height="24"
   id="svg2"
   sodipodi:version="0.32"
   inkscape:version="0.48.1 r9760"
   sodipodi:docname="start-here.svg"
   inkscape:output_extension="org.inkscape.output.svg.inkscape"
   inkscape:export-filename="/home/svetli/Плот/LFU_menu_icons/Y-symbol_2.png"
   inkscape:export-xdpi="7.1999998"
   inkscape:export-ydpi="7.1999998">
  <metadata
     id="metadata6">
    <rdf:RDF>
      <cc:Work
         rdf:about="">
        <dc:format>image/svg+xml</dc:format>
        <dc:type
           rdf:resource="http://purl.org/dc/dcmitype/StillImage" />
      </cc:Work>
    </rdf:RDF>
  </metadata>
  <sodipodi:namedview
     inkscape:window-height="725"
     inkscape:window-width="1280"
     inkscape:pageshadow="2"
     inkscape:pageopacity="0.0"
     guidetolerance="10.0"
     gridtolerance="10.0"
     objecttolerance="10.0"
     borderopacity="1.0"
     bordercolor="#666666"
     pagecolor="#ffffff"
     id="base"
     showgrid="false"
     inkscape:zoom="12.578125"
     inkscape:cx="1.9663374"
     inkscape:cy="12.200712"
     inkscape:window-x="0"
     inkscape:window-y="24"
     inkscape:current-layer="g2559"
     borderlayer="false"
     inkscape:showpageshadow="true"
     showborder="true" />
  <defs
     id="defs7" />
  <g
     id="g2559"
     transform="matrix(1.0426669,0,0,1.0426669,11.330071,4.9596712)">
    <g
       id="g3765"
       transform="matrix(0.89793896,0,0,0.89793896,0.27981901,0.81010762)">
      <path
         inkscape:connector-curvature="0"
         id="path2995"
         d="M 1.7837204,17.618179 C 1.5463518,17.148914 1.4157798,16.393054 1.1138584,13.740474 0.95328425,12.32973 0.89457958,11.991386 0.77751254,11.801968 0.52742426,11.397317 0.42992251,11.377053 -1.2670528,11.377053 c -1.5120142,0 -1.5256206,-0.0013 -1.6232507,-0.150261 -0.095719,-0.146087 -3.8115092,-14.5794505 -3.8115092,-14.8051716 0,-0.062148 0.046387,-0.1792233 0.1030832,-0.2601676 0.1017043,-0.145204 0.1245564,-0.1471719 1.7090328,-0.1471719 1.6420755,0 1.6847732,0.00603 1.8771205,0.2648755 0.040595,0.054631 0.6301865,2.4236097 1.3102033,5.2643985 0.6800172,2.8407884 1.28750058,5.2541595 1.34996223,5.3630482 0.0624616,0.1088882 0.19402052,0.2429816 0.29235276,0.2979847 0.15903799,0.08896 0.19819055,0.089035 0.35445409,6.767e-4 C 0.65971212,6.9987031 0.72274281,6.8270347 0.82042691,5.7725815 1.1273084,2.4599512 1.5664558,0.04767071 2.2415028,-2.0335268 2.6045409,-3.1527862 2.9256954,-3.6085122 3.5292926,-3.8609307 3.6388654,-3.9067529 4.1588274,-3.9606579 4.6909251,-3.9813569 L 5.6541949,-4.01883 6.267159,-4.3374268 c 0.7665517,-0.3984269 0.9118124,-0.3947748 1.121791,0.028199 0.1409747,0.283977 0.1464792,0.3377937 0.077879,0.7615166 -0.040599,0.2507697 -0.097843,0.8596205 -0.1272078,1.3530015 -0.06281,1.0552806 -0.1811075,1.36295038 -0.7166629,1.86389899 C 6.0845703,0.17278823 5.6463382,0.25542025 4.2740661,0.11208951 3.5643292,0.03795837 3.5617063,0.03821675 3.345306,0.20327338 3.0241304,0.44824557 2.8023298,0.91556548 2.5697794,1.8372619 2.064064,3.8416193 1.869572,5.6380429 1.9276685,7.7681246 c 0.07754,2.8429724 0.4296288,4.6788944 1.2401908,6.4668104 0.38811,0.856082 0.6438478,1.627502 0.7596072,2.291312 0.1398115,0.801744 0.1298544,0.921446 -0.095389,1.146689 l -0.1935622,0.193562 -0.8645934,0 -0.8645926,0 -0.1256088,-0.248321 z"
         style="fill:#333333;stroke:#eae3d0;stroke-opacity:1" />
      <path
         style="fill:#333333"
         d="M 1.7837204,17.618179 C 1.5463518,17.148914 1.4157798,16.393054 1.1138584,13.740474 0.95328425,12.32973 0.89457958,11.991386 0.77751254,11.801968 0.52742426,11.397317 0.42992251,11.377053 -1.2670528,11.377053 c -1.5120142,0 -1.5256206,-0.0013 -1.6232507,-0.150261 -0.095719,-0.146087 -3.8115092,-14.5794505 -3.8115092,-14.8051716 0,-0.062148 0.046387,-0.1792233 0.1030832,-0.2601676 0.1017043,-0.145204 0.1245564,-0.1471719 1.7090328,-0.1471719 1.6420755,0 1.6847732,0.00603 1.8771205,0.2648755 0.040595,0.054631 0.6301865,2.4236097 1.3102033,5.2643985 0.6800172,2.8407884 1.28750058,5.2541595 1.34996223,5.3630482 0.0624616,0.1088882 0.19402052,0.2429816 0.29235276,0.2979847 0.15903799,0.08896 0.19819055,0.089035 0.35445409,6.767e-4 C 0.65971212,6.9987031 0.72274281,6.8270347 0.82042691,5.7725815 1.1273084,2.4599512 1.5664558,0.04767071 2.2415028,-2.0335268 2.6045409,-3.1527862 2.9256954,-3.6085122 3.5292926,-3.8609307 3.6388654,-3.9067529 4.1588274,-3.9606579 4.6909251,-3.9813569 L 5.6541949,-4.01883 6.267159,-4.3374268 c 0.7665517,-0.3984269 0.9118124,-0.3947748 1.121791,0.028199 0.1409747,0.283977 0.1464792,0.3377937 0.077879,0.7615166 -0.040599,0.2507697 -0.097843,0.8596205 -0.1272078,1.3530015 -0.06281,1.0552806 -0.1811075,1.36295038 -0.7166629,1.86389899 C 6.0845703,0.17278823 5.6463382,0.25542025 4.2740661,0.11208951 3.5643292,0.03795837 3.5617063,0.03821675 3.345306,0.20327338 3.0241304,0.44824557 2.8023298,0.91556548 2.5697794,1.8372619 2.064064,3.8416193 1.869572,5.6380429 1.9276685,7.7681246 c 0.07754,2.8429724 0.4296288,4.6788944 1.2401908,6.4668104 0.38811,0.856082 0.6438478,1.627502 0.7596072,2.291312 0.1398115,0.801744 0.1298544,0.921446 -0.095389,1.146689 l -0.1935622,0.193562 -0.8645934,0 -0.8645926,0 -0.1256088,-0.248321 z"
         id="path2537"
         inkscape:connector-curvature="0" />
    </g>
  </g>
</svg>
