<?xml version="1.0" encoding="UTF-8" standalone="no"?>
<!-- Created with Inkscape (http://www.inkscape.org/) -->
<svg
   xmlns:dc="http://purl.org/dc/elements/1.1/"
   xmlns:cc="http://creativecommons.org/ns#"
   xmlns:rdf="http://www.w3.org/1999/02/22-rdf-syntax-ns#"
   xmlns:svg="http://www.w3.org/2000/svg"
   xmlns="http://www.w3.org/2000/svg"
   xmlns:sodipodi="http://sodipodi.sourceforge.net/DTD/sodipodi-0.dtd"
   xmlns:inkscape="http://www.inkscape.org/namespaces/inkscape"
   version="1.0"
   width="24"
   height="24"
   id="svg2"
   sodipodi:version="0.32"
   inkscape:version="0.46"
   sodipodi:docname="start-here24.svg"
   inkscape:output_extension="org.inkscape.output.svg.inkscape"
   inkscape:export-filename="/home/svetli/Плот/LFU_menu_icons/Y-symbol_2.png"
   inkscape:export-xdpi="7.1999998"
   inkscape:export-ydpi="7.1999998">
  <metadata
     id="metadata6">
    <rdf:RDF>
      <cc:Work
         rdf:about="">
        <dc:format>image/svg+xml</dc:format>
        <dc:type
           rdf:resource="http://purl.org/dc/dcmitype/StillImage" />
      </cc:Work>
    </rdf:RDF>
  </metadata>
  <sodipodi:namedview
     inkscape:window-height="725"
     inkscape:window-width="1280"
     inkscape:pageshadow="2"
     inkscape:pageopacity="0.0"
     guidetolerance="10.0"
     gridtolerance="10.0"
     objecttolerance="10.0"
     borderopacity="1.0"
     bordercolor="#666666"
     pagecolor="#ffffff"
     id="base"
     showgrid="false"
     inkscape:zoom="8.6738432"
     inkscape:cx="31.772254"
     inkscape:cy="2.4971926"
     inkscape:window-x="0"
     inkscape:window-y="24"
     inkscape:current-layer="g2559"
     borderlayer="false"
     inkscape:showpageshadow="true"
     showborder="true" />
  <defs
     id="defs7">
    <inkscape:perspective
       sodipodi:type="inkscape:persp3d"
       inkscape:vp_x="0 : 300 : 1"
       inkscape:vp_y="0 : 1000 : 0"
       inkscape:vp_z="600 : 300 : 1"
       inkscape:persp3d-origin="300 : 200 : 1"
       id="perspective8" />
    <inkscape:perspective
       id="perspective2527"
       inkscape:persp3d-origin="372.04724 : 350.78739 : 1"
       inkscape:vp_z="744.09448 : 526.18109 : 1"
       inkscape:vp_y="0 : 1000 : 0"
       inkscape:vp_x="0 : 526.18109 : 1"
       sodipodi:type="inkscape:persp3d" />
    <filter
       id="filter3372"
       inkscape:label="filter1">
      <feDiffuseLighting
         id="feDiffuseLighting3374" />
    </filter>
    <filter
       id="filter3376"
       inkscape:label="filter2">
      <feSpecularLighting
         id="feSpecularLighting3378"
         in="SourceAlpha" />
    </filter>
  </defs>
  <g
     id="g2559"
     transform="matrix(1.0426669,0,0,1.0426669,11.330071,4.9596712)">
    <g
       id="g3411"
       transform="matrix(4.3941275e-2,0,0,4.3941275e-2,-11.761543,-5.8164157)">
      <g
         id="g3408">
        <path
           style="fill:#e6e6e6"
           d="M 319.11805,539.44783 C 313.71609,528.76847 310.74458,511.56687 303.87356,451.20041 C 300.21928,419.0952 298.88329,411.39526 296.21912,407.08456 C 290.52771,397.87567 288.30879,397.41451 249.68963,397.41451 C 215.27976,397.41451 214.9701,397.38585 212.74828,393.99491 C 210.56992,390.67031 126.0073,62.200977 126.0073,57.064096 C 126.0073,55.649756 127.06297,52.985396 128.35323,51.143295 C 130.66779,47.838795 131.18785,47.79401 167.2468,47.79401 C 204.61656,47.79401 205.58826,47.93114 209.96564,53.821952 C 210.88948,55.06522 224.30719,108.9776 239.78277,173.62726 C 255.25837,238.27691 269.08325,293.19955 270.50473,295.6776 C 271.92621,298.15564 274.92018,301.20729 277.158,302.45903 C 280.77733,304.48355 281.66834,304.48525 285.22454,302.47446 C 293.53827,297.77361 294.9727,293.86685 297.19576,269.86998 C 304.17965,194.48231 314.17362,139.58449 329.5361,92.221346 C 337.79799,66.749639 345.10671,56.378389 358.84315,50.63394 C 361.33678,49.591133 373.16988,48.364384 385.27917,47.893323 L 407.20092,47.04052 L 421.15055,39.790011 C 438.59546,30.722753 441.90125,30.805865 446.67986,40.431748 C 449.88812,46.894394 450.01339,48.119138 448.45221,57.762072 C 447.52826,63.468999 446.22553,77.32501 445.55725,88.553198 C 444.12785,112.5689 441.43567,119.57074 429.2477,130.97115 C 416.99526,142.43188 407.02212,144.31239 375.79245,141.05052 C 359.64051,139.36347 359.58081,139.36935 354.65605,143.12565 C 347.34685,148.70064 342.29919,159.33574 337.0069,180.31138 C 325.498,225.92583 321.07182,266.8082 322.39396,315.28384 C 324.15859,379.98319 332.17131,421.76445 350.61779,462.4532 C 359.45025,481.9356 365.27025,499.49132 367.90465,514.59807 C 371.08643,532.84387 370.85984,535.568 365.73382,540.694 L 361.3288,545.09903 L 341.6527,545.09903 L 321.9766,545.09903 L 319.11805,539.44783 z"
           id="path2535" />
      </g>
      <path
         style="fill:#333333"
         d="M 308.25828,533.31616 C 302.85633,522.6368 299.88482,505.4352 293.0138,445.06874 C 289.35951,412.96353 288.02353,405.2636 285.35936,400.95289 C 279.66794,391.744 277.44903,391.28284 238.82987,391.28284 C 204.41999,391.28284 204.11034,391.25419 201.88851,387.86324 C 199.71016,384.53865 115.14754,56.069308 115.14754,50.932428 C 115.14754,49.518088 116.2032,46.853728 117.49347,45.011627 C 119.80802,41.707126 120.32808,41.662342 156.38703,41.662342 C 193.7568,41.662342 194.7285,41.799472 199.10587,47.690284 C 200.02971,48.933552 213.44743,102.84593 228.92301,167.49559 C 244.3986,232.14524 258.22349,287.06788 259.64497,289.54593 C 261.06645,292.02397 264.06042,295.07562 266.29823,296.32736 C 269.91756,298.35188 270.80858,298.35358 274.36477,296.3428 C 282.6785,291.64195 284.11293,287.73518 286.33599,263.73831 C 293.31989,188.35065 303.31385,133.45283 318.67633,86.089678 C 326.93822,60.617971 334.24694,50.246721 347.98339,44.502272 C 350.47701,43.459465 362.31012,42.232716 374.41941,41.761654 L 396.34116,40.908854 L 410.29078,33.658343 C 427.73569,24.591086 431.04148,24.674198 435.8201,34.30008 C 439.02835,40.762728 439.15362,41.98747 437.59244,51.630404 C 436.66849,57.337331 435.36577,71.193341 434.69749,82.42153 C 433.26809,106.43723 430.57591,113.43907 418.38793,124.83948 C 406.13549,136.30021 396.16236,138.18072 364.93268,134.91885 C 348.78074,133.2318 348.72105,133.23768 343.79629,136.99398 C 336.48709,142.56897 331.43943,153.20407 326.14713,174.17971 C 314.63824,219.79416 310.21206,260.67653 311.5342,309.15217 C 313.29883,373.85152 321.31154,415.63278 339.75802,456.32153 C 348.59049,475.80394 354.41048,493.35965 357.04489,508.4664 C 360.22667,526.71221 360.00007,529.43633 354.87406,534.56233 L 350.46904,538.96736 L 330.79293,538.96736 L 311.11684,538.96736 L 308.25828,533.31616 z"
         id="path2537" />
    </g>
  </g>
</svg>
