<?xml version="1.0" encoding="UTF-8" standalone="no"?>
<!-- Created with Inkscape (http://www.inkscape.org/) -->

<svg
   xmlns:dc="http://purl.org/dc/elements/1.1/"
   xmlns:cc="http://creativecommons.org/ns#"
   xmlns:rdf="http://www.w3.org/1999/02/22-rdf-syntax-ns#"
   xmlns:svg="http://www.w3.org/2000/svg"
   xmlns="http://www.w3.org/2000/svg"
   xmlns:xlink="http://www.w3.org/1999/xlink"
   xmlns:sodipodi="http://sodipodi.sourceforge.net/DTD/sodipodi-0.dtd"
   xmlns:inkscape="http://www.inkscape.org/namespaces/inkscape"
   width="128"
   height="128"
   id="svg5073"
   version="1.1"
   inkscape:version="0.48.1 r9760"
   sodipodi:docname="Nuevo documento 20">
  <defs
     id="defs5075">
    <linearGradient
       inkscape:collect="always"
       xlink:href="#linearGradient4144"
       id="linearGradient4728"
       gradientUnits="userSpaceOnUse"
       gradientTransform="matrix(2.7288473,0,0,2.7243077,-110.95325,338.70596)"
       x1="156"
       y1="20"
       x2="156"
       y2="22" />
    <linearGradient
       inkscape:collect="always"
       id="linearGradient4144">
      <stop
         style="stop-color:#ffffff;stop-opacity:1;"
         offset="0"
         id="stop4146" />
      <stop
         style="stop-color:#ffffff;stop-opacity:0;"
         offset="1"
         id="stop4148" />
    </linearGradient>
    <linearGradient
       inkscape:collect="always"
       xlink:href="#linearGradient4114"
       id="linearGradient4731"
       gradientUnits="userSpaceOnUse"
       gradientTransform="matrix(2.7288473,0,0,2.7243077,-110.95325,340.41247)"
       x1="157"
       y1="17"
       x2="157"
       y2="4" />
    <linearGradient
       inkscape:collect="always"
       id="linearGradient4114">
      <stop
         style="stop-color:#5b371f;stop-opacity:1;"
         offset="0"
         id="stop4116" />
      <stop
         style="stop-color:#5b371f;stop-opacity:0;"
         offset="1"
         id="stop4118" />
    </linearGradient>
    <inkscape:path-effect
       is_visible="true"
       id="path-effect4111-2-8"
       effect="spiro" />
    <linearGradient
       inkscape:collect="always"
       xlink:href="#linearGradient4114"
       id="linearGradient4734"
       gradientUnits="userSpaceOnUse"
       gradientTransform="matrix(2.7288473,0,0,2.7243077,-110.95325,340.41247)"
       x1="157"
       y1="17"
       x2="157"
       y2="4" />
    <inkscape:path-effect
       is_visible="true"
       id="path-effect4107-1-2"
       effect="spiro" />
    <linearGradient
       inkscape:collect="always"
       xlink:href="#linearGradient4114"
       id="linearGradient4737"
       gradientUnits="userSpaceOnUse"
       gradientTransform="matrix(2.7288473,0,0,2.7243077,-110.95325,340.41247)"
       x1="157"
       y1="17"
       x2="157"
       y2="4" />
    <inkscape:path-effect
       effect="spiro"
       id="path-effect4103-3-7"
       is_visible="true" />
    <linearGradient
       inkscape:collect="always"
       xlink:href="#linearGradient4492"
       id="linearGradient4740"
       gradientUnits="userSpaceOnUse"
       x1="25.506826"
       y1="62.398037"
       x2="48.553288"
       y2="106.14803"
       gradientTransform="translate(248.64265,350.07647)" />
    <linearGradient
       inkscape:collect="always"
       id="linearGradient4492">
      <stop
         style="stop-color:#ffffff;stop-opacity:1;"
         offset="0"
         id="stop4494" />
      <stop
         style="stop-color:#ffffff;stop-opacity:0;"
         offset="1"
         id="stop4496" />
    </linearGradient>
    <radialGradient
       inkscape:collect="always"
       xlink:href="#linearGradient3898"
       id="radialGradient4743"
       gradientUnits="userSpaceOnUse"
       gradientTransform="matrix(2.5772442,5.7560547e-8,-5.0873353e-8,2.2702565,-87.303187,359.26399)"
       cx="156"
       cy="27.696297"
       fx="156"
       fy="27.696297"
       r="18" />
    <linearGradient
       id="linearGradient3898">
      <stop
         style="stop-color:#ffffff;stop-opacity:1;"
         offset="0"
         id="stop3900" />
      <stop
         id="stop4490"
         offset="0.5"
         style="stop-color:#ededed;stop-opacity:1;" />
      <stop
         style="stop-color:#c8c8c8;stop-opacity:1;"
         offset="1"
         id="stop3902" />
    </linearGradient>
    <linearGradient
       inkscape:collect="always"
       xlink:href="#linearGradient4752"
       id="linearGradient4758"
       x1="116.59221"
       y1="73.737137"
       x2="114.4468"
       y2="76.478256"
       gradientUnits="userSpaceOnUse" />
    <linearGradient
       inkscape:collect="always"
       id="linearGradient4752">
      <stop
         style="stop-color:#ffffff;stop-opacity:1;"
         offset="0"
         id="stop4754" />
      <stop
         style="stop-color:#ffffff;stop-opacity:0;"
         offset="1"
         id="stop4756" />
    </linearGradient>
    <radialGradient
       inkscape:collect="always"
       xlink:href="#linearGradient3890"
       id="radialGradient4586"
       gradientUnits="userSpaceOnUse"
       gradientTransform="matrix(1,0,0,0.33333332,0,27.229172)"
       cx="156.84373"
       cy="40.843758"
       fx="156.84373"
       fy="40.843758"
       r="10.968749" />
    <linearGradient
       inkscape:collect="always"
       id="linearGradient3890">
      <stop
         style="stop-color:#000000;stop-opacity:1;"
         offset="0"
         id="stop3892" />
      <stop
         style="stop-color:#000000;stop-opacity:0;"
         offset="1"
         id="stop3894" />
    </linearGradient>
    <radialGradient
       inkscape:collect="always"
       xlink:href="#linearGradient3906"
       id="radialGradient4747"
       gradientUnits="userSpaceOnUse"
       gradientTransform="matrix(1.9764074,-0.01001584,0.00444699,0.87459604,6.3393029,392.76358)"
       cx="156.00658"
       cy="16.88216"
       fx="156.00658"
       fy="16.88216"
       r="16.99999" />
    <linearGradient
       id="linearGradient3906">
      <stop
         style="stop-color:#b37851;stop-opacity:1;"
         offset="0"
         id="stop3908" />
      <stop
         style="stop-color:#462e1e;stop-opacity:1;"
         offset="1"
         id="stop3910" />
    </linearGradient>
  </defs>
  <sodipodi:namedview
     id="base"
     pagecolor="#ffffff"
     bordercolor="#666666"
     borderopacity="1.0"
     inkscape:pageopacity="0.0"
     inkscape:pageshadow="2"
     inkscape:zoom="5.5703125"
     inkscape:cx="35.545582"
     inkscape:cy="64"
     inkscape:document-units="px"
     inkscape:current-layer="layer1"
     showgrid="false"
     fit-margin-top="0"
     fit-margin-left="0"
     fit-margin-right="0"
     fit-margin-bottom="0" />
  <metadata
     id="metadata5078">
    <rdf:RDF>
      <cc:Work
         rdf:about="">
        <dc:format>image/svg+xml</dc:format>
        <dc:type
           rdf:resource="http://purl.org/dc/dcmitype/StillImage" />
        <dc:title></dc:title>
      </cc:Work>
    </rdf:RDF>
  </metadata>
  <g
     inkscape:label="Capa 1"
     inkscape:groupmode="layer"
     id="layer1"
     transform="translate(-258.85715,-354.07648)">
    <path
       style="opacity:0.98999999;color:#000000;fill:#dcdcdc;fill-opacity:1;fill-rule:nonzero;stroke:#969696;stroke-width:1;stroke-linecap:round;stroke-linejoin:round;stroke-miterlimit:4;stroke-opacity:1;stroke-dasharray:none;stroke-dashoffset:0;marker:none;visibility:visible;display:inline;overflow:visible;enable-background:accumulate"
       d="m 359.17593,418.05524 -2.55829,8.00853 11.34177,0 c 1.74429,0 2.75753,1.28901 2.21719,3.44453 l -1.70552,7.06127 c -0.54035,2.15553 -2.26373,3.44454 -4.008,3.44454 l -12.19454,0 -2.47303,8.0085 12.62093,0 c 6.28035,0 12.65137,-5.11108 14.24118,-11.45304 l 1.70552,-7.06127 c 1.58981,-6.34194 -2.16203,-11.45306 -8.44236,-11.45306 l -10.74485,0 z"
       id="rect3050-2-1"
       inkscape:connector-curvature="0" />
    <path
       sodipodi:type="arc"
       style="opacity:0.98999999;color:#000000;fill:#52250c;fill-opacity:1;fill-rule:nonzero;stroke:#141414;stroke-width:0.32438082;stroke-linecap:round;stroke-linejoin:round;stroke-miterlimit:4;stroke-opacity:1;stroke-dasharray:none;stroke-dashoffset:0;marker:none;visibility:visible;display:inline;overflow:visible;enable-background:accumulate"
       id="path4253-9-1"
       sodipodi:cx="215.24998"
       sodipodi:cy="19.937511"
       sodipodi:rx="12.124999"
       sodipodi:ry="1.9999998"
       d="m 227.37498,19.937511 c 0,1.10457 -5.42854,2 -12.125,2 -6.69645,0 -12.12499,-0.89543 -12.12499,-2 0,-1.104569 5.42854,-1.999999 12.12499,-1.999999 6.69646,0 12.125,0.89543 12.125,1.999999 z"
       transform="matrix(3.0835802,0,0,3.0820129,-347.20315,343.85621)" />
    <path
       style="opacity:0.98999999;color:#000000;fill:#dcdcdc;fill-opacity:1;stroke:#969696;stroke-width:1.00000012;stroke-linecap:round;stroke-linejoin:round;stroke-miterlimit:4;stroke-opacity:1;stroke-dasharray:none;stroke-dashoffset:0;marker:none;visibility:visible;display:inline;overflow:visible;enable-background:accumulate"
       d="m 314.74688,390.81217 c -26.39158,0 -47.75477,6.06764 -47.75477,13.50615 0,7.4385 21.36319,13.50617 47.75477,13.50617 26.3917,0 47.75486,-6.06767 47.75486,-13.50617 0,-7.43851 -21.36316,-13.50615 -47.75486,-13.50615 z"
       id="path3034-8-6-8"
       inkscape:connector-curvature="0"
       sodipodi:nodetypes="sssss" />
    <path
       style="opacity:0.98999999;color:#000000;fill:url(#radialGradient4747);fill-opacity:1;stroke:#bf8d6d;stroke-width:1.00000012;stroke-linecap:round;stroke-linejoin:round;stroke-miterlimit:4;stroke-opacity:1;stroke-dasharray:none;stroke-dashoffset:0;marker:none;visibility:visible;display:inline;overflow:visible;enable-background:accumulate"
       d="m 314.74688,401.7094 c -24.88349,0 -45.02589,6.06764 -45.02589,13.50615 0,7.4385 20.1424,13.50617 45.02589,13.50617 24.88361,0 45.02598,-6.06767 45.02598,-13.50617 0,-7.43851 -20.14237,-13.50615 -45.02598,-13.50615 z"
       id="path3034-8-5-8-0"
       inkscape:connector-curvature="0"
       sodipodi:nodetypes="sssss" />
    <path
       sodipodi:type="arc"
       style="opacity:0.4;color:#000000;fill:url(#radialGradient4586);fill-opacity:1;fill-rule:nonzero;stroke:none;stroke-width:0.75855237;marker:none;visibility:visible;display:inline;overflow:visible;enable-background:accumulate"
       id="path3112-1-5"
       sodipodi:cx="156.84373"
       sodipodi:cy="40.843758"
       sodipodi:rx="10.968749"
       sodipodi:ry="3.6562495"
       d="m 167.81248,40.843758 c 0,2.01929 -4.91087,3.656249 -10.96875,3.656249 -6.05787,0 -10.96874,-1.636959 -10.96874,-3.656249 0,-2.019291 4.91087,-3.65625 10.96874,-3.65625 6.05788,0 10.96875,1.636959 10.96875,3.65625 z"
       transform="matrix(3.6287103,0,0,3.7255496,-254.39355,316.28948)" />
    <path
       transform="translate(255.85714,350.07647)"
       sodipodi:type="inkscape:offset"
       inkscape:radius="-0.99999988"
       inkscape:original="M 103.3125 67.96875 L 100.75 76 L 112.09375 76 C 113.83804 76 114.85284 77.281973 114.3125 79.4375 L 112.625 86.5 C 112.08465 88.655527 110.33802 89.9375 108.59375 89.9375 L 96.40625 89.9375 L 93.9375 97.9375 L 106.5625 97.9375 C 112.84285 97.9375 119.22269 92.841959 120.8125 86.5 L 122.5 79.4375 C 124.08981 73.095561 120.34283 67.96875 114.0625 67.96875 L 103.3125 67.96875 z "
       style="opacity:0.98999999;color:#000000;fill:none;stroke:url(#linearGradient4758);stroke-width:1;stroke-linecap:round;stroke-linejoin:round;stroke-miterlimit:4;stroke-opacity:1;stroke-dasharray:none;stroke-dashoffset:0;marker:none;visibility:visible;display:inline;overflow:visible;enable-background:accumulate"
       id="path4724"
       d="M 104.03125,68.96875 102.09375,75 l 10,0 c 1.11713,0 2.17268,0.455517 2.78125,1.34375 0.60337,0.880632 0.71377,2.058464 0.40625,3.3125 l 0,0.03125 -1.6875,7.03125 a 1.0000999,1.0000999 0 0 1 0,0.03125 c -0.6412,2.557825 -2.76576,4.1875 -5,4.1875 l -11.4375,0 -1.84375,6 11.25,0 c 5.73049,0 11.80209,-4.816148 13.28125,-10.65625 l 0,-0.03125 1.6875,-7.03125 a 1.0000999,1.0000999 0 0 1 0,-0.03125 c 0.73439,-2.929585 0.23581,-5.470355 -1.09375,-7.28125 -1.32956,-1.810895 -3.50694,-2.9375 -6.375,-2.9375 l -10.03125,0 z" />
    <path
       style="fill:none;stroke:#ffffff;stroke-width:1px;stroke-linecap:round;stroke-linejoin:miter;stroke-opacity:1;display:inline;enable-background:new"
       d="m 355.54463,441.01397 8.9375,0 c 2.18571,0 4.25,-2.375 4.25,-2.375"
       id="path4764"
       inkscape:connector-curvature="0"
       sodipodi:nodetypes="csc" />
    <path
       inkscape:connector-curvature="0"
       style="opacity:0.98999999;color:#000000;fill:url(#radialGradient4743);fill-opacity:1;stroke:#969696;stroke-width:1;stroke-linecap:round;stroke-linejoin:round;stroke-miterlimit:4;stroke-opacity:1;stroke-dashoffset:0;marker:none;visibility:visible;display:inline;overflow:visible;enable-background:accumulate"
       d="m 362.2989,405.57647 c -2.24115,6.85429 -22.67119,12.25 -47.5625,12.25 -24.55155,0 -44.74015,-5.24793 -47.4375,-11.96875 -0.11268,0.16715 -0.22735,0.33029 -0.3125,0.5 0,29.57556 16.10961,66.28125 47.28125,66.28125 33.39515,0 47.71137,-36.00747 48.21875,-66.28125 2e-5,-0.26618 -0.0571,-0.52169 -0.1875,-0.78125 z"
       id="rect3029-3-5-5" />
    <path
       style="opacity:0.98999999;color:#000000;fill:url(#linearGradient4740);fill-opacity:1;stroke:none;stroke-width:0.99999994;marker:none;visibility:visible;display:inline;overflow:visible;enable-background:accumulate"
       d="m 273.89948,412.28321 c 3.63061,20.71988 14.1313,42.8794 31.29646,50.38258 -12.2871,-10.76116 -19.32026,-29.82671 -21.19853,-47.07524 -3.76237,-0.70641 -7.19598,-2.32583 -10.09793,-3.30734 z"
       id="rect3029-3-2-2-0"
       inkscape:connector-curvature="0"
       sodipodi:nodetypes="cccc" />
    <path
       style="opacity:0.7;fill:none;stroke:url(#linearGradient4737);stroke-width:1px;stroke-linecap:round;stroke-linejoin:miter;stroke-opacity:1;display:inline;enable-background:new"
       d="m 317.46271,385.24244 c 1.26053,0.0235 2.52575,-0.31538 3.60585,-0.96565 1.0801,-0.65027 1.97159,-1.60988 2.5407,-2.73486 0.56912,-1.12498 0.81403,-2.41169 0.69799,-3.66708 -0.11605,-1.25539 -0.59267,-2.4754 -1.35836,-3.477 -1.30015,-1.70071 -3.31191,-2.67732 -5.25925,-3.5665 -1.94735,-0.88918 -3.97497,-1.80092 -5.36745,-3.4269 -0.92689,-1.08231 -1.51976,-2.44677 -1.67845,-3.86287 -0.1587,-1.4161 0.11744,-2.87795 0.78176,-4.13858 0.66432,-1.26063 1.71406,-2.31481 2.97188,-2.98444 1.25782,-0.66963 2.7185,-0.95193 4.13525,-0.7992"
       id="path4095-9-7"
       inkscape:connector-curvature="0"
       sodipodi:nodetypes="cssc"
       inkscape:path-effect="#path-effect4103-3-7"
       inkscape:original-d="m 317.46271,385.24244 c 0,0 6.43418,-6.81364 5.48618,-10.84459 -1.05951,-4.50515 -9.60247,-2.47761 -10.6267,-6.9934 -1.00639,-4.43727 6.21044,-11.78509 6.21044,-11.78509" />
    <path
       inkscape:original-d="m 339.39348,385.24244 c 0,0 6.52744,-6.81364 5.56568,-10.84459 -1.07488,-4.50515 -9.74174,-2.47761 -10.78082,-6.9934 -1.02098,-4.43727 6.30051,-11.78509 6.30051,-11.78509"
       inkscape:path-effect="#path-effect4107-1-2"
       sodipodi:nodetypes="cssc"
       inkscape:connector-curvature="0"
       id="path4105-9-7"
       d="m 339.39348,385.24244 c 1.26819,0.0417 2.54633,-0.28404 3.63992,-0.92757 1.09358,-0.64353 1.99894,-1.60272 2.57831,-2.73161 0.57937,-1.12888 0.8308,-2.42369 0.71604,-3.68736 -0.11476,-1.26368 -0.59534,-2.49201 -1.36859,-3.49805 -1.31809,-1.71491 -3.36022,-2.68684 -5.33514,-3.56886 -1.97492,-0.88202 -4.03277,-1.78687 -5.44568,-3.42454 -0.93778,-1.08696 -1.5372,-2.46179 -1.69544,-3.88863 -0.15823,-1.42684 0.12539,-2.8996 0.80223,-4.16562 0.67684,-1.26602 1.74399,-2.31989 3.01838,-2.98083 1.2744,-0.66093 2.75059,-0.9261 4.17534,-0.75001"
       style="opacity:0.7;fill:none;stroke:url(#linearGradient4734);stroke-width:1px;stroke-linecap:round;stroke-linejoin:miter;stroke-opacity:1;display:inline;enable-background:new" />
    <path
       inkscape:original-d="m 295.63867,385.24244 c 0,0 6.45395,-6.81364 5.50305,-10.84459 -1.06278,-4.50515 -9.63213,-2.47761 -10.65947,-6.9934 -1.00952,-4.43727 6.22959,-11.78509 6.22959,-11.78509"
       inkscape:path-effect="#path-effect4111-2-8"
       sodipodi:nodetypes="cssc"
       inkscape:connector-curvature="0"
       id="path4109-0-3"
       d="m 295.63867,385.24244 c 1.26217,0.0273 2.53015,-0.30873 3.61311,-0.95758 1.08297,-0.64885 1.9774,-1.60837 2.54869,-2.73418 0.57129,-1.12581 0.81757,-2.41424 0.70179,-3.67138 -0.11577,-1.25715 -0.59324,-2.47892 -1.36054,-3.48145 -1.30396,-1.70372 -3.32218,-2.67933 -5.27539,-3.567 -1.95321,-0.88766 -3.98726,-1.79794 -5.38408,-3.4264 -0.9292,-1.08329 -1.52347,-2.44995 -1.68207,-3.86832 -0.1586,-1.41838 0.11912,-2.88254 0.78609,-4.14432 0.66698,-1.26177 1.72042,-2.31589 2.98176,-2.98368 1.26135,-0.66779 2.72533,-0.94646 4.14381,-0.78877"
       style="opacity:0.7;fill:none;stroke:url(#linearGradient4731);stroke-width:0.99999988px;stroke-linecap:round;stroke-linejoin:miter;stroke-opacity:1;display:inline;enable-background:new" />
    <path
       style="opacity:0.98999999;color:#000000;fill:none;stroke:url(#linearGradient4728);stroke-width:1.00000012;stroke-linecap:round;stroke-linejoin:round;stroke-miterlimit:4;stroke-opacity:1;stroke-dasharray:none;stroke-dashoffset:0;marker:none;visibility:visible;display:inline;overflow:visible;enable-background:accumulate"
       d="m 314.74688,391.82915 c -26.39158,0 -47.75477,6.06764 -47.75477,13.50615 0,7.4385 21.36319,13.50617 47.75477,13.50617 26.3917,0 47.75486,-6.06767 47.75486,-13.50617 0,-7.43851 -21.36316,-13.50615 -47.75486,-13.50615 z"
       id="path3034-8-4-4-9"
       inkscape:connector-curvature="0"
       sodipodi:nodetypes="sssss" />
    <path
       sodipodi:type="arc"
       style="color:#000000;fill:none;stroke:#ffffff;stroke-width:1.01179695;stroke-linecap:round;stroke-linejoin:round;stroke-miterlimit:4;stroke-opacity:1;stroke-dasharray:none;stroke-dashoffset:0;marker:none;visibility:visible;display:inline;overflow:visible;enable-background:accumulate"
       id="path4546"
       sodipodi:cx="68.589348"
       sodipodi:cy="53.594341"
       sodipodi:rx="44.901276"
       sodipodi:ry="14.053746"
       d="M 112.76438,56.11176 C 108.32231,63.747891 84.943472,68.811111 60.546275,67.420779 42.478361,66.391136 28.235014,62.02147 24.58422,56.388105"
       transform="matrix(1.0629921,0,0,0.91893197,241.84719,356.73724)"
       sodipodi:start="0.18009998"
       sodipodi:end="2.9414681"
       sodipodi:open="true" />
  </g>
</svg>
