<?xml version="1.0" encoding="UTF-8" standalone="no"?>
<!-- Created with Inkscape (http://www.inkscape.org/) -->

<svg
   xmlns:dc="http://purl.org/dc/elements/1.1/"
   xmlns:cc="http://creativecommons.org/ns#"
   xmlns:rdf="http://www.w3.org/1999/02/22-rdf-syntax-ns#"
   xmlns:svg="http://www.w3.org/2000/svg"
   xmlns="http://www.w3.org/2000/svg"
   xmlns:xlink="http://www.w3.org/1999/xlink"
   xmlns:sodipodi="http://sodipodi.sourceforge.net/DTD/sodipodi-0.dtd"
   xmlns:inkscape="http://www.inkscape.org/namespaces/inkscape"
   width="128"
   height="128"
   id="svg4508"
   version="1.1"
   inkscape:version="0.48.1 r9760"
   sodipodi:docname="Nuevo documento 6">
  <defs
     id="defs4510">
    <linearGradient
       inkscape:collect="always"
       xlink:href="#linearGradient4081"
       id="linearGradient3975"
       x1="66.999992"
       y1="19.135132"
       x2="66.999992"
       y2="122.86489"
       gradientUnits="userSpaceOnUse" />
    <linearGradient
       id="linearGradient4081">
      <stop
         id="stop4083"
         style="stop-color:#ffffff;stop-opacity:1;"
         offset="0" />
      <stop
         offset="0.06316455"
         style="stop-color:#ffffff;stop-opacity:0.23529412;"
         id="stop4085" />
      <stop
         id="stop4087"
         style="stop-color:#ffffff;stop-opacity:0.15686275;"
         offset="0.95056331" />
      <stop
         id="stop4089"
         style="stop-color:#ffffff;stop-opacity:0.39215687;"
         offset="1" />
    </linearGradient>
    <linearGradient
       inkscape:collect="always"
       xlink:href="#linearGradient3867"
       id="linearGradient3934"
       gradientUnits="userSpaceOnUse"
       gradientTransform="matrix(1.2261905,0,0,1.2261905,284,319.36218)"
       x1="48"
       y1="90"
       x2="48"
       y2="5.9877172" />
    <linearGradient
       gradientUnits="userSpaceOnUse"
       id="linearGradient3867"
       y2="5.4252338"
       x2="58.650177"
       y1="122"
       x1="58.650177">
      <stop
         offset="0"
         style="stop-color:#be1e1e;stop-opacity:1;"
         id="stop3869" />
      <stop
         offset="1"
         style="stop-color:#e24a4a;stop-opacity:1;"
         id="stop3871" />
    </linearGradient>
    <linearGradient
       inkscape:collect="always"
       xlink:href="#linearGradient3873"
       id="linearGradient3936"
       gradientUnits="userSpaceOnUse"
       gradientTransform="matrix(1.2261905,0,0,1.2261905,268.67263,290.5467)"
       x1="51.999992"
       y1="113.49999"
       x2="51.999992"
       y2="29.962587" />
    <linearGradient
       id="linearGradient3873">
      <stop
         style="stop-color:#560e0e;stop-opacity:1;"
         offset="0"
         id="stop3875" />
      <stop
         style="stop-color:#9b1919;stop-opacity:1;"
         offset="1"
         id="stop3877" />
    </linearGradient>
    <radialGradient
       gradientTransform="matrix(2.003784,0,0,1.4,27.98813,-17.4)"
       gradientUnits="userSpaceOnUse"
       xlink:href="#linearGradient4453"
       id="radialGradient2455-84"
       fy="43.5"
       fx="4.9929786"
       r="2.5"
       cy="43.5"
       cx="4.9929786" />
    <linearGradient
       id="linearGradient4453">
      <stop
         id="stop4455"
         style="stop-color:#181818;stop-opacity:1"
         offset="0" />
      <stop
         id="stop4457"
         style="stop-color:#181818;stop-opacity:0"
         offset="1" />
    </linearGradient>
    <radialGradient
       gradientTransform="matrix(2.003784,0,0,1.4,-20.01187,-104.4)"
       gradientUnits="userSpaceOnUse"
       xlink:href="#linearGradient4453"
       id="radialGradient2457-863"
       fy="43.5"
       fx="4.9929786"
       r="2.5"
       cy="43.5"
       cx="4.9929786" />
    <linearGradient
       gradientUnits="userSpaceOnUse"
       xlink:href="#linearGradient4445"
       id="linearGradient2459-507"
       y2="39.999443"
       x2="25.058096"
       y1="47.027729"
       x1="25.058096" />
    <linearGradient
       id="linearGradient4445">
      <stop
         id="stop4447"
         style="stop-color:#181818;stop-opacity:0"
         offset="0" />
      <stop
         id="stop4449"
         style="stop-color:#181818;stop-opacity:1"
         offset="0.5" />
      <stop
         id="stop4451"
         style="stop-color:#181818;stop-opacity:0"
         offset="1" />
    </linearGradient>
  </defs>
  <sodipodi:namedview
     id="base"
     pagecolor="#ffffff"
     bordercolor="#666666"
     borderopacity="1.0"
     inkscape:pageopacity="0.0"
     inkscape:pageshadow="2"
     inkscape:zoom="5.5703125"
     inkscape:cx="64"
     inkscape:cy="64"
     inkscape:document-units="px"
     inkscape:current-layer="layer1"
     showgrid="false"
     fit-margin-top="0"
     fit-margin-left="0"
     fit-margin-right="0"
     fit-margin-bottom="0" />
  <metadata
     id="metadata4513">
    <rdf:RDF>
      <cc:Work
         rdf:about="">
        <dc:format>image/svg+xml</dc:format>
        <dc:type
           rdf:resource="http://purl.org/dc/dcmitype/StillImage" />
        <dc:title></dc:title>
      </cc:Work>
    </rdf:RDF>
  </metadata>
  <g
     inkscape:label="Capa 1"
     inkscape:groupmode="layer"
     id="layer1"
     transform="translate(-278.85715,-311.21933)">
    <g
       style="display:inline;enable-background:new"
       id="g2036"
       transform="matrix(2.9499988,0,0,1.2222234,272.05714,376.77486)">
      <g
         style="opacity:0.4"
         id="g3712"
         transform="matrix(1.052632,0,0,1.285713,-1.263158,-13.42854)">
        <rect
           style="fill:url(#radialGradient2455-84);fill-opacity:1;stroke:none"
           id="rect2801"
           y="40"
           x="38"
           height="7"
           width="5" />
        <rect
           style="fill:url(#radialGradient2457-863);fill-opacity:1;stroke:none"
           id="rect3696"
           transform="scale(-1,-1)"
           y="-47"
           x="-10"
           height="7"
           width="5" />
        <rect
           style="fill:url(#linearGradient2459-507);fill-opacity:1;stroke:none"
           id="rect3700"
           y="40"
           x="10"
           height="7.0000005"
           width="28" />
      </g>
    </g>
    <path
       d="m 298.71429,326.71933 c -3.87194,0 -7.01284,2.95355 -7.31883,6.74404 3.02796,0.021 5.47954,2.48499 5.47954,5.51786 0,3.04586 -2.472,5.51786 -5.51786,5.51786 l 0,8.58333 c 3.04586,0 5.51786,2.472 5.51786,5.51786 0,3.04586 -2.472,5.51786 -5.51786,5.51786 l 0,8.58333 c 3.04586,0 5.51786,2.472 5.51786,5.51786 0,3.04586 -2.472,5.51785 -5.51786,5.51785 l 0,8.58334 c 3.04586,0 5.51786,2.472 5.51786,5.51785 0,3.04587 -2.472,5.51786 -5.51786,5.51786 l 0,8.58334 c 3.04586,0 5.51786,2.47199 5.51786,5.51785 0,3.03287 -2.45158,5.4969 -5.47954,5.51786 0.30599,3.7905 3.44689,6.74405 7.31883,6.74405 0,-3.04586 2.472,-5.51786 5.51785,-5.51786 3.04586,0 5.51786,2.472 5.51786,5.51786 l 8.58333,0 c 0,-3.04586 2.472,-5.51786 5.51786,-5.51786 3.04586,0 5.51786,2.472 5.51786,5.51786 l 8.58333,0 c 0,-3.04586 2.472,-5.51786 5.51786,-5.51786 3.04586,0 5.51786,2.472 5.51786,5.51786 l 8.58333,0 c 0,-3.04586 2.472,-5.51786 5.51786,-5.51786 3.04586,0 5.51785,2.472 5.51785,5.51786 l 8.58334,0 c -10e-6,-3.04586 2.472,-5.51786 5.51786,-5.51786 3.00688,0 5.45571,2.41082 5.51785,5.4029 3.29666,-0.54579 5.81951,-3.24569 6.09263,-6.62909 -3.02795,-0.021 -5.47953,-2.48499 -5.47953,-5.51786 0,-3.04586 2.47199,-5.51785 5.51785,-5.51785 l 0,-8.58334 c -3.04586,1e-5 -5.51785,-2.472 -5.51785,-5.51786 0,-3.04585 2.47199,-5.51785 5.51785,-5.51785 l 0,-8.58334 c -3.04586,10e-6 -5.51785,-2.472 -5.51785,-5.51785 0,-3.04586 2.47199,-5.51786 5.51785,-5.51786 l 0,-8.58333 c -3.04586,0 -5.51785,-2.472 -5.51785,-5.51786 0,-3.04586 2.47199,-5.51786 5.51785,-5.51786 l 0,-8.58333 c -3.04586,0 -5.51785,-2.472 -5.51785,-5.51786 0,-3.03287 2.45158,-5.4969 5.47953,-5.51786 -0.27312,-3.38339 -2.79597,-6.08329 -6.09263,-6.62909 -0.0621,2.99209 -2.51097,5.4029 -5.51785,5.4029 -3.04587,0 -5.51786,-2.472 -5.51786,-5.51785 l -8.58334,0 c 10e-6,3.04585 -2.472,5.51785 -5.51785,5.51785 -3.04586,0 -5.51786,-2.472 -5.51786,-5.51785 l -8.58333,0 c 0,3.04585 -2.472,5.51785 -5.51786,5.51785 -3.04586,0 -5.51786,-2.472 -5.51786,-5.51785 l -8.58333,0 c 0,3.04585 -2.472,5.51785 -5.51786,5.51785 -3.04586,0 -5.51786,-2.472 -5.51786,-5.51785 l -8.58333,0 c 0,3.04585 -2.472,5.51785 -5.51786,5.51785 -3.04585,0 -5.51785,-2.472 -5.51785,-5.51785 z"
       inkscape:connector-curvature="0"
       id="rect2419"
       style="fill:url(#linearGradient3934);fill-opacity:1;fill-rule:nonzero;stroke:url(#linearGradient3936);stroke-width:0.99999994;stroke-opacity:1;display:inline;enable-background:new" />
    <path
       d="m 323.0398,345.43518 -13.51062,59.41274 10.97738,0 6.37674,-26.58782 29.96556,0 -28.06255,24.90281 7.31552,8.35061 3.74709,-1.91407 c 7.08599,-3.61175 10.05791,-1.49989 15.43403,-0.0209 5.23016,1.43889 10.147,2.97888 20.34802,-2.85027 l -2.02581,-10.28851 c -11.13289,7.84702 -14.65492,0.84593 -22.58407,0.56803 l 22.70081,-19.04218 2.46321,-10.16523 -47.55106,0 3.061,-12.20005 31.16728,0 2.13743,-10.16522 -41.95996,0 z"
       inkscape:connector-curvature="0"
       id="path3307"
       style="opacity:0.95;fill:#ffffff;fill-opacity:1;stroke:none;display:inline;enable-background:new" />
    <path
       transform="translate(275.85714,307.21933)"
       sodipodi:type="inkscape:offset"
       inkscape:radius="-0.9757902"
       inkscape:original="M 22.84375 19.5 C 18.971814 19.5 15.837243 22.459504 15.53125 26.25 C 18.55921 26.27096 21.03125 28.717133 21.03125 31.75 C 21.03125 34.795859 18.545858 37.28125 15.5 37.28125 L 15.5 45.875 C 18.545858 45.875 21.03125 48.329143 21.03125 51.375 C 21.03125 54.420859 18.545858 56.90625 15.5 56.90625 L 15.5 65.46875 C 18.545858 65.46875 21.03125 67.954143 21.03125 71 C 21.03125 74.045859 18.545858 76.53125 15.5 76.53125 L 15.5 85.09375 C 18.545858 85.09375 21.03125 87.579149 21.03125 90.625 C 21.03125 93.670869 18.545858 96.125 15.5 96.125 L 15.5 104.71875 C 18.545858 104.71875 21.03125 107.20414 21.03125 110.25 C 21.03125 113.28287 18.55921 115.72904 15.53125 115.75 C 15.837243 119.5405 18.971814 122.5 22.84375 122.5 C 22.84375 119.45414 25.329142 116.96875 28.375 116.96875 C 31.420858 116.96875 33.90625 119.45414 33.90625 122.5 L 42.46875 122.5 C 42.46875 119.45414 44.954142 116.96875 48 116.96875 C 51.045858 116.96875 53.5 119.45414 53.5 122.5 L 62.09375 122.5 C 62.09375 119.45414 64.579142 116.96875 67.625 116.96875 C 70.670858 116.96875 73.125 119.45414 73.125 122.5 L 81.71875 122.5 C 81.71875 119.45414 84.172892 116.96875 87.21875 116.96875 C 90.264608 116.96875 92.75 119.45414 92.75 122.5 L 101.34375 122.5 C 101.34374 119.45414 103.79789 116.96875 106.84375 116.96875 C 109.85063 116.96875 112.31286 119.38292 112.375 122.375 C 115.67166 121.82921 118.19563 119.1334 118.46875 115.75 C 115.4408 115.729 112.96875 113.28287 112.96875 110.25 C 112.96875 107.20414 115.45414 104.71875 118.5 104.71875 L 118.5 96.125 C 115.45414 96.125012 112.96875 93.670857 112.96875 90.625 C 112.96875 87.579149 115.45414 85.09375 118.5 85.09375 L 118.5 76.53125 C 115.45414 76.531252 112.96875 74.045857 112.96875 71 C 112.96875 67.954143 115.45414 65.46875 118.5 65.46875 L 118.5 56.90625 C 115.45414 56.906252 112.96875 54.420857 112.96875 51.375 C 112.96875 48.329143 115.45414 45.875 118.5 45.875 L 118.5 37.28125 C 115.45414 37.281252 112.96875 34.795857 112.96875 31.75 C 112.96875 28.717133 115.4408 26.27096 118.46875 26.25 C 118.19563 22.866606 115.67166 20.170799 112.375 19.625 C 112.3129 22.617087 109.85063 25.03125 106.84375 25.03125 C 103.79788 25.03125 101.34375 22.545857 101.34375 19.5 L 92.75 19.5 C 92.750001 22.545857 90.264607 25.03125 87.21875 25.03125 C 84.172892 25.03125 81.71875 22.545857 81.71875 19.5 L 73.125 19.5 C 73.125001 22.545857 70.670857 25.03125 67.625 25.03125 C 64.579142 25.03125 62.09375 22.545857 62.09375 19.5 L 53.5 19.5 C 53.500001 22.545857 51.045857 25.03125 48 25.03125 C 44.954142 25.03125 42.46875 22.545857 42.46875 19.5 L 33.90625 19.5 C 33.906251 22.545857 31.420857 25.03125 28.375 25.03125 C 25.329142 25.03125 22.84375 22.545857 22.84375 19.5 z "
       style="opacity:0.5;fill:none;stroke:url(#linearGradient3975);stroke-width:0.99999994;stroke-opacity:1;display:inline;enable-background:new"
       id="path3942"
       d="M 34.6875,20.46875 C 34.19963,23.572826 31.609727,26 28.375,26 c -3.179506,0 -5.727748,-2.348135 -6.28125,-5.375 -2.71314,0.327257 -4.808543,2.27896 -5.375,4.90625 C 19.685394,26.125974 22,28.610874 22,31.75 c 0,3.234728 -2.427174,5.824629 -5.53125,6.3125 l 0,7.03125 C 19.568933,45.576734 22,48.140273 22,51.375 c 0,3.234728 -2.427174,5.824629 -5.53125,6.3125 l 0,7 C 19.572826,65.175371 22,67.765273 22,71 c 0,3.234728 -2.427174,5.824629 -5.53125,6.3125 l 0,7 C 19.572827,84.800372 22,87.390278 22,90.625 c 0,3.234736 -2.431069,5.798268 -5.53125,6.28125 l 0,7.03125 C 19.572826,104.42537 22,107.01527 22,110.25 c 0,3.13913 -2.314606,5.62403 -5.28125,6.21875 0.566457,2.62729 2.66186,4.57899 5.375,4.90625 0.553502,-3.02687 3.101744,-5.375 6.28125,-5.375 3.234727,0 5.824629,2.42717 6.3125,5.53125 l 7,0 C 42.175371,118.42717 44.765273,116 48,116 c 3.234727,0 5.798266,2.43107 6.28125,5.53125 l 7.03125,0 C 61.800371,118.42717 64.390273,116 67.625,116 c 3.234727,0 5.798266,2.43107 6.28125,5.53125 l 7.03125,0 C 81.420484,118.43107 83.984023,116 87.21875,116 c 3.234727,0 5.824629,2.42717 6.3125,5.53125 l 7.03125,0 C 101.04548,118.43106 103.60902,116 106.84375,116 c 3.09451,0 5.60374,2.21565 6.25,5.125 2.14455,-0.68389 3.70822,-2.42391 4.1875,-4.65625 C 114.31462,115.874 112,113.38913 112,110.25 c 0,-3.23473 2.42717,-5.82463 5.53125,-6.3125 l 0,-7.03125 C 114.43106,96.423274 112,93.859726 112,90.625 c 0,-3.234722 2.42717,-5.824628 5.53125,-6.3125 l 0,-7 C 114.42717,76.82463 112,74.234726 112,71 c 0,-3.234726 2.42717,-5.824629 5.53125,-6.3125 l 0,-7 C 114.42717,57.19963 112,54.609726 112,51.375 c 0,-3.234726 2.43107,-5.798266 5.53125,-6.28125 l 0,-7.03125 C 114.42717,37.57463 112,34.984726 112,31.75 c 0,-3.139128 2.31461,-5.624026 5.28125,-6.21875 -0.47928,-2.232331 -2.04294,-3.972354 -4.1875,-4.65625 -0.64624,2.909361 -3.15549,5.125 -6.25,5.125 -3.23474,0 -5.79827,-2.431069 -6.28125,-5.53125 l -7.03125,0 C 93.04338,23.572826 90.453477,26 87.21875,26 83.984022,26 81.420484,23.568932 80.9375,20.46875 l -7.03125,0 C 73.423267,23.568933 70.859727,26 67.625,26 64.390272,26 61.800371,23.572826 61.3125,20.46875 l -7.03125,0 C 53.798267,23.568933 51.234727,26 48,26 44.765272,26 42.175371,23.572826 41.6875,20.46875 l -7,0 z" />
  </g>
</svg>
