<?xml version="1.0" encoding="UTF-8" standalone="no"?>
<!-- Created with Inkscape (http://www.inkscape.org/) -->

<svg
   xmlns:dc="http://purl.org/dc/elements/1.1/"
   xmlns:cc="http://creativecommons.org/ns#"
   xmlns:rdf="http://www.w3.org/1999/02/22-rdf-syntax-ns#"
   xmlns:svg="http://www.w3.org/2000/svg"
   xmlns="http://www.w3.org/2000/svg"
   xmlns:xlink="http://www.w3.org/1999/xlink"
   xmlns:sodipodi="http://sodipodi.sourceforge.net/DTD/sodipodi-0.dtd"
   xmlns:inkscape="http://www.inkscape.org/namespaces/inkscape"
   version="1.0"
   width="128"
   height="128"
   id="svg4715"
   inkscape:version="0.47 r22583"
   sodipodi:docname="pitivi128c.svg">
  <metadata
     id="metadata3243">
    <rdf:RDF>
      <cc:Work
         rdf:about="">
        <dc:format>image/svg+xml</dc:format>
        <dc:type
           rdf:resource="http://purl.org/dc/dcmitype/StillImage" />
        <dc:title />
      </cc:Work>
    </rdf:RDF>
  </metadata>
  <sodipodi:namedview
     pagecolor="#ffffff"
     bordercolor="#666666"
     borderopacity="1"
     objecttolerance="10"
     gridtolerance="10"
     guidetolerance="10"
     inkscape:pageopacity="0"
     inkscape:pageshadow="2"
     inkscape:window-width="640"
     inkscape:window-height="480"
     id="namedview3241"
     showgrid="false"
     inkscape:zoom="1.3515625"
     inkscape:cx="47.132337"
     inkscape:cy="109.08592"
     inkscape:current-layer="svg4715" />
  <defs
     id="defs4717">
    <linearGradient
       id="linearGradient5060">
      <stop
         id="stop5062"
         style="stop-color:#000000;stop-opacity:1"
         offset="0" />
      <stop
         id="stop5064"
         style="stop-color:#000000;stop-opacity:0"
         offset="1" />
    </linearGradient>
    <linearGradient
       id="linearGradient5048">
      <stop
         id="stop5050"
         style="stop-color:#000000;stop-opacity:0"
         offset="0" />
      <stop
         id="stop5056"
         style="stop-color:#000000;stop-opacity:1"
         offset="0.5" />
      <stop
         id="stop5052"
         style="stop-color:#000000;stop-opacity:0"
         offset="1" />
    </linearGradient>
    <linearGradient
       id="linearGradient3582">
      <stop
         id="stop3584"
         style="stop-color:#333333;stop-opacity:1"
         offset="0" />
      <stop
         id="stop3586"
         style="stop-color:#5a5a5a;stop-opacity:1"
         offset="1" />
    </linearGradient>
    <linearGradient
       id="linearGradient3932">
      <stop
         id="stop3934"
         style="stop-color:#828282;stop-opacity:1"
         offset="0" />
      <stop
         id="stop3936"
         style="stop-color:#434343;stop-opacity:1"
         offset="1" />
    </linearGradient>
    <linearGradient
       id="linearGradient3211">
      <stop
         id="stop3213"
         style="stop-color:#ffffff;stop-opacity:1"
         offset="0" />
      <stop
         id="stop3215"
         style="stop-color:#ffffff;stop-opacity:0"
         offset="1" />
    </linearGradient>
    <linearGradient
       id="linearGradient8823">
      <stop
         offset="0"
         style="stop-color:#e35d4f;stop-opacity:1"
         id="stop8825" />
      <stop
         id="stop8827"
         style="stop-color:#8daa32;stop-opacity:1"
         offset="0.29466397" />
      <stop
         id="stop8829"
         style="stop-color:#729eb8;stop-opacity:1;"
         offset="0.57540715" />
      <stop
         offset="1"
         style="stop-color:#727272;stop-opacity:1"
         id="stop8831" />
    </linearGradient>
    <linearGradient
       id="linearGradient2490-1">
      <stop
         id="stop2492-2"
         style="stop-color:#333333;stop-opacity:1"
         offset="0" />
      <stop
         id="stop2494-9"
         style="stop-color:#e35d4f;stop-opacity:1"
         offset="1" />
    </linearGradient>
    <linearGradient
       inkscape:collect="always"
       xlink:href="#linearGradient5048"
       id="linearGradient4688"
       gradientUnits="userSpaceOnUse"
       gradientTransform="matrix(0.1021006,0,0,0.02212893,52.097928,111.51231)"
       x1="302.85715"
       y1="366.64789"
       x2="302.85715"
       y2="609.50507" />
    <radialGradient
       inkscape:collect="always"
       xlink:href="#linearGradient5060"
       id="radialGradient4690"
       gradientUnits="userSpaceOnUse"
       gradientTransform="matrix(-0.0349409,0,0,0.02212893,85.407496,111.51235)"
       cx="605.71429"
       cy="486.64789"
       fx="605.71429"
       fy="486.64789"
       r="117.14286" />
    <radialGradient
       inkscape:collect="always"
       xlink:href="#linearGradient5060"
       id="radialGradient4692"
       gradientUnits="userSpaceOnUse"
       gradientTransform="matrix(0.0349409,0,0,0.02212893,92.592497,111.51235)"
       cx="605.71429"
       cy="486.64789"
       fx="605.71429"
       fy="486.64789"
       r="117.14286" />
    <linearGradient
       inkscape:collect="always"
       xlink:href="#linearGradient8823"
       id="linearGradient4694"
       gradientUnits="userSpaceOnUse"
       x1="30.472441"
       y1="5.2622981"
       x2="30.472441"
       y2="57.34943"
       gradientTransform="matrix(0.98252191,0,0,1,0.55929573,0)" />
    <linearGradient
       inkscape:collect="always"
       xlink:href="#linearGradient2490-1"
       id="linearGradient4696"
       gradientUnits="userSpaceOnUse"
       gradientTransform="matrix(1.0794117,0,0,1.205926,79.331734,-3.2375729)"
       x1="-51.786404"
       y1="53.623615"
       x2="-51.786404"
       y2="2.9062471" />
    <linearGradient
       inkscape:collect="always"
       xlink:href="#linearGradient3932"
       id="linearGradient4698"
       gradientUnits="userSpaceOnUse"
       gradientTransform="matrix(1.1808493,0,0,1.3535901,58.923554,-1.3484446)"
       x1="-22.539846"
       y1="11.109024"
       x2="-22.539846"
       y2="46.263954" />
    <linearGradient
       inkscape:collect="always"
       xlink:href="#linearGradient3582"
       id="linearGradient4700"
       gradientUnits="userSpaceOnUse"
       gradientTransform="matrix(1.2628265,0,0,1.3043494,0.18287077,-0.10742022)"
       x1="16.745687"
       y1="46.132927"
       x2="16.745687"
       y2="1.4097958" />
    <linearGradient
       inkscape:collect="always"
       xlink:href="#linearGradient3932"
       id="linearGradient4702"
       gradientUnits="userSpaceOnUse"
       gradientTransform="matrix(1.1808493,0,0,1.3535901,98.459787,-1.3484446)"
       x1="-22.539846"
       y1="11.109024"
       x2="-22.539846"
       y2="46.263954" />
    <linearGradient
       inkscape:collect="always"
       xlink:href="#linearGradient3582"
       id="linearGradient4704"
       gradientUnits="userSpaceOnUse"
       gradientTransform="matrix(1.2628265,0,0,1.3043494,39.719098,-0.10742022)"
       x1="16.745687"
       y1="46.132927"
       x2="16.745687"
       y2="1.4097958" />
    <linearGradient
       inkscape:collect="always"
       xlink:href="#linearGradient3211"
       id="linearGradient4843"
       gradientUnits="userSpaceOnUse"
       x1="64.000015"
       y1="4.3583107"
       x2="64.000015"
       y2="122.09363" />
  </defs>
  <g
     id="g4675"
     transform="matrix(2,0,0,2,2.8e-7,0.50000172)">
    <g
       transform="matrix(0.89855074,0,0,0.83599004,-47.971016,-41.498758)"
       id="g3141">
      <rect
         width="49.299999"
         height="5.3741703"
         x="64.349998"
         y="119.62583"
         id="rect2944"
         style="opacity:0.3;fill:url(#linearGradient4688);fill-opacity:1;fill-rule:nonzero;stroke:none;stroke-width:1;marker:none;visibility:visible;display:inline;overflow:visible" />
      <path
         d="m 64.35,119.62606 c 0,0 0,5.37388 0,5.37388 -1.79937,0.0101 -4.35,-1.20401 -4.35,-2.68729 0,-1.48326 2.007961,-2.68659 4.35,-2.68659 z"
         id="path2946"
         style="opacity:0.3;fill:url(#radialGradient4690);fill-opacity:1;fill-rule:nonzero;stroke:none;stroke-width:1;marker:none;visibility:visible;display:inline;overflow:visible" />
      <path
         d="m 113.65,119.62606 c 0,0 0,5.37388 0,5.37388 1.79937,0.0101 4.35,-1.20401 4.35,-2.68729 0,-1.48326 -2.00796,-2.68659 -4.35,-2.68659 z"
         id="path2948"
         style="opacity:0.3;fill:url(#radialGradient4692);fill-opacity:1;fill-rule:nonzero;stroke:none;stroke-width:1;marker:none;visibility:visible;display:inline;overflow:visible" />
    </g>
    <path
       d="m 8.6045471,1.4492399 c 0,0 46.7908979,0 46.7908979,0 0,0 -0.0053,59.3044211 -0.0053,59.3044211 -15.595315,0 -46.785945,0 -46.785945,0 0,0 0,-59.3044211 0,-59.3044211 z"
       id="path2950"
       style="fill:url(#linearGradient4694);fill-opacity:1;stroke:url(#linearGradient4696);stroke-width:0.49996084;stroke-linecap:butt;stroke-linejoin:round;stroke-miterlimit:4;stroke-opacity:1;stroke-dasharray:none;stroke-dashoffset:0;display:inline" />
    <path
       d="M 8.8753868,31.118073 54.929065,31.067997"
       id="path2954"
       style="fill:none;stroke:#464646;stroke-width:0.48149997;stroke-linecap:square;stroke-linejoin:round;stroke-miterlimit:4;stroke-opacity:1;stroke-dasharray:none" />
    <path
       d="M 8.5881184,31.66575 55.514758,31.615674"
       id="path2956"
       style="opacity:0.3;fill:#ffffff;fill-rule:evenodd;stroke:#ffffff;stroke-width:0.48149997;stroke-linecap:square;stroke-linejoin:round;stroke-miterlimit:4;stroke-opacity:1;stroke-dasharray:none" />
    <path
       d="m 16.181605,1.4373188 c 0,3.5178432 0.105733,56.4856642 0.105733,59.3282562 -2.591744,0 -5.183491,0 -7.7752361,0 -0.6299542,-0.702469 -0.1509296,-2.097181 -0.3006057,-3.09167 0,-18.631896 0,-37.263792 0,-55.8956841 l 0.087851,-0.2412735 0.2127535,-0.099629 0,0 c 2.6974803,0 4.9720263,0 7.6695033,0 z"
       id="path2958"
       style="fill:url(#linearGradient4698);fill-opacity:1;fill-rule:nonzero;stroke:url(#linearGradient4700);stroke-width:0.48667908;stroke-linecap:butt;stroke-linejoin:round;stroke-miterlimit:4;stroke-opacity:1;stroke-dasharray:none;stroke-dashoffset:0;marker:none;visibility:visible;display:block;overflow:visible" />
    <path
       d="m 55.717831,1.4373188 c 0,3.5178432 0.105732,56.4856642 0.105732,59.3282562 -2.591744,0 -5.183487,0 -7.775231,0 -0.629956,-0.702469 -0.15093,-2.097181 -0.30061,-3.09167 0,-18.631896 0,-37.263792 0,-55.8956841 l 0.08788,-0.2412735 0.21275,-0.099629 0,0 c 2.697476,0 4.972022,0 7.669499,0 z"
       id="path3960"
       style="fill:url(#linearGradient4702);fill-opacity:1;fill-rule:nonzero;stroke:url(#linearGradient4704);stroke-width:0.48667908;stroke-linecap:butt;stroke-linejoin:round;stroke-miterlimit:4;stroke-opacity:1;stroke-dasharray:none;stroke-dashoffset:0;marker:none;visibility:visible;display:block;overflow:visible" />
    <path
       d="m 10.434782,54.913045 3.594203,0 0,2.695652 -3.594203,0 0,-2.695652 z m 0,-5.391305 3.594203,0 0,2.695653 -3.594203,0 0,-2.695653 z m 0,-5.391304 3.594203,0 0,2.695652 -3.594203,0 0,-2.695652 z m 0,-5.391304 3.594203,0 0,2.695652 -3.594203,0 0,-2.695652 z m 0,-5.391305 3.594203,0 0,2.695652 -3.594203,0 0,-2.695652 z m 0,-5.391304 3.594203,0 0,2.695652 -3.594203,0 0,-2.695652 z m 0,-5.391305 3.594203,0 0,2.695652 -3.594203,0 0,-2.695652 z m 0,-5.391304 3.594203,0 0,2.695652 -3.594203,0 0,-2.695652 z m 0,-5.391305 3.594203,0 0,2.695653 -3.594203,0 0,-2.695653 z m 0,-5.3913041 3.594203,0 0,2.6956522 -3.594203,0 0,-2.6956522 z m 39.536233,48.5217401 3.594203,0 0,2.695652 -3.594203,0 0,-2.695652 z m 0,-5.391305 3.594203,0 0,2.695653 -3.594203,0 0,-2.695653 z m 0,-5.391304 3.594203,0 0,2.695652 -3.594203,0 0,-2.695652 z m 0,-5.391304 3.594203,0 0,2.695652 -3.594203,0 0,-2.695652 z m 0,-5.391305 3.594203,0 0,2.695652 -3.594203,0 0,-2.695652 z m 0,-5.391304 3.594203,0 0,2.695652 -3.594203,0 0,-2.695652 z m 0,-5.391305 3.594203,0 0,2.695652 -3.594203,0 0,-2.695652 z m 0,-5.391304 3.594203,0 0,2.695652 -3.594203,0 0,-2.695652 z m 0,-5.391305 3.594203,0 0,2.695653 -3.594203,0 0,-2.695653 z m 0,-5.3913041 3.594203,0 0,2.6956522 -3.594203,0 0,-2.6956522 z"
       id="rect2980"
       style="fill:#ffffff;fill-opacity:1;stroke:none" />
  </g>
  <path
     sodipodi:type="inkscape:offset"
     inkscape:radius="-0.98095739"
     inkscape:original="M 17.03125 3.875 L 16.59375 4.0625 L 16.4375 4.5625 L 16.4375 116.34375 C 16.736852 118.33273 15.771342 121.12631 17.03125 122.53125 L 32.5625 122.53125 L 32.5625 122.5 L 96.0625 122.5 C 96.0719 122.511 96.08406 122.52045 96.09375 122.53125 L 111.65625 122.53125 C 111.65625 116.84607 111.4375 10.910686 111.4375 3.875 L 96.09375 3.875 L 96.03125 3.90625 L 32.375 3.90625 L 32.375 3.875 L 17.03125 3.875 z "
     style="opacity:0.4;fill:none;stroke:url(#linearGradient4843);stroke-width:0.99992168;stroke-linecap:butt;stroke-linejoin:round;stroke-miterlimit:4;stroke-opacity:1;stroke-dasharray:none;stroke-dashoffset:0;display:inline"
     id="path4841"
     d="m 17.40625,4.84375 0,111.34375 c 0.0082,0.0542 -0.0067,0.10199 0,0.15625 0.143673,1.16152 -0.02079,2.33619 -0.0625,3.34375 -0.0374,0.90358 0.111106,1.46544 0.34375,1.875 l 14.625,0 a 0.98105548,0.98105548 0 0 1 0.25,-0.0312 l 63.5,0 a 0.98105548,0.98105548 0 0 1 0.28125,0.0312 l 14.34375,0 c -0.003,-7.16524 -0.21527,-108.202727 -0.21875,-116.71875 l -14.1875,0 a 0.98105548,0.98105548 0 0 1 -0.25,0.03125 l -63.65625,0 A 0.98105548,0.98105548 0 0 1 32.09375,4.84375 l -14.6875,0 z"
     transform="translate(0,-0.50046084)" />
</svg>
