<?xml version="1.0" encoding="UTF-8" standalone="no"?>
<!-- Created with Inkscape (http://www.inkscape.org/) -->

<svg
   xmlns:dc="http://purl.org/dc/elements/1.1/"
   xmlns:cc="http://creativecommons.org/ns#"
   xmlns:rdf="http://www.w3.org/1999/02/22-rdf-syntax-ns#"
   xmlns:svg="http://www.w3.org/2000/svg"
   xmlns="http://www.w3.org/2000/svg"
   xmlns:xlink="http://www.w3.org/1999/xlink"
   xmlns:sodipodi="http://sodipodi.sourceforge.net/DTD/sodipodi-0.dtd"
   xmlns:inkscape="http://www.inkscape.org/namespaces/inkscape"
   width="48"
   height="48"
   id="svg6783"
   version="1.1"
   inkscape:version="0.48.1 r9760"
   sodipodi:docname="Nuevo documento 12">
  <defs
     id="defs6785">
    <linearGradient
       inkscape:collect="always"
       xlink:href="#linearGradient4631"
       id="linearGradient4637"
       x1="141.95511"
       y1="38.533707"
       x2="145.81512"
       y2="47.01899"
       gradientUnits="userSpaceOnUse" />
    <linearGradient
       inkscape:collect="always"
       id="linearGradient4631">
      <stop
         style="stop-color:#ffffff;stop-opacity:0.40000001"
         offset="0"
         id="stop4633" />
      <stop
         style="stop-color:#ffffff;stop-opacity:0"
         offset="1"
         id="stop4635" />
    </linearGradient>
    <linearGradient
       inkscape:collect="always"
       xlink:href="#linearGradient5817"
       id="linearGradient3606"
       gradientUnits="userSpaceOnUse"
       gradientTransform="translate(160.19569,89.371747)"
       x1="38.449001"
       y1="8.6672001"
       x2="38.536999"
       y2="10.435" />
    <linearGradient
       id="linearGradient5817">
      <stop
         id="stop5819"
         style="stop-color:#fff"
         offset="0" />
      <stop
         id="stop5821"
         style="stop-color:#fff;stop-opacity:0"
         offset="1" />
    </linearGradient>
    <linearGradient
       inkscape:collect="always"
       xlink:href="#linearGradient5817"
       id="linearGradient3609"
       gradientUnits="userSpaceOnUse"
       x1="38.449001"
       y1="8.6672001"
       x2="38.536999"
       y2="10.435"
       gradientTransform="translate(160.18007,89.395185)" />
    <linearGradient
       inkscape:collect="always"
       xlink:href="#linearGradient5817"
       id="linearGradient3613"
       gradientUnits="userSpaceOnUse"
       x1="40.546001"
       y1="9.4375"
       x2="42.912998"
       y2="9.8352003"
       gradientTransform="matrix(1.2222,0,0,1,150.91457,89.417282)" />
    <linearGradient
       inkscape:collect="always"
       xlink:href="#linearGradient5817"
       id="linearGradient3616"
       gradientUnits="userSpaceOnUse"
       x1="38.449001"
       y1="8.6672001"
       x2="38.625999"
       y2="12.291"
       gradientTransform="translate(160.18007,89.395185)" />
    <radialGradient
       inkscape:collect="always"
       xlink:href="#linearGradient7012-661-145-733-759-865-745"
       id="radialGradient4446"
       cx="142.00789"
       cy="36.496956"
       fx="142.00789"
       fy="36.496956"
       r="16.187489"
       gradientTransform="matrix(1.3387459,1.7058592e-7,-1.1900562e-7,0.9339475,-21.290846,90.140933)"
       gradientUnits="userSpaceOnUse" />
    <linearGradient
       id="linearGradient7012-661-145-733-759-865-745">
      <stop
         offset="0"
         style="stop-color:#9cbbd9;stop-opacity:1"
         id="stop2699" />
      <stop
         offset="1"
         style="stop-color:#5c82ab;stop-opacity:1"
         id="stop2701" />
    </linearGradient>
    <linearGradient
       gradientTransform="translate(26.411174,84.362185)"
       inkscape:collect="always"
       xlink:href="#linearGradient3390"
       id="linearGradient4525"
       x1="167.91298"
       y1="49.848286"
       x2="148.16809"
       y2="38.53458"
       gradientUnits="userSpaceOnUse" />
    <linearGradient
       id="linearGradient3390">
      <stop
         offset="0"
         style="stop-color:#425e7b;stop-opacity:1"
         id="stop3392" />
      <stop
         offset="1"
         style="stop-color:#7a91a7;stop-opacity:1"
         id="stop3394" />
    </linearGradient>
    <linearGradient
       inkscape:collect="always"
       xlink:href="#linearGradient6404"
       id="linearGradient4517"
       x1="145.94147"
       y1="36.346992"
       x2="145.94147"
       y2="37.773926"
       gradientUnits="userSpaceOnUse"
       gradientTransform="translate(26.411174,83.362435)" />
    <linearGradient
       id="linearGradient6404">
      <stop
         offset="0"
         style="stop-color:#f9f9f9;stop-opacity:1"
         id="stop6406" />
      <stop
         offset="1"
         style="stop-color:#c9c9c9;stop-opacity:1"
         id="stop6408" />
    </linearGradient>
    <radialGradient
       inkscape:collect="always"
       xlink:href="#linearGradient3484"
       id="radialGradient4495"
       cx="136.48074"
       cy="30.90633"
       fx="136.48074"
       fy="30.90633"
       r="11.171876"
       gradientTransform="matrix(0,1.1003141,-1.7973422,0,218.74445,-33.553117)"
       gradientUnits="userSpaceOnUse" />
    <linearGradient
       id="linearGradient3484">
      <stop
         offset="0"
         style="stop-color:#bdbdbd;stop-opacity:1"
         id="stop3486" />
      <stop
         offset="1"
         style="stop-color:#d0d0d0;stop-opacity:1"
         id="stop3488" />
    </linearGradient>
    <linearGradient
       inkscape:collect="always"
       xlink:href="#linearGradient5689"
       id="linearGradient3631"
       gradientUnits="userSpaceOnUse"
       x1="16.207001"
       y1="25.374001"
       x2="17.688"
       y2="34.937"
       gradientTransform="translate(160.18007,89.395185)" />
    <linearGradient
       id="linearGradient5689"
       y2="34.937"
       gradientUnits="userSpaceOnUse"
       x2="17.688"
       y1="25.374001"
       x1="16.207001">
      <stop
         id="stop5685"
         style="stop-color:#fff"
         offset="0" />
      <stop
         id="stop5687"
         style="stop-color:#fff;stop-opacity:0"
         offset="1" />
    </linearGradient>
    <linearGradient
       inkscape:collect="always"
       xlink:href="#linearGradient5679"
       id="linearGradient3634"
       gradientUnits="userSpaceOnUse"
       gradientTransform="translate(162.78567,89.246175)"
       x1="12.164"
       y1="25.804001"
       x2="11.655"
       y2="31.648001" />
    <linearGradient
       id="linearGradient5679"
       y2="31.648001"
       gradientUnits="userSpaceOnUse"
       x2="11.655"
       gradientTransform="translate(2.6056,-0.14901)"
       y1="25.804001"
       x1="12.164">
      <stop
         id="stop5635"
         style="stop-color:#f8f8f8"
         offset="0" />
      <stop
         id="stop5637"
         style="stop-color:#c7c7c1"
         offset="1" />
    </linearGradient>
    <linearGradient
       inkscape:collect="always"
       xlink:href="#linearGradient5681"
       id="linearGradient3636"
       gradientUnits="userSpaceOnUse"
       gradientTransform="translate(159.11757,89.395185)"
       x1="20.882"
       y1="39.453999"
       x2="18.973"
       y2="24.030001" />
    <linearGradient
       id="linearGradient5681"
       y2="24.030001"
       gradientUnits="userSpaceOnUse"
       x2="18.973"
       gradientTransform="translate(-1.0625,0)"
       y1="39.453999"
       x1="20.882">
      <stop
         id="stop5662"
         style="stop-color:#cbcbcb"
         offset="0" />
      <stop
         id="stop5664"
         style="stop-color:#9f9f9f"
         offset="1" />
    </linearGradient>
    <radialGradient
       inkscape:collect="always"
       xlink:href="#radialGradient6848"
       id="radialGradient3639"
       gradientUnits="userSpaceOnUse"
       gradientTransform="matrix(1,0,0,1.5548,160.18007,71.668186)"
       cx="34.312"
       cy="31.952999"
       r="2.2811999" />
    <radialGradient
       id="radialGradient6848"
       gradientUnits="userSpaceOnUse"
       cy="31.952999"
       cx="34.312"
       gradientTransform="matrix(1,0,0,1.5548,0,-17.727)"
       r="2.2811999">
      <stop
         id="stop6844"
         style="stop-color:#d8d9d7"
         offset="0" />
      <stop
         id="stop6846"
         style="stop-color:#7c7f79"
         offset="1" />
    </radialGradient>
    <linearGradient
       inkscape:collect="always"
       xlink:href="#linearGradient5617"
       id="linearGradient3641"
       gradientUnits="userSpaceOnUse"
       x1="34.125"
       y1="35.5"
       x2="33.780998"
       y2="29.516001"
       gradientTransform="translate(160.18007,89.395185)" />
    <linearGradient
       id="linearGradient5617"
       y2="29.516001"
       gradientUnits="userSpaceOnUse"
       x2="33.780998"
       y1="35.5"
       x1="34.125">
      <stop
         id="stop5613"
         style="stop-color:#5e5e5e"
         offset="0" />
      <stop
         id="stop5615"
         style="stop-color:#929292"
         offset="1" />
    </linearGradient>
    <linearGradient
       inkscape:collect="always"
       xlink:href="#linearGradient6838"
       id="linearGradient3645"
       gradientUnits="userSpaceOnUse"
       gradientTransform="matrix(1.053,0,0,1,157.93507,89.395185)"
       x1="30.25"
       y1="10.232"
       x2="30.25"
       y2="8.625" />
    <linearGradient
       id="linearGradient6838"
       y2="8.625"
       gradientUnits="userSpaceOnUse"
       x2="30.25"
       gradientTransform="matrix(1.053,0,0,1,-2.245,0)"
       y1="10.232"
       x1="30.25">
      <stop
         id="stop6834"
         style="stop-color:#555753"
         offset="0" />
      <stop
         id="stop6836"
         style="stop-color:#838680"
         offset="1" />
    </linearGradient>
    <linearGradient
       inkscape:collect="always"
       xlink:href="#linearGradient5743"
       id="linearGradient3648"
       gradientUnits="userSpaceOnUse"
       x1="27.445"
       y1="16.572001"
       x2="26.719"
       y2="26.118"
       gradientTransform="translate(160.18007,89.395185)" />
    <linearGradient
       id="linearGradient5743"
       y2="26.118"
       gradientUnits="userSpaceOnUse"
       x2="26.719"
       y1="16.572001"
       x1="27.445">
      <stop
         id="stop5739"
         style="stop-color:#babdb6"
         offset="0" />
      <stop
         id="stop5741"
         style="stop-color:#dddedb"
         offset="1" />
    </linearGradient>
    <linearGradient
       inkscape:collect="always"
       xlink:href="#linearGradient5514"
       id="linearGradient3651"
       gradientUnits="userSpaceOnUse"
       gradientTransform="matrix(1,0,0,0.99858,160.18007,91.452585)"
       x1="21.5"
       y1="21.858999"
       x2="23.892"
       y2="49.359001" />
    <linearGradient
       id="linearGradient5514"
       y2="49.359001"
       gradientUnits="userSpaceOnUse"
       x2="23.892"
       gradientTransform="matrix(1,0,0,0.99858,0,2.0574)"
       y1="21.858999"
       x1="21.5">
      <stop
         id="stop5510"
         style="stop-color:#fff"
         offset="0" />
      <stop
         id="stop5512"
         style="stop-color:#fff;stop-opacity:0"
         offset="1" />
    </linearGradient>
    <linearGradient
       inkscape:collect="always"
       xlink:href="#linearGradient5540"
       id="linearGradient3654"
       gradientUnits="userSpaceOnUse"
       x1="38.907001"
       y1="38.791"
       x2="35.314999"
       y2="23.059"
       gradientTransform="matrix(1,0,0,1.0057,156.55507,91.163785)" />
    <linearGradient
       id="linearGradient5540"
       y2="23.059"
       gradientUnits="userSpaceOnUse"
       x2="35.314999"
       y1="38.791"
       x1="38.907001">
      <stop
         id="stop5536"
         style="stop-color:#888a85"
         offset="0" />
      <stop
         id="stop5538"
         style="stop-color:#6b6d68"
         offset="1" />
    </linearGradient>
    <radialGradient
       inkscape:collect="always"
       xlink:href="#radialGradient5791"
       id="radialGradient3656"
       gradientUnits="userSpaceOnUse"
       gradientTransform="matrix(1.7481,0,0,1.7906488,133.51207,67.461448)"
       cx="30.128"
       cy="29.84"
       r="6.9986" />
    <radialGradient
       id="radialGradient5791"
       gradientUnits="userSpaceOnUse"
       cy="29.84"
       cx="30.128"
       gradientTransform="matrix(1.7481,0,0,1.7805,-23.043,-23.568)"
       r="6.9986">
      <stop
         id="stop5787"
         style="stop-color:#f1f1f0"
         offset="0" />
      <stop
         id="stop5789"
         style="stop-color:#7d7d7d;stop-opacity:1;"
         offset="1" />
    </radialGradient>
    <linearGradient
       inkscape:collect="always"
       xlink:href="#linearGradient5497"
       id="linearGradient3659"
       gradientUnits="userSpaceOnUse"
       gradientTransform="matrix(1,0,0,1.0126,160.18007,91.187385)"
       x1="15.876"
       y1="39.987"
       x2="15.876"
       y2="19.573" />
    <linearGradient
       id="linearGradient5497"
       y2="19.573"
       gradientUnits="userSpaceOnUse"
       x2="15.876"
       gradientTransform="matrix(1,0,0,1.0126,0,1.7922)"
       y1="39.987"
       x1="15.876">
      <stop
         id="stop5493"
         style="stop-color:#959792"
         offset="0" />
      <stop
         id="stop5501"
         style="stop-color:#838681"
         offset=".25" />
      <stop
         id="stop5499"
         style="stop-color:#abaca9"
         offset=".62437" />
      <stop
         id="stop5771"
         style="stop-color:#fff"
         offset=".79696" />
      <stop
         id="stop5495"
         style="stop-color:#90928d"
         offset="1" />
    </linearGradient>
    <linearGradient
       inkscape:collect="always"
       xlink:href="#linearGradient6715"
       id="linearGradient3672"
       gradientUnits="userSpaceOnUse"
       gradientTransform="matrix(2.7744,0,0,1.9697,-1892.2,-872.89)"
       x1="302.85999"
       y1="366.64999"
       x2="302.85999"
       y2="609.51001" />
    <linearGradient
       id="linearGradient6715"
       y2="609.51001"
       gradientUnits="userSpaceOnUse"
       x2="302.85999"
       gradientTransform="matrix(2.7744,0,0,1.9697,-1892.2,-872.89)"
       y1="366.64999"
       x1="302.85999">
      <stop
         id="stop5050"
         style="stop-opacity:0"
         offset="0" />
      <stop
         id="stop5056"
         offset=".5" />
      <stop
         id="stop5052"
         style="stop-opacity:0"
         offset="1" />
    </linearGradient>
    <radialGradient
       inkscape:collect="always"
       xlink:href="#linearGradient5060"
       id="radialGradient3674"
       gradientUnits="userSpaceOnUse"
       gradientTransform="matrix(2.7744,0,0,1.9697,-1891.6,-872.89)"
       cx="605.71002"
       cy="486.64999"
       r="117.14" />
    <linearGradient
       id="linearGradient5060">
      <stop
         id="stop5062"
         offset="0" />
      <stop
         id="stop5064"
         style="stop-opacity:0"
         offset="1" />
    </linearGradient>
    <radialGradient
       inkscape:collect="always"
       xlink:href="#linearGradient5060"
       id="radialGradient3676"
       gradientUnits="userSpaceOnUse"
       gradientTransform="matrix(-2.7744,0,0,1.9697,112.76,-872.89)"
       cx="605.71002"
       cy="486.64999"
       r="117.14" />
  </defs>
  <sodipodi:namedview
     id="base"
     pagecolor="#ffffff"
     bordercolor="#666666"
     borderopacity="1.0"
     inkscape:pageopacity="0.0"
     inkscape:pageshadow="2"
     inkscape:zoom="7.4270833"
     inkscape:cx="19.588826"
     inkscape:cy="24"
     inkscape:document-units="px"
     inkscape:current-layer="layer1"
     showgrid="false"
     fit-margin-top="0"
     fit-margin-left="0"
     fit-margin-right="0"
     fit-margin-bottom="0" />
  <metadata
     id="metadata6788">
    <rdf:RDF>
      <cc:Work
         rdf:about="">
        <dc:format>image/svg+xml</dc:format>
        <dc:type
           rdf:resource="http://purl.org/dc/dcmitype/StillImage" />
        <dc:title></dc:title>
      </cc:Work>
    </rdf:RDF>
  </metadata>
  <g
     inkscape:label="Capa 1"
     inkscape:groupmode="layer"
     id="layer1"
     transform="translate(-160.41118,-88.362183)">
    <g
       transform="matrix(0.020031,0,0,0.01419,200.10007,130.71269)"
       style="opacity:0.6;display:inline;enable-background:new"
       id="g3952">
      <rect
         x="-1559.3"
         y="-150.7"
         width="1339.6"
         height="478.35999"
         style="opacity:0.40206;color:#000000;fill:url(#linearGradient3672)"
         id="rect3954" />
      <path
         d="m -219.62,-150.68 v 478.33 c 142.88,0.9 345.4,-107.17 345.4,-239.2 0,-132.02 -159.44,-239.13 -345.4,-239.13 z"
         style="opacity:0.40206;color:#000000;fill:url(#radialGradient3674)"
         id="path3956"
         inkscape:connector-curvature="0" />
      <path
         d="m -1559.3,-150.68 v 478.33 c -142.8,0.9 -345.4,-107.17 -345.4,-239.2 0,-132.02 159.5,-239.13 345.4,-239.13 z"
         style="opacity:0.40206;color:#000000;fill:url(#radialGradient3676)"
         id="path3958"
         inkscape:connector-curvature="0" />
    </g>
    <path
       d="m 180.85107,127.51719 18.567,0.28 c 0.36,0 0.423,0.677 0.423,0.677 -0.747,2.79 -3.874,4.356 -5.966,4.356 l -23.57,0.032 c 7.234,-0.452 7.737,-0.885 8.307,-4.039 0.489,-0.988 1.401,-1.306 2.239,-1.306 z"
       style="color:#000000;fill:#5c82ab;fill-opacity:1;fill-rule:evenodd;stroke:#425e7b;stroke-linejoin:round;stroke-opacity:1;display:inline;enable-background:new"
       id="path5759"
       inkscape:connector-curvature="0" />
    <path
       d="m 170.18007,109.92019 c -3.588,0 -6.5,4.99 -6.5,11.138 0,6.148 2.912,10.87 6.5,10.87 0.086,0 0.165,-0.026 0.25,-0.032 v 0.032 h 22.22 v -22.034 c 0,0 -14.813,0.188 -22.47,0.026 z"
       style="color:#000000;fill:url(#linearGradient3659);stroke:#7d7d7d;stroke-width:1;stroke-linecap:square;stroke-miterlimit:4;stroke-opacity:1;stroke-dasharray:none;display:inline;enable-background:new"
       id="path5472"
       inkscape:connector-curvature="0" />
    <path
       d="m 199.68007,120.89429 a 6.5,11.000347 0 0 1 -13,0 6.5,11.000347 0 1 1 13,0 z"
       style="color:#000000;fill:url(#linearGradient3654);stroke:url(#radialGradient3656);stroke-width:0.99998784;stroke-linecap:square;display:inline;enable-background:new"
       id="path4585"
       inkscape:connector-curvature="0" />
    <path
       d="m 192.65407,110.89419 c 0,0 -14.974,0.174 -21.948,0.028 -3.2673,0 -5.9194,4.474 -5.9194,9.987 0,5.513 2.6521,9.987 5.9194,9.987 0.078,0 0.151,-0.023 0.228,-0.028 v 0.028 h 21.72 c 3.267,0 5.919,-4.474 5.919,-9.987 0,-5.513 -2.652,-9.987 -5.919,-9.987 v -0.028 z"
       style="opacity:0.41713999;color:#000000;fill:none;stroke:url(#linearGradient3651);stroke-width:0.99715;stroke-linecap:square;display:inline;enable-background:new"
       id="path5503"
       inkscape:connector-curvature="0" />
    <path
       d="m 182.36807,97.898585 c -1.054,0 -1.895,0.46 -2.376,1.250001 l -5.281,9.968604 -0.375,0.75 h 0.813 1.125 0.312 l 0.125,-0.281 4.907,-9.281 c 0.097,-0.157 0.424,-0.407004 0.75,-0.407004 l 21.671,0.008 c 0.21,-0.015 0.285,0.199004 0.211,0.297004 l -10.914,19.883 -0.25,0.437 0.438,0.25 0.875,0.469 0.437,0.219 0.25,-0.438 11.063,-20.156 c 0.37,-0.626 0.241,-1.321004 -0.063,-1.874904 -0.336,-0.6143 -1.024,-1.112901 -1.906,-1.093701 h -21.812 z"
       style="fill:url(#linearGradient3648);fill-rule:evenodd;stroke:#7d7d7d;stroke-opacity:1;display:inline;enable-background:new"
       id="path5477"
       inkscape:connector-curvature="0" />
    <rect
       x="182.68007"
       y="96.895187"
       width="19.875"
       height="4"
       ry="2"
       rx="2"
       style="color:#000000;fill:url(#linearGradient3645);stroke:#5a5a5a;stroke-linecap:square;stroke-opacity:1;display:inline;enable-background:new"
       id="rect6826" />
    <path
       d="m 195.23449,122.25551 a 1.7812,2.3604944 0 1 1 -3.562,0 1.7812,2.3604944 0 1 1 3.562,0 z"
       style="opacity:0.38286001;color:#000000;fill:#2e3436;stroke:#2e3436;stroke-width:0.99997461;stroke-linecap:square;display:inline;enable-background:new"
       id="path6850"
       inkscape:connector-curvature="0" />
    <path
       d="m 195.74207,121.34819 a 1.7812,3.0469 0 1 1 -3.562,0 1.7812,3.0469 0 1 1 3.562,0 z"
       style="color:#000000;fill:url(#radialGradient3639);stroke:url(#linearGradient3641);stroke-linecap:square;display:inline;enable-background:new"
       id="path6840"
       inkscape:connector-curvature="0" />
    <path
       d="m 168.67477,112.89519 h 15.029 c 0.471,0 0.914,0.505 0.538,1.007 -2.6,4.317 -1.635,10.006 0.063,14.14 0,0.472 -0.38,0.851 -0.851,0.851 l -15.217,1.313 c -0.4713,0 -0.6945,-0.536 -0.6945,-1.007 -0.2385,-4.746 -3.7041,-11.546 0.4817,-16.095 0,0 0.179,-0.209 0.6505,-0.209 z"
       style="color:#000000;fill:url(#linearGradient3634);stroke:url(#linearGradient3636);stroke-linecap:square;display:inline;enable-background:new"
       id="rect5631"
       inkscape:connector-curvature="0" />
    <path
       xlink:href="#rect5631"
       d="m 168.64887,113.89519 c -1.7562,1.974 -1.9483,4.366 -1.5938,7.062 0.3598,2.737 1.3072,5.596 1.4375,8.188 2e-4,0.01 2e-4,0.021 0,0.031 l 14.656,-1.281 c -1.588,-4.108 -2.423,-9.524 -0.03,-14 h -14.469 z"
       style="color:#000000;fill:none;stroke:url(#linearGradient3631);stroke-linecap:square;display:inline;enable-background:new"
       id="path5677"
       inkscape:connector-curvature="0" />
    <path
       style="color:#000000;fill:url(#linearGradient4517);fill-opacity:1;fill-rule:evenodd;stroke:url(#radialGradient4495);stroke-linejoin:round;stroke-opacity:1;display:inline;enable-background:new"
       d="m 166.12993,116.84099 c -0.3602,0 -0.4375,0.375 -0.4375,0.375 -0.0772,0.68439 -0.3486,0.79032 -0.3125,1.39645 0.0244,0.4101 -2.25251,-0.14357 -2.25,0.28125 0.042,7.1066 3.18371,10.90625 7.65625,10.90625 l 13.6875,0.0312 -1,-10.40625 c -0.0636,-0.66213 -0.74829,-0.625 -1.34375,-0.625 l -9,0 c -0.333,0 -0.717,-0.17125 -1,-0.40625 -0.122,-0.101 -0.40209,-0.78106 -0.5,-1.14645 -0.255,-0.204 -0.5565,-0.34275 -0.8125,-0.34375 z"
       id="path4480"
       inkscape:connector-curvature="0"
       sodipodi:nodetypes="cccsccssscccc" />
    <path
       d="m 182.13407,121.79919 -8.996,0 c -9.42766,0 -4.45462,0.0258 -10.31048,0.0258 0.042,7.1066 3.18491,10.97524 7.65745,10.97524 l 23.57,0.033 c -7.234,-0.453 -9.112,-6.574 -9.682,-9.727 -0.489,-0.989 -1.401,-1.307 -2.239,-1.307 z"
       style="color:#000000;fill:url(#radialGradient4446);fill-opacity:1;fill-rule:evenodd;stroke:url(#linearGradient4525);stroke-linejoin:round;display:inline;enable-background:new"
       id="rect337"
       inkscape:connector-curvature="0"
       sodipodi:nodetypes="ccccccsc" />
    <path
       d="m 205.83786,99.066453 a 0.32886,0.32886 0 0 1 -0.65772,0 0.32886,0.32886 0 1 1 0.65772,0 z"
       style="color:#000000;fill:#ffffff;display:inline;enable-background:new"
       id="path5745"
       inkscape:connector-curvature="0" />
    <path
       d="m 180.99507,99.874186 -4.949,9.502004 h -0.398 l 5.347,-9.502004 z"
       style="fill:#ffffff;fill-rule:evenodd;display:inline;enable-background:new"
       id="path5752"
       inkscape:connector-curvature="0" />
    <path
       d="m 205.43507,100.58119 -9.9,18.208 -0.265,-0.442 10.165,-17.766 z"
       style="fill:#ffffff;fill-rule:evenodd;display:inline;enable-background:new"
       id="path5754"
       inkscape:connector-curvature="0" />
    <path
       d="m 181.44512,99.13817 a 0.268065,0.268065 0 0 1 -0.53613,0 0.268065,0.268065 0 1 1 0.53613,0 z"
       style="color:#000000;fill:#ffffff;display:inline;enable-background:new"
       id="path5793"
       inkscape:connector-curvature="0" />
    <path
       d="m 199.33607,128.33319 c -0.25,1.812 -2.718,3.593 -5.062,4.031 1.517,-0.612 3.773,-1.293 5.062,-4.031 z"
       style="opacity:0.53142999;fill:#ffffff;fill-rule:evenodd;display:inline;enable-background:new"
       id="path5795"
       inkscape:connector-curvature="0" />
    <path
       d="m 198.36807,97.413685 c -0.524,0.1361 -0.938,0.7331 -0.938,1.437501 0,0.791 0.506,1.446004 1.125,1.469004 h 0.031 2.25 0.032 c 0.618,-0.023 1.125,-0.678004 1.124,-1.469004 0,-0.790601 -0.506,-1.414701 -1.124,-1.437501 h -0.25 -1.813 -0.219 c -0.011,0 -0.02,-4e-4 -0.031,0 -0.067,0.0025 -0.123,-0.0166 -0.187,0 z"
       style="opacity:0.53142999;color:#000000;fill:url(#linearGradient3616);display:inline;enable-background:new"
       id="path5797"
       inkscape:connector-curvature="0" />
    <path
       d="m 201.90353,98.854783 a 0.8598177,1.1568249 0 0 1 -1.71963,0 0.8598177,1.1568249 0 1 1 1.71963,0 z"
       style="opacity:0.48570999;color:#000000;fill:url(#linearGradient3613);display:inline;enable-background:new"
       id="path5829"
       inkscape:connector-curvature="0" />
    <path
       d="m 204.05507,98.395186 h -2.516 c -0.664,0 -0.595,1 0,1 h 2.25 l 0.266,-1 z"
       style="fill:#babdb6;fill-rule:evenodd;display:inline;enable-background:new"
       id="path6880"
       inkscape:connector-curvature="0" />
    <path
       d="m 184.49207,97.426385 c -0.658,0 -1.249,0.6325 -1.25,1.437601 0,0.8052 0.576,1.515204 1.235,1.515204 l 1.56,0.034 c -0.419,-0.189 -0.936,-0.705004 -0.936,-1.540104 0,-0.819801 0.567,-1.323801 0.898,-1.471401 -0.31,-0.0446 -1.22,0.0247 -1.507,0.0247 z"
       style="opacity:0.53142999;color:#000000;fill:url(#linearGradient3609);display:inline;enable-background:new"
       id="path5804"
       inkscape:connector-curvature="0" />
    <rect
       x="201.41406"
       y="98.559288"
       width="2.7811999"
       height="0.1875"
       ry="0.09375"
       rx="0.09375"
       style="color:#000000;fill:url(#linearGradient3606);display:inline;enable-background:new"
       id="rect5825" />
    <path
       d="m 200.38407,97.978485 c -0.182,0 -0.329,0.1477 -0.329,0.3296 0,0.0455 0.024,0.0842 0.041,0.123601 -0.14,0.2759 -0.09,0.7924 0.474,1.2775 -0.351,-0.443 -0.379,-0.8118 -0.268,-1.0921 0.028,0.0079 0.051,0.0206 0.082,0.0206 0.182,0 0.33,-0.1476 0.33,-0.329601 0,-0.1819 -0.148,-0.3296 -0.33,-0.3296 z"
       style="color:#000000;fill:#ffffff;display:inline;enable-background:new"
       id="path5747"
       inkscape:connector-curvature="0" />
    <path
       transform="translate(26.411174,84.362185)"
       sodipodi:type="inkscape:offset"
       inkscape:radius="-1.06066"
       inkscape:original="M 146.71875 37.4375 C 137.29109 37.4375 142.26211 37.46875 136.40625 37.46875 C 136.44825 44.575351 139.58996 48.4375 144.0625 48.4375 L 167.65625 48.46875 C 160.42225 48.01575 158.53875 41.903 157.96875 38.75 C 157.47975 37.761 156.55675 37.4375 155.71875 37.4375 L 146.71875 37.4375 z "
       style="color:#000000;fill:none;stroke:url(#linearGradient4637);stroke-linejoin:round;stroke-opacity:1;display:inline;enable-background:new"
       id="path4629"
       d="m 146.71875,38.5 c -8.33999,0 -5.85147,0.02562 -9.125,0.03125 0.1712,2.806738 0.8105,5.049593 1.84375,6.46875 1.17359,1.611913 2.69403,2.375 4.625,2.375 l 17.78125,0.03125 c -0.89758,-0.656677 -1.77912,-1.340967 -2.375,-2.15625 -1.51791,-2.076811 -2.11961,-4.379869 -2.4375,-6.03125 -0.008,-0.0161 -0.0231,-0.01583 -0.0312,-0.03125 C 156.70567,38.632034 156.26852,38.5 155.71875,38.5 l -9,0 z" />
  </g>
</svg>
