<?xml version="1.0" encoding="UTF-8" standalone="no"?>
<!-- Created with Inkscape (http://www.inkscape.org/) -->

<svg
   xmlns:dc="http://purl.org/dc/elements/1.1/"
   xmlns:cc="http://creativecommons.org/ns#"
   xmlns:rdf="http://www.w3.org/1999/02/22-rdf-syntax-ns#"
   xmlns:svg="http://www.w3.org/2000/svg"
   xmlns="http://www.w3.org/2000/svg"
   xmlns:sodipodi="http://sodipodi.sourceforge.net/DTD/sodipodi-0.dtd"
   xmlns:inkscape="http://www.inkscape.org/namespaces/inkscape"
   version="1.0"
   width="22"
   height="22"
   id="svg3200"
   inkscape:version="0.48.1 r9760"
   sodipodi:docname="nm-device-wired-secure.svg">
  <metadata
     id="metadata9">
    <rdf:RDF>
      <cc:Work
         rdf:about="">
        <dc:format>image/svg+xml</dc:format>
        <dc:type
           rdf:resource="http://purl.org/dc/dcmitype/StillImage" />
        <dc:title />
      </cc:Work>
    </rdf:RDF>
  </metadata>
  <sodipodi:namedview
     pagecolor="#ffffff"
     bordercolor="#666666"
     borderopacity="1"
     objecttolerance="10"
     gridtolerance="10"
     guidetolerance="10"
     inkscape:pageopacity="0"
     inkscape:pageshadow="2"
     inkscape:window-width="640"
     inkscape:window-height="480"
     id="namedview7"
     showgrid="true"
     inkscape:zoom="15.95082"
     inkscape:cx="11.922412"
     inkscape:cy="9.2768504"
     inkscape:current-layer="svg3200">
    <inkscape:grid
       type="xygrid"
       id="grid3796" />
  </sodipodi:namedview>
  <defs
     id="defs3202" />
  <g
     id="g3792"
     transform="matrix(0.90909091,0,0,0.90909091,0,-1.8181818)">
    <path
       d="m 7,2 -7,7 4,0 0,7 6,0 5,5 7,-7 -4,0 0,-7 -6,0 -5,-5 z m 3,7 2,0 0,5 -2,0 0,-5 z"
       id="path2427"
       style="opacity:0.6;fill:#eae3d0;fill-opacity:1;fill-rule:evenodd;stroke:none;stroke-width:1.69999993;marker:none;visibility:visible;display:inline;overflow:visible;enable-background:accumulate"
       inkscape:connector-curvature="0" />
    <path
       d="m 20,15 -5,5 -5,-5 3,0 0,-7 4,0 0,7 3,0 z M 12,8 7,3 2,8 l 3,0 0,7 4,0 0,-7 3,0 z"
       id="path4348-1"
       style="fill:#3a3935;fill-opacity:1;fill-rule:evenodd;stroke:none;stroke-width:1;marker:none;visibility:visible;display:inline;overflow:visible;enable-background:accumulate"
       inkscape:connector-curvature="0" />
  </g>
  <g
     id="g3775">
    <rect
       x="16"
       y="17"
       width="6"
       height="5"
       style="fill:#3a3935;fill-opacity:1"
       id="rect2822-8" />
    <path
       inkscape:connector-curvature="0"
       d="m 17.529,17 v -0.94118 c 0,-2 3,-2 3,0 V 17"
       style="fill:none;stroke:#3a3935;stroke-width:1px;stroke-opacity:1"
       id="path3596-9" />
  </g>
</svg>
