<?xml version="1.0" encoding="UTF-8" standalone="no"?>
<!-- Created with Inkscape (http://www.inkscape.org/) -->

<svg
   xmlns:dc="http://purl.org/dc/elements/1.1/"
   xmlns:cc="http://creativecommons.org/ns#"
   xmlns:rdf="http://www.w3.org/1999/02/22-rdf-syntax-ns#"
   xmlns:svg="http://www.w3.org/2000/svg"
   xmlns="http://www.w3.org/2000/svg"
   xmlns:sodipodi="http://sodipodi.sourceforge.net/DTD/sodipodi-0.dtd"
   xmlns:inkscape="http://www.inkscape.org/namespaces/inkscape"
   version="1.0"
   width="22"
   height="22"
   id="svg2816"
   style="display:inline"
   inkscape:version="0.48.0 r9654"
   sodipodi:docname="user-idle.svg">
  <metadata
     id="metadata11">
    <rdf:RDF>
      <cc:Work
         rdf:about="">
        <dc:format>image/svg+xml</dc:format>
        <dc:type
           rdf:resource="http://purl.org/dc/dcmitype/StillImage" />
      </cc:Work>
    </rdf:RDF>
  </metadata>
  <sodipodi:namedview
     pagecolor="#ffffff"
     bordercolor="#666666"
     borderopacity="1"
     objecttolerance="10"
     gridtolerance="10"
     guidetolerance="10"
     inkscape:pageopacity="0"
     inkscape:pageshadow="2"
     inkscape:window-width="1280"
     inkscape:window-height="724"
     id="namedview9"
     showgrid="false"
     inkscape:zoom="12.909091"
     inkscape:cx="-5.3838027"
     inkscape:cy="11"
     inkscape:window-x="0"
     inkscape:window-y="25"
     inkscape:window-maximized="1"
     inkscape:current-layer="svg2816" />
  <defs
     id="defs2818" />
  <path
     d="M 10.5,3 C 5.8201419,3 2.0000001,6.8201419 2,11.5 C 2,16.179858 5.820142,20 10.5,20 C 12.536607,20 14.379002,19.198943 15.84375,18 L 21,18 C 21.412848,18.012088 21.778153,17.756048 21.9375,17.375 C 22.096848,16.993951 22.017301,16.566656 21.71875,16.28125 L 18.71875,13.28125 C 18.853483,12.705488 19,12.139671 19,11.5 C 19,6.8201419 15.179858,3.0000001 10.5,3 z M 10.5,7 C 12.984,7 15,9.016 15,11.5 C 15,13.984 12.984,16 10.5,16 C 8.016,16 6,13.984 6,11.5 C 6,9.016 8.016,7 10.5,7 z"
     id="path3162"
     style="opacity:0.59999999999999998;fill:#e2af40;fill-opacity:1;fill-rule:evenodd;stroke:none;stroke-width:1.69999992999999994;stroke-linecap:round;stroke-linejoin:miter;marker:none;marker-start:none;marker-mid:none;marker-end:none;stroke-miterlimit:4;stroke-dasharray:none;stroke-dashoffset:0;stroke-opacity:1;visibility:visible;display:inline;overflow:visible;enable-background:accumulate" />
  <path
     d="M 10.5,4 C 6.36,4 3.0000001,7.3599999 3,11.5 C 3,15.64 6.3600001,19 10.5,19 C 12.464788,19 14.256106,18.23778 15.59375,17 L 21,17 L 17.65625,13.65625 C 17.864192,12.968633 18,12.255184 18,11.5 C 18,7.36 14.64,4.0000001 10.5,4 z M 10.5,7 C 12.984,7 15,9.016 15,11.5 C 15,13.984 12.984,16 10.5,16 C 8.016,16 6,13.984 6,11.5 C 6,9.016 8.016,7 10.5,7 z"
     id="path2396"
     style="fill:#e2af40;fill-opacity:1;fill-rule:evenodd;stroke:none;stroke-width:1;stroke-linecap:butt;stroke-linejoin:miter;marker:none;marker-start:none;marker-mid:none;marker-end:none;stroke-miterlimit:4;stroke-dasharray:none;stroke-dashoffset:0;stroke-opacity:1;visibility:visible;display:inline;overflow:visible;enable-background:accumulate" />
  <g
     transform="translate(18.25,-1.49928)"
     id="g3317"
     style="display:inline">
    <path
       d="M -5.9879519,12.99856 L -7.7499999,12.99856 L -7.7499999,10.498561"
       id="path2817"
       style="fill:none;stroke:#3a3935;stroke-width:1px;stroke-linecap:round;stroke-linejoin:round;stroke-opacity:1;display:inline" />
    <path
       d="M -3.4999999,12.99856 C -3.4996009,15.346052 -5.4025089,17.24928 -7.7500009,17.24928 C -10.097492,17.24928 -12.000398,15.346052 -12,12.99856 C -12.000398,10.651068 -10.097492,8.747839 -7.7500009,8.747839 C -5.4025089,8.747839 -3.4996009,10.651068 -3.4999999,12.99856 z"
       id="path3208"
       style="opacity:0.3;fill:none;fill-opacity:1;fill-rule:evenodd;stroke:#000000;stroke-width:0.5;stroke-linecap:round;stroke-linejoin:miter;marker:none;marker-start:none;marker-mid:none;marker-end:none;stroke-miterlimit:4;stroke-dasharray:none;stroke-dashoffset:0;stroke-opacity:1;visibility:visible;display:inline;overflow:visible;enable-background:accumulate" />
  </g>
  <path
     style="fill:#ffffff;fill-opacity:1"
     d="M 9.5617947,15.339077 C 8.542137,15.092271 7.4539065,14.248112 7.0098482,13.359487 6.359067,12.05718 6.4215176,10.538082 7.1736353,9.3753983 7.9282656,8.2088308 9.1242934,7.5605633 10.521934,7.5605633 c 2.6857,0 4.628629,2.7565307 3.701976,5.2521777 -0.715392,1.92668 -2.698915,3.001524 -4.6621153,2.526336 z m 3.0825773,-3.479218 c 0.164498,-0.218016 0.149412,-0.553399 -0.0331,-0.735915 -0.131783,-0.131783 -0.258216,-0.15493 -0.846258,-0.15493 l -0.691328,0 -0.02522,-1.0766237 C 11.026717,8.9642257 11.002891,8.7933158 10.87567,8.6529537 10.688412,8.4463529 10.334862,8.442603 10.132394,8.6450703 9.9886036,8.7888612 9.9774649,8.9032863 9.9774649,10.23662 c 0,1.433592 4.105e-4,1.437032 0.1959561,1.632575 0.193657,0.193658 0.208612,0.195661 1.275004,0.170775 0.971825,-0.02268 1.090665,-0.04058 1.195947,-0.180111 z"
     id="path2986"
     inkscape:connector-curvature="0" />
</svg>
