<?xml version="1.0" encoding="UTF-8" standalone="no"?>
<!-- Created with Inkscape (http://www.inkscape.org/) -->

<svg
   xmlns:dc="http://purl.org/dc/elements/1.1/"
   xmlns:cc="http://creativecommons.org/ns#"
   xmlns:rdf="http://www.w3.org/1999/02/22-rdf-syntax-ns#"
   xmlns:svg="http://www.w3.org/2000/svg"
   xmlns="http://www.w3.org/2000/svg"
   xmlns:sodipodi="http://sodipodi.sourceforge.net/DTD/sodipodi-0.dtd"
   xmlns:inkscape="http://www.inkscape.org/namespaces/inkscape"
   version="1.0"
   width="22"
   height="22"
   id="svg2816"
   style="display:inline"
   inkscape:version="0.48.0 r9654"
   sodipodi:docname="user-offline.svg">
  <metadata
     id="metadata8">
    <rdf:RDF>
      <cc:Work
         rdf:about="">
        <dc:format>image/svg+xml</dc:format>
        <dc:type
           rdf:resource="http://purl.org/dc/dcmitype/StillImage" />
      </cc:Work>
    </rdf:RDF>
  </metadata>
  <sodipodi:namedview
     pagecolor="#ffffff"
     bordercolor="#666666"
     borderopacity="1"
     objecttolerance="10"
     gridtolerance="10"
     guidetolerance="10"
     inkscape:pageopacity="0"
     inkscape:pageshadow="2"
     inkscape:window-width="1280"
     inkscape:window-height="724"
     id="namedview6"
     showgrid="false"
     inkscape:zoom="12.909091"
     inkscape:cx="11"
     inkscape:cy="11"
     inkscape:window-x="0"
     inkscape:window-y="25"
     inkscape:window-maximized="1"
     inkscape:current-layer="svg2816" />
  <defs
     id="defs2818" />
  <path
     d="M 10.5,3 C 5.8201419,3 2.0000001,6.8201419 2,11.5 C 2,16.179858 5.820142,20 10.5,20 C 12.536607,20 14.379002,19.198943 15.84375,18 L 21,18 C 21.412848,18.012088 21.778152,17.756048 21.9375,17.375 C 22.096848,16.993951 22.017301,16.566656 21.71875,16.28125 L 18.71875,13.28125 C 18.853483,12.705488 19,12.139671 19,11.5 C 19,6.8201419 15.179858,3.0000001 10.5,3 z M 8.3125,8 L 10.5,10.25 L 12.75,8.03125 L 14,9.3125 L 11.75,11.5 L 13.96875,13.75 L 12.6875,15 L 10.5,12.75 L 8.25,14.96875 L 7,13.6875 L 9.25,11.5 L 7.03125,9.25 L 8.3125,8 z"
     id="path3162"
     style="opacity:0.59999999999999998;fill:#3a3935;fill-opacity:1;fill-rule:evenodd;stroke:none;stroke-width:1.69999992999999994;stroke-linecap:round;stroke-linejoin:miter;marker:none;marker-start:none;marker-mid:none;marker-end:none;stroke-miterlimit:4;stroke-dasharray:none;stroke-dashoffset:0;stroke-opacity:1;visibility:visible;display:inline;overflow:visible;enable-background:accumulate" />
  <path
     d="M 10.5,4 C 6.36,4 3.0000001,7.3599999 3,11.5 C 3,15.64 6.3600001,19 10.5,19 C 12.464788,19 14.256106,18.23778 15.59375,17 L 21,17 L 17.65625,13.65625 C 17.864192,12.968633 18,12.255184 18,11.5 C 18,7.36 14.64,4.0000001 10.5,4 z M 8.3125,8 L 10.5,10.25 L 12.75,8.03125 L 14,9.3125 L 11.75,11.5 L 13.96875,13.75 L 12.6875,15 L 10.5,12.75 L 8.25,14.96875 L 7,13.6875 L 9.25,11.5 L 7.03125,9.25 L 8.3125,8 z"
     id="path2396"
     style="fill:#3a3935;fill-opacity:1;fill-rule:evenodd;stroke:none;stroke-width:1;stroke-linecap:butt;stroke-linejoin:miter;marker:none;marker-start:none;marker-mid:none;marker-end:none;stroke-miterlimit:4;stroke-dasharray:none;stroke-dashoffset:0;stroke-opacity:1;visibility:visible;display:inline;overflow:visible;enable-background:accumulate" />
  <path
     style="fill:#ffffff;fill-opacity:1"
     d="m 11.61948,13.837263 c -0.588194,-0.597608 -1.09459,-1.086559 -1.125325,-1.086559 -0.03073,0 -0.140391,0.09071 -0.24368,0.20158 -0.103289,0.110868 -0.5994245,0.587292 -1.1025224,1.05872 l -0.9147234,0.85714 -0.5769597,-0.573109 -0.5769598,-0.573109 1.084993,-1.086932 c 0.5967462,-0.597813 1.0849931,-1.120904 1.0849931,-1.162425 0,-0.04152 -0.4789393,-0.555351 -1.0643094,-1.141843 L 7.120677,9.2643752 7.7221758,8.6642299 8.3236745,8.0640845 l 1.0706041,1.1225098 1.0706044,1.1225097 1.15453,-1.1037389 1.154531,-1.103739 0.557863,0.6009475 0.557863,0.6009475 -1.099115,1.1038729 -1.099114,1.103874 1.103296,1.105268 1.103296,1.105268 -0.604554,0.601008 -0.604555,0.601009 -1.069444,-1.086558 z"
     id="path3753"
     inkscape:connector-curvature="0" />
</svg>
