<?xml version="1.0" encoding="UTF-8" standalone="no"?>
<!-- Created with Inkscape (http://www.inkscape.org/) -->

<svg
   xmlns:dc="http://purl.org/dc/elements/1.1/"
   xmlns:cc="http://creativecommons.org/ns#"
   xmlns:rdf="http://www.w3.org/1999/02/22-rdf-syntax-ns#"
   xmlns:svg="http://www.w3.org/2000/svg"
   xmlns="http://www.w3.org/2000/svg"
   xmlns:sodipodi="http://sodipodi.sourceforge.net/DTD/sodipodi-0.dtd"
   xmlns:inkscape="http://www.inkscape.org/namespaces/inkscape"
   version="1.1"
   width="24"
   height="24"
   id="svg3869"
   inkscape:version="0.48.0 r9654"
   sodipodi:docname="vineyard-panel-idle.svg">
  <sodipodi:namedview
     pagecolor="#ffffff"
     bordercolor="#666666"
     borderopacity="1"
     objecttolerance="10"
     gridtolerance="10"
     guidetolerance="10"
     inkscape:pageopacity="0"
     inkscape:pageshadow="2"
     inkscape:window-width="919"
     inkscape:window-height="681"
     id="namedview14"
     showgrid="false"
     inkscape:zoom="11.875"
     inkscape:cx="14.796588"
     inkscape:cy="11.813348"
     inkscape:window-x="1"
     inkscape:window-y="24"
     inkscape:window-maximized="0"
     inkscape:current-layer="svg3869" />
  <defs
     id="defs3871" />
  <metadata
     id="metadata3874">
    <rdf:RDF>
      <cc:Work
         rdf:about="">
        <dc:format>image/svg+xml</dc:format>
        <dc:type
           rdf:resource="http://purl.org/dc/dcmitype/StillImage" />
        <dc:title></dc:title>
      </cc:Work>
    </rdf:RDF>
  </metadata>
  <path
     inkscape:connector-curvature="0"
     style="fill:#e20000;fill-opacity:1;stroke-width:1;stroke-miterlimit:4;stroke-dasharray:none;opacity:1"
     id="path3819"
     d="m 6.230781,21.7682 c -1.34279,-0.4842 -2.22803,-1.7578 -2.23078,-3.2093 -9.9e-4,-0.5754 0.73289,-1.9699 1.16591,-2.215 0.2406,-0.1363 0.21857,-0.2423 -0.17105,-0.8232 -1.02149,-1.523 -0.62311,-3.6725 0.83848,-4.5243 0.20155,-0.1174 0.21232,-0.316 0.0581,-1.0708 C 5.730611,9.1388 5.750311,8.8908 6.022081,8.281 6.380401,7.477 6.842721,6.9825 7.613091,6.5792 8.079671,6.3349 8.097971,6.2951 7.789871,6.1944 7.116191,5.9743 6.028411,5.5052 5.811021,5.3411 5.443351,5.0636 5.561151,4.3728 6.041341,3.9906 c 0.77765,-0.6189 5.408,-1.9877 6.73406,-1.9907 0.68664,0 1.4638,0.8257 1.92594,2.05 0.26715,0.7078 0.37276,0.82 0.68463,0.7273 1.55607,-0.4624 2.13912,-0.1722 3.47266,1.7281 1.66383,2.3711 2.61354,4.8074 2.11224,5.4186 -0.43999,0.5364 -1.34498,0.2822 -2.94989,-0.8285 -0.87225,-0.6037 -1.13236,-0.6309 -1.5516,-0.1622 -0.30158,0.3372 -0.29656,0.3533 0.14518,0.4655 0.64029,0.1626 1.64741,1.3511 1.87751,2.2157 0.27135,1.0196 -0.0385,2.0614 -0.86039,2.893 -0.65877,0.6665 -1.89584,1.159 -2.50589,0.9976 -0.23745,-0.063 -0.33756,0.057 -0.42002,0.5014 -0.34131,1.8408 -2.38353,3.0167 -4.1543,2.3922 -0.54141,-0.191 -0.5990101,-0.1677 -1.0966001,0.4431 -0.36846,0.4522 -0.79566,0.7259 -1.4315799,0.917 -1.06668,0.3205 -0.93233,0.3197 -1.79246,0.01 l 0,0 z m 1.92431,-0.889 c 2.16614,-0.9158 1.4392699,-4.3929 -0.91832,-4.3929 -1.51728,0 -2.35387,0.8502 -2.35387,2.392 0,0.6059 0.11448,0.9377 0.47172,1.3673 0.75666,0.9098 1.66231,1.1147 2.80047,0.6336 z m 4.72398,-1.4698 c 1.3949,-0.7109 1.33835,-3.1198 -0.094,-4.0035 -0.98634,-0.6085 -2.44899,-0.3057 -3.0567501,0.6328 -0.29515,0.4557 -0.29398,0.5012 0.0266,1.0434 0.18433,0.3117 0.3766701,0.9693 0.4274201,1.4611 0.0859,0.8327 0.13493,0.9087 0.71099,1.1035 0.66119,0.2235 1.21023,0.1579 1.98576,-0.2373 l 0,0 z m 3.6877,-3.0212 c 0.68983,-0.3609 1.21935,-1.2577 1.22018,-2.0665 7.6e-4,-0.7464 -0.59815,-1.7484 -1.24208,-2.0781 -0.61187,-0.3132 -1.70607,-0.2827 -2.28576,0.064 -1.03052,0.616 -1.3975,2.0365 -0.69121,2.6757 0.20707,0.1874 0.56604,0.6425 0.7977,1.0114 0.35692,0.5684 0.5167,0.6708 1.04651,0.6708 0.34391,0 0.8635,-0.1247 1.15466,-0.277 l 0,0 z M 9.2332609,15.2055 c 0.64432,-0.6504 0.7689901,-1.9655 0.26349,-2.7796 -1.2127899,-1.953 -4.2602899,-1.1551 -4.2602899,1.1155 0,0.8578 0.35374,1.7555 0.78689,1.997 0.14112,0.079 0.81499,0.1431 1.49749,0.1431 1.1076799,0 1.2915399,-0.051 1.7124199,-0.476 l 0,0 z m 3.0742601,-1.1668 c 0,-0.5935 0.75604,-1.8658 1.3524,-2.2758 l 0.60748,-0.4176 -0.45539,-0.5476 c -0.89688,-1.0785 -2.48602,-1.1606 -3.45651,-0.1787 -0.6229501,0.6303 -0.6261901,0.6616 -0.15259,1.4737 0.20364,0.3492 0.39508,0.9776 0.42545,1.3964 0.0304,0.4188 0.0626,0.7816 0.0718,0.8062 0.009,0.025 0.37446,0.045 0.81198,0.045 0.62794,0 0.79548,-0.063 0.79548,-0.3013 z m 7.77818,-3.2096 c 0,-0.5199 -1.61762,-3.4122 -2.44119,-4.3647 -0.85982,-0.9945 -0.87259,-0.9976 -2.5415,-0.6051 -0.4479,0.1053 -0.51603,0.029 -1.19914,-1.3458 -0.39835,-0.8016 -0.82597,-1.497 -0.95027,-1.5452 -0.49141,-0.1908 -6.12616,1.3786 -6.12616,1.7062 0,0.1548 0.48367,0.3705 1.8561699,0.8279 0.48614,0.1621 1.08275,0.4346 1.3258301,0.6057 0.24305,0.1711 0.94308,0.5366 1.5556,0.8122 1.22249,0.55 1.44959,0.826 1.44959,1.7618 0,0.4567 0.0903,0.6547 0.33445,0.7331 0.18394,0.059 0.59373,0.3757 0.91065,0.7037 0.66817,0.6914 1.01632,0.6731 1.89884,-0.1 0.31937,-0.2797 0.71713,-0.5068 0.88389,-0.5047 0.16677,0 0.85319,0.3643 1.52538,0.8049 1.34489,0.8815 1.51786,0.9395 1.51786,0.5096 z M 9.5313209,10.4189 c 0.16787,-0.2876 0.6204901,-0.6699 1.0058301,-0.8496 0.38533,-0.1798 0.70265,-0.4558 0.70516,-0.6134 0.009,-0.5846 -0.79222,-1.4984 -1.5480101,-1.7648 -0.65574,-0.2311 -0.83532,-0.2311 -1.4910599,0 -0.95047,0.335 -1.55361,1.1958 -1.54986,2.212 0.004,0.9593 0.11568,1.0834 1.02352,1.1328 0.41858,0.023 0.8958599,0.1209 1.0606599,0.2181 0.42985,0.2536 0.45661,0.2424 0.79376,-0.3351 z M 11.983751,8.2173 c -0.13117,-0.1327 -0.15418,-0.063 -0.0773,0.2347 0.0625,0.2418 0.14265,0.3229 0.18678,0.1889 0.0425,-0.129 -0.007,-0.3196 -0.10948,-0.4236 z" />
</svg>
