<?xml version="1.0" encoding="UTF-8" standalone="no"?>
<!-- Created with Inkscape (http://www.inkscape.org/) -->

<svg
   xmlns:dc="http://purl.org/dc/elements/1.1/"
   xmlns:cc="http://creativecommons.org/ns#"
   xmlns:rdf="http://www.w3.org/1999/02/22-rdf-syntax-ns#"
   xmlns:svg="http://www.w3.org/2000/svg"
   xmlns="http://www.w3.org/2000/svg"
   xmlns:xlink="http://www.w3.org/1999/xlink"
   xmlns:sodipodi="http://sodipodi.sourceforge.net/DTD/sodipodi-0.dtd"
   xmlns:inkscape="http://www.inkscape.org/namespaces/inkscape"
   width="64"
   height="64"
   id="svg3167"
   version="1.1"
   inkscape:version="0.47 r22583"
   sodipodi:docname="vlc64.svg"
   inkscape:export-filename="/home/seba/Dropbox/elementary/vlc48.png"
   inkscape:export-xdpi="90"
   inkscape:export-ydpi="90">
  <defs
     id="defs3169">
    <linearGradient
       id="linearGradient4801">
      <stop
         id="stop4803"
         offset="0"
         style="stop-color:#c0c0c0;stop-opacity:1;" />
      <stop
         style="stop-color:#ffffff;stop-opacity:1;"
         offset="0.25"
         id="stop4805" />
      <stop
         style="stop-color:#d2d2d2;stop-opacity:1;"
         offset="0.49916923"
         id="stop4807" />
      <stop
         id="stop4809"
         offset="1"
         style="stop-color:#c8c8c8;stop-opacity:1;" />
    </linearGradient>
    <linearGradient
       inkscape:collect="always"
       id="linearGradient4526">
      <stop
         style="stop-color:#ffffff;stop-opacity:1;"
         offset="0"
         id="stop4528" />
      <stop
         style="stop-color:#ffffff;stop-opacity:0;"
         offset="1"
         id="stop4530" />
    </linearGradient>
    <linearGradient
       id="linearGradient4426">
      <stop
         style="stop-color:#cc4f00;stop-opacity:1"
         offset="0"
         id="stop4428" />
      <stop
         id="stop4436"
         offset="0.25"
         style="stop-color:#ff8636;stop-opacity:1;" />
      <stop
         id="stop4434"
         offset="0.49916923"
         style="stop-color:#ef6000;stop-opacity:1;" />
      <stop
         style="stop-color:#da5700;stop-opacity:1;"
         offset="1"
         id="stop4430" />
    </linearGradient>
    <linearGradient
       id="linearGradient4019">
      <stop
         style="stop-color:#cc5506;stop-opacity:1;"
         offset="0"
         id="stop4021" />
      <stop
         style="stop-color:#f98b41;stop-opacity:1;"
         offset="1"
         id="stop4023" />
    </linearGradient>
    <linearGradient
       inkscape:collect="always"
       id="linearGradient4005">
      <stop
         style="stop-color:#ffffff;stop-opacity:1;"
         offset="0"
         id="stop4007" />
      <stop
         style="stop-color:#ffffff;stop-opacity:0;"
         offset="1"
         id="stop4009" />
    </linearGradient>
    <linearGradient
       id="linearGradient5048">
      <stop
         id="stop5050"
         style="stop-color:#000000;stop-opacity:0"
         offset="0" />
      <stop
         id="stop5056"
         style="stop-color:#000000;stop-opacity:1"
         offset="0.5" />
      <stop
         id="stop5052"
         style="stop-color:#000000;stop-opacity:0"
         offset="1" />
    </linearGradient>
    <linearGradient
       id="linearGradient5060">
      <stop
         id="stop5062"
         style="stop-color:#000000;stop-opacity:1"
         offset="0" />
      <stop
         id="stop5064"
         style="stop-color:#000000;stop-opacity:0"
         offset="1" />
    </linearGradient>
    <linearGradient
       inkscape:collect="always"
       xlink:href="#linearGradient5048"
       id="linearGradient4847"
       gradientUnits="userSpaceOnUse"
       gradientTransform="matrix(2.774389,0,0,1.969706,-1892.179,-935.12585)"
       x1="302.85715"
       y1="366.64789"
       x2="302.85715"
       y2="609.50507" />
    <radialGradient
       inkscape:collect="always"
       xlink:href="#linearGradient5060"
       id="radialGradient4849"
       gradientUnits="userSpaceOnUse"
       gradientTransform="matrix(2.774389,0,0,1.969706,-1891.633,-935.12585)"
       cx="605.71429"
       cy="486.64789"
       fx="605.71429"
       fy="486.64789"
       r="117.14286" />
    <radialGradient
       inkscape:collect="always"
       xlink:href="#linearGradient5060"
       id="radialGradient4851"
       gradientUnits="userSpaceOnUse"
       gradientTransform="matrix(-2.774389,0,0,1.969706,112.7623,-935.12585)"
       cx="605.71429"
       cy="486.64789"
       fx="605.71429"
       fy="486.64789"
       r="117.14286" />
    <linearGradient
       inkscape:collect="always"
       xlink:href="#linearGradient4019"
       id="linearGradient4853"
       gradientUnits="userSpaceOnUse"
       x1="24.285713"
       y1="27.642859"
       x2="24.285713"
       y2="44.642857"
       gradientTransform="matrix(1,0,0,0.96484375,0,0.98939735)" />
    <linearGradient
       inkscape:collect="always"
       xlink:href="#linearGradient4005"
       id="linearGradient4855"
       gradientUnits="userSpaceOnUse"
       x1="24.285713"
       y1="47.332169"
       x2="24.285713"
       y2="36.142857" />
    <linearGradient
       inkscape:collect="always"
       xlink:href="#linearGradient4426"
       id="linearGradient4857"
       gradientUnits="userSpaceOnUse"
       x1="13.914721"
       y1="20.5625"
       x2="33.147778"
       y2="23.0625"
       gradientTransform="matrix(1,0,0,0.98581946,0,0.00738065)" />
    <linearGradient
       inkscape:collect="always"
       xlink:href="#linearGradient4801"
       id="linearGradient4861"
       gradientUnits="userSpaceOnUse"
       x1="13.914721"
       y1="20.5625"
       x2="33.147778"
       y2="23.0625"
       gradientTransform="matrix(1.0062577,0,0,1,-0.08254821,0)" />
    <linearGradient
       inkscape:collect="always"
       xlink:href="#linearGradient4801"
       id="linearGradient4863"
       gradientUnits="userSpaceOnUse"
       x1="13.914721"
       y1="20.5625"
       x2="33.147778"
       y2="23.0625"
       gradientTransform="matrix(1.0265938,0,0,1,-0.60306857,0)" />
    <linearGradient
       inkscape:collect="always"
       xlink:href="#linearGradient4526"
       id="linearGradient10761"
       gradientUnits="userSpaceOnUse"
       gradientTransform="translate(0,0.40019516)"
       x1="24.40625"
       y1="44.4375"
       x2="24.40625"
       y2="34.6875" />
  </defs>
  <sodipodi:namedview
     id="base"
     pagecolor="#ffffff"
     bordercolor="#666666"
     borderopacity="1.0"
     inkscape:pageopacity="0.0"
     inkscape:pageshadow="2"
     inkscape:zoom="1"
     inkscape:cx="14.526607"
     inkscape:cy="41.420495"
     inkscape:current-layer="layer1"
     showgrid="false"
     inkscape:grid-bbox="true"
     inkscape:document-units="px"
     showguides="true"
     inkscape:guide-bbox="true"
     objecttolerance="1"
     gridtolerance="1"
     guidetolerance="1">
    <inkscape:grid
       type="xygrid"
       id="grid4865"
       empspacing="5"
       visible="true"
       enabled="true"
       snapvisiblegridlinesonly="true" />
  </sodipodi:namedview>
  <metadata
     id="metadata3172">
    <rdf:RDF>
      <cc:Work
         rdf:about="">
        <dc:format>image/svg+xml</dc:format>
        <dc:type
           rdf:resource="http://purl.org/dc/dcmitype/StillImage" />
      </cc:Work>
    </rdf:RDF>
  </metadata>
  <g
     id="layer1"
     inkscape:label="Layer 1"
     inkscape:groupmode="layer"
     transform="translate(0,16)">
    <g
       id="g4833"
       transform="matrix(1.3358784,0,0,1.3358784,-0.44276022,-16.122265)">
      <g
         transform="matrix(0.02232353,0,0,0.01202587,44.141055,44.0596)"
         id="g8875">
        <rect
           width="1339.6335"
           height="478.35718"
           x="-1559.2523"
           y="-212.93729"
           id="rect8877"
           style="opacity:0.40206185;fill:url(#linearGradient4847);fill-opacity:1;fill-rule:nonzero;stroke:none;stroke-width:1;marker:none;visibility:visible;display:inline;overflow:visible" />
        <path
           d="m -219.61876,-212.92083 c 0,0 0,478.33079 0,478.33079 142.874166,0.90045 345.40022,-107.16966 345.40014,-239.196176 0,-132.026534 -159.436816,-239.134594 -345.40014,-239.134614 z"
           id="path8879"
           style="opacity:0.40206185;fill:url(#radialGradient4849);fill-opacity:1;fill-rule:nonzero;stroke:none;stroke-width:1;marker:none;visibility:visible;display:inline;overflow:visible" />
        <path
           d="m -1559.2523,-212.92083 c 0,0 0,478.33079 0,478.33079 -142.8742,0.90045 -345.4002,-107.16966 -345.4002,-239.196176 0,-132.026534 159.4368,-239.134594 345.4002,-239.134614 z"
           id="path8881"
           style="opacity:0.40206185;fill:url(#radialGradient4851);fill-opacity:1;fill-rule:nonzero;stroke:none;stroke-width:1;marker:none;visibility:visible;display:inline;overflow:visible" />
      </g>
      <path
         sodipodi:nodetypes="ccccccccc"
         id="rect3186-2"
         d="m 9.571605,29.143 29.71393,0 c 0.633241,0 1.143035,0.533311 1.143035,1.195764 l 4,13.135258 c 0,0.662452 -0.509794,1.195764 -1.143035,1.195764 l -37.999644,0 c -0.633241,0 -1.143034,-0.533312 -1.143034,-1.195764 L 8.428571,30.338764 c 0,-0.662453 0.509793,-1.195764 1.143034,-1.195764 z"
         style="color:#000000;fill:#c85100;fill-opacity:1;stroke:#c85100;stroke-width:0.74857116;stroke-linecap:square;stroke-linejoin:round;stroke-miterlimit:4;stroke-opacity:1;stroke-dashoffset:0.44999996;marker:none;visibility:visible;display:inline;overflow:visible;enable-background:accumulate" />
      <path
         sodipodi:nodetypes="ccccccccc"
         id="rect3186"
         d="m 9.571605,28.142858 29.71393,0 c 0.633241,0 1.143035,0.530244 1.143035,1.188888 l 4,13.059724 c 0,0.658644 -0.509794,1.188888 -1.143035,1.188888 l -37.999644,0 c -0.633241,0 -1.143034,-0.530244 -1.143034,-1.188888 L 8.428571,29.331746 c 0,-0.658644 0.509793,-1.188888 1.143034,-1.188888 z"
         style="color:#000000;fill:url(#linearGradient4853);fill-opacity:1;stroke:#c85100;stroke-width:0.7485711;stroke-linecap:square;stroke-linejoin:round;stroke-miterlimit:4;stroke-opacity:1;stroke-dashoffset:0.44999996;marker:none;visibility:visible;display:inline;overflow:visible;enable-background:accumulate" />
      <path
         d="m 9.5625,28.875 c -0.2218744,0 -0.40625,0.167387 -0.40625,0.5 A 0.72892242,0.72892242 0 0 1 9.125,29.59375 L 4.90625,42.9375 c 0.023475,0.29301 0.190067,0.5 0.375,0.5 l 38,0 c 0.185247,0 0.379785,-0.221811 0.40625,-0.5 L 39.75,29.59375 A 0.72892242,0.72892242 0 0 1 39.71875,29.375 c 0,-0.310369 -0.215626,-0.5 -0.4375,-0.5 l -29.71875,0 z"
         id="path4015"
         style="color:#000000;fill:none;stroke:url(#linearGradient4855);stroke-width:0.7674818;stroke-linecap:square;stroke-linejoin:round;stroke-miterlimit:4;stroke-opacity:1;stroke-dasharray:none;stroke-dashoffset:0.44999996;marker:none;visibility:visible;display:inline;overflow:visible;enable-background:accumulate"
         inkscape:original="M 9.5625 28.15625 C 8.929259 28.15625 8.4375 28.692357 8.4375 29.375 L 4.15625 42.90625 C 4.15625 43.588893 4.648009 44.15625 5.28125 44.15625 L 43.28125 44.15625 C 43.914491 44.15625 44.4375 43.588893 44.4375 42.90625 L 40.4375 29.375 C 40.4375 28.692357 39.914491 28.15625 39.28125 28.15625 L 9.5625 28.15625 z "
         inkscape:radius="-0.72884953"
         sodipodi:type="inkscape:offset"
         transform="matrix(1,0,0,0.95132743,0,1.4160675)" />
      <g
         transform="translate(-0.1205365,0)"
         id="g4819">
        <path
           style="color:#000000;fill:url(#linearGradient4857);fill-opacity:1;stroke:#c85100;stroke-width:0.74857113;stroke-opacity:1;marker:none;visibility:visible;display:inline;overflow:visible;enable-background:accumulate;stroke-miterlimit:4;stroke-dasharray:none"
           d="M 26.4375,0.93158641 C 25.049067,0.34827984 23.915257,0.40173516 22.625,0.9902128 22.291366,1.1423809 22.032645,1.4902464 21.9375,1.8402954 19.059874,12.427451 12.25,32.355328 12.25,32.355328 c -0.419963,0.549582 -0.65625,1.118843 -0.65625,1.729479 0,3.067933 5.734247,5.540193 12.8125,5.540193 7.078253,0 12.8125,-2.47226 12.8125,-5.540193 0,-0.554986 -0.212985,-1.077228 -0.5625,-1.582912 -0.01275,-0.01845 -0.01807,-0.04026 -0.03125,-0.05863 0,0 -6.640927,-20.604873 -9.40625,-30.7788518 C 27.12571,1.3221209 26.768191,1.0705158 26.4375,0.93158641 z"
           id="path4421"
           sodipodi:nodetypes="csscsssscss" />
        <path
           sodipodi:type="inkscape:offset"
           inkscape:radius="-0.18901305"
           inkscape:original="M 26.4375 1.34375 L 22.625 1.40625 L 21.9375 2.25 L 12.25 33.21875 C 11.830037 33.776238 11.59375 34.34933 11.59375 34.96875 C 11.59375 38.080814 17.327997 40.59375 24.40625 40.59375 C 31.484503 40.59375 37.21875 38.080814 37.21875 34.96875 C 37.21875 34.405781 37.005765 33.887958 36.65625 33.375 C 36.6435 33.35628 36.63818 33.33113 36.625 33.3125 L 27.21875 2.09375 L 26.4375 1.34375 z "
           style="color:#000000;fill:none;stroke:url(#linearGradient10761);stroke-width:0.74857113;stroke-opacity:1;marker:none;visibility:visible;display:inline;overflow:visible;enable-background:accumulate;stroke-miterlimit:4;stroke-dasharray:none"
           id="path10759"
           d="m 26.375,1.53125 -3.65625,0.0625 -0.59375,0.71875 0,0.03125 L 22.09375,2.375 12.4375,33.28125 a 0.18903195,0.18903195 0 0 1 -0.03125,0.03125 0.18903195,0.18903195 0 0 1 0,0.03125 c -0.403007,0.534979 -0.625,1.053648 -0.625,1.625 0,0.719971 0.344458,1.414093 0.96875,2.0625 0.624292,0.648407 1.513298,1.248496 2.65625,1.75 2.285904,1.003008 5.483241,1.625 9,1.625 3.516759,0 6.714096,-0.621992 9,-1.625 1.142952,-0.501504 2.031958,-1.101593 2.65625,-1.75 0.624292,-0.648407 0.96875,-1.342529 0.96875,-2.0625 0,-0.515297 -0.194945,-1.00643 -0.53125,-1.5 -0.04332,-0.0636 -0.05054,-0.08977 -0.03125,-0.0625 A 0.18903195,0.18903195 0 0 1 36.4375,33.375 L 27.03125,2.15625 26.375,1.53125 z" />
        <path
           style="color:#000000;fill:url(#linearGradient4861);fill-opacity:1;stroke:none;stroke-width:0.85805809;marker:none;visibility:visible;display:inline;overflow:visible;enable-background:accumulate"
           d="m 15.735402,23.09375 c -1.299271,4.216103 -2.245967,7.155705 -2.54392,8.09375 1.69988,2.154974 6.154028,3.6875 11.388479,3.6875 5.025071,0 9.527896,-1.417835 11.368557,-3.4375 -0.137815,-0.458813 -1.452554,-4.240466 -2.642321,-8.28125 -2.20662,1.057009 -5.293635,1.71875 -8.726236,1.71875 -3.497976,0 -6.633365,-0.68375 -8.844559,-1.78125 z"
           id="path4421-2-8"
           sodipodi:nodetypes="ccsccsc" />
        <path
           style="color:#000000;fill:url(#linearGradient4863);fill-opacity:1;stroke:none;stroke-width:0.85805809;marker:none;visibility:visible;display:inline;overflow:visible;enable-background:accumulate"
           d="m 20.892584,6.5625 c -0.793908,2.9660386 -1.941467,6.150587 -2.860441,9.34375 1.761274,0.611275 4.229428,0.96875 6.521647,0.96875 2.318957,0 4.732386,-0.374202 6.507817,-1 C 30.173755,12.667149 29.034975,9.4965747 28.26413,6.5625 27.110518,6.772786 25.85126,6.875 24.55379,6.875 c -1.254984,0 -2.540548,-0.1155042 -3.661206,-0.3125 z"
           id="path4421-2-8-4"
           sodipodi:nodetypes="ccsccsc" />
      </g>
    </g>
  </g>
</svg>
