<?xml version="1.0" encoding="UTF-8" standalone="no"?>
<!-- Created with Inkscape (http://www.inkscape.org/) -->

<svg
   xmlns:dc="http://purl.org/dc/elements/1.1/"
   xmlns:cc="http://creativecommons.org/ns#"
   xmlns:rdf="http://www.w3.org/1999/02/22-rdf-syntax-ns#"
   xmlns:svg="http://www.w3.org/2000/svg"
   xmlns="http://www.w3.org/2000/svg"
   xmlns:xlink="http://www.w3.org/1999/xlink"
   xmlns:sodipodi="http://sodipodi.sourceforge.net/DTD/sodipodi-0.dtd"
   xmlns:inkscape="http://www.inkscape.org/namespaces/inkscape"
   width="48px"
   height="48px"
   id="svg3888"
   version="1.1"
   inkscape:version="0.48.1 r9760"
   sodipodi:docname="Нов документ 7">
  <defs
     id="defs3890">
    <radialGradient
       cx="6.5998492"
       cy="1.8850985"
       fx="6.5998492"
       fy="1.8850985"
       gradientTransform="matrix(0.113791,0.6773045,-0.4679608,0.00471821,14.144529,6.6142105)"
       gradientUnits="userSpaceOnUse"
       id="radialGradient4667"
       inkscape:collect="always"
       r="11.58128"
       xlink:href="#linearGradient49731" />
    <linearGradient
       id="linearGradient49731">
      <stop
         id="stop49733"
         offset="0"
         style="stop-color:#888a85;stop-opacity:0;" />
      <stop
         id="stop51687"
         offset="1"
         style="stop-color:#888a85;stop-opacity:1;" />
      <stop
         id="stop49735"
         offset="1"
         style="stop-color:#888a85;stop-opacity:1;" />
    </linearGradient>
    <filter
       color-interpolation-filters="sRGB"
       height="1.3241875"
       id="filter5658"
       inkscape:collect="always"
       width="1.1326196"
       x="-0.066309787"
       y="-0.16209374">
      <feGaussianBlur
         id="feGaussianBlur5660"
         inkscape:collect="always"
         stdDeviation="1.3985314" />
    </filter>
    <linearGradient
       gradientTransform="matrix(1.0206415,0,0,0.8416288,0.4990254,7.9398705)"
       gradientUnits="userSpaceOnUse"
       id="linearGradient4661"
       inkscape:collect="always"
       x1="2.4415672"
       x2="2.4415672"
       xlink:href="#linearGradient23236"
       y1="37.205902"
       y2="43" />
    <linearGradient
       id="linearGradient23236">
      <stop
         id="stop23238"
         offset="0"
         style="stop-color:#ffffff;stop-opacity:1;" />
      <stop
         id="stop23240"
         offset="1"
         style="stop-color:#babdb6;stop-opacity:1;" />
    </linearGradient>
    <radialGradient
       cx="7.6711912"
       cy="15.00725"
       fx="7.6711912"
       fy="15.00725"
       gradientTransform="matrix(2.4615467,-1.0699271,0.7998114,1.8528198,-21.204988,5.9018902)"
       gradientUnits="userSpaceOnUse"
       id="radialGradient4658"
       inkscape:collect="always"
       r="19.769346"
       xlink:href="#linearGradient5717" />
    <linearGradient
       id="linearGradient5717">
      <stop
         id="stop5719"
         offset="0"
         style="stop-color:#ffffff;stop-opacity:1;" />
      <stop
         id="stop5721"
         offset="1"
         style="stop-color:#d3d7cf;stop-opacity:1;" />
    </linearGradient>
    <linearGradient
       inkscape:collect="always"
       xlink:href="#linearGradient13302"
       id="linearGradient13308"
       x1="15.72493"
       y1="39.53022"
       x2="15.72493"
       y2="26.510006"
       gradientUnits="userSpaceOnUse" />
    <linearGradient
       inkscape:collect="always"
       id="linearGradient13302">
      <stop
         style="stop-color:#555753;stop-opacity:1;"
         offset="0"
         id="stop13304" />
      <stop
         style="stop-color:#cfd0cd;stop-opacity:1"
         offset="1"
         id="stop13306" />
    </linearGradient>
    <linearGradient
       inkscape:collect="always"
       xlink:href="#linearGradient13343"
       id="linearGradient13349"
       x1="17.212599"
       y1="43.368172"
       x2="17.212599"
       y2="30.331678"
       gradientUnits="userSpaceOnUse" />
    <linearGradient
       inkscape:collect="always"
       id="linearGradient13343">
      <stop
         style="stop-color:#888a85;stop-opacity:1;"
         offset="0"
         id="stop13345" />
      <stop
         style="stop-color:#d7d8d6;stop-opacity:1"
         offset="1"
         id="stop13347" />
    </linearGradient>
    <linearGradient
       gradientTransform="matrix(0.9557953,0,0.3203373,-0.7915548,-8.926721,48.1877)"
       gradientUnits="userSpaceOnUse"
       id="linearGradient4652"
       inkscape:collect="always"
       x1="26.32226"
       x2="49.73465"
       xlink:href="#linearGradient9508"
       y1="19.01865"
       y2="3.5158892" />
    <linearGradient
       id="linearGradient9508">
      <stop
         id="stop9510"
         offset="0"
         style="stop-color:#2e3436;stop-opacity:0.58152175;" />
      <stop
         id="stop9512"
         offset="1"
         style="stop-color:#2e3436;stop-opacity:0;" />
    </linearGradient>
    <linearGradient
       gradientTransform="matrix(0.4305409,-0.5319753,0.4931292,0.4644567,18.912037,27.929845)"
       gradientUnits="userSpaceOnUse"
       id="linearGradient2756"
       inkscape:collect="always"
       x1="1.5"
       x2="1.5"
       xlink:href="#linearGradient4625"
       y1="4.2648559"
       y2="8" />
    <linearGradient
       id="linearGradient4625">
      <stop
         id="stop4627"
         offset="0"
         style="stop-color:#eeeeec;stop-opacity:1;" />
      <stop
         id="stop4629"
         offset="1"
         style="stop-color:#888a85;stop-opacity:1;" />
    </linearGradient>
    <linearGradient
       gradientTransform="matrix(0.4305409,-0.5319753,0.4931292,0.4644567,18.912037,27.929845)"
       gradientUnits="userSpaceOnUse"
       id="linearGradient2758"
       inkscape:collect="always"
       x1="46.5"
       x2="46.5"
       xlink:href="#linearGradient16397"
       y1="4"
       y2="8" />
    <linearGradient
       id="linearGradient16397">
      <stop
         id="stop16399"
         offset="0"
         style="stop-color:#888a85;stop-opacity:1;" />
      <stop
         id="stop16401"
         offset="1"
         style="stop-color:#4a4b48;stop-opacity:1;" />
    </linearGradient>
    <linearGradient
       gradientTransform="matrix(0.4305409,-0.5319753,0.4931292,0.4644567,18.912037,27.929845)"
       gradientUnits="userSpaceOnUse"
       id="linearGradient2760"
       inkscape:collect="always"
       x1="24"
       x2="24"
       xlink:href="#linearGradient3648"
       y1="3.5"
       y2="8.5" />
    <linearGradient
       id="linearGradient3648">
      <stop
         id="stop3650"
         offset="0"
         style="stop-color:#eeeeec;stop-opacity:1;" />
      <stop
         id="stop26236"
         offset="0.79710144"
         style="stop-color:#abaca9;stop-opacity:1;" />
      <stop
         id="stop3652"
         offset="1"
         style="stop-color:#d3d7cf;stop-opacity:1;" />
    </linearGradient>
    <linearGradient
       gradientTransform="matrix(0.4305409,-0.5319753,0.4931292,0.4644567,18.912037,27.929845)"
       gradientUnits="userSpaceOnUse"
       id="linearGradient2762"
       inkscape:collect="always"
       x1="6.5"
       x2="6.5"
       xlink:href="#linearGradient16397"
       y1="3"
       y2="9" />
    <linearGradient
       id="linearGradient3851">
      <stop
         id="stop3853"
         offset="0"
         style="stop-color:#888a85;stop-opacity:1;" />
      <stop
         id="stop3855"
         offset="1"
         style="stop-color:#4a4b48;stop-opacity:1;" />
    </linearGradient>
    <radialGradient
       cx="31.332088"
       cy="19.154226"
       fx="31.332088"
       fy="19.154226"
       gradientTransform="matrix(9.0783702,-4.3797969,0.7439951,1.45288,-269.26407,125.68742)"
       gradientUnits="userSpaceOnUse"
       id="radialGradient2764"
       inkscape:collect="always"
       r="4.7440767"
       xlink:href="#linearGradient23236" />
    <linearGradient
       id="linearGradient3858">
      <stop
         id="stop3860"
         offset="0"
         style="stop-color:#ffffff;stop-opacity:1;" />
      <stop
         id="stop3862"
         offset="1"
         style="stop-color:#babdb6;stop-opacity:1;" />
    </linearGradient>
    <linearGradient
       inkscape:collect="always"
       xlink:href="#linearGradient13351"
       id="linearGradient13357"
       x1="36.551838"
       y1="16.344336"
       x2="33.716503"
       y2="13.448302"
       gradientUnits="userSpaceOnUse" />
    <linearGradient
       inkscape:collect="always"
       id="linearGradient13351">
      <stop
         style="stop-color:#2e3436;stop-opacity:1;"
         offset="0"
         id="stop13353" />
      <stop
         style="stop-color:#a8b2b5;stop-opacity:1"
         offset="1"
         id="stop13355" />
    </linearGradient>
  </defs>
  <sodipodi:namedview
     id="base"
     pagecolor="#ffffff"
     bordercolor="#666666"
     borderopacity="1.0"
     inkscape:pageopacity="0.0"
     inkscape:pageshadow="2"
     inkscape:zoom="10.073509"
     inkscape:cx="13.029621"
     inkscape:cy="23.328536"
     inkscape:current-layer="layer1"
     showgrid="true"
     inkscape:grid-bbox="true"
     inkscape:document-units="px" />
  <metadata
     id="metadata3893">
    <rdf:RDF>
      <cc:Work
         rdf:about="">
        <dc:format>image/svg+xml</dc:format>
        <dc:type
           rdf:resource="http://purl.org/dc/dcmitype/StillImage" />
        <dc:title></dc:title>
      </cc:Work>
    </rdf:RDF>
  </metadata>
  <g
     id="layer1"
     inkscape:label="Layer 1"
     inkscape:groupmode="layer">
    <g
       id="g48"
       style="display:inline;enable-background:new"
       transform="translate(-1.0341248,-2.969972)">
      <path
         d="m 13.91719,11.500001 c -2.178865,2.171031 14.371618,3.925274 15.524421,5.427576 2.95522,3.851166 -15.633185,2.304126 -19.201257,4.269155 -4.6848411,1.871207 6.672776,1.701181 6.672778,5.325505"
         id="path46799"
         sodipodi:nodetypes="cscc"
         style="fill:none;stroke:url(#radialGradient4667);stroke-width:0.99999994px;stroke-linecap:round;stroke-linejoin:round;stroke-opacity:1"
         inkscape:connector-curvature="0" />
      <path
         d="m 12.19393,28.500083 26.15243,0 c 0,0 0.843962,-0.02887 1.311304,0.988937 0,0 6.054501,14.017912 6.4095,14.821091 0.335838,0.75983 -0.854978,1.445723 -1.916989,1.445723 l -38.2321011,0 c -1.0620116,0 -2.252826,-0.685893 -1.9169884,-1.445723 C 4.3560832,43.506932 10.882627,29.48902 10.882627,29.48902 11.194189,28.588698 12.19393,28.500083 12.19393,28.500083 z"
         id="path8537"
         sodipodi:nodetypes="ccccccccc"
         style="opacity:0.27058824;fill:#000000;fill-opacity:1;stroke:none;filter:url(#filter5658)"
         inkscape:connector-curvature="0" />
      <path
         d="m 12.448317,25.50009 24.581889,0 c 0,0 0.79328,-0.02967 1.232556,1.016374 0,0 5.792239,15.239768 6.12385,16.060114 0.313711,0.776068 -0.798651,1.476619 -1.790695,1.476619 l -35.7133105,0 c -0.9920447,0 -2.1044063,-0.700551 -1.7906942,-1.476619 0.33161,-0.820346 6.1238487,-16.060114 6.1238487,-16.060114 0.292851,-0.925302 1.232556,-1.016374 1.232556,-1.016374 z"
         id="rect2676"
         sodipodi:nodetypes="ccccccccc"
         style="fill:url(#linearGradient4661);fill-opacity:1;stroke:none"
         inkscape:connector-curvature="0" />
      <path
         d="m 12.448317,25.50009 24.581889,0 c 0,0 0.79328,-0.02967 1.232556,1.016374 0,0 5.792239,15.239768 6.12385,16.060114 0.313711,0.776068 -0.798651,1.476619 -1.790695,1.476619 l -35.7133105,0 c -0.9920447,0 -2.1044063,-0.700551 -1.7906942,-1.476619 0.33161,-0.820346 6.1238487,-16.060114 6.1238487,-16.060114 0.292851,-0.925302 1.232556,-1.016374 1.232556,-1.016374 z"
         id="path4736"
         sodipodi:nodetypes="ccccccccc"
         style="opacity:0.5;fill:url(#radialGradient4658);fill-opacity:1;stroke:none"
         inkscape:connector-curvature="0" />
      <path
         d="m 13.094744,26.000084 23.289034,0 c 0,0 0.751559,-0.02763 1.167731,0.946486 0,0 5.382057,14.727675 5.694414,15.487205 0,0 0.684575,1.066233 -0.849009,1.066233 l -34.8796629,0 c -2.1882924,0 -1.2846524,-1.066233 -1.2846524,-1.066233 0.3123575,-0.75953 5.6944143,-15.487205 5.6944143,-15.487205 0.277449,-0.861676 1.167731,-0.946486 1.167731,-0.946486 z"
         id="path5604"
         sodipodi:nodetypes="ccccccccc"
         style="fill:none;stroke:#ffffff;stroke-width:1.19999993;stroke-linecap:round;stroke-linejoin:round;stroke-miterlimit:4;stroke-opacity:1;stroke-dasharray:none;stroke-dashoffset:0"
         inkscape:connector-curvature="0" />
      <path
         d="m 12.50006,25.520005 24.415764,0 c 0,0 0.907662,0.204017 1.346938,1.235787 0,0 5.792239,15.03179 6.12385,15.840941 0.313711,0.765477 -0.499373,1.903275 -1.491417,1.903275 l -36.3745057,0 c -0.9920445,0 -1.7424892,-1.137798 -1.428777,-1.903275 0.33161,-0.809151 6.1238487,-15.840941 6.1238487,-15.840941 0.292851,-0.912674 1.284299,-1.235787 1.284299,-1.235787 z"
         id="path7556"
         sodipodi:nodetypes="ccccccccc"
         style="fill:none;stroke:url(#linearGradient13308);stroke-width:1.03999984;stroke-linecap:round;stroke-linejoin:round;stroke-miterlimit:4;stroke-opacity:1;stroke-dasharray:none;stroke-dashoffset:0"
         inkscape:connector-curvature="0" />
      <path
         d="m 14.493184,28.485226 19.931236,0 c 0,0 0.609112,-0.01411 0.943256,0.613822 -1e-6,-1e-6 3.611689,8.890215 3.855952,9.367077 0.231081,0.451127 -0.593164,0.86153 -1.323904,0.86153 l -26.312622,0 c -0.730741,0 -1.554987,-0.410403 -1.323906,-0.86153 0.244264,-0.476862 3.286731,-9.367077 3.286731,-9.367077 0.222762,-0.555451 0.943257,-0.613822 0.943257,-0.613822 z"
         id="path41909"
         sodipodi:nodetypes="ccssccscc"
         style="fill:none;stroke:url(#linearGradient13349);stroke-width:0.79999995;stroke-linecap:round;stroke-linejoin:round;stroke-miterlimit:4;stroke-opacity:1;stroke-dasharray:none;stroke-dashoffset:0"
         inkscape:connector-curvature="0" />
      <path
         d="m 22.324354,33.133396 1.300964,1.718663 0.424228,0.525148 7.127021,3.866992 1.329247,0.381925 6.137157,3.055401 4.129148,0 c 0.19701,-0.166482 0.326459,-0.358471 0.367663,-0.572888 L 36.210734,38.647441 35.645097,38.074553 27.697903,34.422394 26.425219,34.11208 22.324354,33.133396 z"
         id="path23244"
         style="opacity:0.2;fill:url(#linearGradient4652);fill-opacity:1;stroke:none"
         inkscape:connector-curvature="0" />
      <g
         id="g2764"
         transform="matrix(1.1396241,0,0,1.1157384,-2.2076279,-0.6365627)">
        <path
           d="m 40.070139,6.6188883 0.440097,-0.543783 c 0.235873,-0.2914437 0.643258,-0.3212227 0.913419,-0.066769 l 0.504075,0.4747656 c 0.270161,0.2544535 0.297766,0.6939299 0.06189,0.9853738 l -0.440097,0.543783 c -0.235873,0.2914438 -0.643258,0.3212227 -0.91342,0.066769 l -0.50407,-0.4747656 c -0.270162,-0.2544535 -0.297767,-0.69393 -0.06189,-0.9853738 z"
           id="rect10493"
           style="fill:#888a85;fill-opacity:1;stroke:none"
           inkscape:connector-curvature="0" />
        <path
           d="m 22.270059,29.686394 1.628281,-3.62255 1.972516,1.857827 -3.107668,2.229178 -0.493129,-0.464455 z"
           id="rect10499"
           sodipodi:nodetypes="ccccc"
           style="fill:url(#linearGradient2756);fill-opacity:1;stroke:none"
           inkscape:connector-curvature="0" />
        <path
           d="m 40.070139,6.6188883 0.440097,-0.543783 c 0.235873,-0.2914437 0.643258,-0.3212227 0.913419,-0.066769 l 0.504075,0.4747656 c 0.270161,0.2544535 0.297766,0.6939299 0.06189,0.9853738 l -0.440097,0.543783 c -0.235873,0.2914438 -0.643258,0.3212227 -0.91342,0.066769 l -0.50407,-0.4747656 c -0.270162,-0.2544535 -0.297767,-0.69393 -0.06189,-0.9853738 z"
           id="path12476"
           style="fill:url(#linearGradient2758);fill-opacity:1;stroke:#babdb6;stroke-width:0.88682508;stroke-linecap:round;stroke-linejoin:round;stroke-miterlimit:4;stroke-opacity:1;stroke-dashoffset:0"
           inkscape:connector-curvature="0" />
        <path
           d="m 33.436616,19.110318 7.54792,-9.3261926 C 41.574218,9.0555166 41.809727,8.2469255 41.508074,7.9628117 L 40.121147,6.6565272 C 39.819494,6.3724136 39.108572,6.7332326 38.51889,7.4618419 l -7.54792,9.3261921 2.465646,2.322284 z"
           id="rect10487"
           sodipodi:nodetypes="ccccccc"
           style="fill:url(#linearGradient2760);fill-opacity:1;stroke:none"
           inkscape:connector-curvature="0" />
        <path
           d="m 33.436616,19.110318 7.54792,-9.3261926 C 41.574218,9.0555166 41.504717,8.5083326 41.203064,8.2242188 L 39.816138,6.9179343 C 39.514485,6.6338207 39.108572,6.7332326 38.51889,7.4618419 l -7.54792,9.3261921 2.465646,2.322284 z"
           id="path12478"
           sodipodi:nodetypes="ccccccc"
           style="fill:none;stroke:#ffffff;stroke-width:0.88682508;stroke-linecap:round;stroke-linejoin:round;stroke-miterlimit:4;stroke-opacity:1;stroke-dashoffset:0"
           inkscape:connector-curvature="0" />
        <path
           d="m 22.516623,29.918622 1.381717,-3.854778 1.972516,1.857827 -3.354233,1.996951 z"
           id="path12484"
           sodipodi:nodetypes="cccc"
           style="fill:none;stroke:#ffffff;stroke-width:0.88682508;stroke-linecap:round;stroke-linejoin:round;stroke-miterlimit:4;stroke-opacity:1;stroke-dashoffset:0"
           inkscape:connector-curvature="0" />
        <path
           d="m 23.683069,26.329831 1.972517,1.857827 0.677105,-0.299747 6.704678,-7.747401 0.399247,-1.030192 -2.465646,-2.322284 -0.892376,0.565735 -6.211549,8.211859 -0.183976,0.764203 z"
           id="path10502"
           sodipodi:nodetypes="ccccccccc"
           style="fill:url(#linearGradient2762);fill-opacity:1;stroke:none"
           inkscape:connector-curvature="0" />
        <path
           d="m 23.683069,26.329831 1.972517,1.857827 0.677105,-0.299747 6.704678,-7.747401 0.399247,-1.030192 -2.465646,-2.322284 -0.892376,0.565735 -6.211549,8.211859 -0.183976,0.764203 z"
           id="path12482"
           sodipodi:nodetypes="ccccccccc"
           style="fill:none;stroke:url(#radialGradient2764);stroke-width:0.88682508;stroke-linecap:round;stroke-linejoin:round;stroke-miterlimit:4;stroke-opacity:1;stroke-dashoffset:0"
           inkscape:connector-curvature="0" />
        <path
           d="m 22.054788,29.952381 c -0.11883,0.146826 -0.104809,0.370026 0.03129,0.498216 0.136104,0.12819 0.343006,0.113066 0.461835,-0.03376 l 0.430541,-0.531976 -0.49313,-0.464456 -0.43054,0.531975 z"
           id="path10496"
           style="color:#000000;fill:#eeeeec;fill-opacity:1;fill-rule:evenodd;stroke:none;stroke-width:1px;marker:none;visibility:visible;display:inline;overflow:visible;enable-background:accumulate"
           inkscape:connector-curvature="0" />
        <path
           d="m 22.057089,30.486421 3.508335,-1.807168 1.098399,-0.514606 6.785461,-7.710043 0.506803,-1.300263 7.616359,-9.4107561 C 42.150022,9.0299337 42.40517,8.1272222 42.10509,7.7373334 L 42.499999,7.2493837 C 42.744281,6.9475499 42.665953,6.4347834 42.326763,6.1153159 L 41.707637,5.5321883 c -0.339189,-0.3194675 -0.820733,-0.3340215 -1.065015,-0.032187 0,0 -0.241639,0.2985678 -0.39491,0.4879495 -0.398596,-0.2681631 -1.19332,0.1263445 -1.770895,0.8399964 l -7.61636,9.4107558 -1.125929,0.717136 -6.166336,8.29317 -0.324491,1.243515 -1.186612,3.993897 z"
           id="path12486"
           sodipodi:nodetypes="cccccccccccccccccc"
           style="fill:none;stroke:url(#linearGradient13357);stroke-width:0.76266938;stroke-linecap:butt;stroke-linejoin:miter;stroke-miterlimit:1;stroke-opacity:1;stroke-dasharray:none;stroke-dashoffset:0"
           inkscape:connector-curvature="0" />
      </g>
    </g>
  </g>
</svg>
