<?xml version="1.0" encoding="UTF-8" standalone="no"?>
<!-- Created with Inkscape (http://www.inkscape.org/) -->

<svg
   xmlns:dc="http://purl.org/dc/elements/1.1/"
   xmlns:cc="http://creativecommons.org/ns#"
   xmlns:rdf="http://www.w3.org/1999/02/22-rdf-syntax-ns#"
   xmlns:svg="http://www.w3.org/2000/svg"
   xmlns="http://www.w3.org/2000/svg"
   xmlns:xlink="http://www.w3.org/1999/xlink"
   xmlns:sodipodi="http://sodipodi.sourceforge.net/DTD/sodipodi-0.dtd"
   xmlns:inkscape="http://www.inkscape.org/namespaces/inkscape"
   version="1.0"
   width="16"
   height="16"
   id="svg2"
   sodipodi:version="0.32"
   inkscape:version="0.47pre4 r22446"
   sodipodi:docname="x-office-document.svg"
   inkscape:output_extension="org.inkscape.output.svg.inkscape">
  <metadata
     id="metadata93">
    <rdf:RDF>
      <cc:Work
         rdf:about="">
        <dc:format>image/svg+xml</dc:format>
        <dc:type
           rdf:resource="http://purl.org/dc/dcmitype/StillImage" />
        <dc:title></dc:title>
      </cc:Work>
    </rdf:RDF>
  </metadata>
  <sodipodi:namedview
     inkscape:window-height="826"
     inkscape:window-width="1440"
     inkscape:pageshadow="2"
     inkscape:pageopacity="0.0"
     guidetolerance="10.0"
     gridtolerance="10.0"
     objecttolerance="10.0"
     borderopacity="1.0"
     bordercolor="#666666"
     pagecolor="#ffffff"
     id="base"
     showgrid="false"
     inkscape:zoom="12.5"
     inkscape:cx="10.194935"
     inkscape:cy="11.797591"
     inkscape:window-x="0"
     inkscape:window-y="24"
     inkscape:current-layer="svg2"
     inkscape:window-maximized="1" />
  <defs
     id="defs4">
    <inkscape:perspective
       sodipodi:type="inkscape:persp3d"
       inkscape:vp_x="0 : 11 : 1"
       inkscape:vp_y="0 : 1000 : 0"
       inkscape:vp_z="22 : 11 : 1"
       inkscape:persp3d-origin="11 : 7.3333333 : 1"
       id="perspective95" />
    <linearGradient
       id="linearGradient8589">
      <stop
         id="stop8591"
         style="stop-color:#fefefe;stop-opacity:1"
         offset="0" />
      <stop
         id="stop8593"
         style="stop-color:#cbcbcb;stop-opacity:1"
         offset="1" />
    </linearGradient>
    <linearGradient
       id="linearGradient4559">
      <stop
         id="stop4561"
         style="stop-color:#cacaca;stop-opacity:1"
         offset="0" />
      <stop
         id="stop4563"
         style="stop-color:#949492;stop-opacity:1"
         offset="1" />
    </linearGradient>
    <linearGradient
       id="linearGradient3522-803">
      <stop
         id="stop5703"
         style="stop-color:#a3c0d0;stop-opacity:1;"
         offset="0" />
      <stop
         id="stop5705"
         style="stop-color:#5a8caa;stop-opacity:1;"
         offset="1" />
    </linearGradient>
    <linearGradient
       id="linearGradient6691-281">
      <stop
         id="stop5709"
         style="stop-color:#436079;stop-opacity:1;"
         offset="0" />
      <stop
         id="stop5711"
         style="stop-color:#6b8ead;stop-opacity:1;"
         offset="1" />
    </linearGradient>
    <linearGradient
       id="linearGradient3600">
      <stop
         id="stop3602"
         style="stop-color:#f4f4f4;stop-opacity:1"
         offset="0" />
      <stop
         id="stop3604"
         style="stop-color:#dbdbdb;stop-opacity:1"
         offset="1" />
    </linearGradient>
    <linearGradient
       id="linearGradient3931">
      <stop
         id="stop3933"
         style="stop-color:#8d8f8a;stop-opacity:1"
         offset="0" />
      <stop
         id="stop3935"
         style="stop-color:#cbcbcb;stop-opacity:1"
         offset="1" />
    </linearGradient>
    <linearGradient
       x1="32.892288"
       y1="8.0590115"
       x2="36.358372"
       y2="5.4565363"
       id="linearGradient2980"
       xlink:href="#linearGradient8589"
       gradientUnits="userSpaceOnUse"
       gradientTransform="matrix(0.39391343,0,0,0.37839809,-0.86560554,-0.21953157)" />
    <linearGradient
       x1="17.288921"
       y1="2.184907"
       x2="15.179585"
       y2="5.8214641"
       id="linearGradient2982"
       xlink:href="#linearGradient4559"
       gradientUnits="userSpaceOnUse"
       gradientTransform="matrix(0.72727269,0,0,0.72727269,-0.18181807,-1.6727269e-7)" />
    <linearGradient
       x1="-22.539846"
       y1="11.109024"
       x2="-22.539846"
       y2="46.263954"
       id="linearGradient2985"
       xlink:href="#linearGradient3522-803"
       gradientUnits="userSpaceOnUse"
       gradientTransform="matrix(0.380149,0,0,0.34829041,18.704096,-0.34963782)" />
    <linearGradient
       x1="9.4919996"
       y1="46.314064"
       x2="9.4919996"
       y2="1.7164899"
       id="linearGradient2987"
       xlink:href="#linearGradient6691-281"
       gradientUnits="userSpaceOnUse"
       gradientTransform="matrix(0.43326405,0,0,0.3390411,-0.43981778,-0.13698714)" />
    <linearGradient
       x1="25.132275"
       y1="6.7287393"
       x2="25.132275"
       y2="47.013336"
       id="linearGradient2990"
       xlink:href="#linearGradient3600"
       gradientUnits="userSpaceOnUse"
       gradientTransform="matrix(0.374043,0,0,0.33940727,-0.06794171,-0.14577391)" />
    <linearGradient
       x1="-51.786404"
       y1="50.786446"
       x2="-51.786404"
       y2="2.9062471"
       id="linearGradient2992"
       xlink:href="#linearGradient3931"
       gradientUnits="userSpaceOnUse"
       gradientTransform="matrix(0.30203854,0,0,0.31763471,22.154038,-0.52403687)" />
    <linearGradient
       inkscape:collect="always"
       xlink:href="#linearGradient3600"
       id="linearGradient2965"
       gradientUnits="userSpaceOnUse"
       gradientTransform="matrix(0.374043,0,0,0.33940727,-0.06794171,-0.14577391)"
       x1="25.132275"
       y1="6.7287393"
       x2="25.132275"
       y2="47.013336" />
    <linearGradient
       inkscape:collect="always"
       xlink:href="#linearGradient3931"
       id="linearGradient2967"
       gradientUnits="userSpaceOnUse"
       gradientTransform="matrix(0.30203854,0,0,0.31763471,22.154038,-0.52403687)"
       x1="-51.786404"
       y1="50.786446"
       x2="-51.786404"
       y2="2.9062471" />
    <linearGradient
       inkscape:collect="always"
       xlink:href="#linearGradient3522-803"
       id="linearGradient2969"
       gradientUnits="userSpaceOnUse"
       gradientTransform="matrix(0.380149,0,0,0.34829041,18.704096,-0.34963782)"
       x1="-22.539846"
       y1="11.109024"
       x2="-22.539846"
       y2="46.263954" />
    <linearGradient
       inkscape:collect="always"
       xlink:href="#linearGradient6691-281"
       id="linearGradient2971"
       gradientUnits="userSpaceOnUse"
       gradientTransform="matrix(0.43326405,0,0,0.3390411,-0.43981778,-0.13698714)"
       x1="9.4919996"
       y1="46.314064"
       x2="9.4919996"
       y2="1.7164899" />
    <linearGradient
       inkscape:collect="always"
       xlink:href="#linearGradient8589"
       id="linearGradient2973"
       gradientUnits="userSpaceOnUse"
       gradientTransform="matrix(0.39391343,0,0,0.37839809,-0.86560554,-0.21953157)"
       x1="32.892288"
       y1="8.0590115"
       x2="36.358372"
       y2="5.4565363" />
    <linearGradient
       inkscape:collect="always"
       xlink:href="#linearGradient4559"
       id="linearGradient2975"
       gradientUnits="userSpaceOnUse"
       gradientTransform="matrix(0.72727269,0,0,0.72727269,-0.18181807,-1.6727269e-7)"
       x1="17.288921"
       y1="2.184907"
       x2="15.179585"
       y2="5.8214641" />
  </defs>
  <g
     id="g2899"
     transform="translate(-0.90909069,5.65e-7)">
    <path
       style="fill:url(#linearGradient2965);fill-opacity:1;stroke:url(#linearGradient2967);stroke-width:0.72664654;stroke-linecap:butt;stroke-linejoin:round;stroke-miterlimit:4;stroke-opacity:1;stroke-dasharray:none;stroke-dashoffset:0;display:inline"
       id="rect2594"
       d="m 2.3633233,0.36332383 c 2.9999326,0 5.9998699,0 8.9998037,0 0.526256,0.16474116 3.353467,2.04158207 4.091731,3.34111087 0,3.9774114 0,7.9548273 0,11.9322413 -4.363844,0 -8.7276917,0 -13.0915347,0 0,-5.091119 0,-10.1822335 0,-15.27335217 z" />
    <path
       style="fill:url(#linearGradient2969);fill-opacity:1;fill-rule:nonzero;stroke:url(#linearGradient2971);stroke-width:0.73432678;stroke-linecap:butt;stroke-linejoin:round;stroke-miterlimit:4;stroke-opacity:1;stroke-dasharray:none;stroke-dashoffset:0;marker:none;visibility:visible;display:block;overflow:visible"
       id="path4530"
       d="m 4.9782909,15.632836 c -0.8343554,0 -1.6687109,0 -2.5030704,0 -0.2027975,-0.180755 -0.048587,-0.539623 -0.096772,-0.795514 0,-4.794148 0,-9.5882951 0,-14.38244203 l 0.028283,-0.0620815 0.068489,-0.0256356 0,0 c 0.8683951,0 1.6006357,0 2.4690308,0" />
    <path
       style="opacity:0.7;fill:#666666;fill-opacity:1;stroke:none"
       id="path6035"
       d="m 5.6363635,2.9090916 0.8175068,0 0,0.7272727 -0.8175068,0 0,-0.7272727 z" />
    <path
       style="opacity:0.7;fill:#666666;fill-opacity:1;stroke:none"
       id="path6033"
       d="m 6.5652282,2.9090916 0.7713541,0 0,0.7272727 -0.7713541,0 0,-0.7272727 z" />
    <path
       style="opacity:0.7;fill:#666666;fill-opacity:1;stroke:none"
       id="path6031"
       d="m 7.4479401,2.9090916 0.6790429,0 0,0.7272727 -0.6790429,0 0,-0.7272727 z" />
    <path
       style="opacity:0.7;fill:#666666;fill-opacity:1;stroke:none"
       id="path6029"
       d="m 8.2383401,2.9090916 0.2982647,0 0,0.7272727 -0.2982647,0 0,-0.7272727 z" />
    <path
       style="opacity:0.7;fill:#666666;fill-opacity:1;stroke:none"
       id="path6027"
       d="m 8.6479662,2.9090916 0.6675018,0 0,0.7272727 -0.6675018,0 0,-0.7272727 z" />
    <path
       style="opacity:0.7;fill:#666666;fill-opacity:1;stroke:none"
       id="path6025"
       d="m 9.4268295,2.9090916 1.7290635,0 0,0.7272727 -1.7290635,0 0,-0.7272727 z" />
    <path
       style="opacity:0.7;fill:#666666;fill-opacity:1;stroke:none"
       id="path6023"
       d="m 11.26725,2.9090916 1.313671,0 0,0.7272727 -1.313671,0 0,-0.7272727 z" />
    <path
       style="opacity:0.7;fill:#666666;fill-opacity:1;stroke:none"
       id="path6017"
       d="m 5.6363635,7.2727272 0.8175068,0 0,0.7272723 -0.8175068,0 0,-0.7272723 z" />
    <path
       style="opacity:0.7;fill:#666666;fill-opacity:1;stroke:none"
       id="path6015"
       d="m 6.5652274,7.2727272 0.7713542,0 0,0.7272723 -0.7713542,0 0,-0.7272723 z" />
    <path
       style="opacity:0.7;fill:#666666;fill-opacity:1;stroke:none"
       id="path6013"
       d="m 7.4479394,7.2727272 0.6790421,0 0,0.7272723 -0.6790421,0 0,-0.7272723 z" />
    <path
       style="opacity:0.7;fill:#666666;fill-opacity:1;stroke:none"
       id="path6011"
       d="m 8.2383386,7.2727272 0.2982647,0 0,0.7272723 -0.2982647,0 0,-0.7272723 z" />
    <path
       style="opacity:0.7;fill:#666666;fill-opacity:1;stroke:none"
       id="path6009"
       d="m 8.6479648,7.2727272 0.6675011,0 0,0.7272723 -0.6675011,0 0,-0.7272723 z" />
    <path
       style="opacity:0.7;fill:#666666;fill-opacity:1;stroke:none"
       id="path6007"
       d="m 9.4268273,7.2727272 1.7290627,0 0,0.7272723 -1.7290627,0 0,-0.7272723 z" />
    <path
       style="opacity:0.7;fill:#666666;fill-opacity:1;stroke:none"
       id="path6005"
       d="m 11.267248,7.2727272 1.313669,0 0,0.7272723 -1.313669,0 0,-0.7272723 z" />
    <path
       style="opacity:0.7;fill:#666666;fill-opacity:1;stroke:none"
       id="path6003"
       d="m 12.692279,7.2727272 0.40211,0 0,0.7272723 -0.40211,0 0,-0.7272723 z" />
    <path
       style="opacity:0.7;fill:#666666;fill-opacity:1;stroke:none"
       id="path6001"
       d="m 13.20575,7.2727272 0.794428,0 0,0.7272723 -0.794428,0 0,-0.7272723 z" />
    <path
       style="opacity:0.7;fill:#666666;fill-opacity:1;stroke:none"
       id="path5999"
       d="m 5.6363635,4.3636373 1.2675156,0 0,0.7272724 -1.2675156,0 0,-0.7272724 z" />
    <path
       style="opacity:0.7;fill:#666666;fill-opacity:1;stroke:none"
       id="path5997"
       d="m 7.019567,4.3636373 0.6098087,0 0,0.7272724 -0.6098087,0 0,-0.7272724 z" />
    <path
       style="opacity:0.7;fill:#666666;fill-opacity:1;stroke:none"
       id="path5995"
       d="m 7.7450637,4.3636373 0.2867237,0 0,0.7272724 -0.2867237,0 0,-0.7272724 z" />
    <path
       style="opacity:0.7;fill:#666666;fill-opacity:1;stroke:none"
       id="path5993"
       d="m 8.1474761,4.3636373 0.5521156,0 0,0.7272724 -0.5521156,0 0,-0.7272724 z" />
    <path
       style="opacity:0.7;fill:#666666;fill-opacity:1;stroke:none"
       id="path5991"
       d="m 8.8152761,4.3636373 0.5521156,0 0,0.7272724 -0.5521156,0 0,-0.7272724 z" />
    <path
       style="opacity:0.7;fill:#666666;fill-opacity:1;stroke:none"
       id="path5989"
       d="m 9.4830789,4.3636373 0.8867371,0 0,0.7272724 -0.8867371,0 0,-0.7272724 z" />
    <path
       style="opacity:0.7;fill:#666666;fill-opacity:1;stroke:none"
       id="path5987"
       d="m 10.485501,4.3636373 1.163669,0 0,0.7272724 -1.163669,0 0,-0.7272724 z" />
    <path
       style="opacity:0.7;fill:#666666;fill-opacity:1;stroke:none"
       id="path5985"
       d="m 11.764858,4.3636373 0.782888,0 0,0.7272724 -0.782888,0 0,-0.7272724 z" />
    <path
       style="opacity:0.7;fill:#666666;fill-opacity:1;stroke:none"
       id="path5983"
       d="m 12.663435,4.3636373 0.182875,0 0,0.7272724 -0.182875,0 0,-0.7272724 z" />
    <path
       style="opacity:0.7;fill:#666666;fill-opacity:1;stroke:none"
       id="path5981"
       d="m 5.6363635,5.8181821 1.4521345,0 0,0.7272724 -1.4521345,0 0,-0.7272724 z" />
    <path
       style="opacity:0.7;fill:#666666;fill-opacity:1;stroke:none"
       id="path5979"
       d="m 7.2023314,5.8181821 1.5559788,0 0,0.7272724 -1.5559788,0 0,-0.7272724 z" />
    <path
       style="opacity:0.7;fill:#666666;fill-opacity:1;stroke:none"
       id="path5977"
       d="m 8.8721437,5.8181821 0.6213491,0 0,0.7272724 -0.6213491,0 0,-0.7272724 z" />
    <path
       style="opacity:0.7;fill:#666666;fill-opacity:1;stroke:none"
       id="path5975"
       d="m 9.6073262,5.8181821 1.4636708,0 0,0.7272724 -1.4636708,0 0,-0.7272724 z" />
    <path
       style="opacity:0.7;fill:#666666;fill-opacity:1;stroke:none"
       id="path5973"
       d="m 12.300787,5.8181821 0.390573,0 0,0.7272724 -0.390573,0 0,-0.7272724 z" />
    <path
       style="opacity:0.7;fill:#666666;fill-opacity:1;stroke:none"
       id="path5971"
       d="m 11.184831,5.8181821 1.002123,0 0,0.7272724 -1.002123,0 0,-0.7272724 z" />
    <path
       style="opacity:0.7;fill:#666666;fill-opacity:1;stroke:none"
       id="path5969"
       d="m 12.805192,5.8181821 0.229032,0 0,0.7272724 -0.229032,0 0,-0.7272724 z" />
    <path
       style="opacity:0.7;fill:#666666;fill-opacity:1;stroke:none"
       id="path5967"
       d="m 13.148057,5.8181821 0.621349,0 0,0.7272724 -0.621349,0 0,-0.7272724 z" />
    <path
       style="opacity:0.7;fill:#666666;fill-opacity:1;stroke:none"
       id="path5965"
       d="m 5.6363635,11.636363 1.4521352,0 0,0.727273 -1.4521352,0 0,-0.727273 z" />
    <path
       style="opacity:0.7;fill:#666666;fill-opacity:1;stroke:none"
       id="path5963"
       d="m 7.2023314,11.636363 1.5559803,0 0,0.727273 -1.5559803,0 0,-0.727273 z" />
    <path
       style="opacity:0.7;fill:#666666;fill-opacity:1;stroke:none"
       id="path5961"
       d="m 8.8721451,11.636363 0.6213491,0 0,0.727273 -0.6213491,0 0,-0.727273 z" />
    <path
       style="opacity:0.7;fill:#666666;fill-opacity:1;stroke:none"
       id="path5959"
       d="m 9.6073277,11.636363 1.4636723,0 0,0.727273 -1.4636723,0 0,-0.727273 z" />
    <path
       style="opacity:0.7;fill:#666666;fill-opacity:1;stroke:none"
       id="path5957"
       d="m 12.300789,11.636363 0.390573,0 0,0.727273 -0.390573,0 0,-0.727273 z" />
    <path
       style="opacity:0.7;fill:#666666;fill-opacity:1;stroke:none"
       id="path5955"
       d="m 11.184833,11.636363 1.002123,0 0,0.727273 -1.002123,0 0,-0.727273 z" />
    <path
       style="opacity:0.7;fill:#666666;fill-opacity:1;stroke:none"
       id="path5953"
       d="m 12.805195,11.636363 0.229031,0 0,0.727273 -0.229031,0 0,-0.727273 z" />
    <path
       style="opacity:0.7;fill:#666666;fill-opacity:1;stroke:none"
       id="path5951"
       d="m 13.14806,11.636363 0.621349,0 0,0.727273 -0.621349,0 0,-0.727273 z" />
    <path
       style="opacity:0.7;fill:#666666;fill-opacity:1;stroke:none"
       id="path5949"
       d="m 5.6363635,8.7272722 1.0482792,0 0,0.7272727 -1.0482792,0 0,-0.7272727 z" />
    <path
       style="opacity:0.7;fill:#666666;fill-opacity:1;stroke:none"
       id="path5947"
       d="m 6.7960041,8.7272722 1.7406007,0 0,0.7272727 -1.7406007,0 0,-0.7272727 z" />
    <path
       style="opacity:0.7;fill:#666666;fill-opacity:1;stroke:none"
       id="path5945"
       d="m 8.6479662,8.7272722 0.8405811,0 0,0.7272727 -0.8405811,0 0,-0.7272727 z" />
    <path
       style="opacity:0.7;fill:#666666;fill-opacity:1;stroke:none"
       id="path5943"
       d="m 10.494157,8.7272722 0.667502,0 0,0.7272727 -0.667502,0 0,-0.7272727 z" />
    <path
       style="opacity:0.7;fill:#666666;fill-opacity:1;stroke:none"
       id="path6320"
       d="m 11.27302,8.7272722 1.071358,0 0,0.7272727 -1.071358,0 0,-0.7272727 z" />
    <path
       style="opacity:0.7;fill:#666666;fill-opacity:1;stroke:none"
       id="path6322"
       d="m 12.455735,8.7272722 1.740604,0 0,0.7272727 -1.740604,0 0,-0.7272727 z" />
    <path
       style="opacity:0.7;fill:#666666;fill-opacity:1;stroke:none"
       id="path6324"
       d="m 9.599908,8.7272722 0.782892,0 0,0.7272727 -0.782892,0 0,-0.7272727 z" />
    <path
       style="opacity:0.7;fill:#666666;fill-opacity:1;stroke:none"
       id="path6326"
       d="m 5.6363635,10.181818 1.3136705,0 0,0.727272 -1.3136705,0 0,-0.727272 z" />
    <path
       style="opacity:0.7;fill:#666666;fill-opacity:1;stroke:none"
       id="path5933"
       d="m 7.0585089,10.181818 0.4136509,0 0,0.727272 -0.4136509,0 0,-0.727272 z" />
    <path
       style="opacity:0.7;fill:#666666;fill-opacity:1;stroke:none"
       id="path5931"
       d="m 7.5806339,10.181818 0.9444334,0 0,0.727272 -0.9444334,0 0,-0.727272 z" />
    <path
       style="opacity:0.7;fill:#666666;fill-opacity:1;stroke:none"
       id="path5929"
       d="m 8.6335415,10.181818 0.6444269,0 0,0.727272 -0.6444269,0 0,-0.727272 z" />
    <path
       style="opacity:0.7;fill:#666666;fill-opacity:1;stroke:none"
       id="path5927"
       d="m 9.3864433,10.181818 0.6444237,0 0,0.727272 -0.6444237,0 0,-0.727272 z" />
    <path
       style="opacity:0.7;fill:#666666;fill-opacity:1;stroke:none"
       id="path5925"
       d="m 10.139344,10.181818 0.932893,0 0,0.727272 -0.932893,0 0,-0.727272 z" />
    <path
       style="opacity:0.7;fill:#666666;fill-opacity:1;stroke:none"
       id="path5923"
       d="m 11.180708,10.181818 0.194419,0 0,0.727272 -0.194419,0 0,-0.727272 z" />
    <path
       style="opacity:0.7;fill:#666666;fill-opacity:1;stroke:none"
       id="path5921"
       d="m 11.483601,10.181818 1.209822,0 0,0.727272 -1.209822,0 0,-0.727272 z" />
    <path
       style="opacity:0.7;fill:#666666;fill-opacity:1;stroke:none"
       id="path5919"
       d="m 12.801897,10.181818 0.644427,0 0,0.727272 -0.644427,0 0,-0.727272 z" />
    <path
       style="opacity:0.7;fill:#666666;fill-opacity:1;stroke:none"
       id="path5917"
       d="m 5.6363635,13.090908 0.5290378,0 0,0.727273 -0.5290378,0 0,-0.727273 z" />
    <path
       style="opacity:0.7;fill:#666666;fill-opacity:1;stroke:none"
       id="path5915"
       d="m 6.3023125,13.090908 1.9252203,0 0,0.727273 -1.9252203,0 0,-0.727273 z" />
    <path
       style="opacity:0.7;fill:#666666;fill-opacity:1;stroke:none;display:inline"
       id="path6838"
       d="m 10.938975,13.090908 -0.529038,0 0,0.727273 0.529038,0 0,-0.727273 z" />
    <path
       style="opacity:0.7;fill:#666666;fill-opacity:1;stroke:none;display:inline"
       id="path6840"
       d="m 10.273026,13.090908 -1.9252205,0 0,0.727273 1.9252205,0 0,-0.727273 z" />
    <path
       style="fill:url(#linearGradient2973);fill-opacity:1;fill-rule:evenodd;stroke:url(#linearGradient2975);stroke-width:0.72727269;stroke-linecap:butt;stroke-linejoin:round;stroke-miterlimit:4;stroke-opacity:1;stroke-dasharray:none;display:inline"
       id="path12038"
       d="m 11.090909,0.36363656 c 0,1.64579264 0,3.63636344 0,3.63636344 0,0 3.384478,0 4.363636,0 0,-0.6084268 -3.505795,-3.62597624 -4.363636,-3.63636344 z" />
  </g>
</svg>
