<?xml version="1.0" encoding="UTF-8" standalone="no"?>
<!-- Created with Inkscape (http://www.inkscape.org/) -->

<svg
   xmlns:dc="http://purl.org/dc/elements/1.1/"
   xmlns:cc="http://creativecommons.org/ns#"
   xmlns:rdf="http://www.w3.org/1999/02/22-rdf-syntax-ns#"
   xmlns:svg="http://www.w3.org/2000/svg"
   xmlns="http://www.w3.org/2000/svg"
   xmlns:xlink="http://www.w3.org/1999/xlink"
   xmlns:sodipodi="http://sodipodi.sourceforge.net/DTD/sodipodi-0.dtd"
   xmlns:inkscape="http://www.inkscape.org/namespaces/inkscape"
   id="svg3297"
   height="16"
   width="16"
   version="1.0"
   inkscape:version="0.48.1 r9760"
   sodipodi:docname="ubiquity.svg">
  <metadata
     id="metadata88">
    <rdf:RDF>
      <cc:Work
         rdf:about="">
        <dc:format>image/svg+xml</dc:format>
        <dc:type
           rdf:resource="http://purl.org/dc/dcmitype/StillImage" />
      </cc:Work>
    </rdf:RDF>
  </metadata>
  <sodipodi:namedview
     pagecolor="#ffffff"
     bordercolor="#666666"
     borderopacity="1"
     objecttolerance="10"
     gridtolerance="10"
     guidetolerance="10"
     inkscape:pageopacity="0"
     inkscape:pageshadow="2"
     inkscape:window-width="1366"
     inkscape:window-height="688"
     id="namedview86"
     showgrid="false"
     inkscape:zoom="39"
     inkscape:cx="10.177245"
     inkscape:cy="11.432235"
     inkscape:window-x="0"
     inkscape:window-y="25"
     inkscape:window-maximized="1"
     inkscape:current-layer="svg3297" />
  <defs
     id="defs3299">
    <radialGradient
       id="radialGradient2621"
       gradientUnits="userSpaceOnUse"
       cy="191.85"
       cx="142.62"
       gradientTransform="matrix(.060310 0 0 -.056844 -.84038 16.152)"
       r="78.728">
      <stop
         id="stop7611-3"
         style="stop-color:#fff"
         offset="0" />
      <stop
         id="stop7677-2"
         style="stop-color:#e7e7e7"
         offset=".47026" />
      <stop
         id="stop7613-4"
         style="stop-color:#8c8c8c"
         offset=".67184" />
      <stop
         id="stop7617-3"
         style="stop-color:#ddd"
         offset=".83543" />
      <stop
         id="stop7615-6"
         style="stop-color:#a8a8a8"
         offset="1" />
    </radialGradient>
    <radialGradient
       id="radialGradient2609"
       gradientUnits="userSpaceOnUse"
       cy="19.031"
       cx="11.25"
       gradientTransform="matrix(.72033 0 0 .14006 -.020987 6.3107)"
       r="8.0625">
      <stop
         id="stop2487"
         style="stop-color:#0d0d0d"
         offset="0" />
      <stop
         id="stop2489"
         style="stop-color:#0d0d0d;stop-opacity:0"
         offset="1" />
    </radialGradient>
    <radialGradient
       id="radialGradient2606"
       gradientUnits="userSpaceOnUse"
       cy="-26.1"
       cx="96.124"
       gradientTransform="matrix(-.000086004 .15390 -.24214 -.00015891 -4.2062 -13.94)"
       r="38.213">
      <stop
         id="stop6164"
         style="stop-color:#f9650d"
         offset="0" />
      <stop
         id="stop6166"
         style="stop-color:#c15619"
         offset="1" />
    </radialGradient>
    <radialGradient
       id="radialGradient2604"
       gradientUnits="userSpaceOnUse"
       cy="-34.004"
       cx="103.94"
       gradientTransform="matrix(-.000086019 .15390 -.24439 0 -6.1957 -15.138)"
       r="38.213">
      <stop
         id="stop6158"
         style="stop-color:#ffc391"
         offset="0" />
      <stop
         id="stop6160"
         style="stop-color:#fa650b"
         offset="1" />
    </radialGradient>
    <radialGradient
       id="radialGradient2601"
       xlink:href="#linearGradient6280"
       gradientUnits="userSpaceOnUse"
       cy="-22.827"
       cx="100.62"
       gradientTransform="matrix(.0060227 .0039630 -.023437 .034937 1.866 3.3671)"
       r="116.22" />
    <radialGradient
       id="radialGradient2598"
       xlink:href="#linearGradient6280"
       gradientUnits="userSpaceOnUse"
       cy="30.946"
       cx="26.686"
       gradientTransform="matrix(0.0259 -.00092255 .0013090 .036044 .23133 3.7659)"
       r="26.269" />
    <radialGradient
       id="radialGradient2595"
       xlink:href="#linearGradient6280"
       gradientUnits="userSpaceOnUse"
       cy="30.946"
       cx="26.686"
       gradientTransform="matrix(.023804 -.00084792 .0012031 .033128 7.0158 .040997)"
       r="26.269" />
    <linearGradient
       id="linearGradient6280">
      <stop
         id="stop6282"
         style="stop-color:#fff"
         offset="0" />
      <stop
         id="stop6284"
         style="stop-color:#fff;stop-opacity:0"
         offset="1" />
    </linearGradient>
    <radialGradient
       id="radialGradient2592"
       xlink:href="#linearGradient6280"
       gradientUnits="userSpaceOnUse"
       cy="-22.827"
       cx="100.62"
       gradientTransform="matrix(.00037398 .0069899 .041142 -.0022989 6.167 .92436)"
       r="116.22" />
    <linearGradient
       id="linearGradient2589"
       y2="40.322"
       gradientUnits="userSpaceOnUse"
       x2="25"
       gradientTransform="matrix(.19792 0 0 .19667 6.3967 1.3686)"
       y1="11.923"
       x1="25">
      <stop
         id="stop2266"
         style="stop-color:#d7e866"
         offset="0" />
      <stop
         id="stop2268"
         style="stop-color:#8cab2a"
         offset="1" />
    </linearGradient>
    <linearGradient
       id="linearGradient2586"
       y2="58.048"
       gradientUnits="userSpaceOnUse"
       x2="105.32"
       gradientTransform="matrix(.19884 0 0 .19667 -4.4931 .76922)"
       y1="2.0478"
       x1="58.749">
      <stop
         id="stop5115"
         style="stop-color:#fff"
         offset="0" />
      <stop
         id="stop5117"
         style="stop-color:#fff;stop-opacity:0"
         offset="1" />
    </linearGradient>
    <linearGradient
       id="linearGradient4035">
      <stop
         id="stop4037"
         style="stop-color:#f5f5f5"
         offset="0" />
      <stop
         id="stop4039"
         style="stop-color:#e7e7e7"
         offset=".47026" />
      <stop
         id="stop4041"
         style="stop-color:#8c8c8c"
         offset=".69349" />
      <stop
         id="stop4043"
         style="stop-color:#ddd"
         offset=".83543" />
      <stop
         id="stop4045"
         style="stop-color:#a8a8a8"
         offset="1" />
    </linearGradient>
    <radialGradient
       id="radialGradient8198"
       gradientUnits="userSpaceOnUse"
       cy="143.83"
       cx="127.32"
       gradientTransform="matrix(.041797 -.013884 .0033869 .037975 -.54191 -.79595)"
       r="78.728">
      <stop
         id="stop8107"
         style="stop-color:#f5f5f5"
         offset="0" />
      <stop
         id="stop8109"
         style="stop-color:#e7e7e7"
         offset=".25028" />
      <stop
         id="stop8111"
         style="stop-color:#8c8c8c"
         offset=".69349" />
      <stop
         id="stop8113"
         style="stop-color:#ddd"
         offset=".83543" />
      <stop
         id="stop8115"
         style="stop-color:#a8a8a8"
         offset="1" />
    </radialGradient>
    <radialGradient
       id="radialGradient8201"
       gradientUnits="userSpaceOnUse"
       cy="42"
       cx="24"
       gradientTransform="matrix(.33333 0 0 .14286 6.5e-7 8)"
       r="21">
      <stop
         id="stop6312-6"
         style="stop-color:#fff"
         offset="0" />
      <stop
         id="stop6314-6"
         style="stop-color:#fff;stop-opacity:0"
         offset="1" />
    </radialGradient>
    <radialGradient
       id="radialGradient8208"
       xlink:href="#linearGradient4035"
       gradientUnits="userSpaceOnUse"
       cy="191.85"
       cx="142.62"
       gradientTransform="matrix(.061651 0 0 -.065372 -1.0371 17.524)"
       r="78.728" />
    <radialGradient
       id="radialGradient8211"
       xlink:href="#linearGradient4035"
       gradientUnits="userSpaceOnUse"
       cy="206.43"
       cx="141.75"
       gradientTransform="matrix(.12709 -.0021289 .00094059 .12249 -10.298 -14.5)"
       r="78.728" />
    <radialGradient
       id="radialGradient8215"
       gradientUnits="userSpaceOnUse"
       cy="2.3118"
       cx="4.1993"
       gradientTransform="matrix(1.1767 1.0377 -.76928 .87233 1.0364 -3.2772)"
       r="8">
      <stop
         id="stop7064-4"
         style="stop-color:#e6e6e6"
         offset="0" />
      <stop
         id="stop7060-2"
         style="stop-color:#c8c8c8"
         offset="1" />
    </radialGradient>
    <linearGradient
       id="linearGradient8217"
       y2="6.8647"
       gradientUnits="userSpaceOnUse"
       x2="2.2246"
       gradientTransform="matrix(.64516 0 0 .97976 .25806 -6.7257)"
       y1="11.321"
       x1="4.6104">
      <stop
         id="stop3486-2"
         style="stop-color:#969696"
         offset="0" />
      <stop
         id="stop3488-0"
         style="stop-color:#b4b4b4"
         offset="1" />
    </linearGradient>
    <linearGradient
       id="linearGradient8220"
       y2="33.759"
       gradientUnits="userSpaceOnUse"
       x2="12.222"
       gradientTransform="matrix(.55458 0 0 .35955 -2.1323 1.7913)"
       y1="37.206"
       x1="12.277">
      <stop
         id="stop4238-4"
         style="stop-color:#eee"
         offset="0" />
      <stop
         id="stop4240-3"
         style="stop-color:#eee;stop-opacity:0"
         offset="1" />
    </linearGradient>
    <linearGradient
       id="linearGradient8223"
       y2="35.281"
       gradientUnits="userSpaceOnUse"
       x2="24.688"
       gradientTransform="matrix(.55458 0 0 .35955 -1.6911 1.3146)"
       y1="35.281"
       x1="7.0625">
      <stop
         id="stop6311"
         offset="0" />
      <stop
         id="stop6313"
         style="stop-color:#bbb;stop-opacity:0"
         offset="1" />
    </linearGradient>
    <linearGradient
       id="linearGradient8226"
       y2="104.28"
       gradientUnits="userSpaceOnUse"
       x2="53.991"
       gradientTransform="matrix(.12421 0 0 .18640 .23313 -3.9907)"
       y1="87.896"
       x1="53.991">
      <stop
         id="stop2223-6"
         style="stop-color:#7a7a7a"
         offset="0" />
      <stop
         id="stop2219-1"
         style="stop-color:#474747"
         offset="1" />
    </linearGradient>
  </defs>
  <path
     id="rect2992"
     style="stroke-linejoin:round;stroke:#353537;fill:url(#linearGradient8226)"
     d="m15.497 12.5c-0.304 2.535-0.226 2.984-0.777 2.984-0.216 0.036-8.6983 0-13.47 0-0.59824 0-0.44711 0.049-0.75-2.984 4.8142 0.14 10.032-0.371 14.997 0z" />
  <path
     id="rect9146"
     style="fill-rule:evenodd;fill:url(#linearGradient8223)"
     d="m2 13h10v2h-9.7744l-0.2256-2z" />
  <path
     id="path9148"
     style="opacity:.81143;fill:url(#linearGradient8220);fill-rule:evenodd"
     d="m2.2256 15l-0.1504-1.442c1.0179 1.143 4.7514 1.442 7.3252 1.442h-7.1748z" />
  <path
     id="rect2990"
     style="stroke-linejoin:round;stroke:url(#linearGradient8217);stroke-linecap:round;fill:url(#radialGradient8215)"
     d="m1.4897 1.4658l-0.97495 11.023c-0.00975 0-0.01475 0.003-0.01475 0.011h15c0-0.008-0.005-0.011-0.015-0.011l-1.005-11.241c0-0.0002-0.188-0.74355-0.91-0.74355-0.688 0-10.535-0.00445-11.26-0.00445-0.7585 0-0.8203 0.9658-0.8203 0.9658z" />
  <path
     id="path2215"
     style="opacity:.7;stroke-linejoin:round;stroke:#fff;stroke-linecap:round;fill:none"
     d="m1.4763 12.5h13.048" />
  <path
     id="path8117"
     style="fill:url(#radialGradient8211)"
     d="m9.875 1.0312c-0.3325 0-0.5854 0.1622-0.5938 0.4063-1.735 2.8172-5.5652 1.8935-7.0937 5.25-0.0802 0.8627 0.1259 1.9826 0.9063 2.6875 1.1422 1.032 3.0442 1.666 5.0624 1.625 4.1658-0.085 7.8348-2.8002 4.6558-6.3438-0.017-0.2448-0.25-3.2187-0.25-3.2187-0.017-0.2408-0.294-0.4063-0.624-0.4063h-2.063zm-0.0312 0.4376h2.0622c0.12 0 0.214 0.027 0.219 0.0937l-0.437 3.0937c3.473 2.8052 0.258 5.1235-3.438 5.25-3.3581 0.1148-5.2801-1.0583-5.0938-3.0624 1.1782-3.3771 5.7075-1.762 6.4688-5.2813-0.0195-0.0627 0.1015-0.0937 0.2188-0.0937z" />
  <path
     id="path9400"
     style="fill:url(#radialGradient8208)"
     d="m7.9999 8.9999c-0.6661 0.0041-1.382-0.2351-1.7816-0.7954-0.3304-0.4668-0.277-1.1624 0.1311-1.5665 0.4834-0.5182 1.2373-0.6875 1.9225-0.6251 0.6071 0.0562 1.2385 0.3314 1.5635 0.8701 0.2516 0.434 0.2116 1.0212-0.1189 1.4039-0.4067 0.5079-1.0866 0.7129-1.7166 0.713zm0.0336-2.0595c-0.4658 0.0106-0.965-0.0032-1.3804 0.2407-0.2744 0.1909-0.298 0.6023-0.1132 0.8636 0.2517 0.392 0.7264 0.5638 1.1687 0.6235 0.5705 0.0718 1.1976-0.0568 1.6262-0.4584 0.2414-0.24 0.3518-0.6735 0.1113-0.9512-0.2382-0.2503-0.6084-0.2735-0.932-0.3044-0.16-0.0106-0.3204-0.0122-0.4806-0.0138z" />
  <g
     id="g9436"
     transform="matrix(-.046858 0 0 .077502 4.3055 -2.9911)">
    <path
       id="path9438"
       style="fill:#535353"
       d="m37.925 187.15c0.315 3.46 5.024 6.28 10.514 6.28 5.488 0 9.644-2.82 9.277-6.28-0.365-3.44-5.071-6.22-10.507-6.22-5.438 0-9.593 2.78-9.284 6.22z" />
  </g>
  <g
     id="g9496"
     transform="matrix(-.046858 0 0 .077502 16.206 -2.9911)">
    <path
       id="path9498"
       style="fill:#535353"
       d="m37.925 187.15c0.315 3.46 5.024 6.28 10.514 6.28 5.488 0 9.644-2.82 9.277-6.28-0.365-3.44-5.071-6.22-10.507-6.22-5.438 0-9.593 2.78-9.284 6.22z" />
  </g>
  <rect
     id="rect6300-3"
     style="opacity:.2;fill:url(#radialGradient8201)"
     height="2"
     width="14"
     y="13"
     x="1" />
  <path
     id="path8125"
     style="fill:url(#radialGradient8198)"
     d="m3.549 1.2794c0.0331 0.1845-0.0457 0.3887-0.0724 0.5784-0.1124 0.5802-0.2285 1.1596-0.3378 1.7404-0.1023 0.3783 0.2646 0.2244 0.31 0.2628 0.4797-0.1831 0.955-0.3835 1.4326-0.5748 0.4982-0.2038 0.9995-0.4013 1.4959-0.6091 0.313-0.1862 0.4048-0.3533 0.4863-0.6342 0.0449-0.2439 0.0503-0.5166-0.0716-0.7395-0.0781-0.154-0.2485-0.2192-0.4122-0.196h-2.6026l-0.2282 0.172zm0.589 0.444h1.7764c0.1871 0.0705 0.0546 0.2195-0.0833 0.2325-0.6014 0.2439-1.2028 0.4878-1.8041 0.7317-0.1446 0.0544-0.155-0.1673-0.1113-0.2613 0.0371-0.2075 0.0742-0.415 0.1113-0.6226 0.0412-0.0211 0.0656-0.0653 0.111-0.0803z" />
  <path
     id="path9156"
     style="fill:url(#radialGradient2621)"
     d="m8.0001 8.7392c-1.0973 0-1.9384-0.5509-1.9562-1.2816-0.0001-0.0082-0.0003-0.0157-0.0003-0.0234 0-0.2644 0.1103-0.5159 0.3198-0.7288 0.3544-0.36 0.9663-0.5748 1.6368-0.5748 0.6704 0 1.2823 0.2148 1.6367 0.5748 0.2157 0.2189 0.3262 0.4791 0.3195 0.7521-0.018 0.7307-0.8592 1.2818-1.9563 1.2818v-0.0001zm0.0328-1.7908c-1.031 0-1.5891 0.137-1.5767 0.6355 0.012 0.4907 0.7032 0.8827 1.5439 0.8827 0.8408 0 1.5319-0.3922 1.5439-0.8827 0.0122-0.4986-0.4801-0.6355-1.5111-0.6355z" />
  <path
     id="path4972"
     style="stroke:#699536;fill:url(#linearGradient2589)"
     d="m15.331 6.5l-2.905 3.2175-2.9642-3.2175h1.8002c0.405-1.0789-0.427-1.8769-1.3917-1.8769-0.6856 0-1.6157 0.3746-1.9299 1.3061-0.1634 0.4845-0.4512 0.2723-0.4401-0.1488 0.0431-1.6249 1.2554-2.9243 3.0657-2.9243 1.809 0 3.154 1.5074 3.052 3.6439h1.713z" />
  <path
     id="path4980"
     style="opacity:0.354;stroke:url(#linearGradient2586);fill:none"
     d="m13.199 7.539l-0.763 0.7971-0.874-0.8517 0.508-0.0375c0.62-1.3724-0.362-3.6036-1.591-3.6233-0.8846-0.0689-2.1984 1.0716-2.6813 1.6546 0.3077-1.3802 1.3107-1.7773 2.8243-1.7801 1.529-0.0029 2.294 1.5106 1.955 3.805l0.622 0.0359z" />
  <g
     transform="matrix(0.20259457,0,0,0.20259457,2.5744675,1.9184856)"
     id="g2559">
    <g
       transform="matrix(0.08859598,0,0,0.08859598,-12.92938,-6.9696065)"
       id="g3411">
      <g
         id="g3408">
        <path
           id="path2535"
           d="m 319.11805,539.44783 c -5.40196,-10.67936 -8.37347,-27.88096 -15.24449,-88.24742 -3.65428,-32.10521 -4.99027,-39.80515 -7.65444,-44.11585 -5.69141,-9.20889 -7.91033,-9.67005 -46.52949,-9.67005 -34.40987,0 -34.71953,-0.0287 -36.94135,-3.4196 -2.17836,-3.3246 -86.74098,-331.793933 -86.74098,-336.930814 0,-1.41434 1.05567,-4.0787 2.34593,-5.920801 2.31456,-3.3045 2.83462,-3.349285 38.89357,-3.349285 37.36976,0 38.34146,0.13713 42.71884,6.027942 0.92384,1.243268 14.34155,55.155648 29.81713,119.805308 15.4756,64.64965 29.30048,119.57229 30.72196,122.05034 1.42148,2.47804 4.41545,5.52969 6.65327,6.78143 3.61933,2.02452 4.51034,2.02622 8.06654,0.0154 8.31373,-4.70085 9.74816,-8.60761 11.97122,-32.60448 6.98389,-75.38767 16.97786,-130.28549 32.34034,-177.648634 8.26189,-25.471707 15.57061,-35.842957 29.30705,-41.587406 2.49363,-1.042807 14.32673,-2.269556 26.43602,-2.740617 l 21.92175,-0.852803 13.94963,-7.250509 c 17.44491,-9.067258 20.7507,-8.984146 25.52931,0.641737 3.20826,6.462646 3.33353,7.68739 1.77235,17.330324 -0.92395,5.706927 -2.22668,19.562938 -2.89496,30.791126 -1.4294,24.015702 -4.12158,31.017542 -16.30955,42.417952 -12.25244,11.46073 -22.22558,13.34124 -53.45525,10.07937 -16.15194,-1.68705 -16.21164,-1.68117 -21.1364,2.07513 -7.3092,5.57499 -12.35686,16.21009 -17.64915,37.18573 -11.5089,45.61445 -15.93508,86.49682 -14.61294,134.97246 1.76463,64.69935 9.77735,106.48061 28.22383,147.16936 8.83246,19.4824 14.65246,37.03812 17.28686,52.14487 3.18178,18.2458 2.95519,20.96993 -2.17083,26.09593 l -4.40502,4.40503 -19.6761,0 -19.6761,0 -2.85855,-5.6512 z"
           style="fill:#e6e6e6"
           inkscape:connector-curvature="0" />
      </g>
      <path
         id="path2537"
         d="m 308.25828,533.31616 c -5.40195,-10.67936 -8.37346,-27.88096 -15.24448,-88.24742 -3.65429,-32.10521 -4.99027,-39.80514 -7.65444,-44.11585 -5.69142,-9.20889 -7.91033,-9.67005 -46.52949,-9.67005 -34.40988,0 -34.71953,-0.0287 -36.94136,-3.4196 -2.17835,-3.32459 -86.74097,-331.793932 -86.74097,-336.930812 0,-1.41434 1.05566,-4.0787 2.34593,-5.920801 2.31455,-3.304501 2.83461,-3.349285 38.89356,-3.349285 37.36977,0 38.34147,0.13713 42.71884,6.027942 0.92384,1.243268 14.34156,55.155646 29.81714,119.805306 15.47559,64.64965 29.30048,119.57229 30.72196,122.05034 1.42148,2.47804 4.41545,5.52969 6.65326,6.78143 3.61933,2.02452 4.51035,2.02622 8.06654,0.0154 8.31373,-4.70085 9.74816,-8.60762 11.97122,-32.60449 6.9839,-75.38766 16.97786,-130.28548 32.34034,-177.648632 8.26189,-25.471707 15.57061,-35.842957 29.30706,-41.587406 2.49362,-1.042807 14.32673,-2.269556 26.43602,-2.740618 l 21.92175,-0.8528 13.94962,-7.250511 c 17.44491,-9.067257 20.7507,-8.984145 25.52932,0.641737 3.20825,6.462648 3.33352,7.68739 1.77234,17.330324 -0.92395,5.706927 -2.22667,19.562937 -2.89495,30.791126 -1.4294,24.0157 -4.12158,31.01754 -16.30956,42.41795 -12.25244,11.46073 -22.22557,13.34124 -53.45525,10.07937 -16.15194,-1.68705 -16.21163,-1.68117 -21.13639,2.07513 -7.3092,5.57499 -12.35686,16.21009 -17.64916,37.18573 -11.50889,45.61445 -15.93507,86.49682 -14.61293,134.97246 1.76463,64.69935 9.77734,106.48061 28.22382,147.16936 8.83247,19.48241 14.65246,37.03812 17.28687,52.14487 3.18178,18.24581 2.95518,20.96993 -2.17083,26.09593 l -4.40502,4.40503 -19.67611,0 -19.67609,0 -2.85856,-5.6512 z"
         style="fill:#333333"
         inkscape:connector-curvature="0" />
    </g>
  </g>
</svg>
