<?xml version="1.0" encoding="UTF-8" standalone="no"?>
<!-- Created with Inkscape (http://www.inkscape.org/) -->

<svg
   xmlns:dc="http://purl.org/dc/elements/1.1/"
   xmlns:cc="http://creativecommons.org/ns#"
   xmlns:rdf="http://www.w3.org/1999/02/22-rdf-syntax-ns#"
   xmlns:svg="http://www.w3.org/2000/svg"
   xmlns="http://www.w3.org/2000/svg"
   xmlns:xlink="http://www.w3.org/1999/xlink"
   xmlns:sodipodi="http://sodipodi.sourceforge.net/DTD/sodipodi-0.dtd"
   xmlns:inkscape="http://www.inkscape.org/namespaces/inkscape"
   version="1.0"
   width="48.000221"
   height="48.000221"
   id="svg3247"
   inkscape:version="0.48.2 r9819"
   sodipodi:docname="dialog-warning.svg">
  <metadata
     id="metadata32">
    <rdf:RDF>
      <cc:Work
         rdf:about="">
        <dc:format>image/svg+xml</dc:format>
        <dc:type
           rdf:resource="http://purl.org/dc/dcmitype/StillImage" />
        <dc:title></dc:title>
      </cc:Work>
    </rdf:RDF>
  </metadata>
  <sodipodi:namedview
     pagecolor="#ffffff"
     bordercolor="#666666"
     borderopacity="1"
     objecttolerance="10"
     gridtolerance="10"
     guidetolerance="10"
     inkscape:pageopacity="0"
     inkscape:pageshadow="2"
     inkscape:window-width="1280"
     inkscape:window-height="753"
     id="namedview30"
     showgrid="false"
     inkscape:zoom="8.2348098"
     inkscape:cx="23.878675"
     inkscape:cy="24.000111"
     inkscape:window-x="0"
     inkscape:window-y="24"
     inkscape:window-maximized="1"
     inkscape:current-layer="svg3247"
     fit-margin-top="0"
     fit-margin-left="0"
     fit-margin-right="0"
     fit-margin-bottom="0" />
  <defs
     id="defs3249">
    <linearGradient
       id="linearGradient3117">
      <stop
         id="stop3119"
         style="stop-color:#ffffff;stop-opacity:1;"
         offset="0" />
      <stop
         offset="0.56911701"
         style="stop-color:#ffffff;stop-opacity:0.23529412;"
         id="stop3121" />
      <stop
         id="stop3123"
         style="stop-color:#ffffff;stop-opacity:0.15686275;"
         offset="0.93297637" />
      <stop
         id="stop3125"
         style="stop-color:#ffffff;stop-opacity:0.39215687;"
         offset="1" />
    </linearGradient>
    <linearGradient
       id="linearGradient5048">
      <stop
         offset="0"
         style="stop-color:#000000;stop-opacity:0"
         id="stop5050" />
      <stop
         offset="0.5"
         style="stop-color:#000000;stop-opacity:1"
         id="stop5056" />
      <stop
         offset="1"
         style="stop-color:#000000;stop-opacity:0"
         id="stop5052" />
    </linearGradient>
    <linearGradient
       id="linearGradient5060">
      <stop
         offset="0"
         style="stop-color:#000000;stop-opacity:1"
         id="stop5062" />
      <stop
         offset="1"
         style="stop-color:#000000;stop-opacity:0"
         id="stop5064" />
    </linearGradient>
    <linearGradient
       id="linearGradient3846">
      <stop
         id="stop3848"
         style="stop-color:#fff3cb;stop-opacity:1"
         offset="0" />
      <stop
         id="stop3850"
         style="stop-color:#fdde76;stop-opacity:1"
         offset="0.26238" />
      <stop
         id="stop3852"
         style="stop-color:#f9c440;stop-opacity:1"
         offset="0.66093999" />
      <stop
         id="stop3854"
         style="stop-color:#e48b20;stop-opacity:1"
         offset="1" />
    </linearGradient>
    <linearGradient
       id="linearGradient4123">
      <stop
         offset="0"
         style="stop-color:#b67926;stop-opacity:1"
         id="stop4125" />
      <stop
         offset="1"
         style="stop-color:#eab41a;stop-opacity:1"
         id="stop4127" />
    </linearGradient>
    <linearGradient
       inkscape:collect="always"
       xlink:href="#linearGradient3117"
       id="linearGradient3101"
       gradientUnits="userSpaceOnUse"
       gradientTransform="matrix(1.0368452,0,-0.00451336,1.0845986,-6.1104863,-18.449202)"
       x1="29.126724"
       y1="19.787613"
       x2="29.291178"
       y2="57.567127" />
    <linearGradient
       inkscape:collect="always"
       xlink:href="#linearGradient3846"
       id="linearGradient3104"
       gradientUnits="userSpaceOnUse"
       gradientTransform="matrix(0.97781815,0,0,0.97679637,0.53247056,0.98486831)"
       x1="24"
       y1="-14.603537"
       x2="24"
       y2="54.669891" />
    <linearGradient
       inkscape:collect="always"
       xlink:href="#linearGradient4123"
       id="linearGradient3106"
       gradientUnits="userSpaceOnUse"
       gradientTransform="matrix(0.97781815,0,0,0.97679637,0.53247056,0.98486831)"
       x1="20"
       y1="44.681213"
       x2="20"
       y2="-14.856302" />
    <radialGradient
       inkscape:collect="always"
       xlink:href="#linearGradient5060"
       id="radialGradient3109"
       gradientUnits="userSpaceOnUse"
       gradientTransform="matrix(0.02409728,0,0,0.01544124,28.977715,36.58875)"
       cx="605.71429"
       cy="486.64789"
       fx="605.71429"
       fy="486.64789"
       r="117.14286" />
    <radialGradient
       inkscape:collect="always"
       xlink:href="#linearGradient5060"
       id="radialGradient3112"
       gradientUnits="userSpaceOnUse"
       gradientTransform="matrix(-0.02409728,0,0,0.01544124,19.022501,36.58875)"
       cx="605.71429"
       cy="486.64789"
       fx="605.71429"
       fy="486.64789"
       r="117.14286" />
    <linearGradient
       inkscape:collect="always"
       xlink:href="#linearGradient5048"
       id="linearGradient3115"
       gradientUnits="userSpaceOnUse"
       gradientTransform="matrix(0.0807696,0,0,0.01544124,-5.1923334,36.58875)"
       x1="302.85715"
       y1="366.64789"
       x2="302.85715"
       y2="609.50507" />
    <linearGradient
       inkscape:collect="always"
       xlink:href="#linearGradient3856-1"
       id="linearGradient3098-8"
       gradientUnits="userSpaceOnUse"
       gradientTransform="matrix(0.75000339,0,0,0.75000339,-10,1.7503173)"
       x1="44.424442"
       y1="60.535198"
       x2="44.424442"
       y2="-5.496769" />
    <linearGradient
       id="linearGradient3856-1">
      <stop
         id="stop3858-0"
         style="stop-color:#b67926;stop-opacity:1"
         offset="0" />
      <stop
         id="stop3860-2"
         style="stop-color:#eab41a;stop-opacity:1"
         offset="1" />
    </linearGradient>
  </defs>
  <rect
     style="opacity:0.3;fill:url(#linearGradient3115);fill-opacity:1;fill-rule:nonzero;stroke:none;stroke-width:1;marker:none;visibility:visible;display:inline;overflow:visible"
     id="rect2879"
     y="42.250206"
     x="4.50002"
     height="3.7500169"
     width="39.000179" />
  <path
     inkscape:connector-curvature="0"
     style="opacity:0.3;fill:url(#radialGradient3112);fill-opacity:1;fill-rule:nonzero;stroke:none;stroke-width:1;marker:none;visibility:visible;display:inline;overflow:visible"
     id="path2881"
     d="m 4.5000204,42.250374 c 0,0 0,3.749793 0,3.749793 -1.2409482,0.0075 -3.0000136,-0.840154 -3.0000136,-1.875158 0,-1.035005 1.3848063,-1.874635 3.0000136,-1.874635 z" />
  <path
     inkscape:connector-curvature="0"
     style="opacity:0.3;fill:url(#radialGradient3109);fill-opacity:1;fill-rule:nonzero;stroke:none;stroke-width:1;marker:none;visibility:visible;display:inline;overflow:visible"
     id="path2883"
     d="m 43.500197,42.250374 c 0,0 0,3.749793 0,3.749793 1.240948,0.0075 3.000012,-0.840154 3.000012,-1.875158 0,-1.035005 -1.384805,-1.874635 -3.000012,-1.874635 z" />
  <path
     d="M 45.68698,40.055754 26.589988,4.0555903 c -0.548904,-1.000001 -1.542125,-1.555558 -2.648286,-1.555558 -1.106153,0 -2.104476,0.666662 -2.661716,1.666672 L 2.3252022,40.166866 c -0.4461675,0.888897 -0.4512684,2.111124 0.098104,3.000013 0.549366,0.888897 1.4324387,1.333342 2.5385987,1.333342 l 38.0517621,0 c 1.10616,0 2.104013,-0.555558 2.550188,-1.444454 0.556779,-0.888888 0.561417,-2.000004 0.123125,-3.000013 z"
     id="path11155"
     style="fill:url(#linearGradient3104);fill-opacity:1;fill-rule:nonzero;stroke:url(#linearGradient3106);stroke-width:0.99999982;stroke-miterlimit:4;stroke-opacity:1;stroke-dasharray:none"
     inkscape:connector-curvature="0" />
  <path
     d="M 44.064497,39.314084 26.119628,5.4283329 C 25.355375,3.9685715 25.081255,3.500221 23.919802,3.500221 c -0.998937,0 -1.521617,0.6820898 -2.2435,2.0599869 L 3.9306159,39.418668 c -1.0304592,1.900956 -1.1408603,2.396468 -0.6448695,3.233148 0.4959828,0.83669 1.1328129,0.79112 3.4858231,0.845696 l 34.8780815,0 c 2.190609,0.02726 2.684057,-0.140887 3.087119,-0.977571 0.502945,-0.836689 0.289017,-1.500495 -0.672273,-3.205857 z"
     id="path11159"
     style="opacity:0.8;fill:none;stroke:url(#linearGradient3101);stroke-width:1;stroke-miterlimit:4;stroke-opacity:1;stroke-dasharray:none"
     inkscape:connector-curvature="0" />
  <path
     d="m 21.581986,14.123206 c 0.562985,5.499325 1.207856,10.960802 1.687101,16.481667 0.482028,0 1.047391,0 1.529419,0 0.39752,-5.301782 1.038697,-10.571527 1.501221,-15.866736 0.235772,-1.253831 -0.407984,-2.74252 -1.731999,-3.047145 -1.308328,-0.382516 -2.770054,0.564714 -2.944023,1.917755 -0.02885,0.169852 -0.04172,0.342238 -0.04172,0.514459 l -1e-6,0 z M 21.41513,36.481912 c -0.05953,1.636939 1.741632,2.920137 3.279478,2.401164 1.489513,-0.380147 2.274063,-2.252289 1.510684,-3.583058 -0.683355,-1.375642 -2.687256,-1.828891 -3.840007,-0.776055 -0.582694,0.478722 -0.968913,1.193389 -0.950154,1.95795 l -10e-7,-10e-7 z"
     id="path3295-1"
     style="font-size:62.4582634px;font-style:normal;font-variant:normal;font-weight:normal;font-stretch:normal;text-align:start;line-height:125%;writing-mode:lr-tb;text-anchor:start;color:#000000;fill:url(#linearGradient3098-8);fill-opacity:1;fill-rule:nonzero;stroke:none;marker:none;visibility:visible;display:inline;overflow:visible;enable-background:accumulate;font-family:Georgia"
     inkscape:connector-curvature="0" />
  <path
     d="m 21.581986,15.123515 c 0.562985,5.499325 1.207856,10.960802 1.687101,16.481667 0.482028,0 1.047391,0 1.529419,0 0.39752,-5.301782 1.038697,-10.571527 1.501221,-15.866736 0.235772,-1.253831 -0.407984,-2.74252 -1.731999,-3.047145 -1.308328,-0.382515 -2.770054,0.564714 -2.944023,1.917755 -0.02885,0.169852 -0.04172,0.342238 -0.04172,0.514459 l -1e-6,0 z M 21.41513,37.482221 c -0.05953,1.636939 1.741632,2.920137 3.279478,2.401164 1.489513,-0.380147 2.274063,-2.252289 1.510684,-3.583058 -0.683355,-1.375642 -2.687256,-1.828891 -3.840007,-0.776055 -0.582694,0.478722 -0.968913,1.193389 -0.950154,1.95795 l -10e-7,-10e-7 z"
     id="text2315-7"
     style="font-size:62.4582634px;font-style:normal;font-variant:normal;font-weight:normal;font-stretch:normal;text-align:start;line-height:125%;writing-mode:lr-tb;text-anchor:start;fill:#ffffff;fill-opacity:1;stroke:none;font-family:Georgia"
     inkscape:connector-curvature="0" />
</svg>
