<?xml version="1.0" encoding="UTF-8" standalone="no"?>
<!-- Created with Inkscape (http://www.inkscape.org/) -->
<svg
   xmlns:dc="http://purl.org/dc/elements/1.1/"
   xmlns:cc="http://creativecommons.org/ns#"
   xmlns:rdf="http://www.w3.org/1999/02/22-rdf-syntax-ns#"
   xmlns:svg="http://www.w3.org/2000/svg"
   xmlns="http://www.w3.org/2000/svg"
   xmlns:xlink="http://www.w3.org/1999/xlink"
   xmlns:sodipodi="http://sodipodi.sourceforge.net/DTD/sodipodi-0.dtd"
   xmlns:inkscape="http://www.inkscape.org/namespaces/inkscape"
   version="1.0"
   width="48"
   height="48"
   id="svg3200"
   sodipodi:version="0.32"
   inkscape:version="0.46"
   sodipodi:docname="folder-ubuntu.svg"
   inkscape:output_extension="org.inkscape.output.svg.inkscape">
  <sodipodi:namedview
     inkscape:window-height="793"
     inkscape:window-width="1274"
     inkscape:pageshadow="2"
     inkscape:pageopacity="0.0"
     guidetolerance="10.0"
     gridtolerance="10.0"
     objecttolerance="10.0"
     borderopacity="1.0"
     bordercolor="#666666"
     pagecolor="#ffffff"
     id="base"
     showgrid="false"
     inkscape:zoom="2.0255663"
     inkscape:cx="-58.165353"
     inkscape:cy="33.314483"
     inkscape:window-x="-2"
     inkscape:window-y="29"
     inkscape:current-layer="svg3200" />
  <metadata
     id="metadata71">
    <rdf:RDF>
      <cc:Work
         rdf:about="">
        <dc:format>image/svg+xml</dc:format>
        <dc:type
           rdf:resource="http://purl.org/dc/dcmitype/StillImage" />
      </cc:Work>
    </rdf:RDF>
  </metadata>
  <defs
     id="defs3202">
    <inkscape:perspective
       id="perspective73"
       inkscape:persp3d-origin="24 : 16 : 1"
       inkscape:vp_z="48 : 24 : 1"
       inkscape:vp_y="0 : 1000 : 0"
       inkscape:vp_x="0 : 24 : 1"
       sodipodi:type="inkscape:persp3d" />
    <linearGradient
       id="linearGradient3397">
      <stop
         offset="0"
         style="stop-color:#a0a0a0;stop-opacity:1"
         id="stop3399" />
      <stop
         offset="1"
         style="stop-color:#787878;stop-opacity:1"
         id="stop3401" />
    </linearGradient>
    <linearGradient
       gradientUnits="userSpaceOnUse"
       xlink:href="#linearGradient3397"
       id="linearGradient3415"
       y2="47.044857"
       x2="25.922546"
       y1="19"
       x1="25.922546" />
    <linearGradient
       gradientUnits="userSpaceOnUse"
       id="linearGradient3309"
       y2="122.8994"
       x2="63.9995"
       y1="3.1001"
       x1="63.9995">
      <stop
         offset="0"
         style="stop-color:#f6f6f6;stop-opacity:1"
         id="stop3311" />
      <stop
         offset="1"
         style="stop-color:#d2d2d2;stop-opacity:1"
         id="stop3313" />
    </linearGradient>
    <linearGradient
       gradientUnits="userSpaceOnUse"
       xlink:href="#linearGradient3309"
       id="linearGradient3413"
       y2="47.012184"
       x2="32.036148"
       y1="19"
       x1="32.036148" />
    <linearGradient
       id="linearGradient5128">
      <stop
         offset="0"
         style="stop-color:#ffffff;stop-opacity:1"
         id="stop5130" />
      <stop
         offset="1"
         style="stop-color:#959595;stop-opacity:1"
         id="stop5132" />
    </linearGradient>
    <linearGradient
       gradientTransform="matrix(0.2014014,0,0,0.2014015,18.110304,20.311705)"
       gradientUnits="userSpaceOnUse"
       xlink:href="#linearGradient5128"
       id="linearGradient2606"
       y2="20.895"
       x2="84.63858"
       y1="105.105"
       x1="86.132919" />
    <linearGradient
       id="linearGradient3484">
      <stop
         offset="0"
         style="stop-color:#bdbdbd;stop-opacity:1"
         id="stop3486" />
      <stop
         offset="1"
         style="stop-color:#d0d0d0;stop-opacity:1"
         id="stop3488" />
    </linearGradient>
    <radialGradient
       gradientTransform="matrix(-1.274898e-8,1.7142916,-2.159331,-1.4599595e-8,12.809361,2.8570011)"
       gradientUnits="userSpaceOnUse"
       xlink:href="#linearGradient3484"
       id="radialGradient3470"
       fy="5.01718"
       fx="3"
       r="21"
       cy="5.01718"
       cx="3" />
    <linearGradient
       id="linearGradient6404">
      <stop
         offset="0"
         style="stop-color:#f9f9f9;stop-opacity:1"
         id="stop6406" />
      <stop
         offset="1"
         style="stop-color:#c9c9c9;stop-opacity:1"
         id="stop6408" />
    </linearGradient>
    <linearGradient
       gradientTransform="translate(-50.940898,0)"
       gradientUnits="userSpaceOnUse"
       xlink:href="#linearGradient6404"
       id="linearGradient3482"
       y2="16.19013"
       x2="62.988873"
       y1="13.182598"
       x1="62.988873" />
    <linearGradient
       id="linearGradient5060-820">
      <stop
         offset="0"
         style="stop-color:#000000;stop-opacity:1"
         id="stop2681" />
      <stop
         offset="1"
         style="stop-color:#000000;stop-opacity:0"
         id="stop2683" />
    </linearGradient>
    <radialGradient
       gradientTransform="matrix(-3.2129558e-2,0,0,3.7058823e-2,23.363215,25.412461)"
       gradientUnits="userSpaceOnUse"
       xlink:href="#linearGradient5060-820"
       id="radialGradient7600-312"
       fy="486.64789"
       fx="605.71429"
       r="117.14286"
       cy="486.64789"
       cx="605.71429" />
    <linearGradient
       id="linearGradient5060-179">
      <stop
         offset="0"
         style="stop-color:#000000;stop-opacity:1"
         id="stop2675" />
      <stop
         offset="1"
         style="stop-color:#000000;stop-opacity:0"
         id="stop2677" />
    </linearGradient>
    <radialGradient
       gradientTransform="matrix(3.2129565e-2,0,0,3.7058823e-2,24.636785,25.412461)"
       gradientUnits="userSpaceOnUse"
       xlink:href="#linearGradient5060-179"
       id="radialGradient7598-526"
       fy="486.64789"
       fx="605.71429"
       r="117.14286"
       cy="486.64789"
       cx="605.71429" />
    <linearGradient
       id="linearGradient5048-585">
      <stop
         offset="0"
         style="stop-color:#000000;stop-opacity:0"
         id="stop2667" />
      <stop
         offset="0.5"
         style="stop-color:#000000;stop-opacity:1"
         id="stop2669" />
      <stop
         offset="1"
         style="stop-color:#000000;stop-opacity:0"
         id="stop2671" />
    </linearGradient>
    <linearGradient
       gradientTransform="matrix(8.2840237e-2,0,0,3.7058823e-2,-5.9408285,25.412461)"
       gradientUnits="userSpaceOnUse"
       xlink:href="#linearGradient5048-585"
       id="linearGradient7596-975"
       y2="609.50507"
       x2="302.85715"
       y1="366.64789"
       x1="302.85715" />
    <linearGradient
       id="linearGradient3390">
      <stop
         offset="0"
         style="stop-color:#425e7b;stop-opacity:1"
         id="stop3392" />
      <stop
         offset="1"
         style="stop-color:#7a91a7;stop-opacity:1"
         id="stop3394" />
    </linearGradient>
    <linearGradient
       gradientTransform="translate(-53.765393,-0.1141929)"
       gradientUnits="userSpaceOnUse"
       xlink:href="#linearGradient3390"
       id="linearGradient3412"
       y2="15.943953"
       x2="65.340263"
       y1="45.114193"
       x1="82.453476" />
    <linearGradient
       id="linearGradient7012-661-145-733-759-865-745">
      <stop
         offset="0"
         style="stop-color:#9cbbd9;stop-opacity:1"
         id="stop2699" />
      <stop
         offset="1"
         style="stop-color:#5c82ab;stop-opacity:1"
         id="stop2701" />
    </linearGradient>
    <radialGradient
       gradientTransform="matrix(1.5646925,-9.5143002e-8,6.1772287e-8,1.015888,-86.212573,8.1461173)"
       gradientUnits="userSpaceOnUse"
       xlink:href="#linearGradient7012-661-145-733-759-865-745"
       id="radialGradient3404"
       fy="14.113381"
       fx="63.969177"
       r="23.097054"
       cy="14.113381"
       cx="63.969177" />
    <linearGradient
       id="linearGradient6129-963-697-142-998-580-273">
      <stop
         offset="0"
         style="stop-color:#0a0a0a;stop-opacity:0.498"
         id="stop2661" />
      <stop
         offset="1"
         style="stop-color:#0a0a0a;stop-opacity:0"
         id="stop2663" />
    </linearGradient>
    <linearGradient
       gradientTransform="matrix(1.1446925,0,0,0.9977536,-3.4661413,1.0988425)"
       gradientUnits="userSpaceOnUse"
       xlink:href="#linearGradient6129-963-697-142-998-580-273"
       id="linearGradient6462-657-405"
       y2="36.657963"
       x2="22.809399"
       y1="49.629246"
       x1="22.934725" />
    <linearGradient
       id="linearGradient6087-437-184-795-110-662-495">
      <stop
         offset="0"
         style="stop-color:#ffffff;stop-opacity:0.40000001"
         id="stop2693" />
      <stop
         offset="1"
         style="stop-color:#ffffff;stop-opacity:0"
         id="stop2695" />
    </linearGradient>
    <radialGradient
       gradientTransform="matrix(0,1.2079744,-1.6271642,0,26.371748,8.2664685)"
       gradientUnits="userSpaceOnUse"
       xlink:href="#linearGradient6087-437-184-795-110-662-495"
       id="radialGradient2442-940-759"
       fy="8.3021259"
       fx="7.2646537"
       r="20.979567"
       cy="8.3021259"
       cx="7.2646537" />
    <linearGradient
       id="linearGradient8265-821-176-38-919-66-249">
      <stop
         offset="0"
         style="stop-color:#ffffff;stop-opacity:0.2"
         id="stop2687" />
      <stop
         offset="1"
         style="stop-color:#ffffff;stop-opacity:0"
         id="stop2689" />
    </linearGradient>
    <linearGradient
       gradientUnits="userSpaceOnUse"
       xlink:href="#linearGradient8265-821-176-38-919-66-249"
       id="linearGradient3466"
       y2="33.95525"
       x2="15.214532"
       y1="22.292103"
       x1="11.566265" />
    <linearGradient
       y2="33.95525"
       x2="15.214532"
       y1="22.292103"
       x1="11.566265"
       gradientUnits="userSpaceOnUse"
       id="linearGradient2447"
       xlink:href="#linearGradient8265-821-176-38-919-66-249"
       inkscape:collect="always" />
    <radialGradient
       r="20.979567"
       fy="8.3021259"
       fx="7.2646537"
       cy="8.3021259"
       cx="7.2646537"
       gradientTransform="matrix(0,1.2079744,-1.6271642,0,26.371748,8.2664685)"
       gradientUnits="userSpaceOnUse"
       id="radialGradient2450"
       xlink:href="#linearGradient6087-437-184-795-110-662-495"
       inkscape:collect="always" />
    <linearGradient
       y2="36.657963"
       x2="22.809399"
       y1="49.629246"
       x1="22.934725"
       gradientTransform="matrix(1.1446925,0,0,0.9977536,-3.4661413,1.0988425)"
       gradientUnits="userSpaceOnUse"
       id="linearGradient2453"
       xlink:href="#linearGradient3390"
       inkscape:collect="always" />
    <radialGradient
       r="23.097054"
       fy="14.113381"
       fx="63.969177"
       cy="14.113381"
       cx="63.969177"
       gradientTransform="matrix(1.5646925,-9.5143002e-8,6.1772287e-8,1.015888,-86.212573,8.1461173)"
       gradientUnits="userSpaceOnUse"
       id="radialGradient2456"
       xlink:href="#linearGradient7012-661-145-733-759-865-745"
       inkscape:collect="always" />
    <linearGradient
       y2="15.943953"
       x2="65.340263"
       y1="45.114193"
       x1="82.453476"
       gradientTransform="translate(-53.765393,-0.1141929)"
       gradientUnits="userSpaceOnUse"
       id="linearGradient2458"
       xlink:href="#linearGradient3390"
       inkscape:collect="always" />
    <linearGradient
       y2="16.19013"
       x2="62.988873"
       y1="13.182598"
       x1="62.988873"
       gradientTransform="translate(-50.940898,0)"
       gradientUnits="userSpaceOnUse"
       id="linearGradient2465"
       xlink:href="#linearGradient6404"
       inkscape:collect="always" />
    <radialGradient
       r="21"
       fy="5.01718"
       fx="3"
       cy="5.01718"
       cx="3"
       gradientTransform="matrix(-1.274898e-8,1.7142916,-2.159331,-1.4599595e-8,12.809361,2.8570011)"
       gradientUnits="userSpaceOnUse"
       id="radialGradient2467"
       xlink:href="#linearGradient3484"
       inkscape:collect="always" />
    <radialGradient
       cx="3"
       cy="5.01718"
       r="21"
       fx="3"
       fy="5.01718"
       id="radialGradient2545"
       xlink:href="#linearGradient3484"
       gradientUnits="userSpaceOnUse"
       gradientTransform="matrix(-1.274898e-8,1.7142916,-2.159331,-1.4599595e-8,12.809361,2.8570011)" />
    <linearGradient
       x1="62.988873"
       y1="13.182598"
       x2="62.988873"
       y2="16.19013"
       id="linearGradient2543"
       xlink:href="#linearGradient6404"
       gradientUnits="userSpaceOnUse"
       gradientTransform="translate(-50.940898,0)" />
    <linearGradient
       x1="82.453476"
       y1="45.114193"
       x2="65.340263"
       y2="15.943953"
       id="linearGradient2536"
       xlink:href="#linearGradient3390-178-986-453"
       gradientUnits="userSpaceOnUse"
       gradientTransform="translate(-53.765393,-0.1141929)" />
    <radialGradient
       cx="63.969177"
       cy="14.113381"
       r="23.097054"
       fx="63.969177"
       fy="14.113381"
       id="radialGradient2534"
       xlink:href="#linearGradient7012-661-145-733-759-865-745-661-970-94"
       gradientUnits="userSpaceOnUse"
       gradientTransform="matrix(1.5646925,-9.5143002e-8,6.1772287e-8,1.015888,-86.212573,8.1461173)" />
    <linearGradient
       x1="22.934725"
       y1="49.629246"
       x2="22.809399"
       y2="36.657963"
       id="linearGradient2531"
       xlink:href="#linearGradient6129-963-697-142-998-580-273"
       gradientUnits="userSpaceOnUse"
       gradientTransform="matrix(1.1446925,0,0,0.9977536,-3.4661413,1.0988425)" />
    <radialGradient
       cx="7.2646537"
       cy="8.3021259"
       r="20.979567"
       fx="7.2646537"
       fy="8.3021259"
       id="radialGradient2528"
       xlink:href="#linearGradient6087-437-184-795-110-662-495"
       gradientUnits="userSpaceOnUse"
       gradientTransform="matrix(0,1.2079744,-1.6271642,0,26.371748,8.2664685)" />
    <linearGradient
       x1="11.566265"
       y1="22.292103"
       x2="15.214532"
       y2="33.95525"
       id="linearGradient2525"
       xlink:href="#linearGradient8265-821-176-38-919-66-249"
       gradientUnits="userSpaceOnUse" />
    <linearGradient
       id="linearGradient3578">
      <stop
         id="stop3580"
         style="stop-color:white;stop-opacity:0.27450982"
         offset="0" />
      <stop
         id="stop3582"
         style="stop-color:white;stop-opacity:0.07843138"
         offset="1" />
    </linearGradient>
    <linearGradient
       id="linearGradient3572">
      <stop
         id="stop3574"
         style="stop-color:white;stop-opacity:0.40000001"
         offset="0" />
      <stop
         id="stop3576"
         style="stop-color:white;stop-opacity:0"
         offset="1" />
    </linearGradient>
    <linearGradient
       id="linearGradient3566">
      <stop
         id="stop3568"
         style="stop-color:#0a0a0a;stop-opacity:0.498"
         offset="0" />
      <stop
         id="stop3570"
         style="stop-color:#0a0a0a;stop-opacity:0"
         offset="1" />
    </linearGradient>
    <linearGradient
       id="linearGradient7012-661-145-733-759-865-745-661-970-94">
      <stop
         id="stop3618"
         style="stop-color:#edd563;stop-opacity:1"
         offset="0" />
      <stop
         id="stop3620"
         style="stop-color:#e08223;stop-opacity:1"
         offset="1" />
    </linearGradient>
    <linearGradient
       id="linearGradient3390-178-986-453">
      <stop
         id="stop3624"
         style="stop-color:#bb5e12;stop-opacity:1"
         offset="0" />
      <stop
         id="stop3626"
         style="stop-color:#cd8033;stop-opacity:1"
         offset="1" />
    </linearGradient>
    <linearGradient
       x1="302.85715"
       y1="366.64789"
       x2="302.85715"
       y2="609.50507"
       id="linearGradient3558"
       xlink:href="#linearGradient5048-585"
       gradientUnits="userSpaceOnUse"
       gradientTransform="matrix(0.08284024,0,0,0.03705882,-5.9408285,25.412461)" />
    <linearGradient
       id="linearGradient3550">
      <stop
         id="stop3552"
         style="stop-color:black;stop-opacity:0"
         offset="0" />
      <stop
         id="stop3554"
         style="stop-color:black;stop-opacity:1"
         offset="0.5" />
      <stop
         id="stop3556"
         style="stop-color:black;stop-opacity:0"
         offset="1" />
    </linearGradient>
    <radialGradient
       cx="605.71429"
       cy="486.64789"
       r="117.14286"
       fx="605.71429"
       fy="486.64789"
       id="radialGradient3548"
       xlink:href="#linearGradient5060-179"
       gradientUnits="userSpaceOnUse"
       gradientTransform="matrix(0.03212956,0,0,0.03705882,24.636785,25.412461)" />
    <linearGradient
       id="linearGradient3542">
      <stop
         id="stop3544"
         style="stop-color:black;stop-opacity:1"
         offset="0" />
      <stop
         id="stop3546"
         style="stop-color:black;stop-opacity:0"
         offset="1" />
    </linearGradient>
    <radialGradient
       cx="605.71429"
       cy="486.64789"
       r="117.14286"
       fx="605.71429"
       fy="486.64789"
       id="radialGradient3540"
       xlink:href="#linearGradient5060-820"
       gradientUnits="userSpaceOnUse"
       gradientTransform="matrix(-0.03212956,0,0,0.03705882,23.363215,25.412461)" />
    <linearGradient
       id="linearGradient3534">
      <stop
         id="stop3536"
         style="stop-color:black;stop-opacity:1"
         offset="0" />
      <stop
         id="stop3538"
         style="stop-color:black;stop-opacity:0"
         offset="1" />
    </linearGradient>
    <linearGradient
       id="linearGradient3528">
      <stop
         id="stop3530"
         style="stop-color:#f9f9f9;stop-opacity:1"
         offset="0" />
      <stop
         id="stop3532"
         style="stop-color:#c9c9c9;stop-opacity:1"
         offset="1" />
    </linearGradient>
    <linearGradient
       id="linearGradient3522">
      <stop
         id="stop3524"
         style="stop-color:#bdbdbd;stop-opacity:1"
         offset="0" />
      <stop
         id="stop3526"
         style="stop-color:#d0d0d0;stop-opacity:1"
         offset="1" />
    </linearGradient>
    <inkscape:perspective
       sodipodi:type="inkscape:persp3d"
       inkscape:vp_x="0 : 24 : 1"
       inkscape:vp_y="0 : 1000 : 0"
       inkscape:vp_z="48 : 24 : 1"
       inkscape:persp3d-origin="24 : 16 : 1"
       id="perspective3519" />
    <linearGradient
       y2="609.50507"
       x2="302.85715"
       y1="366.64789"
       x1="302.85715"
       gradientTransform="matrix(8.2840237e-2,0,0,3.7058823e-2,-5.9408285,25.412461)"
       gradientUnits="userSpaceOnUse"
       id="linearGradient3626"
       xlink:href="#linearGradient5048-585"
       inkscape:collect="always" />
    <radialGradient
       r="117.14286"
       fy="486.64789"
       fx="605.71429"
       cy="486.64789"
       cx="605.71429"
       gradientTransform="matrix(3.2129565e-2,0,0,3.7058823e-2,24.636785,25.412461)"
       gradientUnits="userSpaceOnUse"
       id="radialGradient3628"
       xlink:href="#linearGradient5060-179"
       inkscape:collect="always" />
    <radialGradient
       r="117.14286"
       fy="486.64789"
       fx="605.71429"
       cy="486.64789"
       cx="605.71429"
       gradientTransform="matrix(-3.2129558e-2,0,0,3.7058823e-2,23.363215,25.412461)"
       gradientUnits="userSpaceOnUse"
       id="radialGradient3630"
       xlink:href="#linearGradient5060-820"
       inkscape:collect="always" />
    <linearGradient
       gradientTransform="translate(-8.7933564e-2,-3.5000005)"
       y2="33.95525"
       x2="15.214532"
       y1="22.292103"
       x1="11.566265"
       gradientUnits="userSpaceOnUse"
       id="linearGradient3648"
       xlink:href="#linearGradient8265-821-176-38-919-66-249"
       inkscape:collect="always" />
    <radialGradient
       r="20.979567"
       fy="8.3021259"
       fx="7.2646537"
       cy="8.3021259"
       cx="7.2646537"
       gradientTransform="matrix(0,1.2079744,-1.6271642,0,26.283814,4.766468)"
       gradientUnits="userSpaceOnUse"
       id="radialGradient3651"
       xlink:href="#linearGradient6087-437-184-795-110-662-495"
       inkscape:collect="always" />
    <linearGradient
       y2="36.657963"
       x2="22.809399"
       y1="49.629246"
       x1="22.934725"
       gradientTransform="matrix(1.1446925,0,0,0.9977536,-3.5540749,-2.401158)"
       gradientUnits="userSpaceOnUse"
       id="linearGradient3654"
       xlink:href="#linearGradient6129-963-697-142-998-580-273"
       inkscape:collect="always" />
    <radialGradient
       r="23.097054"
       fy="14.113381"
       fx="63.969177"
       cy="14.113381"
       cx="63.969177"
       gradientTransform="matrix(1.5646925,-9.5143002e-8,6.1772287e-8,1.015888,-86.300507,4.6461168)"
       gradientUnits="userSpaceOnUse"
       id="radialGradient3657"
       xlink:href="#linearGradient7012-661-145-733-759-865-745-661-970-94"
       inkscape:collect="always" />
    <linearGradient
       y2="15.943953"
       x2="65.340263"
       y1="45.114193"
       x1="82.453476"
       gradientTransform="translate(-53.853327,-3.6141934)"
       gradientUnits="userSpaceOnUse"
       id="linearGradient3659"
       xlink:href="#linearGradient3390-178-986-453"
       inkscape:collect="always" />
    <linearGradient
       y2="16.19013"
       x2="62.988873"
       y1="13.182598"
       x1="62.988873"
       gradientTransform="translate(-51.028832,-3.5000005)"
       gradientUnits="userSpaceOnUse"
       id="linearGradient3666"
       xlink:href="#linearGradient6404"
       inkscape:collect="always" />
    <radialGradient
       r="21"
       fy="5.01718"
       fx="3"
       cy="5.01718"
       cx="3"
       gradientTransform="matrix(-1.274898e-8,1.7142916,-2.159331,-1.4599595e-8,12.721427,-0.6429994)"
       gradientUnits="userSpaceOnUse"
       id="radialGradient3668"
       xlink:href="#linearGradient3484"
       inkscape:collect="always" />
  </defs>
  <path
     d="M 5.4999991,8.4999995 C 4.8097281,8.5076711 4.4999991,8.8421456 4.4999991,9.4999995 L 4.4999991,11.506647 C 2.5161375,11.506647 2.5000001,11.647147 2.5000001,12.506647 C 2.5344111,22.796692 2.5000001,23.376785 2.5000001,24.25043 C 3.9354707,24.25043 45.499998,20.550698 45.499998,18.958166 L 45.499998,12.506647 C 45.499998,11.848794 44.945794,11.498976 44.255519,11.506647 L 21.499999,11.506647 L 21.499999,9.4999995 C 21.499999,8.8421456 21.19027,8.492328 20.499999,8.4999995 L 5.4999991,8.4999995 z"
     id="path3468"
     style="fill:url(#linearGradient2465);fill-opacity:1;stroke:url(#radialGradient2467);stroke-width:1.00000012;stroke-linecap:round;stroke-linejoin:round;stroke-miterlimit:4;stroke-dasharray:none;stroke-opacity:1;display:inline" />
  <g
     transform="matrix(0.9583333,0,0,0.6666667,1.0000008,15)"
     id="g7591"
     style="opacity:0.4">
    <rect
       width="40"
       height="9"
       x="4"
       y="39"
       id="rect4173"
       style="opacity:1;fill:url(#linearGradient7596-975);fill-opacity:1;fill-rule:nonzero;stroke:none;stroke-width:1;stroke-linecap:round;stroke-linejoin:miter;marker:none;marker-start:none;marker-mid:none;marker-end:none;stroke-miterlimit:4;stroke-dasharray:none;stroke-dashoffset:0;stroke-opacity:1;visibility:visible;display:inline;overflow:visible" />
    <path
       d="M 44,39.00031 C 44,39.00031 44,47.999814 44,47.999814 C 45.654593,48.016755 48.000001,45.983481 48,43.499483 C 48,41.015484 46.153598,39.00031 44,39.00031 z"
       id="path5058"
       style="opacity:1;fill:url(#radialGradient7598-526);fill-opacity:1;fill-rule:nonzero;stroke:none;stroke-width:1;stroke-linecap:round;stroke-linejoin:miter;marker:none;marker-start:none;marker-mid:none;marker-end:none;stroke-miterlimit:4;stroke-dasharray:none;stroke-dashoffset:0;stroke-opacity:1;visibility:visible;display:inline;overflow:visible" />
    <path
       d="M 4,39.00031 C 4,39.00031 4,47.999814 4,47.999814 C 2.3454068,48.016755 0,45.983481 0,43.499483 C 0,41.015484 1.8464008,39.00031 4,39.00031 z"
       id="path5018"
       style="opacity:1;fill:url(#radialGradient7600-312);fill-opacity:1;fill-rule:nonzero;stroke:none;stroke-width:1;stroke-linecap:round;stroke-linejoin:miter;marker:none;marker-start:none;marker-mid:none;marker-end:none;stroke-miterlimit:4;stroke-dasharray:none;stroke-dashoffset:0;stroke-opacity:1;visibility:visible;display:inline;overflow:visible" />
  </g>
  <path
     d="M 2.1628556,16.525193 C 1.0901486,16.648887 1.6630856,17.927311 1.5775586,18.646205 C 1.9700906,27.116295 2.3664906,35.41566 2.7566056,43.885807 C 3.0984416,44.8515 4.3510406,44.356967 5.1447226,44.479557 C 18.338267,44.479557 31.531812,44.479557 44.725358,44.479557 C 45.814738,44.372906 45.361818,43.071876 45.515058,42.327295 C 45.907598,33.857205 46.303998,25.55784 46.694108,17.087693 C 46.442938,16.133404 45.174598,16.663679 44.430985,16.525193 C 30.341611,16.525193 16.252234,16.525193 2.1628556,16.525193 z"
     id="path3388"
     style="fill:url(#radialGradient2456);fill-opacity:1;stroke:url(#linearGradient2458);stroke-width:1;stroke-linecap:round;stroke-linejoin:round;stroke-miterlimit:4;stroke-dashoffset:0;stroke-opacity:1" />
  <path
     d="M 2.0582428,16.065146 L 45.954718,16.065549 C 46.588878,16.065549 46.999873,16.51016 46.999873,17.062916 L 45.755637,44.002247 C 45.755637,44.555002 45.245105,45 44.610947,45 L 3.4020122,45 C 2.7678523,45 2.2573195,44.555002 2.2573195,44.002247 L 1.0130886,17.0629 C 1.0130886,16.510143 1.4240829,16.065146 2.0582428,16.065146 z"
     id="path6127"
     style="opacity:0.40000000000000002;fill:url(#linearGradient2453);fill-opacity:1.0;stroke:none;stroke-width:1;stroke-linecap:round;stroke-linejoin:round;stroke-miterlimit:4;stroke-dashoffset:0;stroke-opacity:1" />
  <path
     d="M 46.5,17.5 C 32.96875,17.5 16.03125,17.5 2.5,17.5 C 2.8854167,25.677083 3.2708333,33.854167 3.65625,42.03125"
     id="path2435"
     style="fill:none;fill-rule:evenodd;stroke:url(#radialGradient2450);stroke-width:0.99999976;stroke-linecap:round;stroke-linejoin:round;stroke-miterlimit:4;stroke-dasharray:none;stroke-opacity:1" />
  <path
     d="M 45.75,16 C 31.20041,16.073348 16.645416,15.978851 2.09375,16 C 0.28698984,16.411117 1.2593433,18.46661 1.1213236,19.771525 C 1.3433531,23.934872 1.4443903,28.116464 1.7417851,32.268407 C 16.742298,29.905609 31.66833,27.661153 46.40625,25.21875 C 47.187241,22.632172 47.193628,19.548156 47.063607,16.789526 C 46.834471,16.284964 46.276599,15.988682 45.75,16 z"
     id="path3455"
     style="fill:url(#linearGradient2447);fill-opacity:1;stroke:none;stroke-width:1;stroke-linecap:round;stroke-linejoin:round;stroke-miterlimit:4;stroke-dashoffset:0;stroke-opacity:1" />
  <g
     style="opacity:0.4"
     id="g3595"
     transform="matrix(0.9583333,0,0,0.6666667,0.9120672,11.5)">
    <rect
       style="fill:url(#linearGradient3626);fill-opacity:1;fill-rule:nonzero;stroke:none;stroke-width:1;marker:none;visibility:visible;display:inline;overflow:visible"
       id="rect3597"
       y="39"
       x="4"
       height="9"
       width="40" />
    <path
       style="fill:url(#radialGradient3628);fill-opacity:1;fill-rule:nonzero;stroke:none;stroke-width:1;marker:none;visibility:visible;display:inline;overflow:visible"
       id="path3599"
       d="M 44,39.00031 C 44,39.00031 44,47.999814 44,47.999814 C 45.654593,48.016754 48.000001,45.983481 48,43.499483 C 48,41.015484 46.153598,39.00031 44,39.00031 z" />
    <path
       style="fill:url(#radialGradient3630);fill-opacity:1;fill-rule:nonzero;stroke:none;stroke-width:1;marker:none;visibility:visible;display:inline;overflow:visible"
       id="path3601"
       d="M 4,39.00031 C 4,39.00031 4,47.999814 4,47.999814 C 2.3454068,48.016755 0,45.983481 0,43.499483 C 0,41.015484 1.8464008,39.00031 4,39.00031 z" />
  </g>
  <path
     style="fill:none;stroke:url(#radialGradient3651);stroke-width:0.99999976;stroke-linecap:round;stroke-linejoin:round;stroke-miterlimit:4;stroke-dasharray:none;stroke-opacity:1"
     id="path3607"
     d="M 46.412066,13.999999 C 32.880816,13.999999 15.943316,13.999999 2.4120664,13.999999 C 2.7974831,22.177083 3.1828997,30.354166 3.5683164,38.53125" />
  <g
     style="opacity:0.4;fill:#ffffff"
     id="g3415"
     transform="translate(-6.5061e-3,1.4671405)">
    <path
       style="fill:#ffffff;fill-opacity:1;stroke:none;display:inline;enable-background:new"
       id="path3417"
       d="M 17.800352,30.032573 C 17.800542,31.137248 16.905079,32.032865 15.800403,32.032865 C 14.695728,32.032865 13.800265,31.137248 13.800454,30.032573 C 13.800265,28.927898 14.695728,28.032281 15.800403,28.032281 C 16.905079,28.032281 17.800542,28.927898 17.800352,30.032573 L 17.800352,30.032573 z" />
    <path
       style="fill:#ffffff;fill-opacity:1;stroke:none;display:inline;enable-background:new"
       id="path3419"
       d="M 32.800345,39.032573 C 32.800534,40.137245 31.905074,41.032859 30.800402,41.032859 C 29.695731,41.032859 28.80027,40.137245 28.80046,39.032573 C 28.80027,37.927901 29.695731,37.032287 30.800402,37.032287 C 31.905074,37.032287 32.800534,37.927901 32.800345,39.032573 L 32.800345,39.032573 z" />
    <path
       style="fill:#ffffff;fill-opacity:1;stroke:none;display:inline;enable-background:new"
       id="path3421"
       d="M 32.800468,22.032573 C 32.800657,23.137312 31.905142,24.03298 30.800404,24.03298 C 29.695665,24.03298 28.80015,23.137312 28.800339,22.032573 C 28.80015,20.927834 29.695665,20.032166 30.800404,20.032166 C 31.905142,20.032166 32.800657,20.927834 32.800468,22.032573 L 32.800468,22.032573 z" />
    <path
       style="fill:#ffffff;fill-opacity:1;stroke:none;display:inline;enable-background:new"
       id="path3423"
       d="M 25.800403,22.032573 C 24.643581,22.032573 23.556993,22.271228 22.550403,22.688823 L 24.675403,26.188823 C 25.036978,26.095063 25.40964,26.032573 25.800403,26.032573 C 27.752638,26.032573 29.398326,27.292857 30.019153,29.032573 L 34.144153,29.032573 C 33.91515,27.744099 33.418342,26.550219 32.675403,25.532573 C 32.114324,25.832575 31.480719,26.032573 30.800403,26.032573 C 28.613402,26.032573 26.833966,24.274131 26.800403,22.095073 C 26.473422,22.056823 26.1376,22.032573 25.800403,22.032573 L 25.800403,22.032573 L 25.800403,22.032573 z" />
    <path
       style="fill:#ffffff;fill-opacity:1;stroke:none;display:inline;enable-background:new"
       id="path3425"
       d="M 20.800403,23.657573 C 19.680775,24.472769 18.754914,25.557351 18.144153,26.813823 C 19.145658,27.541007 19.800403,28.70114 19.800403,30.032573 C 19.800403,31.501318 19.012517,32.774503 17.831653,33.470073 C 18.41709,35.056308 19.459287,36.426821 20.800403,37.407573 L 22.894153,33.938823 C 21.928194,33.113249 21.300403,31.901889 21.300403,30.532573 C 21.300403,29.147591 21.940251,27.920764 22.925403,27.095073 L 20.800403,23.657573 L 20.800403,23.657573 z" />
    <path
       style="fill:#ffffff;fill-opacity:1;stroke:none;display:inline;enable-background:new"
       id="path3427"
       d="M 30.269153,31.032573 C 30.095664,32.410845 29.293841,33.703002 28.084781,34.405766 C 27.073429,35.013422 25.813493,35.195596 24.675403,34.876323 C 23.977486,36.04299 23.27957,37.209656 22.581653,38.376323 C 23.906647,38.929386 25.373563,39.152475 26.800403,38.970073 C 26.793103,37.107981 28.26162,35.386824 30.099171,35.093931 C 30.976168,34.926408 31.897188,35.104361 32.675403,35.532573 C 33.513311,34.373195 34.072553,32.991179 34.206653,31.564787 C 34.183873,31.399824 34.250943,31.145018 34.175643,31.032573 C 32.873479,31.032573 31.571316,31.032573 30.269152,31.032573 L 30.269153,31.032573 L 30.269153,31.032573 z" />
  </g>
  <g
     id="g3442"
     transform="translate(-6.5061e-3,0.4671405)">
    <path
       style="fill:#646464;fill-opacity:1;stroke:none;display:inline;enable-background:new"
       id="path2313"
       d="M 17.800352,30.032573 C 17.800542,31.137248 16.905079,32.032865 15.800403,32.032865 C 14.695728,32.032865 13.800265,31.137248 13.800454,30.032573 C 13.800265,28.927898 14.695728,28.032281 15.800403,28.032281 C 16.905079,28.032281 17.800542,28.927898 17.800352,30.032573 L 17.800352,30.032573 z" />
    <path
       style="fill:#646464;fill-opacity:1;stroke:none;display:inline;enable-background:new"
       id="path2317"
       d="M 32.800345,39.032573 C 32.800534,40.137245 31.905074,41.032859 30.800402,41.032859 C 29.695731,41.032859 28.80027,40.137245 28.80046,39.032573 C 28.80027,37.927901 29.695731,37.032287 30.800402,37.032287 C 31.905074,37.032287 32.800534,37.927901 32.800345,39.032573 L 32.800345,39.032573 z" />
    <path
       style="fill:#646464;fill-opacity:1;stroke:none;display:inline;enable-background:new"
       id="path2315"
       d="M 32.800468,22.032573 C 32.800657,23.137312 31.905142,24.03298 30.800404,24.03298 C 29.695665,24.03298 28.80015,23.137312 28.800339,22.032573 C 28.80015,20.927834 29.695665,20.032166 30.800404,20.032166 C 31.905142,20.032166 32.800657,20.927834 32.800468,22.032573 L 32.800468,22.032573 z" />
    <path
       style="fill:#646464;fill-opacity:1;stroke:none;display:inline;enable-background:new"
       id="path6698"
       d="M 25.800403,22.032573 C 24.643581,22.032573 23.556993,22.271228 22.550403,22.688823 L 24.675403,26.188823 C 25.036978,26.095063 25.40964,26.032573 25.800403,26.032573 C 27.752638,26.032573 29.398326,27.292857 30.019153,29.032573 L 34.144153,29.032573 C 33.91515,27.744099 33.418342,26.550219 32.675403,25.532573 C 32.114324,25.832575 31.480719,26.032573 30.800403,26.032573 C 28.613402,26.032573 26.833966,24.274131 26.800403,22.095073 C 26.473422,22.056823 26.1376,22.032573 25.800403,22.032573 L 25.800403,22.032573 L 25.800403,22.032573 z" />
    <path
       style="fill:#646464;fill-opacity:1;stroke:none;display:inline;enable-background:new"
       id="path6696"
       d="M 20.800403,23.657573 C 19.680775,24.472769 18.754914,25.557351 18.144153,26.813823 C 19.145658,27.541007 19.800403,28.70114 19.800403,30.032573 C 19.800403,31.501318 19.012517,32.774503 17.831653,33.470073 C 18.41709,35.056308 19.459287,36.426821 20.800403,37.407573 L 22.894153,33.938823 C 21.928194,33.113249 21.300403,31.901889 21.300403,30.532573 C 21.300403,29.147591 21.940251,27.920764 22.925403,27.095073 L 20.800403,23.657573 L 20.800403,23.657573 z" />
    <path
       style="fill:#646464;fill-opacity:1;stroke:none;display:inline;enable-background:new"
       id="path5773"
       d="M 30.269153,31.032573 C 30.095664,32.410845 29.293841,33.703002 28.084781,34.405766 C 27.073429,35.013422 25.813493,35.195596 24.675403,34.876323 C 23.977486,36.04299 23.27957,37.209656 22.581653,38.376323 C 23.906647,38.929386 25.373563,39.152475 26.800403,38.970073 C 26.793103,37.107981 28.26162,35.386824 30.099171,35.093931 C 30.976168,34.926408 31.897188,35.104361 32.675403,35.532573 C 33.513311,34.373195 34.072553,32.991179 34.206653,31.564787 C 34.183873,31.399824 34.250943,31.145018 34.175643,31.032573 C 32.873479,31.032573 31.571316,31.032573 30.269152,31.032573 L 30.269153,31.032573 L 30.269153,31.032573 z" />
  </g>
</svg>
