<?xml version="1.0" encoding="UTF-8" standalone="no"?>
<!-- Created with Inkscape (http://www.inkscape.org/) -->

<svg
   xmlns:dc="http://purl.org/dc/elements/1.1/"
   xmlns:cc="http://creativecommons.org/ns#"
   xmlns:rdf="http://www.w3.org/1999/02/22-rdf-syntax-ns#"
   xmlns:svg="http://www.w3.org/2000/svg"
   xmlns="http://www.w3.org/2000/svg"
   xmlns:sodipodi="http://sodipodi.sourceforge.net/DTD/sodipodi-0.dtd"
   xmlns:inkscape="http://www.inkscape.org/namespaces/inkscape"
   inkscape:export-ydpi="7.1999998"
   inkscape:export-xdpi="7.1999998"
   inkscape:export-filename="/home/svetli/Плот/LFU_menu_icons/Y-symbol_2.png"
   inkscape:output_extension="org.inkscape.output.svg.inkscape"
   sodipodi:docname="start-here.svg"
   inkscape:version="0.48.1 r9760"
   sodipodi:version="0.32"
   id="svg2"
   height="48"
   width="48"
   version="1.0">
  <metadata
     id="metadata6">
    <rdf:RDF>
      <cc:Work
         rdf:about="">
        <dc:format>image/svg+xml</dc:format>
        <dc:type
           rdf:resource="http://purl.org/dc/dcmitype/StillImage" />
      </cc:Work>
    </rdf:RDF>
  </metadata>
  <sodipodi:namedview
     inkscape:window-height="793"
     inkscape:window-width="1272"
     inkscape:pageshadow="2"
     inkscape:pageopacity="0.0"
     guidetolerance="10.0"
     gridtolerance="10.0"
     objecttolerance="10.0"
     borderopacity="1.0"
     bordercolor="#666666"
     pagecolor="#ffffff"
     id="base"
     showgrid="true"
     inkscape:zoom="8.8940775"
     inkscape:cx="1.3468773"
     inkscape:cy="27.514847"
     inkscape:window-x="-4"
     inkscape:window-y="29"
     inkscape:current-layer="svg2"
     borderlayer="false"
     inkscape:showpageshadow="true"
     showborder="true">
    <inkscape:grid
       type="xygrid"
       id="grid3769" />
  </sodipodi:namedview>
  <defs
     id="defs7" />
  <g
     id="g2559"
     transform="matrix(1.0426669,0,0,1.0426669,8.491366,36.959671)">
    <g
       id="g3765"
       transform="matrix(0.94895009,0,0,0.94895009,1.2171315,-0.37605257)">
      <path
         inkscape:connector-curvature="0"
         id="path2995"
         d="M 17.181525,9.5416435 C 16.701564,8.5927879 16.437547,7.0644347 15.827061,1.7009061 c -0.324682,-2.8525312 -0.443383,-3.536666 -0.680093,-3.9196703 -0.50568,-0.8182051 -0.702829,-0.8591789 -4.134121,-0.8591789 -3.0573002,0 -3.0848124,-0.00255 -3.2822209,-0.3038297 C 7.5370809,-3.6771609 0.02373605,-32.861491 0.02373605,-33.3179 c 0,-0.125664 0.09379484,-0.362391 0.20843466,-0.52606 0.20564657,-0.293604 0.25185363,-0.297583 3.45567259,-0.297583 3.3202846,0 3.4066197,0.01218 3.7955467,0.53558 0.082083,0.110464 1.2742402,4.90055 2.649237,10.644639 1.374999,5.744088 2.603333,10.623936 2.729631,10.844109 0.126297,0.220173 0.39231,0.49131 0.591138,0.602527 0.321576,0.179877 0.400743,0.180028 0.716708,0.0014 0.738671,-0.417668 0.866119,-0.764782 1.063637,-2.896892 0.620516,-6.698154 1.508474,-11.575797 2.873422,-15.783988 0.734065,-2.263148 1.383441,-3.184629 2.603917,-3.69502 0.221557,-0.09265 1.272923,-0.201649 2.348827,-0.243502 l 1.947736,-0.07577 1.239416,-0.644204 c 1.549972,-0.805621 1.843689,-0.798237 2.268267,0.05702 0.285052,0.574203 0.296182,0.68302 0.157472,1.53979 -0.08209,0.507057 -0.197839,1.738157 -0.257215,2.735776 -0.127002,2.133782 -0.3662,2.755892 -1.449096,3.768812 -1.088623,1.01828 -1.97473,1.185363 -4.749471,0.895547 -1.435092,-0.149893 -1.440395,-0.149371 -1.877957,0.184374 -0.649419,0.495335 -1.097901,1.440258 -1.568119,3.303933 -1.022559,4.05282 -1.415823,7.685198 -1.298351,11.992233 0.156786,5.7485036 0.868711,9.46074682 2.507671,13.0759211 0.784761,1.731002 1.301864,3.2908177 1.53593,4.6330446 0.282699,1.6211307 0.262566,1.8631674 -0.192877,2.3186098 l -0.391384,0.3913845 -1.748212,0 -1.748211,0 -0.253981,-0.5021061 z"
         style="fill:#333333;stroke:#eae3d0;stroke-opacity:1" />
      <path
         style="fill:#333333"
         d="M 17.181525,9.5416435 C 16.701564,8.5927879 16.437547,7.0644347 15.827061,1.7009061 c -0.324682,-2.8525312 -0.443383,-3.536666 -0.680093,-3.9196703 -0.50568,-0.8182051 -0.702829,-0.8591789 -4.134121,-0.8591789 -3.0573002,0 -3.0848124,-0.00255 -3.2822209,-0.3038297 C 7.5370809,-3.6771609 0.02373605,-32.861491 0.02373605,-33.3179 c 0,-0.125664 0.09379484,-0.362391 0.20843466,-0.52606 0.20564657,-0.293604 0.25185363,-0.297583 3.45567259,-0.297583 3.3202846,0 3.4066197,0.01218 3.7955467,0.53558 0.082083,0.110464 1.2742402,4.90055 2.649237,10.644639 1.374999,5.744088 2.603333,10.623936 2.729631,10.844109 0.126297,0.220173 0.39231,0.49131 0.591138,0.602527 0.321576,0.179877 0.400743,0.180028 0.716708,0.0014 0.738671,-0.417668 0.866119,-0.764782 1.063637,-2.896892 0.620516,-6.698154 1.508474,-11.575797 2.873422,-15.783988 0.734065,-2.263148 1.383441,-3.184629 2.603917,-3.69502 0.221557,-0.09265 1.272923,-0.201649 2.348827,-0.243502 l 1.947736,-0.07577 1.239416,-0.644204 c 1.549972,-0.805621 1.843689,-0.798237 2.268267,0.05702 0.285052,0.574203 0.296182,0.68302 0.157472,1.53979 -0.08209,0.507057 -0.197839,1.738157 -0.257215,2.735776 -0.127002,2.133782 -0.3662,2.755892 -1.449096,3.768812 -1.088623,1.01828 -1.97473,1.185363 -4.749471,0.895547 -1.435092,-0.149893 -1.440395,-0.149371 -1.877957,0.184374 -0.649419,0.495335 -1.097901,1.440258 -1.568119,3.303933 -1.022559,4.05282 -1.415823,7.685198 -1.298351,11.992233 0.156786,5.7485036 0.868711,9.46074682 2.507671,13.0759211 0.784761,1.731002 1.301864,3.2908177 1.53593,4.6330446 0.282699,1.6211307 0.262566,1.8631674 -0.192877,2.3186098 l -0.391384,0.3913845 -1.748212,0 -1.748211,0 -0.253981,-0.5021061 z"
         id="path2537"
         inkscape:connector-curvature="0" />
    </g>
  </g>
</svg>
