<?xml version="1.0" encoding="UTF-8" standalone="no"?>
<!-- Created with Inkscape (http://www.inkscape.org/) -->

<svg
   xmlns:dc="http://purl.org/dc/elements/1.1/"
   xmlns:cc="http://creativecommons.org/ns#"
   xmlns:rdf="http://www.w3.org/1999/02/22-rdf-syntax-ns#"
   xmlns:svg="http://www.w3.org/2000/svg"
   xmlns="http://www.w3.org/2000/svg"
   xmlns:xlink="http://www.w3.org/1999/xlink"
   xmlns:sodipodi="http://sodipodi.sourceforge.net/DTD/sodipodi-0.dtd"
   xmlns:inkscape="http://www.inkscape.org/namespaces/inkscape"
   width="16"
   height="16"
   id="svg7666"
   version="1.1"
   inkscape:version="0.48.1 r9760"
   sodipodi:docname="Nuevo documento 56">
  <defs
     id="defs7668">
    <radialGradient
       inkscape:collect="always"
       xlink:href="#linearGradient4982"
       id="radialGradient6501"
       gradientUnits="userSpaceOnUse"
       gradientTransform="matrix(-5.736362e-7,1.1540518,-1.4078182,-6.9977401e-7,198.8003,-149.70168)"
       cx="151.03619"
       cy="30.460735"
       fx="151.03619"
       fy="30.460739"
       r="15.172464" />
    <linearGradient
       id="linearGradient4982">
      <stop
         style="stop-color:#efb0b0;stop-opacity:1;"
         offset="0"
         id="stop4984" />
      <stop
         id="stop4992"
         offset="0.51919377"
         style="stop-color:#e16b6b;stop-opacity:1;" />
      <stop
         id="stop4990"
         offset="0.65888566"
         style="stop-color:#d63232;stop-opacity:1;" />
      <stop
         style="stop-color:#b62424;stop-opacity:1;"
         offset="1"
         id="stop4986" />
    </linearGradient>
    <radialGradient
       inkscape:collect="always"
       xlink:href="#linearGradient5002"
       id="radialGradient6503"
       gradientUnits="userSpaceOnUse"
       gradientTransform="matrix(-1.7748756e-7,0.52875408,-0.63692471,-2.1926833e-7,164.64817,41.241269)"
       cx="159.45512"
       cy="35.020535"
       fx="159.45512"
       fy="35.020535"
       r="12.03125" />
    <linearGradient
       id="linearGradient5002">
      <stop
         id="stop5004"
         offset="0"
         style="stop-color:#505050;stop-opacity:1;" />
      <stop
         style="stop-color:#3c3c3c;stop-opacity:1;"
         offset="0.45482138"
         id="stop5006" />
      <stop
         style="stop-color:#282828;stop-opacity:1;"
         offset="0.57309669"
         id="stop5008" />
      <stop
         id="stop5010"
         offset="1"
         style="stop-color:#141414;stop-opacity:1;" />
    </linearGradient>
    <linearGradient
       inkscape:collect="always"
       xlink:href="#linearGradient5274"
       id="linearGradient6505"
       gradientUnits="userSpaceOnUse"
       x1="155.64128"
       y1="13.960561"
       x2="155.64128"
       y2="46.348206" />
    <linearGradient
       inkscape:collect="always"
       id="linearGradient5274">
      <stop
         style="stop-color:#ffffff;stop-opacity:0.4"
         offset="0"
         id="stop5276" />
      <stop
         style="stop-color:#ffffff;stop-opacity:0;"
         offset="1"
         id="stop5278" />
    </linearGradient>
    <radialGradient
       inkscape:collect="always"
       xlink:href="#linearGradient6073"
       id="radialGradient6509"
       gradientUnits="userSpaceOnUse"
       gradientTransform="matrix(-0.16968601,0.17693012,-0.17360983,-0.16956038,172.96128,97.683635)"
       cx="145.92287"
       cy="32.70628"
       fx="145.92287"
       fy="32.70628"
       r="12.03125" />
    <linearGradient
       inkscape:collect="always"
       id="linearGradient6073">
      <stop
         style="stop-color:#ffffff;stop-opacity:1;"
         offset="0"
         id="stop6075" />
      <stop
         style="stop-color:#ffffff;stop-opacity:0;"
         offset="1"
         id="stop6077" />
    </linearGradient>
  </defs>
  <sodipodi:namedview
     id="base"
     pagecolor="#ffffff"
     bordercolor="#666666"
     borderopacity="1.0"
     inkscape:pageopacity="0.0"
     inkscape:pageshadow="2"
     inkscape:zoom="31.490873"
     inkscape:cx="8"
     inkscape:cy="7.9950229"
     inkscape:document-units="px"
     inkscape:current-layer="layer1"
     showgrid="false"
     fit-margin-top="0"
     fit-margin-left="0"
     fit-margin-right="0"
     fit-margin-bottom="0" />
  <metadata
     id="metadata7671">
    <rdf:RDF>
      <cc:Work
         rdf:about="">
        <dc:format>image/svg+xml</dc:format>
        <dc:type
           rdf:resource="http://purl.org/dc/dcmitype/StillImage" />
        <dc:title></dc:title>
      </cc:Work>
    </rdf:RDF>
  </metadata>
  <g
     inkscape:label="Capa 1"
     inkscape:groupmode="layer"
     id="layer1"
     transform="translate(-192,-241.50504)">
    <g
       style="display:inline;enable-background:new"
       id="g6486"
       transform="translate(57.50423,125.50504)">
      <path
         sodipodi:nodetypes="ccccccccccccccccc"
         inkscape:connector-curvature="0"
         id="path6420"
         d="m 139.70953,116.00265 c -0.13258,0.0377 -0.21376,0.20759 -0.21376,0.20759 l 0.27,1.37532 1.2268,0.32868 0.3825,-0.35464 -1.14805,-0.26814 -0.26999,-1.05527 c 0,0 -0.0339,-0.22938 -0.19126,-0.23354 0.5997,-0.002 0.45798,0 -0.0562,0 z m 5.51625,0 c -0.15742,0.004 -0.20251,0.23354 -0.20251,0.23354 l -0.25875,1.05527 -1.1732,0.26814 0.38249,0.35464 1.25197,-0.32868 0.26999,-1.37532 c 0,0 -0.10097,-0.21206 -0.26999,-0.20759 z"
         style="fill:#be9800;fill-opacity:1;stroke:none;display:inline;enable-background:new" />
      <path
         transform="matrix(0.36167815,0,0,0.41128866,85.097026,113.07254)"
         d="m 163.16487,14.924441 c 0,2.465185 -1.99842,4.463611 -4.46361,4.463611 -2.46518,0 -4.46361,-1.998426 -4.46361,-4.463611 0,-2.465184 1.99843,-4.463611 4.46361,-4.463611 2.46519,0 4.46361,1.998427 4.46361,4.463611 z"
         sodipodi:ry="4.4636111"
         sodipodi:rx="4.4636111"
         sodipodi:cy="14.924441"
         sodipodi:cx="158.70126"
         id="path6418"
         style="color:#000000;fill:#141414;fill-opacity:1;fill-rule:nonzero;stroke:#141414;stroke-width:2.59277892;stroke-opacity:1;marker:none;visibility:visible;display:inline;overflow:visible;enable-background:accumulate"
         sodipodi:type="arc" />
      <path
         id="path6426"
         d="m 137.04362,118.59123 c -0.22461,-0.007 -0.35875,0.35073 -0.35875,0.35073 l -0.056,2.36452 1.61802,0.55437 0.50449,-0.59961 -1.5059,-0.45256 0.056,-1.82146 c 0,0 -0.0487,-0.38895 -0.25785,-0.39599 z m 10.91559,0 c -0.20916,0.007 -0.25786,0.39599 -0.25786,0.39599 l 0.0673,1.82146 -1.51713,0.45256 0.50449,0.59961 1.61803,-0.55437 -0.056,-2.36452 c 0,0 -0.13416,-0.35828 -0.35877,-0.35073 z m -10.56443,5.49838 -2.5872,0.84852 0.0672,2.35322 c 0,0 0.12295,0.36959 0.34755,0.36203 0.20915,-0.007 0.26906,-0.40728 0.26906,-0.40728 l -0.0672,-1.82148 2.46388,-0.73539 z m 10.21327,0 -0.5045,0.59962 2.50634,0.73539 -0.0673,1.82148 c 0,0 0.0487,0.40027 0.25785,0.40728 0.22459,0.007 0.35877,-0.36203 0.35877,-0.36203 l 0.056,-2.35322 -2.60725,-0.84852 z m -9.36122,4.63856 -1.68053,0.55437 0.056,2.35322 c 0,0 0.13415,0.36958 0.35876,0.36204 0.20916,-0.007 0.25786,-0.4073 0.25786,-0.4073 l -0.056,-1.82147 1.56841,-0.44123 z m 8.50917,0 -0.50449,0.59963 1.61087,0.44123 -0.0672,1.82147 c 0,0 0.0487,0.40026 0.25785,0.4073 0.22461,0.007 0.35877,-0.36204 0.35877,-0.36204 l 0.056,-2.35322 -1.71178,-0.55437 z"
         style="fill:#594433;fill-opacity:1;stroke:none;display:inline;enable-background:new"
         inkscape:connector-curvature="0"
         sodipodi:nodetypes="cccccccccccccccccccccccccccccccccccccccccccccccccccc" />
      <path
         transform="matrix(0.35875349,0,0,0.36729939,86.496613,114.37957)"
         d="m 170.76628,30.348207 c 0,8.982058 -6.56909,16.263455 -14.67247,16.263455 -8.10338,0 -14.67246,-7.281397 -14.67246,-16.263455 0,-8.982057 6.56908,-16.263454 14.67246,-16.263454 8.10338,0 14.67247,7.281397 14.67247,16.263454 z"
         sodipodi:ry="16.263454"
         sodipodi:rx="14.672464"
         sodipodi:cy="30.348207"
         sodipodi:cx="156.09381"
         id="path6428"
         style="color:#000000;fill:url(#radialGradient6501);fill-opacity:1;stroke:#861a1a;stroke-width:2.75481105;stroke-linecap:round;stroke-linejoin:round;stroke-miterlimit:4;stroke-opacity:1;stroke-dasharray:none;stroke-dashoffset:0;marker:none;visibility:visible;display:inline;overflow:visible;enable-background:accumulate"
         sodipodi:type="arc" />
      <path
         transform="matrix(0.03040697,0,0,0.36203375,137.88916,113.57934)"
         inkscape:transform-center-y="1.2703586"
         d="m 151.49999,48.785679 -6.07763,-10.526751 -6.07762,-10.52675 12.15524,0 12.15525,-1e-6 -6.07762,10.526751 z"
         inkscape:randomized="0"
         inkscape:rounded="0"
         inkscape:flatsided="false"
         sodipodi:arg2="2.6179939"
         sodipodi:arg1="1.5707963"
         sodipodi:r2="7.0178337"
         sodipodi:r1="14.035667"
         sodipodi:cy="34.750011"
         sodipodi:cx="151.49998"
         sodipodi:sides="3"
         id="path6430"
         style="color:#000000;fill:#141414;fill-opacity:1;fill-rule:nonzero;stroke:none;stroke-width:3.43487906;marker:none;visibility:visible;display:inline;overflow:visible;enable-background:accumulate"
         sodipodi:type="star" />
      <path
         inkscape:connector-curvature="0"
         id="path6432"
         d="m 142.49581,119.55649 c -1.68432,0 -3.17338,0.88901 -4.13687,2.27073 0.96349,1.3817 2.45255,2.28206 4.13687,2.28206 1.68432,0 3.17338,-0.90036 4.13688,-2.28206 -0.9635,-1.38172 -2.45256,-2.27073 -4.13688,-2.27073 z"
         style="color:#000000;fill:url(#radialGradient6503);fill-opacity:1;stroke:#141414;stroke-width:1;stroke-linecap:round;stroke-linejoin:round;stroke-miterlimit:4;stroke-opacity:1;stroke-dasharray:none;stroke-dashoffset:0;marker:none;visibility:visible;display:inline;overflow:visible;enable-background:accumulate" />
      <path
         inkscape:connector-curvature="0"
         id="path6434"
         d="m 138.16384,122.87907 c -0.27742,0.65581 -0.45259,1.37842 -0.50273,2.14465 0.1051,0.0542 0.22163,0.0902 0.34228,0.0902 0.49621,0 0.89849,-0.50537 0.89849,-1.12877 0,-0.55452 -0.31847,-1.01105 -0.73804,-1.10619 z m 8.69603,0.0902 c -0.30399,0.18096 -0.51342,0.56521 -0.51342,1.01589 0,0.6234 0.40227,1.12877 0.89849,1.12877 0.0292,0 0.0572,-0.008 0.0856,-0.0113 -0.0411,-0.76133 -0.20491,-1.47808 -0.47064,-2.13337 z m -4.36406,1.51254 c -0.54348,0 -0.98405,0.46494 -0.98405,1.03847 0,0.57354 0.44057,1.03847 0.98405,1.03847 0.54348,0 0.98406,-0.46493 0.98406,-1.03847 0,-0.57353 -0.44058,-1.03847 -0.98406,-1.03847 z m -2.60988,1.26423 c -0.49622,0 -0.89848,0.50537 -0.89848,1.12876 0,0.62341 0.40226,1.12877 0.89848,1.12877 0.49621,0 0.89848,-0.50536 0.89848,-1.12877 0,-0.62339 -0.40227,-1.12876 -0.89848,-1.12876 z m 5.47647,0 c -0.49622,0 -0.89849,0.50537 -0.89849,1.12876 0,0.62341 0.40227,1.12877 0.89849,1.12877 0.49622,0 0.89848,-0.50536 0.89848,-1.12877 0,-0.62339 -0.40226,-1.12876 -0.89848,-1.12876 z m -5.33742,3.61206 c -0.29021,0 -0.55173,0.16923 -0.70596,0.42894 0.42979,0.42132 0.92715,0.76356 1.47608,0.99331 0.0505,-0.12785 0.075,-0.2675 0.075,-0.41764 0,-0.55317 -0.3736,-1.00461 -0.84501,-1.00461 z m 5.19837,0 c -0.47141,0 -0.85569,0.45144 -0.85569,1.00461 0,0.11606 0.0226,0.22366 0.0536,0.32734 0.52512,-0.25228 0.99553,-0.60767 1.40121,-1.03848 -0.15446,-0.18124 -0.36328,-0.29347 -0.59898,-0.29347 z"
         style="color:#000000;fill:#141414;fill-opacity:1;fill-rule:nonzero;stroke:none;stroke-width:1;marker:none;visibility:visible;display:inline;overflow:visible;enable-background:accumulate" />
      <path
         transform="matrix(0.35875349,0,0,0.36834614,86.496613,114.34368)"
         d="m 156.09375,16.625 c -6.58144,0 -12.15625,5.980563 -12.15625,13.71875 0,7.738187 5.58136,13.75 12.15625,13.75 6.57489,0 12.15625,-6.011813 12.15625,-13.75 0,-7.738187 -5.57481,-13.71875 -12.15625,-13.71875 z"
         id="path6436"
         style="color:#000000;fill:none;stroke:url(#linearGradient6505);stroke-width:2.75089407;stroke-linecap:round;stroke-linejoin:round;stroke-miterlimit:4;stroke-opacity:1;stroke-dasharray:none;stroke-dashoffset:0;marker:none;visibility:visible;display:inline;overflow:visible;enable-background:accumulate"
         inkscape:original="M 156.09375 14.09375 C 147.99037 14.09375 141.40625 21.361692 141.40625 30.34375 C 141.40625 39.325808 147.99037 46.625 156.09375 46.625 C 164.19713 46.625 170.78125 39.325808 170.78125 30.34375 C 170.78125 21.361692 164.19713 14.09375 156.09375 14.09375 z "
         inkscape:radius="-2.5453346"
         sodipodi:type="inkscape:offset" />
      <path
         transform="matrix(0.43334895,0,0,0.43137462,74.241356,113.11808)"
         d="m 156.85263,12.144988 c 0,0.457217 -0.37065,0.827864 -0.82786,0.827864 -0.45722,0 -0.82787,-0.370647 -0.82787,-0.827864 0,-0.457217 0.37065,-0.827864 0.82787,-0.827864 0.45721,0 0.82786,0.370647 0.82786,0.827864 z"
         sodipodi:ry="0.82786399"
         sodipodi:rx="0.82786399"
         sodipodi:cy="12.144988"
         sodipodi:cx="156.02477"
         id="path6438"
         style="opacity:0.98999999;color:#000000;fill:#ffffff;fill-opacity:1;fill-rule:nonzero;stroke:none;stroke-width:1;marker:none;visibility:visible;display:inline;overflow:visible;enable-background:accumulate"
         sodipodi:type="arc" />
      <path
         transform="matrix(0.43334895,0,0,0.43137462,75.523848,113.11808)"
         d="m 156.85263,12.144988 c 0,0.457217 -0.37065,0.827864 -0.82786,0.827864 -0.45722,0 -0.82787,-0.370647 -0.82787,-0.827864 0,-0.457217 0.37065,-0.827864 0.82787,-0.827864 0.45721,0 0.82786,0.370647 0.82786,0.827864 z"
         sodipodi:ry="0.82786399"
         sodipodi:rx="0.82786399"
         sodipodi:cy="12.144988"
         sodipodi:cx="156.02477"
         id="path6440"
         style="opacity:0.98999999;color:#000000;fill:#ffffff;fill-opacity:1;fill-rule:nonzero;stroke:none;stroke-width:1;marker:none;visibility:visible;display:inline;overflow:visible;enable-background:accumulate"
         sodipodi:type="arc" />
      <path
         style="color:#000000;fill:url(#radialGradient6509);fill-opacity:1;stroke:none;stroke-width:1;marker:none;visibility:visible;display:inline;overflow:visible;enable-background:accumulate"
         d="m 142.49581,119.55649 c -1.68433,0 -3.17338,0.889 -4.13687,2.27072 0.96349,1.3817 2.45254,2.28206 4.13687,2.28206 1.68432,0 3.17338,-0.90036 4.13688,-2.28206 -0.9635,-1.38172 -2.45256,-2.27072 -4.13688,-2.27072 z"
         id="path6444"
         inkscape:connector-curvature="0" />
    </g>
  </g>
</svg>
