<?xml version="1.0" encoding="UTF-8" standalone="no"?>
<!-- Created with Inkscape (http://www.inkscape.org/) -->

<svg
   xmlns:dc="http://purl.org/dc/elements/1.1/"
   xmlns:cc="http://creativecommons.org/ns#"
   xmlns:rdf="http://www.w3.org/1999/02/22-rdf-syntax-ns#"
   xmlns:svg="http://www.w3.org/2000/svg"
   xmlns="http://www.w3.org/2000/svg"
   xmlns:xlink="http://www.w3.org/1999/xlink"
   xmlns:sodipodi="http://sodipodi.sourceforge.net/DTD/sodipodi-0.dtd"
   xmlns:inkscape="http://www.inkscape.org/namespaces/inkscape"
   width="16"
   height="16"
   id="svg6966"
   version="1.1"
   inkscape:version="0.48.1 r9760"
   sodipodi:docname="Nuevo documento 38">
  <defs
     id="defs6968">
    <linearGradient
       inkscape:collect="always"
       xlink:href="#linearGradient4144"
       id="linearGradient5000"
       gradientUnits="userSpaceOnUse"
       gradientTransform="matrix(0.30442413,0,0,0.37457812,177.39669,534.02184)"
       x1="156"
       y1="20"
       x2="156"
       y2="22" />
    <linearGradient
       inkscape:collect="always"
       id="linearGradient4144">
      <stop
         style="stop-color:#ffffff;stop-opacity:1;"
         offset="0"
         id="stop4146" />
      <stop
         style="stop-color:#ffffff;stop-opacity:0;"
         offset="1"
         id="stop4148" />
    </linearGradient>
    <linearGradient
       inkscape:collect="always"
       xlink:href="#linearGradient4114"
       id="linearGradient4996"
       gradientUnits="userSpaceOnUse"
       gradientTransform="matrix(0.20169265,0,0,0.28248261,192.66258,534.67864)"
       x1="157"
       y1="17"
       x2="157"
       y2="4" />
    <linearGradient
       inkscape:collect="always"
       id="linearGradient4114">
      <stop
         style="stop-color:#5b371f;stop-opacity:1;"
         offset="0"
         id="stop4116" />
      <stop
         style="stop-color:#5b371f;stop-opacity:0;"
         offset="1"
         id="stop4118" />
    </linearGradient>
    <inkscape:path-effect
       effect="spiro"
       id="path-effect4998"
       is_visible="true" />
    <linearGradient
       inkscape:collect="always"
       xlink:href="#linearGradient4114"
       id="linearGradient4992"
       gradientUnits="userSpaceOnUse"
       gradientTransform="matrix(0.19248962,0,0,0.28254666,196.93386,534.67729)"
       x1="157"
       y1="17"
       x2="157"
       y2="4" />
    <inkscape:path-effect
       effect="spiro"
       id="path-effect4994"
       is_visible="true" />
    <linearGradient
       inkscape:collect="always"
       xlink:href="#linearGradient4114"
       id="linearGradient4988"
       gradientUnits="userSpaceOnUse"
       gradientTransform="matrix(0.20184495,0,0,0.28254464,194.02982,534.67754)"
       x1="157"
       y1="17"
       x2="157"
       y2="4" />
    <inkscape:path-effect
       is_visible="true"
       id="path-effect4990"
       effect="spiro" />
    <linearGradient
       inkscape:collect="always"
       xlink:href="#linearGradient4492"
       id="linearGradient4986"
       gradientUnits="userSpaceOnUse"
       gradientTransform="matrix(0.34371254,0,0,0.31919181,171.45258,535.74456)"
       x1="141.53125"
       y1="26.628139"
       x2="149.75"
       y2="41.628139" />
    <linearGradient
       inkscape:collect="always"
       id="linearGradient4492">
      <stop
         style="stop-color:#ffffff;stop-opacity:1;"
         offset="0"
         id="stop4494" />
      <stop
         style="stop-color:#ffffff;stop-opacity:0;"
         offset="1"
         id="stop4496" />
    </linearGradient>
    <radialGradient
       inkscape:collect="always"
       xlink:href="#linearGradient3898"
       id="radialGradient4984"
       gradientUnits="userSpaceOnUse"
       gradientTransform="matrix(0.29682544,0,0,0.27465607,178.4095,537.61243)"
       cx="156"
       cy="27.696297"
       fx="156"
       fy="27.696297"
       r="18" />
    <linearGradient
       id="linearGradient3898">
      <stop
         style="stop-color:#ffffff;stop-opacity:1;"
         offset="0"
         id="stop3900" />
      <stop
         id="stop4490"
         offset="0.5"
         style="stop-color:#ededed;stop-opacity:1;" />
      <stop
         style="stop-color:#c8c8c8;stop-opacity:1;"
         offset="1"
         id="stop3902" />
    </linearGradient>
    <radialGradient
       inkscape:collect="always"
       xlink:href="#linearGradient3906"
       id="radialGradient4980"
       gradientUnits="userSpaceOnUse"
       gradientTransform="matrix(0.23733477,-7.3608447e-4,5.3401596e-4,0.06427614,187.77257,541.68441)"
       cx="156.00658"
       cy="16.88216"
       fx="156.00658"
       fy="16.88216"
       r="16.99999" />
    <linearGradient
       id="linearGradient3906">
      <stop
         style="stop-color:#b37851;stop-opacity:1;"
         offset="0"
         id="stop3908" />
      <stop
         style="stop-color:#462e1e;stop-opacity:1;"
         offset="1"
         id="stop3910" />
    </linearGradient>
  </defs>
  <sodipodi:namedview
     id="base"
     pagecolor="#ffffff"
     bordercolor="#666666"
     borderopacity="1.0"
     inkscape:pageopacity="0.0"
     inkscape:pageshadow="2"
     inkscape:zoom="44.36108"
     inkscape:cx="8.0000032"
     inkscape:cy="8.0363237"
     inkscape:document-units="px"
     inkscape:current-layer="layer1"
     showgrid="false"
     fit-margin-top="0"
     fit-margin-left="0"
     fit-margin-right="0"
     fit-margin-bottom="0" />
  <metadata
     id="metadata6971">
    <rdf:RDF>
      <cc:Work
         rdf:about="">
        <dc:format>image/svg+xml</dc:format>
        <dc:type
           rdf:resource="http://purl.org/dc/dcmitype/StillImage" />
        <dc:title></dc:title>
      </cc:Work>
    </rdf:RDF>
  </metadata>
  <g
     inkscape:label="Capa 1"
     inkscape:groupmode="layer"
     id="layer1"
     transform="translate(-217.71428,-535.82709)">
    <path
       inkscape:connector-curvature="0"
       id="path4956"
       d="m 230.6919,544.32706 -0.35242,1.37472 0.96677,0 c 0.22419,0 0.37804,-0.12311 0.3086,0.16708 l -0.2192,0.95059 c -0.0694,0.29018 -0.29093,0.20218 -0.51512,0.20218 l -1.07639,0 -0.31783,1.33961 1.81842,0 c 1.54345,0 1.35599,-0.68805 1.56031,-1.54179 l 0.2192,-0.95059 c 0.20433,-0.85373 0.31117,-1.5418 -0.81504,-1.5418 z"
       style="opacity:0.98999999;color:#000000;fill:#dcdcdc;fill-opacity:1;fill-rule:nonzero;stroke:#969696;stroke-width:0.99999988;stroke-linecap:round;stroke-linejoin:round;stroke-miterlimit:4;stroke-opacity:1;stroke-dasharray:none;stroke-dashoffset:0;marker:none;visibility:visible;display:inline;overflow:visible;enable-background:accumulate"
       sodipodi:nodetypes="ccsccsccsccsc" />
    <path
       transform="matrix(0.388393,0,0,0.39065725,141.69567,535.00871)"
       d="m 227.37498,19.937511 c 0,1.10457 -5.42854,2 -12.125,2 -6.69645,0 -12.12499,-0.89543 -12.12499,-2 0,-1.104569 5.42854,-1.999999 12.12499,-1.999999 6.69646,0 12.125,0.89543 12.125,1.999999 z"
       sodipodi:ry="1.9999998"
       sodipodi:rx="12.124999"
       sodipodi:cy="19.937511"
       sodipodi:cx="215.24998"
       id="path4958"
       style="opacity:0.98999999;color:#000000;fill:#52250c;fill-opacity:1;fill-rule:nonzero;stroke:#141414;stroke-width:2.56723952;stroke-linecap:round;stroke-linejoin:round;stroke-miterlimit:4;stroke-opacity:1;stroke-dasharray:none;stroke-dashoffset:0;marker:none;visibility:visible;display:inline;overflow:visible;enable-background:accumulate"
       sodipodi:type="arc" />
    <path
       sodipodi:nodetypes="sssss"
       inkscape:connector-curvature="0"
       id="path4960"
       d="m 224.71428,540.32707 c -3.03957,0 -5.5,0.91139 -5.5,2.02869 0,1.11733 2.46043,2.02874 5.5,2.02874 3.03958,0 5.5,-0.91141 5.5,-2.02874 0,-1.1173 -2.46042,-2.02869 -5.5,-2.02869 z"
       style="opacity:0.98999999;color:#000000;fill:#dcdcdc;fill-opacity:1;stroke:#969696;stroke-width:1.00000012;stroke-linecap:round;stroke-linejoin:round;stroke-miterlimit:4;stroke-opacity:1;stroke-dasharray:none;stroke-dashoffset:0;marker:none;visibility:visible;display:inline;overflow:visible;enable-background:accumulate" />
    <path
       sodipodi:nodetypes="sssss"
       inkscape:connector-curvature="0"
       id="path4962"
       d="m 224.80738,542.34186 c -2.98811,0 -5.40689,0.44592 -5.40689,0.9926 0,0.54667 2.41878,0.9926 5.40689,0.9926 2.98812,0 5.4069,-0.44593 5.4069,-0.9926 0,-0.54668 -2.41878,-0.9926 -5.4069,-0.9926 z"
       style="opacity:0.98999999;color:#000000;fill:url(#radialGradient4980);fill-opacity:1;stroke:#bf8d6d;stroke-width:1.00000012;stroke-linecap:round;stroke-linejoin:round;stroke-miterlimit:4;stroke-opacity:1;stroke-dasharray:none;stroke-dashoffset:0;marker:none;visibility:visible;display:inline;overflow:visible;enable-background:accumulate" />
    <path
       sodipodi:nodetypes="csccscc"
       inkscape:connector-curvature="0"
       id="path4966"
       d="m 230.07792,543.07706 c -0.0851,0.88971 -2.44699,1.28238 -5.36364,1.28238 -2.86467,0 -5.20044,-0.36818 -5.36363,-1.23571 -0.058,0.0583 -0.10552,0.1221 -0.13637,0.1867 0,3.57808 1.85309,8.01663 5.4432,8.01663 3.84615,0 5.49836,-4.35408 5.5568,-8.01663 0,-0.0807 -0.0499,-0.15967 -0.13636,-0.23337 z"
       style="opacity:0.98999999;color:#000000;fill:url(#radialGradient4984);fill-opacity:1;stroke:#969696;stroke-width:1;stroke-linecap:round;stroke-linejoin:round;stroke-miterlimit:4;stroke-opacity:1;stroke-dashoffset:0;marker:none;visibility:visible;display:inline;overflow:visible;enable-background:accumulate" />
    <path
       sodipodi:nodetypes="cccc"
       inkscape:connector-curvature="0"
       id="path4968"
       d="m 219.92679,544.16526 c 0.45731,2.42763 1.77991,5.02393 3.94195,5.90304 -1.54762,-1.26083 -2.43348,-3.49462 -2.67007,-5.51554 -0.47388,-0.0828 -0.90637,-0.2725 -1.27188,-0.3875 z"
       style="color:#000000;fill:url(#linearGradient4986);fill-opacity:1;stroke:none;stroke-width:0.99999994;marker:none;visibility:visible;display:inline;overflow:visible;enable-background:accumulate" />
    <path
       inkscape:original-d="m 225.71852,539.32698 c 0,0 0.47591,-0.70667 0.40579,-1.12473 -0.0784,-0.46724 -0.71027,-0.25695 -0.78603,-0.7253 -0.0744,-0.4602 0.45936,-1.22227 0.45936,-1.22227"
       inkscape:path-effect="#path-effect4990"
       sodipodi:nodetypes="cssc"
       inkscape:connector-curvature="0"
       id="path4970"
       d="m 225.71852,539.32698 c 0.21996,-0.0689 0.40359,-0.2449 0.48182,-0.46173 0.0782,-0.21683 0.0493,-0.46951 -0.076,-0.663 -0.0974,-0.15045 -0.24458,-0.26057 -0.38951,-0.36603 -0.14492,-0.10546 -0.29369,-0.21247 -0.39652,-0.35927 -0.14684,-0.20964 -0.18263,-0.49266 -0.0926,-0.73225 0.09,-0.23959 0.30337,-0.42899 0.55194,-0.49002"
       style="opacity:0.7;fill:none;stroke:url(#linearGradient4988);stroke-width:0.99999988px;stroke-linecap:round;stroke-linejoin:miter;stroke-opacity:1;display:inline;enable-background:new" />
    <path
       style="opacity:0.7;fill:none;stroke:url(#linearGradient4992);stroke-width:0.99999988px;stroke-linecap:round;stroke-linejoin:miter;stroke-opacity:1;display:inline;enable-background:new"
       d="m 228.70079,539.32675 c 0.21563,-0.0747 0.39321,-0.25191 0.46842,-0.46738 0.0752,-0.21547 0.0465,-0.46466 -0.0758,-0.65735 -0.0943,-0.14865 -0.2366,-0.25941 -0.37688,-0.3658 -0.14027,-0.10639 -0.28411,-0.21426 -0.38359,-0.35951 -0.14301,-0.20881 -0.17828,-0.48745 -0.0918,-0.72531 0.0865,-0.23786 0.29248,-0.42877 0.53622,-0.49696"
       id="path4972"
       inkscape:connector-curvature="0"
       sodipodi:nodetypes="cssc"
       inkscape:path-effect="#path-effect4994"
       inkscape:original-d="m 228.70079,539.32675 c 0,0 0.46043,-0.70666 0.3926,-1.12473 -0.0759,-0.46724 -0.68718,-0.25695 -0.76047,-0.72531 -0.072,-0.4602 0.44443,-1.22227 0.44443,-1.22227" />
    <path
       style="opacity:0.7;fill:none;stroke:url(#linearGradient4996);stroke-width:1;stroke-linecap:round;stroke-linejoin:miter;stroke-miterlimit:4;stroke-opacity:1;stroke-dasharray:none;display:inline;enable-background:new"
       d="m 222.71432,539.32705 c 0.22024,-0.0684 0.40431,-0.24429 0.48276,-0.46117 0.0785,-0.21688 0.0495,-0.46978 -0.076,-0.66329 -0.0976,-0.15056 -0.24515,-0.26061 -0.39041,-0.36598 -0.14525,-0.10536 -0.29437,-0.21228 -0.39744,-0.35917 -0.14711,-0.20966 -0.18292,-0.49296 -0.0926,-0.73263 0.0903,-0.23968 0.30416,-0.42891 0.55304,-0.48937"
       id="path4974"
       inkscape:connector-curvature="0"
       sodipodi:nodetypes="cssc"
       inkscape:path-effect="#path-effect4998"
       inkscape:original-d="m 222.71432,539.32705 c 0,0 0.47701,-0.7065 0.40674,-1.12446 -0.0786,-0.46715 -0.71194,-0.25691 -0.78785,-0.72515 -0.0746,-0.4601 0.46042,-1.222 0.46042,-1.222" />
    <path
       sodipodi:nodetypes="sssss"
       inkscape:connector-curvature="0"
       id="path4976"
       d="m 224.88686,541.326 c -2.94419,0 -5.32743,0.83427 -5.32743,1.85703 0,1.02276 2.38324,1.85703 5.32743,1.85703 2.94419,0 5.32742,-0.83427 5.32742,-1.85703 0,-1.02276 -2.38323,-1.85703 -5.32742,-1.85703 z"
       style="opacity:0.98999999;color:#000000;fill:none;stroke:url(#linearGradient5000);stroke-width:1.00000012;stroke-linecap:round;stroke-linejoin:round;stroke-miterlimit:4;stroke-opacity:1;stroke-dasharray:none;stroke-dashoffset:0;marker:none;visibility:visible;display:inline;overflow:visible;enable-background:accumulate" />
    <path
       sodipodi:open="true"
       sodipodi:end="2.4233635"
       sodipodi:start="0.71373755"
       transform="matrix(0.13618095,3.3426122e-4,-3.3421854e-4,0.11661072,215.72749,537.41555)"
       d="M 102.53113,62.794818 C 86.296596,68.662022 57.939647,69.299137 39.194116,64.217854 37.622776,63.791916 36.147835,63.33234 34.779935,62.842441"
       sodipodi:ry="14.053746"
       sodipodi:rx="44.901276"
       sodipodi:cy="53.594341"
       sodipodi:cx="68.589348"
       id="path4978"
       style="color:#000000;fill:none;stroke:#ffffff;stroke-width:7.93544197;stroke-linecap:round;stroke-linejoin:round;stroke-miterlimit:4;stroke-opacity:1;stroke-dasharray:none;stroke-dashoffset:0;marker:none;visibility:visible;display:inline;overflow:visible;enable-background:accumulate"
       sodipodi:type="arc" />
  </g>
</svg>
