<?xml version="1.0" encoding="UTF-8" standalone="no"?>
<!-- Created with Inkscape (http://www.inkscape.org/) -->

<svg
   xmlns:dc="http://purl.org/dc/elements/1.1/"
   xmlns:cc="http://creativecommons.org/ns#"
   xmlns:rdf="http://www.w3.org/1999/02/22-rdf-syntax-ns#"
   xmlns:svg="http://www.w3.org/2000/svg"
   xmlns="http://www.w3.org/2000/svg"
   xmlns:xlink="http://www.w3.org/1999/xlink"
   xmlns:sodipodi="http://sodipodi.sourceforge.net/DTD/sodipodi-0.dtd"
   xmlns:inkscape="http://www.inkscape.org/namespaces/inkscape"
   width="16"
   height="16"
   id="svg3518"
   version="1.1"
   inkscape:version="0.48.0 r9654"
   sodipodi:docname="media-player-banshee16.svg">
  <defs
     id="defs3520">
    <radialGradient
       inkscape:collect="always"
       xlink:href="#linearGradient4933-1-6-6-9-7"
       id="radialGradient4837-4-3-7-7-4"
       gradientUnits="userSpaceOnUse"
       gradientTransform="matrix(1.659483,0.01339134,-0.01029058,1.5925239,114.38349,-41.729075)"
       cx="-171.8835"
       cy="72.793999"
       fx="-171.8835"
       fy="72.793999"
       r="22.289658" />
    <linearGradient
       id="linearGradient4933-1-6-6-9-7">
      <stop
         style="stop-color:#ffffff;stop-opacity:1"
         offset="0"
         id="stop4935-6-9-7-9-4" />
      <stop
         id="stop4943-8-1-8-2-4"
         offset="0.39820078"
         style="stop-color:#ebebeb;stop-opacity:1" />
      <stop
         id="stop4941-04-34-9-4-3"
         offset="0.61794829"
         style="stop-color:#b5b5b5;stop-opacity:1" />
      <stop
         style="stop-color:#efefef;stop-opacity:1"
         offset="1"
         id="stop4937-8-9-7-0-0" />
    </linearGradient>
    <linearGradient
       inkscape:collect="always"
       xlink:href="#linearGradient5035-3-1-7-9-86"
       id="linearGradient4839-8-8-4-1-7"
       gradientUnits="userSpaceOnUse"
       x1="-171.10748"
       y1="27.172562"
       x2="-171.10748"
       y2="105.51175" />
    <linearGradient
       inkscape:collect="always"
       id="linearGradient5035-3-1-7-9-86">
      <stop
         style="stop-color:#ffffff;stop-opacity:1;"
         offset="0"
         id="stop5037-5-79-7-1-8" />
      <stop
         style="stop-color:#ffffff;stop-opacity:0;"
         offset="1"
         id="stop5039-2-3-1-0-8" />
    </linearGradient>
    <linearGradient
       inkscape:collect="always"
       xlink:href="#linearGradient8005-7-3-1-7-31"
       id="linearGradient7504-9-4"
       gradientUnits="userSpaceOnUse"
       gradientTransform="matrix(1.2991912,0,0,1.4154047,-12.138243,-19.854576)"
       x1="46.80846"
       y1="16.687328"
       x2="65.76947"
       y2="87.928337" />
    <linearGradient
       id="linearGradient8005-7-3-1-7-31">
      <stop
         id="stop8007-4-2-9-5-4"
         style="stop-color:#2d68a7;stop-opacity:1;"
         offset="0" />
      <stop
         id="stop8009-7-65-3-4-9"
         style="stop-color:#497fbb;stop-opacity:1;"
         offset="1" />
    </linearGradient>
  </defs>
  <sodipodi:namedview
     id="base"
     pagecolor="#ffffff"
     bordercolor="#666666"
     borderopacity="1.0"
     inkscape:pageopacity="0.0"
     inkscape:pageshadow="2"
     inkscape:zoom="22.197802"
     inkscape:cx="3.4537128"
     inkscape:cy="7.2777799"
     inkscape:current-layer="layer1"
     showgrid="true"
     inkscape:grid-bbox="true"
     inkscape:document-units="px"
     fit-margin-top="0"
     fit-margin-left="0"
     fit-margin-right="0"
     fit-margin-bottom="0"
     inkscape:window-width="1280"
     inkscape:window-height="665"
     inkscape:window-x="0"
     inkscape:window-y="24"
     inkscape:window-maximized="1" />
  <metadata
     id="metadata3523">
    <rdf:RDF>
      <cc:Work
         rdf:about="">
        <dc:format>image/svg+xml</dc:format>
        <dc:type
           rdf:resource="http://purl.org/dc/dcmitype/StillImage" />
        <dc:title></dc:title>
      </cc:Work>
    </rdf:RDF>
  </metadata>
  <g
     id="layer1"
     inkscape:label="Layer 1"
     inkscape:groupmode="layer"
     transform="translate(2.6391089,4.32618)">
    <g
       style="display:inline;enable-background:new"
       id="g4790-5-7-3-6-8"
       transform="matrix(0.13254494,0,0,0.13035288,-4.0012789,-4.9348769)">
      <path
         transform="matrix(2.1037191,0,0,1.9945711,429.54841,-68.066212)"
         d="m -147.88634,74.465996 c 0,11.938885 -9.67838,21.617264 -21.61726,21.617264 -11.93889,0 -21.61726,-9.678379 -21.61726,-21.617264 0,-11.938885 9.67837,-21.617264 21.61726,-21.617264 11.93888,0 21.61726,9.678379 21.61726,21.617264 z"
         sodipodi:ry="21.617264"
         sodipodi:rx="21.617264"
         sodipodi:cy="74.465996"
         sodipodi:cx="-169.5036"
         id="path4163-5-0-6-1-1"
         style="color:#000000;fill:url(#radialGradient4837-4-3-7-7-4);fill-opacity:1;fill-rule:nonzero;stroke:#969696;stroke-width:3.71397972;stroke-miterlimit:4;stroke-opacity:1;stroke-dasharray:none;marker:none;visibility:visible;display:inline;overflow:visible;enable-background:accumulate"
         sodipodi:type="arc" />
      <path
         id="path4525-0-6-1-8-1-0-7"
         d="m 61.740905,66.726226 -9.897758,4.290194 0,36.20262 c 8.595061,0.83758 21.353091,1.29689 32.921943,-2.01309 5.934124,-1.69784 11.119706,-4.39903 14.494502,-8.415369 3.374798,-4.016334 5.029748,-9.321764 3.877138,-16.731754 -0.86582,-5.566162 -3.642924,-8.588412 -7.485853,-10.230461 -3.842922,-1.642048 -8.787596,-1.762574 -13.659426,-1.155052 -9.743659,1.215044 -19.117231,5.31324 -19.117231,5.31324 -0.502182,0.20329 -1.122631,-0.266455 -1.133315,-0.858039 z m 18.341805,9.53743 c 2.423098,0.01438 4.733473,0.271239 6.620945,1.32006 1.887471,1.048821 3.298475,2.993078 3.698185,5.841263 0.597881,4.260275 -1.000196,7.625165 -3.608713,9.999451 -2.608518,2.374285 -6.202797,3.868807 -9.81212,4.88422 -7.218649,2.03083 -14.64362,2.04609 -14.64362,2.04609 -0.436025,-0.005 -0.830671,-0.441562 -0.835074,-0.92404 l 0,-18.348827 c -0.0078,-0.380073 0.216753,-0.752882 0.536833,-0.89104 0,0 9.908351,-3.975454 18.043564,-3.927177 z"
         style="fill:none;stroke:#ffffff;stroke-width:7.60778189;stroke-opacity:1;display:inline;enable-background:new"
         inkscape:connector-curvature="0"
         sodipodi:nodetypes="cccssssscccsssssccccs" />
      <path
         id="path4525-0-5-4-8-3-2"
         d="m 85.655028,62.22576 c -1.836705,-0.01632 -2.401324,0.08875 -4.280673,0.286582 -10.023191,1.055136 -23.791638,4.613979 -23.791638,4.613979 -0.516589,0.176535 -1.154837,-0.231388 -1.165828,-0.745115 l 0,-3.725573 -3.524247,3.725573 0,29.603974 c 8.841641,0.727335 19.434177,1.126204 31.334925,-1.748156 6.104366,-1.474374 11.438715,-3.820099 14.91033,-7.307854 3.471613,-3.487755 3.840333,-8.094952 2.654653,-14.529733 -0.89065,-4.833613 -3.747431,-7.458114 -7.700609,-8.884056 -2.470731,-0.891215 -5.375738,-1.262432 -8.436913,-1.289621 z m -6.244172,6.877979 c 2.492613,0.01249 4.86927,0.235542 6.81089,1.146331 1.941621,0.910788 3.393104,2.599166 3.804282,5.072509 0.615033,3.699591 -1.028891,6.621638 -3.712243,8.683449 -2.683352,2.061813 -6.380747,3.359644 -10.093617,4.241421 -7.425741,1.763555 -19.189685,1.776812 -19.189685,1.776812 -0.448534,-0.0042 -0.854501,-0.38345 -0.859031,-0.802431 l 0,-15.933987 c -0.0081,-0.330052 0.222971,-0.653797 0.552234,-0.773772 0,0 14.318568,-3.452255 22.68717,-3.410332 z"
         style="fill:none;stroke:#969696;stroke-width:7.60778189;stroke-opacity:1;display:inline;enable-background:new"
         inkscape:connector-curvature="0"
         sodipodi:nodetypes="sscccccssssssssssccccs" />
      <path
         transform="matrix(2.1037191,0,0,1.9945711,429.54084,-68.071703)"
         d="m -169.5,55.46875 c -10.51929,0 -19,8.480719 -19,19 0,10.519281 8.48071,19 19,19 10.51929,0 19,-8.480719 19,-19 0,-10.519281 -8.48071,-19 -19,-19 z"
         id="path5033-1-5-4-3-7"
         style="color:#000000;fill:none;stroke:url(#linearGradient4839-8-8-4-1-7);stroke-width:3.71397972;stroke-miterlimit:4;stroke-opacity:1;stroke-dasharray:none;marker:none;visibility:visible;display:inline;overflow:visible;enable-background:accumulate"
         inkscape:original="M -169.5 52.84375 C -181.43889 52.84375 -191.125 62.529865 -191.125 74.46875 C -191.125 86.407635 -181.43889 96.09375 -169.5 96.09375 C -157.56111 96.09375 -147.875 86.407635 -147.875 74.46875 C -147.875 62.529865 -157.56111 52.84375 -169.5 52.84375 z "
         inkscape:radius="-2.6246591"
         sodipodi:type="inkscape:offset" />
      <path
         style="fill:url(#linearGradient7504-9-4);fill-opacity:1;fill-rule:evenodd;stroke:none"
         d="m 63.897456,4.6696073 c -14.35685,0.7092025 -24.814233,4.0411403 -29.500604,8.6399767 -4.306568,4.226129 -7.676682,9.675609 -14.574631,15.063753 6.609505,-0.339721 10.747668,-2.525534 14.339557,-4.914188 4.077641,-2.711688 7.708172,-5.618281 13.546179,-5.363852 0.419655,0.02087 0.789548,0.440165 0.793377,0.899328 l 0,84.440515 c 8.468333,0.81518 22.452481,1.26221 33.850757,-1.95925 5.846629,-1.652406 10.955753,-4.281389 14.280789,-8.190309 3.32504,-3.908919 4.95558,-9.072457 3.81996,-16.284269 -0.853043,-5.417297 -3.589202,-8.358719 -7.375466,-9.956851 -3.78626,-1.598132 -8.623231,-1.221039 -13.458026,-1.124161 -11.604033,0.232518 -14.605287,2.796064 -14.605287,2.796064 -0.494777,0.197853 -1.106078,-0.259329 -1.116605,-0.835092 z M 77.73875,74.296116 c 3.277932,0.05184 5.313287,1.721011 7.172929,2.741781 1.859642,1.02077 3.443713,3.907967 2.994052,7.46257 -0.449662,3.554603 0.151362,-0.07954 -2.418695,2.231253 -2.570056,2.310786 -7.24815,3.948947 -10.804256,4.937203 -7.112215,1.976512 -9.872247,1.99137 -9.872247,1.99137 -0.429596,-0.0047 -0.818422,-0.429754 -0.822761,-0.899329 l 0,-13.775493 c -0.0076,-0.369908 0.213558,-0.732746 0.528918,-0.867209 0,0 5.007437,-3.952061 13.22206,-3.822146 z"
         id="path4525-1-3-1-1-2"
         inkscape:connector-curvature="0"
         sodipodi:nodetypes="cscscccssssscccsszssccccs" />
    </g>
  </g>
</svg>
