<?xml version="1.0" encoding="UTF-8" standalone="no"?>
<!-- Created with Inkscape (http://www.inkscape.org/) -->

<svg
   xmlns:dc="http://purl.org/dc/elements/1.1/"
   xmlns:cc="http://creativecommons.org/ns#"
   xmlns:rdf="http://www.w3.org/1999/02/22-rdf-syntax-ns#"
   xmlns:svg="http://www.w3.org/2000/svg"
   xmlns="http://www.w3.org/2000/svg"
   xmlns:xlink="http://www.w3.org/1999/xlink"
   xmlns:sodipodi="http://sodipodi.sourceforge.net/DTD/sodipodi-0.dtd"
   xmlns:inkscape="http://www.inkscape.org/namespaces/inkscape"
   width="16"
   height="16"
   id="svg3658"
   version="1.1"
   inkscape:version="0.48.0 r9654"
   sodipodi:docname="xbmc16.svg">
  <defs
     id="defs3660">
    <linearGradient
       inkscape:collect="always"
       id="linearGradient4111">
      <stop
         style="stop-color:#1b212f;stop-opacity:1;"
         offset="0"
         id="stop4113" />
      <stop
         style="stop-color:#313c55;stop-opacity:1"
         offset="1"
         id="stop4115" />
    </linearGradient>
    <filter
       id="filter3174"
       color-interpolation-filters="sRGB">
      <feGaussianBlur
         stdDeviation="1.71"
         id="feGaussianBlur3176" />
    </filter>
    <linearGradient
       id="linearGradient3700">
      <stop
         offset="0"
         style="stop-color:#344262;stop-opacity:1"
         id="stop3702" />
      <stop
         offset="1"
         style="stop-color:#4a5e8c;stop-opacity:1"
         id="stop3704" />
    </linearGradient>
    <linearGradient
       gradientTransform="scale(1.0058652,0.994169)"
       gradientUnits="userSpaceOnUse"
       id="ButtonShadow"
       y2="7.0165396"
       x2="45.447727"
       y1="92.539597"
       x1="45.447727">
      <stop
         offset="0"
         style="stop-color:#000000;stop-opacity:1"
         id="stop3750-3" />
      <stop
         offset="1"
         style="stop-color:#000000;stop-opacity:0.58823532"
         id="stop3752-7" />
    </linearGradient>
    <linearGradient
       id="linearGradient3700-4">
      <stop
         offset="0"
         style="stop-color:#344262;stop-opacity:1"
         id="stop3702-2" />
      <stop
         offset="1"
         style="stop-color:#4a5e8c;stop-opacity:1"
         id="stop3704-4" />
    </linearGradient>
    <clipPath
       clipPathUnits="userSpaceOnUse"
       id="clipPath4072">
      <path
         sodipodi:type="inkscape:offset"
         inkscape:radius="0.50811875"
         inkscape:original="M -41.09375 36.40625 C -46.649798 36.254468 -52.200633 36.37957 -57.71875 36.75 C -59.17426 36.825186 -60.626219 37.940549 -60.46875 39.625 C -59.635371 48.53965 -58.832664 51.081784 -55.8125 56.40625 C -54.926538 57.965207 -53.365953 60.468574 -51.125 60.09375 C -41.968494 59.472387 -31.468777 59.257644 -21.5 55.5625 C -17.925785 53.967279 -17.238621 46.638056 -16.53125 43.125 C -16.098202 38.390855 -20.530502 38.370812 -24.5 37.71875 C -29.98098 36.980041 -35.537702 36.558032 -41.09375 36.40625 z "
         style="fill:url(#linearGradient4076);fill-opacity:1;stroke:none"
         id="path4074"
         d="m -49.4375,35.875 c -2.779963,0.05877 -5.545895,0.189278 -8.3125,0.375 -0.848335,0.04382 -1.690708,0.37827 -2.3125,0.96875 -0.621792,0.59048 -0.999423,1.472074 -0.90625,2.46875 0.83536,8.935843 1.683405,11.61752 4.71875,16.96875 0.448577,0.789325 1.061569,1.850554 1.90625,2.6875 0.831057,0.823447 1.956521,1.440137 3.25,1.25 0.02005,-0.0014 0.04243,0.0014 0.0625,0 9.12437,-0.616977 19.669063,-0.837365 29.71875,-4.5625 a 0.50816956,0.50816956 0 0 0 0.03125,0 c 2.040516,-0.91071 3.121877,-3.320893 3.84375,-5.84375 0.721873,-2.522857 1.059777,-5.248042 1.40625,-6.96875 a 0.50816956,0.50816956 0 0 0 0,-0.0625 c 0.115428,-1.261871 -0.07925,-2.27636 -0.5625,-3.0625 -0.483248,-0.78614 -1.224334,-1.289496 -2.0625,-1.65625 -1.676331,-0.733508 -3.794279,-0.897487 -5.75,-1.21875 a 0.50816956,0.50816956 0 0 0 -0.03125,0 c -5.500646,-0.74136 -11.083746,-1.160268 -16.65625,-1.3125 -2.786451,-0.07612 -5.563787,-0.09002 -8.34375,-0.03125 z" />
    </clipPath>
    <linearGradient
       inkscape:collect="always"
       xlink:href="#linearGradient3700-4"
       id="linearGradient4076"
       gradientUnits="userSpaceOnUse"
       x1="-46.404202"
       y1="59.45277"
       x2="-46.404202"
       y2="36.109875" />
    <linearGradient
       id="linearGradient7612">
      <stop
         id="stop7614"
         style="stop-color:#000000;stop-opacity:1"
         offset="0" />
      <stop
         id="stop7616"
         style="stop-color:#000000;stop-opacity:0"
         offset="1" />
    </linearGradient>
    <linearGradient
       id="linearGradient3924-9-4">
      <stop
         offset="0"
         style="stop-color:#ffffff;stop-opacity:1;"
         id="stop3926-9-4" />
      <stop
         id="stop3928-0-3"
         style="stop-color:#ffffff;stop-opacity:0.23529412;"
         offset="0.06316455" />
      <stop
         offset="0.95056331"
         style="stop-color:#ffffff;stop-opacity:0.15686275;"
         id="stop3930-6-0" />
      <stop
         offset="1"
         style="stop-color:#ffffff;stop-opacity:0.39215687;"
         id="stop3932-4-7" />
    </linearGradient>
    <linearGradient
       inkscape:collect="always"
       xlink:href="#linearGradient3700"
       id="linearGradient3086"
       gradientUnits="userSpaceOnUse"
       gradientTransform="matrix(0.34095811,0,0,0.38248605,21.125215,23.594086)"
       x1="-46.404202"
       y1="59.45277"
       x2="-46.404202"
       y2="36.109875" />
    <linearGradient
       inkscape:collect="always"
       xlink:href="#linearGradient4111"
       id="linearGradient3088"
       gradientUnits="userSpaceOnUse"
       gradientTransform="matrix(0.31915031,0,0,0.35759104,0.2852735,32.676781)"
       x1="23.41884"
       y1="38.210312"
       x2="23.41884"
       y2="13.095257" />
    <radialGradient
       inkscape:collect="always"
       xlink:href="#linearGradient7612"
       id="radialGradient3091"
       gradientUnits="userSpaceOnUse"
       gradientTransform="matrix(0.40050236,0,0,0.09152169,-1.612057,42.417172)"
       cx="24"
       cy="41.875"
       fx="24"
       fy="41.875"
       r="19.125" />
    <linearGradient
       inkscape:collect="always"
       xlink:href="#linearGradient3924-9-4"
       id="linearGradient3095"
       gradientUnits="userSpaceOnUse"
       x1="-37.981304"
       y1="35.85318"
       x2="-37.981304"
       y2="59.606937" />
  </defs>
  <sodipodi:namedview
     id="base"
     pagecolor="#ffffff"
     bordercolor="#666666"
     borderopacity="1.0"
     inkscape:pageopacity="0.0"
     inkscape:pageshadow="2"
     inkscape:zoom="31.999999"
     inkscape:cx="8.7737281"
     inkscape:cy="4.1411284"
     inkscape:current-layer="layer1"
     showgrid="true"
     inkscape:grid-bbox="true"
     inkscape:document-units="px"
     inkscape:window-width="1280"
     inkscape:window-height="665"
     inkscape:window-x="0"
     inkscape:window-y="24"
     inkscape:window-maximized="1">
    <inkscape:grid
       type="xygrid"
       id="grid4684"
       empspacing="5"
       visible="true"
       enabled="true"
       snapvisiblegridlinesonly="true" />
  </sodipodi:namedview>
  <metadata
     id="metadata3663">
    <rdf:RDF>
      <cc:Work
         rdf:about="">
        <dc:format>image/svg+xml</dc:format>
        <dc:type
           rdf:resource="http://purl.org/dc/dcmitype/StillImage" />
        <dc:title />
      </cc:Work>
    </rdf:RDF>
  </metadata>
  <g
     id="layer1"
     inkscape:label="Layer 1"
     inkscape:groupmode="layer"
     transform="translate(0,-32)">
    <g
       id="layer2"
       style="display:none"
       transform="translate(-160.2052,-8.2218009)">
      <rect
         width="86"
         height="85"
         rx="6"
         ry="6"
         x="5"
         y="7"
         id="rect3745"
         style="opacity:0.9;fill:url(#ButtonShadow);fill-opacity:1;fill-rule:nonzero;stroke:none;filter:url(#filter3174)" />
    </g>
    <path
       inkscape:connector-curvature="0"
       d="M 15.659607,46.249645 C 15.659607,47.21634 12.230284,48 7.9999997,48 3.769715,48 0.34039193,47.21634 0.34039193,46.249645 c 0,-0.966693 3.42932307,-1.750354 7.65960777,-1.750354 4.2302843,0 7.6596073,0.783661 7.6596073,1.750354 l 0,0 z"
       id="path3087"
       style="opacity:0.5;fill:url(#radialGradient3091);fill-opacity:1;fill-rule:nonzero;stroke:none;stroke-width:4;marker:none;visibility:visible;display:inline;overflow:visible" />
    <path
       style="fill:url(#linearGradient3086);fill-opacity:1;stroke:url(#linearGradient3088);stroke-width:1px;stroke-linecap:butt;stroke-linejoin:miter;stroke-opacity:1"
       d="M 2.0902334,45.169547 C 1.0604841,43.133014 0.78812533,42.156757 0.50397814,38.747027 0.4502878,38.102749 0.94475791,37.67369 1.4410258,37.644933 5.203919,37.361565 9.0312069,37.452922 12.768776,38.018014 c 1.353433,0.249404 2.868911,0.263419 2.72126,2.074163 -0.241185,1.343695 -0.47239,4.148582 -1.691047,4.758731 -3.398936,1.41334 -6.9872047,1.491612 -10.1091899,1.729275 -0.764071,0.143366 -1.2974896,-0.814357 -1.5995657,-1.410636 z"
       id="path9703"
       inkscape:connector-curvature="0"
       sodipodi:nodetypes="cscccccc" />
    <path
       style="fill:#bdd1e3;fill-opacity:1;stroke:#bdd1e3;stroke-width:0.30000001;stroke-miterlimit:4;stroke-opacity:1;stroke-dasharray:none"
       id="path3672"
       inkscape:connector-curvature="0"
       d="m 11.25404,40.131187 c -0.107349,-5.88e-4 -0.217357,0.0139 -0.323054,0.04304 -0.25292,0.06975 -0.487892,0.21205 -0.683308,0.415392 -0.03546,0.0369 -0.06619,0.06672 -0.06853,0.06672 -0.0023,0 -0.02208,-0.02695 -0.04503,-0.06026 -0.05566,-0.0808 -0.154376,-0.186888 -0.2290747,-0.245362 -0.119975,-0.09392 -0.289305,-0.171927 -0.4385706,-0.202315 -0.089537,-0.01823 -0.3308459,-0.01867 -0.4170337,-0.0021 -0.3123157,0.05984 -0.5798071,0.21446 -0.8184042,0.475656 -0.1359989,0.14888 -0.2256291,0.291103 -0.3073909,0.486417 -0.034138,0.08621 -0.034711,0.08733 -0.043074,0.223838 -0.011774,0.19221 -0.031503,0.304361 -0.08419,0.464894 -0.01313,0.04 -0.027977,0.115546 -0.045032,0.236752 -0.014802,0.112065 -0.038685,0.294325 -0.076358,0.576813 -0.019299,0.144697 -0.026665,0.220353 -0.021536,0.223838 0.013261,0.009 0.075059,0.0021 0.1331374,-0.01507 0.044717,-0.01319 0.086527,-0.03354 0.1272634,-0.05811 0.014202,-0.0085 0.027549,-0.01819 0.041117,-0.02798 0.00588,-0.0042 0.011869,-0.0084 0.01762,-0.01291 0.013344,-0.01033 0.026566,-0.02082 0.039158,-0.03228 0.087362,-0.07953 0.1557192,-0.184422 0.1918748,-0.301321 0.00505,-0.01859 0.010494,-0.04036 0.015664,-0.06672 0.00252,-0.01331 0.0062,-0.03423 0.00979,-0.05596 0.00628,-0.03806 0.011106,-0.06987 0.01958,-0.126985 0.011808,-0.07959 0.024383,-0.166028 0.0372,-0.262579 0.03151,-0.237338 0.063989,-0.461071 0.072443,-0.497179 0.00845,-0.03611 0.034155,-0.105973 0.056779,-0.157117 0.1150141,-0.260005 0.3326746,-0.461117 0.5756242,-0.531615 0.052424,-0.01521 0.083986,-0.0191 0.1918745,-0.01937 0.1497913,-3.45e-4 0.2052286,0.01283 0.3113072,0.07318 0.1224934,0.06969 0.2427198,0.229118 0.2878113,0.380955 0.04891,0.164697 0.048199,0.213746 -0.021536,0.738235 -0.06034,0.453817 -0.066134,0.53941 -0.045032,0.628468 0.033262,0.140381 0.1402608,0.268863 0.266275,0.320691 0.043162,0.01775 0.1422083,0.0343 0.1546743,0.02583 0.004,-0.0027 0.04748,-0.314026 0.0979,-0.693037 0.08918,-0.670384 0.10549,-0.772888 0.137053,-0.860916 0.08952,-0.249666 0.300113,-0.47675 0.526677,-0.568204 0.09749,-0.03935 0.134767,-0.0449 0.268233,-0.0452 0.151138,-3.45e-4 0.190427,0.0078 0.299559,0.06672 0.115203,0.06219 0.217408,0.181769 0.278022,0.322843 0.04504,0.104834 0.05312,0.152755 0.05286,0.303473 -1.98e-4,0.122717 -0.0039,0.166084 -0.05482,0.538071 -0.06305,0.460855 -0.06543,0.521628 -0.02937,0.628468 0.04786,0.141802 0.16179,0.258858 0.28977,0.294864 0.04833,0.01359 0.115912,0.01894 0.123348,0.01076 0.0025,-0.0027 0.02052,-0.130685 0.04112,-0.286255 0.04164,-0.314488 0.04312,-0.32069 0.05286,-0.32069 0.0038,0 0.01624,0.01997 0.02937,0.0452 0.06154,0.118242 0.192745,0.275932 0.29956,0.359431 0.116652,0.0912 0.265725,0.157831 0.418991,0.189403 0.07613,0.01568 0.121902,0.01791 0.501224,0.02152 0.229141,0.0022 0.424452,6.56e-4 0.434655,-0.0022 0.01792,-0.005 0.0178,-0.0071 0.01762,-0.07749 -1.26e-4,-0.04013 -0.0035,-0.08921 -0.0078,-0.109767 -0.02346,-0.111914 -0.108485,-0.233451 -0.203622,-0.288406 -0.08023,-0.04634 -0.130688,-0.05364 -0.328928,-0.05381 -0.181631,-1.51e-4 -0.260698,-0.01023 -0.350465,-0.04304 -0.140965,-0.05152 -0.282512,-0.19619 -0.350464,-0.359433 -0.100141,-0.240561 -0.06479,-0.551773 0.09202,-0.811412 0.04687,-0.0776 0.171552,-0.214597 0.246696,-0.271189 0.07442,-0.05605 0.167501,-0.105181 0.254528,-0.133441 0.06474,-0.02103 0.08017,-0.02174 0.299559,-0.02798 0.250739,-0.0072 0.280468,-0.01343 0.372002,-0.06026 0.100672,-0.05151 0.211693,-0.159364 0.266274,-0.260428 0.02981,-0.0552 0.05892,-0.139307 0.06265,-0.180792 l 0.0019,-0.03013 -0.395496,-0.0022 c -0.41124,-0.0025 -0.484731,0.0028 -0.618698,0.03444 -0.351427,0.08295 -0.702706,0.352504 -0.920215,0.708102 -0.05317,0.08693 -0.05603,0.08799 -0.08419,0 -0.08052,-0.251634 -0.279999,-0.496341 -0.505138,-0.61986 -0.145255,-0.07969 -0.318392,-0.121704 -0.497308,-0.12268 z" />
    <path
       style="fill:#85c226;fill-opacity:1;stroke:#85c226;stroke-width:0.30000001;stroke-miterlimit:4;stroke-opacity:1;stroke-dasharray:none"
       id="path3670"
       inkscape:connector-curvature="0"
       d="m 5.6681388,39.488356 c -0.033926,0 -0.039807,0.0028 -0.043074,0.01907 -0.00204,0.01018 -0.021862,0.161004 -0.045032,0.334974 -0.02317,0.17397 -0.044613,0.317551 -0.04699,0.320133 -0.00236,0.0026 -0.1686677,0.0079 -0.3700436,0.0106 -0.3581757,0.0048 -0.3684019,0.0044 -0.4581495,0.02544 -0.2902117,0.0683 -0.5408548,0.221171 -0.783162,0.477019 l -0.086148,0.08904 -0.013704,-0.02332 C 3.7319509,40.584163 3.6644519,40.496151 3.5712243,40.412712 3.4320738,40.288171 3.2782427,40.21512 3.0856639,40.183743 c -0.060482,-0.0099 -0.1600513,-0.01268 -0.487518,-0.01272 -0.3682967,-4.1e-5 -0.410947,0.001 -0.4150758,0.01272 -0.00862,0.02431 -0.00488,0.155534 0.00587,0.199288 0.031496,0.128119 0.120162,0.232019 0.2388643,0.281971 0.039897,0.01679 0.060195,0.01989 0.2584435,0.02544 0.236793,0.0066 0.2884605,0.01489 0.3817912,0.05724 0.1531226,0.0695 0.2829284,0.237115 0.3269698,0.424018 0.029135,0.123637 0.017729,0.303624 -0.027412,0.447338 -0.094315,0.300268 -0.3500763,0.558433 -0.634361,0.640265 -0.0662,0.01905 -0.092465,0.02178 -0.3015173,0.02756 -0.2411612,0.0066 -0.2678613,0.01063 -0.3563385,0.053 -0.093936,0.04498 -0.1995334,0.140618 -0.2623595,0.23745 -0.040327,0.06216 -0.082993,0.160869 -0.086148,0.203528 l -0.00195,0.02756 0.3739597,0.0043 c 0.3884401,0.0025 0.4884519,-0.0027 0.6206558,-0.0318 0.2771453,-0.06097 0.5478189,-0.226155 0.7851196,-0.479139 0.041555,-0.0443 0.075345,-0.08057 0.076358,-0.08057 0.00102,0 0.019015,0.02897 0.039158,0.06572 0.1216531,0.22196 0.3059368,0.384553 0.5286342,0.464299 0.1511122,0.05412 0.1760254,0.05578 0.650024,0.05936 l 0.426823,0.0043 0.00783,-0.0212 c 0.011269,-0.03209 0.00906,-0.134767 -0.00392,-0.188688 -0.033851,-0.140729 -0.1279224,-0.251121 -0.2525691,-0.294691 -0.044859,-0.01568 -0.077069,-0.01788 -0.2760647,-0.02332 -0.253009,-0.007 -0.2861674,-0.01261 -0.3954968,-0.0742 -0.179735,-0.10125 -0.3032011,-0.327309 -0.3034753,-0.555464 -1.251e-4,-0.119346 0.038062,-0.292448 0.088106,-0.400695 0.089598,-0.193806 0.2697443,-0.38434 0.4542342,-0.479139 0.1300199,-0.06681 0.2456088,-0.08691 0.4992653,-0.08692 0.1213895,-6e-6 0.1596642,-0.0043 0.2055801,-0.01695 0.069281,-0.01922 0.1267512,-0.04552 0.1801274,-0.08481 0.022369,-0.01646 0.043361,-0.02968 0.045032,-0.02968 0.00797,0 -0.00217,0.07885 -0.054821,0.468539 -0.073339,0.542647 -0.072717,0.542875 -0.072442,0.678427 6.383e-4,0.309145 0.09911,0.564666 0.3073909,0.790793 0.117785,0.127876 0.2338258,0.209111 0.3857069,0.26713 0.060073,0.02295 0.1899365,0.05155 0.2584434,0.05936 0.059145,0.0068 0.2194874,0.0058 0.2799807,-0.0022 0.2759141,-0.03611 0.5143982,-0.145865 0.7459612,-0.345574 0.1735692,-0.149692 0.3105553,-0.326865 0.4111604,-0.532142 0.018211,-0.03716 0.034129,-0.06692 0.035242,-0.06572 -0.038442,0.235957 -0.00188,0.06092 0.025452,-0.08057 0.052686,-0.158131 0.072416,-0.268605 0.08419,-0.457939 l 0.00392,-0.127204 -0.013704,-0.09965 C 7.8415582,40.899598 7.7663099,40.722031 7.6338762,40.552622 7.5160236,40.401866 7.363097,40.286734 7.1933476,40.221888 7.0259743,40.157951 6.9081249,40.148069 6.4003963,40.147686 l -0.3406751,-0.0022 0.00587,-0.04241 c 0.02723,-0.230568 -0.0029,-0.350257 -0.1174741,-0.474899 -0.083241,-0.09057 -0.1812946,-0.139926 -0.27998,-0.139926 l 4.7e-6,-3e-6 z m 0.3250125,1.191487 0.4209497,0.0043 c 0.4741424,0.0035 0.4712394,0.0031 0.5952025,0.06784 0.2322026,0.121197 0.3695981,0.402196 0.3387178,0.691148 -0.023288,0.217916 -0.1030093,0.400985 -0.2369063,0.551222 -0.1404015,0.157535 -0.2797129,0.246198 -0.4444446,0.284091 -0.081218,0.01869 -0.2388712,0.02113 -0.3171805,0.0043 -0.2331224,-0.05028 -0.4257085,-0.27039 -0.4698974,-0.53426 -0.01777,-0.106111 -0.011576,-0.199334 0.045032,-0.623306 0.029828,-0.223424 0.058675,-0.415706 0.062653,-0.426138 l 0.00587,-0.01908 z" />
    <path
       style="fill:#d9822e;fill-opacity:1;stroke:none"
       d="m -59.272456,53.31627 43.0856,0 -3.784059,4.931009 c 0,0 -7.272832,-2.543811 -11.950339,-2.808726 -8.370953,-0.474097 -26.660703,-0.396737 -26.660703,-0.396737 z"
       id="path4006"
       inkscape:connector-curvature="0"
       sodipodi:nodetypes="cccscc"
       clip-path="url(#clipPath4072)"
       transform="matrix(0.34095807,0,0,0.3553816,21.125215,25.054114)" />
    <path
       sodipodi:type="inkscape:offset"
       inkscape:radius="0.13058607"
       inkscape:original="M -41.1875 39.40625 C -46.601781 39.258341 -52.018819 39.39204 -57.40625 39.75 C -56.614458 48.037472 -56.05247 49.855386 -53.1875 54.90625 C -52.77774 55.627272 -52.246763 56.444428 -51.84375 56.84375 C -51.440737 57.243072 -51.555369 57.113354 -51.625 57.125 A 3.0168832 3.0168832 0 0 1 -51.34375 57.09375 C -42.109503 56.467111 -31.987634 56.185625 -22.65625 52.75 C -22.338641 52.553378 -21.441699 51.308508 -20.84375 49.21875 C -20.242352 47.116937 -19.913754 44.664988 -19.53125 42.71875 C -19.514073 42.234713 -19.575475 41.998479 -19.59375 41.96875 C -19.615053 41.934095 -19.662044 41.831476 -20.0625 41.65625 C -20.847811 41.312624 -22.799182 41.062445 -24.90625 40.71875 C -30.270478 39.995776 -35.729147 39.555363 -41.1875 39.40625 z "
       style="opacity:0.5;fill:none;stroke:url(#linearGradient3095);stroke-width:2.72792745px;stroke-linecap:butt;stroke-linejoin:miter;stroke-opacity:1"
       id="path3093"
       d="m -45.25,39.21875 c -4.06345,-0.008 -8.112953,0.137599 -12.15625,0.40625 a 0.13059913,0.13059913 0 0 0 -0.03125,0 0.13059913,0.13059913 0 0 0 -0.03125,0 0.13059913,0.13059913 0 0 0 -0.03125,0.03125 0.13059913,0.13059913 0 0 0 -0.03125,0.03125 0.13059913,0.13059913 0 0 0 0,0.03125 0.13059913,0.13059913 0 0 0 0,0.03125 c 0.792176,8.291496 1.350761,10.162564 4.21875,15.21875 0.412762,0.726305 0.949452,1.547099 1.375,1.96875 0.101066,0.10014 0.174348,0.175005 0.21875,0.21875 0.0111,0.01094 0.02259,-0.0092 0.03125,0 8e-5,3.31e-4 2.1e-5,-0.0315 0,-0.03125 -2.1e-5,2.54e-4 0.03137,-0.06268 0.03125,-0.0625 -1.17e-4,1.83e-4 0.03146,-0.03137 0.03125,-0.03125 -1.04e-4,5.8e-5 -0.0098,-0.02771 0,-0.03125 0.02428,3.88e-4 0.04996,-0.0041 0.0625,0 -0.04612,0.0061 0.04612,-0.03733 0,-0.03125 -0.04615,0.0058 0.07741,-0.0058 0.03125,0 -0.04621,0.0054 0.07746,-0.0054 0.03125,0 -0.04626,0.0049 0.07751,-0.0049 0.03125,0 -0.04631,0.0045 0.07756,-0.0044 0.03125,0 -0.04635,0.004 0.0776,-0.004 0.03125,0 -0.04639,0.0035 0.07764,-0.0035 0.03125,0 -0.04642,0.0031 0.07767,-0.0031 0.03125,0 l 0,0.125 0,0.125 c 9.230451,-0.626381 19.360804,-0.898345 28.71875,-4.34375 a 0.13059913,0.13059913 0 0 0 0.03125,0 c 0.108449,-0.06714 0.231987,-0.191688 0.375,-0.375 0.143013,-0.183312 0.29671,-0.446733 0.46875,-0.75 0.34408,-0.606534 0.729411,-1.445112 1.03125,-2.5 0.605326,-2.115542 0.931269,-4.56024 1.3125,-6.5 a 0.13059913,0.13059913 0 0 0 0,-0.03125 c 0.0088,-0.248282 0.01649,-0.431243 0,-0.5625 -0.0082,-0.06563 -0.02183,-0.116615 -0.03125,-0.15625 -0.0094,-0.03963 -0.0034,-0.04838 -0.03125,-0.09375 -0.003,-0.0048 -0.0474,-0.09379 -0.125,-0.15625 -0.0776,-0.06246 -0.199164,-0.128136 -0.40625,-0.21875 -0.418384,-0.183071 -1.116532,-0.319796 -1.96875,-0.46875 -0.852218,-0.148954 -1.854069,-0.297123 -2.90625,-0.46875 -5.368893,-0.723603 -10.849506,-1.16326 -16.3125,-1.3125 -1.354701,-0.03701 -2.708017,-0.05982 -4.0625,-0.0625 z"
       transform="matrix(0.34095807,0,0,0.39412441,21.125214,23.046797)" />
  </g>
</svg>
