<?xml version="1.0" encoding="UTF-8" standalone="no"?>
<!-- Created with Inkscape (http://www.inkscape.org/) -->

<svg
   xmlns:dc="http://purl.org/dc/elements/1.1/"
   xmlns:cc="http://creativecommons.org/ns#"
   xmlns:rdf="http://www.w3.org/1999/02/22-rdf-syntax-ns#"
   xmlns:svg="http://www.w3.org/2000/svg"
   xmlns="http://www.w3.org/2000/svg"
   xmlns:sodipodi="http://sodipodi.sourceforge.net/DTD/sodipodi-0.dtd"
   xmlns:inkscape="http://www.inkscape.org/namespaces/inkscape"
   width="22"
   height="22"
   id="svg2"
   sodipodi:version="0.32"
   inkscape:version="0.48.1 r9760"
   version="1.0"
   sodipodi:docname="bitmap-trace.svg"
   inkscape:output_extension="org.inkscape.output.svg.inkscape">
  <sodipodi:namedview
     id="base"
     pagecolor="#ffffff"
     bordercolor="#666666"
     borderopacity="1.0"
     inkscape:pageopacity="0.0"
     inkscape:pageshadow="2"
     inkscape:zoom="4.0758077"
     inkscape:cx="93.32336"
     inkscape:cy="30.273036"
     inkscape:document-units="px"
     inkscape:current-layer="layer1"
     showgrid="false"
     inkscape:window-width="1024"
     inkscape:window-height="737"
     inkscape:window-x="0"
     inkscape:window-y="1" />
  <defs
     id="defs4" />
  <metadata
     id="metadata7">
    <rdf:RDF>
      <cc:Work
         rdf:about="">
        <dc:format>image/svg+xml</dc:format>
        <dc:type
           rdf:resource="http://purl.org/dc/dcmitype/StillImage" />
        <dc:title />
      </cc:Work>
    </rdf:RDF>
  </metadata>
  <g
     id="layer1"
     inkscape:groupmode="layer"
     inkscape:label="Layer 1"
     transform="translate(0,-26)">
    <g
       style="stroke:#444444;display:inline"
       id="selection_trace"
       transform="matrix(1.6845501,0,0,1.6844046,-341.96863,-109.6065)">
      <path
         d="m 205.79345,84.994922 -2.49885,-0.03057 0,8.312046 8.33333,0 0,-2.308574 m -5.8877,-4.513748 -0.77897,0 0,5.176398 5.15625,0 0,-0.783441 m 3.95997,-5.068707 c 0,1.813158 -1.47071,3.284716 -3.28285,3.284716 -1.81215,0 -3.28286,-1.471558 -3.28286,-3.284716 0,-1.813166 1.47071,-3.284715 3.28286,-3.284715 1.81214,0 3.28285,1.471549 3.28285,3.284715 z m 1.69368,-0.003 c 0,2.747057 -2.2295,4.976565 -4.97657,4.976565 -2.74706,0 -4.97656,-2.229508 -4.97656,-4.976565 0,-2.747066 2.2295,-4.976565 4.97656,-4.976565 2.74707,0 4.97657,2.229499 4.97657,4.976565 z"
         style="fill:none;stroke:#444444;stroke-width:0.58333308;stroke-linecap:round;stroke-linejoin:round;stroke-miterlimit:4;stroke-opacity:1;stroke-dasharray:none;stroke-dashoffset:0;marker:none;display:inline"
         id="path19127"
         inkscape:connector-curvature="0" />
    </g>
  </g>
</svg>
