<?xml version="1.0" encoding="UTF-8" standalone="no"?>
<!-- Created with Inkscape (http://www.inkscape.org/) -->

<svg
   xmlns:dc="http://purl.org/dc/elements/1.1/"
   xmlns:cc="http://creativecommons.org/ns#"
   xmlns:rdf="http://www.w3.org/1999/02/22-rdf-syntax-ns#"
   xmlns:svg="http://www.w3.org/2000/svg"
   xmlns="http://www.w3.org/2000/svg"
   xmlns:xlink="http://www.w3.org/1999/xlink"
   xmlns:sodipodi="http://sodipodi.sourceforge.net/DTD/sodipodi-0.dtd"
   xmlns:inkscape="http://www.inkscape.org/namespaces/inkscape"
   id="svg2876"
   height="22"
   width="22"
   version="1.1"
   inkscape:version="0.48.1 r9760"
   sodipodi:docname="bookmark-new.svg">
  <sodipodi:namedview
     pagecolor="#ffffff"
     bordercolor="#666666"
     borderopacity="1"
     objecttolerance="10"
     gridtolerance="10"
     guidetolerance="10"
     inkscape:pageopacity="0"
     inkscape:pageshadow="2"
     inkscape:window-width="1366"
     inkscape:window-height="688"
     id="namedview36"
     showgrid="true"
     inkscape:zoom="14.181818"
     inkscape:cx="0.10576923"
     inkscape:cy="11.669872"
     inkscape:window-x="0"
     inkscape:window-y="25"
     inkscape:window-maximized="1"
     inkscape:current-layer="svg2876">
    <inkscape:grid
       type="xygrid"
       id="grid3153" />
  </sodipodi:namedview>
  <defs
     id="defs2878">
    <linearGradient
       id="linearGradient2907"
       y2="35.051"
       gradientUnits="userSpaceOnUse"
       x2="23.47"
       gradientTransform="matrix(0.77056,0,0,0.77078,-4.5547,17.801)"
       y1="11.21"
       x1="23.47">
      <stop
         id="stop3644"
         style="stop-color:#fff"
         offset="0" />
      <stop
         id="stop3646"
         style="stop-color:#fff;stop-opacity:0"
         offset="1" />
    </linearGradient>
    <linearGradient
       id="linearGradient3683"
       y2="33.955"
       gradientUnits="userSpaceOnUse"
       x2="15.215"
       gradientTransform="matrix(0.48936,0,0,0.48936,1.7132,22.728)"
       y1="22.292"
       x1="11.566">
      <stop
         id="stop2687"
         style="stop-color:#fff;stop-opacity:.27451"
         offset="0" />
      <stop
         id="stop2689"
         style="stop-color:#fff;stop-opacity:0"
         offset="1" />
    </linearGradient>
    <radialGradient
       id="radialGradient2872"
       gradientUnits="userSpaceOnUse"
       cx="13.139"
       cy="25.625"
       r="13.931"
       gradientTransform="matrix(0,1.2347,-1.4763,0,45.159,-17.61)">
      <stop
         id="stop3692"
         style="stop-color:#ffeb9f"
         offset="0" />
      <stop
         id="stop3694"
         style="stop-color:#ffd57e"
         offset=".26238" />
      <stop
         id="stop3696"
         style="stop-color:#ffbc43"
         offset=".66094" />
      <stop
         id="stop3698"
         style="stop-color:#ff921a"
         offset="1" />
    </radialGradient>
    <linearGradient
       id="linearGradient2874"
       y2="9.58"
       gradientUnits="userSpaceOnUse"
       y1="36.255"
       gradientTransform="matrix(0.77056,0,0,0.77078,-5.5543,-12.199)"
       x2="21.483"
       x1="21.483">
      <stop
         id="stop3605"
         style="stop-color:#a7651c"
         offset="0" />
      <stop
         id="stop3607"
         style="stop-color:#c8a700"
         offset="1" />
    </linearGradient>
    <linearGradient
       y2="2.9062471"
       x2="-51.786404"
       y1="56.110264"
       x1="-53.412315"
       gradientTransform="matrix(0.3922241,0,0,0.4473604,28.199995,-1.2386918)"
       gradientUnits="userSpaceOnUse"
       id="linearGradient3344"
       xlink:href="#linearGradient2530"
       inkscape:collect="always" />
    <radialGradient
       r="8.999999"
       fy="6.6278195"
       fx="8.1203003"
       cy="6.6278195"
       cx="8.1203003"
       gradientTransform="matrix(0.0144407,2.0653761,-3.0521747,0.02133904,27.232431,-11.638467)"
       gradientUnits="userSpaceOnUse"
       id="radialGradient3342"
       xlink:href="#linearGradient3993"
       inkscape:collect="always" />
    <linearGradient
       y2="46.01725"
       x2="24"
       y1="1.9999999"
       x1="24"
       gradientTransform="matrix(0.4545567,0,0,0.465115,0.09087503,0.3372363)"
       gradientUnits="userSpaceOnUse"
       id="linearGradient3339"
       xlink:href="#linearGradient3211"
       inkscape:collect="always" />
    <linearGradient
       y2="5.4565363"
       x2="36.358372"
       y1="8.0590115"
       x1="32.892288"
       gradientTransform="matrix(0.4778466,0,0,0.5524833,-0.5835682,-0.08510685)"
       gradientUnits="userSpaceOnUse"
       id="linearGradient3335"
       xlink:href="#linearGradient8589"
       inkscape:collect="always" />
    <linearGradient
       y2="6.8388147"
       x2="33.8092"
       y1="5.8969078"
       x1="34.761452"
       gradientTransform="matrix(0.5155606,0,0,0.5130904,-1.8389471,0.151227)"
       gradientUnits="userSpaceOnUse"
       id="linearGradient3332"
       xlink:href="#linearGradient4267"
       inkscape:collect="always" />
    <linearGradient
       id="linearGradient3993">
      <stop
         offset="0"
         style="stop-color:#a3c0d0;stop-opacity:1"
         id="stop3995" />
      <stop
         offset="1"
         style="stop-color:#427da1;stop-opacity:1"
         id="stop4001" />
    </linearGradient>
    <linearGradient
       id="linearGradient2530">
      <stop
         offset="0"
         style="stop-color:#2e4a5a;stop-opacity:1"
         id="stop2532" />
      <stop
         offset="1"
         style="stop-color:#6e8796;stop-opacity:1"
         id="stop2501" />
    </linearGradient>
    <linearGradient
       id="linearGradient4267">
      <stop
         offset="0"
         style="stop-color:#c4c4c4;stop-opacity:1"
         id="stop4269" />
      <stop
         offset="1"
         style="stop-color:#c4c4c4;stop-opacity:0"
         id="stop4271" />
    </linearGradient>
    <linearGradient
       id="linearGradient8589">
      <stop
         offset="0"
         style="stop-color:#fefefe;stop-opacity:1"
         id="stop8591" />
      <stop
         offset="1"
         style="stop-color:#cbcbcb;stop-opacity:1"
         id="stop8593" />
    </linearGradient>
    <linearGradient
       id="linearGradient3211">
      <stop
         offset="0"
         style="stop-color:#ffffff;stop-opacity:1"
         id="stop3213" />
      <stop
         offset="1"
         style="stop-color:#ffffff;stop-opacity:0"
         id="stop3215" />
    </linearGradient>
    <linearGradient
       inkscape:collect="always"
       xlink:href="#linearGradient2907"
       id="linearGradient3143"
       gradientUnits="userSpaceOnUse"
       gradientTransform="matrix(0.77056,0,0,0.77078,-5.55431,-6.199)"
       x1="23.47"
       y1="11.21"
       x2="23.47"
       y2="35.051" />
    <linearGradient
       inkscape:collect="always"
       xlink:href="#linearGradient3683"
       id="linearGradient3146"
       gradientUnits="userSpaceOnUse"
       gradientTransform="matrix(0.48936,0,0,0.48936,0.71359,-1.272)"
       x1="11.566"
       y1="22.292"
       x2="15.215"
       y2="33.955" />
    <radialGradient
       inkscape:collect="always"
       xlink:href="#radialGradient2872"
       id="radialGradient3149"
       gradientUnits="userSpaceOnUse"
       gradientTransform="matrix(0,1.2347,-1.4763,0,45.159,-11.61)"
       cx="13.139"
       cy="25.625"
       r="13.931" />
    <linearGradient
       inkscape:collect="always"
       xlink:href="#linearGradient2874"
       id="linearGradient3151"
       gradientUnits="userSpaceOnUse"
       gradientTransform="matrix(0.77056,0,0,0.77078,-5.5543,-6.199)"
       x1="21.483"
       y1="36.255"
       x2="21.483"
       y2="9.58" />
  </defs>
  <metadata
     id="metadata2881">
    <rdf:RDF>
      <cc:Work
         rdf:about="">
        <dc:format>image/svg+xml</dc:format>
        <dc:type
           rdf:resource="http://purl.org/dc/dcmitype/StillImage" />
        <dc:title></dc:title>
      </cc:Work>
    </rdf:RDF>
  </metadata>
  <path
     inkscape:connector-curvature="0"
     d="m 11,1.4961 c 0.70891,0 2.9944,5.7107 3.5679,6.1275 0.57352,0.4168 6.7095,0.82636 6.9285,1.5008 0.21907,0.6744 -4.5043,4.6134 -4.7234,5.2878 -0.21906,0.6744 1.2876,6.6382 0.71412,7.055 -0.573,0.417 -5.778,-2.859 -6.487,-2.859 -0.70891,0 -5.9137,3.2763 -6.4872,2.8595 -0.5735,-0.418 0.9332,-6.3814 0.7141,-7.0558 -0.219,-0.6744 -4.9424,-4.6134 -4.7234,-5.2878 0.21909,-0.6744 6.355,-1.084 6.9286,-1.5008 0.5735,-0.4168 2.8589,-6.1275 3.5679,-6.1275 z"
     style="fill:url(#radialGradient3149);stroke:url(#linearGradient3151);stroke-width:0.99226999;stroke-linejoin:round"
     id="path1307" />
  <path
     inkscape:connector-curvature="0"
     d="m 10.96939,2.094 c -0.45703,0.69348 -1.6798,2.6292 -3.0312,5.8125 a 0.43671,0.43671 0 0 1 -0.344,0.282 c -2.1355,0.34821 -4.8092,0.71691 -6.5625,1.1562 1.1002,1.3189 2.3935,2.53 3.625,3.7812 l 15.156,-2.719 c 0.35324,-0.35381 0.69718,-0.69742 1.0625,-1.0625 -2.0515,-0.50749 -4.3657,-0.80824 -6.5,-1.1562 a 0.43671,0.43671 0 0 1 -0.34375,-0.25 c -1.0395,-2.4133 -2.5829,-5.037 -3.0625,-5.8438 z"
     style="opacity:0.8;fill:url(#linearGradient3146)"
     id="path3681" />
  <path
     inkscape:connector-curvature="0"
     d="M 11.00039,2.938 C 10.711,3.43039 10.38195,4.1035 10.03164,4.813 9.66973,5.54599 9.28478,6.3245 8.96914,6.938 8.81124,7.244 8.67074,7.52 8.53154,7.75 8.39244,7.98 8.36834,8.139 8.00034,8.406 7.6319,8.67376 7.4498,8.65706 7.18784,8.7185 6.92588,8.77994 6.6226,8.81923 6.28159,8.87475 5.59958,8.98578 4.77949,9.10026 3.96909,9.2185 3.19488,9.33146 2.46359,9.44039 1.90659,9.56225 c 0.37803,0.42586 0.90754,0.98335 1.4688,1.5312 0.58458,0.57072 1.1709,1.1352 1.6562,1.625 0.24269,0.2449 0.4495,0.48405 0.625,0.6875 0.1755,0.20345 0.32836,0.28655 0.46875,0.71875 0.14071,0.43317 0.085066,0.57559 0.0625,0.84375 -0.0226,0.269 -0.0724,0.565 -0.125,0.907 -0.1053,0.683 -0.2681,1.505 -0.4063,2.313 -0.1323,0.773 -0.2563,1.525 -0.3124,2.093 0.5253,-0.229 1.2034,-0.567 1.9062,-0.937 0.7259,-0.382 1.4762,-0.782 2.094,-1.094 0.30879,-0.15604 0.56429,-0.30164 0.8125,-0.40625 0.24821,-0.10461 0.38716,-0.1875 0.84375,-0.1875 0.45659,0 0.59554,0.08289 0.84375,0.1875 0.24821,0.10461 0.50371,0.25021 0.8125,0.40625 0.61757,0.31209 1.3679,0.71173 2.0938,1.0938 0.70275,0.36985 1.3809,0.70796 1.9062,0.9375 -0.05615,-0.56796 -0.18016,-1.3203 -0.3125,-2.0938 -0.13814,-0.80738 -0.30096,-1.6295 -0.40625,-2.3125 -0.05265,-0.34152 -0.10243,-0.63809 -0.125,-0.90625 -0.02257,-0.26816 -0.0782,-0.41058 0.0625,-0.84375 0.14039,-0.4322 0.29325,-0.5153 0.46875,-0.71875 0.1755,-0.20345 0.38231,-0.4426 0.625,-0.6875 0.48538,-0.4898 1.0717,-1.0543 1.6562,-1.625 0.56121,-0.5479 1.0907,-1.1054 1.4688,-1.5312 -0.55696,-0.12186 -1.2883,-0.23079 -2.0625,-0.34375 -0.811,-0.118 -1.631,-0.233 -2.313,-0.344 -0.341,-0.056 -0.645,-0.095 -0.907,-0.156 -0.261,-0.062 -0.444,-0.045 -0.812,-0.313 -0.368,-0.267 -0.392,-0.426 -0.531,-0.656 -0.139,-0.23 -0.28,-0.506 -0.438,-0.812 -0.315,-0.614 -0.7,-1.393 -1.062,-2.126 -0.351,-0.709 -0.68,-1.382 -0.969,-1.874 z"
     style="opacity:0.4;fill:none;stroke:url(#linearGradient3143);stroke-width:0.99226999;stroke-linejoin:round"
     id="path2903" />
  <g
     id="g3127"
     transform="matrix(0.60918882,0,0,0.60918882,9.8011043,8.5852529)">
    <path
       d="m 2.4999674,0.4999679 c 3.8956854,0 7.6046606,0 11.5003496,0 0.683386,0.2372968 4.541448,3.1281681 5.500149,5.000036 0,5.7291531 3.9e-5,10.2708411 3.9e-5,15.9999961 -5.666847,0 -11.3336914,0 -17.0005376,0 0,-7.333356 0,-13.6666786 0,-21.0000321 l 0,0 z"
       id="path4160"
       style="fill:url(#radialGradient3342);fill-opacity:1;stroke:url(#linearGradient3344);stroke-width:0.99993485;stroke-linecap:butt;stroke-linejoin:round;stroke-miterlimit:4;stroke-opacity:1;stroke-dasharray:none;stroke-dashoffset:0;display:inline"
       inkscape:connector-curvature="0" />
    <path
       d="m 18.50044,5.6770395 c 0,5.2083015 0,9.6146565 0,14.8229605 -5.000136,0 -10.0002707,0 -15.0004072,0 0,-6.666666 0,-12.333332 0,-18.9999938 3.4373544,0 6.9566872,0 10.3940422,0"
       id="path2435"
       style="opacity:0.6;fill:none;stroke:url(#linearGradient3339);stroke-width:1.00001311;stroke-linecap:butt;stroke-linejoin:miter;stroke-miterlimit:4;stroke-opacity:1;stroke-dasharray:none;stroke-dashoffset:0;display:inline"
       inkscape:connector-curvature="0" />
    <path
       d="m 13.119651,0.99102115 c 1.156303,0.32876715 0.339059,4.61437895 0.339059,4.61437895 0,0 4.515388,-0.4277362 5.60771,1.1949961 C 20.555573,9.0126529 18.998195,6.1652241 18.892973,5.978699 18.137045,4.6386535 15.026633,1.431613 13.847564,1.0374915 13.759332,1.007999 13.563688,0.99102115 13.119651,0.99102115 z"
       id="path3370"
       style="opacity:0.2;fill:#000000;fill-opacity:1;fill-rule:evenodd;stroke:none;display:inline"
       inkscape:connector-curvature="0" />
    <path
       d="m 13.044177,0.99102115 c 1.526166,0 1,4.00000005 1,4.00000005 0,0 4.992074,-0.45326 4.992074,2 0,-0.5977419 0.05575,-1.4784338 -0.06407,-1.6559326 C 18.133074,4.0920828 15.228416,1.4732015 14.174112,1.0374915 14.088132,1.0019595 13.488214,0.9910212 13.044177,0.9910212 z"
       id="path3799"
       style="fill:url(#linearGradient3335);fill-opacity:1;fill-rule:evenodd;stroke:none;display:inline"
       inkscape:connector-curvature="0" />
    <path
       d="m 14.060935,0.46533805 c 0.725358,0.2435399 4.478321,3.04544845 5.495903,4.96656215 0,5.8798788 0,0.3372268 0,6.2171048 C -1.2954341,19.719368 1.5346429,0.46533805 14.060935,0.46533805 z"
       id="path3977"
       style="fill:none;stroke:url(#linearGradient3332);stroke-width:0.99992168;stroke-linecap:butt;stroke-linejoin:round;stroke-miterlimit:4;stroke-opacity:1;stroke-dasharray:none;stroke-dashoffset:0;display:inline"
       inkscape:connector-curvature="0" />
  </g>
</svg>
