<?xml version="1.0" encoding="UTF-8" standalone="no"?>
<!-- Created with Inkscape (http://www.inkscape.org/) -->

<svg
   xmlns:dc="http://purl.org/dc/elements/1.1/"
   xmlns:cc="http://creativecommons.org/ns#"
   xmlns:rdf="http://www.w3.org/1999/02/22-rdf-syntax-ns#"
   xmlns:svg="http://www.w3.org/2000/svg"
   xmlns="http://www.w3.org/2000/svg"
   xmlns:xlink="http://www.w3.org/1999/xlink"
   xmlns:sodipodi="http://sodipodi.sourceforge.net/DTD/sodipodi-0.dtd"
   xmlns:inkscape="http://www.inkscape.org/namespaces/inkscape"
   id="svg2876"
   height="22"
   width="22"
   version="1.1"
   inkscape:version="0.48.1 r9760"
   sodipodi:docname="bookmark-new-list.svg">
  <sodipodi:namedview
     pagecolor="#ffffff"
     bordercolor="#666666"
     borderopacity="1"
     objecttolerance="10"
     gridtolerance="10"
     guidetolerance="10"
     inkscape:pageopacity="0"
     inkscape:pageshadow="2"
     inkscape:window-width="1366"
     inkscape:window-height="688"
     id="namedview36"
     showgrid="true"
     inkscape:zoom="14.181818"
     inkscape:cx="0.10576923"
     inkscape:cy="11.669872"
     inkscape:window-x="0"
     inkscape:window-y="25"
     inkscape:window-maximized="1"
     inkscape:current-layer="svg2876">
    <inkscape:grid
       type="xygrid"
       id="grid3153" />
  </sodipodi:namedview>
  <defs
     id="defs2878">
    <linearGradient
       id="linearGradient2907"
       y2="35.051"
       gradientUnits="userSpaceOnUse"
       x2="23.47"
       gradientTransform="matrix(0.77056,0,0,0.77078,-4.5547,17.801)"
       y1="11.21"
       x1="23.47">
      <stop
         id="stop3644"
         style="stop-color:#fff"
         offset="0" />
      <stop
         id="stop3646"
         style="stop-color:#fff;stop-opacity:0"
         offset="1" />
    </linearGradient>
    <linearGradient
       id="linearGradient3683"
       y2="33.955"
       gradientUnits="userSpaceOnUse"
       x2="15.215"
       gradientTransform="matrix(0.48936,0,0,0.48936,1.7132,22.728)"
       y1="22.292"
       x1="11.566">
      <stop
         id="stop2687"
         style="stop-color:#fff;stop-opacity:.27451"
         offset="0" />
      <stop
         id="stop2689"
         style="stop-color:#fff;stop-opacity:0"
         offset="1" />
    </linearGradient>
    <radialGradient
       id="radialGradient2872"
       gradientUnits="userSpaceOnUse"
       cx="13.139"
       cy="25.625"
       r="13.931"
       gradientTransform="matrix(0,1.2347,-1.4763,0,45.159,-17.61)">
      <stop
         id="stop3692"
         style="stop-color:#ffeb9f"
         offset="0" />
      <stop
         id="stop3694"
         style="stop-color:#ffd57e"
         offset=".26238" />
      <stop
         id="stop3696"
         style="stop-color:#ffbc43"
         offset=".66094" />
      <stop
         id="stop3698"
         style="stop-color:#ff921a"
         offset="1" />
    </radialGradient>
    <linearGradient
       id="linearGradient2874"
       y2="9.58"
       gradientUnits="userSpaceOnUse"
       y1="36.255"
       gradientTransform="matrix(0.77056,0,0,0.77078,-5.5543,-12.199)"
       x2="21.483"
       x1="21.483">
      <stop
         id="stop3605"
         style="stop-color:#a7651c"
         offset="0" />
      <stop
         id="stop3607"
         style="stop-color:#c8a700"
         offset="1" />
    </linearGradient>
    <linearGradient
       inkscape:collect="always"
       xlink:href="#linearGradient2907"
       id="linearGradient3143"
       gradientUnits="userSpaceOnUse"
       gradientTransform="matrix(0.77056,0,0,0.77078,-5.55431,-6.199)"
       x1="23.47"
       y1="11.21"
       x2="23.47"
       y2="35.051" />
    <linearGradient
       inkscape:collect="always"
       xlink:href="#linearGradient3683"
       id="linearGradient3146"
       gradientUnits="userSpaceOnUse"
       gradientTransform="matrix(0.48936,0,0,0.48936,0.71359,-1.272)"
       x1="11.566"
       y1="22.292"
       x2="15.215"
       y2="33.955" />
    <radialGradient
       inkscape:collect="always"
       xlink:href="#radialGradient2872"
       id="radialGradient3149"
       gradientUnits="userSpaceOnUse"
       gradientTransform="matrix(0,1.2347,-1.4763,0,45.159,-11.61)"
       cx="13.139"
       cy="25.625"
       r="13.931" />
    <linearGradient
       inkscape:collect="always"
       xlink:href="#linearGradient2874"
       id="linearGradient3151"
       gradientUnits="userSpaceOnUse"
       gradientTransform="matrix(0.77056,0,0,0.77078,-5.5543,-6.199)"
       x1="21.483"
       y1="36.255"
       x2="21.483"
       y2="9.58" />
    <linearGradient
       y2="5"
       x2="32.015705"
       y1="24.011269"
       x1="32.015705"
       gradientTransform="translate(-26,-2.9932616)"
       gradientUnits="userSpaceOnUse"
       id="linearGradient2874-4"
       xlink:href="#linearGradient3251"
       inkscape:collect="always" />
    <linearGradient
       y2="24.0341"
       x2="39.905758"
       y1="6.1230369"
       x1="39.905758"
       gradientTransform="translate(-26,-2.9932616)"
       gradientUnits="userSpaceOnUse"
       id="linearGradient2872"
       xlink:href="#linearGradient3243"
       inkscape:collect="always" />
    <linearGradient
       y2="22.697742"
       x2="38.382198"
       y1="5.90625"
       x1="38.382198"
       gradientTransform="translate(-26,-2.9932616)"
       gradientUnits="userSpaceOnUse"
       id="linearGradient2869"
       xlink:href="#linearGradient4222"
       inkscape:collect="always" />
    <linearGradient
       y2="7.0924568"
       x2="40.006763"
       y1="12.910877"
       x1="40.006763"
       gradientTransform="translate(-26,-2.9932616)"
       gradientUnits="userSpaceOnUse"
       id="linearGradient2866"
       xlink:href="#linearGradient4222"
       inkscape:collect="always" />
    <linearGradient
       y2="-0.02451775"
       x2="17.591623"
       y1="7"
       x1="17.591623"
       gradientTransform="translate(-2,0.00673838)"
       gradientUnits="userSpaceOnUse"
       id="linearGradient2863"
       xlink:href="#linearGradient3251"
       inkscape:collect="always" />
    <linearGradient
       id="linearGradient3243">
      <stop
         offset="0"
         style="stop-color:#fff4e9;stop-opacity:1"
         id="stop3245" />
      <stop
         offset="1"
         style="stop-color:#e7d6c5;stop-opacity:1"
         id="stop3247" />
    </linearGradient>
    <linearGradient
       id="linearGradient4222">
      <stop
         offset="0"
         style="stop-color:#ffffff;stop-opacity:1"
         id="stop4224" />
      <stop
         offset="1"
         style="stop-color:#ffffff;stop-opacity:0"
         id="stop4226" />
    </linearGradient>
    <linearGradient
       id="linearGradient3251">
      <stop
         offset="0"
         style="stop-color:#917f6e;stop-opacity:1"
         id="stop3253" />
      <stop
         offset="1"
         style="stop-color:#cbbaa9;stop-opacity:1"
         id="stop3255" />
    </linearGradient>
  </defs>
  <metadata
     id="metadata2881">
    <rdf:RDF>
      <cc:Work
         rdf:about="">
        <dc:format>image/svg+xml</dc:format>
        <dc:type
           rdf:resource="http://purl.org/dc/dcmitype/StillImage" />
        <dc:title></dc:title>
      </cc:Work>
    </rdf:RDF>
  </metadata>
  <path
     inkscape:connector-curvature="0"
     d="m 11,1.4961 c 0.70891,0 2.9944,5.7107 3.5679,6.1275 0.57352,0.4168 6.7095,0.82636 6.9285,1.5008 0.21907,0.6744 -4.5043,4.6134 -4.7234,5.2878 -0.21906,0.6744 1.2876,6.6382 0.71412,7.055 -0.573,0.417 -5.778,-2.859 -6.487,-2.859 -0.70891,0 -5.9137,3.2763 -6.4872,2.8595 -0.5735,-0.418 0.9332,-6.3814 0.7141,-7.0558 -0.219,-0.6744 -4.9424,-4.6134 -4.7234,-5.2878 0.21909,-0.6744 6.355,-1.084 6.9286,-1.5008 0.5735,-0.4168 2.8589,-6.1275 3.5679,-6.1275 z"
     style="fill:url(#radialGradient3149);stroke:url(#linearGradient3151);stroke-width:0.99226999;stroke-linejoin:round"
     id="path1307" />
  <path
     inkscape:connector-curvature="0"
     d="m 10.96939,2.094 c -0.45703,0.69348 -1.6798,2.6292 -3.0312,5.8125 a 0.43671,0.43671 0 0 1 -0.344,0.282 c -2.1355,0.34821 -4.8092,0.71691 -6.5625,1.1562 1.1002,1.3189 2.3935,2.53 3.625,3.7812 l 15.156,-2.719 c 0.35324,-0.35381 0.69718,-0.69742 1.0625,-1.0625 -2.0515,-0.50749 -4.3657,-0.80824 -6.5,-1.1562 a 0.43671,0.43671 0 0 1 -0.34375,-0.25 c -1.0395,-2.4133 -2.5829,-5.037 -3.0625,-5.8438 z"
     style="opacity:0.8;fill:url(#linearGradient3146)"
     id="path3681" />
  <path
     inkscape:connector-curvature="0"
     d="M 11.00039,2.938 C 10.711,3.43039 10.38195,4.1035 10.03164,4.813 9.66973,5.54599 9.28478,6.3245 8.96914,6.938 8.81124,7.244 8.67074,7.52 8.53154,7.75 8.39244,7.98 8.36834,8.139 8.00034,8.406 7.6319,8.67376 7.4498,8.65706 7.18784,8.7185 6.92588,8.77994 6.6226,8.81923 6.28159,8.87475 5.59958,8.98578 4.77949,9.10026 3.96909,9.2185 3.19488,9.33146 2.46359,9.44039 1.90659,9.56225 c 0.37803,0.42586 0.90754,0.98335 1.4688,1.5312 0.58458,0.57072 1.1709,1.1352 1.6562,1.625 0.24269,0.2449 0.4495,0.48405 0.625,0.6875 0.1755,0.20345 0.32836,0.28655 0.46875,0.71875 0.14071,0.43317 0.085066,0.57559 0.0625,0.84375 -0.0226,0.269 -0.0724,0.565 -0.125,0.907 -0.1053,0.683 -0.2681,1.505 -0.4063,2.313 -0.1323,0.773 -0.2563,1.525 -0.3124,2.093 0.5253,-0.229 1.2034,-0.567 1.9062,-0.937 0.7259,-0.382 1.4762,-0.782 2.094,-1.094 0.30879,-0.15604 0.56429,-0.30164 0.8125,-0.40625 0.24821,-0.10461 0.38716,-0.1875 0.84375,-0.1875 0.45659,0 0.59554,0.08289 0.84375,0.1875 0.24821,0.10461 0.50371,0.25021 0.8125,0.40625 0.61757,0.31209 1.3679,0.71173 2.0938,1.0938 0.70275,0.36985 1.3809,0.70796 1.9062,0.9375 -0.05615,-0.56796 -0.18016,-1.3203 -0.3125,-2.0938 -0.13814,-0.80738 -0.30096,-1.6295 -0.40625,-2.3125 -0.05265,-0.34152 -0.10243,-0.63809 -0.125,-0.90625 -0.02257,-0.26816 -0.0782,-0.41058 0.0625,-0.84375 0.14039,-0.4322 0.29325,-0.5153 0.46875,-0.71875 0.1755,-0.20345 0.38231,-0.4426 0.625,-0.6875 0.48538,-0.4898 1.0717,-1.0543 1.6562,-1.625 0.56121,-0.5479 1.0907,-1.1054 1.4688,-1.5312 -0.55696,-0.12186 -1.2883,-0.23079 -2.0625,-0.34375 -0.811,-0.118 -1.631,-0.233 -2.313,-0.344 -0.341,-0.056 -0.645,-0.095 -0.907,-0.156 -0.261,-0.062 -0.444,-0.045 -0.812,-0.313 -0.368,-0.267 -0.392,-0.426 -0.531,-0.656 -0.139,-0.23 -0.28,-0.506 -0.438,-0.812 -0.315,-0.614 -0.7,-1.393 -1.062,-2.126 -0.351,-0.709 -0.68,-1.382 -0.969,-1.874 z"
     style="opacity:0.4;fill:none;stroke:url(#linearGradient3143);stroke-width:0.99226999;stroke-linejoin:round"
     id="path2903" />
  <g
     id="g3210"
     transform="matrix(0.49999999,0,0,0.49999999,11.25,11.496631)">
    <path
       d="M 9.9999999,2.5067383 0.5,12.350488 l 8.2500001,8.15625 9.7499999,-9.5 0,-8.4999997 -8.5000001,0 z m 4.0000001,3 c 0.828,0 1.5,0.672 1.5,1.5 0,0.828 -0.672,1.5 -1.5,1.5 -0.828,0 -1.5,-0.672 -1.5,-1.5 0,-0.828 0.672,-1.5 1.5,-1.5 z"
       id="path2463"
       style="fill:url(#linearGradient2872);fill-opacity:1;fill-rule:evenodd;stroke:url(#linearGradient2874-4);stroke-width:1px;stroke-linecap:butt;stroke-linejoin:miter;stroke-opacity:1"
       inkscape:connector-curvature="0" />
    <path
       d="m 10.375,3.4129883 c -2.8645829,2.96875 -5.7291669,5.9375 -8.5937499,8.9062497 2.322917,2.291667 4.645833,4.583333 6.96875,6.875 2.9479169,-2.864583 5.8958329,-5.729167 8.8437499,-8.59375 0,-2.3958327 0,-4.7916667 0,-7.1874997 -2.40625,0 -4.8125,0 -7.21875,0 z"
       id="path3265"
       style="opacity:0.6;fill:none;stroke:url(#linearGradient2869);stroke-width:1px;stroke-linecap:butt;stroke-linejoin:miter;stroke-opacity:1"
       inkscape:connector-curvature="0" />
    <path
       d="m 14,4.6004883 c 1.513288,-0.05335 2.761066,1.553793 2.330349,3.00682 -0.319839,1.425818 -2.075515,2.247518 -3.372527,1.567994 -1.334998,-0.589688 -1.800348,-2.467087 -0.88534,-3.607246 C 12.516976,4.9665683 13.251129,4.5946953 14,4.6004883 z"
       id="path3294"
       style="opacity:0.6;fill:none;stroke:url(#linearGradient2866);stroke-width:1px;stroke-linecap:butt;stroke-linejoin:miter;stroke-opacity:1"
       inkscape:connector-curvature="0" />
    <path
       d="m 14.5,6.5067383 c 1.109018,-0.587219 2.554024,-0.767119 3.926872,-0.797739 0.617147,-0.01376 1.240944,0.1119 1.84653,-0.03214 0.770742,-0.18333 1.295983,-0.748013 1.219149,-1.264249 -0.103141,-0.692964 -1.034017,-1.204524 -1.907061,-1.570599 -0.774408,-0.324716 -1.370444,-0.903352 -1.685436,-1.514615 -0.159146,-0.308833 0.118786,-0.63311092 0.564593,-0.73266002 0.404996,-0.090436 0.829182,-0.1261828 1.241295,-0.034356 0.627242,0.1397617 1.367682,0.3102703 1.65947,0.75466002"
       id="path3298"
       style="fill:none;stroke:url(#linearGradient2863);stroke-width:0.99999994px;stroke-linecap:butt;stroke-linejoin:miter;stroke-opacity:1"
       inkscape:connector-curvature="0" />
  </g>
</svg>
