<?xml version="1.0" encoding="UTF-8" standalone="no"?>
<svg
   xmlns:dc="http://purl.org/dc/elements/1.1/"
   xmlns:cc="http://creativecommons.org/ns#"
   xmlns:rdf="http://www.w3.org/1999/02/22-rdf-syntax-ns#"
   xmlns:svg="http://www.w3.org/2000/svg"
   xmlns="http://www.w3.org/2000/svg"
   xmlns:sodipodi="http://sodipodi.sourceforge.net/DTD/sodipodi-0.dtd"
   xmlns:inkscape="http://www.inkscape.org/namespaces/inkscape"
   version="1.0"
   width="22"
   height="22"
   id="svg2"
   sodipodi:version="0.32"
   inkscape:version="0.48.1 r9760"
   sodipodi:docname="call-start.svg"
   inkscape:output_extension="org.inkscape.output.svg.inkscape">
  <sodipodi:namedview
     inkscape:window-height="688"
     inkscape:window-width="1366"
     inkscape:pageshadow="2"
     inkscape:pageopacity="0.0"
     guidetolerance="10.0"
     gridtolerance="10.0"
     objecttolerance="10.0"
     borderopacity="1.0"
     bordercolor="#666666"
     pagecolor="#ffffff"
     id="base"
     inkscape:zoom="6.8858447"
     inkscape:cx="-21.136761"
     inkscape:cy="2.647651"
     inkscape:window-x="0"
     inkscape:window-y="25"
     inkscape:current-layer="svg2"
     showgrid="false"
     inkscape:window-maximized="1" />
  <metadata
     id="metadata9">
    <rdf:RDF>
      <cc:Work
         rdf:about="">
        <dc:format>image/svg+xml</dc:format>
        <dc:type
           rdf:resource="http://purl.org/dc/dcmitype/StillImage" />
      </cc:Work>
    </rdf:RDF>
  </metadata>
  <defs
     id="defs7" />
  <path
     transform="matrix(1.000000,0.000000,0.000000,1.000000,0.000000,0.000000)"
     style="fill:#799c16;fill-opacity:1"
     inkscape:connector-curvature="0"
     id="path4"
     d="M8.0 20.0C7.5634984851 19.9956067355 7.26616030583 20.0000102887 6.95589460747 20.0C6.30519664815 19.9252116175 5.65449939426 19.727226634 5.06844034044 19.4192546801C4.27984797082 18.8869031745 3.62915071692 18.1609722963 3.16375146397 17.3074536104C2.87503200026 16.7575084696 2.81470250293 16.1239678401 3.0 15.5388230825C4.83574056281 9.58178221261 9.39062093698 4.9138200988 15.2124201505 3.0C15.8760446212 2.78881989303 16.6086188163 2.85921315913 17.2076046838 3.21557985329C17.6514566944 3.48395429606 18.0694540699 3.77872629078 18.427121948 4.12629369806C19.2588075931 4.94901673186 19.7931558652 6.00491798691 20.0 7.14881097892C20.0301617254 7.28519755903 19.9784544708 7.44358276787 19.8750318995 7.54917307857C19.8233246448 7.60196838825 19.7414425641 7.64156229834 19.6681867569 7.65476205174L15.2512031109 8.78545590768C15.0271215449 8.84705112155 14.7901126614 8.71066340968 14.7254740583 8.4774845711L14.3247141139 7.07401683474C14.3031685847 6.99042443256 14.2600775262 6.92883024755 14.2083642251 6.87603555519C14.4524722377 6.81082068238 14.1766793861 6.81961924904 14.0 7.0L14.0 7.0L6.95589128192 13.6469986287C6.77921199654 13.8273807172 6.77059499414 14.1089560451 6.9472246986 14.2893381336C7.00754512625 14.3509261454 7.08943244727 14.3905272576 7.17130727229 14.4125265036L8.01160820665 14.5753118703C8.22707146013 14.6281133532 8.36927417009 14.8172922593 8.36927910803 15.0284673248L8.27878385429 19.5380442298C8.27021804519 19.6524244647 8.22707760736 19.7580243438 8.14519834827 19.8416146883C8.07194455663 19.9164030708 7.96852017141 19.9604056784 7.86940509359 19.9823997801Z" />
</svg>
