<?xml version="1.0" encoding="UTF-8" standalone="no"?>
<!-- Created with Inkscape (http://www.inkscape.org/) -->

<svg
   xmlns:dc="http://purl.org/dc/elements/1.1/"
   xmlns:cc="http://creativecommons.org/ns#"
   xmlns:rdf="http://www.w3.org/1999/02/22-rdf-syntax-ns#"
   xmlns:svg="http://www.w3.org/2000/svg"
   xmlns="http://www.w3.org/2000/svg"
   xmlns:sodipodi="http://sodipodi.sourceforge.net/DTD/sodipodi-0.dtd"
   xmlns:inkscape="http://www.inkscape.org/namespaces/inkscape"
   width="22"
   height="22"
   id="svg10958"
   sodipodi:version="0.32"
   inkscape:version="0.48.1 r9760"
   version="1.0"
   sodipodi:docname="code-function.svg"
   inkscape:output_extension="org.inkscape.output.svg.inkscape"
   inkscape:export-filename="/home/andreas/project/inkscape/22x22/actions/align-horisontal-center.png"
   inkscape:export-xdpi="90"
   inkscape:export-ydpi="90"
   sodipodi:modified="true">
  <sodipodi:namedview
     id="base"
     pagecolor="#ffffff"
     bordercolor="#666666"
     borderopacity="1.0"
     inkscape:pageopacity="0.0"
     inkscape:pageshadow="2"
     inkscape:zoom="11.197802"
     inkscape:cx="-9.8896134"
     inkscape:cy="0.87927432"
     inkscape:current-layer="layer1"
     showgrid="true"
     inkscape:grid-bbox="true"
     inkscape:document-units="px"
     width="22px"
     height="22px"
     inkscape:window-width="1366"
     inkscape:window-height="688"
     inkscape:window-x="0"
     inkscape:window-y="25"
     inkscape:window-maximized="1"
     inkscape:snap-global="true">
    <inkscape:grid
       id="grid3021"
       type="xygrid" />
  </sodipodi:namedview>
  <defs
     id="defs10960" />
  <metadata
     id="metadata10963">
    <rdf:RDF>
      <cc:Work
         rdf:about="">
        <dc:format>image/svg+xml</dc:format>
        <dc:type
           rdf:resource="http://purl.org/dc/dcmitype/StillImage" />
        <dc:title></dc:title>
      </cc:Work>
    </rdf:RDF>
  </metadata>
  <g
     inkscape:groupmode="layer"
     inkscape:label="Layer 1"
     id="layer1">
    <g
       transform="matrix(1.000000,0.000000,0.000000,1.000000,-0.000000,-0.000000)"
       id="g3759">
      <text
         sodipodi:linespacing="125%"
         id="text2991"
         y="16.098534"
         x="5.6226411"
         style="font-size:20.39413071px;font-style:normal;font-variant:normal;font-weight:normal;font-stretch:normal;line-height:125%;letter-spacing:0px;word-spacing:0px;fill:#000000;fill-opacity:1;stroke:none;font-family:cmsy10;-inkscape-font-specification:cmsy10"
         xml:space="preserve"><tspan
           y="16.098534"
           x="5.6226411"
           sodipodi:role="line"
           id="tspan2985">s</tspan></text>
      <path
         transform="matrix(1.000000,0.000000,0.000000,1.000000,0.000000,0.000000)"
         style="fill:#000000;fill-opacity:1;fill-rule:nonzero;stroke:none"
         id="path2989"
         d="M7.0 11.0C7.02936582738 10.6166689414 7.16551943177 10.38137896 7.43150041811 10.1258122864C8.28797282197 9.47184370936 8.87042472717 9.08881491191 9.8445642936 9.14627252119C10.2761186275 9.18215189563 10.705000792 9.26431480167 11.1193616361 9.39582390786C11.4386961511 9.5030560731 11.7191250296 9.69447931969 12.0132454388 9.85738384766C12.431142132 10.0748339623 12.9041674672 10.1761534608 13.3704045473 10.1661664606C13.5048787517 10.1632913727 13.6387562881 10.1465038742 13.772931645 10.1366736579C14.1796600667 10.0673904997 14.5816048738 9.95360453381 14.9559489026 9.77003996857C15.0626939578 9.71769613928 15.3690424689 9.53200024013 15.2660273596 9.59200095621C14.3181065814 10.1441124902 14.1526272014 10.3271387572 14.5761917282 9.92543793269C14.742848013 9.7036141309 14.6714532328 9.82007188258 14.7922903359 9.5773676201C14.7922903359 9.5773676201 16.0 9.0 16.0 9.0L16.0 9.0C15.8903568426 9.27786604944 15.9589213003 9.14447941391 15.7922013435 9.39895861516C15.2605751892 9.98524019233 15.6286341769 9.61523909667 14.2580803314 10.4398514646C13.7961359755 10.7177858916 13.2660913511 10.8501723841 12.7443877567 10.9306446954C12.6045260808 10.9389361475 12.4648852029 10.9546145296 12.324802729 10.9554867473C11.8345017466 10.958609502 11.3414690307 10.8473662122 10.9009595402 10.6218796345C10.6111493137 10.4652782253 10.3305222304 10.2883050415 10.0171646662 10.1852324931C9.6129877452 10.0601830742 9.1967852403 9.97362871362 8.77480285961 9.95599333346C8.53957811194 9.95498629891 8.3203254816 9.96630079288 8.09148662319 10.0308835592C8.01910492731 10.0513111128 7.81568803302 10.1483036577 7.87778783306 10.1042867076C8.14509453173 9.91481701331 9.28327890729 9.23626083508 8.66506912364 9.60570306533C8.40525887688 9.79904432939 8.23637889938 10.0071810974 8.2117142211 10.352634757C8.2117142211 10.352634757 7.0 11.0 7.0 11.0Z"
         inkscape:connector-curvature="0" />
    </g>
  </g>
</svg>
