<?xml version="1.0" encoding="UTF-8" standalone="no"?>
<!-- Created with Inkscape (http://www.inkscape.org/) -->

<svg
   xmlns:dc="http://purl.org/dc/elements/1.1/"
   xmlns:cc="http://creativecommons.org/ns#"
   xmlns:rdf="http://www.w3.org/1999/02/22-rdf-syntax-ns#"
   xmlns:svg="http://www.w3.org/2000/svg"
   xmlns="http://www.w3.org/2000/svg"
   xmlns:xlink="http://www.w3.org/1999/xlink"
   xmlns:sodipodi="http://sodipodi.sourceforge.net/DTD/sodipodi-0.dtd"
   xmlns:inkscape="http://www.inkscape.org/namespaces/inkscape"
   version="1.0"
   width="22"
   height="22"
   id="svg2"
   inkscape:version="0.48.1 r9760"
   sodipodi:docname="configure-shortcuts.svg">
  <metadata
     id="metadata28">
    <rdf:RDF>
      <cc:Work
         rdf:about="">
        <dc:format>image/svg+xml</dc:format>
        <dc:type
           rdf:resource="http://purl.org/dc/dcmitype/StillImage" />
        <dc:title />
      </cc:Work>
    </rdf:RDF>
  </metadata>
  <sodipodi:namedview
     pagecolor="#ffffff"
     bordercolor="#666666"
     borderopacity="1"
     objecttolerance="10"
     gridtolerance="10"
     guidetolerance="10"
     inkscape:pageopacity="0"
     inkscape:pageshadow="2"
     inkscape:window-width="1366"
     inkscape:window-height="688"
     id="namedview26"
     showgrid="false"
     inkscape:zoom="11.666667"
     inkscape:cx="0.94285714"
     inkscape:cy="12"
     inkscape:window-x="0"
     inkscape:window-y="25"
     inkscape:window-maximized="1"
     inkscape:current-layer="svg2" />
  <defs
     id="defs4">
    <linearGradient
       id="linearGradient5128">
      <stop
         id="stop5130"
         style="stop-color:#eeeeee;stop-opacity:1"
         offset="0" />
      <stop
         id="stop5132"
         style="stop-color:#a2a2a2;stop-opacity:1"
         offset="1" />
    </linearGradient>
    <linearGradient
       x1="86.132919"
       y1="105.105"
       x2="84.63858"
       y2="20.895"
       id="linearGradient3241"
       xlink:href="#linearGradient5128"
       gradientUnits="userSpaceOnUse"
       gradientTransform="matrix(0.1562313,0,0,0.1562313,2.0012016,2.1574324)" />
    <linearGradient
       id="linearGradient3397">
      <stop
         id="stop3399"
         style="stop-color:#aaaaaa;stop-opacity:1"
         offset="0" />
      <stop
         id="stop3401"
         style="stop-color:#8c8c8c;stop-opacity:1"
         offset="1" />
    </linearGradient>
    <linearGradient
       x1="40"
       y1="1"
       x2="40"
       y2="23.019524"
       id="linearGradient3228"
       xlink:href="#linearGradient3397"
       gradientUnits="userSpaceOnUse"
       gradientTransform="translate(-24.5,0)" />
    <linearGradient
       x1="63.9995"
       y1="3.1001"
       x2="63.9995"
       y2="122.8994"
       id="linearGradient3309"
       gradientUnits="userSpaceOnUse">
      <stop
         id="stop3311"
         style="stop-color:#f6f6f6;stop-opacity:1"
         offset="0" />
      <stop
         id="stop3313"
         style="stop-color:#d2d2d2;stop-opacity:1"
         offset="1" />
    </linearGradient>
    <linearGradient
       x1="34"
       y1="1"
       x2="34"
       y2="23.00024"
       id="linearGradient3218"
       xlink:href="#linearGradient3309"
       gradientUnits="userSpaceOnUse"
       gradientTransform="translate(-24.5,0)" />
    <linearGradient
       id="linearGradient10691">
      <stop
         id="stop10693"
         style="stop-color:#000000;stop-opacity:1"
         offset="0" />
      <stop
         id="stop10695"
         style="stop-color:#000000;stop-opacity:0"
         offset="1" />
    </linearGradient>
    <radialGradient
       cx="6.702713"
       cy="73.615715"
       r="7.228416"
       fx="6.702713"
       fy="73.615715"
       id="radialGradient2411"
       xlink:href="#linearGradient10691"
       gradientUnits="userSpaceOnUse"
       gradientTransform="matrix(1.660115,0,0,0.3458573,0.8727276,-3.9605294)" />
    <linearGradient
       y2="12.95892"
       x2="16.419912"
       y1="14.548307"
       x1="46.017906"
       gradientTransform="matrix(0.4170375,0.541428,-0.5808166,0.4473767,15.482462,-8.7130884)"
       gradientUnits="userSpaceOnUse"
       id="linearGradient2443"
       xlink:href="#linearGradient3391"
       inkscape:collect="always" />
    <linearGradient
       gradientTransform="matrix(0.4170375,0.541428,-0.5808166,0.4473767,15.482462,-8.7130884)"
       gradientUnits="userSpaceOnUse"
       xlink:href="#linearGradient3391"
       id="linearGradient3389"
       y2="12.95892"
       x2="16.419912"
       y1="14.548307"
       x1="46.017906" />
    <linearGradient
       gradientTransform="matrix(-0.4956085,0.3817448,-0.3558565,-0.4619985,35.618265,15.600967)"
       gradientUnits="userSpaceOnUse"
       xlink:href="#linearGradient3362"
       id="linearGradient3374"
       y2="36.353996"
       x2="35.998066"
       y1="31.247124"
       x1="35.998066" />
    <linearGradient
       gradientTransform="matrix(-0.4956085,0.3817448,-0.3558565,-0.4619985,35.618265,15.600967)"
       gradientUnits="userSpaceOnUse"
       xlink:href="#linearGradient3377"
       id="linearGradient3372"
       y2="36.353996"
       x2="31.270321"
       y1="10.819631"
       x1="31.270321" />
    <linearGradient
       id="linearGradient3362">
      <stop
         offset="0"
         style="stop-color:#ffffff;stop-opacity:1"
         id="stop3364" />
      <stop
         offset="1"
         style="stop-color:#ffffff;stop-opacity:0"
         id="stop3366" />
    </linearGradient>
    <linearGradient
       id="linearGradient3377">
      <stop
         offset="0"
         style="stop-color:#000000;stop-opacity:0.99607843"
         id="stop3379" />
      <stop
         offset="0.68190742"
         style="stop-color:#3e3e3e;stop-opacity:0.83529413"
         id="stop3381" />
      <stop
         offset="0.95274329"
         style="stop-color:#666666;stop-opacity:0.37254903"
         id="stop3383" />
      <stop
         offset="1"
         style="stop-color:#a1ba49;stop-opacity:0"
         id="stop3385" />
    </linearGradient>
    <linearGradient
       id="linearGradient3391">
      <stop
         offset="0"
         style="stop-color:#ffffff;stop-opacity:0"
         id="stop3393" />
      <stop
         offset="0.89122951"
         style="stop-color:#ffffff;stop-opacity:0.32156864"
         id="stop3395" />
      <stop
         offset="1"
         style="stop-color:#ffffff;stop-opacity:0"
         id="stop3397" />
    </linearGradient>
    <radialGradient
       inkscape:collect="always"
       xlink:href="#linearGradient10691"
       id="radialGradient3033"
       gradientUnits="userSpaceOnUse"
       gradientTransform="matrix(1.660115,0,0,0.3458573,0.8727276,-3.9605294)"
       cx="6.702713"
       cy="73.615715"
       fx="6.702713"
       fy="73.615715"
       r="7.228416" />
    <linearGradient
       inkscape:collect="always"
       xlink:href="#linearGradient3309"
       id="linearGradient3035"
       gradientUnits="userSpaceOnUse"
       gradientTransform="translate(-24.5,0)"
       x1="34"
       y1="1"
       x2="34"
       y2="23.00024" />
    <linearGradient
       inkscape:collect="always"
       xlink:href="#linearGradient3397"
       id="linearGradient3037"
       gradientUnits="userSpaceOnUse"
       gradientTransform="translate(-24.5,0)"
       x1="40"
       y1="1"
       x2="40"
       y2="23.019524" />
    <linearGradient
       inkscape:collect="always"
       xlink:href="#linearGradient5128"
       id="linearGradient3039"
       gradientUnits="userSpaceOnUse"
       gradientTransform="matrix(0.1562313,0,0,0.1562313,2.0012016,2.1574324)"
       x1="86.132919"
       y1="105.105"
       x2="84.63858"
       y2="20.895" />
    <linearGradient
       inkscape:collect="always"
       xlink:href="#linearGradient3377"
       id="linearGradient3041"
       gradientUnits="userSpaceOnUse"
       gradientTransform="matrix(-0.4956085,0.3817448,-0.3558565,-0.4619985,35.618265,15.600967)"
       x1="31.270321"
       y1="10.819631"
       x2="31.270321"
       y2="36.353996" />
    <linearGradient
       inkscape:collect="always"
       xlink:href="#linearGradient3362"
       id="linearGradient3043"
       gradientUnits="userSpaceOnUse"
       gradientTransform="matrix(-0.4956085,0.3817448,-0.3558565,-0.4619985,35.618265,15.600967)"
       x1="35.998066"
       y1="31.247124"
       x2="35.998066"
       y2="36.353996" />
    <linearGradient
       inkscape:collect="always"
       xlink:href="#linearGradient3391"
       id="linearGradient3045"
       gradientUnits="userSpaceOnUse"
       gradientTransform="matrix(0.4170375,0.541428,-0.5808166,0.4473767,15.482462,-8.7130884)"
       x1="46.017906"
       y1="14.548307"
       x2="16.419912"
       y2="12.95892" />
  </defs>
  <g
     id="g3022"
     transform="scale(0.91666664,0.91666664)">
    <g
       id="layer1">
      <g
         id="g2486">
        <path
           style="opacity:0.2;fill:url(#radialGradient3033);fill-opacity:1;fill-rule:nonzero;stroke:none;stroke-width:0.80000001;marker:none;visibility:visible;display:inline;overflow:visible"
           id="path10689"
           d="m 24.000001,21.5 c 0,1.380712 -5.372583,2.5 -12,2.5 C 5.3725835,24 3e-7,22.880712 3e-7,21.5 3e-7,20.119288 5.3725835,19 12.000001,19 c 6.627417,0 12,1.119288 12,2.5 z"
           inkscape:connector-curvature="0" />
        <path
           style="fill:url(#linearGradient3035);fill-opacity:1;fill-rule:nonzero;stroke:url(#linearGradient3037);stroke-width:1;stroke-linecap:butt;stroke-linejoin:round;stroke-miterlimit:4;stroke-opacity:1;stroke-dasharray:none;stroke-dashoffset:0;marker:none;visibility:visible;display:block;overflow:visible;enable-background:accumulate"
           id="rect2426"
           d="M 10.1875,1.5 C 9.799134,1.5 9.5,1.7991339 9.5,2.1875 l 0,1.6875 C 8.988333,4.0322247 8.496816,4.2537684 8.03125,4.5 L 6.84375,3.3125 c -0.274616,-0.2746162 -0.725384,-0.2746162 -1,0 L 3.3125,5.84375 c -0.274616,0.2746162 -0.274616,0.7253836 0,1 L 4.5,8.03125 C 4.253769,8.4968155 4.032225,8.9883329 3.875,9.5 l -1.6875,0 C 1.799134,9.5 1.5,9.7991344 1.5,10.1875 l 0,3.625 C 1.5,14.200866 1.799134,14.5 2.1875,14.5 l 1.6875,0 c 0.157225,0.511667 0.378769,1.003185 0.625,1.46875 l -1.1875,1.1875 c -0.274616,0.274616 -0.274616,0.725384 0,1 l 2.53125,2.53125 c 0.274616,0.274616 0.725384,0.274616 1,0 L 8.03125,19.5 C 8.496816,19.746232 8.988333,19.967775 9.5,20.125 l 0,1.6875 c 0,0.388366 0.299135,0.6875 0.6875,0.6875 l 3.625,0 c 0.388366,0 0.6875,-0.299134 0.6875,-0.6875 l 0,-1.6875 c 0.511667,-0.157225 1.003185,-0.378768 1.46875,-0.625 l 1.1875,1.1875 c 0.274616,0.274616 0.725384,0.274616 1,0 l 2.53125,-2.53125 c 0.274616,-0.274616 0.274616,-0.725384 0,-1 L 19.5,15.96875 C 19.746232,15.503185 19.967775,15.011667 20.125,14.5 l 1.6875,0 c 0.388366,0 0.6875,-0.299134 0.6875,-0.6875 l 0,-3.625 C 22.5,9.7991341 22.200866,9.5 21.8125,9.5 l -1.6875,0 C 19.967775,8.9883329 19.746232,8.4968155 19.5,8.03125 l 1.1875,-1.1875 c 0.274616,-0.2746162 0.274616,-0.7253837 0,-1 L 18.15625,3.3125 c -0.274616,-0.2746162 -0.725384,-0.2746162 -1,0 L 15.96875,4.5 C 15.503185,4.2537684 15.011667,4.0322247 14.5,3.875 l 0,-1.6875 C 14.5,1.7991341 14.200866,1.5 13.8125,1.5 l -3.625,0 z M 12,9 c 1.656,0 3,1.344 3,3 0,1.656 -1.344,3 -3,3 -1.656,0 -3,-1.344 -3,-3 0,-1.656 1.344,-3 3,-3 z"
           inkscape:connector-curvature="0" />
        <path
           style="opacity:0.05;fill:#000000;fill-opacity:1;stroke:none"
           id="path3315"
           d="m 12,6 c -3.3084557,-2e-7 -5.9999999,2.6915446 -5.9999999,6 0,3.308455 2.6915442,6 5.9999999,6 3.308455,-1e-6 6,-2.691545 6,-6 0,-3.3084554 -2.691545,-6 -6,-6 z m 0,2.7692308 c 1.783385,0 3.230769,1.4473842 3.230769,3.2307692 0,1.783385 -1.447384,3.230769 -3.230769,3.230769 -1.783385,0 -3.2307692,-1.447384 -3.2307692,-3.230769 0,-1.783385 1.4473842,-3.2307692 3.2307692,-3.2307692 z"
           inkscape:connector-curvature="0" />
        <path
           style="fill:none;stroke:url(#linearGradient3039);stroke-width:1;stroke-miterlimit:4;stroke-dasharray:none"
           id="path28"
           d="m 11.999999,5.4999995 c -3.5840997,0 -6.4999994,2.9158997 -6.4999994,6.4999995 C 5.4999996,15.5841 8.4158993,18.5 11.999999,18.5 15.584101,18.5 18.5,15.5841 18.5,11.999999 18.5,8.4158992 15.584101,5.4999995 11.999999,5.4999995 z"
           inkscape:connector-curvature="0" />
      </g>
    </g>
    <g
       id="layer1-1"
       transform="matrix(0.749219,0,0,0.749219,5.8978773,5.8978774)">
      <path
         inkscape:connector-curvature="0"
         d="M 0.57363001,9.4445265 C 19.940629,-6.4454859 29.68571,11.703246 19.29451,19.556878 L 22.345612,23.518037 9.5,23.507497 l 2.471867,-13.4574 c 0,0 3.051101,3.961159 3.051101,3.961159 7.17832,-5.0978033 1.036909,-16.3008862 -14.44933799,-4.5667295 z"
         id="path3503"
         style="fill:url(#linearGradient3041);fill-opacity:1;fill-rule:nonzero;stroke:url(#linearGradient3043);stroke-width:1.28657293;stroke-linecap:butt;stroke-linejoin:round;stroke-miterlimit:7;stroke-opacity:1;stroke-dasharray:none;stroke-dashoffset:0;marker:none;visibility:visible;display:block;overflow:visible" />
      <path
         inkscape:connector-curvature="0"
         d="m 15.341173,4.4048673 c 5.730654,-0.7951852 11.523102,8.3995297 2.550885,14.9699997 l 2.440881,3.168927 c 0,0 -9.657381,-0.07558 -9.657381,-0.07558 l 1.900075,-10.223433 c 0,0 2.265324,3.168927 2.265324,3.168927 7.478691,-5.5041372 3.057096,-11.5657435 0.500216,-11.0088407 z"
         id="path3505"
         style="opacity:0.4;fill:none;stroke:url(#linearGradient3045);stroke-width:1.28657293;stroke-linecap:butt;stroke-linejoin:miter;stroke-miterlimit:7;stroke-opacity:1;stroke-dasharray:none;stroke-dashoffset:0;marker:none;visibility:visible;display:block;overflow:visible" />
    </g>
  </g>
</svg>
