<?xml version="1.0" encoding="UTF-8" standalone="no"?>
<!-- Created with Inkscape (http://www.inkscape.org/) -->

<svg
   xmlns:dc="http://purl.org/dc/elements/1.1/"
   xmlns:cc="http://creativecommons.org/ns#"
   xmlns:rdf="http://www.w3.org/1999/02/22-rdf-syntax-ns#"
   xmlns:svg="http://www.w3.org/2000/svg"
   xmlns="http://www.w3.org/2000/svg"
   xmlns:xlink="http://www.w3.org/1999/xlink"
   xmlns:sodipodi="http://sodipodi.sourceforge.net/DTD/sodipodi-0.dtd"
   xmlns:inkscape="http://www.inkscape.org/namespaces/inkscape"
   width="22"
   height="22"
   id="svg2"
   sodipodi:version="0.32"
   inkscape:version="0.48.1 r9760"
   version="1.0"
   sodipodi:docname="configure.svg"
   inkscape:output_extension="org.inkscape.output.svg.inkscape">
  <defs
     id="defs4">
    <linearGradient
       inkscape:collect="always"
       id="linearGradient10691">
      <stop
         style="stop-color:#000000;stop-opacity:1;"
         offset="0"
         id="stop10693" />
      <stop
         style="stop-color:#000000;stop-opacity:0;"
         offset="1"
         id="stop10695" />
    </linearGradient>
    <radialGradient
       r="7.228416"
       fy="73.615715"
       fx="6.702713"
       cy="73.615715"
       cx="6.702713"
       gradientTransform="scale(1.902215,0.525703)"
       gradientUnits="userSpaceOnUse"
       id="radialGradient2693"
       xlink:href="#linearGradient10691"
       inkscape:collect="always" />
    <linearGradient
       id="XMLID_4_"
       gradientUnits="userSpaceOnUse"
       x1="63.9995"
       y1="3.1001"
       x2="63.9995"
       y2="122.8994">
      <stop
         offset="0"
         style="stop-color:#f2f2f2;stop-opacity:1"
         id="stop11" />
      <stop
         offset="1"
         style="stop-color:#d8d8d8;stop-opacity:1"
         id="stop13" />
    </linearGradient>
    <linearGradient
       inkscape:collect="always"
       xlink:href="#XMLID_4_"
       id="linearGradient2448"
       gradientUnits="userSpaceOnUse"
       gradientTransform="matrix(0.9180927,0,0,0.9165795,5.241614,6.3466243)"
       x1="63.9995"
       y1="3.1001"
       x2="63.9995"
       y2="122.8994" />
    <linearGradient
       inkscape:collect="always"
       id="linearGradient5128">
      <stop
         style="stop-color:#ffffff;stop-opacity:1"
         offset="0"
         id="stop5130" />
      <stop
         style="stop-color:#959595;stop-opacity:1"
         offset="1"
         id="stop5132" />
    </linearGradient>
    <linearGradient
       inkscape:collect="always"
       xlink:href="#linearGradient5128"
       id="linearGradient2445"
       gradientUnits="userSpaceOnUse"
       gradientTransform="matrix(0.8381479,0,0,0.8367667,10.358531,12.015681)"
       x1="86.132919"
       y1="105.105"
       x2="84.63858"
       y2="20.895" />
    <linearGradient
       inkscape:collect="always"
       xlink:href="#XMLID_5_"
       id="linearGradient2443"
       gradientUnits="userSpaceOnUse"
       gradientTransform="matrix(0.8381479,0,0,0.8367667,10.358531,12.015681)"
       spreadMethod="pad"
       x1="63.9995"
       y1="21.941401"
       x2="63.9995"
       y2="104.0591" />
    <linearGradient
       inkscape:collect="always"
       xlink:href="#XMLID_6_"
       id="linearGradient2440"
       gradientUnits="userSpaceOnUse"
       gradientTransform="matrix(0.9673189,0,0,0.9657246,2.0916024,3.1588325)"
       x1="49.273136"
       y1="22.274775"
       x2="49.373875"
       y2="102.04791" />
    <linearGradient
       y2="104.0591"
       x2="63.9995"
       y1="21.941401"
       x1="63.9995"
       gradientUnits="userSpaceOnUse"
       id="linearGradient2193">
      <stop
         id="stop2195"
         style="stop-color:#dddddd;stop-opacity:1"
         offset="0" />
      <stop
         id="stop2197"
         style="stop-color:#E8E9EF"
         offset="1" />
    </linearGradient>
    <linearGradient
       xlink:href="#linearGradient2193"
       y2="104.0591"
       x2="63.9995"
       y1="21.941401"
       x1="63.9995"
       gradientUnits="userSpaceOnUse"
       id="linearGradient2199"
       spreadMethod="pad">
      <stop
         id="stop2201"
         style="stop-color:#FCFCFD"
         offset="0" />
      <stop
         id="stop2203"
         style="stop-color:#cccccc;stop-opacity:1"
         offset="1" />
    </linearGradient>
    <linearGradient
       id="XMLID_5_"
       gradientUnits="userSpaceOnUse"
       x1="63.9995"
       y1="21.941401"
       x2="63.9995"
       y2="104.0591"
       xlink:href="#linearGradient2199"
       spreadMethod="pad">
      <stop
         offset="0"
         style="stop-color:#dadada;stop-opacity:1"
         id="stop24" />
      <stop
         offset="1"
         style="stop-color:#cccccc;stop-opacity:1"
         id="stop26" />
    </linearGradient>
    <linearGradient
       id="XMLID_6_"
       gradientUnits="userSpaceOnUse"
       x1="64"
       y1="21.523018"
       x2="64"
       y2="103.06695"
       xlink:href="#XMLID_5_"
       spreadMethod="pad">
      <stop
         offset="0"
         style="stop-color:#d9d9d9;stop-opacity:1"
         id="stop31" />
      <stop
         offset="1"
         style="stop-color:#cccccc;stop-opacity:1"
         id="stop33" />
    </linearGradient>
    <linearGradient
       inkscape:collect="always"
       xlink:href="#XMLID_6_"
       id="linearGradient2438"
       gradientUnits="userSpaceOnUse"
       gradientTransform="matrix(0.9673189,0,0,0.9657246,2.0916024,3.1588325)"
       spreadMethod="pad"
       x1="64"
       y1="21.523018"
       x2="64"
       y2="103.06695" />
    <radialGradient
       inkscape:collect="always"
       xlink:href="#linearGradient10691"
       id="radialGradient3046"
       gradientUnits="userSpaceOnUse"
       gradientTransform="scale(1.902215,0.525703)"
       cx="6.702713"
       cy="73.615715"
       fx="6.702713"
       fy="73.615715"
       r="7.228416" />
    <linearGradient
       inkscape:collect="always"
       xlink:href="#XMLID_4_"
       id="linearGradient3048"
       gradientUnits="userSpaceOnUse"
       gradientTransform="matrix(0.9180927,0,0,0.9165795,5.241614,6.3466243)"
       x1="63.9995"
       y1="3.1001"
       x2="63.9995"
       y2="122.8994" />
    <linearGradient
       inkscape:collect="always"
       xlink:href="#XMLID_5_"
       id="linearGradient3050"
       gradientUnits="userSpaceOnUse"
       gradientTransform="matrix(0.8381479,0,0,0.8367667,10.358531,12.015681)"
       spreadMethod="pad"
       x1="63.9995"
       y1="21.941401"
       x2="63.9995"
       y2="104.0591" />
    <linearGradient
       inkscape:collect="always"
       xlink:href="#linearGradient5128"
       id="linearGradient3052"
       gradientUnits="userSpaceOnUse"
       gradientTransform="matrix(0.8381479,0,0,0.8367667,10.358531,12.015681)"
       x1="86.132919"
       y1="105.105"
       x2="84.63858"
       y2="20.895" />
    <linearGradient
       inkscape:collect="always"
       xlink:href="#XMLID_6_"
       id="linearGradient3054"
       gradientUnits="userSpaceOnUse"
       gradientTransform="matrix(0.9673189,0,0,0.9657246,2.0916024,3.1588325)"
       spreadMethod="pad"
       x1="64"
       y1="21.523018"
       x2="64"
       y2="103.06695" />
    <linearGradient
       inkscape:collect="always"
       xlink:href="#XMLID_6_"
       id="linearGradient3056"
       gradientUnits="userSpaceOnUse"
       gradientTransform="matrix(0.9673189,0,0,0.9657246,2.0916024,3.1588325)"
       x1="49.273136"
       y1="22.274775"
       x2="49.373875"
       y2="102.04791" />
  </defs>
  <sodipodi:namedview
     id="base"
     pagecolor="#ffffff"
     bordercolor="#666666"
     borderopacity="1.0"
     gridtolerance="10000"
     guidetolerance="10"
     objecttolerance="10"
     inkscape:pageopacity="0.0"
     inkscape:pageshadow="2"
     inkscape:zoom="10.375"
     inkscape:cx="12"
     inkscape:cy="12"
     inkscape:document-units="px"
     inkscape:current-layer="layer1"
     showgrid="false"
     inkscape:window-width="1366"
     inkscape:window-height="688"
     inkscape:window-x="0"
     inkscape:window-y="25"
     inkscape:window-maximized="1" />
  <metadata
     id="metadata7">
    <rdf:RDF>
      <cc:Work
         rdf:about="">
        <dc:format>image/svg+xml</dc:format>
        <dc:type
           rdf:resource="http://purl.org/dc/dcmitype/StillImage" />
      </cc:Work>
    </rdf:RDF>
  </metadata>
  <g
     inkscape:label="Layer 1"
     inkscape:groupmode="layer"
     id="layer1"
     transform="translate(0,-2)">
    <g
       id="g3038"
       transform="matrix(0.91303704,0,0,0.91303704,0.05096686,2.0871111)">
      <path
         sodipodi:type="arc"
         style="opacity:0.4;fill:url(#radialGradient3046);fill-opacity:1;fill-rule:nonzero;stroke:none;stroke-width:0.80000001;marker:none;visibility:visible;display:inline;overflow:visible"
         id="path10689"
         sodipodi:cx="12.75"
         sodipodi:cy="38.700001"
         sodipodi:rx="13.75"
         sodipodi:ry="3.8"
         d="m 26.5,38.700001 c 0,2.098682 -6.156085,3.8 -13.75,3.8 -7.5939153,0 -13.75,-1.701318 -13.75,-3.8 0,-2.098682 6.1560847,-3.8 13.75,-3.8 7.593915,0 13.75,1.701318 13.75,3.8 z"
         transform="matrix(0.8301036,0,0,0.9223373,1.4161791,-15.199336)" />
      <path
         style="opacity:0.1;fill:#030303;overflow:visible"
         id="path6"
         d="m 116.1876,51.505584 -4.41878,0 c -1.1926,0 -2.57158,-0.990822 -2.95074,-2.119131 -0.0211,-0.05866 -2.74235,-6.635119 -2.74235,-6.635119 -0.56003,-1.124644 -0.28921,-2.795568 0.55361,-3.637904 l 3.12427,-3.11912 c 0.71795,-0.717683 1.11457,-1.674592 1.11457,-2.694745 0,-1.020154 -0.39662,-1.977063 -1.11457,-2.693828 L 97.452086,18.324486 c -0.71795,-0.716764 -1.676439,-1.11181 -2.698276,-1.112727 -1.021838,0 -1.980325,0.395047 -2.698274,1.112727 l -3.12427,3.119121 c -0.842808,0.840504 -2.517409,1.111811 -3.583315,0.580195 -0.05968,-0.0275 -6.646991,-2.743322 -6.646991,-2.743322 -1.189847,-0.400545 -2.182305,-1.777248 -2.182305,-2.967886 l 0,-4.412414 C 76.515901,9.7984631 74.803657,8.0890423 72.699389,8.0890423 l -17.396019,0 c -2.105189,0 -3.817431,1.7094208 -3.817431,3.8111377 l 0,4.412414 c 0,1.190638 -0.992457,2.567341 -2.122629,2.945886 -0.05876,0.022 -6.646073,2.737825 -6.646073,2.737825 -1.1265,0.559113 -2.801102,0.287806 -3.643911,-0.553614 l -3.124267,-3.118205 c -0.718868,-0.71768 -1.677355,-1.112727 -2.699194,-1.112727 -1.021836,0 -1.980326,0.395963 -2.698275,1.112727 L 18.249148,30.605737 c -1.488227,1.485777 -1.488227,3.902795 0,5.388573 l 3.124271,3.11912 c 0.841891,0.84142 1.113646,2.51326 0.581153,3.57741 -0.02754,0.05958 -2.74877,6.636036 -2.74877,6.636036 -0.401207,1.187886 -1.779264,2.177793 -2.971866,2.177793 l -3.273918,0 c -2.104269,9.15e-4 -4.9622914,1.710338 -4.9622914,3.812054 l 0,17.366436 c 0,2.101716 1.7122428,3.811137 3.8174294,3.811137 l 4.419699,0 c 1.192601,0 2.571575,0.989907 2.94983,2.119131 0.02203,0.05866 2.743261,6.635121 2.743261,6.635121 0.560037,1.124643 0.288282,2.795567 -0.553608,3.637904 l -3.124272,3.11912 c -1.488227,1.485776 -1.488227,3.902795 0,5.388572 L 30.552508,109.6754 c 0.71795,0.71675 1.676438,1.11274 2.698276,1.11274 1.022755,0 1.981242,-0.39599 2.699192,-1.11274 l 3.124269,-3.11913 c 0.84281,-0.84049 2.51741,-1.1118 3.583316,-0.58019 0.05968,0.0275 6.64699,2.74425 6.64699,2.74425 1.188931,0.40054 2.181388,1.77632 2.181388,2.96696 l 0,4.4115 c 0,2.10171 1.712242,3.81113 3.817431,3.81113 l 17.3951,0 c 2.104269,0 3.816512,-1.70942 3.816512,-3.81113 l 0,-4.4115 c 0,-1.19064 0.992458,-2.56733 2.123547,-2.94589 0.05876,-0.0211 6.646074,-2.73783 6.646074,-2.73783 1.1265,-0.5591 2.802019,-0.2887 3.643911,0.5527 l 3.124268,3.11913 c 0.71795,0.71675 1.676437,1.11274 2.698273,1.11274 1.021838,0 1.980327,-0.39599 2.698276,-1.11274 L 109.75085,97.394144 c 0.71796,-0.716766 1.11457,-1.673674 1.11457,-2.693828 0,-1.020152 -0.39661,-1.977062 -1.11457,-2.693826 l -3.12427,-3.119122 c -0.84281,-0.841421 -1.11364,-2.513261 -0.58114,-3.577409 0.0275,-0.05958 2.74876,-6.636038 2.74876,-6.636038 0.4012,-1.186969 1.77927,-2.177792 2.97186,-2.177792 l 4.41878,0 c 2.1052,0 3.81743,-1.709421 3.81743,-3.811139 l 0,-17.368267 c 0.003,-2.101716 -1.70948,-3.811139 -3.81467,-3.811139 z M 64.001379,80.215609 c -8.955995,0 -16.242897,-7.273977 -16.242897,-16.21521 0,-8.941235 7.286902,-16.216127 16.242897,-16.216127 8.956911,0 16.241978,7.274892 16.241978,16.216127 0,8.942149 -7.285067,16.21521 -16.241978,16.21521 z"
         transform="scale(0.1875,0.1875)"
         inkscape:connector-curvature="0" />
      <path
         style="fill:#626262;fill-opacity:1;stroke:#777777;stroke-width:5.32800007;stroke-linecap:round;stroke-linejoin:round;stroke-miterlimit:4;stroke-opacity:1;stroke-dasharray:none;overflow:visible"
         id="path8"
         d="m 116.1876,51.484504 -4.41878,0 c -1.1926,0 -2.57158,-0.992656 -2.95074,-2.122798 -0.0211,-0.05866 -2.74235,-6.645202 -2.74235,-6.645202 -0.56003,-1.126477 -0.28921,-2.800152 0.55361,-3.643404 l 3.12427,-3.12462 c 0.71795,-0.718598 1.11457,-1.677342 1.11457,-2.699327 0,-1.02107 -0.39662,-1.979813 -1.11457,-2.69841 L 97.452086,18.249327 c -0.71795,-0.718598 -1.676439,-1.114561 -2.698276,-1.114561 -1.021838,0 -1.980325,0.395963 -2.698274,1.114561 l -3.12427,3.123704 c -0.842808,0.842337 -2.517409,1.113644 -3.583315,0.581111 -0.05968,-0.0275 -6.646991,-2.747905 -6.646991,-2.747905 -1.189847,-0.401462 -2.182305,-1.78 -2.182305,-2.972469 l 0,-4.419747 C 76.515901,9.7086384 74.803657,7.9964676 72.699389,7.9964676 l -17.396019,0 c -2.105189,0 -3.817431,1.7121708 -3.817431,3.8175534 l 0,4.419747 c 0,1.192469 -0.992457,2.571924 -2.122629,2.950471 -0.05876,0.022 -6.646073,2.742406 -6.646073,2.742406 -1.1265,0.56003 -2.801102,0.288723 -3.643911,-0.553614 l -3.124267,-3.123704 c -0.718868,-0.718598 -1.677355,-1.114561 -2.699194,-1.114561 -1.021836,0 -1.980326,0.396879 -2.698275,1.114561 L 18.249148,30.550743 c -1.488227,1.488524 -1.488227,3.910128 0,5.397737 l 3.124271,3.12462 c 0.841891,0.842336 1.113646,2.516927 0.581153,3.583826 -0.02754,0.05958 -2.74877,6.647035 -2.74877,6.647035 -0.401207,1.18972 -1.779264,2.181459 -2.971866,2.181459 l -3.273918,0 c -2.104269,-9.16e-4 -4.9622914,1.711255 -4.9622914,3.816638 l 0,17.395764 c 0,2.104467 1.7122428,3.816639 3.8174294,3.816639 l 4.419699,0 c 1.192601,0 2.571575,0.991739 2.94983,2.122798 0.02203,0.05866 2.743261,6.645201 2.743261,6.645201 0.560037,1.126477 0.288282,2.801068 -0.553608,3.644323 l -3.124272,3.124618 c -1.488227,1.487609 -1.488227,3.910129 0,5.397739 l 12.302442,12.30142 c 0.71795,0.7186 1.676438,1.11456 2.698276,1.11456 1.022755,0 1.981242,-0.39596 2.699192,-1.11456 l 3.124269,-3.12371 c 0.84281,-0.84234 2.51741,-1.11457 3.583316,-0.58111 0.05968,0.0266 6.64699,2.7479 6.64699,2.7479 1.188931,0.40147 2.181388,1.77908 2.181388,2.97248 l 0,4.41882 c 0,2.10539 1.712242,3.81756 3.817431,3.81756 l 17.3951,0 c 2.104269,0 3.816512,-1.71217 3.816512,-3.81756 l 0,-4.41882 c 0,-1.1934 0.992458,-2.57194 2.123547,-2.95139 0.05876,-0.0211 6.646074,-2.74241 6.646074,-2.74241 1.1265,-0.56004 2.802019,-0.28781 3.643911,0.55362 l 3.124268,3.12371 c 0.71795,0.7186 1.676437,1.11456 2.698273,1.11456 1.021838,0 1.980327,-0.39596 2.698276,-1.11456 L 109.75085,97.448222 c 0.71796,-0.717681 1.11457,-1.676425 1.11457,-2.698411 0,-1.021985 -0.39661,-1.980728 -1.11457,-2.69841 l -3.12427,-3.124618 c -0.84281,-0.842339 -1.11364,-2.517846 -0.58114,-3.582911 0.0275,-0.0605 2.74876,-6.647035 2.74876,-6.647035 0.4012,-1.190637 1.77927,-2.182376 2.97186,-2.182376 l 4.41878,0 c 2.1052,0 3.81743,-1.712172 3.81743,-3.816639 l 0,-17.395764 c 0.003,-2.105383 -1.70948,-3.817554 -3.81467,-3.817554 z m -52.186221,30.0134 c -9.716174,0 -17.620035,-7.890834 -17.620035,-17.59008 0,-9.700161 7.903861,-17.590995 17.620035,-17.590995 9.715256,0 17.619117,7.890834 17.619117,17.590995 0,9.699246 -7.903861,17.59008 -17.619117,17.59008 z"
         transform="scale(0.1875,0.1875)"
         inkscape:connector-curvature="0" />
      <path
         style="fill:url(#linearGradient3048);overflow:visible"
         id="path15"
         d="m 116.09945,52.532156 -4.41325,0 c -1.63146,0 -3.38226,-1.257547 -3.9019,-2.802902 l -2.71296,-6.559043 c -0.72805,-1.451862 -0.38377,-3.574662 0.7712,-4.727718 l 3.11784,-3.113621 c 0.52696,-0.526116 0.81803,-1.228217 0.81803,-1.978896 0,-0.749761 -0.29013,-1.451861 -0.81803,-1.977978 L 96.679969,19.11183 c -0.525147,-0.526118 -1.230242,-0.815757 -1.980326,-0.815757 -0.750999,0 -1.455176,0.289639 -1.98216,0.815757 l -3.117843,3.11362 c -1.15496,1.152141 -3.281263,1.496774 -4.741949,0.767177 l -6.568953,-2.709408 c -1.542395,-0.516035 -2.802936,-2.263037 -2.802936,-3.892715 l 0,-4.405082 c 0,-1.542602 -1.25687,-2.7974009 -2.802021,-2.7974009 l -17.367557,0 c -1.546068,0 -2.802938,1.2547989 -2.802938,2.7974009 l 0,4.405082 c 0,1.629678 -1.259621,3.37668 -2.807527,3.895464 0,0 -6.569869,2.709408 -6.569869,2.709408 -1.454261,0.725932 -3.581481,0.382215 -4.735523,-0.769926 l -3.118762,-3.11362 c -0.526984,-0.526118 -1.230243,-0.815757 -1.98216,-0.815757 -0.751001,0 -1.45426,0.289639 -1.981245,0.815757 L 19.036874,31.372914 c -1.09253,1.09073 -1.09253,2.865228 0,3.955958 l 3.118761,3.113621 c 1.154042,1.15214 1.499245,3.275856 0.768443,4.734132 0,0 -2.713882,6.559045 -2.713882,6.559045 -0.516885,1.539854 -2.265852,2.796486 -3.899138,2.796486 l -3.265656,0 c -1.523117,0 -3.9477989,1.28046 -3.9477989,2.798317 l 0,17.338019 c 0,1.543521 1.2568689,2.798317 2.8020189,2.798317 l 4.412353,0 c 1.632369,0 3.382254,1.257547 3.900975,2.803819 l 2.7148,6.559043 c 0.72713,1.451862 0.382845,3.574661 -0.771197,4.727717 l -3.118761,3.112704 c -1.092529,1.09073 -1.092529,2.866146 0,3.955959 l 12.281326,12.261089 c 0.526067,0.52611 1.230244,0.81667 1.981245,0.81667 0.750999,0 1.455177,-0.28965 1.98216,-0.81667 l 3.11876,-3.11271 c 1.154043,-1.15305 3.281265,-1.49677 4.741951,-0.76809 0,0 6.569871,2.70849 6.569871,2.70849 1.542395,0.51603 2.801099,2.26395 2.801099,3.89363 l 0,4.40417 c 0,1.54351 1.25687,2.79832 2.802937,2.79832 l 17.36664,0 c 1.545151,0 2.802021,-1.25481 2.802021,-2.79832 l 0,-4.40417 c 0,-1.62968 1.260541,-3.37851 2.808444,-3.89546 0,-9.1e-4 6.569871,-2.70942 6.569871,-2.70942 1.45426,-0.72592 3.580563,-0.3822 4.735523,0.77085 l 3.117843,3.11271 c 0.526984,0.52611 1.231161,0.81667 1.98216,0.81667 0.750084,0 1.455179,-0.28965 1.980326,-0.81667 L 108.9613,96.626051 c 0.52698,-0.525201 0.81802,-1.228217 0.81802,-1.977978 0,-0.749763 -0.29012,-1.451864 -0.81802,-1.977981 l -3.11785,-3.112704 c -1.15497,-1.153056 -1.49924,-3.276773 -0.76936,-4.735049 l 2.71388,-6.558129 c 0.51689,-1.539854 2.26768,-2.797401 3.89914,-2.797401 l 4.41327,0 c 1.54514,0 2.80203,-1.254796 2.80203,-2.798317 l 0,-17.338019 c -9.1e-4,-1.542605 -1.2578,-2.798317 -2.80296,-2.798317 z M 63.999545,92.413451 c -15.642462,0 -28.369064,-12.705627 -28.369064,-28.322312 0,-15.616683 12.726602,-28.322309 28.369064,-28.322309 15.642462,0 28.369062,12.705626 28.369062,28.322309 0,15.616685 -12.7266,28.322312 -28.369062,28.322312 z"
         transform="scale(0.1875,0.1875)"
         inkscape:connector-curvature="0" />
      <path
         style="fill:url(#linearGradient3050);stroke:url(#linearGradient3052);stroke-width:5.33333349;stroke-miterlimit:4;stroke-dasharray:none;overflow:visible"
         id="path28"
         d="m 64.000003,29.918304 c -19.227953,0 -34.871147,15.617414 -34.871147,34.813679 0,19.196265 15.643194,34.813679 34.871147,34.813679 19.227954,0 34.871149,-15.617414 34.871149,-34.813679 0,-19.196265 -15.643195,-34.813679 -34.871149,-34.813679 z m 0,60.418741 c -14.165538,0 -25.647328,-11.462033 -25.647328,-25.605062 0,-14.14303 11.48179,-25.60506 25.647328,-25.60506 14.16554,0 25.647329,11.462865 25.647329,25.60506 0,14.142194 -11.481789,25.605062 -25.647329,25.605062 z"
         transform="scale(0.1875,0.1875)"
         inkscape:connector-curvature="0" />
      <path
         style="fill:url(#linearGradient3054);stroke:url(#linearGradient3056);stroke-width:0.96652138;stroke-opacity:1;overflow:visible"
         id="path35"
         d="m 64.000003,34.06202 c -16.561464,0 -29.986881,13.403291 -29.986881,29.937463 0,16.53417 13.425417,29.937462 29.986881,29.937462 16.561465,0 29.986882,-13.403292 29.986882,-29.937462 0,-16.534172 -13.425417,-29.937463 -29.986882,-29.937463 z m 0,49.734817 c -10.952951,0 -19.830035,-8.863422 -19.830035,-19.797354 0,-10.9349 8.877084,-19.797355 19.830035,-19.797355 10.951983,0 19.830035,8.862455 19.830035,19.797355 0,10.933932 -8.878052,19.797354 -19.830035,19.797354 z"
         transform="scale(0.1875,0.1875)"
         inkscape:connector-curvature="0" />
    </g>
  </g>
</svg>
