<?xml version="1.0" encoding="UTF-8" standalone="no"?>
<!-- Created with Inkscape (http://www.inkscape.org/) -->

<svg
   xmlns:dc="http://purl.org/dc/elements/1.1/"
   xmlns:cc="http://creativecommons.org/ns#"
   xmlns:rdf="http://www.w3.org/1999/02/22-rdf-syntax-ns#"
   xmlns:svg="http://www.w3.org/2000/svg"
   xmlns="http://www.w3.org/2000/svg"
   xmlns:xlink="http://www.w3.org/1999/xlink"
   xmlns:sodipodi="http://sodipodi.sourceforge.net/DTD/sodipodi-0.dtd"
   xmlns:inkscape="http://www.inkscape.org/namespaces/inkscape"
   id="svg2"
   height="22"
   width="22"
   version="1.0"
   inkscape:version="0.48.1 r9760"
   sodipodi:docname="document-edit-sign.svg">
  <metadata
     id="metadata58">
    <rdf:RDF>
      <cc:Work
         rdf:about="">
        <dc:format>image/svg+xml</dc:format>
        <dc:type
           rdf:resource="http://purl.org/dc/dcmitype/StillImage" />
        <dc:title />
      </cc:Work>
    </rdf:RDF>
  </metadata>
  <sodipodi:namedview
     pagecolor="#ffffff"
     bordercolor="#666666"
     borderopacity="1"
     objecttolerance="10"
     gridtolerance="10"
     guidetolerance="10"
     inkscape:pageopacity="0"
     inkscape:pageshadow="2"
     inkscape:window-width="1366"
     inkscape:window-height="690"
     id="namedview56"
     showgrid="true"
     inkscape:zoom="14.181818"
     inkscape:cx="-0.03525641"
     inkscape:cy="11.669872"
     inkscape:window-x="0"
     inkscape:window-y="24"
     inkscape:window-maximized="1"
     inkscape:current-layer="svg2">
    <inkscape:grid
       type="xygrid"
       id="grid3138" />
  </sodipodi:namedview>
  <defs
     id="defs4">
    <linearGradient
       id="linearGradient2889"
       y2="31.211"
       gradientUnits="userSpaceOnUse"
       x2="23.576"
       gradientTransform="matrix(.65657 -.65979 .73452 .73087 -21.951 5.3143)"
       y1="25.357"
       x1="23.576">
      <stop
         id="stop2541"
         style="stop-color:#181818"
         offset="0" />
      <stop
         id="stop2543"
         style="stop-color:#dbdbdb"
         offset=".13483" />
      <stop
         id="stop2545"
         style="stop-color:#a4a4a4"
         offset=".20224" />
      <stop
         id="stop2547"
         style="stop-color:#fff"
         offset=".26966" />
      <stop
         id="stop2549"
         style="stop-color:#8d8d8d"
         offset=".44650" />
      <stop
         id="stop2551"
         style="stop-color:#959595"
         offset=".57114" />
      <stop
         id="stop2553"
         style="stop-color:#cecece"
         offset=".72038" />
      <stop
         id="stop2555"
         style="stop-color:#181818"
         offset="1" />
    </linearGradient>
    <linearGradient
       id="linearGradient2891"
       y2="30"
       gradientUnits="userSpaceOnUse"
       x2="30.038"
       gradientTransform="matrix(.63801 -.64114 .85963 .85535 -24.357 1.9382)"
       y1="24.99"
       x1="30.038">
      <stop
         id="stop2559"
         style="stop-color:#565656"
         offset="0" />
      <stop
         id="stop2561"
         style="stop-color:#9a9a9a"
         offset=".5" />
      <stop
         id="stop2563"
         style="stop-color:#545454"
         offset="1" />
    </linearGradient>
    <linearGradient
       id="linearGradient2893"
       y2="30"
       gradientUnits="userSpaceOnUse"
       x2="30.038"
       gradientTransform="matrix(.63801 -.64114 .85963 .85535 -24.54 2.1218)"
       y1="24.99"
       x1="30.038">
      <stop
         id="stop2567"
         style="stop-color:#b1b1b1"
         offset="0" />
      <stop
         id="stop2569"
         style="stop-color:#fff"
         offset=".5" />
      <stop
         id="stop2571"
         style="stop-color:#8f8f8f"
         offset="1" />
    </linearGradient>
    <linearGradient
       id="linearGradient2895"
       y2="30"
       gradientUnits="userSpaceOnUse"
       x2="30.038"
       gradientTransform="matrix(.63801 -.64114 .85963 .85535 -23.722 1.3001)"
       y1="24.99"
       x1="30.038">
      <stop
         id="stop2575"
         style="stop-color:#565656"
         offset="0" />
      <stop
         id="stop2577"
         style="stop-color:#9a9a9a"
         offset=".5" />
      <stop
         id="stop2579"
         style="stop-color:#545454"
         offset="1" />
    </linearGradient>
    <linearGradient
       id="linearGradient2897"
       y2="30"
       gradientUnits="userSpaceOnUse"
       x2="30.038"
       gradientTransform="matrix(.63801 -.64114 .85963 .85535 -23.905 1.4837)"
       y1="24.99"
       x1="30.038">
      <stop
         id="stop2583"
         style="stop-color:#b1b1b1"
         offset="0" />
      <stop
         id="stop2585"
         style="stop-color:#fff"
         offset=".5" />
      <stop
         id="stop2587"
         style="stop-color:#8f8f8f"
         offset="1" />
    </linearGradient>
    <linearGradient
       id="linearGradient2899"
       y2="30"
       gradientUnits="userSpaceOnUse"
       x2="30.038"
       gradientTransform="matrix(.63801 -.64114 .85963 .85535 -23.084 .65899)"
       y1="24.99"
       x1="30.038">
      <stop
         id="stop2591"
         style="stop-color:#565656"
         offset="0" />
      <stop
         id="stop2593"
         style="stop-color:#9a9a9a"
         offset=".5" />
      <stop
         id="stop2595"
         style="stop-color:#545454"
         offset="1" />
    </linearGradient>
    <linearGradient
       id="linearGradient2901"
       y2="30"
       gradientUnits="userSpaceOnUse"
       x2="30.038"
       gradientTransform="matrix(.63801 -.64114 .85963 .85535 -23.267 .84260)"
       y1="24.99"
       x1="30.038">
      <stop
         id="stop2599"
         style="stop-color:#b1b1b1"
         offset="0" />
      <stop
         id="stop2601"
         style="stop-color:#fff"
         offset=".5" />
      <stop
         id="stop2603"
         style="stop-color:#8f8f8f"
         offset="1" />
    </linearGradient>
    <linearGradient
       id="linearGradient2903"
       y2="26.03"
       gradientUnits="userSpaceOnUse"
       x2="9"
       gradientTransform="matrix(.63801 -.64114 .85963 .85535 -24.6 2.1817)"
       y1="29.057"
       x1="9">
      <stop
         id="stop2607"
         style="stop-color:#ece5a5"
         offset="0" />
      <stop
         id="stop2609"
         style="stop-color:#fcfbf2"
         offset="1" />
    </linearGradient>
    <linearGradient
       id="linearGradient2905"
       y2="41.392"
       gradientUnits="userSpaceOnUse"
       x2="9.5221"
       gradientTransform="matrix(.56036 .024186 .024156 .55967 -1.3918 -1.4448)"
       y1="37.372"
       x1="5.5179">
      <stop
         id="stop2613"
         style="stop-color:#dbce48"
         offset="0" />
      <stop
         id="stop2615"
         style="stop-color:#c5b625"
         offset="1" />
    </linearGradient>
    <linearGradient
       y2="22.783224"
       x2="29.957399"
       y1="9.4436626"
       x1="18.570419"
       gradientTransform="matrix(1.02867,0,0,0.972129,-1.28033,1.18934)"
       gradientUnits="userSpaceOnUse"
       id="linearGradient3045"
       xlink:href="#linearGradient6617"
       inkscape:collect="always" />
    <linearGradient
       y2="49.895073"
       x2="43.14098"
       y1="5.9244628"
       x1="15.338736"
       gradientTransform="matrix(0.975728,0,0,0.931033,-0.132002,1.978392)"
       gradientUnits="userSpaceOnUse"
       id="linearGradient3043"
       xlink:href="#linearGradient6604"
       inkscape:collect="always" />
    <radialGradient
       r="14.6944"
       fy="20.479359"
       fx="26.887432"
       cy="20.479359"
       cx="26.887432"
       gradientTransform="matrix(1.135551,0,0,1.135551,-4.540325,-2.077433)"
       gradientUnits="userSpaceOnUse"
       id="radialGradient3041"
       xlink:href="#aigrd2"
       inkscape:collect="always" />
    <radialGradient
       r="13.2807"
       fy="20.971201"
       fx="28.789101"
       cy="20.971201"
       cx="28.789101"
       gradientTransform="matrix(1.310386,0,0,1.310386,-8.642682,-4.375977)"
       gradientUnits="userSpaceOnUse"
       id="radialGradient3039"
       xlink:href="#aigrd1"
       inkscape:collect="always" />
    <linearGradient
       y2="27.403761"
       x2="36.499001"
       y1="35.458244"
       x1="37.502811"
       gradientTransform="scale(0.843938,1.184922)"
       gradientUnits="userSpaceOnUse"
       id="linearGradient3037"
       xlink:href="#linearGradient6684"
       inkscape:collect="always" />
    <linearGradient
       y2="35.01786"
       x2="38.250904"
       y1="22.886259"
       x1="38.506161"
       gradientTransform="matrix(0.843938,0,0,1.184922,-1.28033,1.68934)"
       gradientUnits="userSpaceOnUse"
       id="linearGradient3035"
       xlink:href="#linearGradient6625"
       inkscape:collect="always" />
    <radialGradient
       r="33.156136"
       fy="19.818913"
       fx="24.452202"
       cy="19.818913"
       cx="24.452202"
       gradientTransform="matrix(1.024478,0,0,0.976107,0.939339,-0.530329)"
       gradientUnits="userSpaceOnUse"
       id="radialGradient3033"
       xlink:href="#linearGradient6665"
       inkscape:collect="always" />
    <radialGradient
       r="33.156136"
       fy="19.818913"
       fx="24.452202"
       cy="19.818913"
       cx="24.452202"
       gradientTransform="matrix(1.024478,0,0,0.976107,1.646447,-0.353552)"
       gradientUnits="userSpaceOnUse"
       id="radialGradient3031"
       xlink:href="#linearGradient6665"
       inkscape:collect="always" />
    <radialGradient
       id="aigrd2"
       cx="19.292"
       cy="13.5444"
       r="14.6944"
       fx="19.292"
       fy="13.5444"
       gradientUnits="userSpaceOnUse">
      <stop
         offset="0"
         style="stop-color:#E41E08"
         id="stop5122" />
      <stop
         offset="1"
         style="stop-color:#901505"
         id="stop5124" />
    </radialGradient>
    <radialGradient
       id="aigrd1"
       cx="28.789101"
       cy="20.971201"
       r="13.2807"
       fx="28.789101"
       fy="20.971201"
       gradientUnits="userSpaceOnUse">
      <stop
         offset="0"
         style="stop-color:#E41E08"
         id="stop5115" />
      <stop
         offset="1"
         style="stop-color:#901505"
         id="stop5117" />
    </radialGradient>
    <linearGradient
       id="linearGradient6604">
      <stop
         style="stop-color:#ffa196;stop-opacity:1.0000000;"
         offset="0.0000000"
         id="stop6606" />
      <stop
         style="stop-color:#ff1f06;stop-opacity:0;"
         offset="1"
         id="stop6608" />
    </linearGradient>
    <linearGradient
       id="linearGradient6617">
      <stop
         style="stop-color:#ffffff;stop-opacity:0.24742268;"
         offset="0.0000000"
         id="stop6619" />
      <stop
         style="stop-color:#ffffff;stop-opacity:0;"
         offset="1"
         id="stop6621" />
    </linearGradient>
    <linearGradient
       id="linearGradient6625">
      <stop
         style="stop-color:#1d2349;stop-opacity:1.0000000;"
         offset="0.0000000"
         id="stop6627" />
      <stop
         id="stop6637"
         offset="0.35315102"
         style="stop-color:#4c5279;stop-opacity:1.0000000;" />
      <stop
         id="stop6633"
         offset="0.46551725"
         style="stop-color:#b3bdff;stop-opacity:1.0000000;" />
      <stop
         style="stop-color:#727cbe;stop-opacity:1.0000000;"
         offset="0.64982164"
         id="stop6635" />
      <stop
         style="stop-color:#323c7e;stop-opacity:1.0000000;"
         offset="1.0000000"
         id="stop6629" />
    </linearGradient>
    <linearGradient
       id="linearGradient6665">
      <stop
         id="stop6667"
         offset="0.0000000"
         style="stop-color:#000000;stop-opacity:1.0000000;" />
      <stop
         id="stop6669"
         offset="1.0000000"
         style="stop-color:#000000;stop-opacity:0.0000000;" />
    </linearGradient>
    <linearGradient
       id="linearGradient6684">
      <stop
         style="stop-color:#d5dbff;stop-opacity:1.0000000;"
         offset="0.0000000"
         id="stop6686" />
      <stop
         style="stop-color:#6579ff;stop-opacity:0;"
         offset="1"
         id="stop6688" />
    </linearGradient>
  </defs>
  <g
     transform="matrix(0.41772382,0,0,0.41772382,0.94536975,1.4052989)"
     id="g3021">
    <path
       inkscape:connector-curvature="0"
       style="opacity:0.48044691;color:#000000;fill:url(#radialGradient3031);fill-opacity:1;fill-rule:nonzero;stroke:none;stroke-width:1;marker:none;visibility:visible;display:inline;overflow:visible"
       d="m 25.38911,19.305038 c 0,0 -5.904865,8.175967 -5.904865,11.923286 0,3.747318 6.813306,1.703326 9.538628,4.428649 2.725322,2.725322 -6.359086,9.765738 -6.359086,9.765738 l 9.084408,-2.498212 3.633764,3.860873 c 0,-4.655759 5.337089,-8.403077 2.611767,-11.241954 -2.838878,-2.838878 -10.90129,-2.498213 -11.35551,-6.245531 -0.454221,-3.747318 -1.135551,-9.879294 -1.135551,-9.879294 L 25.38911,19.305038 z"
       id="path6671" />
    <path
       inkscape:connector-curvature="0"
       style="opacity:0.48044691;fill:url(#radialGradient3033);fill-opacity:1;fill-rule:nonzero;stroke:none"
       d="m 36.91616,9.3946518 c 1.321528,3.0573762 3.643133,2.9018182 3.700549,6.9825152 0.03274,2.275762 1.832456,3.470743 1.832456,5.795517 0,2.324773 -4.015015,3.473472 -5.382529,4.840984 -1.367515,1.367516 0.107885,4.874427 -3.60203,5.904959 -3.674662,1.02074 -5.470058,-0.410252 -7.794832,-0.410252 -2.324776,0 -7.887818,4.482688 -9.939091,2.431415 -2.051272,-2.051271 -2.095036,-6.533959 -3.872804,-8.311727 -1.9145211,-1.914521 -4.9394355,-4.5894 -4.9394355,-8.008186 0,-3.418785 1.9742054,-5.223586 4.8026845,-8.401985 2.918275,-3.2793047 3.008531,-8.2050874 6.427317,-8.2050874 3.418785,0 4.729182,0.9378099 7.638964,0.864272 4.638337,-0.1172232 5.20674,-2.32332197 8.618072,-0.5935 3.007702,1.5251494 1.476157,4.7176933 2.510679,7.1110752 z"
       id="path6639"
       sodipodi:nodetypes="csssssssssssss" />
    <path
       inkscape:connector-curvature="0"
       id="path5112"
       d="m 23.62134,18.067599 c 0,0 -5.904865,8.175967 -5.904865,11.923286 0,3.747318 6.813306,1.703326 9.538628,4.428649 2.725322,2.725322 -6.359086,9.765738 -6.359086,9.765738 l 9.084408,-2.498212 3.633764,3.860873 c 0,-4.655759 5.337089,-8.403077 2.611767,-11.241954 -2.838878,-2.838878 -10.90129,-2.498213 -11.35551,-6.245531 -0.454221,-3.747318 -1.135551,-9.879294 -1.135551,-9.879294 L 23.62134,18.067599 z"
       style="fill:url(#linearGradient3035);fill-opacity:1;fill-rule:nonzero;stroke:#1f254f;stroke-width:1;stroke-miterlimit:6.5999999;stroke-opacity:1" />
    <path
       inkscape:connector-curvature="0"
       sodipodi:nodetypes="cscccsss"
       style="fill:none;stroke:url(#linearGradient3037);stroke-width:0.72112519;stroke-miterlimit:6.5999999;stroke-opacity:1"
       d="m 20.803213,31.602421 c 4.552,0.448384 7.429014,1.235525 7.806622,3.989107 0.330114,2.407239 -4.232143,6.732959 -4.232143,6.732959 l 5.843888,-1.624746 2.84137,2.96095 c 0.662912,-3.71094 4.364808,-6.222004 2.678906,-8.504604 -2.114688,-2.863148 -8.966049,-2.243467 -9.293599,-4.945752 -0.32755,-2.702286 -8.334061,1.124615 -5.645044,1.392086 z"
       id="path6680" />
    <path
       inkscape:connector-curvature="0"
       sodipodi:nodetypes="csssssssssssss"
       id="path5119"
       d="m 34.935485,9.2468088 c 1.266321,2.9296542 3.490941,2.7805952 3.545959,6.6908212 0.03138,2.180692 1.755905,3.325753 1.755905,5.553409 0,2.227656 -3.847288,3.328368 -5.157674,4.638753 -1.310387,1.310388 0.103378,4.670798 -3.451556,5.658279 -3.521153,0.978099 -5.241546,-0.393114 -7.469203,-0.393114 -2.227658,0 -7.558305,4.295424 -9.523886,2.329843 -1.96558,-1.965579 -2.007516,-6.261003 -3.711018,-7.964505 -1.8345421,-1.834542 -4.7330913,-4.397678 -4.7330913,-7.673644 0,-3.275966 1.8917331,-5.005371 4.6020533,-8.050993 2.796364,-3.1423108 2.88285,-7.8623191 6.158816,-7.8623191 3.275966,0 4.531621,0.8986329 7.319847,0.828167 4.444571,-0.1123262 4.989229,-2.22626527 8.258052,-0.5687065 2.882056,1.4614363 1.414491,4.5206119 2.405796,6.8140094 z"
       style="fill:url(#radialGradient3039);fill-rule:nonzero;stroke:#4c0901;stroke-linecap:round;stroke-linejoin:round;stroke-miterlimit:4;stroke-opacity:1" />
    <path
       inkscape:connector-curvature="0"
       id="path5126"
       d="m 34.97685,17.567599 c 0,6.245531 -5.10998,11.35551 -11.35551,11.35551 -6.245531,0 -11.35551,-5.109979 -11.35551,-11.35551 0,-6.24553 5.109979,-11.3555099 11.35551,-11.3555099 6.24553,0 11.35551,5.1099799 11.35551,11.3555099 z"
       style="fill:url(#radialGradient3041);fill-rule:nonzero;stroke:none" />
    <path
       inkscape:connector-curvature="0"
       style="fill:none;stroke:url(#linearGradient3043);stroke-linecap:round;stroke-linejoin:round;stroke-miterlimit:4;stroke-opacity:1"
       d="m 33.888971,10.030124 c 1.153261,2.668087 3.179261,2.532336 3.229367,6.093447 0.02857,1.985994 1.599132,3.028821 1.599132,5.057586 0,2.028765 -3.503791,3.031202 -4.697182,4.224592 -1.193393,1.193394 0.09415,4.253777 -3.143392,5.153093 -3.206775,0.890771 -4.773567,-0.358015 -6.802333,-0.358015 -2.028766,0 -6.883479,3.911917 -8.673568,2.121828 -1.790087,-1.790087 -1.828279,-5.702004 -3.379688,-7.253413 -1.670749,-1.670749 -4.3105081,-4.005041 -4.3105081,-6.98852 0,-2.983479 1.7228345,-4.558479 4.1911691,-7.332179 2.546698,-2.8617569 2.625462,-7.1603502 5.608941,-7.1603502 2.983479,0 4.127026,0.8184006 6.666312,0.754226 4.047747,-0.1022974 4.543777,-2.0274984 7.52075,-0.5179309 2.624739,1.3309554 1.288202,4.1169996 2.191,6.2056361 z"
       id="path6600"
       sodipodi:nodetypes="csssssssssssss" />
    <path
       inkscape:connector-curvature="0"
       id="path6612"
       d="m 23.66325,7.0524597 c -5.867816,0 -10.646262,4.7422323 -10.646262,10.6100503 0,3.670993 1.983705,6.780628 4.816166,8.690826 C 25.073625,22.456374 23.786958,15.548148 33.44043,13.606789 31.841424,9.7576868 28.088842,7.0524597 23.66325,7.0524597 z"
       style="color:#000000;fill:url(#linearGradient3045);fill-opacity:1;fill-rule:nonzero;stroke:none;stroke-width:1;marker:none;visibility:visible;display:inline;overflow:visible" />
  </g>
  <path
     id="path2422"
     style="opacity:.15;fill:#0c0c0c;fill-rule:evenodd"
     d="m18.626 16.013c-0.17434-0.02451-0.31105-0.01191-0.40205 0.0077l-12.119 2.6561-2.2305 0.48999-0.068411 0.01073-2.7122 1.8219 6.4713-0.16331 0.054353-0.0124 2.2445-0.48817 12.117-2.6752c0.36398-0.0802-0.17961-0.51086-1.2193-0.96786-0.77977-0.34275-1.6128-0.60606-2.1359-0.67959z" />
  <g
     id="g3872"
     transform="matrix(.91489 0 0 .91488 -.59828 .011032)">
    <path
       id="rect2383"
       style="stroke-linejoin:round;stroke:#0c0c0c;stroke-width:.54651;fill:url(#linearGradient2889)"
       d="m3.9957 16.48c0.44592-0.33462 1.6971 0.29307 2.8469 1.4371 1.147 1.1413 1.7514 2.3626 1.4244 2.8129-0.00124 0.0017 0.028135 0.02504 0.026864 0.02673l16.01-16.089c0.406-0.4087-0.225-1.6995-1.411-2.8799-1.187-1.1804-2.481-1.8056-2.887-1.3971l-16.01 16.089z" />
    <path
       id="rect3175"
       style="opacity:.8;stroke-linejoin:round;stroke:#e28ccd;stroke-width:.54651;fill:#ffb6ed"
       d="m18.052 2.3545c0.44592-0.33462 1.6971 0.29307 2.8469 1.4371 1.147 1.1413 1.7514 2.3626 1.4244 2.8129-0.0012 0.00171 0.02814 0.025041 0.02686 0.02673l1.9539-1.9635 0.03988-0.040071c0.0013-0.00169-0.02811-0.025017-0.02686-0.02673 0.327-0.4502-0.277-1.6715-1.424-2.8128-1.15-1.1441-2.401-1.7718-2.847-1.4372l-0.03988 0.040071-1.9539 1.9635z" />
    <path
       id="path3208"
       style="opacity:.6;fill:#0c0c0c"
       d="m3.9957 16.48c0.44592-0.33462 1.6971 0.29307 2.8469 1.4371 1.147 1.1413 1.7514 2.3626 1.4244 2.8129-0.00124 0.0017 0.028135 0.02504 0.026864 0.02673l11.025-11.08 0.03988-0.040071c0.0013-0.00169-0.02811-0.025017-0.02686-0.026729 0.328-0.4506-0.277-1.6719-1.424-2.8132-1.15-1.1441-2.401-1.7718-2.847-1.4372l-0.04 0.0401-11.025 11.08z" />
    <path
       id="path3233"
       style="fill:url(#linearGradient2891)"
       d="m15.862 4.5553c0.44592-0.33462 1.6971 0.29307 2.8469 1.4371 1.147 1.1413 1.7514 2.3626 1.4244 2.8129-0.0012 0.00171 0.02814 0.025039 0.02686 0.026729l0.19938-0.20036c0.0013-0.00169-0.02811-0.025017-0.02686-0.026729 0.327-0.4502-0.277-1.6715-1.424-2.8128-1.15-1.1441-2.401-1.7718-2.847-1.4371l-0.19938 0.20036z" />
    <path
       id="path3216"
       style="fill:url(#linearGradient2893)"
       d="m15.679 4.7389c0.44592-0.33462 1.6971 0.29307 2.8469 1.4371 1.147 1.1413 1.7514 2.3626 1.4244 2.8129-0.0012 0.00171 0.02813 0.025041 0.02686 0.026731l0.19938-0.20036c0.0013-0.00169-0.02811-0.025018-0.02686-0.02673 0.328-0.4502-0.277-1.6715-1.424-2.8128-1.149-1.1441-2.401-1.7717-2.847-1.4371l-0.19938 0.20036z" />
    <path
       id="path3248"
       style="fill:url(#linearGradient2895)"
       d="m16.497 3.9173c0.44592-0.33462 1.6971 0.29307 2.8469 1.4371 1.147 1.1413 1.7514 2.3626 1.4244 2.8129-0.0012 0.00171 0.02813 0.02504 0.02686 0.026729l0.19938-0.20036c0.0013-0.00169-0.02811-0.025017-0.02686-0.026729 0.327-0.4503-0.277-1.6715-1.424-2.8129-1.15-1.144-2.401-1.7717-2.847-1.4371l-0.19938 0.20036z" />
    <path
       id="path3250"
       style="fill:url(#linearGradient2897)"
       d="m16.314 4.1009c0.44592-0.33462 1.6971 0.29307 2.8469 1.4371 1.147 1.1413 1.7514 2.3626 1.4244 2.8129-0.0012 0.00171 0.02814 0.02504 0.02686 0.02673l0.19938-0.20036c0.0013-0.00169-0.02811-0.025016-0.02686-0.026729 0.328-0.4502-0.277-1.6715-1.424-2.8128-1.15-1.1441-2.401-1.7718-2.847-1.4372l-0.19938 0.20036z" />
    <path
       id="path3256"
       style="fill:url(#linearGradient2899)"
       d="m17.135 3.2761c0.44592-0.33462 1.6971 0.29307 2.8469 1.4371 1.147 1.1413 1.7514 2.3626 1.4244 2.8129-0.0012 0.00171 0.02813 0.025041 0.02686 0.026731l0.19938-0.20036c0.0013-0.00169-0.02811-0.025018-0.02686-0.02673 0.32704-0.45028-0.27735-1.6716-1.4244-2.8129-1.1498-1.1441-2.401-1.7717-2.8469-1.4371l-0.19938 0.20036z" />
    <path
       id="path3258"
       style="fill:url(#linearGradient2901)"
       d="m16.952 3.4597c0.44592-0.33462 1.6971 0.29307 2.8469 1.4371 1.147 1.1413 1.7514 2.3626 1.4244 2.8129-0.0012 0.00171 0.02814 0.025041 0.02686 0.02673l0.19938-0.20035c0.0013-0.00169-0.02811-0.025019-0.02686-0.02673 0.328-0.4502-0.277-1.6715-1.424-2.8128-1.149-1.144-2.401-1.7717-2.847-1.4371l-0.19938 0.20035z" />
    <path
       id="path3270"
       style="fill-rule:evenodd;stroke:url(#linearGradient2905);stroke-width:.54651;fill:url(#linearGradient2903)"
       d="m0.92764 23.761 7.2837-2.9708 0.062055-0.06205c0.3271-0.45-0.2852-1.671-1.4322-2.812-1.1498-1.144-2.3995-1.769-2.8454-1.434l-3.0681 7.2795z" />
    <path
       id="path3281"
       style="fill-rule:evenodd;stroke:#0c0c0c;stroke-width:.54651;fill:#0c0c0c"
       d="m1.7587 21.79-0.83151 1.964 1.9866-0.815c-0.1592-0.191-0.3062-0.384-0.4974-0.574-0.22-0.219-0.4365-0.397-0.6577-0.575z" />
  </g>
</svg>
