<?xml version="1.0" encoding="UTF-8" standalone="no"?>
<!-- Created with Inkscape (http://www.inkscape.org/) -->

<svg
   xmlns:dc="http://purl.org/dc/elements/1.1/"
   xmlns:cc="http://creativecommons.org/ns#"
   xmlns:rdf="http://www.w3.org/1999/02/22-rdf-syntax-ns#"
   xmlns:svg="http://www.w3.org/2000/svg"
   xmlns="http://www.w3.org/2000/svg"
   xmlns:xlink="http://www.w3.org/1999/xlink"
   xmlns:sodipodi="http://sodipodi.sourceforge.net/DTD/sodipodi-0.dtd"
   xmlns:inkscape="http://www.inkscape.org/namespaces/inkscape"
   version="1.1"
   inkscape:output_extension="org.inkscape.output.svg.inkscape"
   inkscape:export-ydpi="90.000000"
   inkscape:export-xdpi="90.000000"
   inkscape:export-filename="/data/projects/seahorse/pixmaps/48x48/seahorse-preferences.png"
   sodipodi:docname="document-decrypt.svg"
   inkscape:version="0.48.1 r9760"
   sodipodi:version="0.32"
   id="svg2"
   height="22"
   width="22">
  <defs
     id="defs4">
    <linearGradient
       inkscape:collect="always"
       id="linearGradient3349">
      <stop
         style="stop-color:#000000;stop-opacity:1;"
         offset="0"
         id="stop3351" />
      <stop
         style="stop-color:#000000;stop-opacity:0;"
         offset="1"
         id="stop3353" />
    </linearGradient>
    <linearGradient
       inkscape:collect="always"
       id="linearGradient3328">
      <stop
         style="stop-color:#ffffff;stop-opacity:1;"
         offset="0"
         id="stop3330" />
      <stop
         style="stop-color:#ffffff;stop-opacity:0;"
         offset="1"
         id="stop3332" />
    </linearGradient>
    <linearGradient
       id="linearGradient2448">
      <stop
         id="stop2450"
         offset="0.0000000"
         style="stop-color:#c8a20b;stop-opacity:1.0000000;" />
      <stop
         id="stop2452"
         offset="1.0000000"
         style="stop-color:#f7e87b;stop-opacity:1.0000000" />
    </linearGradient>
    <linearGradient
       id="linearGradient2119">
      <stop
         style="stop-color:#d2b32a;stop-opacity:0.56730771;"
         offset="0.0000000"
         id="stop2121" />
      <stop
         id="stop2378"
         offset="0.11000000"
         style="stop-color:#ffeb3f;stop-opacity:0.72156864;" />
      <stop
         style="stop-color:#fff493;stop-opacity:0.23076923;"
         offset="1.0000000"
         id="stop2123" />
    </linearGradient>
    <radialGradient
       inkscape:collect="always"
       xlink:href="#linearGradient3349"
       id="radialGradient3666"
       gradientUnits="userSpaceOnUse"
       gradientTransform="matrix(1,0,0,0.2693878,0,29.903179)"
       cx="23.776466"
       cy="40.928932"
       fx="23.776466"
       fy="40.928932"
       r="21.655146" />
    <linearGradient
       inkscape:collect="always"
       xlink:href="#linearGradient2119"
       id="linearGradient3669"
       gradientUnits="userSpaceOnUse"
       gradientTransform="matrix(0.09274505,0,0,0.09848387,-8.477303,-25.38746)"
       x1="333.57144"
       y1="459.00504"
       x2="564.28571"
       y2="459.00504" />
    <linearGradient
       inkscape:collect="always"
       xlink:href="#linearGradient2119"
       id="linearGradient3671"
       gradientUnits="userSpaceOnUse"
       gradientTransform="matrix(0.09274505,0,0,0.09848387,-8.477303,-25.38746)"
       x1="336.15625"
       y1="504.34375"
       x2="567"
       y2="504.34375" />
    <radialGradient
       inkscape:collect="always"
       xlink:href="#linearGradient2448"
       id="radialGradient3673"
       gradientUnits="userSpaceOnUse"
       gradientTransform="matrix(0.188214,0.00506432,-0.00354586,0.148595,-27.12757,-51.97619)"
       cx="208.84131"
       cy="515.08179"
       fx="208.84131"
       fy="515.08179"
       r="90" />
    <linearGradient
       inkscape:collect="always"
       xlink:href="#linearGradient3328"
       id="linearGradient3675"
       gradientUnits="userSpaceOnUse"
       x1="5.0682049"
       y1="-6.2128549"
       x2="23.659103"
       y2="45.287144" />
  </defs>
  <sodipodi:namedview
     id="base"
     pagecolor="#ffffff"
     bordercolor="#666666"
     borderopacity="1.0000000"
     inkscape:pageopacity="0.0000000"
     inkscape:pageshadow="2"
     inkscape:zoom="22.627417"
     inkscape:cx="13.403911"
     inkscape:cy="10.055314"
     inkscape:document-units="px"
     inkscape:current-layer="layer1"
     inkscape:window-width="1366"
     inkscape:window-height="690"
     inkscape:window-x="0"
     inkscape:window-y="24"
     showguides="true"
     inkscape:guide-bbox="true"
     showgrid="true"
     inkscape:showpageshadow="false"
     showborder="true"
     gridtolerance="0.40000000px"
     inkscape:grid-points="false"
     inkscape:window-maximized="1">
    <inkscape:grid
       id="GridFromPre046Settings"
       type="xygrid"
       originx="0px"
       originy="0.0000000px"
       spacingx="1.0000000px"
       spacingy="1.0000000px"
       color="#0000ff"
       empcolor="#0000ff"
       opacity="0.2"
       empopacity="0.4"
       empspacing="10"
       visible="true"
       enabled="true"
       snapvisiblegridlinesonly="true" />
  </sodipodi:namedview>
  <metadata
     id="metadata7">
    <rdf:RDF>
      <cc:Work
         rdf:about="">
        <dc:format>image/svg+xml</dc:format>
        <dc:type
           rdf:resource="http://purl.org/dc/dcmitype/StillImage" />
        <cc:license
           rdf:resource="http://creativecommons.org/licenses/LGPL/2.1/" />
      </cc:Work>
      <cc:License
         rdf:about="http://creativecommons.org/licenses/LGPL/2.1/">
        <cc:permits
           rdf:resource="http://web.resource.org/cc/Reproduction" />
        <cc:permits
           rdf:resource="http://web.resource.org/cc/Distribution" />
        <cc:requires
           rdf:resource="http://web.resource.org/cc/Notice" />
        <cc:permits
           rdf:resource="http://web.resource.org/cc/DerivativeWorks" />
        <cc:requires
           rdf:resource="http://web.resource.org/cc/ShareAlike" />
        <cc:requires
           rdf:resource="http://web.resource.org/cc/SourceCode" />
      </cc:License>
    </rdf:RDF>
  </metadata>
  <g
     inkscape:label="Layer 1"
     inkscape:groupmode="layer"
     id="layer1"
     style="display:inline"
     transform="translate(0,-26)">
    <path
       sodipodi:type="arc"
       style="opacity:0.15841585;fill:url(#radialGradient3666);fill-opacity:1;stroke:none"
       id="path3347"
       sodipodi:cx="23.776466"
       sodipodi:cy="40.928932"
       sodipodi:rx="21.655146"
       sodipodi:ry="5.833631"
       d="m 45.431612,40.928932 c 0,3.221826 -9.695339,5.833631 -21.655146,5.833631 -11.959806,0 -21.6551453,-2.611805 -21.6551453,-5.833631 0,-3.221825 9.6953393,-5.833631 21.6551453,-5.833631 11.959807,0 21.655146,2.611806 21.655146,5.833631 z"
       transform="matrix(0.47882064,0,0,0.47882064,-0.38466284,24.60912)" />
    <g
       id="g1350"
       transform="matrix(0.38416785,0.3806107,-0.38416785,0.3806107,10.243278,19.006272)">
      <path
         inkscape:connector-curvature="0"
         sodipodi:nodetypes="csscccccccccccscccccccccccccc"
         id="path1306"
         d="m 13.78125,11.71875 c -5.3389351,0 -9.6562491,4.533367 -9.65625,10.125 2e-7,5.591632 4.3173153,10.124999 9.65625,10.125 4.005173,0 7.437917,-2.550772 8.90625,-6.1875 l 1.6875,0 2.53125,-1.40625 0.5625,1.40625 7,-0.40625 0.906196,-2.768705 1.156304,2.768705 1.78125,0 0.96875,-2.28125 1.09375,1.6875 1.625,0 c 0.0123,0 0.02273,0.0083 0.03125,0 0.0085,-0.0083 -0.08177,-0.01871 -0.08177,-0.03178 0,0 3.238017,-2.999474 3.238017,-2.999474 10e-7,0 -1.25,-3.5625 -1.25,-3.5625 L 22.625,17.75 C 21.124817,14.190065 17.733327,11.718751 13.78125,11.71875 z M 9.90625,18 10.3125,18 c 1.069873,0 1.9375,0.903567 1.9375,2 l 0,3.21875 c 0,1.096433 -0.867627,1.96875 -1.9375,1.96875 l -0.40625,0 c -1.0698726,0 -1.9375,-0.872317 -1.9375,-1.96875 l 0,-3.21875 c 0,-1.096433 0.8676272,-2 1.9375,-2 z"
         style="fill:#dabf3c;fill-opacity:1;fill-rule:evenodd;stroke:none" />
      <path
         inkscape:connector-curvature="0"
         sodipodi:nodetypes="cccccccc"
         id="rect2116"
         d="m 23.556203,17.781541 20.293924,0.856976 0.0073,1.457602 c 0,0.02081 -0.0198,0.03757 -0.04441,0.03757 L 22.504203,19.819821 c -0.0246,0 -0.04441,-0.01676 -0.04441,-0.03757 l 0,-0.989767 c 0,-0.02081 1.071806,-1.010943 1.096406,-1.010943 z"
         style="fill:url(#linearGradient3669);fill-opacity:1;fill-rule:evenodd;stroke:none" />
      <path
         inkscape:connector-curvature="0"
         sodipodi:nodetypes="ccccccccccccccscc"
         id="path2363"
         d="m 44.10914,22.59265 -21.371937,0.04617 c -0.02163,0 -0.03768,0.04857 -0.03768,0.110794 l 0,2.828334 1.677921,0 2.521691,-1.406473 0.568063,1.406473 6.98776,-0.393936 0.983058,-2.619735 1.083418,2.619735 1.776647,0 0.988315,-2.277439 1.078161,1.686536 1.646225,0 c 0.0123,0 0.02336,-0.004 0.03188,-0.01231 0.0085,-0.0083 0.01449,-0.02079 0.01449,-0.03385 0,0 1.126085,-1.072242 2.051984,-1.95429 z"
         style="fill:url(#linearGradient3671);fill-opacity:1;fill-rule:evenodd;stroke:none" />
      <path
         inkscape:connector-curvature="0"
         id="path2380"
         d="m 13.750003,12.23448 c -5.0603775,0 -9.1657256,4.290847 -9.1657258,9.578024 0,5.287177 4.1053486,9.578025 9.1657258,9.578025 5.060376,0 9.165725,-4.290848 9.165725,-9.578025 0,-5.287177 -4.105349,-9.578024 -9.165725,-9.578024 z m -3.9009839,5.708756 0.4122989,0 c 1.085804,0 1.96635,0.917021 1.96635,2.02978 l 0,3.266677 c 0,1.112759 -0.880546,1.998065 -1.96635,1.998065 l -0.4122989,0 c -1.085803,0 -1.9663494,-0.885306 -1.9663494,-1.998065 l 0,-3.266677 c 0,-1.112759 0.8805462,-2.02978 1.9663494,-2.02978 z"
         style="fill:url(#radialGradient3673);fill-opacity:1;fill-rule:evenodd;stroke:none" />
      <path
         inkscape:connector-curvature="0"
         id="path2440"
         d="m 21.710546,17.086923 c -4.581817,0.341428 -5.830172,2.627217 -9.482878,5.106165 l 0,1.046605 c 0,1.112759 -0.880546,1.998065 -1.96635,1.998065 l -0.4122989,0 c -0.6781069,0 -1.2024207,-0.386316 -1.5540503,-0.919744 -1.1061858,0.408582 -2.1381724,0.612845 -3.1715313,0.761167 1.2784166,3.681757 4.6629828,6.311346 8.6265655,6.311348 5.060394,10e-7 9.165724,-4.290836 9.165725,-9.578025 0,-1.720126 -0.444367,-3.329789 -1.205182,-4.725581 z"
         style="opacity:0.45405405;fill:#c4a00f;fill-opacity:1;fill-rule:evenodd;stroke:none" />
      <path
         inkscape:connector-curvature="0"
         id="rect2420"
         d="m 9.8951075,18.013262 0.4133855,0 c 1.069873,0 1.931179,0.882687 1.931179,1.97912 l 0,3.219433 c 0,1.096433 -0.861306,1.979121 -1.931179,1.979121 l -0.4133855,0 c -1.0698728,0 -1.9311783,-0.882688 -1.9311783,-1.979121 l 0,-3.219433 c 0,-1.096433 0.8613055,-1.97912 1.9311783,-1.97912 z"
         style="fill:none;stroke:#ac8b0b;stroke-width:0.88543594;stroke-linecap:butt;stroke-linejoin:round;stroke-miterlimit:4;stroke-opacity:1;stroke-dasharray:none" />
      <path
         inkscape:connector-curvature="0"
         sodipodi:nodetypes="csscccccccccccscccccccccccccc"
         style="fill:none;stroke:#ac8b0b;stroke-width:0.88543594;stroke-linecap:butt;stroke-linejoin:miter;stroke-miterlimit:4;stroke-opacity:1;stroke-dasharray:none"
         d="m 13.78125,11.71875 c -5.3389351,0 -9.6562491,4.533367 -9.65625,10.125 2e-7,5.591632 4.3173153,10.124999 9.65625,10.125 4.005173,0 7.437917,-2.550772 8.90625,-6.1875 l 1.6875,0 2.53125,-1.90625 1.0625,1.90625 6,-0.40625 1.46875,-2.96875 1.59375,2.96875 1.28125,0 0.96875,-2.78125 1.59375,2.1875 1.125,0 c 0.0123,0 0.02273,0.0083 0.03125,0 0.0085,-0.0083 0.201039,0.03911 0.201038,0.02605 0,0 2.955212,-3.057297 2.955212,-3.057297 10e-7,0 -1.25,-3.5625 -1.25,-3.5625 L 22.625,17.75 C 21.124817,14.190065 17.733327,11.718751 13.78125,11.71875 z M 9.90625,18 10.3125,18 c 1.069873,0 1.9375,0.903567 1.9375,2 l 0,3.21875 c 0,1.096433 -0.867627,1.96875 -1.9375,1.96875 l -0.40625,0 c -1.0698726,0 -1.9375,-0.872317 -1.9375,-1.96875 l 0,-3.21875 c 0,-1.096433 0.8676272,-2 1.9375,-2 z"
         id="path3594" />
      <path
         inkscape:connector-curvature="0"
         style="fill:none;stroke:url(#linearGradient3675);stroke-width:1px;stroke-linecap:butt;stroke-linejoin:miter;stroke-opacity:1"
         d="M 8.125,10.0625 C 12.8125,4.875 20.043434,5.6571176 23.375,9.4374999 27.726466,14.375179 25.125,20.9375 25.125,20.9375 l 16.625,16.9375 -1.3125,2.8125 -3.875,-0.0625 -0.375,-0.375 0.6875,-4.4375 -3.75,1.375 0.8125,-4.3125 -4.5,1.5625 -9.25,-7.9375 c 0,0 -4.574164,2.950741 -11.6874999,-2.4375 C 4.970827,21.389206 4.3686749,14.2195 8.125,10.0625 z"
         id="path2349"
         transform="matrix(0.623192,-0.623192,0.6290163,0.6290163,-6.4720792,21.192758)"
         sodipodi:nodetypes="csccccccccccss" />
    </g>
    <path
       sodipodi:type="arc"
       style="opacity:0.60227272;color:#000000;fill:#ffffff;fill-opacity:1;fill-rule:nonzero;stroke:none;stroke-width:1;marker:none;visibility:visible;display:inline;overflow:visible"
       id="path3101"
       sodipodi:cx="19.003494"
       sodipodi:cy="28.20101"
       sodipodi:rx="1.767767"
       sodipodi:ry="1.767767"
       d="m 20.771261,28.20101 c 0,0.97631 -0.791456,1.767767 -1.767767,1.767767 -0.97631,0 -1.767767,-0.791457 -1.767767,-1.767767 0,-0.976311 0.791457,-1.767767 1.767767,-1.767767 0.976311,0 1.767767,0.791456 1.767767,1.767767 z"
       transform="matrix(0.27334721,0,0,0.27334721,3.9093001,29.340212)" />
  </g>
</svg>
