<?xml version="1.0" encoding="UTF-8" standalone="no"?>
<!-- Created with Inkscape (http://www.inkscape.org/) -->

<svg
   xmlns:dc="http://purl.org/dc/elements/1.1/"
   xmlns:cc="http://creativecommons.org/ns#"
   xmlns:rdf="http://www.w3.org/1999/02/22-rdf-syntax-ns#"
   xmlns:svg="http://www.w3.org/2000/svg"
   xmlns="http://www.w3.org/2000/svg"
   xmlns:xlink="http://www.w3.org/1999/xlink"
   xmlns:sodipodi="http://sodipodi.sourceforge.net/DTD/sodipodi-0.dtd"
   xmlns:inkscape="http://www.inkscape.org/namespaces/inkscape"
   width="22"
   height="22"
   id="svg4459"
   version="1.1"
   inkscape:version="0.48.1 r9760"
   sodipodi:docname="edit-clear-locationbar-rtl.svg">
  <defs
     id="defs4461">
    <linearGradient
       inkscape:collect="always"
       xlink:href="#linearGradient3587-6-5-3-5"
       id="linearGradient4363-4"
       gradientUnits="userSpaceOnUse"
       gradientTransform="matrix(-0.5864314,0,0,0.77907308,70.115438,-17.077864)"
       x1="100.77747"
       y1="17.859186"
       x2="100.77747"
       y2="38.055252" />
    <linearGradient
       id="linearGradient3587-6-5-3-5">
      <stop
         offset="0"
         style="stop-color:#000000;stop-opacity:1"
         id="stop3589-9-2-2-6" />
      <stop
         offset="1"
         style="stop-color:#363636;stop-opacity:1"
         id="stop3591-7-4-73-5" />
    </linearGradient>
  </defs>
  <sodipodi:namedview
     id="base"
     pagecolor="#ffffff"
     bordercolor="#666666"
     borderopacity="1.0"
     inkscape:pageopacity="0.0"
     inkscape:pageshadow="2"
     inkscape:zoom="22.197802"
     inkscape:cx="8"
     inkscape:cy="10.766337"
     inkscape:current-layer="layer1"
     showgrid="true"
     inkscape:grid-bbox="true"
     inkscape:document-units="px"
     inkscape:window-width="1366"
     inkscape:window-height="688"
     inkscape:window-x="0"
     inkscape:window-y="25"
     inkscape:window-maximized="1" />
  <metadata
     id="metadata4464">
    <rdf:RDF>
      <cc:Work
         rdf:about="">
        <dc:format>image/svg+xml</dc:format>
        <dc:type
           rdf:resource="http://purl.org/dc/dcmitype/StillImage" />
        <dc:title></dc:title>
      </cc:Work>
    </rdf:RDF>
  </metadata>
  <g
     id="layer1"
     inkscape:label="Layer 1"
     inkscape:groupmode="layer"
     transform="translate(0,6)">
    <path
       style="opacity:0.6;color:#000000;fill:#ffffff;fill-opacity:1;fill-rule:nonzero;stroke:none;stroke-width:1;marker:none;visibility:visible;display:inline;overflow:visible;enable-background:accumulate"
       d="M 8.9933688,-1.7328471 A 0.74275086,0.75290647 0 0 0 8.6358086,-1.509372 L 1.2164355,6.0887812 a 0.74275086,0.75290647 0 0 0 0.044695,1.0726812 l 7.1958981,6.6148636 a 0.74275086,0.75290647 0 0 0 0.4916452,0.223475 l 11.3078402,0 a 0.74275086,0.75290647 0 0 0 0.759815,-0.759815 l 0,-14.21301779 A 0.74275086,0.75290647 0 0 0 20.256514,-1.7328471 l -11.0843651,0 a 0.74275086,0.75290647 0 0 0 -0.08939,0 0.74275086,0.75290647 0 0 0 -0.08939,0 z m 1.9218862,3.2180414 2.592311,2.502921 2.547616,-2.502921 2.100666,2.1006658 -2.502921,2.5476161 2.502921,2.6370076 L 16.055182,10.78176 13.507566,8.2788378 10.915255,10.78176 8.8592837,8.7257888 11.362205,6.1334762 8.8592837,3.5858601 10.915255,1.4851943 z"
       id="path4463-3"
       inkscape:connector-curvature="0" />
    <path
       style="opacity:0.7;color:#000000;fill:url(#linearGradient4363-4);fill-opacity:1;fill-rule:nonzero;stroke:none;stroke-width:1;marker:none;visibility:visible;display:inline;overflow:visible;enable-background:accumulate"
       d="M 8.9933688,-3.1628882 A 0.74275086,0.75290647 0 0 0 8.6358086,-2.9394131 L 1.2164355,4.6587401 a 0.74275086,0.75290647 0 0 0 0.044695,1.0726805 l 7.1958981,6.6148634 a 0.74275086,0.75290647 0 0 0 0.4916452,0.223475 l 11.3078402,0 a 0.74275086,0.75290647 0 0 0 0.759815,-0.759815 l 0,-14.2130169 a 0.74275086,0.75290647 0 0 0 -0.759815,-0.7598153 l -11.0843651,0 a 0.74275086,0.75290647 0 0 0 -0.08939,0 0.74275086,0.75290647 0 0 0 -0.08939,0 z M 10.915255,0.05515316 13.507566,2.5580742 16.055182,0.05515316 18.155848,2.1558191 15.652927,4.7034351 18.155848,7.3404413 16.055182,9.3517178 13.507566,6.848796 10.915255,9.3517178 8.8592837,7.2957462 11.362205,4.7034351 8.8592837,2.1558191 10.915255,0.05515316 z"
       id="path4463"
       inkscape:connector-curvature="0" />
  </g>
</svg>
