<?xml version="1.0" encoding="UTF-8" standalone="no"?>
<!-- Created with Inkscape (http://www.inkscape.org/) -->

<svg
   xmlns:dc="http://purl.org/dc/elements/1.1/"
   xmlns:cc="http://creativecommons.org/ns#"
   xmlns:rdf="http://www.w3.org/1999/02/22-rdf-syntax-ns#"
   xmlns:svg="http://www.w3.org/2000/svg"
   xmlns="http://www.w3.org/2000/svg"
   xmlns:xlink="http://www.w3.org/1999/xlink"
   xmlns:sodipodi="http://sodipodi.sourceforge.net/DTD/sodipodi-0.dtd"
   xmlns:inkscape="http://www.inkscape.org/namespaces/inkscape"
   width="22"
   height="22"
   id="svg57"
   sodipodi:version="0.32"
   inkscape:version="0.48.1 r9760"
   sodipodi:docname="edit-delete-shred.svg"
   inkscape:output_extension="org.inkscape.output.svg.inkscape"
   version="1.1">
  <defs
     id="defs3">
    <linearGradient
       id="linearGradient3241">
      <stop
         style="stop-color:white;stop-opacity:1;"
         offset="0"
         id="stop3243" />
      <stop
         style="stop-color:white;stop-opacity:0;"
         offset="1"
         id="stop3245" />
    </linearGradient>
    <linearGradient
       id="linearGradient3229">
      <stop
         style="stop-color:#598bcb;stop-opacity:1;"
         offset="0"
         id="stop3231" />
      <stop
         id="stop3249"
         offset="0.75675678"
         style="stop-color:#2f5c96;stop-opacity:1;" />
      <stop
         style="stop-color:#203e65;stop-opacity:1;"
         offset="1"
         id="stop3233" />
    </linearGradient>
    <linearGradient
       inkscape:collect="always"
       id="linearGradient3175">
      <stop
         style="stop-color:black;stop-opacity:1;"
         offset="0"
         id="stop3177" />
      <stop
         style="stop-color:black;stop-opacity:0;"
         offset="1"
         id="stop3179" />
    </linearGradient>
    <linearGradient
       inkscape:collect="always"
       id="linearGradient3159">
      <stop
         style="stop-color:black;stop-opacity:1;"
         offset="0"
         id="stop3161" />
      <stop
         style="stop-color:black;stop-opacity:0;"
         offset="1"
         id="stop3163" />
    </linearGradient>
    <linearGradient
       id="linearGradient3141">
      <stop
         style="stop-color:#a40000;stop-opacity:1;"
         offset="0"
         id="stop3143" />
      <stop
         style="stop-color:#ffc4c4;stop-opacity:1;"
         offset="1"
         id="stop3145" />
    </linearGradient>
    <linearGradient
       id="linearGradient3008">
      <stop
         style="stop-color:white;stop-opacity:1;"
         offset="0"
         id="stop3010" />
      <stop
         style="stop-color:#d3d3d3;stop-opacity:1;"
         offset="1"
         id="stop3012" />
    </linearGradient>
    <linearGradient
       id="linearGradient2978">
      <stop
         style="stop-color:white;stop-opacity:1;"
         offset="0"
         id="stop2980" />
      <stop
         style="stop-color:#d5d5d5;stop-opacity:1;"
         offset="1"
         id="stop2982" />
    </linearGradient>
    <linearGradient
       inkscape:collect="always"
       id="linearGradient2964">
      <stop
         style="stop-color:black;stop-opacity:1;"
         offset="0"
         id="stop2966" />
      <stop
         style="stop-color:black;stop-opacity:0;"
         offset="1"
         id="stop2968" />
    </linearGradient>
    <linearGradient
       inkscape:collect="always"
       id="linearGradient5060">
      <stop
         style="stop-color:black;stop-opacity:1;"
         offset="0"
         id="stop5062" />
      <stop
         style="stop-color:black;stop-opacity:0;"
         offset="1"
         id="stop5064" />
    </linearGradient>
    <linearGradient
       id="linearGradient5048">
      <stop
         style="stop-color:black;stop-opacity:0;"
         offset="0"
         id="stop5050" />
      <stop
         id="stop5056"
         offset="0.5"
         style="stop-color:black;stop-opacity:1;" />
      <stop
         style="stop-color:black;stop-opacity:0;"
         offset="1"
         id="stop5052" />
    </linearGradient>
    <linearGradient
       id="linearGradient149"
       inkscape:collect="always">
      <stop
         id="stop150"
         offset="0"
         style="stop-color:#000000;stop-opacity:1;" />
      <stop
         id="stop151"
         offset="1"
         style="stop-color:#000000;stop-opacity:0;" />
    </linearGradient>
    <linearGradient
       inkscape:collect="always"
       xlink:href="#linearGradient5048"
       id="linearGradient3172"
       gradientUnits="userSpaceOnUse"
       gradientTransform="matrix(2.774389,0,0,1.969706,-1892.179,-872.8854)"
       x1="302.85715"
       y1="366.64789"
       x2="302.85715"
       y2="609.50507" />
    <radialGradient
       inkscape:collect="always"
       xlink:href="#linearGradient5060"
       id="radialGradient3174"
       gradientUnits="userSpaceOnUse"
       gradientTransform="matrix(2.774389,0,0,1.969706,-1891.633,-872.8854)"
       cx="605.71429"
       cy="486.64789"
       fx="605.71429"
       fy="486.64789"
       r="117.14286" />
    <radialGradient
       inkscape:collect="always"
       xlink:href="#linearGradient5060"
       id="radialGradient3176"
       gradientUnits="userSpaceOnUse"
       gradientTransform="matrix(-2.774389,0,0,1.969706,112.7623,-872.8854)"
       cx="605.71429"
       cy="486.64789"
       fx="605.71429"
       fy="486.64789"
       r="117.14286" />
    <linearGradient
       inkscape:collect="always"
       xlink:href="#linearGradient3175"
       id="linearGradient3178"
       gradientUnits="userSpaceOnUse"
       x1="25"
       y1="21"
       x2="25"
       y2="32.25" />
    <linearGradient
       inkscape:collect="always"
       xlink:href="#linearGradient149"
       id="linearGradient3180"
       gradientUnits="userSpaceOnUse"
       gradientTransform="matrix(3.520411,0,0,0.348016,-3.037918,1.544257)"
       x1="7.3738608"
       y1="27.376621"
       x2="7.5291119"
       y2="69.460503" />
    <radialGradient
       inkscape:collect="always"
       xlink:href="#linearGradient2978"
       id="radialGradient3182"
       gradientUnits="userSpaceOnUse"
       gradientTransform="matrix(3.146715,0.06924886,-0.06039991,2.744612,-0.332562,-61.89699)"
       cx="9.5796242"
       cy="33.588264"
       fx="9.5796242"
       fy="33.588264"
       r="2.5527742" />
    <radialGradient
       inkscape:collect="always"
       xlink:href="#linearGradient2978"
       id="radialGradient3184"
       gradientUnits="userSpaceOnUse"
       gradientTransform="matrix(3.146715,0.06924886,-0.06039991,2.744612,-19.58362,-61.75172)"
       cx="9.5796242"
       cy="33.588264"
       fx="9.5796242"
       fy="33.588264"
       r="2.5527742" />
    <radialGradient
       inkscape:collect="always"
       xlink:href="#linearGradient2978"
       id="radialGradient3186"
       gradientUnits="userSpaceOnUse"
       gradientTransform="matrix(3.146715,0.06924886,-0.06039991,2.744612,-17.82887,-61.79699)"
       cx="9.5796242"
       cy="33.588264"
       fx="9.5796242"
       fy="33.588264"
       r="2.5527742" />
    <radialGradient
       inkscape:collect="always"
       xlink:href="#linearGradient2978"
       id="radialGradient3188"
       gradientUnits="userSpaceOnUse"
       gradientTransform="matrix(3.146715,0.06924886,-0.06039991,2.744612,-8.332562,-61.89699)"
       cx="9.5796242"
       cy="33.588264"
       fx="9.5796242"
       fy="33.588264"
       r="2.5527742" />
    <radialGradient
       inkscape:collect="always"
       xlink:href="#linearGradient2978"
       id="radialGradient3190"
       gradientUnits="userSpaceOnUse"
       gradientTransform="matrix(3.146715,0.06924886,-0.06039991,2.744612,5.667438,-61.89699)"
       cx="9.5796242"
       cy="33.588264"
       fx="9.5796242"
       fy="33.588264"
       r="2.5527742" />
    <radialGradient
       inkscape:collect="always"
       xlink:href="#linearGradient2978"
       id="radialGradient3192"
       gradientUnits="userSpaceOnUse"
       gradientTransform="matrix(3.146715,0.06924886,-0.06039991,2.744612,1.667438,-61.89699)"
       cx="9.5796242"
       cy="33.588264"
       fx="9.5796242"
       fy="33.588264"
       r="2.5527742" />
    <radialGradient
       inkscape:collect="always"
       xlink:href="#linearGradient2978"
       id="radialGradient3194"
       gradientUnits="userSpaceOnUse"
       gradientTransform="matrix(3.146715,0.06924886,-0.06039991,2.744612,3.667438,-61.89699)"
       cx="9.5796242"
       cy="33.588264"
       fx="9.5796242"
       fy="33.588264"
       r="2.5527742" />
    <radialGradient
       inkscape:collect="always"
       xlink:href="#linearGradient2978"
       id="radialGradient3196"
       gradientUnits="userSpaceOnUse"
       gradientTransform="matrix(3.146715,0.06924886,-0.06039991,2.744612,-2.332562,-61.89699)"
       cx="9.5796242"
       cy="33.588264"
       fx="9.5796242"
       fy="33.588264"
       r="2.5527742" />
    <radialGradient
       inkscape:collect="always"
       xlink:href="#linearGradient2978"
       id="radialGradient3198"
       gradientUnits="userSpaceOnUse"
       gradientTransform="matrix(3.146715,0.06924886,-0.06039991,2.744612,-4.332562,-61.89699)"
       cx="9.5796242"
       cy="33.588264"
       fx="9.5796242"
       fy="33.588264"
       r="2.5527742" />
    <radialGradient
       inkscape:collect="always"
       xlink:href="#linearGradient2978"
       id="radialGradient3200"
       gradientUnits="userSpaceOnUse"
       gradientTransform="matrix(3.146715,0.06924886,-0.06039991,2.744612,-6.332562,-61.89699)"
       cx="9.5796242"
       cy="33.588264"
       fx="9.5796242"
       fy="33.588264"
       r="2.5527742" />
    <radialGradient
       inkscape:collect="always"
       xlink:href="#linearGradient2978"
       id="radialGradient3202"
       gradientUnits="userSpaceOnUse"
       gradientTransform="matrix(3.146715,0.06924886,-0.06039991,2.744612,-16.18243,-61.79699)"
       cx="9.5796242"
       cy="33.588264"
       fx="9.5796242"
       fy="33.588264"
       r="2.5527742" />
    <radialGradient
       inkscape:collect="always"
       xlink:href="#linearGradient2978"
       id="radialGradient3204"
       gradientUnits="userSpaceOnUse"
       gradientTransform="matrix(3.146715,0.06924886,-0.06039991,2.744612,-10.78506,-60.99081)"
       cx="9.5796242"
       cy="33.588264"
       fx="9.5796242"
       fy="33.588264"
       r="2.5527742" />
    <radialGradient
       inkscape:collect="always"
       xlink:href="#linearGradient2978"
       id="radialGradient3206"
       gradientUnits="userSpaceOnUse"
       gradientTransform="matrix(3.146715,0.06924886,-0.06039991,2.744612,-14.33255,-61.89699)"
       cx="9.5796242"
       cy="33.588264"
       fx="9.5796242"
       fy="33.588264"
       r="2.5527742" />
    <radialGradient
       inkscape:collect="always"
       xlink:href="#linearGradient2978"
       id="radialGradient3208"
       gradientUnits="userSpaceOnUse"
       gradientTransform="matrix(3.146715,0.06924886,-0.06039991,2.744612,-12.67991,-61.03155)"
       cx="9.5796242"
       cy="33.588264"
       fx="9.5796242"
       fy="33.588264"
       r="2.5527742" />
    <linearGradient
       inkscape:collect="always"
       xlink:href="#linearGradient3229"
       id="linearGradient3210"
       gradientUnits="userSpaceOnUse"
       x1="24.000006"
       y1="15.837313"
       x2="24.000006"
       y2="21" />
    <linearGradient
       inkscape:collect="always"
       xlink:href="#linearGradient3241"
       id="linearGradient3212"
       gradientUnits="userSpaceOnUse"
       x1="21.67791"
       y1="19.969507"
       x2="22.333523"
       y2="11.643976" />
    <linearGradient
       inkscape:collect="always"
       xlink:href="#linearGradient2964"
       id="linearGradient3214"
       gradientUnits="userSpaceOnUse"
       gradientTransform="matrix(1,0,0,0.799991,0,-1.199875)"
       x1="27.5"
       y1="14"
       x2="27.625"
       y2="18.750015" />
    <linearGradient
       inkscape:collect="always"
       xlink:href="#linearGradient3008"
       id="linearGradient3216"
       gradientUnits="userSpaceOnUse"
       gradientTransform="matrix(0.984533,0,0,1.203586,0.971903,-2.123191)"
       x1="26.151339"
       y1="-5.7401156"
       x2="27.500387"
       y2="13.351768" />
    <linearGradient
       inkscape:collect="always"
       xlink:href="#linearGradient3141"
       id="linearGradient3218"
       gradientUnits="userSpaceOnUse"
       x1="40.5"
       y1="13.822797"
       x2="40.5"
       y2="16.877842" />
    <linearGradient
       inkscape:collect="always"
       xlink:href="#linearGradient3159"
       id="linearGradient3220"
       gradientUnits="userSpaceOnUse"
       x1="23.5"
       y1="12"
       x2="23.5"
       y2="6.6875" />
  </defs>
  <sodipodi:namedview
     showborder="true"
     id="base"
     pagecolor="#ffffff"
     bordercolor="#666"
     borderopacity="0.13333333"
     inkscape:pageopacity="0.0"
     inkscape:pageshadow="2"
     inkscape:zoom="5.6568542"
     inkscape:cx="34.908806"
     inkscape:cy="30.845723"
     inkscape:current-layer="layer1"
     showgrid="false"
     inkscape:grid-bbox="true"
     inkscape:document-units="px"
     inkscape:window-width="1366"
     inkscape:window-height="690"
     inkscape:window-x="0"
     inkscape:window-y="24"
     inkscape:showpageshadow="false"
     inkscape:object-nodes="true"
     inkscape:object-points="false"
     inkscape:object-bbox="false"
     inkscape:guide-bbox="false"
     inkscape:grid-points="true"
     inkscape:object-paths="false"
     inkscape:window-maximized="1">
    <inkscape:grid
       id="GridFromPre046Settings"
       type="xygrid"
       originx="0px"
       originy="0px"
       spacingx="1px"
       spacingy="1px"
       color="#0000ff"
       empcolor="#0000ff"
       opacity="0.2"
       empopacity="0.4"
       empspacing="4"
       visible="true"
       enabled="true"
       snapvisiblegridlinesonly="true" />
  </sodipodi:namedview>
  <metadata
     id="metadata4">
    <rdf:RDF>
      <cc:Work
         rdf:about="">
        <dc:format>image/svg+xml</dc:format>
        <dc:type
           rdf:resource="http://purl.org/dc/dcmitype/StillImage" />
        <dc:title />
        <dc:date />
        <dc:creator>
          <cc:Agent>
            <dc:title>Jakub Steiner</dc:title>
          </cc:Agent>
        </dc:creator>
        <dc:subject>
          <rdf:Bag>
            <rdf:li>edit</rdf:li>
            <rdf:li>delete</rdf:li>
            <rdf:li>shredder</rdf:li>
          </rdf:Bag>
        </dc:subject>
        <dc:publisher>
          <cc:Agent>
            <dc:title>Novell, Inc.</dc:title>
          </cc:Agent>
        </dc:publisher>
        <cc:license
           rdf:resource="http://creativecommons.org/licenses/publicdomain/" />
        <dc:contributor>
          <cc:Agent>
            <dc:title />
          </cc:Agent>
        </dc:contributor>
      </cc:Work>
      <cc:License
         rdf:about="http://creativecommons.org/licenses/publicdomain/">
        <cc:permits
           rdf:resource="http://creativecommons.org/ns#Reproduction" />
        <cc:permits
           rdf:resource="http://creativecommons.org/ns#Distribution" />
        <cc:permits
           rdf:resource="http://creativecommons.org/ns#DerivativeWorks" />
      </cc:License>
    </rdf:RDF>
  </metadata>
  <g
     id="layer1"
     inkscape:label="Layer 1"
     inkscape:groupmode="layer"
     transform="translate(0,-26)">
    <g
       id="g3118"
       transform="matrix(0.45335625,0,0,0.45335625,0.54664391,26.470718)">
      <g
         id="g6707"
         transform="matrix(0.02262383,0,0,0.01966248,44.39519,41.98146)"
         style="display:inline">
        <rect
           y="-150.69685"
           x="-1559.2523"
           height="478.35718"
           width="1339.6335"
           id="rect6709"
           style="opacity:0.40206185;color:#000000;fill:url(#linearGradient3172);fill-opacity:1;fill-rule:nonzero;stroke:none;stroke-width:1;marker:none;visibility:visible;display:inline;overflow:visible" />
        <path
           sodipodi:nodetypes="cccc"
           id="path6711"
           d="m -219.61876,-150.68038 c 0,0 0,478.33079 0,478.33079 142.874166,0.90045 345.40022,-107.16966 345.40014,-239.196175 0,-132.026537 -159.436816,-239.134595 -345.40014,-239.134615 z"
           style="opacity:0.40206185;color:#000000;fill:url(#radialGradient3174);fill-opacity:1;fill-rule:nonzero;stroke:none;stroke-width:1;marker:none;visibility:visible;display:inline;overflow:visible"
           inkscape:connector-curvature="0" />
        <path
           style="opacity:0.40206185;color:#000000;fill:url(#radialGradient3176);fill-opacity:1;fill-rule:nonzero;stroke:none;stroke-width:1;marker:none;visibility:visible;display:inline;overflow:visible"
           d="m -1559.2523,-150.68038 c 0,0 0,478.33079 0,478.33079 -142.8742,0.90045 -345.4002,-107.16966 -345.4002,-239.196175 0,-132.026537 159.4368,-239.134595 345.4002,-239.134615 z"
           id="path6713"
           sodipodi:nodetypes="cccc"
           inkscape:connector-curvature="0" />
      </g>
      <path
         id="path3173"
         d="m 4.75,21 38.5,0 -0.875,11.25 -36.75,0 L 4.75,21 z"
         style="opacity:0.38659794;color:#000000;fill:url(#linearGradient3178);fill-opacity:1;fill-rule:nonzero;stroke:none;stroke-width:0.40000001;marker:none;visibility:visible;display:inline;overflow:visible"
         inkscape:connector-curvature="0" />
      <path
         inkscape:r_cy="true"
         inkscape:r_cx="true"
         sodipodi:nodetypes="ccccccc"
         id="path1751"
         d="m 4.000805,16.500028 c -0.043961,-0.03545 1.7269248,25.505493 1.7274293,25.513235 0.1661293,2.550698 1.5607136,3.482935 3.1216556,3.486733 0.055778,1.31e-4 29.2840441,-0.0033 29.9067541,-0.0059 2.628697,-0.01122 3.2727,-1.634583 3.445623,-3.408279 0.01387,-0.03497 1.783848,-25.550776 1.797715,-25.585748 -13.333058,0 -26.666116,0 -39.999177,0 z"
         style="opacity:0.5;fill:#babdb6;fill-opacity:1;fill-rule:evenodd;stroke:#555753;stroke-width:1;stroke-linecap:butt;stroke-linejoin:miter;stroke-miterlimit:4;stroke-opacity:1;stroke-dasharray:none"
         inkscape:connector-curvature="0" />
      <path
         inkscape:r_cy="true"
         inkscape:r_cx="true"
         sodipodi:nodetypes="cccc"
         id="path1893"
         d="M 43.457954,20.712669 7.2079371,20.689264 c 27.3113099,0.637328 32.6772069,3.648148 36.0062499,3.494311 l 0.243767,-3.470906 z"
         style="opacity:0.23711338;color:#000000;fill:url(#linearGradient3180);fill-opacity:1;fill-rule:nonzero;stroke:none;stroke-width:0;marker:none;visibility:visible;display:block"
         inkscape:connector-curvature="0" />
      <g
         transform="translate(0.08838865,0.08838865)"
         style="opacity:0.12886598;fill:#000000;fill-opacity:1;stroke:#000000;stroke-width:1.29999995;stroke-miterlimit:4;stroke-opacity:1;stroke-dasharray:none"
         id="g3199">
        <path
           style="color:#000000;fill:#000000;fill-opacity:1;fill-rule:evenodd;stroke:#000000;stroke-width:1.29999995;stroke-linecap:butt;stroke-linejoin:miter;stroke-miterlimit:4;stroke-opacity:1;stroke-dasharray:none;stroke-dashoffset:0;marker:none;visibility:visible;display:inline;overflow:visible"
           d="m 29.163487,19.614074 c 0,0 1.115986,3.721376 0.353657,6.73398 -0.762329,3.012604 -0.247896,7.862113 -0.247896,7.862113 l 1.615125,0.424206 c 0,0 -0.766878,-4.605734 0.04698,-8.109542 0.813862,-3.503808 -0.353543,-6.909843 -0.353543,-6.909843 l -1.414327,-9.14e-4 z"
           id="path3201"
           sodipodi:nodetypes="csccscc"
           inkscape:connector-curvature="0" />
        <path
           style="color:#000000;fill:#000000;fill-opacity:1;fill-rule:evenodd;stroke:#000000;stroke-width:1.29999995;stroke-linecap:butt;stroke-linejoin:miter;stroke-miterlimit:4;stroke-opacity:1;stroke-dasharray:none;stroke-dashoffset:0;marker:none;visibility:visible;display:inline;overflow:visible"
           d="m 9.9124168,19.759341 c 0,0 1.1159872,3.721376 0.3536572,6.73398 -0.7623292,3.012604 -0.247896,7.862113 -0.247896,7.862113 l 1.438349,-0.548066 c 0,0 -0.590101,-3.633462 0.223761,-7.13727 0.813862,-3.503808 -0.353543,-6.909843 -0.353543,-6.909843 l -1.4143282,-9.14e-4 z"
           id="path3203"
           sodipodi:nodetypes="csccscc"
           inkscape:connector-curvature="0" />
        <path
           sodipodi:nodetypes="csccscc"
           id="path3205"
           d="m 11.66716,19.714074 c 0,0 1.115986,3.721376 0.353657,6.73398 -0.762329,3.012604 -3.402976,5.316436 -3.402976,5.316436 l 1.2081968,1.96573 c 0,0 2.7951302,-3.601581 3.6089922,-7.105389 0.813862,-3.503808 -0.353543,-6.909843 -0.353543,-6.909843 l -1.414327,-9.14e-4 z"
           style="color:#000000;fill:#000000;fill-opacity:1;fill-rule:evenodd;stroke:#000000;stroke-width:1.29999995;stroke-linecap:butt;stroke-linejoin:miter;stroke-miterlimit:4;stroke-opacity:1;stroke-dasharray:none;stroke-dashoffset:0;marker:none;visibility:visible;display:inline;overflow:visible"
           inkscape:connector-curvature="0" />
        <path
           style="color:#000000;fill:#000000;fill-opacity:1;fill-rule:evenodd;stroke:#000000;stroke-width:1.29999995;stroke-linecap:butt;stroke-linejoin:miter;stroke-miterlimit:4;stroke-opacity:1;stroke-dasharray:none;stroke-dashoffset:0;marker:none;visibility:visible;display:inline;overflow:visible"
           d="m 21.163487,19.614074 c 0,0 1.115986,3.721376 0.353657,6.73398 -0.762329,3.012604 -0.247896,7.862113 -0.247896,7.862113 l 1.659319,0.556788 c 0,0 -0.811072,-4.738316 0.0028,-8.242124 0.813862,-3.503808 -0.353543,-6.909843 -0.353543,-6.909843 l -1.414327,-9.14e-4 z"
           id="path3207"
           sodipodi:nodetypes="csccscc"
           inkscape:connector-curvature="0" />
        <path
           sodipodi:nodetypes="csccscc"
           id="path3209"
           d="m 35.163487,19.614074 c 0,0 1.115986,3.721376 0.353657,6.73398 -0.762329,3.012604 1.033735,7.155006 1.033735,7.155006 l 1.526736,-1.210978 c 0,0 -1.96012,-2.263443 -1.146258,-5.767251 0.813862,-3.503808 -0.353543,-6.909843 -0.353543,-6.909843 l -1.414327,-9.14e-4 z"
           style="color:#000000;fill:#000000;fill-opacity:1;fill-rule:evenodd;stroke:#000000;stroke-width:1.29999995;stroke-linecap:butt;stroke-linejoin:miter;stroke-miterlimit:4;stroke-opacity:1;stroke-dasharray:none;stroke-dashoffset:0;marker:none;visibility:visible;display:inline;overflow:visible"
           inkscape:connector-curvature="0" />
        <path
           sodipodi:nodetypes="csccscc"
           id="path3211"
           d="m 31.163487,19.614074 c 0,0 1.115986,3.721376 0.353657,6.73398 -0.762329,3.012604 -0.247896,7.862113 -0.247896,7.862113 l 1.526736,-0.06193 c 0,0 -0.678489,-4.119598 0.135373,-7.623406 0.813862,-3.503808 -0.353543,-6.909843 -0.353543,-6.909843 l -1.414327,-9.14e-4 z"
           style="color:#000000;fill:#000000;fill-opacity:1;fill-rule:evenodd;stroke:#000000;stroke-width:1.29999995;stroke-linecap:butt;stroke-linejoin:miter;stroke-miterlimit:4;stroke-opacity:1;stroke-dasharray:none;stroke-dashoffset:0;marker:none;visibility:visible;display:inline;overflow:visible"
           inkscape:connector-curvature="0" />
        <path
           style="color:#000000;fill:#000000;fill-opacity:1;fill-rule:evenodd;stroke:#000000;stroke-width:1.29999995;stroke-linecap:butt;stroke-linejoin:miter;stroke-miterlimit:4;stroke-opacity:1;stroke-dasharray:none;stroke-dashoffset:0;marker:none;visibility:visible;display:inline;overflow:visible"
           d="m 33.163487,19.614074 c 0,0 1.115986,3.721376 0.353657,6.73398 -0.762329,3.012604 -1.043391,7.685336 -1.043391,7.685336 l 1.791901,0.424206 c 0,0 -0.148159,-4.428957 0.665703,-7.932765 0.813862,-3.503808 -0.353543,-6.909843 -0.353543,-6.909843 l -1.414327,-9.14e-4 z"
           id="path3213"
           sodipodi:nodetypes="csccscc"
           inkscape:connector-curvature="0" />
        <path
           sodipodi:nodetypes="csccscc"
           id="path3215"
           d="m 27.163487,19.614074 c 0,0 1.115986,3.721376 0.353657,6.73398 -0.762329,3.012604 0.547599,7.641142 0.547599,7.641142 l 1.659319,-0.680648 c 0,0 -1.606567,-3.279909 -0.792705,-6.783717 0.813862,-3.503808 -0.353543,-6.909843 -0.353543,-6.909843 l -1.414327,-9.14e-4 z"
           style="color:#000000;fill:#000000;fill-opacity:1;fill-rule:evenodd;stroke:#000000;stroke-width:1.29999995;stroke-linecap:butt;stroke-linejoin:miter;stroke-miterlimit:4;stroke-opacity:1;stroke-dasharray:none;stroke-dashoffset:0;marker:none;visibility:visible;display:inline;overflow:visible"
           inkscape:connector-curvature="0" />
        <path
           style="color:#000000;fill:#000000;fill-opacity:1;fill-rule:evenodd;stroke:#000000;stroke-width:1.29999995;stroke-linecap:butt;stroke-linejoin:miter;stroke-miterlimit:4;stroke-opacity:1;stroke-dasharray:none;stroke-dashoffset:0;marker:none;visibility:visible;display:inline;overflow:visible"
           d="m 25.163487,19.614074 c 0,0 1.115986,3.721376 0.353657,6.73398 -0.762329,3.012604 -1.35275,7.72953 -1.35275,7.72953 l 1.526736,0.203235 c 0,0 0.426365,-4.25218 1.240227,-7.755988 0.813862,-3.503808 -0.353543,-6.909843 -0.353543,-6.909843 l -1.414327,-9.14e-4 z"
           id="path3217"
           sodipodi:nodetypes="csccscc"
           inkscape:connector-curvature="0" />
        <path
           sodipodi:nodetypes="csccscc"
           id="path3219"
           d="m 23.163487,19.614074 c 0,0 1.115986,3.721376 0.353657,6.73398 -0.762329,3.012604 -0.247896,7.862113 -0.247896,7.862113 l 1.438348,-0.548066 c 0,0 -0.590101,-3.633462 0.223761,-7.13727 0.813862,-3.503808 -0.353543,-6.909843 -0.353543,-6.909843 l -1.414327,-9.14e-4 z"
           style="color:#000000;fill:#000000;fill-opacity:1;fill-rule:evenodd;stroke:#000000;stroke-width:1.29999995;stroke-linecap:butt;stroke-linejoin:miter;stroke-miterlimit:4;stroke-opacity:1;stroke-dasharray:none;stroke-dashoffset:0;marker:none;visibility:visible;display:inline;overflow:visible"
           inkscape:connector-curvature="0" />
        <path
           style="color:#000000;fill:#000000;fill-opacity:1;fill-rule:evenodd;stroke:#000000;stroke-width:1.29999995;stroke-linecap:butt;stroke-linejoin:miter;stroke-miterlimit:4;stroke-opacity:1;stroke-dasharray:none;stroke-dashoffset:0;marker:none;visibility:visible;display:inline;overflow:visible"
           d="m 13.313608,19.714074 c 0,0 1.115986,3.721376 0.353657,6.73398 -0.762329,3.012604 -0.247896,7.862113 -0.247896,7.862113 l 1.580148,0.388259 c 0,0 -0.731901,-4.569787 0.08196,-8.073595 0.813862,-3.503808 -0.353543,-6.909843 -0.353543,-6.909843 l -1.414327,-9.14e-4 z"
           id="path3221"
           sodipodi:nodetypes="csccscc"
           inkscape:connector-curvature="0" />
        <path
           sodipodi:nodetypes="csccscc"
           id="path3223"
           d="m 19.418083,20.520258 c 0,0 0.197631,3.609543 -0.35345,6.73398 -0.539772,3.060322 2.241784,7.242535 2.241784,7.242535 l 1.414746,-0.632343 c 0,0 -2.794401,-2.615644 -2.162404,-6.785735 0.557673,-3.67968 0.273651,-6.557523 0.273651,-6.557523 l -1.414327,-9.14e-4 z"
           style="color:#000000;fill:#000000;fill-opacity:1;fill-rule:evenodd;stroke:#000000;stroke-width:1.29999995;stroke-linecap:butt;stroke-linejoin:miter;stroke-miterlimit:4;stroke-opacity:1;stroke-dasharray:none;stroke-dashoffset:0;marker:none;visibility:visible;display:inline;overflow:visible"
           inkscape:connector-curvature="0" />
        <path
           sodipodi:nodetypes="csccscc"
           id="path3225"
           d="m 15.163487,19.614074 c 0,0 1.115986,3.721376 0.353657,6.73398 -0.762329,3.012604 -0.247896,7.862113 -0.247896,7.862113 l 1.438348,-0.548066 c 0,0 -0.590101,-3.633462 0.223761,-7.13727 0.813862,-3.503808 -0.353543,-6.909843 -0.353543,-6.909843 l -1.414327,-9.14e-4 z"
           style="color:#000000;fill:#000000;fill-opacity:1;fill-rule:evenodd;stroke:#000000;stroke-width:1.29999995;stroke-linecap:butt;stroke-linejoin:miter;stroke-miterlimit:4;stroke-opacity:1;stroke-dasharray:none;stroke-dashoffset:0;marker:none;visibility:visible;display:inline;overflow:visible"
           inkscape:connector-curvature="0" />
        <path
           style="color:#000000;fill:#000000;fill-opacity:1;fill-rule:evenodd;stroke:#000000;stroke-width:1.29999995;stroke-linecap:butt;stroke-linejoin:miter;stroke-miterlimit:4;stroke-opacity:1;stroke-dasharray:none;stroke-dashoffset:0;marker:none;visibility:visible;display:inline;overflow:visible"
           d="m 16.816129,20.479515 c 0,0 1.115986,3.721376 0.353657,6.73398 -0.762329,3.012604 -2.442798,4.590885 -2.442798,4.590885 l 1.237969,1.135424 c 0,0 1.80518,-2.045724 2.619042,-5.549532 0.813862,-3.503808 -0.353543,-6.909843 -0.353543,-6.909843 l -1.414327,-9.14e-4 z"
           id="path3227"
           sodipodi:nodetypes="csccscc"
           inkscape:connector-curvature="0" />
      </g>
      <g
         id="g3183">
        <path
           sodipodi:nodetypes="csccscc"
           id="path3121"
           d="m 29.163487,19.614074 c 0,0 1.115986,3.721376 0.353657,6.73398 -0.762329,3.012604 -0.247896,7.862113 -0.247896,7.862113 l 1.615125,0.424206 c 0,0 -0.766878,-4.605734 0.04698,-8.109542 0.813862,-3.503808 -0.353543,-6.909843 -0.353543,-6.909843 l -1.414327,-9.14e-4 z"
           style="color:#000000;fill:url(#radialGradient3182);fill-opacity:1;fill-rule:evenodd;stroke:none;stroke-width:0.40000001;marker:none;visibility:visible;display:inline;overflow:visible"
           inkscape:connector-curvature="0" />
        <path
           sodipodi:nodetypes="csccscc"
           id="path3002"
           d="m 9.9124168,19.759341 c 0,0 1.1159872,3.721376 0.3536572,6.73398 -0.7623292,3.012604 -0.247896,7.862113 -0.247896,7.862113 l 1.438349,-0.548066 c 0,0 -0.590101,-3.633462 0.223761,-7.13727 0.813862,-3.503808 -0.353543,-6.909843 -0.353543,-6.909843 l -1.4143282,-9.14e-4 z"
           style="color:#000000;fill:url(#radialGradient3184);fill-opacity:1;fill-rule:evenodd;stroke:none;stroke-width:0.40000001;marker:none;visibility:visible;display:inline;overflow:visible"
           inkscape:connector-curvature="0" />
        <path
           style="color:#000000;fill:url(#radialGradient3186);fill-opacity:1;fill-rule:evenodd;stroke:none;stroke-width:0.40000001;marker:none;visibility:visible;display:inline;overflow:visible"
           d="m 11.66716,19.714074 c 0,0 1.115986,3.721376 0.353657,6.73398 -0.762329,3.012604 -3.402976,5.316436 -3.402976,5.316436 l 1.2081968,1.96573 c 0,0 2.7951302,-3.601581 3.6089922,-7.105389 0.813862,-3.503808 -0.353543,-6.909843 -0.353543,-6.909843 l -1.414327,-9.14e-4 z"
           id="path2976"
           sodipodi:nodetypes="csccscc"
           inkscape:connector-curvature="0" />
        <path
           sodipodi:nodetypes="csccscc"
           id="path3105"
           d="m 21.163487,19.614074 c 0,0 1.115986,3.721376 0.353657,6.73398 -0.762329,3.012604 -0.247896,7.862113 -0.247896,7.862113 l 1.659319,0.556788 c 0,0 -0.811072,-4.738316 0.0028,-8.242124 0.813862,-3.503808 -0.353543,-6.909843 -0.353543,-6.909843 l -1.414327,-9.14e-4 z"
           style="color:#000000;fill:url(#radialGradient3188);fill-opacity:1;fill-rule:evenodd;stroke:none;stroke-width:0.40000001;marker:none;visibility:visible;display:inline;overflow:visible"
           inkscape:connector-curvature="0" />
        <path
           style="color:#000000;fill:url(#radialGradient3190);fill-opacity:1;fill-rule:evenodd;stroke:none;stroke-width:0.40000001;marker:none;visibility:visible;display:inline;overflow:visible"
           d="m 35.163487,19.614074 c 0,0 1.115986,3.721376 0.353657,6.73398 -0.762329,3.012604 1.033735,7.155006 1.033735,7.155006 l 1.526736,-1.210978 c 0,0 -1.96012,-2.263443 -1.146258,-5.767251 0.813862,-3.503808 -0.353543,-6.909843 -0.353543,-6.909843 l -1.414327,-9.14e-4 z"
           id="path3133"
           sodipodi:nodetypes="csccscc"
           inkscape:connector-curvature="0" />
        <path
           style="color:#000000;fill:url(#radialGradient3192);fill-opacity:1;fill-rule:evenodd;stroke:none;stroke-width:0.40000001;marker:none;visibility:visible;display:inline;overflow:visible"
           d="m 31.163487,19.614074 c 0,0 1.115986,3.721376 0.353657,6.73398 -0.762329,3.012604 -0.247896,7.862113 -0.247896,7.862113 l 1.526736,-0.06193 c 0,0 -0.678489,-4.119598 0.135373,-7.623406 0.813862,-3.503808 -0.353543,-6.909843 -0.353543,-6.909843 l -1.414327,-9.14e-4 z"
           id="path3125"
           sodipodi:nodetypes="csccscc"
           inkscape:connector-curvature="0" />
        <path
           sodipodi:nodetypes="csccscc"
           id="path3129"
           d="m 33.163487,19.614074 c 0,0 1.115986,3.721376 0.353657,6.73398 -0.762329,3.012604 -1.043391,7.685336 -1.043391,7.685336 l 1.791901,0.424206 c 0,0 -0.148159,-4.428957 0.665703,-7.932765 0.813862,-3.503808 -0.353543,-6.909843 -0.353543,-6.909843 l -1.414327,-9.14e-4 z"
           style="color:#000000;fill:url(#radialGradient3194);fill-opacity:1;fill-rule:evenodd;stroke:none;stroke-width:0.40000001;marker:none;visibility:visible;display:inline;overflow:visible"
           inkscape:connector-curvature="0" />
        <path
           style="color:#000000;fill:url(#radialGradient3196);fill-opacity:1;fill-rule:evenodd;stroke:none;stroke-width:0.40000001;marker:none;visibility:visible;display:inline;overflow:visible"
           d="m 27.163487,19.614074 c 0,0 1.115986,3.721376 0.353657,6.73398 -0.762329,3.012604 0.547599,7.641142 0.547599,7.641142 l 1.659319,-0.680648 c 0,0 -1.606567,-3.279909 -0.792705,-6.783717 0.813862,-3.503808 -0.353543,-6.909843 -0.353543,-6.909843 l -1.414327,-9.14e-4 z"
           id="path3117"
           sodipodi:nodetypes="csccscc"
           inkscape:connector-curvature="0" />
        <path
           sodipodi:nodetypes="csccscc"
           id="path3113"
           d="m 25.163487,19.614074 c 0,0 1.115986,3.721376 0.353657,6.73398 -0.762329,3.012604 -1.35275,7.72953 -1.35275,7.72953 l 1.526736,0.203235 c 0,0 0.426365,-4.25218 1.240227,-7.755988 0.813862,-3.503808 -0.353543,-6.909843 -0.353543,-6.909843 l -1.414327,-9.14e-4 z"
           style="color:#000000;fill:url(#radialGradient3198);fill-opacity:1;fill-rule:evenodd;stroke:none;stroke-width:0.40000001;marker:none;visibility:visible;display:inline;overflow:visible"
           inkscape:connector-curvature="0" />
        <path
           style="color:#000000;fill:url(#radialGradient3200);fill-opacity:1;fill-rule:evenodd;stroke:none;stroke-width:0.40000001;marker:none;visibility:visible;display:inline;overflow:visible"
           d="m 23.163487,19.614074 c 0,0 1.115986,3.721376 0.353657,6.73398 -0.762329,3.012604 -0.247896,7.862113 -0.247896,7.862113 l 1.438348,-0.548066 c 0,0 -0.590101,-3.633462 0.223761,-7.13727 0.813862,-3.503808 -0.353543,-6.909843 -0.353543,-6.909843 l -1.414327,-9.14e-4 z"
           id="path3109"
           sodipodi:nodetypes="csccscc"
           inkscape:connector-curvature="0" />
        <path
           sodipodi:nodetypes="csccscc"
           id="path2986"
           d="m 13.313608,19.714074 c 0,0 1.115986,3.721376 0.353657,6.73398 -0.762329,3.012604 -0.247896,7.862113 -0.247896,7.862113 l 1.580148,0.388259 c 0,0 -0.731901,-4.569787 0.08196,-8.073595 0.813862,-3.503808 -0.353543,-6.909843 -0.353543,-6.909843 l -1.414327,-9.14e-4 z"
           style="color:#000000;fill:url(#radialGradient3202);fill-opacity:1;fill-rule:evenodd;stroke:none;stroke-width:0.40000001;marker:none;visibility:visible;display:inline;overflow:visible"
           inkscape:connector-curvature="0" />
        <path
           style="color:#000000;fill:url(#radialGradient3204);fill-opacity:1;fill-rule:evenodd;stroke:none;stroke-width:0.40000001;marker:none;visibility:visible;display:inline;overflow:visible"
           d="m 19.418083,20.520258 c 0,0 0.197631,3.609543 -0.35345,6.73398 -0.539772,3.060322 2.241784,7.242535 2.241784,7.242535 l 1.414746,-0.632343 c 0,0 -2.794401,-2.615644 -2.162404,-6.785735 0.557673,-3.67968 0.273651,-6.557523 0.273651,-6.557523 l -1.414327,-9.14e-4 z"
           id="path2998"
           sodipodi:nodetypes="csccscc"
           inkscape:connector-curvature="0" />
        <path
           style="color:#000000;fill:url(#radialGradient3206);fill-opacity:1;fill-rule:evenodd;stroke:none;stroke-width:0.40000001;marker:none;visibility:visible;display:inline;overflow:visible"
           d="m 15.163487,19.614074 c 0,0 1.115986,3.721376 0.353657,6.73398 -0.762329,3.012604 -0.247896,7.862113 -0.247896,7.862113 l 1.438348,-0.548066 c 0,0 -0.590101,-3.633462 0.223761,-7.13727 0.813862,-3.503808 -0.353543,-6.909843 -0.353543,-6.909843 l -1.414327,-9.14e-4 z"
           id="path2990"
           sodipodi:nodetypes="csccscc"
           inkscape:connector-curvature="0" />
        <path
           sodipodi:nodetypes="csccscc"
           id="path2994"
           d="m 16.816129,20.479515 c 0,0 1.115986,3.721376 0.353657,6.73398 -0.762329,3.012604 -2.442798,4.590885 -2.442798,4.590885 l 1.237969,1.135424 c 0,0 1.80518,-2.045724 2.619042,-5.549532 0.813862,-3.503808 -0.353543,-6.909843 -0.353543,-6.909843 l -1.414327,-9.14e-4 z"
           style="color:#000000;fill:url(#radialGradient3208);fill-opacity:1;fill-rule:evenodd;stroke:none;stroke-width:0.40000001;marker:none;visibility:visible;display:inline;overflow:visible"
           inkscape:connector-curvature="0" />
      </g>
      <path
         inkscape:r_cy="true"
         inkscape:r_cx="true"
         sodipodi:nodetypes="cssssss"
         id="path375"
         d="m 5.4146811,19.121548 c -0.051257,-1.34e-4 0.8367519,12.817072 1.5422648,21.806255 0.1820049,2.307459 0.551916,3.246606 1.9853618,3.246606 11.8168233,0 28.6106393,0.0861 29.1824863,0.084 2.766505,-0.01016 2.71473,-1.037486 2.943851,-3.220254 0.08341,-0.794605 1.532502,-21.827229 1.518678,-21.827229 -9.901078,0 -24.939532,-0.0574 -37.1726419,-0.08937 z"
         style="opacity:0.62886598;fill:none;stroke:#ffffff;stroke-width:1;stroke-linecap:butt;stroke-linejoin:miter;stroke-miterlimit:4;stroke-opacity:1;stroke-dasharray:none"
         inkscape:connector-curvature="0" />
      <path
         inkscape:r_cy="true"
         inkscape:r_cx="true"
         sodipodi:nodetypes="cssssscss"
         id="path1841"
         d="M 7.1632325,6.56876 C 6.0964702,6.5712 5.2036739,6.59587 4.7173745,7.611591 c -0.084523,0.176541 -2.6609163,7.341598 -2.7847816,7.614844 -1.06040867,2.33923 -0.082495,5.285922 1.9656538,5.266193 0.3895076,-0.0036 40.3590993,0.01827 40.9788973,0 1.743492,-0.05049 1.966602,-3.462731 1.21604,-4.997739 C 46.050663,15.407927 42.567223,7.513946 42.47838,7.374125 42.067463,6.749683 41.147252,6.476015 40.463708,6.501646 40.329055,6.506821 7.2964985,6.568457 7.1632325,6.56876 z"
         style="fill:url(#linearGradient3210);fill-opacity:1;fill-rule:evenodd;stroke:#204a87;stroke-width:1;stroke-linecap:butt;stroke-linejoin:miter;stroke-miterlimit:4;stroke-opacity:1;stroke-dasharray:none"
         inkscape:connector-curvature="0" />
      <path
         sodipodi:nodetypes="cccccc"
         id="path2956"
         d="m 4.79225,20.902176 2.4999192,8.8e-5 0.7658514,20.610874 -0.7625435,3.073191 C 6.688538,44.099871 6.4168015,43.362011 6.2792295,42.523528 L 4.79225,20.902176 z"
         style="opacity:0.14948455;color:#000000;fill:#555753;fill-opacity:1;fill-rule:evenodd;stroke:none;stroke-width:0.5;marker:none;visibility:visible;display:inline;overflow:visible"
         inkscape:connector-curvature="0" />
      <path
         sodipodi:nodetypes="ccccccc"
         id="path2958"
         d="m 8.0335688,41.611683 -0.712303,2.928885 c 0.4228633,0.224895 0.735746,0.312261 1.1912817,0.466606 l 30.0258805,-0.0287 c 0.578922,-0.03962 1.13067,-0.0658 1.514338,-0.171585 L 38.00699,41.370874 8.0335688,41.611683 z"
         style="opacity:0.42783502;color:#000000;fill:#eeeeec;fill-opacity:1;fill-rule:evenodd;stroke:none;stroke-width:0.5;marker:none;visibility:visible;display:inline;overflow:visible"
         inkscape:connector-curvature="0" />
      <path
         sodipodi:nodetypes="cccccc"
         id="path2960"
         d="m 38.00699,41.370874 2.012499,3.444888 c 0.618202,-0.263205 1.330342,-0.723813 1.611423,-1.853898 L 43.139311,20.94521 39.69211,20.94301 38.00699,41.3709 z"
         style="opacity:0.37113402;color:#000000;fill:#eeeeec;fill-opacity:1;fill-rule:evenodd;stroke:none;stroke-width:0.5;marker:none;visibility:visible;display:inline;overflow:visible"
         inkscape:connector-curvature="0" />
      <path
         d="m 40.375,7.53125 c -0.06721,2.626e-4 -0.187576,0.030899 -0.3125,0.03125 -0.249848,7.031e-4 -0.604044,-0.00103 -1.0625,0 -0.916912,0.00206 -2.221725,-0.00304 -3.78125,0 -3.11905,0.00608 -7.258907,0.02378 -11.40625,0.03125 -8.294686,0.01494 -16.6369708,-4.38e-5 -16.65625,0 -0.5195582,0.00119 -0.8946888,0.058675 -1.09375,0.125 -0.1990612,0.066325 -0.267138,0.05319 -0.40625,0.34375 0.068175,-0.1423958 0.021728,-0.026115 0,0.03125 -0.021728,0.057365 -0.054922,0.1450013 -0.09375,0.25 C 5.4848433,8.5537474 5.3772673,8.8700039 5.25,9.21875 4.9954653,9.9162423 4.647162,10.82881 4.3125,11.75 c -0.334662,0.92119 -0.6456999,1.849915 -0.90625,2.5625 -0.1302751,0.356293 -0.2602217,0.650045 -0.34375,0.875 -0.083528,0.224955 -0.09934,0.274269 -0.1875,0.46875 -0.4116522,0.908093 -0.3939016,1.998564 -0.125,2.75 0.2689016,0.751436 0.6376222,1.067496 1.15625,1.0625 0.1361717,-0.0013 0.7125101,-2.18e-4 1.84375,0 1.1312399,2.18e-4 2.7196573,-6.29e-4 4.625,0 3.810685,0.0013 8.879551,-0.0014 13.9375,0 5.057949,0.0014 10.12961,5.75e-4 13.96875,0 1.91957,-2.88e-4 3.504113,0.0012 4.65625,0 1.152137,-0.0012 1.997193,-0.0027 1.90625,0 0.09573,-0.0028 0.101126,0.006 0.21875,-0.15625 0.117624,-0.162236 0.240925,-0.520581 0.3125,-0.9375 0.14315,-0.833838 0.004,-1.950707 -0.21875,-2.40625 -0.06805,-0.13918 -0.03415,-0.09269 -0.0625,-0.15625 -0.02835,-0.06356 -0.07502,-0.137503 -0.125,-0.25 C 44.868786,15.337505 44.729962,15.002468 44.5625,14.625 44.227576,13.870065 43.788496,12.876072 43.34375,11.875 42.899004,10.873928 42.464931,9.8847897 42.125,9.125 41.955035,8.7451052 41.790172,8.4138381 41.6875,8.1875 41.636164,8.074331 41.590407,7.9975179 41.5625,7.9375 41.439139,7.7825869 40.858748,7.5177979 40.5,7.53125 c -0.09998,0.00384 -0.04327,-1.135e-4 -0.0625,0 -0.01923,1.135e-4 -0.02889,-1.313e-4 -0.0625,0 z"
         inkscape:href="#path1841"
         id="path3237"
         style="opacity:0.38659794;fill:none;stroke:url(#linearGradient3212);stroke-width:1;stroke-linecap:butt;stroke-linejoin:miter;stroke-miterlimit:4;stroke-opacity:1;stroke-dasharray:none"
         xlink:href="#path1841"
         inkscape:original="M 40.46875 6.5 C 40.334097 6.505175 7.289516 6.562197 7.15625 6.5625 C 6.0894877 6.56494 5.2050494 6.609279 4.71875 7.625 C 4.634227 7.801541 2.0613653 14.945504 1.9375 15.21875 C 0.87709133 17.55798 1.8581012 20.519729 3.90625 20.5 C 4.2957576 20.4964 44.255202 20.51827 44.875 20.5 C 46.618492 20.44951 46.844312 17.035008 46.09375 15.5 C 46.051229 15.413038 42.557593 7.514821 42.46875 7.375 C 42.057833 6.750558 41.152294 6.474369 40.46875 6.5 z "
         inkscape:radius="-1.0454103"
         sodipodi:type="inkscape:offset" />
      <path
         sodipodi:nodetypes="ccccc"
         id="path2962"
         d="M 8,10 7.375,12 39.375001,12 38.593148,10.07544 8,10 z"
         style="opacity:0.82989693;color:#000000;fill:url(#linearGradient3214);fill-opacity:1;fill-rule:evenodd;stroke:none;stroke-width:0.5;marker:none;visibility:visible;display:inline;overflow:visible"
         inkscape:connector-curvature="0" />
      <path
         sodipodi:nodetypes="ccccccc"
         id="rect3006"
         d="m 9.8535488,1.5000014 27.3137672,0 c 0.195868,0 0.353553,0.1576849 0.353553,0.3535536 l 0,9.646448 c 0,0 -28.0208738,0 -28.0208738,0 l 0,-9.646448 c 0,-0.1958687 0.1576849,-0.3535536 0.3535536,-0.3535536 z"
         style="color:#000000;fill:url(#linearGradient3216);fill-opacity:1;fill-rule:evenodd;stroke:#888a85;stroke-width:1.00000083;stroke-linecap:butt;stroke-linejoin:miter;stroke-miterlimit:4;stroke-opacity:1;stroke-dashoffset:0;marker:none;visibility:visible;display:inline;overflow:visible"
         inkscape:connector-curvature="0" />
      <path
         id="path3103"
         d="m 10.499998,10.522594 0,-8.0225929 26.004383,0 0,8.1117319"
         style="opacity:0.62886598;color:#000000;fill:none;stroke:#ffffff;stroke-width:1.00000024;stroke-linecap:square;stroke-linejoin:miter;stroke-miterlimit:4;stroke-opacity:1;stroke-dasharray:none;stroke-dashoffset:0;marker:none;visibility:visible;display:inline;overflow:visible"
         inkscape:connector-curvature="0" />
      <path
         sodipodi:type="arc"
         style="color:#000000;fill:#cc0000;fill-opacity:1;fill-rule:evenodd;stroke:#a40000;stroke-width:1.24172473;stroke-linecap:square;stroke-linejoin:miter;stroke-miterlimit:4;stroke-opacity:1;stroke-dasharray:none;stroke-dashoffset:0;marker:none;visibility:visible;display:inline;overflow:visible"
         id="path3139"
         sodipodi:cx="40.5"
         sodipodi:cy="15"
         sodipodi:rx="2.5"
         sodipodi:ry="1.25"
         d="m 43,15 c 0,0.690356 -1.119288,1.25 -2.5,1.25 -1.380712,0 -2.5,-0.559644 -2.5,-1.25 0,-0.690356 1.119288,-1.25 2.5,-1.25 1.380712,0 2.5,0.559644 2.5,1.25 z"
         transform="matrix(0.814384,0,0,0.796379,7.58372,3.212694)" />
      <path
         transform="matrix(0.814384,0,0,0.796379,7.58372,2.549784)"
         d="m 43,15 c 0,0.690356 -1.119288,1.25 -2.5,1.25 -1.380712,0 -2.5,-0.559644 -2.5,-1.25 0,-0.690356 1.119288,-1.25 2.5,-1.25 1.380712,0 2.5,0.559644 2.5,1.25 z"
         sodipodi:ry="1.25"
         sodipodi:rx="2.5"
         sodipodi:cy="15"
         sodipodi:cx="40.5"
         id="path3137"
         style="color:#000000;fill:#ef2929;fill-opacity:1;fill-rule:evenodd;stroke:url(#linearGradient3218);stroke-width:1.24172473;stroke-linecap:square;stroke-linejoin:miter;stroke-miterlimit:4;stroke-opacity:1;stroke-dasharray:none;stroke-dashoffset:0;marker:none;visibility:visible;display:inline;overflow:visible"
         sodipodi:type="arc" />
      <rect
         y="6.6875"
         x="9"
         height="5.3125"
         width="29"
         id="rect3157"
         style="opacity:0.27319587;color:#000000;fill:url(#linearGradient3220);fill-opacity:1;fill-rule:nonzero;stroke:none;stroke-width:0.40000001;marker:none;visibility:visible;display:inline;overflow:visible" />
      <rect
         ry="0.5"
         rx="0.5"
         y="4"
         x="12"
         height="1"
         width="23"
         id="rect3167"
         style="opacity:0.1391753;color:#000000;fill:#000000;fill-opacity:1;fill-rule:nonzero;stroke:none;stroke-width:0.40000001;marker:none;visibility:visible;display:inline;overflow:visible" />
      <rect
         ry="0.5"
         rx="0.5"
         style="opacity:0.1391753;color:#000000;fill:#000000;fill-opacity:1;fill-rule:nonzero;stroke:none;stroke-width:0.40000001;marker:none;visibility:visible;display:inline;overflow:visible"
         id="rect3169"
         width="15"
         height="1"
         x="12"
         y="6" />
      <rect
         ry="0.5"
         rx="0.5"
         y="8"
         x="12"
         height="1"
         width="19"
         id="rect3171"
         style="opacity:0.1391753;color:#000000;fill:#000000;fill-opacity:1;fill-rule:nonzero;stroke:none;stroke-width:0.40000001;marker:none;visibility:visible;display:inline;overflow:visible" />
    </g>
  </g>
</svg>
