<?xml version="1.0" encoding="UTF-8" standalone="no"?>
<!-- Created with Inkscape (http://www.inkscape.org/) -->

<svg
   xmlns:dc="http://purl.org/dc/elements/1.1/"
   xmlns:cc="http://creativecommons.org/ns#"
   xmlns:rdf="http://www.w3.org/1999/02/22-rdf-syntax-ns#"
   xmlns:svg="http://www.w3.org/2000/svg"
   xmlns="http://www.w3.org/2000/svg"
   xmlns:xlink="http://www.w3.org/1999/xlink"
   xmlns:sodipodi="http://sodipodi.sourceforge.net/DTD/sodipodi-0.dtd"
   xmlns:inkscape="http://www.inkscape.org/namespaces/inkscape"
   version="1.0"
   width="22"
   height="22"
   id="svg2"
   inkscape:version="0.48.1 r9760"
   sodipodi:docname="folder-sync.svg">
  <metadata
     id="metadata63">
    <rdf:RDF>
      <cc:Work
         rdf:about="">
        <dc:format>image/svg+xml</dc:format>
        <dc:type
           rdf:resource="http://purl.org/dc/dcmitype/StillImage" />
        <dc:title />
      </cc:Work>
    </rdf:RDF>
  </metadata>
  <sodipodi:namedview
     pagecolor="#ffffff"
     bordercolor="#666666"
     borderopacity="1"
     objecttolerance="10"
     gridtolerance="10"
     guidetolerance="10"
     inkscape:pageopacity="0"
     inkscape:pageshadow="2"
     inkscape:window-width="1366"
     inkscape:window-height="688"
     id="namedview61"
     showgrid="false"
     showguides="true"
     inkscape:guide-bbox="true"
     inkscape:zoom="11.871745"
     inkscape:cx="-26.603013"
     inkscape:cy="4.5424422"
     inkscape:window-x="0"
     inkscape:window-y="25"
     inkscape:window-maximized="1"
     inkscape:current-layer="svg2" />
  <defs
     id="defs4">
    <linearGradient
       id="linearGradient5060">
      <stop
         id="stop5062"
         style="stop-color:#000000;stop-opacity:1"
         offset="0" />
      <stop
         id="stop5064"
         style="stop-color:#000000;stop-opacity:0"
         offset="1" />
    </linearGradient>
    <radialGradient
       cx="605.71429"
       cy="486.64789"
       r="117.14286"
       fx="605.71429"
       fy="486.64789"
       id="radialGradient4359"
       xlink:href="#linearGradient5060"
       gradientUnits="userSpaceOnUse"
       gradientTransform="matrix(2.774389,0,0,1.969706,-1891.633,-872.8854)" />
    <linearGradient
       id="linearGradient5048">
      <stop
         id="stop5050"
         style="stop-color:#000000;stop-opacity:0"
         offset="0" />
      <stop
         id="stop5056"
         style="stop-color:#000000;stop-opacity:1"
         offset="0.5" />
      <stop
         id="stop5052"
         style="stop-color:#000000;stop-opacity:0"
         offset="1" />
    </linearGradient>
    <linearGradient
       id="linearGradient5157">
      <stop
         id="stop5159"
         style="stop-color:#c1c1c1;stop-opacity:1"
         offset="0" />
      <stop
         id="stop5161"
         style="stop-color:#909090;stop-opacity:1"
         offset="1" />
    </linearGradient>
    <linearGradient
       id="linearGradient11111">
      <stop
         id="stop11113"
         style="stop-color:#ffffff;stop-opacity:1"
         offset="0" />
      <stop
         id="stop11115"
         style="stop-color:#cdcdcd;stop-opacity:1"
         offset="0.91013825" />
      <stop
         id="stop11117"
         style="stop-color:#a1a1a1;stop-opacity:1"
         offset="1" />
    </linearGradient>
    <linearGradient
       id="linearGradient3390">
      <stop
         id="stop3392"
         style="stop-color:#425e7b;stop-opacity:1"
         offset="0" />
      <stop
         id="stop3394"
         style="stop-color:#7a91a7;stop-opacity:1"
         offset="1" />
    </linearGradient>
    <linearGradient
       id="linearGradient7012-661-145-733-759-865-745">
      <stop
         id="stop2699"
         style="stop-color:#9cbbd9;stop-opacity:1"
         offset="0" />
      <stop
         id="stop2701"
         style="stop-color:#5c82ab;stop-opacity:1"
         offset="1" />
    </linearGradient>
    <linearGradient
       id="linearGradient3752">
      <stop
         id="stop3754"
         style="stop-color:#ffffff;stop-opacity:1"
         offset="0" />
      <stop
         id="stop3760"
         style="stop-color:#ffffff;stop-opacity:1"
         offset="0.84754151" />
      <stop
         id="stop3756"
         style="stop-color:#ffffff;stop-opacity:0"
         offset="1" />
    </linearGradient>
    <linearGradient
       id="linearGradient8265-821-176-38-919-66-249">
      <stop
         id="stop2687"
         style="stop-color:#ffffff;stop-opacity:1"
         offset="0" />
      <stop
         id="stop2689"
         style="stop-color:#ffffff;stop-opacity:0"
         offset="1" />
    </linearGradient>
    <mask
       id="mask3749">
      <rect
         style="fill:url(#linearGradient3753);fill-opacity:1;stroke:none"
         id="rect3751"
         transform="scale(-1,-1)"
         y="-12"
         x="-23"
         height="12"
         width="22" />
    </mask>
    <linearGradient
       gradientTransform="translate(-24,-24)"
       gradientUnits="userSpaceOnUse"
       xlink:href="#linearGradient3705"
       id="linearGradient3753"
       y2="12"
       x2="21"
       y1="17"
       x1="18" />
    <linearGradient
       id="linearGradient3705">
      <stop
         offset="0"
         style="stop-color:#ffffff;stop-opacity:1"
         id="stop3707" />
      <stop
         offset="0.51867628"
         style="stop-color:#000000;stop-opacity:1"
         id="stop3713" />
      <stop
         offset="1"
         style="stop-color:#000000;stop-opacity:1"
         id="stop3709" />
    </linearGradient>
    <linearGradient
       id="linearGradient3437">
      <stop
         offset="0"
         style="stop-color:#be93db;stop-opacity:1"
         id="stop3439" />
      <stop
         offset="1"
         style="stop-color:#dcb6f6;stop-opacity:1"
         id="stop3443" />
    </linearGradient>
    <linearGradient
       id="linearGradient3429">
      <stop
         offset="0"
         style="stop-color:#9853c6;stop-opacity:1"
         id="stop3431" />
      <stop
         offset="1"
         style="stop-color:#7d38aa;stop-opacity:1"
         id="stop3435" />
    </linearGradient>
    <linearGradient
       gradientTransform="matrix(0.4873978,0,0,0.4781595,-0.345297,0.700712)"
       gradientUnits="userSpaceOnUse"
       xlink:href="#linearGradient4873"
       id="linearGradient2901"
       y2="43.366352"
       x2="22.245434"
       y1="2.1102102"
       x1="21.628975" />
    <linearGradient
       id="linearGradient4873">
      <stop
         offset="0"
         style="stop-color:#ffffff;stop-opacity:1"
         id="stop4875" />
      <stop
         offset="1"
         style="stop-color:#ffffff;stop-opacity:0"
         id="stop4877" />
    </linearGradient>
    <mask
       id="mask3739">
      <rect
         style="fill:url(#linearGradient3743);fill-opacity:1;stroke:none"
         id="rect3741"
         y="12"
         x="1"
         height="12"
         width="22" />
    </mask>
    <linearGradient
       gradientUnits="userSpaceOnUse"
       xlink:href="#linearGradient3705"
       id="linearGradient3743"
       y2="12"
       x2="21"
       y1="17"
       x1="18" />
    <linearGradient
       id="linearGradient3533">
      <stop
         offset="0"
         style="stop-color:#b0cce6;stop-opacity:1"
         id="stop3535" />
      <stop
         offset="1"
         style="stop-color:#83acd5;stop-opacity:1"
         id="stop3545" />
    </linearGradient>
    <linearGradient
       inkscape:collect="always"
       xlink:href="#linearGradient8265-821-176-38-919-66-249"
       id="linearGradient3069"
       gradientUnits="userSpaceOnUse"
       gradientTransform="matrix(0.4450331,0,0,0.4023652,2.8192053,3.8498613)"
       x1="18.03083"
       y1="16.407909"
       x2="20.054544"
       y2="24.627615" />
    <radialGradient
       inkscape:collect="always"
       xlink:href="#linearGradient3752"
       id="radialGradient3072"
       gradientUnits="userSpaceOnUse"
       gradientTransform="matrix(-0.01680222,1.3942814,-1.79662,-0.02165073,14.152267,2.1566239)"
       cx="4.02005"
       cy="5.5926585"
       fx="4.02005"
       fy="5.5926585"
       r="10.273108" />
    <radialGradient
       inkscape:collect="always"
       xlink:href="#linearGradient7012-661-145-733-759-865-745"
       id="radialGradient3075"
       gradientUnits="userSpaceOnUse"
       gradientTransform="matrix(1.6899516,0,0,1.0436086,-5.448971,0.9617527)"
       cx="7.8185525"
       cy="8.5608768"
       fx="7.8185525"
       fy="8.5608768"
       r="11.268134" />
    <linearGradient
       inkscape:collect="always"
       xlink:href="#linearGradient3390"
       id="linearGradient3077"
       gradientUnits="userSpaceOnUse"
       gradientTransform="matrix(0.9945751,0,0,0.9945751,-0.3392671,1.7177729)"
       x1="9.7045717"
       y1="20.882006"
       x2="9.7045717"
       y2="4.3030405" />
    <linearGradient
       inkscape:collect="always"
       xlink:href="#linearGradient11111"
       id="linearGradient3080"
       gradientUnits="userSpaceOnUse"
       gradientTransform="translate(34.378004,-14.501322)"
       x1="-28.531403"
       y1="17.955765"
       x2="-28.531403"
       y2="37.502914" />
    <linearGradient
       inkscape:collect="always"
       xlink:href="#linearGradient5157"
       id="linearGradient3082"
       gradientUnits="userSpaceOnUse"
       x1="9.8763561"
       y1="2.6014566"
       x2="9.8763561"
       y2="23.061668" />
    <linearGradient
       inkscape:collect="always"
       xlink:href="#linearGradient5048"
       id="linearGradient3117"
       gradientUnits="userSpaceOnUse"
       gradientTransform="matrix(2.774389,0,0,1.969706,-1892.179,-872.8854)"
       x1="302.85715"
       y1="366.64789"
       x2="302.85715"
       y2="609.50507" />
    <radialGradient
       inkscape:collect="always"
       xlink:href="#linearGradient5060"
       id="radialGradient3119"
       gradientUnits="userSpaceOnUse"
       gradientTransform="matrix(-2.774389,0,0,1.969706,112.7623,-872.8854)"
       cx="605.71429"
       cy="486.64789"
       fx="605.71429"
       fy="486.64789"
       r="117.14286" />
    <linearGradient
       inkscape:collect="always"
       xlink:href="#linearGradient3533"
       id="linearGradient3121"
       gradientUnits="userSpaceOnUse"
       gradientTransform="matrix(-0.4873978,0,0,-0.4781595,23.842396,23.296914)"
       x1="15.372947"
       y1="5.0471625"
       x2="15.372947"
       y2="22.599676" />
    <linearGradient
       inkscape:collect="always"
       xlink:href="#linearGradient4873"
       id="linearGradient3123"
       gradientUnits="userSpaceOnUse"
       gradientTransform="matrix(-0.4873978,0,0,-0.4781595,23.842396,23.296914)"
       x1="21.628975"
       y1="2.1102102"
       x2="22.245434"
       y2="43.366352" />
    <linearGradient
       inkscape:collect="always"
       xlink:href="#linearGradient3437"
       id="linearGradient3125"
       gradientUnits="userSpaceOnUse"
       gradientTransform="matrix(0.4873978,0,0,0.4781595,-0.345297,0.700712)"
       x1="13.610957"
       y1="9.8964491"
       x2="15.372947"
       y2="22.599676" />
    <linearGradient
       inkscape:collect="always"
       xlink:href="#linearGradient3429"
       id="linearGradient3127"
       gradientUnits="userSpaceOnUse"
       x1="16.945866"
       y1="0.99177527"
       x2="16.945866"
       y2="11.730221" />
  </defs>
  <g
     id="g3099"
     transform="matrix(0.9102399,0,0,0.9102399,-0.00325868,0.15424238)">
    <g
       transform="matrix(0.5459263,0,0,0.5168524,-1.0020361,-0.5781821)"
       id="g3490"
       style="stroke-width:1.88256383;stroke-miterlimit:4;stroke-dasharray:none">
      <g
         transform="matrix(0.02165152,0,0,0.01485743,43.0076,42.68539)"
         id="g5022"
         style="stroke-width:104.96237946;stroke-miterlimit:4;stroke-dasharray:none;display:inline">
        <rect
           width="1339.6335"
           height="478.35718"
           x="-1559.2523"
           y="-150.69685"
           id="rect4173"
           style="opacity:0.40206185;fill:url(#linearGradient3117);fill-opacity:1;fill-rule:nonzero;stroke:none;stroke-width:104.96237946;marker:none;visibility:visible;display:inline;overflow:visible" />
        <path
           d="m -219.61876,-150.68038 c 0,0 0,478.33079 0,478.33079 142.874166,0.90045 345.40022,-107.16966 345.40014,-239.196175 0,-132.026537 -159.436816,-239.134595 -345.40014,-239.134615 z"
           id="path5058"
           style="opacity:0.40206185;fill:url(#radialGradient4359);fill-opacity:1;fill-rule:nonzero;stroke:none;stroke-width:104.96237946;marker:none;visibility:visible;display:inline;overflow:visible"
           inkscape:connector-curvature="0" />
        <path
           d="m -1559.2523,-150.68038 c 0,0 0,478.33079 0,478.33079 -142.8742,0.90045 -345.4002,-107.16966 -345.4002,-239.196175 0,-132.026537 159.4368,-239.134595 345.4002,-239.134615 z"
           id="path5018"
           style="opacity:0.40206185;fill:url(#radialGradient3119);fill-opacity:1;fill-rule:nonzero;stroke:none;stroke-width:104.96237946;marker:none;visibility:visible;display:inline;overflow:visible"
           inkscape:connector-curvature="0" />
      </g>
    </g>
    <path
       d="m 2.6510299,2.5338039 c -0.085539,0 -0.158869,0.092747 -0.158869,0.188543 l 0,1.80342 -1.196774,0 -0.603702,0 c -0.106745,0 -0.190642,0.094861 -0.190642,0.188543 l 0,0.377085 0,4.1702921 c -0.010775,3.954554 -0.031774,8.079318 -0.031774,11.721073 0.029084,0.895035 0.537241,1.505142 0.889665,1.508342 1.012736,0.0092 0.539272,-0.004 1.048535,0 6.4703329,-0.0161 13.5789171,-0.07817 20.0492481,-0.09427 0.05421,0.0069 -1.476715,-0.107725 -1.461594,-1.445495 1e-6,-4.672947 -0.502047,-11.186992 -0.502047,-15.8599411 0,-0.186878 -0.01544,-0.290886 -0.03177,-0.377085 -0.01261,-0.066563 -0.0287,-0.09887 -0.06355,-0.125695 -0.02786,-0.024451 -0.05455,-0.057043 -0.09532,-0.062848 l -9.835171,0 0,-1.80342 c 0,-0.095796 -0.07333,-0.188543 -0.158869,-0.188543 l -7.6573641,0 z"
       id="path3496"
       style="fill:url(#linearGradient3080);fill-opacity:1;stroke:url(#linearGradient3082);stroke-width:1.01114547;stroke-linecap:round;stroke-linejoin:round;stroke-miterlimit:4;stroke-opacity:1;stroke-dasharray:none;display:inline"
       inkscape:connector-curvature="0" />
    <path
       d="m 3.4993539,6.5471259 c 10.5699021,0 13.0304441,4.6e-4 19.9935051,-0.027539 0,1.570444 0.258156,16.0402751 -0.484112,16.0402751 -0.714048,0 -14.0456512,-0.09435 -21.0087101,-0.06635 1.471684,0 1.499317,-0.622748 1.499317,-15.9463841 z"
       id="path3498"
       style="fill:url(#radialGradient3075);fill-opacity:1;stroke:url(#linearGradient3077);stroke-width:1;stroke-linecap:round;stroke-linejoin:round;stroke-miterlimit:4;stroke-opacity:1;stroke-dasharray:none;display:inline"
       inkscape:connector-curvature="0" />
    <path
       d="m 22.938799,7.6088419 c 0,0 -16.8318011,0.09361 -18.3967961,-0.092369 C 4.4590639,21.345907 4.0410549,21.955515 4.0410549,21.955515"
       id="path3211"
       style="opacity:0.4;fill:none;stroke:url(#radialGradient3072);stroke-width:0.98119503;stroke-linecap:butt;stroke-linejoin:miter;stroke-miterlimit:4;stroke-opacity:1;stroke-dasharray:none;display:inline"
       inkscape:connector-curvature="0" />
    <path
       d="M 4.2516556,6.0000003 C 3.5667727,6.0000003 3,6.5124333 3,7.1316525 l 0,6.4378435 c 0.00262,0.11517 0.066052,0.246479 0.1668874,0.326921 0.1008345,0.08044 0.2297237,0.114382 0.3754967,0.100592 0.00463,1.07e-4 0.00927,1.07e-4 0.013907,0 L 23.582781,11.130157 c 0.232206,-0.03311 0.413972,-0.214996 0.417218,-0.427513 l 0,-3.5709915 c 0,-0.6192192 -0.566772,-1.1316522 -1.251655,-1.1316522 l -18.4966884,0 z"
       id="path2608"
       style="opacity:0.2;fill:url(#linearGradient3069);fill-opacity:1;fill-rule:evenodd;stroke:none"
       inkscape:connector-curvature="0" />
    <g
       transform="matrix(0.51192013,0,0,0.51192013,12.61373,11.274978)"
       id="layer1-1">
      <g
         mask="url(#mask3739)"
         id="g3731">
        <path
           inkscape:connector-curvature="0"
           d="M 16.96875,12.78125 C 16.813534,15.319623 13.94201,17.150169 11.6875,17 10.480174,17 9.30456,16.726823 8.4375,15.90625 L 10.84375,13.5 l -9,0 0,9 2.84375,-2.8125 c 1.893804,1.825725 4.079985,2.782319 6.875,2.8125 l 0,-0.03125 c 4.752004,0.168344 10.292725,-3.27161 10.4375,-9.5 l -5.03125,-0.1875 0,0 z"
           id="path3372"
           style="fill:url(#linearGradient3121);fill-opacity:1;stroke:#538ec6;stroke-width:1.00474763;stroke-linecap:butt;stroke-linejoin:round;stroke-miterlimit:4;stroke-opacity:1;stroke-dasharray:none" />
        <path
           inkscape:connector-curvature="0"
           d="m 17.84375,12.75 c -0.07062,2.868458 -2.40943,5.343011 -6.1875,5.25 -1.365148,-0.01958 -3.039493,-0.265347 -4.75,-1.875 l 1.5625,-1.625 -5.625,0 0,5.625 2,-1.8125 c 1.8020961,1.972022 3.9362225,3.178557 6.75,3.1875 0.01066,3.4e-5 0.02057,0 0.03125,0 3.634267,0.06435 9.132588,-2.523862 9.28125,-8.5625 L 17.84375,12.75 z"
           id="path3370"
           style="opacity:0.4;fill:none;stroke:url(#linearGradient3123);stroke-width:1.00474763;stroke-linecap:butt;stroke-linejoin:miter;stroke-miterlimit:4;stroke-opacity:1;stroke-dasharray:none" />
      </g>
      <g
         mask="url(#mask3749)"
         id="g3745">
        <path
           inkscape:connector-curvature="0"
           d="M 11.9375,1.5 C 7.185496,1.331656 1.644775,4.80286 1.5,11.03125 l 5.03125,0.1875 C 6.686466,8.680377 9.55799,6.849831 11.8125,7 c 1.207326,0 2.38294,0.273177 3.25,1.09375 L 12.65625,10.5 l 9,0 0,-9 -2.84375,2.8125 C 16.918696,2.486775 14.732515,1.530181 11.9375,1.5 z"
           id="path3595"
           style="fill:url(#linearGradient3125);fill-opacity:1;stroke:url(#linearGradient3127);stroke-width:1.00474763;stroke-linecap:butt;stroke-linejoin:round;stroke-miterlimit:4;stroke-opacity:1;stroke-dasharray:none" />
        <path
           inkscape:connector-curvature="0"
           d="M 11.1875,2.5 C 7.5878629,2.7409187 2.7335003,5.3858513 2.59375,11.0625 l 3.0625,0.15625 c 0.07062,-2.868458 2.40943,-5.343011 6.1875,-5.25 l 0,0.03125 c 1.365148,0.01958 3.039493,0.265347 4.75,1.875 l -1.5625,1.625 5.625,0 0,-5.625 L 18.625,5.65625 C 16.822904,3.6842276 14.720027,2.5089433 11.90625,2.5 11.89635,2.4997853 11.8849,2.5001753 11.875,2.5 11.657142,2.49614 11.417042,2.484637 11.1875,2.5 z"
           id="path3597"
           style="opacity:0.4;fill:none;stroke:url(#linearGradient2901);stroke-width:1.00474763;stroke-linecap:butt;stroke-linejoin:miter;stroke-miterlimit:4;stroke-opacity:1;stroke-dasharray:none" />
      </g>
    </g>
  </g>
</svg>
