<?xml version="1.0" encoding="UTF-8" standalone="no"?>
<!-- Created with Inkscape (http://www.inkscape.org/) -->

<svg
   xmlns:dc="http://purl.org/dc/elements/1.1/"
   xmlns:cc="http://creativecommons.org/ns#"
   xmlns:rdf="http://www.w3.org/1999/02/22-rdf-syntax-ns#"
   xmlns:svg="http://www.w3.org/2000/svg"
   xmlns="http://www.w3.org/2000/svg"
   xmlns:xlink="http://www.w3.org/1999/xlink"
   xmlns:sodipodi="http://sodipodi.sourceforge.net/DTD/sodipodi-0.dtd"
   xmlns:inkscape="http://www.inkscape.org/namespaces/inkscape"
   id="svg3299"
   height="22"
   width="22"
   version="1.0"
   inkscape:version="0.48.1 r9760"
   sodipodi:docname="folder-move.svg">
  <sodipodi:namedview
     pagecolor="#ffffff"
     bordercolor="#666666"
     borderopacity="1"
     objecttolerance="10"
     gridtolerance="10"
     guidetolerance="10"
     inkscape:pageopacity="0"
     inkscape:pageshadow="2"
     inkscape:window-width="1366"
     inkscape:window-height="688"
     id="namedview34"
     showgrid="false"
     inkscape:zoom="7.2155539"
     inkscape:cx="34.603846"
     inkscape:cy="-2.9970803"
     inkscape:window-x="0"
     inkscape:window-y="25"
     inkscape:window-maximized="1"
     inkscape:current-layer="svg3299" />
  <metadata
     id="metadata75">
    <rdf:RDF>
      <cc:Work
         rdf:about="">
        <dc:format>image/svg+xml</dc:format>
        <dc:type
           rdf:resource="http://purl.org/dc/dcmitype/StillImage" />
        <dc:title />
      </cc:Work>
    </rdf:RDF>
  </metadata>
  <defs
     id="defs3301">
    <linearGradient
       id="linearGradient2885"
       y2="24.628"
       gradientUnits="userSpaceOnUse"
       x2="20.055"
       gradientTransform="matrix(.29669 0 0 .35207 7.8736 9.123)"
       y1="16.408"
       x1="18.031">
      <stop
         id="stop2687"
         style="stop-color:#fff"
         offset="0" />
      <stop
         id="stop2689"
         style="stop-color:#fff;stop-opacity:0"
         offset="1" />
    </linearGradient>
    <linearGradient
       id="linearGradient2909"
       y2="238.4"
       gradientUnits="userSpaceOnUse"
       x2="169.23"
       gradientTransform="matrix(.054893 .013851 .0025726 .052482 -11.212 -26.738)"
       y1="58.583"
       x1="126.7">
      <stop
         id="stop2650"
         style="stop-color:#bababa"
         offset="0" />
      <stop
         id="stop2652"
         style="stop-color:#838383"
         offset="1" />
    </linearGradient>
    <linearGradient
       id="linearGradient2911"
       y2="4.0514"
       gradientUnits="userSpaceOnUse"
       x2="4.176"
       gradientTransform="matrix(1.0083 0 0 1.0006 -10.5 -26.478)"
       y1="14.993"
       x1="10.318">
      <stop
         id="stop2656"
         style="stop-color:#5e5e5e"
         offset="0" />
      <stop
         id="stop2658"
         style="stop-color:#909090"
         offset="1" />
    </linearGradient>
    <linearGradient
       id="linearGradient2913"
       y2="24.628"
       gradientUnits="userSpaceOnUse"
       x2="20.055"
       gradientTransform="matrix(.29669 0 0 .35207 1.8795 3.123)"
       y1="16.408"
       x1="18.031">
      <stop
         id="stop2662"
         style="stop-color:#fff"
         offset="0" />
      <stop
         id="stop2664"
         style="stop-color:#fff;stop-opacity:0"
         offset="1" />
    </linearGradient>
    <linearGradient
       id="linearGradient3390">
      <stop
         id="stop3392"
         style="stop-color:#425e7b;stop-opacity:1"
         offset="0" />
      <stop
         id="stop3394"
         style="stop-color:#7a91a7;stop-opacity:1"
         offset="1" />
    </linearGradient>
    <linearGradient
       id="linearGradient7012-661-145-733-759-865-745">
      <stop
         id="stop2699"
         style="stop-color:#9cbbd9;stop-opacity:1"
         offset="0" />
      <stop
         id="stop2701"
         style="stop-color:#5c82ab;stop-opacity:1"
         offset="1" />
    </linearGradient>
    <linearGradient
       x1="18.031"
       y1="16.408"
       gradientTransform="matrix(0.29669,0,0,0.35207,7.8736,9.123)"
       x2="20.055"
       gradientUnits="userSpaceOnUse"
       y2="24.628"
       id="linearGradient2885-8">
      <stop
         offset="0"
         style="stop-color:#fff"
         id="stop2687-71" />
      <stop
         offset="1"
         style="stop-color:#fff;stop-opacity:0"
         id="stop2689-7" />
    </linearGradient>
    <linearGradient
       inkscape:collect="always"
       xlink:href="#linearGradient2885-8"
       id="linearGradient3915"
       gradientUnits="userSpaceOnUse"
       gradientTransform="matrix(0.29669,0,0,0.35207,-15.114355,7.0059259)"
       x1="18.031"
       y1="16.408"
       x2="20.055"
       y2="24.628" />
    <linearGradient
       inkscape:collect="always"
       xlink:href="#linearGradient7012-661-145-733-759-865-745"
       id="linearGradient3918"
       gradientUnits="userSpaceOnUse"
       gradientTransform="matrix(0.05418743,0.01939328,0.00253954,0.07347973,5.4206999,0.74030872)"
       x1="126.69791"
       y1="58.583481"
       x2="169.22964"
       y2="238.3999" />
    <linearGradient
       inkscape:collect="always"
       xlink:href="#linearGradient3390"
       id="linearGradient3920"
       gradientUnits="userSpaceOnUse"
       gradientTransform="matrix(0.99533634,0,0,1.4009755,6.1235209,1.1054416)"
       x1="10.318256"
       y1="14.992862"
       x2="4.1760364"
       y2="4.0514131" />
  </defs>
  <g
     id="g2526"
     style="opacity:.4"
     transform="translate(.0020617 -2)">
    <g
       id="g2538"
       transform="translate(10.498 27.475)">
      <path
         id="path2540"
         style="stroke-linejoin:round;stroke:#a8a8a8;stroke-linecap:round;stroke-width:0.979;fill:#fff"
         d="m-8.8387-24.977c-0.056258 0-0.10449 0.06035-0.10449 0.12267v1.0632h-0.51662-0.39706c-0.070206 0-0.12538 0.06172-0.12538 0.12267v0.24534 2.8419c-0.00709 2.573-0.020898 6.2422-0.020898 8.6117 4.7063-0.02397 9.4151-0.04826 14.123-0.06552-0.41713 0-1.1123-0.07009-1.1024-0.94049 0.00354-3.597 0.022961-7.2431 0.010777-10.816h-6.0308v-1.0632c0-0.06233-0.048228-0.12267-0.10449-0.12267h-5.7312l0.0000015-0.000001z" />
      <path
         id="path2542"
         style="stroke-linejoin:round;stroke:url(#linearGradient2911);stroke-linecap:round;stroke-width:.95339;fill:url(#linearGradient2909)"
         d="m-7.9741-21.947c0.65636 0 12.48 0.03139 12.989 0.03139 0 0.61541-0.024684 9.9581-0.054067 9.9581-4.5588 0.01775-11.659-0.01389-12.987-0.01389 0-1.1615 0.05188-7.5853 0.05188-9.9756v-0.000002z" />
    </g>
    <path
       id="path2544"
       style="opacity:.2;fill:url(#linearGradient2913);fill-rule:evenodd"
       d="m2.8344 5.0044c-0.4566 0-0.8344 0.4484-0.8344 0.9902v5.6331c0.00175 0.10077 0.044034 0.21567 0.11126 0.28606 0.067223 0.07039 0.15315 0.10008 0.25033 0.08802 0.00309 0.000094 0.00618 0.000094 0.00927 0l13.351-2.5087c0.1548-0.028972 0.27598-0.18812 0.27815-0.37407v-3.1246c0-0.54182-0.37785-0.9902-0.83444-0.9902h-12.331z" />
    <path
       id="path2546"
       style="opacity:.35;stroke:#fff;stroke-width:1px;fill:none"
       d="m3.4979 15.004v-8.5h11.5" />
  </g>
  <path
     id="path2519"
     style="stroke-linejoin:round;stroke:#a8a8a8;stroke-linecap:round;stroke-width:0.979;fill:#fff"
     d="m7.6539 8.4983c-0.056258 0-0.10449 0.06035-0.10449 0.12267v1.0632h-0.51662-0.39706c-0.070206 0-0.12538 0.06172-0.12538 0.12267v0.24534 2.8419c-0.00709 2.573-0.020898 6.2422-0.020898 8.6117 4.7063-0.02397 9.4151-0.04826 14.123-0.06552-0.41713 0-1.1123-0.07009-1.1024-0.94049 0.0035-3.597 0.02296-7.2431 0.01078-10.816h-6.0308v-1.0632c0-0.06233-0.04823-0.12267-0.10449-0.12267h-5.7312l0.0000015-0.000001z" />
  <path
     inkscape:connector-curvature="0"
     d="m 8.6172419,11.615482 c 0.647923,0 12.3195381,0 12.8219491,0 0,0.861642 -0.02436,9.819595 -0.05338,9.819595 -4.500211,0.02486 -11.5094471,-0.01944 -12.8197901,-0.01944 0,-1.62618 0.05121,-6.453555 0.05121,-9.800142 z"
     id="rect3086"
     style="fill:url(#linearGradient3918);fill-opacity:1;stroke:url(#linearGradient3920);stroke-width:0.95300001;stroke-linecap:round;stroke-linejoin:round;stroke-miterlimit:4;stroke-opacity:1;stroke-dasharray:none;display:inline" />
  <path
     id="path2608"
     style="opacity:.2;fill:url(#linearGradient2885);fill-rule:evenodd"
     d="m8.8286 11.004c-0.45659 0-0.83444 0.44838-0.83444 0.9902v5.6331c0.0017 0.10077 0.04403 0.21567 0.11126 0.28606 0.06722 0.07039 0.15315 0.10008 0.25033 0.08802 0.0031 0.000093 0.0062 0.000093 0.0093 0l13.351-2.508c0.1548-0.02897 0.27598-0.18812 0.27815-0.37407v-3.1246c0-0.54182-0.37785-0.9902-0.83444-0.9902h-12.331z" />
  <path
     id="path2524"
     style="opacity:.35;stroke:#fff;stroke-width:1px;fill:none"
     d="m9.4921 21.004v-8.5h11.5" />
  <path
     inkscape:connector-curvature="0"
     id="path2608-1"
     style="opacity:0.2;fill:url(#linearGradient3915);fill-rule:evenodd"
     d="m -14.159355,8.8869259 c -0.45659,0 -0.83444,0.44838 -0.83444,0.9902 v 5.6331001 c 0.0017,0.10077 0.04403,0.21567 0.11126,0.28606 0.06722,0.07039 0.15315,0.10008 0.25033,0.08802 0.0031,9.3e-5 0.0062,9.3e-5 0.0093,0 l 13.351,-2.508 c 0.1548,-0.02897 0.27598,-0.18812 0.27815,-0.37407 V 9.8776359 c 0,-0.54182 -0.37785,-0.9902 -0.83444,-0.9902 h -12.331 z" />
</svg>
