<?xml version="1.0" encoding="UTF-8" standalone="no"?>
<!-- Created with Inkscape (http://www.inkscape.org/) -->

<svg
   xmlns:dc="http://purl.org/dc/elements/1.1/"
   xmlns:cc="http://creativecommons.org/ns#"
   xmlns:rdf="http://www.w3.org/1999/02/22-rdf-syntax-ns#"
   xmlns:svg="http://www.w3.org/2000/svg"
   xmlns="http://www.w3.org/2000/svg"
   xmlns:xlink="http://www.w3.org/1999/xlink"
   xmlns:sodipodi="http://sodipodi.sourceforge.net/DTD/sodipodi-0.dtd"
   xmlns:inkscape="http://www.inkscape.org/namespaces/inkscape"
   sodipodi:docname="format-text-direction-rtl.svg"
   inkscape:version="0.48.1 r9760"
   version="1.0"
   width="22"
   height="22"
   id="svg2">
  <sodipodi:namedview
     pagecolor="#ffffff"
     bordercolor="#666666"
     borderopacity="1"
     objecttolerance="10"
     gridtolerance="10"
     guidetolerance="10"
     inkscape:pageopacity="0"
     inkscape:pageshadow="2"
     inkscape:window-width="1366"
     inkscape:window-height="688"
     id="namedview56"
     showgrid="true"
     inkscape:zoom="10.02806"
     inkscape:cx="27.78952"
     inkscape:cy="11.577913"
     inkscape:window-x="0"
     inkscape:window-y="25"
     inkscape:window-maximized="1"
     inkscape:current-layer="svg2">
    <inkscape:grid
       id="grid3264"
       type="xygrid" />
  </sodipodi:namedview>
  <metadata
     id="metadata58">
    <rdf:RDF>
      <cc:Work
         rdf:about="">
        <dc:format>image/svg+xml</dc:format>
        <dc:type
           rdf:resource="http://purl.org/dc/dcmitype/StillImage" />
        <dc:title></dc:title>
      </cc:Work>
    </rdf:RDF>
  </metadata>
  <defs
     id="defs4">
    <linearGradient
       x1="23.576"
       y1="25.357"
       gradientTransform="matrix(0.41578,-0.41749,0.51898,0.51462,-15.747,2.6504)"
       x2="23.576"
       gradientUnits="userSpaceOnUse"
       y2="31.211"
       id="linearGradient3841">
      <stop
         offset="0"
         style="stop-color:#181818"
         id="stop2541-8" />
      <stop
         offset=".13483"
         style="stop-color:#dbdbdb"
         id="stop2543-4" />
      <stop
         offset=".20224"
         style="stop-color:#a4a4a4"
         id="stop2545-0" />
      <stop
         offset=".26966"
         style="stop-color:#fff"
         id="stop2547-8" />
      <stop
         offset=".44650"
         style="stop-color:#8d8d8d"
         id="stop2549-4" />
      <stop
         offset=".57114"
         style="stop-color:#959595"
         id="stop2551-4" />
      <stop
         offset=".72038"
         style="stop-color:#cecece"
         id="stop2553-8" />
      <stop
         offset="1"
         style="stop-color:#181818"
         id="stop2555-2" />
    </linearGradient>
    <linearGradient
       x1="30.038"
       y1="24.99"
       gradientTransform="matrix(0.40402,-0.40569,0.60738,0.60227,-17.868,0.69303)"
       x2="30.038"
       gradientUnits="userSpaceOnUse"
       y2="30"
       id="linearGradient3843">
      <stop
         offset="0"
         style="stop-color:#565656"
         id="stop2559-6" />
      <stop
         offset=".5"
         style="stop-color:#9a9a9a"
         id="stop2561-9" />
      <stop
         offset="1"
         style="stop-color:#545454"
         id="stop2563-4" />
    </linearGradient>
    <linearGradient
       x1="30.038"
       y1="24.99"
       gradientTransform="matrix(0.40402,-0.40569,0.60738,0.60227,-17.983,0.80921)"
       x2="30.038"
       gradientUnits="userSpaceOnUse"
       y2="30"
       id="linearGradient3845">
      <stop
         offset="0"
         style="stop-color:#b1b1b1"
         id="stop2567-0" />
      <stop
         offset=".5"
         style="stop-color:#fff"
         id="stop2569-6" />
      <stop
         offset="1"
         style="stop-color:#8f8f8f"
         id="stop2571-3" />
    </linearGradient>
    <linearGradient
       x1="30.038"
       y1="24.99"
       gradientTransform="matrix(0.40402,-0.40569,0.60738,0.60227,-17.466,0.28929)"
       x2="30.038"
       gradientUnits="userSpaceOnUse"
       y2="30"
       id="linearGradient3847">
      <stop
         offset="0"
         style="stop-color:#565656"
         id="stop2575-1" />
      <stop
         offset=".5"
         style="stop-color:#9a9a9a"
         id="stop2577-0" />
      <stop
         offset="1"
         style="stop-color:#545454"
         id="stop2579-2" />
    </linearGradient>
    <linearGradient
       x1="30.038"
       y1="24.99"
       gradientTransform="matrix(0.40402,-0.40569,0.60738,0.60227,-17.581,0.40547)"
       x2="30.038"
       gradientUnits="userSpaceOnUse"
       y2="30"
       id="linearGradient3849">
      <stop
         offset="0"
         style="stop-color:#b1b1b1"
         id="stop2583-0" />
      <stop
         offset=".5"
         style="stop-color:#fff"
         id="stop2585-5" />
      <stop
         offset="1"
         style="stop-color:#8f8f8f"
         id="stop2587-2" />
    </linearGradient>
    <linearGradient
       x1="30.038"
       y1="24.99"
       gradientTransform="matrix(0.40402,-0.40569,0.60738,0.60227,-17.062,-0.11641)"
       x2="30.038"
       gradientUnits="userSpaceOnUse"
       y2="30"
       id="linearGradient3851">
      <stop
         offset="0"
         style="stop-color:#565656"
         id="stop2591-7" />
      <stop
         offset=".5"
         style="stop-color:#9a9a9a"
         id="stop2593-9" />
      <stop
         offset="1"
         style="stop-color:#545454"
         id="stop2595-9" />
    </linearGradient>
    <linearGradient
       x1="30.038"
       y1="24.99"
       gradientTransform="matrix(0.40402,-0.40569,0.60738,0.60227,-17.177,-2.197e-4)"
       x2="30.038"
       gradientUnits="userSpaceOnUse"
       y2="30"
       id="linearGradient3853">
      <stop
         offset="0"
         style="stop-color:#b1b1b1"
         id="stop2599-9" />
      <stop
         offset=".5"
         style="stop-color:#fff"
         id="stop2601-5" />
      <stop
         offset="1"
         style="stop-color:#8f8f8f"
         id="stop2603-9" />
    </linearGradient>
    <linearGradient
       x1="9"
       y1="29.057"
       gradientTransform="matrix(0.40402,-0.40569,0.60738,0.60227,-17.637,0.46249)"
       x2="9"
       gradientUnits="userSpaceOnUse"
       y2="26.03"
       id="linearGradient3855">
      <stop
         offset="0"
         style="stop-color:#ece5a5"
         id="stop2607-3" />
      <stop
         offset="1"
         style="stop-color:#fcfbf2"
         id="stop2609-5" />
    </linearGradient>
    <linearGradient
       x1="5.5179"
       y1="37.372"
       gradientTransform="matrix(0.37638,0.036153,0.0367,0.37487,-2.2183,-1.1331)"
       x2="9.5221"
       gradientUnits="userSpaceOnUse"
       y2="41.392"
       id="linearGradient3857">
      <stop
         offset="0"
         style="stop-color:#dbce48"
         id="stop2613-3" />
      <stop
         offset="1"
         style="stop-color:#c5b625"
         id="stop2615-5" />
    </linearGradient>
    <linearGradient
       x1="-60.97"
       y1="13.668"
       gradientTransform="matrix(0.21875,1.3313e-4,-1.3319e-4,0.21865,21.078,-1.7267)"
       x2="-60.908"
       gradientUnits="userSpaceOnUse"
       y2="114.54"
       id="linearGradient4194">
      <stop
         offset="0"
         style="stop-color:#fff"
         id="stop3602" />
      <stop
         offset="1"
         style="stop-color:#e6e6e6"
         id="stop3604" />
    </linearGradient>
    <linearGradient
       x1="11.536"
       y1="44.952"
       gradientTransform="matrix(0.48572,0,0,0.48993,-1.6572,1.7216)"
       x2="11.536"
       gradientUnits="userSpaceOnUse"
       y2="-1.0041"
       id="linearGradient4196">
      <stop
         offset="0"
         style="stop-color:#969696"
         id="stop3106" />
      <stop
         offset="1"
         style="stop-color:#bebebe"
         id="stop3108" />
    </linearGradient>
    <linearGradient
       inkscape:collect="always"
       xlink:href="#linearGradient3841"
       id="linearGradient6883"
       gradientUnits="userSpaceOnUse"
       gradientTransform="matrix(0.41578,-0.41749,0.51898,0.51462,-15.747,2.6504)"
       x1="23.576"
       y1="25.357"
       x2="23.576"
       y2="31.211" />
    <linearGradient
       inkscape:collect="always"
       xlink:href="#linearGradient3843"
       id="linearGradient6885"
       gradientUnits="userSpaceOnUse"
       gradientTransform="matrix(0.40402,-0.40569,0.60738,0.60227,-17.868,0.69303)"
       x1="30.038"
       y1="24.99"
       x2="30.038"
       y2="30" />
    <linearGradient
       inkscape:collect="always"
       xlink:href="#linearGradient3845"
       id="linearGradient6887"
       gradientUnits="userSpaceOnUse"
       gradientTransform="matrix(0.40402,-0.40569,0.60738,0.60227,-17.983,0.80921)"
       x1="30.038"
       y1="24.99"
       x2="30.038"
       y2="30" />
    <linearGradient
       inkscape:collect="always"
       xlink:href="#linearGradient3847"
       id="linearGradient6889"
       gradientUnits="userSpaceOnUse"
       gradientTransform="matrix(0.40402,-0.40569,0.60738,0.60227,-17.466,0.28929)"
       x1="30.038"
       y1="24.99"
       x2="30.038"
       y2="30" />
    <linearGradient
       inkscape:collect="always"
       xlink:href="#linearGradient3849"
       id="linearGradient6891"
       gradientUnits="userSpaceOnUse"
       gradientTransform="matrix(0.40402,-0.40569,0.60738,0.60227,-17.581,0.40547)"
       x1="30.038"
       y1="24.99"
       x2="30.038"
       y2="30" />
    <linearGradient
       inkscape:collect="always"
       xlink:href="#linearGradient3851"
       id="linearGradient6893"
       gradientUnits="userSpaceOnUse"
       gradientTransform="matrix(0.40402,-0.40569,0.60738,0.60227,-17.062,-0.11641)"
       x1="30.038"
       y1="24.99"
       x2="30.038"
       y2="30" />
    <linearGradient
       inkscape:collect="always"
       xlink:href="#linearGradient3853"
       id="linearGradient6895"
       gradientUnits="userSpaceOnUse"
       gradientTransform="matrix(0.40402,-0.40569,0.60738,0.60227,-17.177,-2.197e-4)"
       x1="30.038"
       y1="24.99"
       x2="30.038"
       y2="30" />
    <linearGradient
       inkscape:collect="always"
       xlink:href="#linearGradient3855"
       id="linearGradient6897"
       gradientUnits="userSpaceOnUse"
       gradientTransform="matrix(0.40402,-0.40569,0.60738,0.60227,-17.637,0.46249)"
       x1="9"
       y1="29.057"
       x2="9"
       y2="26.03" />
    <linearGradient
       inkscape:collect="always"
       xlink:href="#linearGradient3857"
       id="linearGradient6899"
       gradientUnits="userSpaceOnUse"
       gradientTransform="matrix(0.37638,0.036153,0.0367,0.37487,-2.2183,-1.1331)"
       x1="5.5179"
       y1="37.372"
       x2="9.5221"
       y2="41.392" />
  </defs>
  <path
     style="fill:#000000;fill-opacity:1;fill-rule:nonzero;stroke:none;stroke-width:1.40896165;marker:none;visibility:visible;display:inline;overflow:visible"
     id="path2913-6-8"
     d="M 22,19 5,19 5.01398,22 0,18.042506 5,14 l 0.0123,3 16.974029,0"
     inkscape:connector-curvature="0" />
  <g
     id="g8626"
     transform="matrix(0.94349068,0,0,0.94577647,7.3557775,-0.39462133)">
    <path
       inkscape:connector-curvature="0"
       id="path3041"
       style="fill:url(#linearGradient6883);stroke:#0c0c0c;stroke-width:0.60798001;stroke-linejoin:round"
       d="m 2.0488,11.037 c 0.28654,-0.20771 1.148,0.25639 1.9603,1.0619 0.81045,0.80363 1.2602,1.6413 1.0576,1.9306 -7.708e-4,0.0011 0.01977,0.01774 0.01898,0.01882 l 10.138,-10.18 c 0.258,-0.2581 -0.213,-1.1432 -1.051,-1.9744 -0.838,-0.8311 -1.728,-1.295 -1.986,-1.0366 l -10.138,10.18 z" />
    <path
       inkscape:connector-curvature="0"
       id="path3043"
       style="opacity:0.8;fill:#ffb6ed;stroke:#e28ccd;stroke-width:0.60798001;stroke-linejoin:round"
       d="m 10.565,2.4841 c 0.28654,-0.20771 1.148,0.25639 1.9603,1.0619 0.81044,0.80363 1.2602,1.6413 1.0576,1.9306 -7.69e-4,0.0011 0.01977,0.017738 0.01898,0.018821 l 1.552,-1.5571 c 0.409,-0.4086 -0.029,-1.0928 -0.981,-2.0447 -0.813,-0.8055 -1.674,-1.2696 -1.96,-1.0619 l -0.02525,0.025356 -1.6218,1.6271 z" />
    <path
       inkscape:connector-curvature="0"
       id="path3045"
       style="opacity:0.6;fill:#0c0c0c"
       d="m 2.0488,11.037 c 0.28654,-0.20771 1.148,0.25639 1.9603,1.0619 0.81044,0.80363 1.2602,1.6413 1.0576,1.9306 -7.714e-4,0.0011 0.01977,0.01774 0.01898,0.01882 l 6.982,-7.0109 0.02525,-0.025356 c 7.9e-4,-0.00108 -0.01975,-0.01772 -0.01898,-0.01882 0.203,-0.2885 -0.247,-1.1262 -1.058,-1.9298 -0.812,-0.8056 -1.6734,-1.2697 -1.9599,-1.062 l -0.025251,0.025355 -6.982,7.0109 z" />
    <path
       inkscape:connector-curvature="0"
       id="path3047"
       style="fill:url(#linearGradient6885)"
       d="m 9.1785,3.8767 c 0.28654,-0.20771 1.148,0.25639 1.9603,1.0619 0.81044,0.80363 1.2602,1.6413 1.0576,1.9306 -7.71e-4,0.0011 0.01977,0.017736 0.01898,0.01882 l 0.12626,-0.12678 c 7.9e-4,-0.00108 -0.01975,-0.01772 -0.01898,-0.01882 0.203,-0.2892 -0.246,-1.1269 -1.057,-1.9305 -0.812,-0.8056 -1.6737,-1.2697 -1.9602,-1.062 L 9.1792,3.8767 z" />
    <path
       inkscape:connector-curvature="0"
       id="path3049"
       style="fill:url(#linearGradient6887)"
       d="m 9.0628,3.9929 c 0.28654,-0.20771 1.148,0.25639 1.9603,1.0619 0.81044,0.80363 1.2602,1.6413 1.0576,1.9306 -7.71e-4,0.0011 0.01977,0.017738 0.01898,0.018822 l 0.126,-0.1268 c 7.9e-4,-0.00108 -0.01975,-0.017721 -0.01898,-0.018821 0.203,-0.2892 -0.247,-1.1269 -1.058,-1.9305 -0.812,-0.8056 -1.6734,-1.2697 -1.9599,-1.062 l -0.1263,0.1268 z" />
    <path
       inkscape:connector-curvature="0"
       id="path3051"
       style="fill:url(#linearGradient6889)"
       d="m 9.5806,3.473 c 0.28654,-0.20771 1.148,0.25639 1.9603,1.0619 0.81045,0.80363 1.2602,1.6413 1.0576,1.9306 -7.73e-4,0.0011 0.01977,0.017737 0.01898,0.01882 l 0.12626,-0.12678 c 7.91e-4,-0.00108 -0.01975,-0.017721 -0.01898,-0.01882 0.202,-0.2892 -0.247,-1.1269 -1.058,-1.9306 -0.812,-0.8055 -1.6736,-1.2696 -1.9601,-1.0619 l -0.1263,0.1268 z" />
    <path
       inkscape:connector-curvature="0"
       id="path3053"
       style="fill:url(#linearGradient6891)"
       d="m 9.4649,3.5891 c 0.28654,-0.20771 1.148,0.25639 1.9603,1.0619 0.81045,0.80363 1.2602,1.6413 1.0576,1.9306 -7.69e-4,0.0011 0.01977,0.017737 0.01898,0.018821 l 0.12626,-0.12678 c 7.9e-4,-0.00108 -0.01975,-0.01772 -0.01898,-0.01882 0.203,-0.2892 -0.247,-1.1269 -1.057,-1.9305 -0.813,-0.8055 -1.6743,-1.2696 -1.9608,-1.0619 l -0.1263,0.1267 z" />
    <path
       inkscape:connector-curvature="0"
       id="path3055"
       style="fill:url(#linearGradient6893)"
       d="m 9.9846,3.0673 c 0.2864,-0.2077 1.1484,0.2564 1.9604,1.0619 0.81045,0.80363 1.2602,1.6413 1.0576,1.9306 -7.7e-4,0.0011 0.01977,0.017738 0.01898,0.018821 l 0.126,-0.1268 C 13.148372,5.950741 13.12783,5.9341 13.1286,5.933 13.3306,5.6438 12.8816,4.8061 12.0706,4.0024 11.2586,3.1969 10.3966,2.7328 10.1106,2.9405 L 9.9842,3.0673 z" />
    <path
       inkscape:connector-curvature="0"
       id="path3057"
       style="fill:url(#linearGradient6895)"
       d="m 9.8689,3.1835 c 0.28654,-0.20771 1.148,0.25639 1.9603,1.0619 0.81044,0.80363 1.2602,1.6413 1.0576,1.9306 -7.71e-4,0.0011 0.01977,0.017737 0.01898,0.018821 l 0.12626,-0.12678 c 7.89e-4,-0.00108 -0.01975,-0.017722 -0.01898,-0.018821 0.203,-0.2892 -0.247,-1.1269 -1.057,-1.9306 -0.813,-0.8055 -1.674,-1.2696 -1.9608,-1.0619 l -0.1263,0.1268 z" />
    <path
       inkscape:connector-curvature="0"
       id="path3059"
       style="fill:url(#linearGradient6897);fill-rule:evenodd;stroke:url(#linearGradient6899);stroke-width:0.60798001"
       d="m 0.25981,15.794 4.7719,-1.7255 0.039308,-0.03926 c 0.2026,-0.289 -0.2524,-1.127 -1.0629,-1.93 -0.8124,-0.806 -1.6727,-1.268 -1.9592,-1.06 l -1.7891,4.755 z" />
    <path
       inkscape:connector-curvature="0"
       id="path3061"
       style="fill:#0c0c0c;fill-rule:evenodd;stroke:#0c0c0c;stroke-width:0.60798001"
       d="m 0.74443,14.506 -0.48521,1.283 1.3014,-0.473 C 1.44692,15.182 1.34132,15.048 1.20622,14.914 1.05072,14.76 0.89917,14.633 0.74445,14.506 z" />
  </g>
</svg>
