<?xml version="1.0" encoding="UTF-8" standalone="no"?>
<!-- Created with Inkscape (http://www.inkscape.org/) -->

<svg
   xmlns:dc="http://purl.org/dc/elements/1.1/"
   xmlns:cc="http://creativecommons.org/ns#"
   xmlns:rdf="http://www.w3.org/1999/02/22-rdf-syntax-ns#"
   xmlns:svg="http://www.w3.org/2000/svg"
   xmlns="http://www.w3.org/2000/svg"
   xmlns:xlink="http://www.w3.org/1999/xlink"
   xmlns:sodipodi="http://sodipodi.sourceforge.net/DTD/sodipodi-0.dtd"
   xmlns:inkscape="http://www.inkscape.org/namespaces/inkscape"
   id="svg2"
   height="22"
   width="22"
   version="1.0"
   inkscape:version="0.48.1 r9760"
   sodipodi:docname="help-feedback.svg">
  <metadata
     id="metadata22">
    <rdf:RDF>
      <cc:Work
         rdf:about="">
        <dc:format>image/svg+xml</dc:format>
        <dc:type
           rdf:resource="http://purl.org/dc/dcmitype/StillImage" />
        <dc:title></dc:title>
      </cc:Work>
    </rdf:RDF>
  </metadata>
  <sodipodi:namedview
     pagecolor="#ffffff"
     bordercolor="#666666"
     borderopacity="1"
     objecttolerance="10"
     gridtolerance="10"
     guidetolerance="10"
     inkscape:pageopacity="0"
     inkscape:pageshadow="2"
     inkscape:window-width="1366"
     inkscape:window-height="688"
     id="namedview20"
     showgrid="false"
     inkscape:zoom="14.181818"
     inkscape:cx="1.5160256"
     inkscape:cy="11.669872"
     inkscape:window-x="0"
     inkscape:window-y="25"
     inkscape:window-maximized="1"
     inkscape:current-layer="svg2" />
  <defs
     id="defs4">
    <linearGradient
       id="linearGradient2412"
       y2="3.0816"
       gradientUnits="userSpaceOnUse"
       x2="18.379"
       gradientTransform="matrix(0.51604,0,0,0.51604,-1.3849,-1.385)"
       y1="44.98"
       x1="18.379">
      <stop
         id="stop2788"
         style="stop-color:#1f4b6a"
         offset="0" />
      <stop
         id="stop2790"
         style="stop-color:#4083c2"
         offset="1" />
    </linearGradient>
    <radialGradient
       id="radialGradient2410"
       gradientUnits="userSpaceOnUse"
       cy="3.99"
       cx="23.896"
       gradientTransform="matrix(0,1.2316,-1.6257,0,17.487,-29.721)"
       r="20.397">
      <stop
         id="stop2778"
         style="stop-color:#8badea"
         offset="0" />
      <stop
         id="stop2780"
         style="stop-color:#6396cd"
         offset=".26238" />
      <stop
         id="stop2782"
         style="stop-color:#3b7caf"
         offset=".66094" />
      <stop
         id="stop2784"
         style="stop-color:#194c70"
         offset="1" />
    </radialGradient>
    <linearGradient
       id="linearGradient2407"
       y2="5.4676"
       gradientUnits="userSpaceOnUse"
       x2="63.397"
       gradientTransform="matrix(1.0863,0,0,1.0862,-56.567,14.814)"
       y1="-12.489"
       x1="63.397">
      <stop
         id="stop4875"
         style="stop-color:#fff"
         offset="0" />
      <stop
         id="stop4877"
         style="stop-color:#fff;stop-opacity:0"
         offset="1" />
    </linearGradient>
    <linearGradient
       inkscape:collect="always"
       xlink:href="#linearGradient2407"
       id="linearGradient3002"
       gradientUnits="userSpaceOnUse"
       gradientTransform="matrix(1.0863,0,0,1.0862,-56.567,14.814)"
       x1="63.397"
       y1="-12.489"
       x2="63.397"
       y2="5.4676" />
    <radialGradient
       inkscape:collect="always"
       xlink:href="#radialGradient2410"
       id="radialGradient3005"
       gradientUnits="userSpaceOnUse"
       gradientTransform="matrix(0,1.2316,-1.6257,0,17.487,-29.721)"
       cx="23.896"
       cy="3.99"
       r="20.397" />
    <linearGradient
       inkscape:collect="always"
       xlink:href="#linearGradient2412"
       id="linearGradient3007"
       gradientUnits="userSpaceOnUse"
       gradientTransform="matrix(0.51604,0,0,0.51604,-1.3849,-1.385)"
       x1="18.379"
       y1="44.98"
       x2="18.379"
       y2="3.0816" />
    <radialGradient
       gradientTransform="matrix(1.25,0,0,1.25,-6.479446,-13.37211)"
       id="aigrd2"
       cx="25.0527"
       cy="39.5928"
       r="15.7572"
       fx="25.0527"
       fy="39.5928"
       gradientUnits="userSpaceOnUse">
      <stop
         offset="0.0000000"
         style="stop-color:#777777;stop-opacity:1.0000000;"
         id="stop8602" />
      <stop
         offset="1"
         style="stop-color:#000000"
         id="stop8604" />
    </radialGradient>
    <radialGradient
       inkscape:collect="always"
       xlink:href="#aigrd2"
       id="radialGradient3045"
       gradientUnits="userSpaceOnUse"
       gradientTransform="matrix(0.61604064,0,0,0.61604064,-4.990306,-6.684968)"
       cx="25.0527"
       cy="39.5928"
       fx="25.0527"
       fy="39.5928"
       r="15.7572" />
  </defs>
  <path
     inkscape:connector-curvature="0"
     d="m 11,0.50174 c -5.7925,0 -10.498,4.7057 -10.498,10.498 -1.7e-4,5.793 4.7055,10.498 10.498,10.498 5.793,0 10.498,-4.705 10.498,-10.498 0,-5.7926 -4.705,-10.498 -10.498,-10.498 z"
     style="fill:url(#radialGradient3005);stroke:url(#linearGradient3007);stroke-width:1.00370002;stroke-linecap:round;stroke-linejoin:round"
     id="path2555" />
  <path
     inkscape:connector-curvature="0"
     d="m 20.5,11 c 0,5.246 -4.254,9.5 -9.5,9.5 -5.2466,0 -9.5,-4.254 -9.5,-9.5 0,-5.247 4.2534,-9.5 9.5,-9.5 5.246,0 9.5,4.253 9.5,9.5 z"
     style="opacity:0.4;fill:none;stroke:url(#linearGradient3002)"
     id="path2463" />
  <g
     id="g3036"
     transform="translate(0.871795,-0.3141028)">
    <path
       style="opacity:0.36000001;color:#000000;fill:#ffffff;fill-opacity:1;fill-rule:nonzero;stroke:none;stroke-width:1;marker:none;visibility:visible;display:inline;overflow:visible"
       d="m 16.578057,12.088045 c -1.486612,2.574889 -3.22485,4.430584 -6.319169,4.430584 -3.006287,0 -5.207041,-2.138744 -6.580535,-4.517706 1.256434,1.506057 3.096434,3.236092 6.449853,3.236092 4.006829,0 4.707426,-1.432592 6.449851,-3.14897 z"
       id="path2659"
       sodipodi:nodetypes="czczc"
       inkscape:connector-curvature="0" />
    <path
       sodipodi:nodetypes="czczc"
       id="path8606"
       d="m 16.578057,11.739561 c -1.486612,2.574889 -3.22485,4.430585 -6.319169,4.430585 -3.006287,0 -5.207041,-2.138745 -6.580535,-4.517706 1.256434,1.506056 3.096434,3.236092 6.449853,3.236092 4.006829,0 4.707426,-1.432593 6.449851,-3.148971 z"
       style="fill:url(#radialGradient3045);fill-rule:nonzero;stroke:none"
       inkscape:connector-curvature="0" />
    <g
       id="g8666"
       transform="matrix(0.49283251,0,0,0.49283251,-1.622782,1.0844454)">
      <path
         id="path8610"
         d="m 21.398158,15.321428 c 0,2.5 -1.125,4.5 -2.5,4.5 -1.375,0 -2.625,-2 -2.625,-4.5 0,-2.5 1.125,-4.5 2.5,-4.5 1.375,0 2.5,2 2.5,4.5 l 0.125,0 z"
         style="opacity:0.36000001;fill:#ffffff;fill-rule:nonzero;stroke:none"
         inkscape:connector-curvature="0" />
      <path
         id="path8612"
         d="m 30.688512,15.321428 c 0,2.5 -1.125,4.5 -2.5,4.5 -1.375,0 -2.5,-2 -2.5,-4.5 0,-2.5 1.125,-4.5 2.5,-4.5 1.375,0 2.5,2 2.5,4.5 z"
         style="opacity:0.36000001;fill:#ffffff;fill-rule:nonzero;stroke:none"
         inkscape:connector-curvature="0" />
      <path
         id="path8614"
         d="m 21.398158,14.696428 c 0,2.5 -1.125,4.5 -2.5,4.5 -1.375,0 -2.5,-2 -2.5,-4.5 0,-2.5 1.125,-4.5 2.5,-4.5 1.375,0 2.5,2 2.5,4.5 z"
         style="fill:#000000;fill-rule:nonzero;stroke:none"
         inkscape:connector-curvature="0" />
      <path
         id="path8616"
         d="m 30.688512,14.696428 c 0,2.5 -1.125,4.5 -2.5,4.5 -1.375,0 -2.5,-2 -2.5,-4.5 0,-2.5 1.125,-4.5 2.5,-4.5 1.375,0 2.5,2 2.5,4.5 z"
         style="fill:#000000;fill-rule:nonzero;stroke:none"
         inkscape:connector-curvature="0" />
    </g>
  </g>
</svg>
