<?xml version="1.0" encoding="UTF-8" standalone="no"?>
<!-- Created with Inkscape (http://www.inkscape.org/) -->

<svg
   xmlns:dc="http://purl.org/dc/elements/1.1/"
   xmlns:cc="http://creativecommons.org/ns#"
   xmlns:rdf="http://www.w3.org/1999/02/22-rdf-syntax-ns#"
   xmlns:svg="http://www.w3.org/2000/svg"
   xmlns="http://www.w3.org/2000/svg"
   xmlns:xlink="http://www.w3.org/1999/xlink"
   xmlns:sodipodi="http://sodipodi.sourceforge.net/DTD/sodipodi-0.dtd"
   xmlns:inkscape="http://www.inkscape.org/namespaces/inkscape"
   sodipodi:docname="im-ban-user.svg"
   inkscape:version="0.48.1 r9760"
   version="1.0"
   width="22"
   height="22"
   id="svg11300">
  <metadata
     id="metadata49">
    <rdf:RDF>
      <cc:Work
         rdf:about="">
        <dc:format>image/svg+xml</dc:format>
        <dc:type
           rdf:resource="http://purl.org/dc/dcmitype/StillImage" />
        <dc:title></dc:title>
      </cc:Work>
    </rdf:RDF>
  </metadata>
  <sodipodi:namedview
     pagecolor="#ffffff"
     bordercolor="#666666"
     borderopacity="1"
     objecttolerance="10"
     gridtolerance="10"
     guidetolerance="10"
     inkscape:pageopacity="0"
     inkscape:pageshadow="2"
     inkscape:window-width="1366"
     inkscape:window-height="688"
     id="namedview47"
     showgrid="true"
     inkscape:zoom="14.181818"
     inkscape:cx="-4.5128205"
     inkscape:cy="11.669872"
     inkscape:window-x="0"
     inkscape:window-y="25"
     inkscape:window-maximized="1"
     inkscape:current-layer="svg11300">
    <inkscape:grid
       type="xygrid"
       id="grid3123" />
  </sodipodi:namedview>
  <defs
     id="defs3">
    <linearGradient
       id="linearGradient3785">
      <stop
         id="stop3787"
         style="stop-color:#b8b8b8"
         offset="0" />
      <stop
         id="stop3789"
         style="stop-color:#878787"
         offset="1" />
    </linearGradient>
    <linearGradient
       id="linearGradient6954">
      <stop
         id="stop6960"
         style="stop-color:#f5f5f5"
         offset="0" />
      <stop
         id="stop6962"
         style="stop-color:#d2d2d2"
         offset="1" />
    </linearGradient>
    <linearGradient
       id="linearGradient3341">
      <stop
         id="stop3343"
         style="stop-color:#fff"
         offset="0" />
      <stop
         id="stop3345"
         style="stop-color:#fff;stop-opacity:0"
         offset="1" />
    </linearGradient>
    <linearGradient
       id="linearGradient5060">
      <stop
         id="stop5062"
         offset="0" />
      <stop
         id="stop5064"
         style="stop-opacity:0"
         offset="1" />
    </linearGradient>
    <radialGradient
       id="radialGradient2910"
       xlink:href="#linearGradient6954"
       gradientUnits="userSpaceOnUse"
       cy="28.66"
       cx="25"
       gradientTransform="matrix(0.67742,0,0,0.19286,-5.0163,9.9977)"
       r="16" />
    <linearGradient
       id="linearGradient2912"
       y2="45"
       xlink:href="#linearGradient3785"
       gradientUnits="userSpaceOnUse"
       x2="30"
       gradientTransform="matrix(0.51613,0,0,0.51667,-0.98397,-0.49181)"
       y1="25.085"
       x1="30" />
    <linearGradient
       id="linearGradient2914"
       y2="43.531"
       xlink:href="#linearGradient3341"
       gradientUnits="userSpaceOnUse"
       x2="29.996"
       gradientTransform="matrix(0.51613,0,0,0.51667,-0.98397,-0.49181)"
       y1="21.44"
       x1="29.996" />
    <radialGradient
       id="radialGradient2916"
       xlink:href="#linearGradient6954"
       gradientUnits="userSpaceOnUse"
       cy="12.313"
       cx="26.376"
       gradientTransform="matrix(0.86552,-0.071029,0.067606,0.84907,-11.039,-4.2048)"
       r="8" />
    <linearGradient
       id="linearGradient2918"
       y2="44.679"
       xlink:href="#linearGradient3785"
       gradientUnits="userSpaceOnUse"
       x2="30"
       gradientTransform="matrix(0.5277,0,0,0.53573,-1.3311,-1.4043)"
       y1="5"
       x1="30" />
    <linearGradient
       id="linearGradient2920"
       y2="37.438"
       xlink:href="#linearGradient5060"
       gradientUnits="userSpaceOnUse"
       x2="17"
       gradientTransform="matrix(0.75,0,0,0.43478,-5.1276,2.9174)"
       y1="39"
       x1="22" />
    <radialGradient
       id="radialGradient2922"
       xlink:href="#linearGradient5060"
       gradientUnits="userSpaceOnUse"
       cy="33.188"
       cx="30"
       gradientTransform="matrix(0.81492,-3.8845e-7,1.1365e-7,0.2534,-9.9476,6.5902)"
       r="4.6875" />
    <linearGradient
       id="linearGradient2924"
       y2="37.438"
       xlink:href="#linearGradient5060"
       gradientUnits="userSpaceOnUse"
       x2="17"
       gradientTransform="matrix(-0.75,0,0,0.43478,34.15,2.9174)"
       y1="39"
       x1="22" />
    <linearGradient
       id="linearGradient2926"
       y2="24.913"
       xlink:href="#linearGradient3341"
       gradientUnits="userSpaceOnUse"
       x2="30"
       gradientTransform="matrix(0.5277,0,0,0.53573,-1.3311,-1.4043)"
       y1="6.334"
       x1="30" />
    <linearGradient
       x1="24.139"
       y1="6.5317"
       gradientTransform="matrix(0.53994,0,0,0.53668,-1.8489,-1.5062)"
       x2="24.139"
       gradientUnits="userSpaceOnUse"
       y2="45.69"
       id="linearGradient2398">
      <stop
         offset="0"
         style="stop-color:#fff"
         id="stop4224" />
      <stop
         offset="1"
         style="stop-color:#fff;stop-opacity:0"
         id="stop4226" />
    </linearGradient>
    <linearGradient
       x1="23.878"
       y1="18.535"
       gradientTransform="matrix(0.89889,0,0,0.89347,-10.464,-9.566)"
       x2="23.878"
       gradientUnits="userSpaceOnUse"
       y2="27.495"
       id="linearGradient2401">
      <stop
         offset="0"
         style="stop-color:#e35d4f"
         id="stop3713" />
      <stop
         offset="1"
         style="stop-color:#c6262e"
         id="stop3715" />
    </linearGradient>
  </defs>
  <g
     transform="translate(-3.49969,-1)"
     id="g3758"
     style="opacity:0.5">
    <path
       inkscape:connector-curvature="0"
       d="m 12.177,10.1 c 0.23753,1.1247 0.37012,1.9754 0.17742,3.1 -1.5023,1.2477 -5.3445,1.8084 -5.3387,3.1 l -0.51613,3.875 c 0,1.2841 3.5817,2.325 8.0001,2.325 4.4183,0 8.0001,-1.0409 8.0001,-2.325 L 21.98366,16.3 c -0.0061,-1.1055 -3.871,-1.8083 -5.3549,-3.1 -0.12675,-1.0438 -0.02586,-2.0562 0.19355,-3.1 h -4.6452 z"
       style="fill:url(#radialGradient2910);stroke:url(#linearGradient2912);stroke-width:0.99989003000000021"
       id="path3766" />
    <path
       inkscape:connector-curvature="0"
       d="m 13.219,11.094 c 0.08722,0.85671 0.3354,1.801 -0.04818,2.6159 -0.64255,0.72846 -1.5946,1.0938 -2.4674,1.4727 -1.3803,0.327 -2.9893,0.817 -2.7778,1.815 -0.1417,1.063 -0.2835,2.126 -0.4252,3.19 0.3064,0.16061 1.0809,0.5849 1.625,0.6875 2.5208,0.66695 5.1678,0.72537 7.7549,0.51952 1.5117,-0.16621 3.0886,-0.35266 4.4326,-1.1133 0.33544,-0.07362 0.10712,-0.31641 0.11494,-0.65492 -0.13206,-1.0213 -0.26412,-2.0426 -0.39619,-3.0638 -0.58765,-0.5027 -1.3913,-0.75352 -2.1064,-1.0646 -1.0828,-0.4473 -2.2515,-0.853 -3.0869,-1.708 -0.39162,-0.68956 -0.16147,-1.5387 -0.10732,-2.2865 0.25968,-0.52835 -0.2234,-0.4019 -0.55293,-0.40969 h -1.9589 z"
       style="fill:none;stroke:url(#linearGradient2914);stroke-width:0.99989003000000021"
       id="path3742" />
    <path
       inkscape:connector-curvature="0"
       d="m 14.5,1.5422 c -2.1858,0 -3.9578,1.679 -3.9578,3.7501 0.01713,0.76649 0.08155,1.677 0.5277,3.7501 0.26385,0.8036 2.6173,2.9465 2.6385,3.2144 0.5117,0.26786 1.3193,0.26786 1.847,0 0,-0.26786 2.1108,-2.4108 2.3747,-3.2144 0.50205,-2.1545 0.50077,-2.9465 0.5277,-3.7501 0,-2.0711 -1.772,-3.7501 -3.9578,-3.7501 z"
       style="fill:url(#radialGradient2916);stroke:url(#linearGradient2918);stroke-width:1.08449996000000004"
       id="path3764" />
    <path
       inkscape:connector-curvature="0"
       d="M 10.622,21.7 C 8.8506,20.838 9.6955,18.925 9.8724,17.7 9.1224,18.57 9.5,21 8,21 c 1,0.35562 1.6845,0.59817 2.6224,0.7 z"
       style="opacity:0.50000000000000000;fill:url(#linearGradient2920)"
       id="path3848" />
    <path
       inkscape:connector-curvature="0"
       d="m 12,13.35 c 0.366,0.96 1.343,1.65 2.5,1.65 1.1566,0 2.134,-0.69018 2.5,-1.6495 h -5 z"
       style="opacity:0.29999999999999999;fill:url(#radialGradient2922)"
       id="path3833" />
    <path
       inkscape:connector-curvature="0"
       d="m 18.4,21.7 c 1.7718,-0.86182 0.9269,-2.7752 0.75,-4 0.75,0.87 0.372,3.3 1.872,3.3 -1,0.35562 -1.6845,0.59817 -2.6224,0.7 z"
       style="opacity:0.50000000000000000;fill:url(#linearGradient2924)"
       id="path3720" />
    <path
       inkscape:connector-curvature="0"
       d="m 14.5,2.5312 c -1.6666,0 -2.9513,1.2303 -2.9688,2.7188 1.39e-4,0.00624 -1.45e-4,0.024997 0,0.03125 0.01647,0.7081 0.08609,1.5273 0.5,3.4688 -0.0051,-0.03667 0.09671,0.20414 0.3125,0.46875 0.23243,0.28502 0.5666,0.60833 0.875,0.9375 0.3084,0.32917 0.59885,0.66898 0.84375,0.9375 0.09435,0.10345 0.17196,0.1869 0.25,0.28125 0.16681,0.03524 0.41525,0.03212 0.625,0 0.06182,-0.08397 0.11475,-0.15943 0.1875,-0.25 0.21825,-0.27171 0.4739,-0.57599 0.75,-0.90625 0.2761,-0.33026 0.56921,-0.68139 0.78125,-0.96875 0.19756,-0.26773 0.30731,-0.50314 0.3125,-0.5 0.4607,-1.9998 0.47374,-2.6696 0.5,-3.4688 0,-0.010182 1.19e-4,-0.021091 0,-0.03125 -0.018,-1.4884 -1.302,-2.7188 -2.969,-2.7188 z"
       style="fill:none;stroke:url(#linearGradient2926);stroke-width:1.08449996000000004"
       id="path3730" />
  </g>
</svg>
