<?xml version="1.0" encoding="UTF-8" standalone="no"?>
<!-- Created with Inkscape (http://www.inkscape.org/) -->

<svg
   xmlns:dc="http://purl.org/dc/elements/1.1/"
   xmlns:cc="http://creativecommons.org/ns#"
   xmlns:rdf="http://www.w3.org/1999/02/22-rdf-syntax-ns#"
   xmlns:svg="http://www.w3.org/2000/svg"
   xmlns="http://www.w3.org/2000/svg"
   xmlns:xlink="http://www.w3.org/1999/xlink"
   xmlns:sodipodi="http://sodipodi.sourceforge.net/DTD/sodipodi-0.dtd"
   xmlns:inkscape="http://www.inkscape.org/namespaces/inkscape"
   sodipodi:docname="im-user.svg"
   inkscape:version="0.48.1 r9760"
   version="1.0"
   width="22"
   height="22"
   id="svg11300">
  <metadata
     id="metadata49">
    <rdf:RDF>
      <cc:Work
         rdf:about="">
        <dc:format>image/svg+xml</dc:format>
        <dc:type
           rdf:resource="http://purl.org/dc/dcmitype/StillImage" />
        <dc:title></dc:title>
      </cc:Work>
    </rdf:RDF>
  </metadata>
  <sodipodi:namedview
     pagecolor="#ffffff"
     bordercolor="#666666"
     borderopacity="1"
     objecttolerance="10"
     gridtolerance="10"
     guidetolerance="10"
     inkscape:pageopacity="0"
     inkscape:pageshadow="2"
     inkscape:window-width="1366"
     inkscape:window-height="688"
     id="namedview47"
     showgrid="true"
     inkscape:zoom="10.02806"
     inkscape:cx="-1.8549502"
     inkscape:cy="9.7275819"
     inkscape:window-x="0"
     inkscape:window-y="25"
     inkscape:window-maximized="1"
     inkscape:current-layer="svg11300">
    <inkscape:grid
       type="xygrid"
       id="grid3123" />
  </sodipodi:namedview>
  <defs
     id="defs3">
    <linearGradient
       id="linearGradient3785">
      <stop
         id="stop3787"
         style="stop-color:#b8b8b8"
         offset="0" />
      <stop
         id="stop3789"
         style="stop-color:#878787"
         offset="1" />
    </linearGradient>
    <linearGradient
       id="linearGradient6954">
      <stop
         id="stop6960"
         style="stop-color:#f5f5f5"
         offset="0" />
      <stop
         id="stop6962"
         style="stop-color:#d2d2d2"
         offset="1" />
    </linearGradient>
    <linearGradient
       id="linearGradient3341">
      <stop
         id="stop3343"
         style="stop-color:#fff"
         offset="0" />
      <stop
         id="stop3345"
         style="stop-color:#fff;stop-opacity:0"
         offset="1" />
    </linearGradient>
    <linearGradient
       id="linearGradient5060">
      <stop
         id="stop5062"
         offset="0" />
      <stop
         id="stop5064"
         style="stop-opacity:0"
         offset="1" />
    </linearGradient>
    <radialGradient
       id="radialGradient2910"
       xlink:href="#linearGradient6954"
       gradientUnits="userSpaceOnUse"
       cy="28.66"
       cx="25"
       gradientTransform="matrix(0.67742,0,0,0.19286,-5.0163,9.9977)"
       r="16" />
    <linearGradient
       id="linearGradient2912"
       y2="45"
       xlink:href="#linearGradient3785"
       gradientUnits="userSpaceOnUse"
       x2="30"
       gradientTransform="matrix(0.51613,0,0,0.51667,-0.98397,-0.49181)"
       y1="25.085"
       x1="30" />
    <linearGradient
       id="linearGradient2914"
       y2="43.531"
       xlink:href="#linearGradient3341"
       gradientUnits="userSpaceOnUse"
       x2="29.996"
       gradientTransform="matrix(0.51613,0,0,0.51667,-0.98397,-0.49181)"
       y1="21.44"
       x1="29.996" />
    <radialGradient
       id="radialGradient2916"
       xlink:href="#linearGradient6954"
       gradientUnits="userSpaceOnUse"
       cy="12.313"
       cx="26.376"
       gradientTransform="matrix(0.86552,-0.071029,0.067606,0.84907,-11.039,-4.2048)"
       r="8" />
    <linearGradient
       id="linearGradient2918"
       y2="44.679"
       xlink:href="#linearGradient3785"
       gradientUnits="userSpaceOnUse"
       x2="30"
       gradientTransform="matrix(0.5277,0,0,0.53573,-1.3311,-1.4043)"
       y1="5"
       x1="30" />
    <linearGradient
       id="linearGradient2920"
       y2="37.438"
       xlink:href="#linearGradient5060"
       gradientUnits="userSpaceOnUse"
       x2="17"
       gradientTransform="matrix(0.75,0,0,0.43478,-5.1276,2.9174)"
       y1="39"
       x1="22" />
    <radialGradient
       id="radialGradient2922"
       xlink:href="#linearGradient5060"
       gradientUnits="userSpaceOnUse"
       cy="33.188"
       cx="30"
       gradientTransform="matrix(0.81492,-3.8845e-7,1.1365e-7,0.2534,-9.9476,6.5902)"
       r="4.6875" />
    <linearGradient
       id="linearGradient2924"
       y2="37.438"
       xlink:href="#linearGradient5060"
       gradientUnits="userSpaceOnUse"
       x2="17"
       gradientTransform="matrix(-0.75,0,0,0.43478,34.15,2.9174)"
       y1="39"
       x1="22" />
    <linearGradient
       id="linearGradient2926"
       y2="24.913"
       xlink:href="#linearGradient3341"
       gradientUnits="userSpaceOnUse"
       x2="30"
       gradientTransform="matrix(0.5277,0,0,0.53573,-1.3311,-1.4043)"
       y1="6.334"
       x1="30" />
    <linearGradient
       y2="33.332287"
       x2="57.411129"
       y1="33.332287"
       x1="8.5273199"
       gradientTransform="matrix(0,0.39055,-0.3872368,0,-9.063022,-7.3815245)"
       gradientUnits="userSpaceOnUse"
       id="linearGradient3077"
       xlink:href="#linearGradient4222"
       inkscape:collect="always" />
    <linearGradient
       y2="23.890965"
       x2="1.3099612"
       y1="23.890965"
       x1="28.670898"
       gradientTransform="matrix(0,-0.3367372,-0.3354294,0,-11.271982,9.9250292)"
       gradientUnits="userSpaceOnUse"
       id="linearGradient3075"
       xlink:href="#linearGradient2264-3"
       inkscape:collect="always" />
    <radialGradient
       r="29.292715"
       fy="10.045444"
       fx="11.901996"
       cy="10.045444"
       cx="11.901996"
       gradientUnits="userSpaceOnUse"
       id="radialGradient3073"
       xlink:href="#linearGradient2145"
       inkscape:collect="always" />
    <linearGradient
       y2="45.358662"
       x2="19.176617"
       y1="13.479795"
       x1="19.176617"
       gradientTransform="matrix(0.4916775,0,0,0.4916774,0.6986745,-0.3018277)"
       gradientUnits="userSpaceOnUse"
       id="linearGradient3071"
       xlink:href="#linearGradient5354"
       inkscape:collect="always" />
    <linearGradient
       y2="45.347591"
       x2="28.771276"
       y1="12.91806"
       x1="28.771276"
       gradientTransform="matrix(0.4916775,0,0,0.4916774,0.6986745,-0.3018277)"
       gradientUnits="userSpaceOnUse"
       id="linearGradient3069"
       xlink:href="#linearGradient37935"
       inkscape:collect="always" />
    <radialGradient
       r="10.625"
       fy="4.625"
       fx="62.625"
       cy="4.625"
       cx="62.625"
       gradientTransform="matrix(1,0,0,0.341176,0,3.047059)"
       gradientUnits="userSpaceOnUse"
       id="radialGradient3067"
       xlink:href="#linearGradient8838"
       inkscape:collect="always" />
    <linearGradient
       id="linearGradient2264-3">
      <stop
         offset="0"
         style="stop-color:#d7e866;stop-opacity:1"
         id="stop2266-2" />
      <stop
         offset="1"
         style="stop-color:#8cab2a;stop-opacity:1"
         id="stop2268-0" />
    </linearGradient>
    <linearGradient
       id="linearGradient4222">
      <stop
         offset="0"
         style="stop-color:#ffffff;stop-opacity:1"
         id="stop4224-5" />
      <stop
         offset="1"
         style="stop-color:#ffffff;stop-opacity:0"
         id="stop4226-6" />
    </linearGradient>
    <linearGradient
       id="linearGradient2145">
      <stop
         id="stop2147"
         offset="0.0000000"
         style="stop-color:#fffffd;stop-opacity:1.0000000;" />
      <stop
         id="stop2149"
         offset="1.0000000"
         style="stop-color:#cbcbc9;stop-opacity:1.0000000;" />
    </linearGradient>
    <linearGradient
       id="linearGradient37935">
      <stop
         style="stop-color:#929292;stop-opacity:1;"
         offset="0"
         id="stop37937" />
      <stop
         style="stop-color:#4a4a4a;stop-opacity:1;"
         offset="1"
         id="stop37939" />
    </linearGradient>
    <linearGradient
       id="linearGradient5354">
      <stop
         id="stop5356"
         offset="0"
         style="stop-color:#3f3f3f;stop-opacity:1;" />
      <stop
         id="stop5358"
         offset="1"
         style="stop-color:#000000;stop-opacity:1;" />
    </linearGradient>
    <linearGradient
       inkscape:collect="always"
       id="linearGradient8838">
      <stop
         style="stop-color:#000000;stop-opacity:1;"
         offset="0"
         id="stop8840" />
      <stop
         style="stop-color:#000000;stop-opacity:0;"
         offset="1"
         id="stop8842" />
    </linearGradient>
    <radialGradient
       inkscape:collect="always"
       xlink:href="#linearGradient8838"
       id="radialGradient4318"
       gradientUnits="userSpaceOnUse"
       gradientTransform="matrix(1,0,0,0.341176,0,3.047059)"
       cx="62.625"
       cy="4.625"
       fx="62.625"
       fy="4.625"
       r="10.625" />
    <linearGradient
       inkscape:collect="always"
       xlink:href="#linearGradient37935"
       id="linearGradient4320"
       gradientUnits="userSpaceOnUse"
       gradientTransform="matrix(0.4916775,0,0,0.4916774,0.6986745,-0.3018277)"
       x1="28.771276"
       y1="12.91806"
       x2="28.771276"
       y2="45.347591" />
    <linearGradient
       inkscape:collect="always"
       xlink:href="#linearGradient5354"
       id="linearGradient4322"
       gradientUnits="userSpaceOnUse"
       gradientTransform="matrix(0.4916775,0,0,0.4916774,0.6986745,-0.3018277)"
       x1="19.176617"
       y1="13.479795"
       x2="19.176617"
       y2="45.358662" />
    <radialGradient
       inkscape:collect="always"
       xlink:href="#linearGradient2145"
       id="radialGradient4324"
       gradientUnits="userSpaceOnUse"
       cx="11.901996"
       cy="10.045444"
       fx="11.901996"
       fy="10.045444"
       r="29.292715" />
    <linearGradient
       inkscape:collect="always"
       xlink:href="#linearGradient2264-3"
       id="linearGradient4326"
       gradientUnits="userSpaceOnUse"
       gradientTransform="matrix(0,-0.3367372,-0.3354294,0,-11.271982,9.9250292)"
       x1="28.670898"
       y1="23.890965"
       x2="1.3099612"
       y2="23.890965" />
    <linearGradient
       inkscape:collect="always"
       xlink:href="#linearGradient4222"
       id="linearGradient4328"
       gradientUnits="userSpaceOnUse"
       gradientTransform="matrix(0,0.39055,-0.3872368,0,-9.063022,-7.3815245)"
       x1="8.5273199"
       y1="33.332287"
       x2="57.411129"
       y2="33.332287" />
    <linearGradient
       inkscape:collect="always"
       xlink:href="#linearGradient37935"
       id="linearGradient4342"
       gradientUnits="userSpaceOnUse"
       gradientTransform="matrix(0.44892299,0,0,0.4489229,-33.339226,-5.2014469)"
       x1="28.771276"
       y1="12.91806"
       x2="28.771276"
       y2="45.347591" />
    <linearGradient
       inkscape:collect="always"
       xlink:href="#linearGradient5354"
       id="linearGradient4344"
       gradientUnits="userSpaceOnUse"
       gradientTransform="matrix(0.44892299,0,0,0.4489229,-33.339226,-5.2014469)"
       x1="19.176617"
       y1="13.479795"
       x2="19.176617"
       y2="45.358662" />
    <linearGradient
       inkscape:collect="always"
       xlink:href="#linearGradient37935"
       id="linearGradient4358"
       gradientUnits="userSpaceOnUse"
       gradientTransform="matrix(0.44892299,0,0,0.4489229,-33.339226,-5.2014469)"
       x1="28.771276"
       y1="12.91806"
       x2="28.771276"
       y2="45.347591" />
    <linearGradient
       inkscape:collect="always"
       xlink:href="#linearGradient5354"
       id="linearGradient4360"
       gradientUnits="userSpaceOnUse"
       gradientTransform="matrix(0.44892299,0,0,0.4489229,-33.339226,-5.2014469)"
       x1="19.176617"
       y1="13.479795"
       x2="19.176617"
       y2="45.358662" />
    <radialGradient
       inkscape:collect="always"
       xlink:href="#linearGradient2145"
       id="radialGradient4362"
       gradientUnits="userSpaceOnUse"
       cx="11.901996"
       cy="10.045444"
       fx="11.901996"
       fy="10.045444"
       r="29.292715" />
  </defs>
  <g
     transform="translate(-6,-1)"
     id="g3758">
    <path
       inkscape:connector-curvature="0"
       d="m 12.177,10.1 c 0.23753,1.1247 0.37012,1.9754 0.17742,3.1 -1.5023,1.2477 -5.3445,1.8084 -5.3387,3.1 l -0.51613,3.875 c 0,1.2841 3.5817,2.325 8.0001,2.325 4.4183,0 8.0001,-1.0409 8.0001,-2.325 L 21.98366,16.3 c -0.0061,-1.1055 -3.871,-1.8083 -5.3549,-3.1 -0.12675,-1.0438 -0.02586,-2.0562 0.19355,-3.1 h -4.6452 z"
       style="fill:url(#radialGradient2910);stroke:url(#linearGradient2912);stroke-width:0.99989003"
       id="path3766" />
    <path
       inkscape:connector-curvature="0"
       d="m 13.219,11.094 c 0.08722,0.85671 0.3354,1.801 -0.04818,2.6159 -0.64255,0.72846 -1.5946,1.0938 -2.4674,1.4727 -1.3803,0.327 -2.9893,0.817 -2.7778,1.815 -0.1417,1.063 -0.2835,2.126 -0.4252,3.19 0.3064,0.16061 1.0809,0.5849 1.625,0.6875 2.5208,0.66695 5.1678,0.72537 7.7549,0.51952 1.5117,-0.16621 3.0886,-0.35266 4.4326,-1.1133 0.33544,-0.07362 0.10712,-0.31641 0.11494,-0.65492 -0.13206,-1.0213 -0.26412,-2.0426 -0.39619,-3.0638 -0.58765,-0.5027 -1.3913,-0.75352 -2.1064,-1.0646 -1.0828,-0.4473 -2.2515,-0.853 -3.0869,-1.708 -0.39162,-0.68956 -0.16147,-1.5387 -0.10732,-2.2865 0.25968,-0.52835 -0.2234,-0.4019 -0.55293,-0.40969 h -1.9589 z"
       style="fill:none;stroke:url(#linearGradient2914);stroke-width:0.99989003"
       id="path3742" />
    <path
       inkscape:connector-curvature="0"
       d="m 14.5,1.5422 c -2.1858,0 -3.9578,1.679 -3.9578,3.7501 0.01713,0.76649 0.08155,1.677 0.5277,3.7501 0.26385,0.8036 2.6173,2.9465 2.6385,3.2144 0.5117,0.26786 1.3193,0.26786 1.847,0 0,-0.26786 2.1108,-2.4108 2.3747,-3.2144 0.50205,-2.1545 0.50077,-2.9465 0.5277,-3.7501 0,-2.0711 -1.772,-3.7501 -3.9578,-3.7501 z"
       style="fill:url(#radialGradient2916);stroke:url(#linearGradient2918);stroke-width:1.08449996"
       id="path3764" />
    <path
       inkscape:connector-curvature="0"
       d="M 10.622,21.7 C 8.8506,20.838 9.6955,18.925 9.8724,17.7 9.1224,18.57 9.5,21 8,21 c 1,0.35562 1.6845,0.59817 2.6224,0.7 z"
       style="opacity:0.5;fill:url(#linearGradient2920)"
       id="path3848" />
    <path
       inkscape:connector-curvature="0"
       d="m 12,13.35 c 0.366,0.96 1.343,1.65 2.5,1.65 1.1566,0 2.134,-0.69018 2.5,-1.6495 h -5 z"
       style="opacity:0.3;fill:url(#radialGradient2922)"
       id="path3833" />
    <path
       inkscape:connector-curvature="0"
       d="m 18.4,21.7 c 1.7718,-0.86182 0.9269,-2.7752 0.75,-4 0.75,0.87 0.372,3.3 1.872,3.3 -1,0.35562 -1.6845,0.59817 -2.6224,0.7 z"
       style="opacity:0.5;fill:url(#linearGradient2924)"
       id="path3720" />
    <path
       inkscape:connector-curvature="0"
       d="m 14.5,2.5312 c -1.6666,0 -2.9513,1.2303 -2.9688,2.7188 1.39e-4,0.00624 -1.45e-4,0.024997 0,0.03125 0.01647,0.7081 0.08609,1.5273 0.5,3.4688 -0.0051,-0.03667 0.09671,0.20414 0.3125,0.46875 0.23243,0.28502 0.5666,0.60833 0.875,0.9375 0.3084,0.32917 0.59885,0.66898 0.84375,0.9375 0.09435,0.10345 0.17196,0.1869 0.25,0.28125 0.16681,0.03524 0.41525,0.03212 0.625,0 0.06182,-0.08397 0.11475,-0.15943 0.1875,-0.25 0.21825,-0.27171 0.4739,-0.57599 0.75,-0.90625 0.2761,-0.33026 0.56921,-0.68139 0.78125,-0.96875 0.19756,-0.26773 0.30731,-0.50314 0.3125,-0.5 0.4607,-1.9998 0.47374,-2.6696 0.5,-3.4688 0,-0.010182 1.19e-4,-0.021091 0,-0.03125 -0.018,-1.4884 -1.302,-2.7188 -2.969,-2.7188 z"
       style="fill:none;stroke:url(#linearGradient2926);stroke-width:1.08449996"
       id="path3730" />
  </g>
  <g
     id="g4347"
     transform="matrix(0.62585021,0,0,0.62585021,30.121747,12.511426)">
    <path
       id="path2555"
       d="m -22.571273,-3.5563239 c -5.03915,0 -9.123287,4.08413624 -9.123287,9.1232882 0,5.0391507 4.084137,9.1376327 9.123287,9.1376317 5.03915,0 9.137637,-4.098481 9.137633,-9.1376317 0,-5.03915196 -4.098483,-9.1232882 -9.137633,-9.1232882 z"
       style="fill:url(#linearGradient4358);fill-opacity:1;stroke:url(#linearGradient4360);stroke-width:0.91299701;stroke-linecap:round;stroke-linejoin:round;stroke-miterlimit:4;stroke-opacity:1;stroke-dasharray:none;stroke-dashoffset:0"
       inkscape:connector-curvature="0" />
    <path
       transform="matrix(0.52048954,0,0,0.52048954,-31.022056,-3.2277143)"
       d="m 31.160714,16.910715 c 0,8.23496 -6.675754,14.910714 -14.910714,14.910714 -8.23496,0 -14.9107141,-6.675754 -14.9107141,-14.910714 0,-8.2349599 6.6757541,-14.910714 14.9107141,-14.910714 8.23496,0 14.910714,6.6757541 14.910714,14.910714 z"
       sodipodi:ry="14.910714"
       sodipodi:rx="14.910714"
       sodipodi:cy="16.910715"
       sodipodi:cx="16.25"
       id="path35549"
       style="fill:url(#radialGradient4362);fill-opacity:1;fill-rule:evenodd;stroke:none"
       sodipodi:type="arc" />
    <path
       sodipodi:nodetypes="cc"
       id="path2308"
       d="m -22.564101,1.0089182 c 0,-1.2715707 0,-1.43257599 0,-1.43257599"
       style="fill:#1f1f1f;fill-opacity:1;fill-rule:evenodd;stroke:#727272;stroke-width:0.91304374;stroke-linecap:round;stroke-linejoin:miter;stroke-miterlimit:4;stroke-opacity:1;stroke-dasharray:none"
       inkscape:connector-curvature="0" />
    <path
       id="path2312"
       d="M -22.843009,5.7693952 -17.911,0.83749656"
       style="fill:none;stroke:#000000;stroke-width:0.45652181;stroke-linecap:round;stroke-linejoin:miter;stroke-miterlimit:4;stroke-opacity:1;stroke-dasharray:none"
       inkscape:connector-curvature="0" />
    <path
       id="path2314"
       d="m -22.042241,5.8057919 -3.294072,-3.293998"
       style="fill:none;stroke:#000000;stroke-width:0.45652181;stroke-linecap:round;stroke-linejoin:miter;stroke-miterlimit:4;stroke-opacity:1;stroke-dasharray:none"
       inkscape:connector-curvature="0" />
    <path
       id="path2316"
       d="m -22.733813,5.5146104 5.616301,-1.5048497"
       style="fill:#ff0000;fill-rule:evenodd;stroke:#ff0000;stroke-width:0.45652181;stroke-linecap:round;stroke-linejoin:miter;stroke-miterlimit:4;stroke-opacity:1;stroke-dasharray:none"
       inkscape:connector-curvature="0" />
    <path
       sodipodi:nodetypes="cc"
       id="path5368"
       d="m -22.564101,11.768687 c 0,-1.271571 0,-1.432576 0,-1.432576"
       style="fill:#121212;fill-opacity:1;fill-rule:evenodd;stroke:#121212;stroke-width:0.91304374;stroke-linecap:round;stroke-linejoin:miter;stroke-miterlimit:4;stroke-opacity:1;stroke-dasharray:none"
       inkscape:connector-curvature="0" />
    <path
       sodipodi:nodetypes="cc"
       id="path5370"
       d="m -17.998883,5.5741363 c 1.271571,0 1.432577,0 1.432577,0"
       style="fill:#1f1f1f;fill-opacity:1;fill-rule:evenodd;stroke:#1f1f1f;stroke-width:0.91304374;stroke-linecap:round;stroke-linejoin:miter;stroke-miterlimit:4;stroke-opacity:1;stroke-dasharray:none"
       inkscape:connector-curvature="0" />
    <path
       sodipodi:nodetypes="cc"
       id="path5372"
       d="m -28.742544,5.5741363 c 1.242978,0 1.400363,0 1.400363,0"
       style="fill:#1f1f1f;fill-opacity:1;fill-rule:evenodd;stroke:#5f5f5f;stroke-width:0.91304374;stroke-linecap:round;stroke-linejoin:miter;stroke-miterlimit:4;stroke-opacity:1;stroke-dasharray:none"
       inkscape:connector-curvature="0" />
  </g>
</svg>
