<?xml version="1.0" encoding="UTF-8" standalone="no"?>
<!-- Created with Inkscape (http://www.inkscape.org/) -->

<svg
   xmlns:dc="http://purl.org/dc/elements/1.1/"
   xmlns:cc="http://creativecommons.org/ns#"
   xmlns:rdf="http://www.w3.org/1999/02/22-rdf-syntax-ns#"
   xmlns:svg="http://www.w3.org/2000/svg"
   xmlns="http://www.w3.org/2000/svg"
   xmlns:xlink="http://www.w3.org/1999/xlink"
   xmlns:sodipodi="http://sodipodi.sourceforge.net/DTD/sodipodi-0.dtd"
   xmlns:inkscape="http://www.inkscape.org/namespaces/inkscape"
   id="svg3386"
   height="22"
   width="22"
   version="1.0"
   inkscape:version="0.48.1 r9760"
   sodipodi:docname="irc-voice.svg">
  <sodipodi:namedview
     pagecolor="#ffffff"
     bordercolor="#666666"
     borderopacity="1"
     objecttolerance="10"
     gridtolerance="10"
     guidetolerance="10"
     inkscape:pageopacity="0"
     inkscape:pageshadow="2"
     inkscape:window-width="1366"
     inkscape:window-height="688"
     id="namedview43"
     showgrid="false"
     inkscape:zoom="10.02806"
     inkscape:cx="19.448871"
     inkscape:cy="11.143317"
     inkscape:window-x="0"
     inkscape:window-y="25"
     inkscape:window-maximized="1"
     inkscape:current-layer="svg3386" />
  <metadata
     id="metadata36">
    <rdf:RDF>
      <cc:Work
         rdf:about="">
        <dc:format>image/svg+xml</dc:format>
        <dc:type
           rdf:resource="http://purl.org/dc/dcmitype/StillImage" />
        <dc:title></dc:title>
      </cc:Work>
    </rdf:RDF>
  </metadata>
  <defs
     id="defs3388">
    <linearGradient
       x1="25.132"
       y1=".98521"
       gradientTransform="matrix(.48572 0 0 .47803 -.65717 -.70595)"
       x2="25.132"
       gradientUnits="userSpaceOnUse"
       y2="47.013"
       id="linearGradient2435">
      <stop
         offset="0"
         style="stop-color:#f4f4f4"
         id="stop3602" />
      <stop
         offset="1"
         style="stop-color:#dbdbdb"
         id="stop3604" />
    </linearGradient>
    <linearGradient
       x1="-51.786"
       y1="50.786"
       gradientTransform="matrix(.39221 0 0 .44736 28.199 -1.2387)"
       x2="-51.786"
       gradientUnits="userSpaceOnUse"
       y2="2.9062"
       id="linearGradient2438">
      <stop
         offset="0"
         style="stop-color:#aaa"
         id="stop3106" />
      <stop
         offset="1"
         style="stop-color:#c8c8c8"
         id="stop3108" />
    </linearGradient>
    <linearGradient
       gradientTransform="matrix(1.0476191,0,0,1.0476191,21.8236,0.64468845)"
       gradientUnits="userSpaceOnUse"
       y2="9.8846149"
       x2="-0.30100459"
       y1="9.8846149"
       x1="-20.362228"
       id="linearGradient3798"
       xlink:href="#linearGradient2438"
       inkscape:collect="always" />
    <linearGradient
       gradientTransform="matrix(1.0476191,0,0,1.0476191,21.8236,0.64468845)"
       gradientUnits="userSpaceOnUse"
       y2="9.8846149"
       x2="-0.30100459"
       y1="9.8846149"
       x1="-20.362228"
       id="linearGradient3806"
       xlink:href="#linearGradient2435"
       inkscape:collect="always" />
  </defs>
  <text
     sodipodi:linespacing="125%"
     id="text3020"
     y="21.476191"
     x="-1.2364753"
     style="font-size:29.19079971px;font-style:normal;font-weight:normal;line-height:125%;letter-spacing:0px;word-spacing:0px;fill:url(#linearGradient3806);fill-opacity:1;stroke:url(#linearGradient3798);stroke-width:1.0476191;stroke-linejoin:round;stroke-opacity:1;font-family:Bitstream Vera Sans"
     xml:space="preserve"><tspan
       style="fill:url(#linearGradient3806);fill-opacity:1;stroke:url(#linearGradient3798);stroke-width:1.0476191"
       y="21.476191"
       x="-1.2364753"
       id="tspan3022"
       sodipodi:role="line">#</tspan></text>
  <g
     id="g3857"
     transform="matrix(0.92341885,0,0,0.92341885,37.6099,6.7377047)">
    <path
       style="opacity:0.6;fill:#eae3d0;fill-opacity:1;fill-rule:evenodd;stroke:none;stroke-width:1.69999993;marker:none;visibility:visible;display:inline;overflow:visible;enable-background:accumulate"
       id="path3228"
       d="m -18.909708,3.5335774 c -0.718294,-0.02119 -1.337055,0.4198054 -1.746013,0.9764677 -0.574246,0.6745108 -1.148491,1.3490215 -1.722737,2.0235323 -0.73611,0.042812 -1.50042,-0.1078992 -2.21341,0.1229015 -0.87506,0.3070779 -1.417906,1.2492865 -1.31925,2.1602555 0.01125,1.005727 -0.02583,2.0144596 0.02478,3.0182466 0.141279,1.033379 1.16893,1.804949 2.198005,1.698596 0.447041,0 0.894082,0 1.341122,0 0.71306,0.820463 1.43678,1.633689 2.135657,2.464539 0.769733,0.799637 2.175485,0.662661 2.8407,-0.198063 0.459337,-0.501242 0.482374,-1.195617 0.461143,-1.835735 -0.0018,-2.844139 0.0035,-5.6883686 -0.0026,-8.5324507 -0.03886,-1.0302482 -0.964977,-1.9138304 -1.997359,-1.8982899 z"
       inkscape:connector-curvature="0" />
    <path
       style="fill:#3a3935;fill-opacity:1;fill-rule:evenodd;stroke:none;stroke-width:1.69999993;marker:none;visibility:visible;display:inline;overflow:visible;enable-background:accumulate"
       id="rect3180"
       d="m -18.909708,4.5335774 c -0.305223,0 -0.566527,0.1279595 -0.75,0.34375 l -2.25,2.65625 c 0,0 -2,0 -2,0 -0.552,0 -1,0.448 -1,1 -0.0063,0.996071 0.0022,2.0145486 0,2.9999996 0,0.552 0.448,1 1,1 l 2,0 2.15625,2.46875 c 0.171358,0.304919 0.469304,0.53125 0.84375,0.53125 0.552,0 1,-0.448 1,-1 l 0,-8.9999996 c 0,-0.552 -0.448,-1 -1,-1 z"
       inkscape:connector-curvature="0" />
  </g>
</svg>
