<?xml version="1.0" encoding="UTF-8" standalone="no"?>
<!-- Created with Inkscape (http://www.inkscape.org/) -->

<svg
   xmlns:dc="http://purl.org/dc/elements/1.1/"
   xmlns:cc="http://creativecommons.org/ns#"
   xmlns:rdf="http://www.w3.org/1999/02/22-rdf-syntax-ns#"
   xmlns:svg="http://www.w3.org/2000/svg"
   xmlns="http://www.w3.org/2000/svg"
   xmlns:xlink="http://www.w3.org/1999/xlink"
   xmlns:sodipodi="http://sodipodi.sourceforge.net/DTD/sodipodi-0.dtd"
   xmlns:inkscape="http://www.inkscape.org/namespaces/inkscape"
   id="svg3386"
   height="22"
   width="22"
   version="1.0"
   inkscape:version="0.48.1 r9760"
   sodipodi:docname="irc-voice.svg">
  <sodipodi:namedview
     pagecolor="#ffffff"
     bordercolor="#666666"
     borderopacity="1"
     objecttolerance="10"
     gridtolerance="10"
     guidetolerance="10"
     inkscape:pageopacity="0"
     inkscape:pageshadow="2"
     inkscape:window-width="1366"
     inkscape:window-height="688"
     id="namedview43"
     showgrid="false"
     inkscape:zoom="10.02806"
     inkscape:cx="13.116639"
     inkscape:cy="11.143317"
     inkscape:window-x="0"
     inkscape:window-y="25"
     inkscape:window-maximized="1"
     inkscape:current-layer="svg3386" />
  <metadata
     id="metadata36">
    <rdf:RDF>
      <cc:Work
         rdf:about="">
        <dc:format>image/svg+xml</dc:format>
        <dc:type
           rdf:resource="http://purl.org/dc/dcmitype/StillImage" />
        <dc:title></dc:title>
      </cc:Work>
    </rdf:RDF>
  </metadata>
  <defs
     id="defs3388">
    <linearGradient
       x1="25.132"
       y1=".98521"
       gradientTransform="matrix(.48572 0 0 .47803 -.65717 -.70595)"
       x2="25.132"
       gradientUnits="userSpaceOnUse"
       y2="47.013"
       id="linearGradient2435">
      <stop
         offset="0"
         style="stop-color:#f4f4f4"
         id="stop3602" />
      <stop
         offset="1"
         style="stop-color:#dbdbdb"
         id="stop3604" />
    </linearGradient>
    <linearGradient
       x1="-51.786"
       y1="50.786"
       gradientTransform="matrix(.39221 0 0 .44736 28.199 -1.2387)"
       x2="-51.786"
       gradientUnits="userSpaceOnUse"
       y2="2.9062"
       id="linearGradient2438">
      <stop
         offset="0"
         style="stop-color:#aaa"
         id="stop3106" />
      <stop
         offset="1"
         style="stop-color:#c8c8c8"
         id="stop3108" />
    </linearGradient>
    <linearGradient
       gradientTransform="matrix(1.0476191,0,0,1.0476191,21.8236,0.64468845)"
       gradientUnits="userSpaceOnUse"
       y2="9.8846149"
       x2="-0.30100459"
       y1="9.8846149"
       x1="-20.362228"
       id="linearGradient3798"
       xlink:href="#linearGradient2438"
       inkscape:collect="always" />
    <linearGradient
       gradientTransform="matrix(1.0476191,0,0,1.0476191,21.8236,0.64468845)"
       gradientUnits="userSpaceOnUse"
       y2="9.8846149"
       x2="-0.30100459"
       y1="9.8846149"
       x1="-20.362228"
       id="linearGradient3806"
       xlink:href="#linearGradient2435"
       inkscape:collect="always" />
  </defs>
  <text
     sodipodi:linespacing="125%"
     id="text3020"
     y="21.476191"
     x="-1.2364753"
     style="font-size:29.19079971px;font-style:normal;font-weight:normal;line-height:125%;letter-spacing:0px;word-spacing:0px;fill:url(#linearGradient3806);fill-opacity:1;stroke:url(#linearGradient3798);stroke-width:1.0476191;stroke-linejoin:round;stroke-opacity:1;font-family:Bitstream Vera Sans"
     xml:space="preserve"><tspan
       style="fill:url(#linearGradient3806);fill-opacity:1;stroke:url(#linearGradient3798);stroke-width:1.0476191"
       y="21.476191"
       x="-1.2364753"
       id="tspan3022"
       sodipodi:role="line">#</tspan></text>
  <path
     inkscape:connector-curvature="0"
     d="m 20.148319,10.000677 c -0.663286,-0.019568 -1.234662,0.387656 -1.612301,0.901688 -0.53027,0.622856 -1.060538,1.245712 -1.590808,1.868568 -0.679738,0.03953 -1.385516,-0.09964 -2.043904,0.11349 -0.808047,0.283561 -1.309322,1.153614 -1.218221,1.99482 0.01039,0.928708 -0.02385,1.86019 0.02288,2.787106 0.130459,0.954242 1.079412,1.666724 2.029679,1.568516 0.412806,0 0.825612,0 1.238417,0 0.658453,0.757631 1.32675,1.508579 1.972106,2.275802 0.710786,0.738399 2.008884,0.611913 2.623156,-0.182896 0.42416,-0.462856 0.445433,-1.104055 0.425828,-1.695152 -0.0017,-2.626331 0.0032,-5.252747 -0.0024,-7.879026 -0.03588,-0.95135 -0.891078,-1.7672667 -1.844399,-1.752916 z"
     id="path3228"
     style="opacity:0.6;fill:#eae3d0;fill-opacity:1;fill-rule:evenodd;stroke:none;stroke-width:1.69999993;marker:none;visibility:visible;display:inline;overflow:visible;enable-background:accumulate" />
  <path
     inkscape:connector-curvature="0"
     d="m 20.148319,10.924096 c -0.281848,0 -0.523142,0.11816 -0.692564,0.317425 l -2.077692,2.452831 c 0,0 -1.846838,0 -1.846838,0 -0.509727,0 -0.923419,0.413692 -0.923419,0.923419 -0.0058,0.919791 0.002,1.860272 0,2.770256 0,0.509727 0.413692,0.923419 0.923419,0.923419 l 1.846838,0 1.991122,2.27969 c 0.158235,0.281568 0.433364,0.490567 0.779134,0.490567 0.509727,0 0.923419,-0.413692 0.923419,-0.923419 l 0,-8.31077 c 0,-0.509727 -0.413692,-0.923418 -0.923419,-0.923418 z"
     id="rect3180"
     style="fill:#ff0000;fill-opacity:1;fill-rule:evenodd;stroke:none;stroke-width:1.69999992999999994;marker:none;visibility:visible;display:inline;overflow:visible;enable-background:accumulate" />
</svg>
