<?xml version="1.0" encoding="UTF-8" standalone="no"?>
<!-- Generator: Adobe Illustrator 12.0.0, SVG Export Plug-In . SVG Version: 6.00 Build 51448)  -->

<svg
   xmlns:ns="http://ns.adobe.com/SaveForWeb/1.0/"
   xmlns:dc="http://purl.org/dc/elements/1.1/"
   xmlns:cc="http://creativecommons.org/ns#"
   xmlns:rdf="http://www.w3.org/1999/02/22-rdf-syntax-ns#"
   xmlns:svg="http://www.w3.org/2000/svg"
   xmlns="http://www.w3.org/2000/svg"
   xmlns:xlink="http://www.w3.org/1999/xlink"
   xmlns:sodipodi="http://sodipodi.sourceforge.net/DTD/sodipodi-0.dtd"
   xmlns:inkscape="http://www.inkscape.org/namespaces/inkscape"
   version="1.1"
   id="Layer_1"
   width="22"
   height="22"
   viewBox="0 0 22 22"
   overflow="visible"
   enable-background="new 0 0 128 128"
   xml:space="preserve"
   sodipodi:version="0.32"
   inkscape:version="0.48.1 r9760"
   sodipodi:docname="irc-remove-operator.svg"
   inkscape:output_extension="org.inkscape.output.svgz.inkscape"
   inkscape:export-filename="/home/pinheiro/pics/oxygen/scalable/actions/irc-operator.png"
   inkscape:export-xdpi="90"
   inkscape:export-ydpi="90"
   style="overflow:visible"><defs
   id="defs105"><linearGradient
     inkscape:collect="always"
     id="linearGradient5365"><stop
       style="stop-color:#ffffff;stop-opacity:1;"
       offset="0"
       id="stop5367" /><stop
       style="stop-color:#ffffff;stop-opacity:0;"
       offset="1"
       id="stop5369" /></linearGradient><linearGradient
     id="linearGradient5347"><stop
       id="stop5349"
       offset="0"
       style="stop-color:#d4d4d4;stop-opacity:1;" /><stop
       style="stop-color:#efefef;stop-opacity:1;"
       offset="0.375"
       id="stop5351" /><stop
       id="stop5353"
       offset="0.375"
       style="stop-color:#c2c2c2;stop-opacity:1;" /><stop
       style="stop-color:#ffffff;stop-opacity:1;"
       offset="0.4375"
       id="stop5355" /><stop
       style="stop-color:#bcbcbc;stop-opacity:1;"
       offset="0.5"
       id="stop5357" /><stop
       id="stop5359"
       offset="0.75"
       style="stop-color:#e9e9e9;stop-opacity:1;" /><stop
       id="stop5361"
       offset="1"
       style="stop-color:#ffffff;stop-opacity:1;" /></linearGradient><linearGradient
     inkscape:collect="always"
     id="linearGradient5096"><stop
       style="stop-color:#ffffff;stop-opacity:1;"
       offset="0"
       id="stop5098" /><stop
       style="stop-color:#ffffff;stop-opacity:0;"
       offset="1"
       id="stop5100" /></linearGradient><linearGradient
     inkscape:collect="always"
     id="linearGradient5008"><stop
       style="stop-color:#ffffff;stop-opacity:1;"
       offset="0"
       id="stop5010" /><stop
       style="stop-color:#ffffff;stop-opacity:0;"
       offset="1"
       id="stop5012" /></linearGradient><linearGradient
     inkscape:collect="always"
     id="linearGradient4843"><stop
       style="stop-color:#ffffff;stop-opacity:1;"
       offset="0"
       id="stop4845" /><stop
       style="stop-color:#ffffff;stop-opacity:0;"
       offset="1"
       id="stop4847" /></linearGradient><linearGradient
     id="linearGradient4750"><stop
       id="stop4752"
       offset="0"
       style="stop-color:#ffffff;stop-opacity:0;" /><stop
       id="stop4754"
       offset="1"
       style="stop-color:#ffffff;stop-opacity:1;" /></linearGradient><linearGradient
     inkscape:collect="always"
     id="linearGradient4724"><stop
       style="stop-color:#ffffff;stop-opacity:1;"
       offset="0"
       id="stop4726" /><stop
       style="stop-color:#ffffff;stop-opacity:0;"
       offset="1"
       id="stop4728" /></linearGradient><linearGradient
     inkscape:collect="always"
     id="linearGradient4191"><stop
       style="stop-color:#ffffff;stop-opacity:1;"
       offset="0"
       id="stop4193" /><stop
       style="stop-color:#ffffff;stop-opacity:0;"
       offset="1"
       id="stop4195" /></linearGradient><linearGradient
     id="linearGradient4100"><stop
       style="stop-color:#d4d4d4;stop-opacity:1;"
       offset="0"
       id="stop4102" /><stop
       id="stop4110"
       offset="0.25"
       style="stop-color:#efefef;stop-opacity:1;" /><stop
       style="stop-color:#c2c2c2;stop-opacity:1;"
       offset="0.375"
       id="stop4114" /><stop
       id="stop4116"
       offset="0.4375"
       style="stop-color:#ffffff;stop-opacity:1;" /><stop
       id="stop4108"
       offset="0.5"
       style="stop-color:#bcbcbc;stop-opacity:1;" /><stop
       style="stop-color:#e9e9e9;stop-opacity:1;"
       offset="0.75"
       id="stop4112" /><stop
       style="stop-color:#ffffff;stop-opacity:1;"
       offset="1"
       id="stop4104" /></linearGradient><linearGradient
     inkscape:collect="always"
     id="linearGradient4018"><stop
       style="stop-color:#ffffff;stop-opacity:1;"
       offset="0"
       id="stop4020" /><stop
       style="stop-color:#ffffff;stop-opacity:0;"
       offset="1"
       id="stop4022" /></linearGradient><linearGradient
     inkscape:collect="always"
     id="linearGradient4007"><stop
       style="stop-color:#000000;stop-opacity:1;"
       offset="0"
       id="stop4009" /><stop
       style="stop-color:#000000;stop-opacity:0;"
       offset="1"
       id="stop4011" /></linearGradient><linearGradient
     id="linearGradient3995"><stop
       style="stop-color:#000000;stop-opacity:1;"
       offset="0"
       id="stop3997" /><stop
       id="stop4003"
       offset="0.5"
       style="stop-color:#474747;stop-opacity:1;" /><stop
       style="stop-color:#000000;stop-opacity:1;"
       offset="1"
       id="stop3999" /></linearGradient><filter
     inkscape:collect="always"
     id="filter4163"
     color-interpolation-filters="sRGB"><feGaussianBlur
       inkscape:collect="always"
       stdDeviation="1.8240291"
       id="feGaussianBlur4165" /></filter><clipPath
     clipPathUnits="userSpaceOnUse"
     id="clipPath4167"><path
       sodipodi:type="star"
       style="fill:url(#radialGradient4171);fill-opacity:1;stroke:none"
       id="path4169"
       sodipodi:sides="6"
       sodipodi:cx="-45.254833"
       sodipodi:cy="37.843887"
       sodipodi:r1="51.655106"
       sodipodi:r2="29.726227"
       sodipodi:arg1="0.78539816"
       sodipodi:arg2="1.3089969"
       inkscape:flatsided="false"
       inkscape:rounded="0"
       inkscape:randomized="0"
       d="m -8.7291577,74.369563 -28.8319603,-7.812346 -21.06304,21.181671 -7.650291,-28.875383 -28.875385,-7.650292 21.18167,-21.063038 -7.812345,-28.831963 28.831961,7.8123454 21.06304,-21.1816704 7.650291,28.875383 L 4.6401673,24.474562 -16.541503,45.5376 z"
       transform="matrix(0.9660871,-0.2582163,0.2582163,0.9660871,342.19336,-10.251451)" /></clipPath><radialGradient
     inkscape:collect="always"
     xlink:href="#linearGradient4100"
     id="radialGradient4171"
     gradientUnits="userSpaceOnUse"
     cx="-50.797588"
     cy="43.090588"
     fx="-36.134892"
     fy="28.895321"
     r="49.895" /><filter
     inkscape:collect="always"
     id="filter4223"
     color-interpolation-filters="sRGB"><feGaussianBlur
       inkscape:collect="always"
       stdDeviation="0.23593649"
       id="feGaussianBlur4225" /></filter><filter
     inkscape:collect="always"
     id="filter4257"
     color-interpolation-filters="sRGB"><feGaussianBlur
       inkscape:collect="always"
       stdDeviation="0.99610806"
       id="feGaussianBlur4259" /></filter><clipPath
     clipPathUnits="userSpaceOnUse"
     id="clipPath4261"><path
       style="fill:url(#linearGradient4265);fill-opacity:1;stroke:none"
       d="m 325.20361,129.15207 c -0.57964,0.16198 -1.07024,0.54941 -1.36217,1.07572 l -14.24382,24.76794 -28.55633,-0.0984 c -0.80092,0.002 -1.54016,0.43051 -1.94106,1.12389 -0.4009,0.69337 -0.40302,1.54758 -0.006,2.24294 l 14.33255,24.69923 -14.38878,24.70964 c -0.3938,0.69748 -0.38716,1.55172 0.0175,2.24299 0.4046,0.69128 1.14616,1.11537 1.94714,1.11355 l 28.57636,-0.0687 14.16755,24.80802 c 0.40197,0.70191 1.14974,1.13407 1.9586,1.13194 0.80887,-0.002 1.55436,-0.43822 1.95263,-1.14224 l 14.24381,-24.76793 28.55633,0.0984 c 0.80093,-0.002 1.54017,-0.43051 1.94106,-1.12388 0.4009,-0.69338 0.40303,-1.54759 0.006,-2.24295 l -14.34061,-24.72941 14.36666,-24.67139 c 0.39527,-0.69332 0.39372,-1.54415 -0.004,-2.23604 -0.39778,-0.69189 -1.13229,-1.12131 -1.93034,-1.12857 l -28.57636,0.0687 -14.19774,-24.79995 c -0.50027,-0.88626 -1.5331,-1.32644 -2.51887,-1.0735 z m 0.56346,6.70696 12.91013,22.524 c 0.40163,0.69816 1.14579,1.12842 1.95123,1.12817 l 25.9615,-0.0491 -13.06152,22.41407 c -0.41102,0.6988 -0.41437,1.56468 -0.009,2.26663 l 13.01476,22.43134 -25.9334,-0.0878 c -0.81071,-0.001 -1.55945,0.43361 -1.96,1.13846 l -12.90848,22.50256 -12.91014,-22.524 c -0.40163,-0.69816 -1.14578,-1.12842 -1.95123,-1.12816 l -25.9615,0.0491 13.06152,-22.41407 c 0.41103,-0.6988 0.41437,-1.56467 0.009,-2.26663 l -13.01476,-22.43134 25.9334,0.0878 c 0.81072,0.001 1.55945,-0.43361 1.96,-1.13846 l 12.90849,-22.50256 z"
       id="path4263"
       inkscape:connector-curvature="0" /></clipPath><linearGradient
     inkscape:collect="always"
     xlink:href="#linearGradient4100"
     id="linearGradient4265"
     gradientUnits="userSpaceOnUse"
     gradientTransform="matrix(0.9660871,-0.2582163,0.2582163,0.9660871,359.69336,134.74855)"
     x1="-96.299835"
     y1="37.843887"
     x2="5.7901673"
     y2="37.843887" /><filter
     inkscape:collect="always"
     id="filter4296"
     color-interpolation-filters="sRGB"><feGaussianBlur
       inkscape:collect="always"
       stdDeviation="2.449008"
       id="feGaussianBlur4298" /></filter><filter
     inkscape:collect="always"
     id="filter4386"
     color-interpolation-filters="sRGB"><feGaussianBlur
       inkscape:collect="always"
       stdDeviation="3.073754"
       id="feGaussianBlur4388" /></filter><clipPath
     clipPathUnits="userSpaceOnUse"
     id="clipPath4390"><path
       sodipodi:nodetypes="ccccccz"
       id="path4392"
       d="m 237.94826,12.792894 c -41.01146,0 -39.58526,45.494953 -41.03442,72.553619 l -14.57019,11.596685 c 16.09597,2.523309 40.63983,7.099002 55.60461,15.759602 14.96479,-8.6606 39.50864,-13.236293 55.60462,-15.759602 l -14.5702,-11.596685 c -1.44916,-27.058666 0.27433,-72.553619 -41.03442,-72.553619 z"
       style="fill:url(#linearGradient4394);fill-opacity:1;fill-rule:evenodd;stroke:none"
       inkscape:connector-curvature="0" /></clipPath><linearGradient
     inkscape:collect="always"
     xlink:href="#linearGradient3995"
     id="linearGradient4394"
     gradientUnits="userSpaceOnUse"
     gradientTransform="matrix(1.1894036,0,0,1.1894036,161.82643,-12.935961)"
     x1="17.25"
     y1="63.631729"
     x2="110.75"
     y2="63.631729" /><filter
     inkscape:collect="always"
     id="filter4444"
     color-interpolation-filters="sRGB"><feGaussianBlur
       inkscape:collect="always"
       stdDeviation="0.96888256"
       id="feGaussianBlur4446" /></filter><filter
     inkscape:collect="always"
     id="filter4782"
     color-interpolation-filters="sRGB"><feGaussianBlur
       inkscape:collect="always"
       stdDeviation="0.61592945"
       id="feGaussianBlur4784" /></filter><filter
     inkscape:collect="always"
     id="filter4837"
     color-interpolation-filters="sRGB"><feGaussianBlur
       inkscape:collect="always"
       stdDeviation="2.3152306"
       id="feGaussianBlur4839" /></filter><clipPath
     clipPathUnits="userSpaceOnUse"
     id="clipPath4853"><path
       id="path4855"
       d="m -43.84375,12.78125 c -34.876054,0 -39.043078,32.890168 -40.40625,59.375 2.818379,9.905203 18.201203,18.53125 40.40625,18.53125 21.91832,0 39.7928483,-8.061997 40.46875,-18.125 C -4.6592178,46.009552 -8.5361262,12.78125 -43.84375,12.78125 z"
       style="fill:url(#linearGradient4857);fill-opacity:1;fill-rule:evenodd;stroke:none"
       inkscape:connector-curvature="0" /></clipPath><linearGradient
     inkscape:collect="always"
     xlink:href="#XMLID_10_"
     id="linearGradient4857"
     gradientUnits="userSpaceOnUse"
     gradientTransform="matrix(1.1894036,0,0,1.1894036,-119.95735,-12.935961)"
     spreadMethod="reflect"
     x1="63.019474"
     y1="63.631729"
     x2="110.75"
     y2="63.631729" /><filter
     inkscape:collect="always"
     id="filter4975"
     x="-0.13420406"
     width="1.2684081"
     y="-0.40261221"
     height="1.8052244"
     color-interpolation-filters="sRGB"><feGaussianBlur
       inkscape:collect="always"
       stdDeviation="0.86000045"
       id="feGaussianBlur4977" /></filter><filter
     inkscape:collect="always"
     id="filter5092"
     color-interpolation-filters="sRGB"><feGaussianBlur
       inkscape:collect="always"
       stdDeviation="1.4563107"
       id="feGaussianBlur5094" /></filter><filter
     inkscape:collect="always"
     id="filter5142"
     x="-0.032771327"
     width="1.0655427"
     y="-0.13099864"
     height="1.2619973"
     color-interpolation-filters="sRGB"><feGaussianBlur
       inkscape:collect="always"
       stdDeviation="1.7248441"
       id="feGaussianBlur5144" /></filter><filter
     inkscape:collect="always"
     id="filter5278"
     x="-0.029810084"
     width="1.0596201"
     y="-0.10770797"
     height="1.215416"
     color-interpolation-filters="sRGB"><feGaussianBlur
       inkscape:collect="always"
       stdDeviation="0.19213531"
       id="feGaussianBlur5280" /></filter><filter
     inkscape:collect="always"
     id="filter5302"
     color-interpolation-filters="sRGB"><feGaussianBlur
       inkscape:collect="always"
       stdDeviation="0.34422264"
       id="feGaussianBlur5304" /></filter><filter
     inkscape:collect="always"
     id="filter5330"
     color-interpolation-filters="sRGB"><feGaussianBlur
       inkscape:collect="always"
       stdDeviation="0.9700309"
       id="feGaussianBlur5332" /></filter><radialGradient
     inkscape:collect="always"
     xlink:href="#linearGradient5347"
     id="radialGradient3480"
     gradientUnits="userSpaceOnUse"
     gradientTransform="matrix(0.9883519,-0.5910623,0.03914307,0.07025519,-42.208589,107.07043)"
     spreadMethod="reflect"
     cx="-63.958065"
     cy="141.04259"
     fx="-63.958065"
     fy="141.04259"
     r="49.895" /><linearGradient
     inkscape:collect="always"
     xlink:href="#linearGradient5008"
     id="linearGradient3482"
     gradientUnits="userSpaceOnUse"
     gradientTransform="translate(-2,-6)"
     x1="-36.614799"
     y1="43.01379"
     x2="67.964081"
     y2="54.51379" /><linearGradient
     inkscape:collect="always"
     xlink:href="#linearGradient5365"
     id="linearGradient3490"
     gradientUnits="userSpaceOnUse"
     x1="-42.397148"
     y1="92.07605"
     x2="-24.035822"
     y2="23.379185" /><linearGradient
     inkscape:collect="always"
     xlink:href="#linearGradient4100"
     id="linearGradient3492"
     gradientUnits="userSpaceOnUse"
     gradientTransform="matrix(0.9660871,-0.2582163,0.2582163,0.9660871,359.69336,-9.951451)"
     x1="-96.299835"
     y1="37.843887"
     x2="5.7901673"
     y2="37.843887" /><radialGradient
     inkscape:collect="always"
     xlink:href="#linearGradient4191"
     id="radialGradient3494"
     gradientUnits="userSpaceOnUse"
     gradientTransform="matrix(3.066654,-0.00191343,6.2394779e-4,0.9999998,107.85978,-0.09986383)"
     cx="-52.19109"
     cy="1.8315512"
     fx="-52.19109"
     fy="1.8315512"
     r="50.295002" /><linearGradient
     inkscape:collect="always"
     xlink:href="#linearGradient4018"
     id="linearGradient3496"
     gradientUnits="userSpaceOnUse"
     gradientTransform="matrix(1.118215,0,0,1.118215,-14.86051,-17.58482)"
     x1="84.992157"
     y1="19.547363"
     x2="84.992157"
     y2="55.912415" /><linearGradient
     inkscape:collect="always"
     xlink:href="#linearGradient4843"
     id="linearGradient3504"
     gradientUnits="userSpaceOnUse"
     x1="-31.433815"
     y1="7.1176219"
     x2="-31.433815"
     y2="56.000824" /><linearGradient
     inkscape:collect="always"
     xlink:href="#linearGradient5008"
     id="linearGradient3506"
     gradientUnits="userSpaceOnUse"
     x1="111.15335"
     y1="98.9562"
     x2="71.409927"
     y2="87.111557" /><linearGradient
     inkscape:collect="always"
     xlink:href="#linearGradient5096"
     id="linearGradient3508"
     gradientUnits="userSpaceOnUse"
     x1="143.71373"
     y1="72.980972"
     x2="79.696701"
     y2="33.382992" /><linearGradient
     inkscape:collect="always"
     xlink:href="#XMLID_10_"
     id="linearGradient3510"
     gradientUnits="userSpaceOnUse"
     gradientTransform="matrix(0.2277333,0,0,0.2206027,49.46594,-1.2024408)"
     spreadMethod="reflect"
     x1="63.019474"
     y1="63.631729"
     x2="110.75"
     y2="63.631729" /><linearGradient
     inkscape:collect="always"
     xlink:href="#XMLID_10_"
     id="linearGradient3518"
     gradientUnits="userSpaceOnUse"
     gradientTransform="matrix(0.03958489,0,0,0.03834543,8.4653808,-0.24559752)"
     spreadMethod="reflect"
     x1="63.019474"
     y1="63.631729"
     x2="110.75"
     y2="63.631729" /><radialGradient
     inkscape:collect="always"
     xlink:href="#linearGradient4750"
     id="radialGradient3522"
     gradientUnits="userSpaceOnUse"
     gradientTransform="matrix(0.22070645,-4.3021229e-8,2.4416903e-8,0.11754153,-23.048468,1.4395382)"
     cx="154.86336"
     cy="159.98668"
     fx="154.86336"
     fy="159.98668"
     r="55.59375" /><radialGradient
     inkscape:collect="always"
     xlink:href="#linearGradient4018"
     id="radialGradient3525"
     gradientUnits="userSpaceOnUse"
     gradientTransform="matrix(0.18564386,0,0,0.02532929,-17.618557,16.192261)"
     cx="154.86336"
     cy="159.98668"
     fx="154.86336"
     fy="159.98668"
     r="55.59375" /><linearGradient
     inkscape:collect="always"
     xlink:href="#XMLID_10_"
     id="linearGradient3547"
     gradientUnits="userSpaceOnUse"
     gradientTransform="matrix(0.22734786,0,0,0.06129996,-3.5506835,9.7545836)"
     spreadMethod="reflect"
     x1="65.725594"
     y1="82"
     x2="129.6512"
     y2="82" /><linearGradient
     inkscape:collect="always"
     xlink:href="#XMLID_10_"
     id="linearGradient3550"
     gradientUnits="userSpaceOnUse"
     gradientTransform="matrix(0.22734786,0,0,0.21389179,-3.5506835,-2.4233403)"
     spreadMethod="reflect"
     x1="65.725594"
     y1="82"
     x2="97.75"
     y2="82" /><linearGradient
     inkscape:collect="always"
     xlink:href="#linearGradient4007"
     id="linearGradient3553"
     gradientUnits="userSpaceOnUse"
     gradientTransform="matrix(0.22080547,0,0,0.21389179,-3.131971,-2.2629214)"
     x1="57"
     y1="81.258553"
     x2="57"
     y2="84.891571" /><linearGradient
     inkscape:collect="always"
     xlink:href="#linearGradient4007"
     id="linearGradient3556"
     gradientUnits="userSpaceOnUse"
     gradientTransform="matrix(0.22080547,0,0,0.21389179,-3.131971,-2.2629214)"
     x1="57"
     y1="105.63327"
     x2="57"
     y2="85.334412" /><linearGradient
     inkscape:collect="always"
     xlink:href="#linearGradient3995"
     id="linearGradient3560"
     gradientUnits="userSpaceOnUse"
     gradientTransform="matrix(0.22080547,0,0,0.21389179,-3.131971,-2.2629214)"
     x1="17.25"
     y1="63.631729"
     x2="110.75"
     y2="63.631729" /><radialGradient
     inkscape:collect="always"
     xlink:href="#linearGradient4724"
     id="radialGradient3563"
     gradientUnits="userSpaceOnUse"
     gradientTransform="matrix(0.11200774,-0.00257441,0.00459286,0.18750853,3.3691772,-0.63791844)"
     cx="63.658714"
     cy="112.3581"
     fx="63.658714"
     fy="112.3581"
     r="3.375" /><linearGradient
     inkscape:collect="always"
     xlink:href="#linearGradient3995"
     id="linearGradient3566"
     gradientUnits="userSpaceOnUse"
     gradientTransform="matrix(0.22080547,0,0,0.21389179,-3.131971,-2.2629214)"
     x1="9.900301"
     y1="95.971809"
     x2="107.89148"
     y2="95.971809" /><linearGradient
     id="linearGradient2401"
     y2="27.495"
     gradientUnits="userSpaceOnUse"
     x2="23.878"
     gradientTransform="matrix(0.89889,0,0,0.89347,-10.464,-9.566)"
     y1="18.535"
     x1="23.878"><stop
       id="stop3713"
       style="stop-color:#e35d4f"
       offset="0" /><stop
       id="stop3715"
       style="stop-color:#c6262e"
       offset="1" /></linearGradient><linearGradient
     id="linearGradient2398"
     y2="45.69"
     gradientUnits="userSpaceOnUse"
     x2="24.139"
     gradientTransform="matrix(0.53994,0,0,0.53668,-1.8489,-1.5062)"
     y1="6.5317"
     x1="24.139"><stop
       id="stop4224"
       style="stop-color:#fff"
       offset="0" /><stop
       id="stop4226"
       style="stop-color:#fff;stop-opacity:0"
       offset="1" /></linearGradient></defs><sodipodi:namedview
   inkscape:window-height="688"
   inkscape:window-width="1366"
   inkscape:pageshadow="2"
   inkscape:pageopacity="0.0"
   guidetolerance="10.0"
   gridtolerance="10.0"
   objecttolerance="10.0"
   borderopacity="1.0"
   bordercolor="#666666"
   pagecolor="#ffffff"
   id="base"
   inkscape:zoom="16"
   inkscape:cx="17.995389"
   inkscape:cy="7.9878493"
   inkscape:window-x="0"
   inkscape:window-y="25"
   inkscape:current-layer="Layer_1"
   showgrid="false"
   showguides="true"
   inkscape:guide-bbox="true"
   inkscape:window-maximized="1"><inkscape:grid
     id="GridFromPre046Settings"
     type="xygrid"
     originx="0px"
     originy="0px"
     spacingx="4px"
     spacingy="4px"
     color="#0000ff"
     empcolor="#0000ff"
     opacity="0.2"
     empopacity="0.4"
     empspacing="2"
     visible="true"
     enabled="true"
     snapvisiblegridlinesonly="true" /><sodipodi:guide
     orientation="1,0"
     position="-102.53048,86.267025"
     id="guide3081" /><sodipodi:guide
     orientation="0,1"
     position="104.5,65"
     id="guide4032" /></sodipodi:namedview>
<metadata
   id="metadata3">
	<ns:sfw>
		<ns:slices>
			<ns:slice
   y="0"
   x="0"
   height="128"
   width="128"
   sliceID="1316743234" />
		</ns:slices>
		<ns:sliceSourceBounds
   y="0"
   x="0"
   height="128"
   width="128"
   bottomLeftOrigin="true" />
		<ns:optimizationSettings>
			<ns:targetSettings
   targetSettingsID="0"
   fileFormat="PNG24Format">
				<ns:PNG24Format
   transparency="true"
   filtered="false"
   matteColor="#FFFFFF"
   noMatteColor="false"
   interlaced="false">
					</ns:PNG24Format>
			</ns:targetSettings>
			<ns:targetSettings
   targetSettingsID="1696735251"
   fileFormat="PNG24Format">
				<ns:PNG24Format
   transparency="true"
   filtered="false"
   matteColor="#FFFFFF"
   noMatteColor="false"
   interlaced="false">
					</ns:PNG24Format>
			</ns:targetSettings>
		</ns:optimizationSettings>
	</ns:sfw>
<rdf:RDF><cc:Work
     rdf:about=""><dc:format>image/svg+xml</dc:format><dc:type
       rdf:resource="http://purl.org/dc/dcmitype/StillImage" /><dc:title></dc:title></cc:Work></rdf:RDF></metadata>

<radialGradient
   id="XMLID_7_"
   cx="102"
   cy="112.3047"
   r="139.5585"
   gradientUnits="userSpaceOnUse">
	<stop
   offset="0"
   style="stop-color:#00537D"
   id="stop16" />
	<stop
   offset="0.0151"
   style="stop-color:#186389"
   id="stop18" />
	<stop
   offset="0.0558"
   style="stop-color:#558CA8"
   id="stop20" />
	<stop
   offset="0.0964"
   style="stop-color:#89AFC3"
   id="stop22" />
	<stop
   offset="0.1357"
   style="stop-color:#B3CCD8"
   id="stop24" />
	<stop
   offset="0.1737"
   style="stop-color:#D4E2E9"
   id="stop26" />
	<stop
   offset="0.2099"
   style="stop-color:#ECF2F5"
   id="stop28" />
	<stop
   offset="0.2435"
   style="stop-color:#FAFCFD"
   id="stop30" />
	<stop
   offset="0.2722"
   style="stop-color:#FFFFFF"
   id="stop32" />
</radialGradient>

<radialGradient
   id="XMLID_8_"
   cx="102"
   cy="112.3047"
   r="139.55859"
   gradientUnits="userSpaceOnUse">
	<stop
   offset="0"
   style="stop-color:#535557"
   id="stop37" />
	
	<stop
   offset="0.11366145"
   style="stop-color:#898A8C"
   id="stop41" />
	
	
	<stop
   offset="0.20296688"
   style="stop-color:#ECECEC"
   id="stop47" />
	<stop
   offset="0.2363"
   style="stop-color:#FAFAFA"
   id="stop49" />
	<stop
   offset="0.2722"
   style="stop-color:#FFFFFF"
   id="stop51" />
	<stop
   offset="0.5313"
   style="stop-color:#FAFAFA"
   id="stop53" />
	<stop
   offset="0.8449"
   style="stop-color:#EBECEC"
   id="stop55" />
	<stop
   offset="1"
   style="stop-color:#E1E2E3"
   id="stop57" />
</radialGradient>

<linearGradient
   id="XMLID_9_"
   gradientUnits="userSpaceOnUse"
   x1="94.343803"
   y1="102.3447"
   x2="86.535599"
   y2="94.536598">
	<stop
   offset="0"
   style="stop-color:#FFFFFF"
   id="stop62" />
	<stop
   offset="1"
   style="stop-color:#555753"
   id="stop64" />
</linearGradient>

<linearGradient
   id="XMLID_10_"
   gradientUnits="userSpaceOnUse"
   x1="95"
   y1="103"
   x2="86.586502"
   y2="94.586502">
	<stop
   offset="0"
   style="stop-color:#FFFFFF"
   id="stop69" />
	<stop
   offset="1"
   style="stop-color:#555753"
   id="stop71" />
</linearGradient>

<linearGradient
   id="XMLID_11_"
   gradientUnits="userSpaceOnUse"
   x1="95"
   y1="103"
   x2="87.292999"
   y2="95.292999">
	<stop
   offset="0"
   style="stop-color:#ffffff;stop-opacity:0"
   id="stop76" />
	<stop
   offset="1"
   style="stop-color:#595c57;stop-opacity:1;"
   id="stop78" />
</linearGradient>

<linearGradient
   id="XMLID_12_"
   gradientUnits="userSpaceOnUse"
   x1="96"
   y1="104"
   x2="88.000198"
   y2="96.000198">
	<stop
   offset="0"
   style="stop-color:#888A85"
   id="stop83" />
	<stop
   offset="0.0072"
   style="stop-color:#8C8E89"
   id="stop85" />
	<stop
   offset="0.0673"
   style="stop-color:#ABACA9"
   id="stop87" />
	<stop
   offset="0.1347"
   style="stop-color:#C5C6C4"
   id="stop89" />
	<stop
   offset="0.2115"
   style="stop-color:#DBDBDA"
   id="stop91" />
	<stop
   offset="0.3012"
   style="stop-color:#EBEBEB"
   id="stop93" />
	<stop
   offset="0.4122"
   style="stop-color:#F7F7F6"
   id="stop95" />
	<stop
   offset="0.5679"
   style="stop-color:#FDFDFD"
   id="stop97" />
	<stop
   offset="1"
   style="stop-color:#FFFFFF"
   id="stop99" />
</linearGradient>


<path
   inkscape:connector-curvature="0"
   style="fill:#000000;fill-opacity:1;fill-rule:evenodd;stroke:none;filter:url(#filter5142)"
   d="m 17.393405,99.360317 -16.55046085,6.060983 0.00185,2.19839 c 17.62232485,2.6761 44.16010885,7.10831 61.27467685,16.32568 0.849467,0.46097 3.054516,0.39491 3.868836,-0.0561 17.118056,-8.83938 43.581123,-13.59914 61.166303,-16.2696 l 0.007,-2.17674 -16.55549,-6.082633 -93.212585,0 z"
   id="path5104"
   sodipodi:nodetypes="ccccccccc"
   transform="matrix(0.16344978,0,0,0.16344978,0.53884189,0.4294672)" /><path
   inkscape:connector-curvature="0"
   sodipodi:nodetypes="ccccccccc"
   id="path4711"
   d="m 3.3817901,15.411326 -2.70516917,2.08578 3.0238e-4,0.359326 c 2.88036509,0.437408 7.21796009,1.161852 10.01533269,2.668429 0.138845,0.07534 0.49926,0.06455 0.63236,-0.0092 2.797943,-1.444794 7.123325,-2.222776 9.997619,-2.659262 l 0.0011,-0.355788 -2.705991,-2.089318 -15.2355766,0 z"
   style="fill:url(#linearGradient3566);fill-opacity:1;fill-rule:evenodd;stroke:none" /><path
   inkscape:connector-curvature="0"
   style="fill:url(#radialGradient3563);fill-opacity:1;fill-rule:evenodd;stroke:none"
   d="m 10.436846,19.957185 0,0.438338 c 0.08518,0.04312 0.172684,0.08478 0.25526,0.129255 0.138846,0.07534 0.499249,0.06247 0.632349,-0.01125 0.118341,-0.06111 0.241906,-0.115464 0.365487,-0.174211 l 0,-0.382141 -1.253096,0 z"
   id="path4717" /><path
   inkscape:connector-curvature="0"
   style="fill:url(#linearGradient3560);fill-opacity:1;fill-rule:evenodd;stroke:none"
   d="m 10.999579,2.3639274 c -7.6135271,0 -7.3487602,8.1814086 -7.6177889,13.0473986 L 0.67692336,17.496771 C 3.5824569,17.937998 7.9707978,18.728188 10.76523,20.20338 c 0.209014,0.06071 0.278687,0.03922 0.467293,8.17e-4 2.794367,-1.475666 7.183691,-2.26605 10.089712,-2.707351 l -2.704868,-2.08552 C 18.34834,10.545336 18.668294,2.3639274 10.999579,2.3639274 z"
   id="path3083"
   sodipodi:nodetypes="cccccccz" /><path
   inkscape:connector-curvature="0"
   style="opacity:0.72277228;fill:#ffffff;fill-opacity:1;fill-rule:evenodd;stroke:none;filter:url(#filter4782)"
   d="m 97.050403,83.629051 10.076267,7.778174 C 93.419927,93.474526 80.898215,97.319374 68.589356,101.4835 78.490731,95.611806 90.594905,92.717883 102.08854,90.258177 l -5.038137,-6.629126 z"
   id="path3897"
   sodipodi:nodetypes="ccccc"
   transform="matrix(0.22080547,0,0,0.21389179,-3.131971,-2.2629214)" /><path
   inkscape:connector-curvature="0"
   sodipodi:nodetypes="ccccccc"
   id="path4005"
   d="m 3.3817901,15.411326 -2.70486674,2.085445 c 2.90358624,0.440933 7.28799284,1.23036 10.08268664,2.703644 0.183914,0.05847 0.29568,0.05602 0.476237,0.0019 2.794523,-1.47454 7.181519,-2.264471 10.086388,-2.705598 l -2.704868,-2.085444 -15.2355769,0 z"
   style="fill:url(#linearGradient3556);fill-opacity:1;fill-rule:evenodd;stroke:none" /><path
   inkscape:connector-curvature="0"
   style="fill:url(#linearGradient3553);fill-opacity:1;fill-rule:evenodd;stroke:none"
   d="m 3.3817901,15.411326 -2.70486674,2.085445 c 2.90229694,0.440737 7.28409934,1.22966 10.07896264,2.701682 0.114154,0.06292 0.379954,0.05636 0.478458,0.0047 2.794453,-1.475048 7.182501,-2.265185 10.087891,-2.70639 l -2.704868,-2.085445 -15.2355769,0 z"
   id="path4315"
   sodipodi:nodetypes="ccccccc" /><path
   inkscape:connector-curvature="0"
   style="fill:url(#linearGradient3550);fill-opacity:1;stroke:none"
   d="m 3.4093909,14.848421 c -0.00825,0.173725 -0.018477,0.368229 -0.027601,0.534729 l 15.2355769,0 c -0.0091,-0.1665 -0.01948,-0.361004 -0.0276,-0.534729 l -15.1803751,0 z"
   id="rect3094" /><path
   inkscape:connector-curvature="0"
   id="path4311"
   d="m 3.4093909,14.704556 c -0.00825,0.04979 -0.018477,0.105532 -0.027601,0.15325 l 15.2355769,0 c -0.0091,-0.04772 -0.01948,-0.103461 -0.0276,-0.15325 l -15.1803751,0 z"
   style="fill:url(#linearGradient3547);fill-opacity:1;stroke:none" /><path
   transform="matrix(0.0790585,-0.02046916,0.02113079,0.0765831,13.717612,6.7761367)"
   d="m -8.7291577,74.369563 -28.8319603,-7.812346 -21.06304,21.181671 -7.650291,-28.875383 -28.875385,-7.650292 21.18167,-21.063038 -7.812345,-28.831963 28.831961,7.8123454 21.06304,-21.1816704 7.650291,28.875383 L 4.6401673,24.474562 -16.541503,45.5376 z"
   inkscape:randomized="0"
   inkscape:rounded="0"
   inkscape:flatsided="false"
   sodipodi:arg2="1.3089969"
   sodipodi:arg1="0.78539816"
   sodipodi:r2="29.726227"
   sodipodi:r1="51.655106"
   sodipodi:cy="37.843887"
   sodipodi:cx="-45.254833"
   sodipodi:sides="6"
   id="use4030"
   style="fill:url(#radialGradient3480);fill-opacity:1;stroke:none"
   sodipodi:type="star" /><path
   inkscape:connector-curvature="0"
   style="opacity:0.27227723;fill:url(#linearGradient3482);fill-opacity:1;fill-rule:evenodd;stroke:none;filter:url(#filter5330)"
   d="M 54.625,17.5 C 18.496561,29.579182 24.181554,77.284737 22.375,88 L 45.5,87.625 c 0.293323,-19.433976 0.614525,-43.977976 18,-60.125 5.058259,-4.697935 -0.280232,-12.873575 -8.875,-10 z"
   id="path5032"
   sodipodi:nodetypes="cccss"
   transform="matrix(0.16344978,0,0,0.16344978,0.53884189,0.4294672)" /><path
   sodipodi:type="star"
   style="fill:url(#linearGradient3490);fill-opacity:1;stroke:none"
   id="path5363"
   sodipodi:sides="6"
   sodipodi:cx="-45.254833"
   sodipodi:cy="37.843887"
   sodipodi:r1="51.655106"
   sodipodi:r2="29.726227"
   sodipodi:arg1="0.78539816"
   sodipodi:arg2="1.3089969"
   inkscape:flatsided="false"
   inkscape:rounded="0"
   inkscape:randomized="0"
   d="m -8.7291577,74.369563 -28.8319603,-7.812346 -21.06304,21.181671 -7.650291,-28.875383 -28.875385,-7.650292 21.18167,-21.063038 -7.812345,-28.831963 28.831961,7.8123454 21.06304,-21.1816704 7.650291,28.875383 L 4.6401673,24.474562 -16.541503,45.5376 z"
   transform="matrix(0.0790585,-0.02046916,0.02113079,0.0765831,13.717612,6.7761367)" /><path
   inkscape:connector-curvature="0"
   style="fill:#000000;fill-opacity:1;stroke:none;filter:url(#filter4163)"
   d="m 308.28125,-14.65625 -14.875,25.90625 -29.875,-0.125 1.75,3 28.125,0.125 14.875,-25.90625 14.84375,25.90625 28.125,-0.0625 1.75,-3 -29.875,0.0625 -14.84375,-25.90625 z m -30.625,53.125 -14.15625,24.3125 1.75,0 13.28125,-22.8125 -0.875,-1.5 z m 61.1875,0.03125 -0.875,1.5 13.25,22.84375 1.75,0 L 338.84375,38.5 z"
   id="path4118"
   clip-path="url(#clipPath4167)"
   transform="matrix(0.08183375,0,0,0.07927144,-14.285352,7.5887836)" /><g
   id="g4300"
   transform="matrix(0.08183375,0,0,0.07927144,-15.723843,7.5887836)"><path
     inkscape:connector-curvature="0"
     style="fill:#000000;fill-opacity:1;stroke:none;filter:url(#filter4296)"
     d="m 325.20361,-15.547928 c -0.57964,0.161978 -1.07024,0.549407 -1.36217,1.075717 l -14.24382,24.767936 -28.55633,-0.09838 c -0.80092,0.0025 -1.54016,0.430509 -1.94106,1.123886 -0.4009,0.693377 -0.40302,1.547585 -0.006,2.242948 L 293.42678,38.263402 279.038,62.973044 c -0.3938,0.697485 -0.38716,1.551723 0.0175,2.242996 0.4046,0.691273 1.14616,1.115363 1.94714,1.113545 l 28.57636,-0.06871 14.16755,24.808019 c 0.40197,0.701913 1.14974,1.134077 1.9586,1.131948 0.80887,-0.0021 1.55436,-0.438222 1.95263,-1.142242 l 14.24381,-24.767936 28.55633,0.09838 c 0.80093,-0.0025 1.54017,-0.43051 1.94106,-1.123886 0.4009,-0.693377 0.40303,-1.547585 0.006,-2.242949 L 358.06432,38.292794 372.43098,13.621411 c 0.39527,-0.693327 0.39372,-1.544151 -0.004,-2.23604 -0.39778,-0.691889 -1.13229,-1.121315 -1.93034,-1.12857 l -28.57636,0.06871 -14.19774,-24.799949 c -0.50027,-0.886261 -1.5331,-1.326434 -2.51887,-1.073493 z m 0.56346,6.7069588 12.91013,22.5239962 c 0.40163,0.698167 1.14579,1.128427 1.95123,1.128169 l 25.9615,-0.0491 -13.06152,22.414073 c -0.41102,0.6988 -0.41437,1.564674 -0.009,2.266632 l 13.01476,22.431338 -25.9334,-0.0878 c -0.81071,-0.0013 -1.55945,0.433607 -1.96,1.138462 L 325.73252,85.42736 312.82238,62.903364 c -0.40163,-0.698167 -1.14578,-1.128427 -1.95123,-1.128169 l -25.9615,0.0491 13.06152,-22.414074 c 0.41103,-0.698799 0.41437,-1.564674 0.009,-2.266631 l -13.01476,-22.431339 25.9334,0.0878 c 0.81072,0.0013 1.55945,-0.433607 1.96,-1.138463 L 325.7673,-8.8409692 z"
     id="path4282" /><path
     inkscape:connector-curvature="0"
     id="path4173"
     d="m 325.20361,-15.547928 c -0.57964,0.161978 -1.07024,0.549407 -1.36217,1.075717 l -14.24382,24.767936 -28.55633,-0.09838 c -0.80092,0.0025 -1.54016,0.430509 -1.94106,1.123886 -0.4009,0.693377 -0.40302,1.547585 -0.006,2.242948 L 293.42678,38.263402 279.038,62.973044 c -0.3938,0.697485 -0.38716,1.551723 0.0175,2.242996 0.4046,0.691273 1.14616,1.115363 1.94714,1.113545 l 28.57636,-0.06871 14.16755,24.808019 c 0.40197,0.701913 1.14974,1.134077 1.9586,1.131948 0.80887,-0.0021 1.55436,-0.438222 1.95263,-1.142242 l 14.24381,-24.767936 28.55633,0.09838 c 0.80093,-0.0025 1.54017,-0.43051 1.94106,-1.123886 0.4009,-0.693377 0.40303,-1.547585 0.006,-2.242949 L 358.06432,38.292794 372.43098,13.621411 c 0.39527,-0.693327 0.39372,-1.544151 -0.004,-2.23604 -0.39778,-0.691889 -1.13229,-1.121315 -1.93034,-1.12857 l -28.57636,0.06871 -14.19774,-24.799949 c -0.50027,-0.886261 -1.5331,-1.326434 -2.51887,-1.073493 z m 0.56346,6.7069588 12.91013,22.5239962 c 0.40163,0.698167 1.14579,1.128427 1.95123,1.128169 l 25.9615,-0.0491 -13.06152,22.414073 c -0.41102,0.6988 -0.41437,1.564674 -0.009,2.266632 l 13.01476,22.431338 -25.9334,-0.0878 c -0.81071,-0.0013 -1.55945,0.433607 -1.96,1.138462 L 325.73252,85.42736 312.82238,62.903364 c -0.40163,-0.698167 -1.14578,-1.128427 -1.95123,-1.128169 l -25.9615,0.0491 13.06152,-22.414074 c 0.41103,-0.698799 0.41437,-1.564674 0.009,-2.266631 l -13.01476,-22.431339 25.9334,0.0878 c 0.81072,0.0013 1.55945,-0.433607 1.96,-1.138463 L 325.7673,-8.8409692 z"
     style="fill:url(#linearGradient3492);fill-opacity:1;stroke:none" /><path
     inkscape:connector-curvature="0"
     transform="translate(0,-144.63904)"
     clip-path="url(#clipPath4261)"
     style="opacity:0.41089107;fill:none;stroke:#000000;stroke-width:1.20000005;stroke-linecap:round;stroke-linejoin:round;stroke-miterlimit:4;stroke-opacity:1;stroke-dasharray:none;stroke-dashoffset:0;filter:url(#filter4257)"
     d="m 325.20361,128.45207 c -0.57964,0.16198 -1.07024,0.54941 -1.36217,1.07572 l -14.24382,24.76794 -28.55633,-0.0984 c -0.80092,0.002 -1.54016,0.43051 -1.94106,1.12389 -0.4009,0.69337 -0.40302,1.54758 -0.006,2.24294 l 14.33255,24.69923 -14.38878,24.70964 c -0.3938,0.69748 -0.38716,1.55172 0.0175,2.24299 0.4046,0.69128 1.14616,1.11537 1.94714,1.11355 l 28.57636,-0.0687 14.16755,24.80802 c 0.40197,0.70191 1.14974,1.13407 1.9586,1.13194 0.80887,-0.002 1.55436,-0.43822 1.95263,-1.14224 l 14.24381,-24.76793 28.55633,0.0984 c 0.80093,-0.002 1.54017,-0.43051 1.94106,-1.12388 0.4009,-0.69338 0.40303,-1.54759 0.006,-2.24295 l -14.34061,-24.72941 14.36666,-24.67139 c 0.39527,-0.69332 0.39372,-1.54415 -0.004,-2.23604 -0.39778,-0.69189 -1.13229,-1.12131 -1.93034,-1.12857 l -28.57636,0.0687 -14.19774,-24.79995 c -0.50027,-0.88626 -1.5331,-1.32644 -2.51887,-1.0735 z m 0.56346,6.70696 12.91013,22.524 c 0.40163,0.69816 1.14579,1.12842 1.95123,1.12817 l 25.9615,-0.0491 -13.06152,22.41407 c -0.41102,0.6988 -0.41437,1.56468 -0.009,2.26663 l 13.01476,22.43134 -25.9334,-0.0878 c -0.81071,-0.001 -1.55945,0.43361 -1.96,1.13846 l -12.90848,22.50256 -12.91014,-22.524 c -0.40163,-0.69816 -1.14578,-1.12842 -1.95123,-1.12816 l -25.9615,0.0491 13.06152,-22.41407 c 0.41103,-0.6988 0.41437,-1.56467 0.009,-2.26663 l -13.01476,-22.43134 25.9334,0.0878 c 0.81072,0.001 1.55945,-0.43361 1.96,-1.13846 l 12.90849,-22.50256 z"
     id="path4237" /><path
     sodipodi:type="star"
     style="fill:none;stroke:url(#radialGradient3494);stroke-width:1.4000001;stroke-linecap:round;stroke-linejoin:round;stroke-miterlimit:4;stroke-opacity:1;stroke-dasharray:none;stroke-dashoffset:0;filter:url(#filter4223)"
     sodipodi:sides="6"
     sodipodi:cx="-45.254833"
     sodipodi:cy="37.843887"
     sodipodi:r1="51.655106"
     sodipodi:r2="29.726227"
     sodipodi:arg1="0.78539816"
     sodipodi:arg2="1.3089969"
     inkscape:flatsided="false"
     inkscape:rounded="0"
     inkscape:randomized="0"
     d="m -8.7291577,74.369563 -28.8319603,-7.812346 -21.06304,21.181671 -7.650291,-28.875383 -28.875385,-7.650292 21.18167,-21.063038 -7.812345,-28.831963 28.831961,7.8123454 21.06304,-21.1816704 7.650291,28.875383 L 4.6401673,24.474562 -16.541503,45.5376 z"
     transform="matrix(0.9660871,-0.2582163,0.2582163,0.9660871,359.69336,-10.451451)"
     id="path4305" /></g><path
   inkscape:connector-curvature="0"
   style="fill:#000000;fill-opacity:1;fill-rule:evenodd;stroke:none;filter:url(#filter4386)"
   d="m 238.3125,6.1243959 c -44.10733,0 -42.57004,48.9388101 -44.1286,78.0400711 l 4.63804,2.554283 c 1.39477,-26.042873 0.0187,-69.839478 39.49056,-69.839478 39.758,0 38.0958,43.796606 39.49056,69.839478 l 4.63804,-2.554283 C 280.88255,55.063207 282.73955,6.1243959 238.3125,6.1243959 z"
   id="path4319"
   sodipodi:nodetypes="cccsccc"
   clip-path="url(#clipPath4390)"
   transform="matrix(0.18564386,0,0,0.17983113,-33.174377,0.06336701)" /><path
   inkscape:connector-curvature="0"
   style="fill:url(#linearGradient3496);fill-opacity:1;stroke:none;filter:url(#filter4444)"
   d="m 86.628541,29.38022 c 0,7.869998 -10.334779,12.183463 -23.068702,12.183463 -12.733924,0 -23.068704,-4.313465 -23.068704,-12.183463 0,-7.869998 10.33478,-14.257243 23.068704,-14.257243 12.733923,0 23.068702,6.387245 23.068702,14.257243 z"
   id="path4015"
   sodipodi:nodetypes="csssc"
   transform="matrix(0.1800033,0,0,0.16343929,-0.52311485,0.31126034)" /><path
   inkscape:connector-curvature="0"
   style="fill:url(#radialGradient3525);fill-opacity:1;fill-rule:evenodd;stroke:none"
   d="m 21.233222,17.42831 c -2.905531,0.442167 -7.269859,1.233599 -10.053776,2.703086 -0.09851,0.05166 -0.367361,0.0573 -0.481513,-0.0056 C 7.9417917,18.67415 3.6505171,17.889375 0.74858249,17.445168 l -0.0696164,0.05058 c 2.90229656,0.440737 7.28211776,1.231066 10.07697996,2.703087 0.114157,0.06292 0.377206,0.05728 0.475713,0.0056 2.794452,-1.475047 7.183195,-2.267499 10.088583,-2.708706 l -0.08702,-0.06744 z"
   id="path4732" /><path
   inkscape:connector-curvature="0"
   id="path4748"
   d="m 21.233222,17.42831 c -2.905531,0.442167 -7.269859,1.233599 -10.053776,2.703086 -0.09851,0.05166 -0.367361,0.0573 -0.481513,-0.0056 C 7.9417917,18.67415 3.6505171,17.889375 0.74858249,17.445168 l -0.0696164,0.05058 c 2.90229656,0.440737 7.28211776,1.231066 10.07697996,2.703087 0.114157,0.06292 0.377206,0.05728 0.475713,0.0056 2.794452,-1.475047 7.183195,-2.267499 10.088583,-2.708706 l -0.08702,-0.06744 z"
   style="fill:url(#radialGradient3522);fill-opacity:1;fill-rule:evenodd;stroke:none" /><path
   inkscape:connector-curvature="0"
   style="opacity:0.72277228;fill:#000000;fill-opacity:1;stroke:none;filter:url(#filter4975)"
   d="m 64,12.5 c -3.672269,0 -7.009665,0.495734 -9.46875,1.28125 0.233821,2.184442 4.389534,3.90625 9.46875,3.90625 5.079217,0 9.234932,-1.721808 9.46875,-3.90625 C 71.009665,12.995734 67.672269,12.5 64,12.5 z"
   id="path4861"
   transform="matrix(0.16344978,0,0,0.16344978,0.53884189,0.4294672)" /><path
   inkscape:connector-curvature="0"
   style="fill:url(#linearGradient3518);fill-opacity:1;fill-rule:evenodd;stroke:none"
   d="m 10.998539,0.58350479 c -1.1607199,0 -1.2994035,1.06035261 -1.3447719,1.91420251 0.093799,0.3193359 0.6057589,0.5974326 1.3447719,0.5974326 0.729469,0 1.324356,-0.2599123 1.346851,-0.5843356 C 12.30265,1.6547587 12.173621,0.58350479 10.998539,0.58350479 z"
   id="path4788" /><path
   inkscape:connector-curvature="0"
   style="fill:#000000;fill-opacity:0.50267382;fill-rule:evenodd;stroke:none;filter:url(#filter4837)"
   d="m -43.952003,12.78125 c -34.87604,0 -39.04308,32.890168 -40.40625,59.375 0.47899,1.683408 1.32338,3.3328 2.5,4.90625 -0.04325,-0.13417 -0.08667,-0.271556 -0.125,-0.40625 1.28275,-24.92232 5.21277,-55.875 38.03125,-55.875 33.2246,0 36.8540403,31.263585 38.0625003,56.25 -0.03689,0.549249 -0.10663,1.089533 -0.25,1.625 1.57607,-1.902533 2.51235,-3.95133 2.65625,-6.09375 -1.28422,-26.552948 -5.16113,-59.78125 -40.4687503,-59.78125 z"
   id="path4804"
   clip-path="url(#clipPath4853)"
   transform="matrix(0.03328127,0,0,0.03223919,12.459516,0.1714475)" /><path
   sodipodi:type="arc"
   style="opacity:0.72277228;fill:url(#linearGradient3504);fill-opacity:1;stroke:none"
   id="path4841"
   sodipodi:cx="-39.299328"
   sodipodi:cy="28.916662"
   sodipodi:rx="20.451195"
   sodipodi:ry="12.639534"
   d="m -18.848133,28.916662 a 20.451195,12.639534 0 1 1 -40.90239,0 20.451195,12.639534 0 1 1 40.90239,0 z"
   transform="matrix(0.03328127,0,0,0.03223919,12.307511,0.1258544)" /><path
   inkscape:connector-curvature="0"
   transform="matrix(-0.22080547,0,0,0.21389179,25.337018,-2.2629214)"
   sodipodi:nodetypes="ccccc"
   id="path5005"
   d="m 97.050403,83.629051 10.076267,7.778174 C 93.419927,93.474526 80.898215,97.319374 68.589356,101.4835 78.490731,95.611806 78.103298,88.897031 78.400753,83.667207 l 18.64965,-0.03816 z"
   style="opacity:0.2871287;fill:url(#linearGradient3506);fill-opacity:1;fill-rule:evenodd;stroke:none;filter:url(#filter5302)" /><path
   inkscape:connector-curvature="0"
   style="opacity:0.50495055;fill:url(#linearGradient3508);fill-opacity:1;fill-rule:evenodd;stroke:none;filter:url(#filter5092)"
   d="m 65,13.25 c 40.18802,4.343084 41.91057,42.06284 41.85,73.35 l -1.75,0.25 C 104.4719,55.535891 101.85588,18.622354 62.75,14 L 65,13.25 z"
   id="path5058"
   sodipodi:nodetypes="ccccc"
   transform="matrix(0.16344978,0,0,0.16344978,0.53884189,0.4294672)" /><path
   inkscape:connector-curvature="0"
   style="fill:url(#linearGradient3510);fill-opacity:1;fill-rule:evenodd;stroke:none;filter:url(#filter5278)"
   d="m 56.375,13.75 c -0.01865,0.277979 -0.04805,0.571816 -0.0625,0.84375 0.53963,1.837151 3.46718,3.4375 7.71875,3.4375 4.19666,0 7.62059,-1.508581 7.75,-3.375 -0.01211,-0.242487 -0.04733,-0.502393 -0.0625,-0.75 -0.40739,1.745721 -3.68389,3.125 -7.6875,3.125 -4.11871,0 -6.98887,-1.517164 -7.65625,-3.28125 z"
   id="path5146"
   transform="matrix(0.17506276,0,0,0.17382124,-0.21404595,0.0720505)" /><g
   id="layer1"
   transform="matrix(0.6,0,0,0.6,9.587677,9.4250528)"><path
     d="M 20.5,7.4948 V 14.5 H 1.5 V 7.4948 h 19 z"
     style="fill:url(#linearGradient2401);fill-rule:evenodd;stroke:#a53738;stroke-linejoin:round"
     id="path2262"
     inkscape:connector-curvature="0" /><path
     d="M 19.5,8.4948 V 13.5 H 2.5 V 8.4948 h 17 z"
     style="opacity:0.4;fill:none;stroke:url(#linearGradient2398)"
     id="path2272"
     inkscape:connector-curvature="0" /></g></svg>