<?xml version="1.0" encoding="UTF-8" standalone="no"?>
<!-- Created with Inkscape (http://www.inkscape.org/) -->

<svg
   xmlns:dc="http://purl.org/dc/elements/1.1/"
   xmlns:cc="http://creativecommons.org/ns#"
   xmlns:rdf="http://www.w3.org/1999/02/22-rdf-syntax-ns#"
   xmlns:svg="http://www.w3.org/2000/svg"
   xmlns="http://www.w3.org/2000/svg"
   xmlns:xlink="http://www.w3.org/1999/xlink"
   xmlns:sodipodi="http://sodipodi.sourceforge.net/DTD/sodipodi-0.dtd"
   xmlns:inkscape="http://www.inkscape.org/namespaces/inkscape"
   id="svg11300"
   height="22"
   width="22"
   version="1.0"
   inkscape:version="0.48.1 r9760"
   sodipodi:docname="list-add-user.svg">
  <metadata
     id="metadata51">
    <rdf:RDF>
      <cc:Work
         rdf:about="">
        <dc:format>image/svg+xml</dc:format>
        <dc:type
           rdf:resource="http://purl.org/dc/dcmitype/StillImage" />
        <dc:title />
      </cc:Work>
    </rdf:RDF>
  </metadata>
  <sodipodi:namedview
     pagecolor="#ffffff"
     bordercolor="#666666"
     borderopacity="1"
     objecttolerance="10"
     gridtolerance="10"
     guidetolerance="10"
     inkscape:pageopacity="0"
     inkscape:pageshadow="2"
     inkscape:window-width="1366"
     inkscape:window-height="690"
     id="namedview49"
     showgrid="true"
     showguides="true"
     inkscape:guide-bbox="true"
     inkscape:snap-global="false"
     inkscape:zoom="5.6568543"
     inkscape:cx="61.674017"
     inkscape:cy="36.598066"
     inkscape:window-x="0"
     inkscape:window-y="24"
     inkscape:window-maximized="1"
     inkscape:current-layer="svg11300">
    <sodipodi:guide
       orientation="1,0"
       position="23,7.3476562"
       id="guide3124" />
    <sodipodi:guide
       orientation="0,1"
       position="16.933594,12"
       id="guide3126" />
    <inkscape:grid
       type="xygrid"
       id="grid3161"
       empspacing="5"
       visible="true"
       enabled="true"
       snapvisiblegridlinesonly="true" />
  </sodipodi:namedview>
  <defs
     id="defs3">
    <linearGradient
       id="linearGradient3785">
      <stop
         id="stop3787"
         style="stop-color:#b8b8b8"
         offset="0" />
      <stop
         id="stop3789"
         style="stop-color:#878787"
         offset="1" />
    </linearGradient>
    <linearGradient
       id="linearGradient6954">
      <stop
         id="stop6960"
         style="stop-color:#f5f5f5"
         offset="0" />
      <stop
         id="stop6962"
         style="stop-color:#d2d2d2"
         offset="1" />
    </linearGradient>
    <linearGradient
       id="linearGradient3341">
      <stop
         id="stop3343"
         style="stop-color:#fff"
         offset="0" />
      <stop
         id="stop3345"
         style="stop-color:#fff;stop-opacity:0"
         offset="1" />
    </linearGradient>
    <linearGradient
       id="linearGradient5060">
      <stop
         id="stop5062"
         offset="0" />
      <stop
         id="stop5064"
         style="stop-opacity:0"
         offset="1" />
    </linearGradient>
    <linearGradient
       x1="72.421997"
       x2="72.421997"
       gradientTransform="matrix(0.14823,0,0,0.14944,3.4435,3.3567)"
       y1="124.76"
       gradientUnits="userSpaceOnUse"
       y2="51.243999"
       id="linearGradient3088">
      <stop
         offset="0"
         style="stop-color:#365f0e"
         id="stop2492-3" />
      <stop
         offset="1"
         style="stop-color:#84a718"
         id="stop2494-8" />
    </linearGradient>
    <radialGradient
       gradientTransform="matrix(0,0.35684,-0.3882,0,35.349,-12.114)"
       r="31"
       cy="51.695"
       cx="69.447998"
       gradientUnits="userSpaceOnUse"
       id="radialGradient3086">
      <stop
         offset="0"
         style="stop-color:#eef87e"
         id="stop3244-5" />
      <stop
         offset=".26238"
         style="stop-color:#cde34f"
         id="stop3246-9" />
      <stop
         offset=".66094"
         style="stop-color:#93b723"
         id="stop3248-7" />
      <stop
         offset="1"
         style="stop-color:#5a7e0d"
         id="stop3250-8" />
    </radialGradient>
    <linearGradient
       x1="24.139"
       y1="7.0479002"
       gradientTransform="matrix(0.2818,0,0,0.2801,10.179,10.022)"
       x2="24.139"
       gradientUnits="userSpaceOnUse"
       y2="39.268002"
       id="linearGradient5530">
      <stop
         offset="0"
         style="stop-color:#fff"
         id="stop3945" />
      <stop
         offset="1"
         style="stop-color:#fff;stop-opacity:0"
         id="stop3947" />
    </linearGradient>
    <radialGradient
       inkscape:collect="always"
       xlink:href="#linearGradient5060"
       id="radialGradient3177"
       gradientUnits="userSpaceOnUse"
       gradientTransform="matrix(0.45238,0,0,0.14286,0.023809,15.071)"
       cx="32"
       cy="41.5"
       r="21" />
    <radialGradient
       inkscape:collect="always"
       xlink:href="#linearGradient6954"
       id="radialGradient3179"
       gradientUnits="userSpaceOnUse"
       gradientTransform="matrix(0.67742,0,0,0.19286,-5.0163,9.9977)"
       cx="25"
       cy="28.66"
       r="16" />
    <linearGradient
       inkscape:collect="always"
       xlink:href="#linearGradient3785"
       id="linearGradient3181"
       gradientUnits="userSpaceOnUse"
       gradientTransform="matrix(0.51613,0,0,0.51667,-0.98397,-0.49181)"
       x1="30"
       y1="25.084999"
       x2="30"
       y2="45" />
    <linearGradient
       inkscape:collect="always"
       xlink:href="#linearGradient3341"
       id="linearGradient3183"
       gradientUnits="userSpaceOnUse"
       gradientTransform="matrix(0.51613,0,0,0.51667,-0.98397,-0.49181)"
       x1="29.996"
       y1="21.440001"
       x2="29.996"
       y2="43.530998" />
    <radialGradient
       inkscape:collect="always"
       xlink:href="#linearGradient6954"
       id="radialGradient3185"
       gradientUnits="userSpaceOnUse"
       gradientTransform="matrix(0.86552,-0.071029,0.067606,0.84907,-11.039,-4.2048)"
       cx="26.375999"
       cy="12.313"
       r="8" />
    <linearGradient
       inkscape:collect="always"
       xlink:href="#linearGradient3785"
       id="linearGradient3187"
       gradientUnits="userSpaceOnUse"
       gradientTransform="matrix(0.5277,0,0,0.53573,-1.3311,-1.4043)"
       x1="30"
       y1="5"
       x2="30"
       y2="44.679001" />
    <linearGradient
       inkscape:collect="always"
       xlink:href="#linearGradient5060"
       id="linearGradient3189"
       gradientUnits="userSpaceOnUse"
       gradientTransform="matrix(0.75,0,0,0.43478,-5.1276,2.9174)"
       x1="22"
       y1="39"
       x2="17"
       y2="37.438" />
    <radialGradient
       inkscape:collect="always"
       xlink:href="#linearGradient5060"
       id="radialGradient3191"
       gradientUnits="userSpaceOnUse"
       gradientTransform="matrix(0.81492,-3.8845e-7,1.1365e-7,0.2534,-9.9476,6.5902)"
       cx="30"
       cy="33.188"
       r="4.6875" />
    <linearGradient
       inkscape:collect="always"
       xlink:href="#linearGradient5060"
       id="linearGradient3193"
       gradientUnits="userSpaceOnUse"
       gradientTransform="matrix(-0.75,0,0,0.43478,34.15,2.9174)"
       x1="22"
       y1="39"
       x2="17"
       y2="37.438" />
    <linearGradient
       inkscape:collect="always"
       xlink:href="#linearGradient3341"
       id="linearGradient3195"
       gradientUnits="userSpaceOnUse"
       gradientTransform="matrix(0.5277,0,0,0.53573,-1.3311,-1.4043)"
       x1="30"
       y1="6.3340001"
       x2="30"
       y2="24.913" />
    <radialGradient
       inkscape:collect="always"
       xlink:href="#radialGradient3086"
       id="radialGradient3197"
       gradientUnits="userSpaceOnUse"
       gradientTransform="matrix(0,0.35684,-0.3882,0,0.207776,-10.345022)"
       cx="69.447998"
       cy="51.695"
       r="31" />
    <linearGradient
       inkscape:collect="always"
       xlink:href="#linearGradient3088"
       id="linearGradient3199"
       gradientUnits="userSpaceOnUse"
       gradientTransform="matrix(0.14823,0,0,0.14944,-31.697724,5.1256783)"
       x1="72.421997"
       y1="124.76"
       x2="72.421997"
       y2="51.243999" />
    <linearGradient
       inkscape:collect="always"
       xlink:href="#linearGradient5530"
       id="linearGradient3201"
       gradientUnits="userSpaceOnUse"
       gradientTransform="matrix(0.2818,0,0,0.2801,-24.962224,11.790978)"
       x1="24.139"
       y1="7.0479002"
       x2="24.139"
       y2="39.268002" />
  </defs>
  <g
     id="g3163"
     transform="matrix(0.91304149,0,0,0.91304149,0,0.0870041)">
    <g
       id="g3758"
       transform="translate(-5,0)">
      <path
         id="path3823"
         style="opacity:0.8;fill:url(#radialGradient3177)"
         d="M 24,21 A 9.5,3 0 0 1 5,21 9.5,3 0 1 1 24,21 z"
         inkscape:connector-curvature="0" />
      <path
         id="path3766"
         style="fill:url(#radialGradient3179);stroke:url(#linearGradient3181);stroke-width:0.99989003"
         d="m 12.177,10.1 c 0.23753,1.1247 0.37012,1.9754 0.17742,3.1 -1.5023,1.2477 -5.3445,1.8084 -5.3387,3.1 l -0.51613,3.875 c 0,1.2841 3.5817,2.325 8.0001,2.325 4.4183,0 8.0001,-1.0409 8.0001,-2.325 L 21.98366,16.3 c -0.0061,-1.1055 -3.871,-1.8083 -5.3549,-3.1 -0.12675,-1.0438 -0.02586,-2.0562 0.19355,-3.1 h -4.6452 z"
         inkscape:connector-curvature="0" />
      <path
         id="path3742"
         style="fill:none;stroke:url(#linearGradient3183);stroke-width:0.99989003"
         d="m 13.219,11.094 c 0.08722,0.85671 0.3354,1.801 -0.04818,2.6159 -0.64255,0.72846 -1.5946,1.0938 -2.4674,1.4727 -1.3803,0.327 -2.9893,0.817 -2.7778,1.815 -0.1417,1.063 -0.2835,2.126 -0.4252,3.19 0.3064,0.16061 1.0809,0.5849 1.625,0.6875 2.5208,0.66695 5.1678,0.72537 7.7549,0.51952 1.5117,-0.16621 3.0886,-0.35266 4.4326,-1.1133 0.33544,-0.07362 0.10712,-0.31641 0.11494,-0.65492 -0.13206,-1.0213 -0.26412,-2.0426 -0.39619,-3.0638 -0.58765,-0.5027 -1.3913,-0.75352 -2.1064,-1.0646 -1.0828,-0.4473 -2.2515,-0.853 -3.0869,-1.708 -0.39162,-0.68956 -0.16147,-1.5387 -0.10732,-2.2865 0.25968,-0.52835 -0.2234,-0.4019 -0.55293,-0.40969 h -1.9589 z"
         inkscape:connector-curvature="0" />
      <path
         id="path3764"
         style="fill:url(#radialGradient3185);stroke:url(#linearGradient3187);stroke-width:1.08449996"
         d="m 14.5,1.5422 c -2.1858,0 -3.9578,1.679 -3.9578,3.7501 0.01713,0.76649 0.08155,1.677 0.5277,3.7501 0.26385,0.8036 2.6173,2.9465 2.6385,3.2144 0.5117,0.26786 1.3193,0.26786 1.847,0 0,-0.26786 2.1108,-2.4108 2.3747,-3.2144 0.50205,-2.1545 0.50077,-2.9465 0.5277,-3.7501 0,-2.0711 -1.772,-3.7501 -3.9578,-3.7501 z"
         inkscape:connector-curvature="0" />
      <path
         id="path3848"
         style="opacity:0.5;fill:url(#linearGradient3189)"
         d="M 10.622,21.7 C 8.8506,20.838 9.6955,18.925 9.8724,17.7 9.1224,18.57 9.5,21 8,21 c 1,0.35562 1.6845,0.59817 2.6224,0.7 z"
         inkscape:connector-curvature="0" />
      <path
         id="path3833"
         style="opacity:0.3;fill:url(#radialGradient3191)"
         d="m 12,13.35 c 0.366,0.96 1.343,1.65 2.5,1.65 1.1566,0 2.134,-0.69018 2.5,-1.6495 h -5 z"
         inkscape:connector-curvature="0" />
      <path
         id="path3720"
         style="opacity:0.5;fill:url(#linearGradient3193)"
         d="m 18.4,21.7 c 1.7718,-0.86182 0.9269,-2.7752 0.75,-4 0.75,0.87 0.372,3.3 1.872,3.3 -1,0.35562 -1.6845,0.59817 -2.6224,0.7 z"
         inkscape:connector-curvature="0" />
      <path
         id="path3730"
         style="fill:none;stroke:url(#linearGradient3195);stroke-width:1.08449996"
         d="m 14.5,2.5312 c -1.6666,0 -2.9513,1.2303 -2.9688,2.7188 1.39e-4,0.00624 -1.45e-4,0.024997 0,0.03125 0.01647,0.7081 0.08609,1.5273 0.5,3.4688 -0.0051,-0.03667 0.09671,0.20414 0.3125,0.46875 0.23243,0.28502 0.5666,0.60833 0.875,0.9375 0.3084,0.32917 0.59885,0.66898 0.84375,0.9375 0.09435,0.10345 0.17196,0.1869 0.25,0.28125 0.16681,0.03524 0.41525,0.03212 0.625,0 0.06182,-0.08397 0.11475,-0.15943 0.1875,-0.25 0.21825,-0.27171 0.4739,-0.57599 0.75,-0.90625 0.2761,-0.33026 0.56921,-0.68139 0.78125,-0.96875 0.19756,-0.26773 0.30731,-0.50314 0.3125,-0.5 0.4607,-1.9998 0.47374,-2.6696 0.5,-3.4688 0,-0.010182 1.19e-4,-0.021091 0,-0.03125 -0.018,-1.4884 -1.302,-2.7188 -2.969,-2.7188 z"
         inkscape:connector-curvature="0" />
    </g>
    <g
       transform="matrix(1.0934011,0,0,1.0879003,37.39621,-1.901791)"
       id="g3151">
      <path
         inkscape:connector-curvature="0"
         id="path2262"
         style="color:#000000;fill:url(#radialGradient3197);stroke:url(#linearGradient3199);stroke-width:0.98543;stroke-linecap:round;stroke-linejoin:round"
         d="m -20.659224,16.275978 v -3 h 4 v 3 h 3 v 4 h -3 v 3 h -4 v -3 h -2.9895 v -4 h 2.9895 z" />
      <path
         inkscape:connector-curvature="0"
         id="path2272"
         style="opacity:0.4;fill:none;stroke:url(#linearGradient3201)"
         d="m -19.659224,17.275978 v -3 h 2 v 3 h 3 v 2 h -3 v 3 h -2 v -3 h -3 v -2 h 3 z" />
    </g>
  </g>
</svg>
