<?xml version="1.0" encoding="UTF-8" standalone="no"?>
<!-- Created with Inkscape (http://www.inkscape.org/) -->

<svg
   xmlns:dc="http://purl.org/dc/elements/1.1/"
   xmlns:cc="http://creativecommons.org/ns#"
   xmlns:rdf="http://www.w3.org/1999/02/22-rdf-syntax-ns#"
   xmlns:svg="http://www.w3.org/2000/svg"
   xmlns="http://www.w3.org/2000/svg"
   xmlns:xlink="http://www.w3.org/1999/xlink"
   xmlns:sodipodi="http://sodipodi.sourceforge.net/DTD/sodipodi-0.dtd"
   xmlns:inkscape="http://www.inkscape.org/namespaces/inkscape"
   version="1.0"
   width="22"
   height="22"
   id="svg3486"
   inkscape:version="0.48.1 r9760"
   sodipodi:docname="list-add-font.svg">
  <sodipodi:namedview
     pagecolor="#ffffff"
     bordercolor="#666666"
     borderopacity="1"
     objecttolerance="10"
     gridtolerance="10"
     guidetolerance="10"
     inkscape:pageopacity="0"
     inkscape:pageshadow="2"
     inkscape:window-width="1366"
     inkscape:window-height="690"
     id="namedview43"
     showgrid="true"
     inkscape:zoom="9.75"
     inkscape:cx="-13.846154"
     inkscape:cy="16.974359"
     inkscape:window-x="0"
     inkscape:window-y="24"
     inkscape:window-maximized="1"
     inkscape:current-layer="svg3486">
    <inkscape:grid
       snapvisiblegridlinesonly="true"
       enabled="true"
       visible="true"
       empspacing="5"
       id="grid3053"
       type="xygrid" />
  </sodipodi:namedview>
  <metadata
     id="metadata45">
    <rdf:RDF>
      <cc:Work
         rdf:about="">
        <dc:format>image/svg+xml</dc:format>
        <dc:type
           rdf:resource="http://purl.org/dc/dcmitype/StillImage" />
        <dc:title />
      </cc:Work>
    </rdf:RDF>
  </metadata>
  <defs
     id="defs3488">
    <linearGradient
       id="linearGradient9936">
      <stop
         offset="0"
         style="stop-color:#575757;stop-opacity:1"
         id="stop9938" />
      <stop
         offset="1"
         style="stop-color:#333333;stop-opacity:1"
         id="stop9940" />
    </linearGradient>
    <linearGradient
       id="linearGradient2490">
      <stop
         offset="0"
         style="stop-color:#791235;stop-opacity:1"
         id="stop2492" />
      <stop
         offset="1"
         style="stop-color:#dd3b27;stop-opacity:1"
         id="stop2494" />
    </linearGradient>
    <linearGradient
       id="linearGradient3242">
      <stop
         offset="0"
         style="stop-color:#f8b17e;stop-opacity:1"
         id="stop3244" />
      <stop
         offset="0.31209752"
         style="stop-color:#e35d4f;stop-opacity:1"
         id="stop3246" />
      <stop
         offset="0.57054454"
         style="stop-color:#c6262e;stop-opacity:1"
         id="stop3248" />
      <stop
         offset="1"
         style="stop-color:#690b54;stop-opacity:1"
         id="stop3250" />
    </linearGradient>
    <linearGradient
       id="linearGradient3342">
      <stop
         offset="0"
         style="stop-color:#ffffff;stop-opacity:0"
         id="stop3344" />
      <stop
         offset="1"
         style="stop-color:#ffffff;stop-opacity:1"
         id="stop3346" />
    </linearGradient>
    <linearGradient
       id="linearGradient3434">
      <stop
         offset="0"
         style="stop-color:#ffffff;stop-opacity:0"
         id="stop3436" />
      <stop
         offset="1"
         style="stop-color:#ffffff;stop-opacity:1"
         id="stop3438" />
    </linearGradient>
    <linearGradient
       id="linearGradient3463">
      <stop
         offset="0"
         style="stop-color:#000000;stop-opacity:1"
         id="stop3465" />
      <stop
         offset="1"
         style="stop-color:#000000;stop-opacity:0"
         id="stop3467" />
    </linearGradient>
    <radialGradient
       r="14.09771"
       fy="36.686291"
       fx="-6.1603441"
       cy="36.686291"
       cx="-6.1603441"
       gradientTransform="matrix(0.2544354,0,0,0.1773003,22.458715,21.995508)"
       gradientUnits="userSpaceOnUse"
       id="radialGradient3033"
       xlink:href="#linearGradient3463"
       inkscape:collect="always" />
    <linearGradient
       y2="103.12598"
       x2="143.91531"
       y1="75.220741"
       x1="143.91531"
       gradientTransform="matrix(1.0006658,0,0,0.9568208,-122.51112,-61.951179)"
       gradientUnits="userSpaceOnUse"
       id="linearGradient3035"
       xlink:href="#linearGradient3242"
       inkscape:collect="always" />
    <linearGradient
       y2="75.220741"
       x2="153.40933"
       y1="98.784538"
       x1="153.40933"
       gradientTransform="matrix(1.0006658,0,0,0.9568208,-122.51112,-61.951179)"
       gradientUnits="userSpaceOnUse"
       id="linearGradient3037"
       xlink:href="#linearGradient2490"
       inkscape:collect="always" />
    <radialGradient
       r="14.09771"
       fy="36.686291"
       fx="-6.1603441"
       cy="36.686291"
       cx="-6.1603441"
       gradientTransform="matrix(0.6939147,0,0,0.1773003,25.492145,21.995509)"
       gradientUnits="userSpaceOnUse"
       id="radialGradient3039"
       xlink:href="#linearGradient3463"
       inkscape:collect="always" />
    <radialGradient
       r="14.09771"
       fy="36.686291"
       fx="-6.1603441"
       cy="36.686291"
       cx="-6.1603441"
       gradientTransform="matrix(0.8326977,0,0,0.1751907,17.868834,22.102642)"
       gradientUnits="userSpaceOnUse"
       id="radialGradient3041"
       xlink:href="#linearGradient3463"
       inkscape:collect="always" />
    <radialGradient
       r="14.09771"
       fy="36.686291"
       fx="-6.1603441"
       cy="36.686291"
       cx="-6.1603441"
       gradientTransform="matrix(0.2544354,0,0,0.1773003,6.1543661,21.995509)"
       gradientUnits="userSpaceOnUse"
       id="radialGradient3043"
       xlink:href="#linearGradient3463"
       inkscape:collect="always" />
    <linearGradient
       y2="75.220741"
       x2="153.40933"
       y1="98.784538"
       x1="153.40933"
       gradientTransform="matrix(1.0006658,0,0,0.9568208,-122.51112,-61.951179)"
       gradientUnits="userSpaceOnUse"
       id="linearGradient3045"
       xlink:href="#linearGradient3342"
       inkscape:collect="always" />
    <linearGradient
       y2="45.49704"
       x2="22.05551"
       y1="15.833781"
       x1="22.05551"
       gradientTransform="matrix(0.8636143,0,0,0.8719345,-0.1326391,-9.7370562)"
       gradientUnits="userSpaceOnUse"
       id="linearGradient3047"
       xlink:href="#linearGradient9936"
       inkscape:collect="always" />
    <linearGradient
       y2="15.875"
       x2="14.498855"
       y1="44.178928"
       x1="14.498855"
       gradientTransform="matrix(0.9333335,0,0,0.8667558,-0.55625,-8.8888588)"
       gradientUnits="userSpaceOnUse"
       id="linearGradient3049"
       xlink:href="#linearGradient3434"
       inkscape:collect="always" />
    <linearGradient
       y2="33.434338"
       x2="15"
       y1="17"
       x1="15"
       gradientTransform="matrix(0.875,0,0,0.8620691,0.1875,-8.8620693)"
       gradientUnits="userSpaceOnUse"
       id="linearGradient3051"
       xlink:href="#linearGradient3434"
       inkscape:collect="always" />
    <linearGradient
       x1="72.422"
       x2="72.422"
       gradientTransform="matrix(0.14823,0,0,0.14944,3.4435,3.3567)"
       y1="124.76"
       gradientUnits="userSpaceOnUse"
       y2="51.244"
       id="linearGradient3088">
      <stop
         offset="0"
         style="stop-color:#365f0e"
         id="stop2492-3-0" />
      <stop
         offset="1"
         style="stop-color:#84a718"
         id="stop2494-8-4" />
    </linearGradient>
    <radialGradient
       gradientTransform="matrix(0,0.35684,-0.3882,0,35.349,-12.114)"
       r="31"
       cy="51.695"
       cx="69.448"
       gradientUnits="userSpaceOnUse"
       id="radialGradient3086">
      <stop
         offset="0"
         style="stop-color:#eef87e"
         id="stop3244-5-6" />
      <stop
         offset=".26238"
         style="stop-color:#cde34f"
         id="stop3246-9-4" />
      <stop
         offset=".66094"
         style="stop-color:#93b723"
         id="stop3248-7-9" />
      <stop
         offset="1"
         style="stop-color:#5a7e0d"
         id="stop3250-8-5" />
    </radialGradient>
    <linearGradient
       x1="24.139"
       y1="7.0479"
       gradientTransform="matrix(0.2818,0,0,0.2801,10.179,10.022)"
       x2="24.139"
       gradientUnits="userSpaceOnUse"
       y2="39.268"
       id="linearGradient5530-9">
      <stop
         offset="0"
         style="stop-color:#fff"
         id="stop3945-2" />
      <stop
         offset="1"
         style="stop-color:#fff;stop-opacity:0"
         id="stop3947-6" />
    </linearGradient>
    <radialGradient
       inkscape:collect="always"
       xlink:href="#radialGradient3086"
       id="radialGradient3170"
       gradientUnits="userSpaceOnUse"
       gradientTransform="matrix(0,0.35684,-0.3882,0,-12.535813,-21.524509)"
       cx="69.448"
       cy="51.695"
       r="31" />
    <linearGradient
       inkscape:collect="always"
       xlink:href="#linearGradient3088"
       id="linearGradient3172"
       gradientUnits="userSpaceOnUse"
       gradientTransform="matrix(0.14823,0,0,0.14944,-44.441313,-6.0538089)"
       x1="72.422"
       y1="124.76"
       x2="72.422"
       y2="51.244" />
    <linearGradient
       inkscape:collect="always"
       xlink:href="#linearGradient5530-9"
       id="linearGradient3174"
       gradientUnits="userSpaceOnUse"
       gradientTransform="matrix(0.2818,0,0,0.2801,-37.705813,0.6114911)"
       x1="24.139"
       y1="7.0479"
       x2="24.139"
       y2="39.268" />
  </defs>
  <g
     transform="matrix(0.66666664,0,0,0.66666664,0.33333335,0.333334)"
     id="g3022">
    <path
       inkscape:connector-curvature="0"
       d="m 24.478261,28.5 c 3.73e-4,1.380635 -1.605671,2.499999 -3.586956,2.499999 -1.981284,0 -3.587328,-1.119364 -3.586956,-2.499999 -3.72e-4,-1.380636 1.605672,-2.5 3.586956,-2.5 1.981285,0 3.587329,1.119364 3.586956,2.5 l 0,0 z"
       id="path3205"
       style="opacity:0.2;fill:url(#radialGradient3033);fill-opacity:1;fill-rule:evenodd;stroke:none;stroke-width:0.99999988;marker:none;visibility:visible;display:inline;overflow:visible;enable-background:accumulate" />
    <path
       inkscape:connector-curvature="0"
       d="m 29.563443,11.731849 c -0.487858,-1.086203 -1.678404,-0.972428 -2.495201,-1.144958 -2.704162,-0.305753 -5.40369,0.181874 -7.670102,1.677944 -2.187503,1.456409 -4.16691,3.42693 -5.557347,5.969786 -1.20857,2.265139 -1.751261,5.291228 -0.988764,8.173818 0.600134,1.940505 2.406753,3.139086 3.930411,2.815888 2.332549,-0.382295 3.99472,-2.509928 5.365903,-4.585596 0.620059,-0.855992 1.000935,-1.989644 1.732831,-2.709031 -0.104162,1.844704 -0.150806,3.760716 0.275807,5.633962 0.242471,1.10453 1.129463,1.975247 2.028395,1.934996 0.914552,-0.103134 1.610708,-0.883221 2.368847,-1.392329 0.681879,-0.593592 1.46296,-1.103978 1.945778,-1.962188 -0.08317,-1.421619 -1.376402,-0.528963 -1.827807,-0.04103 -0.631037,0.975974 -1.934768,0.200469 -1.655877,-1.127675 0.146006,-3.0337 0.865797,-5.882621 1.474566,-8.742789 0.342235,-1.507836 0.702486,-3.006881 1.072562,-4.500802 l -2e-6,0 z m -3.777583,1.893013 c -1.158446,3.596139 -2.409846,7.256235 -4.550818,10.044419 -1.010112,1.272044 -2.491126,2.425514 -4.124093,1.813642 -1.128473,-0.491765 -1.38992,-2.108596 -1.41434,-3.324881 -0.145636,-3.591622 1.618983,-6.566273 3.82506,-8.360647 1.537758,-1.20304 3.525377,-1.747558 5.466733,-1.160056 0.366511,0.134111 0.764069,0.481263 0.797458,0.987525 l 0,-2e-6 z"
       id="path3207"
       style="font-size:55.90206146px;font-style:normal;font-variant:normal;font-weight:normal;font-stretch:normal;text-align:start;line-height:100%;writing-mode:lr-tb;text-anchor:start;fill:url(#linearGradient3035);fill-opacity:1;fill-rule:evenodd;stroke:url(#linearGradient3037);stroke-width:1.00000012;stroke-linecap:butt;stroke-linejoin:miter;stroke-miterlimit:4;stroke-opacity:1;stroke-dasharray:none;stroke-dashoffset:0;marker:none;visibility:visible;display:inline;overflow:visible;enable-background:accumulate;font-family:Gabrielle;-inkscape-font-specification:Gabrielle" />
    <path
       inkscape:connector-curvature="0"
       d="M 31,28.500001 C 31.001017,29.880636 26.620896,31 21.217392,31 c -5.403505,0 -9.783627,-1.119364 -9.78261,-2.499999 -10e-4,-1.380636 4.379105,-2.5 9.78261,-2.5 5.403504,0 9.783625,1.119364 9.782608,2.5 l 0,0 z"
       id="path3209"
       style="opacity:0.2;fill:url(#radialGradient3039);fill-opacity:1;fill-rule:evenodd;stroke:none;stroke-width:0.99999988;marker:none;visibility:visible;display:inline;overflow:visible;enable-background:accumulate" />
    <path
       inkscape:connector-curvature="0"
       d="m 24.47826,28.529739 c 0.0012,1.364209 -5.254924,2.470254 -11.73913,2.470254 -6.4842055,0 -11.74035052,-1.106045 -11.7391298,-2.470254 -0.001221,-1.364208 5.2549243,-2.470253 11.7391298,-2.470253 6.484206,0 11.740351,1.106045 11.73913,2.470253 l 0,0 z"
       id="path3211"
       style="opacity:0.05;fill:url(#radialGradient3041);fill-opacity:1;fill-rule:evenodd;stroke:none;stroke-width:0.99999988;marker:none;visibility:visible;display:inline;overflow:visible;enable-background:accumulate" />
    <path
       inkscape:connector-curvature="0"
       d="M 8.1739126,28.500001 C 8.1742857,29.880636 6.5682415,31 4.5869567,31 2.6056718,31 0.99962767,29.880636 1.0000007,28.500001 c -3.7303e-4,-1.380636 1.6056711,-2.5 3.5869559,-2.5 1.9812849,0 3.5873291,1.119364 3.586956,2.5 l 0,0 z"
       id="path3213"
       style="opacity:0.2;fill:url(#radialGradient3043);fill-opacity:1;fill-rule:evenodd;stroke:none;stroke-width:0.99999988;marker:none;visibility:visible;display:inline;overflow:visible;enable-background:accumulate" />
    <path
       inkscape:connector-curvature="0"
       d="m 25.53125,11.5625 c -1.071958,1.35e-4 0.450727,0.198744 0.661269,0.643418 0.676695,0.573124 0.801757,1.550333 0.407911,2.317675 -0.722165,2.188019 -1.538354,4.350825 -2.56918,6.413907 1.264231,0.179524 0.768579,1.71089 0.823867,2.582804 0.01785,1.437877 0.04984,2.925596 0.537237,4.291628 0.384424,1.040838 1.394799,0.32456 1.96279,-0.115619 0.557892,-0.281195 -0.684722,-0.299501 -0.794307,-0.729501 C 25.939533,26.373834 25.819626,25.180679 26.03125,24.625 26.249401,21.193487 27.072556,17.839957 27.822751,14.496872 28.024634,13.663837 28.23326,12.832457 28.4375,12 27.744212,11.474271 26.692548,11.698588 25.854192,11.559791 l -0.162439,-5.89e-4 -0.160503,0.0033 0,0 z m -10,5.9375 c -1.838204,2.474098 -2.470724,5.824818 -1.641341,8.793816 0.44077,1.269466 1.91355,2.340751 3.263947,1.795977 C 18.140672,27.741104 18.93354,27.012314 19.625,26.25 18.28316,26.914652 16.370503,26.811372 15.499068,25.447198 14.545576,23.979553 14.581701,22.123705 14.726093,20.44516 14.85069,19.431239 15.129197,18.438417 15.53125,17.5 z"
       id="path3305"
       style="font-size:55.90206146px;font-style:normal;font-variant:normal;font-weight:normal;font-stretch:normal;text-align:start;line-height:100%;writing-mode:lr-tb;text-anchor:start;opacity:0.4;fill:none;stroke:url(#linearGradient3045);stroke-width:1.00000012;stroke-linecap:butt;stroke-linejoin:miter;stroke-miterlimit:4;stroke-opacity:1;stroke-dasharray:none;stroke-dashoffset:0;marker:none;visibility:visible;display:inline;overflow:visible;enable-background:accumulate;font-family:Gabrielle;-inkscape-font-specification:Gabrielle" />
    <path
       inkscape:connector-curvature="0"
       d="m 19.295181,29.5 c -0.796422,-2.276593 -1.592844,-4.723409 -2.389265,-7 0,0 -9.7860918,0 -9.7860918,0 -0.8162469,2.304455 -1.6324937,4.695542 -2.4487399,7 -1.0570286,0 -2.1140565,0 -3.1710844,0 3.0192774,-8.333333 6.0385538,-16.666666 9.0578321,-25.0000002 0.955823,0 1.911646,0 2.867471,0 C 16.4502,12.833334 19.475101,21.166667 22.500001,29.5 c -1.068273,0 -2.136547,0 -3.20482,0 z m -3.357682,-10 c 0,0 -3.9375,-11.1206907 -3.9375,-11.1206907 0,0 -3.9374992,11.1206907 -3.9374992,11.1206907 0,0 7.8749992,0 7.8749992,0 z"
       id="path3217"
       style="font-size:40px;font-style:normal;font-variant:normal;font-weight:normal;font-stretch:normal;fill:url(#linearGradient3047);fill-opacity:1;stroke:#333333;stroke-width:0.99999982px;stroke-linecap:butt;stroke-linejoin:miter;stroke-opacity:1;font-family:Droid Sans;-inkscape-font-specification:Sans" />
    <path
       inkscape:connector-curvature="0"
       d="m 21.24609,29 c 0,0 -8.512357,-23.5 -8.512357,-23.5 0,0 -1.461451,0 -1.461451,0 0,0 -8.5204861,23.5 -8.5204861,23.5"
       id="path3219"
       style="font-size:40px;font-style:normal;font-variant:normal;font-weight:normal;font-stretch:normal;opacity:0.3;fill:none;stroke:url(#linearGradient3049);stroke-width:0.99999982px;stroke-linecap:butt;stroke-linejoin:miter;stroke-opacity:1;font-family:Droid Sans;-inkscape-font-specification:Sans" />
    <path
       inkscape:connector-curvature="0"
       d="M 12,5.5584992 17.454448,20.5 6.5455496,20.5 12,5.5584992 z"
       id="path3221"
       style="opacity:0.2;fill:none;stroke:url(#linearGradient3051);stroke-width:0.99999982px;stroke-linecap:butt;stroke-linejoin:round;stroke-opacity:1" />
  </g>
  <g
     id="g3166"
     transform="translate(47.910098,9.410794)">
    <path
       d="m -33.402813,5.0964911 v -3 h 4 v 3 h 3 v 4 h -3 v 2.9999999 h -4 V 9.0964911 h -2.9895 v -4 h 2.9895 z"
       style="color:#000000;fill:url(#radialGradient3170);stroke:url(#linearGradient3172);stroke-width:0.98543;stroke-linecap:round;stroke-linejoin:round"
       id="path2262"
       inkscape:connector-curvature="0" />
    <path
       d="m -32.402813,6.0964911 v -3 h 2 v 3 h 3 v 2 h -3 v 2.9999999 h -2 V 8.0964911 h -3 v -2 h 3 z"
       style="opacity:0.4;fill:none;stroke:url(#linearGradient3174)"
       id="path2272"
       inkscape:connector-curvature="0" />
  </g>
</svg>
