<?xml version="1.0" encoding="UTF-8" standalone="no"?>
<!-- Created with Inkscape (http://www.inkscape.org/) -->

<svg
   xmlns:dc="http://purl.org/dc/elements/1.1/"
   xmlns:cc="http://creativecommons.org/ns#"
   xmlns:rdf="http://www.w3.org/1999/02/22-rdf-syntax-ns#"
   xmlns:svg="http://www.w3.org/2000/svg"
   xmlns="http://www.w3.org/2000/svg"
   xmlns:xlink="http://www.w3.org/1999/xlink"
   xmlns:sodipodi="http://sodipodi.sourceforge.net/DTD/sodipodi-0.dtd"
   xmlns:inkscape="http://www.inkscape.org/namespaces/inkscape"
   id="svg4529"
   height="22"
   width="22"
   version="1.1"
   inkscape:version="0.48.1 r9760"
   sodipodi:docname="mail-mark-task.svg">
  <metadata
     id="metadata59">
    <rdf:RDF>
      <cc:Work
         rdf:about="">
        <dc:format>image/svg+xml</dc:format>
        <dc:type
           rdf:resource="http://purl.org/dc/dcmitype/StillImage" />
        <dc:title></dc:title>
      </cc:Work>
    </rdf:RDF>
  </metadata>
  <sodipodi:namedview
     pagecolor="#ffffff"
     bordercolor="#666666"
     borderopacity="1"
     objecttolerance="10"
     gridtolerance="10"
     guidetolerance="10"
     inkscape:pageopacity="0"
     inkscape:pageshadow="2"
     inkscape:window-width="1366"
     inkscape:window-height="688"
     id="namedview57"
     showgrid="false"
     inkscape:zoom="14.181818"
     inkscape:cx="11"
     inkscape:cy="11.669872"
     inkscape:window-x="0"
     inkscape:window-y="25"
     inkscape:window-maximized="1"
     inkscape:current-layer="svg4529" />
  <defs
     id="defs4531">
    <linearGradient
       id="linearGradient9308"
       y2="174.09"
       gradientUnits="userSpaceOnUse"
       x2="309.81"
       gradientTransform="matrix(1.1333 0 0 1 -344.8 -155)"
       y1="182.12"
       x1="311.06">
      <stop
         id="stop9304"
         style="stop-color:#fff"
         offset="0" />
      <stop
         id="stop9306"
         style="stop-color:#eeeeec"
         offset="1" />
    </linearGradient>
    <linearGradient
       id="linearGradient9318"
       y2="186.19"
       gradientUnits="userSpaceOnUse"
       x2="321.2"
       gradientTransform="matrix(1.125 0 0 1.0556 -342.19 -166.42)"
       y1="181.62"
       x1="305">
      <stop
         id="stop9314"
         style="stop-color:#d3d7cf"
         offset="0" />
      <stop
         id="stop9316"
         style="stop-color:#eeeeec"
         offset="1" />
    </linearGradient>
    <linearGradient
       id="linearGradient9734"
       y2="185.24"
       gradientUnits="userSpaceOnUse"
       x2="321"
       gradientTransform="matrix(1.125 0 0 1.0556 -341.06 -166.42)"
       y1="169"
       x1="318.06">
      <stop
         id="stop9730"
         style="stop-color:#babdb6"
         offset="0" />
      <stop
         id="stop9732"
         style="stop-color:#555753"
         offset="1" />
    </linearGradient>
    <linearGradient
       id="linearGradient2897"
       y2="171.16"
       gradientUnits="userSpaceOnUse"
       x2="308.43"
       y1="169.16"
       x1="308.43">
      <stop
         id="stop9392"
         style="stop-color:#d3d7cf"
         offset="0" />
      <stop
         id="stop9394"
         style="stop-color:#eeeeec"
         offset="1" />
    </linearGradient>
    <linearGradient
       id="linearGradient2899"
       y2="167.34"
       gradientUnits="userSpaceOnUse"
       x2="309.56"
       y1="171.28"
       x1="309.56">
      <stop
         id="stop9608"
         style="stop-color:#555753"
         offset="0" />
      <stop
         id="stop9610"
         style="stop-color:#d3d7cf"
         offset=".66795" />
      <stop
         id="stop9612"
         style="stop-color:#888a85"
         offset="1" />
    </linearGradient>
    <linearGradient
       x1="23.576"
       y1="25.357"
       gradientTransform="matrix(0.41578,-0.41749,0.51898,0.51462,-15.747,2.6504)"
       x2="23.576"
       gradientUnits="userSpaceOnUse"
       y2="31.211"
       id="linearGradient3841">
      <stop
         offset="0"
         style="stop-color:#181818"
         id="stop2541" />
      <stop
         offset=".13483"
         style="stop-color:#dbdbdb"
         id="stop2543" />
      <stop
         offset=".20224"
         style="stop-color:#a4a4a4"
         id="stop2545" />
      <stop
         offset=".26966"
         style="stop-color:#fff"
         id="stop2547" />
      <stop
         offset=".44650"
         style="stop-color:#8d8d8d"
         id="stop2549" />
      <stop
         offset=".57114"
         style="stop-color:#959595"
         id="stop2551" />
      <stop
         offset=".72038"
         style="stop-color:#cecece"
         id="stop2553" />
      <stop
         offset="1"
         style="stop-color:#181818"
         id="stop2555" />
    </linearGradient>
    <linearGradient
       x1="30.038"
       y1="24.99"
       gradientTransform="matrix(0.40402,-0.40569,0.60738,0.60227,-17.868,0.69303)"
       x2="30.038"
       gradientUnits="userSpaceOnUse"
       y2="30"
       id="linearGradient3843">
      <stop
         offset="0"
         style="stop-color:#565656"
         id="stop2559" />
      <stop
         offset=".5"
         style="stop-color:#9a9a9a"
         id="stop2561" />
      <stop
         offset="1"
         style="stop-color:#545454"
         id="stop2563" />
    </linearGradient>
    <linearGradient
       x1="30.038"
       y1="24.99"
       gradientTransform="matrix(0.40402,-0.40569,0.60738,0.60227,-17.983,0.80921)"
       x2="30.038"
       gradientUnits="userSpaceOnUse"
       y2="30"
       id="linearGradient3845">
      <stop
         offset="0"
         style="stop-color:#b1b1b1"
         id="stop2567" />
      <stop
         offset=".5"
         style="stop-color:#fff"
         id="stop2569" />
      <stop
         offset="1"
         style="stop-color:#8f8f8f"
         id="stop2571" />
    </linearGradient>
    <linearGradient
       x1="30.038"
       y1="24.99"
       gradientTransform="matrix(0.40402,-0.40569,0.60738,0.60227,-17.466,0.28929)"
       x2="30.038"
       gradientUnits="userSpaceOnUse"
       y2="30"
       id="linearGradient3847">
      <stop
         offset="0"
         style="stop-color:#565656"
         id="stop2575" />
      <stop
         offset=".5"
         style="stop-color:#9a9a9a"
         id="stop2577" />
      <stop
         offset="1"
         style="stop-color:#545454"
         id="stop2579" />
    </linearGradient>
    <linearGradient
       x1="30.038"
       y1="24.99"
       gradientTransform="matrix(0.40402,-0.40569,0.60738,0.60227,-17.581,0.40547)"
       x2="30.038"
       gradientUnits="userSpaceOnUse"
       y2="30"
       id="linearGradient3849">
      <stop
         offset="0"
         style="stop-color:#b1b1b1"
         id="stop2583" />
      <stop
         offset=".5"
         style="stop-color:#fff"
         id="stop2585" />
      <stop
         offset="1"
         style="stop-color:#8f8f8f"
         id="stop2587" />
    </linearGradient>
    <linearGradient
       x1="30.038"
       y1="24.99"
       gradientTransform="matrix(0.40402,-0.40569,0.60738,0.60227,-17.062,-0.11641)"
       x2="30.038"
       gradientUnits="userSpaceOnUse"
       y2="30"
       id="linearGradient3851">
      <stop
         offset="0"
         style="stop-color:#565656"
         id="stop2591" />
      <stop
         offset=".5"
         style="stop-color:#9a9a9a"
         id="stop2593" />
      <stop
         offset="1"
         style="stop-color:#545454"
         id="stop2595" />
    </linearGradient>
    <linearGradient
       x1="30.038"
       y1="24.99"
       gradientTransform="matrix(0.40402,-0.40569,0.60738,0.60227,-17.177,-2.197e-4)"
       x2="30.038"
       gradientUnits="userSpaceOnUse"
       y2="30"
       id="linearGradient3853">
      <stop
         offset="0"
         style="stop-color:#b1b1b1"
         id="stop2599" />
      <stop
         offset=".5"
         style="stop-color:#fff"
         id="stop2601" />
      <stop
         offset="1"
         style="stop-color:#8f8f8f"
         id="stop2603" />
    </linearGradient>
    <linearGradient
       x1="9"
       y1="29.057"
       gradientTransform="matrix(0.40402,-0.40569,0.60738,0.60227,-17.637,0.46249)"
       x2="9"
       gradientUnits="userSpaceOnUse"
       y2="26.03"
       id="linearGradient3855">
      <stop
         offset="0"
         style="stop-color:#ece5a5"
         id="stop2607" />
      <stop
         offset="1"
         style="stop-color:#fcfbf2"
         id="stop2609" />
    </linearGradient>
    <linearGradient
       x1="5.5179"
       y1="37.372"
       gradientTransform="matrix(0.37638,0.036153,0.0367,0.37487,-2.2183,-1.1331)"
       x2="9.5221"
       gradientUnits="userSpaceOnUse"
       y2="41.392"
       id="linearGradient3857">
      <stop
         offset="0"
         style="stop-color:#dbce48"
         id="stop2613" />
      <stop
         offset="1"
         style="stop-color:#c5b625"
         id="stop2615" />
    </linearGradient>
    <linearGradient
       inkscape:collect="always"
       xlink:href="#linearGradient3841"
       id="linearGradient3374"
       gradientUnits="userSpaceOnUse"
       gradientTransform="matrix(0.41578,-0.41749,0.51898,0.51462,-15.747,2.6504)"
       x1="23.576"
       y1="25.357"
       x2="23.576"
       y2="31.211" />
    <linearGradient
       inkscape:collect="always"
       xlink:href="#linearGradient3843"
       id="linearGradient3376"
       gradientUnits="userSpaceOnUse"
       gradientTransform="matrix(0.40402,-0.40569,0.60738,0.60227,-17.868,0.69303)"
       x1="30.038"
       y1="24.99"
       x2="30.038"
       y2="30" />
    <linearGradient
       inkscape:collect="always"
       xlink:href="#linearGradient3845"
       id="linearGradient3378"
       gradientUnits="userSpaceOnUse"
       gradientTransform="matrix(0.40402,-0.40569,0.60738,0.60227,-17.983,0.80921)"
       x1="30.038"
       y1="24.99"
       x2="30.038"
       y2="30" />
    <linearGradient
       inkscape:collect="always"
       xlink:href="#linearGradient3847"
       id="linearGradient3380"
       gradientUnits="userSpaceOnUse"
       gradientTransform="matrix(0.40402,-0.40569,0.60738,0.60227,-17.466,0.28929)"
       x1="30.038"
       y1="24.99"
       x2="30.038"
       y2="30" />
    <linearGradient
       inkscape:collect="always"
       xlink:href="#linearGradient3849"
       id="linearGradient3382"
       gradientUnits="userSpaceOnUse"
       gradientTransform="matrix(0.40402,-0.40569,0.60738,0.60227,-17.581,0.40547)"
       x1="30.038"
       y1="24.99"
       x2="30.038"
       y2="30" />
    <linearGradient
       inkscape:collect="always"
       xlink:href="#linearGradient3851"
       id="linearGradient3384"
       gradientUnits="userSpaceOnUse"
       gradientTransform="matrix(0.40402,-0.40569,0.60738,0.60227,-17.062,-0.11641)"
       x1="30.038"
       y1="24.99"
       x2="30.038"
       y2="30" />
    <linearGradient
       inkscape:collect="always"
       xlink:href="#linearGradient3853"
       id="linearGradient3386"
       gradientUnits="userSpaceOnUse"
       gradientTransform="matrix(0.40402,-0.40569,0.60738,0.60227,-17.177,-2.197e-4)"
       x1="30.038"
       y1="24.99"
       x2="30.038"
       y2="30" />
    <linearGradient
       inkscape:collect="always"
       xlink:href="#linearGradient3855"
       id="linearGradient3388"
       gradientUnits="userSpaceOnUse"
       gradientTransform="matrix(0.40402,-0.40569,0.60738,0.60227,-17.637,0.46249)"
       x1="9"
       y1="29.057"
       x2="9"
       y2="26.03" />
    <linearGradient
       inkscape:collect="always"
       xlink:href="#linearGradient3857"
       id="linearGradient3390"
       gradientUnits="userSpaceOnUse"
       gradientTransform="matrix(0.37638,0.036153,0.0367,0.37487,-2.2183,-1.1331)"
       x1="5.5179"
       y1="37.372"
       x2="9.5221"
       y2="41.392" />
  </defs>
  <g
     id="layer1"
     transform="translate(0,-10)">
    <rect
       id="rect10371"
       style="stroke:url(#linearGradient9734);enable-background:new;fill:url(#linearGradient9318)"
       rx=".84375"
       ry=".79167"
       height="19"
       width="18"
       y="12.5"
       x="1.5" />
    <rect
       id="rect8528"
       style="enable-background:new;fill:url(#linearGradient9308)"
       rx="0"
       ry="0"
       height="15"
       width="17"
       y="14"
       x="2" />
    <g
       id="g3651"
       style="enable-background:new"
       transform="translate(-352,-157)">
      <rect
         id="rect9632"
         style="opacity:0.48;enable-background:new;fill:#888a85"
         rx="0"
         ry="0"
         height="1"
         width="1"
         y="176"
         x="356" />
      <rect
         id="rect9634"
         style="opacity:0.48;enable-background:new;fill:#888a85"
         rx="0"
         ry="0"
         height="1"
         width="10"
         y="176"
         x="359" />
      <rect
         id="rect9640"
         style="opacity:0.48;enable-background:new;fill:#888a85"
         rx="0"
         ry="0"
         height="1"
         width="1"
         y="178"
         x="356" />
      <rect
         id="rect9646"
         style="opacity:0.48;enable-background:new;fill:#888a85"
         rx="0"
         ry="0"
         height="1"
         width="1"
         y="180"
         x="356" />
      <rect
         id="rect9650"
         style="opacity:0.48;enable-background:new;fill:#888a85"
         rx="0"
         ry="0"
         height="1.0001"
         width="5.9998"
         y="180"
         x="359" />
      <rect
         id="rect9656"
         style="opacity:0.48;enable-background:new;fill:#888a85"
         rx="0"
         ry="0"
         height="1"
         width="1"
         y="182"
         x="356" />
      <rect
         id="rect9658"
         style="opacity:0.48;enable-background:new;fill:#888a85"
         rx="0"
         ry="0"
         height="1"
         width="10"
         y="182"
         x="359" />
      <rect
         id="rect9660"
         style="opacity:0.48;enable-background:new;fill:#888a85"
         rx="0"
         ry="0"
         height="1"
         width="1"
         y="184"
         x="356" />
      <rect
         id="rect3587"
         style="opacity:0.48;enable-background:new;fill:#888a85"
         rx="0"
         ry="0"
         height="1"
         width="9"
         y="178"
         x="359" />
      <rect
         id="rect3603"
         style="opacity:0.48;enable-background:new;fill:#888a85"
         rx="0"
         ry="0"
         height="1"
         width="1"
         y="174"
         x="356" />
      <rect
         id="rect3605"
         style="opacity:0.48;enable-background:new;fill:#888a85"
         rx="0"
         ry="0"
         height="1"
         width="10"
         y="174"
         x="359" />
      <rect
         id="rect3609"
         style="opacity:0.48;enable-background:new;fill:#888a85"
         rx="0"
         ry="0"
         height="1"
         width="10"
         y="184"
         x="359" />
    </g>
    <rect
       id="rect9300"
       style="enable-background:new;fill:#2e3436"
       rx="0"
       ry="0"
       height="1"
       width="19"
       y="31"
       x="1" />
    <rect
       id="rect9310"
       style="opacity:.5;stroke:#fff;enable-background:new;fill:none"
       rx="0"
       ry="0"
       height="17"
       width="16"
       y="13.5"
       x="2.5" />
    <path
       id="path9666"
       style="opacity:.1;enable-background:new"
       d="m4.5 13c-0.828 0-1.5 0.67199-1.5 1.5 0 0.828 0.67201 1.5 1.5 1.5 0.38234 0 0.73499-0.13923 1-0.375 0.0104 0.009 0.0206 0.0223 0.0312 0.0312 0.11343 0.0951 0.23673 0.16023 0.375 0.21875 0.0624 0.0271 0.12108 0.0439 0.1875 0.0625 0.0317 0.009 0.0612 0.0246 0.0937 0.0312 0.0106 0.002 0.0206-0.002 0.0312 0 0.0886 0.0163 0.188 0.0312 0.28125 0.0312 0.38234 0 0.73499-0.13923 1-0.375 0.1325 0.11789 0.29967 0.21697 0.46875 0.28125 0.16908 0.0643 0.34008 0.0937 0.53125 0.0937 0.38234 0 0.73499-0.13923 1-0.375 0.1325 0.11789 0.29967 0.21697 0.46875 0.28125 0.16908 0.0643 0.34008 0.0937 0.53125 0.0937 0.38234 0 0.73499-0.13923 1-0.375 0.1325 0.11789 0.29967 0.21697 0.46875 0.28125 0.16908 0.0643 0.34008 0.0937 0.53125 0.0937 0.38234 0 0.73499-0.13923 1-0.375 0.1325 0.11789 0.29967 0.21697 0.46875 0.28125 0.16908 0.0643 0.34008 0.0937 0.53125 0.0937 0.1035 0 0.21488-0.0113 0.3125-0.0312 0.0345-0.007 0.0601-0.0218 0.0937-0.0312 0.0539-0.0148 0.10491-0.042 0.15625-0.0625 0.008-0.003 0.0231 0.004 0.0312 0 0.13827-0.0585 0.26157-0.12362 0.375-0.21875 0.0113-0.009 0.0203-0.0215 0.0312-0.0312 0.26501 0.23577 0.61766 0.375 1 0.375 0.828 0 1.5-0.67201 1.5-1.5 0-0.828-0.672-1.5-1.5-1.5-0.38234 0-0.73499 0.13923-1 0.375-0.011-0.01-0.02-0.0218-0.0312-0.0312-0.11343-0.0951-0.23673-0.16023-0.375-0.21875-0.0598-0.0253-0.12403-0.045-0.1875-0.0625-0.132-0.037-0.263-0.063-0.406-0.063-0.0956 0-0.19028 0.0145-0.28125 0.0312-0.091 0.0167-0.16546 0.0304-0.25 0.0625-0.16908 0.0643-0.33625 0.16336-0.46875 0.28125-0.26501-0.23577-0.61766-0.375-1-0.375-0.0956 0-0.19028 0.0145-0.28125 0.0312-0.091 0.0167-0.16546 0.0304-0.25 0.0625-0.16908 0.0643-0.33625 0.16336-0.46875 0.28125-0.26501-0.23577-0.61766-0.375-1-0.375-0.0956 0-0.19028 0.0145-0.28125 0.0312-0.091 0.0167-0.16546 0.0304-0.25 0.0625-0.16908 0.0643-0.33625 0.16336-0.46875 0.28125-0.26501-0.23577-0.61766-0.375-1-0.375-0.0956 0-0.19028 0.0145-0.28125 0.0312-0.091 0.0167-0.16546 0.0304-0.25 0.0625-0.16908 0.0643-0.33625 0.16336-0.46875 0.28125-0.26501-0.23577-0.61766-0.375-1-0.375-0.138 0-0.27931 0.0276-0.40625 0.0625-0.0664 0.0186-0.12514 0.0354-0.1875 0.0625-0.13827 0.0585-0.26157 0.12362-0.375 0.21875-0.0107 0.009-0.0209 0.022-0.0312 0.0312-0.26501-0.23577-0.61766-0.375-1-0.375z" />
    <g
       id="g9344"
       style="enable-background:new"
       transform="translate(-304,-157)">
      <rect
         id="rect9320"
         style="stroke-linejoin:round;stroke:url(#linearGradient2899);fill:url(#linearGradient2897)"
         rx="1"
         ry="1"
         height="4"
         width="2"
         y="167.5"
         x="307.5" />
      <rect
         id="rect9332"
         style="fill:#fff"
         rx="1.5926"
         ry="1.3438"
         height="1.3438"
         width="1.3438"
         y="167.69"
         x="307.5" />
    </g>
    <use
       id="use9348"
       style="enable-background:new"
       xlink:href="#g9344"
       transform="translate(2)"
       height="300"
       width="400"
       y="0"
       x="0" />
    <use
       id="use9354"
       style="enable-background:new"
       xlink:href="#g9344"
       transform="translate(4)"
       height="300"
       width="400"
       y="0"
       x="0" />
    <use
       id="use9356"
       style="enable-background:new"
       xlink:href="#g9344"
       transform="translate(6)"
       height="300"
       width="400"
       y="0"
       x="0" />
    <use
       id="use9358"
       style="enable-background:new"
       xlink:href="#g9344"
       transform="translate(8)"
       height="300"
       width="400"
       y="0"
       x="0" />
    <use
       id="use9360"
       style="enable-background:new"
       xlink:href="#g9344"
       transform="translate(10)"
       height="300"
       width="400"
       y="0"
       x="0" />
    <use
       id="use3585"
       style="enable-background:new"
       xlink:href="#g9344"
       transform="translate(12)"
       height="300"
       width="400"
       y="0"
       x="0" />
  </g>
  <g
     id="g3359"
     transform="translate(-26,3.1311386)">
    <path
       d="m 43.169329,7.1029769 c -0.08415,-0.04997 -0.14927,-0.03697 -0.19229,-0.0092 l -5.7296,3.6801001 -1.0545,0.67922 -0.03247,0.01374 -1.2485,2.8377 3.0941,0.094 0.02569,-0.01734 1.0613,-0.67562 5.7281,-3.7118001 c 0.172,-0.111 -0.101,-0.848 -0.611,-1.6561 -0.383,-0.606 -0.789,-1.0846 -1.041,-1.2345 z"
       style="opacity:0.15;fill:#0c0c0c;fill-rule:evenodd"
       id="path2422"
       inkscape:connector-curvature="0" />
    <g
       transform="matrix(0.8214,0,0,0.82339,35.117429,0.9450769)"
       id="g8626">
      <path
         d="m 2.0488,11.037 c 0.28654,-0.20771 1.148,0.25639 1.9603,1.0619 0.81045,0.80363 1.2602,1.6413 1.0576,1.9306 -7.708e-4,0.0011 0.01977,0.01774 0.01898,0.01882 l 10.138,-10.18 c 0.258,-0.2581 -0.213,-1.1432 -1.051,-1.9744 -0.838,-0.8311 -1.728,-1.295 -1.986,-1.0366 l -10.138,10.18 z"
         style="fill:url(#linearGradient3374);stroke:#0c0c0c;stroke-width:0.60798001;stroke-linejoin:round"
         id="path3041"
         inkscape:connector-curvature="0" />
      <path
         d="m 10.565,2.4841 c 0.28654,-0.20771 1.148,0.25639 1.9603,1.0619 0.81044,0.80363 1.2602,1.6413 1.0576,1.9306 -7.69e-4,0.0011 0.01977,0.017738 0.01898,0.018821 l 1.552,-1.5571 c 0.409,-0.4086 -0.029,-1.0928 -0.981,-2.0447 -0.813,-0.8055 -1.674,-1.2696 -1.96,-1.0619 l -0.02525,0.025356 -1.6218,1.6271 z"
         style="opacity:0.8;fill:#ffb6ed;stroke:#e28ccd;stroke-width:0.60798001;stroke-linejoin:round"
         id="path3043"
         inkscape:connector-curvature="0" />
      <path
         d="m 2.0488,11.037 c 0.28654,-0.20771 1.148,0.25639 1.9603,1.0619 0.81044,0.80363 1.2602,1.6413 1.0576,1.9306 -7.714e-4,0.0011 0.01977,0.01774 0.01898,0.01882 l 6.982,-7.0109 0.02525,-0.025356 c 7.9e-4,-0.00108 -0.01975,-0.01772 -0.01898,-0.01882 0.203,-0.2885 -0.247,-1.1262 -1.058,-1.9298 -0.812,-0.8056 -1.6734,-1.2697 -1.9599,-1.062 l -0.025251,0.025355 -6.982,7.0109 z"
         style="opacity:0.6;fill:#0c0c0c"
         id="path3045"
         inkscape:connector-curvature="0" />
      <path
         d="m 9.1785,3.8767 c 0.28654,-0.20771 1.148,0.25639 1.9603,1.0619 0.81044,0.80363 1.2602,1.6413 1.0576,1.9306 -7.71e-4,0.0011 0.01977,0.017736 0.01898,0.01882 l 0.12626,-0.12678 c 7.9e-4,-0.00108 -0.01975,-0.01772 -0.01898,-0.01882 0.203,-0.2892 -0.246,-1.1269 -1.057,-1.9305 -0.812,-0.8056 -1.6737,-1.2697 -1.9602,-1.062 L 9.1792,3.8767 z"
         style="fill:url(#linearGradient3376)"
         id="path3047"
         inkscape:connector-curvature="0" />
      <path
         d="m 9.0628,3.9929 c 0.28654,-0.20771 1.148,0.25639 1.9603,1.0619 0.81044,0.80363 1.2602,1.6413 1.0576,1.9306 -7.71e-4,0.0011 0.01977,0.017738 0.01898,0.018822 l 0.126,-0.1268 c 7.9e-4,-0.00108 -0.01975,-0.017721 -0.01898,-0.018821 0.203,-0.2892 -0.247,-1.1269 -1.058,-1.9305 -0.812,-0.8056 -1.6734,-1.2697 -1.9599,-1.062 l -0.1263,0.1268 z"
         style="fill:url(#linearGradient3378)"
         id="path3049"
         inkscape:connector-curvature="0" />
      <path
         d="m 9.5806,3.473 c 0.28654,-0.20771 1.148,0.25639 1.9603,1.0619 0.81045,0.80363 1.2602,1.6413 1.0576,1.9306 -7.73e-4,0.0011 0.01977,0.017737 0.01898,0.01882 l 0.12626,-0.12678 c 7.91e-4,-0.00108 -0.01975,-0.017721 -0.01898,-0.01882 0.202,-0.2892 -0.247,-1.1269 -1.058,-1.9306 -0.812,-0.8055 -1.6736,-1.2696 -1.9601,-1.0619 l -0.1263,0.1268 z"
         style="fill:url(#linearGradient3380)"
         id="path3051"
         inkscape:connector-curvature="0" />
      <path
         d="m 9.4649,3.5891 c 0.28654,-0.20771 1.148,0.25639 1.9603,1.0619 0.81045,0.80363 1.2602,1.6413 1.0576,1.9306 -7.69e-4,0.0011 0.01977,0.017737 0.01898,0.018821 l 0.12626,-0.12678 c 7.9e-4,-0.00108 -0.01975,-0.01772 -0.01898,-0.01882 0.203,-0.2892 -0.247,-1.1269 -1.057,-1.9305 -0.813,-0.8055 -1.6743,-1.2696 -1.9608,-1.0619 l -0.1263,0.1267 z"
         style="fill:url(#linearGradient3382)"
         id="path3053"
         inkscape:connector-curvature="0" />
      <path
         d="m 9.9846,3.0673 c 0.2864,-0.2077 1.1484,0.2564 1.9604,1.0619 0.81045,0.80363 1.2602,1.6413 1.0576,1.9306 -7.7e-4,0.0011 0.01977,0.017738 0.01898,0.018821 l 0.126,-0.1268 C 13.148372,5.950741 13.12783,5.9341 13.1286,5.933 13.3306,5.6438 12.8816,4.8061 12.0706,4.0024 11.2586,3.1969 10.3966,2.7328 10.1106,2.9405 L 9.9842,3.0673 z"
         style="fill:url(#linearGradient3384)"
         id="path3055"
         inkscape:connector-curvature="0" />
      <path
         d="m 9.8689,3.1835 c 0.28654,-0.20771 1.148,0.25639 1.9603,1.0619 0.81044,0.80363 1.2602,1.6413 1.0576,1.9306 -7.71e-4,0.0011 0.01977,0.017737 0.01898,0.018821 l 0.12626,-0.12678 c 7.89e-4,-0.00108 -0.01975,-0.017722 -0.01898,-0.018821 0.203,-0.2892 -0.247,-1.1269 -1.057,-1.9306 -0.813,-0.8055 -1.674,-1.2696 -1.9608,-1.0619 l -0.1263,0.1268 z"
         style="fill:url(#linearGradient3386)"
         id="path3057"
         inkscape:connector-curvature="0" />
      <path
         d="m 0.25981,15.794 4.7719,-1.7255 0.039308,-0.03926 c 0.2026,-0.289 -0.2524,-1.127 -1.0629,-1.93 -0.8124,-0.806 -1.6727,-1.268 -1.9592,-1.06 l -1.7891,4.755 z"
         style="fill:url(#linearGradient3388);fill-rule:evenodd;stroke:url(#linearGradient3390);stroke-width:0.60798001"
         id="path3059"
         inkscape:connector-curvature="0" />
      <path
         d="m 0.74443,14.506 -0.48521,1.283 1.3014,-0.473 C 1.44692,15.182 1.34132,15.048 1.20622,14.914 1.05072,14.76 0.89917,14.633 0.74445,14.506 z"
         style="fill:#0c0c0c;fill-rule:evenodd;stroke:#0c0c0c;stroke-width:0.60798001"
         id="path3061"
         inkscape:connector-curvature="0" />
    </g>
  </g>
</svg>
