<?xml version="1.0" encoding="UTF-8" standalone="no"?>
<!-- Created with Inkscape (http://www.inkscape.org/) -->

<svg
   xmlns:dc="http://purl.org/dc/elements/1.1/"
   xmlns:cc="http://creativecommons.org/ns#"
   xmlns:rdf="http://www.w3.org/1999/02/22-rdf-syntax-ns#"
   xmlns:svg="http://www.w3.org/2000/svg"
   xmlns="http://www.w3.org/2000/svg"
   xmlns:xlink="http://www.w3.org/1999/xlink"
   xmlns:sodipodi="http://sodipodi.sourceforge.net/DTD/sodipodi-0.dtd"
   xmlns:inkscape="http://www.inkscape.org/namespaces/inkscape"
   version="1.0"
   width="22"
   height="22"
   id="svg2536"
   sodipodi:version="0.32"
   inkscape:version="0.48.1 r9760"
   sodipodi:docname="mail-signed-verified.svg"
   inkscape:output_extension="org.inkscape.output.svg.inkscape">
  <metadata
     id="metadata56">
    <rdf:RDF>
      <cc:Work
         rdf:about="">
        <dc:format>image/svg+xml</dc:format>
        <dc:type
           rdf:resource="http://purl.org/dc/dcmitype/StillImage" />
        <dc:title></dc:title>
      </cc:Work>
    </rdf:RDF>
  </metadata>
  <sodipodi:namedview
     inkscape:window-height="690"
     inkscape:window-width="1366"
     inkscape:pageshadow="2"
     inkscape:pageopacity="0.0"
     guidetolerance="10.0"
     gridtolerance="10.0"
     objecttolerance="10.0"
     borderopacity="1.0"
     bordercolor="#666666"
     pagecolor="#ffffff"
     id="base"
     showgrid="true"
     inkscape:zoom="7.3362329"
     inkscape:cx="5.2420774"
     inkscape:cy="-0.12717793"
     inkscape:window-x="0"
     inkscape:window-y="24"
     inkscape:current-layer="svg2536"
     inkscape:window-maximized="1">
    <inkscape:grid
       type="xygrid"
       id="grid3211" />
  </sodipodi:namedview>
  <defs
     id="defs2538">
    <linearGradient
       id="linearGradient2490-495-150-777">
      <stop
         id="stop4108"
         style="stop-color:#787878;stop-opacity:1"
         offset="0" />
      <stop
         id="stop4110"
         style="stop-color:#b4b4b4;stop-opacity:1"
         offset="1" />
    </linearGradient>
    <linearGradient
       id="linearGradient3242-967-12-570-862-307">
      <stop
         id="stop4498"
         style="stop-color:#79ff50;stop-opacity:1;"
         offset="0" />
      <stop
         id="stop4502"
         style="stop-color:#dbdbdb;stop-opacity:1"
         offset="0.87426931" />
      <stop
         id="stop4504"
         style="stop-color:#999999;stop-opacity:1"
         offset="1" />
    </linearGradient>
    <linearGradient
       id="linearGradient3333-314-917-262">
      <stop
         id="stop4102"
         style="stop-color:#ffffff;stop-opacity:1"
         offset="0" />
      <stop
         id="stop4104"
         style="stop-color:#ffffff;stop-opacity:0"
         offset="1" />
    </linearGradient>
    <linearGradient
       id="linearGradient3495-841-851-719">
      <stop
         id="stop4120"
         style="stop-color:#1e1e1e;stop-opacity:1"
         offset="0" />
      <stop
         id="stop4122"
         style="stop-color:#1e1e1e;stop-opacity:0"
         offset="1" />
    </linearGradient>
    <linearGradient
       inkscape:collect="always"
       xlink:href="#linearGradient3495-841-851-719"
       id="linearGradient2435"
       gradientUnits="userSpaceOnUse"
       gradientTransform="matrix(0.4657385,0,0,0.4850945,-0.1776621,-4.5686279)"
       x1="23.903786"
       y1="35.75"
       x2="23.903786"
       y2="16.00676" />
    <linearGradient
       inkscape:collect="always"
       xlink:href="#linearGradient3495-841-851-719"
       id="linearGradient2438"
       gradientUnits="userSpaceOnUse"
       gradientTransform="matrix(0.4657385,0,0,0.4850945,-0.1776622,-5.102232)"
       x1="23.928667"
       y1="30.773148"
       x2="23.928667"
       y2="45.530704" />
    <linearGradient
       inkscape:collect="always"
       xlink:href="#linearGradient3333-314-917-262"
       id="linearGradient2441"
       gradientUnits="userSpaceOnUse"
       gradientTransform="matrix(0.4418603,0,0,0.4642857,0.3953491,-4.696433)"
       x1="25.57654"
       y1="15.000002"
       x2="25.57654"
       y2="44.00053" />
    <linearGradient
       inkscape:collect="always"
       xlink:href="#linearGradient3242-967-12-570-862-307"
       id="linearGradient2444"
       gradientUnits="userSpaceOnUse"
       gradientTransform="matrix(0.4666666,0,0,0.4545454,-0.2000001,-3.7272752)"
       x1="19.875452"
       y1="10.389797"
       x2="19.875452"
       y2="45.60001" />
    <linearGradient
       inkscape:collect="always"
       xlink:href="#linearGradient2490-495-150-777"
       id="linearGradient2447"
       gradientUnits="userSpaceOnUse"
       gradientTransform="matrix(0.4666666,0,0,0.5006418,-0.2000002,-5.7785529)"
       x1="28.103424"
       y1="45.000065"
       x2="28.103424"
       y2="14.038458" />
    <linearGradient
       y2="22.783224"
       x2="29.957399"
       y1="9.4436626"
       x1="18.570419"
       gradientTransform="matrix(1.02867,0,0,0.972129,-1.28033,1.18934)"
       gradientUnits="userSpaceOnUse"
       id="linearGradient3227"
       xlink:href="#linearGradient6617"
       inkscape:collect="always" />
    <linearGradient
       y2="49.895073"
       x2="43.14098"
       y1="5.9244628"
       x1="15.338736"
       gradientTransform="matrix(0.975728,0,0,0.931033,-0.132002,1.978392)"
       gradientUnits="userSpaceOnUse"
       id="linearGradient3225"
       xlink:href="#linearGradient6604"
       inkscape:collect="always" />
    <radialGradient
       r="14.6944"
       fy="20.479359"
       fx="26.887432"
       cy="20.479359"
       cx="26.887432"
       gradientTransform="matrix(1.135551,0,0,1.135551,-4.540325,-2.077433)"
       gradientUnits="userSpaceOnUse"
       id="radialGradient3223"
       xlink:href="#aigrd2"
       inkscape:collect="always" />
    <radialGradient
       r="13.2807"
       fy="20.971201"
       fx="28.789101"
       cy="20.971201"
       cx="28.789101"
       gradientTransform="matrix(1.310386,0,0,1.310386,-8.642682,-4.375977)"
       gradientUnits="userSpaceOnUse"
       id="radialGradient3221"
       xlink:href="#aigrd1"
       inkscape:collect="always" />
    <linearGradient
       y2="27.403761"
       x2="36.499001"
       y1="35.458244"
       x1="37.502811"
       gradientTransform="scale(0.843938,1.184922)"
       gradientUnits="userSpaceOnUse"
       id="linearGradient3219"
       xlink:href="#linearGradient6684"
       inkscape:collect="always" />
    <linearGradient
       y2="35.01786"
       x2="38.250904"
       y1="22.886259"
       x1="38.506161"
       gradientTransform="matrix(0.843938,0,0,1.184922,-1.28033,1.68934)"
       gradientUnits="userSpaceOnUse"
       id="linearGradient3217"
       xlink:href="#linearGradient6625"
       inkscape:collect="always" />
    <radialGradient
       r="33.156136"
       fy="19.818913"
       fx="24.452202"
       cy="19.818913"
       cx="24.452202"
       gradientTransform="matrix(1.024478,0,0,0.976107,0.939339,-0.530329)"
       gradientUnits="userSpaceOnUse"
       id="radialGradient3215"
       xlink:href="#linearGradient6665"
       inkscape:collect="always" />
    <radialGradient
       r="33.156136"
       fy="19.818913"
       fx="24.452202"
       cy="19.818913"
       cx="24.452202"
       gradientTransform="matrix(1.024478,0,0,0.976107,1.646447,-0.353552)"
       gradientUnits="userSpaceOnUse"
       id="radialGradient3213"
       xlink:href="#linearGradient6665"
       inkscape:collect="always" />
    <linearGradient
       id="linearGradient6684">
      <stop
         id="stop6686"
         offset="0.0000000"
         style="stop-color:#d5dbff;stop-opacity:1.0000000;" />
      <stop
         id="stop6688"
         offset="1"
         style="stop-color:#6579ff;stop-opacity:0;" />
    </linearGradient>
    <linearGradient
       id="linearGradient6665">
      <stop
         style="stop-color:#000000;stop-opacity:1.0000000;"
         offset="0.0000000"
         id="stop6667" />
      <stop
         style="stop-color:#000000;stop-opacity:0.0000000;"
         offset="1.0000000"
         id="stop6669" />
    </linearGradient>
    <linearGradient
       id="linearGradient6625">
      <stop
         id="stop6627"
         offset="0.0000000"
         style="stop-color:#1d2349;stop-opacity:1.0000000;" />
      <stop
         style="stop-color:#4c5279;stop-opacity:1.0000000;"
         offset="0.35315102"
         id="stop6637" />
      <stop
         style="stop-color:#b3bdff;stop-opacity:1.0000000;"
         offset="0.46551725"
         id="stop6633" />
      <stop
         id="stop6635"
         offset="0.64982164"
         style="stop-color:#727cbe;stop-opacity:1.0000000;" />
      <stop
         id="stop6629"
         offset="1.0000000"
         style="stop-color:#323c7e;stop-opacity:1.0000000;" />
    </linearGradient>
    <linearGradient
       id="linearGradient6617">
      <stop
         id="stop6619"
         offset="0.0000000"
         style="stop-color:#ffffff;stop-opacity:0.24742268;" />
      <stop
         id="stop6621"
         offset="1"
         style="stop-color:#ffffff;stop-opacity:0;" />
    </linearGradient>
    <linearGradient
       id="linearGradient6604">
      <stop
         id="stop6606"
         offset="0.0000000"
         style="stop-color:#ffa196;stop-opacity:1.0000000;" />
      <stop
         id="stop6608"
         offset="1"
         style="stop-color:#ff1f06;stop-opacity:0;" />
    </linearGradient>
    <radialGradient
       gradientUnits="userSpaceOnUse"
       fy="20.971201"
       fx="28.789101"
       r="13.2807"
       cy="20.971201"
       cx="28.789101"
       id="aigrd1">
      <stop
         id="stop5115"
         style="stop-color:#E41E08"
         offset="0" />
      <stop
         id="stop5117"
         style="stop-color:#901505"
         offset="1" />
    </radialGradient>
    <radialGradient
       gradientUnits="userSpaceOnUse"
       fy="13.5444"
       fx="19.292"
       r="14.6944"
       cy="13.5444"
       cx="19.292"
       id="aigrd2">
      <stop
         id="stop5122"
         style="stop-color:#E41E08"
         offset="0" />
      <stop
         id="stop5124"
         style="stop-color:#901505"
         offset="1" />
    </radialGradient>
  </defs>
  <rect
     style="fill:url(#linearGradient2444);fill-opacity:1;fill-rule:evenodd;stroke:url(#linearGradient2447);stroke-width:1;stroke-linecap:square;stroke-linejoin:round;marker:none;marker-start:none;marker-mid:none;marker-end:none;stroke-miterlimit:4;stroke-dasharray:none;stroke-dashoffset:0;stroke-opacity:1;visibility:visible;display:inline;overflow:visible;enable-background:accumulate"
     id="rect2396"
     y="1.5"
     x="0.5"
     ry="0.45454553"
     rx="0.46666664"
     height="15"
     width="21" />
  <rect
     style="opacity:0.4;fill:none;fill-opacity:1;fill-rule:evenodd;stroke:url(#linearGradient2441);stroke-width:0.99999994;stroke-linecap:square;stroke-linejoin:miter;marker:none;marker-start:none;marker-mid:none;marker-end:none;stroke-miterlimit:4;stroke-dasharray:none;stroke-dashoffset:0;stroke-opacity:1;visibility:visible;display:inline;overflow:visible;enable-background:accumulate"
     id="rect3331"
     y="2.5"
     x="1.5"
     ry="0.035004593"
     rx="0.036476243"
     height="13"
     width="19" />
  <path
     style="opacity:0.5;fill:none;fill-opacity:1;fill-rule:evenodd;stroke:url(#linearGradient2438);stroke-width:1;stroke-linecap:butt;stroke-linejoin:miter;marker:none;marker-start:none;marker-mid:none;marker-end:none;stroke-miterlimit:4;stroke-dasharray:none;stroke-dashoffset:0;stroke-opacity:1;visibility:visible;display:inline;overflow:visible;enable-background:accumulate"
     id="path3341"
     d="M 8.2139564,10.336975 L 1.1222032,16.468629 M 13.709509,10.325653 L 20.811476,16.468629" />
  <path
     style="opacity:0.5;fill:none;fill-rule:evenodd;stroke:url(#linearGradient2435);stroke-width:1.00000012;stroke-linecap:butt;stroke-linejoin:miter;stroke-miterlimit:4;stroke-dasharray:none;stroke-opacity:1"
     id="path3493"
     d="M 0.8491563,3.0457658 L 11.000062,12.181817 L 20.937208,3.0457658" />
  <g
     transform="matrix(0.2992526,0,0,0.2992526,9.3682612,7.8472575)"
     id="g3021">
    <path
       inkscape:connector-curvature="0"
       style="opacity:0.48044691;color:#000000;fill:url(#radialGradient3213);fill-opacity:1;fill-rule:nonzero;stroke:none;stroke-width:1;marker:none;visibility:visible;display:inline;overflow:visible"
       d="m 25.38911,19.305038 c 0,0 -5.904865,8.175967 -5.904865,11.923286 0,3.747318 6.813306,1.703326 9.538628,4.428649 2.725322,2.725322 -6.359086,9.765738 -6.359086,9.765738 l 9.084408,-2.498212 3.633764,3.860873 c 0,-4.655759 5.337089,-8.403077 2.611767,-11.241954 -2.838878,-2.838878 -10.90129,-2.498213 -11.35551,-6.245531 -0.454221,-3.747318 -1.135551,-9.879294 -1.135551,-9.879294 L 25.38911,19.305038 z"
       id="path6671" />
    <path
       inkscape:connector-curvature="0"
       style="opacity:0.48044691;fill:url(#radialGradient3215);fill-opacity:1;fill-rule:nonzero;stroke:none"
       d="m 36.91616,9.3946518 c 1.321528,3.0573762 3.643133,2.9018182 3.700549,6.9825152 0.03274,2.275762 1.832456,3.470743 1.832456,5.795517 0,2.324773 -4.015015,3.473472 -5.382529,4.840984 -1.367515,1.367516 0.107885,4.874427 -3.60203,5.904959 -3.674662,1.02074 -5.470058,-0.410252 -7.794832,-0.410252 -2.324776,0 -7.887818,4.482688 -9.939091,2.431415 -2.051272,-2.051271 -2.095036,-6.533959 -3.872804,-8.311727 -1.9145211,-1.914521 -4.9394355,-4.5894 -4.9394355,-8.008186 0,-3.418785 1.9742054,-5.223586 4.8026845,-8.401985 2.918275,-3.2793047 3.008531,-8.2050874 6.427317,-8.2050874 3.418785,0 4.729182,0.9378099 7.638964,0.864272 4.638337,-0.1172232 5.20674,-2.32332197 8.618072,-0.5935 3.007702,1.5251494 1.476157,4.7176933 2.510679,7.1110752 z"
       id="path6639"
       sodipodi:nodetypes="csssssssssssss" />
    <path
       inkscape:connector-curvature="0"
       id="path5112"
       d="m 23.62134,18.067599 c 0,0 -5.904865,8.175967 -5.904865,11.923286 0,3.747318 6.813306,1.703326 9.538628,4.428649 2.725322,2.725322 -6.359086,9.765738 -6.359086,9.765738 l 9.084408,-2.498212 3.633764,3.860873 c 0,-4.655759 5.337089,-8.403077 2.611767,-11.241954 -2.838878,-2.838878 -10.90129,-2.498213 -11.35551,-6.245531 -0.454221,-3.747318 -1.135551,-9.879294 -1.135551,-9.879294 L 23.62134,18.067599 z"
       style="fill:url(#linearGradient3217);fill-opacity:1;fill-rule:nonzero;stroke:#1f254f;stroke-width:1;stroke-miterlimit:6.5999999;stroke-opacity:1" />
    <path
       inkscape:connector-curvature="0"
       sodipodi:nodetypes="cscccsss"
       style="fill:none;stroke:url(#linearGradient3219);stroke-width:0.72112519;stroke-miterlimit:6.5999999;stroke-opacity:1"
       d="m 20.803213,31.602421 c 4.552,0.448384 7.429014,1.235525 7.806622,3.989107 0.330114,2.407239 -4.232143,6.732959 -4.232143,6.732959 l 5.843888,-1.624746 2.84137,2.96095 c 0.662912,-3.71094 4.364808,-6.222004 2.678906,-8.504604 -2.114688,-2.863148 -8.966049,-2.243467 -9.293599,-4.945752 -0.32755,-2.702286 -8.334061,1.124615 -5.645044,1.392086 z"
       id="path6680" />
    <path
       inkscape:connector-curvature="0"
       sodipodi:nodetypes="csssssssssssss"
       id="path5119"
       d="m 34.935485,9.2468088 c 1.266321,2.9296542 3.490941,2.7805952 3.545959,6.6908212 0.03138,2.180692 1.755905,3.325753 1.755905,5.553409 0,2.227656 -3.847288,3.328368 -5.157674,4.638753 -1.310387,1.310388 0.103378,4.670798 -3.451556,5.658279 -3.521153,0.978099 -5.241546,-0.393114 -7.469203,-0.393114 -2.227658,0 -7.558305,4.295424 -9.523886,2.329843 -1.96558,-1.965579 -2.007516,-6.261003 -3.711018,-7.964505 -1.8345421,-1.834542 -4.7330913,-4.397678 -4.7330913,-7.673644 0,-3.275966 1.8917331,-5.005371 4.6020533,-8.050993 2.796364,-3.1423108 2.88285,-7.8623191 6.158816,-7.8623191 3.275966,0 4.531621,0.8986329 7.319847,0.828167 4.444571,-0.1123262 4.989229,-2.22626527 8.258052,-0.5687065 2.882056,1.4614363 1.414491,4.5206119 2.405796,6.8140094 z"
       style="fill:url(#radialGradient3221);fill-rule:nonzero;stroke:#4c0901;stroke-linecap:round;stroke-linejoin:round;stroke-miterlimit:4;stroke-opacity:1" />
    <path
       inkscape:connector-curvature="0"
       id="path5126"
       d="m 34.97685,17.567599 c 0,6.245531 -5.10998,11.35551 -11.35551,11.35551 -6.245531,0 -11.35551,-5.109979 -11.35551,-11.35551 0,-6.24553 5.109979,-11.3555099 11.35551,-11.3555099 6.24553,0 11.35551,5.1099799 11.35551,11.3555099 z"
       style="fill:url(#radialGradient3223);fill-rule:nonzero;stroke:none" />
    <path
       inkscape:connector-curvature="0"
       style="fill:none;stroke:url(#linearGradient3225);stroke-linecap:round;stroke-linejoin:round;stroke-miterlimit:4;stroke-opacity:1"
       d="m 33.888971,10.030124 c 1.153261,2.668087 3.179261,2.532336 3.229367,6.093447 0.02857,1.985994 1.599132,3.028821 1.599132,5.057586 0,2.028765 -3.503791,3.031202 -4.697182,4.224592 -1.193393,1.193394 0.09415,4.253777 -3.143392,5.153093 -3.206775,0.890771 -4.773567,-0.358015 -6.802333,-0.358015 -2.028766,0 -6.883479,3.911917 -8.673568,2.121828 -1.790087,-1.790087 -1.828279,-5.702004 -3.379688,-7.253413 -1.670749,-1.670749 -4.3105081,-4.005041 -4.3105081,-6.98852 0,-2.983479 1.7228345,-4.558479 4.1911691,-7.332179 2.546698,-2.8617569 2.625462,-7.1603502 5.608941,-7.1603502 2.983479,0 4.127026,0.8184006 6.666312,0.754226 4.047747,-0.1022974 4.543777,-2.0274984 7.52075,-0.5179309 2.624739,1.3309554 1.288202,4.1169996 2.191,6.2056361 z"
       id="path6600"
       sodipodi:nodetypes="csssssssssssss" />
    <path
       inkscape:connector-curvature="0"
       id="path6612"
       d="m 23.66325,7.0524597 c -5.867816,0 -10.646262,4.7422323 -10.646262,10.6100503 0,3.670993 1.983705,6.780628 4.816166,8.690826 C 25.073625,22.456374 23.786958,15.548148 33.44043,13.606789 31.841424,9.7576868 28.088842,7.0524597 23.66325,7.0524597 z"
       style="color:#000000;fill:url(#linearGradient3227);fill-opacity:1;fill-rule:nonzero;stroke:none;stroke-width:1;marker:none;visibility:visible;display:inline;overflow:visible" />
  </g>
</svg>
