<?xml version="1.0" encoding="UTF-8" standalone="no"?>
<!-- Created with Inkscape (http://www.inkscape.org/) -->

<svg
   xmlns:dc="http://purl.org/dc/elements/1.1/"
   xmlns:cc="http://creativecommons.org/ns#"
   xmlns:rdf="http://www.w3.org/1999/02/22-rdf-syntax-ns#"
   xmlns:svg="http://www.w3.org/2000/svg"
   xmlns="http://www.w3.org/2000/svg"
   xmlns:xlink="http://www.w3.org/1999/xlink"
   xmlns:sodipodi="http://sodipodi.sourceforge.net/DTD/sodipodi-0.dtd"
   xmlns:inkscape="http://www.inkscape.org/namespaces/inkscape"
   id="svg2890"
   height="22"
   width="22"
   version="1.0"
   inkscape:version="0.48.1 r9760"
   sodipodi:docname="media-optical-burn.svg">
  <metadata
     id="metadata69">
    <rdf:RDF>
      <cc:Work
         rdf:about="">
        <dc:format>image/svg+xml</dc:format>
        <dc:type
           rdf:resource="http://purl.org/dc/dcmitype/StillImage" />
        <dc:title></dc:title>
      </cc:Work>
    </rdf:RDF>
  </metadata>
  <sodipodi:namedview
     pagecolor="#ffffff"
     bordercolor="#666666"
     borderopacity="1"
     objecttolerance="10"
     gridtolerance="10"
     guidetolerance="10"
     inkscape:pageopacity="0"
     inkscape:pageshadow="2"
     inkscape:window-width="640"
     inkscape:window-height="480"
     id="namedview67"
     showgrid="false"
     inkscape:zoom="7.7779235"
     inkscape:cx="21.841105"
     inkscape:cy="4.0373196"
     inkscape:current-layer="g3136" />
  <defs
     id="defs2892">
    <linearGradient
       id="linearGradient6036">
      <stop
         id="stop6038"
         style="stop-color:#fff"
         offset="0" />
      <stop
         id="stop6040"
         style="stop-color:#fff;stop-opacity:0"
         offset="1" />
    </linearGradient>
    <linearGradient
       id="linearGradient3519">
      <stop
         id="stop3521"
         style="stop-color:#fcd9cd"
         offset="0" />
      <stop
         id="stop3523"
         style="stop-color:#fcd9cd;stop-opacity:0"
         offset="1" />
    </linearGradient>
    <linearGradient
       id="linearGradient3511">
      <stop
         id="stop3513"
         style="stop-color:#ebeec7"
         offset="0" />
      <stop
         id="stop3515"
         style="stop-color:#ebeec7;stop-opacity:0"
         offset="1" />
    </linearGradient>
    <linearGradient
       id="linearGradient3503">
      <stop
         id="stop3505"
         style="stop-color:#c4ebdd"
         offset="0" />
      <stop
         id="stop3507"
         style="stop-color:#c4ebdd;stop-opacity:0"
         offset="1" />
    </linearGradient>
    <linearGradient
       id="linearGradient3495">
      <stop
         id="stop3497"
         style="stop-color:#c1cbe4"
         offset="0" />
      <stop
         id="stop3499"
         style="stop-color:#c1cbe4;stop-opacity:0"
         offset="1" />
    </linearGradient>
    <linearGradient
       id="linearGradient3487">
      <stop
         id="stop3489"
         style="stop-color:#e6cde2"
         offset="0" />
      <stop
         id="stop3491"
         style="stop-color:#e6cde2;stop-opacity:0"
         offset="1" />
    </linearGradient>
    <linearGradient
       id="linearGradient3456"
       y2="14.203"
       gradientUnits="userSpaceOnUse"
       x2="35.391"
       gradientTransform="matrix(0 .60001 -.60001 0 25.86 -2.4001)"
       y1="32.416"
       x1="12.274">
      <stop
         id="stop3265"
         style="stop-color:#dedbde"
         offset="0" />
      <stop
         id="stop3267"
         style="stop-color:#e6e6e6"
         offset=".5" />
      <stop
         id="stop3269"
         style="stop-color:#d2d2d2"
         offset="1" />
    </linearGradient>
    <linearGradient
       id="linearGradient3458"
       y2="45.033"
       gradientUnits="userSpaceOnUse"
       x2="-21.916"
       gradientTransform="matrix(.51220 0 0 .51220 25.453 -.29268)"
       y1="3"
       x1="-21.916">
      <stop
         id="stop3774"
         style="stop-color:#b4b4b4"
         offset="0" />
      <stop
         id="stop3776"
         style="stop-color:#969696"
         offset="1" />
    </linearGradient>
    <linearGradient
       id="linearGradient3460"
       y2="32.509"
       gradientUnits="userSpaceOnUse"
       x2="21.448"
       gradientTransform="matrix(.43750 0 0 .43750 1.5 1.5)"
       y1="15.5"
       x1="21.448">
      <stop
         id="stop3430"
         style="stop-color:#aaa"
         offset="0" />
      <stop
         id="stop3432"
         style="stop-color:#d4d4d4"
         offset="1" />
    </linearGradient>
    <linearGradient
       id="linearGradient3462"
       y2="45.962"
       xlink:href="#linearGradient6036"
       gradientUnits="userSpaceOnUse"
       x2="18.203"
       gradientTransform="matrix(.22730 0 0 .22730 6.4659 6.3175)"
       y1="4.0378"
       x1="18.776" />
    <linearGradient
       id="linearGradient3464"
       y2="9.8622"
       xlink:href="#linearGradient3487"
       spreadMethod="reflect"
       gradientUnits="userSpaceOnUse"
       x2="24.274"
       y1="10.775"
       x1="20.58" />
    <linearGradient
       id="linearGradient3466"
       y2="9.7956"
       xlink:href="#linearGradient3495"
       spreadMethod="reflect"
       gradientUnits="userSpaceOnUse"
       x2="21.047"
       y1="11.2"
       x1="17.495" />
    <linearGradient
       id="linearGradient3468"
       y2="10.732"
       xlink:href="#linearGradient3503"
       spreadMethod="reflect"
       gradientUnits="userSpaceOnUse"
       x2="16.994"
       y1="13.046"
       x1="14.085" />
    <linearGradient
       id="linearGradient3470"
       y2="13.462"
       xlink:href="#linearGradient3511"
       spreadMethod="reflect"
       gradientUnits="userSpaceOnUse"
       x2="14.609"
       y1="16.188"
       x1="12.372" />
    <linearGradient
       id="linearGradient3472"
       y2="20.613"
       xlink:href="#linearGradient3519"
       spreadMethod="reflect"
       gradientUnits="userSpaceOnUse"
       x2="9.7298"
       y1="17.886"
       x1="10.609" />
    <linearGradient
       id="linearGradient3474"
       y2="54.698"
       xlink:href="#linearGradient6036"
       gradientUnits="userSpaceOnUse"
       x2="48.799"
       gradientTransform="matrix(.48201 0 0 .48201 .26461 -.050137)"
       y1="3.61"
       x1="10.502" />
    <linearGradient
       y2="39.268002"
       x2="24.139"
       y1="7.0479002"
       x1="24.139"
       gradientTransform="matrix(0.2818,0,0,0.2801,-24.962224,11.790978)"
       gradientUnits="userSpaceOnUse"
       id="linearGradient4100"
       xlink:href="#linearGradient5530"
       inkscape:collect="always" />
    <linearGradient
       y2="51.243999"
       x2="72.421997"
       y1="124.76"
       x1="72.421997"
       gradientTransform="matrix(0.14823,0,0,0.14944,-31.697724,5.1256783)"
       gradientUnits="userSpaceOnUse"
       id="linearGradient4098"
       xlink:href="#linearGradient3088"
       inkscape:collect="always" />
    <radialGradient
       r="31"
       cy="51.695"
       cx="69.447998"
       gradientTransform="matrix(0,0.35684,-0.3882,0,0.207776,-10.345022)"
       gradientUnits="userSpaceOnUse"
       id="radialGradient4096"
       xlink:href="#radialGradient3086"
       inkscape:collect="always" />
    <linearGradient
       x1="72.421997"
       x2="72.421997"
       gradientTransform="matrix(0.14823,0,0,0.14944,3.4435,3.3567)"
       y1="124.76"
       gradientUnits="userSpaceOnUse"
       y2="51.243999"
       id="linearGradient3088">
      <stop
         offset="0"
         style="stop-color:#365f0e"
         id="stop2492-3" />
      <stop
         offset="1"
         style="stop-color:#84a718"
         id="stop2494-8" />
    </linearGradient>
    <radialGradient
       gradientTransform="matrix(0,0.35684,-0.3882,0,35.349,-12.114)"
       r="31"
       cy="51.695"
       cx="69.447998"
       gradientUnits="userSpaceOnUse"
       id="radialGradient3086">
      <stop
         offset="0"
         style="stop-color:#eef87e"
         id="stop3244-5" />
      <stop
         offset=".26238"
         style="stop-color:#cde34f"
         id="stop3246-9" />
      <stop
         offset=".66094"
         style="stop-color:#93b723"
         id="stop3248-7" />
      <stop
         offset="1"
         style="stop-color:#5a7e0d"
         id="stop3250-8" />
    </radialGradient>
    <linearGradient
       x1="24.139"
       y1="7.0479002"
       gradientTransform="matrix(0.2818,0,0,0.2801,10.179,10.022)"
       x2="24.139"
       gradientUnits="userSpaceOnUse"
       y2="39.268002"
       id="linearGradient5530">
      <stop
         offset="0"
         style="stop-color:#fff"
         id="stop3945" />
      <stop
         offset="1"
         style="stop-color:#fff;stop-opacity:0"
         id="stop3947" />
    </linearGradient>
  </defs>
  <g
     id="layer1">
    <g
       id="g3437"
       transform="translate(-1 -1)">
      <path
         id="path2781"
         style="stroke:url(#linearGradient3458);fill:url(#linearGradient3456)"
         d="m22.5 12c0-5.8201-4.68-10.5-10.5-10.5-5.8201 0-10.5 4.6799-10.5 10.5 0 5.82 4.6799 10.5 10.5 10.5 5.82 0 10.5-4.68 10.5-10.5zm-7 0c0 1.971-1.57 3.5-3.5 3.5-1.971 0-3.5-1.655-3.5-3.5 0-1.886 1.4638-3.5 3.5-3.5 2.078 0 3.5 1.4877 3.5 3.5z" />
      <path
         id="path2474"
         style="opacity:.5;fill:#fff"
         d="m12 8.0851c-2.161 0-3.9149 1.7539-3.9149 3.9149s1.7539 3.915 3.9149 3.915 3.915-1.754 3.915-3.915-1.754-3.9149-3.915-3.9149zm0 1.9579c1.081 0 1.957 0.876 1.957 1.957s-0.876 1.957-1.957 1.957-1.957-0.876-1.957-1.957 0.876-1.957 1.957-1.957z" />
      <path
         id="path3418"
         style="stroke-linejoin:round;stroke:url(#linearGradient3460);fill:none"
         d="m12 8.5c-1.932 0-3.5 1.568-3.5 3.5s1.568 3.5 3.5 3.5 3.5-1.568 3.5-3.5-1.568-3.5-3.5-3.5zm0 1.75c0.966 0 1.75 0.784 1.75 1.75s-0.784 1.75-1.75 1.75-1.75-0.784-1.75-1.75 0.784-1.75 1.75-1.75z" />
      <path
         id="path3281"
         style="opacity:.8;stroke:url(#linearGradient3462);fill:none"
         d="m12 7.5c-2.4943 0-4.5 2.0057-4.5 4.5 0 2.494 2.0057 4.5 4.5 4.5 2.494 0 4.5-2.006 4.5-4.5 0-2.4943-2.006-4.5-4.5-4.5z" />
      <g
         id="g3527"
         transform="matrix(.48936 0 0 .48936 .2553 .2553)">
        <path
           id="path3296"
           style="opacity:.8;fill:url(#linearGradient3464)"
           d="m15.857 5.7308l4.768 10.613c1.035-0.459 2.17-0.719 3.375-0.719h0.094l0.014-11.62c-2.942-0.0709-5.543 0.657-8.251 1.7258z"
           transform="matrix(.99960 .028243 -.028243 .99960 .69241 -.67083)" />
        <path
           id="path3308"
           style="opacity:.8;fill:url(#linearGradient3466)"
           d="m12.121 7.906l6.931 9.36c0.914-0.67 1.966-1.167 3.143-1.425 0.031-0.007 0.06-0.014 0.092-0.02l-2.43-11.395c-2.889 0.5616-5.319 1.8559-7.736 3.48z" />
        <path
           id="path3310"
           style="opacity:.8;fill:url(#linearGradient3468)"
           d="m8.2524 11.647l9.2136 7.155c0.709-0.883 1.597-1.636 2.667-2.19 0.028-0.014 0.054-0.028 0.083-0.043l-5.35-10.318c-2.645 1.2895-4.7 3.2014-6.6136 5.396z" />
        <path
           id="path3312"
           style="opacity:.8;fill:url(#linearGradient3470)"
           d="m5.6329 16.074c7.1751 2.242 7.8501 7.031 12.777 1.754l-7.91-8.6959c-2.2213 1.9309-3.5867 4.3269-4.8671 6.9419z" />
        <path
           id="path3314"
           style="opacity:.8;fill:url(#linearGradient3472)"
           d="m7.1553 13.193c-1.1831 1.752-1.9077 3.637-2.5251 5.644l11.339 2.975c0.215-0.763 0.518-1.514 0.969-2.218 0.017-0.027 0.044-0.067 0.062-0.094l-9.8447-6.307z" />
      </g>
      <path
         id="path3272"
         style="opacity:.5;stroke:url(#linearGradient3474);fill:none"
         d="m12 2.4574c-5.2893 0-9.5426 4.2533-9.5426 9.5426 0 5.289 4.2533 9.543 9.5426 9.543 5.289 0 9.543-4.254 9.543-9.543 0-5.2893-4.254-9.5426-9.543-9.5426z" />
      <g
         id="g3297"
         transform="matrix(-.48936 0 0 -.48936 23.745 23.74)">
        <path
           id="path3299"
           style="opacity:.8;fill:url(#linearGradient3464)"
           d="m15.857 5.7308l4.768 10.613c1.035-0.459 2.17-0.719 3.375-0.719h0.094l0.014-11.62c-2.942-0.0709-5.543 0.657-8.251 1.7258z"
           transform="matrix(.99960 .028243 -.028243 .99960 .69241 -.67083)" />
        <path
           id="path3301"
           style="opacity:.8;fill:url(#linearGradient3466)"
           d="m12.121 7.906l6.931 9.36c0.914-0.67 1.966-1.167 3.143-1.425 0.031-0.007 0.06-0.014 0.092-0.02l-2.43-11.395c-2.889 0.5616-5.319 1.8559-7.736 3.48z" />
        <path
           id="path3303"
           style="opacity:.8;fill:url(#linearGradient3468)"
           d="m8.2524 11.647l9.2136 7.155c0.709-0.883 1.597-1.636 2.667-2.19 0.028-0.014 0.054-0.028 0.083-0.043l-5.35-10.318c-2.645 1.2895-4.7 3.2014-6.6136 5.396z" />
        <path
           id="path3305"
           style="opacity:.8;fill:url(#linearGradient3470)"
           d="m5.6329 16.074c7.1751 2.242 7.8501 7.031 12.777 1.754l-7.91-8.6959c-2.2213 1.9309-3.5867 4.3269-4.8671 6.9419z" />
        <path
           id="path3307"
           style="opacity:.8;fill:url(#linearGradient3472)"
           d="m7.1553 13.193c-1.1831 1.752-1.9077 3.637-2.5251 5.644l11.339 2.975c0.215-0.763 0.518-1.514 0.969-2.218 0.017-0.027 0.044-0.067 0.062-0.094l-9.8447-6.307z" />
      </g>
    </g>
  </g>
  <g
     id="g3136"
     transform="translate(-23.471195,-2.2759196)">
    <g
       id="g3151"
       transform="matrix(1.2788312,0,0,1.2723975,62.310524,-5.9688889)">
      <path
         d="m -20.659224,16.275978 v -3 h 4 v 3 h 3 v 4 h -3 v 3 h -4 v -3 h -2.9895 v -4 h 2.9895 z"
         style="color:#000000;fill:url(#radialGradient4096);stroke:url(#linearGradient4098);stroke-width:0.98543;stroke-linecap:round;stroke-linejoin:round"
         id="path2262"
         inkscape:connector-curvature="0" />
      <path
         d="m -19.659224,17.275978 v -3 h 2 v 3 h 3 v 2 h -3 v 3 h -2 v -3 h -3 v -2 h 3 z"
         style="opacity:0.4;fill:none;stroke:url(#linearGradient4100)"
         id="path2272"
         inkscape:connector-curvature="0" />
    </g>
  </g>
</svg>
