<?xml version="1.0" encoding="UTF-8" standalone="no"?>
<!-- Created with Inkscape (http://www.inkscape.org/) -->

<svg
   xmlns:dc="http://purl.org/dc/elements/1.1/"
   xmlns:cc="http://creativecommons.org/ns#"
   xmlns:rdf="http://www.w3.org/1999/02/22-rdf-syntax-ns#"
   xmlns:svg="http://www.w3.org/2000/svg"
   xmlns="http://www.w3.org/2000/svg"
   xmlns:xlink="http://www.w3.org/1999/xlink"
   xmlns:sodipodi="http://sodipodi.sourceforge.net/DTD/sodipodi-0.dtd"
   xmlns:inkscape="http://www.inkscape.org/namespaces/inkscape"
   id="svg2890"
   height="22"
   width="22"
   version="1.0"
   inkscape:version="0.48.1 r9760"
   sodipodi:docname="media-optical-data-new.svg">
  <metadata
     id="metadata69">
    <rdf:RDF>
      <cc:Work
         rdf:about="">
        <dc:format>image/svg+xml</dc:format>
        <dc:type
           rdf:resource="http://purl.org/dc/dcmitype/StillImage" />
        <dc:title></dc:title>
      </cc:Work>
    </rdf:RDF>
  </metadata>
  <sodipodi:namedview
     pagecolor="#ffffff"
     bordercolor="#666666"
     borderopacity="1"
     objecttolerance="10"
     gridtolerance="10"
     guidetolerance="10"
     inkscape:pageopacity="0"
     inkscape:pageshadow="2"
     inkscape:window-width="640"
     inkscape:window-height="480"
     id="namedview67"
     showgrid="false"
     inkscape:zoom="15.95082"
     inkscape:cx="-9.137461"
     inkscape:cy="12.697659"
     inkscape:current-layer="svg2890" />
  <defs
     id="defs2892">
    <linearGradient
       id="linearGradient6036">
      <stop
         id="stop6038"
         style="stop-color:#fff"
         offset="0" />
      <stop
         id="stop6040"
         style="stop-color:#fff;stop-opacity:0"
         offset="1" />
    </linearGradient>
    <linearGradient
       id="linearGradient3519">
      <stop
         id="stop3521"
         style="stop-color:#fcd9cd"
         offset="0" />
      <stop
         id="stop3523"
         style="stop-color:#fcd9cd;stop-opacity:0"
         offset="1" />
    </linearGradient>
    <linearGradient
       id="linearGradient3511">
      <stop
         id="stop3513"
         style="stop-color:#ebeec7"
         offset="0" />
      <stop
         id="stop3515"
         style="stop-color:#ebeec7;stop-opacity:0"
         offset="1" />
    </linearGradient>
    <linearGradient
       id="linearGradient3503">
      <stop
         id="stop3505"
         style="stop-color:#c4ebdd"
         offset="0" />
      <stop
         id="stop3507"
         style="stop-color:#c4ebdd;stop-opacity:0"
         offset="1" />
    </linearGradient>
    <linearGradient
       id="linearGradient3495">
      <stop
         id="stop3497"
         style="stop-color:#c1cbe4"
         offset="0" />
      <stop
         id="stop3499"
         style="stop-color:#c1cbe4;stop-opacity:0"
         offset="1" />
    </linearGradient>
    <linearGradient
       id="linearGradient3487">
      <stop
         id="stop3489"
         style="stop-color:#e6cde2"
         offset="0" />
      <stop
         id="stop3491"
         style="stop-color:#e6cde2;stop-opacity:0"
         offset="1" />
    </linearGradient>
    <linearGradient
       id="linearGradient3456"
       y2="14.203"
       gradientUnits="userSpaceOnUse"
       x2="35.391"
       gradientTransform="matrix(0 .60001 -.60001 0 25.86 -2.4001)"
       y1="32.416"
       x1="12.274">
      <stop
         id="stop3265"
         style="stop-color:#dedbde"
         offset="0" />
      <stop
         id="stop3267"
         style="stop-color:#e6e6e6"
         offset=".5" />
      <stop
         id="stop3269"
         style="stop-color:#d2d2d2"
         offset="1" />
    </linearGradient>
    <linearGradient
       id="linearGradient3458"
       y2="45.033"
       gradientUnits="userSpaceOnUse"
       x2="-21.916"
       gradientTransform="matrix(.51220 0 0 .51220 25.453 -.29268)"
       y1="3"
       x1="-21.916">
      <stop
         id="stop3774"
         style="stop-color:#b4b4b4"
         offset="0" />
      <stop
         id="stop3776"
         style="stop-color:#969696"
         offset="1" />
    </linearGradient>
    <linearGradient
       id="linearGradient3460"
       y2="32.509"
       gradientUnits="userSpaceOnUse"
       x2="21.448"
       gradientTransform="matrix(.43750 0 0 .43750 1.5 1.5)"
       y1="15.5"
       x1="21.448">
      <stop
         id="stop3430"
         style="stop-color:#aaa"
         offset="0" />
      <stop
         id="stop3432"
         style="stop-color:#d4d4d4"
         offset="1" />
    </linearGradient>
    <linearGradient
       id="linearGradient3462"
       y2="45.962"
       xlink:href="#linearGradient6036"
       gradientUnits="userSpaceOnUse"
       x2="18.203"
       gradientTransform="matrix(.22730 0 0 .22730 6.4659 6.3175)"
       y1="4.0378"
       x1="18.776" />
    <linearGradient
       id="linearGradient3464"
       y2="9.8622"
       xlink:href="#linearGradient3487"
       spreadMethod="reflect"
       gradientUnits="userSpaceOnUse"
       x2="24.274"
       y1="10.775"
       x1="20.58" />
    <linearGradient
       id="linearGradient3466"
       y2="9.7956"
       xlink:href="#linearGradient3495"
       spreadMethod="reflect"
       gradientUnits="userSpaceOnUse"
       x2="21.047"
       y1="11.2"
       x1="17.495" />
    <linearGradient
       id="linearGradient3468"
       y2="10.732"
       xlink:href="#linearGradient3503"
       spreadMethod="reflect"
       gradientUnits="userSpaceOnUse"
       x2="16.994"
       y1="13.046"
       x1="14.085" />
    <linearGradient
       id="linearGradient3470"
       y2="13.462"
       xlink:href="#linearGradient3511"
       spreadMethod="reflect"
       gradientUnits="userSpaceOnUse"
       x2="14.609"
       y1="16.188"
       x1="12.372" />
    <linearGradient
       id="linearGradient3472"
       y2="20.613"
       xlink:href="#linearGradient3519"
       spreadMethod="reflect"
       gradientUnits="userSpaceOnUse"
       x2="9.7298"
       y1="17.886"
       x1="10.609" />
    <linearGradient
       id="linearGradient3474"
       y2="54.698"
       xlink:href="#linearGradient6036"
       gradientUnits="userSpaceOnUse"
       x2="48.799"
       gradientTransform="matrix(.48201 0 0 .48201 .26461 -.050137)"
       y1="3.61"
       x1="10.502" />
    <linearGradient
       gradientTransform="translate(-7.982096,-8.042067)"
       gradientUnits="userSpaceOnUse"
       xlink:href="#linearGradient3104"
       id="linearGradient2553"
       y2="7.4760718"
       x2="21.982096"
       y1="28.717724"
       x1="21.982096" />
    <linearGradient
       id="linearGradient3104">
      <stop
         offset="0"
         style="stop-color:#aaaaaa;stop-opacity:1"
         id="stop3106" />
      <stop
         offset="1"
         style="stop-color:#c8c8c8;stop-opacity:1"
         id="stop3108" />
    </linearGradient>
    <linearGradient
       gradientTransform="matrix(0.3142872,0,0,0.3259268,0.4571068,-0.3222465)"
       gradientUnits="userSpaceOnUse"
       xlink:href="#linearGradient3600"
       id="linearGradient2517"
       y2="47.013336"
       x2="25.132275"
       y1="0.98520643"
       x1="25.132275" />
    <linearGradient
       id="linearGradient3600">
      <stop
         offset="0"
         style="stop-color:#f4f4f4;stop-opacity:1"
         id="stop3602" />
      <stop
         offset="1"
         style="stop-color:#dbdbdb;stop-opacity:1"
         id="stop3604" />
    </linearGradient>
    <linearGradient
       gradientTransform="matrix(0.2537858,0,0,0.3050189,19.128982,-0.6854851)"
       gradientUnits="userSpaceOnUse"
       xlink:href="#linearGradient3104"
       id="linearGradient2519"
       y2="2.9062471"
       x2="-51.786404"
       y1="50.786446"
       x1="-51.786404" />
    <linearGradient
       gradientTransform="matrix(0.2727267,0,0,0.302325,1.4545607,0.7441991)"
       gradientUnits="userSpaceOnUse"
       xlink:href="#linearGradient3211"
       id="linearGradient2511"
       y2="46.01725"
       x2="24"
       y1="1.9999999"
       x1="24" />
    <linearGradient
       id="linearGradient3211">
      <stop
         offset="0"
         style="stop-color:#ffffff;stop-opacity:1"
         id="stop3213" />
      <stop
         offset="1"
         style="stop-color:#ffffff;stop-opacity:0"
         id="stop3215" />
    </linearGradient>
    <linearGradient
       gradientTransform="matrix(0.3091956,0,0,0.3766935,0.4761461,0.1071779)"
       gradientUnits="userSpaceOnUse"
       xlink:href="#linearGradient8589"
       id="linearGradient2507"
       y2="5.4565363"
       x2="36.358372"
       y1="8.0590115"
       x1="32.892288" />
    <linearGradient
       id="linearGradient8589">
      <stop
         offset="0"
         style="stop-color:#fefefe;stop-opacity:1"
         id="stop8591" />
      <stop
         offset="1"
         style="stop-color:#cbcbcb;stop-opacity:1"
         id="stop8593" />
    </linearGradient>
  </defs>
  <g
     id="layer1">
    <g
       id="g3437"
       transform="translate(-1 -1)">
      <path
         id="path2781"
         style="stroke:url(#linearGradient3458);fill:url(#linearGradient3456)"
         d="m22.5 12c0-5.8201-4.68-10.5-10.5-10.5-5.8201 0-10.5 4.6799-10.5 10.5 0 5.82 4.6799 10.5 10.5 10.5 5.82 0 10.5-4.68 10.5-10.5zm-7 0c0 1.971-1.57 3.5-3.5 3.5-1.971 0-3.5-1.655-3.5-3.5 0-1.886 1.4638-3.5 3.5-3.5 2.078 0 3.5 1.4877 3.5 3.5z" />
      <path
         id="path2474"
         style="opacity:.5;fill:#fff"
         d="m12 8.0851c-2.161 0-3.9149 1.7539-3.9149 3.9149s1.7539 3.915 3.9149 3.915 3.915-1.754 3.915-3.915-1.754-3.9149-3.915-3.9149zm0 1.9579c1.081 0 1.957 0.876 1.957 1.957s-0.876 1.957-1.957 1.957-1.957-0.876-1.957-1.957 0.876-1.957 1.957-1.957z" />
      <path
         id="path3418"
         style="stroke-linejoin:round;stroke:url(#linearGradient3460);fill:none"
         d="m12 8.5c-1.932 0-3.5 1.568-3.5 3.5s1.568 3.5 3.5 3.5 3.5-1.568 3.5-3.5-1.568-3.5-3.5-3.5zm0 1.75c0.966 0 1.75 0.784 1.75 1.75s-0.784 1.75-1.75 1.75-1.75-0.784-1.75-1.75 0.784-1.75 1.75-1.75z" />
      <path
         id="path3281"
         style="opacity:.8;stroke:url(#linearGradient3462);fill:none"
         d="m12 7.5c-2.4943 0-4.5 2.0057-4.5 4.5 0 2.494 2.0057 4.5 4.5 4.5 2.494 0 4.5-2.006 4.5-4.5 0-2.4943-2.006-4.5-4.5-4.5z" />
      <g
         id="g3527"
         transform="matrix(.48936 0 0 .48936 .2553 .2553)">
        <path
           id="path3296"
           style="opacity:.8;fill:url(#linearGradient3464)"
           d="m15.857 5.7308l4.768 10.613c1.035-0.459 2.17-0.719 3.375-0.719h0.094l0.014-11.62c-2.942-0.0709-5.543 0.657-8.251 1.7258z"
           transform="matrix(.99960 .028243 -.028243 .99960 .69241 -.67083)" />
        <path
           id="path3308"
           style="opacity:.8;fill:url(#linearGradient3466)"
           d="m12.121 7.906l6.931 9.36c0.914-0.67 1.966-1.167 3.143-1.425 0.031-0.007 0.06-0.014 0.092-0.02l-2.43-11.395c-2.889 0.5616-5.319 1.8559-7.736 3.48z" />
        <path
           id="path3310"
           style="opacity:.8;fill:url(#linearGradient3468)"
           d="m8.2524 11.647l9.2136 7.155c0.709-0.883 1.597-1.636 2.667-2.19 0.028-0.014 0.054-0.028 0.083-0.043l-5.35-10.318c-2.645 1.2895-4.7 3.2014-6.6136 5.396z" />
        <path
           id="path3312"
           style="opacity:.8;fill:url(#linearGradient3470)"
           d="m5.6329 16.074c7.1751 2.242 7.8501 7.031 12.777 1.754l-7.91-8.6959c-2.2213 1.9309-3.5867 4.3269-4.8671 6.9419z" />
        <path
           id="path3314"
           style="opacity:.8;fill:url(#linearGradient3472)"
           d="m7.1553 13.193c-1.1831 1.752-1.9077 3.637-2.5251 5.644l11.339 2.975c0.215-0.763 0.518-1.514 0.969-2.218 0.017-0.027 0.044-0.067 0.062-0.094l-9.8447-6.307z" />
      </g>
      <path
         id="path3272"
         style="opacity:.5;stroke:url(#linearGradient3474);fill:none"
         d="m12 2.4574c-5.2893 0-9.5426 4.2533-9.5426 9.5426 0 5.289 4.2533 9.543 9.5426 9.543 5.289 0 9.543-4.254 9.543-9.543 0-5.2893-4.254-9.5426-9.543-9.5426z" />
      <g
         id="g3297"
         transform="matrix(-.48936 0 0 -.48936 23.745 23.74)">
        <path
           id="path3299"
           style="opacity:.8;fill:url(#linearGradient3464)"
           d="m15.857 5.7308l4.768 10.613c1.035-0.459 2.17-0.719 3.375-0.719h0.094l0.014-11.62c-2.942-0.0709-5.543 0.657-8.251 1.7258z"
           transform="matrix(.99960 .028243 -.028243 .99960 .69241 -.67083)" />
        <path
           id="path3301"
           style="opacity:.8;fill:url(#linearGradient3466)"
           d="m12.121 7.906l6.931 9.36c0.914-0.67 1.966-1.167 3.143-1.425 0.031-0.007 0.06-0.014 0.092-0.02l-2.43-11.395c-2.889 0.5616-5.319 1.8559-7.736 3.48z" />
        <path
           id="path3303"
           style="opacity:.8;fill:url(#linearGradient3468)"
           d="m8.2524 11.647l9.2136 7.155c0.709-0.883 1.597-1.636 2.667-2.19 0.028-0.014 0.054-0.028 0.083-0.043l-5.35-10.318c-2.645 1.2895-4.7 3.2014-6.6136 5.396z" />
        <path
           id="path3305"
           style="opacity:.8;fill:url(#linearGradient3470)"
           d="m5.6329 16.074c7.1751 2.242 7.8501 7.031 12.777 1.754l-7.91-8.6959c-2.2213 1.9309-3.5867 4.3269-4.8671 6.9419z" />
        <path
           id="path3307"
           style="opacity:.8;fill:url(#linearGradient3472)"
           d="m7.1553 13.193c-1.1831 1.752-1.9077 3.637-2.5251 5.644l11.339 2.975c0.215-0.763 0.518-1.514 0.969-2.218 0.017-0.027 0.044-0.067 0.062-0.094l-9.8447-6.307z" />
      </g>
    </g>
  </g>
  <g
     id="layer1-9"
     transform="matrix(0.87381309,0,0,0.87381309,9.7304855,8.0189951)">
    <g
       id="g2584">
      <path
         style="fill:url(#linearGradient2517);fill-opacity:1;stroke:url(#linearGradient2519);stroke-width:0.99992162;stroke-linecap:butt;stroke-linejoin:round;stroke-miterlimit:4;stroke-opacity:1;stroke-dasharray:none;stroke-dashoffset:0;display:inline"
         id="path4160"
         d="m 2.4999615,0.4999664 c 2.5206756,0 4.920542,0 7.44122,0 0.4421795,0.1617935 2.9385125,2.1328451 3.5588315,3.4091211 0,3.906246 2.6e-5,7.6846975 2.6e-5,11.5909465 -3.6666935,0 -7.3333849,0 -11.0000775,0 0,-5.000023 0,-10.0000465 0,-15.0000676 z"
         inkscape:connector-curvature="0" />
      <path
         style="opacity:0.6;fill:none;stroke:url(#linearGradient2511);stroke-width:0.99999994;stroke-linecap:butt;stroke-linejoin:miter;stroke-miterlimit:4;stroke-opacity:1;stroke-dasharray:none;stroke-dashoffset:0;display:inline"
         id="path2435"
         d="m 12.5,4.2150736 c 0,3.3853981 0,6.8995284 0,10.2849274 -2.999999,0 -5.999999,0 -8.9999999,0 0,-4.333337 0,-8.6666684 0,-13.000001 2.0623569,0 4.1738996,0 6.2362576,0"
         inkscape:connector-curvature="0" />
      <path
         style="fill:#c1c1c1;fill-opacity:1;fill-rule:evenodd;stroke:none;display:inline"
         id="path3330"
         d="M 9.2941205,0.8409023 C 10.142028,3.6448055 9,5.0341186 9,5.0341186 c 0,0 1.892807,-1.2514061 4.171354,-0.1023041 1.942856,0.9798084 0.03608,-1.008024 -0.04146,-1.129046 C 12.586944,2.9552643 10.707454,1.1696619 10.025256,0.8725867 9.9696235,0.8483603 9.5814385,0.8409023 9.2941205,0.8409023 z"
         inkscape:connector-curvature="0" />
      <path
         style="fill:url(#linearGradient2507);fill-opacity:1;fill-rule:evenodd;stroke:none;display:inline"
         id="path4474"
         d="M 9.2941205,0.8409023 C 10.281641,0.8409023 10,4.0219212 10,4.0219212 c 0,0 2.272472,-0.5007314 3.171354,0.9098933 0.162882,0.2556128 0.03608,-1.008024 -0.04146,-1.129046 C 12.586944,2.9552643 10.707454,1.1696619 10.025256,0.8725867 9.9696235,0.8483603 9.5814385,0.8409023 9.2941205,0.8409023 z"
         inkscape:connector-curvature="0" />
    </g>
    <path
       style="fill:none;stroke:url(#linearGradient2553);stroke-width:1px;stroke-linecap:butt;stroke-linejoin:miter;stroke-opacity:1"
       id="path2551"
       d="m 5,3.5050064 2.34375,0 -2.34375,0 z m 2.6875,0 2.1875,0 -2.1875,0 z m -2.6875,2 3.65625,0 -3.65625,0 z m 4.0625,0 1.75,0 -1.75,0 z M 5,8.5080331 l 3.09375,0 -3.09375,0 z m 3.40625,0 2.68499,0 -2.68499,0 z M 5,12.5 7.34375,12.5 5,12.5 z m 2.6875,0 2.15625,0 -2.15625,0 z M 5,10.5 8.875,10.5 5,10.5 z m 4.21875,0 1.75,0 -1.75,0 z"
       inkscape:connector-curvature="0" />
  </g>
</svg>
