<?xml version="1.0" encoding="UTF-8" standalone="no"?>
<!-- Created with Inkscape (http://www.inkscape.org/) -->

<svg
   xmlns:dc="http://purl.org/dc/elements/1.1/"
   xmlns:cc="http://creativecommons.org/ns#"
   xmlns:rdf="http://www.w3.org/1999/02/22-rdf-syntax-ns#"
   xmlns:svg="http://www.w3.org/2000/svg"
   xmlns="http://www.w3.org/2000/svg"
   xmlns:xlink="http://www.w3.org/1999/xlink"
   xmlns:sodipodi="http://sodipodi.sourceforge.net/DTD/sodipodi-0.dtd"
   xmlns:inkscape="http://www.inkscape.org/namespaces/inkscape"
   width="22"
   height="22"
   id="svg2643"
   sodipodi:version="0.32"
   inkscape:version="0.48.1 r9760"
   version="1.0"
   sodipodi:docname="mixer-front.svg"
   inkscape:output_extension="org.inkscape.output.svg.inkscape"
   inkscape:export-filename="/Users/eve/Documents/GNOME/audio-speaker.png"
   inkscape:export-xdpi="90"
   inkscape:export-ydpi="90">
  <defs
     id="defs2645">
    <linearGradient
       id="linearGradient4389">
      <stop
         style="stop-color:#555753;stop-opacity:1;"
         offset="0"
         id="stop4391" />
      <stop
         id="stop4393"
         offset="1"
         style="stop-color:#eeeeec;stop-opacity:1;" />
    </linearGradient>
    <radialGradient
       inkscape:collect="always"
       xlink:href="#linearGradient4389"
       id="radialGradient7260"
       gradientUnits="userSpaceOnUse"
       gradientTransform="matrix(-1.0538312,-6.3027391e-8,1.2877417e-8,-0.7232676,47.516569,40.378763)"
       spreadMethod="pad"
       cx="22.276297"
       cy="21.099283"
       fx="22.276297"
       fy="21.099283"
       r="20.319138" />
    <radialGradient
       inkscape:collect="always"
       xlink:href="#linearGradient4389"
       id="radialGradient3080"
       gradientUnits="userSpaceOnUse"
       gradientTransform="matrix(-1.0538312,-6.3027391e-8,1.2877417e-8,-0.7232676,47.516569,40.378763)"
       spreadMethod="pad"
       cx="22.276297"
       cy="21.099283"
       fx="22.276297"
       fy="21.099283"
       r="20.319138" />
  </defs>
  <sodipodi:namedview
     id="base"
     pagecolor="#ffffff"
     bordercolor="#666666"
     borderopacity="1.0"
     gridtolerance="10000"
     guidetolerance="10"
     objecttolerance="10"
     inkscape:pageopacity="0.0"
     inkscape:pageshadow="2"
     inkscape:zoom="11.313708"
     inkscape:cx="2.8230697"
     inkscape:cy="15.033864"
     inkscape:document-units="px"
     inkscape:current-layer="layer1"
     showgrid="true"
     inkscape:snap-global="false"
     inkscape:window-width="1366"
     inkscape:window-height="690"
     inkscape:window-x="0"
     inkscape:window-y="24"
     showguides="false"
     inkscape:guide-bbox="true"
     inkscape:window-maximized="1">
    <inkscape:grid
       type="xygrid"
       id="grid2653"
       visible="true"
       enabled="true"
       color="#ff00ff"
       opacity="0.1254902"
       empcolor="#0000f2"
       empopacity="0.25098039"
       empspacing="5"
       snapvisiblegridlinesonly="true" />
    <sodipodi:guide
       orientation="1,0"
       position="23.969062,28.50558"
       id="guide3488" />
    <sodipodi:guide
       orientation="0,1"
       position="17.401268,34.125445"
       id="guide3490" />
  </sodipodi:namedview>
  <metadata
     id="metadata2648">
    <rdf:RDF>
      <cc:Work
         rdf:about="">
        <dc:format>image/svg+xml</dc:format>
        <dc:type
           rdf:resource="http://purl.org/dc/dcmitype/StillImage" />
        <cc:license
           rdf:resource="" />
        <dc:subject>
          <rdf:Bag>
            <rdf:li>audio</rdf:li>
            <rdf:li>device</rdf:li>
            <rdf:li>speaker</rdf:li>
            <rdf:li>output</rdf:li>
            <rdf:li>right</rdf:li>
          </rdf:Bag>
        </dc:subject>
        <dc:title>audio-speaker-right</dc:title>
        <dc:creator>
          <cc:Agent>
            <dc:title>Evangeline McGlynn</dc:title>
          </cc:Agent>
        </dc:creator>
      </cc:Work>
    </rdf:RDF>
  </metadata>
  <g
     inkscape:label="Layer 1"
     inkscape:groupmode="layer"
     id="layer1"
     transform="translate(0,-26)">
    <g
       id="g7248"
       transform="matrix(0.20238066,0.20238066,-0.20238066,0.20238066,17.218503,21.176863)">
      <path
         sodipodi:nodetypes="ccccc"
         id="path5365"
         d="m 14.032699,10.506413 c 6.07143,-3.4821397 13.14286,-3.3928497 19.39286,0 l 2,4.39286 -23.39286,0 2,-4.39286 z"
         style="fill:#babdb6;fill-opacity:1;fill-rule:nonzero;stroke:#2e3436;stroke-width:1;stroke-linecap:butt;stroke-linejoin:miter;stroke-miterlimit:4;stroke-opacity:1;stroke-dashoffset:0;marker:none;visibility:visible;display:inline;overflow:visible;enable-background:accumulate"
         inkscape:connector-curvature="0" />
      <path
         sodipodi:nodetypes="csssccsssc"
         d="m 45.604129,27.934983 c 0,0 -4.54743,-8.68677 -9.8613,-12.93926 -0.21063,-0.16856 -0.42247,-0.33016 -0.63527,-0.48397 -0.50204,-0.36286 -1.00946,-0.68239 -1.51919,-0.94787 -0.56896,-0.29634 -1.14078,-0.52533 -1.71117,-0.67205 -3.88321,-1.01934 -11.71652,-1.06249 -15.58966,-0.04613 -0.83989,0.21914 -1.6816,0.61173 -2.51203,1.13191 -0.62524,0.39166 -1.24409,0.85564 -1.85095,1.37236 -1.87112,1.5932 -3.6283094,3.68784 -5.1077694,5.71001 -2.59659,3.54911 -4.33766,6.875 -4.33766,6.875"
         style="fill:#babdb6;fill-opacity:1;fill-rule:evenodd;stroke:none"
         id="path5367"
         inkscape:connector-curvature="0" />
      <path
         style="fill:none;stroke:#888a83;stroke-width:1;stroke-linecap:butt;stroke-linejoin:miter;stroke-miterlimit:4;stroke-opacity:1;stroke-dashoffset:0;marker:none;visibility:visible;display:inline;overflow:visible;enable-background:accumulate"
         d="m 12.534499,15.979023 2.18704,-4.766 c 5.261057,-2.7432797 11.220313,-3.3671697 17.939063,-0.0056 l 1.96851,4.2035"
         id="path5369"
         sodipodi:nodetypes="cccc"
         inkscape:connector-curvature="0" />
      <path
         sodipodi:nodetypes="cccc"
         d="m 44.708609,28.523883 c 0,0 -6.30803,-12.92857 -13.07068,-14.66816 -3.88321,-1.01933 -11.18527,-1.06248 -15.05841,-0.04613 -6.8441198,1.78572 -11.8396594,12.46429 -11.8396594,12.46429"
         style="fill:#555753;fill-opacity:1;fill-rule:evenodd;stroke:#888a85;stroke-width:1px;stroke-linecap:butt;stroke-linejoin:miter;stroke-opacity:1"
         id="path5371"
         inkscape:connector-curvature="0" />
      <path
         transform="matrix(1.0469083,0,0,2.027027,0.7198796,-35.409607)"
         d="m 43.214285,32.24107 c 0,2.736768 -9.374038,4.955357 -20.9375,4.955357 -11.563462,0 -20.9375001,-2.218589 -20.9375001,-4.955357 0,-2.736768 9.3740381,-4.955357 20.9375001,-4.955357 11.563462,0 20.9375,2.218589 20.9375,4.955357 z"
         sodipodi:ry="4.9553571"
         sodipodi:rx="20.9375"
         sodipodi:cy="32.24107"
         sodipodi:cx="22.276785"
         id="path5373"
         style="fill:#eeeeec;fill-opacity:1;fill-rule:nonzero;stroke:#2e3436;stroke-width:0.68646109;stroke-linecap:butt;stroke-linejoin:miter;stroke-miterlimit:4;stroke-opacity:1;stroke-dasharray:none;stroke-dashoffset:0;marker:none;visibility:visible;display:inline;overflow:visible;enable-background:accumulate"
         sodipodi:type="arc" />
      <path
         style="fill:url(#radialGradient7260);fill-opacity:1;fill-rule:nonzero;stroke:#ffffff;stroke-width:1;stroke-linecap:butt;stroke-linejoin:miter;stroke-miterlimit:4;stroke-opacity:1;stroke-dashoffset:0;marker:none;visibility:visible;display:inline;overflow:visible;enable-background:accumulate"
         d="m 44.951119,29.943913 c 0.18941,4.40822 -8.80985,9.06606 -20.90949,9.06606 -12.09964,0 -21.1304594,-4.5947 -20.9094894,-9.06606 -0.1894,-4.56606 8.8098494,-9.03449 20.9094894,-9.03449 12.09964,0 20.94106,4.37373 20.90949,9.03449 z"
         id="path5375"
         sodipodi:nodetypes="ccccc"
         inkscape:connector-curvature="0" />
      <path
         style="fill:none;stroke:#555753;stroke-width:1;stroke-linecap:butt;stroke-linejoin:miter;stroke-miterlimit:4;stroke-opacity:1;stroke-dasharray:none;stroke-dashoffset:0;marker:none;visibility:visible;display:inline;overflow:visible;enable-background:accumulate"
         d="m 31.849489,27.943913 c -0.67407,2.18776 -3.2897,3.38538 -7.80786,3.38538 -4.51815,0 -7.3487,-1.37717 -7.80786,-3.38538 -0.07073,-1.70502 3.28971,-3.37359 7.80786,-3.37359 4.51816,0 7.81965,1.63321 7.80786,3.37359 z"
         id="path5377"
         sodipodi:nodetypes="ccccc"
         inkscape:connector-curvature="0" />
      <path
         style="fill:#555753;fill-opacity:1;fill-rule:nonzero;stroke:#2e3436;stroke-width:0.96596354;stroke-linecap:butt;stroke-linejoin:round;stroke-miterlimit:4;stroke-opacity:1;stroke-dashoffset:0;marker:none;visibility:visible;display:inline;overflow:visible;enable-background:accumulate"
         d="m 17.184019,27.764793 c 0.9704,3.07926 3.66898,5.29604 6.84343,5.29605 3.19412,0 5.90648,-2.24438 6.86128,-5.35345 -0.90064,-1.50063 -4.28117,-2.23685 -6.89061,-2.19358 -3.30434,-0.08574 -5.85648,0.85968 -6.8141,2.25098 z"
         id="path5379"
         sodipodi:nodetypes="csccc"
         inkscape:export-filename="/Users/eve/Documents/GNOME/SpeakerIcon_Test.png"
         inkscape:export-xdpi="67.489998"
         inkscape:export-ydpi="67.489998"
         inkscape:connector-curvature="0" />
      <path
         id="path5381"
         style="fill:none;stroke:#2e3436;stroke-width:1px;stroke-linecap:butt;stroke-linejoin:miter;stroke-opacity:1"
         d="m 12.429209,14.847493 c -0.12704,0.1026 -0.3786,0.39515 -0.50465,0.50248 -1.87112,1.5932 -3.6283094,3.68784 -5.1077694,5.71001 -2.59659,3.54911 -4.33766,6.875 -4.33766,6.875 m 43.1249994,0 c 0,0 -4.54743,-8.68677 -9.8613,-12.93926 -0.21063,-0.16856 -0.42247,-0.33016 -0.63527,-0.48397 -0.10052,-0.07265 -0.648157,-0.29253 -0.749077,-0.36162"
         sodipodi:nodetypes="cssccsss"
         inkscape:connector-curvature="0" />
      <path
         id="path5383"
         style="fill:none;stroke:#888a85;stroke-width:1px;stroke-linecap:butt;stroke-linejoin:miter;stroke-opacity:1"
         d="m 31.637929,13.855723 c -3.88321,-1.01933 -11.18527,-1.06248 -15.05841,-0.04613"
         sodipodi:nodetypes="cc"
         inkscape:connector-curvature="0" />
    </g>
    <g
       transform="matrix(-0.20238066,0.20238066,0.20238066,0.20238066,4.7814966,21.176863)"
       id="g3058">
      <path
         inkscape:connector-curvature="0"
         style="fill:#babdb6;fill-opacity:1;fill-rule:nonzero;stroke:#2e3436;stroke-width:1;stroke-linecap:butt;stroke-linejoin:miter;stroke-miterlimit:4;stroke-opacity:1;stroke-dashoffset:0;marker:none;visibility:visible;display:inline;overflow:visible;enable-background:accumulate"
         d="m 14.032699,10.506413 c 6.07143,-3.4821397 13.14286,-3.3928497 19.39286,0 l 2,4.39286 -23.39286,0 2,-4.39286 z"
         id="path3060"
         sodipodi:nodetypes="ccccc" />
      <path
         inkscape:connector-curvature="0"
         id="path3062"
         style="fill:#babdb6;fill-opacity:1;fill-rule:evenodd;stroke:none"
         d="m 45.604129,27.934983 c 0,0 -4.54743,-8.68677 -9.8613,-12.93926 -0.21063,-0.16856 -0.42247,-0.33016 -0.63527,-0.48397 -0.50204,-0.36286 -1.00946,-0.68239 -1.51919,-0.94787 -0.56896,-0.29634 -1.14078,-0.52533 -1.71117,-0.67205 -3.88321,-1.01934 -11.71652,-1.06249 -15.58966,-0.04613 -0.83989,0.21914 -1.6816,0.61173 -2.51203,1.13191 -0.62524,0.39166 -1.24409,0.85564 -1.85095,1.37236 -1.87112,1.5932 -3.6283094,3.68784 -5.1077694,5.71001 -2.59659,3.54911 -4.33766,6.875 -4.33766,6.875"
         sodipodi:nodetypes="csssccsssc" />
      <path
         inkscape:connector-curvature="0"
         sodipodi:nodetypes="cccc"
         id="path3064"
         d="m 12.534499,15.979023 2.18704,-4.766 c 5.261057,-2.7432797 11.220313,-3.3671697 17.939063,-0.0056 l 1.96851,4.2035"
         style="fill:none;stroke:#888a83;stroke-width:1;stroke-linecap:butt;stroke-linejoin:miter;stroke-miterlimit:4;stroke-opacity:1;stroke-dashoffset:0;marker:none;visibility:visible;display:inline;overflow:visible;enable-background:accumulate" />
      <path
         inkscape:connector-curvature="0"
         id="path3066"
         style="fill:#555753;fill-opacity:1;fill-rule:evenodd;stroke:#888a85;stroke-width:1px;stroke-linecap:butt;stroke-linejoin:miter;stroke-opacity:1"
         d="m 44.708609,28.523883 c 0,0 -6.30803,-12.92857 -13.07068,-14.66816 -3.88321,-1.01933 -11.18527,-1.06248 -15.05841,-0.04613 -6.8441198,1.78572 -11.8396594,12.46429 -11.8396594,12.46429"
         sodipodi:nodetypes="cccc" />
      <path
         sodipodi:type="arc"
         style="fill:#eeeeec;fill-opacity:1;fill-rule:nonzero;stroke:#2e3436;stroke-width:0.68646109;stroke-linecap:butt;stroke-linejoin:miter;stroke-miterlimit:4;stroke-opacity:1;stroke-dasharray:none;stroke-dashoffset:0;marker:none;visibility:visible;display:inline;overflow:visible;enable-background:accumulate"
         id="path3068"
         sodipodi:cx="22.276785"
         sodipodi:cy="32.24107"
         sodipodi:rx="20.9375"
         sodipodi:ry="4.9553571"
         d="m 43.214285,32.24107 c 0,2.736768 -9.374038,4.955357 -20.9375,4.955357 -11.563462,0 -20.9375001,-2.218589 -20.9375001,-4.955357 0,-2.736768 9.3740381,-4.955357 20.9375001,-4.955357 11.563462,0 20.9375,2.218589 20.9375,4.955357 z"
         transform="matrix(1.0469083,0,0,2.027027,0.7198796,-35.409607)" />
      <path
         inkscape:connector-curvature="0"
         sodipodi:nodetypes="ccccc"
         id="path3070"
         d="m 44.951119,29.943913 c 0.18941,4.40822 -8.80985,9.06606 -20.90949,9.06606 -12.09964,0 -21.1304594,-4.5947 -20.9094894,-9.06606 -0.1894,-4.56606 8.8098494,-9.03449 20.9094894,-9.03449 12.09964,0 20.94106,4.37373 20.90949,9.03449 z"
         style="fill:url(#radialGradient3080);fill-opacity:1;fill-rule:nonzero;stroke:#ffffff;stroke-width:1;stroke-linecap:butt;stroke-linejoin:miter;stroke-miterlimit:4;stroke-opacity:1;stroke-dashoffset:0;marker:none;visibility:visible;display:inline;overflow:visible;enable-background:accumulate" />
      <path
         inkscape:connector-curvature="0"
         sodipodi:nodetypes="ccccc"
         id="path3072"
         d="m 31.849489,27.943913 c -0.67407,2.18776 -3.2897,3.38538 -7.80786,3.38538 -4.51815,0 -7.3487,-1.37717 -7.80786,-3.38538 -0.07073,-1.70502 3.28971,-3.37359 7.80786,-3.37359 4.51816,0 7.81965,1.63321 7.80786,3.37359 z"
         style="fill:none;stroke:#555753;stroke-width:1;stroke-linecap:butt;stroke-linejoin:miter;stroke-miterlimit:4;stroke-opacity:1;stroke-dasharray:none;stroke-dashoffset:0;marker:none;visibility:visible;display:inline;overflow:visible;enable-background:accumulate" />
      <path
         inkscape:connector-curvature="0"
         inkscape:export-ydpi="67.489998"
         inkscape:export-xdpi="67.489998"
         inkscape:export-filename="/Users/eve/Documents/GNOME/SpeakerIcon_Test.png"
         sodipodi:nodetypes="csccc"
         id="path3074"
         d="m 17.184019,27.764793 c 0.9704,3.07926 3.66898,5.29604 6.84343,5.29605 3.19412,0 5.90648,-2.24438 6.86128,-5.35345 -0.90064,-1.50063 -4.28117,-2.23685 -6.89061,-2.19358 -3.30434,-0.08574 -5.85648,0.85968 -6.8141,2.25098 z"
         style="fill:#555753;fill-opacity:1;fill-rule:nonzero;stroke:#2e3436;stroke-width:0.96596354;stroke-linecap:butt;stroke-linejoin:round;stroke-miterlimit:4;stroke-opacity:1;stroke-dashoffset:0;marker:none;visibility:visible;display:inline;overflow:visible;enable-background:accumulate" />
      <path
         inkscape:connector-curvature="0"
         sodipodi:nodetypes="cssccsss"
         d="m 12.429209,14.847493 c -0.12704,0.1026 -0.3786,0.39515 -0.50465,0.50248 -1.87112,1.5932 -3.6283094,3.68784 -5.1077694,5.71001 -2.59659,3.54911 -4.33766,6.875 -4.33766,6.875 m 43.1249994,0 c 0,0 -4.54743,-8.68677 -9.8613,-12.93926 -0.21063,-0.16856 -0.42247,-0.33016 -0.63527,-0.48397 -0.10052,-0.07265 -0.648157,-0.29253 -0.749077,-0.36162"
         style="fill:none;stroke:#2e3436;stroke-width:1px;stroke-linecap:butt;stroke-linejoin:miter;stroke-opacity:1"
         id="path3076" />
      <path
         inkscape:connector-curvature="0"
         sodipodi:nodetypes="cc"
         d="m 31.637929,13.855723 c -3.88321,-1.01933 -11.18527,-1.06248 -15.05841,-0.04613"
         style="fill:none;stroke:#888a85;stroke-width:1px;stroke-linecap:butt;stroke-linejoin:miter;stroke-opacity:1"
         id="path3078" />
    </g>
  </g>
</svg>
