<?xml version="1.0" encoding="UTF-8" standalone="no"?>
<!-- Created with Inkscape (http://www.inkscape.org/) -->

<svg
   xmlns:dc="http://purl.org/dc/elements/1.1/"
   xmlns:cc="http://creativecommons.org/ns#"
   xmlns:rdf="http://www.w3.org/1999/02/22-rdf-syntax-ns#"
   xmlns:svg="http://www.w3.org/2000/svg"
   xmlns="http://www.w3.org/2000/svg"
   xmlns:xlink="http://www.w3.org/1999/xlink"
   xmlns:sodipodi="http://sodipodi.sourceforge.net/DTD/sodipodi-0.dtd"
   xmlns:inkscape="http://www.inkscape.org/namespaces/inkscape"
   id="svg2565"
   height="22"
   width="22"
   version="1.0"
   inkscape:version="0.48.1 r9760"
   sodipodi:docname="news-unsubscribe.svg">
  <sodipodi:namedview
     pagecolor="#ffffff"
     bordercolor="#666666"
     borderopacity="1"
     objecttolerance="10"
     gridtolerance="10"
     guidetolerance="10"
     inkscape:pageopacity="0"
     inkscape:pageshadow="2"
     inkscape:window-width="1366"
     inkscape:window-height="690"
     id="namedview33"
     showgrid="true"
     inkscape:zoom="14.181818"
     inkscape:cx="-0.03525641"
     inkscape:cy="11.669872"
     inkscape:window-x="0"
     inkscape:window-y="24"
     inkscape:window-maximized="1"
     inkscape:current-layer="svg2565">
    <inkscape:grid
       id="grid3254"
       type="xygrid" />
  </sodipodi:namedview>
  <metadata
     id="metadata35">
    <rdf:RDF>
      <cc:Work
         rdf:about="">
        <dc:format>image/svg+xml</dc:format>
        <dc:type
           rdf:resource="http://purl.org/dc/dcmitype/StillImage" />
        <dc:title></dc:title>
      </cc:Work>
    </rdf:RDF>
  </metadata>
  <defs
     id="defs2567">
    <linearGradient
       x1="23.878"
       y1="18.535"
       gradientTransform="matrix(0.89889,0,0,0.89347,-10.464,-9.566)"
       x2="23.878"
       gradientUnits="userSpaceOnUse"
       y2="27.495"
       id="linearGradient2401">
      <stop
         offset="0"
         style="stop-color:#e35d4f"
         id="stop3713" />
      <stop
         offset="1"
         style="stop-color:#c6262e"
         id="stop3715" />
    </linearGradient>
    <linearGradient
       x1="24.139"
       y1="6.5317"
       gradientTransform="matrix(0.53994,0,0,0.53668,-1.8489,-1.5062)"
       x2="24.139"
       gradientUnits="userSpaceOnUse"
       y2="45.69"
       id="linearGradient2398">
      <stop
         offset="0"
         style="stop-color:#fff"
         id="stop4224" />
      <stop
         offset="1"
         style="stop-color:#fff;stop-opacity:0"
         id="stop4226" />
    </linearGradient>
    <linearGradient
       id="linearGradient5060-8">
      <stop
         id="stop5062-6"
         offset="0" />
      <stop
         id="stop5064-0"
         style="stop-opacity:0"
         offset="1" />
    </linearGradient>
    <radialGradient
       r="21"
       cy="41.5"
       cx="32"
       gradientTransform="matrix(0.41304171,0,0,0.13043711,-37.357866,11.302892)"
       gradientUnits="userSpaceOnUse"
       id="radialGradient3248"
       xlink:href="#linearGradient5060-8"
       inkscape:collect="always" />
    <linearGradient
       y2="27.495"
       x2="23.878"
       y1="18.535"
       x1="23.878"
       gradientTransform="matrix(0.89889,0,0,0.89347,-10.464,-9.566)"
       gradientUnits="userSpaceOnUse"
       id="linearGradient3250"
       xlink:href="#linearGradient2401"
       inkscape:collect="always" />
    <linearGradient
       y2="45.69"
       x2="24.139"
       y1="6.5317"
       x1="24.139"
       gradientTransform="matrix(0.53994,0,0,0.53668,-1.8489,-1.5062)"
       gradientUnits="userSpaceOnUse"
       id="linearGradient3252"
       xlink:href="#linearGradient2398"
       inkscape:collect="always" />
    <linearGradient
       x1="24"
       y1="44"
       gradientTransform="matrix(.47561 0 0 .47561 -.41451 .56988)"
       x2="24"
       gradientUnits="userSpaceOnUse"
       xlink:href="#linearGradient2490-113-765-989"
       y2="3.899"
       id="linearGradient2515-120" />
    <linearGradient
       id="linearGradient2490-113-765-989">
      <stop
         offset="0"
         style="stop-color:#363636"
         id="stop3373" />
      <stop
         offset="1"
         style="stop-color:#989898"
         id="stop3375" />
    </linearGradient>
    <radialGradient
       r="20"
       gradientTransform="matrix(2.8663e-8 .97986 -1.4135 0 23.424 -4.8807)"
       cx="12.011"
       cy="10.291"
       gradientUnits="userSpaceOnUse"
       xlink:href="#linearGradient3839-224"
       id="radialGradient2513-531" />
    <linearGradient
       id="linearGradient3839-224">
      <stop
         offset="0"
         style="stop-color:#e7e7e7"
         id="stop3379" />
      <stop
         offset=".26238"
         style="stop-color:#aeaeae"
         id="stop3381" />
      <stop
         offset=".66094"
         style="stop-color:#7a7a7a"
         id="stop3383" />
      <stop
         offset="1"
         style="stop-color:#4e4e4e"
         id="stop3385" />
    </linearGradient>
    <linearGradient
       x1="24"
       y1="44"
       gradientTransform="matrix(.47561 0 0 .47561 -.41451 .56988)"
       x2="24"
       gradientUnits="userSpaceOnUse"
       xlink:href="#linearGradient2490-113-765-448"
       y2="3.899"
       id="linearGradient2515-707" />
    <linearGradient
       id="linearGradient2490-113-765-448">
      <stop
         offset="0"
         style="stop-color:#363636"
         id="stop3389" />
      <stop
         offset="1"
         style="stop-color:#989898"
         id="stop3391" />
    </linearGradient>
    <radialGradient
       r="20"
       gradientTransform="matrix(2.8663e-8 .97986 -1.4135 0 23.424 -4.8807)"
       cx="12.011"
       cy="10.291"
       gradientUnits="userSpaceOnUse"
       xlink:href="#linearGradient3839-236"
       id="radialGradient2513-966" />
    <linearGradient
       id="linearGradient3839-236">
      <stop
         offset="0"
         style="stop-color:#e7e7e7"
         id="stop3395" />
      <stop
         offset=".26238"
         style="stop-color:#aeaeae"
         id="stop3397" />
      <stop
         offset=".66094"
         style="stop-color:#7a7a7a"
         id="stop3399" />
      <stop
         offset="1"
         style="stop-color:#4e4e4e"
         id="stop3401" />
    </linearGradient>
    <linearGradient
       x1="24"
       y1="44"
       gradientTransform="matrix(.51982 0 0 .52263 -.72116 -1.4569)"
       x2="24"
       gradientUnits="userSpaceOnUse"
       xlink:href="#linearGradient2490-113-765-458"
       y2="3.899"
       id="linearGradient2563-511" />
    <linearGradient
       id="linearGradient2490-113-765-458">
      <stop
         offset="0"
         style="stop-color:#363636"
         id="stop3405" />
      <stop
         offset="1"
         style="stop-color:#989898"
         id="stop3407" />
    </linearGradient>
    <radialGradient
       r="20"
       gradientTransform="matrix(3.1327e-8 1.0767 -1.5448 0 25.333 -7.4463)"
       cx="12.011"
       cy="10.291"
       gradientUnits="userSpaceOnUse"
       xlink:href="#linearGradient3839-502"
       id="radialGradient2561-429" />
    <linearGradient
       id="linearGradient3839-502">
      <stop
         offset="0"
         style="stop-color:#e7e7e7"
         id="stop3411" />
      <stop
         offset=".26238"
         style="stop-color:#aeaeae"
         id="stop3413" />
      <stop
         offset=".66094"
         style="stop-color:#7a7a7a"
         id="stop3415" />
      <stop
         offset="1"
         style="stop-color:#4e4e4e"
         id="stop3417" />
    </linearGradient>
    <linearGradient
       x1="30.15"
       y1="5.0701"
       gradientTransform="matrix(.47561 0 0 .47561 .58537 1.5699)"
       x2="30.15"
       gradientUnits="userSpaceOnUse"
       xlink:href="#linearGradient3308-4-6-703"
       y2="44.02"
       id="linearGradient2537-225" />
    <linearGradient
       id="linearGradient3308-4-6-703">
      <stop
         offset="0"
         style="stop-color:#ffffff"
         id="stop3421" />
      <stop
         offset="1"
         style="stop-color:#ffffff;stop-opacity:0"
         id="stop3423" />
    </linearGradient>
    <linearGradient
       x1="15.8"
       y1="20.445"
       gradientTransform="matrix(.47561 0 0 .47561 .58537 1.5699)"
       x2="15.8"
       gradientUnits="userSpaceOnUse"
       xlink:href="#linearGradient3308-4-6-594"
       y2="44.109"
       id="linearGradient2541-27" />
    <linearGradient
       id="linearGradient3308-4-6-594">
      <stop
         offset="0"
         style="stop-color:#ffffff"
         id="stop3427" />
      <stop
         offset="1"
         style="stop-color:#ffffff;stop-opacity:0"
         id="stop3429" />
    </linearGradient>
    <linearGradient
       x1="9.65"
       y1="36.845"
       gradientTransform="matrix(.34507 0 0 .34905 .69956 5.5048)"
       x2="9.65"
       gradientUnits="userSpaceOnUse"
       xlink:href="#linearGradient3308-4-6-719"
       y2="42.995"
       id="linearGradient2504-227" />
    <linearGradient
       id="linearGradient3308-4-6-719">
      <stop
         offset="0"
         style="stop-color:#ffffff"
         id="stop3433" />
      <stop
         offset="1"
         style="stop-color:#ffffff;stop-opacity:0"
         id="stop3435" />
    </linearGradient>
    <linearGradient
       x1="16.626"
       y1="15.298"
       gradientTransform="matrix(.46694 0 0 .49641 2.4457 3.5816)"
       x2="20.055"
       gradientUnits="userSpaceOnUse"
       y2="24.628"
       id="linearGradient2533-353">
      <stop
         offset="0"
         style="stop-color:#ffffff"
         id="stop3438" />
      <stop
         offset="1"
         style="stop-color:#ffffff;stop-opacity:0"
         id="stop3440" />
    </linearGradient>
  </defs>
  <g
     id="layer1">
    <path
       d="m1.4879 2.4878v3.3456c8.5751 0.1598 15.501 7.0956 15.659 15.679h3.365c-0.159-10.44-8.594-18.865-19.024-19.024z"
       style="stroke-linejoin:round;stroke:url(#linearGradient2515-120);stroke-linecap:round;stroke-width:.97561;fill:url(#radialGradient2513-531)"
       id="path2559" />
    <path
       d="m1.4879 10.189v3.009c4.526 0.157 8.1569 3.784 8.3145 8.314h3.0086c-0.158-6.2-5.1287-11.165-11.323-11.323z"
       style="stroke-linejoin:round;stroke:url(#linearGradient2515-707);stroke-linecap:round;stroke-width:.97561;fill:url(#radialGradient2513-966)"
       id="path2557" />
    <path
       d="m3.5218 17.488c-0.5801 0-1.0263 0.205-1.4281 0.609-0.4023 0.398-0.6058 0.83-0.6058 1.414 0 0.575 0.2049 1.018 0.6058 1.414 0.3997 0.395 0.8435 0.587 1.4281 0.587 0.5664 0 0.9911-0.191 1.3847-0.587 0.403-0.406 0.6058-0.849 0.6058-1.414 0-0.584-0.2035-1.016-0.6058-1.414-0.3957-0.406-0.8229-0.609-1.3847-0.609z"
       style="stroke-linejoin:round;stroke:url(#linearGradient2563-511);stroke-linecap:round;stroke-width:.97561;fill:url(#radialGradient2561-429)"
       id="path8636" />
    <path
       transform="translate(-.99988 -1)"
       d="m3.4688 4.5938v1.3437c5.5511 0.3815 10.747 3.6905 13.437 8.5625 1.212 2.148 1.909 4.572 2.094 7.031h1.375c-0.342-5.221-2.982-10.295-7.187-13.406-2.788-2.0974-6.2332-3.2925-9.7192-3.5312z"
       style="stroke-linejoin:round;opacity:.4;stroke:url(#linearGradient2537-225);stroke-linecap:round;stroke-width:.97561;fill:none"
       id="path2535" />
    <path
       transform="translate(-.99988 -1.0419)"
       d="m3.4375 12.281v1.125c3.7716 0.467 7.0725 3.356 7.9685 7.063h0.032c0.014 0.037-0.012 0.056 0 0.093 0.132 0.419 0.116 0.847 0.156 1.032 0.021 0.101 0.051 0.066 0 0.031s-0.062 0.013 0.094-0.031c0.04-0.016 0.082-0.027 0.124-0.032h0.876c-0.412-3.671-2.8414-7.097-6.2505-8.531-0.9477-0.41-1.9668-0.632-3-0.75z"
       style="stroke-linejoin:round;opacity:.4;stroke:url(#linearGradient2541-27);stroke-linecap:round;stroke-width:.97561;fill:none"
       id="path2539" />
    <path
       d="m3.521 18.489c-0.7432-0.034-1.3422 0.935-0.8588 1.562 0.3642 0.599 1.3237 0.628 1.6828 0.008 0.4542-0.634-0.0816-1.567-0.824-1.57z"
       style="stroke-linejoin:round;opacity:.4;stroke:url(#linearGradient2504-227);stroke-linecap:round;stroke-width:.97561;fill:none"
       id="path3219" />
    <path
       transform="translate(-.99988 -1)"
       d="m2.4688 3c-0.2693 0.0117-0.474 0.2512-0.4688 0.5v3.3438c-0.0023 0.1123 0.0444 0.2631 0.125 0.3437 0.1201 0.12 0.2611 0.1273 0.375 0.125 5.0813 0.0947 9.557 2.6644 12.312 6.5315 0.087 0.117 0.265 0.21 0.438 0.187h0.031l3.594-0.625c0.01 0.001 0.021 0.001 0.031 0 0.112-0.026 0.26-0.088 0.344-0.281 0.079-0.181 0.028-0.333-0.031-0.437-3.407-5.7239-9.6082-9.5797-16.719-9.688-0.0268-0.0009-0.0044-0.0009-0.0312 0zm0 7.688c-0.2693 0.011-0.474 0.251-0.4688 0.5v3.031c-0.0026 0.124 0.0369 0.258 0.125 0.343 0.0881 0.086 0.2289 0.12 0.3438 0.126 1.1995 0.041 2.299 0.338 3.3124 0.843 0.0105 0.001 0.0209 0.001 0.0313 0 0.0541 0.025 0.1514 0.08 0.2813 0.063 0.0138-0.002 0.0164 0.003 0.0312 0l4.156-0.719c0.011 0.001 0.021 0.001 0.031 0 0.21-0.047 0.322-0.202 0.376-0.375 0.053-0.173-0.029-0.334-0.126-0.438-0.009-0.011-0.019-0.021-0.031-0.031-2.0994-1.996-4.9147-3.264-8.031-3.343-0.0267-0.001-0.0046-0.001-0.0312 0z"
       style="opacity:.2;fill-rule:evenodd;fill:url(#linearGradient2533-353)"
       id="path2531" />
  </g>
  <g
     transform="matrix(0.6,0,0,0.6,9.4,9.90156)"
     id="layer1-4">
    <path
       inkscape:connector-curvature="0"
       id="path2262-8"
       style="fill:url(#linearGradient3250);fill-rule:evenodd;stroke:#a53738;stroke-linejoin:round"
       d="M 20.5,7.4948 V 14.5 H 1.5 V 7.4948 h 19 z" />
    <path
       inkscape:connector-curvature="0"
       id="path2272-6"
       style="opacity:0.4;fill:none;stroke:url(#linearGradient3252)"
       d="M 19.5,8.4948 V 13.5 H 2.5 V 8.4948 h 17 z" />
  </g>
</svg>
