<?xml version="1.0" encoding="UTF-8" standalone="no"?>
<!-- Created with Inkscape (http://www.inkscape.org/) -->

<svg
   xmlns:dc="http://purl.org/dc/elements/1.1/"
   xmlns:cc="http://creativecommons.org/ns#"
   xmlns:rdf="http://www.w3.org/1999/02/22-rdf-syntax-ns#"
   xmlns:svg="http://www.w3.org/2000/svg"
   xmlns="http://www.w3.org/2000/svg"
   xmlns:xlink="http://www.w3.org/1999/xlink"
   xmlns:sodipodi="http://sodipodi.sourceforge.net/DTD/sodipodi-0.dtd"
   xmlns:inkscape="http://www.inkscape.org/namespaces/inkscape"
   width="22"
   height="22"
   id="svg2"
   sodipodi:version="0.32"
   inkscape:version="0.48.1 r9760"
   version="1.0"
   sodipodi:docname="object-tweak-blur.svg"
   inkscape:output_extension="org.inkscape.output.svg.inkscape">
  <sodipodi:namedview
     id="base"
     pagecolor="#ffffff"
     bordercolor="#666666"
     borderopacity="1.0"
     inkscape:pageopacity="0.0"
     inkscape:pageshadow="2"
     inkscape:zoom="8.3904323"
     inkscape:cx="86.634196"
     inkscape:cy="-12.829754"
     inkscape:document-units="px"
     inkscape:current-layer="layer1"
     showgrid="false"
     inkscape:window-width="1024"
     inkscape:window-height="737"
     inkscape:window-x="0"
     inkscape:window-y="1" />
  <defs
     id="defs4">
    <radialGradient
       r="1.111868"
       fy="137.9821"
       fx="375.09409"
       cy="137.9821"
       cx="375.09409"
       gradientUnits="userSpaceOnUse"
       id="radialGradient14428-731"
       xlink:href="#linearGradient14241-932"
       inkscape:collect="always" />
    <linearGradient
       id="linearGradient14241-932"
       inkscape:collect="always">
      <stop
         id="stop3042"
         offset="0"
         style="stop-color:#5e5e5e;stop-opacity:1;" />
      <stop
         id="stop3044"
         offset="1"
         style="stop-color:#5e5e5e;stop-opacity:0;" />
    </linearGradient>
    <radialGradient
       r="1.111868"
       fy="137.9821"
       fx="375.09409"
       cy="137.9821"
       cx="375.09409"
       gradientUnits="userSpaceOnUse"
       id="radialGradient14430-820"
       xlink:href="#linearGradient14241-376"
       inkscape:collect="always" />
    <linearGradient
       id="linearGradient14241-376"
       inkscape:collect="always">
      <stop
         id="stop3048"
         offset="0"
         style="stop-color:#5e5e5e;stop-opacity:1;" />
      <stop
         id="stop3050"
         offset="1"
         style="stop-color:#5e5e5e;stop-opacity:0;" />
    </linearGradient>
    <radialGradient
       r="1.111868"
       fy="137.9821"
       fx="375.09409"
       cy="137.9821"
       cx="375.09409"
       gradientUnits="userSpaceOnUse"
       id="radialGradient14432-430"
       xlink:href="#linearGradient14241-428"
       inkscape:collect="always" />
    <linearGradient
       id="linearGradient14241-428"
       inkscape:collect="always">
      <stop
         id="stop3054"
         offset="0"
         style="stop-color:#5e5e5e;stop-opacity:1;" />
      <stop
         id="stop3056"
         offset="1"
         style="stop-color:#5e5e5e;stop-opacity:0;" />
    </linearGradient>
    <radialGradient
       r="1.111868"
       fy="137.9821"
       fx="375.09409"
       cy="137.9821"
       cx="375.09409"
       gradientUnits="userSpaceOnUse"
       id="radialGradient14434-786"
       xlink:href="#linearGradient14241-228"
       inkscape:collect="always" />
    <linearGradient
       id="linearGradient14241-228"
       inkscape:collect="always">
      <stop
         id="stop3060"
         offset="0"
         style="stop-color:#5e5e5e;stop-opacity:1;" />
      <stop
         id="stop3062"
         offset="1"
         style="stop-color:#5e5e5e;stop-opacity:0;" />
    </linearGradient>
    <radialGradient
       r="1.111868"
       fy="137.9821"
       fx="375.09409"
       cy="137.9821"
       cx="375.09409"
       gradientUnits="userSpaceOnUse"
       id="radialGradient14436-760"
       xlink:href="#linearGradient14241-644"
       inkscape:collect="always" />
    <linearGradient
       id="linearGradient14241-644"
       inkscape:collect="always">
      <stop
         id="stop3066"
         offset="0"
         style="stop-color:#5e5e5e;stop-opacity:1;" />
      <stop
         id="stop3068"
         offset="1"
         style="stop-color:#5e5e5e;stop-opacity:0;" />
    </linearGradient>
    <radialGradient
       r="1.111868"
       fy="137.9821"
       fx="375.09409"
       cy="137.9821"
       cx="375.09409"
       gradientUnits="userSpaceOnUse"
       id="radialGradient14438-305"
       xlink:href="#linearGradient14241-768"
       inkscape:collect="always" />
    <linearGradient
       id="linearGradient14241-768"
       inkscape:collect="always">
      <stop
         id="stop3072"
         offset="0"
         style="stop-color:#5e5e5e;stop-opacity:1;" />
      <stop
         id="stop3074"
         offset="1"
         style="stop-color:#5e5e5e;stop-opacity:0;" />
    </linearGradient>
    <radialGradient
       r="1.111868"
       fy="137.9821"
       fx="375.09409"
       cy="137.9821"
       cx="375.09409"
       gradientUnits="userSpaceOnUse"
       id="radialGradient14440-267"
       xlink:href="#linearGradient14241-561"
       inkscape:collect="always" />
    <linearGradient
       id="linearGradient14241-561"
       inkscape:collect="always">
      <stop
         id="stop3078"
         offset="0"
         style="stop-color:#5e5e5e;stop-opacity:1;" />
      <stop
         id="stop3080"
         offset="1"
         style="stop-color:#5e5e5e;stop-opacity:0;" />
    </linearGradient>
    <radialGradient
       r="1.111868"
       fy="137.9821"
       fx="375.09409"
       cy="137.9821"
       cx="375.09409"
       gradientUnits="userSpaceOnUse"
       id="radialGradient14442-558"
       xlink:href="#linearGradient14241-891"
       inkscape:collect="always" />
    <linearGradient
       id="linearGradient14241-891"
       inkscape:collect="always">
      <stop
         id="stop3084"
         offset="0"
         style="stop-color:#5e5e5e;stop-opacity:1;" />
      <stop
         id="stop3086"
         offset="1"
         style="stop-color:#5e5e5e;stop-opacity:0;" />
    </linearGradient>
    <radialGradient
       r="1.111868"
       fy="137.9821"
       fx="375.09409"
       cy="137.9821"
       cx="375.09409"
       gradientUnits="userSpaceOnUse"
       id="radialGradient14912-37"
       xlink:href="#linearGradient14233-170"
       inkscape:collect="always" />
    <linearGradient
       id="linearGradient14233-170"
       inkscape:collect="always">
      <stop
         id="stop3090"
         offset="0"
         style="stop-color:#444444;stop-opacity:1;" />
      <stop
         id="stop3092"
         offset="1"
         style="stop-color:#444444;stop-opacity:0;" />
    </linearGradient>
  </defs>
  <metadata
     id="metadata7">
    <rdf:RDF>
      <cc:Work
         rdf:about="">
        <dc:format>image/svg+xml</dc:format>
        <dc:type
           rdf:resource="http://purl.org/dc/dcmitype/StillImage" />
        <dc:title />
      </cc:Work>
    </rdf:RDF>
  </metadata>
  <g
     transform="translate(0,-26)"
     id="layer1"
     inkscape:groupmode="layer"
     inkscape:label="Layer 1">
    <g
       id="tweak_blur_mode"
       style="display:inline"
       transform="matrix(1.4545403,0,0,1.4545403,-2368.5059,-373.81668)">
      <path
         transform="matrix(1.20571,0,0,1.20571,1177.7006,110.01634)"
         sodipodi:type="arc"
         style="fill:#979797;fill-opacity:1;fill-rule:nonzero;stroke:#ffffff;stroke-width:0.27735791;marker:none;visibility:visible;display:inline"
         id="path14378"
         sodipodi:cx="375.09409"
         sodipodi:cy="137.9821"
         sodipodi:rx="1.111868"
         sodipodi:ry="1.111868"
         d="m 376.20595,137.9821 c 0,0.61407 -0.4978,1.11187 -1.11186,1.11187 -0.61407,0 -1.11187,-0.4978 -1.11187,-1.11187 0,-0.61407 0.4978,-1.11187 1.11187,-1.11187 0.61406,0 1.11186,0.4978 1.11186,1.11187 z"
         inkscape:tile-cx="375.0941"
         inkscape:tile-cy="137.9821"
         inkscape:tile-w="2.223736"
         inkscape:tile-h="2.223736"
         inkscape:tile-x0="373.9822"
         inkscape:tile-y0="136.8702" />
      <path
         inkscape:tile-y0="136.8702"
         inkscape:tile-x0="373.9822"
         d="m 376.20595,137.9821 c 0,0.61407 -0.4978,1.11187 -1.11186,1.11187 -0.61407,0 -1.11187,-0.4978 -1.11187,-1.11187 0,-0.61407 0.4978,-1.11187 1.11187,-1.11187 0.61406,0 1.11186,0.4978 1.11186,1.11187 z"
         sodipodi:ry="1.111868"
         sodipodi:rx="1.111868"
         sodipodi:cy="137.9821"
         sodipodi:cx="375.09409"
         id="path14380"
         style="fill:#979797;fill-opacity:1;fill-rule:nonzero;stroke:#ffffff;stroke-width:0.27735791;marker:none;visibility:visible;display:inline"
         sodipodi:type="arc"
         transform="matrix(1.188922,0,0,1.188922,1192.8594,112.33291)" />
      <path
         inkscape:tile-y0="136.8702"
         inkscape:tile-x0="373.9822"
         d="m 376.20595,137.9821 c 0,0.61407 -0.4978,1.11187 -1.11186,1.11187 -0.61407,0 -1.11187,-0.4978 -1.11187,-1.11187 0,-0.61407 0.4978,-1.11187 1.11187,-1.11187 0.61406,0 1.11186,0.4978 1.11186,1.11187 z"
         sodipodi:ry="1.111868"
         sodipodi:rx="1.111868"
         sodipodi:cy="137.9821"
         sodipodi:cx="375.09409"
         id="path14382"
         style="fill:#979797;fill-opacity:1;fill-rule:nonzero;stroke:#ffffff;stroke-width:0.27735791;marker:none;visibility:visible;display:inline"
         sodipodi:type="arc"
         transform="matrix(1.180543,0,0,1.180543,1198.9558,116.51632)" />
      <path
         inkscape:tile-y0="136.8702"
         inkscape:tile-x0="373.9822"
         d="m 376.20595,137.9821 c 0,0.61407 -0.4978,1.11187 -1.11186,1.11187 -0.61407,0 -1.11187,-0.4978 -1.11187,-1.11187 0,-0.61407 0.4978,-1.11187 1.11187,-1.11187 0.61406,0 1.11186,0.4978 1.11186,1.11187 z"
         sodipodi:ry="1.111868"
         sodipodi:rx="1.111868"
         sodipodi:cy="137.9821"
         sodipodi:cx="375.09409"
         id="path14384"
         style="fill:#979797;fill-opacity:1;fill-rule:nonzero;stroke:#ffffff;stroke-width:0.27735791;marker:none;visibility:visible;display:inline"
         sodipodi:type="arc"
         transform="matrix(1.088184,0,0,1.088184,1233.599,132.28754)" />
      <path
         inkscape:tile-y0="136.8702"
         inkscape:tile-x0="373.9822"
         d="m 376.20595,137.9821 c 0,0.61407 -0.4978,1.11187 -1.11186,1.11187 -0.61407,0 -1.11187,-0.4978 -1.11187,-1.11187 0,-0.61407 0.4978,-1.11187 1.11187,-1.11187 0.61406,0 1.11186,0.4978 1.11186,1.11187 z"
         sodipodi:ry="1.111868"
         sodipodi:rx="1.111868"
         sodipodi:cy="137.9821"
         sodipodi:cx="375.09409"
         id="path14386"
         style="fill:#979797;fill-opacity:1;fill-rule:nonzero;stroke:#ffffff;stroke-width:0.27735791;marker:none;visibility:visible;display:inline"
         sodipodi:type="arc"
         transform="matrix(1.188915,0,0,1.188915,1186.954,112.33373)" />
      <path
         inkscape:tile-y0="136.8702"
         inkscape:tile-x0="373.9822"
         d="m 376.20595,137.9821 c 0,0.61407 -0.4978,1.11187 -1.11186,1.11187 -0.61407,0 -1.11187,-0.4978 -1.11187,-1.11187 0,-0.61407 0.4978,-1.11187 1.11187,-1.11187 0.61406,0 1.11186,0.4978 1.11186,1.11187 z"
         sodipodi:ry="1.111868"
         sodipodi:rx="1.111868"
         sodipodi:cy="137.9821"
         sodipodi:cx="375.09409"
         id="path14388"
         style="fill:#979797;fill-opacity:1;fill-rule:nonzero;stroke:#ffffff;stroke-width:0.27735791;marker:none;visibility:visible;display:inline"
         sodipodi:type="arc"
         transform="matrix(1.20571,0,0,1.20571,1189.5158,110.01634)" />
      <path
         inkscape:tile-y0="136.8702"
         inkscape:tile-x0="373.9822"
         d="m 376.20595,137.9821 c 0,0.61407 -0.4978,1.11187 -1.11186,1.11187 -0.61407,0 -1.11187,-0.4978 -1.11187,-1.11187 0,-0.61407 0.4978,-1.11187 1.11187,-1.11187 0.61406,0 1.11186,0.4978 1.11186,1.11187 z"
         sodipodi:ry="1.111868"
         sodipodi:rx="1.111868"
         sodipodi:cy="137.9821"
         sodipodi:cx="375.09409"
         id="path14390"
         style="fill:#979797;fill-opacity:1;fill-rule:nonzero;stroke:#ffffff;stroke-width:0.27735791;marker:none;visibility:visible;display:inline"
         sodipodi:type="arc"
         transform="matrix(1.093412,0,0,1.093412,1219.8229,131.56618)" />
      <path
         inkscape:tile-y0="136.8702"
         inkscape:tile-x0="373.9822"
         d="m 376.20595,137.9821 c 0,0.61407 -0.4978,1.11187 -1.11186,1.11187 -0.61407,0 -1.11187,-0.4978 -1.11187,-1.11187 0,-0.61407 0.4978,-1.11187 1.11187,-1.11187 0.61406,0 1.11186,0.4978 1.11186,1.11187 z"
         sodipodi:ry="1.111868"
         sodipodi:rx="1.111868"
         sodipodi:cy="137.9821"
         sodipodi:cx="375.09409"
         id="path14392"
         style="fill:#979797;fill-opacity:1;fill-rule:nonzero;stroke:#ffffff;stroke-width:0.27735791;marker:none;visibility:visible;display:inline"
         sodipodi:type="arc"
         transform="matrix(1.184974,0,0,1.184974,1185.4784,121.95961)" />
      <path
         inkscape:tile-y0="136.8702"
         inkscape:tile-x0="373.9822"
         d="m 376.20595,137.9821 c 0,0.61407 -0.4978,1.11187 -1.11186,1.11187 -0.61407,0 -1.11187,-0.4978 -1.11187,-1.11187 0,-0.61407 0.4978,-1.11187 1.11187,-1.11187 0.61406,0 1.11186,0.4978 1.11186,1.11187 z"
         sodipodi:ry="1.111868"
         sodipodi:rx="1.111868"
         sodipodi:cy="137.9821"
         sodipodi:cx="375.09409"
         id="path14394"
         style="fill:#979797;fill-opacity:1;fill-rule:nonzero;stroke:#ffffff;stroke-width:0.27735791;marker:none;visibility:visible;display:inline"
         sodipodi:type="arc"
         transform="matrix(1.111722,0,0,1.111722,1218.8625,122.98498)" />
      <path
         inkscape:tile-y0="136.8702"
         inkscape:tile-x0="373.9822"
         d="m 376.20595,137.9821 c 0,0.61407 -0.4978,1.11187 -1.11186,1.11187 -0.61407,0 -1.11187,-0.4978 -1.11187,-1.11187 0,-0.61407 0.4978,-1.11187 1.11187,-1.11187 0.61406,0 1.11186,0.4978 1.11186,1.11187 z"
         sodipodi:ry="1.111868"
         sodipodi:rx="1.111868"
         sodipodi:cy="137.9821"
         sodipodi:cx="375.09409"
         id="path14396"
         style="fill:#979797;fill-opacity:1;fill-rule:nonzero;stroke:#ffffff;stroke-width:0.27735791;marker:none;visibility:visible;display:inline"
         sodipodi:type="arc"
         transform="matrix(1.181829,0,0,1.181829,1186.6583,116.3389)" />
      <path
         inkscape:tile-y0="136.8702"
         inkscape:tile-x0="373.9822"
         d="m 376.20595,137.9821 c 0,0.61407 -0.4978,1.11187 -1.11186,1.11187 -0.61407,0 -1.11187,-0.4978 -1.11187,-1.11187 0,-0.61407 0.4978,-1.11187 1.11187,-1.11187 0.61406,0 1.11186,0.4978 1.11186,1.11187 z"
         sodipodi:ry="1.111868"
         sodipodi:rx="1.111868"
         sodipodi:cy="137.9821"
         sodipodi:cx="375.09409"
         id="path14398"
         style="fill:url(#radialGradient14428-731);fill-opacity:1;fill-rule:nonzero;stroke:none;stroke-width:0.27735791;marker:none;visibility:visible;display:inline"
         sodipodi:type="arc"
         transform="matrix(1.485788,0,0,1.485788,1075.5985,74.39795)" />
      <path
         inkscape:tile-y0="136.8702"
         inkscape:tile-x0="373.9822"
         d="m 376.20595,137.9821 c 0,0.61407 -0.4978,1.11187 -1.11186,1.11187 -0.61407,0 -1.11187,-0.4978 -1.11187,-1.11187 0,-0.61407 0.4978,-1.11187 1.11187,-1.11187 0.61406,0 1.11186,0.4978 1.11186,1.11187 z"
         sodipodi:ry="1.111868"
         sodipodi:rx="1.111868"
         sodipodi:cy="137.9821"
         sodipodi:cx="375.09409"
         id="path14400"
         style="fill:url(#radialGradient14430-820);fill-opacity:1;fill-rule:nonzero;stroke:none;stroke-width:0.27735791;marker:none;visibility:visible;display:inline"
         sodipodi:type="arc"
         transform="matrix(1.485788,0,0,1.485788,1075.5992,80.45274)" />
      <path
         inkscape:tile-y0="136.8702"
         inkscape:tile-x0="373.9822"
         d="m 376.20595,137.9821 c 0,0.61407 -0.4978,1.11187 -1.11186,1.11187 -0.61407,0 -1.11187,-0.4978 -1.11187,-1.11187 0,-0.61407 0.4978,-1.11187 1.11187,-1.11187 0.61406,0 1.11186,0.4978 1.11186,1.11187 z"
         sodipodi:ry="1.111868"
         sodipodi:rx="1.111868"
         sodipodi:cy="137.9821"
         sodipodi:cx="375.09409"
         id="path14402"
         style="fill:url(#radialGradient14432-430);fill-opacity:1;fill-rule:nonzero;stroke:none;stroke-width:0.27735791;marker:none;visibility:visible;display:inline"
         sodipodi:type="arc"
         transform="matrix(1.485788,0,0,1.485788,1078.5525,74.39792)" />
      <path
         inkscape:tile-y0="136.8702"
         inkscape:tile-x0="373.9822"
         d="m 376.20595,137.9821 c 0,0.61407 -0.4978,1.11187 -1.11186,1.11187 -0.61407,0 -1.11187,-0.4978 -1.11187,-1.11187 0,-0.61407 0.4978,-1.11187 1.11187,-1.11187 0.61406,0 1.11186,0.4978 1.11186,1.11187 z"
         sodipodi:ry="1.111868"
         sodipodi:rx="1.111868"
         sodipodi:cy="137.9821"
         sodipodi:cx="375.09409"
         id="path14404"
         style="fill:url(#radialGradient14434-786);fill-opacity:1;fill-rule:nonzero;stroke:none;stroke-width:0.27735791;marker:none;visibility:visible;display:inline"
         sodipodi:type="arc"
         transform="matrix(1.485788,0,0,1.485788,1081.5063,74.39794)" />
      <path
         inkscape:tile-y0="136.8702"
         inkscape:tile-x0="373.9822"
         d="m 376.20595,137.9821 c 0,0.61407 -0.4978,1.11187 -1.11186,1.11187 -0.61407,0 -1.11187,-0.4978 -1.11187,-1.11187 0,-0.61407 0.4978,-1.11187 1.11187,-1.11187 0.61406,0 1.11186,0.4978 1.11186,1.11187 z"
         sodipodi:ry="1.111868"
         sodipodi:rx="1.111868"
         sodipodi:cy="137.9821"
         sodipodi:cx="375.09409"
         id="path14406"
         style="fill:url(#radialGradient14436-760);fill-opacity:1;fill-rule:nonzero;stroke:none;stroke-width:0.27735791;marker:none;visibility:visible;display:inline"
         sodipodi:type="arc"
         transform="matrix(1.485788,0,0,1.485788,1075.5984,77.42529)" />
      <path
         inkscape:tile-y0="136.8702"
         inkscape:tile-x0="373.9822"
         d="m 376.20595,137.9821 c 0,0.61407 -0.4978,1.11187 -1.11186,1.11187 -0.61407,0 -1.11187,-0.4978 -1.11187,-1.11187 0,-0.61407 0.4978,-1.11187 1.11187,-1.11187 0.61406,0 1.11186,0.4978 1.11186,1.11187 z"
         sodipodi:ry="1.111868"
         sodipodi:rx="1.111868"
         sodipodi:cy="137.9821"
         sodipodi:cx="375.09409"
         id="path14408"
         style="fill:url(#radialGradient14438-305);fill-opacity:1;fill-rule:nonzero;stroke:none;stroke-width:0.27735791;marker:none;visibility:visible;display:inline"
         sodipodi:type="arc"
         transform="matrix(1.4858,0,0,1.4858,1078.5488,80.45134)" />
      <path
         inkscape:tile-y0="136.8702"
         inkscape:tile-x0="373.9822"
         d="m 376.20595,137.9821 c 0,0.61407 -0.4978,1.11187 -1.11186,1.11187 -0.61407,0 -1.11187,-0.4978 -1.11187,-1.11187 0,-0.61407 0.4978,-1.11187 1.11187,-1.11187 0.61406,0 1.11186,0.4978 1.11186,1.11187 z"
         sodipodi:ry="1.111868"
         sodipodi:rx="1.111868"
         sodipodi:cy="137.9821"
         sodipodi:cx="375.09409"
         id="path14410"
         style="fill:url(#radialGradient14440-267);fill-opacity:1;fill-rule:nonzero;stroke:none;stroke-width:0.27735791;marker:none;visibility:visible;display:inline"
         sodipodi:type="arc"
         transform="matrix(1.485788,0,0,1.485788,1081.5065,77.42535)" />
      <path
         inkscape:tile-y0="136.8702"
         inkscape:tile-x0="373.9822"
         d="m 376.20595,137.9821 c 0,0.61407 -0.4978,1.11187 -1.11186,1.11187 -0.61407,0 -1.11187,-0.4978 -1.11187,-1.11187 0,-0.61407 0.4978,-1.11187 1.11187,-1.11187 0.61406,0 1.11186,0.4978 1.11186,1.11187 z"
         sodipodi:ry="1.111868"
         sodipodi:rx="1.111868"
         sodipodi:cy="137.9821"
         sodipodi:cx="375.09409"
         id="path14412"
         style="fill:url(#radialGradient14442-558);fill-opacity:1;fill-rule:nonzero;stroke:none;stroke-width:0.27735791;marker:none;visibility:visible;display:inline"
         sodipodi:type="arc"
         transform="matrix(1.492675,0,0,1.492675,1078.9232,79.50245)" />
      <path
         inkscape:tile-y0="136.8702"
         inkscape:tile-x0="373.9822"
         d="m 376.20595,137.9821 c 0,0.61407 -0.4978,1.11187 -1.11186,1.11187 -0.61407,0 -1.11187,-0.4978 -1.11187,-1.11187 0,-0.61407 0.4978,-1.11187 1.11187,-1.11187 0.61406,0 1.11186,0.4978 1.11186,1.11187 z"
         sodipodi:ry="1.111868"
         sodipodi:rx="1.111868"
         sodipodi:cy="137.9821"
         sodipodi:cx="375.09409"
         id="path14414"
         style="fill:#979797;fill-opacity:1;fill-rule:nonzero;stroke:#ffffff;stroke-width:0.27735791;marker:none;visibility:visible;display:inline"
         sodipodi:type="arc"
         transform="matrix(1.191739,0,0,1.191739,1191.8023,124.05349)" />
      <path
         inkscape:tile-y0="136.8702"
         inkscape:tile-x0="373.9822"
         d="m 376.20595,137.9821 c 0,0.61407 -0.4978,1.11187 -1.11186,1.11187 -0.61407,0 -1.11187,-0.4978 -1.11187,-1.11187 0,-0.61407 0.4978,-1.11187 1.11187,-1.11187 0.61406,0 1.11186,0.4978 1.11186,1.11187 z"
         sodipodi:ry="1.111868"
         sodipodi:rx="1.111868"
         sodipodi:cy="137.9821"
         sodipodi:cx="375.09409"
         id="path14416"
         style="fill:#979797;fill-opacity:1;fill-rule:nonzero;stroke:#ffffff;stroke-width:0.27735791;marker:none;visibility:visible;display:inline"
         sodipodi:type="arc"
         transform="matrix(1.181973,0,0,1.181973,1198.4195,122.37376)" />
      <path
         inkscape:tile-y0="136.8702"
         inkscape:tile-x0="373.9822"
         d="m 376.20595,137.9821 c 0,0.61407 -0.4978,1.11187 -1.11186,1.11187 -0.61407,0 -1.11187,-0.4978 -1.11187,-1.11187 0,-0.61407 0.4978,-1.11187 1.11187,-1.11187 0.61406,0 1.11186,0.4978 1.11186,1.11187 z"
         sodipodi:ry="1.111868"
         sodipodi:rx="1.111868"
         sodipodi:cy="137.9821"
         sodipodi:cx="375.09409"
         id="path14418"
         style="fill:#979797;fill-opacity:1;fill-rule:nonzero;stroke:#ffffff;stroke-width:0.27735791;marker:none;visibility:visible;display:inline"
         sodipodi:type="arc"
         transform="matrix(1.20571,0,0,1.20571,1177.7006,122.1258)" />
      <path
         inkscape:tile-y0="136.8702"
         inkscape:tile-x0="373.9822"
         d="m 376.20595,137.9821 c 0,0.61407 -0.4978,1.11187 -1.11186,1.11187 -0.61407,0 -1.11187,-0.4978 -1.11187,-1.11187 0,-0.61407 0.4978,-1.11187 1.11187,-1.11187 0.61406,0 1.11186,0.4978 1.11186,1.11187 z"
         sodipodi:ry="1.111868"
         sodipodi:rx="1.111868"
         sodipodi:cy="137.9821"
         sodipodi:cx="375.09409"
         id="path14420"
         style="fill:#979797;fill-opacity:1;fill-rule:nonzero;stroke:#ffffff;stroke-width:0.27735791;marker:none;visibility:visible;display:inline"
         sodipodi:type="arc"
         transform="matrix(1.193386,0,0,1.193386,1185.2769,123.82621)" />
      <path
         inkscape:tile-y0="136.8702"
         inkscape:tile-x0="373.9822"
         d="m 376.20595,137.9821 c 0,0.61407 -0.4978,1.11187 -1.11186,1.11187 -0.61407,0 -1.11187,-0.4978 -1.11187,-1.11187 0,-0.61407 0.4978,-1.11187 1.11187,-1.11187 0.61406,0 1.11186,0.4978 1.11186,1.11187 z"
         sodipodi:ry="1.111868"
         sodipodi:rx="1.111868"
         sodipodi:cy="137.9821"
         sodipodi:cx="375.09409"
         id="path14422"
         style="fill:#979797;fill-opacity:1;fill-rule:nonzero;stroke:#ffffff;stroke-width:0.27735791;marker:none;visibility:visible;display:inline"
         sodipodi:type="arc"
         transform="matrix(1.121575,0,0,1.121575,1215.1669,133.73498)" />
      <path
         inkscape:tile-y0="136.8702"
         inkscape:tile-x0="373.9822"
         d="m 376.20595,137.9821 c 0,0.61407 -0.4978,1.11187 -1.11186,1.11187 -0.61407,0 -1.11187,-0.4978 -1.11187,-1.11187 0,-0.61407 0.4978,-1.11187 1.11187,-1.11187 0.61406,0 1.11186,0.4978 1.11186,1.11187 z"
         sodipodi:ry="1.111868"
         sodipodi:rx="1.111868"
         sodipodi:cy="137.9821"
         sodipodi:cx="375.09409"
         id="path14424"
         style="fill:#979797;fill-opacity:1;fill-rule:nonzero;stroke:#ffffff;stroke-width:0.27735791;marker:none;visibility:visible;display:inline"
         sodipodi:type="arc"
         transform="matrix(1.20571,0,0,1.20571,1189.5158,122.1258)" />
      <path
         inkscape:tile-y0="136.8702"
         inkscape:tile-x0="373.9822"
         d="m 376.20595,137.9821 c 0,0.61407 -0.4978,1.11187 -1.11186,1.11187 -0.61407,0 -1.11187,-0.4978 -1.11187,-1.11187 0,-0.61407 0.4978,-1.11187 1.11187,-1.11187 0.61406,0 1.11186,0.4978 1.11186,1.11187 z"
         sodipodi:ry="1.111868"
         sodipodi:rx="1.111868"
         sodipodi:cy="137.9821"
         sodipodi:cx="375.09409"
         id="path14426"
         style="fill:url(#radialGradient14912-37);fill-opacity:1;fill-rule:nonzero;stroke:none;stroke-width:0.27735791;marker:none;visibility:visible;display:inline"
         sodipodi:type="arc"
         transform="matrix(6.75293,0,0,6.75293,-897.1221,-649.34632)" />
    </g>
  </g>
</svg>
