<?xml version="1.0" encoding="UTF-8" standalone="no"?>
<!-- Created with Inkscape (http://www.inkscape.org/) -->

<svg
   xmlns:dc="http://purl.org/dc/elements/1.1/"
   xmlns:cc="http://creativecommons.org/ns#"
   xmlns:rdf="http://www.w3.org/1999/02/22-rdf-syntax-ns#"
   xmlns:svg="http://www.w3.org/2000/svg"
   xmlns="http://www.w3.org/2000/svg"
   xmlns:sodipodi="http://sodipodi.sourceforge.net/DTD/sodipodi-0.dtd"
   xmlns:inkscape="http://www.inkscape.org/namespaces/inkscape"
   width="22"
   height="22"
   id="svg2"
   sodipodi:version="0.32"
   inkscape:version="0.48.1 r9760"
   version="1.0"
   sodipodi:docname="object-tweak-attract.svg"
   inkscape:output_extension="org.inkscape.output.svg.inkscape">
  <sodipodi:namedview
     id="base"
     pagecolor="#ffffff"
     bordercolor="#666666"
     borderopacity="1.0"
     inkscape:pageopacity="0.0"
     inkscape:pageshadow="2"
     inkscape:zoom="2.8820312"
     inkscape:cx="53.904022"
     inkscape:cy="-24.795786"
     inkscape:document-units="px"
     inkscape:current-layer="layer1"
     showgrid="false"
     inkscape:window-width="1024"
     inkscape:window-height="737"
     inkscape:window-x="0"
     inkscape:window-y="1" />
  <defs
     id="defs4" />
  <metadata
     id="metadata7">
    <rdf:RDF>
      <cc:Work
         rdf:about="">
        <dc:format>image/svg+xml</dc:format>
        <dc:type
           rdf:resource="http://purl.org/dc/dcmitype/StillImage" />
        <dc:title />
      </cc:Work>
    </rdf:RDF>
  </metadata>
  <g
     id="layer1"
     inkscape:groupmode="layer"
     inkscape:label="Layer 1"
     transform="translate(0,-26)">
    <g
       id="tweak_move_mode_inout"
       style="display:inline"
       transform="matrix(1.4545403,0,0,1.4545403,-2193.4467,-373.81667)">
      <path
         transform="matrix(1.20571,0,0,1.20571,1066.1145,121.03798)"
         sodipodi:type="arc"
         style="fill:#5e5e5e;fill-opacity:1;fill-rule:nonzero;stroke:#ffffff;stroke-width:0.27735791;marker:none;visibility:visible;display:inline"
         id="use14144"
         sodipodi:cx="375.09409"
         sodipodi:cy="137.9821"
         sodipodi:rx="1.111868"
         sodipodi:ry="1.111868"
         d="m 376.20595,137.9821 c 0,0.61407 -0.4978,1.11187 -1.11186,1.11187 -0.61407,0 -1.11187,-0.4978 -1.11187,-1.11187 0,-0.61407 0.4978,-1.11187 1.11187,-1.11187 0.61406,0 1.11186,0.4978 1.11186,1.11187 z"
         inkscape:tile-x0="373.9822"
         inkscape:tile-y0="136.8702" />
      <path
         transform="matrix(1.20571,0,0,1.20571,1060.2069,121.11548)"
         sodipodi:type="arc"
         style="fill:#5e5e5e;fill-opacity:1;fill-rule:nonzero;stroke:#ffffff;stroke-width:0.27735791;marker:none;visibility:visible;display:inline"
         id="use14146"
         sodipodi:cx="375.09409"
         sodipodi:cy="137.9821"
         sodipodi:rx="1.111868"
         sodipodi:ry="1.111868"
         d="m 376.20595,137.9821 c 0,0.61407 -0.4978,1.11187 -1.11186,1.11187 -0.61407,0 -1.11187,-0.4978 -1.11187,-1.11187 0,-0.61407 0.4978,-1.11187 1.11187,-1.11187 0.61406,0 1.11186,0.4978 1.11186,1.11187 z"
         inkscape:tile-x0="373.9822"
         inkscape:tile-y0="136.8702" />
      <path
         transform="matrix(1.20571,0,0,1.20571,1068.3689,113.0437)"
         sodipodi:type="arc"
         style="fill:#5e5e5e;fill-opacity:1;fill-rule:nonzero;stroke:#ffffff;stroke-width:0.27735791;marker:none;visibility:visible;display:inline"
         id="use14148"
         sodipodi:cx="375.09409"
         sodipodi:cy="137.9821"
         sodipodi:rx="1.111868"
         sodipodi:ry="1.111868"
         d="m 376.20595,137.9821 c 0,0.61407 -0.4978,1.11187 -1.11186,1.11187 -0.61407,0 -1.11187,-0.4978 -1.11187,-1.11187 0,-0.61407 0.4978,-1.11187 1.11187,-1.11187 0.61406,0 1.11186,0.4978 1.11186,1.11187 z"
         inkscape:tile-x0="373.9822"
         inkscape:tile-y0="136.8702" />
      <path
         transform="matrix(1.20571,0,0,1.20571,1068.2914,119.09843)"
         sodipodi:type="arc"
         style="fill:#5e5e5e;fill-opacity:1;fill-rule:nonzero;stroke:#ffffff;stroke-width:0.27735791;marker:none;visibility:visible;display:inline"
         id="use14150"
         sodipodi:cx="375.09409"
         sodipodi:cy="137.9821"
         sodipodi:rx="1.111868"
         sodipodi:ry="1.111868"
         d="m 376.20595,137.9821 c 0,0.61407 -0.4978,1.11187 -1.11186,1.11187 -0.61407,0 -1.11187,-0.4978 -1.11187,-1.11187 0,-0.61407 0.4978,-1.11187 1.11187,-1.11187 0.61406,0 1.11186,0.4978 1.11186,1.11187 z"
         inkscape:tile-x0="373.9822"
         inkscape:tile-y0="136.8702" />
      <path
         transform="matrix(1.20571,0,0,1.20571,1067.6345,116.07107)"
         sodipodi:type="arc"
         style="fill:#5e5e5e;fill-opacity:1;fill-rule:nonzero;stroke:#ffffff;stroke-width:0.27735791;marker:none;visibility:visible;display:inline"
         id="use14152"
         sodipodi:cx="375.09409"
         sodipodi:cy="137.9821"
         sodipodi:rx="1.111868"
         sodipodi:ry="1.111868"
         d="m 376.20595,137.9821 c 0,0.61407 -0.4978,1.11187 -1.11186,1.11187 -0.61407,0 -1.11187,-0.4978 -1.11187,-1.11187 0,-0.61407 0.4978,-1.11187 1.11187,-1.11187 0.61406,0 1.11186,0.4978 1.11186,1.11187 z"
         inkscape:tile-x0="373.9822"
         inkscape:tile-y0="136.8702" />
      <path
         transform="matrix(1.20571,0,0,1.20571,1063.1607,120.4208)"
         sodipodi:type="arc"
         style="fill:#5e5e5e;fill-opacity:1;fill-rule:nonzero;stroke:#ffffff;stroke-width:0.27735791;marker:none;visibility:visible;display:inline"
         id="use14154"
         sodipodi:cx="375.09409"
         sodipodi:cy="137.9821"
         sodipodi:rx="1.111868"
         sodipodi:ry="1.111868"
         d="m 376.20595,137.9821 c 0,0.61407 -0.4978,1.11187 -1.11186,1.11187 -0.61407,0 -1.11187,-0.4978 -1.11187,-1.11187 0,-0.61407 0.4978,-1.11187 1.11187,-1.11187 0.61406,0 1.11186,0.4978 1.11186,1.11187 z"
         inkscape:tile-x0="373.9822"
         inkscape:tile-y0="136.8702" />
      <path
         inkscape:tile-y0="136.8702"
         inkscape:tile-x0="373.9822"
         inkscape:tile-h="2.223736"
         inkscape:tile-w="2.223736"
         inkscape:tile-cy="137.9821"
         inkscape:tile-cx="375.0941"
         d="m 376.20595,137.9821 c 0,0.61407 -0.4978,1.11187 -1.11186,1.11187 -0.61407,0 -1.11187,-0.4978 -1.11187,-1.11187 0,-0.61407 0.4978,-1.11187 1.11187,-1.11187 0.61406,0 1.11186,0.4978 1.11186,1.11187 z"
         sodipodi:ry="1.111868"
         sodipodi:rx="1.111868"
         sodipodi:cy="137.9821"
         sodipodi:cx="375.09409"
         id="path14156"
         style="fill:#979797;fill-opacity:1;fill-rule:nonzero;stroke:#ffffff;stroke-width:0.27735791;marker:none;visibility:visible;display:inline"
         sodipodi:type="arc"
         transform="matrix(1.20571,0,0,1.20571,1057.2531,110.01634)" />
      <path
         transform="matrix(1.20571,0,0,1.20571,1065.9595,110.94823)"
         sodipodi:type="arc"
         style="fill:#5e5e5e;fill-opacity:1;fill-rule:nonzero;stroke:#ffffff;stroke-width:0.27735791;marker:none;visibility:visible;display:inline"
         id="use14158"
         sodipodi:cx="375.09409"
         sodipodi:cy="137.9821"
         sodipodi:rx="1.111868"
         sodipodi:ry="1.111868"
         d="m 376.20595,137.9821 c 0,0.61407 -0.4978,1.11187 -1.11186,1.11187 -0.61407,0 -1.11187,-0.4978 -1.11187,-1.11187 0,-0.61407 0.4978,-1.11187 1.11187,-1.11187 0.61406,0 1.11186,0.4978 1.11186,1.11187 z"
         inkscape:tile-x0="373.9822"
         inkscape:tile-y0="136.8702" />
      <path
         transform="matrix(1.20571,0,0,1.20571,1060.2069,110.87072)"
         sodipodi:type="arc"
         style="fill:#5e5e5e;fill-opacity:1;fill-rule:nonzero;stroke:#ffffff;stroke-width:0.27735791;marker:none;visibility:visible;display:inline"
         id="use14160"
         sodipodi:cx="375.09409"
         sodipodi:cy="137.9821"
         sodipodi:rx="1.111868"
         sodipodi:ry="1.111868"
         d="m 376.20595,137.9821 c 0,0.61407 -0.4978,1.11187 -1.11186,1.11187 -0.61407,0 -1.11187,-0.4978 -1.11187,-1.11187 0,-0.61407 0.4978,-1.11187 1.11187,-1.11187 0.61406,0 1.11186,0.4978 1.11186,1.11187 z"
         inkscape:tile-x0="373.9822"
         inkscape:tile-y0="136.8702" />
      <path
         transform="matrix(1.20571,0,0,1.20571,1069.0683,110.01634)"
         sodipodi:type="arc"
         style="fill:#979797;fill-opacity:1;fill-rule:nonzero;stroke:#ffffff;stroke-width:0.27735791;marker:none;visibility:visible;display:inline"
         id="use14162"
         sodipodi:cx="375.09409"
         sodipodi:cy="137.9821"
         sodipodi:rx="1.111868"
         sodipodi:ry="1.111868"
         d="m 376.20595,137.9821 c 0,0.61407 -0.4978,1.11187 -1.11186,1.11187 -0.61407,0 -1.11187,-0.4978 -1.11187,-1.11187 0,-0.61407 0.4978,-1.11187 1.11187,-1.11187 0.61406,0 1.11186,0.4978 1.11186,1.11187 z"
         inkscape:tile-x0="373.9822"
         inkscape:tile-y0="136.8702" />
      <path
         transform="matrix(1.20571,0,0,1.20571,1058.5706,116.07107)"
         sodipodi:type="arc"
         style="fill:#5e5e5e;fill-opacity:1;fill-rule:nonzero;stroke:#ffffff;stroke-width:0.27735791;marker:none;visibility:visible;display:inline"
         id="use14164"
         sodipodi:cx="375.09409"
         sodipodi:cy="137.9821"
         sodipodi:rx="1.111868"
         sodipodi:ry="1.111868"
         d="m 376.20595,137.9821 c 0,0.61407 -0.4978,1.11187 -1.11186,1.11187 -0.61407,0 -1.11187,-0.4978 -1.11187,-1.11187 0,-0.61407 0.4978,-1.11187 1.11187,-1.11187 0.61406,0 1.11186,0.4978 1.11186,1.11187 z"
         inkscape:tile-x0="373.9822"
         inkscape:tile-y0="136.8702" />
      <path
         transform="matrix(1.20571,0,0,1.20571,1058.0295,119.09843)"
         sodipodi:type="arc"
         style="fill:#5e5e5e;fill-opacity:1;fill-rule:nonzero;stroke:#ffffff;stroke-width:0.27735791;marker:none;visibility:visible;display:inline"
         id="use14166"
         sodipodi:cx="375.09409"
         sodipodi:cy="137.9821"
         sodipodi:rx="1.111868"
         sodipodi:ry="1.111868"
         d="m 376.20595,137.9821 c 0,0.61407 -0.4978,1.11187 -1.11186,1.11187 -0.61407,0 -1.11187,-0.4978 -1.11187,-1.11187 0,-0.61407 0.4978,-1.11187 1.11187,-1.11187 0.61406,0 1.11186,0.4978 1.11186,1.11187 z"
         inkscape:tile-x0="373.9822"
         inkscape:tile-y0="136.8702" />
      <path
         transform="matrix(1.20571,0,0,1.20571,1063.1607,111.60514)"
         sodipodi:type="arc"
         style="fill:#5e5e5e;fill-opacity:1;fill-rule:nonzero;stroke:#ffffff;stroke-width:0.27735791;marker:none;visibility:visible;display:inline"
         id="use14168"
         sodipodi:cx="375.09409"
         sodipodi:cy="137.9821"
         sodipodi:rx="1.111868"
         sodipodi:ry="1.111868"
         d="m 376.20595,137.9821 c 0,0.61407 -0.4978,1.11187 -1.11186,1.11187 -0.61407,0 -1.11187,-0.4978 -1.11187,-1.11187 0,-0.61407 0.4978,-1.11187 1.11187,-1.11187 0.61406,0 1.11186,0.4978 1.11186,1.11187 z"
         inkscape:tile-x0="373.9822"
         inkscape:tile-y0="136.8702" />
      <path
         transform="matrix(1.20571,0,0,1.20571,1057.9133,113.0437)"
         sodipodi:type="arc"
         style="fill:#5e5e5e;fill-opacity:1;fill-rule:nonzero;stroke:#ffffff;stroke-width:0.27735791;marker:none;visibility:visible;display:inline"
         id="use14170"
         sodipodi:cx="375.09409"
         sodipodi:cy="137.9821"
         sodipodi:rx="1.111868"
         sodipodi:ry="1.111868"
         d="m 376.20595,137.9821 c 0,0.61407 -0.4978,1.11187 -1.11186,1.11187 -0.61407,0 -1.11187,-0.4978 -1.11187,-1.11187 0,-0.61407 0.4978,-1.11187 1.11187,-1.11187 0.61406,0 1.11186,0.4978 1.11186,1.11187 z"
         inkscape:tile-x0="373.9822"
         inkscape:tile-y0="136.8702" />
      <path
         transform="matrix(1.20571,0,0,1.20571,1060.4782,113.31496)"
         sodipodi:type="arc"
         style="fill:#444444;fill-opacity:1;fill-rule:nonzero;stroke:#ffffff;stroke-width:0.27735791;marker:none;visibility:visible;display:inline"
         id="use14172"
         sodipodi:cx="375.09409"
         sodipodi:cy="137.9821"
         sodipodi:rx="1.111868"
         sodipodi:ry="1.111868"
         d="m 376.20595,137.9821 c 0,0.61407 -0.4978,1.11187 -1.11186,1.11187 -0.61407,0 -1.11187,-0.4978 -1.11187,-1.11187 0,-0.61407 0.4978,-1.11187 1.11187,-1.11187 0.61406,0 1.11186,0.4978 1.11186,1.11187 z"
         inkscape:tile-x0="373.9822"
         inkscape:tile-y0="136.8702" />
      <path
         transform="matrix(1.20571,0,0,1.20571,1060.4007,118.74967)"
         sodipodi:type="arc"
         style="fill:#444444;fill-opacity:1;fill-rule:nonzero;stroke:#ffffff;stroke-width:0.27735791;marker:none;visibility:visible;display:inline"
         id="use14174"
         sodipodi:cx="375.09409"
         sodipodi:cy="137.9821"
         sodipodi:rx="1.111868"
         sodipodi:ry="1.111868"
         d="m 376.20595,137.9821 c 0,0.61407 -0.4978,1.11187 -1.11186,1.11187 -0.61407,0 -1.11187,-0.4978 -1.11187,-1.11187 0,-0.61407 0.4978,-1.11187 1.11187,-1.11187 0.61406,0 1.11186,0.4978 1.11186,1.11187 z"
         inkscape:tile-x0="373.9822"
         inkscape:tile-y0="136.8702" />
      <path
         transform="matrix(1.20571,0,0,1.20571,1063.1607,114.20624)"
         sodipodi:type="arc"
         style="fill:#444444;fill-opacity:1;fill-rule:nonzero;stroke:#ffffff;stroke-width:0.27735791;marker:none;visibility:visible;display:inline"
         id="use14176"
         sodipodi:cx="375.09409"
         sodipodi:cy="137.9821"
         sodipodi:rx="1.111868"
         sodipodi:ry="1.111868"
         d="m 376.20595,137.9821 c 0,0.61407 -0.4978,1.11187 -1.11186,1.11187 -0.61407,0 -1.11187,-0.4978 -1.11187,-1.11187 0,-0.61407 0.4978,-1.11187 1.11187,-1.11187 0.61406,0 1.11186,0.4978 1.11186,1.11187 z"
         inkscape:tile-x0="373.9822"
         inkscape:tile-y0="136.8702" />
      <path
         transform="matrix(1.20571,0,0,1.20571,1065.9595,113.39246)"
         sodipodi:type="arc"
         style="fill:#444444;fill-opacity:1;fill-rule:nonzero;stroke:#ffffff;stroke-width:0.27735791;marker:none;visibility:visible;display:inline"
         id="use14178"
         sodipodi:cx="375.09409"
         sodipodi:cy="137.9821"
         sodipodi:rx="1.111868"
         sodipodi:ry="1.111868"
         d="m 376.20595,137.9821 c 0,0.61407 -0.4978,1.11187 -1.11186,1.11187 -0.61407,0 -1.11187,-0.4978 -1.11187,-1.11187 0,-0.61407 0.4978,-1.11187 1.11187,-1.11187 0.61406,0 1.11186,0.4978 1.11186,1.11187 z"
         inkscape:tile-x0="373.9822"
         inkscape:tile-y0="136.8702" />
      <path
         transform="matrix(1.20571,0,0,1.20571,1061.2144,116.07107)"
         sodipodi:type="arc"
         style="fill:#444444;fill-opacity:1;fill-rule:nonzero;stroke:#ffffff;stroke-width:0.27735791;marker:none;visibility:visible;display:inline"
         id="use14180"
         sodipodi:cx="375.09409"
         sodipodi:cy="137.9821"
         sodipodi:rx="1.111868"
         sodipodi:ry="1.111868"
         d="m 376.20595,137.9821 c 0,0.61407 -0.4978,1.11187 -1.11186,1.11187 -0.61407,0 -1.11187,-0.4978 -1.11187,-1.11187 0,-0.61407 0.4978,-1.11187 1.11187,-1.11187 0.61406,0 1.11186,0.4978 1.11186,1.11187 z"
         inkscape:tile-x0="373.9822"
         inkscape:tile-y0="136.8702" />
      <path
         transform="matrix(1.20571,0,0,1.20571,1063.1607,117.78089)"
         sodipodi:type="arc"
         style="fill:#444444;fill-opacity:1;fill-rule:nonzero;stroke:#ffffff;stroke-width:0.27735791;marker:none;visibility:visible;display:inline"
         id="use14182"
         sodipodi:cx="375.09409"
         sodipodi:cy="137.9821"
         sodipodi:rx="1.111868"
         sodipodi:ry="1.111868"
         d="m 376.20595,137.9821 c 0,0.61407 -0.4978,1.11187 -1.11186,1.11187 -0.61407,0 -1.11187,-0.4978 -1.11187,-1.11187 0,-0.61407 0.4978,-1.11187 1.11187,-1.11187 0.61406,0 1.11186,0.4978 1.11186,1.11187 z"
         inkscape:tile-x0="373.9822"
         inkscape:tile-y0="136.8702" />
      <path
         transform="matrix(1.20571,0,0,1.20571,1064.9519,116.07107)"
         sodipodi:type="arc"
         style="fill:#444444;fill-opacity:1;fill-rule:nonzero;stroke:#ffffff;stroke-width:0.27735791;marker:none;visibility:visible;display:inline"
         id="use14184"
         sodipodi:cx="375.09409"
         sodipodi:cy="137.9821"
         sodipodi:rx="1.111868"
         sodipodi:ry="1.111868"
         d="m 376.20595,137.9821 c 0,0.61407 -0.4978,1.11187 -1.11186,1.11187 -0.61407,0 -1.11187,-0.4978 -1.11187,-1.11187 0,-0.61407 0.4978,-1.11187 1.11187,-1.11187 0.61406,0 1.11186,0.4978 1.11186,1.11187 z"
         inkscape:tile-x0="373.9822"
         inkscape:tile-y0="136.8702" />
      <path
         transform="matrix(1.20571,0,0,1.20571,1063.1607,116.07107)"
         sodipodi:type="arc"
         style="fill:#444444;fill-opacity:1;fill-rule:nonzero;stroke:#ffffff;stroke-width:0.27735791;marker:none;visibility:visible;display:inline"
         id="use14186"
         sodipodi:cx="375.09409"
         sodipodi:cy="137.9821"
         sodipodi:rx="1.111868"
         sodipodi:ry="1.111868"
         d="m 376.20595,137.9821 c 0,0.61407 -0.4978,1.11187 -1.11186,1.11187 -0.61407,0 -1.11187,-0.4978 -1.11187,-1.11187 0,-0.61407 0.4978,-1.11187 1.11187,-1.11187 0.61406,0 1.11186,0.4978 1.11186,1.11187 z"
         inkscape:tile-x0="373.9822"
         inkscape:tile-y0="136.8702" />
      <path
         transform="matrix(1.20571,0,0,1.20571,1065.882,118.78843)"
         sodipodi:type="arc"
         style="fill:#444444;fill-opacity:1;fill-rule:nonzero;stroke:#ffffff;stroke-width:0.27735791;marker:none;visibility:visible;display:inline"
         id="use14188"
         sodipodi:cx="375.09409"
         sodipodi:cy="137.9821"
         sodipodi:rx="1.111868"
         sodipodi:ry="1.111868"
         d="m 376.20595,137.9821 c 0,0.61407 -0.4978,1.11187 -1.11186,1.11187 -0.61407,0 -1.11187,-0.4978 -1.11187,-1.11187 0,-0.61407 0.4978,-1.11187 1.11187,-1.11187 0.61406,0 1.11186,0.4978 1.11186,1.11187 z"
         inkscape:tile-x0="373.9822"
         inkscape:tile-y0="136.8702" />
      <path
         transform="matrix(1.20571,0,0,1.20571,1057.2531,122.1258)"
         sodipodi:type="arc"
         style="fill:#979797;fill-opacity:1;fill-rule:nonzero;stroke:#ffffff;stroke-width:0.27735791;marker:none;visibility:visible;display:inline"
         id="use14190"
         sodipodi:cx="375.09409"
         sodipodi:cy="137.9821"
         sodipodi:rx="1.111868"
         sodipodi:ry="1.111868"
         d="m 376.20595,137.9821 c 0,0.61407 -0.4978,1.11187 -1.11186,1.11187 -0.61407,0 -1.11187,-0.4978 -1.11187,-1.11187 0,-0.61407 0.4978,-1.11187 1.11187,-1.11187 0.61406,0 1.11186,0.4978 1.11186,1.11187 z"
         inkscape:tile-x0="373.9822"
         inkscape:tile-y0="136.8702" />
      <path
         transform="matrix(1.20571,0,0,1.20571,1069.0683,122.1258)"
         sodipodi:type="arc"
         style="fill:#979797;fill-opacity:1;fill-rule:nonzero;stroke:#ffffff;stroke-width:0.27735791;marker:none;visibility:visible;display:inline"
         id="use14192"
         sodipodi:cx="375.09409"
         sodipodi:cy="137.9821"
         sodipodi:rx="1.111868"
         sodipodi:ry="1.111868"
         d="m 376.20595,137.9821 c 0,0.61407 -0.4978,1.11187 -1.11186,1.11187 -0.61407,0 -1.11187,-0.4978 -1.11187,-1.11187 0,-0.61407 0.4978,-1.11187 1.11187,-1.11187 0.61406,0 1.11186,0.4978 1.11186,1.11187 z"
         inkscape:tile-x0="373.9822"
         inkscape:tile-y0="136.8702" />
    </g>
  </g>
</svg>
