<?xml version="1.0" encoding="UTF-8" standalone="no"?>
<!-- Created with Inkscape (http://www.inkscape.org/) -->

<svg
   xmlns:dc="http://purl.org/dc/elements/1.1/"
   xmlns:cc="http://creativecommons.org/ns#"
   xmlns:rdf="http://www.w3.org/1999/02/22-rdf-syntax-ns#"
   xmlns:svg="http://www.w3.org/2000/svg"
   xmlns="http://www.w3.org/2000/svg"
   xmlns:sodipodi="http://sodipodi.sourceforge.net/DTD/sodipodi-0.dtd"
   xmlns:inkscape="http://www.inkscape.org/namespaces/inkscape"
   width="22"
   height="22"
   id="svg2"
   sodipodi:version="0.32"
   inkscape:version="0.48.1 r9760"
   version="1.0"
   sodipodi:docname="path-mode-spiro.svg"
   inkscape:output_extension="org.inkscape.output.svg.inkscape">
  <defs
     id="defs4" />
  <sodipodi:namedview
     id="base"
     pagecolor="#ffffff"
     bordercolor="#666666"
     borderopacity="1.0"
     inkscape:pageopacity="0.0"
     inkscape:pageshadow="2"
     inkscape:zoom="3.959798"
     inkscape:cx="0.71600826"
     inkscape:cy="31.30674"
     inkscape:document-units="px"
     inkscape:current-layer="layer1"
     showgrid="false"
     inkscape:window-width="806"
     inkscape:window-height="591"
     inkscape:window-x="204"
     inkscape:window-y="116" />
  <metadata
     id="metadata7">
    <rdf:RDF>
      <cc:Work
         rdf:about="">
        <dc:format>image/svg+xml</dc:format>
        <dc:type
           rdf:resource="http://purl.org/dc/dcmitype/StillImage" />
        <dc:title />
      </cc:Work>
    </rdf:RDF>
  </metadata>
  <g
     inkscape:label="Layer 1"
     inkscape:groupmode="layer"
     id="layer1"
     transform="translate(0,-26)">
    <g
       transform="matrix(1.188305,0,0,1.188305,-2015.2149,-199.71468)"
       style="display:inline"
       id="bak_spiro_splines_mode">
      <path
         style="fill:none;stroke:#555753;stroke-width:3.5;stroke-linecap:round;stroke-linejoin:round;stroke-miterlimit:4;stroke-opacity:1;stroke-dasharray:none;stroke-dashoffset:0;marker:none;visibility:visible;display:inline"
         d="m 1701.5897,203.79229 c -2.0587,-0.26142 -3.7811,-2.06568 -3.9403,-4.13574 -0.2323,-2.06273 1.1189,-4.16029 3.0929,-4.80202 1.9506,-0.71096 4.3057,0.11085 5.3951,1.87722 0.6818,1.02879 0.8348,2.31056 0.6716,3.51285 -0.1753,1.20282 0.3156,2.52456 1.3984,3.14493 1.3484,0.86475 3.329,0.33453 4.065,-1.08834 0.8134,-1.38006 0.2089,-3.33927 -1.2407,-4.02117"
         id="path15322"
         sodipodi:nodetypes="cccccccs"
         inkscape:connector-curvature="0" />
      <path
         sodipodi:nodetypes="cccccccs"
         id="path15326"
         d="m 1701.5897,203.79229 c -2.0587,-0.26142 -3.7811,-2.06568 -3.9403,-4.13574 -0.2323,-2.06273 1.1189,-4.16029 3.0929,-4.80202 1.9506,-0.71096 4.3057,0.11085 5.3951,1.87722 0.6818,1.02879 0.8348,2.31056 0.6716,3.51285 -0.1753,1.20282 0.3156,2.52456 1.3984,3.14493 1.3484,0.86475 3.329,0.33453 4.065,-1.08834 0.8134,-1.38006 0.2089,-3.33927 -1.2407,-4.02117"
         style="fill:none;stroke:#babdb6;stroke-width:1;stroke-linecap:round;stroke-linejoin:round;stroke-miterlimit:4;stroke-opacity:1;stroke-dasharray:none;stroke-dashoffset:0;marker:none;visibility:visible;display:inline"
         inkscape:connector-curvature="0" />
    </g>
  </g>
</svg>
