<?xml version="1.0" encoding="UTF-8" standalone="no"?>
<!-- Created with Inkscape (http://www.inkscape.org/) -->

<svg
   xmlns:dc="http://purl.org/dc/elements/1.1/"
   xmlns:cc="http://creativecommons.org/ns#"
   xmlns:rdf="http://www.w3.org/1999/02/22-rdf-syntax-ns#"
   xmlns:svg="http://www.w3.org/2000/svg"
   xmlns="http://www.w3.org/2000/svg"
   xmlns:xlink="http://www.w3.org/1999/xlink"
   xmlns:sodipodi="http://sodipodi.sourceforge.net/DTD/sodipodi-0.dtd"
   xmlns:inkscape="http://www.inkscape.org/namespaces/inkscape"
   version="1.0"
   width="22"
   height="22"
   id="svg2770"
   inkscape:version="0.48.1 r9760"
   sodipodi:docname="snap-node.svg">
  <sodipodi:namedview
     pagecolor="#ffffff"
     bordercolor="#666666"
     borderopacity="1"
     objecttolerance="10"
     gridtolerance="10"
     guidetolerance="10"
     inkscape:pageopacity="0"
     inkscape:pageshadow="2"
     inkscape:window-width="1366"
     inkscape:window-height="690"
     id="namedview46"
     showgrid="true"
     inkscape:zoom="20.05612"
     inkscape:cx="-3.058593"
     inkscape:cy="10.004618"
     inkscape:window-x="0"
     inkscape:window-y="24"
     inkscape:window-maximized="1"
     inkscape:current-layer="svg2770"
     inkscape:snap-grids="false"
     inkscape:snap-to-guides="false">
    <inkscape:grid
       id="grid3191"
       type="xygrid" />
  </sodipodi:namedview>
  <metadata
     id="metadata48">
    <rdf:RDF>
      <cc:Work
         rdf:about="">
        <dc:format>image/svg+xml</dc:format>
        <dc:type
           rdf:resource="http://purl.org/dc/dcmitype/StillImage" />
        <dc:title></dc:title>
      </cc:Work>
    </rdf:RDF>
  </metadata>
  <defs
     id="defs2772">
    <linearGradient
       id="linearGradient7442"
       inkscape:collect="always">
      <stop
         id="stop7444"
         offset="0"
         style="stop-color:white;stop-opacity:1;" />
      <stop
         id="stop7446"
         offset="1"
         style="stop-color:white;stop-opacity:0;" />
    </linearGradient>
    <linearGradient
       id="linearGradient7430"
       inkscape:collect="always">
      <stop
         id="stop7432"
         offset="0"
         style="stop-color:#d3d7cf;stop-opacity:1;" />
      <stop
         id="stop7434"
         offset="1"
         style="stop-color:#fafbfa;stop-opacity:1" />
    </linearGradient>
    <linearGradient
       inkscape:collect="always"
       xlink:href="#linearGradient7430"
       id="linearGradient7056"
       gradientUnits="userSpaceOnUse"
       gradientTransform="matrix(0,0.8333346,-0.83333803,0,338.84143,-3.6153878)"
       x1="12.197592"
       y1="401.09631"
       x2="15.698984"
       y2="404.59772" />
    <linearGradient
       inkscape:collect="always"
       xlink:href="#linearGradient7442"
       id="linearGradient7058"
       gradientUnits="userSpaceOnUse"
       gradientTransform="matrix(0,0.74999934,-0.75001134,0,305.3025,-2.4903648)"
       x1="12.816311"
       y1="400.38895"
       x2="12.816311"
       y2="406.51099" />
  </defs>
  <path
     d="M6.5 11.5C6.5003728 12.052177 6.0525477 12.5 5.4999996 12.5C4.9474535 12.5 4.499628 12.052177 4.5 11.5C4.499628 10.947825 4.9474535 10.5 5.4999996 10.5C6.0525479 10.499999 6.500373 10.947825 6.5 11.5L6.5 11.5Z"
     id="path3575"
     style="stroke-opacity:1;fill-opacity:1;stroke:#808080;stroke-linecap:butt;stroke-miterlimit:4;stroke-dasharray:none;stroke-width:1.0;fill:#e6e6e6"
     inkscape:connector-curvature="0"
     transform="matrix(1.000000,0.000000,0.000000,1.000000,0.000000,0.000000)" />
  <g
     id="g3237"
     transform="matrix(0.833333,0,0,0.833333,15.987225,5.0206527)">
    <path
       inkscape:connector-curvature="0"
       id="path3239"
       d="m 5.4000022,5.4000022 0,4.8000018 -4.80000196,0 0,-4.8000018 4.80000196,0 z"
       style="fill:url(#linearGradient7056);fill-opacity:1;stroke:#dd3b27;stroke-width:1.20000052;stroke-linecap:round;stroke-linejoin:round;stroke-miterlimit:4;stroke-opacity:1" />
    <path
       inkscape:connector-curvature="0"
       id="path3241"
       d="m 4.2000017,6.6000026 0,2.400001 -2.400001,0 0,-2.400001 2.400001,0 z"
       style="fill:none;stroke:url(#linearGradient7058);stroke-width:1.20000052;stroke-linecap:round;stroke-linejoin:miter;stroke-miterlimit:4;stroke-opacity:1" />
  </g>
  <path
     transform="matrix(1.000000,0.000000,0.000000,1.000000,0.000000,0.000000)"
     inkscape:connector-curvature="0"
     style="stroke-opacity:1;fill-opacity:1;stroke:#808080;stroke-linecap:butt;stroke-miterlimit:4;stroke-dasharray:none;stroke-width:1.0;fill:#e6e6e6"
     id="path7554"
     d="M9.5 11.5C9.5003728334 12.052177 9.05254775876 12.5 8.49999966667 12.5C7.94745357458 12.5 7.49962799994 12.052177 7.5 11.5C7.49962799994 10.947825 7.94745357458 10.5 8.49999966667 10.5C9.05254792542 10.499999 9.50037300006 10.947825 9.5 11.5L9.5 11.5Z" />
  <path
     d="M12.5 11.5C12.500373 12.052177 12.052548 12.5 11.5 12.5C10.947454 12.5 10.499628 12.052177 10.5 11.5C10.499628 10.947825 10.947454 10.5 11.5 10.5C12.052548 10.499999 12.500373 10.947825 12.5 11.5L12.5 11.5Z"
     id="path9954"
     style="stroke-opacity:1;fill-opacity:1;stroke:#808080;stroke-linecap:butt;stroke-miterlimit:4;stroke-dasharray:none;stroke-width:1.0;fill:#e6e6e6"
     inkscape:connector-curvature="0"
     transform="matrix(1.000000,0.000000,0.000000,1.000000,0.000000,0.000000)" />
  <path
     transform="matrix(1.000000,0.000000,0.000000,1.000000,0.000000,0.000000)"
     inkscape:connector-curvature="0"
     style="stroke-opacity:1;fill-opacity:1;stroke:#808080;stroke-linecap:butt;stroke-miterlimit:4;stroke-dasharray:none;stroke-width:1.0;fill:#e6e6e6"
     id="path3019"
     d="M3.5 11.5C3.5003728 12.052177 3.0525477 12.5 2.4999996 12.5C1.9474535 12.5 1.499628 12.052177 1.5 11.5C1.499628 10.947825 1.9474535 10.5 2.4999996 10.5C3.0525479 10.499999 3.500373 10.947825 3.5 11.5L3.5 11.5Z" />
  <path
     transform="matrix(1.000000,0.000000,0.000000,1.000000,0.000000,0.000000)"
     inkscape:connector-curvature="0"
     style="stroke-opacity:1;fill-opacity:1;stroke:#808080;stroke-linecap:butt;stroke-miterlimit:4;stroke-dasharray:none;stroke-width:1.0;fill:#e6e6e6"
     id="path3021"
     d="M15.5 11.5C15.500373 12.052177 15.052548 12.5 14.5 12.5C13.947454 12.5 13.499628 12.052177 13.5 11.5C13.499628 10.947825 13.947454 10.5 14.5 10.5C15.052548 10.499999 15.500373 10.947825 15.5 11.5L15.5 11.5Z" />
</svg>
