<?xml version="1.0" encoding="UTF-8" standalone="no"?>
<!-- Created with Inkscape (http://www.inkscape.org/) -->

<svg
   xmlns:dc="http://purl.org/dc/elements/1.1/"
   xmlns:cc="http://creativecommons.org/ns#"
   xmlns:rdf="http://www.w3.org/1999/02/22-rdf-syntax-ns#"
   xmlns:svg="http://www.w3.org/2000/svg"
   xmlns="http://www.w3.org/2000/svg"
   xmlns:xlink="http://www.w3.org/1999/xlink"
   xmlns:sodipodi="http://sodipodi.sourceforge.net/DTD/sodipodi-0.dtd"
   xmlns:inkscape="http://www.inkscape.org/namespaces/inkscape"
   width="22"
   height="22"
   id="svg2"
   sodipodi:version="0.32"
   inkscape:version="0.48.1 r9760"
   version="1.0"
   sodipodi:docname="snap-bounding-box-center.svg"
   inkscape:output_extension="org.inkscape.output.svg.inkscape">
  <defs
     id="defs4">
    <linearGradient
       id="linearGradient19967-9">
      <stop
         id="stop19969-5"
         offset="0"
         style="stop-color:#73d216" />
      <stop
         id="stop19971-8"
         offset="1.0000000"
         style="stop-color:#4e9a06;stop-opacity:1" />
    </linearGradient>
    <linearGradient
       inkscape:collect="always"
       xlink:href="#linearGradient19967-9"
       id="linearGradient10237"
       gradientUnits="userSpaceOnUse"
       gradientTransform="matrix(1.1250004,0,0,1.1295071,-23.187525,-41.501684)"
       x1="1346.8038"
       y1="214.32132"
       x2="1348.4083"
       y2="217.1902" />
    <linearGradient
       id="linearGradient7430"
       inkscape:collect="always">
      <stop
         id="stop7432"
         offset="0"
         style="stop-color:#d3d7cf;stop-opacity:1;" />
      <stop
         id="stop7434"
         offset="1"
         style="stop-color:#fafbfa;stop-opacity:1" />
    </linearGradient>
    <linearGradient
       y2="404.59772"
       x2="15.698984"
       y1="401.09631"
       x1="12.197592"
       gradientTransform="matrix(0.74894226,0.74894226,-0.74894534,0.74894534,308.4947,-281.01338)"
       gradientUnits="userSpaceOnUse"
       id="linearGradient3207"
       xlink:href="#linearGradient7430"
       inkscape:collect="always" />
    <linearGradient
       inkscape:collect="always"
       xlink:href="#linearGradient19967-9"
       id="linearGradient3017"
       gradientUnits="userSpaceOnUse"
       gradientTransform="matrix(1.1250004,0,0,1.1295071,-23.187525,-41.501684)"
       x1="1346.8038"
       y1="214.32132"
       x2="1348.4083"
       y2="217.1902" />
    <linearGradient
       inkscape:collect="always"
       xlink:href="#linearGradient19967-9"
       id="linearGradient3024"
       gradientUnits="userSpaceOnUse"
       gradientTransform="matrix(1.1250004,0,0,1.1295071,-23.187525,-41.501684)"
       x1="1346.8038"
       y1="214.32132"
       x2="1348.4083"
       y2="217.1902" />
  </defs>
  <sodipodi:namedview
     id="base"
     pagecolor="#ffffff"
     bordercolor="#666666"
     borderopacity="1.0"
     inkscape:pageopacity="0.0"
     inkscape:pageshadow="2"
     inkscape:zoom="3.959798"
     inkscape:cx="-31.373024"
     inkscape:cy="25.243719"
     inkscape:document-units="px"
     inkscape:current-layer="layer1"
     showgrid="false"
     inkscape:window-width="1024"
     inkscape:window-height="687"
     inkscape:window-x="0"
     inkscape:window-y="24"
     inkscape:snap-page="true"
     inkscape:snap-bbox="true"
     inkscape:snap-nodes="false"
     inkscape:bbox-nodes="true"
     inkscape:window-maximized="0" />
  <metadata
     id="metadata7">
    <rdf:RDF>
      <cc:Work
         rdf:about="">
        <dc:format>image/svg+xml</dc:format>
        <dc:type
           rdf:resource="http://purl.org/dc/dcmitype/StillImage" />
        <dc:title />
      </cc:Work>
    </rdf:RDF>
  </metadata>
  <g
     inkscape:label="Layer 1"
     inkscape:groupmode="layer"
     id="layer1"
     transform="translate(0,-26)">
    <use
       height="2000"
       width="2000"
       transform="matrix(3.0000002,0,0,3.0000002,-4394.526,-560.64289)"
       id="use20461"
       xlink:href="#node_b"
       y="0"
       x="0" />
    <use
       height="2000"
       width="2000"
       transform="matrix(3.0000002,0,0,3.0000002,-4364.526,-590.64289)"
       id="use20463"
       xlink:href="#node_b"
       y="0"
       x="0" />
    <g
       id="g14427"
       transform="matrix(1.8333333,0,0,1.8333333,-2420.3881,-215.62341)">
      <path
         inkscape:connector-curvature="0"
         sodipodi:nodetypes="ccccccccccccccccccccccccccccccccccccccc"
         d="m 1320.2117,143.79459 1,0 2,0 0,-1 -2,0 0,-2 -1,0 0,2 0,1 z m 0,-6 1,0 0,2 -1,0 0,-2 z m 0,-3 1,0 0,2 -1,0 0,-2 z m 0,-3 1,0 0,2 -1,0 0,-2 z m 6,11 0,1 -2,0 0,-1 2,0 z m 3,0 0,1 -2,0 0,-1 2,0 z m 3,0 0,1 -2,0 0,-1 2,0 z"
         style="fill:#3465a4;fill-opacity:1;fill-rule:evenodd;stroke:none"
         id="path20051" />
    </g>
    <path
       inkscape:connector-curvature="0"
       id="path3239"
       d="m 16.923501,26.762597 4.313902,4.313902 -4.313902,4.313903 -4.313903,-4.313902 4.313903,-4.313903 z"
       style="fill:url(#linearGradient3207);fill-opacity:1;stroke:#dd3b27;stroke-width:1.52519488;stroke-linecap:round;stroke-linejoin:round;stroke-miterlimit:4;stroke-opacity:1" />
  </g>
</svg>
