<?xml version="1.0" encoding="UTF-8" standalone="no"?>
<!-- Created with Inkscape (http://www.inkscape.org/) -->

<svg
   xmlns:dc="http://purl.org/dc/elements/1.1/"
   xmlns:cc="http://creativecommons.org/ns#"
   xmlns:rdf="http://www.w3.org/1999/02/22-rdf-syntax-ns#"
   xmlns:svg="http://www.w3.org/2000/svg"
   xmlns="http://www.w3.org/2000/svg"
   xmlns:xlink="http://www.w3.org/1999/xlink"
   xmlns:sodipodi="http://sodipodi.sourceforge.net/DTD/sodipodi-0.dtd"
   xmlns:inkscape="http://www.inkscape.org/namespaces/inkscape"
   sodipodi:docname="snap-orthogonal.svg"
   inkscape:version="0.48.1 r9760"
   id="svg2770"
   height="22"
   width="22"
   version="1.0">
  <sodipodi:namedview
     pagecolor="#ffffff"
     bordercolor="#666666"
     borderopacity="1"
     objecttolerance="10"
     gridtolerance="10"
     guidetolerance="10"
     inkscape:pageopacity="0"
     inkscape:pageshadow="2"
     inkscape:window-width="1366"
     inkscape:window-height="690"
     id="namedview46"
     showgrid="true"
     inkscape:zoom="20.05612"
     inkscape:cx="7.3924269"
     inkscape:cy="10.004618"
     inkscape:window-x="0"
     inkscape:window-y="24"
     inkscape:window-maximized="1"
     inkscape:current-layer="svg2770"
     inkscape:snap-grids="false"
     inkscape:snap-to-guides="false">
    <inkscape:grid
       id="grid3191"
       type="xygrid" />
  </sodipodi:namedview>
  <metadata
     id="metadata48">
    <rdf:RDF>
      <cc:Work
         rdf:about="">
        <dc:format>image/svg+xml</dc:format>
        <dc:type
           rdf:resource="http://purl.org/dc/dcmitype/StillImage" />
        <dc:title></dc:title>
      </cc:Work>
    </rdf:RDF>
  </metadata>
  <defs
     id="defs2772">
    <linearGradient
       id="linearGradient7442"
       inkscape:collect="always">
      <stop
         id="stop7444"
         offset="0"
         style="stop-color:white;stop-opacity:1;" />
      <stop
         id="stop7446"
         offset="1"
         style="stop-color:white;stop-opacity:0;" />
    </linearGradient>
    <linearGradient
       id="linearGradient7430"
       inkscape:collect="always">
      <stop
         id="stop7432"
         offset="0"
         style="stop-color:#d3d7cf;stop-opacity:1;" />
      <stop
         id="stop7434"
         offset="1"
         style="stop-color:#fafbfa;stop-opacity:1" />
    </linearGradient>
    <linearGradient
       y2="404.59772"
       x2="15.698984"
       y1="401.09631"
       x1="12.197592"
       gradientTransform="matrix(0,0.8333346,-0.83333803,0,338.84143,-3.6153878)"
       gradientUnits="userSpaceOnUse"
       id="linearGradient3793"
       xlink:href="#linearGradient7430"
       inkscape:collect="always" />
    <linearGradient
       y2="406.51099"
       x2="12.816311"
       y1="400.38895"
       x1="12.816311"
       gradientTransform="matrix(0,0.74999934,-0.75001134,0,305.3025,-2.4903648)"
       gradientUnits="userSpaceOnUse"
       id="linearGradient3795"
       xlink:href="#linearGradient7442"
       inkscape:collect="always" />
  </defs>
  <g
     id="g4763">
    <path
       inkscape:connector-curvature="0"
       style="stroke-opacity:1;fill-opacity:1;stroke:#808080;stroke-linecap:butt;stroke-miterlimit:4;stroke-dasharray:none;stroke-width:1.0;fill:#e6e6e6"
       id="path3575"
       d="M3.5 11.5C3.5003728 12.052177 3.0525477 12.5 2.4999996 12.5C1.9474535 12.5 1.499628 12.052177 1.5 11.5C1.499628 10.947825 1.9474535 10.5 2.4999996 10.5C3.0525479 10.499999 3.500373 10.947825 3.5 11.5L3.5 11.5Z"
       transform="matrix(1.000000,0.000000,0.000000,1.000000,0.000000,0.000000)" />
    <path
       d="M6.5 11.5C6.5003728 12.052177 6.0525478 12.5 5.4999997 12.5C4.9474536 12.5 4.499628 12.052177 4.5 11.5C4.499628 10.947825 4.9474536 10.5 5.4999997 10.5C6.0525479 10.499999 6.500373 10.947825 6.5 11.5L6.5 11.5Z"
       id="path7554"
       style="stroke-opacity:1;fill-opacity:1;stroke:#808080;stroke-linecap:butt;stroke-miterlimit:4;stroke-dasharray:none;stroke-width:1.0;fill:#e6e6e6"
       inkscape:connector-curvature="0"
       transform="matrix(1.000000,0.000000,0.000000,1.000000,0.000000,0.000000)" />
    <path
       inkscape:connector-curvature="0"
       style="fill:#e6e6e6;fill-opacity:1;stroke:#808080;stroke-width:1;stroke-linecap:butt;stroke-miterlimit:4;stroke-opacity:1;stroke-dasharray:none"
       id="path9954"
       d="m 11.5,11.5 c 3.73e-4,0.552177 -0.447452,1 -1,1 -0.552546,0 -1.000372,-0.447823 -1,-1 -3.72e-4,-0.552175 0.447454,-1 1,-1 0.552548,-10e-7 1.000373,0.447825 1,1 l 0,0 z" />
    <path
       d="M16.5 11.5C16.500373 12.052177 16.052548 12.5 15.5 12.5C14.947454 12.5 14.499628 12.052177 14.5 11.5C14.499628 10.947825 14.947454 10.5 15.5 10.5C16.052548 10.499999 16.500373 10.947825 16.5 11.5L16.5 11.5Z"
       id="path3021"
       style="stroke-opacity:1;fill-opacity:1;stroke:#808080;stroke-linecap:butt;stroke-miterlimit:4;stroke-dasharray:none;stroke-width:1.0;fill:#e6e6e6"
       inkscape:connector-curvature="0"
       transform="matrix(1.000000,0.000000,0.000000,1.000000,0.000000,0.000000)" />
    <path
       inkscape:connector-curvature="0"
       style="stroke-opacity:1;fill-opacity:1;stroke:#808080;stroke-linecap:butt;stroke-miterlimit:4;stroke-dasharray:none;stroke-width:1.0;fill:#e6e6e6"
       id="path3496"
       d="M19.5 11.5C19.500373 12.052177 19.052548 12.5 18.5 12.5C17.947454 12.5 17.499628 12.052177 17.5 11.5C17.499628 10.947825 17.947454 10.5 18.5 10.5C19.052548 10.499999 19.500373 10.947825 19.5 11.5L19.5 11.5Z"
       transform="matrix(1.000000,0.000000,0.000000,1.000000,0.000000,0.000000)" />
    <path
       d="M10.5 15.5C11.052177 15.499627 11.5 15.947452 11.5 16.5C11.5 17.052546 11.052177 17.500372 10.5 17.5C9.947825 17.500372 9.5 17.052546 9.5 16.5C9.499999 15.947452 9.947825 15.499627 10.5 15.5L10.5 15.5Z"
       id="path3779"
       style="stroke-opacity:1;fill-opacity:1;stroke:#808080;stroke-linecap:butt;stroke-miterlimit:4;stroke-dasharray:none;stroke-width:1.0;fill:#e6e6e6"
       inkscape:connector-curvature="0"
       transform="matrix(1.000000,0.000000,0.000000,1.000000,0.000000,0.000000)" />
    <path
       d="m 10.5,10.5 c 0.552177,-3.73e-4 1,0.447452 1,1 0,0.552546 -0.447823,1.000372 -1,1 -0.552175,3.72e-4 -1,-0.447454 -1,-1 -10e-7,-0.552548 0.447825,-1.000373 1,-1 l 0,0 z"
       id="path3783"
       style="fill:#e6e6e6;fill-opacity:1;stroke:#808080;stroke-width:1;stroke-linecap:butt;stroke-miterlimit:4;stroke-opacity:1;stroke-dasharray:none"
       inkscape:connector-curvature="0" />
    <path
       inkscape:connector-curvature="0"
       style="stroke-opacity:1;fill-opacity:1;stroke:#808080;stroke-linecap:butt;stroke-miterlimit:4;stroke-dasharray:none;stroke-width:1.0;fill:#e6e6e6"
       id="path3785"
       d="M10.5 18.5C11.052177 18.499627 11.5 18.947452 11.5 19.5C11.5 20.052546 11.052177 20.500372 10.5 20.5C9.947825 20.500372 9.5 20.052546 9.5 19.5C9.499999 18.947452 9.947825 18.499627 10.5 18.5L10.5 18.5Z"
       transform="matrix(1.000000,0.000000,0.000000,1.000000,0.000000,0.000000)" />
    <path
       d="M10.5 5.5C11.0521769517 5.499627 11.4999999666 5.947452 11.4999999666 6.5C11.4999999666 7.052546 11.0521769517 7.500372 10.4999999333 7.5C9.94782501492 7.500372 9.5 7.052546 9.5 6.5C9.4999990667 5.947452 9.94782508162 5.499627 10.5 5.5L10.5 5.5Z"
       id="path3789"
       style="stroke-opacity:1;fill-opacity:1;stroke:#808080;stroke-linecap:butt;stroke-miterlimit:4;stroke-dasharray:none;stroke-width:1.0;fill:#e6e6e6"
       inkscape:connector-curvature="0"
       transform="matrix(1.000000,0.000000,0.000000,1.000000,0.000000,0.000000)" />
    <path
       inkscape:connector-curvature="0"
       style="stroke-opacity:1;fill-opacity:1;stroke:#808080;stroke-linecap:butt;stroke-miterlimit:4;stroke-dasharray:none;stroke-width:1.0;fill:#e6e6e6"
       id="path3791"
       d="M10.5 2.5C11.0521769517 2.499627 11.4999999666 2.947452 11.4999999666 3.5C11.4999999666 4.052546 11.0521769517 4.500372 10.4999999333 4.5C9.94782501492 4.500372 9.5 4.052546 9.5 3.5C9.4999990667 2.947452 9.94782508162 2.499627 10.5 2.5L10.5 2.5Z"
       transform="matrix(1.000000,0.000000,0.000000,1.000000,0.000000,0.000000)" />
    <g
       transform="matrix(0.833333,0.000000,0.000000,0.833333,8.000000,5.000000)"
       id="g3237">
      <path
         style="stroke-linejoin:round;stroke-opacity:1;fill-opacity:1;stroke:#dd3b27;stroke-linecap:round;stroke-miterlimit:4;stroke-width:1.20000048;fill:url(#linearGradient3793)"
         d="M5.40000216 5.40000216L5.40000216 10.20000408L0.60000024 10.20000408L0.60000024 5.40000216L5.40000216 5.40000216Z"
         id="path3239"
         inkscape:connector-curvature="0"
         transform="matrix(1.000000,0.000000,0.000000,1.000000,0.000000,0.000000)" />
      <path
         style="stroke-linejoin:miter;stroke-opacity:1;stroke:url(#linearGradient3795);stroke-linecap:round;stroke-miterlimit:4;stroke-width:1.20000048;fill:none"
         d="M4.20000168 6.60000264L4.20000168 9.0000036L1.80000072 9.0000036L1.80000072 6.60000264L4.20000168 6.60000264Z"
         id="path3241"
         inkscape:connector-curvature="0"
         transform="matrix(1.000000,0.000000,0.000000,1.000000,0.000000,0.000000)" />
    </g>
  </g>
</svg>
