<?xml version="1.0" encoding="UTF-8" standalone="no"?>
<!-- Created with Inkscape (http://www.inkscape.org/) -->

<svg
   xmlns:dc="http://purl.org/dc/elements/1.1/"
   xmlns:cc="http://creativecommons.org/ns#"
   xmlns:rdf="http://www.w3.org/1999/02/22-rdf-syntax-ns#"
   xmlns:svg="http://www.w3.org/2000/svg"
   xmlns="http://www.w3.org/2000/svg"
   xmlns:sodipodi="http://sodipodi.sourceforge.net/DTD/sodipodi-0.dtd"
   xmlns:inkscape="http://www.inkscape.org/namespaces/inkscape"
   sodipodi:docname="story-editor.svg"
   inkscape:version="0.48.1 r9760"
   version="1.0"
   width="22"
   height="22"
   id="svg2">
  <sodipodi:namedview
     pagecolor="#ffffff"
     bordercolor="#666666"
     borderopacity="1"
     objecttolerance="10"
     gridtolerance="10"
     guidetolerance="10"
     inkscape:pageopacity="0"
     inkscape:pageshadow="2"
     inkscape:window-width="1366"
     inkscape:window-height="690"
     id="namedview117"
     showgrid="false"
     inkscape:zoom="14.181818"
     inkscape:cx="-4.3717949"
     inkscape:cy="11.669872"
     inkscape:window-x="0"
     inkscape:window-y="24"
     inkscape:window-maximized="1"
     inkscape:current-layer="svg2" />
  <metadata
     id="metadata119">
    <rdf:RDF>
      <cc:Work
         rdf:about="">
        <dc:format>image/svg+xml</dc:format>
        <dc:type
           rdf:resource="http://purl.org/dc/dcmitype/StillImage" />
        <dc:title></dc:title>
      </cc:Work>
    </rdf:RDF>
  </metadata>
  <defs
     id="defs4">
    <linearGradient
       x1="5.5179"
       y1="37.372"
       gradientTransform="matrix(0.37638,0.036153,0.0367,0.37487,-2.2183,-1.1331)"
       x2="9.5221"
       gradientUnits="userSpaceOnUse"
       y2="41.392"
       id="linearGradient3857">
      <stop
         offset="0"
         style="stop-color:#dbce48"
         id="stop2613" />
      <stop
         offset="1"
         style="stop-color:#c5b625"
         id="stop2615" />
    </linearGradient>
    <linearGradient
       x1="9"
       y1="29.057"
       gradientTransform="matrix(0.40402,-0.40569,0.60738,0.60227,-17.637,0.46249)"
       x2="9"
       gradientUnits="userSpaceOnUse"
       y2="26.03"
       id="linearGradient3855">
      <stop
         offset="0"
         style="stop-color:#ece5a5"
         id="stop2607" />
      <stop
         offset="1"
         style="stop-color:#fcfbf2"
         id="stop2609" />
    </linearGradient>
    <linearGradient
       x1="30.038"
       y1="24.99"
       gradientTransform="matrix(0.40402,-0.40569,0.60738,0.60227,-17.177,-2.197e-4)"
       x2="30.038"
       gradientUnits="userSpaceOnUse"
       y2="30"
       id="linearGradient3853">
      <stop
         offset="0"
         style="stop-color:#b1b1b1"
         id="stop2599" />
      <stop
         offset=".5"
         style="stop-color:#fff"
         id="stop2601" />
      <stop
         offset="1"
         style="stop-color:#8f8f8f"
         id="stop2603" />
    </linearGradient>
    <linearGradient
       x1="30.038"
       y1="24.99"
       gradientTransform="matrix(0.40402,-0.40569,0.60738,0.60227,-17.062,-0.11641)"
       x2="30.038"
       gradientUnits="userSpaceOnUse"
       y2="30"
       id="linearGradient3851">
      <stop
         offset="0"
         style="stop-color:#565656"
         id="stop2591" />
      <stop
         offset=".5"
         style="stop-color:#9a9a9a"
         id="stop2593" />
      <stop
         offset="1"
         style="stop-color:#545454"
         id="stop2595" />
    </linearGradient>
    <linearGradient
       x1="30.038"
       y1="24.99"
       gradientTransform="matrix(0.40402,-0.40569,0.60738,0.60227,-17.581,0.40547)"
       x2="30.038"
       gradientUnits="userSpaceOnUse"
       y2="30"
       id="linearGradient3849">
      <stop
         offset="0"
         style="stop-color:#b1b1b1"
         id="stop2583" />
      <stop
         offset=".5"
         style="stop-color:#fff"
         id="stop2585" />
      <stop
         offset="1"
         style="stop-color:#8f8f8f"
         id="stop2587" />
    </linearGradient>
    <linearGradient
       x1="30.038"
       y1="24.99"
       gradientTransform="matrix(0.40402,-0.40569,0.60738,0.60227,-17.466,0.28929)"
       x2="30.038"
       gradientUnits="userSpaceOnUse"
       y2="30"
       id="linearGradient3847">
      <stop
         offset="0"
         style="stop-color:#565656"
         id="stop2575" />
      <stop
         offset=".5"
         style="stop-color:#9a9a9a"
         id="stop2577" />
      <stop
         offset="1"
         style="stop-color:#545454"
         id="stop2579" />
    </linearGradient>
    <linearGradient
       x1="30.038"
       y1="24.99"
       gradientTransform="matrix(0.40402,-0.40569,0.60738,0.60227,-17.983,0.80921)"
       x2="30.038"
       gradientUnits="userSpaceOnUse"
       y2="30"
       id="linearGradient3845">
      <stop
         offset="0"
         style="stop-color:#b1b1b1"
         id="stop2567" />
      <stop
         offset=".5"
         style="stop-color:#fff"
         id="stop2569" />
      <stop
         offset="1"
         style="stop-color:#8f8f8f"
         id="stop2571" />
    </linearGradient>
    <linearGradient
       x1="30.038"
       y1="24.99"
       gradientTransform="matrix(0.40402,-0.40569,0.60738,0.60227,-17.868,0.69303)"
       x2="30.038"
       gradientUnits="userSpaceOnUse"
       y2="30"
       id="linearGradient3843">
      <stop
         offset="0"
         style="stop-color:#565656"
         id="stop2559" />
      <stop
         offset=".5"
         style="stop-color:#9a9a9a"
         id="stop2561" />
      <stop
         offset="1"
         style="stop-color:#545454"
         id="stop2563" />
    </linearGradient>
    <linearGradient
       x1="23.576"
       y1="25.357"
       gradientTransform="matrix(0.41578,-0.41749,0.51898,0.51462,-15.747,2.6504)"
       x2="23.576"
       gradientUnits="userSpaceOnUse"
       y2="31.211"
       id="linearGradient3841">
      <stop
         offset="0"
         style="stop-color:#181818"
         id="stop2541" />
      <stop
         offset=".13483"
         style="stop-color:#dbdbdb"
         id="stop2543" />
      <stop
         offset=".20224"
         style="stop-color:#a4a4a4"
         id="stop2545" />
      <stop
         offset=".26966"
         style="stop-color:#fff"
         id="stop2547" />
      <stop
         offset=".44650"
         style="stop-color:#8d8d8d"
         id="stop2549" />
      <stop
         offset=".57114"
         style="stop-color:#959595"
         id="stop2551" />
      <stop
         offset=".72038"
         style="stop-color:#cecece"
         id="stop2553" />
      <stop
         offset="1"
         style="stop-color:#181818"
         id="stop2555" />
    </linearGradient>
  </defs>
  <path
     transform="matrix(1.000000,0.000000,0.000000,1.000000,0.000000,0.000000)"
     id="path2987"
     style="stroke-linejoin:round;stroke-opacity:1;fill-opacity:1;stroke:#9a9a9a;stroke-linecap:round;stroke-width:1.0;fill:#ececec"
     d="M0.5 0.5L18.5 0.520643905661L18.51751 20.5C12.8334 20.4931961804 6.167 20.5070069187 0.5 20.5L0.5 0.500059954852Z"
     inkscape:connector-curvature="0" />
  <g
     id="g4198"
     style="fill:#999999"
     transform="matrix(1.0195,0,0,1,29.21,4.7744)">
    <path
       id="path6035"
       style="opacity:0.7;fill:#686868"
       d="m -25.666,-1.7733 h 1.1241 v 1 h -1.1241 v -1 z"
       inkscape:connector-curvature="0" />
    <path
       id="path6033"
       style="opacity:0.7;fill:#686868"
       d="m -24.388,-1.7733 h 1.0606 v 1 h -1.0606 v -1 z"
       inkscape:connector-curvature="0" />
    <path
       id="path6031"
       style="opacity:0.7;fill:#686868"
       d="m -23.175,-1.7733 h 0.93368 v 1 H -23.175 v -1 z"
       inkscape:connector-curvature="0" />
    <path
       id="path6029"
       style="opacity:0.7;fill:#686868"
       d="m -22.088,-1.7733 h 0.41011 v 1 H -22.088 v -1 z"
       inkscape:connector-curvature="0" />
    <path
       id="path6027"
       style="opacity:0.7;fill:#686868"
       d="m -21.525,-1.7733 h 0.91782 v 1 H -21.525 v -1 z"
       inkscape:connector-curvature="0" />
    <path
       id="path6025"
       style="opacity:0.7;fill:#686868"
       d="m -20.454,-1.7733 h 2.3775 v 1 h -2.3775 v -1 z"
       inkscape:connector-curvature="0" />
    <path
       id="path6017"
       style="opacity:0.7;fill:#686868"
       d="m -25.666,4.2267 h 1.1241 v 1 h -1.1241 v -1 z"
       inkscape:connector-curvature="0" />
    <path
       id="path6015"
       style="opacity:0.7;fill:#686868"
       d="m -24.388,4.2267 h 1.0606 v 1 h -1.0606 v -1 z"
       inkscape:connector-curvature="0" />
    <path
       id="path6013"
       style="opacity:0.7;fill:#686868"
       d="m -23.175,4.2267 h 0.93368 v 1 H -23.175 v -1 z"
       inkscape:connector-curvature="0" />
    <path
       id="path6011"
       style="opacity:0.7;fill:#686868"
       d="m -22.088,4.2267 h 0.41011 v 1 H -22.088 v -1 z"
       inkscape:connector-curvature="0" />
    <path
       id="path6009"
       style="opacity:0.7;fill:#686868"
       d="m -21.525,4.2267 h 0.91781 v 1 H -21.525 v -1 z"
       inkscape:connector-curvature="0" />
    <path
       id="path6007"
       style="opacity:0.7;fill:#686868"
       d="m -20.454,4.2267 h 2.3775 v 1 h -2.3775 v -1 z"
       inkscape:connector-curvature="0" />
    <path
       id="path6005"
       style="opacity:0.7;fill:#686868"
       d="m -17.923,4.2267 h 1.8063 v 1 h -1.8063 v -1 z"
       inkscape:connector-curvature="0" />
    <path
       id="path6003"
       style="opacity:0.7;fill:#686868"
       d="m -15.964,4.2267 h 0.5529 v 1 h -0.5529 v -1 z"
       inkscape:connector-curvature="0" />
    <path
       id="path6001"
       style="opacity:0.7;fill:#686868"
       d="m -15.258,4.2267 h 1.0923 v 1 h -1.0923 v -1 z"
       inkscape:connector-curvature="0" />
    <path
       id="path5999"
       style="opacity:0.7;fill:#686868"
       d="m -25.666,0.22666 h 1.7428 v 1 h -1.7428 v -1 z"
       inkscape:connector-curvature="0" />
    <path
       id="path5997"
       style="opacity:0.7;fill:#686868"
       d="m -23.764,0.22666 h 0.83849 v 1 H -23.764 v -1 z"
       inkscape:connector-curvature="0" />
    <path
       id="path5995"
       style="opacity:0.7;fill:#686868"
       d="m -22.766,0.22666 h 0.39424 v 1 H -22.766 v -1 z"
       inkscape:connector-curvature="0" />
    <path
       id="path5993"
       style="opacity:0.7;fill:#686868"
       d="m -22.213,0.22666 h 0.75916 v 1 H -22.213 v -1 z"
       inkscape:connector-curvature="0" />
    <path
       id="path5991"
       style="opacity:0.7;fill:#686868"
       d="m -21.295,0.22666 h 0.75916 v 1 H -21.295 v -1 z"
       inkscape:connector-curvature="0" />
    <path
       id="path5989"
       style="opacity:0.7;fill:#686868"
       d="m -20.376,0.22666 h 1.2193 v 1 h -1.2193 v -1 z"
       inkscape:connector-curvature="0" />
    <path
       id="path5987"
       style="opacity:0.7;fill:#686868"
       d="m -18.998,0.22666 h 1.6 v 1 h -1.6 v -1 z"
       inkscape:connector-curvature="0" />
    <path
       id="path5985"
       style="opacity:0.7;fill:#686868"
       d="m -17.239,0.22666 h 1.0765 v 1 h -1.0765 v -1 z"
       inkscape:connector-curvature="0" />
    <path
       id="path5983"
       style="opacity:0.7;fill:#686868"
       d="m -16.003,0.22666 h 0.25145 v 1 H -16.003 v -1 z"
       inkscape:connector-curvature="0" />
    <path
       id="path5981"
       style="opacity:0.7;fill:#686868"
       d="m -25.666,2.2267 h 1.9967 v 1 h -1.9967 v -1 z"
       inkscape:connector-curvature="0" />
    <path
       id="path5979"
       style="opacity:0.7;fill:#686868"
       d="m -23.512,2.2267 h 2.1395 v 1 h -2.1395 v -1 z"
       inkscape:connector-curvature="0" />
    <path
       id="path5977"
       style="opacity:0.7;fill:#686868"
       d="m -21.216,2.2267 h 0.85436 v 1 H -21.216 v -1 z"
       inkscape:connector-curvature="0" />
    <path
       id="path5975"
       style="opacity:0.7;fill:#686868"
       d="m -20.205,2.2267 h 2.0125 v 1 h -2.0125 v -1 z"
       inkscape:connector-curvature="0" />
    <path
       id="path5973"
       style="opacity:0.7;fill:#686868"
       d="m -16.502,2.2267 h 0.53704 v 1 H -16.502 v -1 z"
       inkscape:connector-curvature="0" />
    <path
       id="path5971"
       style="opacity:0.7;fill:#686868"
       d="m -18.036,2.2267 h 1.3779 v 1 h -1.3779 v -1 z"
       inkscape:connector-curvature="0" />
    <path
       id="path5969"
       style="opacity:0.7;fill:#686868"
       d="m -15.808,2.2267 h 0.31492 v 1 H -15.808 v -1 z"
       inkscape:connector-curvature="0" />
    <path
       id="path5967"
       style="opacity:0.7;fill:#686868"
       d="m -15.337,2.2267 h 0.85436 v 1 H -15.337 v -1 z"
       inkscape:connector-curvature="0" />
    <path
       id="path5949"
       style="opacity:0.7;fill:#686868"
       d="m -25.666,6.2267 h 1.4414 v 1 h -1.4414 v -1 z"
       inkscape:connector-curvature="0" />
    <path
       id="path5947"
       style="opacity:0.7;fill:#686868"
       d="m -24.071,6.2267 h 2.3933 v 1 h -2.3933 v -1 z"
       inkscape:connector-curvature="0" />
    <path
       id="path5945"
       style="opacity:0.7;fill:#686868"
       d="m -21.525,6.2267 h 1.1558 v 1 h -1.1558 v -1 z"
       inkscape:connector-curvature="0" />
    <path
       id="path5943"
       style="opacity:0.7;fill:#686868"
       d="m -18.986,6.2267 h 0.91782 v 1 H -18.986 v -1 z"
       inkscape:connector-curvature="0" />
    <path
       id="path5941"
       style="opacity:0.7;fill:#686868"
       d="m -17.915,6.2267 h 1.4731 v 1 h -1.4731 v -1 z"
       inkscape:connector-curvature="0" />
    <path
       id="path5939"
       style="opacity:0.7;fill:#686868"
       d="m -16.289,6.2267 h 2.3933 v 1 h -2.3933 v -1 z"
       inkscape:connector-curvature="0" />
    <path
       id="path5937"
       style="opacity:0.7;fill:#686868"
       d="m -20.216,6.2267 h 1.0765 v 1 h -1.0765 v -1 z"
       inkscape:connector-curvature="0" />
    <path
       id="path5935"
       style="opacity:0.7;fill:#686868"
       d="m -25.666,8.2267 h 1.8063 v 1 h -1.8063 v -1 z"
       inkscape:connector-curvature="0" />
    <path
       id="path5933"
       style="opacity:0.7;fill:#686868"
       d="m -23.71,8.2267 h 0.56877 v 1 H -23.71 v -1 z"
       inkscape:connector-curvature="0" />
    <path
       id="path5931"
       style="opacity:0.7;fill:#686868"
       d="m -22.992,8.2267 h 1.2986 v 1 h -1.2986 v -1 z"
       inkscape:connector-curvature="0" />
    <path
       id="path5929"
       style="opacity:0.7;fill:#686868"
       d="m -21.544,8.2267 h 0.88609 v 1 H -21.544 v -1 z"
       inkscape:connector-curvature="0" />
    <path
       id="path5927"
       style="opacity:0.7;fill:#686868"
       d="m -20.509,8.2267 h 0.88608 v 1 H -20.509 v -1 z"
       inkscape:connector-curvature="0" />
  </g>
  <path
     id="path2422"
     style="opacity:0.15;fill:#0c0c0c;fill-rule:evenodd"
     d="M 17.071,6.4304 C 16.98685,6.38043 16.92173,6.39343 16.87871,6.4212 l -5.7296,3.6801 -1.0545,0.67922 -0.03247,0.01374 -1.2485,2.8377 3.0941,0.094 0.02569,-0.01734 1.0613,-0.67562 5.7281,-3.7118 c 0.172,-0.111 -0.101,-0.848 -0.611,-1.6561 -0.383,-0.606 -0.789,-1.0846 -1.041,-1.2345 z"
     inkscape:connector-curvature="0" />
  <g
     id="g8626"
     transform="matrix(0.8214,0,0,0.82339,9.0191,0.2725)">
    <path
       id="path3041"
       style="fill:url(#linearGradient3841);stroke:#0c0c0c;stroke-width:0.60798001;stroke-linejoin:round"
       d="m 2.0488,11.037 c 0.28654,-0.20771 1.148,0.25639 1.9603,1.0619 0.81045,0.80363 1.2602,1.6413 1.0576,1.9306 -7.708e-4,0.0011 0.01977,0.01774 0.01898,0.01882 l 10.138,-10.18 c 0.258,-0.2581 -0.213,-1.1432 -1.051,-1.9744 -0.838,-0.8311 -1.728,-1.295 -1.986,-1.0366 l -10.138,10.18 z"
       inkscape:connector-curvature="0" />
    <path
       id="path3043"
       style="opacity:0.8;fill:#ffb6ed;stroke:#e28ccd;stroke-width:0.60798001;stroke-linejoin:round"
       d="m 10.565,2.4841 c 0.28654,-0.20771 1.148,0.25639 1.9603,1.0619 0.81044,0.80363 1.2602,1.6413 1.0576,1.9306 -7.69e-4,0.0011 0.01977,0.017738 0.01898,0.018821 l 1.552,-1.5571 c 0.409,-0.4086 -0.029,-1.0928 -0.981,-2.0447 -0.813,-0.8055 -1.674,-1.2696 -1.96,-1.0619 l -0.02525,0.025356 -1.6218,1.6271 z"
       inkscape:connector-curvature="0" />
    <path
       id="path3045"
       style="opacity:0.6;fill:#0c0c0c"
       d="m 2.0488,11.037 c 0.28654,-0.20771 1.148,0.25639 1.9603,1.0619 0.81044,0.80363 1.2602,1.6413 1.0576,1.9306 -7.714e-4,0.0011 0.01977,0.01774 0.01898,0.01882 l 6.982,-7.0109 0.02525,-0.025356 c 7.9e-4,-0.00108 -0.01975,-0.01772 -0.01898,-0.01882 0.203,-0.2885 -0.247,-1.1262 -1.058,-1.9298 -0.812,-0.8056 -1.6734,-1.2697 -1.9599,-1.062 l -0.025251,0.025355 -6.982,7.0109 z"
       inkscape:connector-curvature="0" />
    <path
       id="path3047"
       style="fill:url(#linearGradient3843)"
       d="m 9.1785,3.8767 c 0.28654,-0.20771 1.148,0.25639 1.9603,1.0619 0.81044,0.80363 1.2602,1.6413 1.0576,1.9306 -7.71e-4,0.0011 0.01977,0.017736 0.01898,0.01882 l 0.12626,-0.12678 c 7.9e-4,-0.00108 -0.01975,-0.01772 -0.01898,-0.01882 0.203,-0.2892 -0.246,-1.1269 -1.057,-1.9305 -0.812,-0.8056 -1.6737,-1.2697 -1.9602,-1.062 L 9.1792,3.8767 z"
       inkscape:connector-curvature="0" />
    <path
       id="path3049"
       style="fill:url(#linearGradient3845)"
       d="m 9.0628,3.9929 c 0.28654,-0.20771 1.148,0.25639 1.9603,1.0619 0.81044,0.80363 1.2602,1.6413 1.0576,1.9306 -7.71e-4,0.0011 0.01977,0.017738 0.01898,0.018822 l 0.126,-0.1268 c 7.9e-4,-0.00108 -0.01975,-0.017721 -0.01898,-0.018821 0.203,-0.2892 -0.247,-1.1269 -1.058,-1.9305 -0.812,-0.8056 -1.6734,-1.2697 -1.9599,-1.062 l -0.1263,0.1268 z"
       inkscape:connector-curvature="0" />
    <path
       id="path3051"
       style="fill:url(#linearGradient3847)"
       d="m 9.5806,3.473 c 0.28654,-0.20771 1.148,0.25639 1.9603,1.0619 0.81045,0.80363 1.2602,1.6413 1.0576,1.9306 -7.73e-4,0.0011 0.01977,0.017737 0.01898,0.01882 l 0.12626,-0.12678 c 7.91e-4,-0.00108 -0.01975,-0.017721 -0.01898,-0.01882 0.202,-0.2892 -0.247,-1.1269 -1.058,-1.9306 -0.812,-0.8055 -1.6736,-1.2696 -1.9601,-1.0619 l -0.1263,0.1268 z"
       inkscape:connector-curvature="0" />
    <path
       id="path3053"
       style="fill:url(#linearGradient3849)"
       d="m 9.4649,3.5891 c 0.28654,-0.20771 1.148,0.25639 1.9603,1.0619 0.81045,0.80363 1.2602,1.6413 1.0576,1.9306 -7.69e-4,0.0011 0.01977,0.017737 0.01898,0.018821 l 0.12626,-0.12678 c 7.9e-4,-0.00108 -0.01975,-0.01772 -0.01898,-0.01882 0.203,-0.2892 -0.247,-1.1269 -1.057,-1.9305 -0.813,-0.8055 -1.6743,-1.2696 -1.9608,-1.0619 l -0.1263,0.1267 z"
       inkscape:connector-curvature="0" />
    <path
       id="path3055"
       style="fill:url(#linearGradient3851)"
       d="m 9.9846,3.0673 c 0.2864,-0.2077 1.1484,0.2564 1.9604,1.0619 0.81045,0.80363 1.2602,1.6413 1.0576,1.9306 -7.7e-4,0.0011 0.01977,0.017738 0.01898,0.018821 l 0.126,-0.1268 C 13.148372,5.950741 13.12783,5.9341 13.1286,5.933 13.3306,5.6438 12.8816,4.8061 12.0706,4.0024 11.2586,3.1969 10.3966,2.7328 10.1106,2.9405 L 9.9842,3.0673 z"
       inkscape:connector-curvature="0" />
    <path
       id="path3057"
       style="fill:url(#linearGradient3853)"
       d="m 9.8689,3.1835 c 0.28654,-0.20771 1.148,0.25639 1.9603,1.0619 0.81044,0.80363 1.2602,1.6413 1.0576,1.9306 -7.71e-4,0.0011 0.01977,0.017737 0.01898,0.018821 l 0.12626,-0.12678 c 7.89e-4,-0.00108 -0.01975,-0.017722 -0.01898,-0.018821 0.203,-0.2892 -0.247,-1.1269 -1.057,-1.9306 -0.813,-0.8055 -1.674,-1.2696 -1.9608,-1.0619 l -0.1263,0.1268 z"
       inkscape:connector-curvature="0" />
    <path
       id="path3059"
       style="fill:url(#linearGradient3855);fill-rule:evenodd;stroke:url(#linearGradient3857);stroke-width:0.60798001"
       d="m 0.25981,15.794 4.7719,-1.7255 0.039308,-0.03926 c 0.2026,-0.289 -0.2524,-1.127 -1.0629,-1.93 -0.8124,-0.806 -1.6727,-1.268 -1.9592,-1.06 l -1.7891,4.755 z"
       inkscape:connector-curvature="0" />
    <path
       id="path3061"
       style="fill:#0c0c0c;fill-rule:evenodd;stroke:#0c0c0c;stroke-width:0.60798001"
       d="m 0.74443,14.506 -0.48521,1.283 1.3014,-0.473 C 1.44692,15.182 1.34132,15.048 1.20622,14.914 1.05072,14.76 0.89917,14.633 0.74445,14.506 z"
       inkscape:connector-curvature="0" />
  </g>
</svg>
