<?xml version="1.0" encoding="UTF-8" standalone="no"?>
<!-- Created with Inkscape (http://www.inkscape.org/) -->

<svg
   xmlns:dc="http://purl.org/dc/elements/1.1/"
   xmlns:cc="http://creativecommons.org/ns#"
   xmlns:rdf="http://www.w3.org/1999/02/22-rdf-syntax-ns#"
   xmlns:svg="http://www.w3.org/2000/svg"
   xmlns="http://www.w3.org/2000/svg"
   xmlns:xlink="http://www.w3.org/1999/xlink"
   xmlns:sodipodi="http://sodipodi.sourceforge.net/DTD/sodipodi-0.dtd"
   xmlns:inkscape="http://www.inkscape.org/namespaces/inkscape"
   id="svg2"
   height="22"
   width="22"
   version="1.0"
   inkscape:version="0.48.1 r9760"
   sodipodi:docname="tab-close.svg">
  <metadata
     id="metadata36">
    <rdf:RDF>
      <cc:Work
         rdf:about="">
        <dc:format>image/svg+xml</dc:format>
        <dc:type
           rdf:resource="http://purl.org/dc/dcmitype/StillImage" />
        <dc:title></dc:title>
      </cc:Work>
    </rdf:RDF>
  </metadata>
  <sodipodi:namedview
     pagecolor="#ffffff"
     bordercolor="#666666"
     borderopacity="1"
     objecttolerance="10"
     gridtolerance="10"
     guidetolerance="10"
     inkscape:pageopacity="0"
     inkscape:pageshadow="2"
     inkscape:window-width="1366"
     inkscape:window-height="690"
     id="namedview34"
     showgrid="false"
     inkscape:zoom="10.02806"
     inkscape:cx="-7.4346506"
     inkscape:cy="13.5096"
     inkscape:window-x="0"
     inkscape:window-y="24"
     inkscape:window-maximized="1"
     inkscape:current-layer="svg2"
     showguides="true"
     inkscape:guide-bbox="true">
    <sodipodi:guide
       orientation="0,1"
       position="-2.8918854,19.046555"
       id="guide3105" />
  </sodipodi:namedview>
  <defs
     id="defs4">
    <radialGradient
       id="radialGradient10633"
       xlink:href="#linearGradient5060"
       gradientUnits="userSpaceOnUse"
       cy="486.65"
       cx="605.71"
       gradientTransform="matrix(0.014458,0,0,0.0092249,12.122,14.197)"
       r="117.14" />
    <linearGradient
       id="linearGradient5060">
      <stop
         id="stop5062"
         offset="0" />
      <stop
         id="stop5064"
         style="stop-opacity:0"
         offset="1" />
    </linearGradient>
    <radialGradient
       id="radialGradient10631"
       xlink:href="#linearGradient5060"
       gradientUnits="userSpaceOnUse"
       cy="486.65"
       cx="605.71"
       gradientTransform="matrix(-0.014458,0,0,0.0092249,11.149,14.197)"
       r="117.14" />
    <linearGradient
       id="linearGradient10629"
       y2="609.51"
       gradientUnits="userSpaceOnUse"
       x2="302.86"
       gradientTransform="matrix(0.042249,0,0,0.0092249,-2.6346,14.197)"
       y1="366.65"
       x1="302.86">
      <stop
         id="stop5050"
         style="stop-opacity:0"
         offset="0" />
      <stop
         id="stop5056"
         offset=".5" />
      <stop
         id="stop5052"
         style="stop-opacity:0"
         offset="1" />
    </linearGradient>
    <linearGradient
       id="linearGradient5002"
       y2="17.249"
       gradientUnits="userSpaceOnUse"
       x2="20.909"
       gradientTransform="matrix(0.51147,0,0,0.5174,-0.28318,-2.9719)"
       y1="42.125"
       x1="20.909">
      <stop
         id="stop260"
         style="stop-color:#fafafa"
         offset="0" />
      <stop
         id="stop261"
         style="stop-color:#bbb"
         offset="1" />
    </linearGradient>
    <linearGradient
       id="linearGradient4999"
       y2="45.015"
       gradientUnits="userSpaceOnUse"
       x2="29.268"
       gradientTransform="matrix(0.4886,0,0,0.39942,0.25993,1.2851)"
       y1="22.765"
       x1="26.538">
      <stop
         id="stop2202"
         style="stop-color:#fff"
         offset="0" />
      <stop
         id="stop2204"
         style="stop-color:#fff;stop-opacity:0"
         offset="1" />
    </linearGradient>
    <linearGradient
       inkscape:collect="always"
       xlink:href="#linearGradient4999"
       id="linearGradient3072"
       gradientUnits="userSpaceOnUse"
       gradientTransform="matrix(0.4886,0,0,0.39942,0.25993,-0.7149)"
       x1="26.538"
       y1="22.765"
       x2="29.268"
       y2="45.015" />
    <linearGradient
       inkscape:collect="always"
       xlink:href="#linearGradient5002"
       id="linearGradient3075"
       gradientUnits="userSpaceOnUse"
       gradientTransform="matrix(0.51147,0,0,0.5174,-0.28318,-4.9719)"
       x1="20.909"
       y1="42.125"
       x2="20.909"
       y2="17.249" />
    <linearGradient
       inkscape:collect="always"
       xlink:href="#linearGradient10629"
       id="linearGradient3165"
       gradientUnits="userSpaceOnUse"
       gradientTransform="matrix(0.042249,0,0,0.0092249,-2.6346,14.197)"
       x1="302.86"
       y1="366.65"
       x2="302.86"
       y2="609.51" />
    <radialGradient
       inkscape:collect="always"
       xlink:href="#linearGradient5060"
       id="radialGradient3167"
       gradientUnits="userSpaceOnUse"
       gradientTransform="matrix(-0.014458,0,0,0.0092249,11.149,14.197)"
       cx="605.71"
       cy="486.65"
       r="117.14" />
    <radialGradient
       inkscape:collect="always"
       xlink:href="#linearGradient5060"
       id="radialGradient3169"
       gradientUnits="userSpaceOnUse"
       gradientTransform="matrix(0.014458,0,0,0.0092249,12.122,14.197)"
       cx="605.71"
       cy="486.65"
       r="117.14" />
    <linearGradient
       inkscape:collect="always"
       xlink:href="#linearGradient5002"
       id="linearGradient3171"
       gradientUnits="userSpaceOnUse"
       gradientTransform="matrix(0.51147,0,0,0.5174,-0.28318,-4.9719)"
       x1="20.909"
       y1="42.125"
       x2="20.909"
       y2="17.249" />
    <linearGradient
       inkscape:collect="always"
       xlink:href="#linearGradient4999"
       id="linearGradient3173"
       gradientUnits="userSpaceOnUse"
       gradientTransform="matrix(0.4886,0,0,0.39942,0.25993,-0.7149)"
       x1="26.538"
       y1="22.765"
       x2="29.268"
       y2="45.015" />
  </defs>
  <g
     id="g3063"
     style="opacity:0.5">
    <g
       id="g10624"
       style="opacity:0.50000000000000000"
       transform="matrix(1,0,0,1.3391,-0.63517,-8.0402)">
      <rect
         id="rect2879"
         style="opacity:0.40205999999999997;fill:url(#linearGradient10629)"
         height="2.2402999"
         width="20.4"
         y="17.579"
         x="2.4352" />
      <path
         id="path2881"
         style="opacity:0.40205999999999997;fill:url(#radialGradient10631)"
         d="m 2.4352,17.579 v 2.2402 c -0.74457,0.0042 -1.8,-0.50191 -1.8,-1.1202 0,-0.61833 0.83088,-1.12 1.8,-1.12 z"
         inkscape:connector-curvature="0" />
      <path
         id="path2883"
         style="opacity:0.40205999999999997;fill:url(#radialGradient10633)"
         d="m 20.835,17.579 v 2.2402 c 0.74457,0.0042 1.8,-0.50191 1.8,-1.1202 0,-0.61833 -0.83088,-1.12 -1.8,-1.12 z"
         inkscape:connector-curvature="0" />
    </g>
    <path
       id="rect1316"
       style="fill:url(#linearGradient3075);fill-rule:evenodd;stroke:#888a85;stroke-linejoin:round"
       d="m 4.3165,3.5894 c -0.98222,0 -1.7866,0.82737 -1.7866,1.8317 v 7.1073 H 0.7717 c -0.1547,0 -0.27172,0.13445 -0.27172,0.29104 v 3.3896 c 0,0.15659 0.11702,0.29104 0.27172,0.29104 h 20.441 c 0.1547,0 0.2877,-0.13445 0.2877,-0.29104 v -3.3896 c 0,-0.15659 -0.133,-0.29104 -0.2877,-0.29104 h -1.7166 l 0.004,-7.028 c 0,-1.4589 -0.61322,-2 -2,-2 L 4.3161,3.58978 z"
       inkscape:connector-curvature="0" />
    <path
       id="path1331"
       style="opacity:0.40000000000000002;fill:none;stroke:url(#linearGradient3072);stroke-linecap:round"
       d="M 4.5978,4.525 C 4.0325,4.525 3.5,4.9098 3.5,5.5385 v 7.9366 h -2 l 0.045243,2 h 18.955 l -0.05626,-2 h -1.9437 v -8 c -0.01965,-0.72357 -0.11191,-0.93822 -1,-0.93822 l -12.902,-0.0119 z"
       inkscape:connector-curvature="0" />
  </g>
  <g
     id="g3151"
     transform="translate(0,4)">
    <g
       transform="matrix(1,0,0,1.3391,-0.63517,-8.0402)"
       style="opacity:0.5"
       id="g3153">
      <rect
         x="2.4352"
         y="17.579"
         width="20.4"
         height="2.2402999"
         style="opacity:0.40206;fill:url(#linearGradient3165)"
         id="rect3155" />
      <path
         inkscape:connector-curvature="0"
         d="m 2.4352,17.579 v 2.2402 c -0.74457,0.0042 -1.8,-0.50191 -1.8,-1.1202 0,-0.61833 0.83088,-1.12 1.8,-1.12 z"
         style="opacity:0.40206;fill:url(#radialGradient3167)"
         id="path3157" />
      <path
         inkscape:connector-curvature="0"
         d="m 20.835,17.579 v 2.2402 c 0.74457,0.0042 1.8,-0.50191 1.8,-1.1202 0,-0.61833 -0.83088,-1.12 -1.8,-1.12 z"
         style="opacity:0.40206;fill:url(#radialGradient3169)"
         id="path3159" />
    </g>
    <path
       inkscape:connector-curvature="0"
       d="m 4.3165,3.5894 c -0.98222,0 -1.7866,0.82737 -1.7866,1.8317 v 7.1073 H 0.7717 c -0.1547,0 -0.27172,0.13445 -0.27172,0.29104 v 3.3896 c 0,0.15659 0.11702,0.29104 0.27172,0.29104 h 20.441 c 0.1547,0 0.2877,-0.13445 0.2877,-0.29104 v -3.3896 c 0,-0.15659 -0.133,-0.29104 -0.2877,-0.29104 h -1.7166 l 0.004,-7.028 c 0,-1.4589 -0.61322,-2 -2,-2 L 4.3161,3.58978 z"
       style="fill:url(#linearGradient3171);fill-rule:evenodd;stroke:#888a85;stroke-linejoin:round"
       id="path3161" />
    <path
       inkscape:connector-curvature="0"
       d="M 4.5978,4.525 C 4.0325,4.525 3.5,4.9098 3.5,5.5385 v 7.9366 h -2 l 0.045243,2 h 18.955 l -0.05626,-2 h -1.9437 v -8 c -0.01965,-0.72357 -0.11191,-0.93822 -1,-0.93822 l -12.902,-0.0119 z"
       style="opacity:0.4;fill:none;stroke:url(#linearGradient3173);stroke-linecap:round"
       id="path3163" />
  </g>
</svg>
