<?xml version="1.0" encoding="UTF-8" standalone="no"?>
<!-- Created with Inkscape (http://www.inkscape.org/) -->

<svg
   xmlns:dc="http://purl.org/dc/elements/1.1/"
   xmlns:cc="http://creativecommons.org/ns#"
   xmlns:rdf="http://www.w3.org/1999/02/22-rdf-syntax-ns#"
   xmlns:svg="http://www.w3.org/2000/svg"
   xmlns="http://www.w3.org/2000/svg"
   xmlns:xlink="http://www.w3.org/1999/xlink"
   xmlns:sodipodi="http://sodipodi.sourceforge.net/DTD/sodipodi-0.dtd"
   xmlns:inkscape="http://www.inkscape.org/namespaces/inkscape"
   width="22"
   height="22"
   id="svg19960"
   sodipodi:version="0.32"
   inkscape:version="0.48.1 r9760"
   sodipodi:docname="tools-report-bug.svg"
   inkscape:output_extension="org.inkscape.output.svg.inkscape"
   version="1.1">
  <defs
     id="defs19962">
    <linearGradient
       id="linearGradient3718">
      <stop
         style="stop-color:#ffffff;stop-opacity:1;"
         offset="0"
         id="stop3720" />
      <stop
         style="stop-color:#ffffff;stop-opacity:0;"
         offset="1"
         id="stop3722" />
    </linearGradient>
    <radialGradient
       r="7.1339197"
       fy="6.5031056"
       fx="9.1764851"
       cy="6.5031056"
       cx="9.1764851"
       gradientTransform="matrix(3.4939439,1.5115643,-1.6226959,3.7508171,-6.2139223,-37.864098)"
       gradientUnits="userSpaceOnUse"
       id="radialGradient12098"
       xlink:href="#linearGradient3718"
       inkscape:collect="always" />
    <linearGradient
       y2="44.6875"
       x2="23.6875"
       y1="12.46873"
       x1="23.6875"
       gradientTransform="matrix(0.509229,0.509229,-0.3990781,0.3990781,13.678889,-6.1855966)"
       gradientUnits="userSpaceOnUse"
       id="linearGradient12109"
       xlink:href="#linearGradient10800"
       inkscape:collect="always" />
    <linearGradient
       y2="35.715881"
       x2="28.974474"
       y1="8.1831656"
       x1="15.059207"
       gradientTransform="matrix(0.4529317,0.4529317,-0.3549581,0.3549581,14.453442,-3.6879492)"
       gradientUnits="userSpaceOnUse"
       id="linearGradient12112"
       xlink:href="#linearGradient7862"
       inkscape:collect="always" />
    <linearGradient
       id="linearGradient10800">
      <stop
         id="stop10802"
         offset="0"
         style="stop-color:#343434;stop-opacity:1;" />
      <stop
         id="stop10804"
         offset="1"
         style="stop-color:#a40000;stop-opacity:1;" />
    </linearGradient>
    <linearGradient
       y2="44.6875"
       x2="23.6875"
       y1="12.46873"
       x1="23.6875"
       gradientTransform="matrix(-0.509229,-0.509229,-0.3990781,0.3990781,38.602291,18.737805)"
       gradientUnits="userSpaceOnUse"
       id="linearGradient12115"
       xlink:href="#linearGradient10800"
       inkscape:collect="always" />
    <linearGradient
       id="linearGradient7862">
      <stop
         id="stop7864"
         offset="0"
         style="stop-color:#ffffff;stop-opacity:1;" />
      <stop
         id="stop7866"
         offset="1"
         style="stop-color:#ffffff;stop-opacity:0.3445946;" />
    </linearGradient>
    <linearGradient
       y2="36.328308"
       x2="28.651867"
       y1="6.1055274"
       x1="45.746742"
       gradientTransform="matrix(-0.4529317,-0.4529317,-0.3549581,0.3549581,36.104413,17.96348)"
       gradientUnits="userSpaceOnUse"
       id="linearGradient12118"
       xlink:href="#linearGradient7862"
       inkscape:collect="always" />
    <linearGradient
       y2="22.777781"
       x2="13.049218"
       y1="21.333336"
       x1="20.166368"
       gradientTransform="matrix(-0.4967627,-0.4967627,-0.4895352,0.4895352,40.6227,14.658218)"
       gradientUnits="userSpaceOnUse"
       id="linearGradient12122"
       xlink:href="#linearGradient6878"
       inkscape:collect="always" />
    <linearGradient
       id="linearGradient6878">
      <stop
         id="stop6880"
         offset="0"
         style="stop-color:#ef2929;stop-opacity:1;" />
      <stop
         id="stop6882"
         offset="1"
         style="stop-color:#a40000;stop-opacity:1;" />
    </linearGradient>
    <linearGradient
       y2="22.777781"
       x2="13.049218"
       y1="21.333336"
       x1="20.166367"
       gradientTransform="matrix(0.4967627,0.4967627,-0.4895352,0.4895352,17.758475,-8.2060068)"
       gradientUnits="userSpaceOnUse"
       id="linearGradient12125"
       xlink:href="#linearGradient6878"
       inkscape:collect="always" />
    <linearGradient
       gradientTransform="matrix(0.7071068,0.7071068,-0.7071068,0.7071068,16.625848,-6.836573)"
       y2="9.014863"
       x2="18.970167"
       y1="6.5861273"
       x1="11.5903"
       gradientUnits="userSpaceOnUse"
       id="linearGradient12129"
       xlink:href="#linearGradient9617"
       inkscape:collect="always" />
    <radialGradient
       r="4.9981017"
       fy="12.29684"
       fx="21.278254"
       cy="12.29684"
       cx="21.278254"
       gradientTransform="matrix(0.5550032,0.571237,-0.2548303,0.2475883,12.665538,-5.8990275)"
       gradientUnits="userSpaceOnUse"
       id="radialGradient12133"
       xlink:href="#linearGradient3821"
       inkscape:collect="always" />
    <linearGradient
       id="linearGradient9617">
      <stop
         id="stop9619"
         offset="0"
         style="stop-color:#ffffff;stop-opacity:1;" />
      <stop
         id="stop9621"
         offset="1"
         style="stop-color:#ffffff;stop-opacity:0;" />
    </linearGradient>
    <linearGradient
       y2="46.768028"
       x2="33.474957"
       y1="27.956526"
       x1="33.474957"
       gradientTransform="matrix(0.6734854,0.6734854,-0.6752556,0.6752556,18.927164,-18.235181)"
       gradientUnits="userSpaceOnUse"
       id="linearGradient12148"
       xlink:href="#linearGradient9617"
       inkscape:collect="always" />
    <linearGradient
       id="linearGradient3821">
      <stop
         id="stop3823"
         offset="0"
         style="stop-color:#75796d;stop-opacity:1;" />
      <stop
         id="stop3825"
         offset="1"
         style="stop-color:#000000;stop-opacity:1;" />
    </linearGradient>
    <radialGradient
       r="11.02332"
       fy="31.75547"
       fx="23.511866"
       cy="31.75547"
       cx="23.511866"
       gradientTransform="matrix(0.6734379,0.6734379,-0.7698574,0.7698574,21.711708,-20.946597)"
       gradientUnits="userSpaceOnUse"
       id="radialGradient12151"
       xlink:href="#linearGradient3821"
       inkscape:collect="always" />
    <linearGradient
       id="linearGradient16727">
      <stop
         id="stop16729"
         offset="0"
         style="stop-color:#000000;stop-opacity:1;" />
      <stop
         id="stop16731"
         offset="1"
         style="stop-color:#2e3436;stop-opacity:1;" />
    </linearGradient>
    <radialGradient
       r="18.515625"
       fy="29.068731"
       fx="24.703125"
       cy="29.068731"
       cx="24.703125"
       gradientTransform="matrix(0.420155,0.420155,-0.369812,0.369812,15.241225,-3.5581729)"
       gradientUnits="userSpaceOnUse"
       id="radialGradient12154"
       xlink:href="#linearGradient16727"
       inkscape:collect="always" />
    <linearGradient
       id="linearGradient20125"
       inkscape:collect="always">
      <stop
         id="stop20127"
         offset="0"
         style="stop-color:#000000;stop-opacity:1;" />
      <stop
         id="stop20129"
         offset="1"
         style="stop-color:#000000;stop-opacity:0;" />
    </linearGradient>
    <radialGradient
       r="15.02314"
       fy="29.430376"
       fx="23.629322"
       cy="29.430376"
       cx="23.629322"
       gradientTransform="matrix(0.3749986,0.3780829,-0.5648142,0.5648141,25.183075,-5.9649912)"
       gradientUnits="userSpaceOnUse"
       id="radialGradient12157"
       xlink:href="#linearGradient20125"
       inkscape:collect="always" />
  </defs>
  <sodipodi:namedview
     id="base"
     pagecolor="#ffffff"
     bordercolor="#666666"
     borderopacity="1.0"
     inkscape:pageopacity="0.0"
     inkscape:pageshadow="2"
     inkscape:zoom="7"
     inkscape:cx="1.6428571"
     inkscape:cy="30.469229"
     inkscape:current-layer="layer1"
     showgrid="true"
     inkscape:grid-bbox="true"
     inkscape:document-units="px"
     inkscape:window-width="1366"
     inkscape:window-height="688"
     inkscape:window-x="0"
     inkscape:window-y="25"
     inkscape:window-maximized="1" />
  <metadata
     id="metadata19965">
    <rdf:RDF>
      <cc:Work
         rdf:about="">
        <dc:format>image/svg+xml</dc:format>
        <dc:type
           rdf:resource="http://purl.org/dc/dcmitype/StillImage" />
        <dc:title></dc:title>
      </cc:Work>
    </rdf:RDF>
  </metadata>
  <g
     id="layer1"
     inkscape:label="Layer 1"
     inkscape:groupmode="layer"
     transform="translate(0,-26)">
    <g
       style="display:inline"
       id="g10014"
       transform="matrix(0.79284991,0,0,0.79284991,-14.271298,9.2510833)">
      <g
         transform="translate(-2e-6,2.838692e-5)"
         inkscape:label="Shadow"
         id="g2033"
         style="display:inline">
        <g
           transform="matrix(1.052632,0,0,1.285713,-1.263158,-13.42854)"
           style="opacity:0.4"
           id="g3712" />
      </g>
      <g
         inkscape:r_cy="true"
         inkscape:r_cx="true"
         transform="matrix(0.928889,0,0,1,1.711111,0)"
         style="opacity:0.51098902"
         id="g4851" />
      <g
         transform="matrix(1.0000056,0,0,0.9823119,16.836511,17.299598)"
         id="layer3"
         inkscape:label="01">
        <path
           style="opacity:0.6;fill:url(#radialGradient12157);fill-opacity:1;fill-rule:evenodd;stroke:none;stroke-width:0.98541713px;marker:none;visibility:visible;display:inline;overflow:visible;enable-background:accumulate"
           d="M 25.929779,8.3893774 C 15.640203,-0.17907961 -0.86884914,16.154594 7.3240313,26.464795 17.624851,36.687184 36.15433,19.083224 25.929779,8.3893774 z"
           id="path14570"
           inkscape:connector-curvature="0" />
        <path
           style="fill:url(#radialGradient12154);fill-opacity:1;stroke:none"
           d="m 14.858081,31.25321 1.076085,-3.169345 0.340597,-0.136247 4.199277,-7.11857 -1.365911,-0.437071 -3.902123,7.184975 0.124303,0.370666 -0.472228,3.305592 0,0 z M 1.1634826,17.558611 l 3.3055925,-0.472227 0.3040448,0.191364 7.2515961,-3.969184 -0.472228,-1.416683 -7.0834133,4.250048 -0.082738,0.233689 -3.2228543,1.182993 2e-7,0 z m 6.1389575,-8.0278674 2.8333659,-2e-7 0.200933,0.1697869 4.067792,1.2313567 0.45355,-1.4011438 -4.722275,-0.9444551 -0.2403512,0.1576085 -2.5930147,0.786847 0,0 z m 15.5835089,15.5835084 0.870268,-2.590684 0.09058,-0.226287 -0.96085,-4.738669 -1.416682,0.472227 1.206333,4.115496 0.210349,0.134552 0,2.833365 2e-6,0 z m 4.73867,-6.59479 -1.905305,-2.849761 0.255957,-0.688498 -4.033777,0.688499 3.305592,0.472227 0.01476,-0.01476 2.362775,2.392291 -2e-6,2e-6 z M 13.913626,4.8084682 l 2.375895,2.3463803 0,0 0.45747,3.3203505 0.678827,-4.0434487 -0.678827,0.265628 -2.833365,-1.8889101 0,0 z"
           id="rect11805"
           sodipodi:nodetypes="cccccccccccccccccccccccccccccccccccccccccccccc"
           inkscape:connector-curvature="0" />
        <path
           style="fill:url(#radialGradient12151);fill-opacity:1;fill-rule:nonzero;stroke:#2e3436;stroke-width:1;stroke-linecap:round;stroke-linejoin:round;stroke-miterlimit:4;stroke-opacity:1;stroke-dasharray:none"
           d="M 20.735906,10.752709 C 13.408473,4.8689763 1.9860316,18.48846 10.261887,24.055155 c 7.297295,4.41763 17.579771,-7.298372 10.474019,-13.302446 l 0,0 z"
           id="path8971"
           inkscape:connector-curvature="0" />
        <path
           style="fill:none;stroke:url(#linearGradient12148);stroke-width:0.99991906;stroke-linecap:round;stroke-linejoin:round;stroke-miterlimit:4;stroke-opacity:1;stroke-dasharray:none"
           d="m 20.028799,11.548204 c -6.579427,-5.1679071 -16.6097743,7.620893 -8.662058,11.976621 6.218042,2.941547 14.49001,-7.190467 8.662058,-11.976621 l 0,0 z"
           id="path9003"
           inkscape:connector-curvature="0" />
        <g
           id="g10990"
           transform="matrix(0.3164782,0.3164782,-0.3558518,0.3558518,11.987423,11.857519)"
           style="fill:#2e3436;fill-opacity:1;stroke:#2e3436;stroke-opacity:1">
          <path
             sodipodi:nodetypes="cccc"
             id="rect6614"
             d="m 10.66434,-16.281541 -0.331428,-2.889987 0.816153,-0.08426 -0.484725,2.974242 0,5e-6 z"
             style="fill:#2e3436;fill-opacity:1;stroke:#2e3436;stroke-width:1;stroke-linecap:square;stroke-linejoin:round;stroke-miterlimit:4;stroke-opacity:1;stroke-dashoffset:0"
             inkscape:connector-curvature="0" />
          <path
             style="fill:#2e3436;fill-opacity:1;stroke:#2e3436;stroke-width:1;stroke-linecap:square;stroke-linejoin:round;stroke-miterlimit:4;stroke-opacity:1;stroke-dashoffset:0"
             d="m 16.573091,-16.281541 0.33143,-2.889987 -0.816155,-0.08426 0.484725,2.974242 0,5e-6 z"
             id="path10773"
             sodipodi:nodetypes="cccc"
             inkscape:connector-curvature="0" />
          <g
             transform="translate(-10,-31)"
             id="g9944"
             style="fill:#2e3436;fill-opacity:1;stroke:#2e3436;stroke-opacity:1">
            <path
               sodipodi:nodetypes="cccc"
               id="path6628-0"
               d="m 18.214905,9.8014869 -1.616121,-2.1667085 -0.57862,0.701002 2.194741,1.4657065 z"
               style="fill:#2e3436;fill-opacity:1;stroke:#2e3436;stroke-width:1;stroke-linecap:square;stroke-linejoin:round;stroke-miterlimit:4;stroke-opacity:1;stroke-dashoffset:0"
               inkscape:connector-curvature="0" />
            <path
               sodipodi:nodetypes="cccc"
               id="path6632"
               d="M 16.214384,8.5688587 18,4.9999999 16.91135,5.6454112 16.214384,8.5688587 z"
               style="fill:#2e3436;fill-opacity:1;stroke:#2e3436;stroke-width:1;stroke-linecap:square;stroke-linejoin:round;stroke-miterlimit:4;stroke-opacity:1;stroke-dashoffset:0"
               inkscape:transform-center-y="-2.0268915"
               inkscape:transform-center-x="-0.41582443"
               inkscape:connector-curvature="0" />
            <path
               sodipodi:nodetypes="cccc"
               id="path6617"
               d="m 20.850319,12.474153 -1.844836,-1.93286 0.677759,-0.5835681 1.167077,2.5164281 0,0 z"
               style="fill:#2e3436;fill-opacity:1;stroke:#2e3436;stroke-width:1;stroke-linecap:square;stroke-linejoin:round;stroke-miterlimit:4;stroke-opacity:1;stroke-dashoffset:0"
               inkscape:connector-curvature="0" />
            <path
               style="fill:#2e3436;fill-opacity:1;stroke:#2e3436;stroke-width:1;stroke-linecap:square;stroke-linejoin:round;stroke-miterlimit:4;stroke-opacity:1;stroke-dashoffset:0"
               d="m 20.008187,10.728522 -2.482213,-0.9010131 0.447769,-0.798946 2.034444,1.6999591 z"
               id="path6619"
               sodipodi:nodetypes="cccc"
               inkscape:connector-curvature="0" />
            <path
               style="fill:#2e3436;fill-opacity:1;stroke:#2e3436;stroke-width:1;stroke-linecap:square;stroke-linejoin:round;stroke-miterlimit:4;stroke-opacity:1;stroke-dashoffset:0"
               d="m 28.785094,9.8014869 1.616121,-2.1667085 0.57862,0.701002 -2.194741,1.4657065 z"
               id="path10767"
               sodipodi:nodetypes="cccc"
               inkscape:connector-curvature="0" />
            <path
               style="fill:#2e3436;fill-opacity:1;stroke:#2e3436;stroke-width:1;stroke-linecap:square;stroke-linejoin:round;stroke-miterlimit:4;stroke-opacity:1;stroke-dashoffset:0"
               d="M 26.14968,12.474153 27.994516,10.541293 27.316757,9.9577249 26.14968,12.474153 z"
               id="path10775"
               sodipodi:nodetypes="cccc"
               inkscape:connector-curvature="0" />
            <path
               sodipodi:nodetypes="cccc"
               id="path10777"
               d="M 26.991812,10.728522 29.474025,9.8275089 29.026256,9.0285629 26.991812,10.728522 z"
               style="fill:#2e3436;fill-opacity:1;stroke:#2e3436;stroke-width:1;stroke-linecap:square;stroke-linejoin:round;stroke-miterlimit:4;stroke-opacity:1;stroke-dashoffset:0"
               inkscape:connector-curvature="0" />
            <path
               inkscape:transform-center-x="0.41582443"
               inkscape:transform-center-y="-2.0268915"
               style="fill:#2e3436;fill-opacity:1;stroke:#2e3436;stroke-width:1;stroke-linecap:square;stroke-linejoin:round;stroke-miterlimit:4;stroke-opacity:1;stroke-dashoffset:0"
               d="M 30.785616,8.5688587 29,4.9999999 l 1.08865,0.6454113 0.696966,2.9234475 0,0 z"
               id="path10827"
               sodipodi:nodetypes="cccc"
               inkscape:connector-curvature="0" />
          </g>
        </g>
        <path
           style="fill:url(#radialGradient12133);fill-opacity:1;fill-rule:evenodd;stroke:none;stroke-width:1;marker:none;visibility:visible;display:inline;overflow:visible;enable-background:accumulate"
           d="M 23.483859,8.5701215 C 22.381524,7.3361658 18.587004,8.170198 18.68863,10.244521 c 0.345723,1.486698 1.660251,2.315466 2.67092,3.191781 2.154744,1.585636 3.914382,-2.791004 2.709916,-4.2257463 C 23.900457,8.9774856 23.720864,8.733925 23.483859,8.5701215 z"
           id="path9055"
           inkscape:connector-curvature="0" />
        <path
           style="fill:#2e3436;fill-opacity:1;fill-rule:nonzero;stroke:none"
           d="m 24.521165,8.9934114 c -0.130108,0.1301077 -0.708994,0.2338155 -1.001736,-0.058926 -0.292741,-0.2927415 -0.189032,-0.8716265 -0.05892,-1.0017342 0.130107,-0.1301076 0.237588,0.2375879 0.530329,0.5303294 0.292742,0.2927415 0.660439,0.4002232 0.530331,0.5303308 l -4e-6,0 z"
           id="path10831"
           sodipodi:nodetypes="csssc"
           inkscape:connector-curvature="0" />
        <path
           style="fill:none;stroke:url(#linearGradient12129);stroke-width:1.005;stroke-linecap:butt;stroke-linejoin:miter;stroke-miterlimit:4;stroke-opacity:1;stroke-dasharray:none;stroke-dashoffset:0;marker:none;visibility:visible;display:inline;overflow:visible;enable-background:accumulate"
           d="m 22.371091,9.5594659 c -1.099776,-0.679369 -1.903487,-0.4676406 -2.381584,-0.3044575 -0.08086,0.027598 -0.924704,-0.4845485 -0.48758,0.2045381 0.189665,0.2989907 0.284782,1.2101685 1.335312,2.1199075 2.914314,2.922959 3.267489,-0.717328 1.533852,-2.0199881 l 0,0 z"
           id="path11715"
           sodipodi:nodetypes="csscc"
           inkscape:connector-curvature="0" />
        <path
           style="fill:none;stroke:#2e3436;stroke-width:1.005;stroke-linecap:round;stroke-linejoin:round;stroke-miterlimit:4;stroke-opacity:1;stroke-dasharray:none;stroke-dashoffset:0;marker:none;visibility:visible;display:inline;overflow:visible;enable-background:accumulate"
           d="M 23.352029,9.0851962 C 22.365519,8.0986853 21.142704,7.9369891 20.076376,8.1702535 19.102073,8.383383 18.401841,8.9972319 18.16383,9.4478597 c 0.680503,1.0365063 1.275823,1.9549723 2.029952,2.7955843 0.807438,0.791729 1.84615,1.362562 2.795584,2.029952 0.450627,-0.238011 1.064477,-0.938243 1.277606,-1.912546 0.233264,-1.066329 0.07157,-2.289144 -0.914943,-3.2756538 l 0,0 z"
           id="path10949"
           sodipodi:nodetypes="cscccsc"
           inkscape:connector-curvature="0" />
        <path
           sodipodi:nodetypes="cccsccc"
           style="fill:url(#linearGradient12125);fill-opacity:1;fill-rule:evenodd;stroke:none;stroke-width:1.0186404;marker:none;visibility:visible;display:inline;overflow:visible;enable-background:accumulate"
           d="m 18.393615,9.07333 c 0.564086,0.567135 1.620809,2.105119 1.769048,3.230921 C 18.650352,14.108425 9.5023601,21.786759 7.63724,23.772786 7.6118146,23.069816 3.5101734,17.964598 9.5231056,11.951666 12.182356,9.2924154 16.341229,7.0098593 18.393615,9.07333 z m 1.769048,3.230921 c 0,0 0,0 0,0 z"
           id="path11061"
           inkscape:connector-curvature="0" />
        <path
           id="path11079"
           d="m 23.343363,14.023078 c -0.567135,-0.564086 -2.10512,-1.620809 -3.230921,-1.769049 -1.804174,1.512312 -9.482508,10.660304 -11.4685351,12.525424 0.7029696,0.02542 5.8081881,4.127067 11.8211201,-1.885866 2.659251,-2.65925 4.941806,-6.818123 2.878336,-8.870509 l 0,0 z m -3.230921,-1.769049 c 0,0 0,0 0,0 z"
           style="fill:url(#linearGradient12122);fill-opacity:1;fill-rule:evenodd;stroke:none;stroke-width:1.0186404;marker:none;visibility:visible;display:inline;overflow:visible;enable-background:accumulate"
           sodipodi:nodetypes="cccsccc"
           inkscape:connector-curvature="0" />
        <path
           style="fill:#0c0d0e;fill-opacity:1;fill-rule:nonzero;stroke:none"
           d="m 20.33827,11.990034 c -0.107452,-0.100556 -0.216939,-0.166171 -0.342162,-0.232362 -0.834065,-0.440872 -1.975934,-0.16923 -2.433162,0.311841 -0.0063,0.0066 -0.0123,0.01163 -0.0183,0.0183 -0.01237,0.0091 -0.02514,0.02745 -0.0366,0.0366 -0.07627,0.06091 -0.134679,0.106214 -0.1647,0.164701 -0.232249,0.232248 -0.152103,0.725381 0.117709,1.25231 0.05195,0.101449 0.07908,0.19175 0.14777,0.294171 0.05157,0.0769 0.101561,0.159616 0.162274,0.235474 0.08492,0.114131 0.178548,0.215148 0.29106,0.327659 0.183756,0.180129 0.355718,0.32186 0.541035,0.431236 0.634396,0.425471 1.269519,0.542443 1.546482,0.26548 0.03899,-0.02002 0.06924,-0.06848 0.1098,-0.1098 0.02028,-0.02066 0.0346,-0.02948 0.0549,-0.0549 0.518944,-0.412133 0.826749,-1.617794 0.366741,-2.488061 -0.06619,-0.125223 -0.131807,-0.23471 -0.232362,-0.342163 -0.02225,-0.02378 -0.04225,-0.04359 -0.06629,-0.06629 -0.01458,-0.01376 -0.02913,-0.0312 -0.04419,-0.04419 l -5e-6,-6e-6 z"
           id="path10983"
           inkscape:connector-curvature="0" />
        <path
           sodipodi:nodetypes="ccsscsscc"
           id="path11083"
           d="M 17.261467,9.6868943 C 14.399235,8.2189119 8.8448535,13.407492 8.0510106,16.067256 c -0.482652,1.152712 -0.6294608,2.89852 -0.2526903,4.130317 0.068992,0.225558 0.1277156,0.454188 0.1980168,0.660195 0.1188866,0.348372 0.2112899,0.688912 0.4617005,0.795801 0.086388,-0.08216 -0.6677556,0.675504 -0.5494298,0.562449 0.1632929,-0.15602 0.8593137,-0.843807 0.9798669,-0.955267 2.8972133,-2.678645 7.0258543,-6.090339 9.9603833,-9.114818 -1.009764,-1.504032 -1.270305,-2.3794255 -1.587391,-2.4590387 l 0,0 z"
           style="fill:none;stroke:url(#linearGradient12118);stroke-width:0.99989325;stroke-linecap:butt;stroke-linejoin:miter;stroke-miterlimit:4;stroke-opacity:1;stroke-dasharray:none;stroke-dashoffset:0;marker:none;visibility:visible;display:inline;overflow:visible;enable-background:accumulate"
           inkscape:connector-curvature="0" />
        <path
           id="path11053"
           d="m 18.276838,9.2254209 c 0.590434,0.8599301 1.403907,2.7597761 1.970725,2.9052631 C 18.796099,13.868555 9.764027,21.488984 7.9716018,23.400055 7.9399941,22.716879 3.9051335,17.716918 9.687534,11.934518 12.24483,9.3772222 16.262692,7.200616 18.276838,9.2254209 z m 1.978085,2.8979031 c 0,0 0,0 0,0 z"
           style="fill:none;stroke:url(#linearGradient12115);stroke-width:1;stroke-linecap:butt;stroke-linejoin:round;stroke-miterlimit:4;stroke-opacity:1;stroke-dasharray:none;stroke-dashoffset:0;marker:none;visibility:visible;display:inline;overflow:visible;enable-background:accumulate"
           sodipodi:nodetypes="cccsccc"
           inkscape:connector-curvature="0" />
        <path
           style="fill:none;stroke:url(#linearGradient12112);stroke-width:0.99989325;stroke-linecap:butt;stroke-linejoin:miter;stroke-miterlimit:4;stroke-opacity:1;stroke-dasharray:none;stroke-dashoffset:0;marker:none;visibility:visible;display:inline;overflow:visible;enable-background:accumulate"
           d="m 22.730028,15.154996 c 1.467983,2.862232 -3.720597,8.416614 -6.380361,9.210457 -1.152713,0.482651 -2.898521,0.62946 -4.130318,0.252689 -0.225558,-0.06899 -0.454188,-0.127715 -0.660194,-0.198016 -0.348373,-0.118887 -0.688912,-0.21129 -0.795801,-0.461701 0.08216,-0.08639 -0.675505,0.667756 -0.56245,0.54943 0.15602,-0.163293 0.843807,-0.859314 0.955267,-0.979867 2.678645,-2.897213 6.090339,-7.025854 9.114818,-9.960383 1.504032,1.009764 2.379426,1.270304 2.459039,1.587391 l 0,0 z"
           id="path11115"
           sodipodi:nodetypes="ccsscsscc"
           inkscape:connector-curvature="0" />
        <path
           sodipodi:nodetypes="cccsccc"
           style="fill:none;stroke:url(#linearGradient12109);stroke-width:1;stroke-linecap:butt;stroke-linejoin:round;stroke-miterlimit:4;stroke-opacity:1;stroke-dasharray:none;stroke-dashoffset:0;marker:none;visibility:visible;display:inline;overflow:visible;enable-background:accumulate"
           d="m 23.191272,14.139855 c -0.85993,-0.590434 -2.759777,-1.403908 -2.905264,-1.970725 -1.73787,1.451464 -9.3583,10.483536 -11.2693709,12.27596 0.6831755,0.03161 5.6831359,4.066468 11.4655369,-1.715932 2.557295,-2.557296 4.733902,-6.575159 2.709098,-8.589303 l 0,0 z M 20.293368,12.16177 c 0,0 0,0 0,0 z"
           id="path11057"
           inkscape:connector-curvature="0" />
        <g
           id="g11358"
           transform="matrix(-0.7071068,-0.7071068,-0.7071068,0.7071068,39.253266,15.790845)">
          <path
             sodipodi:type="arc"
             style="fill:#0c0d0e;fill-opacity:1;fill-rule:nonzero;stroke:none"
             id="path11360"
             sodipodi:cx="21"
             sodipodi:cy="15"
             sodipodi:rx="1"
             sodipodi:ry="1"
             d="m 22,15 c 0,0.552285 -0.447715,1 -1,1 -0.552285,0 -1,-0.447715 -1,-1 0,-0.552285 0.447715,-1 1,-1 0.552285,0 1,0.447715 1,1 z"
             transform="matrix(0.85,0,0,0.85,2,1.25)" />
          <path
             transform="matrix(1.1,0,0,1.1,-4.1,1.6)"
             d="m 22,15 c 0,0.552285 -0.447715,1 -1,1 -0.552285,0 -1,-0.447715 -1,-1 0,-0.552285 0.447715,-1 1,-1 0.552285,0 1,0.447715 1,1 z"
             sodipodi:ry="1"
             sodipodi:rx="1"
             sodipodi:cy="15"
             sodipodi:cx="21"
             id="path11362"
             style="fill:#0c0d0e;fill-opacity:1;fill-rule:nonzero;stroke:none"
             sodipodi:type="arc" />
          <path
             sodipodi:type="arc"
             style="fill:#0c0d0e;fill-opacity:1;fill-rule:nonzero;stroke:none"
             id="path11364"
             sodipodi:cx="21"
             sodipodi:cy="15"
             sodipodi:rx="1"
             sodipodi:ry="1"
             d="m 22,15 c 0,0.552285 -0.447715,1 -1,1 -0.552285,0 -1,-0.447715 -1,-1 0,-0.552285 0.447715,-1 1,-1 0.552285,0 1,0.447715 1,1 z"
             transform="matrix(0.75,0,0,0.75,4,11)" />
        </g>
        <g
           id="g11353"
           transform="matrix(0.7071068,0.7071068,-0.7071068,0.7071068,16.625848,-6.836573)">
          <path
             transform="matrix(0.85,0,0,0.85,2,1.25)"
             d="m 22,15 c 0,0.552285 -0.447715,1 -1,1 -0.552285,0 -1,-0.447715 -1,-1 0,-0.552285 0.447715,-1 1,-1 0.552285,0 1,0.447715 1,1 z"
             sodipodi:ry="1"
             sodipodi:rx="1"
             sodipodi:cy="15"
             sodipodi:cx="21"
             id="path11347"
             style="fill:#0c0d0e;fill-opacity:1;fill-rule:nonzero;stroke:none"
             sodipodi:type="arc" />
          <path
             sodipodi:type="arc"
             style="fill:#0c0d0e;fill-opacity:1;fill-rule:nonzero;stroke:none"
             id="path11349"
             sodipodi:cx="21"
             sodipodi:cy="15"
             sodipodi:rx="1"
             sodipodi:ry="1"
             d="m 22,15 c 0,0.552285 -0.447715,1 -1,1 -0.552285,0 -1,-0.447715 -1,-1 0,-0.552285 0.447715,-1 1,-1 0.552285,0 1,0.447715 1,1 z"
             transform="matrix(1.1,0,0,1.1,-4.1,1.6)" />
          <path
             transform="matrix(0.75,0,0,0.75,4,11)"
             d="m 22,15 c 0,0.552285 -0.447715,1 -1,1 -0.552285,0 -1,-0.447715 -1,-1 0,-0.552285 0.447715,-1 1,-1 0.552285,0 1,0.447715 1,1 z"
             sodipodi:ry="1"
             sodipodi:rx="1"
             sodipodi:cy="15"
             sodipodi:cx="21"
             id="path11351"
             style="fill:#0c0d0e;fill-opacity:1;fill-rule:nonzero;stroke:none"
             sodipodi:type="arc" />
        </g>
        <path
           style="fill:url(#radialGradient12098);fill-opacity:1;fill-rule:evenodd;stroke:none;stroke-width:0.99989325;marker:none;visibility:visible;display:inline;overflow:visible;enable-background:accumulate"
           d="M 17.841188,9.4931747 17.487634,9.2280096 C 16.399933,8.6944424 15.60262,8.9207526 14.63711,9.2059125 c -1.0094,0.3509542 -2.095366,1.0219125 -3.071495,1.7456695 -1.7914783,1.442745 -3.2650112,3.030104 -3.9995729,4.971845 -0.2502055,0.618689 -0.4257723,1.335571 -0.4861359,2.077126 1.0642044,-2.649591 5.3292448,-3.257516 8.5073788,-2.187611 1.32297,-1.178851 2.628623,-2.345864 3.734408,-3.425049 0.02202,-0.02149 0.04698,-0.04254 0.06629,-0.06629 0.0529,-0.06507 0.08536,-0.09713 0.110485,-0.110486 -0.01647,-0.01048 -0.04161,-0.02865 -0.06629,-0.06629 -0.01029,-0.0157 -0.0116,-0.05052 -0.0221,-0.06629 C 18.989934,11.447276 18.546487,10.685258 18.327324,10.28867 18.137958,9.9460009 18.042599,9.7131683 17.841188,9.4931747 z m 5.104427,5.1044273 c -0.219994,-0.201411 -0.474923,-0.318868 -0.817592,-0.508233 -0.396589,-0.219163 -1.158606,-0.66261 -1.789864,-1.082757 -0.01578,-0.0105 -0.05059,-0.0118 -0.06629,-0.0221 -0.05018,-0.03291 -0.06038,-0.04851 -0.06629,-0.06629 -0.01335,0.02512 -0.04541,0.05758 -0.110485,0.110486 -0.02375,0.01931 -0.0448,0.04427 -0.06629,0.06629 -0.964903,0.988686 -1.997217,2.139845 -3.049398,3.314563 2.750828,1.877236 4.497665,4.323296 1.767767,7.115262 -0.0085,0.02146 -0.01329,0.04487 -0.0221,0.06629 1.001478,-0.742897 1.910782,-1.660802 2.762136,-2.717941 0.723757,-0.976129 1.372618,-2.084193 1.723573,-3.093593 0.28516,-0.965509 0.51147,-1.762822 -0.0221,-2.850524 l -0.243068,-0.331456 1e-6,3e-6 z"
           id="path11283"
           sodipodi:nodetypes="cccccccssssssccssssssccccccc"
           inkscape:connector-curvature="0" />
      </g>
    </g>
  </g>
</svg>
