<?xml version="1.0" encoding="UTF-8" standalone="no"?>
<!-- Created with Inkscape (http://www.inkscape.org/) -->

<svg
   xmlns:dc="http://purl.org/dc/elements/1.1/"
   xmlns:cc="http://creativecommons.org/ns#"
   xmlns:rdf="http://www.w3.org/1999/02/22-rdf-syntax-ns#"
   xmlns:svg="http://www.w3.org/2000/svg"
   xmlns="http://www.w3.org/2000/svg"
   xmlns:xlink="http://www.w3.org/1999/xlink"
   xmlns:sodipodi="http://sodipodi.sourceforge.net/DTD/sodipodi-0.dtd"
   xmlns:inkscape="http://www.inkscape.org/namespaces/inkscape"
   id="svg4375"
   height="22"
   width="22"
   version="1.0"
   inkscape:version="0.48.1 r9760"
   sodipodi:docname="window-duplicate.svg">
  <metadata
     id="metadata45">
    <rdf:RDF>
      <cc:Work
         rdf:about="">
        <dc:format>image/svg+xml</dc:format>
        <dc:type
           rdf:resource="http://purl.org/dc/dcmitype/StillImage" />
        <dc:title />
      </cc:Work>
    </rdf:RDF>
  </metadata>
  <sodipodi:namedview
     pagecolor="#ffffff"
     bordercolor="#666666"
     borderopacity="1"
     objecttolerance="10"
     gridtolerance="10"
     guidetolerance="10"
     inkscape:pageopacity="0"
     inkscape:pageshadow="2"
     inkscape:window-width="1366"
     inkscape:window-height="690"
     id="namedview43"
     showgrid="true"
     inkscape:zoom="14.181818"
     inkscape:cx="1.5160256"
     inkscape:cy="6.0288462"
     inkscape:window-x="0"
     inkscape:window-y="24"
     inkscape:window-maximized="1"
     inkscape:current-layer="svg4375">
    <inkscape:grid
       type="xygrid"
       id="grid3133" />
  </sodipodi:namedview>
  <defs
     id="defs4377">
    <linearGradient
       id="linearGradient5060">
      <stop
         id="stop5062"
         offset="0" />
      <stop
         id="stop5064"
         style="stop-opacity:0"
         offset="1" />
    </linearGradient>
    <linearGradient
       id="linearGradient5515"
       y2="609.51"
       gradientUnits="userSpaceOnUse"
       x2="302.86"
       gradientTransform="matrix(0.031048,0,0,0.013668,0.77854,15.669)"
       y1="366.65"
       x1="302.86">
      <stop
         id="stop5050"
         style="stop-opacity:0"
         offset="0" />
      <stop
         id="stop5056"
         offset=".5" />
      <stop
         id="stop5052"
         style="stop-opacity:0"
         offset="1" />
    </linearGradient>
    <linearGradient
       id="linearGradient5844"
       y2="40"
       gradientUnits="userSpaceOnUse"
       x2="24"
       gradientTransform="matrix(0.52632,0,0,0.48148,-1.6316,2.7407)"
       y1="13"
       x1="24">
      <stop
         id="stop6459"
         style="stop-color:#fff;stop-opacity:.94118"
         offset="0" />
      <stop
         id="stop6461"
         style="stop-color:#fff;stop-opacity:.70588"
         offset="1" />
    </linearGradient>
    <linearGradient
       id="linearGradient5847"
       y2="15.044"
       gradientUnits="userSpaceOnUse"
       x2="16.075"
       gradientTransform="matrix(0.61291,0,0,0.58621,-4.3226,-1.069)"
       y1="9.0735"
       x1="16.034">
      <stop
         id="stop3692"
         style="stop-color:#fff"
         offset="0" />
      <stop
         id="stop3694"
         style="stop-color:#fff;stop-opacity:.46875"
         offset="1" />
    </linearGradient>
    <linearGradient
       id="linearGradient5850"
       y2="39.924"
       gradientUnits="userSpaceOnUse"
       x2="21.78"
       gradientTransform="matrix(0.63636,0,0,0.62295,-4.9091,-2.1066)"
       y1="8.5763"
       x1="21.866">
      <stop
         id="stop2783"
         style="stop-color:#505050"
         offset="0" />
      <stop
         id="stop6301"
         style="stop-color:#6e6e6e"
         offset=".13216" />
      <stop
         id="stop2785"
         style="stop-color:#8c8c8c"
         offset="1" />
    </linearGradient>
    <linearGradient
       inkscape:collect="always"
       xlink:href="#linearGradient5515"
       id="linearGradient3193"
       gradientUnits="userSpaceOnUse"
       gradientTransform="matrix(0.031048,0,0,0.013668,0.77854,15.669)"
       x1="302.86"
       y1="366.65"
       x2="302.86"
       y2="609.51" />
    <radialGradient
       inkscape:collect="always"
       xlink:href="#linearGradient5060"
       id="radialGradient3195"
       gradientUnits="userSpaceOnUse"
       gradientTransform="matrix(0.031048,0,0,0.013668,0.78465,15.669)"
       cx="605.71"
       cy="486.65"
       r="117.14" />
    <radialGradient
       inkscape:collect="always"
       xlink:href="#linearGradient5060"
       id="radialGradient3197"
       gradientUnits="userSpaceOnUse"
       gradientTransform="matrix(-0.031048,0,0,0.013668,23.215,15.669)"
       cx="605.71"
       cy="486.65"
       r="117.14" />
    <linearGradient
       inkscape:collect="always"
       xlink:href="#linearGradient5850"
       id="linearGradient3199"
       gradientUnits="userSpaceOnUse"
       gradientTransform="matrix(0.63636,0,0,0.62295,-4.9091,-4.1066)"
       x1="21.866"
       y1="8.5763"
       x2="21.78"
       y2="39.924" />
    <linearGradient
       inkscape:collect="always"
       xlink:href="#linearGradient5847"
       id="linearGradient3201"
       gradientUnits="userSpaceOnUse"
       gradientTransform="matrix(0.61291,0,0,0.58621,-4.3226,-3.069)"
       x1="16.034"
       y1="9.0735"
       x2="16.075"
       y2="15.044" />
    <linearGradient
       inkscape:collect="always"
       xlink:href="#linearGradient5844"
       id="linearGradient3203"
       gradientUnits="userSpaceOnUse"
       gradientTransform="matrix(0.52632,0,0,0.48148,-1.6316,0.7407)"
       x1="24"
       y1="13"
       x2="24"
       y2="40" />
    <linearGradient
       inkscape:collect="always"
       xlink:href="#linearGradient5515"
       id="linearGradient3205"
       gradientUnits="userSpaceOnUse"
       gradientTransform="matrix(0.031048,0,0,0.013668,0.77854,15.669)"
       x1="302.86"
       y1="366.65"
       x2="302.86"
       y2="609.51" />
    <radialGradient
       inkscape:collect="always"
       xlink:href="#linearGradient5060"
       id="radialGradient3207"
       gradientUnits="userSpaceOnUse"
       gradientTransform="matrix(0.031048,0,0,0.013668,0.78465,15.669)"
       cx="605.71"
       cy="486.65"
       r="117.14" />
    <radialGradient
       inkscape:collect="always"
       xlink:href="#linearGradient5060"
       id="radialGradient3209"
       gradientUnits="userSpaceOnUse"
       gradientTransform="matrix(-0.031048,0,0,0.013668,23.215,15.669)"
       cx="605.71"
       cy="486.65"
       r="117.14" />
    <linearGradient
       inkscape:collect="always"
       xlink:href="#linearGradient5850"
       id="linearGradient3211"
       gradientUnits="userSpaceOnUse"
       gradientTransform="matrix(0.63636,0,0,0.62295,-4.9091,-4.1066)"
       x1="21.866"
       y1="8.5763"
       x2="21.78"
       y2="39.924" />
    <linearGradient
       inkscape:collect="always"
       xlink:href="#linearGradient5847"
       id="linearGradient3213"
       gradientUnits="userSpaceOnUse"
       gradientTransform="matrix(0.61291,0,0,0.58621,-4.3226,-3.069)"
       x1="16.034"
       y1="9.0735"
       x2="16.075"
       y2="15.044" />
    <linearGradient
       inkscape:collect="always"
       xlink:href="#linearGradient5844"
       id="linearGradient3215"
       gradientUnits="userSpaceOnUse"
       gradientTransform="matrix(0.52632,0,0,0.48148,-1.6316,0.7407)"
       x1="24"
       y1="13"
       x2="24"
       y2="40" />
  </defs>
  <g
     id="g3169"
     transform="matrix(1.1,0,0,1.1,7.1951158e-6,0.82507362)">
    <g
       transform="matrix(0.50001252,0,0,0.50001252,0.49998748,1.4999124)"
       id="g3073">
      <g
         id="g3217"
         transform="matrix(1.0562,0,0,1.205,-1.6749,-6.921)">
        <rect
           id="rect4173"
           style="opacity:0.23613;fill:url(#linearGradient3193)"
           height="3.3194001"
           width="14.992"
           y="20.681"
           x="4.5042" />
        <path
           id="path5058"
           style="opacity:0.23613;fill:url(#radialGradient3195)"
           d="m 19.496,20.681 v 3.3192 c 1.5989,0.0062 3.8653,-0.74366 3.8653,-1.6598 0,-0.91615 -1.7842,-1.6594 -3.8653,-1.6594 z"
           inkscape:connector-curvature="0" />
        <path
           id="path5018"
           style="opacity:0.23613;fill:url(#radialGradient3197)"
           d="m 4.5042,20.681 v 3.3192 c -1.5989,0.0062 -3.8653,-0.74366 -3.8653,-1.6598 0,-0.91615 1.7842,-1.6594 3.8653,-1.6594 z"
           inkscape:connector-curvature="0" />
      </g>
      <rect
         id="rect1887"
         style="fill:url(#linearGradient3199);stroke:#565853;stroke-width:0.99994999"
         rx="1"
         ry="1"
         height="19"
         width="21"
         y="1.5"
         x="0.49998" />
      <rect
         id="rect2779"
         style="opacity:0.2;fill:none;stroke:url(#linearGradient3201);stroke-width:0.99993998"
         rx="0.5"
         ry="0.5"
         height="17"
         width="19"
         y="2.5"
         x="1.5" />
      <rect
         id="rect6287"
         style="fill:url(#linearGradient3203)"
         rx="0.50016999"
         ry="0.5"
         height="13"
         width="20"
         y="7"
         x="1" />
      <path
         id="path6293"
         style="fill:#ffc24c"
         d="m 20,4 c 0,0.5522 -0.448,1 -1,1 -0.552,0 -1,-0.4478 -1,-1 0,-0.5522 0.448,-1 1,-1 0.55245,0 1.0002,0.44779 1,1 z"
         inkscape:connector-curvature="0" />
      <path
         id="path6622"
         style="fill:#ffc24c"
         d="m 17,4 c 2.38e-4,0.55221 -0.44755,1 -1,1 -0.55246,0 -1.0002,-0.44779 -1,-1 -2.41e-4,-0.55221 0.44754,-1 1,-1 0.55245,0 1.0002,0.44779 1,1 z"
         inkscape:connector-curvature="0" />
      <path
         id="path6630"
         style="fill:#ffc24c"
         d="m 14,4 c 2.38e-4,0.55221 -0.44755,1 -1,1 -0.55246,0 -1.0002,-0.44779 -1,-1 -2.41e-4,-0.55221 0.44754,-1 1,-1 0.55245,0 1.0002,0.44779 1,1 z"
         inkscape:connector-curvature="0" />
    </g>
    <g
       id="g3135"
       transform="matrix(0.50001252,0,0,0.50001252,8.499988,5.4999124)">
      <g
         transform="matrix(1.0562,0,0,1.205,-1.6749,-6.921)"
         id="g3137">
        <rect
           x="4.5042"
           y="20.681"
           width="14.992"
           height="3.3194001"
           style="opacity:0.23613;fill:url(#linearGradient3205)"
           id="rect3139" />
        <path
           inkscape:connector-curvature="0"
           d="m 19.496,20.681 v 3.3192 c 1.5989,0.0062 3.8653,-0.74366 3.8653,-1.6598 0,-0.91615 -1.7842,-1.6594 -3.8653,-1.6594 z"
           style="opacity:0.23613;fill:url(#radialGradient3207)"
           id="path3141" />
        <path
           inkscape:connector-curvature="0"
           d="m 4.5042,20.681 v 3.3192 c -1.5989,0.0062 -3.8653,-0.74366 -3.8653,-1.6598 0,-0.91615 1.7842,-1.6594 3.8653,-1.6594 z"
           style="opacity:0.23613;fill:url(#radialGradient3209)"
           id="path3143" />
      </g>
      <rect
         x="0.49998"
         y="1.5"
         width="21"
         height="19"
         ry="1"
         rx="1"
         style="fill:url(#linearGradient3211);stroke:#565853;stroke-width:0.99994999"
         id="rect3145" />
      <rect
         x="1.5"
         y="2.5"
         width="19"
         height="17"
         ry="0.5"
         rx="0.5"
         style="opacity:0.2;fill:none;stroke:url(#linearGradient3213);stroke-width:0.99993998"
         id="rect3147" />
      <rect
         x="1"
         y="7"
         width="20"
         height="13"
         ry="0.5"
         rx="0.50016999"
         style="fill:url(#linearGradient3215)"
         id="rect3149" />
      <path
         inkscape:connector-curvature="0"
         d="m 20,4 c 0,0.5522 -0.448,1 -1,1 -0.552,0 -1,-0.4478 -1,-1 0,-0.5522 0.448,-1 1,-1 0.55245,0 1.0002,0.44779 1,1 z"
         style="fill:#ffc24c"
         id="path3151" />
      <path
         inkscape:connector-curvature="0"
         d="m 17,4 c 2.38e-4,0.55221 -0.44755,1 -1,1 -0.55246,0 -1.0002,-0.44779 -1,-1 -2.41e-4,-0.55221 0.44754,-1 1,-1 0.55245,0 1.0002,0.44779 1,1 z"
         style="fill:#ffc24c"
         id="path3153" />
      <path
         inkscape:connector-curvature="0"
         d="m 14,4 c 2.38e-4,0.55221 -0.44755,1 -1,1 -0.55246,0 -1.0002,-0.44779 -1,-1 -2.41e-4,-0.55221 0.44754,-1 1,-1 0.55245,0 1.0002,0.44779 1,1 z"
         style="fill:#ffc24c"
         id="path3155" />
    </g>
  </g>
</svg>
