<?xml version="1.0" encoding="UTF-8" standalone="no"?>
<!-- Created with Inkscape (http://www.inkscape.org/) -->

<svg
   xmlns:dc="http://purl.org/dc/elements/1.1/"
   xmlns:cc="http://creativecommons.org/ns#"
   xmlns:rdf="http://www.w3.org/1999/02/22-rdf-syntax-ns#"
   xmlns:svg="http://www.w3.org/2000/svg"
   xmlns="http://www.w3.org/2000/svg"
   xmlns:xlink="http://www.w3.org/1999/xlink"
   xmlns:sodipodi="http://sodipodi.sourceforge.net/DTD/sodipodi-0.dtd"
   xmlns:inkscape="http://www.inkscape.org/namespaces/inkscape"
   width="22"
   height="22"
   id="svg2"
   sodipodi:version="0.32"
   inkscape:version="0.48.1 r9760"
   version="1.0"
   sodipodi:docname="xml-editor.svg"
   inkscape:output_extension="org.inkscape.output.svg.inkscape">
  <defs
     id="defs4">
    <linearGradient
       id="linearGradient10735-8">
      <stop
         style="stop-color:#c0c0c0;stop-opacity:0;"
         offset="0"
         id="stop10737-83" />
      <stop
         style="stop-color:#c0c0c0;stop-opacity:0;"
         offset="1"
         id="stop10739-1" />
    </linearGradient>
    <filter
       inkscape:collect="always"
       id="filter16974"
       color-interpolation-filters="sRGB">
      <feGaussianBlur
         inkscape:collect="always"
         stdDeviation="0.44"
         id="feGaussianBlur16976" />
    </filter>
    <linearGradient
       id="linearGradient6581-76">
      <stop
         id="stop6583-0"
         offset="0"
         style="stop-color:#eeeeec;stop-opacity:1;" />
      <stop
         id="stop6585-52"
         offset="1.0000000"
         style="stop-color:#e0e0de;stop-opacity:1.0000000;" />
    </linearGradient>
    <radialGradient
       inkscape:collect="always"
       xlink:href="#linearGradient10735-8"
       id="radialGradient3076"
       gradientUnits="userSpaceOnUse"
       gradientTransform="matrix(1.99071,0,0,1.99071,-873.81021,-1664.1223)"
       cx="-142.00725"
       cy="453"
       fx="-142.00725"
       fy="453"
       r="8" />
    <linearGradient
       inkscape:collect="always"
       xlink:href="#linearGradient6581-76"
       id="linearGradient3078"
       gradientUnits="userSpaceOnUse"
       gradientTransform="matrix(0.9074918,0,0,0.907606,-455.68003,1084.5219)"
       x1="900.00671"
       y1="5"
       x2="900.00671"
       y2="28" />
    <linearGradient
       x1="23.576"
       y1="25.357"
       gradientTransform="matrix(0.41578,-0.41749,0.51898,0.51462,-15.747,2.6504)"
       x2="23.576"
       gradientUnits="userSpaceOnUse"
       y2="31.211"
       id="linearGradient3140-8">
      <stop
         offset="0"
         style="stop-color:#181818"
         id="stop2541-5" />
      <stop
         offset=".13483"
         style="stop-color:#dbdbdb"
         id="stop2543-6" />
      <stop
         offset=".20224"
         style="stop-color:#a4a4a4"
         id="stop2545-1" />
      <stop
         offset=".26966"
         style="stop-color:#fff"
         id="stop2547-1" />
      <stop
         offset=".44650"
         style="stop-color:#8d8d8d"
         id="stop2549-5" />
      <stop
         offset=".57114"
         style="stop-color:#959595"
         id="stop2551-9" />
      <stop
         offset=".72038"
         style="stop-color:#cecece"
         id="stop2553-8" />
      <stop
         offset="1"
         style="stop-color:#181818"
         id="stop2555-4" />
    </linearGradient>
    <linearGradient
       x1="30.038"
       y1="24.99"
       gradientTransform="matrix(0.40402,-0.40569,0.60738,0.60227,-17.868,0.69303)"
       x2="30.038"
       gradientUnits="userSpaceOnUse"
       y2="30"
       id="linearGradient3142-8">
      <stop
         offset="0"
         style="stop-color:#565656"
         id="stop2559-1" />
      <stop
         offset=".5"
         style="stop-color:#9a9a9a"
         id="stop2561-0" />
      <stop
         offset="1"
         style="stop-color:#545454"
         id="stop2563-3" />
    </linearGradient>
    <linearGradient
       x1="30.038"
       y1="24.99"
       gradientTransform="matrix(0.40402,-0.40569,0.60738,0.60227,-17.983,0.80921)"
       x2="30.038"
       gradientUnits="userSpaceOnUse"
       y2="30"
       id="linearGradient3144-0">
      <stop
         offset="0"
         style="stop-color:#b1b1b1"
         id="stop2567-4" />
      <stop
         offset=".5"
         style="stop-color:#fff"
         id="stop2569-4" />
      <stop
         offset="1"
         style="stop-color:#8f8f8f"
         id="stop2571-4" />
    </linearGradient>
    <linearGradient
       x1="30.038"
       y1="24.99"
       gradientTransform="matrix(0.40402,-0.40569,0.60738,0.60227,-17.466,0.28929)"
       x2="30.038"
       gradientUnits="userSpaceOnUse"
       y2="30"
       id="linearGradient3146-4">
      <stop
         offset="0"
         style="stop-color:#565656"
         id="stop2575-7" />
      <stop
         offset=".5"
         style="stop-color:#9a9a9a"
         id="stop2577-6" />
      <stop
         offset="1"
         style="stop-color:#545454"
         id="stop2579-3" />
    </linearGradient>
    <linearGradient
       x1="30.038"
       y1="24.99"
       gradientTransform="matrix(0.40402,-0.40569,0.60738,0.60227,-17.581,0.40547)"
       x2="30.038"
       gradientUnits="userSpaceOnUse"
       y2="30"
       id="linearGradient3148-1">
      <stop
         offset="0"
         style="stop-color:#b1b1b1"
         id="stop2583-7" />
      <stop
         offset=".5"
         style="stop-color:#fff"
         id="stop2585-5" />
      <stop
         offset="1"
         style="stop-color:#8f8f8f"
         id="stop2587-9" />
    </linearGradient>
    <linearGradient
       x1="30.038"
       y1="24.99"
       gradientTransform="matrix(0.40402,-0.40569,0.60738,0.60227,-17.062,-0.11641)"
       x2="30.038"
       gradientUnits="userSpaceOnUse"
       y2="30"
       id="linearGradient3150-6">
      <stop
         offset="0"
         style="stop-color:#565656"
         id="stop2591-2" />
      <stop
         offset=".5"
         style="stop-color:#9a9a9a"
         id="stop2593-1" />
      <stop
         offset="1"
         style="stop-color:#545454"
         id="stop2595-7" />
    </linearGradient>
    <linearGradient
       x1="30.038"
       y1="24.99"
       gradientTransform="matrix(0.40402,-0.40569,0.60738,0.60227,-17.177,-2.197e-4)"
       x2="30.038"
       gradientUnits="userSpaceOnUse"
       y2="30"
       id="linearGradient3152-8">
      <stop
         offset="0"
         style="stop-color:#b1b1b1"
         id="stop2599-5" />
      <stop
         offset=".5"
         style="stop-color:#fff"
         id="stop2601-7" />
      <stop
         offset="1"
         style="stop-color:#8f8f8f"
         id="stop2603-4" />
    </linearGradient>
    <linearGradient
       x1="9"
       y1="29.056999"
       gradientTransform="matrix(0.40402,-0.40569,0.60738,0.60227,-17.637,0.46249)"
       x2="9"
       gradientUnits="userSpaceOnUse"
       y2="26.030001"
       id="linearGradient3154-1">
      <stop
         offset="0"
         style="stop-color:#ece5a5"
         id="stop2607-8" />
      <stop
         offset="1"
         style="stop-color:#fcfbf2"
         id="stop2609-5" />
    </linearGradient>
    <linearGradient
       x1="5.5179"
       y1="37.372002"
       gradientTransform="matrix(0.37638,0.036153,0.0367,0.37487,-2.2183,-1.1331)"
       x2="9.5221004"
       gradientUnits="userSpaceOnUse"
       y2="41.391998"
       id="linearGradient3156-9">
      <stop
         offset="0"
         style="stop-color:#dbce48"
         id="stop2613-7" />
      <stop
         offset="1"
         style="stop-color:#c5b625"
         id="stop2615-5" />
    </linearGradient>
    <linearGradient
       inkscape:collect="always"
       xlink:href="#linearGradient3140-8"
       id="linearGradient3453"
       gradientUnits="userSpaceOnUse"
       gradientTransform="matrix(0.41578,-0.41749,0.51898,0.51462,-15.747,2.6504)"
       x1="23.576"
       y1="25.357"
       x2="23.576"
       y2="31.211" />
    <linearGradient
       inkscape:collect="always"
       xlink:href="#linearGradient3142-8"
       id="linearGradient3455"
       gradientUnits="userSpaceOnUse"
       gradientTransform="matrix(0.40402,-0.40569,0.60738,0.60227,-17.868,0.69303)"
       x1="30.038"
       y1="24.99"
       x2="30.038"
       y2="30" />
    <linearGradient
       inkscape:collect="always"
       xlink:href="#linearGradient3144-0"
       id="linearGradient3457"
       gradientUnits="userSpaceOnUse"
       gradientTransform="matrix(0.40402,-0.40569,0.60738,0.60227,-17.983,0.80921)"
       x1="30.038"
       y1="24.99"
       x2="30.038"
       y2="30" />
    <linearGradient
       inkscape:collect="always"
       xlink:href="#linearGradient3146-4"
       id="linearGradient3459"
       gradientUnits="userSpaceOnUse"
       gradientTransform="matrix(0.40402,-0.40569,0.60738,0.60227,-17.466,0.28929)"
       x1="30.038"
       y1="24.99"
       x2="30.038"
       y2="30" />
    <linearGradient
       inkscape:collect="always"
       xlink:href="#linearGradient3148-1"
       id="linearGradient3461"
       gradientUnits="userSpaceOnUse"
       gradientTransform="matrix(0.40402,-0.40569,0.60738,0.60227,-17.581,0.40547)"
       x1="30.038"
       y1="24.99"
       x2="30.038"
       y2="30" />
    <linearGradient
       inkscape:collect="always"
       xlink:href="#linearGradient3150-6"
       id="linearGradient3463"
       gradientUnits="userSpaceOnUse"
       gradientTransform="matrix(0.40402,-0.40569,0.60738,0.60227,-17.062,-0.11641)"
       x1="30.038"
       y1="24.99"
       x2="30.038"
       y2="30" />
    <linearGradient
       inkscape:collect="always"
       xlink:href="#linearGradient3152-8"
       id="linearGradient3465"
       gradientUnits="userSpaceOnUse"
       gradientTransform="matrix(0.40402,-0.40569,0.60738,0.60227,-17.177,-2.197e-4)"
       x1="30.038"
       y1="24.99"
       x2="30.038"
       y2="30" />
    <linearGradient
       inkscape:collect="always"
       xlink:href="#linearGradient3154-1"
       id="linearGradient3467"
       gradientUnits="userSpaceOnUse"
       gradientTransform="matrix(0.40402,-0.40569,0.60738,0.60227,-17.637,0.46249)"
       x1="9"
       y1="29.056999"
       x2="9"
       y2="26.030001" />
    <linearGradient
       inkscape:collect="always"
       xlink:href="#linearGradient3156-9"
       id="linearGradient3469"
       gradientUnits="userSpaceOnUse"
       gradientTransform="matrix(0.37638,0.036153,0.0367,0.37487,-2.2183,-1.1331)"
       x1="5.5179"
       y1="37.372002"
       x2="9.5221004"
       y2="41.391998" />
  </defs>
  <sodipodi:namedview
     id="base"
     pagecolor="#ffffff"
     bordercolor="#666666"
     borderopacity="1.0"
     inkscape:pageopacity="0.0"
     inkscape:pageshadow="2"
     inkscape:zoom="12.074969"
     inkscape:cx="-16.372824"
     inkscape:cy="5.2315251"
     inkscape:document-units="px"
     inkscape:current-layer="layer1"
     showgrid="false"
     inkscape:window-width="1024"
     inkscape:window-height="737"
     inkscape:window-x="0"
     inkscape:window-y="1"
     inkscape:snap-page="true"
     inkscape:snap-bbox="true"
     inkscape:snap-nodes="false"
     inkscape:bbox-nodes="false"
     inkscape:snap-object-midpoints="false"
     inkscape:snap-bbox-edge-midpoints="false"
     inkscape:object-nodes="true"
     inkscape:snap-midpoints="true"
     inkscape:snap-global="false" />
  <metadata
     id="metadata7">
    <rdf:RDF>
      <cc:Work
         rdf:about="">
        <dc:format>image/svg+xml</dc:format>
        <dc:type
           rdf:resource="http://purl.org/dc/dcmitype/StillImage" />
        <dc:title></dc:title>
      </cc:Work>
    </rdf:RDF>
  </metadata>
  <g
     inkscape:label="Layer 1"
     inkscape:groupmode="layer"
     id="layer1"
     transform="translate(0,-26)">
    <g
       id="g3058"
       transform="matrix(0.45833334,0,0,0.45833334,1.3617007e-7,26)">
      <use
         x="0"
         y="0"
         xlink:href="#node_b"
         id="use20461"
         transform="matrix(3.0000002,0,0,3.0000002,-4394.526,-560.64289)"
         width="2000"
         height="2000" />
      <use
         x="0"
         y="0"
         xlink:href="#node_b"
         id="use20463"
         transform="matrix(3.0000002,0,0,3.0000002,-4364.526,-590.64289)"
         width="2000"
         height="2000" />
      <rect
         y="0.11135951"
         x="0.11147325"
         height="47.777042"
         width="47.777042"
         id="rect12912-0"
         style="fill:url(#radialGradient3076);fill-opacity:1;fill-rule:nonzero;stroke:none;stroke-width:1;marker:none;visibility:visible;display:inline;overflow:visible;enable-background:accumulate" />
      <g
         transform="matrix(1.99071,0,0,1.99071,-716.54412,-2165.781)"
         id="use12786-5">
        <rect
           style="fill:#000000;fill-opacity:0.15686275;fill-rule:evenodd;stroke:none;stroke-width:1;marker:none;visibility:visible;display:inline;overflow:visible;filter:url(#filter16974);enable-background:accumulate"
           id="rect23849"
           width="22"
           height="22"
           x="361"
           y="1089" />
        <rect
           y="1089.5"
           x="361.5"
           height="19.999998"
           width="19.999996"
           id="rect23851"
           style="fill:url(#linearGradient3078);fill-opacity:1;fill-rule:evenodd;stroke:#888a85;stroke-width:1.00000095;stroke-linecap:butt;stroke-linejoin:round;stroke-miterlimit:4;stroke-opacity:1;stroke-dasharray:none;stroke-dashoffset:0;marker:none;visibility:visible;display:inline;overflow:visible;enable-background:accumulate" />
        <rect
           style="fill:none;stroke:#ffffff;stroke-width:1;stroke-linecap:square;stroke-linejoin:round;stroke-miterlimit:4;stroke-opacity:1;stroke-dasharray:none;stroke-dashoffset:0;marker:none;visibility:visible;display:inline;overflow:visible;enable-background:accumulate"
           id="rect23853"
           width="18"
           height="18"
           x="362.5"
           y="1090.5" />
      </g>
      <g
         transform="matrix(1.99071,0,0,1.99071,-1791.4919,-9.8439747)"
         id="use11269-0">
        <path
           style="fill:none;stroke:#000000;stroke-width:1px;stroke-linecap:butt;stroke-linejoin:miter;stroke-opacity:1"
           d="m 909.5,11 0,5"
           id="path23831"
           inkscape:connector-curvature="0" />
        <path
           style="fill:none;stroke:#000000;stroke-width:1px;stroke-linecap:butt;stroke-linejoin:miter;stroke-opacity:1"
           d="m 912.5,11.977458 c 1,-0.5 3,-1 3,1 0,1 0,2 0,3"
           id="path23833"
           sodipodi:nodetypes="csc"
           inkscape:connector-curvature="0" />
        <path
           style="fill:none;stroke:#000000;stroke-width:1px;stroke-linecap:butt;stroke-linejoin:miter;stroke-opacity:1"
           d="m 917.5,7.470786 c 0,3.5 0,6 0,7 0,1.152443 1,1 2,1"
           id="path23835"
           sodipodi:nodetypes="csc"
           inkscape:connector-curvature="0" />
        <path
           style="fill:none;stroke:#000000;stroke-width:1px;stroke-linecap:butt;stroke-linejoin:miter;stroke-opacity:1"
           d="m 909.5,11.977458 c 1,-0.5 3,-1 3,1 0,1 0,2 0,3"
           id="path23837"
           sodipodi:nodetypes="csc"
           inkscape:connector-curvature="0" />
        <path
           style="fill:none;stroke:#000000;stroke-width:1px;stroke-linecap:butt;stroke-linejoin:miter;stroke-opacity:1"
           d="m 903,10.970786 5,5"
           id="path23839"
           sodipodi:nodetypes="cc"
           inkscape:connector-curvature="0" />
        <path
           style="fill:none;stroke:#000000;stroke-width:1px;stroke-linecap:butt;stroke-linejoin:miter;stroke-opacity:1"
           d="m 908,10.970786 -5,5"
           id="path23841"
           inkscape:connector-curvature="0" />
      </g>
      <g
         transform="matrix(1.99071,0,0,1.99071,-1791.4919,-9.8439747)"
         id="use11271-9">
        <path
           id="path23845"
           style="fill:none;stroke:#000000;stroke-width:1px;stroke-linecap:square;stroke-linejoin:miter;stroke-opacity:1"
           d="m 906.5,24.5 -3,-3 3,-3 m 3,6 3,-3 -3,-3"
           inkscape:connector-curvature="0" />
      </g>
    </g>
    <g
       id="layer1-3"
       transform="translate(-29.305066,37.419288)">
      <g
         id="g3438"
         transform="translate(16.996907,-4.257798)">
        <path
           d="m 32.433351,7.5429505 c -0.08415,-0.04997 -0.14927,-0.03697 -0.19229,-0.0092 l -5.7296,3.6800995 -1.0545,0.67922 -0.03247,0.01374 -1.2485,2.8377 3.0941,0.094 0.02569,-0.01734 1.0613,-0.67562 5.7281,-3.7118 c 0.171,-0.111 -0.101,-0.8479995 -0.611,-1.6559995 -0.383,-0.606 -0.789,-1.0846 -1.041,-1.2345 z"
           style="opacity:0.15;fill:#0c0c0c;fill-rule:evenodd"
           id="path2422"
           inkscape:connector-curvature="0" />
        <g
           transform="matrix(0.70258,0,0,0.70426,24.168051,3.5013504)"
           id="g8626">
          <path
             d="m 2.0488,11.037 c 0.28654,-0.20771 1.148,0.25639 1.9603,1.0619 0.81045,0.80363 1.2602,1.6413 1.0576,1.9306 -7.708e-4,0.0011 0.01977,0.01774 0.01898,0.01882 l 10.138,-10.18 c 0.258,-0.2581 -0.213,-1.1432 -1.051,-1.9744 -0.838,-0.8311 -1.728,-1.295 -1.986,-1.0366 l -10.138,10.18 z"
             style="fill:url(#linearGradient3453);stroke:#0c0c0c;stroke-width:0.60798001;stroke-linejoin:round"
             id="path3041"
             inkscape:connector-curvature="0" />
          <path
             d="m 10.565,2.4841 c 0.28654,-0.20771 1.148,0.25639 1.9603,1.0619 0.81044,0.80363 1.2602,1.6413 1.0576,1.9306 -7.69e-4,0.0011 0.01977,0.017738 0.01898,0.018821 l 1.552,-1.5571 c 0.409,-0.4086 -0.029,-1.0928 -0.981,-2.0447 -0.813,-0.8055 -1.674,-1.2696 -1.96,-1.0619 l -0.02525,0.025356 -1.6218,1.6271 z"
             style="opacity:0.8;fill:#ffb6ed;stroke:#e28ccd;stroke-width:0.60798001;stroke-linejoin:round"
             id="path3043"
             inkscape:connector-curvature="0" />
          <path
             d="m 2.0488,11.037 c 0.28654,-0.20771 1.148,0.25639 1.9603,1.0619 0.81044,0.80363 1.2602,1.6413 1.0576,1.9306 -7.714e-4,0.0011 0.01977,0.01774 0.01898,0.01882 l 6.982,-7.0109 0.02525,-0.025356 c 7.9e-4,-0.00108 -0.01975,-0.01772 -0.01898,-0.01882 0.203,-0.2885 -0.247,-1.1262 -1.058,-1.9298 -0.812,-0.8056 -1.6734,-1.2697 -1.9599,-1.062 l -0.025251,0.025355 -6.982,7.0109 z"
             style="opacity:0.6;fill:#0c0c0c"
             id="path3045"
             inkscape:connector-curvature="0" />
          <path
             d="m 9.1785,3.8767 c 0.28654,-0.20771 1.148,0.25639 1.9603,1.0619 0.81044,0.80363 1.2602,1.6413 1.0576,1.9306 -7.71e-4,0.0011 0.01977,0.017736 0.01898,0.01882 l 0.12626,-0.12678 c 7.9e-4,-0.00108 -0.01975,-0.01772 -0.01898,-0.01882 0.203,-0.2892 -0.246,-1.1269 -1.057,-1.9305 -0.812,-0.8056 -1.6737,-1.2697 -1.9602,-1.062 L 9.1792,3.8767 z"
             style="fill:url(#linearGradient3455)"
             id="path3047"
             inkscape:connector-curvature="0" />
          <path
             d="m 9.0628,3.9929 c 0.28654,-0.20771 1.148,0.25639 1.9603,1.0619 0.81044,0.80363 1.2602,1.6413 1.0576,1.9306 -7.71e-4,0.0011 0.01977,0.017738 0.01898,0.018822 l 0.126,-0.1268 c 7.9e-4,-0.00108 -0.01975,-0.017721 -0.01898,-0.018821 0.203,-0.2892 -0.247,-1.1269 -1.058,-1.9305 -0.812,-0.8056 -1.6734,-1.2697 -1.9599,-1.062 l -0.1263,0.1268 z"
             style="fill:url(#linearGradient3457)"
             id="path3049"
             inkscape:connector-curvature="0" />
          <path
             d="m 9.5806,3.473 c 0.28654,-0.20771 1.148,0.25639 1.9603,1.0619 0.81045,0.80363 1.2602,1.6413 1.0576,1.9306 -7.73e-4,0.0011 0.01977,0.017737 0.01898,0.01882 l 0.12626,-0.12678 c 7.91e-4,-0.00108 -0.01975,-0.017721 -0.01898,-0.01882 0.202,-0.2892 -0.247,-1.1269 -1.058,-1.9306 -0.812,-0.8055 -1.6736,-1.2696 -1.9601,-1.0619 l -0.1263,0.1268 z"
             style="fill:url(#linearGradient3459)"
             id="path3051"
             inkscape:connector-curvature="0" />
          <path
             d="m 9.4649,3.5891 c 0.28654,-0.20771 1.148,0.25639 1.9603,1.0619 0.81045,0.80363 1.2602,1.6413 1.0576,1.9306 -7.69e-4,0.0011 0.01977,0.017737 0.01898,0.018821 l 0.12626,-0.12678 c 7.9e-4,-0.00108 -0.01975,-0.01772 -0.01898,-0.01882 0.203,-0.2892 -0.247,-1.1269 -1.057,-1.9305 -0.813,-0.8055 -1.6743,-1.2696 -1.9608,-1.0619 l -0.1263,0.1267 z"
             style="fill:url(#linearGradient3461)"
             id="path3053"
             inkscape:connector-curvature="0" />
          <path
             d="m 9.9846,3.0673 c 0.2864,-0.2077 1.1484,0.2564 1.9604,1.0619 0.81045,0.80363 1.2602,1.6413 1.0576,1.9306 -7.7e-4,0.0011 0.01977,0.017738 0.01898,0.018821 l 0.126,-0.1268 C 13.148372,5.950741 13.12783,5.9341 13.1286,5.933 13.3306,5.6438 12.8816,4.8061 12.0706,4.0024 11.2586,3.1969 10.3966,2.7328 10.1106,2.9405 L 9.9842,3.0673 z"
             style="fill:url(#linearGradient3463)"
             id="path3055"
             inkscape:connector-curvature="0" />
          <path
             d="m 9.8689,3.1835 c 0.28654,-0.20771 1.148,0.25639 1.9603,1.0619 0.81044,0.80363 1.2602,1.6413 1.0576,1.9306 -7.71e-4,0.0011 0.01977,0.017737 0.01898,0.018821 l 0.12626,-0.12678 c 7.89e-4,-0.00108 -0.01975,-0.017722 -0.01898,-0.018821 0.203,-0.2892 -0.247,-1.1269 -1.057,-1.9306 -0.813,-0.8055 -1.674,-1.2696 -1.9608,-1.0619 l -0.1263,0.1268 z"
             style="fill:url(#linearGradient3465)"
             id="path3057"
             inkscape:connector-curvature="0" />
          <path
             d="m 0.25981,15.794 4.7719,-1.7255 0.039308,-0.03926 c 0.2026,-0.289 -0.2524,-1.127 -1.0629,-1.93 -0.8124,-0.806 -1.6727,-1.268 -1.9592,-1.06 l -1.7891,4.755 z"
             style="fill:url(#linearGradient3467);fill-rule:evenodd;stroke:url(#linearGradient3469);stroke-width:0.60798001"
             id="path3059"
             inkscape:connector-curvature="0" />
          <path
             d="m 0.74443,14.506 -0.48521,1.283 1.3014,-0.473 C 1.44692,15.182 1.34132,15.048 1.20622,14.914 1.05072,14.76 0.89917,14.633 0.74445,14.506 z"
             style="fill:#0c0c0c;fill-rule:evenodd;stroke:#0c0c0c;stroke-width:0.60798001"
             id="path3061"
             inkscape:connector-curvature="0" />
        </g>
      </g>
    </g>
  </g>
</svg>
