<?xml version="1.0" encoding="UTF-8" standalone="no"?>
<!-- Created with Inkscape (http://www.inkscape.org/) -->

<svg
   xmlns:dc="http://purl.org/dc/elements/1.1/"
   xmlns:cc="http://creativecommons.org/ns#"
   xmlns:rdf="http://www.w3.org/1999/02/22-rdf-syntax-ns#"
   xmlns:svg="http://www.w3.org/2000/svg"
   xmlns="http://www.w3.org/2000/svg"
   xmlns:xlink="http://www.w3.org/1999/xlink"
   xmlns:sodipodi="http://sodipodi.sourceforge.net/DTD/sodipodi-0.dtd"
   xmlns:inkscape="http://www.inkscape.org/namespaces/inkscape"
   width="32px"
   height="32px"
   id="svg3193"
   version="1.1"
   inkscape:version="0.48.1 r9760"
   sodipodi:docname="mail-attachment.svg">
  <defs
     id="defs3195">
    <radialGradient
       cx="6.8339977"
       cy="18.245768"
       fx="6.8339977"
       fy="18.245768"
       gradientTransform="matrix(0.8248568,-0.0025088,4.1186836e-4,0.4615378,1.1894136,9.8231788)"
       gradientUnits="userSpaceOnUse"
       id="radialGradient6963"
       inkscape:collect="always"
       r="6.3620529"
       xlink:href="#linearGradient6957" />
    <linearGradient
       id="linearGradient6957"
       inkscape:collect="always">
      <stop
         id="stop6959"
         offset="0"
         style="stop-color:#000000;stop-opacity:1;" />
      <stop
         id="stop6961"
         offset="1"
         style="stop-color:#000000;stop-opacity:0;" />
    </linearGradient>
    <linearGradient
       gradientTransform="matrix(2.2166179,0,0,2.0917609,0.130786,2.3623591)"
       gradientUnits="userSpaceOnUse"
       id="linearGradient6874"
       inkscape:collect="always"
       x1="10.227501"
       x2="10.0904"
       xlink:href="#linearGradient6868"
       y1="11.714401"
       y2="0.99801207" />
    <linearGradient
       id="linearGradient6868"
       inkscape:collect="always">
      <stop
         id="stop6870"
         offset="0"
         style="stop-color:#787a73;stop-opacity:1" />
      <stop
         id="stop6872"
         offset="1"
         style="stop-color:#a6a7a5;stop-opacity:1" />
    </linearGradient>
    <linearGradient
       gradientTransform="matrix(2.2252954,0,0,2.0735335,0.02155706,2.7276043)"
       gradientUnits="userSpaceOnUse"
       id="linearGradient7003"
       inkscape:collect="always"
       x1="11.013494"
       x2="11.013494"
       xlink:href="#linearGradient6997"
       y1="5.9594917"
       y2="15.916803" />
    <linearGradient
       id="linearGradient6997"
       inkscape:collect="always">
      <stop
         id="stop6999"
         offset="0"
         style="stop-color:#ebedea;stop-opacity:1" />
      <stop
         id="stop7001"
         offset="1"
         style="stop-color:#ccd2c8;stop-opacity:1" />
    </linearGradient>
  </defs>
  <sodipodi:namedview
     id="base"
     pagecolor="#ffffff"
     bordercolor="#666666"
     borderopacity="1.0"
     inkscape:pageopacity="0.0"
     inkscape:pageshadow="2"
     inkscape:zoom="8.1190858"
     inkscape:cx="9.6674821"
     inkscape:cy="21.24941"
     inkscape:current-layer="layer1"
     showgrid="true"
     inkscape:grid-bbox="true"
     inkscape:document-units="px">
    <inkscape:grid
       type="xygrid"
       id="grid3248" />
  </sodipodi:namedview>
  <metadata
     id="metadata3198">
    <rdf:RDF>
      <cc:Work
         rdf:about="">
        <dc:format>image/svg+xml</dc:format>
        <dc:type
           rdf:resource="http://purl.org/dc/dcmitype/StillImage" />
        <dc:title></dc:title>
      </cc:Work>
    </rdf:RDF>
  </metadata>
  <g
     id="layer1"
     inkscape:label="Layer 1"
     inkscape:groupmode="layer">
    <g
       id="g32"
       style="display:inline;enable-background:new">
      <path
         d="m 13.197708,18.211184 c 0,1.621691 -2.848388,2.936332 -6.3620533,2.936332 -3.5136648,0 -6.36205288,-1.314641 -6.36205288,-2.936332 0,-1.621692 2.84838808,-2.936332 6.36205288,-2.936332 3.5136653,0 6.3620533,1.31464 6.3620533,2.936332 z"
         id="path43"
         sodipodi:cx="6.8356547"
         sodipodi:cy="18.211184"
         sodipodi:rx="6.3620529"
         sodipodi:ry="2.936332"
         sodipodi:type="arc"
         style="opacity:0.17391304;fill:url(#radialGradient6963);fill-opacity:1;stroke:none"
         transform="matrix(2.0433656,0,0,1.0216828,2.0322584,10.393947)" />
      <path
         d="m 8.5038897,20.020753 0,-12.2854609 c 0,0 -0.4011509,-5.235292 6.9442153,-5.235292 7.345364,0 7.050263,5.235292 7.050263,5.235292 l 0,15.9657109 c 0,0 -2.660035,5.823994 -5.112601,5.823994 -2.383184,0 -4.8146,-5.780878 -4.8146,-5.780878 l 0,-11.017385 c 0,0 -0.832035,-3.2201538 2.945241,-3.2201538 3.7079,0 3.025892,2.4100578 3.025892,2.4100578 l 0,6.698684"
         id="path45"
         sodipodi:nodetypes="cczczzcczcc"
         style="fill:none;stroke:url(#linearGradient6874);stroke-width:3.00000048;stroke-linecap:round;stroke-linejoin:miter;stroke-miterlimit:4;stroke-opacity:1;stroke-dasharray:none"
         inkscape:connector-curvature="0" />
      <path
         d="m 8.4999992,19.961625 0,-12.1911684 c 0,0 0.1712178,-5.2169584 7.0206608,-5.2169584 6.910879,0 6.979339,5.2169584 6.979339,5.2169584 l 0,15.9098014 c 0,0 -2.471613,5.850907 -5.021361,5.850907 -2.480323,0 -4.998392,-5.804879 -4.998392,-5.804879 l 0,-10.978802 c 0,0 -0.370737,-3.233982 3.070615,-3.1893304 3.486004,0.044652 2.914533,2.4174894 2.914533,2.4174894 l 0,6.428112"
         id="path47"
         sodipodi:nodetypes="cczcczcczcc"
         style="fill:none;stroke:url(#linearGradient7003);stroke-width:0.99999994;stroke-linecap:round;stroke-linejoin:miter;stroke-miterlimit:4;stroke-opacity:1;stroke-dasharray:none"
         inkscape:connector-curvature="0" />
      <path
         d="m 22.473586,8.3207534 0,10.2389476"
         id="path49"
         style="opacity:0.58695649;fill:none;stroke:#ffffff;stroke-width:0.99999982px;stroke-linecap:round;stroke-linejoin:miter;stroke-opacity:1"
         inkscape:connector-curvature="0" />
      <path
         d="m 12.5,15.516575 0,7.553324"
         id="path51"
         style="opacity:0.58695649;fill:none;stroke:#ffffff;stroke-width:1px;stroke-linecap:round;stroke-linejoin:miter;stroke-opacity:1"
         inkscape:connector-curvature="0" />
      <path
         d="m 18.485771,14.989696 c 0,0.789133 -0.769662,1.428851 -1.719087,1.428851 -0.949426,0 -1.719088,-0.639718 -1.719088,-1.428851 0,-0.789134 0.769662,-1.428852 1.719088,-1.428852 0.949425,0 1.719087,0.639718 1.719087,1.428852 z"
         id="path53"
         sodipodi:cx="16.766684"
         sodipodi:cy="14.989696"
         sodipodi:rx="1.7190874"
         sodipodi:ry="1.4288518"
         sodipodi:type="arc"
         style="opacity:0.58695649;fill:#ffffff;fill-opacity:1;stroke:none"
         transform="matrix(0.2908522,0,0,0.3499315,17.623372,11.254633)" />
      <path
         d="m 18.485771,14.989696 c 0,0.789133 -0.769662,1.428851 -1.719087,1.428851 -0.949426,0 -1.719088,-0.639718 -1.719088,-1.428851 0,-0.789134 0.769662,-1.428852 1.719088,-1.428852 0.949425,0 1.719087,0.639718 1.719087,1.428852 z"
         id="path55"
         sodipodi:cx="16.766684"
         sodipodi:cy="14.989696"
         sodipodi:rx="1.7190874"
         sodipodi:ry="1.4288518"
         sodipodi:type="arc"
         style="opacity:0.58695649;fill:#ffffff;fill-opacity:1;stroke:none"
         transform="matrix(0.290852,0,0,0.3499313,7.6233766,12.254636)" />
      <path
         d="m 10.5,12.5 0,9.512759"
         id="path5903"
         style="opacity:0.27717393;fill:none;stroke:#ffffff;stroke-width:1px;stroke-linecap:round;stroke-linejoin:miter;stroke-opacity:1"
         inkscape:connector-curvature="0" />
    </g>
  </g>
</svg>
