<?xml version="1.0" encoding="UTF-8" standalone="no"?>
<!-- Created with Inkscape (http://www.inkscape.org/) -->

<svg
   xmlns:dc="http://purl.org/dc/elements/1.1/"
   xmlns:cc="http://creativecommons.org/ns#"
   xmlns:rdf="http://www.w3.org/1999/02/22-rdf-syntax-ns#"
   xmlns:svg="http://www.w3.org/2000/svg"
   xmlns="http://www.w3.org/2000/svg"
   xmlns:xlink="http://www.w3.org/1999/xlink"
   xmlns:sodipodi="http://sodipodi.sourceforge.net/DTD/sodipodi-0.dtd"
   xmlns:inkscape="http://www.inkscape.org/namespaces/inkscape"
   width="64"
   height="64.000481"
   id="svg5485"
   version="1.1"
   inkscape:version="0.48.1 r9760"
   sodipodi:docname="Nuevo documento 23">
  <defs
     id="defs5487">
    <linearGradient
       inkscape:collect="always"
       xlink:href="#linearGradient4144"
       id="linearGradient4774"
       gradientUnits="userSpaceOnUse"
       gradientTransform="matrix(1.3505832,0,0,1.3496751,-28.992084,222.35116)"
       x1="156"
       y1="20"
       x2="156"
       y2="22" />
    <linearGradient
       inkscape:collect="always"
       id="linearGradient4144">
      <stop
         style="stop-color:#ffffff;stop-opacity:1;"
         offset="0"
         id="stop4146" />
      <stop
         style="stop-color:#ffffff;stop-opacity:0;"
         offset="1"
         id="stop4148" />
    </linearGradient>
    <linearGradient
       inkscape:collect="always"
       xlink:href="#linearGradient4114"
       id="linearGradient4777"
       gradientUnits="userSpaceOnUse"
       gradientTransform="matrix(1.3505832,0,0,1.3496751,-28.992084,222.75075)"
       x1="157"
       y1="17"
       x2="157"
       y2="4" />
    <linearGradient
       inkscape:collect="always"
       id="linearGradient4114">
      <stop
         style="stop-color:#5b371f;stop-opacity:1;"
         offset="0"
         id="stop4116" />
      <stop
         style="stop-color:#5b371f;stop-opacity:0;"
         offset="1"
         id="stop4118" />
    </linearGradient>
    <inkscape:path-effect
       is_visible="true"
       id="path-effect4111-2"
       effect="spiro" />
    <linearGradient
       inkscape:collect="always"
       xlink:href="#linearGradient4114"
       id="linearGradient4780"
       gradientUnits="userSpaceOnUse"
       gradientTransform="matrix(1.3505832,0,0,1.3496751,-28.992084,222.75075)"
       x1="157"
       y1="17"
       x2="157"
       y2="4" />
    <inkscape:path-effect
       is_visible="true"
       id="path-effect4107-1"
       effect="spiro" />
    <linearGradient
       inkscape:collect="always"
       xlink:href="#linearGradient4114"
       id="linearGradient4783"
       gradientUnits="userSpaceOnUse"
       gradientTransform="matrix(1.3505832,0,0,1.3496751,-28.992084,222.75075)"
       x1="157"
       y1="17"
       x2="157"
       y2="4" />
    <inkscape:path-effect
       effect="spiro"
       id="path-effect4103-3"
       is_visible="true" />
    <linearGradient
       inkscape:collect="always"
       xlink:href="#linearGradient4492"
       id="linearGradient4786"
       gradientUnits="userSpaceOnUse"
       x1="13.873999"
       y1="167.62132"
       x2="25.613499"
       y2="188.87132"
       gradientTransform="translate(148.10835,91.215859)" />
    <linearGradient
       inkscape:collect="always"
       id="linearGradient4492">
      <stop
         style="stop-color:#ffffff;stop-opacity:1;"
         offset="0"
         id="stop4494" />
      <stop
         style="stop-color:#ffffff;stop-opacity:0;"
         offset="1"
         id="stop4496" />
    </linearGradient>
    <radialGradient
       inkscape:collect="always"
       xlink:href="#linearGradient3898"
       id="radialGradient4789"
       gradientUnits="userSpaceOnUse"
       gradientTransform="matrix(1.2755506,2.8516616e-8,-2.5178652e-8,1.1247293,-17.287004,232.09016)"
       cx="156"
       cy="27.696297"
       fx="156"
       fy="27.696297"
       r="18" />
    <linearGradient
       id="linearGradient3898">
      <stop
         style="stop-color:#ffffff;stop-opacity:1;"
         offset="0"
         id="stop3900" />
      <stop
         id="stop4490"
         offset="0.5"
         style="stop-color:#ededed;stop-opacity:1;" />
      <stop
         style="stop-color:#c8c8c8;stop-opacity:1;"
         offset="1"
         id="stop3902" />
    </linearGradient>
    <linearGradient
       inkscape:collect="always"
       xlink:href="#linearGradient4752"
       id="linearGradient4770"
       gradientUnits="userSpaceOnUse"
       x1="116.59221"
       y1="73.737137"
       x2="114.4468"
       y2="76.478256" />
    <linearGradient
       inkscape:collect="always"
       id="linearGradient4752">
      <stop
         style="stop-color:#ffffff;stop-opacity:1;"
         offset="0"
         id="stop4754" />
      <stop
         style="stop-color:#ffffff;stop-opacity:0;"
         offset="1"
         id="stop4756" />
    </linearGradient>
    <radialGradient
       inkscape:collect="always"
       xlink:href="#linearGradient3890"
       id="radialGradient4616"
       gradientUnits="userSpaceOnUse"
       gradientTransform="matrix(1,0,0,0.33333332,0,27.229172)"
       cx="156.84373"
       cy="40.843758"
       fx="156.84373"
       fy="40.843758"
       r="10.968749" />
    <linearGradient
       inkscape:collect="always"
       id="linearGradient3890">
      <stop
         style="stop-color:#000000;stop-opacity:1;"
         offset="0"
         id="stop3892" />
      <stop
         style="stop-color:#000000;stop-opacity:0;"
         offset="1"
         id="stop3894" />
    </linearGradient>
    <radialGradient
       inkscape:collect="always"
       xlink:href="#linearGradient3906"
       id="radialGradient4793"
       gradientUnits="userSpaceOnUse"
       gradientTransform="matrix(0.97817957,-0.00496204,0.00220094,0.43329191,29.059296,248.68651)"
       cx="156.00658"
       cy="16.88216"
       fx="156.00658"
       fy="16.88216"
       r="16.99999" />
    <linearGradient
       id="linearGradient3906">
      <stop
         style="stop-color:#b37851;stop-opacity:1;"
         offset="0"
         id="stop3908" />
      <stop
         style="stop-color:#462e1e;stop-opacity:1;"
         offset="1"
         id="stop3910" />
    </linearGradient>
  </defs>
  <sodipodi:namedview
     id="base"
     pagecolor="#ffffff"
     bordercolor="#666666"
     borderopacity="1.0"
     inkscape:pageopacity="0.0"
     inkscape:pageshadow="2"
     inkscape:zoom="11.140541"
     inkscape:cx="32"
     inkscape:cy="32.00024"
     inkscape:document-units="px"
     inkscape:current-layer="layer1"
     showgrid="false"
     fit-margin-top="0"
     fit-margin-left="0"
     fit-margin-right="0"
     fit-margin-bottom="0" />
  <metadata
     id="metadata5490">
    <rdf:RDF>
      <cc:Work
         rdf:about="">
        <dc:format>image/svg+xml</dc:format>
        <dc:type
           rdf:resource="http://purl.org/dc/dcmitype/StillImage" />
        <dc:title></dc:title>
      </cc:Work>
    </rdf:RDF>
  </metadata>
  <g
     inkscape:label="Capa 1"
     inkscape:groupmode="layer"
     id="layer1"
     transform="translate(-153.71428,-228.93336)">
    <path
       style="opacity:0.98999999;color:#000000;fill:#dcdcdc;fill-opacity:1;fill-rule:nonzero;stroke:#969696;stroke-width:1;stroke-linecap:round;stroke-linejoin:round;stroke-miterlimit:4;stroke-opacity:1;stroke-dasharray:none;stroke-dashoffset:0;marker:none;visibility:visible;display:inline;overflow:visible;enable-background:accumulate"
       d="m 203.68806,261.21649 -1.26617,3.96758 5.61336,0 c 0.8633,0 1.36478,0.6386 1.09735,1.70649 l -0.84411,3.49829 c -0.26743,1.06789 -1.12038,1.70649 -1.98367,1.70649 l -6.03542,0 -1.22397,3.96757 6.24645,0 c 3.10832,0 6.26152,-2.53213 7.04836,-5.67406 l 0.84411,-3.49829 c 0.78684,-3.14192 -1.07005,-5.67407 -4.17836,-5.67407 l -5.31793,0 z"
       id="rect3050-2"
       inkscape:connector-curvature="0" />
    <path
       sodipodi:type="arc"
       style="opacity:0.98999999;color:#000000;fill:#52250c;fill-opacity:1;fill-rule:nonzero;stroke:#141414;stroke-width:0.65508485;stroke-linecap:round;stroke-linejoin:round;stroke-miterlimit:4;stroke-opacity:1;stroke-dasharray:none;stroke-dashoffset:0;marker:none;visibility:visible;display:inline;overflow:visible;enable-background:accumulate"
       id="path4253-9"
       sodipodi:cx="215.24998"
       sodipodi:cy="19.937511"
       sodipodi:rx="12.124999"
       sodipodi:ry="1.9999998"
       d="m 227.37498,19.937511 c 0,1.10457 -5.42854,2 -12.125,2 -6.69645,0 -12.12499,-0.89543 -12.12499,-2 0,-1.104569 5.42854,-1.999999 12.12499,-1.999999 6.69646,0 12.125,0.89543 12.125,1.999999 z"
       transform="matrix(1.5261505,0,0,1.5268892,-145.9188,224.45684)" />
    <path
       style="opacity:0.98999999;color:#000000;fill:#dcdcdc;fill-opacity:1;stroke:#969696;stroke-width:1.00000012;stroke-linecap:round;stroke-linejoin:round;stroke-miterlimit:4;stroke-opacity:1;stroke-dasharray:none;stroke-dashoffset:0;marker:none;visibility:visible;display:inline;overflow:visible;enable-background:accumulate"
       d="m 181.69888,247.71974 c -13.06194,0 -23.63518,3.00603 -23.63518,6.69121 0,3.68518 10.57324,6.69122 23.63518,6.69122 13.06199,0 23.63522,-3.00604 23.63522,-6.69122 0,-3.68518 -10.57323,-6.69121 -23.63522,-6.69121 z"
       id="path3034-8-6"
       inkscape:connector-curvature="0"
       sodipodi:nodetypes="sssss" />
    <path
       style="opacity:0.98999999;color:#000000;fill:url(#radialGradient4793);fill-opacity:1;stroke:#bf8d6d;stroke-width:1.00000012;stroke-linecap:round;stroke-linejoin:round;stroke-miterlimit:4;stroke-opacity:1;stroke-dasharray:none;stroke-dashoffset:0;marker:none;visibility:visible;display:inline;overflow:visible;enable-background:accumulate"
       d="m 181.69888,253.11844 c -12.31554,0 -22.28458,3.00603 -22.28458,6.69121 0,3.68518 9.96904,6.69122 22.28458,6.69122 12.31559,0 22.28462,-3.00604 22.28462,-6.69122 0,-3.68518 -9.96903,-6.69121 -22.28462,-6.69121 z"
       id="path3034-8-5-8"
       inkscape:connector-curvature="0"
       sodipodi:nodetypes="sssss" />
    <path
       sodipodi:type="arc"
       style="opacity:0.4;color:#000000;fill:url(#radialGradient4616);fill-opacity:1;fill-rule:nonzero;stroke:none;stroke-width:0.75855237;marker:none;visibility:visible;display:inline;overflow:visible;enable-background:accumulate"
       id="path3112-1"
       sodipodi:cx="156.84373"
       sodipodi:cy="40.843758"
       sodipodi:rx="10.968749"
       sodipodi:ry="3.6562495"
       d="m 167.81248,40.843758 c 0,2.01929 -4.91087,3.656249 -10.96875,3.656249 -6.05787,0 -10.96874,-1.636959 -10.96874,-3.656249 0,-2.019291 4.91087,-3.65625 10.96874,-3.65625 6.05788,0 10.96875,1.636959 10.96875,3.65625 z"
       transform="matrix(1.7959507,0,0,1.8457098,-99.984724,210.79975)" />
    <path
       d="M 104.03125,68.96875 102.09375,75 l 10,0 c 1.11713,0 2.17268,0.455517 2.78125,1.34375 0.60337,0.880632 0.71377,2.058464 0.40625,3.3125 l 0,0.03125 -1.6875,7.03125 a 1.0000999,1.0000999 0 0 1 0,0.03125 c -0.6412,2.557825 -2.76576,4.1875 -5,4.1875 l -11.4375,0 -1.84375,6 11.25,0 c 5.73049,0 11.80209,-4.816148 13.28125,-10.65625 l 0,-0.03125 1.6875,-7.03125 a 1.0000999,1.0000999 0 0 1 0,-0.03125 c 0.73439,-2.929585 0.23581,-5.470355 -1.09375,-7.28125 -1.32956,-1.810895 -3.50694,-2.9375 -6.375,-2.9375 l -10.03125,0 z"
       id="path4766"
       style="opacity:0.98999999;color:#000000;fill:none;stroke:url(#linearGradient4770);stroke-width:2.08152151;stroke-linecap:round;stroke-linejoin:round;stroke-miterlimit:4;stroke-opacity:1;stroke-dasharray:none;stroke-dashoffset:0;marker:none;visibility:visible;display:inline;overflow:visible;enable-background:accumulate"
       inkscape:original="M 103.3125 67.96875 L 100.75 76 L 112.09375 76 C 113.83804 76 114.85284 77.281973 114.3125 79.4375 L 112.625 86.5 C 112.08465 88.655527 110.33802 89.9375 108.59375 89.9375 L 96.40625 89.9375 L 93.9375 97.9375 L 106.5625 97.9375 C 112.84285 97.9375 119.22269 92.841959 120.8125 86.5 L 122.5 79.4375 C 124.08981 73.095561 120.34283 67.96875 114.0625 67.96875 L 103.3125 67.96875 z "
       inkscape:radius="-0.99999988"
       sodipodi:type="inkscape:offset"
       transform="matrix(0.47994218,0,0,0.48089386,153.85552,228.89024)" />
    <path
       sodipodi:nodetypes="csc"
       inkscape:connector-curvature="0"
       id="path4768"
       d="m 202.40686,273.24025 4.28948,0 c 1.04902,0 2.03976,-1.14213 2.03976,-1.14213"
       style="fill:none;stroke:#ffffff;stroke-width:0.99999988px;stroke-linecap:round;stroke-linejoin:miter;stroke-opacity:1;display:inline;enable-background:new" />
    <path
       inkscape:connector-curvature="0"
       style="opacity:0.98999999;color:#000000;fill:url(#radialGradient4789);fill-opacity:1;stroke:#969696;stroke-width:1;stroke-linecap:round;stroke-linejoin:round;stroke-miterlimit:4;stroke-opacity:1;stroke-dashoffset:0;marker:none;visibility:visible;display:inline;overflow:visible;enable-background:accumulate"
       d="m 205.23335,255.02835 c -1.10275,3.3976 -11.20714,6.0625 -23.53125,6.0625 -12.0946,0 -22.05972,-2.5677 -23.46875,-5.875 -0.048,0.0734 -0.11898,0.14438 -0.15625,0.21875 0,14.65231 7.94727,32.8125 23.375,32.8125 16.52819,0 23.62388,-17.81428 23.875,-32.8125 1e-5,-0.13229 -0.0288,-0.27726 -0.0937,-0.40625 z"
       id="rect3029-3-5" />
    <path
       style="opacity:0.98999999;color:#000000;fill:url(#linearGradient4786);fill-opacity:1;stroke:none;stroke-width:0.99999994;marker:none;visibility:visible;display:inline;overflow:visible;enable-background:accumulate"
       d="m 161.48235,258.35691 c 1.79689,10.26503 6.99398,21.24329 15.4895,24.96051 -6.08123,-5.33129 -9.56214,-14.77673 -10.49175,-23.32199 -1.8621,-0.34997 -3.56149,-1.15226 -4.99775,-1.63852 z"
       id="rect3029-3-2-2"
       inkscape:connector-curvature="0"
       sodipodi:nodetypes="cccc" />
    <path
       style="opacity:0.7;fill:none;stroke:url(#linearGradient4783);stroke-width:1px;stroke-linecap:round;stroke-linejoin:miter;stroke-opacity:1;display:inline;enable-background:new"
       d="m 183.04302,244.96039 c 0.62423,0.011 1.2506,-0.15731 1.78524,-0.47969 0.53465,-0.32239 0.97584,-0.79781 1.25744,-1.35501 0.28161,-0.55721 0.40272,-1.19439 0.34519,-1.81606 -0.0575,-0.62166 -0.29353,-1.2258 -0.67261,-1.72186 -0.64351,-0.84209 -1.63915,-1.32608 -2.60296,-1.76683 -0.96382,-0.44076 -1.96732,-0.89269 -2.65649,-1.69784 -0.45883,-0.53604 -0.75233,-1.21167 -0.83096,-1.91287 -0.0786,-0.7012 0.0579,-1.42506 0.38661,-2.04942 0.32869,-0.62436 0.84817,-1.14663 1.47076,-1.47867 0.62258,-0.33204 1.3457,-0.47247 2.04731,-0.3976"
       id="path4095-9"
       inkscape:connector-curvature="0"
       sodipodi:nodetypes="cssc"
       inkscape:path-effect="#path-effect4103-3"
       inkscape:original-d="m 183.04302,244.96039 c 0,0 3.18445,-3.37561 2.71526,-5.37262 -0.52438,-2.23194 -4.75253,-1.22746 -5.25945,-3.46467 -0.49809,-2.19831 3.07372,-5.83856 3.07372,-5.83856" />
    <path
       inkscape:original-d="m 193.89717,244.96039 c 0,0 3.23061,-3.37561 2.75461,-5.37262 -0.53199,-2.23194 -4.82146,-1.22746 -5.33573,-3.46467 -0.50531,-2.19831 3.1183,-5.83856 3.1183,-5.83856"
       inkscape:path-effect="#path-effect4107-1"
       sodipodi:nodetypes="cssc"
       inkscape:connector-curvature="0"
       id="path4105-9"
       d="m 193.89717,244.96039 c 0.62803,0.02 1.2608,-0.1418 1.80212,-0.46085 0.54132,-0.31905 0.98937,-0.79427 1.27605,-1.35341 0.28668,-0.55913 0.41102,-1.20032 0.35412,-1.82609 -0.0569,-0.62576 -0.29486,-1.23401 -0.67768,-1.73227 -0.65239,-0.84911 -1.66306,-1.33079 -2.64052,-1.768 -0.97747,-0.43722 -1.99593,-0.88574 -2.69521,-1.69667 -0.46422,-0.53834 -0.76096,-1.2191 -0.83937,-1.92561 -0.0784,-0.70652 0.0619,-1.43577 0.39673,-2.0628 0.33489,-0.62702 0.86298,-1.14914 1.49377,-1.47688 0.63079,-0.32774 1.36159,-0.4597 2.06717,-0.37327"
       style="opacity:0.7;fill:none;stroke:url(#linearGradient4780);stroke-width:1px;stroke-linecap:round;stroke-linejoin:miter;stroke-opacity:1;display:inline;enable-background:new" />
    <path
       inkscape:original-d="m 172.24169,244.96039 c 0,0 3.19424,-3.37561 2.72361,-5.37262 -0.526,-2.23194 -4.76721,-1.22746 -5.27567,-3.46467 -0.49964,-2.19831 3.0832,-5.83856 3.0832,-5.83856"
       inkscape:path-effect="#path-effect4111-2"
       sodipodi:nodetypes="cssc"
       inkscape:connector-curvature="0"
       id="path4109-0"
       d="m 172.24169,244.96039 c 0.62504,0.0129 1.25278,-0.15402 1.78884,-0.4757 0.53607,-0.32168 0.97871,-0.79706 1.26139,-1.35468 0.28268,-0.55761 0.40447,-1.19565 0.34707,-1.81818 -0.0574,-0.62253 -0.29381,-1.22754 -0.67369,-1.72406 -0.6454,-0.84357 -1.64423,-1.32707 -2.61095,-1.76708 -0.96672,-0.44001 -1.9734,-0.89122 -2.66472,-1.69759 -0.45997,-0.53653 -0.75416,-1.21324 -0.83275,-1.91557 -0.0786,-0.70233 0.0587,-1.42733 0.38875,-2.05226 0.33001,-0.62492 0.85131,-1.14716 1.47565,-1.47829 0.62433,-0.33113 1.34908,-0.46977 2.05155,-0.39244"
       style="opacity:0.7;fill:none;stroke:url(#linearGradient4777);stroke-width:0.99999988px;stroke-linecap:round;stroke-linejoin:miter;stroke-opacity:1;display:inline;enable-background:new" />
    <path
       style="opacity:0.98999999;color:#000000;fill:none;stroke:url(#linearGradient4774);stroke-width:1.00000012;stroke-linecap:round;stroke-linejoin:round;stroke-miterlimit:4;stroke-opacity:1;stroke-dasharray:none;stroke-dashoffset:0;marker:none;visibility:visible;display:inline;overflow:visible;enable-background:accumulate"
       d="m 181.69888,248.66942 c -13.06194,0 -23.63518,3.00603 -23.63518,6.69121 0,3.68518 10.57324,6.69122 23.63518,6.69122 13.06199,0 23.63522,-3.00604 23.63522,-6.69122 0,-3.68518 -10.57323,-6.69121 -23.63522,-6.69121 z"
       id="path3034-8-4-4"
       inkscape:connector-curvature="0"
       sodipodi:nodetypes="sssss" />
    <path
       sodipodi:open="true"
       sodipodi:end="2.8593253"
       sodipodi:start="0.28060408"
       transform="matrix(0.52566922,0.00139426,-0.00129011,0.48640201,145.67798,229.10384)"
       d="M 111.73446,57.486332 C 104.86692,64.944429 79.982948,69.247909 56.154561,67.098422 41.344088,65.762414 29.75811,62.14212 25.464979,57.508787"
       sodipodi:ry="14.053746"
       sodipodi:rx="44.901276"
       sodipodi:cy="53.594341"
       sodipodi:cx="68.589348"
       id="path4548"
       style="color:#000000;fill:none;stroke:#ffffff;stroke-width:1.97762787;stroke-linecap:round;stroke-linejoin:round;stroke-miterlimit:4;stroke-opacity:1;stroke-dasharray:none;stroke-dashoffset:0;marker:none;visibility:visible;display:inline;overflow:visible;enable-background:accumulate"
       sodipodi:type="arc" />
  </g>
</svg>
