<?xml version="1.0" encoding="UTF-8" standalone="no"?>
<!-- Created with Inkscape (http://www.inkscape.org/) -->

<svg
   xmlns:dc="http://purl.org/dc/elements/1.1/"
   xmlns:cc="http://creativecommons.org/ns#"
   xmlns:rdf="http://www.w3.org/1999/02/22-rdf-syntax-ns#"
   xmlns:svg="http://www.w3.org/2000/svg"
   xmlns="http://www.w3.org/2000/svg"
   xmlns:xlink="http://www.w3.org/1999/xlink"
   xmlns:sodipodi="http://sodipodi.sourceforge.net/DTD/sodipodi-0.dtd"
   xmlns:inkscape="http://www.inkscape.org/namespaces/inkscape"
   width="16"
   height="16"
   id="svg6117"
   version="1.1"
   inkscape:version="0.48.1 r9760"
   sodipodi:docname="Nuevo documento 24">
  <defs
     id="defs6119">
    <linearGradient
       inkscape:collect="always"
       xlink:href="#linearGradient4542"
       id="linearGradient5885"
       gradientUnits="userSpaceOnUse"
       gradientTransform="matrix(0.33882018,0,0,0.38710128,133.65655,115.60919)"
       x1="24.486801"
       y1="4.7759905"
       x2="24.486801"
       y2="41.118637" />
    <linearGradient
       inkscape:collect="always"
       id="linearGradient4542">
      <stop
         style="stop-color:#ffffff;stop-opacity:1;"
         offset="0"
         id="stop4544" />
      <stop
         style="stop-color:#ffffff;stop-opacity:0;"
         offset="1"
         id="stop4546" />
    </linearGradient>
    <radialGradient
       inkscape:collect="always"
       xlink:href="#linearGradient4202"
       id="radialGradient5745"
       gradientUnits="userSpaceOnUse"
       gradientTransform="matrix(0,1.8559214,-2.6108479,0,32.92449,-45.314876)"
       cx="27.578861"
       cy="2.0474684"
       fx="27.578861"
       fy="2.0474684"
       r="22.631777" />
    <linearGradient
       id="linearGradient4202">
      <stop
         offset="0"
         style="stop-color:#e6ac82;stop-opacity:1;"
         id="stop4204" />
      <stop
         offset="0.26238"
         style="stop-color:#df9561;stop-opacity:1;"
         id="stop4206" />
      <stop
         offset="0.66093999"
         style="stop-color:#d5762f;stop-opacity:1;"
         id="stop4208" />
      <stop
         offset="1"
         style="stop-color:#a75a21;stop-opacity:1;"
         id="stop4210" />
    </linearGradient>
    <linearGradient
       inkscape:collect="always"
       xlink:href="#linearGradient4220"
       id="linearGradient5747"
       gradientUnits="userSpaceOnUse"
       x1="25.870277"
       y1="40.61932"
       x2="25.870277"
       y2="5.0962744" />
    <linearGradient
       id="linearGradient4220">
      <stop
         offset="0"
         style="stop-color:#753d17;stop-opacity:1;"
         id="stop4222" />
      <stop
         offset="1"
         style="stop-color:#d97f3f;stop-opacity:1;"
         id="stop4224" />
    </linearGradient>
    <radialGradient
       inkscape:collect="always"
       xlink:href="#linearGradient4234"
       id="radialGradient5749"
       gradientUnits="userSpaceOnUse"
       gradientTransform="matrix(-1.3028813e-7,1.8694195,-2.7709502,-1.8360152e-7,87.27841,-38.731343)"
       cx="31.840776"
       cy="20.00672"
       fx="31.840776"
       fy="20.00672"
       r="5.9926605" />
    <linearGradient
       id="linearGradient4234">
      <stop
         offset="0"
         style="stop-color:#8badea;stop-opacity:1"
         id="stop4236" />
      <stop
         offset="0.26238"
         style="stop-color:#6396cd;stop-opacity:1"
         id="stop4238" />
      <stop
         offset="0.66093999"
         style="stop-color:#3b7caf;stop-opacity:1"
         id="stop4240" />
      <stop
         offset="1"
         style="stop-color:#194c70;stop-opacity:1"
         id="stop4242" />
    </linearGradient>
    <linearGradient
       inkscape:collect="always"
       xlink:href="#linearGradient4252"
       id="linearGradient5751"
       gradientUnits="userSpaceOnUse"
       x1="29.329277"
       y1="29.777784"
       x2="29.329277"
       y2="20.041948"
       gradientTransform="matrix(1,0,0,0.96004984,0,1.1991279)" />
    <linearGradient
       id="linearGradient4252">
      <stop
         offset="0"
         style="stop-color:#1f4b6a;stop-opacity:1"
         id="stop4254" />
      <stop
         offset="1"
         style="stop-color:#4083c2;stop-opacity:1"
         id="stop4256" />
    </linearGradient>
    <linearGradient
       inkscape:collect="always"
       xlink:href="#linearGradient4368"
       id="linearGradient5753"
       gradientUnits="userSpaceOnUse"
       gradientTransform="matrix(0.15212058,0,0,0.13387454,119.2328,121.88996)"
       x1="166.49399"
       y1="28.05773"
       x2="166.49399"
       y2="37.641525" />
    <linearGradient
       inkscape:collect="always"
       id="linearGradient4368">
      <stop
         style="stop-color:#ffffff;stop-opacity:1;"
         offset="0"
         id="stop4370" />
      <stop
         style="stop-color:#ffffff;stop-opacity:0;"
         offset="1"
         id="stop4372" />
    </linearGradient>
  </defs>
  <sodipodi:namedview
     id="base"
     pagecolor="#ffffff"
     bordercolor="#666666"
     borderopacity="1.0"
     inkscape:pageopacity="0.0"
     inkscape:pageshadow="2"
     inkscape:zoom="44.5625"
     inkscape:cx="8"
     inkscape:cy="8"
     inkscape:document-units="px"
     inkscape:current-layer="layer1"
     showgrid="false"
     fit-margin-top="0"
     fit-margin-left="0"
     fit-margin-right="0"
     fit-margin-bottom="0" />
  <metadata
     id="metadata6122">
    <rdf:RDF>
      <cc:Work
         rdf:about="">
        <dc:format>image/svg+xml</dc:format>
        <dc:type
           rdf:resource="http://purl.org/dc/dcmitype/StillImage" />
        <dc:title></dc:title>
      </cc:Work>
    </rdf:RDF>
  </metadata>
  <g
     inkscape:label="Capa 1"
     inkscape:groupmode="layer"
     id="layer1"
     transform="translate(-292,-358.64789)">
    <g
       style="display:inline;enable-background:new"
       id="g5737"
       transform="matrix(1,0,0,1.1709501,157.998,220.09059)">
      <g
         transform="matrix(0.33882018,0,0,0.33058734,133.65855,117.99521)"
         inkscape:label="Layer 1"
         id="g5711">
        <path
           inkscape:connector-curvature="0"
           style="fill:url(#radialGradient5745);fill-opacity:1;fill-rule:evenodd;stroke:url(#linearGradient5747);stroke-width:2.76123285;stroke-linecap:butt;stroke-linejoin:miter;stroke-miterlimit:4;stroke-opacity:1;stroke-dasharray:none"
           id="path5713"
           d="m 16.048489,28.093447 c 0.0098,0.576682 0.196474,1.697902 0.471116,2.577425 0.581566,1.854137 1.56684,3.572658 2.939126,5.086496 1.407488,1.553118 3.138519,2.803227 5.139315,3.68976 2.105357,0.931573 4.384795,1.407488 6.750134,1.403741 2.365339,-0.005 4.644601,-0.488686 6.74896,-1.427017 2.00002,-0.895288 3.731043,-2.148391 5.13754,-3.705517 1.369207,-1.519844 2.352576,-3.241114 2.934089,-5.096258 0.294262,-0.938353 0.476921,-1.889392 0.553238,-2.845308 0.07331,-0.939306 0.04204,-1.883511 -0.09183,-2.823792 -0.259981,-1.835599 -0.896294,-3.556847 -1.872652,-5.12758 -0.895541,-1.441699 -2.047808,-2.70454 -3.417268,-3.766975 l 0.002,-0.002 L 27.513799,5.4367025 c -0.01176,-0.00978 -0.02252,-0.019551 -0.03529,-0.028344 -0.909003,-0.6959264 -2.434775,-0.6939758 -3.431728,0.00488 -1.01067,0.7057021 -1.091821,1.8092613 -0.195527,2.5482146 1.899775,1.4997633 3.792068,3.2092899 5.702368,4.7088689 l -17.551681,-0.01171 c -1.994685,0 -3.1682604,0.947915 -3.4153942,2.333683 -0.2180771,1.222836 0.7479213,2.909379 2.4800212,2.909379 2.956573,0.0039 5.942111,-0.0069 8.909215,-0.01272 L 4.07406,29.340616 c -0.020527,0.01564 -0.041053,0.02933 -0.06158,0.04497 -1.4974197,1.148389 -1.9831951,3.059322 -1.0399808,4.268393 0.9598323,1.22959 2.9977653,1.230588 4.5147288,0.006 l 8.677593,-7.102098 c 0,0 -0.12511,0.959824 -0.116333,1.535532 z"
           sodipodi:nodetypes="csssssssssscccsscccscccsscccc" />
        <path
           sodipodi:type="arc"
           style="color:#000000;fill:#ffffff;fill-opacity:1;fill-rule:nonzero;stroke:none;stroke-width:1;marker:none;visibility:visible;display:inline;overflow:visible"
           id="path5715"
           sodipodi:cx="31.1875"
           sodipodi:cy="25.75"
           sodipodi:rx="11.5625"
           sodipodi:ry="10.125"
           d="m 42.75,25.75 c 0,5.591883 -5.176708,10.125 -11.5625,10.125 -6.385792,0 -11.5625,-4.533117 -11.5625,-10.125 0,-5.591883 5.176708,-10.125 11.5625,-10.125 6.385792,0 11.5625,4.533117 11.5625,10.125 z"
           transform="matrix(0.821621,0,0,0.839506,5.87569,3.88272)" />
        <path
           inkscape:connector-curvature="0"
           style="fill:url(#radialGradient5749);fill-opacity:1;fill-rule:evenodd;stroke:url(#linearGradient5751);stroke-width:2.78271365;stroke-opacity:1"
           id="path5717"
           d="m 26.007076,24.964248 c 0.07447,-1.306779 0.739293,-2.460277 1.738705,-3.276911 0.983518,-0.802777 2.304215,-1.292944 3.746876,-1.292944 1.441743,0 2.762441,0.490167 3.745729,1.292944 1.000515,0.816634 1.664539,1.969267 1.739875,3.276046 0.07718,1.344887 -0.4828,2.593647 -1.46425,3.518534 -1.000516,0.942202 -2.427099,1.533683 -4.021354,1.533683 -1.595172,0 -3.021756,-0.591481 -4.022225,-1.533683 -0.982461,-0.924887 -1.540507,-2.173647 -1.463356,-3.517669 z" />
      </g>
      <path
         d="m 143.48138,126.22791 c 0.0115,-0.18223 0.11424,-0.34307 0.26863,-0.45695 0.15195,-0.11194 0.35599,-0.1803 0.57887,-0.1803 0.22276,0 0.4268,0.0684 0.5787,0.1803 0.15458,0.11388 0.25719,0.27461 0.26881,0.45684 0.0119,0.18754 -0.0745,0.36166 -0.22622,0.49064 -0.15457,0.13139 -0.37498,0.21387 -0.62129,0.21387 -0.24644,0 -0.46683,-0.0825 -0.6214,-0.21387 -0.1518,-0.12898 -0.23801,-0.3031 -0.2261,-0.49053 z"
         id="path5719"
         style="opacity:0.4;fill:none;stroke:url(#linearGradient5753);stroke-width:0.93131429;stroke-opacity:1"
         inkscape:connector-curvature="0" />
    </g>
    <path
       transform="translate(158,242.6479)"
       sodipodi:type="inkscape:offset"
       inkscape:radius="-0.99798787"
       inkscape:original="M 142.96875 117.6875 C 142.66076 117.4181 142.15029 117.44811 141.8125 117.71875 C 141.47006 117.99192 141.44627 118.40145 141.75 118.6875 C 142.39368 119.26806 143.009 119.91951 143.65625 120.5 L 137.71875 120.5 C 137.04291 120.5 136.64623 120.86982 136.5625 121.40625 C 136.4886 121.87961 136.81938 122.53125 137.40625 122.53125 C 138.408 122.53325 139.43219 122.53325 140.4375 122.53125 L 135.03125 126.96875 C 134.5239 127.41329 134.33667 128.15697 134.65625 128.625 C 134.98146 129.10098 135.67352 129.09936 136.1875 128.625 L 139.125 125.875 C 139.125 125.875 139.09075 126.24589 139.09375 126.46875 C 139.09675 126.69199 139.15698 127.12828 139.25 127.46875 C 139.44705 128.18649 139.78505 128.85149 140.25 129.4375 C 140.72689 130.03871 141.32209 130.53182 142 130.875 C 142.71334 131.23561 143.47983 131.43895 144.28125 131.4375 C 145.08267 131.4355 145.8495 131.23823 146.5625 130.875 C 147.24015 130.52843 147.83595 130.04026 148.3125 129.4375 C 148.77641 128.84916 149.11548 128.18688 149.3125 127.46875 C 149.4122 127.10551 149.47414 126.74503 149.5 126.375 C 149.5248 126.01139 149.51405 125.64524 149.46875 125.28125 C 149.38065 124.57069 149.14331 123.88928 148.8125 123.28125 C 148.50907 122.72317 148.12025 122.22377 147.65625 121.8125 L 142.96875 117.71875 C 142.96475 117.71475 142.97275 117.6905 142.96875 117.6875 z "
       style="opacity:0.4;fill:none;stroke:url(#linearGradient5885);stroke-width:1;stroke-linecap:butt;stroke-linejoin:miter;stroke-miterlimit:4;stroke-opacity:1;stroke-dasharray:none;display:inline;enable-background:new"
       id="path5883"
       d="m 144.65625,120.5 a 0.99808767,0.99808767 0 0 1 -1,1 l -5.9375,0 c -0.15589,0 -0.16427,0.0378 -0.15625,0.0312 0.95092,0.002 1.92279,0.002 2.875,0 a 0.99808767,0.99808767 0 0 1 0.625,1.78125 l -1.875,1.5625 a 0.99808767,0.99808767 0 0 1 0.9375,1.09375 c 0,0 -0.0327,0.39426 -0.0312,0.5 8.2e-4,0.0613 0.0602,0.51297 0.125,0.75 0.16158,0.58854 0.42967,1.11124 0.8125,1.59375 0.39075,0.49262 0.86203,0.912 1.40625,1.1875 l 0,-0.0312 c 0.59126,0.2989 1.21229,0.46989 1.84375,0.46875 0.62898,-0.002 1.23589,-0.14865 1.8125,-0.4375 0.007,-0.004 0.0242,0.004 0.0312,0 0.54169,-0.28082 1.02311,-0.70289 1.40625,-1.1875 0.38484,-0.48806 0.65135,-1.00638 0.8125,-1.59375 0.083,-0.30246 0.13497,-0.60181 0.15625,-0.90625 0.0204,-0.2987 0.006,-0.60445 -0.0312,-0.90625 -0.0708,-0.57067 -0.25427,-1.14715 -0.53125,-1.65625 -0.25188,-0.46326 -0.5665,-0.85867 -0.9375,-1.1875 L 144.65625,120.5 z" />
  </g>
</svg>
