<?xml version="1.0" encoding="UTF-8" standalone="no"?>
<!-- Created with Inkscape (http://www.inkscape.org/) -->

<svg
   xmlns:dc="http://purl.org/dc/elements/1.1/"
   xmlns:cc="http://creativecommons.org/ns#"
   xmlns:rdf="http://www.w3.org/1999/02/22-rdf-syntax-ns#"
   xmlns:svg="http://www.w3.org/2000/svg"
   xmlns="http://www.w3.org/2000/svg"
   xmlns:xlink="http://www.w3.org/1999/xlink"
   xmlns:sodipodi="http://sodipodi.sourceforge.net/DTD/sodipodi-0.dtd"
   xmlns:inkscape="http://www.inkscape.org/namespaces/inkscape"
   width="16"
   height="16"
   id="svg5271"
   version="1.1"
   inkscape:version="0.48.1 r9760"
   sodipodi:docname="Nuevo documento 22">
  <defs
     id="defs5273">
    <linearGradient
       inkscape:collect="always"
       xlink:href="#linearGradient4081"
       id="linearGradient4443"
       gradientUnits="userSpaceOnUse"
       gradientTransform="matrix(0.17857142,0,0,0.17857142,131.19643,111.23214)"
       x1="58.299992"
       y1="33.747795"
       x2="58.299992"
       y2="109.95846" />
    <linearGradient
       id="linearGradient4081">
      <stop
         id="stop4083"
         style="stop-color:#ffffff;stop-opacity:1;"
         offset="0" />
      <stop
         offset="0.06316455"
         style="stop-color:#ffffff;stop-opacity:0.23529412;"
         id="stop4085" />
      <stop
         id="stop4087"
         style="stop-color:#ffffff;stop-opacity:0.15686275;"
         offset="0.95056331" />
      <stop
         id="stop4089"
         style="stop-color:#ffffff;stop-opacity:0.39215687;"
         offset="1" />
    </linearGradient>
    <linearGradient
       inkscape:collect="always"
       xlink:href="#linearGradient3867"
       id="linearGradient4433"
       gradientUnits="userSpaceOnUse"
       gradientTransform="matrix(0.17857142,0,0,0.17857142,205.71428,226.6479)"
       x1="48"
       y1="90"
       x2="48"
       y2="5.9877172" />
    <linearGradient
       gradientUnits="userSpaceOnUse"
       id="linearGradient3867"
       y2="5.4252338"
       x2="58.650177"
       y1="122"
       x1="58.650177">
      <stop
         offset="0"
         style="stop-color:#be1e1e;stop-opacity:1;"
         id="stop3869" />
      <stop
         offset="1"
         style="stop-color:#e24a4a;stop-opacity:1;"
         id="stop3871" />
    </linearGradient>
    <linearGradient
       inkscape:collect="always"
       xlink:href="#linearGradient3873"
       id="linearGradient4435"
       gradientUnits="userSpaceOnUse"
       gradientTransform="matrix(0.17857142,0,0,0.17857142,203.48214,222.45147)"
       x1="51.999992"
       y1="113.49999"
       x2="51.999992"
       y2="29.962587" />
    <linearGradient
       id="linearGradient3873">
      <stop
         style="stop-color:#560e0e;stop-opacity:1;"
         offset="0"
         id="stop3875" />
      <stop
         style="stop-color:#9b1919;stop-opacity:1;"
         offset="1"
         id="stop3877" />
    </linearGradient>
  </defs>
  <sodipodi:namedview
     id="base"
     pagecolor="#ffffff"
     bordercolor="#666666"
     borderopacity="1.0"
     inkscape:pageopacity="0.0"
     inkscape:pageshadow="2"
     inkscape:zoom="31.266179"
     inkscape:cx="7.9955292"
     inkscape:cy="8.0005798"
     inkscape:document-units="px"
     inkscape:current-layer="layer1"
     showgrid="false"
     fit-margin-top="0"
     fit-margin-left="0"
     fit-margin-right="0"
     fit-margin-bottom="0" />
  <metadata
     id="metadata5276">
    <rdf:RDF>
      <cc:Work
         rdf:about="">
        <dc:format>image/svg+xml</dc:format>
        <dc:type
           rdf:resource="http://purl.org/dc/dcmitype/StillImage" />
        <dc:title></dc:title>
      </cc:Work>
    </rdf:RDF>
  </metadata>
  <g
     inkscape:label="Capa 1"
     inkscape:groupmode="layer"
     id="layer1"
     transform="translate(-206.28572,-227.21933)">
    <path
       style="fill:url(#linearGradient4433);fill-opacity:1;fill-rule:nonzero;stroke:url(#linearGradient4435);stroke-width:0.99999988;stroke-opacity:1;display:inline;enable-background:new"
       id="path4429"
       inkscape:connector-curvature="0"
       d="m 207.85714,227.71933 c -0.56388,0 -1.02128,0.43012 -1.06585,0.98214 0.44096,0.003 0.79799,0.36189 0.79799,0.80357 0,0.44357 -0.36,0.80357 -0.80357,0.80357 l 0,1.25001 c 0.44357,0 0.80357,0.36 0.80357,0.80357 0,0.44357 -0.36,0.80357 -0.80357,0.80357 l 0,1.25 c 0.44357,0 0.80357,0.36 0.80357,0.80357 0,0.44357 -0.36,0.80357 -0.80357,0.80357 l 0,1.25 c 0.44357,0 0.80357,0.36 0.80357,0.80357 0,0.44358 -0.36,0.80358 -0.80357,0.80358 l 0,1.24999 c 0.44357,0 0.80357,0.36 0.80357,0.80358 0,0.44168 -0.35703,0.80052 -0.79799,0.80357 0.0446,0.55201 0.50197,0.98214 1.06585,0.98214 0,-0.44357 0.36,-0.80357 0.80358,-0.80357 0.44356,0 0.80356,0.36 0.80356,0.80357 l 1.25001,0 c 0,-0.44357 0.36,-0.80357 0.80356,-0.80357 0.44357,0 0.80357,0.36 0.80357,0.80357 l 1.25001,0 c 0,-0.44357 0.36,-0.80357 0.80356,-0.80357 0.44358,0 0.80358,0.36 0.80358,0.80357 l 1.25,0 c 0,-0.44357 0.36,-0.80357 0.80357,-0.80357 0.44357,0 0.80357,0.36 0.80357,0.80357 l 1.25001,0 c -1e-5,-0.44357 0.36,-0.80357 0.80356,-0.80357 0.4379,0 0.79452,0.35109 0.80357,0.78683 0.4801,-0.0795 0.8475,-0.47267 0.88728,-0.9654 -0.44096,-0.003 -0.79799,-0.36189 -0.79799,-0.80357 0,-0.44358 0.36,-0.80358 0.80357,-0.80358 l 0,-1.24999 c -0.44357,0 -0.80357,-0.36 -0.80357,-0.80358 0,-0.44357 0.36,-0.80357 0.80357,-0.80357 l 0,-1.25 c -0.44357,0 -0.80357,-0.36 -0.80357,-0.80357 0,-0.44357 0.36,-0.80357 0.80357,-0.80357 l 0,-1.25 c -0.44357,0 -0.80357,-0.36 -0.80357,-0.80357 0,-0.44357 0.36,-0.80357 0.80357,-0.80357 l 0,-1.25001 c -0.44357,0 -0.80357,-0.36 -0.80357,-0.80357 0,-0.44168 0.35703,-0.80052 0.79799,-0.80357 -0.0398,-0.49273 -0.40718,-0.88592 -0.88728,-0.9654 -0.009,0.43574 -0.36567,0.78683 -0.80357,0.78683 -0.44357,0 -0.80356,-0.36 -0.80356,-0.80357 l -1.25001,0 c 0,0.44357 -0.36,0.80357 -0.80357,0.80357 -0.44357,0 -0.80357,-0.36 -0.80357,-0.80357 l -1.25,0 c 0,0.44357 -0.36,0.80357 -0.80358,0.80357 -0.44356,0 -0.80356,-0.36 -0.80356,-0.80357 l -1.25001,0 c 0,0.44357 -0.36,0.80357 -0.80357,0.80357 -0.44356,0 -0.80356,-0.36 -0.80356,-0.80357 l -1.25001,0 c 0,0.44357 -0.36,0.80357 -0.80356,0.80357 -0.44358,0 -0.80358,-0.36 -0.80358,-0.80357 z" />
    <path
       style="opacity:0.95;fill:#ffffff;fill-opacity:1;stroke:none;display:inline;enable-background:new"
       id="path4431"
       inkscape:connector-curvature="0"
       d="m 211.39969,230.4078 -1.96757,8.65235 1.59865,0 0.92865,-3.87202 4.36391,0 -4.08677,3.62662 1.06537,1.21611 0.54569,-0.27874 c 1.03194,-0.52599 1.46475,-0.21844 2.24767,-0.003 0.76168,0.20954 1.47773,0.43382 2.96331,-0.41509 l -0.29503,-1.49832 c -1.62129,1.14277 -2.1342,0.12319 -3.28894,0.0827 l 3.30595,-2.77313 0.35872,-1.48038 -6.92492,0 0.44579,-1.7767 4.53892,0 0.31127,-1.48038 -6.11067,0 z" />
    <path
       transform="translate(72.285714,111.21933)"
       sodipodi:type="inkscape:offset"
       inkscape:radius="-0.99436867"
       inkscape:original="M 135.5625 116.5 C 134.99862 116.5 134.54457 116.91673 134.5 117.46875 C 134.94096 117.47175 135.3125 117.83957 135.3125 118.28125 C 135.3125 118.72482 134.94357 119.09375 134.5 119.09375 L 134.5 120.34375 C 134.94357 120.34375 135.3125 120.71268 135.3125 121.15625 C 135.3125 121.59982 134.94357 121.9375 134.5 121.9375 L 134.5 123.1875 C 134.94357 123.1875 135.3125 123.55643 135.3125 124 C 135.3125 124.44357 134.94357 124.8125 134.5 124.8125 L 134.5 126.0625 C 134.94357 126.0625 135.3125 126.40018 135.3125 126.84375 C 135.3125 127.28733 134.94357 127.65625 134.5 127.65625 L 134.5 128.90625 C 134.94357 128.90625 135.3125 129.27517 135.3125 129.71875 C 135.3125 130.16043 134.94096 130.5282 134.5 130.53125 C 134.5446 131.08326 134.99862 131.5 135.5625 131.5 C 135.5625 131.05643 135.93142 130.6875 136.375 130.6875 C 136.81856 130.6875 137.1875 131.05643 137.1875 131.5 L 138.4375 131.5 C 138.4375 131.05643 138.77519 130.6875 139.21875 130.6875 C 139.66232 130.6875 140.03125 131.05643 140.03125 131.5 L 141.28125 131.5 C 141.28125 131.05643 141.65019 130.6875 142.09375 130.6875 C 142.53733 130.6875 142.90625 131.05643 142.90625 131.5 L 144.15625 131.5 C 144.15625 131.05643 144.49393 130.6875 144.9375 130.6875 C 145.38107 130.6875 145.75 131.05643 145.75 131.5 L 147 131.5 C 146.99999 131.05643 147.36894 130.6875 147.8125 130.6875 C 148.2504 130.6875 148.5847 131.03301 148.59375 131.46875 C 149.07385 131.38925 149.46022 131.02398 149.5 130.53125 C 149.05904 130.52825 148.6875 130.16043 148.6875 129.71875 C 148.6875 129.27517 149.05643 128.90625 149.5 128.90625 L 149.5 127.65625 C 149.05643 127.65625 148.6875 127.28733 148.6875 126.84375 C 148.6875 126.40018 149.05643 126.0625 149.5 126.0625 L 149.5 124.8125 C 149.05643 124.8125 148.6875 124.44357 148.6875 124 C 148.6875 123.55643 149.05643 123.1875 149.5 123.1875 L 149.5 121.9375 C 149.05643 121.9375 148.6875 121.59982 148.6875 121.15625 C 148.6875 120.71268 149.05643 120.34375 149.5 120.34375 L 149.5 119.09375 C 149.05643 119.09375 148.6875 118.72482 148.6875 118.28125 C 148.6875 117.83957 149.05904 117.4718 149.5 117.46875 C 149.4602 116.97602 149.07385 116.61073 148.59375 116.53125 C 148.58475 116.96699 148.2504 117.3125 147.8125 117.3125 C 147.36893 117.3125 147 116.94357 147 116.5 L 145.75 116.5 C 145.75 116.94357 145.38107 117.3125 144.9375 117.3125 C 144.49393 117.3125 144.15625 116.94357 144.15625 116.5 L 142.90625 116.5 C 142.90625 116.94357 142.53733 117.3125 142.09375 117.3125 C 141.65019 117.3125 141.28125 116.94357 141.28125 116.5 L 140.03125 116.5 C 140.03125 116.94357 139.66232 117.3125 139.21875 117.3125 C 138.77519 117.3125 138.4375 116.94357 138.4375 116.5 L 137.1875 116.5 C 137.1875 116.94357 136.81856 117.3125 136.375 117.3125 C 135.93142 117.3125 135.5625 116.94357 135.5625 116.5 z "
       style="opacity:0.5;fill:none;stroke:url(#linearGradient4443);stroke-width:0.99999988;stroke-opacity:1;display:inline;enable-background:new"
       id="path4441"
       d="m 137.78125,117.5 c -0.32782,0.46265 -0.79843,0.8125 -1.40625,0.8125 -0.025,0 -0.0377,-0.0302 -0.0625,-0.0312 0,0.60782 -0.34985,1.07843 -0.8125,1.40625 l 0,0.0625 c 0.46265,0.32782 0.8125,0.79843 0.8125,1.40625 0,0.59517 -0.36261,1.02317 -0.8125,1.34375 l 0,0.0937 c 0.46265,0.32782 0.8125,0.79843 0.8125,1.40625 0,0.60782 -0.34985,1.07843 -0.8125,1.40625 l 0,0.0937 c 0.44989,0.32058 0.8125,0.74858 0.8125,1.34375 0,0.60782 -0.34984,1.07843 -0.8125,1.40625 l 0,0.0625 c 0.46266,0.32782 0.8125,0.79843 0.8125,1.40625 0.0248,-0.001 0.0375,-0.0312 0.0625,-0.0312 0.60782,0 1.07843,0.34985 1.40625,0.8125 l 0.0937,0 c 0.32058,-0.44989 0.74858,-0.8125 1.34375,-0.8125 0.60782,0 1.07843,0.34985 1.40625,0.8125 l 0.0625,0 c 0.32782,-0.46265 0.79843,-0.8125 1.40625,-0.8125 0.60782,0 1.07843,0.34984 1.40625,0.8125 l 0.0937,0 c 0.32058,-0.44989 0.74858,-0.8125 1.34375,-0.8125 0.60782,0 1.07843,0.34985 1.40625,0.8125 l 0.0625,0 c 0.30086,-0.4246 0.73463,-0.70514 1.28125,-0.75 -1.7e-4,-0.0104 0,-0.0208 0,-0.0312 0,-0.60782 0.34984,-1.07843 0.8125,-1.40625 l 0,-0.0625 c -0.46266,-0.32782 -0.8125,-0.79843 -0.8125,-1.40625 0,-0.59517 0.36261,-1.02317 0.8125,-1.34375 l 0,-0.0937 c -0.46265,-0.32782 -0.8125,-0.79843 -0.8125,-1.40625 0,-0.60782 0.34985,-1.07843 0.8125,-1.40625 l 0,-0.0937 c -0.44989,-0.32058 -0.8125,-0.74858 -0.8125,-1.34375 0,-0.60782 0.34985,-1.07843 0.8125,-1.40625 l 0,-0.0625 c -0.46265,-0.32782 -0.8125,-0.79843 -0.8125,-1.40625 0,-0.0104 -1.7e-4,-0.0209 0,-0.0312 -0.54662,-0.0449 -0.98039,-0.3254 -1.28125,-0.75 l -0.0625,0 c -0.32782,0.46265 -0.79843,0.8125 -1.40625,0.8125 -0.59517,0 -1.02317,-0.36261 -1.34375,-0.8125 l -0.0937,0 c -0.32782,0.46266 -0.79843,0.8125 -1.40625,0.8125 -0.60782,0 -1.07843,-0.34985 -1.40625,-0.8125 l -0.0625,0 c -0.32782,0.46265 -0.79843,0.8125 -1.40625,0.8125 -0.59517,0 -1.02317,-0.36261 -1.34375,-0.8125 l -0.0937,0 z" />
  </g>
</svg>
