<?xml version="1.0" encoding="UTF-8" standalone="no"?>
<!-- Created with Inkscape (http://www.inkscape.org/) -->

<svg
   xmlns:dc="http://purl.org/dc/elements/1.1/"
   xmlns:cc="http://creativecommons.org/ns#"
   xmlns:rdf="http://www.w3.org/1999/02/22-rdf-syntax-ns#"
   xmlns:svg="http://www.w3.org/2000/svg"
   xmlns="http://www.w3.org/2000/svg"
   xmlns:xlink="http://www.w3.org/1999/xlink"
   xmlns:sodipodi="http://sodipodi.sourceforge.net/DTD/sodipodi-0.dtd"
   xmlns:inkscape="http://www.inkscape.org/namespaces/inkscape"
   width="16"
   height="16"
   id="svg8551"
   version="1.1"
   inkscape:version="0.48.1 r9760"
   sodipodi:docname="liferea16.svg">
  <defs
     id="defs8553">
    <radialGradient
       inkscape:collect="always"
       xlink:href="#linearGradient2867-449-88-871-390-598-476-591-434-148-0"
       id="radialGradient6434"
       gradientUnits="userSpaceOnUse"
       gradientTransform="matrix(0,3.5234091,-3.5234073,0,-6.7439676,-205.79862)"
       cx="61.240059"
       cy="-8.7256308"
       fx="61.240059"
       fy="-8.7256308"
       r="9.7552834" />
    <linearGradient
       id="linearGradient2867-449-88-871-390-598-476-591-434-148-0">
      <stop
         id="stop4627-3"
         style="stop-color:#51cfee;stop-opacity:1"
         offset="0" />
      <stop
         id="stop4629-6"
         style="stop-color:#49a3d2;stop-opacity:1"
         offset="0.26238" />
      <stop
         id="stop4631-4"
         style="stop-color:#3470b4;stop-opacity:1"
         offset="0.704952" />
      <stop
         id="stop4633-7"
         style="stop-color:#273567;stop-opacity:1"
         offset="1" />
    </linearGradient>
    <linearGradient
       inkscape:collect="always"
       xlink:href="#linearGradient3707-319-631-6"
       id="linearGradient6436"
       gradientUnits="userSpaceOnUse"
       gradientTransform="matrix(0.98001402,0,0,0.97999168,0.08994011,0.8703621)"
       x1="20"
       y1="43"
       x2="20"
       y2="2.6887112" />
    <linearGradient
       id="linearGradient3707-319-631-6">
      <stop
         id="stop4637-5"
         style="stop-color:#254b6d;stop-opacity:1"
         offset="0" />
      <stop
         id="stop4639-8"
         style="stop-color:#415b73;stop-opacity:1"
         offset="0.5" />
      <stop
         id="stop4641-4"
         style="stop-color:#6195b5;stop-opacity:1"
         offset="1" />
    </linearGradient>
    <linearGradient
       inkscape:collect="always"
       xlink:href="#linearGradient4873-3"
       id="linearGradient6438"
       gradientUnits="userSpaceOnUse"
       gradientTransform="matrix(1.9069802,0,0,1.9069367,-94.614935,30.69494)"
       x1="62.200409"
       y1="-12.489107"
       x2="62.200409"
       y2="-1.4615115" />
    <linearGradient
       id="linearGradient4873-3">
      <stop
         id="stop4875-3"
         style="stop-color:#ffffff;stop-opacity:1"
         offset="0" />
      <stop
         id="stop4877-0"
         style="stop-color:#ffffff;stop-opacity:0"
         offset="1" />
    </linearGradient>
    <linearGradient
       inkscape:collect="always"
       xlink:href="#linearGradient4035"
       id="linearGradient6430"
       gradientUnits="userSpaceOnUse"
       x1="157.79547"
       y1="20.110691"
       x2="157.79547"
       y2="47.532818" />
    <linearGradient
       inkscape:collect="always"
       id="linearGradient4035">
      <stop
         style="stop-color:#ffffff;stop-opacity:1;"
         offset="0"
         id="stop4037" />
      <stop
         style="stop-color:#ffffff;stop-opacity:0;"
         offset="1"
         id="stop4039" />
    </linearGradient>
    <linearGradient
       inkscape:collect="always"
       xlink:href="#linearGradient4015"
       id="linearGradient6426"
       gradientUnits="userSpaceOnUse"
       gradientTransform="matrix(0.38461521,0,0,0.44302474,87.802224,55.51835)"
       x1="158.90813"
       y1="48.431599"
       x2="158.90813"
       y2="19.244049" />
    <linearGradient
       id="linearGradient4015">
      <stop
         style="stop-color:#8c8c8c;stop-opacity:1;"
         offset="0"
         id="stop4017" />
      <stop
         id="stop4029"
         offset="0.03117742"
         style="stop-color:#969696;stop-opacity:1;" />
      <stop
         id="stop4027"
         offset="0.0741232"
         style="stop-color:#a0a0a0;stop-opacity:1;" />
      <stop
         id="stop4025"
         offset="0.15525444"
         style="stop-color:#dcdcdc;stop-opacity:1;" />
      <stop
         id="stop4023"
         offset="0.5"
         style="stop-color:#e1e1e1;stop-opacity:1;" />
      <stop
         style="stop-color:#e6e6e6;stop-opacity:1;"
         offset="1"
         id="stop4019" />
    </linearGradient>
    <linearGradient
       inkscape:collect="always"
       xlink:href="#linearGradient5648"
       id="linearGradient6428"
       gradientUnits="userSpaceOnUse"
       gradientTransform="matrix(0.34883705,0,0,0.36111129,93.455181,59.49114)"
       x1="153.67767"
       y1="48.531219"
       x2="153.67767"
       y2="12.64398" />
    <linearGradient
       id="linearGradient5648">
      <stop
         style="stop-color:#646464;stop-opacity:1;"
         offset="0"
         id="stop5650" />
      <stop
         style="stop-color:#b4b4b4;stop-opacity:1;"
         offset="1"
         id="stop5652" />
    </linearGradient>
  </defs>
  <sodipodi:namedview
     id="base"
     pagecolor="#ffffff"
     bordercolor="#666666"
     borderopacity="1.0"
     inkscape:pageopacity="0.0"
     inkscape:pageshadow="2"
     inkscape:zoom="44.5625"
     inkscape:cx="7.9954959"
     inkscape:cy="8.0000002"
     inkscape:document-units="px"
     inkscape:current-layer="layer1"
     showgrid="false"
     fit-margin-top="0"
     fit-margin-left="0"
     fit-margin-right="0"
     fit-margin-bottom="0" />
  <metadata
     id="metadata8556">
    <rdf:RDF>
      <cc:Work
         rdf:about="">
        <dc:format>image/svg+xml</dc:format>
        <dc:type
           rdf:resource="http://purl.org/dc/dcmitype/StillImage" />
        <dc:title />
      </cc:Work>
    </rdf:RDF>
  </metadata>
  <g
     inkscape:label="Capa 1"
     inkscape:groupmode="layer"
     id="layer1"
     transform="translate(-140.57143,-61.505039)">
    <path
       sodipodi:nodetypes="ccssccc"
       inkscape:connector-curvature="0"
       id="path6380"
       d="m 141.07144,64.00503 c 0,3.75649 0,7.51296 0,11.26944 0,0.95452 0.66171,1.73056 1.49038,1.73056 l 12.01922,0 c 0.82868,0 1.49039,-0.77604 1.49039,-1.73056 0,-3.79564 0,-7.51295 0,-11.26944 -5,0 -9.99999,0 -14.99999,0 z"
       style="color:#000000;fill:url(#linearGradient6426);fill-opacity:1;stroke:url(#linearGradient6428);stroke-width:1.00000012;stroke-linecap:round;stroke-linejoin:round;stroke-miterlimit:4;stroke-opacity:1;stroke-dasharray:none;stroke-dashoffset:0;marker:none;visibility:visible;display:inline;overflow:visible;enable-background:accumulate" />
    <path
       transform="matrix(0.35075886,0,0,0.424571,93.15153,56.46055)"
       d="m 139.46875,20.125 0,24.46875 c 0,1.63697 1.27869,2.9375 2.90625,2.9375 l 31.25,0 c 1.62756,0 2.90625,-1.30053 2.90625,-2.9375 l 0,-24.46875 -37.0625,0 z"
       id="path6382"
       style="color:#000000;fill:none;stroke:url(#linearGradient6430);stroke-width:2.59131646;stroke-linecap:round;stroke-linejoin:round;stroke-miterlimit:4;stroke-opacity:1;stroke-dasharray:none;stroke-dashoffset:0;marker:none;visibility:visible;display:inline;overflow:visible;enable-background:accumulate"
       inkscape:original="M 138.5 19.15625 L 138.5 44.59375 C 138.5 46.748304 140.22045 48.5 142.375 48.5 L 173.625 48.5 C 175.77955 48.5 177.5 46.748304 177.5 44.59375 L 177.5 19.15625 L 138.5 19.15625 z "
       inkscape:radius="-0.97227168"
       sodipodi:type="inkscape:offset" />
    <g
       transform="scale(1.0246814,0.9759131)"
       style="font-size:4.10101748px;font-style:normal;font-variant:normal;font-weight:500;font-stretch:normal;text-align:start;line-height:125%;letter-spacing:0px;word-spacing:0px;writing-mode:lr-tb;text-anchor:start;fill:#3c3c3c;fill-opacity:1;stroke:none;display:inline;enable-background:new;font-family:English Towne;-inkscape-font-specification:English Towne Medium"
       id="text6384">
      <path
         d="m 143.72402,67.431124 c -0.0847,0.04375 -0.16131,0.06562 -0.22965,0.06562 -0.10937,2e-6 -0.22693,-0.04921 -0.35269,-0.147637 l -0.45111,0.430607 0.0984,0.09842 0.0779,-0.06562 c 0.0574,0.05468 0.15447,0.08202 0.29117,0.08202 l 0.0205,0 0.008,-0.0041 0.008,0 0.004,0.479819 -0.008,0 -0.0328,0.0082 -0.0164,0 c -0.0164,0.0082 -0.0574,0.0123 -0.12303,0.0123 -0.003,0.0027 -0.0178,0.0041 -0.0451,0.0041 -0.1039,10e-7 -0.17635,-0.01367 -0.21736,-0.04101 -0.0711,-0.128496 -0.1285,-0.232389 -0.17224,-0.311677 -0.041,-0.08202 -0.0766,-0.150368 -0.10663,-0.205051 -0.11209,-0.164038 -0.20231,-0.2775 -0.27066,-0.340384 -0.1039,-0.09569 -0.22966,-0.143533 -0.3773,-0.143536 -0.15037,3e-6 -0.27613,0.05878 -0.37729,0.176344 -0.10389,0.112097 -0.15584,0.241962 -0.15584,0.389597 0,0.106628 0.0287,0.165409 0.0861,0.176343 l -0.008,-0.0082 0.0287,0 c 0.008,-0.09295 0.0697,-0.168139 0.18454,-0.225556 0.005,-0.0055 0.0123,-0.0082 0.0205,-0.0082 0.0109,2e-6 0.0205,-0.0014 0.0287,-0.0041 0.0191,-0.0055 0.0383,-0.0096 0.0574,-0.0123 0.0219,-0.0055 0.0396,-0.01367 0.0533,-0.02461 l 0.008,0 0,0.672567 c -0.0492,0.0055 -0.0889,0.01094 -0.11893,0.0164 -0.0301,0.0055 -0.0506,0.0096 -0.0615,0.0123 -0.1203,0.04921 -0.18044,0.157207 -0.18044,0.32398 0,0.07655 0.0246,0.143537 0.0738,0.20095 0.0492,0.05741 0.10936,0.08612 0.18045,0.08612 l 0,-0.02871 0,-0.0164 -0.004,-0.0041 c 0,-0.02187 0.005,-0.04374 0.0164,-0.06562 0.0137,-0.0246 0.0301,-0.03691 0.0492,-0.03691 l 0.008,0 c 0.008,0.0055 0.015,0.0096 0.0205,0.0123 0.005,10e-7 0.0109,0.0014 0.0164,0.0041 l 0,0.549536 c -0.27067,0.08202 -0.44565,0.267934 -0.52493,0.557739 0.0164,-0.0055 0.0355,-0.01367 0.0574,-0.02461 0.0246,-0.0082 0.0369,-0.0123 0.0369,-0.0123 0.0109,-0.0055 0.0246,-0.01367 0.041,-0.02461 l 0,0.0041 c 0.11483,-0.05468 0.23376,-0.08202 0.35679,-0.08202 0.16677,0 0.34585,0.06015 0.53723,0.180445 l 0.32808,-0.430607 -0.0902,-0.09022 -0.0492,0.06562 c -0.0793,-0.05468 -0.15994,-0.09569 -0.24196,-0.12303 -0.082,-0.03007 -0.16815,-0.04511 -0.25837,-0.04511 l -0.0246,0 -0.008,0.0041 -0.004,0 0,-0.393697 c 0.0656,-0.04374 0.17088,-0.06562 0.31578,-0.06562 0.10936,10e-7 0.23513,0.03007 0.3773,0.09022 0.0137,0.03007 0.0273,0.06015 0.041,0.09022 0.0137,0.02734 0.0273,0.05331 0.041,0.07792 0.0547,0.106627 0.0957,0.191381 0.12303,0.254263 0.0301,0.06015 0.0588,0.110727 0.0861,0.151737 l -0.004,0 c 0.1531,0.276135 0.29664,0.414203 0.4306,0.414203 l 0.0246,0 0,-2.271964 c 0.008,-0.0027 0.0178,-0.0055 0.0287,-0.0082 0.0137,-0.0055 0.0287,-0.01367 0.0451,-0.02461 l 0,0.0041 c 0.0738,-0.03827 0.14216,-0.09022 0.20505,-0.155838 0.041,-0.04101 0.0711,-0.08065 0.0902,-0.11893 0.0191,-0.03827 0.0301,-0.07655 0.0328,-0.114828 l -0.0246,-0.01641 m -1.47636,1.476367 c -0.0848,1e-6 -0.19685,0.01914 -0.33629,0.05741 l 0,-1.099073 c 0.0629,0.03008 0.13944,0.127134 0.22966,0.291173 0.0437,0.08749 0.10526,0.218722 0.18455,0.393697 0.0465,0.10116 0.0847,0.184547 0.11483,0.250162 0.0301,0.06288 0.0533,0.110729 0.0697,0.143536 -0.0875,-0.02461 -0.17498,-0.03691 -0.26246,-0.03691 m 0.67667,-0.15994 c -0.0246,-0.05468 -0.0451,-0.09979 -0.0615,-0.135333 -0.0164,-0.03554 -0.0287,-0.06288 -0.0369,-0.08202 0.0328,0.01094 0.0684,0.01641 0.10663,0.0164 l 0.11072,0 c 0.0328,2e-6 0.0615,-0.0014 0.0861,-0.0041 0.0273,-0.0027 0.0492,-0.0082 0.0656,-0.0164 l 0.004,0.734082 c -0.041,-0.06015 -0.0848,-0.131231 -0.13123,-0.213253 -0.0437,-0.08475 -0.0916,-0.184544 -0.14353,-0.299374"
         style=""
         id="path3030" />
      <path
         d="m 145.13791,68.882885 c -0.0273,-0.03827 -0.0574,-0.08339 -0.0902,-0.135334 -0.0301,-0.05468 -0.0629,-0.11346 -0.0984,-0.176344 -0.0383,-0.07108 -0.0684,-0.135332 -0.0902,-0.192747 -0.0219,-0.05741 -0.0396,-0.110726 -0.0533,-0.15994 -0.27067,0.180446 -0.51399,0.270668 -0.72998,0.270667 l -0.0164,0 -0.0123,-0.0041 -0.0123,0 -0.004,-0.0041 -0.0246,0 -0.0369,-0.03691 0,0.05741 c 0.0437,0.09569 0.0656,0.164042 0.0656,0.205051 l 0,0.992446 c -0.0547,0.04101 -0.0916,0.07382 -0.11073,0.09842 -0.003,0.0027 -0.0109,0.01367 -0.0246,0.03281 -0.0109,0.01914 -0.026,0.04374 -0.0451,0.07382 l 0,-0.0041 c -0.005,0.0055 -0.0109,0.01367 -0.0164,0.02461 -0.005,0.0082 -0.0109,0.01914 -0.0164,0.03281 0.0328,-0.0055 0.0656,-0.0096 0.0984,-0.0123 0.0328,-0.0055 0.0656,-0.0082 0.0984,-0.0082 0.0875,0 0.19138,0.0123 0.31167,0.03691 0.0711,0.01367 0.13397,0.03281 0.18865,0.05742 0.0547,0.02734 0.11073,0.05605 0.16814,0.08612 l 0.041,0.0205 0.37319,-0.410102 -0.10252,-0.09432 -0.0984,0.102525 c -0.0629,-0.03007 -0.13123,-0.05605 -0.20505,-0.07792 -0.0711,-0.02187 -0.149,-0.03964 -0.23375,-0.05331 l 0,-0.307577 c 0.0301,-0.02187 0.0574,-0.03964 0.082,-0.05331 0.16677,-0.09842 0.298,-0.174976 0.39369,-0.229657 0.0984,-0.05741 0.16404,-0.09432 0.19685,-0.110727 l 0.004,-0.0205 m -0.54543,-0.07792 c 0.0191,0.04101 0.0355,0.07519 0.0492,0.102526 0.0164,0.02461 0.0301,0.04511 0.041,0.06151 l -0.22145,0.143536 0,-0.524931 0.0328,-0.0082 c 0.0137,0.03828 0.0287,0.07655 0.0451,0.114829 0.0164,0.03828 0.0342,0.07519 0.0533,0.110727"
         style=""
         id="path3032" />
      <path
         d="m 147.63088,68.46048 c -0.0137,0.0055 -0.0232,0.01094 -0.0287,0.0164 -0.0109,0.0027 -0.0191,0.0041 -0.0246,0.0041 -0.005,10e-7 -0.0109,0.0014 -0.0164,0.0041 l 0,0.0041 -0.004,0 c -0.005,0.0027 -0.0109,0.0041 -0.0164,0.0041 -0.0246,10e-7 -0.0383,-0.0014 -0.041,-0.0041 -0.0875,-0.0082 -0.16541,-0.08339 -0.23376,-0.225556 l -0.45111,0.332182 0.0615,0.09842 0.0492,-0.0205 c 0.0437,0.05195 0.0847,0.08339 0.12303,0.09432 l 0,0.992446 c 0,0.05195 -0.0246,0.07792 -0.0738,0.07792 l -0.0451,0 c -0.003,0 -0.005,0 -0.008,0 0,-0.0027 0,-0.0041 0,-0.0041 -0.0109,-0.0055 -0.0232,-0.0096 -0.0369,-0.0123 -0.0137,-0.0055 -0.0246,-0.01094 -0.0328,-0.0164 -0.0902,-0.04374 -0.13533,-0.113462 -0.13533,-0.209152 l 0,-1.070366 c -0.005,-0.02187 -0.01,-0.03691 -0.0123,-0.04511 -0.005,-0.0082 -0.01,-0.0164 -0.0123,-0.02461 0,-0.0082 -0.001,-0.01504 -0.004,-0.0205 -0.0301,-0.07655 -0.10116,-0.143534 -0.21325,-0.20095 l -0.41831,0.360889 0,0.03281 c 0.0492,1e-6 0.0971,0.01641 0.14354,0.04921 0.0465,0.03007 0.0697,0.06425 0.0697,0.102525 l 0,0.914527 c -0.0164,0.01094 -0.0342,0.01914 -0.0533,0.02461 -0.003,0.0027 -0.007,0.0055 -0.0123,0.0082 -0.003,0.0027 -0.005,0.0055 -0.008,0.0082 l -0.0164,0.0164 c -0.0164,-0.01367 -0.0369,-0.02734 -0.0615,-0.04101 -0.0246,-0.01367 -0.052,-0.02734 -0.082,-0.04101 -0.0137,-0.0055 -0.0219,-0.0082 -0.0246,-0.0082 -0.003,-0.0027 -0.0109,-0.0068 -0.0246,-0.0123 -0.0301,0 -0.052,-0.0055 -0.0656,-0.0164 l 0,-1.017052 c 0,-0.08475 -0.0273,-0.161306 -0.082,-0.229657 -0.0547,-0.06835 -0.12303,-0.117561 -0.20505,-0.147637 l -0.4142,0.414203 0.0328,0.0205 0.0123,0 0.008,0.0041 0.0328,0 0.0123,0.0041 0.008,0 c 0.0574,10e-7 0.10663,0.04101 0.14764,0.12303 l 0,0.88582 -0.004,0 -0.004,0.0082 c -0.0848,0.06288 -0.14081,0.142169 -0.16815,0.237859 0.0137,-0.0055 0.0273,-0.0096 0.041,-0.0123 0.0164,-0.0027 0.0301,-0.0041 0.041,-0.0041 l 0.008,-0.0041 0.008,0 c 0.0848,0 0.16541,0.01914 0.24196,0.05741 0.0765,0.03828 0.15447,0.09296 0.23376,0.164041 0.041,-0.03007 0.0765,-0.05605 0.10662,-0.07792 0.0301,-0.02187 0.0506,-0.03691 0.0615,-0.04511 l 0,0.0041 c 0.0164,-0.01094 0.0273,-0.01777 0.0328,-0.02051 l 0.008,-0.0041 0.008,-0.0082 c 0.003,-0.0027 0.015,-0.0082 0.0369,-0.0164 0.0492,-0.02734 0.10799,-0.06288 0.17634,-0.106626 0.0465,0.07382 0.108,0.1367 0.18455,0.188647 0.0793,0.05468 0.15994,0.08475 0.24196,0.09022 0.0355,-0.0164 0.0643,-0.03144 0.0861,-0.04511 0.0246,-0.01094 0.0451,-0.01914 0.0615,-0.02461 0.19684,-0.09022 0.39369,-0.135334 0.59054,-0.135334 l 0.008,0 c 0.008,0.0027 0.0369,0.0041 0.0861,0.0041 -0.0301,-0.04374 -0.0451,-0.06698 -0.0451,-0.06972 -0.0274,-0.03828 -0.041,-0.07792 -0.041,-0.11893 l 0,-0.996547 c 0.10663,-0.06288 0.16541,-0.155837 0.17635,-0.278869 l -0.0205,-0.0164"
         style=""
         id="path3034" />
      <path
         d="m 149.27244,68.280035 -0.11072,0.0082 c -0.0492,0.07929 -0.11347,0.118931 -0.19275,0.11893 -0.0766,10e-7 -0.15858,-0.05058 -0.24606,-0.151738 -0.0984,0.09843 -0.15311,0.150372 -0.16404,0.155839 -0.11757,0.06288 -0.23923,0.09432 -0.36499,0.09432 -0.0246,2e-6 -0.0383,-0.0014 -0.041,-0.0041 -0.0766,2e-6 -0.1244,-0.0055 -0.14354,-0.0164 -0.0301,10e-7 -0.0588,-0.0123 -0.0861,-0.03691 0,0.01367 0,0.02597 0,0.03691 0,0.01094 0.003,0.01914 0.008,0.02461 l 0,0.0041 0.0123,0.02871 c 0,0.01094 0.001,0.01777 0.004,0.0205 l 0,-0.0041 c 0,0.0027 0,0.0055 0,0.0082 0.003,2e-6 0.004,0.0014 0.004,0.0041 l 0.004,0.713577 -0.004,0.0082 c 0,0.03554 -0.0123,0.06972 -0.0369,0.102526 l 0.004,-0.0123 -0.0287,0.02871 0.27067,0.0123 c -0.0164,0.01641 -0.0314,0.03144 -0.0451,0.04511 -0.0109,0.01367 -0.0205,0.02461 -0.0287,0.03281 l -0.0164,0.0164 c -0.093,0.114829 -0.16678,0.222823 -0.22146,0.323981 -0.0547,0.09842 -0.093,0.195482 -0.11483,0.291172 l 0.11893,0 c 0.0492,-0.120297 0.1367,-0.180445 0.26247,-0.180445 0.0301,0 0.0533,0.0041 0.0697,0.0123 0.0246,0 0.0465,0.0041 0.0656,0.0123 0.0191,0.01094 0.0396,0.02597 0.0615,0.04511 l 0.11893,0.118929 c 0.13396,-0.142169 0.30484,-0.213253 0.51262,-0.213253 l 0.0246,0 c 0.008,0.0027 0.0328,0.0041 0.0738,0.0041 0.0137,0.0082 0.0314,0.01367 0.0533,0.0164 0.0219,0 0.0492,0 0.082,0 0.005,0 0.01,0.0014 0.0123,0.0041 l -0.004,0 c 0.005,0.0027 0.0232,0.0041 0.0533,0.0041 l -0.0164,-0.03281 c -0.008,-0.01367 -0.0164,-0.02734 -0.0246,-0.04101 -0.008,-0.01367 -0.01,-0.01777 -0.004,-0.0123 l 0.004,0.0082 c -0.003,-0.01367 -0.004,-0.0205 -0.004,-0.0205 0,-0.0027 -0.001,-0.0055 -0.004,-0.0082 l 0,0.0041 -0.004,-0.0082 0,-0.0123 c -0.003,-0.0027 -0.004,-0.0068 -0.004,-0.0123 l 0,-0.697173 c 0,0.0027 0.001,-0.0014 0.004,-0.0123 0.003,-0.01367 0.005,-0.02461 0.008,-0.03281 l 0,0.0041 c 0,-0.0027 0,-0.0055 0,-0.0082 0.003,-0.0027 0.004,-0.0068 0.004,-0.0123 l 0.004,-0.0082 0,-0.0082 0.008,-0.0082 0,-0.0082 0.004,-0.0041 c 0,-0.0082 0.001,-0.01504 0.004,-0.0205 0,-0.0027 0,-0.0082 0,-0.0164 0.003,-0.0082 0.004,-0.01367 0.004,-0.0164 l -0.38549,0.0082 c 0.22965,-0.235124 0.38002,-0.462046 0.45111,-0.680769 l -0.0164,-0.0205 m -0.51672,1.513276 -0.0164,0 c -0.0137,0.0055 -0.0246,0.0096 -0.0328,0.0123 -0.005,0 -0.008,0 -0.008,0 l -0.0164,0.0082 c -0.10116,-0.125765 -0.22283,-0.188647 -0.36499,-0.188647 -0.0137,0 -0.0328,0.0027 -0.0574,0.0082 -0.0246,0.0027 -0.0533,0.0068 -0.0861,0.0123 0.0355,-0.03554 0.0656,-0.06698 0.0902,-0.09432 0.0246,-0.03007 0.0465,-0.05468 0.0656,-0.07382 l 0.21325,-0.213253 0.20915,0 0.008,0.0082 0,0.516729 -0.004,0.0041 m -0.0656,-0.873517 c -0.0629,0.06288 -0.11483,0.113462 -0.15584,0.151737 -0.0383,0.03828 -0.0683,0.06425 -0.0902,0.07792 l -0.0451,0 0,-0.516728 c 0.0137,10e-7 0.0287,-0.0041 0.0451,-0.0123 l 0.0164,0 c 0.003,-0.0027 0.008,-0.0055 0.0164,-0.0082 0.10115,0.07929 0.19138,0.11893 0.27066,0.118929 0.052,10e-7 0.10116,-0.0096 0.14764,-0.02871 -0.0437,0.04648 -0.1121,0.118931 -0.20505,0.217354"
         style=""
         id="path3036" />
    </g>
    <path
       style="fill:none;stroke:#646464;stroke-width:1;stroke-linecap:square;stroke-linejoin:miter;stroke-miterlimit:4;stroke-opacity:1;stroke-dasharray:none;display:inline;enable-background:new"
       d="m 143.07925,69.99722 10.98436,0"
       id="path6390"
       inkscape:connector-curvature="0" />
    <path
       style="fill:none;stroke:#787878;stroke-width:1;stroke-linecap:square;stroke-linejoin:miter;stroke-miterlimit:4;stroke-opacity:1;stroke-dasharray:none;display:inline;enable-background:new"
       d="m 142.99765,72.89419 2.75224,0"
       id="path6392"
       inkscape:connector-curvature="0" />
    <path
       inkscape:connector-curvature="0"
       id="path6394"
       d="m 142.99765,74.26447 2.75224,0"
       style="fill:none;stroke:#787878;stroke-width:1;stroke-linecap:square;stroke-linejoin:miter;stroke-miterlimit:4;stroke-opacity:1;stroke-dasharray:none;display:inline;enable-background:new" />
    <path
       style="fill:none;stroke:#787878;stroke-width:1;stroke-linecap:square;stroke-linejoin:miter;stroke-miterlimit:4;stroke-opacity:1;stroke-dasharray:none;display:inline;enable-background:new"
       d="m 142.99765,75.63476 2.75224,0"
       id="path6396"
       inkscape:connector-curvature="0" />
    <path
       inkscape:connector-curvature="0"
       id="path6398"
       d="m 151.97013,72.00504 2.19478,0"
       style="fill:none;stroke:#787878;stroke-width:1;stroke-linecap:square;stroke-linejoin:miter;stroke-miterlimit:4;stroke-opacity:1;stroke-dasharray:none;display:inline;enable-background:new" />
    <g
       id="g6406"
       transform="matrix(0.14994479,0,0,0.14930169,140.44097,70.46557)"
       style="display:inline;enable-background:new">
      <path
         style="fill:url(#radialGradient6434);fill-opacity:1;fill-rule:nonzero;stroke:url(#linearGradient6436);stroke-width:6.6834693;stroke-miterlimit:4;stroke-dasharray:none"
         id="path6410"
         d="M 43.500003,23.999309 C 43.500003,34.769208 34.768912,43.5 24.000248,43.5 13.230599,43.5 4.5000032,34.769109 4.5000032,23.999309 4.5000032,13.229904 13.230599,4.5 24.000248,4.5 c 10.768664,0 19.499755,8.729904 19.499755,19.499309 l 0,0 z"
         inkscape:connector-curvature="0" />
      <path
         style="opacity:0.4;fill:#000000;fill-opacity:1;fill-rule:nonzero;stroke:none"
         id="path6412"
         d="m 24.329633,5.218182 -2.362344,0.2704567 -2.59858,0.7099494 c 0.221353,-0.077615 0.445595,-0.1623374 0.674956,-0.2366499 L 19.739934,5.4210246 18.727501,5.5900601 18.221284,6.0633596 17.445085,6.1647809 16.736382,6.502852 16.398905,6.6718876 16.29766,6.807116 15.791444,6.9085373 15.487716,7.5508723 15.08274,6.7395017 l -0.134989,0.3380711 0.0675,0.9127919 -0.641208,0.5409137 -0.371225,0.9804061 0.7762,0 0.303728,-0.642335 0.101245,-0.2366498 c 0.341288,-0.241775 0.66483,-0.5110331 1.012433,-0.7437563 l 0.809946,0.2704568 c 0.527335,0.3588995 1.058376,0.7234732 1.586147,1.0818274 L 19.368709,8.5312784 18.491266,8.1594002 18.086294,7.3480297 16.601391,7.1789941 16.567641,7.0099586 17.208847,7.145187 17.580075,6.7733087 18.390021,6.6042734 C 18.581694,6.5108897 18.770243,6.44363 18.963732,6.3676236 l -0.506216,0.4732995 1.82238,1.250863 0,0.7437562 -0.708703,0.7099493 0.944937,1.8931994 0.641208,-0.371881 0.809948,-1.2508614 c 1.138725,-0.3526792 2.165016,-0.7630693 3.239789,-1.2508632 l -0.0675,0.4732995 0.539963,0.3718782 0.944939,-0.6423349 -0.47247,-0.5409137 -0.641209,0.3718781 -0.202486,-0.067613 c 0.04651,-0.02129 0.08828,-0.045973 0.13499,-0.067613 L 26.388247,6.0295525 24.329633,5.218182 z m -9.246893,3.6511675 0.776199,0.5409136 0.641209,0 0,-0.6423349 L 15.72395,8.429857 15.08274,8.8693495 z M 33.002811,8.429857 31.619153,8.7679282 30.741712,9.342649 l 0,0.5071058 -1.383659,0.8789842 0.269983,1.31848 0.809946,-0.574723 0.506216,0.574723 0.573714,0.338071 0.371224,-0.980408 -0.202486,-0.57472 0.202486,-0.405687 0.809948,-0.7437548 0.371225,0 -0.371225,0.8113728 0,0.743754 c 0.333836,-0.09103 0.6708,-0.126483 1.012433,-0.169037 l -0.944938,0.676145 -0.0675,0.405683 -1.079929,0.912794 -1.113678,-0.270459 0,-0.642335 -0.506216,0.338072 0.236235,0.574722 -0.809947,0 -0.438721,0.743756 -0.539965,0.608528 -0.978685,0.202842 0.573712,0.574721 0.134991,0.57472 -0.708703,0 -0.944938,0.507108 0,1.48751 0.438721,0 0.404973,0.439494 0.91119,-0.439494 0.337478,-0.912791 0.674956,-0.405685 0.134991,-0.338071 1.079928,-0.270457 0.60746,0.676142 0.641209,0.338071 -0.371227,0.743758 0.573715,-0.169037 0.303728,-0.743757 -0.74245,-0.845177 0.303729,0 0.742451,0.608528 0.134992,0.811371 0.641207,0.743757 0.168739,-1.081827 0.337478,-0.169037 c 0.359225,0.373574 0.642383,0.83043 0.944938,1.250864 l 1.113677,0.06762 0.641207,0.405686 -0.303729,0.439492 -0.641208,0.574721 -0.944939,0 -1.248667,-0.405684 -0.641208,0.06762 -0.472469,0.540915 -1.349912,-1.352286 -0.944937,-0.270456 -1.383659,0.169036 -1.21492,0.33807 c -0.693063,0.7871 -1.402636,1.582869 -2.058616,2.400307 l -0.776198,1.893195 0.371226,0.405687 -0.674956,0.980406 0.742451,1.724162 c 0.617799,0.700089 1.239228,1.395452 1.856128,2.09604 l 0.91119,-0.777564 0.371226,0.473301 0.978687,-0.642335 0.337477,0.371878 0.978685,0 0.573713,0.642335 -0.337478,1.149442 0.674955,0.777564 -0.03375,1.352283 0.506216,0.980406 -0.371225,0.845178 c -0.03619,0.60617 -0.0675,1.18551 -0.0675,1.791777 0.297757,0.821342 0.59628,1.640668 0.877443,2.467918 l 0.202487,1.318476 0,0.676143 0.539963,0 0.7762,-0.507106 0.944939,0 1.417406,-1.588934 -0.168739,-0.540915 0.944939,-0.845177 -0.708705,-0.777563 0.843694,-0.676141 0.809948,-0.507109 0.371225,-0.405685 -0.236234,-0.912791 c 0,-0.768475 2e-6,-1.530306 0,-2.298884 l 0.641209,-1.419897 0.809945,-0.878985 0.877443,-2.163655 0,-0.574721 c -0.436643,0.0551 -0.855168,0.10478 -1.282416,0.13523 l 0.877442,-0.878986 1.21492,-0.81137 0.641209,-0.743758 0,-0.811369 C 41.631793,22.01604 41.484928,21.720356 41.338501,21.44561 l -0.573712,0.676141 -0.438721,-0.507105 -0.641209,-0.507107 0,-1.048021 0.742452,0.845178 0.843696,-0.101421 c 0.380615,0.346139 0.746089,0.65392 1.079927,1.04802 l 0.539978,-0.608545 c 0,-0.655131 -0.736573,-3.889319 -2.328596,-6.626192 -1.592024,-2.735972 -4.387213,-5.240102 -4.387211,-5.240102 l -0.202488,0.3718783 -0.742451,0.8113707 -0.944937,-0.9804063 0.944937,0 L 35.668888,9.1059992 33.914003,8.7679282 33.002811,8.429857 z M 12.720395,8.8693495 12.382918,9.7483343 c 0,0 -0.590841,0.097717 -0.74245,0.1352286 -1.9362043,1.7873441 -5.8406714,5.6641681 -6.7495557,12.9481221 0.035987,0.168879 0.6412078,1.14944 0.6412078,1.14944 l 1.4849023,0.878986 1.4849024,0.405684 0.6412079,0.777564 0.9786853,0.743756 0.573712,-0.101421 0.404974,0.202844 0,0.135226 -0.539965,1.521321 -0.438721,0.642336 0.134991,0.304263 -0.3374777,1.217057 1.2486677,2.298882 1.282416,1.115635 0.573711,0.81137 -0.0675,1.690355 0.404974,0.946598 -0.404974,1.825586 c 0,0 -0.05404,-0.01501 0,0.169036 0.05452,0.184134 2.25593,1.422835 2.396091,1.318476 0.139681,-0.106305 0.269983,-0.202843 0.269983,-0.202843 l -0.13499,-0.405685 0.573712,-0.540913 0.202486,-0.574722 0.911191,-0.304265 0.708702,-1.757968 -0.202486,-0.4733 0.472468,-0.743756 1.07993,-0.236649 0.539965,-1.28467 -0.134992,-1.588935 0.843695,-1.183247 0.13499,-1.217056 c -1.15759,-0.575052 -2.293316,-1.165913 -3.442272,-1.75797 l -0.573713,-1.115634 -1.046181,-0.23665 -0.573712,-1.521321 -1.383659,0.169035 -1.214921,-0.878983 -1.282415,1.115634 0,0.169036 C 10.716387,26.202752 10.261353,26.186409 9.9193333,25.975746 l -0.2699819,-0.811371 0,-0.878985 -0.8774423,0.101421 c 0.070612,-0.559892 0.1651315,-1.13056 0.2362324,-1.690355 l -0.5062167,0 -0.5062167,0.642335 -0.4724689,0.23665 -0.7087034,-0.405685 -0.067496,-0.878985 0.1349912,-0.946599 1.0461812,-0.811371 0.8436945,0 0.1687389,-0.473299 1.0461817,0.236648 0.7761987,0.980407 0.134991,-1.622742 1.349911,-1.115633 0.472468,-1.183248 1.012435,-0.405685 0.539964,-0.811372 1.282416,-0.23665 0.641208,-0.946599 c -0.634667,0 -1.288957,0 -1.923624,0 l 1.214921,-0.574721 0.843693,0 1.07993,-0.371877 0.202487,1.04802 0.472469,-0.743757 -0.539966,-0.371878 0.134992,-0.439491 -0.438721,-0.405687 -0.47247,-0.135228 0.134992,-0.507106 -0.371226,-0.709948 -0.843695,0.33807 0.134992,-0.642334 -0.978686,-0.574722 -0.776198,1.352284 0.0675,0.4733 -0.776198,0.338071 -0.472469,1.04802 -0.236234,-0.980407 -1.316164,-0.540913 -0.236234,-0.743756 1.788632,-1.014213 0.776198,-0.743757 0.0675,-0.8789846 -0.438721,-0.2366498 -0.573713,-0.067613 z m 14.477799,1.6227435 0,0.54091 0.30373,0.338072 0,0.811371 -0.168739,1.081827 0.877442,-0.169036 0.641209,-0.642334 -0.573713,-0.540915 c -0.186049,-0.496308 -0.3746,-0.943871 -0.607459,-1.419895 l -0.47247,0 z m -0.742452,1.081824 -0.539963,0.169038 0.13499,0.980405 0.708703,-0.371881 -0.30373,-0.777562 z m 9.888101,8.89127 0.809946,0.946598 0.978686,2.096042 0.607459,0.67614 -0.303728,0.709952 0.539964,0.642335 c -0.247792,0.01643 -0.487764,0.03381 -0.742451,0.03381 -0.462673,-0.973935 -0.828843,-1.956133 -1.181173,-2.975025 l -0.60746,-0.676142 -0.337478,-1.217056 0.236235,-0.23665 z"
         inkscape:connector-curvature="0" />
      <path
         style="opacity:0.4;fill:none;stroke:url(#linearGradient6438);stroke-width:6.68347406;stroke-miterlimit:4;stroke-opacity:1;stroke-dasharray:none"
         id="path6414"
         d="m 40.677498,23.999408 c 0,9.211023 -7.46732,16.678087 -16.677285,16.678087 -9.21081,0 -16.6777066,-7.467148 -16.6777066,-16.678087 0,-9.210599 7.4668966,-16.6769046 16.6777066,-16.6769046 9.209965,0 16.677285,7.4663056 16.677285,16.6769046 l 0,0 z"
         inkscape:connector-curvature="0" />
      <g
         id="g6416"
         transform="matrix(0.9999061,-0.01370139,0.01370139,0.9999061,-0.2886966,0.5358538)" />
    </g>
    <path
       style="font-size:13.58991337px;font-style:normal;font-variant:normal;font-weight:bold;font-stretch:normal;text-align:start;line-height:125%;writing-mode:lr-tb;text-anchor:start;fill:#646464;fill-opacity:1;fill-rule:nonzero;stroke:#646464;stroke-width:0.25;stroke-miterlimit:4;stroke-opacity:1;stroke-dasharray:none;marker:none;visibility:visible;display:inline;overflow:visible;enable-background:accumulate;font-family:Bitstream Vera Serif"
       d="m 147.69643,71.63004 0,0.48258 c 1.23928,0.023 2.24064,1.02596 2.26341,2.26742 l 0.48659,0 c -0.023,-1.51009 -1.24253,-2.72702 -2.75,-2.75 z m 0,1.11278 0,0.4363 c 0.65412,0.0227 1.17938,0.54572 1.20216,1.20092 l 0.43595,0 c -0.023,-0.89679 -0.74285,-1.61427 -1.63811,-1.63722 z m 0.28623,1.10176 c -0.0767,0 -0.13622,0.0283 -0.18936,0.0816 -0.0531,0.0523 -0.0792,0.10827 -0.0792,0.18509 0,0.0756 0.0263,0.13516 0.0792,0.18732 0.0529,0.052 0.11207,0.0771 0.18936,0.0771 0.0749,0 0.1307,-0.025 0.18275,-0.0771 0.0532,-0.0534 0.0815,-0.11287 0.0815,-0.18732 0,-0.0769 -0.0283,-0.13273 -0.0815,-0.18509 -0.0523,-0.0534 -0.10845,-0.0816 -0.18275,-0.0816 z"
       id="path6418"
       inkscape:connector-curvature="0" />
    <path
       style="fill:none;stroke:#787878;stroke-width:1;stroke-linecap:square;stroke-linejoin:miter;stroke-miterlimit:4;stroke-opacity:1;stroke-dasharray:none;display:inline;enable-background:new"
       d="m 151.97013,74.00504 2.19478,0"
       id="path6440"
       inkscape:connector-curvature="0" />
  </g>
</svg>
