<?xml version="1.0" encoding="UTF-8" standalone="no"?>
<!-- Created with Inkscape (http://www.inkscape.org/) -->

<svg
   xmlns:dc="http://purl.org/dc/elements/1.1/"
   xmlns:cc="http://creativecommons.org/ns#"
   xmlns:rdf="http://www.w3.org/1999/02/22-rdf-syntax-ns#"
   xmlns:svg="http://www.w3.org/2000/svg"
   xmlns="http://www.w3.org/2000/svg"
   xmlns:xlink="http://www.w3.org/1999/xlink"
   xmlns:sodipodi="http://sodipodi.sourceforge.net/DTD/sodipodi-0.dtd"
   xmlns:inkscape="http://www.inkscape.org/namespaces/inkscape"
   width="128"
   height="128"
   id="svg5039"
   version="1.1"
   inkscape:version="0.48.1 r9760"
   sodipodi:docname="Nuevo documento 5">
  <defs
     id="defs5041">
    <radialGradient
       inkscape:collect="always"
       xlink:href="#linearGradient8838-561-565"
       id="radialGradient4586"
       gradientUnits="userSpaceOnUse"
       gradientTransform="matrix(-1.5875075,0,0,0.55224048,264.06567,43.647002)"
       cx="62.625"
       cy="4.625"
       fx="62.625"
       fy="4.625"
       r="10.625" />
    <linearGradient
       id="linearGradient8838-561-565">
      <stop
         offset="0"
         style="stop-color:#0a0a0a;stop-opacity:1"
         id="stop4621" />
      <stop
         offset="1"
         style="stop-color:#0a0a0a;stop-opacity:0"
         id="stop4623" />
    </linearGradient>
    <radialGradient
       inkscape:collect="always"
       xlink:href="#linearGradient2867-449-88-871-390-598-476-591-434-148-57-177-3-8"
       id="radialGradient4588"
       gradientUnits="userSpaceOnUse"
       gradientTransform="matrix(0,1.2984649,1.0913819,0,160.12575,-7.2370097)"
       cx="20.248743"
       cy="4.9115634"
       fx="20.248743"
       fy="4.9115634"
       r="23" />
    <linearGradient
       id="linearGradient2867-449-88-871-390-598-476-591-434-148-57-177-3-8">
      <stop
         offset="0"
         style="stop-color:#58bed4;stop-opacity:1;"
         id="stop3750-8-9" />
      <stop
         offset="0.26238"
         style="stop-color:#28acc8;stop-opacity:1;"
         id="stop3752-3-2" />
      <stop
         offset="0.704952"
         style="stop-color:#1799b5;stop-opacity:1;"
         id="stop3754-7-2" />
      <stop
         offset="1"
         style="stop-color:#175765;stop-opacity:1;"
         id="stop3756-9-3" />
    </linearGradient>
    <linearGradient
       inkscape:collect="always"
       xlink:href="#linearGradient3707-319-631-407-324-3-8"
       id="linearGradient4590"
       gradientUnits="userSpaceOnUse"
       gradientTransform="matrix(-0.73335938,0,0,0.73344536,182.24864,16.863305)"
       x1="18.138792"
       y1="45.21809"
       x2="18.138792"
       y2="2.9999995" />
    <linearGradient
       id="linearGradient3707-319-631-407-324-3-8">
      <stop
         offset="0"
         style="stop-color:#105766;stop-opacity:1;"
         id="stop3760-7-3" />
      <stop
         offset="1"
         style="stop-color:#2f7e8f;stop-opacity:1;"
         id="stop3762-8-4" />
    </linearGradient>
    <radialGradient
       inkscape:collect="always"
       xlink:href="#linearGradient3725-941-985"
       id="radialGradient4592"
       gradientUnits="userSpaceOnUse"
       gradientTransform="matrix(-0.24002578,-0.1667164,-0.08845913,0.12738667,200.67331,56.571033)"
       cx="90.746872"
       cy="32.164093"
       fx="90.746872"
       fy="32.164093"
       r="23" />
    <linearGradient
       id="linearGradient3725-941-985">
      <stop
         offset="0"
         style="stop-color:#54e1fa;stop-opacity:1"
         id="stop4651" />
      <stop
         offset="1"
         style="stop-color:#05a4dd;stop-opacity:0"
         id="stop4653" />
    </linearGradient>
    <linearGradient
       inkscape:collect="always"
       xlink:href="#linearGradient3882"
       id="linearGradient4594"
       gradientUnits="userSpaceOnUse"
       gradientTransform="matrix(-0.73335938,0,0,0.73344536,182.24864,16.863305)"
       x1="23.184526"
       y1="4.0244036"
       x2="23.184526"
       y2="42.351448" />
    <linearGradient
       id="linearGradient3882">
      <stop
         id="stop3884"
         style="stop-color:#ffffff;stop-opacity:1;"
         offset="0" />
      <stop
         offset="0.4393521"
         style="stop-color:#ffffff;stop-opacity:0.23529412;"
         id="stop3886" />
      <stop
         id="stop3888"
         style="stop-color:#ffffff;stop-opacity:0.15686275;"
         offset="0.83473867" />
      <stop
         id="stop3890"
         style="stop-color:#ffffff;stop-opacity:0.39215687;"
         offset="1" />
    </linearGradient>
    <linearGradient
       inkscape:collect="always"
       xlink:href="#linearGradient3707-319-631-407-324-3-8"
       id="linearGradient4596"
       gradientUnits="userSpaceOnUse"
       gradientTransform="matrix(0.64449035,0,0,0.64449035,151.18039,21.06446)"
       x1="25.845604"
       y1="43.546593"
       x2="25.845604"
       y2="2.8090379" />
    <linearGradient
       inkscape:collect="always"
       xlink:href="#linearGradient3922"
       id="linearGradient4604"
       gradientUnits="userSpaceOnUse"
       gradientTransform="matrix(0.64449035,0,0,0.64449035,151.18039,21.06446)"
       x1="22.642942"
       y1="26.966721"
       x2="22.642942"
       y2="30.98424" />
    <linearGradient
       id="linearGradient3922"
       inkscape:collect="always">
      <stop
         id="stop3924"
         offset="0"
         style="stop-color:#000000;stop-opacity:1;" />
      <stop
         id="stop3926"
         offset="1"
         style="stop-color:#000000;stop-opacity:0;" />
    </linearGradient>
    <linearGradient
       inkscape:collect="always"
       xlink:href="#linearGradient3922"
       id="linearGradient4608"
       gradientUnits="userSpaceOnUse"
       gradientTransform="matrix(0.64449035,0,0,0.64449035,151.18039,21.06446)"
       x1="22.642942"
       y1="26.966721"
       x2="22.642942"
       y2="30.98424" />
    <radialGradient
       inkscape:collect="always"
       xlink:href="#linearGradient8838-561-565-6"
       id="radialGradient4564"
       gradientUnits="userSpaceOnUse"
       gradientTransform="matrix(1.5875134,0,0,0.55217785,51.319973,32.579277)"
       cx="62.625"
       cy="4.625"
       fx="62.625"
       fy="4.625"
       r="10.625" />
    <linearGradient
       id="linearGradient8838-561-565-6">
      <stop
         offset="0"
         style="stop-color:#0a0a0a;stop-opacity:1"
         id="stop4621-2" />
      <stop
         offset="1"
         style="stop-color:#0a0a0a;stop-opacity:0"
         id="stop4623-5" />
    </linearGradient>
    <radialGradient
       inkscape:collect="always"
       xlink:href="#linearGradient2867-449-88-871-390-598-476-591-434-148-57-177-3-8-0"
       id="radialGradient4566"
       gradientUnits="userSpaceOnUse"
       gradientTransform="matrix(0,1.2983176,-1.091386,0,155.26029,-18.298965)"
       cx="20.248743"
       cy="4.9115634"
       fx="20.248743"
       fy="4.9115634"
       r="23" />
    <linearGradient
       id="linearGradient2867-449-88-871-390-598-476-591-434-148-57-177-3-8-0">
      <stop
         offset="0"
         style="stop-color:#c0df75;stop-opacity:1;"
         id="stop3750-8-9-4" />
      <stop
         offset="0.26238"
         style="stop-color:#88d444;stop-opacity:1;"
         id="stop3752-3-2-0" />
      <stop
         offset="0.704952"
         style="stop-color:#56bd37;stop-opacity:1;"
         id="stop3754-7-2-9" />
      <stop
         offset="1"
         style="stop-color:#3a7f25;stop-opacity:1;"
         id="stop3756-9-3-1" />
    </linearGradient>
    <linearGradient
       inkscape:collect="always"
       xlink:href="#linearGradient3707-319-631-407-324-3-8-4"
       id="linearGradient4568"
       gradientUnits="userSpaceOnUse"
       gradientTransform="matrix(0.73336216,0,0,0.73336216,133.13731,5.7986164)"
       x1="18.138792"
       y1="45.21809"
       x2="18.138792"
       y2="2.9999995" />
    <linearGradient
       id="linearGradient3707-319-631-407-324-3-8-4">
      <stop
         offset="0"
         style="stop-color:#396e1c;stop-opacity:1;"
         id="stop3760-7-3-2" />
      <stop
         offset="1"
         style="stop-color:#57a72b;stop-opacity:1;"
         id="stop3762-8-4-2" />
    </linearGradient>
    <radialGradient
       inkscape:collect="always"
       xlink:href="#linearGradient3725-941-985-2"
       id="radialGradient4570"
       gradientUnits="userSpaceOnUse"
       gradientTransform="matrix(0.24002668,-0.16669749,0.08845946,0.12737222,114.71257,45.501842)"
       cx="90.746872"
       cy="32.164093"
       fx="90.746872"
       fy="32.164093"
       r="23" />
    <linearGradient
       id="linearGradient3725-941-985-2">
      <stop
         offset="0"
         style="stop-color:#b0db73;stop-opacity:1;"
         id="stop4651-8" />
      <stop
         offset="1"
         style="stop-color:#7db32f;stop-opacity:0;"
         id="stop4653-3" />
    </linearGradient>
    <linearGradient
       inkscape:collect="always"
       xlink:href="#linearGradient3882-0"
       id="linearGradient4572"
       gradientUnits="userSpaceOnUse"
       gradientTransform="matrix(0.73336216,0,0,0.73336216,133.13731,5.7986164)"
       x1="23.184526"
       y1="4.0244036"
       x2="23.184526"
       y2="42.351448" />
    <linearGradient
       id="linearGradient3882-0">
      <stop
         id="stop3884-5"
         style="stop-color:#ffffff;stop-opacity:1;"
         offset="0" />
      <stop
         offset="0.4393521"
         style="stop-color:#ffffff;stop-opacity:0.23529412;"
         id="stop3886-5" />
      <stop
         id="stop3888-2"
         style="stop-color:#ffffff;stop-opacity:0.15686275;"
         offset="0.83473867" />
      <stop
         id="stop3890-9"
         style="stop-color:#ffffff;stop-opacity:0.39215687;"
         offset="1" />
    </linearGradient>
    <linearGradient
       inkscape:collect="always"
       xlink:href="#linearGradient3707-319-631-407-324-3-8-4"
       id="linearGradient4574"
       gradientUnits="userSpaceOnUse"
       gradientTransform="matrix(0.73336216,0,0,0.73336216,124.82881,1.4927263)"
       x1="25.845604"
       y1="43.546593"
       x2="25.845604"
       y2="2.8090379" />
    <linearGradient
       inkscape:collect="always"
       xlink:href="#linearGradient3922-48"
       id="linearGradient4612"
       gradientUnits="userSpaceOnUse"
       gradientTransform="matrix(0.73336216,0,0,0.73336216,124.82881,1.4927263)"
       x1="22.642942"
       y1="26.966721"
       x2="22.642942"
       y2="30.98424" />
    <linearGradient
       id="linearGradient3922-48"
       inkscape:collect="always">
      <stop
         id="stop3924-04"
         offset="0"
         style="stop-color:#000000;stop-opacity:1;" />
      <stop
         id="stop3926-2"
         offset="1"
         style="stop-color:#000000;stop-opacity:0;" />
    </linearGradient>
    <linearGradient
       inkscape:collect="always"
       xlink:href="#linearGradient3707-319-631-407-324-3-8-4"
       id="linearGradient4578"
       gradientUnits="userSpaceOnUse"
       gradientTransform="matrix(0.73336216,0,0,0.73336216,130.82881,1.4927263)"
       x1="25.845604"
       y1="43.546593"
       x2="25.845604"
       y2="2.8090379" />
    <linearGradient
       inkscape:collect="always"
       xlink:href="#linearGradient3922-48"
       id="linearGradient4616"
       gradientUnits="userSpaceOnUse"
       gradientTransform="matrix(0.73336216,0,0,0.73336216,130.82881,1.4927263)"
       x1="22.642942"
       y1="26.966721"
       x2="22.642942"
       y2="30.98424" />
    <linearGradient
       inkscape:collect="always"
       xlink:href="#linearGradient3707-319-631-407-324-3-8-4"
       id="linearGradient4582"
       gradientUnits="userSpaceOnUse"
       gradientTransform="matrix(0.73336216,0,0,0.73336216,136.82881,1.4927263)"
       x1="25.845604"
       y1="43.546593"
       x2="25.845604"
       y2="2.8090379" />
    <linearGradient
       inkscape:collect="always"
       xlink:href="#linearGradient3922-48"
       id="linearGradient4620"
       gradientUnits="userSpaceOnUse"
       gradientTransform="matrix(0.73336216,0,0,0.73336216,136.82881,1.4927263)"
       x1="22.642942"
       y1="26.966721"
       x2="22.642942"
       y2="30.98424" />
  </defs>
  <sodipodi:namedview
     id="base"
     pagecolor="#ffffff"
     bordercolor="#666666"
     borderopacity="1.0"
     inkscape:pageopacity="0.0"
     inkscape:pageshadow="2"
     inkscape:zoom="4"
     inkscape:cx="101.40639"
     inkscape:cy="23.37855"
     inkscape:document-units="px"
     inkscape:current-layer="layer1"
     showgrid="false"
     fit-margin-top="0"
     fit-margin-left="0"
     fit-margin-right="0"
     fit-margin-bottom="0" />
  <metadata
     id="metadata5044">
    <rdf:RDF>
      <cc:Work
         rdf:about="">
        <dc:format>image/svg+xml</dc:format>
        <dc:type
           rdf:resource="http://purl.org/dc/dcmitype/StillImage" />
        <dc:title></dc:title>
      </cc:Work>
    </rdf:RDF>
  </metadata>
  <g
     inkscape:label="Capa 1"
     inkscape:groupmode="layer"
     id="layer1"
     transform="translate(-53.142857,-248.36218)">
    <g
       style="display:inline;enable-background:new"
       id="g4514"
       transform="matrix(2.6814915,0,0,2.6814915,-305.8302,236.74046)">
      <path
         d="M 167.60533,35.133103 C 167.60533,38.373301 160.05357,41 150.738,41 c -9.31557,0 -16.86733,-2.626699 -16.86733,-5.866897 0,-3.240198 7.55176,-5.866897 16.86733,-5.866897 9.31557,0 16.86733,2.626699 16.86733,5.866897 l 0,0 z"
         id="path4516"
         style="opacity:0.3;fill:url(#radialGradient4564);fill-opacity:1;fill-rule:evenodd;stroke:none;stroke-width:0.99999988;marker:none;visibility:visible;display:inline;overflow:visible"
         inkscape:connector-curvature="0" />
      <path
         sodipodi:nodetypes="sscczcccssss"
         d="m 148.40054,8.573177 c -8.44685,1.245331 -14.69701,7.065181 -14.12911,13.366536 0.36774,4.080384 3.49955,7.438891 7.97817,9.210884 l -1.50802,5.876117 c 0,0 -0.16092,0.550125 0.0701,0.744463 0.23098,0.194338 0.78728,-0.217627 0.78728,-0.217627 l 7.05151,-5.099817 0.0572,-0.0052 c 1.02061,0.04878 2.04595,0.06495 3.10997,-0.03212 9.07959,-0.828373 15.9828,-6.870048 15.38697,-13.481303 -0.59582,-6.611256 -8.46654,-11.305049 -17.54614,-10.476684 -0.4256,0.03883 -0.84244,0.05351 -1.25786,0.114759 z"
         id="path4518"
         style="fill:url(#radialGradient4566);fill-opacity:1;fill-rule:evenodd;stroke:url(#linearGradient4568);stroke-width:0.37115547;stroke-linecap:butt;stroke-linejoin:round;stroke-miterlimit:4;stroke-opacity:1;stroke-dasharray:none;stroke-dashoffset:0;marker:none;visibility:visible;display:inline;overflow:visible"
         inkscape:connector-curvature="0" />
      <path
         d="m 152.96101,8.709147 c -1.06714,-0.06094 -2.15632,-0.03351 -3.27722,0.06875 -0.43773,0.03994 -0.84639,0.05692 -1.23754,0.114588 -4.16176,0.613573 -7.77335,2.354251 -10.26708,4.698101 -2.49372,2.343851 -3.87146,5.285414 -3.59805,8.319077 0.35406,3.928633 3.39681,7.198882 7.79197,8.937852 a 0.33002354,0.33002354 0 0 1 0.20626,0.389598 l -1.65007,6.394002 7.53988,-5.454381 a 0.33002354,0.33002354 0 0 1 0.18334,-0.04584 l 0.0458,0 a 0.33002354,0.33002354 0 0 1 0.0229,0 c 1.01054,0.0483 2.02666,0.04944 3.07095,-0.04583 4.47513,-0.408286 8.40816,-2.105286 11.13794,-4.491843 2.72977,-2.386557 4.2516,-5.45693 3.96474,-8.639923 -0.25099,-2.784906 -1.84818,-5.22127 -4.33142,-7.035693 -2.48324,-1.814423 -5.86109,-2.994795 -9.60246,-3.20846 z"
         id="path4520"
         style="fill:url(#radialGradient4570);fill-opacity:1;fill-rule:evenodd;stroke:none;stroke-width:0.99525028;marker:none;visibility:visible;display:inline;overflow:visible"
         inkscape:connector-curvature="0" />
      <path
         d="m 152.65625,8.78125 c -0.9916,-0.047858 -1.97742,-0.027943 -2.96875,0.0625 -0.36095,0.032932 -0.75817,0.035775 -1.15625,0.09375 -3.80752,0.5545329 -7.38306,2.079891 -9.96875,4.3125 -2.58569,2.232609 -4.17646,5.214905 -3.90625,8.625 0.35535,4.484551 3.82885,7.537194 8.0625,9 l -1.375,5.59375 a 0.33618223,0.33618223 0 0 0 0.0625,0.3125 0.33618223,0.33618223 0 0 0 0.4375,0.0625 l 6.625,-4.78125 c 0.90283,0.04024 2.2229,0.119248 3.1875,0.03125 3.64235,-0.332307 7.54225,-1.846367 10.5,-4.125 2.95775,-2.278633 5.00001,-5.366364 4.6875,-8.8125 -0.33026,-3.619759 -2.66477,-6.402262 -5.875,-8.15625 -2.40767,-1.315491 -5.3377,-2.0751761 -8.3125,-2.21875 z"
         id="path4522"
         style="opacity:0.4;fill:none;stroke:url(#linearGradient4572);stroke-width:0.37115547;stroke-linecap:butt;stroke-linejoin:miter;stroke-miterlimit:4;stroke-opacity:1;stroke-dasharray:none;stroke-dashoffset:0;marker:none;visibility:visible;display:inline;overflow:visible"
         inkscape:original="M 149.71875 9.1875 C 149.34084 9.22198 148.96267 9.227521 148.59375 9.28125 C 141.09227 10.373778 134.47829 15.259625 135 21.84375 C 135.35042 26.266099 138.8154 29.261171 143.09375 30.65625 L 141.65625 36.5625 L 148.375 31.71875 C 149.28088 31.75811 150.68023 31.836189 151.625 31.75 C 158.76859 31.09826 167.09821 25.784082 166.5 19.1875 C 165.86261 12.201452 157.52212 8.475569 149.71875 9.1875 z "
         inkscape:radius="0.33614862"
         sodipodi:type="inkscape:offset" />
      <g
         transform="translate(1.5691965,-2.500012)"
         id="g4524">
        <path
           d="m 143.30037,20.486131 c -0.45168,-0.04652 -0.89833,0.07353 -1.19171,0.412516 2.7e-4,0.0076 2.7e-4,0.01528 0,0.02292 -0.31482,0.3272 -0.49571,0.797728 -0.43544,1.237548 2.8e-4,0.0076 2.8e-4,0.01528 0,0.02292 0.073,0.95569 1.24131,1.587285 2.0855,1.191713 0.008,-2.76e-4 0.0153,-2.76e-4 0.0229,0 0.82226,-0.310867 1.16818,-1.493573 0.64169,-2.223004 -0.008,-0.0073 -0.0157,-0.01489 -0.0229,-0.02292 -0.24141,-0.379847 -0.65216,-0.595564 -1.10004,-0.641693 z"
           id="path4526"
           style="font-size:62.4582634px;font-style:normal;font-variant:normal;font-weight:normal;font-stretch:normal;text-align:start;line-height:125%;writing-mode:lr-tb;text-anchor:start;fill:url(#linearGradient4574);fill-opacity:1;stroke:none;font-family:Georgia"
           inkscape:connector-curvature="0"
           sodipodi:nodetypes="sccccccccs" />
        <path
           d="m 143.30037,21.219493 c -0.45168,-0.04652 -0.89833,0.07353 -1.19171,0.412516 2.7e-4,0.0076 2.7e-4,0.01528 0,0.02292 -0.31482,0.3272 -0.49571,0.797728 -0.43544,1.237549 2.8e-4,0.0076 2.8e-4,0.01528 0,0.02292 0.073,0.95569 1.24131,1.587285 2.0855,1.191714 0.008,-2.77e-4 0.0153,-2.77e-4 0.0229,0 0.82226,-0.310868 1.16818,-1.493574 0.64169,-2.223004 -0.008,-0.0073 -0.0157,-0.01489 -0.0229,-0.02292 -0.24141,-0.379847 -0.65216,-0.595563 -1.10004,-0.641695 z"
           id="path4528"
           style="font-size:62.4582634px;font-style:normal;font-variant:normal;font-weight:normal;font-stretch:normal;text-align:start;line-height:125%;writing-mode:lr-tb;text-anchor:start;fill:#ffffff;fill-opacity:1;stroke:none;font-family:Georgia"
           inkscape:connector-curvature="0"
           sodipodi:nodetypes="sccccccccs" />
        <path
           sodipodi:type="inkscape:offset"
           inkscape:radius="0.11838022"
           inkscape:original="M 143.28125 21.53125 C 142.27528 21.331016 141.57601 22.76405 142.28125 23.46875 C 142.78951 24.055847 143.90303 24.055611 144.21875 23.28125 C 144.60633 22.608864 144.16061 21.700748 143.40625 21.5625 L 143.28125 21.53125 z "
           style="font-size:62.4582634px;font-style:normal;font-variant:normal;font-weight:normal;font-stretch:normal;text-align:start;line-height:125%;writing-mode:lr-tb;text-anchor:start;opacity:0.1;fill:#ffffff;fill-opacity:1;stroke:url(#linearGradient4612);stroke-width:0.37292677;stroke-opacity:1;font-family:Georgia"
           id="path4610"
           d="m 142.90625,21.40625 c -0.88103,0.16046 -1.38147,1.430113 -0.71875,2.125 l 0.0312,0 c 0.28254,0.31426 0.71568,0.493937 1.125,0.46875 0.40444,-0.02489 0.78477,-0.24884 0.96875,-0.65625 0.006,-0.01235 0.0261,-0.01854 0.0312,-0.03125 0.39294,-0.741736 -0.0836,-1.724242 -0.90625,-1.875 l -0.125,-0.03125 c -0.14029,-0.02792 -0.27921,-0.02314 -0.40625,0 z" />
        <path
           sodipodi:nodetypes="sccccccccs"
           inkscape:connector-curvature="0"
           style="font-size:62.4582634px;font-style:normal;font-variant:normal;font-weight:normal;font-stretch:normal;text-align:start;line-height:125%;writing-mode:lr-tb;text-anchor:start;fill:url(#linearGradient4578);fill-opacity:1;stroke:none;font-family:Georgia"
           id="path4532"
           d="m 149.30037,20.486131 c -0.45168,-0.04652 -0.89833,0.07353 -1.19171,0.412516 2.7e-4,0.0076 2.7e-4,0.01528 0,0.02292 -0.31482,0.3272 -0.49571,0.797728 -0.43544,1.237548 2.8e-4,0.0076 2.8e-4,0.01528 0,0.02292 0.073,0.95569 1.24131,1.587285 2.0855,1.191713 0.008,-2.76e-4 0.0153,-2.76e-4 0.0229,0 0.82226,-0.310867 1.16818,-1.493573 0.64169,-2.223004 -0.008,-0.0073 -0.0157,-0.01489 -0.0229,-0.02292 -0.24141,-0.379847 -0.65216,-0.595564 -1.10004,-0.641693 z" />
        <path
           sodipodi:nodetypes="sccccccccs"
           inkscape:connector-curvature="0"
           style="font-size:62.4582634px;font-style:normal;font-variant:normal;font-weight:normal;font-stretch:normal;text-align:start;line-height:125%;writing-mode:lr-tb;text-anchor:start;fill:#ffffff;fill-opacity:1;stroke:none;font-family:Georgia"
           id="path4534"
           d="m 149.30037,21.219493 c -0.45168,-0.04652 -0.89833,0.07353 -1.19171,0.412516 2.7e-4,0.0076 2.7e-4,0.01528 0,0.02292 -0.31482,0.3272 -0.49571,0.797728 -0.43544,1.237549 2.8e-4,0.0076 2.8e-4,0.01528 0,0.02292 0.073,0.95569 1.24131,1.587285 2.0855,1.191714 0.008,-2.77e-4 0.0153,-2.77e-4 0.0229,0 0.82226,-0.310868 1.16818,-1.493574 0.64169,-2.223004 -0.008,-0.0073 -0.0157,-0.01489 -0.0229,-0.02292 -0.24141,-0.379847 -0.65216,-0.595563 -1.10004,-0.641695 z" />
        <path
           sodipodi:type="inkscape:offset"
           inkscape:radius="0.12781779"
           inkscape:original="M 149.28125 21.53125 C 148.27528 21.331016 147.57601 22.76405 148.28125 23.46875 C 148.78951 24.055847 149.90303 24.055611 150.21875 23.28125 C 150.60633 22.608864 150.16061 21.700748 149.40625 21.5625 L 149.28125 21.53125 z "
           style="font-size:62.4582634px;font-style:normal;font-variant:normal;font-weight:normal;font-stretch:normal;text-align:start;line-height:125%;writing-mode:lr-tb;text-anchor:start;opacity:0.1;fill:#ffffff;fill-opacity:1;stroke:url(#linearGradient4616);stroke-width:0.37292677;stroke-opacity:1;font-family:Georgia"
           id="path4614"
           d="m 148.90625,21.40625 c -0.89652,0.162927 -1.41561,1.459924 -0.71875,2.15625 0.28437,0.328477 0.73673,0.463314 1.15625,0.4375 0.41952,-0.02581 0.82231,-0.220428 1,-0.65625 0.43362,-0.752259 -0.0631,-1.751721 -0.90625,-1.90625 l -0.125,-0.03125 c -0.14145,-0.02816 -0.27818,-0.02328 -0.40625,0 z" />
        <path
           d="m 155.30037,20.486131 c -0.45168,-0.04652 -0.89833,0.07353 -1.19171,0.412516 2.7e-4,0.0076 2.7e-4,0.01528 0,0.02292 -0.31482,0.3272 -0.49571,0.797728 -0.43544,1.237548 2.8e-4,0.0076 2.8e-4,0.01528 0,0.02292 0.073,0.95569 1.24131,1.587285 2.0855,1.191713 0.008,-2.76e-4 0.0153,-2.76e-4 0.0229,0 0.82226,-0.310867 1.16818,-1.493573 0.64169,-2.223004 -0.008,-0.0073 -0.0157,-0.01489 -0.0229,-0.02292 -0.24141,-0.379847 -0.65216,-0.595564 -1.10004,-0.641693 z"
           id="path4538"
           style="font-size:62.4582634px;font-style:normal;font-variant:normal;font-weight:normal;font-stretch:normal;text-align:start;line-height:125%;writing-mode:lr-tb;text-anchor:start;fill:url(#linearGradient4582);fill-opacity:1;stroke:none;font-family:Georgia"
           inkscape:connector-curvature="0"
           sodipodi:nodetypes="sccccccccs" />
        <path
           d="m 155.30037,21.219493 c -0.45168,-0.04652 -0.89833,0.07353 -1.19171,0.412516 2.7e-4,0.0076 2.7e-4,0.01528 0,0.02292 -0.31482,0.3272 -0.49571,0.797728 -0.43544,1.237549 2.8e-4,0.0076 2.8e-4,0.01528 0,0.02292 0.073,0.95569 1.24131,1.587285 2.0855,1.191714 0.008,-2.77e-4 0.0153,-2.77e-4 0.0229,0 0.82226,-0.310868 1.16818,-1.493574 0.64169,-2.223004 -0.008,-0.0073 -0.0157,-0.01489 -0.0229,-0.02292 -0.24141,-0.379847 -0.65216,-0.595563 -1.10004,-0.641695 z"
           id="path4540"
           style="font-size:62.4582634px;font-style:normal;font-variant:normal;font-weight:normal;font-stretch:normal;text-align:start;line-height:125%;writing-mode:lr-tb;text-anchor:start;fill:#ffffff;fill-opacity:1;stroke:none;font-family:Georgia"
           inkscape:connector-curvature="0"
           sodipodi:nodetypes="sccccccccs" />
        <path
           sodipodi:type="inkscape:offset"
           inkscape:radius="0.14212747"
           inkscape:original="M 155.28125 21.53125 C 154.27528 21.331016 153.57601 22.76405 154.28125 23.46875 C 154.78951 24.055847 155.90303 24.055611 156.21875 23.28125 C 156.60633 22.608864 156.16061 21.700748 155.40625 21.5625 L 155.28125 21.53125 z "
           style="font-size:62.4582634px;font-style:normal;font-variant:normal;font-weight:normal;font-stretch:normal;text-align:start;line-height:125%;writing-mode:lr-tb;text-anchor:start;opacity:0.1;fill:#ffffff;fill-opacity:1;stroke:url(#linearGradient4620);stroke-width:0.37292677;stroke-opacity:1;font-family:Georgia"
           id="path4618"
           d="m 154.90625,21.375 c -0.90753,0.164399 -1.42454,1.48225 -0.71875,2.1875 0.28775,0.332387 0.73246,0.494826 1.15625,0.46875 0.42379,-0.02608 0.82009,-0.246232 1,-0.6875 0.43878,-0.761201 -0.0531,-1.749898 -0.90625,-1.90625 l -0.125,-0.03125 c -0.14321,-0.0285 -0.2766,-0.05474 -0.40625,-0.03125 z" />
      </g>
    </g>
    <g
       style="display:inline;enable-background:new"
       id="g4544"
       transform="matrix(2.6814915,0,0,2.6814915,-305.58882,236.74046)">
      <path
         d="m 147.78076,46.201118 c 0,3.240566 7.55172,5.867563 16.86726,5.867563 9.31553,0 16.86726,-2.626997 16.86726,-5.867563 0,-3.240566 -7.55173,-5.867563 -16.86726,-5.867563 -9.31554,0 -16.86726,2.626997 -16.86726,5.867563 l 0,0 z"
         id="path4546"
         style="opacity:0.3;fill:url(#radialGradient4586);fill-opacity:1;fill-rule:evenodd;stroke:none;stroke-width:0.99999988;marker:none;visibility:visible;display:inline;overflow:visible"
         inkscape:connector-curvature="0" />
      <path
         sodipodi:nodetypes="sscczcccssss"
         d="m 166.98546,19.63818 c 8.44683,1.245473 14.69695,7.065983 14.12906,13.368053 -0.36773,4.080847 -3.49953,7.439734 -7.97814,9.211929 l 1.50802,5.876784 c 0,0 0.16092,0.550188 -0.0701,0.744547 -0.23096,0.19436 -0.78727,-0.217651 -0.78727,-0.217651 l -7.05148,-5.100397 -0.0572,-0.0052 c -1.02061,0.04879 -2.04594,0.06496 -3.10995,-0.03213 -9.07956,-0.828466 -15.98274,-6.870828 -15.38692,-13.482833 0.59582,-6.612005 8.46652,-11.306332 17.54607,-10.477872 0.42561,0.03883 0.84244,0.05352 1.25786,0.114772 z"
         id="path4548"
         style="fill:url(#radialGradient4588);fill-opacity:1;fill-rule:evenodd;stroke:url(#linearGradient4590);stroke-width:0.37115553;stroke-linecap:butt;stroke-linejoin:round;stroke-miterlimit:4;stroke-opacity:1;stroke-dasharray:none;stroke-dashoffset:0;marker:none;visibility:visible;display:inline;overflow:visible"
         inkscape:connector-curvature="0" />
      <path
         d="m 162.42502,19.774166 c 1.06714,-0.06095 2.15632,-0.03352 3.27721,0.06876 0.43772,0.03994 0.84638,0.05692 1.23753,0.114601 4.16174,0.613643 7.77332,2.354518 10.26704,4.698634 2.49371,2.344116 3.87144,5.286014 3.59804,8.32002 -0.35405,3.929079 -3.39681,7.199699 -7.79194,8.938866 a 0.3300223,0.33006097 0 0 0 -0.20626,0.389643 l 1.65006,6.394726 -7.53986,-5.455 a 0.3300223,0.33006097 0 0 0 -0.18333,-0.04584 l -0.0459,0 a 0.3300223,0.33006097 0 0 0 -0.0229,0 c -1.01054,0.04831 -2.02666,0.04943 -3.07094,-0.04584 -4.47512,-0.408332 -8.40813,-2.105525 -11.1379,-4.492352 -2.72976,-2.386829 -4.25159,-5.45755 -3.96473,-8.640903 0.25099,-2.785222 1.84819,-5.221863 4.3314,-7.036492 2.48323,-1.814629 5.86107,-2.995134 9.60243,-3.208823 z"
         id="path4550"
         style="fill:url(#radialGradient4592);fill-opacity:1;fill-rule:evenodd;stroke:none;stroke-width:0.99525028;marker:none;visibility:visible;display:inline;overflow:visible"
         inkscape:connector-curvature="0" />
      <path
         d="m 162.71875,19.84375 c -2.97343,0.143542 -5.87805,0.902495 -8.28125,2.21875 -3.20427,1.755007 -5.54451,4.533484 -5.875,8.15625 -0.31284,3.450144 1.69708,6.53288 4.65625,8.8125 2.95917,2.27962 6.88719,3.792498 10.53125,4.125 0.95848,0.08745 2.27756,0.03881 3.1875,0 l 6.59375,4.75 a 0.34448644,0.34448644 0 0 0 0.53125,-0.375 l -1.375,-5.625 c 4.21817,-1.468881 7.67667,-4.493362 8.03125,-8.96875 0.27044,-3.413369 -1.31908,-6.391225 -3.90625,-8.625 -2.58717,-2.233775 -6.15986,-3.757702 -9.96875,-4.3125 -0.3988,-0.0581 -0.79574,-0.06086 -1.15625,-0.09375 -0.99171,-0.09049 -1.97761,-0.110347 -2.96875,-0.0625 z"
         id="path4552"
         style="opacity:0.4;fill:none;stroke:url(#linearGradient4594);stroke-width:0.37115553;stroke-linecap:butt;stroke-linejoin:miter;stroke-miterlimit:4;stroke-opacity:1;stroke-dasharray:none;stroke-dashoffset:0;marker:none;visibility:visible;display:inline;overflow:visible"
         inkscape:original="M 165.65625 20.25 C 157.8529 19.537988 149.54364 23.26316 148.90625 30.25 C 148.30805 36.84733 156.63769 42.160686 163.78125 42.8125 C 164.72603 42.898697 166.12538 42.85186 167.03125 42.8125 L 173.71875 47.625 L 172.28125 41.71875 C 176.55959 40.323512 180.02458 37.329101 180.375 32.90625 C 180.89671 26.321378 174.28271 21.436402 166.78125 20.34375 C 166.41234 20.29001 166.03415 20.28448 165.65625 20.25 z "
         inkscape:radius="0.34445199"
         sodipodi:type="inkscape:offset" />
      <g
         transform="matrix(1.1378904,0,0,1.1380238,-24.979424,-7.1085518)"
         id="g4554">
        <path
           inkscape:connector-curvature="0"
           style="font-size:62.4582634px;font-style:normal;font-variant:normal;font-weight:normal;font-stretch:normal;text-align:start;line-height:125%;writing-mode:lr-tb;text-anchor:start;fill:url(#linearGradient4596);fill-opacity:1;stroke:none;font-family:Georgia"
           id="path4556"
           d="m 166.10437,25.530989 c -0.69618,-0.09973 -1.4107,0.42739 -1.42996,0.986876 2.4e-4,0.0067 2.4e-4,0.01343 0,0.02014 -0.004,0.04561 0.009,0.108235 0.0201,0.201404 0.001,0.0092 -0.001,0.01027 0,0.02014 0.62887,2.968239 0.84317,5.947047 1.47024,8.861743 0.38019,-0.04064 0.97091,-0.118579 1.36954,-0.161122 -0.0864,-2.876296 -0.34807,-5.733721 -0.38266,-8.6402 -2.5e-4,-0.0067 -2.5e-4,-0.01343 0,-0.02014 0.0568,-0.565947 -0.32406,-1.20507 -1.02716,-1.268841 -0.007,2.44e-4 -0.0134,2.44e-4 -0.0201,0 l 0,0 z m 1.30912,12.225177 c -0.39694,-0.04088 -0.78947,0.06462 -1.0473,0.362526 2.5e-4,0.0067 2.5e-4,0.01343 0,0.02014 -0.27666,0.287549 -0.43563,0.701056 -0.38266,1.087577 2.4e-4,0.0067 2.4e-4,0.01343 0,0.02014 0.0641,0.839876 1.09088,1.394932 1.83277,1.047297 0.007,-2.43e-4 0.0134,-2.43e-4 0.0201,0 0.72261,-0.273195 1.02661,-1.312576 0.56393,-1.953611 -0.007,-0.0064 -0.0138,-0.01309 -0.0201,-0.02014 -0.21216,-0.333816 -0.57313,-0.523391 -0.96674,-0.56393 z" />
        <path
           inkscape:connector-curvature="0"
           style="font-size:62.4582634px;font-style:normal;font-variant:normal;font-weight:normal;font-stretch:normal;text-align:start;line-height:125%;writing-mode:lr-tb;text-anchor:start;fill:#ffffff;fill-opacity:1;stroke:none;font-family:Georgia"
           id="path4558"
           d="m 166.10437,26.17548 c -0.69618,-0.09973 -1.4107,0.42739 -1.42996,0.986876 2.4e-4,0.0067 2.4e-4,0.01343 0,0.02014 -0.004,0.04561 0.009,0.108235 0.0201,0.201403 0.001,0.0092 -0.001,0.01027 0,0.02014 0.62887,2.968239 0.84317,5.947047 1.47024,8.861743 0.38019,-0.04064 0.97091,-0.11858 1.36954,-0.161123 -0.0864,-2.876295 -0.34807,-5.733721 -0.38266,-8.640199 -2.5e-4,-0.0067 -2.5e-4,-0.01343 0,-0.02014 0.0568,-0.565946 -0.32406,-1.205069 -1.02716,-1.26884 -0.007,2.43e-4 -0.0134,2.43e-4 -0.0201,0 l 0,0 z m 1.30912,12.225177 c -0.39694,-0.04088 -0.78947,0.06462 -1.0473,0.362526 2.5e-4,0.0067 2.5e-4,0.01343 0,0.02014 -0.27666,0.287549 -0.43563,0.701056 -0.38266,1.087577 2.4e-4,0.0067 2.4e-4,0.01343 0,0.02014 0.0641,0.839875 1.09088,1.394931 1.83277,1.047297 0.007,-2.43e-4 0.0134,-2.43e-4 0.0201,0 0.72261,-0.273195 1.02661,-1.312577 0.56393,-1.953612 -0.007,-0.0064 -0.0138,-0.01309 -0.0201,-0.02014 -0.21216,-0.333816 -0.57313,-0.523391 -0.96674,-0.563929 z" />
        <path
           sodipodi:type="inkscape:offset"
           inkscape:radius="0.12656729"
           inkscape:original="M 166.0625 26.46875 C 165.60289 26.41143 164.96675 26.701338 164.96875 27.21875 C 165.27433 28.810756 165.52678 30.424417 165.75 32.03125 C 165.94104 33.341601 166.13825 34.640242 166.40625 35.9375 C 166.82236 35.8865 167.42471 36.001905 167.21875 35.40625 C 167.10838 32.664826 166.90658 29.930777 166.875 27.1875 C 166.8183 26.797729 166.4673 26.467258 166.0625 26.46875 z "
           style="font-size:62.4582634px;font-style:normal;font-variant:normal;font-weight:normal;font-stretch:normal;text-align:start;line-height:125%;writing-mode:lr-tb;text-anchor:start;opacity:0.07000002;fill:#ffffff;fill-opacity:1;stroke:url(#linearGradient4604);stroke-width:0.32771602;stroke-opacity:1;font-family:Georgia"
           id="path4602"
           d="m 166.0625,26.34375 c -0.25571,-0.02503 -0.54746,0.04696 -0.78125,0.1875 -0.24241,0.14572 -0.4387,0.376834 -0.4375,0.6875 a 0.12657995,0.12657995 0 0 0 0,0.03125 c 0.30503,1.58913 0.55823,3.20711 0.78125,4.8125 0.19111,1.310842 0.38735,2.60465 0.65625,3.90625 a 0.12657995,0.12657995 0 0 0 0,0.03125 0.12657995,0.12657995 0 0 0 0.0312,0.03125 0.12657995,0.12657995 0 0 0 0.0625,0.03125 0.12657995,0.12657995 0 0 0 0.0312,0 c 0.18929,-0.0232 0.47233,7.42e-4 0.6875,-0.0625 0.10759,-0.03162 0.19657,-0.102894 0.25,-0.21875 0.0497,-0.107746 0.0471,-0.224226 0,-0.375 -4.2e-4,-0.01037 4.2e-4,-0.02088 0,-0.03125 C 167.233,32.641219 167.0314,29.915189 167,27.1875 a 0.12657995,0.12657995 0 0 0 0,-0.03125 c -0.0645,-0.443348 -0.4461,-0.798116 -0.90625,-0.8125 -0.0103,-3.24e-4 -0.0208,-3.8e-5 -0.0312,0 z" />
        <path
           sodipodi:type="inkscape:offset"
           inkscape:radius="0.1388021"
           inkscape:original="M 167.40625 38.6875 C 166.52218 38.511532 165.88021 39.755698 166.5 40.375 C 166.94666 40.89095 167.9413 40.89927 168.21875 40.21875 C 168.55937 39.627846 168.16297 38.840245 167.5 38.71875 L 167.40625 38.6875 z "
           style="font-size:62.4582634px;font-style:normal;font-variant:normal;font-weight:normal;font-stretch:normal;text-align:start;line-height:125%;writing-mode:lr-tb;text-anchor:start;opacity:0.1;fill:#ffffff;fill-opacity:1;stroke:url(#linearGradient4608);stroke-width:0.32771602;stroke-opacity:1;font-family:Georgia"
           id="path4606"
           d="m 167.0625,38.53125 c -0.81316,0.142973 -1.28576,1.308484 -0.65625,1.9375 0.25646,0.296242 0.65114,0.426973 1.03125,0.40625 0.38011,-0.02072 0.74556,-0.199613 0.90625,-0.59375 0.39054,-0.677504 -0.0546,-1.548601 -0.8125,-1.6875 l -0.0937,-0.03125 c -0.12744,-0.02537 -0.25883,-0.05168 -0.375,-0.03125 z" />
      </g>
    </g>
  </g>
</svg>
