<?xml version="1.0" encoding="UTF-8" standalone="no"?>
<!-- Created with Inkscape (http://www.inkscape.org/) -->

<svg
   xmlns:dc="http://purl.org/dc/elements/1.1/"
   xmlns:cc="http://creativecommons.org/ns#"
   xmlns:rdf="http://www.w3.org/1999/02/22-rdf-syntax-ns#"
   xmlns:svg="http://www.w3.org/2000/svg"
   xmlns="http://www.w3.org/2000/svg"
   xmlns:xlink="http://www.w3.org/1999/xlink"
   xmlns:sodipodi="http://sodipodi.sourceforge.net/DTD/sodipodi-0.dtd"
   xmlns:inkscape="http://www.inkscape.org/namespaces/inkscape"
   width="48"
   height="48"
   id="svg6463"
   version="1.1"
   inkscape:version="0.48.0 r9654"
   sodipodi:docname="Nuevo documento 23">
  <defs
     id="defs6465">
    <linearGradient
       inkscape:collect="always"
       xlink:href="#linearGradient5826"
       id="linearGradient5862"
       gradientUnits="userSpaceOnUse"
       x1="157.21352"
       y1="-33.80299"
       x2="157.21352"
       y2="48.618202" />
    <linearGradient
       inkscape:collect="always"
       id="linearGradient5826">
      <stop
         style="stop-color:#ffffff;stop-opacity:1;"
         offset="0"
         id="stop5828" />
      <stop
         style="stop-color:#ffffff;stop-opacity:0;"
         offset="1"
         id="stop5830" />
    </linearGradient>
    <linearGradient
       inkscape:collect="always"
       xlink:href="#linearGradient4689-1-4"
       id="linearGradient5051"
       gradientUnits="userSpaceOnUse"
       gradientTransform="matrix(0.52245476,0,0,0.3970116,46.575393,-16.76709)"
       x1="-58.903263"
       y1="87.903099"
       x2="-58.903263"
       y2="151.44023" />
    <linearGradient
       inkscape:collect="always"
       id="linearGradient4689-1-4">
      <stop
         style="stop-color:#ffe023;stop-opacity:1"
         offset="0"
         id="stop4691-7-8" />
      <stop
         style="stop-color:#ffffff;stop-opacity:1"
         offset="1"
         id="stop4693-2-5" />
    </linearGradient>
    <linearGradient
       inkscape:collect="always"
       xlink:href="#linearGradient4681-1-0"
       id="linearGradient5054"
       gradientUnits="userSpaceOnUse"
       gradientTransform="matrix(0.52245479,0,0,0.40339582,80.012503,-17.259967)"
       x1="-122.61827"
       y1="63.534981"
       x2="-122.61827"
       y2="151.42334" />
    <linearGradient
       id="linearGradient4681-1-0">
      <stop
         style="stop-color:#ce353d;stop-opacity:1"
         offset="0"
         id="stop4683-5-6" />
      <stop
         style="stop-color:#f1da15;stop-opacity:1"
         offset="1"
         id="stop4685-5-4" />
    </linearGradient>
    <radialGradient
       inkscape:collect="always"
       xlink:href="#linearGradient23419-9"
       id="radialGradient4949"
       gradientUnits="userSpaceOnUse"
       gradientTransform="matrix(0.9722718,0,0,0.2872354,135.26247,30.383583)"
       cx="23.334524"
       cy="41.63604"
       fx="23.334524"
       fy="41.63604"
       r="22.627417" />
    <linearGradient
       id="linearGradient23419-9">
      <stop
         id="stop23421-7"
         style="stop-color:#000000;stop-opacity:1"
         offset="0" />
      <stop
         id="stop23423-4"
         style="stop-color:#000000;stop-opacity:0"
         offset="1" />
    </linearGradient>
    <linearGradient
       inkscape:collect="always"
       xlink:href="#linearGradient3263-5"
       id="linearGradient4951"
       gradientUnits="userSpaceOnUse"
       gradientTransform="matrix(0,1.1714389,-1.1714389,0,185.01022,-1.2714815)"
       x1="12.2744"
       y1="32.4165"
       x2="35.391201"
       y2="14.2033" />
    <linearGradient
       x1="12.2744"
       y1="32.4165"
       x2="35.391201"
       y2="14.2033"
       id="linearGradient3263-5"
       gradientUnits="userSpaceOnUse">
      <stop
         id="stop3265-4"
         style="stop-color:#dedcde;stop-opacity:1;"
         offset="0" />
      <stop
         id="stop3267-9"
         style="stop-color:#f0f0f0;stop-opacity:1;"
         offset="0.5" />
      <stop
         id="stop3269-7"
         style="stop-color:#d2d2d2;stop-opacity:1"
         offset="1" />
    </linearGradient>
    <linearGradient
       inkscape:collect="always"
       xlink:href="#linearGradient3772-54"
       id="linearGradient4953"
       gradientUnits="userSpaceOnUse"
       gradientTransform="translate(184.21503,2.8430585)"
       x1="-21.915663"
       y1="3"
       x2="-21.915663"
       y2="45.032898" />
    <linearGradient
       id="linearGradient3772-54">
      <stop
         id="stop3774-42"
         style="stop-color:#b4b4b4;stop-opacity:1;"
         offset="0" />
      <stop
         id="stop3776-6"
         style="stop-color:#969696;stop-opacity:1;"
         offset="1" />
    </linearGradient>
    <linearGradient
       inkscape:collect="always"
       xlink:href="#linearGradient3487-2"
       id="linearGradient4955"
       gradientUnits="userSpaceOnUse"
       spreadMethod="reflect"
       x1="20.580074"
       y1="10.774516"
       x2="24.27351"
       y2="9.8622112" />
    <linearGradient
       id="linearGradient3487-2">
      <stop
         id="stop3489-0"
         style="stop-color:#e6cde2;stop-opacity:1"
         offset="0" />
      <stop
         id="stop3491-5"
         style="stop-color:#e6cde2;stop-opacity:0"
         offset="1" />
    </linearGradient>
    <linearGradient
       inkscape:collect="always"
       xlink:href="#linearGradient3495-5"
       id="linearGradient4957"
       gradientUnits="userSpaceOnUse"
       spreadMethod="reflect"
       x1="17.494959"
       y1="11.200086"
       x2="21.047453"
       y2="9.7956104" />
    <linearGradient
       id="linearGradient3495-5">
      <stop
         id="stop3497-02"
         style="stop-color:#c1cbe4;stop-opacity:1"
         offset="0" />
      <stop
         id="stop3499-7"
         style="stop-color:#c1cbe4;stop-opacity:0"
         offset="1" />
    </linearGradient>
    <linearGradient
       inkscape:collect="always"
       xlink:href="#linearGradient3503-8"
       id="linearGradient4959"
       gradientUnits="userSpaceOnUse"
       spreadMethod="reflect"
       x1="14.084608"
       y1="13.045606"
       x2="16.994024"
       y2="10.732353" />
    <linearGradient
       id="linearGradient3503-8">
      <stop
         id="stop3505-9"
         style="stop-color:#c4ebdd;stop-opacity:1"
         offset="0" />
      <stop
         id="stop3507-3"
         style="stop-color:#c4ebdd;stop-opacity:0"
         offset="1" />
    </linearGradient>
    <linearGradient
       inkscape:collect="always"
       xlink:href="#linearGradient3511-4"
       id="linearGradient4961"
       gradientUnits="userSpaceOnUse"
       spreadMethod="reflect"
       x1="12.371647"
       y1="16.188046"
       x2="14.609327"
       y2="13.461712" />
    <linearGradient
       id="linearGradient3511-4">
      <stop
         id="stop3513-6"
         style="stop-color:#ebeec7;stop-opacity:1"
         offset="0" />
      <stop
         id="stop3515-1"
         style="stop-color:#ebeec7;stop-opacity:0"
         offset="1" />
    </linearGradient>
    <linearGradient
       inkscape:collect="always"
       xlink:href="#linearGradient3519-9"
       id="linearGradient4963"
       gradientUnits="userSpaceOnUse"
       spreadMethod="reflect"
       x1="10.609375"
       y1="17.886322"
       x2="9.7297754"
       y2="20.612656" />
    <linearGradient
       id="linearGradient3519-9">
      <stop
         id="stop3521-8"
         style="stop-color:#fcd9cd;stop-opacity:1"
         offset="0" />
      <stop
         id="stop3523-2"
         style="stop-color:#fcd9cd;stop-opacity:0"
         offset="1" />
    </linearGradient>
    <linearGradient
       inkscape:collect="always"
       xlink:href="#linearGradient3487-2"
       id="linearGradient4965"
       gradientUnits="userSpaceOnUse"
       spreadMethod="reflect"
       x1="20.580074"
       y1="10.774516"
       x2="24.27351"
       y2="9.8622112" />
    <linearGradient
       inkscape:collect="always"
       xlink:href="#linearGradient3495-5"
       id="linearGradient4967"
       gradientUnits="userSpaceOnUse"
       spreadMethod="reflect"
       x1="17.494959"
       y1="11.200086"
       x2="21.047453"
       y2="9.7956104" />
    <linearGradient
       inkscape:collect="always"
       xlink:href="#linearGradient3503-8"
       id="linearGradient4969"
       gradientUnits="userSpaceOnUse"
       spreadMethod="reflect"
       x1="14.084608"
       y1="13.045606"
       x2="16.994024"
       y2="10.732353" />
    <linearGradient
       inkscape:collect="always"
       xlink:href="#linearGradient3511-4"
       id="linearGradient4971"
       gradientUnits="userSpaceOnUse"
       spreadMethod="reflect"
       x1="12.371647"
       y1="16.188046"
       x2="14.609327"
       y2="13.461712" />
    <linearGradient
       inkscape:collect="always"
       xlink:href="#linearGradient3519-9"
       id="linearGradient4973"
       gradientUnits="userSpaceOnUse"
       spreadMethod="reflect"
       x1="10.609375"
       y1="17.886322"
       x2="9.7297754"
       y2="20.612656" />
    <linearGradient
       inkscape:collect="always"
       xlink:href="#linearGradient6036-2"
       id="linearGradient4975"
       gradientUnits="userSpaceOnUse"
       gradientTransform="matrix(0.4293444,0,0,-0.4293442,147.49673,37.576666)"
       x1="18.775953"
       y1="4.0378027"
       x2="18.203465"
       y2="45.962208" />
    <linearGradient
       id="linearGradient6036-2">
      <stop
         id="stop6038-9"
         style="stop-color:#ffffff;stop-opacity:1"
         offset="0" />
      <stop
         id="stop6040-7"
         style="stop-color:#ffffff;stop-opacity:0"
         offset="1" />
    </linearGradient>
    <linearGradient
       inkscape:collect="always"
       xlink:href="#linearGradient3428-1"
       id="linearGradient4977"
       gradientUnits="userSpaceOnUse"
       gradientTransform="matrix(0.9375,0,0,0.9375,135.44997,4.3430585)"
       x1="21.448364"
       y1="15.5"
       x2="21.448364"
       y2="32.509201" />
    <linearGradient
       id="linearGradient3428-1">
      <stop
         id="stop3430-0"
         style="stop-color:#aaaaaa;stop-opacity:1"
         offset="0" />
      <stop
         id="stop3432-4"
         style="stop-color:#d4d4d4;stop-opacity:1"
         offset="1" />
    </linearGradient>
    <linearGradient
       inkscape:collect="always"
       xlink:href="#linearGradient4011-5-0"
       id="linearGradient4979"
       gradientUnits="userSpaceOnUse"
       gradientTransform="matrix(1.054054,0,0,1.054054,82.338974,0.1151588)"
       x1="71.204407"
       y1="6.2375584"
       x2="71.204407"
       y2="44.340794" />
    <linearGradient
       id="linearGradient4011-5-0">
      <stop
         id="stop4013-9-5"
         style="stop-color:#ffffff;stop-opacity:1;"
         offset="0" />
      <stop
         offset="0.507761"
         style="stop-color:#ffffff;stop-opacity:0.23529412;"
         id="stop4015-0-7" />
      <stop
         id="stop4017-2-4"
         style="stop-color:#ffffff;stop-opacity:0.15686275;"
         offset="0.83456558" />
      <stop
         id="stop4019-2-0"
         style="stop-color:#ffffff;stop-opacity:0.39215687;"
         offset="1" />
    </linearGradient>
  </defs>
  <sodipodi:namedview
     id="base"
     pagecolor="#ffffff"
     bordercolor="#666666"
     borderopacity="1.0"
     inkscape:pageopacity="0.0"
     inkscape:pageshadow="2"
     inkscape:zoom="7"
     inkscape:cx="34.142858"
     inkscape:cy="24"
     inkscape:current-layer="layer1"
     showgrid="true"
     inkscape:grid-bbox="true"
     inkscape:document-units="px"
     fit-margin-top="0"
     fit-margin-left="0"
     fit-margin-right="0"
     fit-margin-bottom="0"
     inkscape:window-width="1280"
     inkscape:window-height="665"
     inkscape:window-x="0"
     inkscape:window-y="24"
     inkscape:window-maximized="1" />
  <metadata
     id="metadata6468">
    <rdf:RDF>
      <cc:Work
         rdf:about="">
        <dc:format>image/svg+xml</dc:format>
        <dc:type
           rdf:resource="http://purl.org/dc/dcmitype/StillImage" />
        <dc:title></dc:title>
      </cc:Work>
    </rdf:RDF>
  </metadata>
  <g
     id="layer1"
     inkscape:label="Layer 1"
     inkscape:groupmode="layer"
     transform="translate(10.142858,0)">
    <g
       style="display:inline;enable-background:new"
       id="g4929"
       transform="translate(-144.09283,-2.842927)">
      <path
         d="m 179.94997,42.342926 c 0.001,3.589753 -9.84893,6.500001 -22,6.500001 -12.15106,0 -22.00113,-2.910248 -22,-6.500001 -0.001,-3.589751 9.84894,-6.499999 22,-6.499999 12.15107,0 22.00114,2.910248 22,6.499999 l 0,0 z"
         id="path23417"
         style="opacity:0.3;fill:url(#radialGradient4949);fill-opacity:1;fill-rule:evenodd;stroke:none;stroke-width:2;marker:none;visibility:visible;display:inline;overflow:visible"
         inkscape:connector-curvature="0" />
      <path
         d="m 178.44997,26.843059 c 0,-11.362962 -9.13704,-20.5000005 -20.5,-20.5000005 -11.36296,0 -20.5,9.1370395 -20.5,20.5000005 0,11.36296 9.13704,20.5 20.5,20.5 11.36296,-2e-6 20.5,-9.137039 20.5,-20.5 z m -13,0 c 0,4.12813 -3.28927,7.5 -7.5,7.5 -4.29333,0 -7.5,-3.455313 -7.5,-7.5 0,-4.127303 3.04147,-7.5 7.5,-7.5 4.45854,0 7.5,3.45447 7.5,7.5 z"
         id="path2781"
         style="fill:url(#linearGradient4951);fill-rule:nonzero;stroke:url(#linearGradient4953);stroke-width:1;stroke-miterlimit:4;stroke-opacity:1"
         inkscape:connector-curvature="0" />
      <path
         d="m 157.94997,18.843059 c -4.416,0 -8,3.584 -8,8 0,4.416 3.584,8 8,8 4.416,0 8,-3.584 8,-8 0,-4.416 -3.584,-8 -8,-8 z m 0,4 c 2.208,0 4,1.792 4,4 0,2.208 -1.792,4 -4,4 -2.208,0 -4,-1.792 -4,-4 0,-2.208 1.792,-4 4,-4 z"
         id="path2474"
         style="opacity:0.5;fill:#ffffff;fill-opacity:1;fill-rule:nonzero;stroke:none;stroke-width:1;marker:none;visibility:visible;display:inline;overflow:visible;enable-background:accumulate"
         inkscape:connector-curvature="0" />
      <g
         id="g3527"
         transform="translate(133.94997,2.8430585)">
        <path
           d="M 15.856928,5.7307748 20.625,16.34375 C 21.660403,15.885186 22.795334,15.625 24,15.625 c 0.03206,0 0.06178,-3.6e-4 0.09375,0 L 24.10801,4.0047512 c -2.94215,-0.070687 -5.543041,0.6572865 -8.251083,1.7260236 l 10e-7,0 z"
           transform="matrix(0.9996011,0.02824295,-0.02824295,0.9996011,0.6924114,-0.6708346)"
           id="path3296"
           style="opacity:0.8;fill:url(#linearGradient4955);fill-opacity:1;fill-rule:nonzero;stroke:none"
           inkscape:connector-curvature="0" />
        <path
           d="m 12.121471,7.9060109 6.931026,9.3601041 c 0.913109,-0.669755 1.965938,-1.167064 3.142629,-1.425169 0.03132,-0.0069 0.06026,-0.01359 0.09157,-0.02009 L 19.857174,4.426276 c -2.888973,0.5613244 -5.31953,1.8556038 -7.735703,3.4797349 l 0,0 z"
           id="path3308"
           style="opacity:0.8;fill:url(#linearGradient4957);fill-opacity:1;fill-rule:nonzero;stroke:none"
           inkscape:connector-curvature="0" />
        <path
           d="m 8.2523933,11.646535 9.2137237,7.155818 c 0.70865,-0.883264 1.596891,-1.636119 2.666685,-2.18998 0.02847,-0.01474 0.05469,-0.02872 0.08325,-0.0431 L 14.86585,6.2506132 C 12.220599,7.5405321 10.165881,9.452393 8.2523933,11.646535 z"
           id="path3310"
           style="opacity:0.8;fill:url(#linearGradient4959);fill-opacity:1;fill-rule:nonzero;stroke:none"
           inkscape:connector-curvature="0" />
        <path
           d="m 5.6328855,16.073974 c 7.1748065,2.242248 7.8502625,7.031463 12.7767855,1.754127 L 10.499985,9.1321388 C 8.2787249,11.062747 6.9132871,13.459349 5.6328855,16.073974 z"
           id="path3312"
           style="opacity:0.8;fill:url(#linearGradient4961);fill-opacity:1;fill-rule:nonzero;stroke:none"
           inkscape:connector-curvature="0" />
        <path
           d="M 7.155289,13.193173 C 5.9722117,14.945185 5.2475768,16.829547 4.6301929,18.837116 L 15.96875,21.8125 C 16.184264,21.049497 16.486796,20.297733 16.9375,19.59375 16.95479,19.56675 16.98246,19.52673 17,19.5 L 7.155289,13.193173 z"
           id="path3314"
           style="opacity:0.8;fill:url(#linearGradient4963);fill-opacity:1;fill-rule:nonzero;stroke:none"
           inkscape:connector-curvature="0" />
      </g>
      <g
         transform="matrix(-1,0,0,-1,181.94997,50.833892)"
         id="g3297">
        <path
           d="M 15.856928,5.7307748 20.625,16.34375 C 21.660403,15.885186 22.795334,15.625 24,15.625 c 0.03206,0 0.06178,-3.6e-4 0.09375,0 L 24.10801,4.0047512 c -2.94215,-0.070687 -5.543041,0.6572865 -8.251083,1.7260236 l 10e-7,0 z"
           transform="matrix(0.9996011,0.02824295,-0.02824295,0.9996011,0.6924114,-0.6708346)"
           id="path3299"
           style="opacity:0.8;fill:url(#linearGradient4965);fill-opacity:1;fill-rule:nonzero;stroke:none"
           inkscape:connector-curvature="0" />
        <path
           d="m 12.121471,7.9060109 6.931026,9.3601041 c 0.913109,-0.669755 1.965938,-1.167064 3.142629,-1.425169 0.03132,-0.0069 0.06026,-0.01359 0.09157,-0.02009 L 19.857174,4.426276 c -2.888973,0.5613244 -5.31953,1.8556038 -7.735703,3.4797349 l 0,0 z"
           id="path3301"
           style="opacity:0.8;fill:url(#linearGradient4967);fill-opacity:1;fill-rule:nonzero;stroke:none"
           inkscape:connector-curvature="0" />
        <path
           d="m 8.2523933,11.646535 9.2137237,7.155818 c 0.70865,-0.883264 1.596891,-1.636119 2.666685,-2.18998 0.02847,-0.01474 0.05469,-0.02872 0.08325,-0.0431 L 14.86585,6.2506132 C 12.220599,7.5405321 10.165881,9.452393 8.2523933,11.646535 z"
           id="path3303"
           style="opacity:0.8;fill:url(#linearGradient4969);fill-opacity:1;fill-rule:nonzero;stroke:none"
           inkscape:connector-curvature="0" />
        <path
           d="m 5.6328855,16.073974 c 7.1748065,2.242248 7.8502625,7.031463 12.7767855,1.754127 L 10.499985,9.1321388 C 8.2787249,11.062747 6.9132871,13.459349 5.6328855,16.073974 z"
           id="path3305"
           style="opacity:0.8;fill:url(#linearGradient4971);fill-opacity:1;fill-rule:nonzero;stroke:none"
           inkscape:connector-curvature="0" />
        <path
           d="M 7.155289,13.193173 C 5.9722117,14.945185 5.2475768,16.829547 4.6301929,18.837116 L 15.96875,21.8125 C 16.184264,21.049497 16.486796,20.297733 16.9375,19.59375 16.95479,19.56675 16.98246,19.52673 17,19.5 L 7.155289,13.193173 z"
           id="path3307"
           style="opacity:0.8;fill:url(#linearGradient4973);fill-opacity:1;fill-rule:nonzero;stroke:none"
           inkscape:connector-curvature="0" />
      </g>
      <path
         inkscape:connector-curvature="0"
         d="m 157.94997,35.343059 c -4.71143,0 -8.5,-3.788571 -8.5,-8.5 0,-4.711429 3.78857,-8.500001 8.5,-8.500001 4.71143,0 8.5,3.788572 8.5,8.500001 0,4.711429 -3.78857,8.5 -8.5,8.5 l 0,0 0,0 0,0 z"
         id="path3281"
         style="opacity:0.4;fill:none;stroke:url(#linearGradient4975);stroke-width:0.99999982;stroke-miterlimit:4;stroke-opacity:1" />
      <path
         d="m 157.94997,19.343059 c -4.14,0 -7.5,3.36 -7.5,7.5 0,4.14 3.36,7.5 7.5,7.5 4.14,0 7.5,-3.36 7.5,-7.5 0,-4.14 -3.36,-7.5 -7.5,-7.5 z m 0,3.75 c 2.07,0 3.75,1.68 3.75,3.75 0,2.07 -1.68,3.75 -3.75,3.75 -2.07,0 -3.75,-1.68 -3.75,-3.75 0,-2.07 1.68,-3.75 3.75,-3.75 z"
         id="path3418"
         style="fill:none;stroke:url(#linearGradient4977);stroke-width:1;stroke-linecap:butt;stroke-linejoin:round;stroke-miterlimit:4;stroke-opacity:1;stroke-dasharray:none;stroke-dashoffset:0;marker:none;visibility:visible;display:inline;overflow:visible;enable-background:accumulate"
         inkscape:connector-curvature="0" />
      <path
         d="m 177.44997,26.842368 c 0,10.7699 -8.73109,19.50069 -19.49975,19.50069 -10.76965,0 -19.50025,-8.730889 -19.50025,-19.50069 0,-10.769403 8.7306,-19.499308 19.50025,-19.499308 10.76866,0 19.49975,8.729905 19.49975,19.499308 l 0,0 z"
         id="path8655"
         style="opacity:0.55;color:#000000;fill:none;stroke:url(#linearGradient4979);stroke-width:1;stroke-linecap:round;stroke-linejoin:round;stroke-miterlimit:4;stroke-opacity:1;stroke-dasharray:none;stroke-dashoffset:0;marker:none;visibility:visible;display:inline;overflow:visible;enable-background:accumulate"
         inkscape:connector-curvature="0" />
    </g>
    <path
       style="opacity:0.6;fill:url(#linearGradient5054);fill-opacity:1;stroke:#bd222a;stroke-width:1px;stroke-linecap:round;stroke-linejoin:round;stroke-opacity:1;display:inline;enable-background:new"
       d="m 16.931773,2.0170992 c -3.04102,1.977283 -3.9399,4.2604898 -4.17283,6.7499998 -0.24308,2.598222 2.30177,5.134158 3.00444,7.46875 0.34072,0.947055 -0.4129,1.717637 -1.30749,1.84375 -1.52417,0.21487 -2.37665,-1.555349 -3.50518,-2.375 -0.88385,-0.64193 -2.5593401,-2 -2.5593401,-2 0.47397,1.325166 1.8316401,5.367508 1.08494,7.96875 -0.9339,3.253306 -5.05899,5.46455 -6.64872,8.5625 -0.75496,1.471197 -1.30749,4.65625 -1.30749,4.65625 0,0 -0.34549,-3.425734 0.0556,-5.09375 0.53038,-2.205612 3.06008,-6.3125 3.06008,-6.3125 -2.78419,2.864187 -5.03400004,4.92773 -6.09235,7.875 -0.85831,2.390015 -1.05644,5.244075 -0.0278,7.4375 1.35340996,2.885901 4.43428,4.524373 7.2051,5.5 4.9908201,1.757309 10.6899601,1.381607 15.6898601,0.1875 3.27843,-0.782974 7.00487,-2.947383 8.26222,-6.4375 0.64538,-1.791427 -0.24827,-3.878375 -1.00148,-5.6875 -0.54704,-1.313956 -2.35588,-2.207898 -2.69844,-3.5625 -0.46056,-1.821385 1.00149,-5.53125 1.00149,-5.53125 -2.17723,1.582188 -4.19166,3.239492 -5.7307,5.25 -0.97249,1.2149 -2.47593,3.84375 -2.47593,3.84375 2.42491,-5.616947 4.70137,-10.6502 3.39391,-15.9375 -0.857,-3.465666 -6.42344,-5.569284 -7.066,-9.0625 -0.3356,-1.8244658 0.32387,-3.5365288 1.83604,-5.3437498 z"
       id="path3909-7-8"
       inkscape:connector-curvature="0"
       sodipodi:nodetypes="cscsscssccccaasasccccssc" />
    <path
       style="opacity:0.6;fill:url(#linearGradient5051);fill-opacity:1;stroke:none;display:inline;enable-background:new"
       d="m 18.879103,13.892099 c 0,1.403648 -0.56941,3.927161 -1.4744,5.75668 -1.85415,3.748372 -6.65285,6.482003 -7.9562101,10.362023 -0.86072,2.562309 -0.73729,5.185483 0.27819,7.934883 -2.33605,-1.775162 -3.349,-4.176604 -3.42173,-6.939133 -3.46055,1.855163 -5.66503004,10.059063 -2.32157,11.944842 4.97988,2.808763 12.4095501,2.362706 18.2856701,0.725192 1.60858,-0.448267 3.39465,-1.177077 4.18156,-2.758752 0.6428,-1.291994 0.25872,-2.874748 -0.0882,-4.434657 -0.38206,-1.71768 -2.17482,-3.140653 -2.58715,-4.854281 -0.23254,-0.966804 0.0834,-2.956133 0.0834,-2.956133 -1.54388,1.759784 -3.16229,3.559206 -3.97811,5.569976 -0.63717,1.572709 -0.63983,4.916516 -0.63983,4.916516 -1.53316,-2.524282 -2.6943,-5.355523 -2.67062,-8.152703 0.0373,-4.403229 4.7052,-8.391061 4.42321,-12.789164 -0.0991,-1.545189 -2.11424,-4.325289 -2.11424,-4.325289 z"
       id="path4679-1-2"
       inkscape:connector-curvature="0"
       sodipodi:nodetypes="cssccsaacccccsscc" />
    <path
       sodipodi:nodetypes="cscsscssccccaasasccccssc"
       inkscape:connector-curvature="0"
       id="path3909-7-8-6"
       d="m 16.931783,2.0171 c -3.04102,1.977283 -3.93991,4.26049 -4.17284,6.75 -0.24308,2.598222 2.30178,5.134158 3.00444,7.46875 0.34072,0.947055 -0.4129,1.717637 -1.30749,1.84375 -1.52417,0.21487 -2.37665,-1.555349 -3.50518,-2.375 -0.88385,-0.64193 -2.5593401,-2 -2.5593401,-2 0.47397,1.325166 1.8316401,5.367508 1.08494,7.96875 -0.9339,3.253306 -5.05898,5.46455 -6.64872,8.5625 -0.75496,1.471197 -1.30749,4.65625 -1.30749,4.65625 0,0 -0.34549,-3.425734 0.0556,-5.09375 0.53038,-2.205612 3.06008,-6.3125 3.06008,-6.3125 -2.78419,2.864187 -5.03400004,4.92773 -6.09234,7.875 -0.85832,2.390015 -1.05644,5.244075 -0.0278,7.4375 1.35341996,2.885901 4.43428,4.524373 7.2051,5.5 4.9908201,1.757309 10.6899701,1.381607 15.6898701,0.1875 3.27843,-0.782974 7.00486,-2.947383 8.26221,-6.4375 0.64538,-1.791427 -0.24827,-3.878375 -1.00148,-5.6875 -0.54704,-1.313956 -2.35588,-2.207898 -2.69843,-3.5625 -0.46057,-1.821385 1.00148,-5.53125 1.00148,-5.53125 -2.17723,1.582188 -4.19166,3.239492 -5.7307,5.25 -0.97248,1.2149 -2.47593,3.84375 -2.47593,3.84375 2.42491,-5.616947 4.70137,-10.6502 3.39391,-15.9375 -0.857,-3.465666 -6.42343,-5.569284 -7.066,-9.0625 -0.3356,-1.824466 0.32387,-3.536529 1.83605,-5.34375 z"
       style="opacity:0.9;fill:none;stroke:#bd222a;stroke-width:1px;stroke-linecap:round;stroke-linejoin:round;stroke-opacity:1;display:inline;enable-background:new" />
    <path
       transform="translate(-144.14286,-4)"
       sodipodi:type="inkscape:offset"
       inkscape:radius="-1.0187179"
       inkscape:original="M 161.0625 6.03125 C 158.02148 8.008533 157.13918 10.29174 156.90625 12.78125 C 156.66317 15.379472 159.20359 17.915408 159.90625 20.25 C 160.24697 21.197055 159.48834 21.967637 158.59375 22.09375 C 157.06958 22.30862 156.22228 20.538401 155.09375 19.71875 C 154.2099 19.07682 152.53125 17.71875 152.53125 17.71875 C 153.00522 19.043916 154.3717 23.086258 153.625 25.6875 C 152.6911 28.940806 148.55849 31.15205 146.96875 34.25 C 146.21379 35.721197 145.65625 38.90625 145.65625 38.90625 C 145.65625 38.90625 145.31766 35.480516 145.71875 33.8125 C 146.24913 31.606888 148.78125 27.5 148.78125 27.5 C 145.99706 30.364187 143.74584 32.42773 142.6875 35.375 C 141.82918 37.765015 141.62761 40.619075 142.65625 42.8125 C 144.00967 45.698401 147.10418 47.336873 149.875 48.3125 C 154.86582 50.069809 160.5626 49.694107 165.5625 48.5 C 168.84093 47.717026 172.55515 45.552617 173.8125 42.0625 C 174.45788 40.271073 173.56571 38.184125 172.8125 36.375 C 172.26546 35.061044 170.46755 34.167102 170.125 32.8125 C 169.66443 30.991115 171.125 27.28125 171.125 27.28125 C 168.94777 28.863438 166.91404 30.520742 165.375 32.53125 C 164.40252 33.74615 162.90625 36.375 162.90625 36.375 C 165.33116 30.758053 167.61996 25.7248 166.3125 20.4375 C 165.4555 16.971834 159.89257 14.868216 159.25 11.375 C 158.9144 9.550534 159.55032 7.838471 161.0625 6.03125 z "
       style="opacity:0.9;fill:none;stroke:url(#linearGradient5862);stroke-width:1px;stroke-linecap:round;stroke-linejoin:round;stroke-opacity:1;display:inline;enable-background:new"
       id="path5860"
       d="m 158.25,11.59375 c -0.0933,0.430002 -0.30039,0.81783 -0.34375,1.28125 -0.088,0.9408 0.36617,2.049031 1.03125,3.25 0.65428,1.181473 1.4797,2.414514 1.90625,3.78125 l 0.0312,0 c 0.007,0.02048 -0.007,0.04192 0,0.0625 0.25049,0.766235 0.0591,1.608267 -0.375,2.15625 -0.44578,0.562699 -1.05813,0.871214 -1.75,0.96875 -1.17084,0.16506 -2.12298,-0.464629 -2.75,-1.0625 -0.62702,-0.597871 -1.11979,-1.223857 -1.5,-1.5 -0.0443,-0.03215 -0.0778,-0.05886 -0.125,-0.09375 0.0587,0.242987 0.10395,0.338407 0.15625,0.59375 0.32367,1.580176 0.51993,3.343958 0.0625,4.9375 -0.56002,1.950861 -1.97707,3.416486 -3.34375,4.78125 -1.36668,1.364764 -2.69888,2.651193 -3.375,3.96875 -0.28765,0.560549 -0.61768,1.7083 -0.84375,2.65625 -0.22607,0.94795 -0.375,1.71875 -0.375,1.71875 a 1.0188198,1.0188198 0 0 1 -2,-0.09375 c 0,0 -0.0893,-0.867589 -0.125,-1.96875 -0.0312,-0.962146 -0.0104,-2.065658 0.15625,-3.03125 -0.34428,0.56751 -0.80766,1.096099 -1.03125,1.71875 -0.78827,2.194964 -0.92518,4.816713 -0.0625,6.65625 1.16289,2.479642 3.96708,4.032875 6.625,4.96875 4.71885,1.661547 10.21694,1.320959 15.09375,0.15625 3.03494,-0.724823 6.44521,-2.76664 7.53125,-5.78125 0.4584,-1.272419 -0.21268,-3.121496 -0.96875,-4.9375 -0.15282,-0.36707 -0.61364,-0.867351 -1.1875,-1.4375 -0.57386,-0.570149 -1.30043,-1.244901 -1.5625,-2.28125 -0.25284,-0.999893 -0.0649,-2.045622 0.15625,-3.03125 -1.15912,0.976122 -2.23302,2.000598 -3.09375,3.125 a 1.0188198,1.0188198 0 0 1 -0.0312,0 c -0.84302,1.053173 -2.375,3.71875 -2.375,3.71875 a 1.0188198,1.0188198 0 0 1 -1.8125,-0.90625 c 2.42959,-5.62779 4.54854,-10.409154 3.34375,-15.28125 -0.31673,-1.280823 -1.69816,-2.599892 -3.28125,-4 -1.57621,-1.39402 -3.36181,-2.884474 -3.78125,-5.09375 z" />
  </g>
</svg>
