<?xml version="1.0" encoding="UTF-8" standalone="no"?>
<!-- Created with Inkscape (http://www.inkscape.org/) -->

<svg
   xmlns:dc="http://purl.org/dc/elements/1.1/"
   xmlns:cc="http://creativecommons.org/ns#"
   xmlns:rdf="http://www.w3.org/1999/02/22-rdf-syntax-ns#"
   xmlns:svg="http://www.w3.org/2000/svg"
   xmlns="http://www.w3.org/2000/svg"
   xmlns:xlink="http://www.w3.org/1999/xlink"
   xmlns:sodipodi="http://sodipodi.sourceforge.net/DTD/sodipodi-0.dtd"
   xmlns:inkscape="http://www.inkscape.org/namespaces/inkscape"
   width="48.000011"
   height="48"
   id="svg7473"
   version="1.1"
   inkscape:version="0.48.1 r9760"
   sodipodi:docname="liferea48.svg">
  <defs
     id="defs7475">
    <radialGradient
       inkscape:collect="always"
       xlink:href="#linearGradient8838-6"
       id="radialGradient6310"
       gradientUnits="userSpaceOnUse"
       gradientTransform="matrix(1,0,0,0.341176,0,3.047059)"
       cx="62.625"
       cy="4.625"
       fx="62.625"
       fy="4.625"
       r="10.625" />
    <linearGradient
       id="linearGradient8838-6">
      <stop
         id="stop8840-2"
         style="stop-color:#000000;stop-opacity:1"
         offset="0" />
      <stop
         id="stop8842-3"
         style="stop-color:#000000;stop-opacity:0"
         offset="1" />
    </linearGradient>
    <radialGradient
       inkscape:collect="always"
       xlink:href="#linearGradient2867-449-88-871-390-598-476-591-434-148-0"
       id="radialGradient6312"
       gradientUnits="userSpaceOnUse"
       gradientTransform="matrix(0,3.5234091,-3.5234073,0,-6.7439676,-205.79862)"
       cx="61.240059"
       cy="-8.7256308"
       fx="61.240059"
       fy="-8.7256308"
       r="9.7552834" />
    <linearGradient
       id="linearGradient2867-449-88-871-390-598-476-591-434-148-0">
      <stop
         id="stop4627-3"
         style="stop-color:#51cfee;stop-opacity:1"
         offset="0" />
      <stop
         id="stop4629-6"
         style="stop-color:#49a3d2;stop-opacity:1"
         offset="0.26238" />
      <stop
         id="stop4631-4"
         style="stop-color:#3470b4;stop-opacity:1"
         offset="0.704952" />
      <stop
         id="stop4633-7"
         style="stop-color:#273567;stop-opacity:1"
         offset="1" />
    </linearGradient>
    <linearGradient
       inkscape:collect="always"
       xlink:href="#linearGradient3707-319-631-6"
       id="linearGradient6314"
       gradientUnits="userSpaceOnUse"
       gradientTransform="matrix(0.98001402,0,0,0.97999168,0.08994011,0.8703621)"
       x1="20"
       y1="43"
       x2="20"
       y2="2.6887112" />
    <linearGradient
       id="linearGradient3707-319-631-6">
      <stop
         id="stop4637-5"
         style="stop-color:#254b6d;stop-opacity:1"
         offset="0" />
      <stop
         id="stop4639-8"
         style="stop-color:#415b73;stop-opacity:1"
         offset="0.5" />
      <stop
         id="stop4641-4"
         style="stop-color:#6195b5;stop-opacity:1"
         offset="1" />
    </linearGradient>
    <linearGradient
       inkscape:collect="always"
       xlink:href="#linearGradient4873-3"
       id="linearGradient6316"
       gradientUnits="userSpaceOnUse"
       gradientTransform="matrix(2.0283131,0,0,2.0282668,-102.16189,31.12091)"
       x1="62.200409"
       y1="-12.489107"
       x2="62.200409"
       y2="-1.4615115" />
    <linearGradient
       id="linearGradient4873-3">
      <stop
         id="stop4875-3"
         style="stop-color:#ffffff;stop-opacity:1"
         offset="0" />
      <stop
         id="stop4877-0"
         style="stop-color:#ffffff;stop-opacity:0"
         offset="1" />
    </linearGradient>
    <linearGradient
       inkscape:collect="always"
       xlink:href="#linearGradient4035"
       id="linearGradient4041"
       x1="157.79547"
       y1="20.110691"
       x2="157.79547"
       y2="47.532818"
       gradientUnits="userSpaceOnUse" />
    <linearGradient
       inkscape:collect="always"
       id="linearGradient4035">
      <stop
         style="stop-color:#ffffff;stop-opacity:1;"
         offset="0"
         id="stop4037" />
      <stop
         style="stop-color:#ffffff;stop-opacity:0;"
         offset="1"
         id="stop4039" />
    </linearGradient>
    <linearGradient
       inkscape:collect="always"
       xlink:href="#linearGradient4015"
       id="linearGradient4021"
       x1="158.90813"
       y1="48.431599"
       x2="158.90813"
       y2="19.244049"
       gradientUnits="userSpaceOnUse"
       gradientTransform="matrix(1.1025641,0,0,1.2268371,117.22344,299.07487)" />
    <linearGradient
       id="linearGradient4015">
      <stop
         style="stop-color:#8c8c8c;stop-opacity:1;"
         offset="0"
         id="stop4017" />
      <stop
         id="stop4029"
         offset="0.03117742"
         style="stop-color:#969696;stop-opacity:1;" />
      <stop
         id="stop4027"
         offset="0.0741232"
         style="stop-color:#a0a0a0;stop-opacity:1;" />
      <stop
         id="stop4025"
         offset="0.15525444"
         style="stop-color:#dcdcdc;stop-opacity:1;" />
      <stop
         id="stop4023"
         offset="0.5"
         style="stop-color:#e1e1e1;stop-opacity:1;" />
      <stop
         style="stop-color:#e6e6e6;stop-opacity:1;"
         offset="1"
         id="stop4019" />
    </linearGradient>
    <linearGradient
       gradientTransform="translate(133.42857,310.07647)"
       inkscape:collect="always"
       xlink:href="#linearGradient5648"
       id="linearGradient5654"
       x1="153.67767"
       y1="48.531219"
       x2="153.67767"
       y2="12.64398"
       gradientUnits="userSpaceOnUse" />
    <linearGradient
       id="linearGradient5648">
      <stop
         style="stop-color:#646464;stop-opacity:1;"
         offset="0"
         id="stop5650" />
      <stop
         style="stop-color:#b4b4b4;stop-opacity:1;"
         offset="1"
         id="stop5652" />
    </linearGradient>
    <radialGradient
       cx="4.9929786"
       cy="43.5"
       r="2.5"
       fx="4.9929786"
       fy="43.5"
       id="radialGradient2873"
       xlink:href="#linearGradient3688"
       gradientUnits="userSpaceOnUse"
       gradientTransform="matrix(2.003784,0,0,1.4,27.98813,-17.4)" />
    <linearGradient
       id="linearGradient3688">
      <stop
         id="stop3690"
         style="stop-color:#000000;stop-opacity:1"
         offset="0" />
      <stop
         id="stop3692"
         style="stop-color:#000000;stop-opacity:0"
         offset="1" />
    </linearGradient>
    <radialGradient
       cx="4.9929786"
       cy="43.5"
       r="2.5"
       fx="4.9929786"
       fy="43.5"
       id="radialGradient2875"
       xlink:href="#linearGradient3688"
       gradientUnits="userSpaceOnUse"
       gradientTransform="matrix(2.003784,0,0,1.4,-20.01187,-104.4)" />
    <linearGradient
       x1="25.058096"
       y1="47.027729"
       x2="25.058096"
       y2="39.999443"
       id="linearGradient2877"
       xlink:href="#linearGradient3702"
       gradientUnits="userSpaceOnUse" />
    <linearGradient
       id="linearGradient3702">
      <stop
         id="stop3704"
         style="stop-color:#000000;stop-opacity:0"
         offset="0" />
      <stop
         id="stop3710"
         style="stop-color:#000000;stop-opacity:1"
         offset="0.5" />
      <stop
         id="stop3706"
         style="stop-color:#000000;stop-opacity:0"
         offset="1" />
    </linearGradient>
  </defs>
  <sodipodi:namedview
     id="base"
     pagecolor="#ffffff"
     bordercolor="#666666"
     borderopacity="1.0"
     inkscape:pageopacity="0.0"
     inkscape:pageshadow="2"
     inkscape:zoom="14.854167"
     inkscape:cx="24.000006"
     inkscape:cy="24"
     inkscape:document-units="px"
     inkscape:current-layer="layer1"
     showgrid="false"
     fit-margin-top="0"
     fit-margin-left="0"
     fit-margin-right="0"
     fit-margin-bottom="0" />
  <metadata
     id="metadata7478">
    <rdf:RDF>
      <cc:Work
         rdf:about="">
        <dc:format>image/svg+xml</dc:format>
        <dc:type
           rdf:resource="http://purl.org/dc/dcmitype/StillImage" />
        <dc:title />
      </cc:Work>
    </rdf:RDF>
  </metadata>
  <g
     inkscape:label="Capa 1"
     inkscape:groupmode="layer"
     id="layer1"
     transform="translate(-267.42856,-314.07648)">
    <g
       style="display:inline;enable-background:new"
       id="g2036"
       transform="matrix(1.1999995,0,0,0.4444449,262.62857,339.18757)">
      <g
         style="opacity:0.4"
         id="g3712"
         transform="matrix(1.052632,0,0,1.285713,-1.263158,-13.42854)">
        <rect
           style="fill:url(#radialGradient2873);fill-opacity:1;stroke:none"
           id="rect2801"
           y="40"
           x="38"
           height="7"
           width="5" />
        <rect
           style="fill:url(#radialGradient2875);fill-opacity:1;stroke:none"
           id="rect3696"
           transform="scale(-1,-1)"
           y="-47"
           x="-10"
           height="7"
           width="5" />
        <rect
           style="fill:url(#linearGradient2877);fill-opacity:1;stroke:none"
           id="rect3700"
           y="40"
           x="10"
           height="7.0000005"
           width="28" />
      </g>
    </g>
    <path
       style="color:#000000;fill:url(#linearGradient4021);fill-opacity:1;stroke:url(#linearGradient5654);stroke-width:0.99999994;stroke-linecap:round;stroke-linejoin:round;stroke-miterlimit:4;stroke-opacity:1;stroke-dasharray:none;stroke-dashoffset:0;marker:none;visibility:visible;display:inline;overflow:visible;enable-background:accumulate"
       d="m 269.92857,322.57647 c 0,10.40256 0,20.80511 0,31.20767 0,2.64328 1.89691,4.79233 4.27244,4.79233 l 34.45512,0 c 2.37553,0 4.27244,-2.14905 4.27244,-4.79233 0,-10.511 0,-20.80511 0,-31.20767 -14.33333,0 -28.66667,0 -43,0 z"
       id="rect3040"
       inkscape:connector-curvature="0"
       sodipodi:nodetypes="ccssccc" />
    <path
       sodipodi:type="inkscape:offset"
       inkscape:radius="-0.97227168"
       inkscape:original="M 138.5 19.15625 L 138.5 44.59375 C 138.5 46.748304 140.22045 48.5 142.375 48.5 L 173.625 48.5 C 175.77955 48.5 177.5 46.748304 177.5 44.59375 L 177.5 19.15625 L 138.5 19.15625 z "
       style="color:#000000;fill:none;stroke:url(#linearGradient4041);stroke-width:0.85456872;stroke-linecap:round;stroke-linejoin:round;stroke-miterlimit:4;stroke-opacity:1;stroke-dasharray:none;stroke-dashoffset:0;marker:none;visibility:visible;display:inline;overflow:visible;enable-background:accumulate"
       id="path4033"
       d="m 139.46875,20.125 0,24.46875 c 0,1.63697 1.27869,2.9375 2.90625,2.9375 l 31.25,0 c 1.62756,0 2.90625,-1.30053 2.90625,-2.9375 l 0,-24.46875 -37.0625,0 z"
       transform="matrix(1.1060015,0,0,1.2380843,116.67593,298.66002)" />
    <g
       transform="scale(1.0196703,0.98070915)"
       style="font-size:11.978508px;font-style:normal;font-variant:normal;font-weight:500;font-stretch:normal;text-align:start;line-height:125%;letter-spacing:0px;word-spacing:0px;writing-mode:lr-tb;text-anchor:start;fill:#3c3c3c;fill-opacity:1;stroke:none;display:inline;enable-background:new;font-family:English Towne;-inkscape-font-specification:English Towne Medium"
       id="text4088">
      <path
         d="m 281.31677,332.73006 c -0.24757,0.12778 -0.47117,0.19167 -0.6708,0.19166 -0.31943,1e-5 -0.66282,-0.14373 -1.03015,-0.43123 l -1.31764,1.25775 0.28749,0.28748 0.22759,-0.19165 c 0.16769,0.15971 0.45118,0.23957 0.85047,0.23957 l 0.0599,0 0.024,-0.012 0.024,0 0.012,1.40148 -0.024,0 -0.0958,0.024 -0.0479,0 c -0.0479,0.024 -0.16771,0.0359 -0.35936,0.0359 -0.008,0.008 -0.0519,0.012 -0.13176,0.012 -0.30346,1e-5 -0.51508,-0.0399 -0.63486,-0.11978 -0.20763,-0.37532 -0.37533,-0.67878 -0.5031,-0.91037 -0.11979,-0.23956 -0.2236,-0.4392 -0.31144,-0.59892 -0.32742,-0.47914 -0.59094,-0.81054 -0.79058,-0.99422 -0.30346,-0.27949 -0.6708,-0.41924 -1.10202,-0.41925 -0.43922,10e-6 -0.80656,0.1717 -1.10203,0.51508 -0.30345,0.32742 -0.45518,0.70674 -0.45518,1.13796 0,0.31144 0.0839,0.48314 0.25155,0.51507 l -0.024,-0.0239 0.0838,0 c 0.024,-0.27151 0.20363,-0.49112 0.53903,-0.65882 0.016,-0.016 0.0359,-0.024 0.0599,-0.024 0.0319,1e-5 0.0599,-0.004 0.0839,-0.012 0.0559,-0.016 0.11179,-0.0279 0.16769,-0.0359 0.0639,-0.016 0.1158,-0.0399 0.15573,-0.0719 l 0.0239,0 0,1.96447 c -0.14374,0.016 -0.25953,0.0319 -0.34737,0.0479 -0.0879,0.016 -0.14774,0.028 -0.17968,0.0359 -0.35137,0.14375 -0.52706,0.45918 -0.52706,0.9463 0,0.2236 0.0719,0.41925 0.21562,0.58695 0.14374,0.1677 0.31942,0.25155 0.52705,0.25155 l 0,-0.0838 0,-0.0479 -0.012,-0.012 c 0,-0.0639 0.016,-0.12777 0.0479,-0.19166 0.0399,-0.0719 0.0878,-0.1078 0.14374,-0.10781 l 0.024,0 c 0.024,0.016 0.0439,0.028 0.0599,0.0359 0.016,0 0.0319,0.004 0.0479,0.012 l 0,1.60512 c -0.79058,0.23957 -1.30166,0.78259 -1.53325,1.62907 0.0479,-0.016 0.10382,-0.0399 0.1677,-0.0719 0.0719,-0.0239 0.10781,-0.0359 0.10781,-0.0359 0.0319,-0.016 0.0719,-0.0399 0.11978,-0.0719 l 0,0.012 c 0.3354,-0.15972 0.68278,-0.23958 1.04213,-0.23958 0.48713,0 1.01019,0.17569 1.56919,0.52706 l 0.95828,-1.25774 -0.26353,-0.26353 -0.14374,0.19165 c -0.23159,-0.15971 -0.46716,-0.27949 -0.70673,-0.35935 -0.23957,-0.0878 -0.49112,-0.13176 -0.75465,-0.13176 l -0.0719,0 -0.024,0.012 -0.012,0 0,-1.14993 c 0.19165,-0.12777 0.4991,-0.19166 0.92234,-0.19166 0.31942,0 0.68676,0.0879 1.10202,0.26353 0.0399,0.0878 0.0799,0.17569 0.11979,0.26353 0.0399,0.0799 0.0798,0.15572 0.11978,0.22759 0.15971,0.31144 0.2795,0.559 0.35936,0.74267 0.0878,0.17568 0.17169,0.32342 0.25155,0.4432 l -0.012,0 c 0.44719,0.80655 0.86644,1.20983 1.25774,1.20983 l 0.0719,0 0,-6.63609 c 0.024,-0.008 0.0519,-0.016 0.0838,-0.024 0.0399,-0.016 0.0838,-0.0399 0.13177,-0.0719 l 0,0.012 c 0.2156,-0.1118 0.41524,-0.26352 0.59892,-0.45519 0.11978,-0.11978 0.20762,-0.23557 0.26353,-0.34737 0.0559,-0.1118 0.0878,-0.2236 0.0958,-0.3354 l -0.0719,-0.0479 m -4.31227,4.31227 c -0.24756,0 -0.57497,0.0559 -0.98223,0.1677 l 0,-3.21024 c 0.18366,0.0878 0.40726,0.37134 0.67079,0.85047 0.12777,0.25555 0.30745,0.63886 0.53904,1.14994 0.13575,0.29547 0.24755,0.53903 0.33539,0.73069 0.0878,0.18367 0.15572,0.32342 0.20364,0.41924 -0.25555,-0.0719 -0.51109,-0.1078 -0.76663,-0.1078 m 1.97646,-0.46716 c -0.0719,-0.15971 -0.13177,-0.29148 -0.17968,-0.3953 -0.0479,-0.10381 -0.0839,-0.18366 -0.10781,-0.23957 0.0958,0.0319 0.19964,0.0479 0.31144,0.0479 l 0.32342,0 c 0.0958,0 0.17968,-0.004 0.25155,-0.012 0.0799,-0.008 0.14374,-0.024 0.19166,-0.0479 l 0.012,2.14415 c -0.11979,-0.17568 -0.24756,-0.38331 -0.38332,-0.62288 -0.12777,-0.24756 -0.26752,-0.53903 -0.41924,-0.87443"
         style=""
         id="path3072" />
      <path
         d="m 285.44654,336.97046 c -0.0799,-0.1118 -0.1677,-0.24356 -0.26352,-0.39529 -0.0879,-0.15971 -0.18368,-0.33141 -0.28749,-0.51508 -0.1118,-0.20762 -0.19964,-0.39529 -0.26352,-0.56299 -0.0639,-0.16769 -0.1158,-0.32342 -0.15573,-0.46716 -0.79058,0.52706 -1.5013,0.79058 -2.13217,0.79058 l -0.0479,0 -0.0359,-0.012 -0.0359,0 -0.012,-0.012 -0.0719,0 -0.10781,-0.1078 0,0.16769 c 0.12777,0.27951 0.19165,0.47915 0.19166,0.59893 l 0,2.8988 c -0.15972,0.11978 -0.26753,0.21561 -0.32342,0.28748 -0.008,0.008 -0.0319,0.0399 -0.0719,0.0958 -0.0319,0.0559 -0.0759,0.12777 -0.13176,0.21561 l 0,-0.012 c -0.016,0.016 -0.0319,0.0399 -0.0479,0.0719 -0.016,0.024 -0.0319,0.0559 -0.0479,0.0958 0.0958,-0.016 0.19166,-0.0279 0.28749,-0.0359 0.0958,-0.016 0.19165,-0.024 0.28748,-0.024 0.25554,0 0.559,0.0359 0.91037,0.10781 0.20762,0.0399 0.39129,0.0958 0.55101,0.1677 0.15971,0.0799 0.32342,0.1637 0.49112,0.25155 l 0.11978,0.0599 1.09005,-1.19785 -0.29947,-0.27551 -0.28748,0.29947 c -0.18367,-0.0879 -0.38331,-0.16371 -0.59892,-0.2276 -0.20763,-0.0639 -0.43523,-0.11579 -0.68278,-0.15572 l 0,-0.89838 c 0.0878,-0.0639 0.1677,-0.11579 0.23957,-0.15573 0.48712,-0.28748 0.87044,-0.51108 1.14994,-0.67079 0.28748,-0.1677 0.47913,-0.2755 0.57497,-0.32342 l 0.012,-0.0599 m -1.59314,-0.2276 c 0.0559,0.11979 0.10381,0.21961 0.14374,0.29947 0.0479,0.0719 0.0878,0.13176 0.11979,0.17967 l -0.64684,0.41925 0,-1.53325 0.0958,-0.024 c 0.0399,0.1118 0.0838,0.2236 0.13176,0.33539 0.0479,0.11181 0.0998,0.21961 0.15572,0.32342"
         style=""
         id="path3074" />
      <path
         d="m 292.72817,335.73667 c -0.0399,0.016 -0.0679,0.0319 -0.0838,0.0479 -0.0319,0.008 -0.0559,0.012 -0.0719,0.012 -0.016,10e-6 -0.0319,0.004 -0.0479,0.012 l 0,0.012 -0.012,0 c -0.016,0.008 -0.0319,0.012 -0.0479,0.012 -0.0719,0 -0.11181,-0.004 -0.11979,-0.012 -0.25554,-0.024 -0.48314,-0.24356 -0.68277,-0.65882 l -1.31764,0.97026 0.17968,0.28748 0.14374,-0.0599 c 0.12777,0.15173 0.24755,0.24357 0.35936,0.27551 l 0,2.8988 c -10e-6,0.15172 -0.0719,0.22759 -0.21561,0.22759 l -0.13177,0 c -0.008,0 -0.016,0 -0.024,0 0,-0.008 0,-0.012 0,-0.012 -0.0319,-0.016 -0.0679,-0.0279 -0.1078,-0.0359 -0.0399,-0.016 -0.0719,-0.0319 -0.0958,-0.0479 -0.26353,-0.12777 -0.3953,-0.3314 -0.39529,-0.6109 l 0,-3.12639 c -0.016,-0.0639 -0.028,-0.10781 -0.0359,-0.13177 -0.016,-0.024 -0.028,-0.0479 -0.0359,-0.0719 -1e-5,-0.024 -0.004,-0.0439 -0.012,-0.0599 -0.0879,-0.2236 -0.29547,-0.41924 -0.62288,-0.58695 l -1.22181,1.05411 0,0.0958 c 0.14374,0 0.28349,0.0479 0.41925,0.14374 0.13575,0.0879 0.20363,0.18767 0.20363,0.29946 l 0,2.67121 c -0.0479,0.0319 -0.0998,0.0559 -0.15572,0.0719 -0.008,0.008 -0.02,0.016 -0.0359,0.024 -0.008,0.008 -0.016,0.016 -0.024,0.024 l -0.0479,0.0479 c -0.0479,-0.0399 -0.1078,-0.0799 -0.17967,-0.11979 -0.0719,-0.0399 -0.15173,-0.0798 -0.23957,-0.11978 -0.0399,-0.016 -0.0639,-0.024 -0.0719,-0.024 -0.008,-0.008 -0.0319,-0.02 -0.0719,-0.0359 -0.0878,0 -0.15173,-0.016 -0.19165,-0.0479 l 0,-2.97067 c 0,-0.24755 -0.0799,-0.47115 -0.23957,-0.67079 -0.15972,-0.19964 -0.35936,-0.34338 -0.59893,-0.43123 l -1.20983,1.20983 0.0958,0.0599 0.0359,0 0.024,0.012 0.0958,0 0.0359,0.012 0.024,0 c 0.16769,0 0.31144,0.11979 0.43122,0.35935 l 0,2.58736 -0.012,0 -0.012,0.024 c -0.24755,0.18367 -0.41126,0.41525 -0.49111,0.69475 0.0399,-0.016 0.0799,-0.0279 0.11978,-0.0359 0.0479,-0.008 0.0878,-0.012 0.11979,-0.012 l 0.024,-0.012 0.024,0 c 0.24755,0 0.48313,0.0559 0.70673,0.1677 0.2236,0.1118 0.45119,0.27151 0.68278,0.47914 0.11978,-0.0878 0.22359,-0.16371 0.31144,-0.22759 0.0878,-0.0639 0.14773,-0.10781 0.17968,-0.13177 l 0,0.012 c 0.0479,-0.0319 0.0799,-0.0519 0.0958,-0.0599 l 0.024,-0.012 0.024,-0.024 c 0.008,-0.008 0.0439,-0.024 0.1078,-0.0479 0.14374,-0.0799 0.31544,-0.18367 0.51508,-0.31144 0.13575,0.21561 0.31543,0.39928 0.53903,0.55101 0.23158,0.15971 0.46716,0.24756 0.70673,0.26353 0.10381,-0.0479 0.18766,-0.0918 0.25155,-0.13177 0.0719,-0.0319 0.13176,-0.0559 0.17968,-0.0719 0.57496,-0.26352 1.14993,-0.39529 1.72491,-0.39529 l 0.024,0 c 0.0239,0.008 0.1078,0.012 0.25155,0.012 -0.0879,-0.12777 -0.13177,-0.19565 -0.13176,-0.20363 -0.0799,-0.1118 -0.11979,-0.22759 -0.11979,-0.34738 l 0,-2.91078 c 0.31144,-0.18366 0.48313,-0.45518 0.51508,-0.81454 l -0.0599,-0.0479"
         style=""
         id="path3076" />
      <path
         d="m 297.52294,335.20962 -0.32342,0.024 c -0.14375,0.23159 -0.33141,0.34738 -0.56299,0.34738 -0.2236,0 -0.46317,-0.14773 -0.71871,-0.44321 -0.28749,0.28749 -0.4472,0.43922 -0.47914,0.45519 -0.34339,0.18367 -0.69875,0.27551 -1.06609,0.2755 -0.0719,1e-5 -0.1118,-0.004 -0.11978,-0.012 -0.2236,1e-5 -0.36335,-0.016 -0.41925,-0.0479 -0.0878,0 -0.17169,-0.0359 -0.25155,-0.10781 0,0.0399 0,0.0759 0,0.10781 0,0.0319 0.008,0.0559 0.024,0.0719 l 0,0.012 0.0359,0.0839 c 0,0.0319 0.004,0.0519 0.012,0.0599 l 0,-0.012 c 0,0.008 0,0.016 0,0.024 0.008,0 0.012,0.004 0.012,0.012 l 0.012,2.08426 -0.012,0.024 c 0,0.10381 -0.0359,0.20363 -0.10781,0.29946 l 0.012,-0.0359 -0.0838,0.0838 0.79058,0.0359 c -0.0479,0.0479 -0.0918,0.0918 -0.13176,0.13176 -0.0319,0.0399 -0.0599,0.0719 -0.0838,0.0958 l -0.0479,0.0479 c -0.27152,0.3354 -0.48713,0.65084 -0.64684,0.94631 -0.15972,0.28748 -0.27152,0.57097 -0.3354,0.85047 l 0.34738,0 c 0.14374,-0.35137 0.39928,-0.52705 0.76662,-0.52705 0.0878,0 0.15572,0.012 0.20363,0.0359 0.0719,0 0.13576,0.012 0.19166,0.0359 0.0559,0.0319 0.11579,0.0759 0.17968,0.13176 l 0.34738,0.34738 c 0.39129,-0.41526 0.89039,-0.62288 1.49731,-0.62288 l 0.0719,0 c 0.024,0.008 0.0958,0.012 0.21561,0.012 0.0399,0.024 0.0918,0.0399 0.15572,0.0479 0.0639,0 0.14374,0 0.23957,0 0.016,0 0.0279,0.004 0.0359,0.012 l -0.012,0 c 0.016,0.008 0.0679,0.012 0.15572,0.012 l -0.0479,-0.0958 c -0.024,-0.0399 -0.0479,-0.0799 -0.0719,-0.11979 -0.024,-0.0399 -0.028,-0.0519 -0.012,-0.0359 l 0.012,0.024 c -0.008,-0.0399 -0.012,-0.0599 -0.012,-0.0599 -10e-6,-0.008 -0.004,-0.016 -0.012,-0.024 l 0,0.012 -0.012,-0.024 0,-0.0359 c -0.008,-0.008 -0.012,-0.02 -0.012,-0.0359 l 0,-2.03634 c 0,0.008 0.004,-0.004 0.012,-0.0359 0.008,-0.0399 0.016,-0.0719 0.024,-0.0958 l 0,0.012 c -10e-6,-0.008 -10e-6,-0.016 0,-0.0239 0.008,-0.008 0.012,-0.02 0.012,-0.0359 l 0.012,-0.024 0,-0.024 0.024,-0.024 0,-0.024 0.012,-0.012 c 0,-0.024 0.004,-0.0439 0.012,-0.0599 -10e-6,-0.008 -10e-6,-0.024 0,-0.0479 0.008,-0.024 0.012,-0.0399 0.012,-0.0479 l -1.12598,0.024 c 0.67079,-0.68676 1.11,-1.34957 1.31763,-1.98843 l -0.0479,-0.0599 m -1.50929,4.42006 -0.0479,0 c -0.0399,0.016 -0.0719,0.0279 -0.0958,0.0359 -0.016,0 -0.024,0 -0.024,0 l -0.0479,0.024 c -0.29547,-0.36734 -0.65083,-0.55101 -1.06608,-0.55101 -0.0399,0 -0.0958,0.008 -0.1677,0.0239 -0.0719,0.008 -0.15572,0.02 -0.25155,0.0359 0.10381,-0.10381 0.19165,-0.19565 0.26353,-0.27551 0.0719,-0.0878 0.13575,-0.15971 0.19165,-0.21561 l 0.62289,-0.62288 0.6109,0 0.024,0.024 0,1.5093 -0.012,0.012 m -0.19166,-2.55142 c -0.18367,0.18368 -0.3354,0.33141 -0.45518,0.44321 -0.1118,0.1118 -0.19965,0.18766 -0.26353,0.22759 l -0.13176,0 0,-1.50929 c 0.0399,0 0.0838,-0.012 0.13176,-0.0359 l 0.0479,0 c 0.008,-0.008 0.024,-0.016 0.0479,-0.024 0.29547,0.23159 0.55899,0.34738 0.79058,0.34738 0.15173,0 0.29547,-0.0279 0.43123,-0.0838 -0.12778,0.13576 -0.32742,0.34738 -0.59893,0.63486"
         style=""
         id="path3078" />
    </g>
    <path
       style="fill:#505050;fill-opacity:1;stroke:#646464;stroke-width:1px;stroke-linecap:butt;stroke-linejoin:miter;stroke-opacity:1;display:inline;enable-background:new"
       d="m 272.99105,336.57647 0,1 37,0 0,-1 z"
       id="path3819"
       inkscape:connector-curvature="0" />
    <path
       style="fill:none;stroke:#646464;stroke-width:1px;stroke-linecap:square;stroke-linejoin:miter;stroke-opacity:1;display:inline;enable-background:new"
       d="m 272.9285,339.57647 37.00013,0"
       id="path3823"
       inkscape:connector-curvature="0" />
    <g
       style="display:inline;enable-background:new"
       id="g3894"
       transform="matrix(0.94344735,0,0,1,144.67469,310.07647)">
      <path
         inkscape:connector-curvature="0"
         id="path3875"
         d="m 163.49993,32.5 11.65975,0"
         style="fill:none;stroke:#787878;stroke-width:1.02953517px;stroke-linecap:square;stroke-linejoin:miter;stroke-opacity:1" />
      <path
         style="fill:none;stroke:#787878;stroke-width:1.02953517px;stroke-linecap:square;stroke-linejoin:miter;stroke-opacity:1"
         d="m 163.49993,34.5 11.65975,0"
         id="path3877"
         inkscape:connector-curvature="0" />
      <path
         inkscape:connector-curvature="0"
         id="path3879"
         d="m 163.49993,36.5 11.65975,0"
         style="fill:none;stroke:#787878;stroke-width:1.02953517px;stroke-linecap:square;stroke-linejoin:miter;stroke-opacity:1" />
      <path
         style="fill:none;stroke:#787878;stroke-width:1.02953517px;stroke-linecap:square;stroke-linejoin:miter;stroke-opacity:1"
         d="m 163.49993,38.5 11.65975,0"
         id="path3881"
         inkscape:connector-curvature="0" />
      <path
         inkscape:connector-curvature="0"
         id="path3883"
         d="m 163.49993,40.5 11.65975,0"
         style="fill:none;stroke:#787878;stroke-width:1.02953517px;stroke-linecap:square;stroke-linejoin:miter;stroke-opacity:1" />
      <path
         style="fill:none;stroke:#787878;stroke-width:1.02953517px;stroke-linecap:square;stroke-linejoin:miter;stroke-opacity:1"
         d="m 163.49993,42.5 11.65975,0"
         id="path3885"
         inkscape:connector-curvature="0" />
      <path
         inkscape:connector-curvature="0"
         id="path3887"
         d="m 163.49993,44.5 11.65975,0"
         style="fill:none;stroke:#787878;stroke-width:1.02953517px;stroke-linecap:square;stroke-linejoin:miter;stroke-opacity:1" />
      <path
         style="fill:none;stroke:#787878;stroke-width:1.02953517px;stroke-linecap:square;stroke-linejoin:miter;stroke-opacity:1"
         d="m 163.49993,46.5 11.65975,0"
         id="path3889"
         inkscape:connector-curvature="0" />
      <path
         inkscape:connector-curvature="0"
         id="path3891"
         d="m 163.49993,46.5 11.65975,0"
         style="fill:none;stroke:#787878;stroke-width:1.02953517px;stroke-linecap:square;stroke-linejoin:miter;stroke-opacity:1" />
    </g>
    <g
       style="display:inline;enable-background:new"
       transform="matrix(0.94344735,0,0,1,118.67492,310.07647)"
       id="g3905">
      <path
         style="fill:none;stroke:#787878;stroke-width:1.02953517px;stroke-linecap:square;stroke-linejoin:miter;stroke-opacity:1"
         d="m 163.49993,32.5 11.65975,0"
         id="path3907"
         inkscape:connector-curvature="0" />
      <path
         inkscape:connector-curvature="0"
         id="path3909"
         d="m 163.49993,34.5 11.65975,0"
         style="fill:none;stroke:#787878;stroke-width:1.02953517px;stroke-linecap:square;stroke-linejoin:miter;stroke-opacity:1" />
      <path
         style="fill:none;stroke:#787878;stroke-width:1.02953517px;stroke-linecap:square;stroke-linejoin:miter;stroke-opacity:1"
         d="m 163.49993,36.5 11.65975,0"
         id="path3911"
         inkscape:connector-curvature="0" />
      <path
         inkscape:connector-curvature="0"
         id="path3913"
         d="m 163.49993,38.5 11.65975,0"
         style="fill:none;stroke:#787878;stroke-width:1.02953517px;stroke-linecap:square;stroke-linejoin:miter;stroke-opacity:1" />
      <path
         style="fill:none;stroke:#787878;stroke-width:1.02953517px;stroke-linecap:square;stroke-linejoin:miter;stroke-opacity:1"
         d="m 163.49993,40.5 11.65975,0"
         id="path3915"
         inkscape:connector-curvature="0" />
      <path
         inkscape:connector-curvature="0"
         id="path3917"
         d="m 163.49993,42.5 11.65975,0"
         style="fill:none;stroke:#787878;stroke-width:1.02953517px;stroke-linecap:square;stroke-linejoin:miter;stroke-opacity:1" />
      <path
         style="fill:none;stroke:#787878;stroke-width:1.02953517px;stroke-linecap:square;stroke-linejoin:miter;stroke-opacity:1"
         d="m 163.49993,44.5 11.65975,0"
         id="path3919"
         inkscape:connector-curvature="0" />
      <path
         inkscape:connector-curvature="0"
         id="path3921"
         d="m 163.49993,46.5 11.65975,0"
         style="fill:none;stroke:#787878;stroke-width:1.02953517px;stroke-linecap:square;stroke-linejoin:miter;stroke-opacity:1" />
      <path
         style="fill:none;stroke:#787878;stroke-width:1.02953517px;stroke-linecap:square;stroke-linejoin:miter;stroke-opacity:1"
         d="m 163.49993,46.5 11.65975,0"
         id="path3923"
         inkscape:connector-curvature="0" />
    </g>
    <g
       style="display:inline;enable-background:new"
       id="g3925"
       transform="matrix(0.94344735,0,0,1,131.67481,310.07647)">
      <path
         style="fill:none;stroke:#787878;stroke-width:1.02953517px;stroke-linecap:square;stroke-linejoin:miter;stroke-opacity:1"
         d="m 163.49993,46.5 11.65975,0"
         id="path3941"
         inkscape:connector-curvature="0" />
      <path
         inkscape:connector-curvature="0"
         id="path3943"
         d="m 163.49993,46.5 11.65975,0"
         style="fill:none;stroke:#787878;stroke-width:1.02953517px;stroke-linecap:square;stroke-linejoin:miter;stroke-opacity:1" />
    </g>
    <path
       inkscape:connector-curvature="0"
       id="path6296"
       d="m 285.7099,342.32647 0,2.00265 c 5.14704,0.0959 9.30599,4.25771 9.40059,9.4097 l 2.02095,0 c -0.0955,-6.26683 -5.16057,-11.31696 -11.42154,-11.41235 z m 0,4.61798 0,1.81061 c 2.71674,0.0945 4.89828,2.26468 4.99292,4.98376 l 1.81062,0 c -0.0953,-3.72167 -3.08529,-6.69909 -6.80354,-6.79437 z m 1.1888,4.57224 c -0.3186,2e-5 -0.56578,0.1175 -0.78645,0.33835 -0.22095,0.21723 -0.3292,0.44926 -0.3292,0.76814 0,0.3139 0.10897,0.56085 0.3292,0.77729 0.21953,0.21582 0.46541,0.32006 0.78645,0.32006 0.31106,0 0.54282,-0.10369 0.75899,-0.32006 0.22134,-0.22157 0.33834,-0.4684 0.33835,-0.77729 -10e-6,-0.31888 -0.11745,-0.55091 -0.33835,-0.76814 -0.21731,-0.22145 -0.45043,-0.33833 -0.75899,-0.33835 z"
       style="font-size:13.58991337px;font-style:normal;font-variant:normal;font-weight:bold;font-stretch:normal;text-align:start;line-height:125%;writing-mode:lr-tb;text-anchor:start;fill:#646464;fill-opacity:1;fill-rule:nonzero;stroke:#646464;stroke-width:0.49999997;stroke-miterlimit:4;stroke-opacity:1;stroke-dasharray:none;marker:none;visibility:visible;display:inline;overflow:visible;enable-background:accumulate;font-family:Bitstream Vera Serif" />
    <g
       style="display:inline;enable-background:new"
       transform="matrix(0.39130434,0,0,0.39130434,267.03727,341.29386)"
       id="g6298">
      <path
         inkscape:connector-curvature="0"
         d="m 73.25,4.625 a 10.625,3.625 0 1 1 -21.25,0 10.625,3.625 0 1 1 21.25,0 z"
         transform="matrix(2.1647059,0,0,2.5636643,-111.56471,26.849769)"
         id="path6300"
         style="opacity:0.4;fill:url(#radialGradient6310);fill-opacity:1;fill-rule:evenodd;stroke:none;stroke-width:0.99999988;marker:none;visibility:visible;display:inline;overflow:visible" />
      <path
         inkscape:connector-curvature="0"
         d="M 43.500003,23.999309 C 43.500003,34.769208 34.768912,43.5 24.000248,43.5 13.230599,43.5 4.5000032,34.769109 4.5000032,23.999309 4.5000032,13.229904 13.230599,4.5 24.000248,4.5 c 10.768664,0 19.499755,8.729904 19.499755,19.499309 l 0,0 z"
         id="path6302"
         style="fill:url(#radialGradient6312);fill-opacity:1;fill-rule:nonzero;stroke:url(#linearGradient6314);stroke-width:2.55555558;stroke-miterlimit:4;stroke-dasharray:none" />
      <path
         inkscape:connector-curvature="0"
         d="m 24.329633,5.218182 -2.362344,0.2704567 -2.59858,0.7099494 c 0.221353,-0.077615 0.445595,-0.1623374 0.674956,-0.2366499 L 19.739934,5.4210246 18.727501,5.5900601 18.221284,6.0633596 17.445085,6.1647809 16.736382,6.502852 16.398905,6.6718876 16.29766,6.807116 15.791444,6.9085373 15.487716,7.5508723 15.08274,6.7395017 l -0.134989,0.3380711 0.0675,0.9127919 -0.641208,0.5409137 -0.371225,0.9804061 0.7762,0 0.303728,-0.642335 0.101245,-0.2366498 c 0.341288,-0.241775 0.66483,-0.5110331 1.012433,-0.7437563 l 0.809946,0.2704568 c 0.527335,0.3588995 1.058376,0.7234732 1.586147,1.0818274 L 19.368709,8.5312784 18.491266,8.1594002 18.086294,7.3480297 16.601391,7.1789941 16.567641,7.0099586 17.208847,7.145187 17.580075,6.7733087 18.390021,6.6042734 C 18.581694,6.5108897 18.770243,6.44363 18.963732,6.3676236 l -0.506216,0.4732995 1.82238,1.250863 0,0.7437562 -0.708703,0.7099493 0.944937,1.8931994 0.641208,-0.371881 0.809948,-1.2508614 c 1.138725,-0.3526792 2.165016,-0.7630693 3.239789,-1.2508632 l -0.0675,0.4732995 0.539963,0.3718782 0.944939,-0.6423349 -0.47247,-0.5409137 -0.641209,0.3718781 -0.202486,-0.067613 c 0.04651,-0.02129 0.08828,-0.045973 0.13499,-0.067613 L 26.388247,6.0295525 24.329633,5.218182 z m -9.246893,3.6511675 0.776199,0.5409136 0.641209,0 0,-0.6423349 L 15.72395,8.429857 15.08274,8.8693495 z M 33.002811,8.429857 31.619153,8.7679282 30.741712,9.342649 l 0,0.5071058 -1.383659,0.8789842 0.269983,1.31848 0.809946,-0.574723 0.506216,0.574723 0.573714,0.338071 0.371224,-0.980408 -0.202486,-0.57472 0.202486,-0.405687 0.809948,-0.7437548 0.371225,0 -0.371225,0.8113728 0,0.743754 c 0.333836,-0.09103 0.6708,-0.126483 1.012433,-0.169037 l -0.944938,0.676145 -0.0675,0.405683 -1.079929,0.912794 -1.113678,-0.270459 0,-0.642335 -0.506216,0.338072 0.236235,0.574722 -0.809947,0 -0.438721,0.743756 -0.539965,0.608528 -0.978685,0.202842 0.573712,0.574721 0.134991,0.57472 -0.708703,0 -0.944938,0.507108 0,1.48751 0.438721,0 0.404973,0.439494 0.91119,-0.439494 0.337478,-0.912791 0.674956,-0.405685 0.134991,-0.338071 1.079928,-0.270457 0.60746,0.676142 0.641209,0.338071 -0.371227,0.743758 0.573715,-0.169037 0.303728,-0.743757 -0.74245,-0.845177 0.303729,0 0.742451,0.608528 0.134992,0.811371 0.641207,0.743757 0.168739,-1.081827 0.337478,-0.169037 c 0.359225,0.373574 0.642383,0.83043 0.944938,1.250864 l 1.113677,0.06762 0.641207,0.405686 -0.303729,0.439492 -0.641208,0.574721 -0.944939,0 -1.248667,-0.405684 -0.641208,0.06762 -0.472469,0.540915 -1.349912,-1.352286 -0.944937,-0.270456 -1.383659,0.169036 -1.21492,0.33807 c -0.693063,0.7871 -1.402636,1.582869 -2.058616,2.400307 l -0.776198,1.893195 0.371226,0.405687 -0.674956,0.980406 0.742451,1.724162 c 0.617799,0.700089 1.239228,1.395452 1.856128,2.09604 l 0.91119,-0.777564 0.371226,0.473301 0.978687,-0.642335 0.337477,0.371878 0.978685,0 0.573713,0.642335 -0.337478,1.149442 0.674955,0.777564 -0.03375,1.352283 0.506216,0.980406 -0.371225,0.845178 c -0.03619,0.60617 -0.0675,1.18551 -0.0675,1.791777 0.297757,0.821342 0.59628,1.640668 0.877443,2.467918 l 0.202487,1.318476 0,0.676143 0.539963,0 0.7762,-0.507106 0.944939,0 1.417406,-1.588934 -0.168739,-0.540915 0.944939,-0.845177 -0.708705,-0.777563 0.843694,-0.676141 0.809948,-0.507109 0.371225,-0.405685 -0.236234,-0.912791 c 0,-0.768475 2e-6,-1.530306 0,-2.298884 l 0.641209,-1.419897 0.809945,-0.878985 0.877443,-2.163655 0,-0.574721 c -0.436643,0.0551 -0.855168,0.10478 -1.282416,0.13523 l 0.877442,-0.878986 1.21492,-0.81137 0.641209,-0.743758 0,-0.811369 C 41.631793,22.01604 41.484928,21.720356 41.338501,21.44561 l -0.573712,0.676141 -0.438721,-0.507105 -0.641209,-0.507107 0,-1.048021 0.742452,0.845178 0.843696,-0.101421 c 0.380615,0.346139 0.746089,0.65392 1.079927,1.04802 l 0.539978,-0.608545 c 0,-0.655131 -0.736573,-3.889319 -2.328596,-6.626192 -1.592024,-2.735972 -4.387213,-5.240102 -4.387211,-5.240102 l -0.202488,0.3718783 -0.742451,0.8113707 -0.944937,-0.9804063 0.944937,0 L 35.668888,9.1059992 33.914003,8.7679282 33.002811,8.429857 z M 12.720395,8.8693495 12.382918,9.7483343 c 0,0 -0.590841,0.097717 -0.74245,0.1352286 -1.9362043,1.7873441 -5.8406714,5.6641681 -6.7495557,12.9481221 0.035987,0.168879 0.6412078,1.14944 0.6412078,1.14944 l 1.4849023,0.878986 1.4849024,0.405684 0.6412079,0.777564 0.9786853,0.743756 0.573712,-0.101421 0.404974,0.202844 0,0.135226 -0.539965,1.521321 -0.438721,0.642336 0.134991,0.304263 -0.3374777,1.217057 1.2486677,2.298882 1.282416,1.115635 0.573711,0.81137 -0.0675,1.690355 0.404974,0.946598 -0.404974,1.825586 c 0,0 -0.05404,-0.01501 0,0.169036 0.05452,0.184134 2.25593,1.422835 2.396091,1.318476 0.139681,-0.106305 0.269983,-0.202843 0.269983,-0.202843 l -0.13499,-0.405685 0.573712,-0.540913 0.202486,-0.574722 0.911191,-0.304265 0.708702,-1.757968 -0.202486,-0.4733 0.472468,-0.743756 1.07993,-0.236649 0.539965,-1.28467 -0.134992,-1.588935 0.843695,-1.183247 0.13499,-1.217056 c -1.15759,-0.575052 -2.293316,-1.165913 -3.442272,-1.75797 l -0.573713,-1.115634 -1.046181,-0.23665 -0.573712,-1.521321 -1.383659,0.169035 -1.214921,-0.878983 -1.282415,1.115634 0,0.169036 C 10.716387,26.202752 10.261353,26.186409 9.9193333,25.975746 l -0.2699819,-0.811371 0,-0.878985 -0.8774423,0.101421 c 0.070612,-0.559892 0.1651315,-1.13056 0.2362324,-1.690355 l -0.5062167,0 -0.5062167,0.642335 -0.4724689,0.23665 -0.7087034,-0.405685 -0.067496,-0.878985 0.1349912,-0.946599 1.0461812,-0.811371 0.8436945,0 0.1687389,-0.473299 1.0461817,0.236648 0.7761987,0.980407 0.134991,-1.622742 1.349911,-1.115633 0.472468,-1.183248 1.012435,-0.405685 0.539964,-0.811372 1.282416,-0.23665 0.641208,-0.946599 c -0.634667,0 -1.288957,0 -1.923624,0 l 1.214921,-0.574721 0.843693,0 1.07993,-0.371877 0.202487,1.04802 0.472469,-0.743757 -0.539966,-0.371878 0.134992,-0.439491 -0.438721,-0.405687 -0.47247,-0.135228 0.134992,-0.507106 -0.371226,-0.709948 -0.843695,0.33807 0.134992,-0.642334 -0.978686,-0.574722 -0.776198,1.352284 0.0675,0.4733 -0.776198,0.338071 -0.472469,1.04802 -0.236234,-0.980407 -1.316164,-0.540913 -0.236234,-0.743756 1.788632,-1.014213 0.776198,-0.743757 0.0675,-0.8789846 -0.438721,-0.2366498 -0.573713,-0.067613 z m 14.477799,1.6227435 0,0.54091 0.30373,0.338072 0,0.811371 -0.168739,1.081827 0.877442,-0.169036 0.641209,-0.642334 -0.573713,-0.540915 c -0.186049,-0.496308 -0.3746,-0.943871 -0.607459,-1.419895 l -0.47247,0 z m -0.742452,1.081824 -0.539963,0.169038 0.13499,0.980405 0.708703,-0.371881 -0.30373,-0.777562 z m 9.888101,8.89127 0.809946,0.946598 0.978686,2.096042 0.607459,0.67614 -0.303728,0.709952 0.539964,0.642335 c -0.247792,0.01643 -0.487764,0.03381 -0.742451,0.03381 -0.462673,-0.973935 -0.828843,-1.956133 -1.181173,-2.975025 l -0.60746,-0.676142 -0.337478,-1.217056 0.236235,-0.23665 z"
         id="path6304"
         style="opacity:0.4;fill:#000000;fill-opacity:1;fill-rule:nonzero;stroke:none" />
      <path
         inkscape:connector-curvature="0"
         d="m 41.738614,23.99937 c 0,9.797081 -7.942432,17.739241 -17.738388,17.739241 -9.796854,0 -17.7388365,-7.942249 -17.7388365,-17.739241 0,-9.796629 7.9419825,-17.7379835 17.7388365,-17.7379835 9.795956,0 17.738388,7.9413545 17.738388,17.7379835 l 0,0 z"
         id="path6306"
         style="opacity:0.4;fill:none;stroke:url(#linearGradient6316);stroke-width:2.55555725;stroke-miterlimit:4;stroke-opacity:1;stroke-dasharray:none" />
      <g
         transform="matrix(0.9999061,-0.01370139,0.01370139,0.9999061,-0.2886966,0.5358538)"
         id="g6308" />
    </g>
    <g
       style="display:inline;enable-background:new"
       transform="matrix(0.94344735,0,0,1,131.67481,310.07647)"
       id="g6318">
      <path
         inkscape:connector-curvature="0"
         id="path6320"
         d="m 163.49993,46.5 11.65975,0"
         style="fill:none;stroke:#787878;stroke-width:1.02953517px;stroke-linecap:square;stroke-linejoin:miter;stroke-opacity:1" />
      <path
         style="fill:none;stroke:#787878;stroke-width:1.02953517px;stroke-linecap:square;stroke-linejoin:miter;stroke-opacity:1"
         d="m 163.49993,46.5 11.65975,0"
         id="path6322"
         inkscape:connector-curvature="0" />
    </g>
  </g>
</svg>
