<?xml version="1.0" encoding="UTF-8" standalone="no"?>
<!-- Created with Inkscape (http://www.inkscape.org/) -->

<svg
   xmlns:dc="http://purl.org/dc/elements/1.1/"
   xmlns:cc="http://creativecommons.org/ns#"
   xmlns:rdf="http://www.w3.org/1999/02/22-rdf-syntax-ns#"
   xmlns:svg="http://www.w3.org/2000/svg"
   xmlns="http://www.w3.org/2000/svg"
   xmlns:xlink="http://www.w3.org/1999/xlink"
   xmlns:sodipodi="http://sodipodi.sourceforge.net/DTD/sodipodi-0.dtd"
   xmlns:inkscape="http://www.inkscape.org/namespaces/inkscape"
   width="32"
   height="32"
   id="svg7212"
   version="1.1"
   inkscape:version="0.48.1 r9760"
   sodipodi:docname="Nuevo documento 49">
  <defs
     id="defs7214">
    <radialGradient
       inkscape:collect="always"
       xlink:href="#linearGradient4107"
       id="radialGradient4113-3"
       cx="156.09381"
       cy="30.348207"
       fx="156.09381"
       fy="30.348207"
       r="14.672464"
       gradientTransform="matrix(1,0,0,1.1084337,0,-3.2907694)"
       gradientUnits="userSpaceOnUse" />
    <linearGradient
       inkscape:collect="always"
       id="linearGradient4107">
      <stop
         style="stop-color:#000000;stop-opacity:1;"
         offset="0"
         id="stop4109" />
      <stop
         style="stop-color:#000000;stop-opacity:0;"
         offset="1"
         id="stop4111" />
    </linearGradient>
    <radialGradient
       inkscape:collect="always"
       xlink:href="#linearGradient4982"
       id="radialGradient4988-9"
       cx="151.03619"
       cy="30.460735"
       fx="151.03619"
       fy="30.460739"
       r="15.172464"
       gradientTransform="matrix(-5.736362e-7,1.1540518,-1.4078182,-6.9977401e-7,198.8003,-149.70168)"
       gradientUnits="userSpaceOnUse" />
    <linearGradient
       id="linearGradient4982">
      <stop
         style="stop-color:#efb0b0;stop-opacity:1;"
         offset="0"
         id="stop4984" />
      <stop
         id="stop4992"
         offset="0.51919377"
         style="stop-color:#e16b6b;stop-opacity:1;" />
      <stop
         id="stop4990"
         offset="0.65888566"
         style="stop-color:#d63232;stop-opacity:1;" />
      <stop
         style="stop-color:#b62424;stop-opacity:1;"
         offset="1"
         id="stop4986" />
    </linearGradient>
    <radialGradient
       inkscape:collect="always"
       xlink:href="#linearGradient5002"
       id="radialGradient5000-4"
       cx="159.45512"
       cy="35.020535"
       fx="159.45512"
       fy="35.020535"
       r="12.03125"
       gradientTransform="matrix(-3.2213521e-7,0.95361222,-1.1560014,-3.9545219e-7,189.18716,-77.280331)"
       gradientUnits="userSpaceOnUse" />
    <linearGradient
       id="linearGradient5002">
      <stop
         id="stop5004"
         offset="0"
         style="stop-color:#505050;stop-opacity:1;" />
      <stop
         style="stop-color:#3c3c3c;stop-opacity:1;"
         offset="0.45482138"
         id="stop5006" />
      <stop
         style="stop-color:#282828;stop-opacity:1;"
         offset="0.57309669"
         id="stop5008" />
      <stop
         id="stop5010"
         offset="1"
         style="stop-color:#141414;stop-opacity:1;" />
    </linearGradient>
    <linearGradient
       inkscape:collect="always"
       xlink:href="#linearGradient5274"
       id="linearGradient5284-6"
       gradientUnits="userSpaceOnUse"
       x1="155.64128"
       y1="13.960561"
       x2="155.64128"
       y2="46.348206" />
    <linearGradient
       inkscape:collect="always"
       id="linearGradient5274">
      <stop
         style="stop-color:#ffffff;stop-opacity:0.4"
         offset="0"
         id="stop5276" />
      <stop
         style="stop-color:#ffffff;stop-opacity:0;"
         offset="1"
         id="stop5278" />
    </linearGradient>
    <linearGradient
       inkscape:collect="always"
       xlink:href="#linearGradient5458"
       id="linearGradient5464-8"
       x1="158.70126"
       y1="7.8793092"
       x2="158.70126"
       y2="12.661436"
       gradientUnits="userSpaceOnUse" />
    <linearGradient
       inkscape:collect="always"
       id="linearGradient5458">
      <stop
         style="stop-color:#ffffff;stop-opacity:1;"
         offset="0"
         id="stop5460" />
      <stop
         style="stop-color:#ffffff;stop-opacity:0;"
         offset="1"
         id="stop5462" />
    </linearGradient>
    <radialGradient
       inkscape:collect="always"
       xlink:href="#linearGradient6073"
       id="radialGradient6167-3"
       gradientUnits="userSpaceOnUse"
       gradientTransform="matrix(-0.30797561,0.31909492,-0.31509721,-0.30580354,204.27523,24.513948)"
       cx="145.92287"
       cy="32.70628"
       fx="145.92287"
       fy="32.70628"
       r="12.03125" />
    <linearGradient
       inkscape:collect="always"
       id="linearGradient6073">
      <stop
         style="stop-color:#ffffff;stop-opacity:1;"
         offset="0"
         id="stop6075" />
      <stop
         style="stop-color:#ffffff;stop-opacity:0;"
         offset="1"
         id="stop6077" />
    </linearGradient>
  </defs>
  <sodipodi:namedview
     id="base"
     pagecolor="#ffffff"
     bordercolor="#666666"
     borderopacity="1.0"
     inkscape:pageopacity="0.0"
     inkscape:pageshadow="2"
     inkscape:zoom="22.28125"
     inkscape:cx="16"
     inkscape:cy="16"
     inkscape:document-units="px"
     inkscape:current-layer="layer1"
     showgrid="false"
     fit-margin-top="0"
     fit-margin-left="0"
     fit-margin-right="0"
     fit-margin-bottom="0" />
  <metadata
     id="metadata7217">
    <rdf:RDF>
      <cc:Work
         rdf:about="">
        <dc:format>image/svg+xml</dc:format>
        <dc:type
           rdf:resource="http://purl.org/dc/dcmitype/StillImage" />
        <dc:title></dc:title>
      </cc:Work>
    </rdf:RDF>
  </metadata>
  <g
     inkscape:label="Capa 1"
     inkscape:groupmode="layer"
     id="layer1"
     transform="translate(-212.57143,-342.07648)">
    <g
       transform="translate(79.590209,287.07647)"
       style="display:inline;enable-background:new"
       id="g6350">
      <path
         transform="matrix(0.65643622,0,0,0.74176243,44.803946,52.46574)"
         d="m 163.16487,14.924441 c 0,2.465185 -1.99842,4.463611 -4.46361,4.463611 -2.46518,0 -4.46361,-1.998426 -4.46361,-4.463611 0,-2.465184 1.99843,-4.463611 4.46361,-4.463611 2.46519,0 4.46361,1.998427 4.46361,4.463611 z"
         sodipodi:ry="4.4636111"
         sodipodi:rx="4.4636111"
         sodipodi:cy="14.924441"
         sodipodi:cx="158.70126"
         id="path5400-2-0"
         style="color:#000000;fill:#141414;fill-opacity:1;fill-rule:nonzero;stroke:#141414;stroke-width:1.43308282;stroke-opacity:1;marker:none;visibility:visible;display:inline;overflow:visible;enable-background:accumulate"
         sodipodi:type="arc" />
      <path
         inkscape:connector-curvature="0"
         id="path5305-6-2-9-6-2"
         d="m 144.37937,57.029231 c -0.27121,0.07819 -0.4373,0.431214 -0.4373,0.431214 l 0.55238,2.856798 1.42699,0.682757 0.78253,-0.736659 -1.26587,-0.556986 -0.55238,-2.192007 c 0,0 -0.0692,-0.476467 -0.39127,-0.485117 -0.0432,-0.0011 -0.0763,-0.01118 -0.11508,0 z m 9.06825,0 c -0.32205,0.0086 -0.41429,0.485117 -0.41429,0.485117 l -0.52937,2.192007 -1.26586,0.556986 L 152.02063,61 153.44762,60.317243 154,57.460445 c 0,0 -0.20658,-0.440504 -0.55238,-0.431214 z"
         style="fill:#be9800;fill-opacity:1;stroke:none;display:inline;enable-background:new" />
      <path
         transform="matrix(0.78736217,0,0,0.88804106,24.025832,50.282613)"
         d="m 163.16487,14.924441 c 0,2.465185 -1.99842,4.463611 -4.46361,4.463611 -2.46518,0 -4.46361,-1.998426 -4.46361,-4.463611 0,-2.465184 1.99843,-4.463611 4.46361,-4.463611 2.46519,0 4.46361,1.998427 4.46361,4.463611 z"
         sodipodi:ry="4.4636111"
         sodipodi:rx="4.4636111"
         sodipodi:cy="14.924441"
         sodipodi:cx="158.70126"
         id="path5400-1"
         style="color:#000000;fill:#141414;fill-opacity:1;fill-rule:nonzero;stroke:#141414;stroke-width:1.19590366;stroke-opacity:1;marker:none;visibility:visible;display:inline;overflow:visible;enable-background:accumulate"
         sodipodi:type="arc" />
      <path
         transform="matrix(0.65112803,0,0,0.15613562,47.344152,79.722259)"
         d="m 170.76628,30.348207 c 0,8.982058 -6.56909,16.263455 -14.67247,16.263455 -8.10338,0 -14.67246,-7.281397 -14.67246,-16.263455 0,-8.982057 6.56908,-16.263454 14.67246,-16.263454 8.10338,0 14.67247,7.281397 14.67247,16.263454 z"
         sodipodi:ry="16.263454"
         sodipodi:rx="14.672464"
         sodipodi:cy="30.348207"
         sodipodi:cx="156.09381"
         id="path3319-0-5"
         style="opacity:0.3;color:#000000;fill:url(#radialGradient4113-3);fill-opacity:1;stroke:none;stroke-width:1.38443732;marker:none;visibility:visible;display:inline;overflow:visible;enable-background:accumulate"
         sodipodi:type="arc" />
      <path
         id="path5305-6-2-6"
         d="m 140.64277,62.220949 c -0.40763,-0.01361 -0.65113,0.632527 -0.65113,0.632527 l -0.10173,4.264455 1.3795,0.9998 0.91565,-1.081416 -1.17603,-0.816164 0.10174,-3.285059 c 0,0 -0.0884,-0.701469 -0.468,-0.714143 z m 16.78561,0 c -0.37962,0.01267 -0.468,0.714143 -0.468,0.714143 l 0.12209,3.285059 -1.28477,0.816164 0.91565,1.081416 1.4679,-0.9998 -0.10174,-4.264455 c 0,0 -0.2435,-0.646138 -0.65113,-0.632527 z m -17.7054,9.916387 -2.76729,1.530307 0.12208,4.24405 c 0,0 0.22315,0.666543 0.63078,0.652931 0.37962,-0.01267 0.48835,-0.734547 0.48835,-0.734547 l -0.12209,-3.285058 2.54347,-1.326266 z m 18.5368,0 -0.91565,1.081417 2.56382,1.326266 -0.12209,3.285058 c 0,0 0.0884,0.721874 0.468,0.734547 0.40763,0.01361 0.65113,-0.652931 0.65113,-0.652931 l 0.10174,-4.24405 z m -16.99037,8.365676 -1.42369,0.999801 0.10173,4.24405 c 0,0 0.2435,0.666542 0.65113,0.652931 0.37962,-0.01267 0.468,-0.734548 0.468,-0.734548 l -0.10174,-3.285058 1.22022,-0.795759 z m 15.44394,0 -0.91565,1.081417 1.28477,0.795759 -0.12209,3.285058 c 0,0 0.0884,0.721874 0.468,0.734548 0.40763,0.01361 0.65113,-0.652931 0.65113,-0.652931 l 0.10174,-4.24405 z"
         style="fill:#594433;fill-opacity:1;stroke:none;display:inline;enable-background:new"
         inkscape:connector-curvature="0"
         sodipodi:nodetypes="sccccccsccccccccccccccccccccscccccccccccccccsccc" />
      <path
         transform="matrix(0.65112803,0,0,0.66242742,47.344152,54.62517)"
         d="m 170.76628,30.348207 c 0,8.982058 -6.56909,16.263455 -14.67247,16.263455 -8.10338,0 -14.67246,-7.281397 -14.67246,-16.263455 0,-8.982057 6.56908,-16.263454 14.67246,-16.263454 8.10338,0 14.67247,7.281397 14.67247,16.263454 z"
         sodipodi:ry="16.263454"
         sodipodi:rx="14.672464"
         sodipodi:cy="30.348207"
         sodipodi:cx="156.09381"
         id="path3319-9"
         style="color:#000000;fill:url(#radialGradient4988-9);fill-opacity:1;stroke:#861a1a;stroke-width:1.52264142;stroke-linecap:round;stroke-linejoin:round;stroke-miterlimit:4;stroke-opacity:1;stroke-dasharray:none;stroke-dashoffset:0;marker:none;visibility:visible;display:inline;overflow:visible;enable-background:accumulate"
         sodipodi:type="arc" />
      <path
         transform="matrix(0.05518785,0,0,0.6529308,140.62025,53.181939)"
         inkscape:transform-center-y="2.2910798"
         d="m 151.49999,48.785679 -6.07763,-10.526751 -6.07762,-10.52675 12.15524,0 12.15525,-1e-6 -6.07762,10.526751 z"
         inkscape:randomized="0"
         inkscape:rounded="0"
         inkscape:flatsided="false"
         sodipodi:arg2="2.6179939"
         sodipodi:arg1="1.5707963"
         sodipodi:r2="7.0178337"
         sodipodi:r1="14.035667"
         sodipodi:cy="34.750011"
         sodipodi:cx="151.49998"
         sodipodi:sides="3"
         id="path5014-0"
         style="color:#000000;fill:#141414;fill-opacity:1;fill-rule:nonzero;stroke:none;stroke-width:3.43487906;marker:none;visibility:visible;display:inline;overflow:visible;enable-background:accumulate"
         sodipodi:type="star" />
      <path
         inkscape:connector-curvature="0"
         id="path3319-1-7"
         d="m 148.98121,63.961794 c -3.057,0 -5.75961,1.60333 -7.50832,4.095257 1.74871,2.491927 4.45132,4.115732 7.50832,4.115732 3.057,0 5.7596,-1.623805 7.50832,-4.115732 -1.74872,-2.491927 -4.45132,-4.095257 -7.50832,-4.095257 z"
         style="color:#000000;fill:url(#radialGradient5000-4);fill-opacity:1;stroke:#141414;stroke-width:1;stroke-linecap:round;stroke-linejoin:round;stroke-miterlimit:4;stroke-opacity:1;stroke-dasharray:none;stroke-dashoffset:0;marker:none;visibility:visible;display:inline;overflow:visible;enable-background:accumulate" />
      <path
         inkscape:connector-curvature="0"
         id="path5016-0"
         d="m 140.93389,69.954099 c -0.51535,1.199856 -0.84075,2.521909 -0.93389,3.92377 0.19526,0.09914 0.4117,0.165212 0.63584,0.165212 0.9218,0 1.66907,-0.924596 1.66907,-2.065143 0,-1.014522 -0.5916,-1.849785 -1.37102,-2.023839 z m 16.15424,0.165211 c -0.56469,0.331073 -0.95375,1.0341 -0.95375,1.858628 0,1.140547 0.74727,2.065143 1.66907,2.065143 0.0543,0 0.10601,-0.01438 0.15896,-0.02065 -0.0764,-1.392901 -0.38067,-2.704258 -0.87428,-3.90312 z m -8.10692,2.767291 c -1.0096,0 -1.82804,0.850628 -1.82804,1.899931 0,1.049303 0.81844,1.899931 1.82804,1.899931 1.00959,0 1.82803,-0.850628 1.82803,-1.899931 0,-1.049303 -0.81844,-1.899931 -1.82803,-1.899931 z m -4.84826,2.312959 c -0.92181,0 -1.66908,0.924596 -1.66908,2.065143 0,1.140546 0.74727,2.065141 1.66908,2.065141 0.9218,0 1.66907,-0.924595 1.66907,-2.065141 0,-1.140547 -0.74727,-2.065143 -1.66907,-2.065143 z m 10.17339,0 c -0.9218,0 -1.66907,0.924596 -1.66907,2.065143 0,1.140546 0.74727,2.065141 1.66907,2.065141 0.92181,0 1.66907,-0.924595 1.66907,-2.065141 0,-1.140547 -0.74726,-2.065143 -1.66907,-2.065143 z m -9.91508,6.608455 c -0.53911,0 -1.02493,0.309622 -1.31142,0.784755 0.7984,0.770846 1.72233,1.397007 2.74205,1.817325 0.0937,-0.2339 0.13909,-0.489386 0.13909,-0.764103 0,-1.012034 -0.69401,-1.837977 -1.56972,-1.837977 z m 9.65677,0 c -0.87571,0 -1.58959,0.825943 -1.58959,1.837977 0,0.212371 0.0419,0.409208 0.0994,0.598892 0.97548,-0.461534 1.84932,-1.11176 2.60296,-1.899932 -0.28694,-0.331608 -0.67487,-0.536937 -1.11272,-0.536937 z"
         style="color:#000000;fill:#141414;fill-opacity:1;fill-rule:nonzero;stroke:none;stroke-width:1;marker:none;visibility:visible;display:inline;overflow:visible;enable-background:accumulate" />
      <path
         transform="matrix(0.65112803,0,0,0.66431524,47.344152,54.560459)"
         d="M 156.09375,15.6875 C 148.94305,15.6875 143,22.140308 143,30.34375 c 0,8.203442 5.94714,14.6875 13.09375,14.6875 7.14661,0 13.09375,-6.484058 13.09375,-14.6875 0,-8.203442 -5.94305,-14.65625 -13.09375,-14.65625 z"
         id="path5282-1"
         style="color:#000000;fill:none;stroke:url(#linearGradient5284-6);stroke-width:1.52047646;stroke-linecap:round;stroke-linejoin:round;stroke-miterlimit:4;stroke-opacity:1;stroke-dasharray:none;stroke-dashoffset:0;marker:none;visibility:visible;display:inline;overflow:visible;enable-background:accumulate"
         inkscape:original="M 156.09375 14.09375 C 147.99037 14.09375 141.40625 21.361692 141.40625 30.34375 C 141.40625 39.325808 147.99037 46.625 156.09375 46.625 C 164.19713 46.625 170.78125 39.325808 170.78125 30.34375 C 170.78125 21.361692 164.19713 14.09375 156.09375 14.09375 z "
         inkscape:radius="-1.5932813"
         sodipodi:type="inkscape:offset" />
      <path
         transform="matrix(0.78651682,0,0,0.77798762,24.962851,52.883328)"
         d="m 156.85263,12.144988 c 0,0.457217 -0.37065,0.827864 -0.82786,0.827864 -0.45722,0 -0.82787,-0.370647 -0.82787,-0.827864 0,-0.457217 0.37065,-0.827864 0.82787,-0.827864 0.45721,0 0.82786,0.370647 0.82786,0.827864 z"
         sodipodi:ry="0.82786399"
         sodipodi:rx="0.82786399"
         sodipodi:cy="12.144988"
         sodipodi:cx="156.02477"
         id="path5402-6"
         style="opacity:0.98999999;color:#000000;fill:#ffffff;fill-opacity:1;fill-rule:nonzero;stroke:none;stroke-width:1;marker:none;visibility:visible;display:inline;overflow:visible;enable-background:accumulate"
         sodipodi:type="arc" />
      <path
         transform="matrix(0.78651682,0,0,0.77798762,27.567363,52.883328)"
         d="m 156.85263,12.144988 c 0,0.457217 -0.37065,0.827864 -0.82786,0.827864 -0.45722,0 -0.82787,-0.370647 -0.82787,-0.827864 0,-0.457217 0.37065,-0.827864 0.82787,-0.827864 0.45721,0 0.82786,0.370647 0.82786,0.827864 z"
         sodipodi:ry="0.82786399"
         sodipodi:rx="0.82786399"
         sodipodi:cy="12.144988"
         sodipodi:cx="156.02477"
         id="path5402-8-6"
         style="opacity:0.98999999;color:#000000;fill:#ffffff;fill-opacity:1;fill-rule:nonzero;stroke:none;stroke-width:1;marker:none;visibility:visible;display:inline;overflow:visible;enable-background:accumulate"
         sodipodi:type="arc" />
      <path
         transform="matrix(0.56429337,0,0,0.66204933,59.427143,53.655414)"
         d="m 163.16487,14.924441 c 0,2.465185 -1.99842,4.463611 -4.46361,4.463611 -2.46518,0 -4.46361,-1.998426 -4.46361,-4.463611 0,-2.465184 1.99843,-4.463611 4.46361,-4.463611 2.46519,0 4.46361,1.998427 4.46361,4.463611 z"
         sodipodi:ry="4.4636111"
         sodipodi:rx="4.4636111"
         sodipodi:cy="14.924441"
         sodipodi:cx="158.70126"
         id="path5400-5-4"
         style="color:#000000;fill:none;stroke:url(#linearGradient5464-8);stroke-width:1.6360718;stroke-opacity:1;marker:none;visibility:visible;display:inline;overflow:visible;enable-background:accumulate"
         sodipodi:type="arc" />
      <path
         style="color:#000000;fill:url(#radialGradient6167-3);fill-opacity:1;stroke:none;stroke-width:1;marker:none;visibility:visible;display:inline;overflow:visible;enable-background:accumulate"
         d="m 148.98121,63.961795 c -3.057,0 -5.75961,1.603329 -7.50832,4.095256 1.74871,2.491927 4.45132,4.115732 7.50832,4.115732 3.057,0 5.7596,-1.623805 7.50832,-4.115732 -1.74872,-2.491927 -4.45132,-4.095256 -7.50832,-4.095256 z"
         id="path6165-8"
         inkscape:connector-curvature="0" />
    </g>
  </g>
</svg>
