<?xml version="1.0" encoding="UTF-8" standalone="no"?>
<!-- Created with Inkscape (http://www.inkscape.org/) -->

<svg
   xmlns:dc="http://purl.org/dc/elements/1.1/"
   xmlns:cc="http://creativecommons.org/ns#"
   xmlns:rdf="http://www.w3.org/1999/02/22-rdf-syntax-ns#"
   xmlns:svg="http://www.w3.org/2000/svg"
   xmlns="http://www.w3.org/2000/svg"
   xmlns:xlink="http://www.w3.org/1999/xlink"
   xmlns:sodipodi="http://sodipodi.sourceforge.net/DTD/sodipodi-0.dtd"
   xmlns:inkscape="http://www.inkscape.org/namespaces/inkscape"
   width="32"
   height="32"
   id="svg5996"
   version="1.1"
   inkscape:version="0.48.1 r9760"
   sodipodi:docname="Nuevo documento 29">
  <defs
     id="defs5998">
    <linearGradient
       inkscape:collect="always"
       xlink:href="#linearGradient4144"
       id="linearGradient4876"
       gradientUnits="userSpaceOnUse"
       gradientTransform="matrix(0.60116215,0,0,0.71253542,89.982714,392.96795)"
       x1="156"
       y1="20"
       x2="156"
       y2="22" />
    <linearGradient
       inkscape:collect="always"
       id="linearGradient4144">
      <stop
         style="stop-color:#ffffff;stop-opacity:1;"
         offset="0"
         id="stop4146" />
      <stop
         style="stop-color:#ffffff;stop-opacity:0;"
         offset="1"
         id="stop4148" />
    </linearGradient>
    <linearGradient
       inkscape:collect="always"
       xlink:href="#linearGradient4114"
       id="linearGradient4879"
       gradientUnits="userSpaceOnUse"
       gradientTransform="matrix(0.60721364,0,0,0.55094779,89.263028,394.79604)"
       x1="157"
       y1="17"
       x2="157"
       y2="4" />
    <linearGradient
       inkscape:collect="always"
       id="linearGradient4114">
      <stop
         style="stop-color:#5b371f;stop-opacity:1;"
         offset="0"
         id="stop4116" />
      <stop
         style="stop-color:#5b371f;stop-opacity:0;"
         offset="1"
         id="stop4118" />
    </linearGradient>
    <inkscape:path-effect
       effect="spiro"
       id="path-effect4672"
       is_visible="true" />
    <linearGradient
       inkscape:collect="always"
       xlink:href="#linearGradient4114"
       id="linearGradient4882"
       gradientUnits="userSpaceOnUse"
       gradientTransform="matrix(0.61950797,0,0,0.55107275,87.541263,394.79339)"
       x1="157"
       y1="17"
       x2="157"
       y2="4" />
    <inkscape:path-effect
       effect="spiro"
       id="path-effect4668"
       is_visible="true" />
    <linearGradient
       inkscape:collect="always"
       xlink:href="#linearGradient4114"
       id="linearGradient4885"
       gradientUnits="userSpaceOnUse"
       gradientTransform="matrix(0.61249143,0,0,0.55106878,88.585121,394.79388)"
       x1="157"
       y1="17"
       x2="157"
       y2="4" />
    <inkscape:path-effect
       is_visible="true"
       id="path-effect4664"
       effect="spiro" />
    <linearGradient
       inkscape:collect="always"
       xlink:href="#linearGradient4492"
       id="linearGradient4888"
       gradientUnits="userSpaceOnUse"
       gradientTransform="matrix(0.6559816,0,0,0.64253524,81.43088,394.84819)"
       x1="141.53125"
       y1="26.628139"
       x2="149.75"
       y2="41.628139" />
    <linearGradient
       inkscape:collect="always"
       id="linearGradient4492">
      <stop
         style="stop-color:#ffffff;stop-opacity:1;"
         offset="0"
         id="stop4494" />
      <stop
         style="stop-color:#ffffff;stop-opacity:0;"
         offset="1"
         id="stop4496" />
    </linearGradient>
    <radialGradient
       inkscape:collect="always"
       xlink:href="#linearGradient3898"
       id="radialGradient4891"
       gradientUnits="userSpaceOnUse"
       gradientTransform="matrix(0.62142782,1.3505361e-8,-1.2266636e-8,0.53266754,86.786253,399.26407)"
       cx="156"
       cy="27.696297"
       fx="156"
       fy="27.696297"
       r="18" />
    <linearGradient
       id="linearGradient3898">
      <stop
         style="stop-color:#ffffff;stop-opacity:1;"
         offset="0"
         id="stop3900" />
      <stop
         id="stop4490"
         offset="0.5"
         style="stop-color:#ededed;stop-opacity:1;" />
      <stop
         style="stop-color:#c8c8c8;stop-opacity:1;"
         offset="1"
         id="stop3902" />
    </linearGradient>
    <radialGradient
       inkscape:collect="always"
       xlink:href="#linearGradient3890"
       id="radialGradient4860"
       gradientUnits="userSpaceOnUse"
       gradientTransform="matrix(1,0,0,0.33333332,0,27.229172)"
       cx="156.84373"
       cy="40.843758"
       fx="156.84373"
       fy="40.843758"
       r="10.968749" />
    <linearGradient
       inkscape:collect="always"
       id="linearGradient3890">
      <stop
         style="stop-color:#000000;stop-opacity:1;"
         offset="0"
         id="stop3892" />
      <stop
         style="stop-color:#000000;stop-opacity:0;"
         offset="1"
         id="stop3894" />
    </linearGradient>
    <radialGradient
       inkscape:collect="always"
       xlink:href="#linearGradient3906"
       id="radialGradient4895"
       gradientUnits="userSpaceOnUse"
       gradientTransform="matrix(0.47510423,-0.0024603,0.00106901,0.21483648,109.62658,406.66473)"
       cx="156.00658"
       cy="16.88216"
       fx="156.00658"
       fy="16.88216"
       r="16.99999" />
    <linearGradient
       id="linearGradient3906">
      <stop
         style="stop-color:#b37851;stop-opacity:1;"
         offset="0"
         id="stop3908" />
      <stop
         style="stop-color:#462e1e;stop-opacity:1;"
         offset="1"
         id="stop3910" />
    </linearGradient>
  </defs>
  <sodipodi:namedview
     id="base"
     pagecolor="#ffffff"
     bordercolor="#666666"
     borderopacity="1.0"
     inkscape:pageopacity="0.0"
     inkscape:pageshadow="2"
     inkscape:zoom="22.28125"
     inkscape:cx="16"
     inkscape:cy="16"
     inkscape:document-units="px"
     inkscape:current-layer="layer1"
     showgrid="false"
     fit-margin-top="0"
     fit-margin-left="0"
     fit-margin-right="0"
     fit-margin-bottom="0" />
  <metadata
     id="metadata6001">
    <rdf:RDF>
      <cc:Work
         rdf:about="">
        <dc:format>image/svg+xml</dc:format>
        <dc:type
           rdf:resource="http://purl.org/dc/dcmitype/StillImage" />
        <dc:title></dc:title>
      </cc:Work>
    </rdf:RDF>
  </metadata>
  <g
     inkscape:label="Capa 1"
     inkscape:groupmode="layer"
     id="layer1"
     transform="translate(-169.71428,-396.36218)">
    <path
       inkscape:connector-curvature="0"
       id="path4630"
       d="m 194.46692,412.92566 -0.66582,2.0747 2.75388,0 c 0.42353,0 0.71419,0.0774 0.58299,0.57633 l -0.41412,1.63447 c -0.1312,0.49894 -0.54965,0.70892 -0.97317,0.70892 l -2.96094,0 -0.60047,1.9421 3.06447,0 c 1.52491,0 3.07186,-1.18306 3.45787,-2.65102 l 0.41412,-1.63447 c 0.38603,-1.46797 -0.52497,-2.65103 -2.04988,-2.65103 z"
       style="opacity:0.98999999;color:#000000;fill:#dcdcdc;fill-opacity:1;fill-rule:nonzero;stroke:#969696;stroke-width:0.99999994;stroke-linecap:round;stroke-linejoin:round;stroke-miterlimit:4;stroke-opacity:1;stroke-dasharray:none;stroke-dashoffset:0;marker:none;visibility:visible;display:inline;overflow:visible;enable-background:accumulate"
       sodipodi:nodetypes="ccsccsccsccsc" />
    <path
       transform="matrix(0.74125507,0,0,0.74312168,24.639286,395.0351)"
       d="m 227.37498,19.937511 c 0,1.10457 -5.42854,2 -12.125,2 -6.69645,0 -12.12499,-0.89543 -12.12499,-2 0,-1.104569 5.42854,-1.999999 12.12499,-1.999999 6.69646,0 12.125,0.89543 12.125,1.999999 z"
       sodipodi:ry="1.9999998"
       sodipodi:rx="12.124999"
       sodipodi:cy="19.937511"
       sodipodi:cx="215.24998"
       id="path4632"
       style="opacity:0.98999999;color:#000000;fill:#52250c;fill-opacity:1;fill-rule:nonzero;stroke:#141414;stroke-width:1.34736788;stroke-linecap:round;stroke-linejoin:round;stroke-miterlimit:4;stroke-opacity:1;stroke-dasharray:none;stroke-dashoffset:0;marker:none;visibility:visible;display:inline;overflow:visible;enable-background:accumulate"
       sodipodi:type="arc" />
    <path
       sodipodi:nodetypes="sssss"
       inkscape:connector-curvature="0"
       id="path4634"
       d="m 183.764,405.86219 c -6.34422,0 -11.47967,1.57413 -11.47967,3.50391 0,1.92978 5.13545,3.50392 11.47967,3.50392 6.34425,0 11.47968,-1.57414 11.47968,-3.50392 0,-1.92978 -5.13543,-3.50391 -11.47968,-3.50391 z"
       style="opacity:0.98999999;color:#000000;fill:#dcdcdc;fill-opacity:1;stroke:#969696;stroke-width:1.00000012;stroke-linecap:round;stroke-linejoin:round;stroke-miterlimit:4;stroke-opacity:1;stroke-dasharray:none;stroke-dashoffset:0;marker:none;visibility:visible;display:inline;overflow:visible;enable-background:accumulate" />
    <path
       sodipodi:nodetypes="sssss"
       inkscape:connector-curvature="0"
       id="path4636"
       d="m 183.764,408.86218 c -5.98169,0 -10.82368,1.49047 -10.82368,3.31767 0,1.8272 4.84199,3.31766 10.82368,3.31766 5.98171,0 10.8237,-1.49046 10.8237,-3.31766 0,-1.8272 -4.84199,-3.31767 -10.8237,-3.31767 z"
       style="opacity:0.98999999;color:#000000;fill:url(#radialGradient4895);fill-opacity:1;stroke:#bf8d6d;stroke-width:1.00000012;stroke-linecap:round;stroke-linejoin:round;stroke-miterlimit:4;stroke-opacity:1;stroke-dasharray:none;stroke-dashoffset:0;marker:none;visibility:visible;display:inline;overflow:visible;enable-background:accumulate" />
    <path
       transform="matrix(0.8722977,0,0,0.89828844,46.949576,388.38834)"
       d="m 167.81248,40.843758 c 0,2.01929 -4.91087,3.656249 -10.96875,3.656249 -6.05787,0 -10.96874,-1.636959 -10.96874,-3.656249 0,-2.019291 4.91087,-3.65625 10.96874,-3.65625 6.05788,0 10.96875,1.636959 10.96875,3.65625 z"
       sodipodi:ry="3.6562495"
       sodipodi:rx="10.968749"
       sodipodi:cy="40.843758"
       sodipodi:cx="156.84373"
       id="path4638"
       style="opacity:0.4;color:#000000;fill:url(#radialGradient4860);fill-opacity:1;fill-rule:nonzero;stroke:none;stroke-width:0.75855237;marker:none;visibility:visible;display:inline;overflow:visible;enable-background:accumulate"
       sodipodi:type="arc" />
    <path
       inkscape:connector-curvature="0"
       id="path4640"
       d="m 194.95819,409.86218 c -0.17821,1.72552 -5.12297,3.12306 -11.22921,3.12306 -5.99739,0 -10.88752,-1.35008 -11.2292,-3.03253 -0.12132,0.11302 -0.22089,0.2368 -0.28549,0.36209 0,6.93929 3.87959,15.54738 11.39574,15.54738 8.05227,0 11.5113,-8.44428 11.63364,-15.54738 1e-5,-0.15663 -0.10442,-0.30968 -0.28548,-0.45262 z"
       style="opacity:0.98999999;color:#000000;fill:url(#radialGradient4891);fill-opacity:1;stroke:#969696;stroke-width:1;stroke-linecap:round;stroke-linejoin:round;stroke-miterlimit:4;stroke-opacity:1;stroke-dashoffset:0;marker:none;visibility:visible;display:inline;overflow:visible;enable-background:accumulate" />
    <path
       sodipodi:nodetypes="cccc"
       inkscape:connector-curvature="0"
       id="path4642"
       d="m 173.94478,411.79909 c 0.87276,4.88684 3.39699,10.11322 7.52329,11.88286 -2.95367,-2.53805 -4.64436,-7.03469 -5.09587,-11.10281 -0.90443,-0.16661 -1.72982,-0.54856 -2.42742,-0.78005 z"
       style="opacity:0.98999999;color:#000000;fill:url(#linearGradient4888);fill-opacity:1;stroke:none;stroke-width:0.99999994;marker:none;visibility:visible;display:inline;overflow:visible;enable-background:accumulate" />
    <path
       inkscape:original-d="m 184.74335,403.86202 c 0,0 1.44415,-1.37825 1.23136,-2.19363 -0.2378,-0.9113 -2.15527,-0.50117 -2.38517,-1.41461 -0.22587,-0.89757 1.39394,-2.38387 1.39394,-2.38387"
       inkscape:path-effect="#path-effect4664"
       sodipodi:nodetypes="cssc"
       inkscape:connector-curvature="0"
       id="path4644"
       d="m 184.74335,403.86202 c 0.26572,0.0327 0.54083,-0.0155 0.7797,-0.13635 0.23887,-0.12089 0.44055,-0.31409 0.57159,-0.54754 0.13105,-0.23345 0.19094,-0.50624 0.16974,-0.77312 -0.0212,-0.26688 -0.12341,-0.52678 -0.28967,-0.73662 -0.14514,-0.18318 -0.33576,-0.32639 -0.53974,-0.44048 -0.20398,-0.11408 -0.42205,-0.2005 -0.64003,-0.28481 -0.43596,-0.16864 -0.89239,-0.34216 -1.2054,-0.68932 -0.20421,-0.22649 -0.3341,-0.51892 -0.36524,-0.82228 -0.0311,-0.30337 0.0366,-0.61609 0.19056,-0.87934 0.15394,-0.26325 0.39324,-0.47568 0.67289,-0.59731 0.27965,-0.12163 0.5982,-0.15184 0.89573,-0.0849"
       style="opacity:0.7;fill:none;stroke:url(#linearGradient4885);stroke-width:1px;stroke-linecap:round;stroke-linejoin:miter;stroke-opacity:1;display:inline;enable-background:new" />
    <path
       style="opacity:0.7;fill:none;stroke:url(#linearGradient4882);stroke-width:1px;stroke-linecap:round;stroke-linejoin:miter;stroke-opacity:1;display:inline;enable-background:new"
       d="m 189.77982,403.86159 c 0.2682,0.04 0.54817,-0.003 0.79235,-0.12049 0.24417,-0.11796 0.45155,-0.3108 0.5869,-0.54578 0.13535,-0.23499 0.19811,-0.51113 0.17762,-0.78153 -0.0205,-0.2704 -0.12413,-0.53393 -0.29334,-0.74584 -0.14873,-0.18626 -0.34455,-0.33072 -0.55389,-0.44468 -0.20935,-0.11397 -0.433,-0.19896 -0.65652,-0.28175 -0.44703,-0.16557 -0.91574,-0.33608 -1.23708,-0.6882 -0.20867,-0.22866 -0.34119,-0.52566 -0.37199,-0.83368 -0.0308,-0.30803 0.0403,-0.62539 0.19958,-0.89083 0.15927,-0.26545 0.40583,-0.47752 0.69211,-0.5953 0.28628,-0.11777 0.61071,-0.1406 0.91066,-0.0641"
       id="path4646"
       inkscape:connector-curvature="0"
       sodipodi:nodetypes="cssc"
       inkscape:path-effect="#path-effect4668"
       inkscape:original-d="m 189.77982,403.86159 c 0,0 1.48187,-1.37826 1.26353,-2.19364 -0.24403,-0.91131 -2.21159,-0.50118 -2.44749,-1.41463 -0.23178,-0.89757 1.43036,-2.38389 1.43036,-2.38389" />
    <path
       style="opacity:0.7;fill:none;stroke:url(#linearGradient4879);stroke-width:1px;stroke-linecap:round;stroke-linejoin:miter;stroke-opacity:1;display:inline;enable-background:new"
       d="m 179.73644,403.86218 c 0.26514,0.0311 0.53918,-0.0181 0.77691,-0.13954 0.23774,-0.12146 0.43821,-0.31467 0.56836,-0.54776 0.13015,-0.23309 0.18944,-0.50513 0.16811,-0.77124 -0.0213,-0.2661 -0.12322,-0.52522 -0.28884,-0.7346 -0.14438,-0.18252 -0.3339,-0.32545 -0.53674,-0.43953 -0.20283,-0.11409 -0.41972,-0.20077 -0.63651,-0.28538 -0.4336,-0.16922 -0.88743,-0.34332 -1.19867,-0.6894 -0.20325,-0.22601 -0.33258,-0.51745 -0.36378,-0.8198 -0.0312,-0.30235 0.0359,-0.61406 0.18871,-0.87681 0.15282,-0.26275 0.39058,-0.47519 0.66882,-0.59757 0.27823,-0.12238 0.5955,-0.15408 0.89244,-0.0892"
       id="path4648"
       inkscape:connector-curvature="0"
       sodipodi:nodetypes="cssc"
       inkscape:path-effect="#path-effect4672"
       inkscape:original-d="m 179.73644,403.86218 c 0,0 1.43611,-1.37795 1.22454,-2.19314 -0.2365,-0.9111 -2.14333,-0.50106 -2.37192,-1.41431 -0.22463,-0.89737 1.38619,-2.38334 1.38619,-2.38334" />
    <path
       sodipodi:nodetypes="sssss"
       inkscape:connector-curvature="0"
       id="path4650"
       d="m 183.764,406.86218 c -5.81404,0 -10.52033,1.58698 -10.52033,3.5325 0,1.94552 4.70629,3.5325 10.52033,3.5325 5.81407,0 10.52034,-1.58698 10.52034,-3.5325 0,-1.94552 -4.70627,-3.5325 -10.52034,-3.5325 z"
       style="opacity:0.98999999;color:#000000;fill:none;stroke:url(#linearGradient4876);stroke-width:1.00000012;stroke-linecap:round;stroke-linejoin:round;stroke-miterlimit:4;stroke-opacity:1;stroke-dasharray:none;stroke-dashoffset:0;marker:none;visibility:visible;display:inline;overflow:visible;enable-background:accumulate" />
    <path
       sodipodi:open="true"
       sodipodi:end="2.6724541"
       sodipodi:start="0.4538131"
       transform="matrix(0.25990381,6.8990414e-4,-6.3786214e-4,0.24068068,165.93035,397.53239)"
       d="M 108.94581,59.755445 C 98.074338,66.731494 71.193071,69.628279 48.904815,66.225595 40.1129,64.883359 32.961926,62.679202 28.539292,59.948294"
       sodipodi:ry="14.053746"
       sodipodi:rx="44.901276"
       sodipodi:cy="53.594341"
       sodipodi:cx="68.589348"
       id="path4652"
       style="color:#000000;fill:none;stroke:#ffffff;stroke-width:3.9982655;stroke-linecap:round;stroke-linejoin:round;stroke-miterlimit:4;stroke-opacity:1;stroke-dasharray:none;stroke-dashoffset:0;marker:none;visibility:visible;display:inline;overflow:visible;enable-background:accumulate"
       sodipodi:type="arc" />
  </g>
</svg>
