<?xml version="1.0" encoding="UTF-8" standalone="no"?>
<!-- Created with Inkscape (http://www.inkscape.org/) -->

<svg
   xmlns:dc="http://purl.org/dc/elements/1.1/"
   xmlns:cc="http://creativecommons.org/ns#"
   xmlns:rdf="http://www.w3.org/1999/02/22-rdf-syntax-ns#"
   xmlns:svg="http://www.w3.org/2000/svg"
   xmlns="http://www.w3.org/2000/svg"
   xmlns:xlink="http://www.w3.org/1999/xlink"
   xmlns:sodipodi="http://sodipodi.sourceforge.net/DTD/sodipodi-0.dtd"
   xmlns:inkscape="http://www.inkscape.org/namespaces/inkscape"
   width="32"
   height="32"
   id="svg4726"
   version="1.1"
   inkscape:version="0.48.1 r9760"
   sodipodi:docname="Nuevo documento 16">
  <defs
     id="defs4728">
    <radialGradient
       inkscape:collect="always"
       xlink:href="#linearGradient3958"
       id="radialGradient4142"
       gradientUnits="userSpaceOnUse"
       gradientTransform="matrix(-1.6714658e-7,2.9918491,-3.024999,-2.6609829e-7,223.11601,-463.40784)"
       cx="156.36618"
       cy="21.664389"
       fx="156.36618"
       fy="21.664389"
       r="17.375" />
    <linearGradient
       id="linearGradient3958">
      <stop
         offset="0"
         style="stop-color:#8badea;stop-opacity:1"
         id="stop3960" />
      <stop
         offset="0.26238"
         style="stop-color:#6396cd;stop-opacity:1"
         id="stop3962" />
      <stop
         offset="0.66093999"
         style="stop-color:#3b7caf;stop-opacity:1"
         id="stop3964" />
      <stop
         offset="1"
         style="stop-color:#194c70;stop-opacity:1"
         id="stop3966" />
    </linearGradient>
    <radialGradient
       inkscape:collect="always"
       xlink:href="#linearGradient3948"
       id="radialGradient4144"
       gradientUnits="userSpaceOnUse"
       gradientTransform="matrix(0,3.912552,-3.3335086,1.0031662e-6,215.14741,-598.76563)"
       cx="154.3412"
       cy="18.170469"
       fx="154.3412"
       fy="18.170469"
       r="14.234375" />
    <linearGradient
       id="linearGradient3948">
      <stop
         offset="0"
         style="stop-color:#487ede;stop-opacity:1;"
         id="stop3950" />
      <stop
         offset="0.26238"
         style="stop-color:#366eaa;stop-opacity:1;"
         id="stop3952" />
      <stop
         offset="0.66093999"
         style="stop-color:#275273;stop-opacity:1;"
         id="stop3954" />
      <stop
         offset="1"
         style="stop-color:#0a1f2e;stop-opacity:1;"
         id="stop3956" />
    </linearGradient>
    <linearGradient
       inkscape:collect="always"
       xlink:href="#linearGradient3899"
       id="linearGradient4146"
       gradientUnits="userSpaceOnUse"
       x1="157.8125"
       y1="7.2968769"
       x2="157.8125"
       y2="47.430099" />
    <linearGradient
       inkscape:collect="always"
       id="linearGradient3899">
      <stop
         style="stop-color:#ffffff;stop-opacity:1;"
         offset="0"
         id="stop3901" />
      <stop
         style="stop-color:#ffffff;stop-opacity:0;"
         offset="1"
         id="stop3903" />
    </linearGradient>
    <linearGradient
       inkscape:collect="always"
       xlink:href="#linearGradient3907"
       id="linearGradient4148"
       gradientUnits="userSpaceOnUse"
       gradientTransform="matrix(1,0,0,0.99854862,0,0.07039186)"
       x1="152.59052"
       y1="5.2252188"
       x2="152.59052"
       y2="48.276367" />
    <linearGradient
       id="linearGradient3907"
       inkscape:collect="always">
      <stop
         id="stop3909"
         offset="0"
         style="stop-color:#4083c2;stop-opacity:1" />
      <stop
         id="stop3911"
         offset="1"
         style="stop-color:#1f4b6a;stop-opacity:1" />
    </linearGradient>
    <radialGradient
       inkscape:collect="always"
       xlink:href="#linearGradient3978"
       id="radialGradient4150"
       gradientUnits="userSpaceOnUse"
       cx="159.98289"
       cy="34.237293"
       fx="159.98289"
       fy="34.237293"
       r="9.7227173" />
    <linearGradient
       inkscape:collect="always"
       id="linearGradient3978">
      <stop
         style="stop-color:#ffffff;stop-opacity:1;"
         offset="0"
         id="stop3980" />
      <stop
         style="stop-color:#ffffff;stop-opacity:0;"
         offset="1"
         id="stop3982" />
    </linearGradient>
    <radialGradient
       r="10.625"
       fy="4.625"
       fx="62.625"
       cy="4.625"
       cx="62.625"
       gradientTransform="matrix(1.3647059,0,0,0.34117594,160.24958,331.35567)"
       gradientUnits="userSpaceOnUse"
       id="radialGradient3022-5"
       xlink:href="#linearGradient8838"
       inkscape:collect="always" />
    <linearGradient
       id="linearGradient8838">
      <stop
         id="stop8840"
         style="stop-color:#000000;stop-opacity:1"
         offset="0" />
      <stop
         id="stop8842"
         style="stop-color:#000000;stop-opacity:0"
         offset="1" />
    </linearGradient>
  </defs>
  <sodipodi:namedview
     id="base"
     pagecolor="#ffffff"
     bordercolor="#666666"
     borderopacity="1.0"
     inkscape:pageopacity="0.0"
     inkscape:pageshadow="2"
     inkscape:zoom="22.28125"
     inkscape:cx="16"
     inkscape:cy="16"
     inkscape:document-units="px"
     inkscape:current-layer="layer1"
     showgrid="false"
     fit-margin-top="0"
     fit-margin-left="0"
     fit-margin-right="0"
     fit-margin-bottom="0" />
  <metadata
     id="metadata4731">
    <rdf:RDF>
      <cc:Work
         rdf:about="">
        <dc:format>image/svg+xml</dc:format>
        <dc:type
           rdf:resource="http://purl.org/dc/dcmitype/StillImage" />
        <dc:title></dc:title>
      </cc:Work>
    </rdf:RDF>
  </metadata>
  <g
     inkscape:label="Capa 1"
     inkscape:groupmode="layer"
     id="layer1"
     transform="translate(-229.71428,-304.93362)">
    <path
       inkscape:connector-curvature="0"
       d="m 260.21429,332.93361 c 0,2.00203 -6.49187,3.625 -14.5,3.625 -8.00812,0 -14.5,-1.62297 -14.5,-3.625 0,-2.00203 6.49188,-3.625 14.5,-3.625 8.00813,0 14.5,1.62297 14.5,3.625 l 0,0 z"
       id="path8836-8"
       style="opacity:0.3;fill:url(#radialGradient3022-5);fill-opacity:1;fill-rule:evenodd;stroke:none;stroke-width:0.99999988;marker:none;visibility:visible;display:inline;overflow:visible;enable-background:new" />
    <g
       style="display:inline;enable-background:new"
       transform="matrix(0.68181818,0,0,0.68181818,137.60286,302.36543)"
       id="g4130">
      <path
         style="color:#000000;fill:url(#radialGradient4142);fill-opacity:1;stroke:none;stroke-width:1;marker:none;visibility:visible;display:inline;overflow:visible;enable-background:accumulate"
         d="m 157.59467,5.4999997 c -4.24401,6.1246933 -8.2697,12.4087313 -12.375,18.6291733 -1.11004,1.914625 -2.13766,3.59152 -2.84375,5.398403 -0.4462,1.326629 -0.6875,2.728252 -0.6875,4.181422 0,8.164734 7.55123,14.791002 16.875,14.791002 9.32377,0 16.875,-6.626268 16.875,-14.791002 -0.0362,-1.787658 -0.40835,-3.325858 -0.84375,-4.587082 -0.87351,-2.341333 -2.88896,-4.670833 -4.125,-6.58418 -4.18129,-5.757393 -8.79026,-11.210869 -12.875,-17.0377363 z"
         id="path4132"
         inkscape:connector-curvature="0"
         sodipodi:nodetypes="cccsscccc" />
      <path
         sodipodi:type="inkscape:offset"
         inkscape:radius="-0.39710286"
         inkscape:original="M 155.9375 16.3125 C 152.75314 16.44026 149.90625 17.09375 149.90625 17.09375 L 149.6875 17.21875 C 148.19124 19.505525 146.72173 21.813092 145.21875 24.09375 C 144.10871 26.011158 143.08109 27.690491 142.375 29.5 C 141.9288 30.828557 141.6875 32.232217 141.6875 33.6875 C 141.6875 41.864101 149.23873 48.5 158.5625 48.5 C 162.668 48.5 166.45019 47.200737 169.375 45.0625 C 165.03252 43.916223 159.50006 42.205515 156.34375 40.1875 C 146.22104 32.716551 151.52833 20.205017 163.59375 22.6875 C 166.73864 23.334567 170.15625 29.75 170.15625 29.75 C 170.15625 29.75 168.3495 19.452055 161.46875 16.9375 C 159.87221 16.354049 157.84812 16.235844 155.9375 16.3125 z "
         style="fill:url(#radialGradient4144);fill-opacity:1;stroke:none"
         id="path4134"
         d="m 155.96875,16.71875 c -3.05625,0.12262 -5.73097,0.686171 -5.875,0.71875 L 150,17.46875 c -0.005,0.0073 0.005,0.02395 0,0.03125 -1.47663,2.257795 -2.95002,4.523622 -4.4375,6.78125 -0.005,0.0083 0.005,0.023 0,0.03125 -1.1019,1.902588 -2.12676,3.564149 -2.8125,5.3125 -0.003,0.0095 0.003,0.02176 0,0.03125 -0.42698,1.281043 -0.65625,2.630241 -0.65625,4.03125 0,7.932114 7.3334,14.40625 16.46875,14.40625 3.70914,0 7.12348,-1.100449 9.875,-2.90625 -4.21603,-1.142115 -9.26016,-2.704712 -12.3125,-4.65625 A 0.39714257,0.39714257 0 0 1 156.09375,40.5 c -5.17325,-3.818058 -6.45852,-9.003562 -4.8125,-12.9375 1.64602,-3.933938 6.2333,-6.520097 12.40625,-5.25 1.79837,0.370019 3.41986,2.19433 4.6875,3.90625 0.26738,0.361096 0.42899,0.629732 0.65625,0.96875 -0.26547,-0.84909 -0.52648,-1.707214 -1,-2.75 -1.28925,-2.83918 -3.40075,-5.923864 -6.6875,-7.125 -1.51115,-0.552246 -3.49194,-0.6693 -5.375,-0.59375 z" />
      <path
         sodipodi:type="inkscape:offset"
         inkscape:radius="-1.5350826"
         inkscape:original="M 157.59375 5.5 C 153.34974 11.624693 149.32405 17.904558 145.21875 24.125 C 144.10871 26.039625 143.08109 27.724367 142.375 29.53125 C 141.9288 30.857879 141.6875 32.26558 141.6875 33.71875 C 141.6875 41.883484 149.23873 48.5 158.5625 48.5 C 167.88627 48.5 175.4375 41.883484 175.4375 33.71875 C 175.4013 31.931092 175.02915 30.386224 174.59375 29.125 C 173.72024 26.783667 171.70479 24.444597 170.46875 22.53125 C 166.28746 16.773857 161.67849 11.326867 157.59375 5.5 z "
         style="opacity:0.4;color:#000000;fill:none;stroke:url(#linearGradient4146);stroke-width:1.4666667;stroke-linecap:round;stroke-linejoin:miter;stroke-miterlimit:4;stroke-opacity:1;stroke-dasharray:none;stroke-dashoffset:0;marker:none;visibility:visible;display:inline;overflow:visible;enable-background:accumulate"
         id="path4136"
         d="m 157.6875,8.125 c -3.7809,5.53084 -7.44327,11.154267 -11.15625,16.78125 -0.0134,0.02305 -0.0179,0.03954 -0.0312,0.0625 -1.09026,1.879016 -2.02354,3.463942 -2.65625,5.0625 -0.39491,1.174127 -0.625,2.404264 -0.625,3.6875 0,7.218244 6.74622,13.25 15.34375,13.25 8.58506,0 15.32423,-6.014435 15.34375,-13.21875 -2.4e-4,-0.01168 2.7e-4,-0.01959 0,-0.03125 -0.0361,-1.566215 -0.35953,-2.92529 -0.75,-4.0625 -0.003,-0.0085 0.003,-0.02281 0,-0.03125 -0.72009,-1.908679 -2.60521,-4.13683 -3.9375,-6.1875 -0.012,-0.01849 -0.0193,-0.04404 -0.0312,-0.0625 -3.69909,-5.088273 -7.72338,-10.051597 -11.5,-15.25 z" />
      <path
         sodipodi:nodetypes="cccsscccc"
         inkscape:connector-curvature="0"
         id="path4138"
         d="m 157.59467,5.4999997 c -4.24401,6.1246933 -8.2697,12.4087313 -12.375,18.6291733 -1.11004,1.914625 -2.13766,3.59152 -2.84375,5.398403 -0.4462,1.326629 -0.6875,2.728252 -0.6875,4.181422 0,8.164734 7.55123,14.791002 16.875,14.791002 9.32377,0 16.875,-6.626268 16.875,-14.791002 -0.0362,-1.787658 -0.40835,-3.325858 -0.84375,-4.587082 -0.87351,-2.341333 -2.88896,-4.670833 -4.125,-6.58418 -4.18129,-5.757393 -8.79026,-11.210869 -12.875,-17.0377363 z"
         style="color:#000000;fill:none;stroke:url(#linearGradient4148);stroke-width:1.4666667;stroke-linecap:round;stroke-linejoin:round;stroke-miterlimit:4;stroke-opacity:1;stroke-dasharray:none;stroke-dashoffset:0;marker:none;visibility:visible;display:inline;overflow:visible;enable-background:accumulate" />
      <path
         sodipodi:type="arc"
         style="opacity:0.5;color:#000000;fill:url(#radialGradient4150);fill-opacity:1;stroke:none;stroke-width:0.82709104;marker:none;visibility:visible;display:inline;overflow:visible;enable-background:accumulate"
         id="path4140"
         sodipodi:cx="159.98289"
         sodipodi:cy="34.237293"
         sodipodi:rx="9.7227173"
         sodipodi:ry="9.7227173"
         d="m 169.70561,34.237293 c 0,5.369709 -4.35301,9.722718 -9.72272,9.722718 -5.3697,0 -9.72271,-4.353009 -9.72271,-9.722718 0,-5.369708 4.35301,-9.722717 9.72271,-9.722717 5.36971,0 9.72272,4.353009 9.72272,9.722717 z"
         transform="matrix(1.4181819,0,0,1.3636364,-68.492928,-13.864138)" />
    </g>
  </g>
</svg>
