<?xml version="1.0" encoding="UTF-8" standalone="no"?>
<!-- Created with Inkscape (http://www.inkscape.org/) -->

<svg
   xmlns:dc="http://purl.org/dc/elements/1.1/"
   xmlns:cc="http://creativecommons.org/ns#"
   xmlns:rdf="http://www.w3.org/1999/02/22-rdf-syntax-ns#"
   xmlns:svg="http://www.w3.org/2000/svg"
   xmlns="http://www.w3.org/2000/svg"
   xmlns:xlink="http://www.w3.org/1999/xlink"
   xmlns:sodipodi="http://sodipodi.sourceforge.net/DTD/sodipodi-0.dtd"
   xmlns:inkscape="http://www.inkscape.org/namespaces/inkscape"
   width="32"
   height="32"
   id="svg7846"
   version="1.1"
   inkscape:version="0.48.1 r9760"
   sodipodi:docname="liferea32.svg">
  <defs
     id="defs7848">
    <radialGradient
       inkscape:collect="always"
       xlink:href="#linearGradient8838-6"
       id="radialGradient6338"
       gradientUnits="userSpaceOnUse"
       gradientTransform="matrix(1,0,0,0.341176,0,3.047059)"
       cx="62.625"
       cy="4.625"
       fx="62.625"
       fy="4.625"
       r="10.625" />
    <linearGradient
       id="linearGradient8838-6">
      <stop
         id="stop8840-2"
         style="stop-color:#000000;stop-opacity:1"
         offset="0" />
      <stop
         id="stop8842-3"
         style="stop-color:#000000;stop-opacity:0"
         offset="1" />
    </linearGradient>
    <radialGradient
       inkscape:collect="always"
       xlink:href="#linearGradient2867-449-88-871-390-598-476-591-434-148-0"
       id="radialGradient6340"
       gradientUnits="userSpaceOnUse"
       gradientTransform="matrix(0,3.5234091,-3.5234073,0,-6.7439676,-205.79862)"
       cx="61.240059"
       cy="-8.7256308"
       fx="61.240059"
       fy="-8.7256308"
       r="9.7552834" />
    <linearGradient
       id="linearGradient2867-449-88-871-390-598-476-591-434-148-0">
      <stop
         id="stop4627-3"
         style="stop-color:#51cfee;stop-opacity:1"
         offset="0" />
      <stop
         id="stop4629-6"
         style="stop-color:#49a3d2;stop-opacity:1"
         offset="0.26238" />
      <stop
         id="stop4631-4"
         style="stop-color:#3470b4;stop-opacity:1"
         offset="0.704952" />
      <stop
         id="stop4633-7"
         style="stop-color:#273567;stop-opacity:1"
         offset="1" />
    </linearGradient>
    <linearGradient
       inkscape:collect="always"
       xlink:href="#linearGradient3707-319-631-6"
       id="linearGradient6342"
       gradientUnits="userSpaceOnUse"
       gradientTransform="matrix(0.98001402,0,0,0.97999168,0.08994011,0.8703621)"
       x1="20"
       y1="43"
       x2="20"
       y2="2.6887112" />
    <linearGradient
       id="linearGradient3707-319-631-6">
      <stop
         id="stop4637-5"
         style="stop-color:#254b6d;stop-opacity:1"
         offset="0" />
      <stop
         id="stop4639-8"
         style="stop-color:#415b73;stop-opacity:1"
         offset="0.5" />
      <stop
         id="stop4641-4"
         style="stop-color:#6195b5;stop-opacity:1"
         offset="1" />
    </linearGradient>
    <linearGradient
       inkscape:collect="always"
       xlink:href="#linearGradient4873-3"
       id="linearGradient6344"
       gradientUnits="userSpaceOnUse"
       gradientTransform="matrix(1.9605316,0,0,1.9604868,-97.945851,30.882946)"
       x1="62.200409"
       y1="-12.489107"
       x2="62.200409"
       y2="-1.4615115" />
    <linearGradient
       id="linearGradient4873-3">
      <stop
         id="stop4875-3"
         style="stop-color:#ffffff;stop-opacity:1"
         offset="0" />
      <stop
         id="stop4877-0"
         style="stop-color:#ffffff;stop-opacity:0"
         offset="1" />
    </linearGradient>
    <linearGradient
       inkscape:collect="always"
       xlink:href="#linearGradient4035"
       id="linearGradient5758"
       gradientUnits="userSpaceOnUse"
       x1="157.79547"
       y1="20.110691"
       x2="157.79547"
       y2="47.532818" />
    <linearGradient
       inkscape:collect="always"
       id="linearGradient4035">
      <stop
         style="stop-color:#ffffff;stop-opacity:1;"
         offset="0"
         id="stop4037" />
      <stop
         style="stop-color:#ffffff;stop-opacity:0;"
         offset="1"
         id="stop4039" />
    </linearGradient>
    <linearGradient
       inkscape:collect="always"
       xlink:href="#linearGradient4015"
       id="linearGradient5754"
       gradientUnits="userSpaceOnUse"
       gradientTransform="matrix(0.74358018,0,0,0.815579,79.656997,386.3066)"
       x1="158.90813"
       y1="48.431599"
       x2="158.90813"
       y2="19.244049" />
    <linearGradient
       id="linearGradient4015">
      <stop
         style="stop-color:#8c8c8c;stop-opacity:1;"
         offset="0"
         id="stop4017" />
      <stop
         id="stop4029"
         offset="0.03117742"
         style="stop-color:#969696;stop-opacity:1;" />
      <stop
         id="stop4027"
         offset="0.0741232"
         style="stop-color:#a0a0a0;stop-opacity:1;" />
      <stop
         id="stop4025"
         offset="0.15525444"
         style="stop-color:#dcdcdc;stop-opacity:1;" />
      <stop
         id="stop4023"
         offset="0.5"
         style="stop-color:#e1e1e1;stop-opacity:1;" />
      <stop
         style="stop-color:#e6e6e6;stop-opacity:1;"
         offset="1"
         id="stop4019" />
    </linearGradient>
    <linearGradient
       inkscape:collect="always"
       xlink:href="#linearGradient5648"
       id="linearGradient5756"
       gradientUnits="userSpaceOnUse"
       x1="153.67767"
       y1="48.531219"
       x2="153.67767"
       y2="12.64398"
       gradientTransform="matrix(0.67440993,0,0,0.66478181,90.585897,393.62027)" />
    <linearGradient
       id="linearGradient5648">
      <stop
         style="stop-color:#646464;stop-opacity:1;"
         offset="0"
         id="stop5650" />
      <stop
         style="stop-color:#b4b4b4;stop-opacity:1;"
         offset="1"
         id="stop5652" />
    </linearGradient>
    <radialGradient
       inkscape:collect="always"
       xlink:href="#linearGradient3688"
       id="radialGradient5748"
       gradientUnits="userSpaceOnUse"
       gradientTransform="matrix(2.003784,0,0,1.4,27.98813,-17.4)"
       cx="4.9929786"
       cy="43.5"
       fx="4.9929786"
       fy="43.5"
       r="2.5" />
    <linearGradient
       id="linearGradient3688">
      <stop
         id="stop3690"
         style="stop-color:#000000;stop-opacity:1"
         offset="0" />
      <stop
         id="stop3692"
         style="stop-color:#000000;stop-opacity:0"
         offset="1" />
    </linearGradient>
    <radialGradient
       inkscape:collect="always"
       xlink:href="#linearGradient3688"
       id="radialGradient5750"
       gradientUnits="userSpaceOnUse"
       gradientTransform="matrix(2.003784,0,0,1.4,-20.01187,-104.4)"
       cx="4.9929786"
       cy="43.5"
       fx="4.9929786"
       fy="43.5"
       r="2.5" />
    <linearGradient
       inkscape:collect="always"
       xlink:href="#linearGradient3702"
       id="linearGradient5752"
       gradientUnits="userSpaceOnUse"
       x1="25.058096"
       y1="47.027729"
       x2="25.058096"
       y2="39.999443" />
    <linearGradient
       id="linearGradient3702">
      <stop
         id="stop3704"
         style="stop-color:#000000;stop-opacity:0"
         offset="0" />
      <stop
         id="stop3710"
         style="stop-color:#000000;stop-opacity:1"
         offset="0.5" />
      <stop
         id="stop3706"
         style="stop-color:#000000;stop-opacity:0"
         offset="1" />
    </linearGradient>
  </defs>
  <sodipodi:namedview
     id="base"
     pagecolor="#ffffff"
     bordercolor="#666666"
     borderopacity="1.0"
     inkscape:pageopacity="0.0"
     inkscape:pageshadow="2"
     inkscape:zoom="22.28125"
     inkscape:cx="16"
     inkscape:cy="16"
     inkscape:document-units="px"
     inkscape:current-layer="layer1"
     showgrid="false"
     fit-margin-top="0"
     fit-margin-left="0"
     fit-margin-right="0"
     fit-margin-bottom="0" />
  <metadata
     id="metadata7851">
    <rdf:RDF>
      <cc:Work
         rdf:about="">
        <dc:format>image/svg+xml</dc:format>
        <dc:type
           rdf:resource="http://purl.org/dc/dcmitype/StillImage" />
        <dc:title />
      </cc:Work>
    </rdf:RDF>
  </metadata>
  <g
     inkscape:label="Capa 1"
     inkscape:groupmode="layer"
     id="layer1"
     transform="translate(-181.14285,-396.36218)">
    <g
       transform="matrix(0.79999073,0,0,0.2954589,177.9429,413.47562)"
       id="g5672"
       style="display:inline;enable-background:new">
      <g
         transform="matrix(1.052632,0,0,1.285713,-1.263158,-13.42854)"
         id="g5674"
         style="opacity:0.4">
        <rect
           width="5"
           height="7"
           x="38"
           y="40"
           id="rect5676"
           style="fill:url(#radialGradient5748);fill-opacity:1;stroke:none" />
        <rect
           width="5"
           height="7"
           x="-10"
           y="-47"
           transform="scale(-1,-1)"
           id="rect5678"
           style="fill:url(#radialGradient5750);fill-opacity:1;stroke:none" />
        <rect
           width="28"
           height="7.0000005"
           x="10"
           y="40"
           id="rect5680"
           style="fill:url(#linearGradient5752);fill-opacity:1;stroke:none" />
      </g>
    </g>
    <path
       sodipodi:nodetypes="ccssccc"
       inkscape:connector-curvature="0"
       id="path5682"
       d="m 182.64286,401.93004 c 0,6.91543 0,13.83086 0,20.74629 0,1.75721 1.2793,3.18585 2.88138,3.18585 l 23.23687,0 c 1.60209,0 2.88137,-1.42864 2.88137,-3.18585 0,-6.98752 0,-13.83086 0,-20.74629 -9.66653,0 -19.33307,0 -28.99962,0 z"
       style="color:#000000;fill:url(#linearGradient5754);fill-opacity:1;stroke:url(#linearGradient5756);stroke-width:1;stroke-linecap:round;stroke-linejoin:round;stroke-miterlimit:4;stroke-opacity:1;stroke-dasharray:none;stroke-dashoffset:0;marker:none;visibility:visible;display:inline;overflow:visible;enable-background:accumulate" />
    <path
       transform="matrix(0.72713297,0,0,0.81051317,82.252682,386.62699)"
       d="m 139.46875,20.125 0,24.46875 c 0,1.63697 1.27869,2.9375 2.90625,2.9375 l 31.25,0 c 1.62756,0 2.90625,-1.30053 2.90625,-2.9375 l 0,-24.46875 -37.0625,0 z"
       id="path5684"
       style="color:#000000;fill:none;stroke:url(#linearGradient5758);stroke-width:1.30260575;stroke-linecap:round;stroke-linejoin:round;stroke-miterlimit:4;stroke-opacity:1;stroke-dasharray:none;stroke-dashoffset:0;marker:none;visibility:visible;display:inline;overflow:visible;enable-background:accumulate"
       inkscape:original="M 138.5 19.15625 L 138.5 44.59375 C 138.5 46.748304 140.22045 48.5 142.375 48.5 L 173.625 48.5 C 175.77955 48.5 177.5 46.748304 177.5 44.59375 L 177.5 19.15625 L 138.5 19.15625 z "
       inkscape:radius="-0.97227168"
       sodipodi:type="inkscape:offset" />
    <g
       transform="scale(1.0211091,0.97932728)"
       style="font-size:7.97433043px;font-style:normal;font-variant:normal;font-weight:500;font-stretch:normal;text-align:start;line-height:125%;letter-spacing:0px;word-spacing:0px;writing-mode:lr-tb;text-anchor:start;fill:#3c3c3c;fill-opacity:1;stroke:none;display:inline;enable-background:new;font-family:English Towne;-inkscape-font-specification:English Towne Medium"
       id="text5686">
      <path
         d="m 190.07816,412.94976 c -0.16481,0.0851 -0.31366,0.1276 -0.44656,0.12759 -0.21266,10e-6 -0.44126,-0.0957 -0.6858,-0.28707 l -0.87717,0.8373 0.19138,0.19138 0.15151,-0.12758 c 0.11164,0.10632 0.30037,0.15949 0.56618,0.15948 l 0.0399,0 0.016,-0.008 0.016,0 0.008,0.93299 -0.016,0 -0.0638,0.016 -0.0319,0 c -0.0319,0.016 -0.11164,0.0239 -0.23923,0.0239 -0.005,0.005 -0.0346,0.008 -0.0877,0.008 -0.20202,0 -0.3429,-0.0266 -0.42264,-0.0797 -0.13823,-0.24986 -0.24987,-0.45188 -0.33493,-0.60605 -0.0797,-0.15948 -0.14885,-0.29239 -0.20733,-0.39872 -0.21797,-0.31897 -0.3934,-0.53959 -0.5263,-0.66187 -0.20202,-0.18606 -0.44657,-0.27909 -0.73364,-0.2791 -0.2924,1e-5 -0.53694,0.1143 -0.73364,0.3429 -0.20202,0.21797 -0.30303,0.47049 -0.30303,0.75756 0,0.20733 0.0558,0.32163 0.16747,0.34289 l -0.016,-0.0159 0.0558,0 c 0.0159,-0.18075 0.13556,-0.32695 0.35884,-0.43859 0.0106,-0.0106 0.0239,-0.016 0.0399,-0.016 0.0213,0 0.0399,-0.003 0.0558,-0.008 0.0372,-0.0106 0.0744,-0.0186 0.11164,-0.0239 0.0425,-0.0106 0.0771,-0.0266 0.10367,-0.0478 l 0.016,0 0,1.30779 c -0.0957,0.0106 -0.17278,0.0213 -0.23126,0.0319 -0.0585,0.0106 -0.0983,0.0186 -0.11961,0.0239 -0.23392,0.0957 -0.35087,0.30568 -0.35087,0.62997 0,0.14885 0.0478,0.2791 0.14354,0.39074 0.0957,0.11164 0.21264,0.16746 0.35087,0.16746 l 0,-0.0558 0,-0.0319 -0.008,-0.008 c 0,-0.0425 0.0106,-0.0851 0.0319,-0.12759 0.0266,-0.0478 0.0585,-0.0718 0.0957,-0.0718 l 0.016,0 c 0.016,0.0106 0.0292,0.0186 0.0399,0.0239 0.0106,10e-6 0.0213,0.003 0.0319,0.008 l 0,1.06856 c -0.52631,0.15949 -0.86654,0.52099 -1.02072,1.08451 0.0319,-0.0106 0.0691,-0.0266 0.11165,-0.0478 0.0478,-0.016 0.0718,-0.0239 0.0718,-0.0239 0.0213,-0.0106 0.0478,-0.0266 0.0797,-0.0478 l 0,0.008 c 0.22328,-0.10633 0.45453,-0.15949 0.69376,-0.15949 0.32429,0 0.6725,0.11696 1.04464,0.35087 l 0.63795,-0.8373 -0.17544,-0.17544 -0.0957,0.12759 c -0.15417,-0.10632 -0.311,-0.18607 -0.47048,-0.23923 -0.15949,-0.0585 -0.32695,-0.0877 -0.50239,-0.0877 l -0.0478,0 -0.016,0.008 -0.008,0 0,-0.76554 c 0.12759,-0.0851 0.33227,-0.12759 0.61403,-0.12759 0.21264,0 0.45719,0.0585 0.73364,0.17544 0.0266,0.0585 0.0531,0.11696 0.0797,0.17543 0.0266,0.0532 0.0532,0.10367 0.0797,0.15151 0.10632,0.20734 0.18607,0.37214 0.23923,0.49441 0.0585,0.11696 0.1143,0.21531 0.16746,0.29505 l -0.008,0 c 0.2977,0.53694 0.5768,0.80541 0.8373,0.80541 l 0.0478,0 0,-4.41778 c 0.0159,-0.005 0.0346,-0.0106 0.0558,-0.0159 0.0266,-0.0106 0.0558,-0.0266 0.0877,-0.0478 l 0,0.008 c 0.14353,-0.0744 0.27644,-0.17543 0.39871,-0.30302 0.0797,-0.0797 0.13822,-0.15683 0.17544,-0.23126 0.0372,-0.0744 0.0585,-0.14885 0.0638,-0.22328 l -0.0478,-0.0319 m -2.87076,2.87076 c -0.16481,0 -0.38277,0.0372 -0.6539,0.11164 l 0,-2.13712 c 0.12228,0.0585 0.27113,0.24721 0.44657,0.56618 0.085,0.17012 0.20467,0.4253 0.35884,0.76554 0.0904,0.1967 0.1648,0.35884 0.22328,0.48643 0.0585,0.12227 0.10367,0.21531 0.13557,0.2791 -0.17013,-0.0478 -0.34024,-0.0718 -0.51036,-0.0718 m 1.31576,-0.311 c -0.0478,-0.10632 -0.0877,-0.19404 -0.11961,-0.26315 -0.0319,-0.0691 -0.0558,-0.12227 -0.0718,-0.15949 0.0638,0.0213 0.1329,0.0319 0.20733,0.0319 l 0.21531,0 c 0.0638,0 0.11961,-0.003 0.16746,-0.008 0.0532,-0.005 0.0957,-0.016 0.12759,-0.0319 l 0.008,1.4274 c -0.0797,-0.11695 -0.1648,-0.25517 -0.25518,-0.41466 -0.0851,-0.1648 -0.17809,-0.35884 -0.2791,-0.58213"
         style=""
         id="path3056" />
      <path
         d="m 192.82743,415.77268 c -0.0532,-0.0744 -0.11164,-0.16215 -0.17543,-0.26316 -0.0585,-0.10632 -0.12228,-0.22062 -0.19139,-0.34289 -0.0744,-0.13822 -0.1329,-0.26315 -0.17543,-0.3748 -0.0425,-0.11163 -0.0771,-0.2153 -0.10367,-0.311 -0.52631,0.35088 -0.99945,0.52631 -1.41943,0.52631 l -0.0319,0 -0.0239,-0.008 -0.0239,0 -0.008,-0.008 -0.0478,0 -0.0718,-0.0718 0,0.11164 c 0.0851,0.18607 0.12759,0.31898 0.12759,0.39872 l 0,1.92979 c -0.10633,0.0797 -0.1781,0.14354 -0.21531,0.19138 -0.005,0.005 -0.0213,0.0266 -0.0478,0.0638 -0.0213,0.0372 -0.0505,0.0851 -0.0877,0.14353 l 0,-0.008 c -0.0106,0.0106 -0.0213,0.0266 -0.0319,0.0478 -0.0106,0.0159 -0.0213,0.0372 -0.0319,0.0638 0.0638,-0.0106 0.12759,-0.0186 0.19139,-0.0239 0.0638,-0.0106 0.12759,-0.0159 0.19138,-0.0159 0.17012,0 0.37214,0.0239 0.60605,0.0718 0.13822,0.0266 0.26049,0.0638 0.36682,0.11164 0.10632,0.0532 0.2153,0.10898 0.32695,0.16746 l 0.0797,0.0399 0.72566,-0.79743 -0.19935,-0.18341 -0.19139,0.19936 c -0.12227,-0.0585 -0.25518,-0.10899 -0.39871,-0.15152 -0.13823,-0.0425 -0.28974,-0.0771 -0.45454,-0.10366 l 0,-0.59808 c 0.0585,-0.0425 0.11164,-0.0771 0.15949,-0.10366 0.32428,-0.19139 0.57946,-0.34024 0.76553,-0.44657 0.19138,-0.11163 0.31897,-0.1834 0.38277,-0.2153 l 0.008,-0.0399 m -1.06058,-0.15152 c 0.0372,0.0798 0.0691,0.1462 0.0957,0.19936 0.0319,0.0479 0.0585,0.0877 0.0797,0.11962 l -0.43061,0.2791 0,-1.02072 0.0638,-0.0159 c 0.0266,0.0744 0.0558,0.14885 0.0877,0.22328 0.0319,0.0744 0.0664,0.1462 0.10367,0.2153"
         style=""
         id="path3058" />
      <path
         d="m 197.67495,414.95132 c -0.0266,0.0106 -0.0452,0.0213 -0.0558,0.0319 -0.0213,0.005 -0.0372,0.008 -0.0478,0.008 -0.0106,0 -0.0213,0.003 -0.0319,0.008 l 0,0.008 -0.008,0 c -0.0106,0.005 -0.0213,0.008 -0.0319,0.008 -0.0478,1e-5 -0.0744,-0.003 -0.0797,-0.008 -0.17013,-0.0159 -0.32164,-0.16214 -0.45454,-0.43859 l -0.87718,0.64592 0.11962,0.19139 0.0957,-0.0399 c 0.0851,0.10101 0.1648,0.16214 0.23923,0.1834 l 0,1.92979 c 0,0.10101 -0.0478,0.15152 -0.14354,0.15151 l -0.0877,0 c -0.005,10e-6 -0.0106,10e-6 -0.016,0 0,-0.005 0,-0.008 0,-0.008 -0.0213,-0.0106 -0.0452,-0.0186 -0.0718,-0.0239 -0.0266,-0.0106 -0.0479,-0.0213 -0.0638,-0.0319 -0.17544,-0.0851 -0.26315,-0.22062 -0.26315,-0.40669 l 0,-2.0813 c -0.0106,-0.0425 -0.0186,-0.0718 -0.0239,-0.0877 -0.0106,-0.0159 -0.0186,-0.0319 -0.0239,-0.0478 0,-0.016 -0.003,-0.0292 -0.008,-0.0399 -0.0585,-0.14885 -0.1967,-0.27909 -0.41467,-0.39074 l -0.81338,0.70174 0,0.0638 c 0.0957,0 0.18873,0.0319 0.2791,0.0957 0.0904,0.0585 0.13556,0.12493 0.13557,0.19936 l 0,1.77827 c -0.0319,0.0213 -0.0665,0.0372 -0.10367,0.0479 -0.005,0.005 -0.0133,0.0106 -0.0239,0.0159 -0.005,0.005 -0.0106,0.0106 -0.016,0.0159 l -0.0319,0.0319 c -0.0319,-0.0266 -0.0718,-0.0532 -0.11961,-0.0797 -0.0478,-0.0266 -0.10101,-0.0532 -0.15949,-0.0797 -0.0266,-0.0106 -0.0425,-0.0159 -0.0478,-0.0159 -0.005,-0.005 -0.0213,-0.0133 -0.0478,-0.0239 -0.0585,0 -0.10101,-0.0106 -0.12759,-0.0319 l 0,-1.97764 c 0,-0.1648 -0.0532,-0.31365 -0.15949,-0.44656 -0.10632,-0.1329 -0.23923,-0.22859 -0.39871,-0.28707 l -0.80541,0.8054 0.0638,0.0399 0.0239,0 0.0159,0.008 0.0638,0 0.0239,0.008 0.016,0 c 0.11164,10e-6 0.20733,0.0797 0.28708,0.23923 l 0,1.72246 -0.008,0 -0.008,0.016 c -0.16481,0.12227 -0.27379,0.27644 -0.32695,0.46251 0.0266,-0.0106 0.0532,-0.0186 0.0797,-0.0239 0.0319,-0.005 0.0585,-0.008 0.0798,-0.008 l 0.0159,-0.008 0.0159,0 c 0.16481,0 0.32163,0.0372 0.47049,0.11164 0.14885,0.0744 0.30036,0.18075 0.45454,0.31897 0.0797,-0.0585 0.14885,-0.10898 0.20733,-0.15151 0.0585,-0.0425 0.0984,-0.0718 0.11961,-0.0877 l 0,0.008 c 0.0319,-0.0213 0.0532,-0.0346 0.0638,-0.0399 l 0.016,-0.008 0.016,-0.0159 c 0.005,-0.005 0.0292,-0.016 0.0718,-0.0319 0.0957,-0.0532 0.20999,-0.12227 0.3429,-0.20733 0.0904,0.14354 0.20999,0.26581 0.35885,0.36682 0.15416,0.10632 0.31099,0.1648 0.47048,0.17544 0.0691,-0.0319 0.12493,-0.0611 0.16746,-0.0877 0.0478,-0.0213 0.0877,-0.0372 0.11962,-0.0478 0.38276,-0.17543 0.76553,-0.26315 1.1483,-0.26315 l 0.016,0 c 0.0159,0.005 0.0718,0.008 0.16746,0.008 -0.0585,-0.0851 -0.0877,-0.13024 -0.0877,-0.13556 -0.0532,-0.0744 -0.0798,-0.15151 -0.0797,-0.23126 l 0,-1.93776 c 0.20733,-0.12227 0.32163,-0.30302 0.3429,-0.54225 l -0.0399,-0.0319"
         style=""
         id="path3060" />
      <path
         d="m 200.86693,414.60045 -0.21531,0.0159 c -0.0957,0.15417 -0.22062,0.23126 -0.37479,0.23125 -0.14886,1e-5 -0.30835,-0.0983 -0.47846,-0.29505 -0.19139,0.19139 -0.29771,0.2924 -0.31898,0.30303 -0.22859,0.12227 -0.46517,0.18341 -0.70971,0.18341 -0.0478,0 -0.0744,-0.003 -0.0797,-0.008 -0.14886,10e-6 -0.24189,-0.0106 -0.27911,-0.0319 -0.0585,0 -0.11429,-0.0239 -0.16746,-0.0718 0,0.0266 0,0.0505 0,0.0718 0,0.0213 0.005,0.0372 0.016,0.0478 l 0,0.008 0.0239,0.0558 c -1e-5,0.0213 0.003,0.0345 0.008,0.0399 l 0,-0.008 c 0,0.005 0,0.0106 0,0.016 0.005,10e-6 0.008,0.003 0.008,0.008 l 0.008,1.38753 -0.008,0.0159 c 0,0.0691 -0.0239,0.13556 -0.0718,0.19936 l 0.008,-0.0239 -0.0558,0.0558 0.5263,0.0239 c -0.0319,0.0319 -0.0611,0.0611 -0.0877,0.0877 -0.0213,0.0266 -0.0399,0.0478 -0.0558,0.0638 l -0.0319,0.0319 c -0.18075,0.22328 -0.32429,0.43327 -0.43061,0.62997 -0.10633,0.19138 -0.18076,0.38011 -0.22329,0.56618 l 0.23126,0 c 0.0957,-0.23392 0.26581,-0.35087 0.51036,-0.35087 0.0585,0 0.10366,0.008 0.13556,0.0239 0.0479,0 0.0904,0.008 0.12759,0.0239 0.0372,0.0213 0.0771,0.0505 0.11962,0.0877 l 0.23125,0.23126 c 0.26049,-0.27645 0.59276,-0.41467 0.99679,-0.41467 l 0.0478,0 c 0.0159,0.005 0.0638,0.008 0.14354,0.008 0.0266,0.016 0.0611,0.0266 0.10366,0.0319 0.0425,0 0.0957,0 0.15949,0 0.0106,0 0.0186,0.003 0.0239,0.008 l -0.008,0 c 0.0106,0.005 0.0452,0.008 0.10366,0.008 l -0.0319,-0.0638 c -0.016,-0.0266 -0.0319,-0.0532 -0.0479,-0.0797 -0.016,-0.0266 -0.0186,-0.0346 -0.008,-0.0239 l 0.008,0.016 c -0.005,-0.0266 -0.008,-0.0399 -0.008,-0.0399 -1e-5,-0.005 -0.003,-0.0106 -0.008,-0.0159 l 0,0.008 -0.008,-0.016 0,-0.0239 c -0.005,-0.005 -0.008,-0.0133 -0.008,-0.0239 l 0,-1.35564 c 0,0.005 0.003,-0.003 0.008,-0.0239 0.005,-0.0266 0.0106,-0.0479 0.016,-0.0638 l 0,0.008 c -1e-5,-0.005 -1e-5,-0.0106 0,-0.0159 0.005,-0.005 0.008,-0.0133 0.008,-0.0239 l 0.008,-0.016 0,-0.0159 0.016,-0.016 0,-0.0159 0.008,-0.008 c -1e-5,-0.016 0.003,-0.0292 0.008,-0.0399 0,-0.005 0,-0.0159 0,-0.0319 0.005,-0.0159 0.008,-0.0266 0.008,-0.0319 l -0.74959,0.016 c 0.44656,-0.45719 0.73895,-0.89844 0.87718,-1.32374 l -0.0319,-0.0399 m -1.00477,2.94253 -0.0319,0 c -0.0266,0.0106 -0.0479,0.0186 -0.0638,0.0239 -0.0106,0 -0.016,0 -0.016,0 l -0.0319,0.016 c -0.1967,-0.24455 -0.43327,-0.36682 -0.70971,-0.36682 -0.0266,0 -0.0638,0.005 -0.11164,0.016 -0.0478,0.005 -0.10367,0.0133 -0.16746,0.0239 0.0691,-0.0691 0.12759,-0.13025 0.17543,-0.18341 0.0479,-0.0585 0.0904,-0.10632 0.12759,-0.14354 l 0.41467,-0.41466 0.40669,0 0.016,0.0159 0,1.00476 -0.008,0.008 m -0.12759,-1.69854 c -0.12227,0.12228 -0.22328,0.22063 -0.30302,0.29506 -0.0744,0.0744 -0.13291,0.12493 -0.17544,0.15151 l -0.0877,0 0,-1.00477 c 0.0266,0 0.0558,-0.008 0.0877,-0.0239 l 0.0319,0 c 0.005,-0.005 0.0159,-0.0106 0.0319,-0.0159 0.1967,0.15417 0.37213,0.23126 0.5263,0.23126 0.10101,0 0.1967,-0.0186 0.28708,-0.0558 -0.0851,0.0904 -0.21797,0.23125 -0.39872,0.42263"
         style=""
         id="path3062" />
    </g>
    <path
       inkscape:connector-curvature="0"
       id="path5692"
       d="m 184.64961,413.86218 24.99951,0"
       style="fill:none;stroke:#646464;stroke-width:1;stroke-linecap:square;stroke-linejoin:miter;stroke-miterlimit:4;stroke-opacity:1;stroke-dasharray:none;display:inline;enable-background:new" />
    <path
       inkscape:connector-curvature="0"
       id="path5696"
       d="m 202.64912,415.86218 7,0"
       style="fill:none;stroke:#787878;stroke-width:0.99999994;stroke-linecap:square;stroke-linejoin:miter;stroke-miterlimit:4;stroke-opacity:1;stroke-dasharray:none;display:inline;enable-background:new" />
    <path
       style="fill:none;stroke:#787878;stroke-width:1;stroke-linecap:square;stroke-linejoin:miter;stroke-miterlimit:4;stroke-opacity:1;stroke-dasharray:none;display:inline;enable-background:new"
       d="m 184.64286,415.86218 7,0"
       id="path5716"
       inkscape:connector-curvature="0" />
    <path
       style="fill:none;stroke:#646464;stroke-width:1.99999988;stroke-linecap:square;stroke-linejoin:miter;stroke-miterlimit:4;stroke-opacity:1;stroke-dasharray:none;display:inline;enable-background:new"
       d="m 185.14126,411.36218 24.00023,0"
       id="path5782"
       inkscape:connector-curvature="0" />
    <path
       style="fill:none;stroke:#787878;stroke-width:0.99999994;stroke-linecap:square;stroke-linejoin:miter;stroke-miterlimit:4;stroke-opacity:1;stroke-dasharray:none;display:inline;enable-background:new"
       d="m 202.64912,417.86218 7,0"
       id="path5784"
       inkscape:connector-curvature="0" />
    <path
       inkscape:connector-curvature="0"
       id="path5786"
       d="m 202.64912,419.86218 7,0"
       style="fill:none;stroke:#787878;stroke-width:0.99999994;stroke-linecap:square;stroke-linejoin:miter;stroke-miterlimit:4;stroke-opacity:1;stroke-dasharray:none;display:inline;enable-background:new" />
    <path
       style="fill:none;stroke:#787878;stroke-width:0.99999994;stroke-linecap:square;stroke-linejoin:miter;stroke-miterlimit:4;stroke-opacity:1;stroke-dasharray:none;display:inline;enable-background:new"
       d="m 202.64912,421.86218 7,0"
       id="path5788"
       inkscape:connector-curvature="0" />
    <path
       inkscape:connector-curvature="0"
       id="path5790"
       d="m 202.64912,423.86218 7,0"
       style="fill:none;stroke:#787878;stroke-width:0.99999994;stroke-linecap:square;stroke-linejoin:miter;stroke-miterlimit:4;stroke-opacity:1;stroke-dasharray:none;display:inline;enable-background:new" />
    <path
       inkscape:connector-curvature="0"
       id="path5800"
       d="m 184.64286,417.86218 6.99967,0"
       style="fill:none;stroke:#787878;stroke-width:1;stroke-linecap:square;stroke-linejoin:miter;stroke-miterlimit:4;stroke-opacity:1;stroke-dasharray:none;display:inline;enable-background:new" />
    <path
       style="fill:none;stroke:#787878;stroke-width:1;stroke-linecap:square;stroke-linejoin:miter;stroke-miterlimit:4;stroke-opacity:1;stroke-dasharray:none;display:inline;enable-background:new"
       d="m 184.64286,419.86218 6.99967,0"
       id="path5802"
       inkscape:connector-curvature="0" />
    <path
       inkscape:connector-curvature="0"
       id="path5804"
       d="m 184.64286,421.86218 6.99967,0"
       style="fill:none;stroke:#787878;stroke-width:1;stroke-linecap:square;stroke-linejoin:miter;stroke-miterlimit:4;stroke-opacity:1;stroke-dasharray:none;display:inline;enable-background:new" />
    <path
       style="fill:none;stroke:#787878;stroke-width:1;stroke-linecap:square;stroke-linejoin:miter;stroke-miterlimit:4;stroke-opacity:1;stroke-dasharray:none;display:inline;enable-background:new"
       d="m 184.64286,423.86218 6.99967,0"
       id="path5806"
       inkscape:connector-curvature="0" />
    <path
       style="font-size:13.58991337px;font-style:normal;font-variant:normal;font-weight:bold;font-stretch:normal;text-align:start;line-height:125%;writing-mode:lr-tb;text-anchor:start;fill:#646464;fill-opacity:1;fill-rule:nonzero;stroke:#646464;stroke-width:0.33000001;stroke-miterlimit:4;stroke-opacity:1;stroke-dasharray:none;marker:none;visibility:visible;display:inline;overflow:visible;enable-background:accumulate;font-family:Bitstream Vera Serif"
       d="m 193.53588,415.52718 0,1.28994 c 3.31538,0.0618 5.99429,2.74248 6.05522,6.06097 l 1.30176,0 c -0.0616,-4.03658 -3.32409,-7.28947 -7.35698,-7.35091 z m 0,2.97453 0,1.16625 c 1.74994,0.0609 3.15515,1.45872 3.2161,3.21013 l 1.16628,0 c -0.0614,-2.3972 -1.98732,-4.31501 -4.38238,-4.37638 z m 0.76575,2.94507 c -0.20521,1e-5 -0.36444,0.0757 -0.50658,0.21794 -0.14231,0.13992 -0.21204,0.28937 -0.21204,0.49477 0,0.20219 0.0701,0.36125 0.21204,0.50067 0.14142,0.13901 0.29978,0.20615 0.50658,0.20615 0.20037,0 0.34965,-0.0668 0.48889,-0.20615 0.14257,-0.14272 0.21794,-0.30171 0.21794,-0.50067 0,-0.2054 -0.0757,-0.35485 -0.21794,-0.49477 -0.13998,-0.14264 -0.29014,-0.21793 -0.48889,-0.21794 z"
       id="path6324"
       inkscape:connector-curvature="0" />
    <g
       id="g6326"
       transform="matrix(0.26358695,0,0,0.26358695,180.87928,414.71001)"
       style="display:inline;enable-background:new">
      <path
         style="opacity:0.4;fill:url(#radialGradient6338);fill-opacity:1;fill-rule:evenodd;stroke:none;stroke-width:0.99999988;marker:none;visibility:visible;display:inline;overflow:visible"
         id="path6328"
         transform="matrix(2.1647059,0,0,2.5636643,-111.56471,26.849769)"
         d="m 73.25,4.625 a 10.625,3.625 0 1 1 -21.25,0 10.625,3.625 0 1 1 21.25,0 z"
         inkscape:connector-curvature="0" />
      <path
         style="fill:url(#radialGradient6340);fill-opacity:1;fill-rule:nonzero;stroke:url(#linearGradient6342);stroke-width:3.79381442;stroke-miterlimit:4;stroke-dasharray:none"
         id="path6330"
         d="M 43.500003,23.999309 C 43.500003,34.769208 34.768912,43.5 24.000248,43.5 13.230599,43.5 4.5000032,34.769109 4.5000032,23.999309 4.5000032,13.229904 13.230599,4.5 24.000248,4.5 c 10.768664,0 19.499755,8.729904 19.499755,19.499309 l 0,0 z"
         inkscape:connector-curvature="0" />
      <path
         style="opacity:0.4;fill:#000000;fill-opacity:1;fill-rule:nonzero;stroke:none"
         id="path6332"
         d="m 24.329633,5.218182 -2.362344,0.2704567 -2.59858,0.7099494 c 0.221353,-0.077615 0.445595,-0.1623374 0.674956,-0.2366499 L 19.739934,5.4210246 18.727501,5.5900601 18.221284,6.0633596 17.445085,6.1647809 16.736382,6.502852 16.398905,6.6718876 16.29766,6.807116 15.791444,6.9085373 15.487716,7.5508723 15.08274,6.7395017 l -0.134989,0.3380711 0.0675,0.9127919 -0.641208,0.5409137 -0.371225,0.9804061 0.7762,0 0.303728,-0.642335 0.101245,-0.2366498 c 0.341288,-0.241775 0.66483,-0.5110331 1.012433,-0.7437563 l 0.809946,0.2704568 c 0.527335,0.3588995 1.058376,0.7234732 1.586147,1.0818274 L 19.368709,8.5312784 18.491266,8.1594002 18.086294,7.3480297 16.601391,7.1789941 16.567641,7.0099586 17.208847,7.145187 17.580075,6.7733087 18.390021,6.6042734 C 18.581694,6.5108897 18.770243,6.44363 18.963732,6.3676236 l -0.506216,0.4732995 1.82238,1.250863 0,0.7437562 -0.708703,0.7099493 0.944937,1.8931994 0.641208,-0.371881 0.809948,-1.2508614 c 1.138725,-0.3526792 2.165016,-0.7630693 3.239789,-1.2508632 l -0.0675,0.4732995 0.539963,0.3718782 0.944939,-0.6423349 -0.47247,-0.5409137 -0.641209,0.3718781 -0.202486,-0.067613 c 0.04651,-0.02129 0.08828,-0.045973 0.13499,-0.067613 L 26.388247,6.0295525 24.329633,5.218182 z m -9.246893,3.6511675 0.776199,0.5409136 0.641209,0 0,-0.6423349 L 15.72395,8.429857 15.08274,8.8693495 z M 33.002811,8.429857 31.619153,8.7679282 30.741712,9.342649 l 0,0.5071058 -1.383659,0.8789842 0.269983,1.31848 0.809946,-0.574723 0.506216,0.574723 0.573714,0.338071 0.371224,-0.980408 -0.202486,-0.57472 0.202486,-0.405687 0.809948,-0.7437548 0.371225,0 -0.371225,0.8113728 0,0.743754 c 0.333836,-0.09103 0.6708,-0.126483 1.012433,-0.169037 l -0.944938,0.676145 -0.0675,0.405683 -1.079929,0.912794 -1.113678,-0.270459 0,-0.642335 -0.506216,0.338072 0.236235,0.574722 -0.809947,0 -0.438721,0.743756 -0.539965,0.608528 -0.978685,0.202842 0.573712,0.574721 0.134991,0.57472 -0.708703,0 -0.944938,0.507108 0,1.48751 0.438721,0 0.404973,0.439494 0.91119,-0.439494 0.337478,-0.912791 0.674956,-0.405685 0.134991,-0.338071 1.079928,-0.270457 0.60746,0.676142 0.641209,0.338071 -0.371227,0.743758 0.573715,-0.169037 0.303728,-0.743757 -0.74245,-0.845177 0.303729,0 0.742451,0.608528 0.134992,0.811371 0.641207,0.743757 0.168739,-1.081827 0.337478,-0.169037 c 0.359225,0.373574 0.642383,0.83043 0.944938,1.250864 l 1.113677,0.06762 0.641207,0.405686 -0.303729,0.439492 -0.641208,0.574721 -0.944939,0 -1.248667,-0.405684 -0.641208,0.06762 -0.472469,0.540915 -1.349912,-1.352286 -0.944937,-0.270456 -1.383659,0.169036 -1.21492,0.33807 c -0.693063,0.7871 -1.402636,1.582869 -2.058616,2.400307 l -0.776198,1.893195 0.371226,0.405687 -0.674956,0.980406 0.742451,1.724162 c 0.617799,0.700089 1.239228,1.395452 1.856128,2.09604 l 0.91119,-0.777564 0.371226,0.473301 0.978687,-0.642335 0.337477,0.371878 0.978685,0 0.573713,0.642335 -0.337478,1.149442 0.674955,0.777564 -0.03375,1.352283 0.506216,0.980406 -0.371225,0.845178 c -0.03619,0.60617 -0.0675,1.18551 -0.0675,1.791777 0.297757,0.821342 0.59628,1.640668 0.877443,2.467918 l 0.202487,1.318476 0,0.676143 0.539963,0 0.7762,-0.507106 0.944939,0 1.417406,-1.588934 -0.168739,-0.540915 0.944939,-0.845177 -0.708705,-0.777563 0.843694,-0.676141 0.809948,-0.507109 0.371225,-0.405685 -0.236234,-0.912791 c 0,-0.768475 2e-6,-1.530306 0,-2.298884 l 0.641209,-1.419897 0.809945,-0.878985 0.877443,-2.163655 0,-0.574721 c -0.436643,0.0551 -0.855168,0.10478 -1.282416,0.13523 l 0.877442,-0.878986 1.21492,-0.81137 0.641209,-0.743758 0,-0.811369 C 41.631793,22.01604 41.484928,21.720356 41.338501,21.44561 l -0.573712,0.676141 -0.438721,-0.507105 -0.641209,-0.507107 0,-1.048021 0.742452,0.845178 0.843696,-0.101421 c 0.380615,0.346139 0.746089,0.65392 1.079927,1.04802 l 0.539978,-0.608545 c 0,-0.655131 -0.736573,-3.889319 -2.328596,-6.626192 -1.592024,-2.735972 -4.387213,-5.240102 -4.387211,-5.240102 l -0.202488,0.3718783 -0.742451,0.8113707 -0.944937,-0.9804063 0.944937,0 L 35.668888,9.1059992 33.914003,8.7679282 33.002811,8.429857 z M 12.720395,8.8693495 12.382918,9.7483343 c 0,0 -0.590841,0.097717 -0.74245,0.1352286 -1.9362043,1.7873441 -5.8406714,5.6641681 -6.7495557,12.9481221 0.035987,0.168879 0.6412078,1.14944 0.6412078,1.14944 l 1.4849023,0.878986 1.4849024,0.405684 0.6412079,0.777564 0.9786853,0.743756 0.573712,-0.101421 0.404974,0.202844 0,0.135226 -0.539965,1.521321 -0.438721,0.642336 0.134991,0.304263 -0.3374777,1.217057 1.2486677,2.298882 1.282416,1.115635 0.573711,0.81137 -0.0675,1.690355 0.404974,0.946598 -0.404974,1.825586 c 0,0 -0.05404,-0.01501 0,0.169036 0.05452,0.184134 2.25593,1.422835 2.396091,1.318476 0.139681,-0.106305 0.269983,-0.202843 0.269983,-0.202843 l -0.13499,-0.405685 0.573712,-0.540913 0.202486,-0.574722 0.911191,-0.304265 0.708702,-1.757968 -0.202486,-0.4733 0.472468,-0.743756 1.07993,-0.236649 0.539965,-1.28467 -0.134992,-1.588935 0.843695,-1.183247 0.13499,-1.217056 c -1.15759,-0.575052 -2.293316,-1.165913 -3.442272,-1.75797 l -0.573713,-1.115634 -1.046181,-0.23665 -0.573712,-1.521321 -1.383659,0.169035 -1.214921,-0.878983 -1.282415,1.115634 0,0.169036 C 10.716387,26.202752 10.261353,26.186409 9.9193333,25.975746 l -0.2699819,-0.811371 0,-0.878985 -0.8774423,0.101421 c 0.070612,-0.559892 0.1651315,-1.13056 0.2362324,-1.690355 l -0.5062167,0 -0.5062167,0.642335 -0.4724689,0.23665 -0.7087034,-0.405685 -0.067496,-0.878985 0.1349912,-0.946599 1.0461812,-0.811371 0.8436945,0 0.1687389,-0.473299 1.0461817,0.236648 0.7761987,0.980407 0.134991,-1.622742 1.349911,-1.115633 0.472468,-1.183248 1.012435,-0.405685 0.539964,-0.811372 1.282416,-0.23665 0.641208,-0.946599 c -0.634667,0 -1.288957,0 -1.923624,0 l 1.214921,-0.574721 0.843693,0 1.07993,-0.371877 0.202487,1.04802 0.472469,-0.743757 -0.539966,-0.371878 0.134992,-0.439491 -0.438721,-0.405687 -0.47247,-0.135228 0.134992,-0.507106 -0.371226,-0.709948 -0.843695,0.33807 0.134992,-0.642334 -0.978686,-0.574722 -0.776198,1.352284 0.0675,0.4733 -0.776198,0.338071 -0.472469,1.04802 -0.236234,-0.980407 -1.316164,-0.540913 -0.236234,-0.743756 1.788632,-1.014213 0.776198,-0.743757 0.0675,-0.8789846 -0.438721,-0.2366498 -0.573713,-0.067613 z m 14.477799,1.6227435 0,0.54091 0.30373,0.338072 0,0.811371 -0.168739,1.081827 0.877442,-0.169036 0.641209,-0.642334 -0.573713,-0.540915 c -0.186049,-0.496308 -0.3746,-0.943871 -0.607459,-1.419895 l -0.47247,0 z m -0.742452,1.081824 -0.539963,0.169038 0.13499,0.980405 0.708703,-0.371881 -0.30373,-0.777562 z m 9.888101,8.89127 0.809946,0.946598 0.978686,2.096042 0.607459,0.67614 -0.303728,0.709952 0.539964,0.642335 c -0.247792,0.01643 -0.487764,0.03381 -0.742451,0.03381 -0.462673,-0.973935 -0.828843,-1.956133 -1.181173,-2.975025 l -0.60746,-0.676142 -0.337478,-1.217056 0.236235,-0.23665 z"
         inkscape:connector-curvature="0" />
      <path
         style="opacity:0.4;fill:none;stroke:url(#linearGradient6344);stroke-width:3.79381704;stroke-miterlimit:4;stroke-opacity:1;stroke-dasharray:none"
         id="path6334"
         d="m 41.145831,23.999391 c 0,9.469685 -7.677015,17.146437 -17.145612,17.146437 -9.469466,0 -17.146046,-7.676838 -17.146046,-17.146437 0,-9.469248 7.67658,-17.145221 17.146046,-17.145221 9.468597,0 17.145612,7.675973 17.145612,17.145221 l 0,0 z"
         inkscape:connector-curvature="0" />
      <g
         id="g6336"
         transform="matrix(0.9999061,-0.01370139,0.01370139,0.9999061,-0.2886966,0.5358538)" />
    </g>
  </g>
</svg>
