<?xml version="1.0" encoding="UTF-8" standalone="no"?>
<!-- Created with Inkscape (http://www.inkscape.org/) -->

<svg
   xmlns:dc="http://purl.org/dc/elements/1.1/"
   xmlns:cc="http://creativecommons.org/ns#"
   xmlns:rdf="http://www.w3.org/1999/02/22-rdf-syntax-ns#"
   xmlns:svg="http://www.w3.org/2000/svg"
   xmlns="http://www.w3.org/2000/svg"
   xmlns:xlink="http://www.w3.org/1999/xlink"
   xmlns:sodipodi="http://sodipodi.sourceforge.net/DTD/sodipodi-0.dtd"
   xmlns:inkscape="http://www.inkscape.org/namespaces/inkscape"
   version="1.0"
   width="32"
   height="32"
   id="svg3578"
   inkscape:version="0.47 r22583"
   sodipodi:docname="pitivi32c.svg">
  <metadata
     id="metadata3126">
    <rdf:RDF>
      <cc:Work
         rdf:about="">
        <dc:format>image/svg+xml</dc:format>
        <dc:type
           rdf:resource="http://purl.org/dc/dcmitype/StillImage" />
        <dc:title />
      </cc:Work>
    </rdf:RDF>
  </metadata>
  <sodipodi:namedview
     pagecolor="#ffffff"
     bordercolor="#666666"
     borderopacity="1"
     objecttolerance="1"
     gridtolerance="1"
     guidetolerance="1"
     inkscape:pageopacity="0"
     inkscape:pageshadow="2"
     inkscape:window-width="640"
     inkscape:window-height="480"
     id="namedview3124"
     showgrid="true"
     inkscape:zoom="5.40625"
     inkscape:cx="14.229119"
     inkscape:cy="15.922722"
     inkscape:current-layer="svg3578">
    <inkscape:grid
       type="xygrid"
       id="grid3703"
       empspacing="5"
       visible="true"
       enabled="true"
       snapvisiblegridlinesonly="true" />
  </sodipodi:namedview>
  <defs
     id="defs3580">
    <linearGradient
       id="linearGradient5048">
      <stop
         id="stop5050"
         style="stop-color:#000000;stop-opacity:0"
         offset="0" />
      <stop
         id="stop5056"
         style="stop-color:#000000;stop-opacity:1"
         offset="0.5" />
      <stop
         id="stop5052"
         style="stop-color:#000000;stop-opacity:0"
         offset="1" />
    </linearGradient>
    <linearGradient
       id="linearGradient5060">
      <stop
         id="stop5062"
         style="stop-color:#000000;stop-opacity:1"
         offset="0" />
      <stop
         id="stop5064"
         style="stop-color:#000000;stop-opacity:0"
         offset="1" />
    </linearGradient>
    <radialGradient
       inkscape:collect="always"
       xlink:href="#linearGradient5060"
       id="radialGradient3961"
       gradientUnits="userSpaceOnUse"
       gradientTransform="matrix(0.03212956,0,0,0.02325004,36.636789,47.480988)"
       cx="605.71429"
       cy="486.64789"
       fx="605.71429"
       fy="486.64789"
       r="117.14286" />
    <linearGradient
       inkscape:collect="always"
       xlink:href="#linearGradient5048"
       id="linearGradient3963"
       gradientUnits="userSpaceOnUse"
       gradientTransform="matrix(0.04772373,0,0,0.02325004,27.214563,47.480988)"
       x1="302.85715"
       y1="366.64789"
       x2="302.85715"
       y2="609.50507" />
    <radialGradient
       inkscape:collect="always"
       xlink:href="#linearGradient5060"
       id="radialGradient3965"
       gradientUnits="userSpaceOnUse"
       gradientTransform="matrix(-0.03212956,0,0,0.02325004,52.363211,47.480988)"
       cx="605.71429"
       cy="486.64789"
       fx="605.71429"
       fy="486.64789"
       r="117.14286" />
    <linearGradient
       inkscape:collect="always"
       xlink:href="#linearGradient8823"
       id="linearGradient3967"
       gradientUnits="userSpaceOnUse"
       gradientTransform="matrix(1.2117666,0,0,1.1795605,-128.57369,36.489797)"
       x1="142.41496"
       y1="-5.8368979"
       x2="142.41496"
       y2="17.520208" />
    <linearGradient
       id="linearGradient8823">
      <stop
         offset="0"
         style="stop-color:#e35d4f;stop-opacity:1"
         id="stop8825" />
      <stop
         id="stop8827"
         style="stop-color:#8daa32;stop-opacity:1"
         offset="0.29466397" />
      <stop
         id="stop8829"
         style="stop-color:#729eb8;stop-opacity:1;"
         offset="0.57540715" />
      <stop
         offset="1"
         style="stop-color:#727272;stop-opacity:1"
         id="stop8831" />
    </linearGradient>
  </defs>
  <g
     id="g3948"
     transform="matrix(0.81481483,0,0,0.83869823,-20.25926,-20.66779)">
    <path
       d="m 56,56.005762 c 0,0 0,5.646126 0,5.646126 1.654593,0.01063 4.000001,-1.26501 4,-2.823426 0,-1.558415 -1.846401,-2.8227 -4,-2.8227 l 0,0 0,0 0,0 z"
       id="path5058-9"
       style="opacity:0.40206185;fill:url(#radialGradient3961);fill-opacity:1;fill-rule:nonzero;stroke:none;stroke-width:1;marker:none;visibility:visible;display:inline;overflow:visible" />
    <rect
       width="23.043743"
       height="5.6464386"
       x="32.941414"
       y="56.005562"
       id="rect2846"
       style="opacity:0.40206185;fill:url(#linearGradient3963);fill-opacity:1;fill-rule:nonzero;stroke:none;stroke-width:1;marker:none;visibility:visible;display:inline;overflow:visible" />
    <path
       d="m 33,56.005762 c 0,0 0,5.646126 0,5.646126 -1.654593,0.01063 -4,-1.26501 -4,-2.823426 0,-1.558415 1.846401,-2.8227 4,-2.8227 l 0,0 0,0 0,0 z"
       id="path2848"
       style="opacity:0.40206185;fill:url(#radialGradient3965);fill-opacity:1;fill-rule:nonzero;stroke:none;stroke-width:1;marker:none;visibility:visible;display:inline;overflow:visible" />
    <path
       d="m 35.5,59.499151 c -1.597693,0 -3.195386,0 -4.79308,0 -0.388336,-0.390643 -0.09305,-1.16623 -0.185309,-1.71926 0,-10.361089 0,-20.722176 0,-31.083263 l 0.05416,-0.134171 0.131154,-0.0554 0,0 c 1.662872,0 3.065025,0 4.727899,0"
       id="path2850"
       style="fill:#4d4d4d;fill-opacity:1;fill-rule:nonzero;stroke:#333333;stroke-width:1.20967197;stroke-linecap:butt;stroke-linejoin:round;stroke-miterlimit:4;stroke-opacity:1;stroke-dasharray:none;stroke-dashoffset:0;marker:none;visibility:visible;display:block;overflow:visible;enable-background:accumulate" />
    <path
       d="m 52.5,26.506602 c 1.612046,0 3.217197,0 4.810302,0 0.226152,0 0.18713,1.035716 0.18713,1.718156 0,10.354435 2e-6,20.708868 2e-6,31.063301 -0.497434,0.220237 -1.697121,0.189453 -1.697121,0.189453 0,0 -3.259822,0 -3.259822,0"
       id="path2852"
       style="fill:#4d4d4d;fill-opacity:1;fill-rule:nonzero;stroke:#333333;stroke-width:1.20967185;stroke-linecap:butt;stroke-linejoin:round;stroke-miterlimit:4;stroke-opacity:1;stroke-dasharray:none;stroke-dashoffset:0;marker:none;visibility:visible;display:block;overflow:visible;enable-background:accumulate" />
    <rect
       width="19"
       height="33"
       rx="0"
       ry="0"
       x="34.5"
       y="26.5"
       id="rect2854"
       style="fill:url(#linearGradient3967);fill-opacity:1;fill-rule:nonzero;stroke:#333333;stroke-width:1.20967209;stroke-linecap:butt;stroke-linejoin:miter;stroke-miterlimit:4;stroke-opacity:1;stroke-dasharray:none;stroke-dashoffset:0;marker:none;visibility:visible;display:inline;overflow:visible;enable-background:accumulate" />
    <path
       d="m 35.5,43.141701 17.002976,0"
       id="path2856"
       style="fill:none;stroke:#333333;stroke-width:1.20967209;stroke-linecap:square;stroke-linejoin:round;stroke-miterlimit:4;stroke-opacity:1;stroke-dasharray:none" />
    <path
       d="m 35.669024,27.61791 c 5.554976,0 11.109952,0 16.664928,0"
       id="path2858"
       style="opacity:0.36637932;fill:none;stroke:#ffffff;stroke-width:1.20967209;stroke-linecap:square;stroke-linejoin:round;stroke-miterlimit:4;stroke-opacity:1;stroke-dasharray:none;stroke-dashoffset:0;marker:none;visibility:visible;display:block;overflow:visible" />
    <path
       d="m 35.669024,44.260008 c 5.554976,0 11.109952,0 16.664928,0"
       id="path2860"
       style="opacity:0.36637932;fill:none;stroke:#ffffff;stroke-width:1.20967209;stroke-linecap:square;stroke-linejoin:round;stroke-miterlimit:4;stroke-opacity:1;stroke-dasharray:none;stroke-dashoffset:0;marker:none;visibility:visible;display:block;overflow:visible" />
    <path
       d="m 31.170257,29 2.659486,0 0,3 -2.659486,0 0,-3 z m 0,5 2.659486,0 0,3 -2.659486,0 0,-3 z m 0,5 2.659486,0 0,3 -2.659486,0 0,-3 z m 0,5 2.659486,0 0,3 -2.659486,0 0,-3 z m 0,5 2.659486,0 0,3 c 0,0 -2.659486,0 -2.659486,0 l 0,-3 z m 0,5 2.659486,0 0,3 -2.659486,0 0,-3 z"
       id="path2862"
       style="fill:#ffffff;fill-opacity:1;stroke:none" />
    <path
       d="m 54.170257,29 2.659486,0 0,3 -2.659486,0 0,-3 z m 0,5 2.659486,0 0,3 -2.659486,0 0,-3 z m 0,5 2.659486,0 0,3 -2.659486,0 0,-3 z m 0,5 2.659486,0 0,3 -2.659486,0 0,-3 z m 0,5 2.659486,0 0,3 c 0,0 -2.659486,0 -2.659486,0 l 0,-3 z m 0,5 2.659486,0 0,3 -2.659486,0 0,-3 z"
       id="path2943"
       style="fill:#ffffff;fill-opacity:1;fill-rule:nonzero;stroke:none;stroke-width:0.58672291;marker:none;visibility:visible;display:inline;overflow:visible;enable-background:accumulate" />
  </g>
</svg>
