<?xml version="1.0" encoding="UTF-8" standalone="no"?>
<!-- Created with Inkscape (http://www.inkscape.org/) -->

<svg
   xmlns:dc="http://purl.org/dc/elements/1.1/"
   xmlns:cc="http://creativecommons.org/ns#"
   xmlns:rdf="http://www.w3.org/1999/02/22-rdf-syntax-ns#"
   xmlns:svg="http://www.w3.org/2000/svg"
   xmlns="http://www.w3.org/2000/svg"
   xmlns:xlink="http://www.w3.org/1999/xlink"
   xmlns:sodipodi="http://sodipodi.sourceforge.net/DTD/sodipodi-0.dtd"
   xmlns:inkscape="http://www.inkscape.org/namespaces/inkscape"
   version="1.0"
   x="0.0000000"
   y="0.0000000"
   width="22"
   height="22"
   viewBox="0 0 22 22"
   id="svg1"
   xml:space="preserve"
   sodipodi:version="0.32"
   inkscape:version="0.47 r22583"
   sodipodi:docname="klogo-official-lineart_simple_bw3.svg"><sodipodi:namedview
   id="base"
   pagecolor="#ffffff"
   bordercolor="#666666"
   borderopacity="1.0"
   inkscape:pageopacity="0.0"
   inkscape:pageshadow="2"
   inkscape:zoom="34.363636"
   inkscape:cx="6.5185185"
   inkscape:cy="11"
   inkscape:window-width="1680"
   inkscape:window-height="998"
   inkscape:window-x="0"
   inkscape:window-y="24"
   showgrid="true"
   inkscape:window-maximized="1"
   inkscape:current-layer="svg1"><inkscape:grid
     type="xygrid"
     id="grid2823"
     empspacing="5"
     visible="true"
     enabled="true"
     snapvisiblegridlinesonly="true" /></sodipodi:namedview>

<defs
   id="defs84"><linearGradient
   id="linearGradient3597"><stop
     style="stop-color:#000000;stop-opacity:1;"
     offset="0"
     id="stop3599" /><stop
     style="stop-color:#363636;stop-opacity:1;"
     offset="1"
     id="stop3601" /></linearGradient><inkscape:perspective
   sodipodi:type="inkscape:persp3d"
   inkscape:vp_x="0 : 111.91919 : 1"
   inkscape:vp_y="0 : 1000 : 0"
   inkscape:vp_z="225 : 111.91919 : 1"
   inkscape:persp3d-origin="112.5 : 74.612793 : 1"
   id="perspective10" />
			
		
				
				
				
				
				
			<linearGradient
   inkscape:collect="always"
   xlink:href="#linearGradient3597"
   id="linearGradient3603"
   x1="10"
   y1="3"
   x2="10"
   y2="19"
   gradientUnits="userSpaceOnUse" /></defs>



	
		








<path
   id="path3605"
   d="m 12.241108,3.9999799 -2.6350196,0.256 0,10.9556401 2.6090726,-0.39564 0,-4.672 3.505671,5.18109 2.750338,-0.87854 -3.59216,-4.9803701 3.62099,-4.70109 -2.807996,-0.65164 -3.476843,4.7011 0.02595,-4.81455 z m -5.9763635,2.67055 c -0.02977,0.003 -0.058361,0.018 -0.080718,0.0407 l -1.0349808,1.04437 c -0.043515,0.044 -0.052256,0.1125 -0.020177,0.16581 l 1.2108413,2.0131 C 6.1247943,10.2991 5.952538,10.69219 5.8294261,11.10687 L 3.6066689,11.57232 C 3.54478,11.58532 3.5,11.64202 3.5,11.70614 l 0,1.47491 c 0,0.0625 0.041266,0.11636 0.1009032,0.13091 l 2.1593322,0.53236 c 0.1151381,0.48028 0.2946477,0.93719 0.5304637,1.35564 l -1.2512014,1.92291 c -0.034864,0.0537 -0.027748,0.12345 0.017293,0.16873 l 1.0349808,1.04436 c 0.043515,0.0438 0.1112642,0.0525 0.1643281,0.0204 l 1.9604087,-1.19854 c 0.3846933,0.224 0.7983074,0.39827 1.2367871,0.51782 l 0.4555063,2.21672 C 9.9216851,19.95516 9.9783118,20 10.041418,20 l 1.46454,0 c 0.06153,0 0.115048,-0.0409 0.129734,-0.10182 l 0.536228,-2.22254 c 0.451993,-0.12309 0.880202,-0.30691 1.274267,-0.54109 l 1.931579,1.27709 c 0.05306,0.0353 0.122164,0.028 0.167211,-0.0175 l 1.03498,-1.04436 c 0.04378,-0.0442 0.05235,-0.10973 0.02018,-0.16291 l -0.706323,-1.17236 -0.227753,0.0727 c -0.03325,0.0106 -0.06983,-0.003 -0.08937,-0.032 0,0 -0.44884,-0.66436 -1.029215,-1.52145 -0.693801,1.37018 -2.106268,2.30982 -3.736307,2.30982 -2.315868,0 -4.1918154,-1.89573 -4.1918154,-4.23273 0,-1.71918 1.014756,-3.1980501 2.4735742,-3.8603601 l 0,-1.09091 c -0.2655019,0.0937 -0.5201929,0.20636 -0.7639826,0.34036 -2.21e-4,-1.9e-4 -0.00218,3.7e-4 -0.00287,0 l -1.974823,-1.30618 c -0.026619,-0.0175 -0.056716,-0.0264 -0.086486,-0.0233 z"
   style="opacity:0.6;fill:#ffffff;fill-opacity:1" /><path
   style="fill:url(#linearGradient3603);fill-opacity:1;opacity:0.69999999999999996"
   d="m 12.241108,2.9999799 -2.6350196,0.256 0,10.9556401 2.6090726,-0.39564 0,-4.6720001 3.505671,5.1810901 2.750338,-0.87854 -3.59216,-4.9803701 3.62099,-4.70109 -2.807996,-0.65164 -3.476843,4.7011 0.02595,-4.81455 z m -5.9763635,2.67055 c -0.02977,0.003 -0.058361,0.018 -0.080718,0.0407 l -1.0349808,1.04437 c -0.043515,0.044 -0.052256,0.1125 -0.020177,0.16581 l 1.2108413,2.0131 C 6.1247943,9.2990999 5.952538,9.6921899 5.8294261,10.10687 L 3.6066689,10.57232 C 3.54478,10.58532 3.5,10.64202 3.5,10.70614 l 0,1.47491 c 0,0.0625 0.041266,0.11636 0.1009032,0.13091 l 2.1593322,0.53236 c 0.1151381,0.48028 0.2946477,0.93719 0.5304637,1.35564 l -1.2512014,1.92291 c -0.034864,0.0537 -0.027748,0.12345 0.017293,0.16873 l 1.0349808,1.04436 c 0.043515,0.0438 0.1112642,0.0525 0.1643281,0.0204 l 1.9604087,-1.19854 c 0.3846933,0.224 0.7983074,0.39827 1.2367871,0.51782 l 0.4555063,2.21672 C 9.9216851,18.95516 9.9783118,19 10.041418,19 l 1.46454,0 c 0.06153,0 0.115048,-0.0409 0.129734,-0.10182 l 0.536228,-2.22254 c 0.451993,-0.12309 0.880202,-0.30691 1.274267,-0.54109 l 1.931579,1.27709 c 0.05306,0.0353 0.122164,0.028 0.167211,-0.0175 l 1.03498,-1.04436 c 0.04378,-0.0442 0.05235,-0.10973 0.02018,-0.16291 l -0.706323,-1.17236 -0.227753,0.0727 c -0.03325,0.0106 -0.06983,-0.003 -0.08937,-0.032 0,0 -0.44884,-0.66436 -1.029215,-1.52145 -0.693801,1.37018 -2.106268,2.30982 -3.736307,2.30982 -2.315868,0 -4.1918154,-1.89573 -4.1918154,-4.23273 0,-1.7191801 1.014756,-3.1980501 2.4735742,-3.8603601 l 0,-1.09091 c -0.2655019,0.0937 -0.5201929,0.20636 -0.7639826,0.34036 -2.21e-4,-1.9e-4 -0.00218,3.7e-4 -0.00287,0 l -1.974823,-1.30618 c -0.026619,-0.0175 -0.056716,-0.0264 -0.086486,-0.0233 z"
   id="path5692_2_" />



	<metadata
   id="metadata921">
  <rdf:RDF>
    <cc:Work
   rdf:about="">
      <dc:format>image/svg+xml</dc:format>

      <dc:type
   rdf:resource="http://purl.org/dc/dcmitype/StillImage" />

    </cc:Work>

  </rdf:RDF>

</metadata>

</svg>