<?xml version="1.0" encoding="UTF-8" standalone="no"?>
<!-- Created with Inkscape (http://www.inkscape.org/) -->

<svg
   xmlns:dc="http://purl.org/dc/elements/1.1/"
   xmlns:cc="http://creativecommons.org/ns#"
   xmlns:rdf="http://www.w3.org/1999/02/22-rdf-syntax-ns#"
   xmlns:svg="http://www.w3.org/2000/svg"
   xmlns="http://www.w3.org/2000/svg"
   xmlns:xlink="http://www.w3.org/1999/xlink"
   xmlns:sodipodi="http://sodipodi.sourceforge.net/DTD/sodipodi-0.dtd"
   xmlns:inkscape="http://www.inkscape.org/namespaces/inkscape"
   width="64"
   height="64"
   id="svg7839"
   version="1.1"
   inkscape:version="0.48.1 r9760"
   sodipodi:docname="Nuevo documento 32">
  <defs
     id="defs7841">
    <radialGradient
       inkscape:collect="always"
       xlink:href="#linearGradient6945-74"
       id="radialGradient7157"
       gradientUnits="userSpaceOnUse"
       gradientTransform="matrix(1,0,0,0.33333333,0,33.785016)"
       cx="170.58949"
       cy="50.677525"
       fx="170.58949"
       fy="50.677525"
       r="7.4246206" />
    <linearGradient
       inkscape:collect="always"
       id="linearGradient6945-74">
      <stop
         style="stop-color:#000000;stop-opacity:1;"
         offset="0"
         id="stop6947-2" />
      <stop
         style="stop-color:#000000;stop-opacity:0;"
         offset="1"
         id="stop6949-7" />
    </linearGradient>
    <linearGradient
       inkscape:collect="always"
       xlink:href="#linearGradient7343"
       id="linearGradient7159"
       gradientUnits="userSpaceOnUse"
       gradientTransform="matrix(1.402446,0,0,1.4017206,-187.77429,129.27208)"
       x1="157.5466"
       y1="42.639908"
       x2="157.5466"
       y2="8.2586107" />
    <linearGradient
       id="linearGradient7343">
      <stop
         id="stop7345"
         offset="0"
         style="stop-color:#388ccc;stop-opacity:1;" />
      <stop
         id="stop7347"
         offset="1"
         style="stop-color:#78b1dc;stop-opacity:1;" />
    </linearGradient>
    <linearGradient
       inkscape:collect="always"
       xlink:href="#linearGradient6977-6"
       id="linearGradient7161"
       gradientUnits="userSpaceOnUse"
       x1="156.71875"
       y1="-10.294855"
       x2="156.71875"
       y2="51.989662" />
    <linearGradient
       inkscape:collect="always"
       id="linearGradient6977-6">
      <stop
         style="stop-color:#ffffff;stop-opacity:1;"
         offset="0"
         id="stop6979-0" />
      <stop
         style="stop-color:#ffffff;stop-opacity:0;"
         offset="1"
         id="stop6981-0" />
    </linearGradient>
    <radialGradient
       inkscape:collect="always"
       xlink:href="#linearGradient6945-7-7"
       id="radialGradient7163"
       gradientUnits="userSpaceOnUse"
       gradientTransform="matrix(1,0,0,0.33333333,0,33.785016)"
       cx="170.58949"
       cy="50.677525"
       fx="170.58949"
       fy="50.677525"
       r="7.4246206" />
    <linearGradient
       inkscape:collect="always"
       id="linearGradient6945-7-7">
      <stop
         style="stop-color:#000000;stop-opacity:1;"
         offset="0"
         id="stop6947-5-6" />
      <stop
         style="stop-color:#000000;stop-opacity:0;"
         offset="1"
         id="stop6949-9-2" />
    </linearGradient>
  </defs>
  <sodipodi:namedview
     id="base"
     pagecolor="#ffffff"
     bordercolor="#666666"
     borderopacity="1.0"
     inkscape:pageopacity="0.0"
     inkscape:pageshadow="2"
     inkscape:zoom="3.959798"
     inkscape:cx="119.14285"
     inkscape:cy="34.857137"
     inkscape:document-units="px"
     inkscape:current-layer="layer1"
     showgrid="false"
     fit-margin-top="0"
     fit-margin-left="0"
     fit-margin-right="0"
     fit-margin-bottom="0" />
  <metadata
     id="metadata7844">
    <rdf:RDF>
      <cc:Work
         rdf:about="">
        <dc:format>image/svg+xml</dc:format>
        <dc:type
           rdf:resource="http://purl.org/dc/dcmitype/StillImage" />
        <dc:title></dc:title>
      </cc:Work>
    </rdf:RDF>
  </metadata>
  <g
     inkscape:label="Capa 1"
     inkscape:groupmode="layer"
     id="layer1"
     transform="translate(-230.85715,-246.07646)">
    <g
       style="display:inline;enable-background:new"
       id="g7149"
       transform="matrix(0.96482667,0,0,0.96482667,230.42328,113.41887)">
      <path
         transform="matrix(1.4501525,0,0,1.6447994,-195.4595,114.32942)"
         d="m 178.01411,50.677525 c 0,1.366834 -3.32411,2.474873 -7.42462,2.474873 -4.1005,0 -7.42462,-1.108039 -7.42462,-2.474873 0,-1.366835 3.32412,-2.474874 7.42462,-2.474874 4.10051,0 7.42462,1.108039 7.42462,2.474874 z"
         sodipodi:ry="2.4748735"
         sodipodi:rx="7.4246206"
         sodipodi:cy="50.677525"
         sodipodi:cx="170.58949"
         id="path6943-2"
         style="opacity:0.3;color:#000000;fill:url(#radialGradient7157);fill-opacity:1;fill-rule:nonzero;stroke:none;stroke-width:1;marker:none;visibility:visible;display:inline;overflow:visible;enable-background:accumulate"
         sodipodi:type="arc" />
      <path
         inkscape:connector-curvature="0"
         id="path6667-7"
         d="m 46.039755,139.04032 c -4.55046,0 -8.23937,3.68698 -8.23937,8.2351 0,1.46938 0.37711,2.83564 1.05184,4.02996 l -9.02825,9.02357 c -1.62913,-0.66184 -3.39223,-1.05129 -5.25917,-1.05129 -2.42046,0 -4.71828,0.62941 -6.70545,1.70835 l -2.36662,-8.80456 c 0.7256,-0.81672 1.18331,-1.88809 1.18331,-3.06626 0,-2.5547 -2.08959,-4.59939 -4.6456,-4.59939 -2.5560098,0 -4.6017798,2.04469 -4.6017798,4.59939 0,2.28057 1.64018,4.17514 3.8129098,4.55559 l 2.80488,10.38149 c -2.17887,2.47025 -3.5061,5.69059 -3.5061,9.2426 0,7.74149 6.27895,14.0172 14.02445,14.0172 4.29097,0 8.12112,-1.91547 10.69364,-4.94982 l 7.09989,4.11756 c -0.18699,0.75642 -0.26295,1.55124 -0.26295,2.3654 0,5.41904 4.39527,9.81204 9.81711,9.81204 5.42185,0 9.81712,-4.393 9.81712,-9.81204 0,-5.41905 -4.39527,-9.81205 -9.81712,-9.81205 -2.9928,0 -5.69366,1.34974 -7.49432,3.4605 l -6.83692,-3.94234 c 0.65241,-1.61792 1.00801,-3.40507 1.00801,-5.25645 0,-4.23063 -1.89976,-7.98661 -4.86474,-10.5567 l 8.2832,-8.27892 c 1.18754,0.66323 2.57501,1.0513 4.03203,1.0513 4.55048,0 8.23937,-3.68699 8.23937,-8.23513 0,-4.54812 -3.68889,-8.2351 -8.23937,-8.2351 z"
         style="opacity:0.98999999;color:#000000;fill:url(#linearGradient7159);fill-opacity:1;fill-rule:nonzero;stroke:#255f8f;stroke-width:1.03645563;stroke-linecap:round;stroke-linejoin:round;stroke-miterlimit:4;stroke-opacity:1;stroke-dasharray:none;stroke-dashoffset:0;marker:none;visibility:visible;display:inline;overflow:visible;enable-background:accumulate" />
      <text
         transform="scale(1.0002587,0.99974135)"
         sodipodi:linespacing="125%"
         id="text6939-0"
         y="180.31953"
         x="17.783316"
         style="font-size:25.00100136px;font-style:normal;font-variant:normal;font-weight:bold;font-stretch:normal;line-height:125%;letter-spacing:0px;word-spacing:0px;fill:#ffffff;fill-opacity:1;stroke:none;display:inline;enable-background:new;font-family:Droid Sans;-inkscape-font-specification:Droid Sans Bold"
         xml:space="preserve"><tspan
           y="180.31953"
           x="17.783316"
           id="tspan6941-1"
           sodipodi:role="line">a</tspan></text>
      <path
         transform="matrix(1.402446,0,0,1.4017206,-187.77429,129.27208)"
         d="m 166.71875,7.6875 c -2.85411,0 -5.15625,2.3021347 -5.15625,5.15625 0,0.924674 0.23448,1.784296 0.65625,2.53125 a 0.72273752,0.72273752 0 0 1 -0.125,0.84375 l -6.4375,6.4375 A 0.72273752,0.72273752 0 0 1 154.875,22.8125 c -1.08476,-0.44092 -2.2381,-0.6875 -3.46875,-0.6875 -1.60055,0 -3.12231,0.410546 -4.4375,1.125 A 0.72273752,0.72273752 0 0 1 145.9375,22.8125 L 144.25,16.53125 a 0.72273752,0.72273752 0 0 1 0.15625,-0.65625 c 0.40923,-0.460852 0.65625,-1.065306 0.65625,-1.71875 0,-1.428679 -1.15681,-2.5625 -2.59375,-2.5625 -1.43694,0 -2.5625,1.125561 -2.5625,2.5625 0,1.280659 0.91657,2.319544 2.125,2.53125 a 0.72273752,0.72273752 0 0 1 0.5625,0.53125 l 2,7.40625 a 0.72273752,0.72273752 0 0 1 -0.15625,0.65625 c -1.44387,1.637785 -2.3125,3.770893 -2.3125,6.125 0,5.13229 4.14896,9.28125 9.28125,9.28125 2.84445,0 5.35992,-1.271994 7.0625,-3.28125 a 0.72273752,0.72273752 0 0 1 0.9375,-0.15625 l 5.0625,2.9375 A 0.72273752,0.72273752 0 0 1 164.78125,41 c -0.11599,0.46943 -0.15625,0.964096 -0.15625,1.5 0,3.475435 2.80582,6.28125 6.28125,6.28125 3.47543,0 6.28125,-2.805815 6.28125,-6.28125 0,-3.475435 -2.80582,-6.28125 -6.28125,-6.28125 -1.9166,0 -3.6301,0.868659 -4.78125,2.21875 a 0.72273752,0.72273752 0 0 1 -0.9375,0.15625 l -4.875,-2.8125 A 0.72273752,0.72273752 0 0 1 160.03125,34.875 c 0.43025,-1.067557 0.65625,-2.24045 0.65625,-3.46875 0,-2.801942 -1.25245,-5.294687 -3.21875,-7 A 0.72273752,0.72273752 0 0 1 157.4375,23.375 l 5.90625,-5.90625 a 0.72273752,0.72273752 0 0 1 0.84375,-0.125 C 164.92982,17.758543 165.80821,18 166.71875,18 c 2.85411,0 5.15625,-2.302135 5.15625,-5.15625 0,-2.8541153 -2.30214,-5.15625 -5.15625,-5.15625 z"
         id="path6975-5"
         style="opacity:0.98999999;color:#000000;fill:none;stroke:url(#linearGradient7161);stroke-width:0.73922539;stroke-linecap:round;stroke-linejoin:round;stroke-miterlimit:4;stroke-opacity:1;stroke-dasharray:none;stroke-dashoffset:0;marker:none;visibility:visible;display:inline;overflow:visible;enable-background:accumulate"
         inkscape:original="M 166.71875 6.96875 C 163.47408 6.96875 160.84375 9.599077 160.84375 12.84375 C 160.84375 13.89201 161.11265 14.866714 161.59375 15.71875 L 155.15625 22.15625 C 153.99461 21.684079 152.73745 21.40625 151.40625 21.40625 C 149.68036 21.40625 148.04193 21.855276 146.625 22.625 L 144.9375 16.34375 C 145.45489 15.761092 145.78125 14.996762 145.78125 14.15625 C 145.78125 12.33371 144.29129 10.875 142.46875 10.875 C 140.64621 10.875 139.1875 12.33371 139.1875 14.15625 C 139.1875 15.783225 140.35702 17.134839 141.90625 17.40625 L 143.90625 24.8125 C 142.35262 26.574792 141.40625 28.872217 141.40625 31.40625 C 141.40625 36.929097 145.8834 41.40625 151.40625 41.40625 C 154.46588 41.40625 157.19693 40.039729 159.03125 37.875 L 164.09375 40.8125 C 163.96041 41.352137 163.90625 41.919172 163.90625 42.5 C 163.90625 46.365993 167.04026 49.5 170.90625 49.5 C 174.77224 49.5 177.90625 46.365993 177.90625 42.5 C 177.90625 38.634007 174.77224 35.5 170.90625 35.5 C 168.77226 35.5 166.84644 36.462915 165.5625 37.96875 L 160.6875 35.15625 C 161.15269 34.002007 161.40625 32.72704 161.40625 31.40625 C 161.40625 28.388079 160.05165 25.708536 157.9375 23.875 L 163.84375 17.96875 C 164.69052 18.44191 165.67983 18.71875 166.71875 18.71875 C 169.96342 18.71875 172.59375 16.088423 172.59375 12.84375 C 172.59375 9.599077 169.96342 6.96875 166.71875 6.96875 z "
         inkscape:radius="-0.72266525"
         sodipodi:type="inkscape:offset" />
      <path
         transform="matrix(2.728532,0,0,1.6447994,-440.65616,114.32942)"
         d="m 178.01411,50.677525 c 0,1.366834 -3.32411,2.474873 -7.42462,2.474873 -4.1005,0 -7.42462,-1.108039 -7.42462,-2.474873 0,-1.366835 3.32412,-2.474874 7.42462,-2.474874 4.10051,0 7.42462,1.108039 7.42462,2.474874 z"
         sodipodi:ry="2.4748735"
         sodipodi:rx="7.4246206"
         sodipodi:cy="50.677525"
         sodipodi:cx="170.58949"
         id="path6943-0-8"
         style="opacity:0.15;color:#000000;fill:url(#radialGradient7163);fill-opacity:1;fill-rule:nonzero;stroke:none;stroke-width:1;marker:none;visibility:visible;display:inline;overflow:visible;enable-background:accumulate"
         sodipodi:type="arc" />
    </g>
  </g>
</svg>
