<?xml version="1.0" encoding="UTF-8" standalone="no"?>
<!-- Created with Inkscape (http://www.inkscape.org/) -->

<svg
   xmlns:dc="http://purl.org/dc/elements/1.1/"
   xmlns:cc="http://creativecommons.org/ns#"
   xmlns:rdf="http://www.w3.org/1999/02/22-rdf-syntax-ns#"
   xmlns:svg="http://www.w3.org/2000/svg"
   xmlns="http://www.w3.org/2000/svg"
   xmlns:xlink="http://www.w3.org/1999/xlink"
   xmlns:sodipodi="http://sodipodi.sourceforge.net/DTD/sodipodi-0.dtd"
   xmlns:inkscape="http://www.inkscape.org/namespaces/inkscape"
   width="64"
   height="64"
   id="svg4426"
   version="1.1"
   inkscape:version="0.48.1 r9760"
   sodipodi:docname="Nuevo documento 10">
  <defs
     id="defs4428">
    <radialGradient
       inkscape:collect="always"
       xlink:href="#linearGradient3958"
       id="radialGradient4067"
       gradientUnits="userSpaceOnUse"
       gradientTransform="matrix(-2.2972806e-7,4.1050952,-4.1575912,-3.651116e-7,122.60339,-505.16716)"
       cx="156.36618"
       cy="21.664389"
       fx="156.36618"
       fy="21.664389"
       r="17.375" />
    <linearGradient
       id="linearGradient3958">
      <stop
         offset="0"
         style="stop-color:#8badea;stop-opacity:1"
         id="stop3960" />
      <stop
         offset="0.26238"
         style="stop-color:#6396cd;stop-opacity:1"
         id="stop3962" />
      <stop
         offset="0.66093999"
         style="stop-color:#3b7caf;stop-opacity:1"
         id="stop3964" />
      <stop
         offset="1"
         style="stop-color:#194c70;stop-opacity:1"
         id="stop3966" />
    </linearGradient>
    <radialGradient
       inkscape:collect="always"
       xlink:href="#linearGradient3948"
       id="radialGradient4069"
       gradientUnits="userSpaceOnUse"
       gradientTransform="matrix(0,3.912552,-3.3335086,1.0031662e-6,215.14741,-598.76563)"
       cx="154.3412"
       cy="18.170469"
       fx="154.3412"
       fy="18.170469"
       r="14.234375" />
    <linearGradient
       id="linearGradient3948">
      <stop
         offset="0"
         style="stop-color:#487ede;stop-opacity:1;"
         id="stop3950" />
      <stop
         offset="0.26238"
         style="stop-color:#366eaa;stop-opacity:1;"
         id="stop3952" />
      <stop
         offset="0.66093999"
         style="stop-color:#275273;stop-opacity:1;"
         id="stop3954" />
      <stop
         offset="1"
         style="stop-color:#0a1f2e;stop-opacity:1;"
         id="stop3956" />
    </linearGradient>
    <linearGradient
       inkscape:collect="always"
       xlink:href="#linearGradient3899"
       id="linearGradient4071"
       gradientUnits="userSpaceOnUse"
       x1="157.8125"
       y1="7.2968769"
       x2="157.8125"
       y2="47.430099" />
    <linearGradient
       inkscape:collect="always"
       id="linearGradient3899">
      <stop
         style="stop-color:#ffffff;stop-opacity:1;"
         offset="0"
         id="stop3901" />
      <stop
         style="stop-color:#ffffff;stop-opacity:0;"
         offset="1"
         id="stop3903" />
    </linearGradient>
    <linearGradient
       inkscape:collect="always"
       xlink:href="#linearGradient3907"
       id="linearGradient4073"
       gradientUnits="userSpaceOnUse"
       gradientTransform="matrix(1.3744107,0,0,1.3701017,-184.04965,130.76807)"
       x1="152.59052"
       y1="5.2252188"
       x2="152.59052"
       y2="48.276367" />
    <linearGradient
       id="linearGradient3907"
       inkscape:collect="always">
      <stop
         id="stop3909"
         offset="0"
         style="stop-color:#4083c2;stop-opacity:1" />
      <stop
         id="stop3911"
         offset="1"
         style="stop-color:#1f4b6a;stop-opacity:1" />
    </linearGradient>
    <radialGradient
       inkscape:collect="always"
       xlink:href="#linearGradient3978"
       id="radialGradient4075"
       gradientUnits="userSpaceOnUse"
       cx="159.98289"
       cy="34.237293"
       fx="159.98289"
       fy="34.237293"
       r="9.7227173" />
    <linearGradient
       inkscape:collect="always"
       id="linearGradient3978">
      <stop
         style="stop-color:#ffffff;stop-opacity:1;"
         offset="0"
         id="stop3980" />
      <stop
         style="stop-color:#ffffff;stop-opacity:0;"
         offset="1"
         id="stop3982" />
    </linearGradient>
    <radialGradient
       r="10.625"
       fy="4.625"
       fx="62.625"
       cy="4.625"
       cx="62.625"
       gradientTransform="matrix(2.7211625,0,0,0.92168287,61.015771,341.02796)"
       gradientUnits="userSpaceOnUse"
       id="radialGradient3022-6"
       xlink:href="#linearGradient8838"
       inkscape:collect="always" />
    <linearGradient
       id="linearGradient8838">
      <stop
         id="stop8840"
         style="stop-color:#000000;stop-opacity:1"
         offset="0" />
      <stop
         id="stop8842"
         style="stop-color:#000000;stop-opacity:0"
         offset="1" />
    </linearGradient>
  </defs>
  <sodipodi:namedview
     id="base"
     pagecolor="#ffffff"
     bordercolor="#666666"
     borderopacity="1.0"
     inkscape:pageopacity="0.0"
     inkscape:pageshadow="2"
     inkscape:zoom="11.140625"
     inkscape:cx="32"
     inkscape:cy="32"
     inkscape:document-units="px"
     inkscape:current-layer="layer1"
     showgrid="false"
     fit-margin-top="0"
     fit-margin-left="0"
     fit-margin-right="0"
     fit-margin-bottom="0" />
  <metadata
     id="metadata4431">
    <rdf:RDF>
      <cc:Work
         rdf:about="">
        <dc:format>image/svg+xml</dc:format>
        <dc:type
           rdf:resource="http://purl.org/dc/dcmitype/StillImage" />
        <dc:title></dc:title>
      </cc:Work>
    </rdf:RDF>
  </metadata>
  <g
     inkscape:label="Capa 1"
     inkscape:groupmode="layer"
     id="layer1"
     transform="translate(-199.42857,-291.79074)">
    <path
       inkscape:connector-curvature="0"
       d="m 260.34092,345.29075 c 0,5.40847 -12.9445,9.79289 -28.91235,9.79289 -15.96785,0 -28.91235,-4.38442 -28.91235,-9.79289 0,-5.40847 12.9445,-9.79289 28.91235,-9.79289 15.96785,0 28.91235,4.38442 28.91235,9.79289 l 0,0 z"
       id="path8836-1"
       style="opacity:0.3;fill:url(#radialGradient3022-6);fill-opacity:1;fill-rule:evenodd;stroke:none;stroke-width:0.99999988;marker:none;visibility:visible;display:inline;overflow:visible;enable-background:new" />
    <g
       style="display:inline;enable-background:new"
       id="g4060"
       transform="matrix(0.96666667,0,0,0.96666667,198.67635,160.64717)">
      <path
         style="color:#000000;fill:url(#radialGradient4067);fill-opacity:1;stroke:none;stroke-width:1;marker:none;visibility:visible;display:inline;overflow:visible;enable-background:accumulate"
         d="m 32.55015,138.218 c -5.83301,8.40364 -11.36597,17.02593 -17.00834,25.56095 -1.52564,2.62705 -2.93802,4.9279 -3.90847,7.40711 -0.61326,1.82026 -0.94491,3.74342 -0.94491,5.7373 0,11.20278 10.3785,20.29463 23.19319,20.29463 12.81469,0 23.19317,-9.09185 23.19317,-20.29463 -0.0498,-2.45283 -0.56124,-4.56338 -1.15966,-6.2939 -1.20056,-3.21253 -3.97061,-6.40882 -5.66944,-9.03411 C 44.49888,153.69568 38.16426,146.213 32.55015,138.218 z"
         id="path3986"
         inkscape:connector-curvature="0"
         sodipodi:nodetypes="cccsscccc" />
      <path
         transform="matrix(1.3744108,0,0,1.372093,-184.04965,130.67148)"
         sodipodi:type="inkscape:offset"
         inkscape:radius="-0.32429889"
         inkscape:original="M 155.9375 16.3125 C 152.75314 16.44026 149.90625 17.09375 149.90625 17.09375 L 149.6875 17.21875 C 148.19124 19.505525 146.72173 21.813092 145.21875 24.09375 C 144.10871 26.011158 143.08109 27.690491 142.375 29.5 C 141.9288 30.828557 141.6875 32.232217 141.6875 33.6875 C 141.6875 41.864101 149.23873 48.5 158.5625 48.5 C 162.668 48.5 166.45019 47.200737 169.375 45.0625 C 165.03252 43.916223 159.50006 42.205515 156.34375 40.1875 C 146.22104 32.716551 151.52833 20.205017 163.59375 22.6875 C 166.73864 23.334567 170.15625 29.75 170.15625 29.75 C 170.15625 29.75 168.3495 19.452055 161.46875 16.9375 C 159.87221 16.354049 157.84812 16.235844 155.9375 16.3125 z "
         style="fill:url(#radialGradient4069);fill-opacity:1;stroke:none"
         id="path3988"
         d="m 155.9375,16.625 c -3.06428,0.122942 -5.73079,0.717367 -5.875,0.75 l -0.0937,0.03125 c -0.008,0.01205 -0.0234,0.0192 -0.0312,0.03125 -1.48188,2.265437 -2.94562,4.548198 -4.4375,6.8125 -0.005,0.0083 0.005,0.02301 0,0.03125 -1.1014,1.901719 -2.12365,3.556199 -2.8125,5.3125 -0.003,0.0095 0.003,0.02171 0,0.03125 -0.42936,1.288164 -0.6875,2.653502 -0.6875,4.0625 0,7.976937 7.3926,14.5 16.5625,14.5 3.77524,0 7.2486,-1.140467 10.03125,-3 -4.23952,-1.143637 -9.36891,-2.756816 -12.4375,-4.71875 a 0.32433132,0.32433132 0 0 1 0,-0.03125 c -5.15274,-3.802918 -6.44452,-8.94327 -4.8125,-12.84375 1.63202,-3.90048 6.16526,-6.483556 12.3125,-5.21875 1.75695,0.361496 3.3923,2.199313 4.65625,3.90625 0.4087,0.551939 0.69069,0.986512 1,1.46875 -0.27504,-0.939835 -0.65382,-2.099669 -1.21875,-3.34375 -1.29338,-2.848278 -3.43508,-5.944821 -6.75,-7.15625 -1.52681,-0.557967 -3.51814,-0.700753 -5.40625,-0.625 z" />
      <path
         transform="matrix(1.3744108,0,0,1.372093,-184.04965,130.67148)"
         sodipodi:type="inkscape:offset"
         inkscape:radius="-0.75799531"
         inkscape:original="M 157.59375 5.5 C 153.34974 11.624693 149.32405 17.904558 145.21875 24.125 C 144.10871 26.039625 143.08109 27.724367 142.375 29.53125 C 141.9288 30.857879 141.6875 32.26558 141.6875 33.71875 C 141.6875 41.883484 149.23873 48.5 158.5625 48.5 C 167.88627 48.5 175.4375 41.883484 175.4375 33.71875 C 175.4013 31.931092 175.02915 30.386224 174.59375 29.125 C 173.72024 26.783667 171.70479 24.444597 170.46875 22.53125 C 166.28746 16.773857 161.67849 11.326867 157.59375 5.5 z "
         style="opacity:0.4;color:#000000;fill:none;stroke:url(#linearGradient4071);stroke-width:0.75330907;stroke-linecap:round;stroke-linejoin:miter;stroke-miterlimit:4;stroke-opacity:1;stroke-dasharray:none;stroke-dashoffset:0;marker:none;visibility:visible;display:inline;overflow:visible;enable-background:accumulate"
         id="path3990"
         d="m 157.625,6.8125 c -4.00667,5.823082 -7.84381,11.768095 -11.75,17.6875 -0.008,0.01208 -0.0233,0.01917 -0.0312,0.03125 -1.10055,1.897196 -2.08134,3.547257 -2.75,5.25 -0.003,0.0097 0.003,0.02158 0,0.03125 -0.41465,1.242795 -0.65625,2.547564 -0.65625,3.90625 0,7.697375 7.15983,14.03125 16.125,14.03125 8.96517,0 16.125,-6.333875 16.125,-14.03125 -0.0342,-1.691362 -0.39593,-3.137066 -0.8125,-4.34375 -0.79517,-2.131353 -2.744,-4.418445 -4.03125,-6.40625 -0.004,-0.0066 0.004,-0.02461 0,-0.03125 C 165.9007,17.510149 161.56756,12.332366 157.625,6.8125 z" />
      <path
         sodipodi:nodetypes="cccsscccc"
         inkscape:connector-curvature="0"
         id="path3992"
         d="m 32.55015,138.218 c -5.83301,8.40365 -11.36597,17.02593 -17.00834,25.56096 -1.52565,2.62704 -2.93802,4.9279 -3.90848,7.40711 -0.61326,1.82026 -0.94491,3.74341 -0.94491,5.7373 0,11.20277 10.37849,20.29463 23.19318,20.29463 12.81469,0 23.19319,-9.09186 23.19319,-20.29463 -0.0498,-2.45283 -0.56124,-4.56339 -1.15966,-6.29391 -1.20056,-3.21252 -3.97062,-6.40881 -5.66945,-9.0341 C 44.49887,153.69568 38.16426,146.213 32.55015,138.218 z"
         style="color:#000000;fill:none;stroke:url(#linearGradient4073);stroke-width:1.03448272;stroke-linecap:round;stroke-linejoin:round;stroke-miterlimit:4;stroke-opacity:1;stroke-dasharray:none;stroke-dashoffset:0;marker:none;visibility:visible;display:inline;overflow:visible;enable-background:accumulate" />
      <path
         sodipodi:type="arc"
         style="opacity:0.5;color:#000000;fill:url(#radialGradient4075);fill-opacity:1;stroke:none;stroke-width:0.82709104;marker:none;visibility:visible;display:inline;overflow:visible;enable-background:accumulate"
         id="path3994"
         sodipodi:cx="159.98289"
         sodipodi:cy="34.237293"
         sodipodi:rx="9.7227173"
         sodipodi:ry="9.7227173"
         d="m 169.70561,34.237293 c 0,5.369709 -4.35301,9.722718 -9.72272,9.722718 -5.3697,0 -9.72271,-4.353009 -9.72271,-9.722718 0,-5.369708 4.35301,-9.722717 9.72271,-9.722717 5.36971,0 9.72272,4.353009 9.72272,9.722717 z"
         transform="matrix(1.9491644,0,0,1.871036,-278.18707,111.6486)" />
    </g>
  </g>
</svg>
