<?xml version="1.0" encoding="UTF-8" standalone="no"?>
<!-- Created with Inkscape (http://www.inkscape.org/) -->

<svg
   xmlns:dc="http://purl.org/dc/elements/1.1/"
   xmlns:cc="http://creativecommons.org/ns#"
   xmlns:rdf="http://www.w3.org/1999/02/22-rdf-syntax-ns#"
   xmlns:svg="http://www.w3.org/2000/svg"
   xmlns="http://www.w3.org/2000/svg"
   xmlns:xlink="http://www.w3.org/1999/xlink"
   xmlns:sodipodi="http://sodipodi.sourceforge.net/DTD/sodipodi-0.dtd"
   xmlns:inkscape="http://www.inkscape.org/namespaces/inkscape"
   width="64"
   height="64"
   id="svg6236"
   version="1.1"
   inkscape:version="0.48.1 r9760"
   sodipodi:docname="Nuevo documento 9">
  <defs
     id="defs6238">
    <linearGradient
       inkscape:collect="always"
       xlink:href="#linearGradient4631"
       id="linearGradient4741"
       gradientUnits="userSpaceOnUse"
       x1="141.95511"
       y1="38.533707"
       x2="145.81512"
       y2="47.01899" />
    <linearGradient
       inkscape:collect="always"
       id="linearGradient4631">
      <stop
         style="stop-color:#ffffff;stop-opacity:0.40000001"
         offset="0"
         id="stop4633" />
      <stop
         style="stop-color:#ffffff;stop-opacity:0"
         offset="1"
         id="stop4635" />
    </linearGradient>
    <linearGradient
       inkscape:collect="always"
       xlink:href="#linearGradient5817"
       id="linearGradient4739"
       gradientUnits="userSpaceOnUse"
       gradientTransform="matrix(1.3842526,0,0,1.3855949,226.57572,117.60199)"
       x1="38.449001"
       y1="8.6672001"
       x2="38.536999"
       y2="10.435" />
    <linearGradient
       id="linearGradient5817">
      <stop
         id="stop5819"
         style="stop-color:#fff"
         offset="0" />
      <stop
         id="stop5821"
         style="stop-color:#fff;stop-opacity:0"
         offset="1" />
    </linearGradient>
    <linearGradient
       inkscape:collect="always"
       xlink:href="#linearGradient5817"
       id="linearGradient4737"
       gradientUnits="userSpaceOnUse"
       gradientTransform="matrix(1.3842526,0,0,1.3855949,226.5541,117.63447)"
       x1="38.449001"
       y1="8.6672001"
       x2="38.536999"
       y2="10.435" />
    <linearGradient
       inkscape:collect="always"
       xlink:href="#linearGradient5817"
       id="linearGradient4735"
       gradientUnits="userSpaceOnUse"
       gradientTransform="matrix(1.6918335,0,0,1.3855949,213.72831,117.66507)"
       x1="40.546001"
       y1="9.4375"
       x2="42.912998"
       y2="9.8352003" />
    <linearGradient
       inkscape:collect="always"
       xlink:href="#linearGradient5817"
       id="linearGradient4733"
       gradientUnits="userSpaceOnUse"
       gradientTransform="matrix(1.3842526,0,0,1.3855949,226.5541,117.63447)"
       x1="38.449001"
       y1="8.6672001"
       x2="38.625999"
       y2="12.291" />
    <radialGradient
       inkscape:collect="always"
       xlink:href="#linearGradient7012-661-145-733-759-865-745"
       id="radialGradient4729"
       gradientUnits="userSpaceOnUse"
       gradientTransform="matrix(1.8531624,2.3636298e-7,-1.6473384e-7,1.2940729,-24.64747,118.70385)"
       cx="142.00789"
       cy="36.496956"
       fx="142.00789"
       fy="36.496956"
       r="16.187489" />
    <linearGradient
       id="linearGradient7012-661-145-733-759-865-745">
      <stop
         offset="0"
         style="stop-color:#9cbbd9;stop-opacity:1"
         id="stop2699" />
      <stop
         offset="1"
         style="stop-color:#5c82ab;stop-opacity:1"
         id="stop2701" />
    </linearGradient>
    <linearGradient
       inkscape:collect="always"
       xlink:href="#linearGradient3390"
       id="linearGradient4731"
       gradientUnits="userSpaceOnUse"
       x1="167.91298"
       y1="49.848286"
       x2="148.16809"
       y2="38.53458"
       gradientTransform="matrix(1.3842525,0,0,1.3855949,41.38419,110.69684)" />
    <linearGradient
       id="linearGradient3390">
      <stop
         offset="0"
         style="stop-color:#425e7b;stop-opacity:1"
         id="stop3392" />
      <stop
         offset="1"
         style="stop-color:#7a91a7;stop-opacity:1"
         id="stop3394" />
    </linearGradient>
    <linearGradient
       inkscape:collect="always"
       xlink:href="#linearGradient6404"
       id="linearGradient4725"
       gradientUnits="userSpaceOnUse"
       gradientTransform="matrix(1.3842525,0,0,1.3855949,41.38419,109.27553)"
       x1="145.94147"
       y1="36.346992"
       x2="145.94147"
       y2="37.773926" />
    <linearGradient
       id="linearGradient6404">
      <stop
         offset="0"
         style="stop-color:#f9f9f9;stop-opacity:1"
         id="stop6406" />
      <stop
         offset="1"
         style="stop-color:#c9c9c9;stop-opacity:1"
         id="stop6408" />
    </linearGradient>
    <radialGradient
       inkscape:collect="always"
       xlink:href="#linearGradient3484"
       id="radialGradient4727"
       gradientUnits="userSpaceOnUse"
       gradientTransform="matrix(0,1.5245897,-2.4879756,0,307.62199,-52.722067)"
       cx="136.48074"
       cy="30.90633"
       fx="136.48074"
       fy="30.90633"
       r="11.171876" />
    <linearGradient
       id="linearGradient3484">
      <stop
         offset="0"
         style="stop-color:#bdbdbd;stop-opacity:1"
         id="stop3486" />
      <stop
         offset="1"
         style="stop-color:#d0d0d0;stop-opacity:1"
         id="stop3488" />
    </linearGradient>
    <linearGradient
       inkscape:collect="always"
       xlink:href="#linearGradient5689"
       id="linearGradient4723"
       gradientUnits="userSpaceOnUse"
       gradientTransform="matrix(1.4418867,0,0,1.4434367,225.69836,115.7754)"
       x1="16.207001"
       y1="25.374001"
       x2="17.688"
       y2="34.937" />
    <linearGradient
       id="linearGradient5689"
       y2="34.937"
       gradientUnits="userSpaceOnUse"
       x2="17.688"
       y1="25.374001"
       x1="16.207001">
      <stop
         id="stop5685"
         style="stop-color:#fff"
         offset="0" />
      <stop
         id="stop5687"
         style="stop-color:#fff;stop-opacity:0"
         offset="1" />
    </linearGradient>
    <linearGradient
       inkscape:collect="always"
       xlink:href="#linearGradient5679"
       id="linearGradient4719"
       gradientUnits="userSpaceOnUse"
       gradientTransform="matrix(1.3842525,0,0,1.3855949,230.16091,117.42801)"
       x1="12.164"
       y1="25.804001"
       x2="11.655"
       y2="31.648001" />
    <linearGradient
       id="linearGradient5679"
       y2="31.648001"
       gradientUnits="userSpaceOnUse"
       x2="11.655"
       gradientTransform="translate(2.6056,-0.14901)"
       y1="25.804001"
       x1="12.164">
      <stop
         id="stop5635"
         style="stop-color:#f8f8f8"
         offset="0" />
      <stop
         id="stop5637"
         style="stop-color:#c7c7c1"
         offset="1" />
    </linearGradient>
    <linearGradient
       inkscape:collect="always"
       xlink:href="#linearGradient5681"
       id="linearGradient4721"
       gradientUnits="userSpaceOnUse"
       gradientTransform="matrix(1.3842525,0,0,1.3855949,225.08333,117.63447)"
       x1="20.882"
       y1="39.453999"
       x2="18.973"
       y2="24.030001" />
    <linearGradient
       id="linearGradient5681"
       y2="24.030001"
       gradientUnits="userSpaceOnUse"
       x2="18.973"
       gradientTransform="translate(-1.0625,0)"
       y1="39.453999"
       x1="20.882">
      <stop
         id="stop5662"
         style="stop-color:#cbcbcb"
         offset="0" />
      <stop
         id="stop5664"
         style="stop-color:#9f9f9f"
         offset="1" />
    </linearGradient>
    <radialGradient
       inkscape:collect="always"
       xlink:href="#radialGradient6848"
       id="radialGradient4715"
       gradientUnits="userSpaceOnUse"
       gradientTransform="matrix(1.3842525,0,0,2.1543229,226.5541,93.072033)"
       cx="34.312"
       cy="31.952999"
       r="2.2811999" />
    <radialGradient
       id="radialGradient6848"
       gradientUnits="userSpaceOnUse"
       cy="31.952999"
       cx="34.312"
       gradientTransform="matrix(1,0,0,1.5548,0,-17.727)"
       r="2.2811999">
      <stop
         id="stop6844"
         style="stop-color:#d8d9d7"
         offset="0" />
      <stop
         id="stop6846"
         style="stop-color:#7c7f79"
         offset="1" />
    </radialGradient>
    <linearGradient
       inkscape:collect="always"
       xlink:href="#linearGradient5617"
       id="linearGradient4717"
       gradientUnits="userSpaceOnUse"
       gradientTransform="matrix(1.3842525,0,0,1.3855949,226.5541,117.63447)"
       x1="34.125"
       y1="35.5"
       x2="33.780998"
       y2="29.516001" />
    <linearGradient
       id="linearGradient5617"
       y2="29.516001"
       gradientUnits="userSpaceOnUse"
       x2="33.780998"
       y1="35.5"
       x1="34.125">
      <stop
         id="stop5613"
         style="stop-color:#5e5e5e"
         offset="0" />
      <stop
         id="stop5615"
         style="stop-color:#929292"
         offset="1" />
    </linearGradient>
    <linearGradient
       inkscape:collect="always"
       xlink:href="#linearGradient6838"
       id="linearGradient4713"
       gradientUnits="userSpaceOnUse"
       gradientTransform="matrix(1.457618,0,0,1.3855949,223.44645,117.63447)"
       x1="30.25"
       y1="10.232"
       x2="30.25"
       y2="8.625" />
    <linearGradient
       id="linearGradient6838"
       y2="8.625"
       gradientUnits="userSpaceOnUse"
       x2="30.25"
       gradientTransform="matrix(1.053,0,0,1,-2.245,0)"
       y1="10.232"
       x1="30.25">
      <stop
         id="stop6834"
         style="stop-color:#555753"
         offset="0" />
      <stop
         id="stop6836"
         style="stop-color:#838680"
         offset="1" />
    </linearGradient>
    <linearGradient
       inkscape:collect="always"
       xlink:href="#linearGradient5743"
       id="linearGradient4711"
       gradientUnits="userSpaceOnUse"
       gradientTransform="matrix(1.3842525,0,0,1.3855949,226.5541,117.63447)"
       x1="27.445"
       y1="16.572001"
       x2="26.719"
       y2="26.118" />
    <linearGradient
       id="linearGradient5743"
       y2="26.118"
       gradientUnits="userSpaceOnUse"
       x2="26.719"
       y1="16.572001"
       x1="27.445">
      <stop
         id="stop5739"
         style="stop-color:#babdb6"
         offset="0" />
      <stop
         id="stop5741"
         style="stop-color:#dddedb"
         offset="1" />
    </linearGradient>
    <linearGradient
       inkscape:collect="always"
       xlink:href="#linearGradient5514"
       id="linearGradient4709"
       gradientUnits="userSpaceOnUse"
       gradientTransform="matrix(1.4190703,0,0,1.4189289,225.80553,119.44434)"
       x1="21.5"
       y1="21.858999"
       x2="23.892"
       y2="49.359001" />
    <linearGradient
       id="linearGradient5514"
       y2="49.359001"
       gradientUnits="userSpaceOnUse"
       x2="23.892"
       gradientTransform="matrix(1,0,0,0.99858,0,2.0574)"
       y1="21.858999"
       x1="21.5">
      <stop
         id="stop5510"
         style="stop-color:#fff"
         offset="0" />
      <stop
         id="stop5512"
         style="stop-color:#fff;stop-opacity:0"
         offset="1" />
    </linearGradient>
    <linearGradient
       inkscape:collect="always"
       xlink:href="#linearGradient5540"
       id="linearGradient4705"
       gradientUnits="userSpaceOnUse"
       gradientTransform="matrix(1.3842525,0,0,1.3934928,221.53619,120.08504)"
       x1="38.907001"
       y1="38.791"
       x2="35.314999"
       y2="23.059" />
    <linearGradient
       id="linearGradient5540"
       y2="23.059"
       gradientUnits="userSpaceOnUse"
       x2="35.314999"
       y1="38.791"
       x1="38.907001">
      <stop
         id="stop5536"
         style="stop-color:#888a85"
         offset="0" />
      <stop
         id="stop5538"
         style="stop-color:#6b6d68"
         offset="1" />
    </linearGradient>
    <radialGradient
       inkscape:collect="always"
       xlink:href="#radialGradient5791"
       id="radialGradient4707"
       gradientUnits="userSpaceOnUse"
       gradientTransform="matrix(2.4198119,0,0,2.4811139,189.63885,87.243193)"
       cx="30.128"
       cy="29.84"
       r="6.9986" />
    <radialGradient
       id="radialGradient5791"
       gradientUnits="userSpaceOnUse"
       cy="29.84"
       cx="30.128"
       gradientTransform="matrix(1.7481,0,0,1.7805,-23.043,-23.568)"
       r="6.9986">
      <stop
         id="stop5787"
         style="stop-color:#f1f1f0"
         offset="0" />
      <stop
         id="stop5789"
         style="stop-color:#7d7d7d;stop-opacity:1;"
         offset="1" />
    </radialGradient>
    <linearGradient
       inkscape:collect="always"
       xlink:href="#linearGradient5497"
       id="linearGradient4703"
       gradientUnits="userSpaceOnUse"
       gradientTransform="matrix(1.3842525,0,0,1.4030533,226.5541,120.11773)"
       x1="15.876"
       y1="39.987"
       x2="15.876"
       y2="19.573" />
    <linearGradient
       id="linearGradient5497"
       y2="19.573"
       gradientUnits="userSpaceOnUse"
       x2="15.876"
       gradientTransform="matrix(1,0,0,1.0126,0,1.7922)"
       y1="39.987"
       x1="15.876">
      <stop
         id="stop5493"
         style="stop-color:#959792"
         offset="0" />
      <stop
         id="stop5501"
         style="stop-color:#838681"
         offset=".25" />
      <stop
         id="stop5499"
         style="stop-color:#abaca9"
         offset=".62437" />
      <stop
         id="stop5771"
         style="stop-color:#fff"
         offset=".79696" />
      <stop
         id="stop5495"
         style="stop-color:#90928d"
         offset="1" />
    </linearGradient>
    <linearGradient
       inkscape:collect="always"
       xlink:href="#linearGradient6715"
       id="linearGradient4697"
       gradientUnits="userSpaceOnUse"
       gradientTransform="matrix(2.7744,0,0,1.9697,-1892.2,-872.89)"
       x1="302.85999"
       y1="366.64999"
       x2="302.85999"
       y2="609.51001" />
    <linearGradient
       id="linearGradient6715"
       y2="609.51001"
       gradientUnits="userSpaceOnUse"
       x2="302.85999"
       gradientTransform="matrix(2.7744,0,0,1.9697,-1892.2,-872.89)"
       y1="366.64999"
       x1="302.85999">
      <stop
         id="stop5050"
         style="stop-opacity:0"
         offset="0" />
      <stop
         id="stop5056"
         offset=".5" />
      <stop
         id="stop5052"
         style="stop-opacity:0"
         offset="1" />
    </linearGradient>
    <radialGradient
       inkscape:collect="always"
       xlink:href="#linearGradient5060"
       id="radialGradient4699"
       gradientUnits="userSpaceOnUse"
       gradientTransform="matrix(2.7744,0,0,1.9697,-1891.6,-872.89)"
       cx="605.71002"
       cy="486.64999"
       r="117.14" />
    <linearGradient
       id="linearGradient5060">
      <stop
         id="stop5062"
         offset="0" />
      <stop
         id="stop5064"
         style="stop-opacity:0"
         offset="1" />
    </linearGradient>
    <radialGradient
       inkscape:collect="always"
       xlink:href="#linearGradient5060"
       id="radialGradient4701"
       gradientUnits="userSpaceOnUse"
       gradientTransform="matrix(-2.7744,0,0,1.9697,112.76,-872.89)"
       cx="605.71002"
       cy="486.64999"
       r="117.14" />
  </defs>
  <sodipodi:namedview
     id="base"
     pagecolor="#ffffff"
     bordercolor="#666666"
     borderopacity="1.0"
     inkscape:pageopacity="0.0"
     inkscape:pageshadow="2"
     inkscape:zoom="11.140625"
     inkscape:cx="32"
     inkscape:cy="32"
     inkscape:document-units="px"
     inkscape:current-layer="layer1"
     showgrid="false"
     fit-margin-top="0"
     fit-margin-left="0"
     fit-margin-right="0"
     fit-margin-bottom="0" />
  <metadata
     id="metadata6241">
    <rdf:RDF>
      <cc:Work
         rdf:about="">
        <dc:format>image/svg+xml</dc:format>
        <dc:type
           rdf:resource="http://purl.org/dc/dcmitype/StillImage" />
        <dc:title></dc:title>
      </cc:Work>
    </rdf:RDF>
  </metadata>
  <g
     inkscape:label="Capa 1"
     inkscape:groupmode="layer"
     id="layer1"
     transform="translate(-228,-120.36218)">
    <g
       id="g4639"
       style="opacity:0.6;display:inline;enable-background:new"
       transform="matrix(0.02772797,0,0,0.01966159,281.81346,174.91986)">
      <rect
         id="rect4641"
         style="opacity:0.40206;color:#000000;fill:url(#linearGradient4697)"
         height="478.35999"
         width="1339.6"
         y="-150.7"
         x="-1559.3" />
      <path
         inkscape:connector-curvature="0"
         id="path4643"
         style="opacity:0.40206;color:#000000;fill:url(#radialGradient4699)"
         d="m -219.62,-150.68 v 478.33 c 142.88,0.9 345.4,-107.17 345.4,-239.2 0,-132.02 -159.44,-239.13 -345.4,-239.13 z" />
      <path
         inkscape:connector-curvature="0"
         id="path4645"
         style="opacity:0.40206;color:#000000;fill:url(#radialGradient4701)"
         d="m -1559.3,-150.68 v 478.33 c -142.8,0.9 -345.4,-107.17 -345.4,-239.2 0,-132.02 159.5,-239.13 345.4,-239.13 z" />
    </g>
    <path
       inkscape:connector-curvature="0"
       id="path4647"
       style="color:#000000;fill:#5c82ab;fill-opacity:1;fill-rule:evenodd;stroke:#425e7b;stroke-width:1;stroke-linejoin:round;stroke-opacity:1;display:inline;enable-background:new"
       d="m 255.16798,170.45611 25.70142,0.38797 c 0.49833,0 0.58554,0.93804 0.58554,0.93804 -1.03404,3.86583 -5.36259,6.03566 -8.25845,6.03566 l -32.62683,0.0444 c 10.01368,-0.62629 10.70996,-1.22626 11.49898,-5.59641 0.6769,-1.36897 1.93934,-1.8096 3.09934,-1.8096 z" />
    <path
       inkscape:connector-curvature="0"
       id="path4649"
       style="color:#000000;fill:url(#linearGradient4703);stroke:#7d7d7d;stroke-width:1;stroke-linecap:square;stroke-miterlimit:4;stroke-opacity:1;stroke-dasharray:none;display:inline;enable-background:new"
       d="m 240.39663,146.0738 c -4.9667,0 -8.99764,6.91412 -8.99764,15.43276 0,8.51864 4.03094,15.06141 8.99764,15.06141 0.11904,0 0.2284,-0.036 0.34606,-0.0444 v 0.0444 h 30.75809 v -30.53019 c 0,0 -20.50493,0.26049 -31.10415,0.036 z" />
    <path
       inkscape:connector-curvature="0"
       id="path4651"
       style="color:#000000;fill:url(#linearGradient4705);stroke:url(#radialGradient4707);stroke-width:0.99998778;stroke-linecap:square;display:inline;enable-background:new"
       d="m 281.23208,161.27946 a 8.997645,15.242031 0 0 1 -17.99529,0 8.997645,15.242031 0 1 1 17.99529,0 z" />
    <path
       inkscape:connector-curvature="0"
       id="path4653"
       style="opacity:0.41713999;color:#000000;fill:none;stroke:url(#linearGradient4709);stroke-width:0.99715;stroke-linecap:square;display:inline;enable-background:new"
       d="m 271.88841,147.06982 c 0,0 -21.24915,0.24725 -31.14575,0.0398 -4.63653,0 -8.40005,6.35731 -8.40005,14.19098 0,7.83369 3.76352,14.191 8.40005,14.191 0.11069,0 0.21428,-0.0327 0.32355,-0.0398 v 0.0398 h 30.8222 c 4.63611,0 8.39948,-6.35731 8.39948,-14.191 0,-7.83367 -3.76337,-14.19098 -8.39948,-14.19098 v -0.0398 z" />
    <path
       inkscape:connector-curvature="0"
       id="path4655"
       style="fill:url(#linearGradient4711);fill-rule:evenodd;stroke:#7d7d7d;stroke-width:1;stroke-opacity:1;display:inline;enable-background:new"
       d="m 257.2679,129.41674 c -1.45901,0 -2.62316,0.63736 -3.28899,1.73199 l -7.31024,13.81244 -0.51909,1.0392 h 1.1254 1.55728 0.43189 l 0.17303,-0.38935 6.79253,-12.85971 c 0.13427,-0.21754 0.58692,-0.56394 1.03819,-0.56394 l 29.99813,0.0111 c 0.2907,-0.0207 0.39452,0.27574 0.29208,0.41153 l -15.10773,27.54977 -0.34607,0.60552 0.60631,0.34639 1.21122,0.64985 0.60492,0.30344 0.34606,-0.60688 15.31399,-27.92807 c 0.51217,-0.86737 0.3336,-1.83036 -0.0872,-2.59784 -0.46511,-0.85117 -1.41748,-1.54203 -2.63839,-1.51542 H 257.2679 z" />
    <rect
       id="rect4657"
       style="color:#000000;fill:url(#linearGradient4713);stroke:#5a5a5a;stroke-width:1;stroke-linecap:square;stroke-opacity:1;display:inline;enable-background:new"
       rx="2.7685051"
       ry="2.7711899"
       height="5.5423799"
       width="27.512018"
       y="128.02643"
       x="257.6998" />
    <path
       inkscape:connector-curvature="0"
       id="path4659"
       style="opacity:0.38286001;color:#000000;fill:#2e3436;stroke:#2e3436;stroke-width:0.99997455;stroke-linecap:square;display:inline;enable-background:new"
       d="m 275.07827,163.16557 a 2.4656307,3.270689 0 1 1 -4.9307,0 2.4656307,3.270689 0 1 1 4.9307,0 z" />
    <path
       inkscape:connector-curvature="0"
       id="path4661"
       style="color:#000000;fill:url(#radialGradient4715);stroke:url(#linearGradient4717);stroke-width:1;stroke-linecap:square;display:inline;enable-background:new"
       d="m 275.78089,161.90838 a 2.4656307,4.221769 0 1 1 -4.93071,0 2.4656307,4.221769 0 1 1 4.93071,0 z" />
    <path
       inkscape:connector-curvature="0"
       id="path4663"
       style="color:#000000;fill:url(#linearGradient4719);stroke:url(#linearGradient4721);stroke-width:1;stroke-linecap:square;display:inline;enable-background:new"
       d="m 238.31291,150.19595 h 20.80393 c 0.65198,0 1.26521,0.69972 0.74473,1.39529 -3.59906,5.98161 -2.26325,13.86427 0.0872,19.59231 0,0.654 -0.52602,1.17915 -1.178,1.17915 l -21.06417,1.81928 c -0.6524,0 -0.96136,-0.74268 -0.96136,-1.39529 -0.33015,-6.57603 -5.12741,-15.99808 0.66679,-22.30115 0,0 0.24778,-0.28959 0.90046,-0.28959 z" />
    <path
       inkscape:connector-curvature="0"
       id="path4665"
       style="color:#000000;fill:none;stroke:url(#linearGradient4723);stroke-width:1;stroke-linecap:square;display:inline;enable-background:new"
       d="m 237.90941,151.13959 c -2.53224,2.84934 -2.80923,6.30205 -2.29808,10.19356 0.51879,3.95067 1.88483,8.07746 2.07271,11.81885 2.9e-4,0.0145 2.9e-4,0.0303 0,0.0448 l 21.13229,-1.84904 c -2.28971,-5.92964 -3.49369,-13.7473 -0.0433,-20.20812 h -20.86265 z"
       xlink:href="#rect5631" />
    <path
       sodipodi:nodetypes="cccsccssscccc"
       inkscape:connector-curvature="0"
       id="path4669"
       d="m 234.79021,155.17335 c -0.49861,0 -0.60561,0.5196 -0.60561,0.5196 -0.10686,0.94829 -0.48255,1.58494 -0.43258,2.42479 0.0338,0.56823 -3.11804,-0.19893 -3.11457,0.38969 0.0581,9.84688 4.40706,15.11165 10.59818,15.11165 l 18.94696,0.0433 -1.38425,-14.41885 c -0.088,-0.91744 -1.03582,-0.86599 -1.86009,-0.86599 l -12.45827,0 c -0.46096,0 -0.99251,-0.23729 -1.38426,-0.56291 -0.16887,-0.13993 -0.58553,-1.99387 -0.69212,-2.07838 -0.35299,-0.28266 -0.77034,-0.47491 -1.12471,-0.4763 z"
       style="color:#000000;fill:url(#linearGradient4725);fill-opacity:1;fill-rule:evenodd;stroke:url(#radialGradient4727);stroke-width:1;stroke-linejoin:round;stroke-opacity:1;display:inline;enable-background:new" />
    <path
       sodipodi:nodetypes="ccccccsc"
       inkscape:connector-curvature="0"
       id="path4671"
       style="color:#000000;fill:url(#radialGradient4729);fill-opacity:1;fill-rule:evenodd;stroke:url(#linearGradient4731);stroke-width:1;stroke-linejoin:round;display:inline;enable-background:new"
       d="m 256.94398,162.56936 -12.45274,0 c -13.05026,0 -6.16632,0.0356 -14.2723,0.0356 0.0581,9.84686 4.40872,15.20723 10.59984,15.20723 l 32.62683,0.0457 c -10.01368,-0.62767 -12.6133,-9.10889 -13.40233,-13.47768 -0.6769,-1.37035 -1.93934,-1.81096 -3.09934,-1.81096 z" />
    <path
       inkscape:connector-curvature="0"
       id="path4673"
       style="color:#000000;fill:#ffffff;display:inline;enable-background:new"
       d="m 289.75601,131.03491 a 0.4552253,0.45566674 0 0 1 -0.91045,0 0.4552253,0.45566674 0 1 1 0.91045,0 z" />
    <path
       inkscape:connector-curvature="0"
       id="path4675"
       style="fill:#ffffff;fill-rule:evenodd;display:inline;enable-background:new"
       d="m 255.36732,132.15412 -6.85067,13.16592 h -0.55093 l 7.4016,-13.16592 z" />
    <path
       inkscape:connector-curvature="0"
       id="path4677"
       style="fill:#ffffff;fill-rule:evenodd;display:inline;enable-background:new"
       d="m 289.19845,133.13373 -13.7041,25.22891 -0.36683,-0.61243 14.07093,-24.61648 z" />
    <path
       inkscape:connector-curvature="0"
       id="path4679"
       style="color:#000000;fill:#ffffff;display:inline;enable-background:new"
       d="m 255.9903,131.13429 a 0.37107,0.37142983 0 0 1 -0.74214,0 0.37107,0.37142983 0 1 1 0.74214,0 z" />
    <path
       inkscape:connector-curvature="0"
       id="path4681"
       style="opacity:0.53142999;fill:#ffffff;fill-rule:evenodd;display:inline;enable-background:new"
       d="m 280.75589,171.58676 c -0.34606,2.5107 -3.76239,4.97845 -7.00708,5.58534 2.09991,-0.84799 5.22278,-1.79158 7.00708,-5.58534 z" />
    <path
       inkscape:connector-curvature="0"
       id="path4683"
       style="opacity:0.53142999;color:#000000;fill:url(#linearGradient4733);display:inline;enable-background:new"
       d="m 279.41594,128.74486 c -0.72535,0.18859 -1.29843,1.01578 -1.29843,1.99179 0,1.09601 0.70043,2.00357 1.55728,2.03545 h 0.0429 3.11457 0.0443 c 0.85547,-0.0319 1.55728,-0.93944 1.5559,-2.03545 0,-1.09545 -0.70043,-1.9602 -1.5559,-1.99179 h -0.34606 -2.50965 -0.30315 c -0.0152,0 -0.0277,-5.6e-4 -0.0429,0 -0.0928,0.003 -0.17027,-0.023 -0.25886,0 z" />
    <path
       inkscape:connector-curvature="0"
       id="path4685"
       style="opacity:0.48570999;color:#000000;fill:url(#linearGradient4735);display:inline;enable-background:new"
       d="m 284.30991,130.74163 a 1.1902049,1.6028906 0 0 1 -2.3804,0 1.1902049,1.6028906 0 1 1 2.3804,0 z" />
    <path
       inkscape:connector-curvature="0"
       id="path4687"
       style="fill:#babdb6;fill-rule:evenodd;display:inline;enable-background:new"
       d="m 287.28818,130.10483 h -3.48278 c -0.91914,0 -0.82363,1.38559 0,1.38559 h 3.11457 l 0.36821,-1.38559 z" />
    <path
       inkscape:connector-curvature="0"
       id="path4689"
       style="opacity:0.53142999;color:#000000;fill:url(#linearGradient4737);display:inline;enable-background:new"
       d="m 260.20805,128.76245 c -0.91084,0 -1.72893,0.8764 -1.73032,1.99194 0,1.11568 0.79733,2.09946 1.70955,2.09946 l 2.15944,0.0471 c -0.58,-0.26188 -1.29566,-0.97684 -1.29566,-2.13395 0,-1.13592 0.78487,-1.83425 1.24306,-2.03877 -0.42912,-0.0618 -1.68879,0.0342 -2.08607,0.0342 z" />
    <rect
       id="rect4691"
       style="color:#000000;fill:url(#linearGradient4739);display:inline;enable-background:new"
       rx="0.12977368"
       ry="0.12989952"
       height="0.25979903"
       width="3.8498833"
       y="130.33221"
       x="283.63235" />
    <path
       inkscape:connector-curvature="0"
       id="path4693"
       style="color:#000000;fill:#ffffff;display:inline;enable-background:new"
       d="m 282.20659,129.52744 c -0.25193,0 -0.45542,0.20466 -0.45542,0.45669 0,0.063 0.0332,0.11667 0.0568,0.17127 -0.19379,0.38229 -0.12458,1.09795 0.65614,1.77009 -0.48587,-0.61381 -0.52463,-1.12483 -0.37098,-1.51321 0.0388,0.0111 0.0706,0.0285 0.11351,0.0285 0.25193,0 0.4568,-0.20452 0.4568,-0.4567 0,-0.25203 -0.20487,-0.45669 -0.4568,-0.45669 z" />
    <path
       d="m 146.71875,38.1875 c -8.6548,0 -5.56175,0.02694 -9.46875,0.03125 0.13237,3.025773 0.81392,5.425524 1.9375,6.96875 1.22572,1.683519 2.85368,2.5 4.875,2.5 l 18.5625,0.03125 c -1.20766,-0.726951 -2.17107,-1.650378 -2.90625,-2.65625 -1.50987,-2.065813 -2.16336,-4.399606 -2.46875,-6.03125 -0.3558,-0.636512 -0.91412,-0.84375 -1.53125,-0.84375 l -9,0 z"
       id="path4695"
       style="color:#000000;fill:none;stroke:url(#linearGradient4741);stroke-width:0.72206151;stroke-linejoin:round;stroke-opacity:1;display:inline;enable-background:new"
       inkscape:original="M 146.71875 37.4375 C 137.29109 37.4375 142.26211 37.46875 136.40625 37.46875 C 136.44825 44.575351 139.58996 48.4375 144.0625 48.4375 L 167.65625 48.46875 C 160.42225 48.01575 158.53875 41.903 157.96875 38.75 C 157.47975 37.761 156.55675 37.4375 155.71875 37.4375 L 146.71875 37.4375 z "
       inkscape:radius="-0.74675119"
       sodipodi:type="inkscape:offset"
       transform="matrix(1.3842526,0,0,1.3855949,41.38418,110.66077)" />
  </g>
</svg>
