<?xml version="1.0" encoding="UTF-8" standalone="no"?>
<!-- Created with Inkscape (http://www.inkscape.org/) -->

<svg
   xmlns:dc="http://purl.org/dc/elements/1.1/"
   xmlns:cc="http://creativecommons.org/ns#"
   xmlns:rdf="http://www.w3.org/1999/02/22-rdf-syntax-ns#"
   xmlns:svg="http://www.w3.org/2000/svg"
   xmlns="http://www.w3.org/2000/svg"
   xmlns:xlink="http://www.w3.org/1999/xlink"
   xmlns:sodipodi="http://sodipodi.sourceforge.net/DTD/sodipodi-0.dtd"
   xmlns:inkscape="http://www.inkscape.org/namespaces/inkscape"
   version="1.0"
   width="64"
   height="64"
   id="svg4715"
   inkscape:version="0.47 r22583"
   sodipodi:docname="pitivi64c.svg">
  <metadata
     id="metadata3243">
    <rdf:RDF>
      <cc:Work
         rdf:about="">
        <dc:format>image/svg+xml</dc:format>
        <dc:type
           rdf:resource="http://purl.org/dc/dcmitype/StillImage" />
        <dc:title />
      </cc:Work>
    </rdf:RDF>
  </metadata>
  <sodipodi:namedview
     pagecolor="#ffffff"
     bordercolor="#666666"
     borderopacity="1"
     objecttolerance="10"
     gridtolerance="10"
     guidetolerance="10"
     inkscape:pageopacity="0"
     inkscape:pageshadow="2"
     inkscape:window-width="640"
     inkscape:window-height="480"
     id="namedview3241"
     showgrid="false"
     inkscape:zoom="7.6455921"
     inkscape:cx="19.489456"
     inkscape:cy="35.813824"
     inkscape:current-layer="svg4715" />
  <defs
     id="defs4717">
    <linearGradient
       id="linearGradient5060">
      <stop
         id="stop5062"
         style="stop-color:#000000;stop-opacity:1"
         offset="0" />
      <stop
         id="stop5064"
         style="stop-color:#000000;stop-opacity:0"
         offset="1" />
    </linearGradient>
    <linearGradient
       id="linearGradient5048">
      <stop
         id="stop5050"
         style="stop-color:#000000;stop-opacity:0"
         offset="0" />
      <stop
         id="stop5056"
         style="stop-color:#000000;stop-opacity:1"
         offset="0.5" />
      <stop
         id="stop5052"
         style="stop-color:#000000;stop-opacity:0"
         offset="1" />
    </linearGradient>
    <linearGradient
       id="linearGradient3582">
      <stop
         id="stop3584"
         style="stop-color:#333333;stop-opacity:1"
         offset="0" />
      <stop
         id="stop3586"
         style="stop-color:#5a5a5a;stop-opacity:1"
         offset="1" />
    </linearGradient>
    <linearGradient
       id="linearGradient3932">
      <stop
         id="stop3934"
         style="stop-color:#828282;stop-opacity:1"
         offset="0" />
      <stop
         id="stop3936"
         style="stop-color:#434343;stop-opacity:1"
         offset="1" />
    </linearGradient>
    <linearGradient
       id="linearGradient3211">
      <stop
         id="stop3213"
         style="stop-color:#ffffff;stop-opacity:1"
         offset="0" />
      <stop
         id="stop3215"
         style="stop-color:#ffffff;stop-opacity:0"
         offset="1" />
    </linearGradient>
    <linearGradient
       inkscape:collect="always"
       xlink:href="#linearGradient5048"
       id="linearGradient3319"
       gradientUnits="userSpaceOnUse"
       gradientTransform="matrix(0.1021006,0,0,0.02212893,52.097928,111.51231)"
       x1="302.85715"
       y1="366.64789"
       x2="302.85715"
       y2="609.50507" />
    <radialGradient
       inkscape:collect="always"
       xlink:href="#linearGradient5060"
       id="radialGradient3321"
       gradientUnits="userSpaceOnUse"
       gradientTransform="matrix(-0.0349409,0,0,0.02212893,85.407496,111.51235)"
       cx="605.71429"
       cy="486.64789"
       fx="605.71429"
       fy="486.64789"
       r="117.14286" />
    <radialGradient
       inkscape:collect="always"
       xlink:href="#linearGradient5060"
       id="radialGradient3323"
       gradientUnits="userSpaceOnUse"
       gradientTransform="matrix(0.0349409,0,0,0.02212893,92.592497,111.51235)"
       cx="605.71429"
       cy="486.64789"
       fx="605.71429"
       fy="486.64789"
       r="117.14286" />
    <linearGradient
       inkscape:collect="always"
       xlink:href="#linearGradient3211"
       id="linearGradient3342"
       gradientUnits="userSpaceOnUse"
       gradientTransform="matrix(1.3886683,0,0,1.337377,-1.3280333,-0.99559899)"
       x1="24"
       y1="1.9999999"
       x2="24"
       y2="46.01725" />
    <linearGradient
       inkscape:collect="always"
       xlink:href="#linearGradient3932"
       id="linearGradient3348"
       gradientUnits="userSpaceOnUse"
       gradientTransform="matrix(1.1808493,0,0,1.3535901,98.459787,-1.3484446)"
       x1="-22.539846"
       y1="11.109024"
       x2="-22.539846"
       y2="46.263954" />
    <linearGradient
       inkscape:collect="always"
       xlink:href="#linearGradient3582"
       id="linearGradient3350"
       gradientUnits="userSpaceOnUse"
       gradientTransform="matrix(1.2628265,0,0,1.3043494,39.719098,-0.10742022)"
       x1="16.745687"
       y1="46.132927"
       x2="16.745687"
       y2="1.4097958" />
    <linearGradient
       inkscape:collect="always"
       xlink:href="#linearGradient3932"
       id="linearGradient3353"
       gradientUnits="userSpaceOnUse"
       gradientTransform="matrix(1.1808493,0,0,1.3535901,58.923554,-1.3484446)"
       x1="-22.539846"
       y1="11.109024"
       x2="-22.539846"
       y2="46.263954" />
    <linearGradient
       inkscape:collect="always"
       xlink:href="#linearGradient3582"
       id="linearGradient3355"
       gradientUnits="userSpaceOnUse"
       gradientTransform="matrix(1.2628265,0,0,1.3043494,0.18287077,-0.10742022)"
       x1="16.745687"
       y1="46.132927"
       x2="16.745687"
       y2="1.4097958" />
    <linearGradient
       inkscape:collect="always"
       xlink:href="#linearGradient2490-1"
       id="linearGradient3362"
       gradientUnits="userSpaceOnUse"
       gradientTransform="matrix(1.0986134,0,0,1.205926,80.173722,-3.2375729)"
       x1="-51.786404"
       y1="53.623615"
       x2="-51.786404"
       y2="2.9062471" />
    <linearGradient
       id="linearGradient8823">
      <stop
         offset="0"
         style="stop-color:#e35d4f;stop-opacity:1"
         id="stop8825" />
      <stop
         id="stop8827"
         style="stop-color:#8daa32;stop-opacity:1"
         offset="0.29466397" />
      <stop
         id="stop8829"
         style="stop-color:#729eb8;stop-opacity:1;"
         offset="0.57540715" />
      <stop
         offset="1"
         style="stop-color:#727272;stop-opacity:1"
         id="stop8831" />
    </linearGradient>
    <linearGradient
       id="linearGradient2490-1">
      <stop
         id="stop2492-2"
         style="stop-color:#333333;stop-opacity:1"
         offset="0" />
      <stop
         id="stop2494-9"
         style="stop-color:#e35d4f;stop-opacity:1"
         offset="1" />
    </linearGradient>
    <linearGradient
       inkscape:collect="always"
       xlink:href="#linearGradient8823"
       id="linearGradient4583"
       x1="30.472441"
       y1="5.2622981"
       x2="30.472441"
       y2="57.34943"
       gradientUnits="userSpaceOnUse" />
  </defs>
  <g
     id="g3141"
     transform="matrix(0.89855074,0,0,0.83599004,-47.971016,-41.498758)">
    <rect
       style="opacity:0.3;fill:url(#linearGradient3319);fill-opacity:1;fill-rule:nonzero;stroke:none;stroke-width:1;marker:none;visibility:visible;display:inline;overflow:visible"
       id="rect2944"
       y="119.62583"
       x="64.349998"
       height="5.3741703"
       width="49.299999" />
    <path
       style="opacity:0.3;fill:url(#radialGradient3321);fill-opacity:1;fill-rule:nonzero;stroke:none;stroke-width:1;marker:none;visibility:visible;display:inline;overflow:visible"
       id="path2946"
       d="m 64.35,119.62606 c 0,0 0,5.37388 0,5.37388 -1.79937,0.0101 -4.35,-1.20401 -4.35,-2.68729 0,-1.48326 2.007961,-2.68659 4.35,-2.68659 z" />
    <path
       style="opacity:0.3;fill:url(#radialGradient3323);fill-opacity:1;fill-rule:nonzero;stroke:none;stroke-width:1;marker:none;visibility:visible;display:inline;overflow:visible"
       id="path2948"
       d="m 113.65,119.62606 c 0,0 0,5.37388 0,5.37388 1.79937,0.0101 4.35,-1.20401 4.35,-2.68729 0,-1.48326 -2.00796,-2.68659 -4.35,-2.68659 z" />
  </g>
  <path
     style="fill:url(#linearGradient4583);fill-opacity:1.0;stroke:url(#linearGradient3362);stroke-width:0.99992174000000000;stroke-linecap:butt;stroke-linejoin:round;stroke-miterlimit:4;stroke-opacity:1;stroke-dasharray:none;stroke-dashoffset:0;display:inline"
     id="path2950"
     d="m 8.1883684,1.4492399 c 0,0 47.6232616,0 47.6232616,0 0,0 -0.0054,59.3044211 -0.0054,59.3044211 -15.872741,0 -47.618221,0 -47.618221,0 0,0 0,-59.3044211 0,-59.3044211 z" />
  <path
     style="fill:none;stroke:#464646;stroke-width:0.96299994;stroke-linecap:square;stroke-linejoin:round;stroke-miterlimit:4;stroke-opacity:1;stroke-dasharray:none"
     id="path2954"
     d="M 8.8753868,31.118073 54.929065,31.067997" />
  <path
     style="opacity:0.3;fill:#ffffff;fill-rule:evenodd;stroke:#ffffff;stroke-width:0.96299994;stroke-linecap:square;stroke-linejoin:round;stroke-miterlimit:4;stroke-opacity:1;stroke-dasharray:none"
     id="path2956"
     d="M 8.5881184,32.016624 55.514758,31.966548" />
  <path
     style="fill:url(#linearGradient3353);fill-opacity:1;fill-rule:nonzero;stroke:url(#linearGradient3355);stroke-width:0.97335815;stroke-linecap:butt;stroke-linejoin:round;stroke-miterlimit:4;stroke-opacity:1;stroke-dasharray:none;stroke-dashoffset:0;marker:none;visibility:visible;display:block;overflow:visible"
     id="path2958"
     d="m 16.181605,1.4373188 c 0,3.5178432 0.105733,56.4856642 0.105733,59.3282562 -2.591744,0 -5.183491,0 -7.7752361,0 -0.6299542,-0.702469 -0.1509296,-2.097181 -0.3006057,-3.09167 0,-18.631896 0,-37.263792 0,-55.8956841 l 0.087851,-0.2412735 0.2127535,-0.099629 0,0 c 2.6974803,0 4.9720263,0 7.6695033,0 z" />
  <path
     style="fill:url(#linearGradient3348);fill-opacity:1;fill-rule:nonzero;stroke:url(#linearGradient3350);stroke-width:0.97335815;stroke-linecap:butt;stroke-linejoin:round;stroke-miterlimit:4;stroke-opacity:1;stroke-dasharray:none;stroke-dashoffset:0;marker:none;visibility:visible;display:block;overflow:visible"
     id="path3960"
     d="m 55.717831,1.4373188 c 0,3.5178432 0.105732,56.4856642 0.105732,59.3282562 -2.591744,0 -5.183487,0 -7.775231,0 -0.629956,-0.702469 -0.15093,-2.097181 -0.30061,-3.09167 0,-18.631896 0,-37.263792 0,-55.8956841 l 0.08788,-0.2412735 0.21275,-0.099629 0,0 c 2.697476,0 4.972022,0 7.669499,0 z" />
  <path
     style="fill:#ffffff;fill-opacity:1;stroke:none"
     id="rect2980"
     d="m 10.434782,54.913045 3.594203,0 0,2.695652 -3.594203,0 0,-2.695652 z m 0,-5.391305 3.594203,0 0,2.695653 -3.594203,0 0,-2.695653 z m 0,-5.391304 3.594203,0 0,2.695652 -3.594203,0 0,-2.695652 z m 0,-5.391304 3.594203,0 0,2.695652 -3.594203,0 0,-2.695652 z m 0,-5.391305 3.594203,0 0,2.695652 -3.594203,0 0,-2.695652 z m 0,-5.391304 3.594203,0 0,2.695652 -3.594203,0 0,-2.695652 z m 0,-5.391305 3.594203,0 0,2.695652 -3.594203,0 0,-2.695652 z m 0,-5.391304 3.594203,0 0,2.695652 -3.594203,0 0,-2.695652 z m 0,-5.391305 3.594203,0 0,2.695653 -3.594203,0 0,-2.695653 z m 0,-5.3913041 3.594203,0 0,2.6956522 -3.594203,0 0,-2.6956522 z m 39.536233,48.5217401 3.594203,0 0,2.695652 -3.594203,0 0,-2.695652 z m 0,-5.391305 3.594203,0 0,2.695653 -3.594203,0 0,-2.695653 z m 0,-5.391304 3.594203,0 0,2.695652 -3.594203,0 0,-2.695652 z m 0,-5.391304 3.594203,0 0,2.695652 -3.594203,0 0,-2.695652 z m 0,-5.391305 3.594203,0 0,2.695652 -3.594203,0 0,-2.695652 z m 0,-5.391304 3.594203,0 0,2.695652 -3.594203,0 0,-2.695652 z m 0,-5.391305 3.594203,0 0,2.695652 -3.594203,0 0,-2.695652 z m 0,-5.391304 3.594203,0 0,2.695652 -3.594203,0 0,-2.695652 z m 0,-5.391305 3.594203,0 0,2.695653 -3.594203,0 0,-2.695653 z m 0,-5.3913041 3.594203,0 0,2.6956522 -3.594203,0 0,-2.6956522 z" />
  <path
     style="opacity:0.4;fill:none;stroke:url(#linearGradient3342);stroke-width:0.99992186;stroke-linecap:butt;stroke-linejoin:round;stroke-miterlimit:4;stroke-opacity:1;stroke-dasharray:none;stroke-dashoffset:0;display:inline"
     id="path3000"
     d="m 54.913044,2.3477906 c 0,0 3.6e-5,57.5073194 3.6e-5,57.5073194 0,0 -30.550767,0 -45.8261564,0 0,-19.169107 0,-57.5073194 0,-57.5073194 0,0 45.8261204,0 45.8261204,0 z" />
</svg>
