<?xml version="1.0" encoding="UTF-8" standalone="no"?>
<!-- Created with Inkscape (http://www.inkscape.org/) -->

<svg
   xmlns:svg="http://www.w3.org/2000/svg"
   xmlns="http://www.w3.org/2000/svg"
   xmlns:xlink="http://www.w3.org/1999/xlink"
   version="1.0"
   width="22"
   height="22"
   id="svg2">
  <defs
     id="defs4">
    <linearGradient
       id="linearGradient3277-442">
      <stop
         id="stop3378"
         style="stop-color:#575757;stop-opacity:1"
         offset="0" />
      <stop
         id="stop3380"
         style="stop-color:#333333;stop-opacity:1"
         offset="1" />
    </linearGradient>
    <linearGradient
       x1="32.892574"
       y1="27.988184"
       x2="31.364458"
       y2="29.484051"
       id="linearGradient2543"
       xlink:href="#linearGradient3277-442"
       gradientUnits="userSpaceOnUse"
       gradientTransform="matrix(0.5018785,0,0,0.462207,-0.3803386,2.9030377)" />
    <linearGradient
       id="linearGradient11114-516">
      <stop
         id="stop3372"
         style="stop-color:#242424;stop-opacity:0.99215686"
         offset="0" />
      <stop
         id="stop3374"
         style="stop-color:#656565;stop-opacity:1"
         offset="1" />
    </linearGradient>
    <linearGradient
       x1="-172.65306"
       y1="99.667191"
       x2="-164.71831"
       y2="91.972626"
       id="linearGradient2541"
       xlink:href="#linearGradient11114-516"
       gradientUnits="userSpaceOnUse"
       gradientTransform="matrix(0.1953514,0,0,0.1799097,50.0016,0.1087313)" />
    <linearGradient
       id="linearGradient3294">
      <stop
         id="stop3296"
         style="stop-color:#ffffff;stop-opacity:0.19520548"
         offset="0" />
      <stop
         id="stop3298"
         style="stop-color:#ffffff;stop-opacity:0"
         offset="1" />
    </linearGradient>
    <linearGradient
       x1="212.04402"
       y1="123.74026"
       x2="210.58083"
       y2="74.261711"
       id="linearGradient2538"
       xlink:href="#linearGradient3294"
       gradientUnits="userSpaceOnUse"
       gradientTransform="matrix(0.1953514,0,0,0.1799097,-25.223109,1.847388)" />
    <linearGradient
       x1="173.09576"
       y1="75.31868"
       x2="173.09576"
       y2="11.949074"
       id="linearGradient2768"
       xlink:href="#linearGradient6209-717-8"
       gradientUnits="userSpaceOnUse"
       gradientTransform="matrix(0.25241056,0,0,0.24768123,-33.347882,-1.5077561)" />
    <linearGradient
       id="linearGradient6209-717-8">
      <stop
         id="stop3366-2"
         style="stop-color:#979797;stop-opacity:1"
         offset="0" />
      <stop
         id="stop3368-6"
         style="stop-color:#000000;stop-opacity:0.34117648"
         offset="1" />
    </linearGradient>
    <linearGradient
       x1="173.09576"
       y1="75.31868"
       x2="173.09576"
       y2="11.949074"
       id="linearGradient2770"
       xlink:href="#linearGradient2300-465-0"
       gradientUnits="userSpaceOnUse"
       gradientTransform="matrix(0.26503957,0,0,0.26007367,-35.60376,-1.8923759)" />
    <linearGradient
       id="linearGradient2300-465-0">
      <stop
         id="stop3396-6"
         style="stop-color:#343434;stop-opacity:0.97647059"
         offset="0" />
      <stop
         id="stop3398-6"
         style="stop-color:#929292;stop-opacity:1"
         offset="1" />
    </linearGradient>
    <linearGradient
       x1="41.541653"
       y1="68.291702"
       x2="41.485142"
       y2="4.5362983"
       id="linearGradient2772"
       xlink:href="#linearGradient11104-770-4"
       gradientUnits="userSpaceOnUse"
       gradientTransform="matrix(0.26503957,0,0,0.26007367,-1.2251676,0.06491325)" />
    <linearGradient
       id="linearGradient11104-770-4">
      <stop
         id="stop3402-6"
         style="stop-color:#333333;stop-opacity:1"
         offset="0" />
      <stop
         id="stop3404-2"
         style="stop-color:#333333;stop-opacity:0.6122449"
         offset="1" />
    </linearGradient>
    <radialGradient
       cx="15.414371"
       cy="13.078408"
       r="6.65625"
       fx="15.414371"
       fy="13.078408"
       id="radialGradient2774"
       xlink:href="#linearGradient4467-402-8"
       gradientUnits="userSpaceOnUse"
       gradientTransform="matrix(2.0158417,0,0,1.5371635,-23.248085,-15.562233)" />
    <linearGradient
       id="linearGradient4467-402-8">
      <stop
         id="stop3390-9"
         style="stop-color:#ffffff;stop-opacity:1"
         offset="0" />
      <stop
         id="stop3392-6"
         style="stop-color:#ffffff;stop-opacity:0.24761905"
         offset="1" />
    </linearGradient>
    <linearGradient
       id="linearGradient4454-600-0">
      <stop
         id="stop3408-7"
         style="stop-color:#93b9dd;stop-opacity:1"
         offset="0" />
      <stop
         id="stop3410-0"
         style="stop-color:#6396cd;stop-opacity:1"
         offset="1" />
    </linearGradient>
    <radialGradient
       cx="18.240929"
       cy="21.817987"
       r="8.3085051"
       fx="18.240929"
       fy="21.817987"
       id="radialGradient2899"
       xlink:href="#linearGradient4454-600-0"
       gradientUnits="userSpaceOnUse"
       gradientTransform="matrix(0.97736625,0,0,0.93573324,-6.5069056,-8.1835078)" />
    <linearGradient
       id="linearGradient8838">
      <stop
         id="stop8840"
         style="stop-color:#7f7f7f;stop-opacity:1"
         offset="0" />
      <stop
         id="stop8842"
         style="stop-color:#808080;stop-opacity:0"
         offset="1" />
    </linearGradient>
    <radialGradient
       cx="62.625"
       cy="4.625"
       r="10.625"
       fx="62.625"
       fy="4.625"
       id="radialGradient2877"
       xlink:href="#linearGradient8838"
       gradientUnits="userSpaceOnUse"
       gradientTransform="matrix(1.0352968,0,0,0.46484286,-52.835445,15.91349)" />
  </defs>
  <g
     transform="matrix(0.99999743,0,0,0.99646938,-0.99998493,-0.9187957)"
     id="layer1">
    <path
       d="m 23.000042,18.063392 a 11.000028,4.9389624 0 0 1 -22.0000535,0 11.000028,4.9389624 0 1 1 22.0000535,0 z"
       id="path8836"
       style="opacity:0.5;fill:url(#radialGradient2877);fill-opacity:1;fill-rule:evenodd;stroke:none;stroke-width:0.99999988;marker:none;visibility:visible;display:inline;overflow:visible" />
    <path
       d="M 16.06147,14.735295 22.502044,20.545552 20.673646,22.5 14.264706,16.077833 16.06147,14.735295 z"
       id="path11112"
       style="fill:url(#linearGradient2541);fill-opacity:1;fill-rule:evenodd;stroke:url(#linearGradient2543);stroke-width:1;stroke-linecap:round;stroke-linejoin:round;stroke-miterlimit:4;stroke-opacity:1;stroke-dasharray:none;display:inline" />
    <path
       d="m 21.217785,22.008568 -3.828581,-6.367777 5.387013,4.555441 -1.558432,1.812336 z"
       id="path11122"
       style="fill:url(#linearGradient2538);fill-opacity:1;fill-rule:evenodd;stroke:none;display:inline" />
    <path
       d="m 22.909355,20.278946 c 0.32763,0.198483 -0.417934,1.352826 -0.886131,1.841082 -0.468197,0.488255 -1.103991,1.016477 -1.431433,0.817799 -0.32763,-0.198484 0.241463,-0.999886 0.70966,-1.488142 0.468197,-0.488255 1.280462,-1.369417 1.607904,-1.170739 z"
       id="path13082"
       style="fill:#3e3e3e;fill-opacity:1;stroke:none;display:inline" />
    <path
       d="m 18.804717,9.1072445 a 8.1204526,7.7745455 0 0 1 -16.2409045,0 8.1204526,7.7745455 0 1 1 16.2409045,0 z"
       id="path4452"
       style="fill:url(#radialGradient2899);fill-opacity:1;fill-rule:evenodd;stroke:none;stroke-width:0.88163906;marker:none;visibility:visible;display:inline" />
    <path
       d="m 10.349756,2.4144417 c -4.0485246,0 -7.3269064,2.8782651 -7.3269064,6.4326829 0,1.0265303 0.090776,2.0868164 0.5781154,2.9482794 0.9736354,0.315071 2.243894,0.413656 3.3416291,0.413656 4.7974739,0 8.9238729,-3.4919612 9.2199359,-7.6387599 C 14.816831,3.1741316 12.594548,2.4144417 10.349756,2.4144417 z"
       id="path4462"
       style="opacity:0.83422457;fill:url(#radialGradient2774);fill-opacity:1;fill-rule:evenodd;stroke:none;stroke-width:1;marker:none;visibility:visible;display:inline;overflow:visible" />
    <path
       d="m 10.505747,1.3436171 c -4.9871262,0 -9.0361961,3.6637089 -9.0361934,8.1760654 0,4.5123565 4.0490672,8.1760655 9.0361934,8.1760655 4.987121,0 9.036192,-3.663709 9.036192,-8.1760655 0,-4.5123565 -4.049069,-8.1760654 -9.036192,-8.1760654 z m 0.107671,0.536402 c 4.463508,0 8.09199,3.2759827 8.09199,7.3145709 0,4.038589 -3.628482,7.314571 -8.09199,7.314571 -4.4635097,1e-6 -8.0837061,-3.275981 -8.0837061,-7.314571 0,-4.0385882 3.6201964,-7.3145709 8.0837061,-7.3145709 z"
       id="path2298"
       style="fill:url(#linearGradient2770);fill-opacity:1;stroke:url(#linearGradient2772);stroke-width:0.84313196;stroke-linecap:round;stroke-linejoin:round;stroke-miterlimit:4;stroke-opacity:1;stroke-dasharray:none;display:inline" />
    <path
       d="m 10.563725,1.5793089 c -4.7494915,0 -8.5972222,3.4886088 -8.5972222,7.7859547 0,4.2973454 3.8477281,7.7859554 8.5972222,7.7859554 4.749489,0 8.605501,-3.48861 8.605501,-7.7859554 0,-4.2973459 -3.856016,-7.7859547 -8.605501,-7.7859547 z m 0.0497,0.3007102 c 4.463507,0 7.738012,3.2759827 7.738012,7.3145709 0,4.038589 -3.274505,6.967227 -7.738012,6.967227 -4.4635115,1e-6 -7.7887268,-2.928637 -7.7887268,-6.967227 0,-4.0385882 3.3252153,-7.3145709 7.7887268,-7.3145709 z"
       id="path4267"
       style="fill:url(#linearGradient2768);fill-opacity:1;stroke:none;display:inline" />
    <path
       d="m 6.5,7.5 0,3 8,0 0,-3 -8,0 z"
       id="path3643"
       style="fill:#fefefe;fill-opacity:1;stroke:#387ab8;stroke-width:1;stroke-linecap:butt;stroke-linejoin:miter;stroke-miterlimit:4;stroke-opacity:1;stroke-dasharray:none" />
  </g>
</svg>
