<?xml version="1.0" encoding="UTF-8" standalone="no"?>
<!-- Created with Inkscape (http://www.inkscape.org/) -->

<svg
   xmlns:dc="http://purl.org/dc/elements/1.1/"
   xmlns:cc="http://creativecommons.org/ns#"
   xmlns:rdf="http://www.w3.org/1999/02/22-rdf-syntax-ns#"
   xmlns:svg="http://www.w3.org/2000/svg"
   xmlns="http://www.w3.org/2000/svg"
   xmlns:xlink="http://www.w3.org/1999/xlink"
   xmlns:sodipodi="http://sodipodi.sourceforge.net/DTD/sodipodi-0.dtd"
   xmlns:inkscape="http://www.inkscape.org/namespaces/inkscape"
   width="48"
   height="48"
   id="svg5543"
   version="1.1"
   inkscape:version="0.48.1 r9760"
   sodipodi:docname="Nuevo documento 16">
  <defs
     id="defs5545">
    <linearGradient
       inkscape:collect="always"
       xlink:href="#linearGradient4371"
       id="linearGradient4780"
       gradientUnits="userSpaceOnUse"
       gradientTransform="matrix(0.35494418,0,0,0.35513982,134.19754,2.5260902)"
       x1="96.53125"
       y1="96.349068"
       x2="96.53125"
       y2="51.303764" />
    <linearGradient
       inkscape:collect="always"
       id="linearGradient4371">
      <stop
         style="stop-color:#aebdc6;stop-opacity:1;"
         offset="0"
         id="stop4373" />
      <stop
         style="stop-color:#d1dadf;stop-opacity:1"
         offset="1"
         id="stop4375" />
    </linearGradient>
    <linearGradient
       inkscape:collect="always"
       xlink:href="#linearGradient4337"
       id="linearGradient4782"
       gradientUnits="userSpaceOnUse"
       gradientTransform="matrix(0.35494418,0,0,0.35513982,134.19754,2.5260902)"
       x1="43.109417"
       y1="95.349419"
       x2="43.109417"
       y2="48.280468" />
    <linearGradient
       inkscape:collect="always"
       id="linearGradient4337">
      <stop
         style="stop-color:#7795cb;stop-opacity:1;"
         offset="0"
         id="stop4339" />
      <stop
         style="stop-color:#a2b7dc;stop-opacity:1"
         offset="1"
         id="stop4341" />
    </linearGradient>
    <linearGradient
       inkscape:collect="always"
       xlink:href="#linearGradient4397"
       id="linearGradient4784"
       gradientUnits="userSpaceOnUse"
       gradientTransform="matrix(-0.35494418,0,0,0.35513982,183.55696,2.5260902)"
       x1="43.406246"
       y1="52.561516"
       x2="40.531254"
       y2="59.561516" />
    <linearGradient
       inkscape:collect="always"
       id="linearGradient4397">
      <stop
         style="stop-color:#ffffff;stop-opacity:1;"
         offset="0"
         id="stop4399" />
      <stop
         style="stop-color:#ffffff;stop-opacity:0;"
         offset="1"
         id="stop4401" />
    </linearGradient>
    <linearGradient
       inkscape:collect="always"
       xlink:href="#linearGradient4298"
       id="linearGradient4786"
       gradientUnits="userSpaceOnUse"
       x1="43.016502"
       y1="38.863907"
       x2="43.016502"
       y2="129.62564" />
    <linearGradient
       inkscape:collect="always"
       id="linearGradient4298">
      <stop
         style="stop-color:#ffffff;stop-opacity:1;"
         offset="0"
         id="stop4300" />
      <stop
         style="stop-color:#ffffff;stop-opacity:0;"
         offset="1"
         id="stop4302" />
    </linearGradient>
    <linearGradient
       inkscape:collect="always"
       xlink:href="#linearGradient4298"
       id="linearGradient4788"
       gradientUnits="userSpaceOnUse"
       x1="96.961967"
       y1="39.049812"
       x2="96.961967"
       y2="129.64438" />
    <linearGradient
       inkscape:collect="always"
       xlink:href="#linearGradient4384"
       id="linearGradient4790"
       gradientUnits="userSpaceOnUse"
       gradientTransform="matrix(0.35494418,0,0,0.35513982,134.19753,2.5260902)"
       x1="77.531258"
       y1="65.804642"
       x2="115.6882"
       y2="99.304642" />
    <linearGradient
       inkscape:collect="always"
       id="linearGradient4384">
      <stop
         style="stop-color:#ffffff;stop-opacity:1;"
         offset="0"
         id="stop4386" />
      <stop
         style="stop-color:#ffffff;stop-opacity:0;"
         offset="1"
         id="stop4388" />
    </linearGradient>
    <linearGradient
       inkscape:collect="always"
       xlink:href="#linearGradient4397"
       id="linearGradient4792"
       gradientUnits="userSpaceOnUse"
       gradientTransform="matrix(0.35494418,0,0,0.35513982,134.19753,2.5260902)"
       x1="43.406246"
       y1="52.561516"
       x2="40.531254"
       y2="59.561516" />
    <linearGradient
       inkscape:collect="always"
       xlink:href="#linearGradient4384"
       id="linearGradient4794"
       gradientUnits="userSpaceOnUse"
       gradientTransform="matrix(-0.35494418,0,0,0.35513982,183.55699,2.5260902)"
       x1="77.531258"
       y1="65.804642"
       x2="115.6882"
       y2="99.304642" />
    <radialGradient
       inkscape:collect="always"
       xlink:href="#linearGradient4286"
       id="radialGradient4796"
       gradientUnits="userSpaceOnUse"
       gradientTransform="matrix(0,0.37143555,-0.44767345,0,159.2184,-14.146259)"
       cx="57.438339"
       cy="1.0861706"
       fx="57.438339"
       fy="1.0861706"
       r="50.720798" />
    <linearGradient
       id="linearGradient4286">
      <stop
         style="stop-color:#edf5f4;stop-opacity:1;"
         offset="0"
         id="stop4288" />
      <stop
         id="stop4355"
         offset="0.54185843"
         style="stop-color:#c6e0dd;stop-opacity:1;" />
      <stop
         style="stop-color:#9fcbc4;stop-opacity:1;"
         offset="1"
         id="stop4290" />
    </linearGradient>
    <linearGradient
       inkscape:collect="always"
       xlink:href="#linearGradient4298"
       id="linearGradient4798"
       gradientUnits="userSpaceOnUse"
       x1="71.270515"
       y1="20.490189"
       x2="71.270515"
       y2="61.467667" />
    <radialGradient
       r="10.625"
       fy="4.625"
       fx="62.625"
       cy="4.625"
       cx="62.625"
       gradientTransform="matrix(2.1647059,0,0,0.96435829,173.00672,350.22713)"
       gradientUnits="userSpaceOnUse"
       id="radialGradient3022"
       xlink:href="#linearGradient8838"
       inkscape:collect="always" />
    <linearGradient
       id="linearGradient8838">
      <stop
         id="stop8840"
         style="stop-color:#000000;stop-opacity:1"
         offset="0" />
      <stop
         id="stop8842"
         style="stop-color:#000000;stop-opacity:0"
         offset="1" />
    </linearGradient>
  </defs>
  <sodipodi:namedview
     id="base"
     pagecolor="#ffffff"
     bordercolor="#666666"
     borderopacity="1.0"
     inkscape:pageopacity="0.0"
     inkscape:pageshadow="2"
     inkscape:zoom="14.854167"
     inkscape:cx="24"
     inkscape:cy="24"
     inkscape:document-units="px"
     inkscape:current-layer="layer1"
     showgrid="false"
     fit-margin-top="0"
     fit-margin-left="0"
     fit-margin-right="0"
     fit-margin-bottom="0" />
  <metadata
     id="metadata5548">
    <rdf:RDF>
      <cc:Work
         rdf:about="">
        <dc:format>image/svg+xml</dc:format>
        <dc:type
           rdf:resource="http://purl.org/dc/dcmitype/StillImage" />
        <dc:title></dc:title>
      </cc:Work>
    </rdf:RDF>
  </metadata>
  <g
     inkscape:label="Capa 1"
     inkscape:groupmode="layer"
     id="layer1"
     transform="translate(-284.57144,-316.93362)">
    <path
       inkscape:connector-curvature="0"
       d="m 331.57143,354.68729 c 0,5.65889 -10.29745,10.24632 -23,10.24632 -12.70254,0 -23,-4.58743 -23,-10.24632 0,-5.65889 10.29746,-10.24632 23,-10.24632 12.70255,0 23,4.58743 23,10.24632 l 0,0 z"
       id="path8836-6"
       style="opacity:0.3;fill:url(#radialGradient3022);fill-opacity:1;fill-rule:evenodd;stroke:none;stroke-width:0.99999988;marker:none;visibility:visible;display:inline;overflow:visible;enable-background:new" />
    <g
       style="display:inline;enable-background:new"
       id="g4768"
       transform="matrix(1.1000001,0,0,1.1000001,133.58685,308.08361)">
      <path
         inkscape:connector-curvature="0"
         id="path4639"
         d="m 176.91285,16.432031 c 0.0615,0.0715 0.0774,0.1406 -0.0111,0.18867 -5.82548,3.16544 -17.85912,7.87429 -17.95796,7.91296 -0.002,0.54307 -0.0666,16.50476 -0.0666,23.70557 0,0.63489 1.13337,-0.0668 1.50851,-0.24415 5.16913,-2.44405 11.81679,-5.14197 16.67129,-7.94625 0.45607,-0.26346 0.76535,-0.86035 0.76535,-1.38727 0,-7.19245 0.0998,-13.47123 0.0998,-20.5981 0,-0.63283 -0.42647,-1.36955 -1.00938,-1.63143 z"
         style="fill:url(#linearGradient4780);fill-opacity:1;stroke:#617e91;stroke-width:0.90909082px;stroke-linecap:round;stroke-linejoin:round;stroke-opacity:1" />
      <path
         sodipodi:nodetypes="csssssscssc"
         inkscape:connector-curvature="0"
         id="path4641"
         d="m 141.3297,16.476421 c -0.034,0.01 -0.0662,0.0227 -0.0998,0.0333 -0.61097,0.19284 -0.99828,1.00152 -0.99828,1.64252 0,6.38981 0.0887,13.38034 0.0887,20.03211 0,0.68278 0.227,1.53136 0.80972,1.88667 4.23523,2.58247 10.9689,5.31105 16.59364,7.95735 0.37163,0.17485 1.19794,0.68835 1.19794,0.27745 0,-9.24257 -0.0533,-23.28207 -0.0554,-23.78326 -0.0363,-0.016 -0.99126,-0.43498 -2.44801,-1.07969 -4.15843,-1.84037 -12.4057,-5.51968 -15.04408,-6.91095 -0.0271,-0.0143 -0.0366,-0.0342 -0.0444,-0.0555 z"
         style="fill:url(#linearGradient4782);fill-opacity:1;stroke:#496ca9;stroke-width:0.90909082px;stroke-linecap:round;stroke-linejoin:round;stroke-opacity:1" />
      <path
         style="opacity:0.7;fill:url(#linearGradient4784);fill-opacity:1;stroke:none"
         d="m 176.4248,16.476431 c 0.034,0.01 0.0662,0.0227 0.0998,0.0332 0.39474,0.12459 0.69021,0.50482 0.85409,0.93224 -0.0953,0.53167 -0.32656,1.05988 -0.75426,1.32068 -4.23523,2.58246 -10.9689,5.31105 -16.59364,7.95735 -0.31868,0.14993 -0.97394,0.54795 -1.15357,0.39953 0.003,-0.62824 0.0108,-2.52139 0.0111,-2.59696 0.0363,-0.016 0.99458,-0.43181 2.45133,-1.07652 4.15843,-1.84037 12.40238,-5.52285 15.04076,-6.91412 0.0271,-0.0143 0.0366,-0.0342 0.0444,-0.0555 z"
         id="path4643"
         inkscape:connector-curvature="0" />
      <path
         transform="matrix(0.35494418,0,0,0.35513982,134.19753,2.5260902)"
         d="m 20.3125,42.71875 c -0.2132,0.405693 -0.375,0.985025 -0.375,1.28125 0,17.965117 0.25,37.650082 0.25,56.40625 0,1.27011 0.720872,2.71857 0.875,2.8125 11.346474,6.91481 29.862688,14.48621 45.65625,21.875 C 66.70397,100.04434 66.575197,67.060702 66.5625,63.84375 64.993526,63.154916 57.392513,59.817322 47.28125,55.28125 36.821612,50.588892 25.94764,45.606013 20.3125,42.71875 z"
         id="path4645"
         style="opacity:0.7;fill:none;stroke:url(#linearGradient4786);stroke-width:2.56051636px;stroke-linecap:round;stroke-linejoin:round;stroke-opacity:1"
         inkscape:original="M 20.09375 39.28125 C 19.99811 39.30917 19.907232 39.34512 19.8125 39.375 C 18.09118 39.917989 17 42.195069 17 44 C 17 61.99237 17.25 81.676262 17.25 100.40625 C 17.25 102.32881 17.889534 104.71825 19.53125 105.71875 C 31.46335 112.99045 50.434401 120.67356 66.28125 128.125 C 67.328262 128.61732 69.65625 130.06324 69.65625 128.90625 C 69.65625 102.88104 69.506006 63.34874 69.5 61.9375 C 69.105973 61.764476 30.255943 44.727398 20.21875 39.4375 C 20.1423 39.39721 20.11562 39.34096 20.09375 39.28125 z "
         inkscape:radius="-2.9420724"
         sodipodi:type="inkscape:offset" />
      <path
         transform="matrix(0.35494418,0,0,0.35513982,134.19753,2.5260902)"
         d="m 119.9375,43 c -16.41529,8.648168 -44.370366,19.685694 -47.40625,20.875 -0.01436,3.671877 -0.172628,41.02765 -0.1875,61.75 0.09322,-0.0458 0.157898,-0.0815 0.25,-0.125 14.682195,-6.93816 33.35886,-14.54988 46.75,-22.28125 0.17158,-0.0991 0.75,-1.08341 0.75,-1.46875 0,-20.278423 0.28125,-37.958401 0.28125,-58 0,-0.19219 -0.27174,-0.430549 -0.4375,-0.75 z"
         id="path4647"
         style="opacity:0.7;fill:none;stroke:url(#linearGradient4788);stroke-width:2.56051636px;stroke-linecap:round;stroke-linejoin:round;stroke-opacity:1"
         inkscape:original="M 120.34375 39.15625 C 120.51695 39.357474 120.56167 39.552154 120.3125 39.6875 C 103.90013 48.600707 69.997204 61.85987 69.71875 61.96875 C 69.71305 63.49792 69.53125 108.44274 69.53125 128.71875 C 69.53125 130.50646 72.724328 128.5307 73.78125 128.03125 C 88.344459 121.14932 107.0732 113.55255 120.75 105.65625 C 122.03491 104.9144 122.90625 103.23369 122.90625 101.75 C 122.90625 81.497549 123.1875 63.81781 123.1875 43.75 C 123.1875 41.968115 121.98599 39.893652 120.34375 39.15625 z "
         inkscape:radius="-2.8053448"
         sodipodi:type="inkscape:offset" />
      <path
         sodipodi:nodetypes="cscssssssc"
         inkscape:connector-curvature="0"
         id="path4649"
         d="m 176.91285,16.432031 c 0.0615,0.0715 0.0774,0.1406 -0.0111,0.18867 -5.82548,3.16544 -17.85912,7.87429 -17.95796,7.91296 -0.002,0.54307 -0.0666,16.50476 -0.0666,23.70557 0,0.63489 1.13336,-0.0668 1.50851,-0.24415 0.88096,-0.41654 2.25899,-2.55116 2.40697,-3.5847 0,0 -0.49704,-11.36212 2.28493,-15.95908 2.73293,-4.51591 10.89045,-6.98784 10.89236,-8.01285 7e-4,-0.38195 1.95219,-1.98833 1.95219,-2.37499 0,-0.63283 -0.42648,-1.36955 -1.00938,-1.63143 z"
         style="opacity:0.4;fill:url(#linearGradient4790);fill-opacity:1;stroke:none" />
      <path
         inkscape:connector-curvature="0"
         id="path4651"
         d="m 141.32969,16.476431 c -0.034,0.01 -0.0662,0.0227 -0.0998,0.0332 -0.39474,0.12459 -0.69021,0.50482 -0.85409,0.93224 0.0953,0.53167 0.32655,1.05988 0.75426,1.32068 4.23523,2.58246 10.9689,5.31105 16.59364,7.95735 0.31868,0.14993 0.97394,0.54795 1.15357,0.39953 -0.002,-0.62824 -0.0108,-2.52139 -0.0111,-2.59696 -0.0363,-0.016 -0.99458,-0.43181 -2.45133,-1.07652 -4.15844,-1.84037 -12.40238,-5.52285 -15.04077,-6.91412 -0.0271,-0.0143 -0.0366,-0.0342 -0.0444,-0.0555 z"
         style="opacity:0.5;fill:url(#linearGradient4792);fill-opacity:1;stroke:none" />
      <path
         style="opacity:0.15;fill:url(#linearGradient4794);fill-opacity:1;stroke:none"
         d="m 140.84168,16.432031 c -0.0615,0.0715 -0.0774,0.1406 0.011,0.18867 5.82548,3.16544 17.85913,7.87429 17.95797,7.91296 0.002,0.54307 0.0666,16.50476 0.0666,23.70557 0,0.63489 -1.13335,-0.0668 -1.5085,-0.24415 -0.88096,-0.41654 -2.25899,-2.55116 -2.40697,-3.5847 0,0 0.49703,-11.36212 -2.28494,-15.95908 -2.73292,-4.51591 -10.89044,-6.98784 -10.89235,-8.01285 -7.1e-4,-0.38195 -1.95219,-1.98833 -1.95219,-2.37499 0,-0.63283 0.42647,-1.36955 1.00937,-1.63143 z"
         id="path4653"
         inkscape:connector-curvature="0"
         sodipodi:nodetypes="cscssssssc" />
      <path
         sodipodi:nodetypes="cssssssc"
         inkscape:connector-curvature="0"
         id="path4655"
         d="m 158.91179,24.546101 c 0,0 -13.95448,-6.13022 -17.53524,-8.01843 -0.21707,-0.11447 0.24265,-0.48265 0.46895,-0.5765 6.48096,-2.68778 10.03811,-4.02573 15.62207,-6.1652708 0.9507,-0.36427 2.23432,-0.34763 2.93751,-0.13355 5.29589,1.6122808 9.80579,3.8119808 15.71902,6.3223908 0.30857,0.13101 1.07561,0.48353 0.78053,0.64386 -5.84946,3.17847 -17.99284,7.9275 -17.99284,7.9275 z"
         style="fill:url(#radialGradient4796);fill-opacity:1;stroke:#49a998;stroke-width:0.90909082px;stroke-linecap:round;stroke-linejoin:round;stroke-opacity:1;display:inline;enable-background:new" />
      <path
         transform="matrix(0.35494418,0,0,0.35513982,134.19753,2.5260902)"
         d="M 70.03125,22.25 C 68.756978,22.285271 67.443474,22.482449 66.5,22.84375 51.805531,28.470968 41.52872,32.418755 25.46875,39.03125 37.774869,45.100484 68.063653,58.473643 69.6875,59.1875 71.274466,58.56447 98.443396,47.799491 115.0625,39.375 99.434476,32.68131 87.114953,26.797524 73.09375,22.53125 72.528296,22.359197 71.304157,22.214766 70.03125,22.25 z"
         id="path4657"
         style="opacity:0.7;fill:none;stroke:url(#linearGradient4798);stroke-width:2.56051636px;stroke-linecap:round;stroke-linejoin:round;stroke-opacity:1;display:inline;enable-background:new"
         inkscape:original="M 69.96875 19.65625 C 68.482203 19.697397 66.90171 19.924653 65.5625 20.4375 C 49.830547 26.46202 39.821588 30.244295 21.5625 37.8125 C 20.924924 38.076768 19.607164 39.115176 20.21875 39.4375 C 30.306979 44.754296 69.625 62 69.625 62 C 69.625 62 103.83258 48.637393 120.3125 39.6875 C 121.14385 39.236015 118.99434 38.243868 118.125 37.875 C 101.46541 30.806182 88.76409 24.602357 73.84375 20.0625 C 72.853189 19.761099 71.455297 19.615103 69.96875 19.65625 z "
         inkscape:radius="-2.5823238"
         sodipodi:type="inkscape:offset" />
    </g>
  </g>
</svg>
